<?xml version="1.0" encoding="UTF-8" standalone="no"?>
<svg
   xmlns:dc="http://purl.org/dc/elements/1.1/"
   xmlns:cc="http://creativecommons.org/ns#"
   xmlns:rdf="http://www.w3.org/1999/02/22-rdf-syntax-ns#"
   xmlns:svg="http://www.w3.org/2000/svg"
   xmlns="http://www.w3.org/2000/svg"
   xmlns:sodipodi="http://sodipodi.sourceforge.net/DTD/sodipodi-0.dtd"
   xmlns:inkscape="http://www.inkscape.org/namespaces/inkscape"
   version="1.0"
   width="46"
   height="22"
   id="svg2"
   inkscape:version="0.47 r22583"
   sodipodi:docname="02-08-004-02-01-08.svg">
  <defs
     id="defs16">
    <inkscape:perspective
       sodipodi:type="inkscape:persp3d"
       inkscape:vp_x="0 : 23 : 1"
       inkscape:vp_y="0 : 1000 : 0"
       inkscape:vp_z="36 : 23 : 1"
       inkscape:persp3d-origin="18 : 15.333333 : 1"
       id="perspective18" />
  </defs>
  <sodipodi:namedview
     pagecolor="#ffffff"
     bordercolor="#666666"
     borderopacity="1"
     objecttolerance="10"
     gridtolerance="10"
     guidetolerance="10"
     inkscape:pageopacity="0"
     inkscape:pageshadow="2"
     inkscape:window-width="964"
     inkscape:window-height="721"
     id="namedview14"
     showgrid="true"
     inkscape:zoom="16.328077"
     inkscape:cx="22.997868"
     inkscape:cy="10.99898"
     inkscape:window-x="365"
     inkscape:window-y="0"
     inkscape:window-maximized="0"
     inkscape:current-layer="svg2"
     showborder="true">
    <inkscape:grid
       type="xygrid"
       id="grid2824"
       empspacing="5"
       visible="true"
       enabled="true"
       snapvisiblegridlinesonly="true" />
  </sodipodi:namedview>
  <metadata
     id="metadata4">
Valerie Sutton's pixel definition of the
ISWA 2010 symbol ID 04-01-003-01-01-01
transformed by Stephen E Slevinski Jr
using line and fill polygon tracing
<rdf:RDF>
  <cc:Work
     rdf:about="">
    <dc:format>image/svg+xml</dc:format>
    <dc:type
       rdf:resource="http://purl.org/dc/dcmitype/StillImage" />
    <dc:title></dc:title>
  </cc:Work>
</rdf:RDF>
</metadata>
  <path
     style="fill:#000000;fill-opacity:1;stroke:none"
     d="M 0,12.313709 0,1 11.313709,1 0,12.313709 z"
     id="path2839" />
  <path
     style="fill:#000000;fill-opacity:1;stroke:none"
     d="m 4.949747,7.363961 9.899496,9.899495 c 1.952621,1.952622 5.118446,1.952622 7.071068,0 0.976311,-0.976311 1.458408,-2.255922 1.458408,-3.535534 L 23.688078,5.949747 C 23.607807,5.3845 23.866022,4.711141 24.395184,4.181981 25.176232,3.400932 26.284271,3.242641 26.870058,3.828427 l 5.656853,5.656854 c 2.953341,2.953341 3.535535,12.020816 3.535535,12.020816 l 9.899494,-9.899495 c 0,0 -9.067474,-0.582193 -12.020815,-3.535534 L 28.284271,2.414214 c -1.952622,-1.952622 -5.118446,-1.952622 -7.071068,0 -0.976311,0.97631 -1.458408,2.255922 -1.458408,3.535533 l -0.309359,7.778175 c 0.08027,0.565247 -0.177946,1.238606 -0.707107,1.767767 -0.781048,0.781048 -1.889087,0.93934 -2.474873,0.353553 L 6.363961,5.949747 4.949747,7.363961 z"
     id="path2814" />
</svg>
