<?xml version="1.0" encoding="UTF-8" standalone="no"?>
<svg
   xmlns:dc="http://purl.org/dc/elements/1.1/"
   xmlns:cc="http://creativecommons.org/ns#"
   xmlns:rdf="http://www.w3.org/1999/02/22-rdf-syntax-ns#"
   xmlns:svg="http://www.w3.org/2000/svg"
   xmlns="http://www.w3.org/2000/svg"
   xmlns:sodipodi="http://sodipodi.sourceforge.net/DTD/sodipodi-0.dtd"
   xmlns:inkscape="http://www.inkscape.org/namespaces/inkscape"
   version="1.0"
   width="43"
   height="21"
   id="svg2"
   inkscape:version="0.47 r22583"
   sodipodi:docname="02-08-004-02-01-07.svg">
  <defs
     id="defs16">
    <inkscape:perspective
       sodipodi:type="inkscape:persp3d"
       inkscape:vp_x="0 : 23 : 1"
       inkscape:vp_y="0 : 1000 : 0"
       inkscape:vp_z="36 : 23 : 1"
       inkscape:persp3d-origin="18 : 15.333333 : 1"
       id="perspective18" />
  </defs>
  <sodipodi:namedview
     pagecolor="#ffffff"
     bordercolor="#666666"
     borderopacity="1"
     objecttolerance="10"
     gridtolerance="10"
     guidetolerance="10"
     inkscape:pageopacity="0"
     inkscape:pageshadow="2"
     inkscape:window-width="964"
     inkscape:window-height="721"
     id="namedview14"
     showgrid="true"
     inkscape:zoom="16.309417"
     inkscape:cx="21.500769"
     inkscape:cy="10.500376"
     inkscape:window-x="365"
     inkscape:window-y="0"
     inkscape:window-maximized="0"
     inkscape:current-layer="svg2"
     showborder="true">
    <inkscape:grid
       type="xygrid"
       id="grid2824"
       empspacing="5"
       visible="true"
       enabled="true"
       snapvisiblegridlinesonly="true" />
  </sodipodi:namedview>
  <metadata
     id="metadata4">
Valerie Sutton's pixel definition of the
ISWA 2010 symbol ID 04-01-003-01-01-01
transformed by Stephen E Slevinski Jr
using line and fill polygon tracing
<rdf:RDF>
  <cc:Work
     rdf:about="">
    <dc:format>image/svg+xml</dc:format>
    <dc:type
       rdf:resource="http://purl.org/dc/dcmitype/StillImage" />
    <dc:title></dc:title>
  </cc:Work>
</rdf:RDF>
</metadata>
  <path
     style="fill:#000000;fill-opacity:1;stroke:none"
     d="M 41.012193,4.029437 29.698484,15.343145 c -0.585786,0.585787 -1.693825,0.427495 -2.474873,-0.353553 -0.529161,-0.52916 -0.787374,-1.20252 -0.707107,-1.767767 L 26.207145,5.443651 c 0,-1.279612 -0.482097,-2.559224 -1.458408,-3.535534 -1.952622,-1.952622 -5.118446,-1.952622 -7.071068,0 L 11.313708,8.272078 C 8.99231,10.593476 2.12132,11.807612 2.12132,11.807612 l 7.071068,7.071067 c 0,0 1.214135,-6.870989 3.535534,-9.192388 L 19.091883,3.32233 c 0.585786,-0.585786 1.693825,-0.427495 2.474874,0.353554 0.52916,0.52916 0.787373,1.20252 0.707106,1.767767 l 0.30936,7.778174 c 0,1.279612 0.482096,2.559223 1.458407,3.535534 1.952622,1.952622 5.118446,1.952622 7.071068,0 L 42.426407,5.443651 41.012193,4.029437 z"
     id="path2814" />
  <path
     style="fill:#000000;fill-opacity:1;stroke:none"
     d="M 0,9.686291 0,21 11.313708,21 0,9.686291 z"
     id="path3386" />
</svg>
