<?xml version="1.0" encoding="UTF-8" standalone="no"?>
<svg
   xmlns:dc="http://purl.org/dc/elements/1.1/"
   xmlns:cc="http://creativecommons.org/ns#"
   xmlns:rdf="http://www.w3.org/1999/02/22-rdf-syntax-ns#"
   xmlns:svg="http://www.w3.org/2000/svg"
   xmlns="http://www.w3.org/2000/svg"
   xmlns:sodipodi="http://sodipodi.sourceforge.net/DTD/sodipodi-0.dtd"
   xmlns:inkscape="http://www.inkscape.org/namespaces/inkscape"
   version="1.0"
   width="19"
   height="34"
   id="svg2"
   inkscape:version="0.47 r22583"
   sodipodi:docname="02-09-005-01-01-04.svg">
  <defs
     id="defs16">
    <inkscape:perspective
       sodipodi:type="inkscape:persp3d"
       inkscape:vp_x="0 : 23 : 1"
       inkscape:vp_y="0 : 1000 : 0"
       inkscape:vp_z="36 : 23 : 1"
       inkscape:persp3d-origin="18 : 15.333333 : 1"
       id="perspective18" />
  </defs>
  <sodipodi:namedview
     pagecolor="#ffffff"
     bordercolor="#666666"
     borderopacity="1"
     objecttolerance="10"
     gridtolerance="10"
     guidetolerance="10"
     inkscape:pageopacity="0"
     inkscape:pageshadow="2"
     inkscape:window-width="964"
     inkscape:window-height="721"
     id="namedview14"
     showgrid="true"
     inkscape:zoom="13.911765"
     inkscape:cx="9.5"
     inkscape:cy="17"
     inkscape:window-x="365"
     inkscape:window-y="0"
     inkscape:window-maximized="0"
     inkscape:current-layer="svg2"
     showborder="true">
    <inkscape:grid
       type="xygrid"
       id="grid2824"
       empspacing="5"
       visible="true"
       enabled="true"
       snapvisiblegridlinesonly="true" />
  </sodipodi:namedview>
  <metadata
     id="metadata4">
Valerie Sutton's pixel definition of the
ISWA 2010 symbol ID 04-01-003-01-01-01
transformed by Stephen E Slevinski Jr
using line and fill polygon tracing
<rdf:RDF>
  <cc:Work
     rdf:about="">
    <dc:format>image/svg+xml</dc:format>
    <dc:type
       rdf:resource="http://purl.org/dc/dcmitype/StillImage" />
    <dc:title></dc:title>
  </cc:Work>
</rdf:RDF>
</metadata>
  <path
     style="fill:#000000;fill-opacity:1;stroke:none"
     d="m 10,0 1,0 0,34 -1,0 0,-34 z"
     id="rect3479" />
  <path
     style="fill:#ffffff;fill-opacity:1;stroke:none"
     d="M 7,0 10,0 10,34 7,34 7,0 z"
     id="rect3481" />
  <path
     style="fill:#000000;fill-opacity:1;stroke:none"
     d="M 6,0 7,0 7,34 6,34 6,0 z"
     id="rect3477" />
  <path
     style="fill:#000000;fill-opacity:1;stroke:none"
     d="M 5,3 C 2.2385763,3 0,5.2385763 0,8 l 0,2 c 0,2.761424 2.238576,5 5,5 l 8,0 0,-3 -8,0 C 3.343146,12 2,10.656854 2,9 L 2,7 C 2,5.3431458 3.3431458,4 5,4 L 5,3 z"
     id="path3476" />
  <path
     style="fill:#000000;fill-opacity:1;stroke:none"
     d="M 13,8 13,19 18.5,13.5 13,8 z"
     id="path3884" />
  <path
     id="path3552"
     d="m 5,16 c -2.7614237,0 -5,2.238576 -5,5 l 0,2 c 0,2.761424 2.238576,5 5,5 l 8,0 0,-3 -8,0 C 3.343146,25 2,23.656854 2,22 l 0,-2 c 0,-1.656854 1.3431458,-3 3,-3 l 0,-1 z"
     style="fill:#000000;fill-opacity:1;stroke:none" />
  <path
     id="path3554"
     d="M 13,21 13,32 18.5,26.5 13,21 z"
     style="fill:#000000;fill-opacity:1;stroke:none" />
</svg>
