<?xml version="1.0" encoding="UTF-8" standalone="no"?>
<svg
   xmlns:dc="http://purl.org/dc/elements/1.1/"
   xmlns:cc="http://creativecommons.org/ns#"
   xmlns:rdf="http://www.w3.org/1999/02/22-rdf-syntax-ns#"
   xmlns:svg="http://www.w3.org/2000/svg"
   xmlns="http://www.w3.org/2000/svg"
   xmlns:sodipodi="http://sodipodi.sourceforge.net/DTD/sodipodi-0.dtd"
   xmlns:inkscape="http://www.inkscape.org/namespaces/inkscape"
   version="1.0"
   width="20"
   height="43"
   id="svg2"
   inkscape:version="0.47 r22583"
   sodipodi:docname="02-09-006-01-01-15.svg">
  <defs
     id="defs16">
    <inkscape:perspective
       sodipodi:type="inkscape:persp3d"
       inkscape:vp_x="0 : 23 : 1"
       inkscape:vp_y="0 : 1000 : 0"
       inkscape:vp_z="36 : 23 : 1"
       inkscape:persp3d-origin="18 : 15.333333 : 1"
       id="perspective18" />
  </defs>
  <sodipodi:namedview
     pagecolor="#ffffff"
     bordercolor="#666666"
     borderopacity="1"
     objecttolerance="10"
     gridtolerance="10"
     guidetolerance="10"
     inkscape:pageopacity="0"
     inkscape:pageshadow="2"
     inkscape:window-width="964"
     inkscape:window-height="721"
     id="namedview14"
     showgrid="true"
     inkscape:zoom="11"
     inkscape:cx="10"
     inkscape:cy="21.5"
     inkscape:window-x="365"
     inkscape:window-y="0"
     inkscape:window-maximized="0"
     inkscape:current-layer="svg2"
     showborder="true">
    <inkscape:grid
       type="xygrid"
       id="grid2824"
       empspacing="5"
       visible="true"
       enabled="true"
       snapvisiblegridlinesonly="true" />
  </sodipodi:namedview>
  <metadata
     id="metadata4">
Valerie Sutton's pixel definition of the
ISWA 2010 symbol ID 04-01-003-01-01-01
transformed by Stephen E Slevinski Jr
using line and fill polygon tracing
<rdf:RDF>
  <cc:Work
     rdf:about="">
    <dc:format>image/svg+xml</dc:format>
    <dc:type
       rdf:resource="http://purl.org/dc/dcmitype/StillImage" />
    <dc:title></dc:title>
  </cc:Work>
</rdf:RDF>
</metadata>
  <path
     style="fill:#000000;fill-opacity:1;stroke:none"
     d="M 5,6 C 2.238576,6 0,8.2385763 0,11 l 0,2 c 0,2.761424 2.238576,5 5,5 l 12,0 0,-3 -12,0 C 3.343146,15 2,13.656854 2,12 L 2,10 C 2,8.3431458 3.343146,7 5,7 l 9,0 0,-1 -9,0 z"
     id="path3476" />
  <path
     style="fill:#000000;fill-opacity:1;stroke:none"
     d="M 14 1 L 14 3 L 17.5 6.5 L 14 10 L 14 12 L 19.5 6.5 L 14 1 z "
     id="path3884" />
  <path
     style="fill:#000000;fill-opacity:1;stroke:none"
     d="M 7,0 7,15 6,15 6,0 7,0 z m 0,18 0,16 -1,0 0,-16 1,0 z m 0,19 0,6 -1,0 0,-6 1,0 z"
     id="rect3009" />
  <path
     id="path3060"
     d="m 5,25 c -2.761424,0 -5,2.238576 -5,5 l 0,2 c 0,2.761424 2.238576,5 5,5 l 12,0 0,-3 -12,0 C 3.343146,34 2,32.656854 2,31 l 0,-2 c 0,-1.656854 1.343146,-3 3,-3 l 9,0 0,-1 -9,0 z"
     style="fill:#000000;fill-opacity:1;stroke:none" />
  <path
     style="fill:#ffffff;fill-opacity:1;stroke:none"
     d="m 10,0 0,15 -3,0 0,-15 3,0 z m 0,18 0,16 -3,0 0,-16 3,0 z m 0,19 0,6 -3,0 0,-6 3,0 z"
     id="rect3011" />
  <path
     style="fill:#000000;fill-opacity:1;stroke:none"
     d="M 14 20 L 14 22 L 17.5 25.5 L 14 29 L 14 31 L 19.5 25.5 L 14 20 z "
     id="path3062" />
  <path
     style="fill:#000000;fill-opacity:1;stroke:none"
     d="m 11,0 0,15 -1,0 0,-15 1,0 z m 0,18 0,16 -1,0 0,-16 1,0 z m 0,19 0,6 -1,0 0,-6 1,0 z"
     id="rect3013" />
</svg>
