<?xml version="1.0" encoding="UTF-8" standalone="no"?>
<svg
   xmlns:dc="http://purl.org/dc/elements/1.1/"
   xmlns:cc="http://creativecommons.org/ns#"
   xmlns:rdf="http://www.w3.org/1999/02/22-rdf-syntax-ns#"
   xmlns:svg="http://www.w3.org/2000/svg"
   xmlns="http://www.w3.org/2000/svg"
   xmlns:sodipodi="http://sodipodi.sourceforge.net/DTD/sodipodi-0.dtd"
   xmlns:inkscape="http://www.inkscape.org/namespaces/inkscape"
   version="1.0"
   width="17"
   height="23"
   id="svg2"
   inkscape:version="0.47 r22583"
   sodipodi:docname="02-09-006-01-05-07.svg">
  <defs
     id="defs16">
    <inkscape:perspective
       sodipodi:type="inkscape:persp3d"
       inkscape:vp_x="0 : 23 : 1"
       inkscape:vp_y="0 : 1000 : 0"
       inkscape:vp_z="36 : 23 : 1"
       inkscape:persp3d-origin="18 : 15.333333 : 1"
       id="perspective18" />
  </defs>
  <sodipodi:namedview
     pagecolor="#ffffff"
     bordercolor="#666666"
     borderopacity="1"
     objecttolerance="10"
     gridtolerance="10"
     guidetolerance="10"
     inkscape:pageopacity="0"
     inkscape:pageshadow="2"
     inkscape:window-width="964"
     inkscape:window-height="721"
     id="namedview14"
     showgrid="true"
     inkscape:zoom="16.701291"
     inkscape:cx="8.5"
     inkscape:cy="11.5"
     inkscape:window-x="365"
     inkscape:window-y="0"
     inkscape:window-maximized="0"
     inkscape:current-layer="svg2"
     showborder="true">
    <inkscape:grid
       type="xygrid"
       id="grid2824"
       empspacing="5"
       visible="true"
       enabled="true"
       snapvisiblegridlinesonly="true" />
  </sodipodi:namedview>
  <metadata
     id="metadata4">
Valerie Sutton's pixel definition of the
ISWA 2010 symbol ID 04-01-003-01-01-01
transformed by Stephen E Slevinski Jr
using line and fill polygon tracing
<rdf:RDF>
  <cc:Work
     rdf:about="">
    <dc:format>image/svg+xml</dc:format>
    <dc:type
       rdf:resource="http://purl.org/dc/dcmitype/StillImage" />
    <dc:title></dc:title>
  </cc:Work>
</rdf:RDF>
</metadata>
  <path
     style="fill:#000000;fill-opacity:1;stroke:none"
     d="m 9,16 7,7 -7,0 0,-7 z M 10,18.40625 10,22 13.5625,22 10,18.40625 z"
     id="path2813" />
  <path
     style="fill:#000000;fill-opacity:1;stroke:none"
     d="m 17,11.5 c 0,2.761424 -1.127856,5.252856 -2.9375,7.0625 l -1.1875,1.3125 -0.75,-0.75 1.25,-1.25 C 15.00368,16.24632 16,13.985281 16,11.5 16,9.014719 15.00368,6.75368 13.375,5.125 L 9,0.71875 9.71875,0 14.0625,4.4375 C 15.872144,6.247144 17,8.738577 17,11.5 z"
     id="rect2815" />
  <path
     style="fill:#ffffff;fill-opacity:1;stroke:none"
     d="M 10,18.40625 13.5625,22 10,22 10,18.40625 z"
     id="path3177" />
  <path
     id="path3374"
     d="m 0,16 7,7 -7,0 0,-7 z M 1,18.40625 1,22 4.5625,22 1,18.40625 z"
     style="fill:#000000;fill-opacity:1;stroke:none" />
  <path
     id="path3376"
     d="m 8,11.5 c 0,2.761424 -1.127856,5.252856 -2.9375,7.0625 l -1.1875,1.3125 -0.75,-0.75 1.25,-1.25 C 6.00368,16.24632 7,13.985281 7,11.5 7,9.014719 6.00368,6.75368 4.375,5.125 L 0,0.71875 0.71875,0 5.0625,4.4375 C 6.872144,6.247144 8,8.738577 8,11.5 z"
     style="fill:#000000;fill-opacity:1;stroke:none" />
  <path
     id="path3378"
     d="M 1,18.40625 4.5625,22 1,22 1,18.40625 z"
     style="fill:#ffffff;fill-opacity:1;stroke:none" />
</svg>
