<?xml version="1.0" encoding="UTF-8" standalone="no"?>
<svg
   xmlns:dc="http://purl.org/dc/elements/1.1/"
   xmlns:cc="http://creativecommons.org/ns#"
   xmlns:rdf="http://www.w3.org/1999/02/22-rdf-syntax-ns#"
   xmlns:svg="http://www.w3.org/2000/svg"
   xmlns="http://www.w3.org/2000/svg"
   xmlns:sodipodi="http://sodipodi.sourceforge.net/DTD/sodipodi-0.dtd"
   xmlns:inkscape="http://www.inkscape.org/namespaces/inkscape"
   version="1.0"
   width="23"
   height="17"
   id="svg2"
   inkscape:version="0.47 r22583"
   sodipodi:docname="02-09-005-01-05-01.svg">
  <defs
     id="defs16">
    <inkscape:perspective
       sodipodi:type="inkscape:persp3d"
       inkscape:vp_x="0 : 23 : 1"
       inkscape:vp_y="0 : 1000 : 0"
       inkscape:vp_z="36 : 23 : 1"
       inkscape:persp3d-origin="18 : 15.333333 : 1"
       id="perspective18" />
  </defs>
  <sodipodi:namedview
     pagecolor="#ffffff"
     bordercolor="#666666"
     borderopacity="1"
     objecttolerance="10"
     gridtolerance="10"
     guidetolerance="10"
     inkscape:pageopacity="0"
     inkscape:pageshadow="2"
     inkscape:window-width="964"
     inkscape:window-height="721"
     id="namedview14"
     showgrid="true"
     inkscape:zoom="17.13"
     inkscape:cx="11.499057"
     inkscape:cy="8.4993033"
     inkscape:window-x="365"
     inkscape:window-y="0"
     inkscape:window-maximized="0"
     inkscape:current-layer="svg2"
     showborder="true">
    <inkscape:grid
       type="xygrid"
       id="grid2824"
       empspacing="5"
       visible="true"
       enabled="true"
       snapvisiblegridlinesonly="true" />
  </sodipodi:namedview>
  <metadata
     id="metadata4">
Valerie Sutton's pixel definition of the
ISWA 2010 symbol ID 04-01-003-01-01-01
transformed by Stephen E Slevinski Jr
using line and fill polygon tracing
<rdf:RDF>
  <cc:Work
     rdf:about="">
    <dc:format>image/svg+xml</dc:format>
    <dc:type
       rdf:resource="http://purl.org/dc/dcmitype/StillImage" />
    <dc:title></dc:title>
  </cc:Work>
</rdf:RDF>
</metadata>
  <path
     style="fill:#000000;fill-opacity:1;stroke:none"
     d="M 7,8 0,1 0,8 7,8 z M 4.59375,7 1,7 1,3.4375 4.59375,7 z"
     id="path2813" />
  <path
     style="fill:#000000;fill-opacity:1;stroke:none"
     d="M 11.5,0 C 8.738576,0 6.247144,1.1278559 4.4375,2.9375 L 3.125,4.125 l 0.75,0.75 1.25,-1.25 C 6.75368,1.9963204 9.014719,1 11.5,1 c 2.485281,0 4.74632,0.9963204 6.375,2.625 L 22.28125,8 23,7.28125 18.5625,2.9375 C 16.752856,1.1278559 14.261423,0 11.5,0 z"
     id="rect2815" />
  <path
     style="fill:#ffffff;fill-opacity:1;stroke:none"
     d="M 4.59375,7 1,3.4375 1,7 4.59375,7 z"
     id="path3177" />
  <path
     id="path3374"
     d="m 7,17 -7,-7 0,7 7,0 z M 4.59375,16 1,16 1,12.4375 4.59375,16 z"
     style="fill:#000000;fill-opacity:1;stroke:none" />
  <path
     id="path3376"
     d="M 11.5,9 C 8.738576,9 6.247144,10.127856 4.4375,11.9375 l -1.3125,1.1875 0.75,0.75 1.25,-1.25 C 6.75368,10.99632 9.014719,10 11.5,10 c 2.485281,0 4.74632,0.99632 6.375,2.625 L 22.28125,17 23,16.28125 18.5625,11.9375 C 16.752856,10.127856 14.261423,9 11.5,9 z"
     style="fill:#000000;fill-opacity:1;stroke:none" />
  <path
     id="path3378"
     d="M 4.59375,16 1,12.4375 1,16 4.59375,16 z"
     style="fill:#ffffff;fill-opacity:1;stroke:none" />
</svg>
