<?xml version="1.0" encoding="UTF-8" standalone="no"?>
<svg
   xmlns:dc="http://purl.org/dc/elements/1.1/"
   xmlns:cc="http://creativecommons.org/ns#"
   xmlns:rdf="http://www.w3.org/1999/02/22-rdf-syntax-ns#"
   xmlns:svg="http://www.w3.org/2000/svg"
   xmlns="http://www.w3.org/2000/svg"
   xmlns:sodipodi="http://sodipodi.sourceforge.net/DTD/sodipodi-0.dtd"
   xmlns:inkscape="http://www.inkscape.org/namespaces/inkscape"
   version="1.0"
   width="21"
   height="28"
   id="svg2"
   inkscape:version="0.47 r22583"
   sodipodi:docname="02-09-005-01-01-05.svg">
  <defs
     id="defs16">
    <inkscape:perspective
       sodipodi:type="inkscape:persp3d"
       inkscape:vp_x="0 : 23 : 1"
       inkscape:vp_y="0 : 1000 : 0"
       inkscape:vp_z="36 : 23 : 1"
       inkscape:persp3d-origin="18 : 15.333333 : 1"
       id="perspective18" />
  </defs>
  <sodipodi:namedview
     pagecolor="#ffffff"
     bordercolor="#666666"
     borderopacity="1"
     objecttolerance="10"
     gridtolerance="10"
     guidetolerance="10"
     inkscape:pageopacity="0"
     inkscape:pageshadow="2"
     inkscape:window-width="964"
     inkscape:window-height="721"
     id="namedview14"
     showgrid="true"
     inkscape:zoom="16.892857"
     inkscape:cx="10.5"
     inkscape:cy="14"
     inkscape:window-x="365"
     inkscape:window-y="0"
     inkscape:window-maximized="0"
     inkscape:current-layer="svg2"
     showborder="true">
    <inkscape:grid
       type="xygrid"
       id="grid2824"
       empspacing="5"
       visible="true"
       enabled="true"
       snapvisiblegridlinesonly="true" />
  </sodipodi:namedview>
  <metadata
     id="metadata4">
Valerie Sutton's pixel definition of the
ISWA 2010 symbol ID 04-01-003-01-01-01
transformed by Stephen E Slevinski Jr
using line and fill polygon tracing
<rdf:RDF>
  <cc:Work
     rdf:about="">
    <dc:format>image/svg+xml</dc:format>
    <dc:type
       rdf:resource="http://purl.org/dc/dcmitype/StillImage" />
    <dc:title></dc:title>
  </cc:Work>
</rdf:RDF>
</metadata>
  <path
     style="fill:#000000;fill-opacity:1;stroke:none"
     d="m 21,12 -8,-8 8,0 0,8 z"
     id="path2814" />
  <path
     style="fill:#000000;fill-opacity:1;stroke:none"
     d="m 11,0 1,0 0,28 -1,0 0,-28 z"
     id="rect3326" />
  <path
     style="fill:#ffffff;fill-opacity:1;stroke:none"
     d="M 8,0 11,0 11,28 8,28 8,0 z"
     id="rect3328" />
  <path
     style="fill:#000000;fill-opacity:1;stroke:none"
     d="M 7,0 8,0 8,28 7,28 7,0 z"
     id="rect3330" />
  <path
     style="fill:#000000;fill-opacity:1;stroke:none"
     d="M 1.0625,6 0,7.0625 3.5,10.5 c 1.541313,1.532038 3.656046,2.5 6,2.5 2.348122,0 4.461904,-0.960445 6,-2.5 L 17.53125,8.53125 16.46875,7.46875 15.9375,8 C 14.351548,9.584494 11.909552,10 9.5,10 7.090448,10 4.647854,9.585091 3.0625,8 l -2,-2 z"
     id="rect2824" />
  <path
     id="path3393"
     d="m 21,23 -8,-8 8,0 0,8 z"
     style="fill:#000000;fill-opacity:1;stroke:none" />
  <path
     id="path3395"
     d="M 1.0625,17 0,18.0625 3.5,21.5 c 1.541313,1.532038 3.656046,2.5 6,2.5 2.348122,0 4.461904,-0.960445 6,-2.5 l 2.03125,-1.96875 -1.0625,-1.0625 L 15.9375,19 C 14.351548,20.584494 11.909552,21 9.5,21 7.090448,21 4.647854,20.585091 3.0625,19 l -2,-2 z"
     style="fill:#000000;fill-opacity:1;stroke:none" />
</svg>
