<?xml version="1.0" encoding="UTF-8" standalone="no"?>
<svg
   xmlns:dc="http://purl.org/dc/elements/1.1/"
   xmlns:cc="http://creativecommons.org/ns#"
   xmlns:rdf="http://www.w3.org/1999/02/22-rdf-syntax-ns#"
   xmlns:svg="http://www.w3.org/2000/svg"
   xmlns="http://www.w3.org/2000/svg"
   xmlns:sodipodi="http://sodipodi.sourceforge.net/DTD/sodipodi-0.dtd"
   xmlns:inkscape="http://www.inkscape.org/namespaces/inkscape"
   version="1.0"
   width="23"
   height="17"
   id="svg2"
   inkscape:version="0.47 r22583"
   sodipodi:docname="02-09-006-01-04-05.svg">
  <defs
     id="defs16">
    <inkscape:perspective
       sodipodi:type="inkscape:persp3d"
       inkscape:vp_x="0 : 23 : 1"
       inkscape:vp_y="0 : 1000 : 0"
       inkscape:vp_z="36 : 23 : 1"
       inkscape:persp3d-origin="18 : 15.333333 : 1"
       id="perspective18" />
  </defs>
  <sodipodi:namedview
     pagecolor="#ffffff"
     bordercolor="#666666"
     borderopacity="1"
     objecttolerance="10"
     gridtolerance="10"
     guidetolerance="10"
     inkscape:pageopacity="0"
     inkscape:pageshadow="2"
     inkscape:window-width="964"
     inkscape:window-height="721"
     id="namedview14"
     showgrid="true"
     inkscape:zoom="17.13"
     inkscape:cx="11.499057"
     inkscape:cy="8.4993033"
     inkscape:window-x="365"
     inkscape:window-y="0"
     inkscape:window-maximized="0"
     inkscape:current-layer="svg2"
     showborder="true">
    <inkscape:grid
       type="xygrid"
       id="grid2824"
       empspacing="5"
       visible="true"
       enabled="true"
       snapvisiblegridlinesonly="true" />
  </sodipodi:namedview>
  <metadata
     id="metadata4">
Valerie Sutton's pixel definition of the
ISWA 2010 symbol ID 04-01-003-01-01-01
transformed by Stephen E Slevinski Jr
using line and fill polygon tracing
<rdf:RDF>
  <cc:Work
     rdf:about="">
    <dc:format>image/svg+xml</dc:format>
    <dc:type
       rdf:resource="http://purl.org/dc/dcmitype/StillImage" />
    <dc:title></dc:title>
  </cc:Work>
</rdf:RDF>
</metadata>
  <path
     style="fill:#000000;fill-opacity:1;stroke:none"
     d="M 0,9 0,16 7,9 0,9 z"
     id="path2813" />
  <path
     style="fill:#000000;fill-opacity:1;stroke:none"
     d="M 11.5,17 C 8.738576,17 6.247144,15.872144 4.4375,14.0625 L 3.125,12.875 l 0.75,-0.75 1.25,1.25 C 6.75368,15.00368 9.014719,16 11.5,16 c 2.485281,0 4.74632,-0.99632 6.375,-2.625 L 22.28125,9 23,9.71875 18.5625,14.0625 C 16.752856,15.872144 14.261423,17 11.5,17 z"
     id="rect2815" />
  <path
     id="path3720"
     d="M 0,0 0,7 7,0 0,0 z"
     style="fill:#000000;fill-opacity:1;stroke:none" />
  <path
     id="path3722"
     d="M 11.5,8 C 8.738576,8 6.247144,6.872144 4.4375,5.0625 L 3.125,3.875 l 0.75,-0.75 1.25,1.25 C 6.75368,6.00368 9.014719,7 11.5,7 13.985281,7 16.24632,6.00368 17.875,4.375 L 22.28125,0 23,0.71875 18.5625,5.0625 C 16.752856,6.872144 14.261423,8 11.5,8 z"
     style="fill:#000000;fill-opacity:1;stroke:none" />
</svg>
