<?xml version="1.0" encoding="UTF-8" standalone="no"?>
<svg
   xmlns:dc="http://purl.org/dc/elements/1.1/"
   xmlns:cc="http://creativecommons.org/ns#"
   xmlns:rdf="http://www.w3.org/1999/02/22-rdf-syntax-ns#"
   xmlns:svg="http://www.w3.org/2000/svg"
   xmlns="http://www.w3.org/2000/svg"
   xmlns:sodipodi="http://sodipodi.sourceforge.net/DTD/sodipodi-0.dtd"
   xmlns:inkscape="http://www.inkscape.org/namespaces/inkscape"
   version="1.0"
   width="19"
   height="44"
   id="svg2"
   inkscape:version="0.47 r22583"
   sodipodi:docname="02-09-006-01-03-03.svg">
  <defs
     id="defs16">
    <inkscape:perspective
       sodipodi:type="inkscape:persp3d"
       inkscape:vp_x="0 : 23 : 1"
       inkscape:vp_y="0 : 1000 : 0"
       inkscape:vp_z="36 : 23 : 1"
       inkscape:persp3d-origin="18 : 15.333333 : 1"
       id="perspective18" />
  </defs>
  <sodipodi:namedview
     pagecolor="#ffffff"
     bordercolor="#666666"
     borderopacity="1"
     objecttolerance="10"
     gridtolerance="10"
     guidetolerance="10"
     inkscape:pageopacity="0"
     inkscape:pageshadow="2"
     inkscape:window-width="964"
     inkscape:window-height="721"
     id="namedview14"
     showgrid="true"
     inkscape:zoom="10.75"
     inkscape:cx="9.5"
     inkscape:cy="22"
     inkscape:window-x="365"
     inkscape:window-y="0"
     inkscape:window-maximized="0"
     inkscape:current-layer="svg2"
     showborder="true">
    <inkscape:grid
       type="xygrid"
       id="grid2824"
       empspacing="5"
       visible="true"
       enabled="true"
       snapvisiblegridlinesonly="true" />
  </sodipodi:namedview>
  <metadata
     id="metadata4">
Valerie Sutton's pixel definition of the
ISWA 2010 symbol ID 04-01-003-01-01-01
transformed by Stephen E Slevinski Jr
using line and fill polygon tracing
<rdf:RDF>
  <cc:Work
     rdf:about="">
    <dc:format>image/svg+xml</dc:format>
    <dc:type
       rdf:resource="http://purl.org/dc/dcmitype/StillImage" />
    <dc:title></dc:title>
  </cc:Work>
</rdf:RDF>
</metadata>
  <path
     style="fill:#000000;fill-opacity:1;stroke:none"
     d="M 5,6 C 2.2385763,6 0,8.2385763 0,11 l 0,2 c 0,2.761424 2.238576,5 5,5 l 8,0 0,-3 -8,0 C 3.343146,15 2,13.656854 2,12 L 2,10 C 2,8.3431458 3.3431458,7 5,7 L 17,7 17,6 5,6 z"
     id="path3476" />
  <path
     style="fill:#000000;fill-opacity:1;stroke:none"
     d="M 13 11 L 13 22 L 18.5 16.5 L 13 11 z M 14 13.4375 L 17.0625 16.5 L 14 19.5625 L 14 13.4375 z "
     id="path3884" />
  <path
     style="fill:#000000;fill-opacity:1;stroke:none"
     d="M 10 0 L 10 15 L 11 15 L 11 0 L 10 0 z M 10 18 L 10 33 L 11 33 L 11 18 L 10 18 z M 10 36 L 10 44 L 11 44 L 11 36 L 10 36 z "
     id="rect3628" />
  <path
     id="path3833"
     d="m 5,24 c -2.7614237,0 -5,2.238576 -5,5 l 0,2 c 0,2.761424 2.238576,5 5,5 l 8,0 0,-3 -8,0 C 3.343146,33 2,31.656854 2,30 l 0,-2 c 0,-1.656854 1.3431458,-3 3,-3 l 12,0 0,-1 -12,0 z"
     style="fill:#000000;fill-opacity:1;stroke:none" />
  <path
     style="fill:#ffffff;fill-opacity:1;stroke:none"
     d="M 7 0 L 7 15 L 10 15 L 10 0 L 7 0 z M 7 18 L 7 33 L 10 33 L 10 18 L 7 18 z M 7 36 L 7 44 L 10 44 L 10 36 L 7 36 z "
     id="rect3630" />
  <path
     id="path3835"
     d="M 13,29 13,40 18.5,34.5 13,29 z M 14,31.4375 17.0625,34.5 14,37.5625 l 0,-6.125 z"
     style="fill:#000000;fill-opacity:1;stroke:none" />
  <path
     style="fill:#000000;fill-opacity:1;stroke:none"
     d="M 6 0 L 6 15 L 7 15 L 7 0 L 6 0 z M 6 18 L 6 33 L 7 33 L 7 18 L 6 18 z M 6 36 L 6 44 L 7 44 L 7 36 L 6 36 z "
     id="rect3632" />
  <path
     id="path3837"
     d="m 14,31.4375 0,6.125 L 17.0625,34.5 14,31.4375 z"
     style="fill:#ffffff;fill-opacity:1;stroke:none" />
  <path
     style="fill:#ffffff;fill-opacity:1;stroke:none"
     d="M 14 13.4375 L 14 19.5625 L 17.0625 16.5 L 14 13.4375 z "
     id="path3820" />
</svg>
