<?xml version="1.0" encoding="UTF-8" standalone="no"?>
<!-- Created with Inkscape (http://www.inkscape.org/) -->

<svg
   xmlns:dc="http://purl.org/dc/elements/1.1/"
   xmlns:cc="http://creativecommons.org/ns#"
   xmlns:rdf="http://www.w3.org/1999/02/22-rdf-syntax-ns#"
   xmlns:svg="http://www.w3.org/2000/svg"
   xmlns="http://www.w3.org/2000/svg"
   xmlns:sodipodi="http://sodipodi.sourceforge.net/DTD/sodipodi-0.dtd"
   xmlns:inkscape="http://www.inkscape.org/namespaces/inkscape"
   width="23"
   height="30"
   id="svg3198"
   sodipodi:version="0.32"
   inkscape:version="0.47 r22583"
   version="1.0"
   sodipodi:docname="01-09-004-01-05.svg"
   inkscape:output_extension="org.inkscape.output.svg.inkscape">
  <defs
     id="defs3200">
    <inkscape:perspective
       sodipodi:type="inkscape:persp3d"
       inkscape:vp_x="0 : 526.18109 : 1"
       inkscape:vp_y="0 : 1000 : 0"
       inkscape:vp_z="744.09448 : 526.18109 : 1"
       inkscape:persp3d-origin="372.04724 : 350.78739 : 1"
       id="perspective3206" />
  </defs>
  <sodipodi:namedview
     id="namedview3727"
     pagecolor="#ffffff"
     bordercolor="#666666"
     borderopacity="1.0"
     gridtolerance="10000"
     guidetolerance="10"
     objecttolerance="10"
     inkscape:pageopacity="0.0"
     inkscape:pageshadow="2"
     inkscape:zoom="17.158552"
     inkscape:cx="8.9054494"
     inkscape:cy="14.907464"
     inkscape:document-units="px"
     inkscape:current-layer=""
     showgrid="true"
     inkscape:window-width="1440"
     inkscape:window-height="793"
     inkscape:window-x="0"
     inkscape:window-y="0"
     showborder="false"
     inkscape:window-maximized="0">
    <inkscape:grid
       type="xygrid"
       id="grid3208"
       visible="true"
       enabled="true" />
  </sodipodi:namedview>
  <metadata
     id="metadata3203">
    <rdf:RDF>
      <cc:Work
         rdf:about="">
        <dc:format>image/svg+xml</dc:format>
        <dc:type
           rdf:resource="http://purl.org/dc/dcmitype/StillImage" />
        <dc:title />
      </cc:Work>
    </rdf:RDF>
  </metadata>
  <g
     inkscape:label="Layer 1"
     inkscape:groupmode="layer"
     id="">
    <path
       style="fill:#000000;fill-opacity:1;stroke:none"
       d="m 9,13 0,3 0,4 0,4 0,4 0,2 c 0,0 8,0 8,-5 L 17,23.125 17,18 c 0,0 0,-5 -8,-5 z"
       id="base" />
    <path
       style="fill:#ffffff;fill-opacity:1;stroke:none"
       d="m 10,14.09375 0,14.875 c 1.240405,-0.07664 2.219444,-0.299932 3,-0.59375 l 0,-13.6875 c -1.076822,-0.362394 -2.213065,-0.532007 -3,-0.59375 z"
       id="fill" />
    <path
       style="fill:#000000;fill-opacity:1;stroke:none"
       d="m 0,19 2,0 c 0,0 0,-4 7,-4 l 0,-2 c 0,0 -9,0 -9,6 z"
       id="index" />
    <path
       style="fill:#000000;fill-opacity:1;stroke:none"
       d="m 11,0 0,11.125 c 0.734223,0.08032 1.394679,0.216187 2,0.375 L 13,0 11,0 z"
       id="middle" />
    <path
       style="fill:#000000;fill-opacity:1;stroke:none"
       d="m 19,3 -4.5625,8.96875 c 0.675503,0.284895 1.260613,0.606451 1.75,0.96875 L 20.78125,3.90625 19,3 z"
       id="ring" />
    <path
       style="fill:#000000;fill-opacity:1;stroke:none"
       d="m 22,10 -4.375,4.375 c 0.476365,0.633076 0.800478,1.250505 1,1.8125 L 23.40625,11.40625 22,10 z m -6.0625,8.03125 c 0.100358,0.185068 0.190364,0.369969 0.28125,0.5625 l 0.5625,-0.5625 -0.84375,0 z"
       id="baby" />
    <path
       style="fill:#000000;fill-opacity:1;stroke:none"
       d="m 9,30 0,-2 c 0,0 -8,0 -8,-3 l -1,0 c 0.07692308,0.07692 0,5 9,5 z"
       id="thumb" />
  </g>
</svg>
