<?xml version="1.0" encoding="UTF-8" standalone="no"?>
<!-- Created with Inkscape (http://www.inkscape.org/) -->

<svg
   xmlns:dc="http://purl.org/dc/elements/1.1/"
   xmlns:cc="http://creativecommons.org/ns#"
   xmlns:rdf="http://www.w3.org/1999/02/22-rdf-syntax-ns#"
   xmlns:svg="http://www.w3.org/2000/svg"
   xmlns="http://www.w3.org/2000/svg"
   xmlns:sodipodi="http://sodipodi.sourceforge.net/DTD/sodipodi-0.dtd"
   xmlns:inkscape="http://www.inkscape.org/namespaces/inkscape"
   width="17"
   height="30"
   id="svg3198"
   sodipodi:version="0.32"
   inkscape:version="0.47 r22583"
   version="1.0"
   sodipodi:docname="01-09-004-01-04.svg"
   inkscape:output_extension="org.inkscape.output.svg.inkscape">
  <defs
     id="defs3200">
    <inkscape:perspective
       sodipodi:type="inkscape:persp3d"
       inkscape:vp_x="0 : 526.18109 : 1"
       inkscape:vp_y="0 : 1000 : 0"
       inkscape:vp_z="744.09448 : 526.18109 : 1"
       inkscape:persp3d-origin="372.04724 : 350.78739 : 1"
       id="perspective3206" />
  </defs>
  <sodipodi:namedview
     id="namedview3727"
     pagecolor="#ffffff"
     bordercolor="#666666"
     borderopacity="1.0"
     gridtolerance="10000"
     guidetolerance="10"
     objecttolerance="10"
     inkscape:pageopacity="0.0"
     inkscape:pageshadow="2"
     inkscape:zoom="17.158552"
     inkscape:cx="8.9054494"
     inkscape:cy="14.907464"
     inkscape:document-units="px"
     inkscape:current-layer=""
     showgrid="true"
     inkscape:window-width="1098"
     inkscape:window-height="792"
     inkscape:window-x="0"
     inkscape:window-y="0"
     showborder="false"
     inkscape:window-maximized="1">
    <inkscape:grid
       type="xygrid"
       id="grid3208"
       visible="true"
       enabled="true" />
  </sodipodi:namedview>
  <metadata
     id="metadata3203">
    <rdf:RDF>
      <cc:Work
         rdf:about="">
        <dc:format>image/svg+xml</dc:format>
        <dc:type
           rdf:resource="http://purl.org/dc/dcmitype/StillImage" />
        <dc:title></dc:title>
      </cc:Work>
    </rdf:RDF>
  </metadata>
  <g
     inkscape:label="Layer 1"
     inkscape:groupmode="layer"
     id="">
    <path
       style="fill:#000000;fill-opacity:1;stroke:none"
       d="m 9,13 0,3 0,4 0,4 0,4 0,2 c 0,0 8,0 8,-5 L 17,23.125 17,18 c 0,0 0,-5 -8,-5 z"
       id="base" />
    <path
       style="fill:#ffffff;fill-opacity:1;stroke:none"
       d="m 10,14.09375 0,14.875 C 15.97722,28.599445 16,25 16,25 l 0,-5.5 C 16,19 16,18 16,18 16,14.916923 11.931304,14.24528 10,14.09375 z"
       id="fill" />
    <path
       style="fill:#000000;fill-opacity:1;stroke:none"
       d="M 7 13.1875 C 4.3519457 13.568817 0 14.810046 0 19 L 2 19 C 2 19 2.0193317 15.840078 7 15.15625 L 7 13.1875 z "
       id="index" />
    <path
       style="fill:#000000;fill-opacity:1;stroke:none"
       d="M 10 0 L 10 11.0625 C 10.714444 11.099564 11.39488 11.173789 12 11.28125 L 12 0 L 10 0 z "
       id="middle" />
    <path
       style="fill:#000000;fill-opacity:1;stroke:none"
       d="M 6 3 L 4.21875 3.90625 L 7.875 11.0625 C 8.0976194 11.043438 8.3734143 11.008199 8.53125 11 C 9.0073242 11 8.375 11 9 11 C 9.3573132 11 9.6677652 11.045264 10 11.0625 L 10 10.875 L 6 3 z "
       id="ring" />
    <path
       style="fill:#000000;fill-opacity:1;stroke:none"
       d="M 2 7 L 0.59375 8.40625 L 4 11.8125 C 4.8215779 11.54829 5.5954383 11.434854 6.3125 11.3125 L 2 7 z "
       id="baby" />
    <path
       style="fill:#000000;fill-opacity:1;stroke:none"
       d="M 0 25 C 0.070700783 25.070698 0.02217408 29.232972 7 29.90625 L 7 27.875 C 4.6312811 27.662883 1 27.030325 1 25 L 0 25 z "
       id="thumb" />
  </g>
</svg>
