<?xml version="1.0" encoding="UTF-8" standalone="no"?>
<!-- Created with Inkscape (http://www.inkscape.org/) -->

<svg
   xmlns:dc="http://purl.org/dc/elements/1.1/"
   xmlns:cc="http://creativecommons.org/ns#"
   xmlns:rdf="http://www.w3.org/1999/02/22-rdf-syntax-ns#"
   xmlns:svg="http://www.w3.org/2000/svg"
   xmlns="http://www.w3.org/2000/svg"
   xmlns:sodipodi="http://sodipodi.sourceforge.net/DTD/sodipodi-0.dtd"
   xmlns:inkscape="http://www.inkscape.org/namespaces/inkscape"
   width="24"
   height="22"
   id="svg3198"
   sodipodi:version="0.32"
   inkscape:version="0.47 r22583"
   version="1.0"
   sodipodi:docname="01-03-012-01-05.svg"
   inkscape:output_extension="org.inkscape.output.svg.inkscape">
  <defs
     id="defs3200">
    <inkscape:perspective
       sodipodi:type="inkscape:persp3d"
       inkscape:vp_x="0 : 526.18109 : 1"
       inkscape:vp_y="0 : 1000 : 0"
       inkscape:vp_z="744.09448 : 526.18109 : 1"
       inkscape:persp3d-origin="372.04724 : 350.78739 : 1"
       id="perspective3206" />
  </defs>
  <sodipodi:namedview
     id="namedview3727"
     pagecolor="#ffffff"
     bordercolor="#666666"
     borderopacity="1.0"
     gridtolerance="10000"
     guidetolerance="10"
     objecttolerance="10"
     inkscape:pageopacity="0.0"
     inkscape:pageshadow="2"
     inkscape:zoom="22.744227"
     inkscape:cx="7.2039096"
     inkscape:cy="10.459646"
     inkscape:document-units="px"
     inkscape:current-layer=""
     showgrid="true"
     inkscape:window-width="1260"
     inkscape:window-height="928"
     inkscape:window-x="20"
     inkscape:window-y="20"
     inkscape:window-maximized="0">
    <inkscape:grid
       type="xygrid"
       id="grid3208"
       visible="true"
       enabled="true" />
  </sodipodi:namedview>
  <metadata
     id="metadata3203">
    <rdf:RDF>
      <cc:Work
         rdf:about="">
        <dc:format>image/svg+xml</dc:format>
        <dc:type
           rdf:resource="http://purl.org/dc/dcmitype/StillImage" />
        <dc:title></dc:title>
      </cc:Work>
    </rdf:RDF>
  </metadata>
  <g
     inkscape:label="Layer 1"
     inkscape:groupmode="layer"
     id="">
    <rect
       style="fill:#000000;fill-opacity:1;stroke:none"
       id="base"
       width="15"
       height="13"
       x="9"
       y="9" />
    <path
       style="fill:#000000;fill-opacity:1;stroke:none"
       d="m 12,7 2,0 0,-3 0,0 C 14.000916,0.0093595 10,0 10,0 L 8,0 C 8,0 12,0 8,0 4,0 4,4 4,4 L 6,4 C 6,4 6,6 6,4 6,2 8,2 8,2 l 2,0 c 0,0 -2,0 0,0 2,0 2,2 2,2 l 0,3 z"
       id="middle"
       sodipodi:nodetypes="cccsccsccsccscc" />
    <path
       style="fill:#000000;fill-opacity:1;stroke:none"
       d="m 11,7 c 0,0 0,4 0,0 C 11,3 7,3 7,3 L 4,3 C 4,3 8,3 4,3 0,3 0,7 0,7 L 0,9 2,9 2,7 C 2,7 2,9 2,7 2,5 4,5 4,5 L 7,5 C 7,5 5,5 7,5 9,5 9,7 9,7 l 2,0 z"
       id="index"
       sodipodi:nodetypes="csccsccccsccscc" />
    <path
       style="fill:#000000;fill-opacity:1;stroke:none"
       d="m 0,9 c 0,0 0,4 4,4 l 4,0 0,-2 -4,0 C 4,11 2,11 2,9 L 0,9 z"
       id="thumb"
       sodipodi:nodetypes="ccccccc" />
  </g>
</svg>
