<?xml version="1.0" encoding="UTF-8" standalone="no"?>
<!-- Created with Inkscape (http://www.inkscape.org/) -->

<svg
   xmlns:dc="http://purl.org/dc/elements/1.1/"
   xmlns:cc="http://creativecommons.org/ns#"
   xmlns:rdf="http://www.w3.org/1999/02/22-rdf-syntax-ns#"
   xmlns:svg="http://www.w3.org/2000/svg"
   xmlns="http://www.w3.org/2000/svg"
   xmlns:sodipodi="http://sodipodi.sourceforge.net/DTD/sodipodi-0.dtd"
   xmlns:inkscape="http://www.inkscape.org/namespaces/inkscape"
   width="17"
   height="30"
   id="svg3198"
   sodipodi:version="0.32"
   inkscape:version="0.47 r22583"
   version="1.0"
   sodipodi:docname="01-01-007-01-04.svg"
   inkscape:output_extension="org.inkscape.output.svg.inkscape">
  <defs
     id="defs3200">
    <inkscape:perspective
       sodipodi:type="inkscape:persp3d"
       inkscape:vp_x="0 : 526.18109 : 1"
       inkscape:vp_y="0 : 1000 : 0"
       inkscape:vp_z="744.09448 : 526.18109 : 1"
       inkscape:persp3d-origin="372.04724 : 350.78739 : 1"
       id="perspective3206" />
  </defs>
  <sodipodi:namedview
     id="namedview3727"
     pagecolor="#ffffff"
     bordercolor="#666666"
     borderopacity="1.0"
     gridtolerance="10000"
     guidetolerance="10"
     objecttolerance="10"
     inkscape:pageopacity="0.0"
     inkscape:pageshadow="2"
     inkscape:zoom="17.158552"
     inkscape:cx="7.2068361"
     inkscape:cy="14.856301"
     inkscape:document-units="px"
     inkscape:current-layer=""
     showgrid="true"
     inkscape:window-width="1440"
     inkscape:window-height="793"
     inkscape:window-x="0"
     inkscape:window-y="0"
     showborder="false"
     inkscape:window-maximized="0">
    <inkscape:grid
       type="xygrid"
       id="grid3208"
       visible="true"
       enabled="true" />
  </sodipodi:namedview>
  <metadata
     id="metadata3203">
    <rdf:RDF>
      <cc:Work
         rdf:about="">
        <dc:format>image/svg+xml</dc:format>
        <dc:type
           rdf:resource="http://purl.org/dc/dcmitype/StillImage" />
        <dc:title></dc:title>
      </cc:Work>
    </rdf:RDF>
  </metadata>
  <g
     inkscape:label="Layer 1"
     inkscape:groupmode="layer"
     id="">
    <path
       style="fill:#000000;fill-opacity:1;stroke:none"
       d="m 9,13 0,3 0,4 0,4 0,4 0,2 c 0,0 8,0 8,-5 L 17,23.125 17,18 c 0,0 0,-5 -8,-5 z"
       id="base" />
    <path
       style="fill:#ffffff;fill-opacity:1;stroke:none"
       d="M 10 14.09375 L 10 28.96875 C 11.240405 28.892111 12.219444 28.668818 13 28.375 L 13 14.6875 C 11.923178 14.325106 10.786935 14.155493 10 14.09375 z "
       id="fill" />
    <path
       style="fill:#000000;fill-opacity:1;stroke:none"
       d="M 15 0 L 15 12.25 C 15.724562 12.58394 16.398139 13.000435 17 13.53125 L 17 0 L 15 0 z "
       id="index" />
    <path
       style="fill:#000000;fill-opacity:1;stroke:none"
       d="m 0,19 2,0 c 0,0 0,-4 7,-4 l 0,-2 c 0,0 -9,0 -9,6 z"
       id="middle" />
    <path
       style="fill:#000000;fill-opacity:1;stroke:none"
       d="M 9 3 L 9 11 C 9.0576948 11.032496 9.8830446 11.065904 11 11.21875 L 11 3 L 9 3 z "
       id="ring" />
    <path
       style="fill:#000000;fill-opacity:1;stroke:none"
       d="M 4.0625 6.21875 L 2.625 7.625 L 6.21875 11.21875 C 7.0101048 11.098075 7.8593168 11.008524 8.8125 11 L 4.0625 6.21875 z "
       id="baby" />
    <path
       style="fill:#000000;fill-opacity:1;stroke:none"
       d="m 9,30 0,-2 c 0,0 -8,0 -8,-3 l -1,0 c 0.07692308,0.07692 0,5 9,5 z"
       id="thumb" />
  </g>
</svg>
