<?xml version="1.0" encoding="UTF-8" standalone="no"?>
<svg
   xmlns:dc="http://purl.org/dc/elements/1.1/"
   xmlns:cc="http://creativecommons.org/ns#"
   xmlns:rdf="http://www.w3.org/1999/02/22-rdf-syntax-ns#"
   xmlns:svg="http://www.w3.org/2000/svg"
   xmlns="http://www.w3.org/2000/svg"
   xmlns:sodipodi="http://sodipodi.sourceforge.net/DTD/sodipodi-0.dtd"
   xmlns:inkscape="http://www.inkscape.org/namespaces/inkscape"
   version="1.0"
   width="23"
   height="36"
   id="svg2"
   inkscape:version="0.47 r22583"
   sodipodi:docname="02-02-003-01-03-01.svg">
  <defs
     id="defs14">
    <inkscape:perspective
       sodipodi:type="inkscape:persp3d"
       inkscape:vp_x="0 : 5.5 : 1"
       inkscape:vp_y="0 : 1000 : 0"
       inkscape:vp_z="10 : 5.5 : 1"
       inkscape:persp3d-origin="5 : 3.6666667 : 1"
       id="perspective16" />
  </defs>
  <sodipodi:namedview
     pagecolor="#ffffff"
     bordercolor="#666666"
     borderopacity="1"
     objecttolerance="10"
     gridtolerance="10"
     guidetolerance="10"
     inkscape:pageopacity="0"
     inkscape:pageshadow="2"
     inkscape:window-width="917"
     inkscape:window-height="792"
     id="namedview12"
     showgrid="true"
     inkscape:zoom="14.18"
     inkscape:cx="9.5919948"
     inkscape:cy="17.47414"
     inkscape:window-x="313"
     inkscape:window-y="0"
     inkscape:window-maximized="0"
     inkscape:current-layer="svg2">
    <inkscape:grid
       type="xygrid"
       id="grid2822" />
  </sodipodi:namedview>
  <metadata
     id="metadata4">
Valerie Sutton's pixel definition of the
ISWA 2010 symbol ID 02-01-001-01-01-01
transformed by Stephen E Slevinski Jr
using line and fill polygon tracing
<rdf:RDF>
  <cc:Work
     rdf:about="">
    <dc:format>image/svg+xml</dc:format>
    <dc:type
       rdf:resource="http://purl.org/dc/dcmitype/StillImage" />
    <dc:title></dc:title>
  </cc:Work>
</rdf:RDF>
</metadata>
  <path
     style="fill:#000000;fill-opacity:1;stroke:none"
     d="m 10,0 0,7 1,0 0,-6 6,0 0,-1 -7,0 z"
     id="rect4602" />
  <path
     style="fill:#000000;fill-opacity:1;stroke:none"
     d="M 13.71875,3 13,3.71875 16,6.6875 c 6.053127,6.053126 6.05313,15.884374 0,21.9375 -4.326123,4.326122 -10.5726995,5.545068 -16,3.6875 l 0,1.03125 c 5.6920813,1.8259 12.164923,0.49131 16.6875,-4.03125 6.443652,-6.44365 6.443649,-16.868849 0,-23.3125 L 13.71875,3 z"
     id="path4657" />
  <path
     style="fill:#000000;fill-opacity:1;stroke:none"
     d="M 19 7 C 17.343146 7 16 8.3431458 16 10 C 16 11.656854 17.343146 13 19 13 C 20.656854 13 22 11.656854 22 10 C 22 8.3431458 20.656854 7 19 7 z M 19 8 C 20.104569 8 21 8.8954305 21 10 C 21 11.104569 20.104569 12 19 12 C 17.895431 12 17 11.104569 17 10 C 17 8.8954305 17.895431 8 19 8 z "
     id="path4615" />
  <path
     style="fill:#000000;fill-opacity:1;stroke:none"
     d="M 20 19 C 18.343146 19 17 20.343146 17 22 C 17 23.656854 18.343146 25 20 25 C 21.656854 25 23 23.656854 23 22 C 23 20.343146 21.656854 19 20 19 z M 20 20 C 21.104569 20 22 20.895431 22 22 C 22 23.104569 21.104569 24 20 24 C 18.895431 24 18 23.104569 18 22 C 18 20.895431 18.895431 20 20 20 z "
     id="path4613" />
  <path
     style="fill:#000000;fill-opacity:1;stroke:none"
     d="M 14 28 C 12.343146 28 11 29.343146 11 31 C 11 32.656854 12.343146 34 14 34 C 15.656854 34 17 32.656854 17 31 C 17 29.343146 15.656854 28 14 28 z M 14 29 C 15.104569 29 16 29.895431 16 31 C 16 32.104569 15.104569 33 14 33 C 12.895431 33 12 32.104569 12 31 C 12 29.895431 12.895431 29 14 29 z "
     id="path4705" />
  <path
     style="fill:#000000;fill-opacity:1;stroke:none"
     d="M 3 30 C 1.3431458 30 0 31.343146 0 33 C 0 34.656854 1.3431458 36 3 36 C 4.656854 36 6 34.656854 6 33 C 6 31.343146 4.656854 30 3 30 z M 3 31 C 4.1045695 31 5 31.895431 5 33 C 5 34.104569 4.1045695 35 3 35 C 1.8954305 35 1 34.104569 1 33 C 1 31.895431 1.8954305 31 3 31 z "
     id="path4734" />
  <path
     style="fill:#ffffff;fill-opacity:1;stroke:none"
     d="M 3 31 C 1.8954305 31 1 31.895431 1 33 C 1 34.104569 1.8954305 35 3 35 C 4.1045695 35 5 34.104569 5 33 C 5 31.895431 4.1045695 31 3 31 z "
     id="path2961" />
  <path
     style="fill:#ffffff;fill-opacity:1;stroke:none"
     d="M 14 29 C 12.895431 29 12 29.895431 12 31 C 12 32.104569 12.895431 33 14 33 C 15.104569 33 16 32.104569 16 31 C 16 29.895431 15.104569 29 14 29 z "
     id="path2966" />
  <path
     style="fill:#ffffff;fill-opacity:1;stroke:none"
     d="M 20 20 C 18.895431 20 18 20.895431 18 22 C 18 23.104569 18.895431 24 20 24 C 21.104569 24 22 23.104569 22 22 C 22 20.895431 21.104569 20 20 20 z "
     id="path2977" />
  <path
     style="fill:#ffffff;fill-opacity:1;stroke:none"
     d="M 19 8 C 17.895431 8 17 8.8954305 17 10 C 17 11.104569 17.895431 12 19 12 C 20.104569 12 21 11.104569 21 10 C 21 8.8954305 20.104569 8 19 8 z "
     id="path2983" />
</svg>
