<?xml version="1.0" encoding="UTF-8" standalone="no"?>
<svg
   xmlns:dc="http://purl.org/dc/elements/1.1/"
   xmlns:cc="http://creativecommons.org/ns#"
   xmlns:rdf="http://www.w3.org/1999/02/22-rdf-syntax-ns#"
   xmlns:svg="http://www.w3.org/2000/svg"
   xmlns="http://www.w3.org/2000/svg"
   xmlns:sodipodi="http://sodipodi.sourceforge.net/DTD/sodipodi-0.dtd"
   xmlns:inkscape="http://www.inkscape.org/namespaces/inkscape"
   version="1.0"
   width="28"
   height="40"
   id="svg2"
   inkscape:version="0.47 r22583"
   sodipodi:docname="02-02-003-01-04-01.svg">
  <defs
     id="defs14">
    <inkscape:perspective
       sodipodi:type="inkscape:persp3d"
       inkscape:vp_x="0 : 5.5 : 1"
       inkscape:vp_y="0 : 1000 : 0"
       inkscape:vp_z="10 : 5.5 : 1"
       inkscape:persp3d-origin="5 : 3.6666667 : 1"
       id="perspective16" />
  </defs>
  <sodipodi:namedview
     pagecolor="#ffffff"
     bordercolor="#666666"
     borderopacity="1"
     objecttolerance="10"
     gridtolerance="10"
     guidetolerance="10"
     inkscape:pageopacity="0"
     inkscape:pageshadow="2"
     inkscape:window-width="917"
     inkscape:window-height="792"
     id="namedview12"
     showgrid="true"
     inkscape:zoom="13.230408"
     inkscape:cx="9.5919948"
     inkscape:cy="20.497478"
     inkscape:window-x="313"
     inkscape:window-y="0"
     inkscape:window-maximized="0"
     inkscape:current-layer="svg2">
    <inkscape:grid
       type="xygrid"
       id="grid2822"
       empspacing="5"
       visible="true"
       enabled="true"
       snapvisiblegridlinesonly="true" />
  </sodipodi:namedview>
  <metadata
     id="metadata4">
Valerie Sutton's pixel definition of the
ISWA 2010 symbol ID 02-01-001-01-01-01
transformed by Stephen E Slevinski Jr
using line and fill polygon tracing
<rdf:RDF>
  <cc:Work
     rdf:about="">
    <dc:format>image/svg+xml</dc:format>
    <dc:type
       rdf:resource="http://purl.org/dc/dcmitype/StillImage" />
    <dc:title></dc:title>
  </cc:Work>
</rdf:RDF>
</metadata>
  <path
     style="fill:#000000;fill-opacity:1;stroke:none"
     d="M 0.24912627,5.491767 5.1988738,10.441514 5.9059806,9.7344077 1.6633399,5.491767 5.9059806,1.2491263 5.1988738,0.5420196 0.24912627,5.491767 z"
     id="rect4602" />
  <path
     style="fill:#000000;fill-opacity:1;stroke:none"
     d="M 5,4.983534 5,6 9.2205436,5.977903 c 8.5604134,-7e-7 15.5121584,6.95174 15.5121554,15.512155 -1e-6,8.560414 -6.951759,15.512137 -15.5121554,15.512155 L 5,36.980113 l 0,1.016466 4.2205436,-0.0221 c 9.1126984,0 16.4844104,-7.371745 16.4844274,-16.484427 1e-6,-9.112693 -7.37173,-16.4844195 -16.4844274,-16.4844209 L 5,4.983534 z"
     id="path4657" />
  <path
     style="fill:#000000;fill-opacity:1;stroke:none"
     d="M 13.6875 3.21875 C 12.919733 3.21875 12.148287 3.5079637 11.5625 4.09375 C 10.390927 5.2653227 10.390927 7.1721772 11.5625 8.34375 C 12.734073 9.5153228 14.640927 9.5153228 15.8125 8.34375 C 16.984072 7.1721773 16.984072 5.2653227 15.8125 4.09375 C 15.226713 3.5079636 14.455267 3.21875 13.6875 3.21875 z M 13.6875 4.21875 C 14.199345 4.21875 14.703226 4.4219757 15.09375 4.8125 C 15.874798 5.5935485 15.874798 6.8439515 15.09375 7.625 C 14.312702 8.4060485 13.062298 8.4060485 12.28125 7.625 C 11.500201 6.8439514 11.500201 5.5935485 12.28125 4.8125 C 12.671774 4.4219757 13.175655 4.21875 13.6875 4.21875 z "
     id="path4615" />
  <path
     style="fill:#000000;fill-opacity:1;stroke:none"
     d="M 22.875 11 C 22.107233 11 21.335786 11.289213 20.75 11.875 C 19.578427 13.046573 19.578427 14.953427 20.75 16.125 C 21.921572 17.296573 23.828428 17.296573 25 16.125 C 26.171573 14.953427 26.171573 13.046573 25 11.875 C 24.414214 11.289213 23.642767 11 22.875 11 z M 22.875 12 C 23.386845 12 23.890726 12.203226 24.28125 12.59375 C 25.062298 13.374798 25.062298 14.625201 24.28125 15.40625 C 23.500202 16.187299 22.249798 16.187299 21.46875 15.40625 C 20.687701 14.625201 20.687701 13.374798 21.46875 12.59375 C 21.859274 12.203225 22.363155 12 22.875 12 z "
     id="path4613" />
  <path
     style="fill:#000000;fill-opacity:1;stroke:none"
     d="M 25 21.59375 C 24.232233 21.59375 23.460786 21.882964 22.875 22.46875 C 21.703427 23.640323 21.703427 25.547177 22.875 26.71875 C 24.046572 27.890322 25.953428 27.890322 27.125 26.71875 C 28.296573 25.547177 28.296573 23.640323 27.125 22.46875 C 26.539214 21.882964 25.767767 21.59375 25 21.59375 z M 25 22.59375 C 25.511845 22.59375 26.015726 22.765726 26.40625 23.15625 C 27.187298 23.937298 27.187298 25.218951 26.40625 26 C 25.625202 26.781048 24.374798 26.781048 23.59375 26 C 22.812701 25.218951 22.812701 23.937298 23.59375 23.15625 C 23.984274 22.765725 24.488155 22.59375 25 22.59375 z "
     id="path4705" />
  <path
     style="fill:#000000;fill-opacity:1;stroke:none"
     d="M 18.625 30.78125 C 17.857233 30.78125 17.085786 31.070464 16.5 31.65625 C 15.328427 32.827823 15.328427 34.734677 16.5 35.90625 C 17.671572 37.077823 19.578427 37.077823 20.75 35.90625 C 21.921573 34.734677 21.921573 32.827823 20.75 31.65625 C 20.164214 31.070464 19.392767 30.78125 18.625 30.78125 z M 18.625 31.78125 C 19.136845 31.78125 19.671976 31.984476 20.0625 32.375 C 20.843548 33.156048 20.843548 34.406452 20.0625 35.1875 C 19.281451 35.968549 17.999798 35.968549 17.21875 35.1875 C 16.437701 34.406452 16.437701 33.156048 17.21875 32.375 C 17.609274 31.984476 18.113155 31.78125 18.625 31.78125 z "
     id="path4734" />
  <path
     style="fill:#000000;fill-opacity:1;stroke:none"
     d="M 4.625 33.78125 C 3.8572331 33.78125 3.085786 34.070464 2.5 34.65625 C 1.328427 35.827823 1.328427 37.734677 2.5 38.90625 C 3.671572 40.077823 5.578427 40.077823 6.75 38.90625 C 7.921573 37.734677 7.921573 35.827823 6.75 34.65625 C 6.1642135 34.070464 5.3927669 33.78125 4.625 33.78125 z M 4.625 34.78125 C 5.1368446 34.78125 5.6719757 34.984476 6.0625 35.375 C 6.8435487 36.156048 6.8435487 37.406451 6.0625 38.1875 C 5.2814513 38.968549 3.9997981 38.968549 3.21875 38.1875 C 2.4377013 37.406451 2.4377013 36.156048 3.21875 35.375 C 3.609274 34.984476 4.1131554 34.78125 4.625 34.78125 z "
     id="path4762" />
  <path
     style="fill:#ffffff;fill-opacity:1;stroke:none"
     d="M 13.6875 4.21875 C 13.175655 4.21875 12.671774 4.4219757 12.28125 4.8125 C 11.500201 5.5935485 11.500201 6.8439514 12.28125 7.625 C 13.062298 8.4060485 14.312702 8.4060485 15.09375 7.625 C 15.874798 6.8439515 15.874798 5.5935485 15.09375 4.8125 C 14.703226 4.4219757 14.199345 4.21875 13.6875 4.21875 z "
     id="path2900" />
  <path
     style="fill:#ffffff;fill-opacity:1;stroke:none"
     d="M 22.875 12 C 22.363155 12 21.859274 12.203225 21.46875 12.59375 C 20.687701 13.374798 20.687701 14.625201 21.46875 15.40625 C 22.249798 16.187299 23.500202 16.187299 24.28125 15.40625 C 25.062298 14.625201 25.062298 13.374798 24.28125 12.59375 C 23.890726 12.203226 23.386845 12 22.875 12 z "
     id="path2908" />
  <path
     style="fill:#ffffff;fill-opacity:1;stroke:none"
     d="M 25 22.59375 C 24.488155 22.59375 23.984274 22.765725 23.59375 23.15625 C 22.812701 23.937298 22.812701 25.218951 23.59375 26 C 24.374798 26.781048 25.625202 26.781048 26.40625 26 C 27.187298 25.218951 27.187298 23.937298 26.40625 23.15625 C 26.015726 22.765726 25.511845 22.59375 25 22.59375 z "
     id="path2916" />
  <path
     style="fill:#ffffff;fill-opacity:1;stroke:none"
     d="M 18.625 31.78125 C 18.113155 31.78125 17.609274 31.984476 17.21875 32.375 C 16.437701 33.156048 16.437701 34.406452 17.21875 35.1875 C 17.999798 35.968549 19.281451 35.968549 20.0625 35.1875 C 20.843548 34.406452 20.843548 33.156048 20.0625 32.375 C 19.671976 31.984476 19.136845 31.78125 18.625 31.78125 z "
     id="path2924" />
  <path
     style="fill:#ffffff;fill-opacity:1;stroke:none"
     d="M 4.625 34.78125 C 4.1131554 34.78125 3.609274 34.984476 3.21875 35.375 C 2.4377013 36.156048 2.4377013 37.406451 3.21875 38.1875 C 3.9997981 38.968549 5.2814513 38.968549 6.0625 38.1875 C 6.8435487 37.406451 6.8435487 36.156048 6.0625 35.375 C 5.6719757 34.984476 5.1368446 34.78125 4.625 34.78125 z "
     id="path2932" />
</svg>
