<?xml version="1.0" encoding="UTF-8" standalone="no"?>
<svg
   xmlns:dc="http://purl.org/dc/elements/1.1/"
   xmlns:cc="http://creativecommons.org/ns#"
   xmlns:rdf="http://www.w3.org/1999/02/22-rdf-syntax-ns#"
   xmlns:svg="http://www.w3.org/2000/svg"
   xmlns="http://www.w3.org/2000/svg"
   xmlns:sodipodi="http://sodipodi.sourceforge.net/DTD/sodipodi-0.dtd"
   xmlns:inkscape="http://www.inkscape.org/namespaces/inkscape"
   version="1.0"
   width="10"
   height="22"
   id="svg2"
   inkscape:version="0.47 r22583"
   sodipodi:docname="02-02-003-01-06-01.svg">
  <defs
     id="defs14">
    <inkscape:perspective
       sodipodi:type="inkscape:persp3d"
       inkscape:vp_x="0 : 5.5 : 1"
       inkscape:vp_y="0 : 1000 : 0"
       inkscape:vp_z="10 : 5.5 : 1"
       inkscape:persp3d-origin="5 : 3.6666667 : 1"
       id="perspective16" />
  </defs>
  <sodipodi:namedview
     pagecolor="#ffffff"
     bordercolor="#666666"
     borderopacity="1"
     objecttolerance="10"
     gridtolerance="10"
     guidetolerance="10"
     inkscape:pageopacity="0"
     inkscape:pageshadow="2"
     inkscape:window-width="917"
     inkscape:window-height="792"
     id="namedview12"
     showgrid="true"
     inkscape:zoom="17.460215"
     inkscape:cx="3.9509418"
     inkscape:cy="11.834475"
     inkscape:window-x="313"
     inkscape:window-y="0"
     inkscape:window-maximized="0"
     inkscape:current-layer="svg2">
    <inkscape:grid
       type="xygrid"
       id="grid2822" />
  </sodipodi:namedview>
  <metadata
     id="metadata4">
Valerie Sutton's pixel definition of the
ISWA 2010 symbol ID 02-01-001-01-01-01
transformed by Stephen E Slevinski Jr
using line and fill polygon tracing
<rdf:RDF>
  <cc:Work
     rdf:about="">
    <dc:format>image/svg+xml</dc:format>
    <dc:type
       rdf:resource="http://purl.org/dc/dcmitype/StillImage" />
    <dc:title></dc:title>
  </cc:Work>
</rdf:RDF>
</metadata>
  <path
     style="fill:#000000;fill-opacity:1;stroke:none"
     d="M 0.71875,0 0,0.71875 3,3.6875 C 7.952688,8.640187 8.868247,16.127658 5.71875,22 L 6.8125,22 C 9.876241,15.831215 8.828438,8.140939 3.6875,3 L 0.71875,0 z"
     id="path4657" />
  <path
     style="fill:#000000;fill-opacity:1;stroke:none"
     d="M 7 16 C 5.3431458 16 4 17.343146 4 19 C 4 20.656854 5.3431458 22 7 22 C 8.656854 22 10 20.656854 10 19 C 10 17.343146 8.656854 16 7 16 z M 7 17 C 8.1045695 17 9 17.895431 9 19 C 9 20.104569 8.1045695 21 7 21 C 5.8954305 21 5 20.104569 5 19 C 5 17.895431 5.8954305 17 7 17 z "
     id="path4613" />
  <path
     style="fill:#000000;fill-opacity:1;stroke:none"
     d="M 6 4 C 4.3431458 4 3 5.3431458 3 7 C 3 8.656854 4.3431458 10 6 10 C 7.656854 10 9 8.656854 9 7 C 9 5.3431458 7.656854 4 6 4 z M 6 5 C 7.1045695 5 8 5.8954305 8 7 C 8 8.1045695 7.1045695 9 6 9 C 4.8954305 9 4 8.1045695 4 7 C 4 5.8954305 4.8954305 5 6 5 z "
     id="path4615" />
  <path
     style="fill:#ffffff;fill-opacity:1;stroke:none"
     d="M 7 17 C 5.8954305 17 5 17.895431 5 19 C 5 20.104569 5.8954305 21 7 21 C 8.1045695 21 9 20.104569 9 19 C 9 17.895431 8.1045695 17 7 17 z "
     id="path2869" />
  <path
     style="fill:#ffffff;fill-opacity:1;stroke:none"
     d="M 6 5 C 4.8954305 5 4 5.8954305 4 7 C 4 8.1045695 4.8954305 9 6 9 C 7.1045695 9 8 8.1045695 8 7 C 8 5.8954305 7.1045695 5 6 5 z "
     id="path2871" />
</svg>
