<?xml version="1.0" encoding="UTF-8" standalone="no"?>
<svg
   xmlns:dc="http://purl.org/dc/elements/1.1/"
   xmlns:cc="http://creativecommons.org/ns#"
   xmlns:rdf="http://www.w3.org/1999/02/22-rdf-syntax-ns#"
   xmlns:svg="http://www.w3.org/2000/svg"
   xmlns="http://www.w3.org/2000/svg"
   xmlns:sodipodi="http://sodipodi.sourceforge.net/DTD/sodipodi-0.dtd"
   xmlns:inkscape="http://www.inkscape.org/namespaces/inkscape"
   version="1.0"
   width="13"
   height="34"
   id="svg2"
   inkscape:version="0.47 r22583"
   sodipodi:docname="02-02-003-01-02-01.svg">
  <defs
     id="defs14">
    <inkscape:perspective
       sodipodi:type="inkscape:persp3d"
       inkscape:vp_x="0 : 5.5 : 1"
       inkscape:vp_y="0 : 1000 : 0"
       inkscape:vp_z="10 : 5.5 : 1"
       inkscape:persp3d-origin="5 : 3.6666667 : 1"
       id="perspective16" />
  </defs>
  <sodipodi:namedview
     pagecolor="#ffffff"
     bordercolor="#666666"
     borderopacity="1"
     objecttolerance="10"
     gridtolerance="10"
     guidetolerance="10"
     inkscape:pageopacity="0"
     inkscape:pageshadow="2"
     inkscape:window-width="917"
     inkscape:window-height="792"
     id="namedview12"
     showgrid="true"
     inkscape:zoom="14.18"
     inkscape:cx="3.9502458"
     inkscape:cy="14.653265"
     inkscape:window-x="313"
     inkscape:window-y="0"
     inkscape:window-maximized="0"
     inkscape:current-layer="svg2">
    <inkscape:grid
       type="xygrid"
       id="grid2822" />
  </sodipodi:namedview>
  <metadata
     id="metadata4">
Valerie Sutton's pixel definition of the
ISWA 2010 symbol ID 02-01-001-01-01-01
transformed by Stephen E Slevinski Jr
using line and fill polygon tracing
<rdf:RDF>
  <cc:Work
     rdf:about="">
    <dc:format>image/svg+xml</dc:format>
    <dc:type
       rdf:resource="http://purl.org/dc/dcmitype/StillImage" />
    <dc:title></dc:title>
  </cc:Work>
</rdf:RDF>
</metadata>
  <path
     style="fill:#000000;fill-opacity:1;stroke:none"
     d="M 0,0 0,7 1,7 1,1 7,1 7,0 0,0 z"
     id="rect4602" />
  <path
     style="fill:#000000;fill-opacity:1;stroke:none"
     d="M 3.71875,3 3,3.71875 6,6.6875 c 6.053127,6.053126 6.05313,15.884374 0,21.9375 -1.7442294,1.744229 -3.809149,2.979735 -6,3.71875 L 0,33.375 C 2.4425548,32.602878 4.7488756,31.251117 6.6875,29.3125 13.131152,22.86885 13.131149,12.443651 6.6875,6 L 3.71875,3 z"
     id="path4657" />
  <path
     style="fill:#000000;fill-opacity:1;stroke:none"
     d="M 9 7 C 7.3431458 7 6 8.3431458 6 10 C 6 11.656854 7.3431458 13 9 13 C 10.656854 13 12 11.656854 12 10 C 12 8.3431458 10.656854 7 9 7 z M 9 8 C 10.104569 8 11 8.8954305 11 10 C 11 11.104569 10.104569 12 9 12 C 7.8954305 12 7 11.104569 7 10 C 7 8.8954305 7.8954305 8 9 8 z "
     id="path4615" />
  <path
     style="fill:#000000;fill-opacity:1;stroke:none"
     d="M 10 19 C 8.3431458 19 7 20.343146 7 22 C 7 23.656854 8.3431458 25 10 25 C 11.656854 25 13 23.656854 13 22 C 13 20.343146 11.656854 19 10 19 z M 10 20 C 11.104569 20 12 20.895431 12 22 C 12 23.104569 11.104569 24 10 24 C 8.8954305 24 8 23.104569 8 22 C 8 20.895431 8.8954305 20 10 20 z "
     id="path4613" />
  <path
     style="fill:#000000;fill-opacity:1;stroke:none"
     d="M 4 28 C 2.3431458 28 1 29.343146 1 31 C 1 32.656854 2.3431458 34 4 34 C 5.656854 34 7 32.656854 7 31 C 7 29.343146 5.656854 28 4 28 z M 4 29 C 5.1045695 29 6 29.895431 6 31 C 6 32.104569 5.1045695 33 4 33 C 2.8954305 33 2 32.104569 2 31 C 2 29.895431 2.8954305 29 4 29 z "
     id="path4705" />
  <path
     style="fill:#ffffff;fill-opacity:1;stroke:none"
     d="M 9 8 C 7.8954305 8 7 8.8954305 7 10 C 7 11.104569 7.8954305 12 9 12 C 10.104569 12 11 11.104569 11 10 C 11 8.8954305 10.104569 8 9 8 z "
     id="path3014" />
  <path
     style="fill:#ffffff;fill-opacity:1;stroke:none"
     d="M 10 20 C 8.8954305 20 8 20.895431 8 22 C 8 23.104569 8.8954305 24 10 24 C 11.104569 24 12 23.104569 12 22 C 12 20.895431 11.104569 20 10 20 z "
     id="path3020" />
  <path
     style="fill:#ffffff;fill-opacity:1;stroke:none"
     d="M 4 29 C 2.8954305 29 2 29.895431 2 31 C 2 32.104569 2.8954305 33 4 33 C 5.1045695 33 6 32.104569 6 31 C 6 29.895431 5.1045695 29 4 29 z "
     id="path3026" />
</svg>
