<?xml version="1.0" encoding="UTF-8" standalone="no"?>
<svg
   xmlns:dc="http://purl.org/dc/elements/1.1/"
   xmlns:cc="http://creativecommons.org/ns#"
   xmlns:rdf="http://www.w3.org/1999/02/22-rdf-syntax-ns#"
   xmlns:svg="http://www.w3.org/2000/svg"
   xmlns="http://www.w3.org/2000/svg"
   xmlns:sodipodi="http://sodipodi.sourceforge.net/DTD/sodipodi-0.dtd"
   xmlns:inkscape="http://www.inkscape.org/namespaces/inkscape"
   version="1.0"
   width="23"
   height="40"
   id="svg2"
   inkscape:version="0.47 r22583"
   sodipodi:docname="02-08-003-02-01-01.svg">
  <defs
     id="defs16">
    <inkscape:perspective
       sodipodi:type="inkscape:persp3d"
       inkscape:vp_x="0 : 23 : 1"
       inkscape:vp_y="0 : 1000 : 0"
       inkscape:vp_z="36 : 23 : 1"
       inkscape:persp3d-origin="18 : 15.333333 : 1"
       id="perspective18" />
  </defs>
  <sodipodi:namedview
     pagecolor="#ffffff"
     bordercolor="#666666"
     borderopacity="1"
     objecttolerance="10"
     gridtolerance="10"
     guidetolerance="10"
     inkscape:pageopacity="0"
     inkscape:pageshadow="2"
     inkscape:window-width="964"
     inkscape:window-height="721"
     id="namedview14"
     showgrid="true"
     inkscape:zoom="11.825"
     inkscape:cx="11.5"
     inkscape:cy="20"
     inkscape:window-x="365"
     inkscape:window-y="0"
     inkscape:window-maximized="0"
     inkscape:current-layer="svg2"
     showborder="true">
    <inkscape:grid
       type="xygrid"
       id="grid2824"
       empspacing="5"
       visible="true"
       enabled="true"
       snapvisiblegridlinesonly="true" />
  </sodipodi:namedview>
  <metadata
     id="metadata4">
Valerie Sutton's pixel definition of the
ISWA 2010 symbol ID 04-01-003-01-01-01
transformed by Stephen E Slevinski Jr
using line and fill polygon tracing
<rdf:RDF>
  <cc:Work
     rdf:about="">
    <dc:format>image/svg+xml</dc:format>
    <dc:type
       rdf:resource="http://purl.org/dc/dcmitype/StillImage" />
    <dc:title></dc:title>
  </cc:Work>
</rdf:RDF>
</metadata>
  <path
     style="fill:#000000;fill-opacity:1;stroke:none"
     d="M 0,8 14,8 7,15 0,8 z"
     id="path2814" />
  <path
     style="fill:#000000;fill-opacity:1;stroke:none"
     d="M 11 0 C 8.2385763 0 6 2.2385763 6 5 L 6 8 L 8 8 L 8 5 C 8 3.3431458 9.3431458 2 11 2 L 12 2 C 14.209139 2 16 3.790861 16 6 L 16 12.5625 C 15.410912 12.220984 14.72993 12 14 12 C 11.790861 12 10 13.790861 10 16 C 10 18.209139 11.790861 20 14 20 C 14.72993 20 15.410912 19.779016 16 19.4375 L 16 22.5625 C 15.410912 22.220984 14.72993 22 14 22 C 11.790861 22 10 23.790861 10 26 C 10 28.209139 11.790861 30 14 30 C 14.71498 30 15.387929 29.797393 15.96875 29.46875 C 15.621687 33.544509 11 40 11 40 L 23 40 C 23 40 18 33.027682 18 29 L 18 26 L 18 16 L 18 6 C 18 2.6862915 15.313708 0 12 0 L 11 0 z M 14 14 C 15.104569 14 16 14.895431 16 16 C 16 17.104569 15.104569 18 14 18 C 12.895431 18 12 17.104569 12 16 C 12 14.895431 12.895431 14 14 14 z M 14 24 C 15.104569 24 16 24.895431 16 26 C 16 27.104569 15.104569 28 14 28 C 12.895431 28 12 27.104569 12 26 C 12 24.895431 12.895431 24 14 24 z "
     id="path2816" />
</svg>
