<?xml version="1.0" encoding="UTF-8" standalone="no"?>
<svg
   xmlns:dc="http://purl.org/dc/elements/1.1/"
   xmlns:cc="http://creativecommons.org/ns#"
   xmlns:rdf="http://www.w3.org/1999/02/22-rdf-syntax-ns#"
   xmlns:svg="http://www.w3.org/2000/svg"
   xmlns="http://www.w3.org/2000/svg"
   xmlns:sodipodi="http://sodipodi.sourceforge.net/DTD/sodipodi-0.dtd"
   xmlns:inkscape="http://www.inkscape.org/namespaces/inkscape"
   version="1.0"
   width="19"
   height="48"
   id="svg2"
   inkscape:version="0.47 r22583"
   sodipodi:docname="02-08-003-02-01-05.svg">
  <defs
     id="defs16">
    <inkscape:perspective
       sodipodi:type="inkscape:persp3d"
       inkscape:vp_x="0 : 23 : 1"
       inkscape:vp_y="0 : 1000 : 0"
       inkscape:vp_z="36 : 23 : 1"
       inkscape:persp3d-origin="18 : 15.333333 : 1"
       id="perspective18" />
  </defs>
  <sodipodi:namedview
     pagecolor="#ffffff"
     bordercolor="#666666"
     borderopacity="1"
     objecttolerance="10"
     gridtolerance="10"
     guidetolerance="10"
     inkscape:pageopacity="0"
     inkscape:pageshadow="2"
     inkscape:window-width="964"
     inkscape:window-height="721"
     id="namedview14"
     showgrid="true"
     inkscape:zoom="9.8541667"
     inkscape:cx="9.5"
     inkscape:cy="24"
     inkscape:window-x="365"
     inkscape:window-y="0"
     inkscape:window-maximized="0"
     inkscape:current-layer="svg2"
     showborder="true">
    <inkscape:grid
       type="xygrid"
       id="grid2824"
       empspacing="5"
       visible="true"
       enabled="true"
       snapvisiblegridlinesonly="true" />
  </sodipodi:namedview>
  <metadata
     id="metadata4">
Valerie Sutton's pixel definition of the
ISWA 2010 symbol ID 04-01-003-01-01-01
transformed by Stephen E Slevinski Jr
using line and fill polygon tracing
<rdf:RDF>
  <cc:Work
     rdf:about="">
    <dc:format>image/svg+xml</dc:format>
    <dc:type
       rdf:resource="http://purl.org/dc/dcmitype/StillImage" />
    <dc:title></dc:title>
  </cc:Work>
</rdf:RDF>
</metadata>
  <path
     style="fill:#000000;fill-opacity:1;stroke:none"
     d="M 14 0 C 10.686292 0 8 2.6862915 8 6 L 8 15 L 8 26 L 8 31 C 8 33.981424 4 39 4 39 L 14 39 C 14 39 10 33.981424 10 31 L 10 29.4375 C 10.589088 29.779016 11.27007 30 12 30 C 14.209139 30 16 28.209139 16 26 C 16 23.790861 14.209139 22 12 22 C 11.27007 22 10.589088 22.220984 10 22.5625 L 10 18.4375 C 10.589088 18.779016 11.27007 19 12 19 C 14.209139 19 16 17.209139 16 15 C 16 12.790861 14.209139 11 12 11 C 11.27007 11 10.589088 11.220984 10 11.5625 L 10 6 C 10 3.790861 11.790861 2 14 2 C 15.656854 2 17 3.3431458 17 5 L 17 8 L 19 8 L 19 5 C 19 2.2385763 16.761424 0 14 0 z M 12 13 C 13.104569 13 14 13.895431 14 15 C 14 16.104569 13.104569 17 12 17 C 10.895431 17 10 16.104569 10 15 C 10 13.895431 10.895431 13 12 13 z M 12 24 C 13.104569 24 14 24.895431 14 26 C 14 27.104569 13.104569 28 12 28 C 10.895431 28 10 27.104569 10 26 C 10 24.895431 10.895431 24 12 24 z "
     id="path2816" />
  <path
     style="fill:#000000;fill-opacity:1;stroke:none"
     d="m 0,39 9,9 9,-9 -18,0 z"
     id="path2817" />
</svg>
