<?xml version="1.0" encoding="UTF-8" standalone="no"?>
<svg
   xmlns:dc="http://purl.org/dc/elements/1.1/"
   xmlns:cc="http://creativecommons.org/ns#"
   xmlns:rdf="http://www.w3.org/1999/02/22-rdf-syntax-ns#"
   xmlns:svg="http://www.w3.org/2000/svg"
   xmlns="http://www.w3.org/2000/svg"
   xmlns:sodipodi="http://sodipodi.sourceforge.net/DTD/sodipodi-0.dtd"
   xmlns:inkscape="http://www.inkscape.org/namespaces/inkscape"
   version="1.0"
   width="39"
   height="33"
   id="svg2"
   inkscape:version="0.47 r22583"
   sodipodi:docname="02-08-003-04-01-07.svg">
  <defs
     id="defs16">
    <inkscape:perspective
       sodipodi:type="inkscape:persp3d"
       inkscape:vp_x="0 : 23 : 1"
       inkscape:vp_y="0 : 1000 : 0"
       inkscape:vp_z="36 : 23 : 1"
       inkscape:persp3d-origin="18 : 15.333333 : 1"
       id="perspective18" />
  </defs>
  <sodipodi:namedview
     pagecolor="#ffffff"
     bordercolor="#666666"
     borderopacity="1"
     objecttolerance="10"
     gridtolerance="10"
     guidetolerance="10"
     inkscape:pageopacity="0"
     inkscape:pageshadow="2"
     inkscape:window-width="964"
     inkscape:window-height="721"
     id="namedview14"
     showgrid="true"
     inkscape:zoom="14.333333"
     inkscape:cx="19.5"
     inkscape:cy="16.5"
     inkscape:window-x="365"
     inkscape:window-y="0"
     inkscape:window-maximized="0"
     inkscape:current-layer="svg2"
     showborder="true">
    <inkscape:grid
       type="xygrid"
       id="grid2824"
       empspacing="5"
       visible="true"
       enabled="true"
       snapvisiblegridlinesonly="true" />
  </sodipodi:namedview>
  <metadata
     id="metadata4">
Valerie Sutton's pixel definition of the
ISWA 2010 symbol ID 04-01-003-01-01-01
transformed by Stephen E Slevinski Jr
using line and fill polygon tracing
<rdf:RDF>
  <cc:Work
     rdf:about="">
    <dc:format>image/svg+xml</dc:format>
    <dc:type
       rdf:resource="http://purl.org/dc/dcmitype/StillImage" />
    <dc:title></dc:title>
  </cc:Work>
</rdf:RDF>
</metadata>
  <path
     style="fill:#000000;fill-opacity:1;stroke:none"
     d="m 37.476658,2.594409 c -2.343145,-2.3431456 -6.142135,-2.343146 -8.485281,0 l -6.36396,6.363961 -7.778174,7.778174 -3.535534,3.535534 c -2.108186,2.108185 -8.485282,2.828427 -8.485282,2.828427 l 7.071068,7.071068 c 0,0 0.720242,-6.377096 2.828428,-8.485281 l 1.104854,-1.104854 c 0.175059,0.658036 0.500328,1.295822 1.016466,1.811961 1.562096,1.562097 4.094756,1.562097 5.656852,0 1.562098,-1.562098 1.562098,-4.094757 0,-5.656855 -0.516138,-0.516138 -1.153924,-0.841406 -1.811961,-1.016466 l 2.916817,-2.916815 c 0.175059,0.658036 0.500326,1.295823 1.016466,1.811961 1.562098,1.562097 4.094758,1.562097 5.656854,0 1.562097,-1.562097 1.562097,-4.094757 0,-5.656854 C 27.768132,8.442231 27.130345,8.116964 26.47231,7.941904 l 3.933281,-3.933282 c 1.562098,-1.562097 4.094757,-1.562097 5.656855,0 1.171571,1.171573 1.171573,3.071068 0,4.242641 l -2.121321,2.12132 1.414213,1.414214 2.12132,-2.12132 c 1.952623,-1.952622 1.952623,-5.118447 0,-7.071068 z m -10.6066,7.778174 c 0.781047,0.781049 0.781047,2.047379 0,2.828427 -0.781049,0.781049 -2.047379,0.781049 -2.828429,0 -0.781048,-0.781048 -0.781048,-2.047378 0,-2.828427 0.78105,-0.781048 2.047379,-0.781048 2.828429,0 z m -7.778176,7.778175 c 0.781048,0.781048 0.781048,2.047379 0,2.828427 -0.781047,0.781048 -2.047378,0.781048 -2.828427,0 -0.781047,-0.781048 -0.781047,-2.047379 0,-2.828427 0.781048,-0.781048 2.047379,-0.781048 2.828427,0 z"
     id="path2816" />
  <path
     style="fill:#000000;fill-opacity:1;stroke:none"
     d="M 0,20.272078 0,33 12.727923,33 0,20.272078 z"
     id="path2817" />
</svg>
