<?xml version="1.0" encoding="UTF-8" standalone="no"?>
<svg
   xmlns:dc="http://purl.org/dc/elements/1.1/"
   xmlns:cc="http://creativecommons.org/ns#"
   xmlns:rdf="http://www.w3.org/1999/02/22-rdf-syntax-ns#"
   xmlns:svg="http://www.w3.org/2000/svg"
   xmlns="http://www.w3.org/2000/svg"
   xmlns:sodipodi="http://sodipodi.sourceforge.net/DTD/sodipodi-0.dtd"
   xmlns:inkscape="http://www.inkscape.org/namespaces/inkscape"
   version="1.0"
   width="35"
   height="35"
   id="svg2"
   inkscape:version="0.47 r22583"
   sodipodi:docname="04-02-007-02-01-04.svg">
  <defs
     id="defs14">
    <inkscape:perspective
       sodipodi:type="inkscape:persp3d"
       inkscape:vp_x="0 : 3.5 : 1"
       inkscape:vp_y="0 : 1000 : 0"
       inkscape:vp_z="7 : 3.5 : 1"
       inkscape:persp3d-origin="3.5 : 2.3333333 : 1"
       id="perspective16" />
  </defs>
  <sodipodi:namedview
     pagecolor="#ffffff"
     bordercolor="#666666"
     borderopacity="1"
     objecttolerance="10"
     gridtolerance="10"
     guidetolerance="10"
     inkscape:pageopacity="0"
     inkscape:pageshadow="2"
     inkscape:window-width="928"
     inkscape:window-height="791"
     id="namedview12"
     showgrid="true"
     inkscape:zoom="15.722143"
     inkscape:cx="17.5"
     inkscape:cy="17.392295"
     inkscape:window-x="273"
     inkscape:window-y="0"
     inkscape:window-maximized="0"
     inkscape:current-layer="svg2">
    <inkscape:grid
       type="xygrid"
       id="grid2822" />
  </sodipodi:namedview>
  <metadata
     id="metadata4">
Valerie Sutton's pixel definition of the
ISWA 2010 symbol ID 04-02-007-01-04-01
transformed by Stephen E Slevinski Jr
using line and fill polygon tracing
<rdf:RDF>
  <cc:Work
     rdf:about="">
    <dc:format>image/svg+xml</dc:format>
    <dc:type
       rdf:resource="http://purl.org/dc/dcmitype/StillImage" />
    <dc:title />
  </cc:Work>
</rdf:RDF>
</metadata>
  <path
     style="fill:#000000;fill-opacity:1;stroke:none"
     d="M 7.0606602,9.575383 9.8890873,6.746956 10.596194,7.454063 7.767767,10.28249 7.0606602,9.575383 z"
     id="rect2849" />
  <path
     style="fill:#000000;fill-opacity:1;stroke:none"
     d="M 8.4748738,10.989597 11.303301,8.161169 12.010408,8.868276 9.1819805,11.696703 8.4748738,10.989597 z"
     id="rect2851" />
  <path
     id="path2817"
     d="m 11.303301,13.818024 2.828427,-2.828427 0.707107,0.707106 -2.828427,2.828427 -0.707107,-0.707106 z"
     style="fill:#000000;fill-opacity:1;stroke:none" />
  <path
     id="path2819"
     d="m 12.717514,15.232237 2.828428,-2.828427 0.707107,0.707107 -2.828428,2.828427 -0.707107,-0.707107 z"
     style="fill:#000000;fill-opacity:1;stroke:none" />
  <path
     style="fill:#000000;fill-opacity:1;stroke:none"
     d="m 6,12.757363 0,-4.949747 0.9943689,0.0221 0.022097,3.911184 4.2205431,0.0221 0.0221,4.220544 3.911184,0.02209 0.0221,0.994366 -4.949747,0 0,-4.242641 -4.2426412,0 z"
     id="rect2826" />
  <path
     id="path2901"
     d="M 20.06066,9.575383 22.889087,6.746956 23.596194,7.454063 20.767767,10.28249 20.06066,9.575383 z"
     style="fill:#000000;fill-opacity:1;stroke:none" />
  <path
     id="path2903"
     d="m 21.474874,10.989597 2.828427,-2.828428 0.707107,0.707107 -2.828427,2.828427 -0.707107,-0.707106 z"
     style="fill:#000000;fill-opacity:1;stroke:none" />
  <path
     style="fill:#000000;fill-opacity:1;stroke:none"
     d="m 24.303301,13.818024 2.828427,-2.828427 0.707107,0.707106 -2.828427,2.828427 -0.707107,-0.707106 z"
     id="path2905" />
  <path
     style="fill:#000000;fill-opacity:1;stroke:none"
     d="m 25.717514,15.232237 2.828428,-2.828427 0.707107,0.707107 -2.828428,2.828427 -0.707107,-0.707107 z"
     id="path2907" />
  <path
     id="path2909"
     d="m 19,12.757363 0,-4.949747 0.994369,0.0221 0.0221,3.911184 4.220543,0.0221 0.0221,4.220544 3.911184,0.02209 0.0221,0.994366 -4.949747,0 0,-4.242641 -4.242641,0 z"
     style="fill:#000000;fill-opacity:1;stroke:none" />
  <path
     style="fill:#000000;fill-opacity:1;stroke:none"
     d="M 17.5,0 C 7.8350169,0 0,7.8350169 0,17.5 0,27.164983 7.8350169,35 17.5,35 27.164983,35 35,27.164983 35,17.5 35,7.8350169 27.164983,0 17.5,0 z m 0,1.5 c 8.836556,0 16,7.163444 16,16 0,8.836556 -7.163444,16 -16,16 -8.836556,0 -16,-7.163444 -16,-16 0,-8.836556 7.163444,-16 16,-16 z"
     id="path2885" />
</svg>
