<?xml version="1.0" encoding="UTF-8" standalone="no"?>
<svg
   xmlns:dc="http://purl.org/dc/elements/1.1/"
   xmlns:cc="http://creativecommons.org/ns#"
   xmlns:rdf="http://www.w3.org/1999/02/22-rdf-syntax-ns#"
   xmlns:svg="http://www.w3.org/2000/svg"
   xmlns="http://www.w3.org/2000/svg"
   xmlns:sodipodi="http://sodipodi.sourceforge.net/DTD/sodipodi-0.dtd"
   xmlns:inkscape="http://www.inkscape.org/namespaces/inkscape"
   version="1.0"
   width="35"
   height="35"
   id="svg2"
   inkscape:version="0.47 r22583"
   sodipodi:docname="04-02-007-02-01-07.svg">
  <defs
     id="defs14">
    <inkscape:perspective
       sodipodi:type="inkscape:persp3d"
       inkscape:vp_x="0 : 3.5 : 1"
       inkscape:vp_y="0 : 1000 : 0"
       inkscape:vp_z="7 : 3.5 : 1"
       inkscape:persp3d-origin="3.5 : 2.3333333 : 1"
       id="perspective16" />
  </defs>
  <sodipodi:namedview
     pagecolor="#ffffff"
     bordercolor="#666666"
     borderopacity="1"
     objecttolerance="10"
     gridtolerance="10"
     guidetolerance="10"
     inkscape:pageopacity="0"
     inkscape:pageshadow="2"
     inkscape:window-width="928"
     inkscape:window-height="791"
     id="namedview12"
     showgrid="true"
     inkscape:zoom="15.722143"
     inkscape:cx="18.129675"
     inkscape:cy="17.607705"
     inkscape:window-x="273"
     inkscape:window-y="0"
     inkscape:window-maximized="0"
     inkscape:current-layer="svg2">
    <inkscape:grid
       type="xygrid"
       id="grid2822" />
  </sodipodi:namedview>
  <metadata
     id="metadata4">
Valerie Sutton's pixel definition of the
ISWA 2010 symbol ID 04-02-007-01-04-01
transformed by Stephen E Slevinski Jr
using line and fill polygon tracing
<rdf:RDF>
  <cc:Work
     rdf:about="">
    <dc:format>image/svg+xml</dc:format>
    <dc:type
       rdf:resource="http://purl.org/dc/dcmitype/StillImage" />
    <dc:title />
  </cc:Work>
</rdf:RDF>
</metadata>
  <path
     style="fill:#000000;fill-opacity:1;stroke:none"
     d="m 25,17 -4,0 0,-1 4,0 0,1 z"
     id="rect2849" />
  <path
     style="fill:#000000;fill-opacity:1;stroke:none"
     d="m 25,15 -4,0 0,-1 4,0 0,1 z"
     id="rect2851" />
  <path
     id="path2817"
     d="m 25,11 -4,0 0,-1 4,0 0,1 z"
     style="fill:#000000;fill-opacity:1;stroke:none" />
  <path
     id="path2819"
     d="m 25,9 -4,0 0,-1 4,0 0,1 z"
     style="fill:#000000;fill-opacity:1;stroke:none" />
  <path
     style="fill:#000000;fill-opacity:1;stroke:none"
     d="M 28,15.5 24.5,19 23.8125,18.28125 26.5625,15.5 23.59375,12.5 26.5625,9.5 23.8125,6.71875 24.5,6 28,9.5 l -3,3 3,3 z"
     id="rect2826" />
  <path
     id="path2849"
     d="m 11,17 -4,0 0,-1 4,0 0,1 z"
     style="fill:#000000;fill-opacity:1;stroke:none" />
  <path
     id="path2851"
     d="m 11,15 -4,0 0,-1 4,0 0,1 z"
     style="fill:#000000;fill-opacity:1;stroke:none" />
  <path
     style="fill:#000000;fill-opacity:1;stroke:none"
     d="m 11,11 -4,0 0,-1 4,0 0,1 z"
     id="path2853" />
  <path
     style="fill:#000000;fill-opacity:1;stroke:none"
     d="M 11,9 7,9 7,8 11,8 11,9 z"
     id="path2855" />
  <path
     id="path2857"
     d="M 14,15.5 10.5,19 9.8125,18.28125 12.5625,15.5 9.59375,12.5 12.5625,9.5 9.8125,6.71875 10.5,6 14,9.5 l -3,3 3,3 z"
     style="fill:#000000;fill-opacity:1;stroke:none" />
  <path
     style="fill:#000000;fill-opacity:1;stroke:none"
     d="M 17.5,0 C 7.8350169,0 0,7.8350169 0,17.5 0,27.164983 7.8350169,35 17.5,35 27.164983,35 35,27.164983 35,17.5 35,7.8350169 27.164983,0 17.5,0 z m 0,1.5 c 8.836556,0 16,7.163444 16,16 0,8.836556 -7.163444,16 -16,16 -8.836556,0 -16,-7.163444 -16,-16 0,-8.836556 7.163444,-16 16,-16 z"
     id="path2838" />
</svg>
