<?xml version="1.0" encoding="UTF-8" standalone="no"?>
<svg
   xmlns:dc="http://purl.org/dc/elements/1.1/"
   xmlns:cc="http://creativecommons.org/ns#"
   xmlns:rdf="http://www.w3.org/1999/02/22-rdf-syntax-ns#"
   xmlns:svg="http://www.w3.org/2000/svg"
   xmlns="http://www.w3.org/2000/svg"
   xmlns:sodipodi="http://sodipodi.sourceforge.net/DTD/sodipodi-0.dtd"
   xmlns:inkscape="http://www.inkscape.org/namespaces/inkscape"
   version="1.0"
   width="24"
   height="11"
   id="svg2"
   inkscape:version="0.47 r22583"
   sodipodi:docname="04-02-007-02-02-06.svg">
  <defs
     id="defs14">
    <inkscape:perspective
       sodipodi:type="inkscape:persp3d"
       inkscape:vp_x="0 : 3.5 : 1"
       inkscape:vp_y="0 : 1000 : 0"
       inkscape:vp_z="7 : 3.5 : 1"
       inkscape:persp3d-origin="3.5 : 2.3333333 : 1"
       id="perspective16" />
  </defs>
  <sodipodi:namedview
     pagecolor="#ffffff"
     bordercolor="#666666"
     borderopacity="1"
     objecttolerance="10"
     gridtolerance="10"
     guidetolerance="10"
     inkscape:pageopacity="0"
     inkscape:pageshadow="2"
     inkscape:window-width="928"
     inkscape:window-height="791"
     id="namedview12"
     showgrid="true"
     inkscape:zoom="33.709536"
     inkscape:cx="11.861049"
     inkscape:cy="5.4993689"
     inkscape:window-x="273"
     inkscape:window-y="0"
     inkscape:window-maximized="0"
     inkscape:current-layer="svg2">
    <inkscape:grid
       type="xygrid"
       id="grid2822" />
  </sodipodi:namedview>
  <metadata
     id="metadata4">
Valerie Sutton's pixel definition of the
ISWA 2010 symbol ID 04-02-007-01-04-01
transformed by Stephen E Slevinski Jr
using line and fill polygon tracing
<rdf:RDF>
  <cc:Work
     rdf:about="">
    <dc:format>image/svg+xml</dc:format>
    <dc:type
       rdf:resource="http://purl.org/dc/dcmitype/StillImage" />
    <dc:title></dc:title>
  </cc:Work>
</rdf:RDF>
</metadata>
  <path
     style="fill:#000000;fill-opacity:1;stroke:none"
     d="M 22.939389,7.424573 20.110962,10.253 19.403855,9.545893 22.232282,6.7174662 22.939389,7.424573 z"
     id="rect2849" />
  <path
     style="fill:#000000;fill-opacity:1;stroke:none"
     d="M 21.525175,6.0103595 18.696748,8.8387866 17.989641,8.1316798 20.818069,5.3032527 21.525175,6.0103595 z"
     id="rect2851" />
  <path
     id="path2817"
     d="M 18.696748,3.1819323 15.868321,6.0103595 15.161214,5.3032527 17.989641,2.4748256 18.696748,3.1819323 z"
     style="fill:#000000;fill-opacity:1;stroke:none" />
  <path
     id="path2819"
     d="M 17.282535,1.7677188 14.454108,4.5961459 13.747,3.8890391 16.575428,1.060612 17.282535,1.7677188 z"
     style="fill:#000000;fill-opacity:1;stroke:none" />
  <path
     style="fill:#000000;fill-opacity:1;stroke:none"
     d="m 24.000049,4.2425925 0,4.9497475 -0.994369,-0.022097 -0.0221,-3.9111844 -4.220543,-0.022097 -0.0221,-4.2205436 -3.911185,-0.022097 -0.0221,-0.994369 4.949747,0 0,4.2426406 4.242641,0 z"
     id="rect2826" />
  <path
     id="path2901"
     d="M 9.939389,7.424573 7.110962,10.253 6.403855,9.545893 9.232282,6.7174662 9.939389,7.424573 z"
     style="fill:#000000;fill-opacity:1;stroke:none" />
  <path
     id="path2903"
     d="M 8.525175,6.0103595 5.696748,8.8387866 4.989641,8.1316798 7.818068,5.3032527 8.525175,6.0103595 z"
     style="fill:#000000;fill-opacity:1;stroke:none" />
  <path
     style="fill:#000000;fill-opacity:1;stroke:none"
     d="M 5.696748,3.1819323 2.868321,6.0103595 2.161214,5.3032527 4.989641,2.4748256 5.696748,3.1819323 z"
     id="path2905" />
  <path
     style="fill:#000000;fill-opacity:1;stroke:none"
     d="M 4.282535,1.7677188 1.454107,4.5961459 0.747,3.8890391 3.575428,1.060612 4.282535,1.7677188 z"
     id="path2907" />
  <path
     id="path2909"
     d="m 11.000049,4.2425925 0,4.9497475 L 10.00568,9.170243 9.98358,5.2590586 5.763037,5.2369616 5.740937,1.016418 1.829753,0.994321 1.807653,-4.8e-5 l 4.949747,0 0,4.2426407 4.242641,0 z"
     style="fill:#000000;fill-opacity:1;stroke:none" />
</svg>
