<?xml version="1.0" encoding="UTF-8" standalone="no"?>
<svg
   xmlns:dc="http://purl.org/dc/elements/1.1/"
   xmlns:cc="http://creativecommons.org/ns#"
   xmlns:rdf="http://www.w3.org/1999/02/22-rdf-syntax-ns#"
   xmlns:svg="http://www.w3.org/2000/svg"
   xmlns="http://www.w3.org/2000/svg"
   xmlns:sodipodi="http://sodipodi.sourceforge.net/DTD/sodipodi-0.dtd"
   xmlns:inkscape="http://www.inkscape.org/namespaces/inkscape"
   version="1.0"
   width="39"
   height="35"
   id="svg2"
   inkscape:version="0.47 r22583"
   sodipodi:docname="04-05-002-01-01-05.svg">
  <defs
     id="defs14">
    <inkscape:perspective
       sodipodi:type="inkscape:persp3d"
       inkscape:vp_x="0 : 17.5 : 1"
       inkscape:vp_y="0 : 1000 : 0"
       inkscape:vp_z="36 : 17.5 : 1"
       inkscape:persp3d-origin="18 : 11.666667 : 1"
       id="perspective16" />
  </defs>
  <sodipodi:namedview
     pagecolor="#ffffff"
     bordercolor="#666666"
     borderopacity="1"
     objecttolerance="10"
     gridtolerance="10"
     guidetolerance="10"
     inkscape:pageopacity="0"
     inkscape:pageshadow="2"
     inkscape:window-width="993"
     inkscape:window-height="789"
     id="namedview12"
     showgrid="true"
     inkscape:zoom="15.487127"
     inkscape:cx="18"
     inkscape:cy="17.5"
     inkscape:window-x="209"
     inkscape:window-y="0"
     inkscape:window-maximized="0"
     inkscape:current-layer="svg2"
     inkscape:snap-grids="true">
    <inkscape:grid
       type="xygrid"
       id="grid2822" />
  </sodipodi:namedview>
  <metadata
     id="metadata4">
Valerie Sutton's pixel definition of the
ISWA 2010 symbol ID 04-03-001-01-01-01
transformed by Stephen E Slevinski Jr
using line and fill polygon tracing
<rdf:RDF>
  <cc:Work
     rdf:about="">
    <dc:format>image/svg+xml</dc:format>
    <dc:type
       rdf:resource="http://purl.org/dc/dcmitype/StillImage" />
    <dc:title />
  </cc:Work>
</rdf:RDF>
</metadata>
  <path
     style="fill:#000000;fill-opacity:1;stroke:none"
     d="M 17.5 0 C 7.835017 0 1.087327e-16 7.8350169 0 17.5 C 0 27.164983 7.835017 35 17.5 35 C 23.655463 35 29.036628 31.804778 32.15625 27 C 31.713878 26.796875 31.302977 26.528238 30.90625 26.25 C 28.048489 30.612034 23.104222 33.5 17.5 33.5 C 8.663444 33.5 1.5 26.336556 1.5 17.5 C 1.5 8.663444 8.663444 1.5 17.5 1.5 C 23.104222 1.5 28.048489 4.3879664 30.90625 8.75 C 31.302977 8.4717626 31.713878 8.2031253 32.15625 8 C 29.036628 3.1952218 23.655463 4.434261e-17 17.5 0 z "
     id="path2824" />
  <path
     style="fill:#000000;fill-opacity:1;stroke:none"
     d="m 32.15625,27 c 0.26906,-0.399793 0.482807,-0.852289 0.6875,-1.3125 0.543786,-1.188966 1.269769,-2.843857 2.125,-3.8125 0.647993,-0.733923 2.375,-1.71875 2.375,-1.71875 C 38.319048,19.661019 39,18.668716 39,17.5 c 0,-1.168716 -0.680952,-2.161019 -1.65625,-2.65625 0,0 -1.727007,-0.984827 -2.375,-1.71875 C 34.117611,12.160991 33.354296,10.495886 32.8125,9.3125 32.602648,8.859239 32.389502,8.408887 32.15625,8 28.542447,9.659362 26,13.263021 26,17.5 c 0,4.236979 2.542447,7.840638 6.15625,9.5 z m -0.5625,-2 C 29.141476,23.398368 27.5,20.648923 27.5,17.5 c 0,-3.141041 1.621616,-5.894168 4.0625,-7.5 0.693998,1.348352 1.621296,3.157454 2.28125,3.78125 0.880489,0.832247 3.0625,1.9375 3.0625,1.9375 C 37.556496,16.048888 38,16.720822 38,17.5 c 0,0.779178 -0.443504,1.451112 -1.09375,1.78125 0,0 -2.182011,1.105253 -3.0625,1.9375 -0.658012,0.62196 -1.556098,2.434579 -2.25,3.78125 z"
     id="path2841" />
</svg>
