<?xml version="1.0" encoding="UTF-8" standalone="no"?>
<svg
   xmlns:dc="http://purl.org/dc/elements/1.1/"
   xmlns:cc="http://creativecommons.org/ns#"
   xmlns:rdf="http://www.w3.org/1999/02/22-rdf-syntax-ns#"
   xmlns:svg="http://www.w3.org/2000/svg"
   xmlns="http://www.w3.org/2000/svg"
   xmlns:sodipodi="http://sodipodi.sourceforge.net/DTD/sodipodi-0.dtd"
   xmlns:inkscape="http://www.inkscape.org/namespaces/inkscape"
   version="1.0"
   width="35"
   height="39"
   id="svg2"
   inkscape:version="0.47 r22583"
   sodipodi:docname="04-05-002-01-01-03.svg">
  <defs
     id="defs14">
    <inkscape:perspective
       sodipodi:type="inkscape:persp3d"
       inkscape:vp_x="0 : 17.5 : 1"
       inkscape:vp_y="0 : 1000 : 0"
       inkscape:vp_z="36 : 17.5 : 1"
       inkscape:persp3d-origin="18 : 11.666667 : 1"
       id="perspective16" />
  </defs>
  <sodipodi:namedview
     pagecolor="#ffffff"
     bordercolor="#666666"
     borderopacity="1"
     objecttolerance="10"
     gridtolerance="10"
     guidetolerance="10"
     inkscape:pageopacity="0"
     inkscape:pageshadow="2"
     inkscape:window-width="993"
     inkscape:window-height="789"
     id="namedview12"
     showgrid="true"
     inkscape:zoom="13.482327"
     inkscape:cx="18"
     inkscape:cy="19.862752"
     inkscape:window-x="209"
     inkscape:window-y="0"
     inkscape:window-maximized="0"
     inkscape:current-layer="svg2"
     inkscape:snap-grids="true">
    <inkscape:grid
       type="xygrid"
       id="grid2822" />
  </sodipodi:namedview>
  <metadata
     id="metadata4">
Valerie Sutton's pixel definition of the
ISWA 2010 symbol ID 04-03-001-01-01-01
transformed by Stephen E Slevinski Jr
using line and fill polygon tracing
<rdf:RDF>
  <cc:Work
     rdf:about="">
    <dc:format>image/svg+xml</dc:format>
    <dc:type
       rdf:resource="http://purl.org/dc/dcmitype/StillImage" />
    <dc:title />
  </cc:Work>
</rdf:RDF>
</metadata>
  <path
     style="fill:#000000;fill-opacity:1;stroke:none"
     d="m 8,32.15625 c 0.3997932,0.26906 0.8522887,0.482807 1.3125,0.6875 1.188966,0.543786 2.843857,1.269769 3.8125,2.125 0.733923,0.647993 1.71875,2.375 1.71875,2.375 C 15.338981,38.319048 16.331284,39 17.5,39 c 1.168716,0 2.161019,-0.680952 2.65625,-1.65625 0,0 0.984827,-1.727007 1.71875,-2.375 0.964009,-0.851139 2.629114,-1.614454 3.8125,-2.15625 C 26.140761,32.602648 26.591113,32.389502 27,32.15625 25.340638,28.542447 21.736979,26 17.5,26 13.263021,26 9.6593616,28.542447 8,32.15625 z m 2,-0.5625 C 11.601632,29.141476 14.351077,27.5 17.5,27.5 c 3.141041,0 5.894168,1.621616 7.5,4.0625 -1.348352,0.693998 -3.157454,1.621296 -3.78125,2.28125 -0.832247,0.880489 -1.9375,3.0625 -1.9375,3.0625 C 18.951112,37.556496 18.279178,38 17.5,38 c -0.779178,0 -1.451112,-0.443504 -1.78125,-1.09375 0,0 -1.105253,-2.182011 -1.9375,-3.0625 C 13.15929,33.185738 11.346671,32.287652 10,31.59375 z"
     id="path2841" />
  <path
     style="fill:#000000;fill-opacity:1;stroke:none"
     d="M 17.5 0 C 7.8350169 4.7369516e-15 0 7.8350169 0 17.5 C 0 23.655463 3.1952218 29.036628 8 32.15625 C 8.2062449 31.707084 8.5174495 31.31949 8.78125 30.90625 C 4.4078982 28.050494 1.5 23.11288 1.5 17.5 C 1.5 8.663444 8.663444 1.5 17.5 1.5 C 26.336556 1.5 33.5 8.663444 33.5 17.5 C 33.5 23.11288 30.592102 28.050494 26.21875 30.90625 C 26.48255 31.31949 26.793755 31.707084 27 32.15625 C 31.804778 29.036628 35 23.655463 35 17.5 C 35 7.8350169 27.164983 -2.3684758e-15 17.5 0 z "
     id="path2950" />
</svg>
