<?xml version="1.0" encoding="UTF-8" standalone="no"?>
<svg
   xmlns:dc="http://purl.org/dc/elements/1.1/"
   xmlns:cc="http://creativecommons.org/ns#"
   xmlns:rdf="http://www.w3.org/1999/02/22-rdf-syntax-ns#"
   xmlns:svg="http://www.w3.org/2000/svg"
   xmlns="http://www.w3.org/2000/svg"
   xmlns:sodipodi="http://sodipodi.sourceforge.net/DTD/sodipodi-0.dtd"
   xmlns:inkscape="http://www.inkscape.org/namespaces/inkscape"
   version="1.0"
   width="39"
   height="35"
   id="svg2"
   inkscape:version="0.47 r22583"
   sodipodi:docname="04-05-002-01-02-06.svg">
  <defs
     id="defs14">
    <inkscape:perspective
       sodipodi:type="inkscape:persp3d"
       inkscape:vp_x="0 : 17.5 : 1"
       inkscape:vp_y="0 : 1000 : 0"
       inkscape:vp_z="36 : 17.5 : 1"
       inkscape:persp3d-origin="18 : 11.666667 : 1"
       id="perspective16" />
  </defs>
  <sodipodi:namedview
     pagecolor="#ffffff"
     bordercolor="#666666"
     borderopacity="1"
     objecttolerance="10"
     gridtolerance="10"
     guidetolerance="10"
     inkscape:pageopacity="0"
     inkscape:pageshadow="2"
     inkscape:window-width="993"
     inkscape:window-height="789"
     id="namedview12"
     showgrid="true"
     inkscape:zoom="15.487127"
     inkscape:cx="18"
     inkscape:cy="17.5"
     inkscape:window-x="209"
     inkscape:window-y="0"
     inkscape:window-maximized="0"
     inkscape:current-layer="svg2"
     inkscape:snap-grids="true">
    <inkscape:grid
       type="xygrid"
       id="grid2822" />
  </sodipodi:namedview>
  <metadata
     id="metadata4">
Valerie Sutton's pixel definition of the
ISWA 2010 symbol ID 04-03-001-01-01-01
transformed by Stephen E Slevinski Jr
using line and fill polygon tracing
<rdf:RDF>
  <cc:Work
     rdf:about="">
    <dc:format>image/svg+xml</dc:format>
    <dc:type
       rdf:resource="http://purl.org/dc/dcmitype/StillImage" />
    <dc:title />
  </cc:Work>
</rdf:RDF>
</metadata>
  <path
     style="fill:#000000;fill-opacity:1;stroke:none"
     d="M 21.5,0 C 15.344537,0 9.9633725,3.1952218 6.84375,8 6.57469,8.3997932 6.3609432,8.8522887 6.15625,9.3125 c -0.5437858,1.188966 -1.2697693,2.843857 -2.125,3.8125 -0.6479926,0.733923 -2.375,1.71875 -2.375,1.71875 C 0.6809519,15.338981 0,16.331284 0,17.5 c 0,1.168716 0.6809519,2.161019 1.65625,2.65625 0,0 1.7270074,0.984827 2.375,1.71875 0.8511393,0.964009 1.6144542,2.629114 2.15625,3.8125 C 6.3973521,26.140761 6.6104985,26.591113 6.84375,27 9.9633725,31.804778 15.344537,35 21.5,35 31.164983,35 39,27.164983 39,17.5 39,7.8350169 31.164983,0 21.5,0 z m 0,1.5 c 8.836556,0 16,7.163444 16,16 0,8.836556 -7.163444,16 -16,16 -5.579704,0 -10.511592,-2.857419 -13.375,-7.1875 L 7.4375,25 C 6.743502,23.651648 5.8162037,21.842546 5.15625,21.21875 4.275761,20.386503 2.09375,19.28125 2.09375,19.28125 1.4435038,18.951112 1,18.279178 1,17.5 c 0,-0.779178 0.4435038,-1.451112 1.09375,-1.78125 0,0 2.182011,-1.105253 3.0625,-1.9375 C 5.814262,13.15929 6.7123476,11.346671 7.40625,10 L 8.125,8.6875 C 10.988408,4.3574189 15.920296,1.5 21.5,1.5 z"
     id="path2824" />
  <path
     style="fill:#000000;fill-opacity:1;stroke:none"
     d="m 21.5,19 c 2.761424,0 5,2.238576 5,5 0,2.761424 -2.238576,5 -5,5 -2.761424,0 -5,-2.238576 -5,-5 0,-2.761424 2.238576,-5 5,-5 z m 0,1 c -2.209139,0 -4,1.790861 -4,4 0,2.209139 1.790861,4 4,4 2.209139,0 4,-1.790861 4,-4 0,-2.209139 -1.790861,-4 -4,-4 z"
     id="path2813" />
  <path
     style="fill:#000000;fill-opacity:1;stroke:none"
     d="m 17.5,24.00025 c 0,0.25518 0.04808,0.508098 0.09375,0.75 l 3.0625,0 c 1.303975,0 2.8125,2.71875 2.8125,2.71875 C 24.682545,26.782205 25.5,25.494409 25.5,24.00025 c 0,-1.494159 -0.817455,-2.781955 -2.03125,-3.46875 0,0 -1.508525,2.71875 -2.8125,2.71875 l -3.0625,0 C 17.548075,23.492152 17.5,23.74507 17.5,24.00025 z"
     id="path2818" />
  <path
     style="fill:#000000;fill-opacity:1;stroke:none"
     d="m 12,17 c 1.656854,0 3,1.343146 3,3 0,1.656854 -1.343146,3 -3,3 -1.656854,0 -3,-1.343146 -3,-3 0,-1.656854 1.343146,-3 3,-3 z m 0,1 c -1.104569,0 -2,0.895431 -2,2 0,1.104569 0.895431,2 2,2 1.104569,0 2,-0.895431 2,-2 0,-1.104569 -0.895431,-2 -2,-2 z"
     id="path2823" />
  <path
     style="fill:#ffffff;fill-opacity:1;stroke:none"
     d="m 12,18 c 1.104569,0 2,0.895431 2,2 0,1.104569 -0.895431,2 -2,2 -1.104569,0 -2,-0.895431 -2,-2 0,-1.104569 0.895431,-2 2,-2 z m 0,1 c -0.552285,0 -1,0.447715 -1,1 0,0.552285 0.447715,1 1,1 0.552285,0 1,-0.447715 1,-1 0,-0.552285 -0.447715,-1 -1,-1 z"
     id="path2828" />
  <path
     sodipodi:type="arc"
     style="fill:#000000;fill-opacity:1;stroke:none"
     id="path2833"
     sodipodi:cx="28"
     sodipodi:cy="20"
     sodipodi:rx="1"
     sodipodi:ry="1"
     d="m 29,20 a 1,1 0 1 1 -2,0 1,1 0 1 1 2,0 z"
     transform="matrix(-1,0,0,1,40,0)" />
  <path
     style="fill:#000000;fill-opacity:1;stroke:none"
     d="M 13.5,11 16.21875,13.71875 15.5,14.40625 14,12.9375 14,16 13,16 13,12.9375 11.5,14.40625 10,12.9375 10,16 9,16 9,12.9375 7.5,14.40625 6.78125,13.71875 9.5,11 l 2,2 2,-2 z"
     id="rect2835" />
</svg>
