<?xml version="1.0" encoding="UTF-8" standalone="no"?>
<svg
   xmlns:dc="http://purl.org/dc/elements/1.1/"
   xmlns:cc="http://creativecommons.org/ns#"
   xmlns:rdf="http://www.w3.org/1999/02/22-rdf-syntax-ns#"
   xmlns:svg="http://www.w3.org/2000/svg"
   xmlns="http://www.w3.org/2000/svg"
   xmlns:sodipodi="http://sodipodi.sourceforge.net/DTD/sodipodi-0.dtd"
   xmlns:inkscape="http://www.inkscape.org/namespaces/inkscape"
   version="1.0"
   width="39"
   height="35"
   id="svg2"
   inkscape:version="0.47 r22583"
   sodipodi:docname="04-05-002-01-01-01.svg">
  <defs
     id="defs14">
    <inkscape:perspective
       sodipodi:type="inkscape:persp3d"
       inkscape:vp_x="0 : 17.5 : 1"
       inkscape:vp_y="0 : 1000 : 0"
       inkscape:vp_z="36 : 17.5 : 1"
       inkscape:persp3d-origin="18 : 11.666667 : 1"
       id="perspective16" />
  </defs>
  <sodipodi:namedview
     pagecolor="#ffffff"
     bordercolor="#666666"
     borderopacity="1"
     objecttolerance="10"
     gridtolerance="10"
     guidetolerance="10"
     inkscape:pageopacity="0"
     inkscape:pageshadow="2"
     inkscape:window-width="993"
     inkscape:window-height="789"
     id="namedview12"
     showgrid="true"
     inkscape:zoom="15.487127"
     inkscape:cx="18"
     inkscape:cy="17.5"
     inkscape:window-x="209"
     inkscape:window-y="0"
     inkscape:window-maximized="0"
     inkscape:current-layer="svg2"
     inkscape:snap-grids="true">
    <inkscape:grid
       type="xygrid"
       id="grid2822" />
  </sodipodi:namedview>
  <metadata
     id="metadata4">
Valerie Sutton's pixel definition of the
ISWA 2010 symbol ID 04-03-001-01-01-01
transformed by Stephen E Slevinski Jr
using line and fill polygon tracing
<rdf:RDF>
  <cc:Work
     rdf:about="">
    <dc:format>image/svg+xml</dc:format>
    <dc:type
       rdf:resource="http://purl.org/dc/dcmitype/StillImage" />
    <dc:title />
  </cc:Work>
</rdf:RDF>
</metadata>
  <path
     style="fill:#000000;fill-opacity:1;stroke:none"
     d="M 21.5,0 C 31.164983,0 39,7.8350169 39,17.5 39,27.164983 31.164983,35 21.5,35 15.344537,35 9.963372,31.804778 6.84375,27 c 0.442372,-0.203125 0.853273,-0.471762 1.25,-0.75 2.857761,4.362034 7.802028,7.25 13.40625,7.25 8.836556,0 16,-7.163444 16,-16 0,-8.836556 -7.163444,-16 -16,-16 C 15.895778,1.5 10.951511,4.3879664 8.09375,8.75 7.697023,8.4717626 7.286122,8.2031253 6.84375,8 9.963372,3.1952218 15.344537,0 21.5,0 z"
     id="path2824" />
  <path
     style="fill:#000000;fill-opacity:1;stroke:none"
     d="M 6.84375,27 C 6.57469,26.600207 6.360943,26.147711 6.15625,25.6875 5.612464,24.498534 4.886481,22.843643 4.03125,21.875 3.383257,21.141077 1.65625,20.15625 1.65625,20.15625 0.680952,19.661019 0,18.668716 0,17.5 c 0,-1.168716 0.680952,-2.161019 1.65625,-2.65625 0,0 1.727007,-0.984827 2.375,-1.71875 C 4.882389,12.160991 5.645704,10.495886 6.1875,9.3125 6.397352,8.859239 6.610498,8.408887 6.84375,8 10.457553,9.659362 13,13.263021 13,17.5 13,21.736979 10.457553,25.340638 6.84375,27 z m 0.5625,-2 C 9.858524,23.398368 11.5,20.648923 11.5,17.5 11.5,14.358959 9.878384,11.605832 7.4375,10 6.743502,11.348352 5.816204,13.157454 5.15625,13.78125 4.275761,14.613497 2.09375,15.71875 2.09375,15.71875 1.443504,16.048888 1,16.720822 1,17.5 c 0,0.779178 0.443504,1.451112 1.09375,1.78125 0,0 2.182011,1.105253 3.0625,1.9375 0.658012,0.62196 1.556098,2.434579 2.25,3.78125 z"
     id="path2813" />
</svg>
