<?xml version="1.0" encoding="UTF-8" standalone="no"?>
<svg
   xmlns:dc="http://purl.org/dc/elements/1.1/"
   xmlns:cc="http://creativecommons.org/ns#"
   xmlns:rdf="http://www.w3.org/1999/02/22-rdf-syntax-ns#"
   xmlns:svg="http://www.w3.org/2000/svg"
   xmlns="http://www.w3.org/2000/svg"
   xmlns:sodipodi="http://sodipodi.sourceforge.net/DTD/sodipodi-0.dtd"
   xmlns:inkscape="http://www.inkscape.org/namespaces/inkscape"
   version="1.0"
   width="39"
   height="35"
   id="svg2"
   inkscape:version="0.47 r22583"
   sodipodi:docname="04-05-002-01-02-05.svg">
  <defs
     id="defs14">
    <inkscape:perspective
       sodipodi:type="inkscape:persp3d"
       inkscape:vp_x="0 : 17.5 : 1"
       inkscape:vp_y="0 : 1000 : 0"
       inkscape:vp_z="36 : 17.5 : 1"
       inkscape:persp3d-origin="18 : 11.666667 : 1"
       id="perspective16" />
  </defs>
  <sodipodi:namedview
     pagecolor="#ffffff"
     bordercolor="#666666"
     borderopacity="1"
     objecttolerance="10"
     gridtolerance="10"
     guidetolerance="10"
     inkscape:pageopacity="0"
     inkscape:pageshadow="2"
     inkscape:window-width="993"
     inkscape:window-height="789"
     id="namedview12"
     showgrid="true"
     inkscape:zoom="15.487127"
     inkscape:cx="18"
     inkscape:cy="17.5"
     inkscape:window-x="209"
     inkscape:window-y="0"
     inkscape:window-maximized="0"
     inkscape:current-layer="svg2"
     inkscape:snap-grids="true">
    <inkscape:grid
       type="xygrid"
       id="grid2822" />
  </sodipodi:namedview>
  <metadata
     id="metadata4">
Valerie Sutton's pixel definition of the
ISWA 2010 symbol ID 04-03-001-01-01-01
transformed by Stephen E Slevinski Jr
using line and fill polygon tracing
<rdf:RDF>
  <cc:Work
     rdf:about="">
    <dc:format>image/svg+xml</dc:format>
    <dc:type
       rdf:resource="http://purl.org/dc/dcmitype/StillImage" />
    <dc:title />
  </cc:Work>
</rdf:RDF>
</metadata>
  <path
     style="fill:#000000;fill-opacity:1;stroke:none"
     d="M 17.5,0 C 7.835017,0 0,7.8350169 0,17.5 0,27.164983 7.835017,35 17.5,35 c 6.155463,0 11.536628,-3.195222 14.65625,-8 0.26906,-0.399793 0.479342,-0.853852 0.6875,-1.3125 0.540321,-1.190529 1.269769,-2.843857 2.125,-3.8125 0.647993,-0.733923 2.375,-1.71875 2.375,-1.71875 C 38.319048,19.661019 39,18.668716 39,17.5 c 0,-1.168716 -0.680952,-2.161019 -1.65625,-2.65625 0,0 -1.727007,-0.984827 -2.375,-1.71875 C 34.117611,12.160991 33.354296,10.495886 32.8125,9.3125 32.602648,8.859239 32.389502,8.408887 32.15625,8 29.036628,3.1952218 23.655463,0 17.5,0 z m 0,1.5 c 5.579704,0 10.511592,2.8574189 13.375,7.1875 L 31.5625,10 c 0.693998,1.348352 1.621296,3.157454 2.28125,3.78125 0.880489,0.832247 3.0625,1.9375 3.0625,1.9375 C 37.556496,16.048888 38,16.720822 38,17.5 c 0,0.779178 -0.443504,1.451112 -1.09375,1.78125 0,0 -2.182011,1.105253 -3.0625,1.9375 -0.658012,0.62196 -1.522355,2.452508 -2.25,3.78125 L 30.875,26.3125 C 28.011592,30.642581 23.079704,33.5 17.5,33.5 c -8.836556,0 -16,-7.163444 -16,-16 0,-8.836556 7.163444,-16 16,-16 z"
     id="path2824" />
</svg>
