<?xml version="1.0" encoding="UTF-8" standalone="no"?>
<svg
   xmlns:dc="http://purl.org/dc/elements/1.1/"
   xmlns:cc="http://creativecommons.org/ns#"
   xmlns:rdf="http://www.w3.org/1999/02/22-rdf-syntax-ns#"
   xmlns:svg="http://www.w3.org/2000/svg"
   xmlns="http://www.w3.org/2000/svg"
   xmlns:sodipodi="http://sodipodi.sourceforge.net/DTD/sodipodi-0.dtd"
   xmlns:inkscape="http://www.inkscape.org/namespaces/inkscape"
   version="1.0"
   width="13"
   height="19"
   id="svg2"
   inkscape:version="0.47 r22583"
   sodipodi:docname="04-05-002-01-03-05.svg">
  <defs
     id="defs14">
    <inkscape:perspective
       sodipodi:type="inkscape:persp3d"
       inkscape:vp_x="0 : 17.5 : 1"
       inkscape:vp_y="0 : 1000 : 0"
       inkscape:vp_z="36 : 17.5 : 1"
       inkscape:persp3d-origin="18 : 11.666667 : 1"
       id="perspective16" />
  </defs>
  <sodipodi:namedview
     pagecolor="#ffffff"
     bordercolor="#666666"
     borderopacity="1"
     objecttolerance="10"
     gridtolerance="10"
     guidetolerance="10"
     inkscape:pageopacity="0"
     inkscape:pageshadow="2"
     inkscape:window-width="993"
     inkscape:window-height="789"
     id="namedview12"
     showgrid="true"
     inkscape:zoom="15.487127"
     inkscape:cx="5.0860489"
     inkscape:cy="9.7516294"
     inkscape:window-x="209"
     inkscape:window-y="0"
     inkscape:window-maximized="0"
     inkscape:current-layer="svg2"
     inkscape:snap-grids="true">
    <inkscape:grid
       type="xygrid"
       id="grid2822" />
  </sodipodi:namedview>
  <metadata
     id="metadata4">
Valerie Sutton's pixel definition of the
ISWA 2010 symbol ID 04-03-001-01-01-01
transformed by Stephen E Slevinski Jr
using line and fill polygon tracing
<rdf:RDF>
  <cc:Work
     rdf:about="">
    <dc:format>image/svg+xml</dc:format>
    <dc:type
       rdf:resource="http://purl.org/dc/dcmitype/StillImage" />
    <dc:title />
  </cc:Work>
</rdf:RDF>
</metadata>
  <path
     style="fill:#000000;fill-opacity:1;stroke:none"
     d="m 6.15625,19 c 0.26906,-0.399793 0.482807,-0.852289 0.6875,-1.3125 0.543786,-1.188966 1.269769,-2.843857 2.125,-3.8125 0.647993,-0.733923 2.375,-1.71875 2.375,-1.71875 C 12.319048,11.661019 13,10.668716 13,9.5 13,8.331284 12.319048,7.338981 11.34375,6.84375 c 0,0 -1.727007,-0.984827 -2.375,-1.71875 C 8.117611,4.160991 7.354296,2.495886 6.8125,1.3125 6.602648,0.859239 6.389502,0.408887 6.15625,0 2.542447,1.659362 0,5.263021 0,9.5 0,13.736979 2.542447,17.340638 6.15625,19 z M 5.59375,17 C 3.141476,15.398368 1.5,12.648923 1.5,9.5 1.5,6.358959 3.121616,3.605832 5.5625,2 c 0.693998,1.348352 1.621296,3.157454 2.28125,3.78125 0.880489,0.832247 3.0625,1.9375 3.0625,1.9375 C 11.556496,8.048888 12,8.720822 12,9.5 c 0,0.779178 -0.443504,1.451112 -1.09375,1.78125 0,0 -2.182011,1.105253 -3.0625,1.9375 C 7.185738,13.84071 6.287652,15.653329 5.59375,17 z"
     id="path2841" />
</svg>
