<?xml version="1.0" encoding="UTF-8" standalone="no"?>
<svg
   xmlns:dc="http://purl.org/dc/elements/1.1/"
   xmlns:cc="http://creativecommons.org/ns#"
   xmlns:rdf="http://www.w3.org/1999/02/22-rdf-syntax-ns#"
   xmlns:svg="http://www.w3.org/2000/svg"
   xmlns="http://www.w3.org/2000/svg"
   xmlns:sodipodi="http://sodipodi.sourceforge.net/DTD/sodipodi-0.dtd"
   xmlns:inkscape="http://www.inkscape.org/namespaces/inkscape"
   version="1.0"
   width="35"
   height="35"
   id="svg2"
   inkscape:version="0.47 r22583"
   sodipodi:docname="04-05-002-01-02-04.svg">
  <defs
     id="defs14">
    <inkscape:perspective
       sodipodi:type="inkscape:persp3d"
       inkscape:vp_x="0 : 17.5 : 1"
       inkscape:vp_y="0 : 1000 : 0"
       inkscape:vp_z="36 : 17.5 : 1"
       inkscape:persp3d-origin="18 : 11.666667 : 1"
       id="perspective16" />
  </defs>
  <sodipodi:namedview
     pagecolor="#ffffff"
     bordercolor="#666666"
     borderopacity="1"
     objecttolerance="10"
     gridtolerance="10"
     guidetolerance="10"
     inkscape:pageopacity="0"
     inkscape:pageshadow="2"
     inkscape:window-width="993"
     inkscape:window-height="789"
     id="namedview12"
     showgrid="true"
     inkscape:zoom="15.487127"
     inkscape:cx="18"
     inkscape:cy="17.5"
     inkscape:window-x="209"
     inkscape:window-y="0"
     inkscape:window-maximized="0"
     inkscape:current-layer="svg2"
     inkscape:snap-grids="true">
    <inkscape:grid
       type="xygrid"
       id="grid2822" />
  </sodipodi:namedview>
  <metadata
     id="metadata4">
Valerie Sutton's pixel definition of the
ISWA 2010 symbol ID 04-03-001-01-01-01
transformed by Stephen E Slevinski Jr
using line and fill polygon tracing
<rdf:RDF>
  <cc:Work
     rdf:about="">
    <dc:format>image/svg+xml</dc:format>
    <dc:type
       rdf:resource="http://purl.org/dc/dcmitype/StillImage" />
    <dc:title />
  </cc:Work>
</rdf:RDF>
</metadata>
  <path
     style="fill:#000000;fill-opacity:1;stroke:none"
     d="M 17.5,0 C 7.835017,0 0,7.8350169 0,17.5 0,27.164983 7.835017,35 17.5,35 c 1.263772,0 2.499729,-0.120505 3.6875,-0.375 0.472951,-0.09244 0.936091,-0.256822 1.40625,-0.4375 1.22524,-0.456212 2.929077,-1.107305 4.21875,-1.1875 0.977162,-0.06076 2.875,0.46875 2.875,0.46875 1.039821,0.339459 2.236093,0.107657 3.0625,-0.71875 0.826407,-0.826407 1.058209,-2.022679 0.71875,-3.0625 0,0 -0.529512,-1.897838 -0.46875,-2.875 0.07981,-1.283504 0.702577,-2.998862 1.15625,-4.21875 C 34.328366,22.124858 34.500807,21.64156 34.625,21.1875 34.879495,19.999729 35,18.763772 35,17.5 35,7.8350169 27.164983,0 17.5,0 z m 0,1.5 c 8.836556,0 16,7.163444 16,16 0,1.126536 -0.09181,2.220848 -0.3125,3.28125 l -0.40625,1.40625 c -0.462698,1.444159 -1.088067,3.373502 -1.0625,4.28125 0.03411,1.211088 0.8125,3.53125 0.8125,3.53125 0.226351,0.693237 0.05097,1.480288 -0.5,2.03125 -0.550961,0.550962 -1.338014,0.726351 -2.03125,0.5 0,0 -2.320163,-0.778388 -3.53125,-0.8125 -0.905077,-0.02549 -2.807097,0.632173 -4.25,1.09375 l -1.4375,0.375 C 19.720848,33.408189 18.626536,33.5 17.5,33.5 c -8.836556,0 -16,-7.163444 -16,-16 0,-8.836556 7.163444,-16 16,-16 z"
     id="path2824" />
</svg>
