<?xml version="1.0" encoding="UTF-8" standalone="no"?>
<svg
   xmlns:dc="http://purl.org/dc/elements/1.1/"
   xmlns:cc="http://creativecommons.org/ns#"
   xmlns:rdf="http://www.w3.org/1999/02/22-rdf-syntax-ns#"
   xmlns:svg="http://www.w3.org/2000/svg"
   xmlns="http://www.w3.org/2000/svg"
   xmlns:sodipodi="http://sodipodi.sourceforge.net/DTD/sodipodi-0.dtd"
   xmlns:inkscape="http://www.inkscape.org/namespaces/inkscape"
   version="1.0"
   width="16"
   height="32"
   id="svg2"
   inkscape:version="0.47 r22583"
   sodipodi:docname="02-10-004-02-06-09.svg">
  <defs
     id="defs16">
    <inkscape:perspective
       sodipodi:type="inkscape:persp3d"
       inkscape:vp_x="0 : 23 : 1"
       inkscape:vp_y="0 : 1000 : 0"
       inkscape:vp_z="36 : 23 : 1"
       inkscape:persp3d-origin="18 : 15.333333 : 1"
       id="perspective18" />
  </defs>
  <sodipodi:namedview
     pagecolor="#ffffff"
     bordercolor="#666666"
     borderopacity="1"
     objecttolerance="10"
     gridtolerance="10"
     guidetolerance="10"
     inkscape:pageopacity="0"
     inkscape:pageshadow="2"
     inkscape:window-width="964"
     inkscape:window-height="721"
     id="namedview14"
     showgrid="true"
     inkscape:zoom="14.78125"
     inkscape:cx="8"
     inkscape:cy="16"
     inkscape:window-x="365"
     inkscape:window-y="0"
     inkscape:window-maximized="0"
     inkscape:current-layer="svg2"
     showborder="true">
    <inkscape:grid
       type="xygrid"
       id="grid2824"
       empspacing="5"
       visible="true"
       enabled="true"
       snapvisiblegridlinesonly="true" />
  </sodipodi:namedview>
  <metadata
     id="metadata4">
Valerie Sutton's pixel definition of the
ISWA 2010 symbol ID 04-01-003-01-01-01
transformed by Stephen E Slevinski Jr
using line and fill polygon tracing
<rdf:RDF>
  <cc:Work
     rdf:about="">
    <dc:format>image/svg+xml</dc:format>
    <dc:type
       rdf:resource="http://purl.org/dc/dcmitype/StillImage" />
    <dc:title></dc:title>
  </cc:Work>
</rdf:RDF>
</metadata>
  <path
     style="fill:#000000;fill-opacity:1;stroke:none"
     d="M 16,16 14,16 10.5,19.5 7,16 5,16 10.5,21.5 16,16 z"
     id="path3279" />
  <path
     style="fill:#000000;fill-opacity:1;stroke:none"
     d="m 6,32 c 2.402414,0 4.425084,-4.078618 4.90625,-9.5 L 9.625,22.5 C 9.1284398,26.941916 8.1502234,30 7,30 5.343146,30 4,23.731986 4,16 4,8.268014 5.343146,2 7,2 8.1060261,2 9.0495396,4.833388 9.5625,9 l 1.34375,0 C 10.520719,3.882107 8.7051948,0 6.5,0 l -2,0 C 1.462434,0 0,5.820298 0,13 l 0,7 c 0,6.627417 2.134007,12 6,12 z"
     id="path5562" />
  <path
     id="path2859"
     d="M 16,10 14,10 10.5,13.5 7,10 5,10 10.5,15.5 16,10 z"
     style="fill:#000000;fill-opacity:1;stroke:none" />
</svg>
