<?xml version="1.0" encoding="UTF-8" standalone="no"?>
<svg
   xmlns:dc="http://purl.org/dc/elements/1.1/"
   xmlns:cc="http://creativecommons.org/ns#"
   xmlns:rdf="http://www.w3.org/1999/02/22-rdf-syntax-ns#"
   xmlns:svg="http://www.w3.org/2000/svg"
   xmlns="http://www.w3.org/2000/svg"
   xmlns:sodipodi="http://sodipodi.sourceforge.net/DTD/sodipodi-0.dtd"
   xmlns:inkscape="http://www.inkscape.org/namespaces/inkscape"
   version="1.0"
   width="25"
   height="26"
   id="svg2"
   inkscape:version="0.47 r22583"
   sodipodi:docname="02-10-004-02-06-16.svg">
  <defs
     id="defs16">
    <inkscape:perspective
       sodipodi:type="inkscape:persp3d"
       inkscape:vp_x="0 : 23 : 1"
       inkscape:vp_y="0 : 1000 : 0"
       inkscape:vp_z="36 : 23 : 1"
       inkscape:persp3d-origin="18 : 15.333333 : 1"
       id="perspective18" />
  </defs>
  <sodipodi:namedview
     pagecolor="#ffffff"
     bordercolor="#666666"
     borderopacity="1"
     objecttolerance="10"
     gridtolerance="10"
     guidetolerance="10"
     inkscape:pageopacity="0"
     inkscape:pageshadow="2"
     inkscape:window-width="964"
     inkscape:window-height="721"
     id="namedview14"
     showgrid="true"
     inkscape:zoom="16.97187"
     inkscape:cx="12.5"
     inkscape:cy="13"
     inkscape:window-x="365"
     inkscape:window-y="0"
     inkscape:window-maximized="0"
     inkscape:current-layer="svg2"
     showborder="true">
    <inkscape:grid
       type="xygrid"
       id="grid2824"
       empspacing="5"
       visible="true"
       enabled="true"
       snapvisiblegridlinesonly="true" />
  </sodipodi:namedview>
  <metadata
     id="metadata4">
Valerie Sutton's pixel definition of the
ISWA 2010 symbol ID 04-01-003-01-01-01
transformed by Stephen E Slevinski Jr
using line and fill polygon tracing
<rdf:RDF>
  <cc:Work
     rdf:about="">
    <dc:format>image/svg+xml</dc:format>
    <dc:type
       rdf:resource="http://purl.org/dc/dcmitype/StillImage" />
    <dc:title></dc:title>
  </cc:Work>
</rdf:RDF>
</metadata>
  <path
     style="fill:#000000;fill-opacity:1;stroke:none"
     d="m 19.778174,5 -1.414213,1.4142135 -4.949748,0 0,4.9497475 L 12,12.778175 12,5 19.778174,5 z"
     id="path3279" />
  <path
     style="fill:#000000;fill-opacity:1;stroke:none"
     d="M 1.3933981,0.7573593 C 3.0921611,-0.941404 7.4064231,0.5123708 11.580155,4.005631 L 10.674174,4.9116116 C 7.1821451,2.1218236 4.3280491,0.6511356 3.5147181,1.464466 c -1.171572,1.1715727 2.310835,6.5534756 7.7781749,12.020816 5.46734,5.46734 10.849243,8.949747 12.020815,7.778175 0.782079,-0.782079 -0.554264,-3.452752 -3.137786,-6.761709 l 0.950175,-0.950175 c 3.346285,3.891509 4.80758,7.920342 3.248271,9.479651 l -1.414213,1.414213 C 20.812271,26.593321 15.662602,23.511846 10.585786,18.43503 L 5.6360391,13.485282 C 0.94974715,8.7989896 -1.3402719,3.4910291 1.3933981,0.7573593 z"
     id="path5562" />
  <path
     id="path2859"
     d="m 23.778175,9 -1.414213,1.414214 -4.949748,0 0,4.949747 L 16,16.778175 16,9 23.778175,9 z"
     style="fill:#000000;fill-opacity:1;stroke:none" />
</svg>
