<?xml version="1.0" encoding="UTF-8" standalone="no"?>
<svg
   xmlns:dc="http://purl.org/dc/elements/1.1/"
   xmlns:cc="http://creativecommons.org/ns#"
   xmlns:rdf="http://www.w3.org/1999/02/22-rdf-syntax-ns#"
   xmlns:svg="http://www.w3.org/2000/svg"
   xmlns="http://www.w3.org/2000/svg"
   xmlns:sodipodi="http://sodipodi.sourceforge.net/DTD/sodipodi-0.dtd"
   xmlns:inkscape="http://www.inkscape.org/namespaces/inkscape"
   version="1.0"
   width="26"
   height="26"
   id="svg2"
   inkscape:version="0.47 r22583"
   sodipodi:docname="02-10-004-02-03-07.svg">
  <defs
     id="defs16">
    <inkscape:perspective
       sodipodi:type="inkscape:persp3d"
       inkscape:vp_x="0 : 23 : 1"
       inkscape:vp_y="0 : 1000 : 0"
       inkscape:vp_z="36 : 23 : 1"
       inkscape:persp3d-origin="18 : 15.333333 : 1"
       id="perspective18" />
  </defs>
  <sodipodi:namedview
     pagecolor="#ffffff"
     bordercolor="#666666"
     borderopacity="1"
     objecttolerance="10"
     gridtolerance="10"
     guidetolerance="10"
     inkscape:pageopacity="0"
     inkscape:pageshadow="2"
     inkscape:window-width="964"
     inkscape:window-height="721"
     id="namedview14"
     showgrid="true"
     inkscape:zoom="16.97187"
     inkscape:cx="13"
     inkscape:cy="13"
     inkscape:window-x="365"
     inkscape:window-y="0"
     inkscape:window-maximized="0"
     inkscape:current-layer="svg2"
     showborder="true">
    <inkscape:grid
       type="xygrid"
       id="grid2824"
       empspacing="5"
       visible="true"
       enabled="true"
       snapvisiblegridlinesonly="true" />
  </sodipodi:namedview>
  <metadata
     id="metadata4">
Valerie Sutton's pixel definition of the
ISWA 2010 symbol ID 04-01-003-01-01-01
transformed by Stephen E Slevinski Jr
using line and fill polygon tracing
<rdf:RDF>
  <cc:Work
     rdf:about="">
    <dc:format>image/svg+xml</dc:format>
    <dc:type
       rdf:resource="http://purl.org/dc/dcmitype/StillImage" />
    <dc:title></dc:title>
  </cc:Work>
</rdf:RDF>
</metadata>
  <path
     style="fill:#000000;fill-opacity:1;stroke:none"
     d="m 12.221825,12 1.414214,1.414213 4.949747,0 0,4.949748 L 20,19.778175 20,12 12.221825,12 z"
     id="path3279" />
  <path
     style="fill:#000000;fill-opacity:1;stroke:none"
     d="M 24.242641,1.3933982 C 22.290036,-0.5592064 16.908117,1.6568542 12.221825,6.3431457 L 5.8578642,12.707107 c -4.295767,4.295767 -6.35356653,9.202783 -4.596194,10.960155 l 1.4142135,1.414214 c 1.730856,1.730856 5.8554374,0.516302 10.0541393,-2.673783 L 9.150295,18.827965 C 5.8922388,21.475646 3.3289675,22.906132 2.6758837,22.253049 1.6995814,21.276746 5.340272,16.053126 10.807612,10.585786 16.274951,5.1184467 21.498571,1.4777561 22.474874,2.4540584 c 0.678822,0.6788225 -0.90127,3.4083869 -3.756505,6.850097 l 3.645984,3.6459836 c 3.363582,-4.3137915 4.258338,-9.17669 1.878288,-11.5567408 z"
     id="path5562" />
  <path
     id="path3878"
     d="m 8.2218256,16 1.4142134,1.414214 4.949748,0 0,4.949747 L 16,23.778175 16,16 8.2218256,16 z"
     style="fill:#000000;fill-opacity:1;stroke:none" />
</svg>
