<?xml version="1.0" encoding="UTF-8" standalone="no"?>
<svg
   xmlns:dc="http://purl.org/dc/elements/1.1/"
   xmlns:cc="http://creativecommons.org/ns#"
   xmlns:rdf="http://www.w3.org/1999/02/22-rdf-syntax-ns#"
   xmlns:svg="http://www.w3.org/2000/svg"
   xmlns="http://www.w3.org/2000/svg"
   xmlns:sodipodi="http://sodipodi.sourceforge.net/DTD/sodipodi-0.dtd"
   xmlns:inkscape="http://www.inkscape.org/namespaces/inkscape"
   version="1.0"
   width="26"
   height="26"
   id="svg2"
   inkscape:version="0.47 r22583"
   sodipodi:docname="02-10-004-02-01-02.svg">
  <defs
     id="defs16">
    <inkscape:perspective
       sodipodi:type="inkscape:persp3d"
       inkscape:vp_x="0 : 23 : 1"
       inkscape:vp_y="0 : 1000 : 0"
       inkscape:vp_z="36 : 23 : 1"
       inkscape:persp3d-origin="18 : 15.333333 : 1"
       id="perspective18" />
  </defs>
  <sodipodi:namedview
     pagecolor="#ffffff"
     bordercolor="#666666"
     borderopacity="1"
     objecttolerance="10"
     gridtolerance="10"
     guidetolerance="10"
     inkscape:pageopacity="0"
     inkscape:pageshadow="2"
     inkscape:window-width="964"
     inkscape:window-height="721"
     id="namedview14"
     showgrid="true"
     inkscape:zoom="16.97187"
     inkscape:cx="13"
     inkscape:cy="13"
     inkscape:window-x="365"
     inkscape:window-y="0"
     inkscape:window-maximized="0"
     inkscape:current-layer="svg2"
     showborder="true">
    <inkscape:grid
       type="xygrid"
       id="grid2824"
       empspacing="5"
       visible="true"
       enabled="true"
       snapvisiblegridlinesonly="true" />
  </sodipodi:namedview>
  <metadata
     id="metadata4">
Valerie Sutton's pixel definition of the
ISWA 2010 symbol ID 04-01-003-01-01-01
transformed by Stephen E Slevinski Jr
using line and fill polygon tracing
<rdf:RDF>
  <cc:Work
     rdf:about="">
    <dc:format>image/svg+xml</dc:format>
    <dc:type
       rdf:resource="http://purl.org/dc/dcmitype/StillImage" />
    <dc:title></dc:title>
  </cc:Work>
</rdf:RDF>
</metadata>
  <path
     style="fill:#000000;fill-opacity:1;stroke:none"
     d="M 12,20 12,12.221825 19.778175,20 12,20 z"
     id="path3279" />
  <path
     style="fill:#000000;fill-opacity:1;stroke:none"
     d="M 1.3933986,24.242641 C -0.55922297,22.290019 1.6568546,16.908117 6.3431461,12.221825 L 12.707107,5.8578637 c 4.295767,-4.295767 9.202796,-6.35355298 10.960155,-4.596194 l 1.414214,1.414214 c 1.730824,1.730824 0.516301,5.855436 -2.673748,10.0541743 L 18.828,9.1503297 c 2.64763,-3.258107 4.07815,-5.821345 3.425049,-6.474446 -0.976311,-0.976311 -6.199923,2.664388 -11.667263,8.1317283 -5.4673389,5.467339 -9.108038,10.690951 -8.1317272,11.667262 0.6788155,0.678815 3.408406,-0.90125 6.850097,-3.756505 l 3.6460192,3.646019 C 8.6363521,25.727939 3.7734699,26.622712 1.3933986,24.242641 z"
     id="path5562" />
  <path
     id="path4560"
     d="M 16,16 16,8.2218257 23.778175,16 16,16 z"
     style="fill:#000000;fill-opacity:1;stroke:none" />
</svg>
