<?xml version="1.0" encoding="UTF-8" standalone="no"?>
<svg
   xmlns:dc="http://purl.org/dc/elements/1.1/"
   xmlns:cc="http://creativecommons.org/ns#"
   xmlns:rdf="http://www.w3.org/1999/02/22-rdf-syntax-ns#"
   xmlns:svg="http://www.w3.org/2000/svg"
   xmlns="http://www.w3.org/2000/svg"
   xmlns:sodipodi="http://sodipodi.sourceforge.net/DTD/sodipodi-0.dtd"
   xmlns:inkscape="http://www.inkscape.org/namespaces/inkscape"
   version="1.0"
   width="15"
   height="32"
   id="svg2"
   inkscape:version="0.47 r22583"
   sodipodi:docname="02-10-004-02-02-09.svg">
  <defs
     id="defs16">
    <inkscape:perspective
       sodipodi:type="inkscape:persp3d"
       inkscape:vp_x="0 : 23 : 1"
       inkscape:vp_y="0 : 1000 : 0"
       inkscape:vp_z="36 : 23 : 1"
       inkscape:persp3d-origin="18 : 15.333333 : 1"
       id="perspective18" />
  </defs>
  <sodipodi:namedview
     pagecolor="#ffffff"
     bordercolor="#666666"
     borderopacity="1"
     objecttolerance="10"
     gridtolerance="10"
     guidetolerance="10"
     inkscape:pageopacity="0"
     inkscape:pageshadow="2"
     inkscape:window-width="964"
     inkscape:window-height="721"
     id="namedview14"
     showgrid="true"
     inkscape:zoom="14.78125"
     inkscape:cx="7.5"
     inkscape:cy="16"
     inkscape:window-x="365"
     inkscape:window-y="0"
     inkscape:window-maximized="0"
     inkscape:current-layer="svg2"
     showborder="true">
    <inkscape:grid
       type="xygrid"
       id="grid2824"
       empspacing="5"
       visible="true"
       enabled="true"
       snapvisiblegridlinesonly="true" />
  </sodipodi:namedview>
  <metadata
     id="metadata4">
Valerie Sutton's pixel definition of the
ISWA 2010 symbol ID 04-01-003-01-01-01
transformed by Stephen E Slevinski Jr
using line and fill polygon tracing
<rdf:RDF>
  <cc:Work
     rdf:about="">
    <dc:format>image/svg+xml</dc:format>
    <dc:type
       rdf:resource="http://purl.org/dc/dcmitype/StillImage" />
    <dc:title></dc:title>
  </cc:Work>
</rdf:RDF>
</metadata>
  <path
     style="fill:#000000;fill-opacity:1;stroke:none"
     d="M 5.5,21.5 11,16 0,16 5.5,21.5 z M 5.5,20.0625 2.4375,17 8.5625,17 5.5,20.0625 z"
     id="path3279" />
  <path
     style="fill:#000000;fill-opacity:1;stroke:none"
     d="m 10,32 c 2.761424,0 5,-5.372583 5,-12 l 0,-9 C 15,4.924868 12.985281,0 10.5,0 l -2,0 C 6.0522451,0 3.994501,3.775339 3.28125,9 l 5.0625,0 C 8.7754232,4.824013 9.5763754,2 10.5,2 11.880712,2 13,8.268014 13,16 13,23.731986 11.880712,30 10.5,30 9.5400104,30 8.727173,26.952613 8.3125,22.5 l -5.15625,0 C 3.828194,27.928723 6.6340709,32 10,32 z"
     id="path5562" />
  <path
     style="fill:#ffffff;fill-opacity:1;stroke:none"
     d="M 5.5,20.0625 8.5625,17 2.4375,17 5.5,20.0625 z"
     id="path6281" />
  <path
     id="path4220"
     d="M 5.5,15.5 11,10 0,10 5.5,15.5 z M 5.5,14.0625 2.4375,11 8.5625,11 5.5,14.0625 z"
     style="fill:#000000;fill-opacity:1;stroke:none" />
  <path
     id="path4222"
     d="M 5.5,14.0625 8.5625,11 2.4375,11 5.5,14.0625 z"
     style="fill:#ffffff;fill-opacity:1;stroke:none" />
</svg>
