<?xml version="1.0" encoding="UTF-8" standalone="no"?>
<svg
   xmlns:dc="http://purl.org/dc/elements/1.1/"
   xmlns:cc="http://creativecommons.org/ns#"
   xmlns:rdf="http://www.w3.org/1999/02/22-rdf-syntax-ns#"
   xmlns:svg="http://www.w3.org/2000/svg"
   xmlns="http://www.w3.org/2000/svg"
   xmlns:sodipodi="http://sodipodi.sourceforge.net/DTD/sodipodi-0.dtd"
   xmlns:inkscape="http://www.inkscape.org/namespaces/inkscape"
   version="1.0"
   width="26"
   height="26"
   id="svg2"
   inkscape:version="0.47 r22583"
   sodipodi:docname="02-10-004-02-03-14.svg">
  <defs
     id="defs16">
    <inkscape:perspective
       sodipodi:type="inkscape:persp3d"
       inkscape:vp_x="0 : 23 : 1"
       inkscape:vp_y="0 : 1000 : 0"
       inkscape:vp_z="36 : 23 : 1"
       inkscape:persp3d-origin="18 : 15.333333 : 1"
       id="perspective18" />
  </defs>
  <sodipodi:namedview
     pagecolor="#ffffff"
     bordercolor="#666666"
     borderopacity="1"
     objecttolerance="10"
     gridtolerance="10"
     guidetolerance="10"
     inkscape:pageopacity="0"
     inkscape:pageshadow="2"
     inkscape:window-width="964"
     inkscape:window-height="721"
     id="namedview14"
     showgrid="true"
     inkscape:zoom="16.97187"
     inkscape:cx="13"
     inkscape:cy="13"
     inkscape:window-x="365"
     inkscape:window-y="0"
     inkscape:window-maximized="0"
     inkscape:current-layer="svg2"
     showborder="true">
    <inkscape:grid
       type="xygrid"
       id="grid2824"
       empspacing="5"
       visible="true"
       enabled="true"
       snapvisiblegridlinesonly="true" />
  </sodipodi:namedview>
  <metadata
     id="metadata4">
Valerie Sutton's pixel definition of the
ISWA 2010 symbol ID 04-01-003-01-01-01
transformed by Stephen E Slevinski Jr
using line and fill polygon tracing
<rdf:RDF>
  <cc:Work
     rdf:about="">
    <dc:format>image/svg+xml</dc:format>
    <dc:type
       rdf:resource="http://purl.org/dc/dcmitype/StillImage" />
    <dc:title></dc:title>
  </cc:Work>
</rdf:RDF>
</metadata>
  <path
     style="fill:#000000;fill-opacity:1;stroke:none"
     d="m 14,12.221825 -1.414213,1.414214 0,4.949747 -4.9497482,0 L 6.2218248,20 14,20 14,12.221825 z"
     id="path3279" />
  <path
     style="fill:#000000;fill-opacity:1;stroke:none"
     d="M 24.606602,24.242641 C 26.559206,22.290036 24.343146,16.908117 19.656854,12.221825 L 13.292893,5.8578638 C 8.9971258,1.5620968 4.0901098,-0.49570218 2.3327378,1.2616698 l -1.414214,1.414214 c -1.73085596,1.730856 -0.51630196,5.855437 2.673783,10.0541392 l 3.579728,-3.5797282 c -2.647681,-3.258056 -4.078167,-5.821328 -3.425084,-6.474411 0.976303,-0.976303 6.1999232,2.664388 11.6672632,8.1317282 5.467339,5.467339 9.10803,10.690959 8.131727,11.667262 -0.678822,0.678822 -3.408387,-0.90127 -6.850097,-3.756505 l -3.645983,3.645984 c 4.313791,3.363582 9.17669,4.258338 11.556741,1.878288 z"
     id="path5562" />
  <path
     id="path3878"
     d="m 10,8.2218248 -1.4142142,1.414214 0,4.9497482 -4.949747,0 L 2.2218248,16 10,16 10,8.2218248 z"
     style="fill:#000000;fill-opacity:1;stroke:none" />
</svg>
