<?xml version="1.0" encoding="UTF-8" standalone="no"?>
<svg
   xmlns:dc="http://purl.org/dc/elements/1.1/"
   xmlns:cc="http://creativecommons.org/ns#"
   xmlns:rdf="http://www.w3.org/1999/02/22-rdf-syntax-ns#"
   xmlns:svg="http://www.w3.org/2000/svg"
   xmlns="http://www.w3.org/2000/svg"
   xmlns:sodipodi="http://sodipodi.sourceforge.net/DTD/sodipodi-0.dtd"
   xmlns:inkscape="http://www.inkscape.org/namespaces/inkscape"
   version="1.0"
   width="26"
   height="26"
   id="svg2"
   inkscape:version="0.47 r22583"
   sodipodi:docname="02-10-004-02-02-12.svg">
  <defs
     id="defs16">
    <inkscape:perspective
       sodipodi:type="inkscape:persp3d"
       inkscape:vp_x="0 : 23 : 1"
       inkscape:vp_y="0 : 1000 : 0"
       inkscape:vp_z="36 : 23 : 1"
       inkscape:persp3d-origin="18 : 15.333333 : 1"
       id="perspective18" />
  </defs>
  <sodipodi:namedview
     pagecolor="#ffffff"
     bordercolor="#666666"
     borderopacity="1"
     objecttolerance="10"
     gridtolerance="10"
     guidetolerance="10"
     inkscape:pageopacity="0"
     inkscape:pageshadow="2"
     inkscape:window-width="964"
     inkscape:window-height="721"
     id="namedview14"
     showgrid="true"
     inkscape:zoom="16.97187"
     inkscape:cx="13"
     inkscape:cy="13"
     inkscape:window-x="365"
     inkscape:window-y="0"
     inkscape:window-maximized="0"
     inkscape:current-layer="svg2"
     showborder="true">
    <inkscape:grid
       type="xygrid"
       id="grid2824"
       empspacing="5"
       visible="true"
       enabled="true"
       snapvisiblegridlinesonly="true" />
  </sodipodi:namedview>
  <metadata
     id="metadata4">
Valerie Sutton's pixel definition of the
ISWA 2010 symbol ID 04-01-003-01-01-01
transformed by Stephen E Slevinski Jr
using line and fill polygon tracing
<rdf:RDF>
  <cc:Work
     rdf:about="">
    <dc:format>image/svg+xml</dc:format>
    <dc:type
       rdf:resource="http://purl.org/dc/dcmitype/StillImage" />
    <dc:title></dc:title>
  </cc:Work>
</rdf:RDF>
</metadata>
  <path
     style="fill:#000000;fill-opacity:1;stroke:none"
     d="M 14,20 14,12.221825 6.2218248,20 14,20 z m -1.016466,-1.016466 -4.3310292,0 4.3310292,-4.331029 0,4.331029 z"
     id="path3279" />
  <path
     style="fill:#000000;fill-opacity:1;stroke:none"
     d="M 24.606601,24.242641 C 26.559223,22.290019 24.343145,16.908117 19.656854,12.221825 L 13.292893,5.8578638 C 8.9971258,1.5620968 4.0900968,-0.49568923 2.3327378,1.2616698 l -1.414214,1.414214 c -1.73082402,1.730824 -0.51630102,5.855436 2.673748,10.0541742 l 3.579728,-3.5797282 c -2.64763,-3.258107 -4.07815,-5.821345 -3.425049,-6.474446 0.976311,-0.976311 6.1999232,2.664388 11.6672632,8.1317282 5.467339,5.467339 9.108038,10.690951 8.131727,11.667262 -0.678816,0.678815 -3.408406,-0.90125 -6.850097,-3.756505 l -3.646019,3.646019 c 4.313823,3.363551 9.176705,4.258324 11.556776,1.878253 z"
     id="path5562" />
  <path
     style="fill:#ffffff;fill-opacity:1;stroke:none"
     d="m 12.983534,18.983534 0,-4.331029 -4.3310292,4.331029 4.3310292,0 z"
     id="path6281" />
  <path
     id="path4220"
     d="M 10,16 10,8.2218258 2.2218248,16 10,16 z m -1.0164662,-1.016466 -4.331029,0 4.331029,-4.331029 0,4.331029 z"
     style="fill:#000000;fill-opacity:1;stroke:none" />
  <path
     id="path4222"
     d="m 8.9835338,14.983534 0,-4.331029 -4.331029,4.331029 4.331029,0 z"
     style="fill:#ffffff;fill-opacity:1;stroke:none" />
</svg>
