<?xml version="1.0" encoding="UTF-8" standalone="no"?>
<svg
   xmlns:dc="http://purl.org/dc/elements/1.1/"
   xmlns:cc="http://creativecommons.org/ns#"
   xmlns:rdf="http://www.w3.org/1999/02/22-rdf-syntax-ns#"
   xmlns:svg="http://www.w3.org/2000/svg"
   xmlns="http://www.w3.org/2000/svg"
   xmlns:sodipodi="http://sodipodi.sourceforge.net/DTD/sodipodi-0.dtd"
   xmlns:inkscape="http://www.inkscape.org/namespaces/inkscape"
   version="1.0"
   width="26"
   height="26"
   id="svg2"
   inkscape:version="0.47 r22583"
   sodipodi:docname="02-10-004-02-03-04.svg">
  <defs
     id="defs16">
    <inkscape:perspective
       sodipodi:type="inkscape:persp3d"
       inkscape:vp_x="0 : 23 : 1"
       inkscape:vp_y="0 : 1000 : 0"
       inkscape:vp_z="36 : 23 : 1"
       inkscape:persp3d-origin="18 : 15.333333 : 1"
       id="perspective18" />
  </defs>
  <sodipodi:namedview
     pagecolor="#ffffff"
     bordercolor="#666666"
     borderopacity="1"
     objecttolerance="10"
     gridtolerance="10"
     guidetolerance="10"
     inkscape:pageopacity="0"
     inkscape:pageshadow="2"
     inkscape:window-width="964"
     inkscape:window-height="721"
     id="namedview14"
     showgrid="true"
     inkscape:zoom="16.97187"
     inkscape:cx="13"
     inkscape:cy="13"
     inkscape:window-x="365"
     inkscape:window-y="0"
     inkscape:window-maximized="0"
     inkscape:current-layer="svg2"
     showborder="true">
    <inkscape:grid
       type="xygrid"
       id="grid2824"
       empspacing="5"
       visible="true"
       enabled="true"
       snapvisiblegridlinesonly="true" />
  </sodipodi:namedview>
  <metadata
     id="metadata4">
Valerie Sutton's pixel definition of the
ISWA 2010 symbol ID 04-01-003-01-01-01
transformed by Stephen E Slevinski Jr
using line and fill polygon tracing
<rdf:RDF>
  <cc:Work
     rdf:about="">
    <dc:format>image/svg+xml</dc:format>
    <dc:type
       rdf:resource="http://purl.org/dc/dcmitype/StillImage" />
    <dc:title></dc:title>
  </cc:Work>
</rdf:RDF>
</metadata>
  <path
     style="fill:#000000;fill-opacity:1;stroke:none"
     d="m 12,12.221825 1.414213,1.414214 0,4.949747 4.949748,0 L 19.778175,20 12,20 12,12.221825 z"
     id="path3279" />
  <path
     style="fill:#000000;fill-opacity:1;stroke:none"
     d="M 1.3933983,24.242641 C -0.55920634,22.290036 1.6568543,16.908117 6.3431458,12.221825 L 12.707107,5.8578638 c 4.295767,-4.295767 9.202783,-6.35356598 10.960155,-4.596194 l 1.414214,1.414214 c 1.730856,1.730856 0.516302,5.855437 -2.673783,10.0541392 L 18.827965,9.1502948 c 2.647681,-3.258056 4.078167,-5.821328 3.425084,-6.474411 -0.976303,-0.976303 -6.199923,2.664388 -11.667263,8.1317282 -5.4673392,5.467339 -9.1080298,10.690959 -8.1317275,11.667262 0.6788225,0.678822 3.4083869,-0.90127 6.850097,-3.756505 l 3.6459835,3.645984 C 8.6363476,25.727935 3.7734491,26.622691 1.3933983,24.242641 z"
     id="path5562" />
  <path
     id="path3878"
     d="m 16,8.2218248 1.414214,1.414214 0,4.9497482 4.949747,0 L 23.778175,16 16,16 16,8.2218248 z"
     style="fill:#000000;fill-opacity:1;stroke:none" />
</svg>
