<?xml version="1.0" encoding="UTF-8" standalone="no"?>
<svg
   xmlns:dc="http://purl.org/dc/elements/1.1/"
   xmlns:cc="http://creativecommons.org/ns#"
   xmlns:rdf="http://www.w3.org/1999/02/22-rdf-syntax-ns#"
   xmlns:svg="http://www.w3.org/2000/svg"
   xmlns="http://www.w3.org/2000/svg"
   xmlns:sodipodi="http://sodipodi.sourceforge.net/DTD/sodipodi-0.dtd"
   xmlns:inkscape="http://www.inkscape.org/namespaces/inkscape"
   version="1.0"
   width="12"
   height="30"
   id="svg2"
   inkscape:version="0.47 r22583"
   sodipodi:docname="02-06-006-01-02-01.svg">
  <defs
     id="defs16">
    <inkscape:perspective
       sodipodi:type="inkscape:persp3d"
       inkscape:vp_x="0 : 23 : 1"
       inkscape:vp_y="0 : 1000 : 0"
       inkscape:vp_z="36 : 23 : 1"
       inkscape:persp3d-origin="18 : 15.333333 : 1"
       id="perspective18" />
  </defs>
  <sodipodi:namedview
     pagecolor="#ffffff"
     bordercolor="#666666"
     borderopacity="1"
     objecttolerance="10"
     gridtolerance="10"
     guidetolerance="10"
     inkscape:pageopacity="0"
     inkscape:pageshadow="2"
     inkscape:window-width="964"
     inkscape:window-height="721"
     id="namedview14"
     showgrid="true"
     inkscape:zoom="15.766667"
     inkscape:cx="6"
     inkscape:cy="15"
     inkscape:window-x="365"
     inkscape:window-y="0"
     inkscape:window-maximized="0"
     inkscape:current-layer="svg2"
     showborder="true">
    <inkscape:grid
       type="xygrid"
       id="grid2824"
       empspacing="5"
       visible="true"
       enabled="true"
       snapvisiblegridlinesonly="true" />
  </sodipodi:namedview>
  <metadata
     id="metadata4">
Valerie Sutton's pixel definition of the
ISWA 2010 symbol ID 04-01-003-01-01-01
transformed by Stephen E Slevinski Jr
using line and fill polygon tracing
<rdf:RDF>
  <cc:Work
     rdf:about="">
    <dc:format>image/svg+xml</dc:format>
    <dc:type
       rdf:resource="http://purl.org/dc/dcmitype/StillImage" />
    <dc:title></dc:title>
  </cc:Work>
</rdf:RDF>
</metadata>
  <path
     style="fill:#000000;fill-opacity:1;stroke:none"
     d="M 2.9375,4.0625 1.875,5.125 5.40625,8.59375 C 5.7681788,8.955679 6,9.447715 6,10 6,10.552284 5.7681788,11.044321 5.40625,11.40625 l -3.0625,2.9375 C 0.896035,15.791465 0,17.790861 0,20 c 0,2.209139 0.896035,4.208535 2.34375,5.65625 L 6.75,30 7.8125,28.9375 3.40625,24.59375 C 2.229981,23.417481 1.5,21.794925 1.5,20 c 0,-1.794925 0.729981,-3.417481 1.90625,-4.59375 l 3.0625,-2.9375 C 7.1021254,11.835375 7.5,10.966499 7.5,10 7.5,9.033501 7.1021254,8.164625 6.46875,7.53125 L 2.9375,4.0625 z"
     id="path2887" />
  <path
     style="fill:#ffffff;fill-opacity:1;stroke:none"
     d="m 5.0625,1.9375 -2.125,2.125 3.53125,3.46875 C 7.1021254,8.164625 7.5,9.033501 7.5,10 c 0,0.966499 -0.3978746,1.835375 -1.03125,2.46875 l -3.0625,2.9375 C 2.229981,16.582519 1.5,18.205075 1.5,20 c 0,1.794925 0.729981,3.417481 1.90625,4.59375 L 7.8125,28.9375 9.9375,26.8125 5.53125,22.46875 C 4.8978746,21.835375 4.5,20.966499 4.5,20 c 0,-0.966499 0.3978746,-1.835375 1.03125,-2.46875 l 3.0625,-2.9375 C 9.770019,13.417481 10.5,11.794925 10.5,10 10.5,8.205075 9.770019,6.5825186 8.59375,5.40625 L 5.0625,1.9375 z"
     id="path2889" />
  <path
     style="fill:#000000;fill-opacity:1;stroke:none"
     d="M 6.125,0.875 5.0625,1.9375 8.59375,5.40625 C 9.770019,6.5825186 10.5,8.205075 10.5,10 c 0,1.794925 -0.729981,3.417481 -1.90625,4.59375 l -3.0625,2.9375 C 4.8978746,18.164625 4.5,19.033501 4.5,20 c 0,0.966499 0.3978746,1.835375 1.03125,2.46875 L 9.9375,26.8125 11,25.75 6.59375,21.40625 C 6.2318212,21.044321 6,20.552284 6,20 6,19.447715 6.2318212,18.955679 6.59375,18.59375 l 3.0625,-2.9375 C 11.103965,14.208535 12,12.209139 12,10 12,7.790861 11.103965,5.7914652 9.65625,4.34375 L 6.125,0.875 z"
     id="path2891" />
</svg>
