<?xml version="1.0" encoding="UTF-8" standalone="no"?>
<svg
   xmlns:dc="http://purl.org/dc/elements/1.1/"
   xmlns:cc="http://creativecommons.org/ns#"
   xmlns:rdf="http://www.w3.org/1999/02/22-rdf-syntax-ns#"
   xmlns:svg="http://www.w3.org/2000/svg"
   xmlns="http://www.w3.org/2000/svg"
   xmlns:sodipodi="http://sodipodi.sourceforge.net/DTD/sodipodi-0.dtd"
   xmlns:inkscape="http://www.inkscape.org/namespaces/inkscape"
   version="1.0"
   width="13"
   height="32"
   id="svg2"
   inkscape:version="0.47 r22583"
   sodipodi:docname="02-06-006-01-01-01.svg">
  <defs
     id="defs16">
    <inkscape:perspective
       sodipodi:type="inkscape:persp3d"
       inkscape:vp_x="0 : 23 : 1"
       inkscape:vp_y="0 : 1000 : 0"
       inkscape:vp_z="36 : 23 : 1"
       inkscape:persp3d-origin="18 : 15.333333 : 1"
       id="perspective18" />
  </defs>
  <sodipodi:namedview
     pagecolor="#ffffff"
     bordercolor="#666666"
     borderopacity="1"
     objecttolerance="10"
     gridtolerance="10"
     guidetolerance="10"
     inkscape:pageopacity="0"
     inkscape:pageshadow="2"
     inkscape:window-width="964"
     inkscape:window-height="721"
     id="namedview14"
     showgrid="true"
     inkscape:zoom="14.78125"
     inkscape:cx="6.5"
     inkscape:cy="16"
     inkscape:window-x="365"
     inkscape:window-y="0"
     inkscape:window-maximized="0"
     inkscape:current-layer="svg2"
     showborder="true">
    <inkscape:grid
       type="xygrid"
       id="grid2824"
       empspacing="5"
       visible="true"
       enabled="true"
       snapvisiblegridlinesonly="true" />
  </sodipodi:namedview>
  <metadata
     id="metadata4">
Valerie Sutton's pixel definition of the
ISWA 2010 symbol ID 04-01-003-01-01-01
transformed by Stephen E Slevinski Jr
using line and fill polygon tracing
<rdf:RDF>
  <cc:Work
     rdf:about="">
    <dc:format>image/svg+xml</dc:format>
    <dc:type
       rdf:resource="http://purl.org/dc/dcmitype/StillImage" />
    <dc:title></dc:title>
  </cc:Work>
</rdf:RDF>
</metadata>
  <path
     style="fill:#000000;fill-opacity:1;stroke:none"
     d="M 0 0 L 0 10 L 2 8 L 2 2 L 8 2 L 10 0 L 0 0 z "
     id="path3273" />
  <path
     style="fill:#000000;fill-opacity:1;stroke:none"
     d="M 3.9375 6.0625 L 2.875 7.125 L 6.40625 10.59375 C 6.7681788 10.955679 7 11.447715 7 12 C 7 12.552284 6.7681788 13.044321 6.40625 13.40625 L 3.34375 16.34375 C 1.896035 17.791465 1 19.790861 1 22 C 1 24.209139 1.896035 26.208535 3.34375 27.65625 L 7.75 32 L 8.8125 30.9375 L 4.40625 26.59375 C 3.229981 25.417481 2.5 23.794925 2.5 22 C 2.5 20.205075 3.229981 18.582519 4.40625 17.40625 L 7.46875 14.46875 C 8.1021254 13.835375 8.5 12.966499 8.5 12 C 8.5 11.033501 8.1021254 10.164625 7.46875 9.53125 L 3.9375 6.0625 z "
     id="path2887" />
  <path
     style="fill:#ffffff;fill-opacity:1;stroke:none"
     d="M 6.0625 3.9375 L 3.9375 6.0625 L 7.46875 9.53125 C 8.1021254 10.164625 8.5 11.033501 8.5 12 C 8.5 12.966499 8.1021254 13.835375 7.46875 14.46875 L 4.40625 17.40625 C 3.229981 18.582519 2.5 20.205075 2.5 22 C 2.5 23.794925 3.229981 25.417481 4.40625 26.59375 L 8.8125 30.9375 L 10.9375 28.8125 L 6.53125 24.46875 C 5.8978746 23.835375 5.5 22.966499 5.5 22 C 5.5 21.033501 5.8978746 20.164625 6.53125 19.53125 L 9.59375 16.59375 C 10.770019 15.417481 11.5 13.794925 11.5 12 C 11.5 10.205075 10.770019 8.5825186 9.59375 7.40625 L 6.0625 3.9375 z "
     id="path2889" />
  <path
     style="fill:#000000;fill-opacity:1;stroke:none"
     d="M 7.125 2.875 L 6.0625 3.9375 L 9.59375 7.40625 C 10.770019 8.5825186 11.5 10.205075 11.5 12 C 11.5 13.794925 10.770019 15.417481 9.59375 16.59375 L 6.53125 19.53125 C 5.8978746 20.164625 5.5 21.033501 5.5 22 C 5.5 22.966499 5.8978746 23.835375 6.53125 24.46875 L 10.9375 28.8125 L 12 27.75 L 7.59375 23.40625 C 7.2318212 23.044321 7 22.552284 7 22 C 7 21.447715 7.2318212 20.955679 7.59375 20.59375 L 10.65625 17.65625 C 12.103965 16.208535 13 14.209139 13 12 C 13 9.790861 12.103965 7.7914652 10.65625 6.34375 L 7.125 2.875 z "
     id="path2891" />
</svg>
