<?xml version="1.0" encoding="UTF-8" standalone="no"?>
<svg
   xmlns:dc="http://purl.org/dc/elements/1.1/"
   xmlns:cc="http://creativecommons.org/ns#"
   xmlns:rdf="http://www.w3.org/1999/02/22-rdf-syntax-ns#"
   xmlns:svg="http://www.w3.org/2000/svg"
   xmlns="http://www.w3.org/2000/svg"
   xmlns:sodipodi="http://sodipodi.sourceforge.net/DTD/sodipodi-0.dtd"
   xmlns:inkscape="http://www.inkscape.org/namespaces/inkscape"
   version="1.0"
   width="43"
   height="19"
   id="svg2"
   inkscape:version="0.47 r22583"
   sodipodi:docname="06-01-004-01-01-04.svg">
  <defs
     id="defs14">
    <inkscape:perspective
       sodipodi:type="inkscape:persp3d"
       inkscape:vp_x="0 : 5.5 : 1"
       inkscape:vp_y="0 : 1000 : 0"
       inkscape:vp_z="10 : 5.5 : 1"
       inkscape:persp3d-origin="5 : 3.6666667 : 1"
       id="perspective16" />
  </defs>
  <sodipodi:namedview
     pagecolor="#ffffff"
     bordercolor="#666666"
     borderopacity="1"
     objecttolerance="10"
     gridtolerance="10"
     guidetolerance="10"
     inkscape:pageopacity="0"
     inkscape:pageshadow="2"
     inkscape:window-width="917"
     inkscape:window-height="792"
     id="namedview12"
     showgrid="true"
     inkscape:zoom="16.516029"
     inkscape:cx="21.50251"
     inkscape:cy="9.5011092"
     inkscape:window-x="313"
     inkscape:window-y="0"
     inkscape:window-maximized="0"
     inkscape:current-layer="svg2"
     showborder="true"
     inkscape:showpageshadow="true"
     inkscape:snap-center="false">
    <inkscape:grid
       type="xygrid"
       id="grid2822"
       empspacing="5"
       visible="true"
       enabled="true"
       snapvisiblegridlinesonly="true" />
  </sodipodi:namedview>
  <metadata
     id="metadata4">
Valerie Sutton's pixel definition of the
ISWA 2010 symbol ID 02-01-001-01-01-01
transformed by Stephen E Slevinski Jr
using line and fill polygon tracing
<rdf:RDF>
  <cc:Work
     rdf:about="">
    <dc:format>image/svg+xml</dc:format>
    <dc:type
       rdf:resource="http://purl.org/dc/dcmitype/StillImage" />
    <dc:title></dc:title>
  </cc:Work>
</rdf:RDF>
</metadata>
  <path
     style="fill:#000000;fill-opacity:1;stroke:none"
     d="m 0,11 43,0 0,2 -43,0 0,-2 z"
     id="rect2814" />
  <path
     style="fill:#000000;fill-opacity:1;stroke:none"
     d="M 20 0 L 20 3.15625 C 16.966894 3.818291 14.587792 6.436289 14.09375 9.71875 C 12.963618 8.095772 10.887336 7 8.5 7 C 5.9747863 7 3.7949602 8.2200091 2.71875 10 L 6.25 10 C 6.8884041 9.676527 7.6715729 9.5 8.5 9.5 C 9.3284271 9.5 10.111596 9.676527 10.75 10 L 32.25 10 C 32.888404 9.676527 33.671573 9.5 34.5 9.5 C 35.328427 9.5 36.111596 9.676527 36.75 10 L 40.28125 10 C 39.20504 8.2200091 37.025214 7 34.5 7 C 32.112664 7 30.036382 8.095772 28.90625 9.71875 C 28.412208 6.436289 26.033106 3.818291 23 3.15625 L 23 0 L 20 0 z M 2.25 14 C 3.0274116 16.300914 5.5310847 18 8.5 18 C 11.351037 18 13.779952 16.442168 14.65625 14.28125 C 15.828922 17.067725 18.451026 19 21.5 19 C 24.548974 19 27.171078 17.067725 28.34375 14.28125 C 29.220048 16.442168 31.648963 18 34.5 18 C 37.468915 18 39.972588 16.300914 40.75 14 L 37.9375 14 C 37.244449 14.892504 35.976373 15.5 34.5 15.5 C 33.023627 15.5 31.755551 14.892504 31.0625 14 L 11.9375 14 C 11.244449 14.892504 9.9763732 15.5 8.5 15.5 C 7.0236268 15.5 5.7555512 14.892504 5.0625 14 L 2.25 14 z "
     id="rect2816" />
</svg>
