<?xml version="1.0" encoding="UTF-8" standalone="no"?>
<svg
   xmlns:dc="http://purl.org/dc/elements/1.1/"
   xmlns:cc="http://creativecommons.org/ns#"
   xmlns:rdf="http://www.w3.org/1999/02/22-rdf-syntax-ns#"
   xmlns:svg="http://www.w3.org/2000/svg"
   xmlns="http://www.w3.org/2000/svg"
   xmlns:sodipodi="http://sodipodi.sourceforge.net/DTD/sodipodi-0.dtd"
   xmlns:inkscape="http://www.inkscape.org/namespaces/inkscape"
   version="1.0"
   width="36"
   height="15"
   id="svg2"
   inkscape:version="0.47 r22583"
   sodipodi:docname="02-01-003-01-02-01.svg">
  <defs
     id="defs14">
    <inkscape:perspective
       sodipodi:type="inkscape:persp3d"
       inkscape:vp_x="0 : 5.5 : 1"
       inkscape:vp_y="0 : 1000 : 0"
       inkscape:vp_z="10 : 5.5 : 1"
       inkscape:persp3d-origin="5 : 3.6666667 : 1"
       id="perspective16" />
  </defs>
  <sodipodi:namedview
     pagecolor="#ffffff"
     bordercolor="#666666"
     borderopacity="1"
     objecttolerance="10"
     gridtolerance="10"
     guidetolerance="10"
     inkscape:pageopacity="0"
     inkscape:pageshadow="2"
     inkscape:window-width="917"
     inkscape:window-height="792"
     id="namedview12"
     showgrid="true"
     inkscape:zoom="14.15411"
     inkscape:cx="15.34316"
     inkscape:cy="6.4619718"
     inkscape:window-x="313"
     inkscape:window-y="0"
     inkscape:window-maximized="0"
     inkscape:current-layer="svg2">
    <inkscape:grid
       type="xygrid"
       id="grid2822" />
  </sodipodi:namedview>
  <metadata
     id="metadata4">
Valerie Sutton's pixel definition of the
ISWA 2010 symbol ID 02-01-001-01-01-01
transformed by Stephen E Slevinski Jr
using line and fill polygon tracing
<rdf:RDF>
  <cc:Work
     rdf:about="">
    <dc:format>image/svg+xml</dc:format>
    <dc:type
       rdf:resource="http://purl.org/dc/dcmitype/StillImage" />
    <dc:title />
  </cc:Work>
</rdf:RDF>
</metadata>
  <path
     style="fill:#000000;fill-opacity:1;stroke:none"
     d="m 8.75,2 0,4.1875 L 5.125,4.09375 4.375,5.40625 8,7.5 4.375,9.59375 5.125,10.90625 8.75,8.8125 8.75,13 l 1.5,0 0,-4.1875 3.625,2.09375 0.75,-1.3125 L 11,7.5 14.625,5.40625 13.875,4.09375 10.25,6.1875 10.25,2 8.75,2 z"
     id="rect2824" />
  <path
     style="fill:#000000;fill-opacity:1;stroke:none"
     d="m 0.25,0 0,15 1.5,0 0,-15 -1.5,0 z"
     id="rect3045" />
  <path
     style="fill:#000000;fill-opacity:1;stroke:none"
     d="m 17.25,0 0,15 1.5,0 0,-15 -1.5,0 z"
     id="rect3047" />
  <path
     id="path2815"
     d="m 25.75,2 0,4.1875 -3.625,-2.09375 -0.75,1.3125 L 25,7.5 l -3.625,2.09375 0.75,1.3125 3.625,-2.09375 0,4.1875 1.5,0 0,-4.1875 3.625,2.09375 0.75,-1.3125 L 28,7.5 31.625,5.40625 30.875,4.09375 27.25,6.1875 27.25,2 25.75,2 z"
     style="fill:#000000;fill-opacity:1;stroke:none" />
  <path
     id="path2817"
     d="m 34.25,0 0,15 1.5,0 0,-15 -1.5,0 z"
     style="fill:#000000;fill-opacity:1;stroke:none" />
</svg>
