<?xml version="1.0" encoding="UTF-8" standalone="no"?>
<svg
   xmlns:dc="http://purl.org/dc/elements/1.1/"
   xmlns:cc="http://creativecommons.org/ns#"
   xmlns:rdf="http://www.w3.org/1999/02/22-rdf-syntax-ns#"
   xmlns:svg="http://www.w3.org/2000/svg"
   xmlns="http://www.w3.org/2000/svg"
   xmlns:sodipodi="http://sodipodi.sourceforge.net/DTD/sodipodi-0.dtd"
   xmlns:inkscape="http://www.inkscape.org/namespaces/inkscape"
   version="1.0"
   width="25"
   height="37"
   id="svg2"
   inkscape:version="0.47 r22583"
   sodipodi:docname="02-09-007-01-03-14.svg">
  <defs
     id="defs16">
    <inkscape:perspective
       sodipodi:type="inkscape:persp3d"
       inkscape:vp_x="0 : 23 : 1"
       inkscape:vp_y="0 : 1000 : 0"
       inkscape:vp_z="36 : 23 : 1"
       inkscape:persp3d-origin="18 : 15.333333 : 1"
       id="perspective18" />
  </defs>
  <sodipodi:namedview
     pagecolor="#ffffff"
     bordercolor="#666666"
     borderopacity="1"
     objecttolerance="10"
     gridtolerance="10"
     guidetolerance="10"
     inkscape:pageopacity="0"
     inkscape:pageshadow="2"
     inkscape:window-width="964"
     inkscape:window-height="721"
     id="namedview14"
     showgrid="true"
     inkscape:zoom="12.783784"
     inkscape:cx="12.5"
     inkscape:cy="18.5"
     inkscape:window-x="365"
     inkscape:window-y="0"
     inkscape:window-maximized="0"
     inkscape:current-layer="svg2"
     showborder="true">
    <inkscape:grid
       type="xygrid"
       id="grid2824"
       empspacing="5"
       visible="true"
       enabled="true"
       snapvisiblegridlinesonly="true" />
  </sodipodi:namedview>
  <metadata
     id="metadata4">
Valerie Sutton's pixel definition of the
ISWA 2010 symbol ID 04-01-003-01-01-01
transformed by Stephen E Slevinski Jr
using line and fill polygon tracing
<rdf:RDF>
  <cc:Work
     rdf:about="">
    <dc:format>image/svg+xml</dc:format>
    <dc:type
       rdf:resource="http://purl.org/dc/dcmitype/StillImage" />
    <dc:title></dc:title>
  </cc:Work>
</rdf:RDF>
</metadata>
  <path
     style="fill:#000000;fill-opacity:1;stroke:none"
     d="m 12,0 -1,0 0,37 1,0 0,-37 z"
     id="rect3166" />
  <path
     style="fill:#ffffff;fill-opacity:1;stroke:none"
     d="m 15,0 -3,0 0,37 3,0 0,-37 z"
     id="rect3168" />
  <path
     style="fill:#000000;fill-opacity:1;stroke:none"
     d="m 16,0 -1,0 0,37 1,0 0,-37 z"
     id="rect3170" />
  <path
     style="fill:#000000;fill-opacity:1;stroke:none"
     d="m 6,6 0,5 c 0,1.656854 1.343146,3 3,3 l 12,0 0,3 -11,0 C 7.238576,17 5,14.761424 5,12 L 5,6 6,6 z"
     id="path3476" />
  <path
     style="fill:#000000;fill-opacity:1;stroke:none"
     d="M 19 24 L 19 35 L 24.5 29.5 L 19 24 z M 20 26.4375 L 23.0625 29.5 L 20 32.5625 L 20 26.4375 z "
     id="path3225" />
  <path
     style="fill:#000000;fill-opacity:1;stroke:none"
     d="m 10,19 0,1 c -1.656854,0 -3,1.343146 -3,3 l 0,2 c 0,1.656854 1.343146,3 3,3 l 9,0 0,3 -9,0 C 7.238576,31 5,28.761424 5,26 l 0,-2 c 0,-2.761424 2.238576,-5 5,-5 z"
     id="path3227" />
  <path
     style="fill:#ffffff;fill-opacity:1;stroke:none"
     d="M 20 26.4375 L 20 32.5625 L 23.0625 29.5 L 20 26.4375 z "
     id="path3744" />
  <path
     id="path3757"
     d="M 0,6 11,6 5.5,0.5 0,6 z M 2.4375,5 5.5,1.9375 8.5625,5 2.4375,5 z"
     style="fill:#000000;fill-opacity:1;stroke:none" />
  <path
     id="path3759"
     d="M 2.4375,5 8.5625,5 5.5,1.9375 2.4375,5 z"
     style="fill:#ffffff;fill-opacity:1;stroke:none" />
</svg>
