<?xml version="1.0" encoding="UTF-8" standalone="no"?>
<svg
   xmlns:dc="http://purl.org/dc/elements/1.1/"
   xmlns:cc="http://creativecommons.org/ns#"
   xmlns:rdf="http://www.w3.org/1999/02/22-rdf-syntax-ns#"
   xmlns:svg="http://www.w3.org/2000/svg"
   xmlns="http://www.w3.org/2000/svg"
   xmlns:sodipodi="http://sodipodi.sourceforge.net/DTD/sodipodi-0.dtd"
   xmlns:inkscape="http://www.inkscape.org/namespaces/inkscape"
   version="1.0"
   width="23"
   height="29"
   id="svg2"
   inkscape:version="0.47 r22583"
   sodipodi:docname="02-09-007-01-02-01.svg">
  <defs
     id="defs16">
    <inkscape:perspective
       sodipodi:type="inkscape:persp3d"
       inkscape:vp_x="0 : 23 : 1"
       inkscape:vp_y="0 : 1000 : 0"
       inkscape:vp_z="36 : 23 : 1"
       inkscape:persp3d-origin="18 : 15.333333 : 1"
       id="perspective18" />
  </defs>
  <sodipodi:namedview
     pagecolor="#ffffff"
     bordercolor="#666666"
     borderopacity="1"
     objecttolerance="10"
     gridtolerance="10"
     guidetolerance="10"
     inkscape:pageopacity="0"
     inkscape:pageshadow="2"
     inkscape:window-width="964"
     inkscape:window-height="721"
     id="namedview14"
     showgrid="true"
     inkscape:zoom="16.310345"
     inkscape:cx="11.5"
     inkscape:cy="14.5"
     inkscape:window-x="365"
     inkscape:window-y="0"
     inkscape:window-maximized="0"
     inkscape:current-layer="svg2"
     showborder="true">
    <inkscape:grid
       type="xygrid"
       id="grid2824"
       empspacing="5"
       visible="true"
       enabled="true"
       snapvisiblegridlinesonly="true" />
  </sodipodi:namedview>
  <metadata
     id="metadata4">
Valerie Sutton's pixel definition of the
ISWA 2010 symbol ID 04-01-003-01-01-01
transformed by Stephen E Slevinski Jr
using line and fill polygon tracing
<rdf:RDF>
  <cc:Work
     rdf:about="">
    <dc:format>image/svg+xml</dc:format>
    <dc:type
       rdf:resource="http://purl.org/dc/dcmitype/StillImage" />
    <dc:title></dc:title>
  </cc:Work>
</rdf:RDF>
</metadata>
  <path
     style="fill:#000000;fill-opacity:1;stroke:none"
     d="m 23,8 0,8 -8,0 8,-8 z M 22,10.4375 17.4375,15 22,15 22,10.4375 z"
     id="path2814" />
  <path
     style="fill:#000000;fill-opacity:1;stroke:none"
     d="m 11.5,7 c 2.623352,0 4.999588,1.0620881 6.71875,2.78125 l 1.46875,1.53125 -1.375,1.375 -1.5,-1.5 C 15.455267,9.830267 13.571068,9 11.5,9 9.428932,9 7.544733,9.830267 6.1875,11.1875 L 3.40625,14 2,12.59375 4.78125,9.78125 C 6.500412,8.0620881 8.876648,7 11.5,7 z"
     id="rect2824" />
  <path
     style="fill:#000000;fill-opacity:1;stroke:none"
     d="m 14,0 -1,0 0,29 1,0 0,-29 z"
     id="rect2823" />
  <path
     id="path4143"
     d="m 0,19 0,8 8,0 -8,-8 z M 1,21.4375 5.5625,26 1,26 1,21.4375 z"
     style="fill:#000000;fill-opacity:1;stroke:none" />
  <path
     style="fill:#000000;fill-opacity:1;stroke:none"
     d="M 10,0 9,0 9,29 10,29 10,0 z"
     id="rect2825" />
  <path
     id="path4145"
     d="m 11.5,18 c -2.623352,0 -4.999588,1.062088 -6.71875,2.78125 l -1.46875,1.53125 1.375,1.375 1.5,-1.5 C 7.544733,20.830267 9.428932,20 11.5,20 c 2.071068,0 3.955267,0.830267 5.3125,2.1875 L 19.59375,25 21,23.59375 18.21875,20.78125 C 16.499588,19.062088 14.123352,18 11.5,18 z"
     style="fill:#000000;fill-opacity:1;stroke:none" />
  <path
     style="fill:#ffffff;fill-opacity:1;stroke:none"
     d="m 13,0 -3,0 0,29 3,0 0,-29 z"
     id="rect2827" />
  <path
     style="fill:#ffffff;fill-opacity:1;stroke:none"
     d="M 22,10.4375 22,15 17.4375,15 22,10.4375 z"
     id="path4130" />
  <path
     id="path4147"
     d="M 1,21.4375 1,26 5.5625,26 1,21.4375 z"
     style="fill:#ffffff;fill-opacity:1;stroke:none" />
</svg>
