<?xml version="1.0" encoding="UTF-8" standalone="no"?>
<svg
   xmlns:dc="http://purl.org/dc/elements/1.1/"
   xmlns:cc="http://creativecommons.org/ns#"
   xmlns:rdf="http://www.w3.org/1999/02/22-rdf-syntax-ns#"
   xmlns:svg="http://www.w3.org/2000/svg"
   xmlns="http://www.w3.org/2000/svg"
   xmlns:sodipodi="http://sodipodi.sourceforge.net/DTD/sodipodi-0.dtd"
   xmlns:inkscape="http://www.inkscape.org/namespaces/inkscape"
   version="1.0"
   width="19"
   height="45"
   id="svg2"
   inkscape:version="0.47 r22583"
   sodipodi:docname="02-09-007-01-03-03.svg">
  <defs
     id="defs16">
    <inkscape:perspective
       sodipodi:type="inkscape:persp3d"
       inkscape:vp_x="0 : 23 : 1"
       inkscape:vp_y="0 : 1000 : 0"
       inkscape:vp_z="36 : 23 : 1"
       inkscape:persp3d-origin="18 : 15.333333 : 1"
       id="perspective18" />
  </defs>
  <sodipodi:namedview
     pagecolor="#ffffff"
     bordercolor="#666666"
     borderopacity="1"
     objecttolerance="10"
     gridtolerance="10"
     guidetolerance="10"
     inkscape:pageopacity="0"
     inkscape:pageshadow="2"
     inkscape:window-width="964"
     inkscape:window-height="721"
     id="namedview14"
     showgrid="true"
     inkscape:zoom="10.511111"
     inkscape:cx="9.5"
     inkscape:cy="22.5"
     inkscape:window-x="365"
     inkscape:window-y="0"
     inkscape:window-maximized="0"
     inkscape:current-layer="svg2"
     showborder="true">
    <inkscape:grid
       type="xygrid"
       id="grid2824"
       empspacing="5"
       visible="true"
       enabled="true"
       snapvisiblegridlinesonly="true" />
  </sodipodi:namedview>
  <metadata
     id="metadata4">
Valerie Sutton's pixel definition of the
ISWA 2010 symbol ID 04-01-003-01-01-01
transformed by Stephen E Slevinski Jr
using line and fill polygon tracing
<rdf:RDF>
  <cc:Work
     rdf:about="">
    <dc:format>image/svg+xml</dc:format>
    <dc:type
       rdf:resource="http://purl.org/dc/dcmitype/StillImage" />
    <dc:title></dc:title>
  </cc:Work>
</rdf:RDF>
</metadata>
  <path
     style="fill:#000000;fill-opacity:1;stroke:none"
     d="M 5 28 C 2.238576 28 0 30.238576 0 33 L 0 35 C 0 37.761424 2.238576 40 5 40 L 17 40 L 17 37 L 5 37 C 3.343146 37 2 35.656854 2 34 L 2 32 C 2 30.343146 3.343146 29 5 29 L 13 29 L 13 28 L 5 28 z "
     id="path3476" />
  <path
     style="fill:#000000;fill-opacity:1;stroke:none"
     d="M 5 0 L 5 14 L 6 14 L 6 0 L 5 0 z M 5 17 L 5 37 L 6 37 L 6 17 L 5 17 z M 5 40 L 5 45 L 6 45 L 6 40 L 5 40 z "
     id="rect3009" />
  <path
     style="fill:#000000;fill-opacity:1;stroke:none"
     d="M 5 5 C 2.238576 5 0 7.238576 0 10 L 0 12 C 0 14.761424 2.238576 17 5 17 L 13 17 L 13 14 L 5 14 C 3.343146 14 2 12.656854 2 11 L 2 9 C 2 7.343146 3.343146 6 5 6 L 17 6 L 17 5 L 5 5 z "
     id="path3060" />
  <path
     style="fill:#ffffff;fill-opacity:1;stroke:none"
     d="M 6 0 L 6 14 L 9 14 L 9 0 L 6 0 z M 6 17 L 6 37 L 9 37 L 9 17 L 6 17 z M 6 40 L 6 45 L 9 45 L 9 40 L 6 40 z "
     id="rect3011" />
  <path
     style="fill:#000000;fill-opacity:1;stroke:none"
     d="M 13 10 L 13 21 L 18.5 15.5 L 13 10 z M 14 12.4375 L 17.0625 15.5 L 14 18.5625 L 14 12.4375 z "
     id="path3062" />
  <path
     style="fill:#000000;fill-opacity:1;stroke:none"
     d="M 9 0 L 9 14 L 10 14 L 10 0 L 9 0 z M 9 17 L 9 37 L 10 37 L 10 17 L 9 17 z M 9 40 L 9 45 L 10 45 L 10 40 L 9 40 z "
     id="rect3013" />
  <path
     style="fill:#ffffff;fill-opacity:1;stroke:none"
     d="M 14 12.4375 L 14 18.5625 L 17.0625 15.5 L 14 12.4375 z "
     id="path3334" />
  <path
     id="path3347"
     d="M 13,23 13,34 18.5,28.5 13,23 z M 14,25.4375 17.0625,28.5 14,31.5625 l 0,-6.125 z"
     style="fill:#000000;fill-opacity:1;stroke:none" />
  <path
     id="path3349"
     d="m 14,25.4375 0,6.125 L 17.0625,28.5 14,25.4375 z"
     style="fill:#ffffff;fill-opacity:1;stroke:none" />
</svg>
