<?xml version="1.0" encoding="UTF-8" standalone="no"?>
<svg
   xmlns:dc="http://purl.org/dc/elements/1.1/"
   xmlns:cc="http://creativecommons.org/ns#"
   xmlns:rdf="http://www.w3.org/1999/02/22-rdf-syntax-ns#"
   xmlns:svg="http://www.w3.org/2000/svg"
   xmlns="http://www.w3.org/2000/svg"
   xmlns:sodipodi="http://sodipodi.sourceforge.net/DTD/sodipodi-0.dtd"
   xmlns:inkscape="http://www.inkscape.org/namespaces/inkscape"
   version="1.0"
   width="25"
   height="35"
   id="svg2"
   inkscape:version="0.47 r22583"
   sodipodi:docname="02-09-007-01-03-16.svg">
  <defs
     id="defs16">
    <inkscape:perspective
       sodipodi:type="inkscape:persp3d"
       inkscape:vp_x="0 : 23 : 1"
       inkscape:vp_y="0 : 1000 : 0"
       inkscape:vp_z="36 : 23 : 1"
       inkscape:persp3d-origin="18 : 15.333333 : 1"
       id="perspective18" />
  </defs>
  <sodipodi:namedview
     pagecolor="#ffffff"
     bordercolor="#666666"
     borderopacity="1"
     objecttolerance="10"
     gridtolerance="10"
     guidetolerance="10"
     inkscape:pageopacity="0"
     inkscape:pageshadow="2"
     inkscape:window-width="964"
     inkscape:window-height="721"
     id="namedview14"
     showgrid="true"
     inkscape:zoom="13.514286"
     inkscape:cx="12.5"
     inkscape:cy="17.5"
     inkscape:window-x="365"
     inkscape:window-y="0"
     inkscape:window-maximized="0"
     inkscape:current-layer="svg2"
     showborder="true">
    <inkscape:grid
       type="xygrid"
       id="grid2824"
       empspacing="5"
       visible="true"
       enabled="true"
       snapvisiblegridlinesonly="true" />
  </sodipodi:namedview>
  <metadata
     id="metadata4">
Valerie Sutton's pixel definition of the
ISWA 2010 symbol ID 04-01-003-01-01-01
transformed by Stephen E Slevinski Jr
using line and fill polygon tracing
<rdf:RDF>
  <cc:Work
     rdf:about="">
    <dc:format>image/svg+xml</dc:format>
    <dc:type
       rdf:resource="http://purl.org/dc/dcmitype/StillImage" />
    <dc:title></dc:title>
  </cc:Work>
</rdf:RDF>
</metadata>
  <path
     style="fill:#000000;fill-opacity:1;stroke:none"
     d="m 15,6 c 2.761424,0 5,2.238576 5,5 l 0,2 c 0,2.761424 -2.238576,5 -5,5 l 0,-3 c 1.656854,0 3,-1.343146 3,-3 l 0,-2 C 18,8.343146 16.656854,7 15,7 L 6,7 6,6 15,6 z"
     id="path3476" />
  <path
     style="fill:#000000;fill-opacity:1;stroke:none"
     d="M 6,1 0.5,6.5 6,12 6,10 2.5,6.5 6,3 6,1 z"
     id="path3884" />
  <path
     style="fill:#000000;fill-opacity:1;stroke:none"
     d="m 13,0 1,0 0,35 -1,0 0,-35 z"
     id="rect2854" />
  <path
     style="fill:#000000;fill-opacity:1;stroke:none"
     d="m 2,20 0,1 13,0 c 1.656854,0 3,1.343146 3,3 l 0,5 3,0 0,-4 c 0,-2.761424 -2.238576,-5 -5,-5 L 2,20 z"
     id="path2894" />
  <path
     style="fill:#ffffff;fill-opacity:1;stroke:none"
     d="m 10,0 3,0 0,35 -3,0 0,-35 z"
     id="rect2856" />
  <path
     style="fill:#000000;fill-opacity:1;stroke:none"
     d="M 14,29 19.5,34.5 25,29 23,29 19.5,32.5 16,29 14,29 z"
     id="path2896" />
  <path
     style="fill:#000000;fill-opacity:1;stroke:none"
     d="M 9,0 10,0 10,35 9,35 9,0 z"
     id="rect2858" />
</svg>
