<?xml version="1.0" encoding="UTF-8" standalone="no"?>
<svg
   xmlns:dc="http://purl.org/dc/elements/1.1/"
   xmlns:cc="http://creativecommons.org/ns#"
   xmlns:rdf="http://www.w3.org/1999/02/22-rdf-syntax-ns#"
   xmlns:svg="http://www.w3.org/2000/svg"
   xmlns="http://www.w3.org/2000/svg"
   xmlns:sodipodi="http://sodipodi.sourceforge.net/DTD/sodipodi-0.dtd"
   xmlns:inkscape="http://www.inkscape.org/namespaces/inkscape"
   version="1.0"
   width="25"
   height="36"
   id="svg2"
   inkscape:version="0.47 r22583"
   sodipodi:docname="02-09-007-01-03-12.svg">
  <defs
     id="defs16">
    <inkscape:perspective
       sodipodi:type="inkscape:persp3d"
       inkscape:vp_x="0 : 23 : 1"
       inkscape:vp_y="0 : 1000 : 0"
       inkscape:vp_z="36 : 23 : 1"
       inkscape:persp3d-origin="18 : 15.333333 : 1"
       id="perspective18" />
  </defs>
  <sodipodi:namedview
     pagecolor="#ffffff"
     bordercolor="#666666"
     borderopacity="1"
     objecttolerance="10"
     gridtolerance="10"
     guidetolerance="10"
     inkscape:pageopacity="0"
     inkscape:pageshadow="2"
     inkscape:window-width="964"
     inkscape:window-height="721"
     id="namedview14"
     showgrid="true"
     inkscape:zoom="13.138889"
     inkscape:cx="12.5"
     inkscape:cy="18"
     inkscape:window-x="365"
     inkscape:window-y="0"
     inkscape:window-maximized="0"
     inkscape:current-layer="svg2"
     showborder="true">
    <inkscape:grid
       type="xygrid"
       id="grid2824"
       empspacing="5"
       visible="true"
       enabled="true"
       snapvisiblegridlinesonly="true" />
  </sodipodi:namedview>
  <metadata
     id="metadata4">
Valerie Sutton's pixel definition of the
ISWA 2010 symbol ID 04-01-003-01-01-01
transformed by Stephen E Slevinski Jr
using line and fill polygon tracing
<rdf:RDF>
  <cc:Work
     rdf:about="">
    <dc:format>image/svg+xml</dc:format>
    <dc:type
       rdf:resource="http://purl.org/dc/dcmitype/StillImage" />
    <dc:title></dc:title>
  </cc:Work>
</rdf:RDF>
</metadata>
  <path
     style="fill:#000000;fill-opacity:1;stroke:none"
     d="m 12,0 -1,0 0,36 1,0 0,-36 z"
     id="rect3166" />
  <path
     style="fill:#000000;fill-opacity:1;stroke:none"
     d="M 5.5,14.5 11,20 9,20 5.5,16.5 2,20 0,20 5.5,14.5 z"
     id="path3471" />
  <path
     style="fill:#ffffff;fill-opacity:1;stroke:none"
     d="m 15,0 -3,0 0,36 3,0 0,-36 z"
     id="rect3168" />
  <path
     style="fill:#000000;fill-opacity:1;stroke:none"
     d="m 16,0 -1,0 0,36 1,0 0,-36 z"
     id="rect3170" />
  <path
     style="fill:#000000;fill-opacity:1;stroke:none"
     d="m 6,20 0,5 c 0,1.656854 1.343146,3 3,3 l 12,0 0,3 -11,0 C 7.238576,31 5,28.761424 5,26 l 0,-6 1,0 z"
     id="path3476" />
  <path
     style="fill:#000000;fill-opacity:1;stroke:none"
     d="M 19,7 24.5,12.5 19,18 19,16 22.5,12.5 19,9 19,7 z"
     id="path3225" />
  <path
     style="fill:#000000;fill-opacity:1;stroke:none"
     d="m 10,2 0,1 C 8.343146,3 7,4.343146 7,6 l 0,2 c 0,1.656854 1.343146,3 3,3 l 9,0 0,3 -9,0 C 7.238576,14 5,11.761424 5,9 L 5,7 C 5,4.238576 7.238576,2 10,2 z"
     id="path3227" />
</svg>
