<?xml version="1.0" encoding="UTF-8" standalone="no"?>
<svg
   xmlns:dc="http://purl.org/dc/elements/1.1/"
   xmlns:cc="http://creativecommons.org/ns#"
   xmlns:rdf="http://www.w3.org/1999/02/22-rdf-syntax-ns#"
   xmlns:svg="http://www.w3.org/2000/svg"
   xmlns="http://www.w3.org/2000/svg"
   xmlns:sodipodi="http://sodipodi.sourceforge.net/DTD/sodipodi-0.dtd"
   xmlns:inkscape="http://www.inkscape.org/namespaces/inkscape"
   version="1.0"
   width="21"
   height="40"
   id="svg2"
   inkscape:version="0.47 r22583"
   sodipodi:docname="02-09-007-01-03-07.svg">
  <defs
     id="defs16">
    <inkscape:perspective
       sodipodi:type="inkscape:persp3d"
       inkscape:vp_x="0 : 23 : 1"
       inkscape:vp_y="0 : 1000 : 0"
       inkscape:vp_z="36 : 23 : 1"
       inkscape:persp3d-origin="18 : 15.333333 : 1"
       id="perspective18" />
  </defs>
  <sodipodi:namedview
     pagecolor="#ffffff"
     bordercolor="#666666"
     borderopacity="1"
     objecttolerance="10"
     gridtolerance="10"
     guidetolerance="10"
     inkscape:pageopacity="0"
     inkscape:pageshadow="2"
     inkscape:window-width="964"
     inkscape:window-height="721"
     id="namedview14"
     showgrid="true"
     inkscape:zoom="11.825"
     inkscape:cx="10.5"
     inkscape:cy="20"
     inkscape:window-x="365"
     inkscape:window-y="0"
     inkscape:window-maximized="0"
     inkscape:current-layer="svg2"
     showborder="true">
    <inkscape:grid
       type="xygrid"
       id="grid2824"
       empspacing="5"
       visible="true"
       enabled="true"
       snapvisiblegridlinesonly="true" />
  </sodipodi:namedview>
  <metadata
     id="metadata4">
Valerie Sutton's pixel definition of the
ISWA 2010 symbol ID 04-01-003-01-01-01
transformed by Stephen E Slevinski Jr
using line and fill polygon tracing
<rdf:RDF>
  <cc:Work
     rdf:about="">
    <dc:format>image/svg+xml</dc:format>
    <dc:type
       rdf:resource="http://purl.org/dc/dcmitype/StillImage" />
    <dc:title></dc:title>
  </cc:Work>
</rdf:RDF>
</metadata>
  <path
     style="fill:#000000;fill-opacity:1;stroke:none"
     d="M 6 6 L 6 7 L 16 7 C 17.656854 7 19 8.3431458 19 10 L 19 12 C 19 13.656854 17.656854 15 16 15 L 5 15 L 5 18 L 16 18 C 18.761424 18 21 15.761424 21 13 L 21 11 C 21 8.2385763 18.761424 6 16 6 L 6 6 z "
     id="path3476" />
  <path
     style="fill:#000000;fill-opacity:1;stroke:none"
     d="M 6 1 L 0.5 6.5 L 6 12 L 6 1 z M 5 3.4375 L 5 9.5625 L 1.9375 6.5 L 5 3.4375 z "
     id="path3884" />
  <path
     style="fill:#000000;fill-opacity:1;stroke:none"
     d="m 14,0 0,15 1,0 0,-15 -1,0 z m 0,18 0,13 1,0 0,-13 -1,0 z m 0,16 0,6 1,0 0,-6 -1,0 z"
     id="rect3009" />
  <path
     style="fill:#000000;fill-opacity:1;stroke:none"
     d="M 5 22 L 5 23 L 16 23 C 17.656854 23 19 24.343146 19 26 L 19 28 C 19 29.656854 17.656854 31 16 31 L 6 31 L 6 34 L 16 34 C 18.761424 34 21 31.761424 21 29 L 21 27 C 21 24.238576 18.761424 22 16 22 L 5 22 z "
     id="path3060" />
  <path
     style="fill:#ffffff;fill-opacity:1;stroke:none"
     d="m 11,0 0,15 3,0 0,-15 -3,0 z m 0,18 0,13 3,0 0,-13 -3,0 z m 0,16 0,6 3,0 0,-6 -3,0 z"
     id="rect3011" />
  <path
     style="fill:#000000;fill-opacity:1;stroke:none"
     d="m 10,0 0,15 1,0 0,-15 -1,0 z m 0,18 0,13 1,0 0,-13 -1,0 z m 0,16 0,6 1,0 0,-6 -1,0 z"
     id="rect3013" />
  <path
     style="fill:#ffffff;fill-opacity:1;stroke:none"
     d="M 5 3.4375 L 1.9375 6.5 L 5 9.5625 L 5 3.4375 z "
     id="path3441" />
  <path
     id="path3454"
     d="M 6,27 0.5,32.5 6,38 6,27 z M 5,29.4375 5,35.5625 1.9375,32.5 5,29.4375 z"
     style="fill:#000000;fill-opacity:1;stroke:none" />
  <path
     id="path3456"
     d="M 5,29.4375 1.9375,32.5 5,35.5625 5,29.4375 z"
     style="fill:#ffffff;fill-opacity:1;stroke:none" />
</svg>
