<?xml version="1.0" encoding="UTF-8" standalone="no"?>
<svg
   xmlns:dc="http://purl.org/dc/elements/1.1/"
   xmlns:cc="http://creativecommons.org/ns#"
   xmlns:rdf="http://www.w3.org/1999/02/22-rdf-syntax-ns#"
   xmlns:svg="http://www.w3.org/2000/svg"
   xmlns="http://www.w3.org/2000/svg"
   xmlns:sodipodi="http://sodipodi.sourceforge.net/DTD/sodipodi-0.dtd"
   xmlns:inkscape="http://www.inkscape.org/namespaces/inkscape"
   version="1.0"
   width="23"
   height="28"
   id="svg2"
   inkscape:version="0.47 r22583"
   sodipodi:docname="02-09-007-01-02-05.svg">
  <defs
     id="defs16">
    <inkscape:perspective
       sodipodi:type="inkscape:persp3d"
       inkscape:vp_x="0 : 23 : 1"
       inkscape:vp_y="0 : 1000 : 0"
       inkscape:vp_z="36 : 23 : 1"
       inkscape:persp3d-origin="18 : 15.333333 : 1"
       id="perspective18" />
  </defs>
  <sodipodi:namedview
     pagecolor="#ffffff"
     bordercolor="#666666"
     borderopacity="1"
     objecttolerance="10"
     gridtolerance="10"
     guidetolerance="10"
     inkscape:pageopacity="0"
     inkscape:pageshadow="2"
     inkscape:window-width="964"
     inkscape:window-height="721"
     id="namedview14"
     showgrid="true"
     inkscape:zoom="16.892857"
     inkscape:cx="11.5"
     inkscape:cy="14"
     inkscape:window-x="365"
     inkscape:window-y="0"
     inkscape:window-maximized="0"
     inkscape:current-layer="svg2"
     showborder="true">
    <inkscape:grid
       type="xygrid"
       id="grid2824"
       empspacing="5"
       visible="true"
       enabled="true"
       snapvisiblegridlinesonly="true" />
  </sodipodi:namedview>
  <metadata
     id="metadata4">
Valerie Sutton's pixel definition of the
ISWA 2010 symbol ID 04-01-003-01-01-01
transformed by Stephen E Slevinski Jr
using line and fill polygon tracing
<rdf:RDF>
  <cc:Work
     rdf:about="">
    <dc:format>image/svg+xml</dc:format>
    <dc:type
       rdf:resource="http://purl.org/dc/dcmitype/StillImage" />
    <dc:title></dc:title>
  </cc:Work>
</rdf:RDF>
</metadata>
  <path
     style="fill:#000000;fill-opacity:1;stroke:none"
     d="M 8,4 0,12 0,4 8,4 z M 5.5625,5 1,5 1,9.5625 5.5625,5 z"
     id="path2814" />
  <path
     style="fill:#000000;fill-opacity:1;stroke:none"
     d="M 10,0 9,0 9,28 10,28 10,0 z"
     id="rect3326" />
  <path
     style="fill:#ffffff;fill-opacity:1;stroke:none"
     d="m 13,0 -3,0 0,28 3,0 0,-28 z"
     id="rect3328" />
  <path
     style="fill:#000000;fill-opacity:1;stroke:none"
     d="m 14,0 -1,0 0,28 1,0 0,-28 z"
     id="rect3330" />
  <path
     style="fill:#000000;fill-opacity:1;stroke:none"
     d="M 19.9375,6 21,7.0625 17.5,10.5 c -1.541313,1.532038 -3.656046,2.5 -6,2.5 -2.348122,0 -4.461904,-0.960445 -6,-2.5 L 3.46875,8.53125 4.53125,7.46875 5.0625,8 c 1.585952,1.584494 4.027948,2 6.4375,2 2.409552,0 4.852146,-0.414909 6.4375,-2 l 2,-2 z"
     id="rect2824" />
  <path
     style="fill:#ffffff;fill-opacity:1;stroke:none"
     d="M 5.5625,5 1,9.5625 1,5 5.5625,5 z"
     id="path3487" />
  <path
     id="path3500"
     d="m 15,15 8,8 0,-8 -8,0 z M 17.4375,16 22,16 22,20.5625 17.4375,16 z"
     style="fill:#000000;fill-opacity:1;stroke:none" />
  <path
     id="path3502"
     d="M 3.0625,17 2,18.0625 5.5,21.5 c 1.541313,1.532038 3.656046,2.5 6,2.5 2.348122,0 4.461904,-0.960445 6,-2.5 l 2.03125,-1.96875 -1.0625,-1.0625 L 17.9375,19 C 16.351548,20.584494 13.909552,21 11.5,21 9.090448,21 6.647854,20.585091 5.0625,19 l -2,-2 z"
     style="fill:#000000;fill-opacity:1;stroke:none" />
  <path
     id="path3504"
     d="M 17.4375,16 22,20.5625 22,16 17.4375,16 z"
     style="fill:#ffffff;fill-opacity:1;stroke:none" />
</svg>
