<?xml version="1.0" encoding="UTF-8" standalone="no"?>
<svg
   xmlns:dc="http://purl.org/dc/elements/1.1/"
   xmlns:cc="http://creativecommons.org/ns#"
   xmlns:rdf="http://www.w3.org/1999/02/22-rdf-syntax-ns#"
   xmlns:svg="http://www.w3.org/2000/svg"
   xmlns="http://www.w3.org/2000/svg"
   xmlns:sodipodi="http://sodipodi.sourceforge.net/DTD/sodipodi-0.dtd"
   xmlns:inkscape="http://www.inkscape.org/namespaces/inkscape"
   version="1.0"
   width="23"
   height="29"
   id="svg2"
   inkscape:version="0.47 r22583"
   sodipodi:docname="02-09-006-01-01-01.svg">
  <defs
     id="defs16">
    <inkscape:perspective
       sodipodi:type="inkscape:persp3d"
       inkscape:vp_x="0 : 23 : 1"
       inkscape:vp_y="0 : 1000 : 0"
       inkscape:vp_z="36 : 23 : 1"
       inkscape:persp3d-origin="18 : 15.333333 : 1"
       id="perspective18" />
  </defs>
  <sodipodi:namedview
     pagecolor="#ffffff"
     bordercolor="#666666"
     borderopacity="1"
     objecttolerance="10"
     gridtolerance="10"
     guidetolerance="10"
     inkscape:pageopacity="0"
     inkscape:pageshadow="2"
     inkscape:window-width="964"
     inkscape:window-height="721"
     id="namedview14"
     showgrid="true"
     inkscape:zoom="16.310345"
     inkscape:cx="11.5"
     inkscape:cy="14.5"
     inkscape:window-x="365"
     inkscape:window-y="0"
     inkscape:window-maximized="0"
     inkscape:current-layer="svg2"
     showborder="true">
    <inkscape:grid
       type="xygrid"
       id="grid2824"
       empspacing="5"
       visible="true"
       enabled="true"
       snapvisiblegridlinesonly="true" />
  </sodipodi:namedview>
  <metadata
     id="metadata4">
Valerie Sutton's pixel definition of the
ISWA 2010 symbol ID 04-01-003-01-01-01
transformed by Stephen E Slevinski Jr
using line and fill polygon tracing
<rdf:RDF>
  <cc:Work
     rdf:about="">
    <dc:format>image/svg+xml</dc:format>
    <dc:type
       rdf:resource="http://purl.org/dc/dcmitype/StillImage" />
    <dc:title></dc:title>
  </cc:Work>
</rdf:RDF>
</metadata>
  <path
     style="fill:#000000;fill-opacity:1;stroke:none"
     d="M 0,8 8,16 0,16 0,8 z"
     id="path2814" />
  <path
     style="fill:#000000;fill-opacity:1;stroke:none"
     d="M 11.5,7 C 8.8766475,7 6.5004119,8.0620881 4.78125,9.78125 l -1.46875,1.53125 1.375,1.375 1.5,-1.5 C 7.5447331,9.830267 9.4289322,9 11.5,9 c 2.071068,0 3.955267,0.830267 5.3125,2.1875 L 19.59375,14 21,12.59375 18.21875,9.78125 C 16.499588,8.0620881 14.123352,7 11.5,7 z"
     id="rect2824" />
  <path
     style="fill:#000000;fill-opacity:1;stroke:none"
     d="M 9,0 10,0 10,29 9,29 9,0 z"
     id="rect2823" />
  <path
     id="path4036"
     d="m 23,19 -8,8 8,0 0,-8 z"
     style="fill:#000000;fill-opacity:1;stroke:none" />
  <path
     style="fill:#000000;fill-opacity:1;stroke:none"
     d="m 13,0 1,0 0,29 -1,0 0,-29 z"
     id="rect2825" />
  <path
     id="path4038"
     d="m 11.5,18 c 2.623352,0 4.999588,1.062088 6.71875,2.78125 l 1.46875,1.53125 -1.375,1.375 -1.5,-1.5 C 15.455267,20.830267 13.571068,20 11.5,20 9.428932,20 7.544733,20.830267 6.1875,22.1875 L 3.40625,25 2,23.59375 4.78125,20.78125 C 6.500412,19.062088 8.876648,18 11.5,18 z"
     style="fill:#000000;fill-opacity:1;stroke:none" />
  <path
     style="fill:#ffffff;fill-opacity:1;stroke:none"
     d="m 10,0 3,0 0,29 -3,0 0,-29 z"
     id="rect2827" />
</svg>
