<?xml version="1.0" encoding="UTF-8" standalone="no"?>
<svg
   xmlns:dc="http://purl.org/dc/elements/1.1/"
   xmlns:cc="http://creativecommons.org/ns#"
   xmlns:rdf="http://www.w3.org/1999/02/22-rdf-syntax-ns#"
   xmlns:svg="http://www.w3.org/2000/svg"
   xmlns="http://www.w3.org/2000/svg"
   xmlns:sodipodi="http://sodipodi.sourceforge.net/DTD/sodipodi-0.dtd"
   xmlns:inkscape="http://www.inkscape.org/namespaces/inkscape"
   version="1.0"
   width="38"
   height="24"
   id="svg2"
   inkscape:version="0.47 r22583"
   sodipodi:docname="02-08-006-01-03-05.svg">
  <defs
     id="defs16">
    <inkscape:perspective
       sodipodi:type="inkscape:persp3d"
       inkscape:vp_x="0 : 23 : 1"
       inkscape:vp_y="0 : 1000 : 0"
       inkscape:vp_z="36 : 23 : 1"
       inkscape:persp3d-origin="18 : 15.333333 : 1"
       id="perspective18" />
  </defs>
  <sodipodi:namedview
     pagecolor="#ffffff"
     bordercolor="#666666"
     borderopacity="1"
     objecttolerance="10"
     gridtolerance="10"
     guidetolerance="10"
     inkscape:pageopacity="0"
     inkscape:pageshadow="2"
     inkscape:window-width="964"
     inkscape:window-height="721"
     id="namedview14"
     showgrid="true"
     inkscape:zoom="16.010846"
     inkscape:cx="19.006262"
     inkscape:cy="12.003955"
     inkscape:window-x="365"
     inkscape:window-y="0"
     inkscape:window-maximized="0"
     inkscape:current-layer="svg2"
     showborder="true">
    <inkscape:grid
       type="xygrid"
       id="grid2824"
       empspacing="5"
       visible="true"
       enabled="true"
       snapvisiblegridlinesonly="true" />
  </sodipodi:namedview>
  <metadata
     id="metadata4">
Valerie Sutton's pixel definition of the
ISWA 2010 symbol ID 04-01-003-01-01-01
transformed by Stephen E Slevinski Jr
using line and fill polygon tracing
<rdf:RDF>
  <cc:Work
     rdf:about="">
    <dc:format>image/svg+xml</dc:format>
    <dc:type
       rdf:resource="http://purl.org/dc/dcmitype/StillImage" />
    <dc:title></dc:title>
  </cc:Work>
</rdf:RDF>
</metadata>
  <path
     style="fill:#000000;fill-opacity:1;stroke:none"
     d="m 35,17 -7,7 -7,-7 2,0 5,5 5,-5 2,0 z"
     id="path2814" />
  <path
     style="fill:#000000;fill-opacity:1;stroke:none"
     d="m 25,0 c 2.209139,0 4,1.790861 4,4 l 0,6 c 0,2.538591 3,7 3,7 l -8,0 c 0,0 3,-4.461409 3,-7 L 27,4 C 27,2.8954305 26.104569,2 25,2 23.895431,2 23,2.8954305 23,4 l 0,4 -2,0 0,-4 c 0,-2.209139 1.790861,-4 4,-4 z"
     id="path2816" />
  <path
     style="fill:#000000;fill-opacity:1;stroke:none"
     d="m 38,11 0,1 -7,0 0,-1 7,0 z m -13,0 0,1 -9,0 0,-1 9,0 z m -15,0 0,1 -10,0 0,-1 10,0 z"
     id="rect2825" />
  <path
     style="fill:#000000;fill-opacity:1;stroke:none"
     d="m 20,17 -7,7 -7,-7 2,0 5,5 5,-5 2,0 z"
     id="path2824" />
  <path
     id="path2826"
     d="m 10,0 c 2.209139,0 4,1.790861 4,4 l 0,6 c 0,2.538591 3,7 3,7 l -8,0 c 0,0 3,-4.461409 3,-7 L 12,4 C 12,2.8954305 11.104569,2 10,2 8.895431,2 8,2.8954305 8,4 L 8,8 6,8 6,4 C 6,1.790861 7.790861,0 10,0 z"
     style="fill:#000000;fill-opacity:1;stroke:none" />
</svg>
