<?xml version="1.0" encoding="UTF-8" standalone="no"?>
<svg
   xmlns:dc="http://purl.org/dc/elements/1.1/"
   xmlns:cc="http://creativecommons.org/ns#"
   xmlns:rdf="http://www.w3.org/1999/02/22-rdf-syntax-ns#"
   xmlns:svg="http://www.w3.org/2000/svg"
   xmlns="http://www.w3.org/2000/svg"
   xmlns:sodipodi="http://sodipodi.sourceforge.net/DTD/sodipodi-0.dtd"
   xmlns:inkscape="http://www.inkscape.org/namespaces/inkscape"
   version="1.0"
   width="32"
   height="29"
   id="svg2"
   inkscape:version="0.47 r22583"
   sodipodi:docname="02-08-006-01-01-04.svg">
  <defs
     id="defs16">
    <inkscape:perspective
       sodipodi:type="inkscape:persp3d"
       inkscape:vp_x="0 : 23 : 1"
       inkscape:vp_y="0 : 1000 : 0"
       inkscape:vp_z="36 : 23 : 1"
       inkscape:persp3d-origin="18 : 15.333333 : 1"
       id="perspective18" />
  </defs>
  <sodipodi:namedview
     pagecolor="#ffffff"
     bordercolor="#666666"
     borderopacity="1"
     objecttolerance="10"
     gridtolerance="10"
     guidetolerance="10"
     inkscape:pageopacity="0"
     inkscape:pageshadow="2"
     inkscape:window-width="964"
     inkscape:window-height="721"
     id="namedview14"
     showgrid="true"
     inkscape:zoom="16.310345"
     inkscape:cx="15.5"
     inkscape:cy="14.5"
     inkscape:window-x="365"
     inkscape:window-y="0"
     inkscape:window-maximized="0"
     inkscape:current-layer="svg2"
     showborder="true">
    <inkscape:grid
       type="xygrid"
       id="grid2824"
       empspacing="5"
       visible="true"
       enabled="true"
       snapvisiblegridlinesonly="true" />
  </sodipodi:namedview>
  <metadata
     id="metadata4">
Valerie Sutton's pixel definition of the
ISWA 2010 symbol ID 04-01-003-01-01-01
transformed by Stephen E Slevinski Jr
using line and fill polygon tracing
<rdf:RDF>
  <cc:Work
     rdf:about="">
    <dc:format>image/svg+xml</dc:format>
    <dc:type
       rdf:resource="http://purl.org/dc/dcmitype/StillImage" />
    <dc:title></dc:title>
  </cc:Work>
</rdf:RDF>
</metadata>
  <path
     style="fill:#000000;fill-opacity:1;stroke:none"
     d="M 32,7.1005054 22.100504,17 32,17 32,7.1005054 z"
     id="path2814" />
  <path
     style="fill:#000000;fill-opacity:1;stroke:none"
     d="m 12.908117,2.1507579 c 1.562097,-1.5620971 4.094757,-1.5620971 5.656855,0 l 4.242639,4.2426407 c 1.795055,1.7950549 7.071068,2.8284272 7.071068,2.8284272 L 24.221825,14.87868 c 0,0 -1.033372,-5.2760129 -2.828426,-7.0710678 L 17.150758,3.5649715 c -0.781049,-0.7810486 -2.047379,-0.7810482 -2.828427,0 -0.781048,0.7810482 -0.781049,2.0473785 0,2.8284271 l 2.828426,2.8284272 -1.414213,1.4142132 -2.828427,-2.8284268 c -1.562097,-1.5620972 -1.562097,-4.0947571 0,-5.6568543 z"
     id="path2816" />
  <path
     style="fill:#000000;fill-opacity:1;stroke:none"
     d="M 29.878679,0.7365444 30.585786,1.4436512 3.7157285,28.313709 3.0086215,27.606602 29.878679,0.7365444 z"
     id="rect2825" />
  <path
     id="path2824"
     d="M 21,18.100505 11.100505,28 21,28 21,18.100505 z"
     style="fill:#000000;fill-opacity:1;stroke:none" />
  <path
     id="path2826"
     d="m 1.9081165,13.150758 c 1.562097,-1.562098 4.094757,-1.562098 5.656854,0 l 4.2426415,4.24264 c 1.795054,1.795055 7.071067,2.828427 7.071067,2.828427 l -5.656854,5.656855 c 0,0 -1.033372,-5.276013 -2.828427,-7.071068 L 6.1507565,14.564971 c -0.781048,-0.781048 -2.047379,-0.781048 -2.828427,0 -0.781048,0.781048 -0.781048,2.047379 0,2.828427 l 2.828427,2.828427 -1.414213,1.414214 -2.828427,-2.828427 c -1.562098,-1.562097 -1.562098,-4.094757 0,-5.656854 z"
     style="fill:#000000;fill-opacity:1;stroke:none" />
</svg>
