<?xml version="1.0" encoding="UTF-8" standalone="no"?>
<svg
   xmlns:dc="http://purl.org/dc/elements/1.1/"
   xmlns:cc="http://creativecommons.org/ns#"
   xmlns:rdf="http://www.w3.org/1999/02/22-rdf-syntax-ns#"
   xmlns:svg="http://www.w3.org/2000/svg"
   xmlns="http://www.w3.org/2000/svg"
   xmlns:sodipodi="http://sodipodi.sourceforge.net/DTD/sodipodi-0.dtd"
   xmlns:inkscape="http://www.inkscape.org/namespaces/inkscape"
   version="1.0"
   width="25"
   height="22"
   id="svg2"
   inkscape:version="0.47 r22583"
   sodipodi:docname="02-08-006-01-06-07.svg">
  <defs
     id="defs16">
    <inkscape:perspective
       sodipodi:type="inkscape:persp3d"
       inkscape:vp_x="0 : 23 : 1"
       inkscape:vp_y="0 : 1000 : 0"
       inkscape:vp_z="36 : 23 : 1"
       inkscape:persp3d-origin="18 : 15.333333 : 1"
       id="perspective18" />
  </defs>
  <sodipodi:namedview
     pagecolor="#ffffff"
     bordercolor="#666666"
     borderopacity="1"
     objecttolerance="10"
     gridtolerance="10"
     guidetolerance="10"
     inkscape:pageopacity="0"
     inkscape:pageshadow="2"
     inkscape:window-width="964"
     inkscape:window-height="721"
     id="namedview14"
     showgrid="true"
     inkscape:zoom="16.3"
     inkscape:cx="12.5"
     inkscape:cy="11"
     inkscape:window-x="365"
     inkscape:window-y="0"
     inkscape:window-maximized="0"
     inkscape:current-layer="svg2"
     showborder="true">
    <inkscape:grid
       type="xygrid"
       id="grid2824"
       empspacing="5"
       visible="true"
       enabled="true"
       snapvisiblegridlinesonly="true" />
  </sodipodi:namedview>
  <metadata
     id="metadata4">
Valerie Sutton's pixel definition of the
ISWA 2010 symbol ID 04-01-003-01-01-01
transformed by Stephen E Slevinski Jr
using line and fill polygon tracing
<rdf:RDF>
  <cc:Work
     rdf:about="">
    <dc:format>image/svg+xml</dc:format>
    <dc:type
       rdf:resource="http://purl.org/dc/dcmitype/StillImage" />
    <dc:title></dc:title>
  </cc:Work>
</rdf:RDF>
</metadata>
  <path
     style="fill:#000000;fill-opacity:1;stroke:none"
     d="M 0,8.6360386 0,15 l 6.363961,0 -0.707107,-0.707107 -4.949747,0 0,-4.9497476 L 0,8.6360386 z"
     id="path3121" />
  <path
     style="fill:#000000;fill-opacity:1;stroke:none"
     d="m 16.970563,1.5649708 c -1.171573,-1.17157274 -3.071068,-1.17157288 -4.242641,0 L 5.656854,8.6360386 C 4.602761,9.6901311 1.414213,10.050252 1.414213,10.050252 l 3.535534,3.535534 c 0,0 0.360121,-3.188548 1.414214,-4.2426406 l 7.071068,-7.0710679 c 0.781048,-0.7810485 2.047378,-0.7810489 2.828427,0 0.781048,0.7810483 0.781048,2.0473786 0,2.8284272 l -2.828427,2.8284271 0.707106,0.7071068 2.828428,-2.8284272 c 1.171572,-1.1715728 1.171572,-3.0710679 0,-4.2426406 z"
     id="path3126" />
  <path
     style="fill:#000000;fill-opacity:1;stroke:none"
     d="M 7,15.636039 7,22 l 6.363961,0 -0.707107,-0.707106 -4.949748,0 0,-4.949748 L 7,15.636039 z"
     id="path2822" />
  <path
     id="path2824"
     d="m 23.970562,8.5649716 c -1.171572,-1.1715727 -3.071067,-1.1715729 -4.24264,0 l -7.071068,7.0710674 c -1.054093,1.054093 -4.242641,1.414214 -4.242641,1.414214 l 3.535534,3.535534 c 0,0 0.360121,-3.188548 1.414214,-4.242641 l 7.071068,-7.0710676 c 0.781048,-0.7810486 2.047378,-0.7810483 2.828427,0 0.781049,0.7810486 0.781048,2.0473786 0,2.8284266 l -2.828427,2.828428 0.707106,0.707106 2.828427,-2.828427 c 1.171573,-1.171573 1.171573,-3.0710677 0,-4.2426404 z"
     style="fill:#000000;fill-opacity:1;stroke:none" />
</svg>
