<?xml version="1.0" encoding="UTF-8" standalone="no"?>
<svg
   xmlns:dc="http://purl.org/dc/elements/1.1/"
   xmlns:cc="http://creativecommons.org/ns#"
   xmlns:rdf="http://www.w3.org/1999/02/22-rdf-syntax-ns#"
   xmlns:svg="http://www.w3.org/2000/svg"
   xmlns="http://www.w3.org/2000/svg"
   xmlns:sodipodi="http://sodipodi.sourceforge.net/DTD/sodipodi-0.dtd"
   xmlns:inkscape="http://www.inkscape.org/namespaces/inkscape"
   version="1.0"
   width="29"
   height="24"
   id="svg2"
   inkscape:version="0.47 r22583"
   sodipodi:docname="02-08-006-01-04-08.svg">
  <defs
     id="defs16">
    <inkscape:perspective
       sodipodi:type="inkscape:persp3d"
       inkscape:vp_x="0 : 23 : 1"
       inkscape:vp_y="0 : 1000 : 0"
       inkscape:vp_z="36 : 23 : 1"
       inkscape:persp3d-origin="18 : 15.333333 : 1"
       id="perspective18" />
  </defs>
  <sodipodi:namedview
     pagecolor="#ffffff"
     bordercolor="#666666"
     borderopacity="1"
     objecttolerance="10"
     gridtolerance="10"
     guidetolerance="10"
     inkscape:pageopacity="0"
     inkscape:pageshadow="2"
     inkscape:window-width="964"
     inkscape:window-height="721"
     id="namedview14"
     showgrid="true"
     inkscape:zoom="16.010846"
     inkscape:cx="14.504779"
     inkscape:cy="12.003955"
     inkscape:window-x="365"
     inkscape:window-y="0"
     inkscape:window-maximized="0"
     inkscape:current-layer="svg2"
     showborder="true">
    <inkscape:grid
       type="xygrid"
       id="grid2824"
       empspacing="5"
       visible="true"
       enabled="true"
       snapvisiblegridlinesonly="true" />
  </sodipodi:namedview>
  <metadata
     id="metadata4">
Valerie Sutton's pixel definition of the
ISWA 2010 symbol ID 04-01-003-01-01-01
transformed by Stephen E Slevinski Jr
using line and fill polygon tracing
<rdf:RDF>
  <cc:Work
     rdf:about="">
    <dc:format>image/svg+xml</dc:format>
    <dc:type
       rdf:resource="http://purl.org/dc/dcmitype/StillImage" />
    <dc:title></dc:title>
  </cc:Work>
</rdf:RDF>
</metadata>
  <path
     style="fill:#000000;fill-opacity:1;stroke:none"
     d="M 0.050252,15 5,15 5,10.050252 0.050252,15 z"
     id="path2839" />
  <path
     style="fill:#000000;fill-opacity:1;stroke:none"
     d="M 2.525126,8.2824854 C 1.276895,9.5307163 1.162064,11.485437 2.19367,12.856583 L 2.922873,12.127379 C 2.28217,11.156999 2.377961,9.8438642 3.232233,8.9895922 c 0.97631,-0.9763108 2.559223,-0.9763108 3.535534,0 l 6.717514,6.7175148 c 2.013841,2.013841 3.535534,7.778174 3.535534,7.778174 l 4.949747,-4.949747 c 0,0 -5.764333,-1.521693 -7.778174,-3.535534 L 7.474873,8.2824854 c -1.366835,-1.366835 -3.582912,-1.3668353 -4.949747,0 z"
     id="path2830" />
  <path
     id="path3122"
     d="M 7.050253,8 12,8 12,3.0502525 7.050253,8 z"
     style="fill:#000000;fill-opacity:1;stroke:none" />
  <path
     id="path3124"
     d="M 9.525127,1.2824856 C 8.276896,2.5307164 8.162065,4.4854373 9.19367,5.8565826 L 9.922874,5.1273787 C 9.282171,4.1569992 9.377962,2.8438643 10.232233,1.9895924 c 0.976311,-0.9763109 2.559224,-0.9763108 3.535534,0 l 6.717515,6.7175144 c 2.01384,2.0138412 3.535533,7.7781752 3.535533,7.7781752 l 4.949748,-4.949748 c 0,0 -5.764334,-1.521693 -7.778175,-3.535534 L 14.474874,1.2824856 c -1.366835,-1.366835 -3.582912,-1.3668353 -4.949747,0 z"
     style="fill:#000000;fill-opacity:1;stroke:none" />
</svg>
