<?xml version="1.0" encoding="UTF-8" standalone="no"?>
<svg
   xmlns:dc="http://purl.org/dc/elements/1.1/"
   xmlns:cc="http://creativecommons.org/ns#"
   xmlns:rdf="http://www.w3.org/1999/02/22-rdf-syntax-ns#"
   xmlns:svg="http://www.w3.org/2000/svg"
   xmlns="http://www.w3.org/2000/svg"
   xmlns:sodipodi="http://sodipodi.sourceforge.net/DTD/sodipodi-0.dtd"
   xmlns:inkscape="http://www.inkscape.org/namespaces/inkscape"
   version="1.0"
   width="32"
   height="29"
   id="svg2"
   inkscape:version="0.47 r22583"
   sodipodi:docname="02-08-006-01-03-06.svg">
  <defs
     id="defs16">
    <inkscape:perspective
       sodipodi:type="inkscape:persp3d"
       inkscape:vp_x="0 : 23 : 1"
       inkscape:vp_y="0 : 1000 : 0"
       inkscape:vp_z="36 : 23 : 1"
       inkscape:persp3d-origin="18 : 15.333333 : 1"
       id="perspective18" />
  </defs>
  <sodipodi:namedview
     pagecolor="#ffffff"
     bordercolor="#666666"
     borderopacity="1"
     objecttolerance="10"
     gridtolerance="10"
     guidetolerance="10"
     inkscape:pageopacity="0"
     inkscape:pageshadow="2"
     inkscape:window-width="964"
     inkscape:window-height="721"
     id="namedview14"
     showgrid="true"
     inkscape:zoom="16.310345"
     inkscape:cx="16"
     inkscape:cy="14.5"
     inkscape:window-x="365"
     inkscape:window-y="0"
     inkscape:window-maximized="0"
     inkscape:current-layer="svg2"
     showborder="true">
    <inkscape:grid
       type="xygrid"
       id="grid2824"
       empspacing="5"
       visible="true"
       enabled="true"
       snapvisiblegridlinesonly="true" />
  </sodipodi:namedview>
  <metadata
     id="metadata4">
Valerie Sutton's pixel definition of the
ISWA 2010 symbol ID 04-01-003-01-01-01
transformed by Stephen E Slevinski Jr
using line and fill polygon tracing
<rdf:RDF>
  <cc:Work
     rdf:about="">
    <dc:format>image/svg+xml</dc:format>
    <dc:type
       rdf:resource="http://purl.org/dc/dcmitype/StillImage" />
    <dc:title></dc:title>
  </cc:Work>
</rdf:RDF>
</metadata>
  <path
     style="fill:#000000;fill-opacity:1;stroke:none"
     d="M 0,7.1005054 0,17 l 9.8994954,0 -1.414214,-1.414213 -7.0710678,0 0,-7.071068 L 0,7.1005054 z"
     id="path2814" />
  <path
     style="fill:#000000;fill-opacity:1;stroke:none"
     d="m 19.091883,2.1507579 c -1.562097,-1.5620971 -4.094757,-1.5620971 -5.656855,0 L 9.1923884,6.3933986 C 7.3973334,8.1884535 2.1213203,9.2218258 2.1213203,9.2218258 L 7.7781744,14.87868 c 0,0 1.033372,-5.2760129 2.8284266,-7.0710678 l 4.242641,-4.2426407 c 0.781049,-0.7810486 2.047379,-0.7810482 2.828427,0 0.781048,0.7810482 0.781049,2.0473785 0,2.8284271 l -2.828427,2.8284272 1.414214,1.4142132 2.828427,-2.8284268 c 1.562097,-1.5620972 1.562097,-4.0947571 0,-5.6568543 z"
     id="path2816" />
  <path
     style="fill:#000000;fill-opacity:1;stroke:none"
     d="M 2.1213203,0.7365444 1.4142136,1.4436512 28.284271,28.313709 28.991378,27.606602 2.1213203,0.7365444 z"
     id="rect2825" />
  <path
     style="fill:#000000;fill-opacity:1;stroke:none"
     d="M 11,18.100505 11,28 l 9.899495,0 -1.414213,-1.414214 -7.071068,0 0,-7.071067 L 11,18.100505 z"
     id="path2824" />
  <path
     id="path2826"
     d="m 30.091883,13.150758 c -1.562097,-1.562098 -4.094757,-1.562098 -5.656854,0 l -4.242641,4.24264 c -1.795054,1.795055 -7.071067,2.828427 -7.071067,2.828427 l 5.656854,5.656855 c 0,0 1.033372,-5.276013 2.828427,-7.071068 l 4.242641,-4.242641 c 0.781048,-0.781048 2.047379,-0.781048 2.828427,0 0.781048,0.781048 0.781048,2.047379 0,2.828427 l -2.828427,2.828427 1.414213,1.414214 2.828427,-2.828427 c 1.562098,-1.562097 1.562098,-4.094757 0,-5.656854 z"
     style="fill:#000000;fill-opacity:1;stroke:none" />
</svg>
