<?xml version="1.0" encoding="UTF-8" standalone="no"?>
<svg
   xmlns:dc="http://purl.org/dc/elements/1.1/"
   xmlns:cc="http://creativecommons.org/ns#"
   xmlns:rdf="http://www.w3.org/1999/02/22-rdf-syntax-ns#"
   xmlns:svg="http://www.w3.org/2000/svg"
   xmlns="http://www.w3.org/2000/svg"
   xmlns:sodipodi="http://sodipodi.sourceforge.net/DTD/sodipodi-0.dtd"
   xmlns:inkscape="http://www.inkscape.org/namespaces/inkscape"
   version="1.0"
   width="23"
   height="21"
   id="svg2"
   inkscape:version="0.47 r22583"
   sodipodi:docname="02-08-006-01-04-03.svg">
  <defs
     id="defs16">
    <inkscape:perspective
       sodipodi:type="inkscape:persp3d"
       inkscape:vp_x="0 : 23 : 1"
       inkscape:vp_y="0 : 1000 : 0"
       inkscape:vp_z="36 : 23 : 1"
       inkscape:persp3d-origin="18 : 15.333333 : 1"
       id="perspective18" />
  </defs>
  <sodipodi:namedview
     pagecolor="#ffffff"
     bordercolor="#666666"
     borderopacity="1"
     objecttolerance="10"
     gridtolerance="10"
     guidetolerance="10"
     inkscape:pageopacity="0"
     inkscape:pageshadow="2"
     inkscape:window-width="964"
     inkscape:window-height="721"
     id="namedview14"
     showgrid="true"
     inkscape:zoom="17.062634"
     inkscape:cx="11.497917"
     inkscape:cy="10.498098"
     inkscape:window-x="365"
     inkscape:window-y="0"
     inkscape:window-maximized="0"
     inkscape:current-layer="svg2"
     showborder="true">
    <inkscape:grid
       type="xygrid"
       id="grid2824"
       empspacing="5"
       visible="true"
       enabled="true"
       snapvisiblegridlinesonly="true" />
  </sodipodi:namedview>
  <metadata
     id="metadata4">
Valerie Sutton's pixel definition of the
ISWA 2010 symbol ID 04-01-003-01-01-01
transformed by Stephen E Slevinski Jr
using line and fill polygon tracing
<rdf:RDF>
  <cc:Work
     rdf:about="">
    <dc:format>image/svg+xml</dc:format>
    <dc:type
       rdf:resource="http://purl.org/dc/dcmitype/StillImage" />
    <dc:title></dc:title>
  </cc:Work>
</rdf:RDF>
</metadata>
  <path
     style="fill:#000000;fill-opacity:1;stroke:none"
     d="M 0 3 L 3.5 6.5 L 7 3 L 6 3 L 3.5 5.5 L 1 3 L 0 3 z "
     id="path2839" />
  <path
     style="fill:#000000;fill-opacity:1;stroke:none"
     d="M 6.5,0 C 4.7347353,0 3.2713411,1.3009988 3.03125,3 L 4.0625,3 C 4.2956157,1.8607922 5.2918771,1 6.5,1 7.8807119,1 9,2.1192881 9,3.5 L 9,13 c 0,2.848001 -3,8 -3,8 l 7,0 c 0,0 -3,-5.151999 -3,-8 L 10,3.5 C 10,1.5670034 8.4329966,0 6.5,0 z"
     id="path2830" />
  <path
     style="fill:#000000;fill-opacity:1;stroke:none"
     d="M 10 3 L 13.5 6.5 L 17 3 L 16 3 L 13.5 5.5 L 11 3 L 10 3 z "
     id="path3122" />
  <path
     id="path3124"
     d="M 16.5,0 C 14.734735,0 13.271341,1.3009988 13.03125,3 L 14.0625,3 C 14.295616,1.8607922 15.291877,1 16.5,1 17.880712,1 19,2.1192881 19,3.5 l 0,9.5 c 0,2.848001 -3,8 -3,8 l 7,0 c 0,0 -3,-5.151999 -3,-8 L 20,3.5 C 20,1.5670034 18.432997,0 16.5,0 z"
     style="fill:#000000;fill-opacity:1;stroke:none" />
</svg>
