<?xml version="1.0" encoding="UTF-8" standalone="no"?>
<svg
   xmlns:dc="http://purl.org/dc/elements/1.1/"
   xmlns:cc="http://creativecommons.org/ns#"
   xmlns:rdf="http://www.w3.org/1999/02/22-rdf-syntax-ns#"
   xmlns:svg="http://www.w3.org/2000/svg"
   xmlns="http://www.w3.org/2000/svg"
   xmlns:sodipodi="http://sodipodi.sourceforge.net/DTD/sodipodi-0.dtd"
   xmlns:inkscape="http://www.inkscape.org/namespaces/inkscape"
   version="1.0"
   width="39"
   height="32"
   id="svg2"
   inkscape:version="0.47 r22583"
   sodipodi:docname="02-08-006-01-01-02.svg">
  <defs
     id="defs16">
    <inkscape:perspective
       sodipodi:type="inkscape:persp3d"
       inkscape:vp_x="0 : 23 : 1"
       inkscape:vp_y="0 : 1000 : 0"
       inkscape:vp_z="36 : 23 : 1"
       inkscape:persp3d-origin="18 : 15.333333 : 1"
       id="perspective18" />
  </defs>
  <sodipodi:namedview
     pagecolor="#ffffff"
     bordercolor="#666666"
     borderopacity="1"
     objecttolerance="10"
     gridtolerance="10"
     guidetolerance="10"
     inkscape:pageopacity="0"
     inkscape:pageshadow="2"
     inkscape:window-width="964"
     inkscape:window-height="721"
     id="namedview14"
     showgrid="true"
     inkscape:zoom="14.78125"
     inkscape:cx="19.5"
     inkscape:cy="16"
     inkscape:window-x="365"
     inkscape:window-y="0"
     inkscape:window-maximized="0"
     inkscape:current-layer="svg2"
     showborder="true">
    <inkscape:grid
       type="xygrid"
       id="grid2824"
       empspacing="5"
       visible="true"
       enabled="true"
       snapvisiblegridlinesonly="true" />
  </sodipodi:namedview>
  <metadata
     id="metadata4">
Valerie Sutton's pixel definition of the
ISWA 2010 symbol ID 04-01-003-01-01-01
transformed by Stephen E Slevinski Jr
using line and fill polygon tracing
<rdf:RDF>
  <cc:Work
     rdf:about="">
    <dc:format>image/svg+xml</dc:format>
    <dc:type
       rdf:resource="http://purl.org/dc/dcmitype/StillImage" />
    <dc:title></dc:title>
  </cc:Work>
</rdf:RDF>
</metadata>
  <path
     style="fill:#000000;fill-opacity:1;stroke:none"
     d="m 35.949748,15.100505 c 1.562097,1.562097 1.562097,4.094757 0,5.656854 l -0.707107,0.707107 -0.707107,-0.707107 0.707107,-0.707107 c 1.171573,-1.171573 1.171572,-3.071068 0,-4.242641 l -0.707107,-0.707106 c -1.171573,-1.171573 -3.38765,-0.854991 -4.949747,0.707106 l -6.363961,6.363961 c -2.321399,2.321399 -3.535534,9.192389 -3.535534,9.192389 l -7.071068,-7.071068 c 0,0 6.87099,-1.214136 9.192388,-3.535534 l 6.363961,-6.363961 c 1.952621,-1.952622 5.118446,-1.952622 7.071068,0 l 0.707107,0.707107 z"
     id="path2825" />
  <path
     style="fill:#000000;fill-opacity:1;stroke:none"
     d="M 38.778175,25 31,25 31,17.221825 38.778175,25 z"
     id="path2839" />
  <path
     style="fill:#000000;fill-opacity:1;stroke:none"
     d="M 33.142135,30.67767 32.435029,31.384777 4.1507574,3.100505 4.8578642,2.3933982 33.142135,30.67767 z"
     id="rect3138" />
  <path
     id="path3124"
     d="m 23.949747,3.100505 c 1.562097,1.5620972 1.562097,4.0947571 0,5.6568543 L 23.242641,9.4644661 22.535534,8.7573593 23.242641,8.0502525 c 1.171572,-1.1715728 1.171572,-3.071068 0,-4.2426407 L 22.535534,3.100505 C 21.363961,1.9289323 19.147883,2.2455146 17.585786,3.8076118 L 11.221825,10.171573 C 8.9004269,12.492971 7.6862913,19.363961 7.6862913,19.363961 L 0.61522352,12.292893 c 0,0 6.87098978,-1.214135 9.19238818,-3.5355337 L 16.171573,2.3933982 c 1.952621,-1.9526214 5.118446,-1.9526216 7.071068,0 l 0.707106,0.7071068 z"
     style="fill:#000000;fill-opacity:1;stroke:none" />
  <path
     id="path3126"
     d="M 26.778174,13 19,13 19,5.2218254 26.778174,13 z"
     style="fill:#000000;fill-opacity:1;stroke:none" />
</svg>
