<?xml version="1.0" encoding="UTF-8" standalone="no"?>
<svg
   xmlns:dc="http://purl.org/dc/elements/1.1/"
   xmlns:cc="http://creativecommons.org/ns#"
   xmlns:rdf="http://www.w3.org/1999/02/22-rdf-syntax-ns#"
   xmlns:svg="http://www.w3.org/2000/svg"
   xmlns="http://www.w3.org/2000/svg"
   xmlns:sodipodi="http://sodipodi.sourceforge.net/DTD/sodipodi-0.dtd"
   xmlns:inkscape="http://www.inkscape.org/namespaces/inkscape"
   version="1.0"
   width="39"
   height="32"
   id="svg2"
   inkscape:version="0.47 r22583"
   sodipodi:docname="02-08-006-01-01-08.svg">
  <defs
     id="defs16">
    <inkscape:perspective
       sodipodi:type="inkscape:persp3d"
       inkscape:vp_x="0 : 23 : 1"
       inkscape:vp_y="0 : 1000 : 0"
       inkscape:vp_z="36 : 23 : 1"
       inkscape:persp3d-origin="18 : 15.333333 : 1"
       id="perspective18" />
  </defs>
  <sodipodi:namedview
     pagecolor="#ffffff"
     bordercolor="#666666"
     borderopacity="1"
     objecttolerance="10"
     gridtolerance="10"
     guidetolerance="10"
     inkscape:pageopacity="0"
     inkscape:pageshadow="2"
     inkscape:window-width="964"
     inkscape:window-height="721"
     id="namedview14"
     showgrid="true"
     inkscape:zoom="14.78125"
     inkscape:cx="19.5"
     inkscape:cy="16"
     inkscape:window-x="365"
     inkscape:window-y="0"
     inkscape:window-maximized="0"
     inkscape:current-layer="svg2"
     showborder="true">
    <inkscape:grid
       type="xygrid"
       id="grid2824"
       empspacing="5"
       visible="true"
       enabled="true"
       snapvisiblegridlinesonly="true" />
  </sodipodi:namedview>
  <metadata
     id="metadata4">
Valerie Sutton's pixel definition of the
ISWA 2010 symbol ID 04-01-003-01-01-01
transformed by Stephen E Slevinski Jr
using line and fill polygon tracing
<rdf:RDF>
  <cc:Work
     rdf:about="">
    <dc:format>image/svg+xml</dc:format>
    <dc:type
       rdf:resource="http://purl.org/dc/dcmitype/StillImage" />
    <dc:title></dc:title>
  </cc:Work>
</rdf:RDF>
</metadata>
  <path
     style="fill:#000000;fill-opacity:1;stroke:none"
     d="m 3.0502515,15.100505 c -1.562097,1.562097 -1.562097,4.094757 0,5.656854 l 0.707107,0.707107 0.707107,-0.707107 -0.707107,-0.707107 c -1.171573,-1.171573 -1.171572,-3.071068 0,-4.242641 l 0.707107,-0.707106 c 1.171573,-1.171573 3.38765,-0.854991 4.949747,0.707106 l 6.3639615,6.363961 c 2.321399,2.321399 3.535534,9.192389 3.535534,9.192389 l 7.071068,-7.071068 c 0,0 -6.87099,-1.214136 -9.192388,-3.535534 l -6.363961,-6.363961 c -1.9526215,-1.952622 -5.1184465,-1.952622 -7.0710685,0 l -0.707107,0.707107 z"
     id="path2825" />
  <path
     style="fill:#000000;fill-opacity:1;stroke:none"
     d="m 0.22182452,25 7.77817498,0 0,-7.778175 L 0.22182452,25 z"
     id="path2839" />
  <path
     style="fill:#000000;fill-opacity:1;stroke:none"
     d="M 5.8578645,30.67767 6.5649705,31.384777 34.849242,3.100505 34.142135,2.3933982 5.8578645,30.67767 z"
     id="rect3138" />
  <path
     id="path3124"
     d="m 15.050253,3.100505 c -1.562097,1.5620972 -1.562097,4.0947571 0,5.6568543 l 0.707106,0.7071068 0.707107,-0.7071068 -0.707107,-0.7071068 c -1.171572,-1.1715728 -1.171572,-3.071068 0,-4.2426407 L 16.464466,3.100505 c 1.171573,-1.1715727 3.387651,-0.8549904 4.949748,0.7071068 l 6.363961,6.3639612 c 2.321398,2.321398 3.535533,9.192388 3.535533,9.192388 l 7.071068,-7.071068 c 0,0 -6.87099,-1.214135 -9.192388,-3.5355337 L 22.828427,2.3933982 c -1.952621,-1.9526214 -5.118446,-1.9526216 -7.071068,0 L 15.050253,3.100505 z"
     style="fill:#000000;fill-opacity:1;stroke:none" />
  <path
     id="path3126"
     d="M 12.221826,13 20,13 20,5.2218254 12.221826,13 z"
     style="fill:#000000;fill-opacity:1;stroke:none" />
</svg>
