<?xml version="1.0" encoding="UTF-8" standalone="no"?>
<svg
   xmlns:dc="http://purl.org/dc/elements/1.1/"
   xmlns:cc="http://creativecommons.org/ns#"
   xmlns:rdf="http://www.w3.org/1999/02/22-rdf-syntax-ns#"
   xmlns:svg="http://www.w3.org/2000/svg"
   xmlns="http://www.w3.org/2000/svg"
   xmlns:sodipodi="http://sodipodi.sourceforge.net/DTD/sodipodi-0.dtd"
   xmlns:inkscape="http://www.inkscape.org/namespaces/inkscape"
   version="1.0"
   width="20"
   height="22"
   id="svg2"
   inkscape:version="0.47 r22583"
   sodipodi:docname="02-08-006-01-06-04.svg">
  <defs
     id="defs16">
    <inkscape:perspective
       sodipodi:type="inkscape:persp3d"
       inkscape:vp_x="0 : 23 : 1"
       inkscape:vp_y="0 : 1000 : 0"
       inkscape:vp_z="36 : 23 : 1"
       inkscape:persp3d-origin="18 : 15.333333 : 1"
       id="perspective18" />
  </defs>
  <sodipodi:namedview
     pagecolor="#ffffff"
     bordercolor="#666666"
     borderopacity="1"
     objecttolerance="10"
     gridtolerance="10"
     guidetolerance="10"
     inkscape:pageopacity="0"
     inkscape:pageshadow="2"
     inkscape:window-width="964"
     inkscape:window-height="721"
     id="namedview14"
     showgrid="true"
     inkscape:zoom="16.3"
     inkscape:cx="10"
     inkscape:cy="11"
     inkscape:window-x="365"
     inkscape:window-y="0"
     inkscape:window-maximized="0"
     inkscape:current-layer="svg2"
     showborder="true">
    <inkscape:grid
       type="xygrid"
       id="grid2824"
       empspacing="5"
       visible="true"
       enabled="true"
       snapvisiblegridlinesonly="true" />
  </sodipodi:namedview>
  <metadata
     id="metadata4">
Valerie Sutton's pixel definition of the
ISWA 2010 symbol ID 04-01-003-01-01-01
transformed by Stephen E Slevinski Jr
using line and fill polygon tracing
<rdf:RDF>
  <cc:Work
     rdf:about="">
    <dc:format>image/svg+xml</dc:format>
    <dc:type
       rdf:resource="http://purl.org/dc/dcmitype/StillImage" />
    <dc:title></dc:title>
  </cc:Work>
</rdf:RDF>
</metadata>
  <path
     style="fill:#000000;fill-opacity:1;stroke:none"
     d="M 0 17 L 4.5 21.5 L 9 17 L 0 17 z M 1.6875 17.6875 L 7.3125 17.6875 L 4.5 20.5 L 1.6875 17.6875 z "
     id="path3121" />
  <path
     style="fill:#000000;fill-opacity:1;stroke:none"
     d="M 7,0 C 5.3431458,0 4,1.3431458 4,3 l 0,10 c 0,1.490712 -2,4 -2,4 l 5,0 C 7,17 5,14.490712 5,13 L 5,3 C 5,1.8954305 5.8954305,1 7,1 8.1045695,1 9,1.8954305 9,3 l 0,4 1,0 0,-4 C 10,1.3431458 8.6568542,0 7,0 z"
     id="path3126" />
  <path
     style="fill:#000000;fill-opacity:1;stroke:none"
     d="M 10 17 L 14.5 21.5 L 19 17 L 10 17 z M 11.6875 17.6875 L 17.3125 17.6875 L 14.5 20.5 L 11.6875 17.6875 z "
     id="path2822" />
  <path
     id="path2824"
     d="m 17,0 c -1.656854,0 -3,1.3431458 -3,3 l 0,10 c 0,1.490712 -2,4 -2,4 l 5,0 c 0,0 -2,-2.509288 -2,-4 L 15,3 c 0,-1.1045695 0.895431,-2 2,-2 1.10457,0 2,0.8954305 2,2 l 0,4 1,0 0,-4 C 20,1.3431458 18.656854,0 17,0 z"
     style="fill:#000000;fill-opacity:1;stroke:none" />
  <path
     style="fill:#ffffff;fill-opacity:1;stroke:none"
     d="M 1.6875 17.6875 L 4.5 20.5 L 7.3125 17.6875 L 1.6875 17.6875 z "
     id="path2910" />
  <path
     style="fill:#ffffff;fill-opacity:1;stroke:none"
     d="M 11.6875 17.6875 L 14.5 20.5 L 17.3125 17.6875 L 11.6875 17.6875 z "
     id="path2912" />
</svg>
