<?xml version="1.0" encoding="UTF-8" standalone="no"?>
<svg
   xmlns:dc="http://purl.org/dc/elements/1.1/"
   xmlns:cc="http://creativecommons.org/ns#"
   xmlns:rdf="http://www.w3.org/1999/02/22-rdf-syntax-ns#"
   xmlns:svg="http://www.w3.org/2000/svg"
   xmlns="http://www.w3.org/2000/svg"
   xmlns:sodipodi="http://sodipodi.sourceforge.net/DTD/sodipodi-0.dtd"
   xmlns:inkscape="http://www.inkscape.org/namespaces/inkscape"
   version="1.0"
   width="11"
   height="10"
   id="svg2"
   inkscape:version="0.47 r22583"
   sodipodi:docname="04-05-001-04-02-03.svg">
  <defs
     id="defs14">
    <inkscape:perspective
       sodipodi:type="inkscape:persp3d"
       inkscape:vp_x="0 : 17.5 : 1"
       inkscape:vp_y="0 : 1000 : 0"
       inkscape:vp_z="36 : 17.5 : 1"
       inkscape:persp3d-origin="18 : 11.666667 : 1"
       id="perspective16" />
  </defs>
  <sodipodi:namedview
     pagecolor="#ffffff"
     bordercolor="#666666"
     borderopacity="1"
     objecttolerance="10"
     gridtolerance="10"
     guidetolerance="10"
     inkscape:pageopacity="0"
     inkscape:pageshadow="2"
     inkscape:window-width="993"
     inkscape:window-height="789"
     id="namedview12"
     showgrid="true"
     inkscape:zoom="15.487127"
     inkscape:cx="7.6688392"
     inkscape:cy="-0.57953147"
     inkscape:window-x="209"
     inkscape:window-y="0"
     inkscape:window-maximized="0"
     inkscape:current-layer="svg2">
    <inkscape:grid
       type="xygrid"
       id="grid2822" />
  </sodipodi:namedview>
  <metadata
     id="metadata4">
Valerie Sutton's pixel definition of the
ISWA 2010 symbol ID 04-03-001-01-01-01
transformed by Stephen E Slevinski Jr
using line and fill polygon tracing
<rdf:RDF>
  <cc:Work
     rdf:about="">
    <dc:format>image/svg+xml</dc:format>
    <dc:type
       rdf:resource="http://purl.org/dc/dcmitype/StillImage" />
    <dc:title></dc:title>
  </cc:Work>
</rdf:RDF>
</metadata>
  <path
     style="fill:#000000;fill-opacity:1;stroke:none"
     d="M 2.671573,7.8284271 C 2.9161973,8.0730514 3.2043956,8.2570363 3.4891651,8.4250485 L 4.6161166,7.2980971 C 5.8865675,6.0276461 7.6781167,5.5997934 9.3669902,5.9501748 9.6929149,4.6341847 9.3569734,3.2001191 8.3284272,2.1715729 7.299881,1.1430267 5.8658154,0.80708523 4.5498254,1.1330099 4.9002067,2.8218834 4.4723547,4.6134318 3.2019031,5.8838836 L 2.0749516,7.010835 C 2.2429601,7.2956081 2.4269487,7.5838028 2.671573,7.8284271 z"
     id="path2815" />
  <path
     style="fill:#000000;fill-opacity:1;stroke:none"
     d="M 5.5000002,-6.8269406e-8 C 2.7385766,-1.5312222e-7 0.50000012,2.2385763 0.50000021,4.9999999 0.49999978,7.7614243 2.7385767,9.9999998 5.5000001,10 8.2614235,9.9999997 10.5,7.7614245 10.5,4.9999999 10.5,2.2385763 8.261424,-4.7056202e-8 5.5000002,-6.8269406e-8 z m 0,1.000000028269406 c 2.2091388,-9e-8 4,1.79086094 3.9999999,3.99999994 1e-7,2.2091389 -1.7908611,4.0000001 -4,3.9999999 C 3.2908613,8.9999999 1.5000002,7.2091388 1.5000003,5 1.5,2.7908609 3.2908613,0.99999996 5.5000002,0.99999996 z"
     id="path2813" />
</svg>
