<?xml version="1.0" encoding="UTF-8" standalone="no"?>
<svg
   xmlns:dc="http://purl.org/dc/elements/1.1/"
   xmlns:cc="http://creativecommons.org/ns#"
   xmlns:rdf="http://www.w3.org/1999/02/22-rdf-syntax-ns#"
   xmlns:svg="http://www.w3.org/2000/svg"
   xmlns="http://www.w3.org/2000/svg"
   xmlns:sodipodi="http://sodipodi.sourceforge.net/DTD/sodipodi-0.dtd"
   xmlns:inkscape="http://www.inkscape.org/namespaces/inkscape"
   version="1.0"
   width="11"
   height="10"
   id="svg2"
   inkscape:version="0.47 r22583"
   sodipodi:docname="04-05-001-04-02-05.svg">
  <defs
     id="defs14">
    <inkscape:perspective
       sodipodi:type="inkscape:persp3d"
       inkscape:vp_x="0 : 17.5 : 1"
       inkscape:vp_y="0 : 1000 : 0"
       inkscape:vp_z="36 : 17.5 : 1"
       inkscape:persp3d-origin="18 : 11.666667 : 1"
       id="perspective16" />
  </defs>
  <sodipodi:namedview
     pagecolor="#ffffff"
     bordercolor="#666666"
     borderopacity="1"
     objecttolerance="10"
     gridtolerance="10"
     guidetolerance="10"
     inkscape:pageopacity="0"
     inkscape:pageshadow="2"
     inkscape:window-width="993"
     inkscape:window-height="789"
     id="namedview12"
     showgrid="true"
     inkscape:zoom="15.487127"
     inkscape:cx="7.6688392"
     inkscape:cy="-0.57953147"
     inkscape:window-x="209"
     inkscape:window-y="0"
     inkscape:window-maximized="0"
     inkscape:current-layer="svg2">
    <inkscape:grid
       type="xygrid"
       id="grid2822" />
  </sodipodi:namedview>
  <metadata
     id="metadata4">
Valerie Sutton's pixel definition of the
ISWA 2010 symbol ID 04-03-001-01-01-01
transformed by Stephen E Slevinski Jr
using line and fill polygon tracing
<rdf:RDF>
  <cc:Work
     rdf:about="">
    <dc:format>image/svg+xml</dc:format>
    <dc:type
       rdf:resource="http://purl.org/dc/dcmitype/StillImage" />
    <dc:title></dc:title>
  </cc:Work>
</rdf:RDF>
</metadata>
  <path
     style="fill:#000000;fill-opacity:1;stroke:none"
     d="M 8.3284273,7.8284271 C 8.5730516,7.5838028 8.7570365,7.2956045 8.9250487,7.010835 L 7.7980973,5.8838835 C 6.5276463,4.6134326 6.0997936,2.8218834 6.4501749,1.1330099 5.1341848,0.80708517 3.7001192,1.1430267 2.671573,2.1715729 1.6430268,3.2001191 1.3070853,4.6341847 1.63301,5.9501747 3.3218836,5.5997934 5.1134319,6.0276453 6.3838837,7.298097 L 7.5108352,8.4250485 C 7.7956082,8.25704 8.083803,8.0730514 8.3284273,7.8284271 z"
     id="path2815" />
  <path
     style="fill:#000000;fill-opacity:1;stroke:none"
     d="M 5.5000002,-9.2505766e-8 C 2.7385766,-1.2786111e-7 0.50000023,2.2385763 0.50000027,4.9999998 0.49999985,7.7614243 2.7385767,9.9999998 5.5000001,10 8.2614235,9.9999997 10.5,7.7614245 10.5,4.9999999 10.5,2.2385763 8.2614241,-6.4221493e-8 5.5000002,-9.2505765e-8 z m 0,1.000000022505766 c 2.209139,-7e-8 4.0000002,1.79086097 4.0000001,3.99999997 -10e-8,2.2091388 -1.7908612,4 -4.0000002,3.9999999 C 3.2908614,8.9999999 1.5000002,7.2091388 1.5000003,5 c -2e-7,-2.2091391 1.790861,-4.00000007 3.9999999,-4.00000007 z"
     id="path2813" />
</svg>
