<?xml version="1.0" encoding="UTF-8" standalone="no"?>
<svg
   xmlns:dc="http://purl.org/dc/elements/1.1/"
   xmlns:cc="http://creativecommons.org/ns#"
   xmlns:rdf="http://www.w3.org/1999/02/22-rdf-syntax-ns#"
   xmlns:svg="http://www.w3.org/2000/svg"
   xmlns="http://www.w3.org/2000/svg"
   xmlns:sodipodi="http://sodipodi.sourceforge.net/DTD/sodipodi-0.dtd"
   xmlns:inkscape="http://www.inkscape.org/namespaces/inkscape"
   version="1.0"
   width="19"
   height="23"
   id="svg2"
   inkscape:version="0.47 r22583"
   sodipodi:docname="02-05-016-01-02-14.svg">
  <defs
     id="defs16">
    <inkscape:perspective
       sodipodi:type="inkscape:persp3d"
       inkscape:vp_x="0 : 23 : 1"
       inkscape:vp_y="0 : 1000 : 0"
       inkscape:vp_z="36 : 23 : 1"
       inkscape:persp3d-origin="18 : 15.333333 : 1"
       id="perspective18" />
  </defs>
  <sodipodi:namedview
     pagecolor="#ffffff"
     bordercolor="#666666"
     borderopacity="1"
     objecttolerance="10"
     gridtolerance="10"
     guidetolerance="10"
     inkscape:pageopacity="0"
     inkscape:pageshadow="2"
     inkscape:window-width="964"
     inkscape:window-height="721"
     id="namedview14"
     showgrid="true"
     inkscape:zoom="16.701291"
     inkscape:cx="9.5"
     inkscape:cy="11.5"
     inkscape:window-x="365"
     inkscape:window-y="0"
     inkscape:window-maximized="0"
     inkscape:current-layer="svg2"
     showborder="true">
    <inkscape:grid
       type="xygrid"
       id="grid2824"
       empspacing="5"
       visible="true"
       enabled="true"
       snapvisiblegridlinesonly="true" />
  </sodipodi:namedview>
  <metadata
     id="metadata4">
Valerie Sutton's pixel definition of the
ISWA 2010 symbol ID 04-01-003-01-01-01
transformed by Stephen E Slevinski Jr
using line and fill polygon tracing
<rdf:RDF>
  <cc:Work
     rdf:about="">
    <dc:format>image/svg+xml</dc:format>
    <dc:type
       rdf:resource="http://purl.org/dc/dcmitype/StillImage" />
    <dc:title></dc:title>
  </cc:Work>
</rdf:RDF>
</metadata>
  <path
     style="fill:#000000;fill-opacity:1;stroke:none"
     d="m 2.000001,4.000001 c 7.179701,0 12.999999,5.820298 12.999999,13 l -1,0 C 14.000001,10.372584 8.627418,5 2.000001,5.000001 l -2,-1e-6 0,-1 2,1e-6 z"
     id="path2910" />
  <path
     style="fill:#000000;fill-opacity:1;stroke:none"
     d="M 14.849243,5.565213 1.414215,19.000242 1e-6,17.586028 13.43503,4.151 14.849243,5.565213 z"
     id="path2833" />
  <path
     style="fill:#ffffff;fill-opacity:1;stroke:none"
     d="m 2.000001,5.000001 c 6.627416,-1e-6 12,5.372583 11.999999,12 L 11,17 C 11,12.029437 6.970563,8.000001 2,8.000001 L 0,8 0,5 l 2,1e-6 z"
     id="path2918" />
  <path
     style="fill:#000000;fill-opacity:1;stroke:none"
     d="M 2.000001,8.000001 C 6.970563,8.000001 11,12.029437 11,17 l -0.999999,1e-6 C 10,12.581722 6.418279,9 2.000001,9.000001 L 1e-6,9 0,7.999999 l 2.000001,2e-6 z"
     id="path2923" />
  <path
     style="fill:#000000;fill-opacity:1;stroke:none"
     d="m 7.000001,17 11,0 -5.5,5.5 -5.5,-5.5 z m 2.4076307,0.993976 3.0923693,3.092369 3.070281,-3.070281 -6.1626503,-0.02209 z"
     id="path2964" />
  <path
     style="fill:#000000;fill-opacity:1;stroke:none"
     d="M 19.000001,9.899495 19.000001,0 9.1005065,0 19.000001,9.899495 z m -1.016466,-2.430679 -6.452349,-6.45235 6.452349,0 0,6.45235 z"
     id="path2997" />
  <path
     style="fill:#ffffff;fill-opacity:1;stroke:none"
     d="m 17.983535,7.468816 0,-6.45235 -6.452349,0 6.452349,6.45235 z"
     id="path2966" />
  <path
     style="fill:#ffffff;fill-opacity:1;stroke:none"
     d="m 9.4076317,17.993976 6.1626503,0.02209 -3.070281,3.070281 -3.0923693,-3.092369 z"
     id="path2863" />
</svg>
