<?xml version="1.0" encoding="UTF-8" standalone="no"?>
<svg
   xmlns:dc="http://purl.org/dc/elements/1.1/"
   xmlns:cc="http://creativecommons.org/ns#"
   xmlns:rdf="http://www.w3.org/1999/02/22-rdf-syntax-ns#"
   xmlns:svg="http://www.w3.org/2000/svg"
   xmlns="http://www.w3.org/2000/svg"
   xmlns:sodipodi="http://sodipodi.sourceforge.net/DTD/sodipodi-0.dtd"
   xmlns:inkscape="http://www.inkscape.org/namespaces/inkscape"
   version="1.0"
   width="21"
   height="19"
   id="svg2"
   inkscape:version="0.47 r22583"
   sodipodi:docname="02-05-016-01-04-13.svg">
  <defs
     id="defs16">
    <inkscape:perspective
       sodipodi:type="inkscape:persp3d"
       inkscape:vp_x="0 : 23 : 1"
       inkscape:vp_y="0 : 1000 : 0"
       inkscape:vp_z="36 : 23 : 1"
       inkscape:persp3d-origin="18 : 15.333333 : 1"
       id="perspective18" />
  </defs>
  <sodipodi:namedview
     pagecolor="#ffffff"
     bordercolor="#666666"
     borderopacity="1"
     objecttolerance="10"
     gridtolerance="10"
     guidetolerance="10"
     inkscape:pageopacity="0"
     inkscape:pageshadow="2"
     inkscape:window-width="964"
     inkscape:window-height="721"
     id="namedview14"
     showgrid="true"
     inkscape:zoom="16.421381"
     inkscape:cx="10.501221"
     inkscape:cy="9.5011043"
     inkscape:window-x="365"
     inkscape:window-y="0"
     inkscape:window-maximized="0"
     inkscape:current-layer="svg2"
     showborder="true">
    <inkscape:grid
       type="xygrid"
       id="grid2824"
       empspacing="5"
       visible="true"
       enabled="true"
       snapvisiblegridlinesonly="true" />
  </sodipodi:namedview>
  <metadata
     id="metadata4">
Valerie Sutton's pixel definition of the
ISWA 2010 symbol ID 04-01-003-01-01-01
transformed by Stephen E Slevinski Jr
using line and fill polygon tracing
<rdf:RDF>
  <cc:Work
     rdf:about="">
    <dc:format>image/svg+xml</dc:format>
    <dc:type
       rdf:resource="http://purl.org/dc/dcmitype/StillImage" />
    <dc:title></dc:title>
  </cc:Work>
</rdf:RDF>
</metadata>
  <path
     style="fill:#000000;fill-opacity:1;stroke:none"
     d="M 16,7e-7 C 8.8202983,7e-7 3.0000006,5.8202985 3.0000006,13.000001 l 1.0000003,0 C 4.0000002,6.3725836 9.3725834,1.0000003 16,1.000001 l 2,-7e-7 L 18,0 16,7e-7 z"
     id="path2910" />
  <path
     style="fill:#000000;fill-opacity:1;stroke:none"
     d="M 15.43503,14.849243 2,1.4142136 3.4142136,0 16.849243,13.435029 15.43503,14.849243 z"
     id="path2831" />
  <path
     style="fill:#ffffff;fill-opacity:1;stroke:none"
     d="m 16,1.000001 c -6.6274166,-7e-7 -11.9999998,5.3725826 -11.9999991,12 L 7.0000011,13 C 7.0000011,8.029437 11.029437,4.0000005 16,4.0000005 l 2,-7e-7 0,-2.9999995 -2,7e-7 z"
     id="path2918" />
  <path
     style="fill:#000000;fill-opacity:1;stroke:none"
     d="M 16,4.0000005 C 11.029437,4.0000005 7.0000011,8.029437 7.0000011,13 l 0.9999996,10e-7 C 8.0000007,8.581722 11.581722,5.0000002 16,5.0000009 l 2,-7e-7 1e-6,-1.0000011 L 16,4.0000005 z"
     id="path2923" />
  <path
     style="fill:#000000;fill-opacity:1;stroke:none"
     d="M 11.000002,13.000001 5.5000006,18.5 1.06e-6,13.000001 l 11.00000094,0 z"
     id="path2964" />
  <path
     style="fill:#000000;fill-opacity:1;stroke:none"
     d="M 21,9.100506 11.100505,19 21,19 21,9.100506 z"
     id="path2966" />
</svg>
