<?xml version="1.0" encoding="UTF-8" standalone="no"?>
<svg
   xmlns:dc="http://purl.org/dc/elements/1.1/"
   xmlns:cc="http://creativecommons.org/ns#"
   xmlns:rdf="http://www.w3.org/1999/02/22-rdf-syntax-ns#"
   xmlns:svg="http://www.w3.org/2000/svg"
   xmlns="http://www.w3.org/2000/svg"
   xmlns:sodipodi="http://sodipodi.sourceforge.net/DTD/sodipodi-0.dtd"
   xmlns:inkscape="http://www.inkscape.org/namespaces/inkscape"
   version="1.0"
   width="32"
   height="19"
   id="svg2"
   inkscape:version="0.47 r22583"
   sodipodi:docname="02-05-016-01-02-07.svg">
  <defs
     id="defs16">
    <inkscape:perspective
       sodipodi:type="inkscape:persp3d"
       inkscape:vp_x="0 : 23 : 1"
       inkscape:vp_y="0 : 1000 : 0"
       inkscape:vp_z="36 : 23 : 1"
       inkscape:persp3d-origin="18 : 15.333333 : 1"
       id="perspective18" />
  </defs>
  <sodipodi:namedview
     pagecolor="#ffffff"
     bordercolor="#666666"
     borderopacity="1"
     objecttolerance="10"
     gridtolerance="10"
     guidetolerance="10"
     inkscape:pageopacity="0"
     inkscape:pageshadow="2"
     inkscape:window-width="964"
     inkscape:window-height="721"
     id="namedview14"
     showgrid="true"
     inkscape:zoom="16.421381"
     inkscape:cx="16.00186"
     inkscape:cy="9.5011043"
     inkscape:window-x="365"
     inkscape:window-y="0"
     inkscape:window-maximized="0"
     inkscape:current-layer="svg2"
     showborder="true">
    <inkscape:grid
       type="xygrid"
       id="grid2824"
       empspacing="5"
       visible="true"
       enabled="true"
       snapvisiblegridlinesonly="true" />
  </sodipodi:namedview>
  <metadata
     id="metadata4">
Valerie Sutton's pixel definition of the
ISWA 2010 symbol ID 04-01-003-01-01-01
transformed by Stephen E Slevinski Jr
using line and fill polygon tracing
<rdf:RDF>
  <cc:Work
     rdf:about="">
    <dc:format>image/svg+xml</dc:format>
    <dc:type
       rdf:resource="http://purl.org/dc/dcmitype/StillImage" />
    <dc:title />
  </cc:Work>
</rdf:RDF>
</metadata>
  <path
     style="fill:#000000;fill-opacity:1;stroke:none"
     d="m 25,10 0,2 -9,0 0,-2 9,0 z m -12,0 0,2 -13,0 0,-2 13,0 z"
     id="path2833" />
  <path
     style="fill:#000000;fill-opacity:1;stroke:none"
     d="M 9,6 20,6 14.5,0.5 9,6 z M 11.407631,5.006024 14.5,1.913655 l 3.070281,3.070281 -6.16265,0.02209 z"
     id="path2964" />
  <path
     style="fill:#000000;fill-opacity:1;stroke:none"
     d="m 25,18 7,-7 -7,-7 0,14 z M 26,15.5625 26,6.4375 30.5625,11 26,15.5625 z"
     id="path2997" />
  <path
     style="fill:#ffffff;fill-opacity:1;stroke:none"
     d="M 26,15.5625 30.5625,11 26,6.4375 l 0,9.125 z"
     id="path2966" />
  <path
     style="fill:#ffffff;fill-opacity:1;stroke:none"
     d="m 11.407632,5.006024 6.16265,-0.02209 -3.070281,-3.070281 -3.092369,3.092369 z"
     id="path2863" />
  <path
     style="fill:#000000;fill-opacity:1;stroke:none"
     d="m 14,5 0,10 c 0,1.104569 -0.671573,2 -1.5,2 C 11.671573,17 11,16.104569 11,15 l 0,-1 -5,0 0,1 c 0,2.209139 2.0147186,4 4.5,4 2.485281,0 4.5,-1.790861 4.5,-4 L 15,5 14,5 z"
     id="path2928" />
</svg>
