<?xml version="1.0" encoding="UTF-8" standalone="no"?>
<svg
   xmlns:dc="http://purl.org/dc/elements/1.1/"
   xmlns:cc="http://creativecommons.org/ns#"
   xmlns:rdf="http://www.w3.org/1999/02/22-rdf-syntax-ns#"
   xmlns:svg="http://www.w3.org/2000/svg"
   xmlns="http://www.w3.org/2000/svg"
   xmlns:sodipodi="http://sodipodi.sourceforge.net/DTD/sodipodi-0.dtd"
   xmlns:inkscape="http://www.inkscape.org/namespaces/inkscape"
   version="1.0"
   width="23"
   height="19"
   id="svg2"
   inkscape:version="0.47 r22583"
   sodipodi:docname="02-05-016-01-02-16.svg">
  <defs
     id="defs16">
    <inkscape:perspective
       sodipodi:type="inkscape:persp3d"
       inkscape:vp_x="0 : 23 : 1"
       inkscape:vp_y="0 : 1000 : 0"
       inkscape:vp_z="36 : 23 : 1"
       inkscape:persp3d-origin="18 : 15.333333 : 1"
       id="perspective18" />
  </defs>
  <sodipodi:namedview
     pagecolor="#ffffff"
     bordercolor="#666666"
     borderopacity="1"
     objecttolerance="10"
     gridtolerance="10"
     guidetolerance="10"
     inkscape:pageopacity="0"
     inkscape:pageshadow="2"
     inkscape:window-width="964"
     inkscape:window-height="721"
     id="namedview14"
     showgrid="true"
     inkscape:zoom="16.421381"
     inkscape:cx="11.501337"
     inkscape:cy="9.5011043"
     inkscape:window-x="365"
     inkscape:window-y="0"
     inkscape:window-maximized="0"
     inkscape:current-layer="svg2"
     showborder="true">
    <inkscape:grid
       type="xygrid"
       id="grid2824"
       empspacing="5"
       visible="true"
       enabled="true"
       snapvisiblegridlinesonly="true" />
  </sodipodi:namedview>
  <metadata
     id="metadata4">
Valerie Sutton's pixel definition of the
ISWA 2010 symbol ID 04-01-003-01-01-01
transformed by Stephen E Slevinski Jr
using line and fill polygon tracing
<rdf:RDF>
  <cc:Work
     rdf:about="">
    <dc:format>image/svg+xml</dc:format>
    <dc:type
       rdf:resource="http://purl.org/dc/dcmitype/StillImage" />
    <dc:title></dc:title>
  </cc:Work>
</rdf:RDF>
</metadata>
  <path
     style="fill:#000000;fill-opacity:1;stroke:none"
     d="m 18.999998,1.9999995 c 0,7.1797015 -5.820298,12.9999995 -13,12.9999995 l 0,-1 c 6.627417,0 12.000001,-5.3725825 12,-11.9999995 l 10e-7,-2 1,0 -10e-7,2 z"
     id="path2910" />
  <path
     style="fill:#ffffff;fill-opacity:1;stroke:none"
     d="m 17.999998,1.9999995 c 10e-7,6.627416 -5.372583,12.0000005 -12,11.9999995 l 2e-6,-3 c 4.970563,0 8.999998,-4.0294375 8.999998,-9.0000005 l 1e-6,-2 3,0 -10e-7,2 z"
     id="path2918" />
  <path
     style="fill:#000000;fill-opacity:1;stroke:none"
     d="M 17.434786,14.849242 3.999758,1.4142135 5.413972,-5e-7 18.848999,13.435029 17.434786,14.849242 z"
     id="path2833" />
  <path
     style="fill:#000000;fill-opacity:1;stroke:none"
     d="m 14.999998,2.0004995 c 0,4.970562 -4.029435,8.9999995 -8.999998,8.9999995 l -2e-6,-0.999999 c 4.41828,-1e-6 8.000001,-3.5817225 8,-8.0000005 l 1e-6,-2 1.000001,-1e-6 -2e-6,2.000001 z"
     id="path2923" />
  <path
     style="fill:#000000;fill-opacity:1;stroke:none"
     d="M 6,6.9999995 6,18 0.5,12.5 6,6.9999995 z M 5.006024,9.40763 1.913654,12.5 4.983936,15.57028 5.006026,9.40763 z"
     id="path2964" />
  <path
     style="fill:#000000;fill-opacity:1;stroke:none"
     d="m 13.100504,19 9.899495,0 0,-9.899495 L 13.100504,19 z m 2.430679,-1.016467 6.45235,-6.452348 0,6.452348 -6.45235,0 z"
     id="path2997" />
  <path
     style="fill:#ffffff;fill-opacity:1;stroke:none"
     d="m 15.531183,17.983533 6.45235,0 0,-6.452348 -6.45235,6.452348 z"
     id="path2966" />
  <path
     style="fill:#ffffff;fill-opacity:1;stroke:none"
     d="M 5.006024,9.40763 4.983934,15.57028 1.913653,12.5 5.006022,9.40763 z"
     id="path2863" />
</svg>
