<?xml version="1.0" encoding="UTF-8" standalone="no"?>
<svg
   xmlns:dc="http://purl.org/dc/elements/1.1/"
   xmlns:cc="http://creativecommons.org/ns#"
   xmlns:rdf="http://www.w3.org/1999/02/22-rdf-syntax-ns#"
   xmlns:svg="http://www.w3.org/2000/svg"
   xmlns="http://www.w3.org/2000/svg"
   xmlns:sodipodi="http://sodipodi.sourceforge.net/DTD/sodipodi-0.dtd"
   xmlns:inkscape="http://www.inkscape.org/namespaces/inkscape"
   version="1.0"
   width="21"
   height="19"
   id="svg2"
   inkscape:version="0.47 r22583"
   sodipodi:docname="02-05-016-01-04-08.svg">
  <defs
     id="defs16">
    <inkscape:perspective
       sodipodi:type="inkscape:persp3d"
       inkscape:vp_x="0 : 23 : 1"
       inkscape:vp_y="0 : 1000 : 0"
       inkscape:vp_z="36 : 23 : 1"
       inkscape:persp3d-origin="18 : 15.333333 : 1"
       id="perspective18" />
  </defs>
  <sodipodi:namedview
     pagecolor="#ffffff"
     bordercolor="#666666"
     borderopacity="1"
     objecttolerance="10"
     gridtolerance="10"
     guidetolerance="10"
     inkscape:pageopacity="0"
     inkscape:pageshadow="2"
     inkscape:window-width="964"
     inkscape:window-height="721"
     id="namedview14"
     showgrid="true"
     inkscape:zoom="16.421381"
     inkscape:cx="10.501221"
     inkscape:cy="9.5011043"
     inkscape:window-x="365"
     inkscape:window-y="0"
     inkscape:window-maximized="0"
     inkscape:current-layer="svg2"
     showborder="true">
    <inkscape:grid
       type="xygrid"
       id="grid2824"
       empspacing="5"
       visible="true"
       enabled="true"
       snapvisiblegridlinesonly="true" />
  </sodipodi:namedview>
  <metadata
     id="metadata4">
Valerie Sutton's pixel definition of the
ISWA 2010 symbol ID 04-01-003-01-01-01
transformed by Stephen E Slevinski Jr
using line and fill polygon tracing
<rdf:RDF>
  <cc:Work
     rdf:about="">
    <dc:format>image/svg+xml</dc:format>
    <dc:type
       rdf:resource="http://purl.org/dc/dcmitype/StillImage" />
    <dc:title></dc:title>
  </cc:Work>
</rdf:RDF>
</metadata>
  <path
     style="fill:#000000;fill-opacity:1;stroke:none"
     d="M 5.0000011,1e-6 C 12.179703,1e-6 18,5.820298 18,13.000001 l -1,0 C 17.000001,6.372584 11.627418,1 5.0000011,1.000001 l -2,-10e-7 0,-1 2,1e-6 z"
     id="path2910" />
  <path
     style="fill:#000000;fill-opacity:1;stroke:none"
     d="M 5.5649711,14.849243 19.000001,1.414214 17.585787,0 4.1507581,13.435029 l 1.414213,1.414214 z"
     id="path2831" />
  <path
     style="fill:#ffffff;fill-opacity:1;stroke:none"
     d="M 5.0000011,1.000001 C 11.627418,1 17.000001,6.372584 17,13.000001 L 14,13 C 14,8.029437 9.9705641,4.000001 5.0000011,4.000001 l -2,-1e-6 0,-3 2,10e-7 z"
     id="path2918" />
  <path
     style="fill:#000000;fill-opacity:1;stroke:none"
     d="M 5.0000011,4.000001 C 9.9705641,4.000001 14,8.029437 14,13 l -1,10e-7 C 13,8.581722 9.4182791,5 5.0000011,5.000001 l -2,-1e-6 -1e-6,-1.000001 2.000001,2e-6 z"
     id="path2923" />
  <path
     style="fill:#000000;fill-opacity:1;stroke:none"
     d="M 9.9999991,13.000001 15.5,18.5 21,13.000001 l -11.0000009,0 z"
     id="path2964" />
  <path
     style="fill:#000000;fill-opacity:1;stroke:none"
     d="M 1.06e-6,9.100506 9.8994961,19 1.06e-6,19 l 0,-9.899494 z"
     id="path2966" />
</svg>
