<?xml version="1.0" encoding="UTF-8" standalone="no"?>
<svg
   xmlns:dc="http://purl.org/dc/elements/1.1/"
   xmlns:cc="http://creativecommons.org/ns#"
   xmlns:rdf="http://www.w3.org/1999/02/22-rdf-syntax-ns#"
   xmlns:svg="http://www.w3.org/2000/svg"
   xmlns="http://www.w3.org/2000/svg"
   xmlns:sodipodi="http://sodipodi.sourceforge.net/DTD/sodipodi-0.dtd"
   xmlns:inkscape="http://www.inkscape.org/namespaces/inkscape"
   version="1.0"
   width="23"
   height="40"
   id="svg2"
   inkscape:version="0.47 r22583"
   sodipodi:docname="02-08-010-04-03-03.svg">
  <defs
     id="defs16">
    <inkscape:perspective
       sodipodi:type="inkscape:persp3d"
       inkscape:vp_x="0 : 23 : 1"
       inkscape:vp_y="0 : 1000 : 0"
       inkscape:vp_z="36 : 23 : 1"
       inkscape:persp3d-origin="18 : 15.333333 : 1"
       id="perspective18" />
  </defs>
  <sodipodi:namedview
     pagecolor="#ffffff"
     bordercolor="#666666"
     borderopacity="1"
     objecttolerance="10"
     gridtolerance="10"
     guidetolerance="10"
     inkscape:pageopacity="0"
     inkscape:pageshadow="2"
     inkscape:window-width="964"
     inkscape:window-height="721"
     id="namedview14"
     showgrid="true"
     inkscape:zoom="11.825"
     inkscape:cx="11.5"
     inkscape:cy="20"
     inkscape:window-x="365"
     inkscape:window-y="0"
     inkscape:window-maximized="0"
     inkscape:current-layer="svg2"
     showborder="true">
    <inkscape:grid
       type="xygrid"
       id="grid2824"
       empspacing="5"
       visible="true"
       enabled="true"
       snapvisiblegridlinesonly="true" />
  </sodipodi:namedview>
  <metadata
     id="metadata4">
Valerie Sutton's pixel definition of the
ISWA 2010 symbol ID 04-01-003-01-01-01
transformed by Stephen E Slevinski Jr
using line and fill polygon tracing
<rdf:RDF>
  <cc:Work
     rdf:about="">
    <dc:format>image/svg+xml</dc:format>
    <dc:type
       rdf:resource="http://purl.org/dc/dcmitype/StillImage" />
    <dc:title></dc:title>
  </cc:Work>
</rdf:RDF>
</metadata>
  <path
     style="fill:#000000;fill-opacity:1;stroke:none"
     d="M 8 0 L 0 8 L 16 8 L 8 0 z M 8 1.4375 L 13.5625 7 L 2.4375 7 L 8 1.4375 z "
     id="path2839" />
  <path
     style="fill:#000000;fill-opacity:1;stroke:none"
     d="M 7 8 L 7 36 C 7 38.209139 8.790861 40 11 40 L 15 40 C 19.418278 40 23 36.418278 23 32 L 13 32 L 13 35 C 13 36.656854 12.104569 38 11 38 C 9.8954305 38 9 37.104569 9 36 L 9 29.4375 C 9.591327 29.77929 10.267004 30 11 30 C 13.209139 30 15 28.209139 15 26 C 15 23.790861 13.209139 22 11 22 C 10.267004 22 9.591327 22.22071 9 22.5625 L 9 19.4375 C 9.591327 19.77929 10.267004 20 11 20 C 13.209139 20 15 18.209139 15 16 C 15 13.790861 13.209139 12 11 12 C 10.267004 12 9.591327 12.22071 9 12.5625 L 9 8 L 7 8 z M 11 14 C 12.104569 14 13 14.895431 13 16 C 13 17.104569 12.104569 18 11 18 C 9.8954305 18 9 17.104569 9 16 C 9 14.895431 9.8954305 14 11 14 z M 11 24 C 12.104569 24 13 24.895431 13 26 C 13 27.104569 12.104569 28 11 28 C 9.8954305 28 9 27.104569 9 26 C 9 24.895431 9.8954305 24 11 24 z "
     id="path2816" />
  <path
     style="fill:#ffffff;fill-opacity:1;stroke:none"
     d="M 8 1.4375 L 2.4375 7 L 13.5625 7 L 8 1.4375 z "
     id="path3278" />
</svg>
