<?xml version="1.0" encoding="UTF-8" standalone="no"?>
<svg
   xmlns:dc="http://purl.org/dc/elements/1.1/"
   xmlns:cc="http://creativecommons.org/ns#"
   xmlns:rdf="http://www.w3.org/1999/02/22-rdf-syntax-ns#"
   xmlns:svg="http://www.w3.org/2000/svg"
   xmlns="http://www.w3.org/2000/svg"
   xmlns:sodipodi="http://sodipodi.sourceforge.net/DTD/sodipodi-0.dtd"
   xmlns:inkscape="http://www.inkscape.org/namespaces/inkscape"
   version="1.0"
   width="23"
   height="49"
   id="svg2"
   inkscape:version="0.47 r22583"
   sodipodi:docname="02-08-010-02-01-05.svg">
  <defs
     id="defs16">
    <inkscape:perspective
       sodipodi:type="inkscape:persp3d"
       inkscape:vp_x="0 : 23 : 1"
       inkscape:vp_y="0 : 1000 : 0"
       inkscape:vp_z="36 : 23 : 1"
       inkscape:persp3d-origin="18 : 15.333333 : 1"
       id="perspective18" />
  </defs>
  <sodipodi:namedview
     pagecolor="#ffffff"
     bordercolor="#666666"
     borderopacity="1"
     objecttolerance="10"
     gridtolerance="10"
     guidetolerance="10"
     inkscape:pageopacity="0"
     inkscape:pageshadow="2"
     inkscape:window-width="964"
     inkscape:window-height="721"
     id="namedview14"
     showgrid="true"
     inkscape:zoom="9.6530612"
     inkscape:cx="11.5"
     inkscape:cy="24.5"
     inkscape:window-x="365"
     inkscape:window-y="0"
     inkscape:window-maximized="0"
     inkscape:current-layer="svg2"
     showborder="true">
    <inkscape:grid
       type="xygrid"
       id="grid2824"
       empspacing="5"
       visible="true"
       enabled="true"
       snapvisiblegridlinesonly="true" />
  </sodipodi:namedview>
  <metadata
     id="metadata4">
Valerie Sutton's pixel definition of the
ISWA 2010 symbol ID 04-01-003-01-01-01
transformed by Stephen E Slevinski Jr
using line and fill polygon tracing
<rdf:RDF>
  <cc:Work
     rdf:about="">
    <dc:format>image/svg+xml</dc:format>
    <dc:type
       rdf:resource="http://purl.org/dc/dcmitype/StillImage" />
    <dc:title></dc:title>
  </cc:Work>
</rdf:RDF>
</metadata>
  <path
     style="fill:#000000;fill-opacity:1;stroke:none"
     d="m 0,40 8,-8 8,8 -16,0 z"
     id="path2839" />
  <path
     style="fill:#000000;fill-opacity:1;stroke:none"
     d="M 21 0 L 21 11.75 C 20.2881 11.269422 19.427885 11 18.5 11 C 16.014719 11 14 13.014719 14 15.5 C 14 17.985281 16.014719 20 18.5 20 C 19.427885 20 20.2881 19.730578 21 19.25 L 21 23.75 C 20.2881 23.269422 19.427885 23 18.5 23 C 16.014719 23 14 25.014719 14 27.5 C 14 29.985281 16.014719 32 18.5 32 C 19.427885 32 20.2881 31.730578 21 31.25 L 21 43 C 21 45.209139 19.209139 47 17 47 C 14.238576 47 12 43.865993 12 40 L 4 40 C 4 44.970563 8.0294373 49 13 49 L 17 49 C 20.313708 49 23 46.313708 23 43 L 23 0 L 21 0 z M 18.5 13 C 19.880712 13 21 14.119288 21 15.5 C 21 16.880712 19.880712 18 18.5 18 C 17.119288 18 16 16.880712 16 15.5 C 16 14.119288 17.119288 13 18.5 13 z M 18.5 25 C 19.880712 25 21 26.119288 21 27.5 C 21 28.880712 19.880712 30 18.5 30 C 17.119288 30 16 28.880712 16 27.5 C 16 26.119288 17.119288 25 18.5 25 z "
     id="path2825" />
</svg>
