<?xml version="1.0" encoding="UTF-8" standalone="no"?>
<svg
   xmlns:dc="http://purl.org/dc/elements/1.1/"
   xmlns:cc="http://creativecommons.org/ns#"
   xmlns:rdf="http://www.w3.org/1999/02/22-rdf-syntax-ns#"
   xmlns:svg="http://www.w3.org/2000/svg"
   xmlns="http://www.w3.org/2000/svg"
   xmlns:sodipodi="http://sodipodi.sourceforge.net/DTD/sodipodi-0.dtd"
   xmlns:inkscape="http://www.inkscape.org/namespaces/inkscape"
   version="1.0"
   width="36"
   height="28"
   id="svg2"
   inkscape:version="0.47 r22583"
   sodipodi:docname="02-08-010-04-03-08.svg">
  <defs
     id="defs16">
    <inkscape:perspective
       sodipodi:type="inkscape:persp3d"
       inkscape:vp_x="0 : 23 : 1"
       inkscape:vp_y="0 : 1000 : 0"
       inkscape:vp_z="36 : 23 : 1"
       inkscape:persp3d-origin="18 : 15.333333 : 1"
       id="perspective18" />
  </defs>
  <sodipodi:namedview
     pagecolor="#ffffff"
     bordercolor="#666666"
     borderopacity="1"
     objecttolerance="10"
     gridtolerance="10"
     guidetolerance="10"
     inkscape:pageopacity="0"
     inkscape:pageshadow="2"
     inkscape:window-width="964"
     inkscape:window-height="721"
     id="namedview14"
     showgrid="true"
     inkscape:zoom="16.892857"
     inkscape:cx="18"
     inkscape:cy="14"
     inkscape:window-x="365"
     inkscape:window-y="0"
     inkscape:window-maximized="0"
     inkscape:current-layer="svg2"
     showborder="true">
    <inkscape:grid
       type="xygrid"
       id="grid2824"
       empspacing="5"
       visible="true"
       enabled="true"
       snapvisiblegridlinesonly="true" />
  </sodipodi:namedview>
  <metadata
     id="metadata4">
Valerie Sutton's pixel definition of the
ISWA 2010 symbol ID 04-01-003-01-01-01
transformed by Stephen E Slevinski Jr
using line and fill polygon tracing
<rdf:RDF>
  <cc:Work
     rdf:about="">
    <dc:format>image/svg+xml</dc:format>
    <dc:type
       rdf:resource="http://purl.org/dc/dcmitype/StillImage" />
    <dc:title></dc:title>
  </cc:Work>
</rdf:RDF>
</metadata>
  <path
     style="fill:#000000;fill-opacity:1;stroke:none"
     d="m 0,0 0,11.313709 1.414213,-1.4142141 0,-8.4852813 8.4852821,0 L 11.313708,0 0,0 z"
     id="path2839" />
  <path
     style="fill:#000000;fill-opacity:1;stroke:none"
     d="m 4.949747,6.3639609 19.79899,19.7989901 c 1.562097,1.562097 4.094757,1.562097 5.656854,0 l 2.828427,-2.828427 c 3.124195,-3.124194 3.124195,-8.189514 0,-11.313709 l -7.071068,7.071068 2.121321,2.121321 c 1.171572,1.171572 1.488155,2.754485 0.707107,3.535533 -0.781049,0.781049 -2.047379,0.781049 -2.828428,0 l -4.640388,-4.640388 c 0.659814,-0.176449 1.293655,-0.498159 1.811961,-1.016466 1.562098,-1.562097 1.562098,-4.094757 0,-5.656854 -1.562097,-1.562097 -4.094757,-1.562097 -5.656854,0 -0.518306,0.518306 -0.840017,1.152148 -1.016466,1.811961 l -2.209709,-2.209709 c 0.659814,-0.176449 1.293655,-0.498159 1.811962,-1.016466 1.562097,-1.562097 1.562097,-4.0947571 0,-5.6568541 -1.562098,-1.562097 -4.094757,-1.562097 -5.656855,0 -0.518306,0.518307 -0.8400159,1.152148 -1.0164659,1.811961 L 6.363961,4.9497479 4.949747,6.3639609 z m 7.071068,1.414214 c 0.781048,-0.781049 2.047379,-0.781049 2.828427,0 0.781048,0.781048 0.781048,2.047379 0,2.8284271 -0.781049,0.781049 -2.047379,0.781048 -2.828427,0 -0.781048,-0.7810481 -0.781049,-2.0473781 0,-2.8284271 z m 7.071068,7.0710681 c 0.781048,-0.781049 2.047379,-0.781049 2.828427,0 0.781048,0.781048 0.781048,2.047378 0,2.828427 -0.781049,0.781049 -2.047379,0.781048 -2.828427,0 -0.781049,-0.781049 -0.781049,-2.047379 0,-2.828427 z"
     id="path2816" />
</svg>
