<?xml version="1.0" encoding="UTF-8" standalone="no"?>
<svg
   xmlns:dc="http://purl.org/dc/elements/1.1/"
   xmlns:cc="http://creativecommons.org/ns#"
   xmlns:rdf="http://www.w3.org/1999/02/22-rdf-syntax-ns#"
   xmlns:svg="http://www.w3.org/2000/svg"
   xmlns="http://www.w3.org/2000/svg"
   xmlns:sodipodi="http://sodipodi.sourceforge.net/DTD/sodipodi-0.dtd"
   xmlns:inkscape="http://www.inkscape.org/namespaces/inkscape"
   version="1.0"
   width="16"
   height="49"
   id="svg2"
   inkscape:version="0.47 r22583"
   sodipodi:docname="02-08-010-04-04-07.svg">
  <defs
     id="defs16">
    <inkscape:perspective
       sodipodi:type="inkscape:persp3d"
       inkscape:vp_x="0 : 23 : 1"
       inkscape:vp_y="0 : 1000 : 0"
       inkscape:vp_z="36 : 23 : 1"
       inkscape:persp3d-origin="18 : 15.333333 : 1"
       id="perspective18" />
  </defs>
  <sodipodi:namedview
     pagecolor="#ffffff"
     bordercolor="#666666"
     borderopacity="1"
     objecttolerance="10"
     gridtolerance="10"
     guidetolerance="10"
     inkscape:pageopacity="0"
     inkscape:pageshadow="2"
     inkscape:window-width="964"
     inkscape:window-height="721"
     id="namedview14"
     showgrid="true"
     inkscape:zoom="9.6530612"
     inkscape:cx="8"
     inkscape:cy="24.5"
     inkscape:window-x="365"
     inkscape:window-y="0"
     inkscape:window-maximized="0"
     inkscape:current-layer="svg2"
     showborder="true">
    <inkscape:grid
       type="xygrid"
       id="grid2824"
       empspacing="5"
       visible="true"
       enabled="true"
       snapvisiblegridlinesonly="true" />
  </sodipodi:namedview>
  <metadata
     id="metadata4">
Valerie Sutton's pixel definition of the
ISWA 2010 symbol ID 04-01-003-01-01-01
transformed by Stephen E Slevinski Jr
using line and fill polygon tracing
<rdf:RDF>
  <cc:Work
     rdf:about="">
    <dc:format>image/svg+xml</dc:format>
    <dc:type
       rdf:resource="http://purl.org/dc/dcmitype/StillImage" />
    <dc:title></dc:title>
  </cc:Work>
</rdf:RDF>
</metadata>
  <path
     style="fill:#000000;fill-opacity:1;stroke:none"
     d="m 14,0 0,11.75 C 13.2881,11.269422 12.427885,11 11.5,11 9.014719,11 7,13.014719 7,15.5 c 0,2.485281 2.014719,4.5 4.5,4.5 0.927885,0 1.7881,-0.269422 2.5,-0.75 l 0,4.5 C 13.2881,23.269422 12.427885,23 11.5,23 9.014719,23 7,25.014719 7,27.5 7,29.985281 9.014719,32 11.5,32 12.427885,32 13.2881,31.730578 14,31.25 L 14,43 c 0,2.209139 -1.790861,4 -4,4 -4.418278,0 -8,-3.134007 -8,-7 l -2,0 c 0,4.970563 4.477153,9 10,9 3.313708,0 6,-2.686292 6,-6 L 16,0 14,0 z M 11.5,13 C 12.880712,13 14,14.119288 14,15.5 14,16.880712 12.880712,18 11.5,18 10.119288,18 9,16.880712 9,15.5 9,14.119288 10.119288,13 11.5,13 z m 0,12 C 12.880712,25 14,26.119288 14,27.5 14,28.880712 12.880712,30 11.5,30 10.119288,30 9,28.880712 9,27.5 9,26.119288 10.119288,25 11.5,25 z"
     id="path2825" />
</svg>
