<?xml version="1.0" encoding="UTF-8" standalone="no"?>
<svg
   xmlns:dc="http://purl.org/dc/elements/1.1/"
   xmlns:cc="http://creativecommons.org/ns#"
   xmlns:rdf="http://www.w3.org/1999/02/22-rdf-syntax-ns#"
   xmlns:svg="http://www.w3.org/2000/svg"
   xmlns="http://www.w3.org/2000/svg"
   xmlns:sodipodi="http://sodipodi.sourceforge.net/DTD/sodipodi-0.dtd"
   xmlns:inkscape="http://www.inkscape.org/namespaces/inkscape"
   version="1.0"
   width="23"
   height="49"
   id="svg2"
   inkscape:version="0.47 r22583"
   sodipodi:docname="02-08-010-04-01-05.svg">
  <defs
     id="defs16">
    <inkscape:perspective
       sodipodi:type="inkscape:persp3d"
       inkscape:vp_x="0 : 23 : 1"
       inkscape:vp_y="0 : 1000 : 0"
       inkscape:vp_z="36 : 23 : 1"
       inkscape:persp3d-origin="18 : 15.333333 : 1"
       id="perspective18" />
  </defs>
  <sodipodi:namedview
     pagecolor="#ffffff"
     bordercolor="#666666"
     borderopacity="1"
     objecttolerance="10"
     gridtolerance="10"
     guidetolerance="10"
     inkscape:pageopacity="0"
     inkscape:pageshadow="2"
     inkscape:window-width="964"
     inkscape:window-height="721"
     id="namedview14"
     showgrid="true"
     inkscape:zoom="9.6530612"
     inkscape:cx="11.5"
     inkscape:cy="24.5"
     inkscape:window-x="365"
     inkscape:window-y="0"
     inkscape:window-maximized="0"
     inkscape:current-layer="svg2"
     showborder="true">
    <inkscape:grid
       type="xygrid"
       id="grid2824"
       empspacing="5"
       visible="true"
       enabled="true"
       snapvisiblegridlinesonly="true" />
  </sodipodi:namedview>
  <metadata
     id="metadata4">
Valerie Sutton's pixel definition of the
ISWA 2010 symbol ID 04-01-003-01-01-01
transformed by Stephen E Slevinski Jr
using line and fill polygon tracing
<rdf:RDF>
  <cc:Work
     rdf:about="">
    <dc:format>image/svg+xml</dc:format>
    <dc:type
       rdf:resource="http://purl.org/dc/dcmitype/StillImage" />
    <dc:title></dc:title>
  </cc:Work>
</rdf:RDF>
</metadata>
  <path
     style="fill:#000000;fill-opacity:1;stroke:none"
     d="m 23,40 -8,-8 -8,8 16,0 z"
     id="path2839" />
  <path
     style="fill:#000000;fill-opacity:1;stroke:none"
     d="M 2,0 2,11.75 C 2.7119,11.269422 3.572115,11 4.5,11 6.985281,11 9,13.014719 9,15.5 9,17.985281 6.985281,20 4.5,20 3.572115,20 2.7119,19.730578 2,19.25 l 0,4.5 C 2.7119,23.269422 3.572115,23 4.5,23 6.985281,23 9,25.014719 9,27.5 9,29.985281 6.985281,32 4.5,32 3.572115,32 2.7119,31.730578 2,31.25 L 2,43 c 0,2.209139 1.790861,4 4,4 2.761424,0 5,-3.134007 5,-7 l 8,0 c 0,4.970563 -4.029437,9 -9,9 L 6,49 C 2.686292,49 0,46.313708 0,43 L 0,0 2,0 z M 4.5,13 C 3.119288,13 2,14.119288 2,15.5 2,16.880712 3.119288,18 4.5,18 5.880712,18 7,16.880712 7,15.5 7,14.119288 5.880712,13 4.5,13 z m 0,12 C 3.119288,25 2,26.119288 2,27.5 2,28.880712 3.119288,30 4.5,30 5.880712,30 7,28.880712 7,27.5 7,26.119288 5.880712,25 4.5,25 z"
     id="path2825" />
</svg>
