<?xml version="1.0" encoding="UTF-8" standalone="no"?>
<svg
   xmlns:dc="http://purl.org/dc/elements/1.1/"
   xmlns:cc="http://creativecommons.org/ns#"
   xmlns:rdf="http://www.w3.org/1999/02/22-rdf-syntax-ns#"
   xmlns:svg="http://www.w3.org/2000/svg"
   xmlns="http://www.w3.org/2000/svg"
   xmlns:sodipodi="http://sodipodi.sourceforge.net/DTD/sodipodi-0.dtd"
   xmlns:inkscape="http://www.inkscape.org/namespaces/inkscape"
   version="1.0"
   width="34"
   height="18"
   id="svg2"
   inkscape:version="0.47 r22583"
   sodipodi:docname="02-08-004-01-02-06.svg">
  <defs
     id="defs16">
    <inkscape:perspective
       sodipodi:type="inkscape:persp3d"
       inkscape:vp_x="0 : 23 : 1"
       inkscape:vp_y="0 : 1000 : 0"
       inkscape:vp_z="36 : 23 : 1"
       inkscape:persp3d-origin="18 : 15.333333 : 1"
       id="perspective18" />
  </defs>
  <sodipodi:namedview
     pagecolor="#ffffff"
     bordercolor="#666666"
     borderopacity="1"
     objecttolerance="10"
     gridtolerance="10"
     guidetolerance="10"
     inkscape:pageopacity="0"
     inkscape:pageshadow="2"
     inkscape:window-width="964"
     inkscape:window-height="721"
     id="namedview14"
     showgrid="true"
     inkscape:zoom="16.738612"
     inkscape:cx="16.997105"
     inkscape:cy="8.9984675"
     inkscape:window-x="365"
     inkscape:window-y="0"
     inkscape:window-maximized="0"
     inkscape:current-layer="svg2"
     showborder="true">
    <inkscape:grid
       type="xygrid"
       id="grid2824"
       empspacing="5"
       visible="true"
       enabled="true"
       snapvisiblegridlinesonly="true" />
  </sodipodi:namedview>
  <metadata
     id="metadata4">
Valerie Sutton's pixel definition of the
ISWA 2010 symbol ID 04-01-003-01-01-01
transformed by Stephen E Slevinski Jr
using line and fill polygon tracing
<rdf:RDF>
  <cc:Work
     rdf:about="">
    <dc:format>image/svg+xml</dc:format>
    <dc:type
       rdf:resource="http://purl.org/dc/dcmitype/StillImage" />
    <dc:title></dc:title>
  </cc:Work>
</rdf:RDF>
</metadata>
  <path
     style="fill:#000000;fill-opacity:1;stroke:none"
     d="m 2.1801951,0.322331 8.7062519,8.706252 c 0.781049,0.781048 2.047379,0.781048 2.828427,0 0.390524,-0.390524 0.574525,-0.902369 0.574525,-1.414214 l -0.08839,-1.149048 c 0,-1.02369 0.412193,-2.047378 1.193242,-2.828427 1.562097,-1.562098 4.094757,-1.562098 5.656854,0 l 3.756505,3.756504 c 1.699673,1.699674 7.071068,1.414214 7.071068,1.414214 L 24.80761,15.87868 c 0,0 0.28546,-5.371395 -1.414213,-7.071068 L 19.636894,5.051107 c -0.781049,-0.781048 -2.047378,-0.781049 -2.828427,0 -0.390524,0.390524 -0.574525,0.902369 -0.574525,1.414214 l 0.08839,1.149048 c 0,1.02369 -0.412193,2.047378 -1.193242,2.828427 -1.562098,1.562098 -4.094757,1.562098 -5.6568545,0 L 0.7659812,1.736544 2.1801948,0.322331 z"
     id="path3229" />
  <path
     style="fill:#000000;fill-opacity:1;stroke:none"
     d="M 34,6.686292 34,18 22.686292,18 34,6.686292 z m -0.994369,2.408582 -7.910757,7.910757 7.88866,-0.0221 0.0221,-7.88866 z"
     id="path3362" />
  <path
     style="fill:#ffffff;fill-opacity:1;stroke:none"
     d="m 33.005631,9.094874 -0.0221,7.88866 -7.88866,0.0221 7.910757,-7.910757 z"
     id="path2839" />
</svg>
