<?xml version="1.0" encoding="UTF-8" standalone="no"?>
<svg
   xmlns:dc="http://purl.org/dc/elements/1.1/"
   xmlns:cc="http://creativecommons.org/ns#"
   xmlns:rdf="http://www.w3.org/1999/02/22-rdf-syntax-ns#"
   xmlns:svg="http://www.w3.org/2000/svg"
   xmlns="http://www.w3.org/2000/svg"
   xmlns:sodipodi="http://sodipodi.sourceforge.net/DTD/sodipodi-0.dtd"
   xmlns:inkscape="http://www.inkscape.org/namespaces/inkscape"
   version="1.0"
   width="30"
   height="14"
   id="svg2"
   inkscape:version="0.47 r22583"
   sodipodi:docname="02-08-004-01-02-04.svg">
  <defs
     id="defs16">
    <inkscape:perspective
       sodipodi:type="inkscape:persp3d"
       inkscape:vp_x="0 : 23 : 1"
       inkscape:vp_y="0 : 1000 : 0"
       inkscape:vp_z="36 : 23 : 1"
       inkscape:persp3d-origin="18 : 15.333333 : 1"
       id="perspective18" />
  </defs>
  <sodipodi:namedview
     pagecolor="#ffffff"
     bordercolor="#666666"
     borderopacity="1"
     objecttolerance="10"
     gridtolerance="10"
     guidetolerance="10"
     inkscape:pageopacity="0"
     inkscape:pageshadow="2"
     inkscape:window-width="964"
     inkscape:window-height="721"
     id="namedview14"
     showgrid="true"
     inkscape:zoom="16.514684"
     inkscape:cx="15"
     inkscape:cy="7"
     inkscape:window-x="365"
     inkscape:window-y="0"
     inkscape:window-maximized="0"
     inkscape:current-layer="svg2"
     showborder="true">
    <inkscape:grid
       type="xygrid"
       id="grid2824"
       empspacing="5"
       visible="true"
       enabled="true"
       snapvisiblegridlinesonly="true" />
  </sodipodi:namedview>
  <metadata
     id="metadata4">
Valerie Sutton's pixel definition of the
ISWA 2010 symbol ID 04-01-003-01-01-01
transformed by Stephen E Slevinski Jr
using line and fill polygon tracing
<rdf:RDF>
  <cc:Work
     rdf:about="">
    <dc:format>image/svg+xml</dc:format>
    <dc:type
       rdf:resource="http://purl.org/dc/dcmitype/StillImage" />
    <dc:title></dc:title>
  </cc:Work>
</rdf:RDF>
</metadata>
  <path
     style="fill:#000000;fill-opacity:1;stroke:none"
     d="m 27.819805,0.322331 -8.706252,8.706252 c -0.781049,0.781048 -2.047379,0.781048 -2.828427,0 C 15.894602,8.638059 15.710601,8.126214 15.710601,7.614369 l 0.08839,-1.149048 c 0,-1.02369 -0.412194,-2.047378 -1.193243,-2.828427 -1.562097,-1.562098 -4.094757,-1.562098 -5.6568541,0 l -7.9991455,7.999145 1.4142136,1.414214 7.999145,-7.999146 c 0.781048,-0.781048 2.047379,-0.781048 2.828427,0 0.390524,0.390524 0.574525,0.902369 0.574525,1.414214 l -0.08839,1.149048 c 0,1.02369 0.412194,2.047378 1.193243,2.828427 1.562097,1.562098 4.094757,1.562098 5.656854,0 L 29.234018,1.736544 27.819805,0.322331 z"
     id="path3229" />
</svg>
