<?xml version="1.0" encoding="UTF-8" standalone="no"?>
<svg
   xmlns:dc="http://purl.org/dc/elements/1.1/"
   xmlns:cc="http://creativecommons.org/ns#"
   xmlns:rdf="http://www.w3.org/1999/02/22-rdf-syntax-ns#"
   xmlns:svg="http://www.w3.org/2000/svg"
   xmlns="http://www.w3.org/2000/svg"
   xmlns:sodipodi="http://sodipodi.sourceforge.net/DTD/sodipodi-0.dtd"
   xmlns:inkscape="http://www.inkscape.org/namespaces/inkscape"
   version="1.0"
   width="33"
   height="17"
   id="svg2"
   inkscape:version="0.47 r22583"
   sodipodi:docname="02-08-004-01-03-08.svg">
  <defs
     id="defs16">
    <inkscape:perspective
       sodipodi:type="inkscape:persp3d"
       inkscape:vp_x="0 : 23 : 1"
       inkscape:vp_y="0 : 1000 : 0"
       inkscape:vp_z="36 : 23 : 1"
       inkscape:persp3d-origin="18 : 15.333333 : 1"
       id="perspective18" />
  </defs>
  <sodipodi:namedview
     pagecolor="#ffffff"
     bordercolor="#666666"
     borderopacity="1"
     objecttolerance="10"
     gridtolerance="10"
     guidetolerance="10"
     inkscape:pageopacity="0"
     inkscape:pageshadow="2"
     inkscape:window-width="964"
     inkscape:window-height="721"
     id="namedview14"
     showgrid="true"
     inkscape:zoom="16.094819"
     inkscape:cx="16.498088"
     inkscape:cy="8.4990151"
     inkscape:window-x="365"
     inkscape:window-y="0"
     inkscape:window-maximized="0"
     inkscape:current-layer="svg2"
     showborder="true">
    <inkscape:grid
       type="xygrid"
       id="grid2824"
       empspacing="5"
       visible="true"
       enabled="true"
       snapvisiblegridlinesonly="true" />
  </sodipodi:namedview>
  <metadata
     id="metadata4">
Valerie Sutton's pixel definition of the
ISWA 2010 symbol ID 04-01-003-01-01-01
transformed by Stephen E Slevinski Jr
using line and fill polygon tracing
<rdf:RDF>
  <cc:Work
     rdf:about="">
    <dc:format>image/svg+xml</dc:format>
    <dc:type
       rdf:resource="http://purl.org/dc/dcmitype/StillImage" />
    <dc:title></dc:title>
  </cc:Work>
</rdf:RDF>
</metadata>
  <path
     style="fill:#000000;fill-opacity:1;stroke:none"
     d="m 0,0 0,9.8994952 1.414213,-1.414214 0,-7.0710676 7.071068,0 L 9.8994947,0 0,0 z"
     id="path2839" />
  <path
     style="fill:#000000;fill-opacity:1;stroke:none"
     d="m 4.24264,5.6568542 4.242641,4.242641 c 1.952622,1.9526208 5.118446,1.9526208 7.071068,0 0.976311,-0.976311 1.458408,-2.255923 1.458408,-3.535534 l 0,-1.06066 c 0,-0.255922 0.114096,-0.511845 0.309359,-0.707107 0.390524,-0.390525 1.023689,-0.390525 1.414214,0 l 2.474873,2.474874 c 2.538592,2.538591 4.242641,9.8994948 4.242641,9.8994948 l 7.071068,-7.0710678 c 0,0 -7.360904,-1.70405 -9.899495,-4.242641 l -2.474874,-2.474874 c -1.171573,-1.1715724 -3.071068,-1.1715724 -4.242641,0 -0.585786,0.585787 -0.883883,1.353554 -0.883883,2.121321 l 0,1.06066 c 0,0.767766 -0.298097,1.535534 -0.883884,2.12132 -1.171572,1.171573 -3.071068,1.171573 -4.2426403,0 L 5.656854,4.2426402 4.24264,5.6568542 z"
     id="path2814" />
</svg>
