<?xml version="1.0" encoding="UTF-8" standalone="no"?>
<svg
   xmlns:dc="http://purl.org/dc/elements/1.1/"
   xmlns:cc="http://creativecommons.org/ns#"
   xmlns:rdf="http://www.w3.org/1999/02/22-rdf-syntax-ns#"
   xmlns:svg="http://www.w3.org/2000/svg"
   xmlns="http://www.w3.org/2000/svg"
   xmlns:sodipodi="http://sodipodi.sourceforge.net/DTD/sodipodi-0.dtd"
   xmlns:inkscape="http://www.inkscape.org/namespaces/inkscape"
   version="1.0"
   width="24"
   height="21"
   id="svg2"
   inkscape:version="0.47 r22583"
   sodipodi:docname="02-08-011-01-04-04.svg">
  <defs
     id="defs16">
    <inkscape:perspective
       sodipodi:type="inkscape:persp3d"
       inkscape:vp_x="0 : 23 : 1"
       inkscape:vp_y="0 : 1000 : 0"
       inkscape:vp_z="36 : 23 : 1"
       inkscape:persp3d-origin="18 : 15.333333 : 1"
       id="perspective18" />
  </defs>
  <sodipodi:namedview
     pagecolor="#ffffff"
     bordercolor="#666666"
     borderopacity="1"
     objecttolerance="10"
     gridtolerance="10"
     guidetolerance="10"
     inkscape:pageopacity="0"
     inkscape:pageshadow="2"
     inkscape:window-width="964"
     inkscape:window-height="721"
     id="namedview14"
     showgrid="true"
     inkscape:zoom="17.062634"
     inkscape:cx="11.997827"
     inkscape:cy="10.498098"
     inkscape:window-x="365"
     inkscape:window-y="0"
     inkscape:window-maximized="0"
     inkscape:current-layer="svg2"
     showborder="true">
    <inkscape:grid
       type="xygrid"
       id="grid2824"
       empspacing="5"
       visible="true"
       enabled="true"
       snapvisiblegridlinesonly="true" />
  </sodipodi:namedview>
  <metadata
     id="metadata4">
Valerie Sutton's pixel definition of the
ISWA 2010 symbol ID 04-01-003-01-01-01
transformed by Stephen E Slevinski Jr
using line and fill polygon tracing
<rdf:RDF>
  <cc:Work
     rdf:about="">
    <dc:format>image/svg+xml</dc:format>
    <dc:type
       rdf:resource="http://purl.org/dc/dcmitype/StillImage" />
    <dc:title></dc:title>
  </cc:Work>
</rdf:RDF>
</metadata>
  <path
     style="fill:#000000;fill-opacity:1;stroke:none"
     d="m 2.5649706,2.2928932 c 2.343145,-2.3431454 6.142135,-2.3431457 8.4852814,0 1.171573,1.1715731 1.767768,2.7071067 1.767767,4.2426405 l -0.132582,7.0710683 c 0,1.02369 0.412194,2.047379 1.193242,2.828427 l 0.707107,0.707107 c 1.171573,1.171573 3.071068,1.171573 4.242641,0 2.73367,-2.73367 3.366835,-6.53266 1.414213,-8.4852813 l 1.414214,-1.414214 c 2.73367,2.73367 2.100505,7.7989903 -1.414214,11.3137083 -1.952621,1.952622 -5.118446,1.952622 -7.071068,0 L 12.464466,17.849243 C 11.292893,16.67767 10.696698,15.142136 10.696699,13.606602 l 0.132582,-7.0710683 c 0,-1.02369 -0.412194,-2.0473783 -1.1932424,-2.8284269 -1.562098,-1.5620972 -4.094758,-1.5620972 -5.656855,0 -1.562097,1.5620969 -1.562097,4.0947569 0,5.6568539 l 2.121321,2.1213213 -1.414214,1.414213 -2.12132,-2.12132 c -2.343146,-2.3431463 -2.343146,-6.1421364 0,-8.4852818 z"
     id="path2826" />
</svg>
