<?xml version="1.0" encoding="UTF-8" standalone="no"?>
<svg
   xmlns:dc="http://purl.org/dc/elements/1.1/"
   xmlns:cc="http://creativecommons.org/ns#"
   xmlns:rdf="http://www.w3.org/1999/02/22-rdf-syntax-ns#"
   xmlns:svg="http://www.w3.org/2000/svg"
   xmlns="http://www.w3.org/2000/svg"
   xmlns:sodipodi="http://sodipodi.sourceforge.net/DTD/sodipodi-0.dtd"
   xmlns:inkscape="http://www.inkscape.org/namespaces/inkscape"
   version="1.0"
   width="25"
   height="21"
   id="svg2"
   inkscape:version="0.47 r22583"
   sodipodi:docname="02-08-011-01-02-03.svg">
  <defs
     id="defs16">
    <inkscape:perspective
       sodipodi:type="inkscape:persp3d"
       inkscape:vp_x="0 : 23 : 1"
       inkscape:vp_y="0 : 1000 : 0"
       inkscape:vp_z="36 : 23 : 1"
       inkscape:persp3d-origin="18 : 15.333333 : 1"
       id="perspective18" />
  </defs>
  <sodipodi:namedview
     pagecolor="#ffffff"
     bordercolor="#666666"
     borderopacity="1"
     objecttolerance="10"
     gridtolerance="10"
     guidetolerance="10"
     inkscape:pageopacity="0"
     inkscape:pageshadow="2"
     inkscape:window-width="964"
     inkscape:window-height="721"
     id="namedview14"
     showgrid="true"
     inkscape:zoom="17.062634"
     inkscape:cx="12.497736"
     inkscape:cy="10.498098"
     inkscape:window-x="365"
     inkscape:window-y="0"
     inkscape:window-maximized="0"
     inkscape:current-layer="svg2"
     showborder="true">
    <inkscape:grid
       type="xygrid"
       id="grid2824"
       empspacing="5"
       visible="true"
       enabled="true"
       snapvisiblegridlinesonly="true" />
  </sodipodi:namedview>
  <metadata
     id="metadata4">
Valerie Sutton's pixel definition of the
ISWA 2010 symbol ID 04-01-003-01-01-01
transformed by Stephen E Slevinski Jr
using line and fill polygon tracing
<rdf:RDF>
  <cc:Work
     rdf:about="">
    <dc:format>image/svg+xml</dc:format>
    <dc:type
       rdf:resource="http://purl.org/dc/dcmitype/StillImage" />
    <dc:title></dc:title>
  </cc:Work>
</rdf:RDF>
</metadata>
  <path
     style="fill:#000000;fill-opacity:1;stroke:none"
     d="m 2.0502525,1.9791845 c -2.34314572,2.3431457 -2.34314572,6.1421356 0,8.4852815 L 3.4644661,9.050252 c -1.5620972,-1.5620969 -1.5620972,-4.0947568 0,-5.656854 1.5620972,-1.5620972 4.0947571,-1.5620972 5.6568542,0 L 9.8284271,4.1005048 C 10.609475,4.8815534 11.02167,5.9052421 11.02167,6.9289319 L 10.889087,14 c -10e-7,1.535534 0.596194,3.071068 1.767767,4.24264 l 0.707107,0.707107 c 2.343145,2.343146 6.142135,2.343146 8.485281,0 3.124194,-3.124194 3.124194,-8.189514 0,-11.3137083 L 20.435029,9.050252 c 2.343145,2.343146 2.343145,6.142136 0,8.485282 -1.562098,1.562097 -4.094758,1.562097 -5.656855,0 L 14.071068,16.828427 C 13.290019,16.047379 12.877825,15.02369 12.877825,14 l 0.132582,-7.0710681 c 10e-7,-1.535534 -0.596194,-3.0710676 -1.767767,-4.2426407 L 10.535534,1.9791845 c -2.3431458,-2.3431458 -6.1421361,-2.3431454 -8.4852815,0 z"
     id="path2826" />
</svg>
