<?xml version="1.0" encoding="UTF-8" standalone="no"?>
<svg
   xmlns:dc="http://purl.org/dc/elements/1.1/"
   xmlns:cc="http://creativecommons.org/ns#"
   xmlns:rdf="http://www.w3.org/1999/02/22-rdf-syntax-ns#"
   xmlns:svg="http://www.w3.org/2000/svg"
   xmlns="http://www.w3.org/2000/svg"
   xmlns:sodipodi="http://sodipodi.sourceforge.net/DTD/sodipodi-0.dtd"
   xmlns:inkscape="http://www.inkscape.org/namespaces/inkscape"
   version="1.0"
   width="29"
   height="21"
   id="svg2"
   inkscape:version="0.47 r22583"
   sodipodi:docname="02-08-011-01-03-08.svg">
  <defs
     id="defs16">
    <inkscape:perspective
       sodipodi:type="inkscape:persp3d"
       inkscape:vp_x="0 : 23 : 1"
       inkscape:vp_y="0 : 1000 : 0"
       inkscape:vp_z="36 : 23 : 1"
       inkscape:persp3d-origin="18 : 15.333333 : 1"
       id="perspective18" />
  </defs>
  <sodipodi:namedview
     pagecolor="#ffffff"
     bordercolor="#666666"
     borderopacity="1"
     objecttolerance="10"
     gridtolerance="10"
     guidetolerance="10"
     inkscape:pageopacity="0"
     inkscape:pageshadow="2"
     inkscape:window-width="964"
     inkscape:window-height="721"
     id="namedview14"
     showgrid="true"
     inkscape:zoom="17.065173"
     inkscape:cx="14.497374"
     inkscape:cy="10.498098"
     inkscape:window-x="365"
     inkscape:window-y="0"
     inkscape:window-maximized="0"
     inkscape:current-layer="svg2"
     showborder="true">
    <inkscape:grid
       type="xygrid"
       id="grid2824"
       empspacing="5"
       visible="true"
       enabled="true"
       snapvisiblegridlinesonly="true" />
  </sodipodi:namedview>
  <metadata
     id="metadata4">
Valerie Sutton's pixel definition of the
ISWA 2010 symbol ID 04-01-003-01-01-01
transformed by Stephen E Slevinski Jr
using line and fill polygon tracing
<rdf:RDF>
  <cc:Work
     rdf:about="">
    <dc:format>image/svg+xml</dc:format>
    <dc:type
       rdf:resource="http://purl.org/dc/dcmitype/StillImage" />
    <dc:title></dc:title>
  </cc:Work>
</rdf:RDF>
</metadata>
  <path
     style="fill:#000000;fill-opacity:1;stroke:none"
     d="M 0.51471797,14 9,14 9,5.5147185 7.585786,6.9289321 l 0,5.6568539 -5.656854,0 L 0.51471797,14 z"
     id="path2839" />
  <path
     style="fill:#000000;fill-opacity:1;stroke:none"
     d="m 4.050252,1.9791846 c -2.343145,2.3431454 -2.343146,6.1421354 0,8.4852814 L 5.464466,9.050252 c -1.562098,-1.562097 -1.562098,-4.0947566 0,-5.6568538 1.562097,-1.5620972 4.094757,-1.5620972 5.656854,0 l 0.707107,0.7071068 c 0.781048,0.7810486 1.193242,1.8047373 1.193242,2.8284271 L 12.889087,14 c -10e-7,1.535534 0.596194,3.071068 1.767767,4.242641 l 0.707107,0.707106 c 2.343145,2.343146 6.142135,2.343146 8.485281,0 l 2.12132,-2.12132 c 3.124195,-3.124194 3.124195,-8.189514 0,-11.3137085 l -5.656854,5.6568545 c 1.952622,1.952621 2.585786,4.485281 1.414214,5.656854 -1.562098,1.562097 -3.778175,1.87868 -4.949748,0.707107 L 16.071067,16.828427 C 15.290019,16.047379 14.877825,15.02369 14.877825,14 l 0.132582,-7.0710679 c 10e-7,-1.535534 -0.596194,-3.0710676 -1.767767,-4.2426407 L 12.535533,1.9791846 c -2.343145,-2.3431457 -6.142136,-2.3431454 -8.485281,0 z"
     id="path2826" />
</svg>
