<?xml version="1.0" encoding="UTF-8" standalone="no"?>
<svg
   xmlns:dc="http://purl.org/dc/elements/1.1/"
   xmlns:cc="http://creativecommons.org/ns#"
   xmlns:rdf="http://www.w3.org/1999/02/22-rdf-syntax-ns#"
   xmlns:svg="http://www.w3.org/2000/svg"
   xmlns="http://www.w3.org/2000/svg"
   xmlns:sodipodi="http://sodipodi.sourceforge.net/DTD/sodipodi-0.dtd"
   xmlns:inkscape="http://www.inkscape.org/namespaces/inkscape"
   version="1.0"
   width="27"
   height="21"
   id="svg2"
   inkscape:version="0.47 r22583"
   sodipodi:docname="02-08-013-01-05-08.svg">
  <defs
     id="defs16">
    <inkscape:perspective
       sodipodi:type="inkscape:persp3d"
       inkscape:vp_x="0 : 23 : 1"
       inkscape:vp_y="0 : 1000 : 0"
       inkscape:vp_z="36 : 23 : 1"
       inkscape:persp3d-origin="18 : 15.333333 : 1"
       id="perspective18" />
  </defs>
  <sodipodi:namedview
     pagecolor="#ffffff"
     bordercolor="#666666"
     borderopacity="1"
     objecttolerance="10"
     gridtolerance="10"
     guidetolerance="10"
     inkscape:pageopacity="0"
     inkscape:pageshadow="2"
     inkscape:window-width="964"
     inkscape:window-height="721"
     id="namedview14"
     showgrid="true"
     inkscape:zoom="17.065173"
     inkscape:cx="13.497555"
     inkscape:cy="10.498098"
     inkscape:window-x="365"
     inkscape:window-y="0"
     inkscape:window-maximized="0"
     inkscape:current-layer="svg2"
     showborder="true">
    <inkscape:grid
       type="xygrid"
       id="grid2824"
       empspacing="5"
       visible="true"
       enabled="true"
       snapvisiblegridlinesonly="true" />
  </sodipodi:namedview>
  <metadata
     id="metadata4">
Valerie Sutton's pixel definition of the
ISWA 2010 symbol ID 04-01-003-01-01-01
transformed by Stephen E Slevinski Jr
using line and fill polygon tracing
<rdf:RDF>
  <cc:Work
     rdf:about="">
    <dc:format>image/svg+xml</dc:format>
    <dc:type
       rdf:resource="http://purl.org/dc/dcmitype/StillImage" />
    <dc:title></dc:title>
  </cc:Work>
</rdf:RDF>
</metadata>
  <path
     style="fill:#000000;fill-opacity:1;stroke:none"
     d="M 0,7 0,13.363961 6.363961,7 0,7 z m 0.685009,0.6850097 3.999573,0.022097 -3.977476,3.9774753 -0.0221,-3.9995724 z"
     id="path2839" />
  <path
     style="fill:#000000;fill-opacity:1;stroke:none"
     d="m 2.828427,10.535533 9.192388,9.192389 c 1.562097,1.562097 4.094757,1.562097 5.656854,0 1.952622,-1.952622 1.952622,-5.118447 0,-7.071068 l -3.535534,3.535534 c 1.171573,1.171572 1.646447,2.596194 1.06066,3.18198 -0.585786,0.585787 -2.010407,0.110913 -3.18198,-1.06066 L 3.535534,9.8284274 2.828427,10.535533 z"
     id="path2816" />
  <path
     style="fill:#ffffff;fill-opacity:1;stroke:none"
     d="M 0.685009,7.6850097 0.707109,11.684582 4.684585,7.7071068 0.685012,7.6850098 z"
     id="path3214" />
  <path
     id="path3316"
     d="M 7,0 7,6.363961 13.363961,0 7,0 z m 0.68501,0.6850097 3.999573,0.022097 -3.977476,3.9774757 -0.0221,-3.9995727 z"
     style="fill:#000000;fill-opacity:1;stroke:none" />
  <path
     id="path3318"
     d="m 9.8284282,3.5355339 9.1923868,9.1923881 c 1.562098,1.562097 4.094758,1.562097 5.656855,0 1.952621,-1.952622 1.952621,-5.1184462 0,-7.0710678 l -3.535534,3.535534 c 1.171573,1.1715728 1.646446,2.5961938 1.06066,3.1819798 -0.585786,0.585787 -2.010408,0.110913 -3.181981,-1.06066 L 10.535534,2.8284271 9.8284282,3.5355339 z"
     style="fill:#000000;fill-opacity:1;stroke:none" />
  <path
     id="path3320"
     d="M 7.68501,0.6850097 7.70711,4.6845824 11.684586,0.7071067 7.685013,0.6850097 z"
     style="fill:#ffffff;fill-opacity:1;stroke:none" />
</svg>
