<?xml version="1.0" encoding="UTF-8" standalone="no"?>
<svg
   xmlns:dc="http://purl.org/dc/elements/1.1/"
   xmlns:cc="http://creativecommons.org/ns#"
   xmlns:rdf="http://www.w3.org/1999/02/22-rdf-syntax-ns#"
   xmlns:svg="http://www.w3.org/2000/svg"
   xmlns="http://www.w3.org/2000/svg"
   xmlns:sodipodi="http://sodipodi.sourceforge.net/DTD/sodipodi-0.dtd"
   xmlns:inkscape="http://www.inkscape.org/namespaces/inkscape"
   version="1.0"
   width="40"
   height="36"
   id="svg2"
   inkscape:version="0.47 r22583"
   sodipodi:docname="02-08-013-01-02-07.svg">
  <defs
     id="defs16">
    <inkscape:perspective
       sodipodi:type="inkscape:persp3d"
       inkscape:vp_x="0 : 23 : 1"
       inkscape:vp_y="0 : 1000 : 0"
       inkscape:vp_z="36 : 23 : 1"
       inkscape:persp3d-origin="18 : 15.333333 : 1"
       id="perspective18" />
  </defs>
  <sodipodi:namedview
     pagecolor="#ffffff"
     bordercolor="#666666"
     borderopacity="1"
     objecttolerance="10"
     gridtolerance="10"
     guidetolerance="10"
     inkscape:pageopacity="0"
     inkscape:pageshadow="2"
     inkscape:window-width="964"
     inkscape:window-height="721"
     id="namedview14"
     showgrid="true"
     inkscape:zoom="13.138889"
     inkscape:cx="20"
     inkscape:cy="18"
     inkscape:window-x="365"
     inkscape:window-y="0"
     inkscape:window-maximized="0"
     inkscape:current-layer="svg2"
     showborder="true">
    <inkscape:grid
       type="xygrid"
       id="grid2824"
       empspacing="5"
       visible="true"
       enabled="true"
       snapvisiblegridlinesonly="true" />
  </sodipodi:namedview>
  <metadata
     id="metadata4">
Valerie Sutton's pixel definition of the
ISWA 2010 symbol ID 04-01-003-01-01-01
transformed by Stephen E Slevinski Jr
using line and fill polygon tracing
<rdf:RDF>
  <cc:Work
     rdf:about="">
    <dc:format>image/svg+xml</dc:format>
    <dc:type
       rdf:resource="http://purl.org/dc/dcmitype/StillImage" />
    <dc:title></dc:title>
  </cc:Work>
</rdf:RDF>
</metadata>
  <path
     style="fill:#000000;fill-opacity:1;stroke:none"
     d="M 10,8 0.1005046,8 10,17.899495 10,8 z M 9.005631,8.9943689 8.983531,15.468816 2.531182,9.016466 9.0056284,8.994369 z"
     id="path2839" />
  <path
     style="fill:#000000;fill-opacity:1;stroke:none"
     d="M 24.849243,5.8786797 11.414214,19.313709 c -1.171573,1.171573 -3.0710684,1.171573 -4.2426414,0 -1.171572,-1.171573 -1.171572,-3.071068 0,-4.242641 l -4.24264,-4.242641 c -1.952622,1.952622 -1.636039,5.43503 0.707106,7.778175 l 2.121321,2.12132 c 1.952621,1.952622 5.1184464,1.952622 7.0710684,0 L 26.263456,7.2928932 24.849243,5.8786797 z"
     id="path3173" />
  <path
     style="fill:#000000;fill-opacity:1;stroke:none"
     d="M 1.5147186,0.9289322 0.8076116,1.636039 5.7573596,6.5857864 6.4644666,5.8786797 1.5147186,0.9289322 z m 10.6066024,10.6066018 -0.707107,0.707107 7.071068,7.071068 0.707107,-0.707107 -7.071068,-7.071068 z m 12.727922,12.727922 -0.707107,0.707107 7.778174,7.778175 0.707107,-0.707107 -7.778174,-7.778175 z"
     id="rect2835" />
  <path
     style="fill:#000000;fill-opacity:1;stroke:none"
     d="M 23,21 13.100506,21 23,30.899495 23,21 z m -0.994368,0.994369 -0.0221,6.474447 -6.452349,-6.45235 6.474447,-0.0221 z"
     id="path3406" />
  <path
     id="path3408"
     d="M 37.849242,18.87868 24.414214,32.313709 c -1.171573,1.171573 -3.071068,1.171573 -4.242641,0 -1.171572,-1.171573 -1.171572,-3.071068 0,-4.242641 l -4.24264,-4.24264 c -1.952622,1.952621 -1.636039,5.435029 0.707106,7.778174 l 2.121321,2.121321 c 1.952621,1.952621 5.118446,1.952621 7.071068,0 L 39.263456,20.292894 37.849242,18.87868 z"
     style="fill:#000000;fill-opacity:1;stroke:none" />
  <path
     style="fill:#ffffff;fill-opacity:1;stroke:none"
     d="m 9.005631,8.9943689 -6.4744464,0.022097 6.452349,6.4523491 0.0221,-6.4744462 z"
     id="path3503" />
  <path
     style="fill:#ffffff;fill-opacity:1;stroke:none"
     d="m 22.005632,21.994369 -6.474447,0.0221 6.452349,6.45235 0.0221,-6.474447 z"
     id="path3505" />
</svg>
