<?xml version="1.0" encoding="UTF-8" standalone="no"?>
<svg
   xmlns:dc="http://purl.org/dc/elements/1.1/"
   xmlns:cc="http://creativecommons.org/ns#"
   xmlns:rdf="http://www.w3.org/1999/02/22-rdf-syntax-ns#"
   xmlns:svg="http://www.w3.org/2000/svg"
   xmlns="http://www.w3.org/2000/svg"
   xmlns:sodipodi="http://sodipodi.sourceforge.net/DTD/sodipodi-0.dtd"
   xmlns:inkscape="http://www.inkscape.org/namespaces/inkscape"
   version="1.0"
   width="31"
   height="24"
   id="svg2"
   inkscape:version="0.47 r22583"
   sodipodi:docname="02-08-013-01-06-07.svg">
  <defs
     id="defs16">
    <inkscape:perspective
       sodipodi:type="inkscape:persp3d"
       inkscape:vp_x="0 : 23 : 1"
       inkscape:vp_y="0 : 1000 : 0"
       inkscape:vp_z="36 : 23 : 1"
       inkscape:persp3d-origin="18 : 15.333333 : 1"
       id="perspective18" />
  </defs>
  <sodipodi:namedview
     pagecolor="#ffffff"
     bordercolor="#666666"
     borderopacity="1"
     objecttolerance="10"
     gridtolerance="10"
     guidetolerance="10"
     inkscape:pageopacity="0"
     inkscape:pageshadow="2"
     inkscape:window-width="964"
     inkscape:window-height="721"
     id="namedview14"
     showgrid="true"
     inkscape:zoom="16.010846"
     inkscape:cx="15.505108"
     inkscape:cy="12.003955"
     inkscape:window-x="365"
     inkscape:window-y="0"
     inkscape:window-maximized="0"
     inkscape:current-layer="svg2"
     showborder="true">
    <inkscape:grid
       type="xygrid"
       id="grid2824"
       empspacing="5"
       visible="true"
       enabled="true"
       snapvisiblegridlinesonly="true" />
  </sodipodi:namedview>
  <metadata
     id="metadata4">
Valerie Sutton's pixel definition of the
ISWA 2010 symbol ID 04-01-003-01-01-01
transformed by Stephen E Slevinski Jr
using line and fill polygon tracing
<rdf:RDF>
  <cc:Work
     rdf:about="">
    <dc:format>image/svg+xml</dc:format>
    <dc:type
       rdf:resource="http://purl.org/dc/dcmitype/StillImage" />
    <dc:title></dc:title>
  </cc:Work>
</rdf:RDF>
</metadata>
  <path
     style="fill:#000000;fill-opacity:1;stroke:none"
     d="m 7,5 -6.363961,0 0.707107,0.7071068 4.949747,0 0,4.9497472 L 7,11.363961 7,5 z"
     id="path2839" />
  <path
     style="fill:#000000;fill-opacity:1;stroke:none"
     d="M 21.142136,0.0502525 9.121321,12.071068 c -1.171573,1.171573 -2.754486,1.488155 -3.535534,0.707107 -0.781049,-0.781049 -0.781049,-2.047379 0,-2.8284271 L 2.050253,6.4142136 c -1.562097,1.5620973 -1.562097,4.0947574 0,5.6568544 l 0.707107,0.707107 c 1.952621,1.952621 5.118446,1.952621 7.071067,0 L 21.849243,0.7573593 21.142136,0.0502525 z"
     id="rect3127" />
  <path
     id="path2937"
     d="m 16,14 -6.363961,0 0.707106,0.707107 4.949748,0 0,4.949748 L 16,20.363961 16,14 z"
     style="fill:#000000;fill-opacity:1;stroke:none" />
  <path
     id="path2939"
     d="M 30.142135,9.0502529 18.12132,21.071068 c -1.171573,1.171573 -2.754486,1.488155 -3.535534,0.707107 -0.781048,-0.781048 -0.781048,-2.047379 0,-2.828427 l -3.535534,-3.535534 c -1.562097,1.562097 -1.562097,4.094757 0,5.656854 l 0.707107,0.707107 c 1.952622,1.952622 5.118446,1.952622 7.071068,0 L 30.849242,9.7573599 30.142135,9.0502529 z"
     style="fill:#000000;fill-opacity:1;stroke:none" />
</svg>
