<?xml version="1.0" encoding="UTF-8" standalone="no"?>
<svg
   xmlns:dc="http://purl.org/dc/elements/1.1/"
   xmlns:cc="http://creativecommons.org/ns#"
   xmlns:rdf="http://www.w3.org/1999/02/22-rdf-syntax-ns#"
   xmlns:svg="http://www.w3.org/2000/svg"
   xmlns="http://www.w3.org/2000/svg"
   xmlns:sodipodi="http://sodipodi.sourceforge.net/DTD/sodipodi-0.dtd"
   xmlns:inkscape="http://www.inkscape.org/namespaces/inkscape"
   version="1.0"
   width="27"
   height="21"
   id="svg2"
   inkscape:version="0.47 r22583"
   sodipodi:docname="02-08-013-01-05-02.svg">
  <defs
     id="defs16">
    <inkscape:perspective
       sodipodi:type="inkscape:persp3d"
       inkscape:vp_x="0 : 23 : 1"
       inkscape:vp_y="0 : 1000 : 0"
       inkscape:vp_z="36 : 23 : 1"
       inkscape:persp3d-origin="18 : 15.333333 : 1"
       id="perspective18" />
  </defs>
  <sodipodi:namedview
     pagecolor="#ffffff"
     bordercolor="#666666"
     borderopacity="1"
     objecttolerance="10"
     gridtolerance="10"
     guidetolerance="10"
     inkscape:pageopacity="0"
     inkscape:pageshadow="2"
     inkscape:window-width="964"
     inkscape:window-height="721"
     id="namedview14"
     showgrid="true"
     inkscape:zoom="17.065173"
     inkscape:cx="13.497555"
     inkscape:cy="10.498098"
     inkscape:window-x="365"
     inkscape:window-y="0"
     inkscape:window-maximized="0"
     inkscape:current-layer="svg2"
     showborder="true">
    <inkscape:grid
       type="xygrid"
       id="grid2824"
       empspacing="5"
       visible="true"
       enabled="true"
       snapvisiblegridlinesonly="true" />
  </sodipodi:namedview>
  <metadata
     id="metadata4">
Valerie Sutton's pixel definition of the
ISWA 2010 symbol ID 04-01-003-01-01-01
transformed by Stephen E Slevinski Jr
using line and fill polygon tracing
<rdf:RDF>
  <cc:Work
     rdf:about="">
    <dc:format>image/svg+xml</dc:format>
    <dc:type
       rdf:resource="http://purl.org/dc/dcmitype/StillImage" />
    <dc:title></dc:title>
  </cc:Work>
</rdf:RDF>
</metadata>
  <path
     style="fill:#000000;fill-opacity:1;stroke:none"
     d="M 27,7 27,13.363961 20.636039,7 27,7 z m -0.685009,0.6850097 -3.999573,0.022097 3.977476,3.9774753 0.0221,-3.9995724 z"
     id="path2839" />
  <path
     style="fill:#000000;fill-opacity:1;stroke:none"
     d="m 24.171573,10.535533 -9.192388,9.192389 c -1.562097,1.562097 -4.094757,1.562097 -5.6568542,0 -1.9526216,-1.952622 -1.9526216,-5.118447 0,-7.071068 l 3.5355342,3.535534 c -1.171573,1.171572 -1.646447,2.596194 -1.06066,3.18198 0.585786,0.585787 2.010407,0.110913 3.18198,-1.06066 l 8.485281,-8.4852806 0.707107,0.7071056 z"
     id="path2816" />
  <path
     style="fill:#ffffff;fill-opacity:1;stroke:none"
     d="m 26.314991,7.6850097 -0.0221,3.9995723 -3.977476,-3.9774752 3.999573,-0.022097 z"
     id="path3214" />
  <path
     id="path3316"
     d="M 20,0 20,6.363961 13.636039,0 20,0 z m -0.68501,0.6850097 -3.999573,0.022097 3.977476,3.9774757 0.0221,-3.9995727 z"
     style="fill:#000000;fill-opacity:1;stroke:none" />
  <path
     id="path3318"
     d="M 17.171572,3.5355339 7.9791843,12.727922 c -1.5620972,1.562097 -4.0947571,1.562097 -5.6568543,0 -1.9526216,-1.952622 -1.9526216,-5.1184462 0,-7.0710678 l 3.5355339,3.535534 C 4.6862912,10.363961 4.2114174,11.788582 4.7972038,12.374368 c 0.5857863,0.585787 2.0104078,0.110913 3.1819805,-1.06066 l 8.4852817,-8.4852809 0.707106,0.7071068 z"
     style="fill:#000000;fill-opacity:1;stroke:none" />
  <path
     id="path3320"
     d="m 19.31499,0.6850097 -0.0221,3.9995727 -3.977476,-3.9774757 3.999573,-0.022097 z"
     style="fill:#ffffff;fill-opacity:1;stroke:none" />
</svg>
