<?xml version="1.0" encoding="UTF-8" standalone="no"?>
<svg
   xmlns:dc="http://purl.org/dc/elements/1.1/"
   xmlns:cc="http://creativecommons.org/ns#"
   xmlns:rdf="http://www.w3.org/1999/02/22-rdf-syntax-ns#"
   xmlns:svg="http://www.w3.org/2000/svg"
   xmlns="http://www.w3.org/2000/svg"
   xmlns:sodipodi="http://sodipodi.sourceforge.net/DTD/sodipodi-0.dtd"
   xmlns:inkscape="http://www.inkscape.org/namespaces/inkscape"
   version="1.0"
   width="40"
   height="36"
   id="svg2"
   inkscape:version="0.47 r22583"
   sodipodi:docname="02-08-013-01-01-06.svg">
  <defs
     id="defs16">
    <inkscape:perspective
       sodipodi:type="inkscape:persp3d"
       inkscape:vp_x="0 : 23 : 1"
       inkscape:vp_y="0 : 1000 : 0"
       inkscape:vp_z="36 : 23 : 1"
       inkscape:persp3d-origin="18 : 15.333333 : 1"
       id="perspective18" />
  </defs>
  <sodipodi:namedview
     pagecolor="#ffffff"
     bordercolor="#666666"
     borderopacity="1"
     objecttolerance="10"
     gridtolerance="10"
     guidetolerance="10"
     inkscape:pageopacity="0"
     inkscape:pageshadow="2"
     inkscape:window-width="964"
     inkscape:window-height="721"
     id="namedview14"
     showgrid="true"
     inkscape:zoom="13.138889"
     inkscape:cx="20"
     inkscape:cy="18"
     inkscape:window-x="365"
     inkscape:window-y="0"
     inkscape:window-maximized="0"
     inkscape:current-layer="svg2"
     showborder="true">
    <inkscape:grid
       type="xygrid"
       id="grid2824"
       empspacing="5"
       visible="true"
       enabled="true"
       snapvisiblegridlinesonly="true" />
  </sodipodi:namedview>
  <metadata
     id="metadata4">
Valerie Sutton's pixel definition of the
ISWA 2010 symbol ID 04-01-003-01-01-01
transformed by Stephen E Slevinski Jr
using line and fill polygon tracing
<rdf:RDF>
  <cc:Work
     rdf:about="">
    <dc:format>image/svg+xml</dc:format>
    <dc:type
       rdf:resource="http://purl.org/dc/dcmitype/StillImage" />
    <dc:title></dc:title>
  </cc:Work>
</rdf:RDF>
</metadata>
  <path
     style="fill:#000000;fill-opacity:1;stroke:none"
     d="M 39.899495,8 30,8 30,17.899495 39.899495,8 z"
     id="path2839" />
  <path
     style="fill:#000000;fill-opacity:1;stroke:none"
     d="M 15.150757,5.8786797 28.585786,19.313709 c 1.171573,1.171573 3.071068,1.171573 4.242641,0 1.171572,-1.171573 1.171572,-3.071068 0,-4.242641 l 4.24264,-4.242641 c 1.952622,1.952622 1.636039,5.43503 -0.707106,7.778175 l -2.121321,2.12132 c -1.952621,1.952622 -5.118446,1.952622 -7.071068,0 L 13.736544,7.2928932 15.150757,5.8786797 z"
     id="path3173" />
  <path
     style="fill:#000000;fill-opacity:1;stroke:none"
     d="M 38.485281,0.9289322 39.192388,1.636039 34.24264,6.5857864 33.535533,5.8786797 38.485281,0.9289322 z m -10.606602,10.6066018 0.707107,0.707107 -7.071068,7.071068 -0.707107,-0.707107 7.071068,-7.071068 z m -12.727922,12.727922 0.707107,0.707107 -7.7781746,7.778175 -0.7071068,-0.707107 7.7781744,-7.778175 z"
     id="rect2835" />
  <path
     id="path3406"
     d="M 26.899494,21 17,21 17,30.899495 26.899494,21 z"
     style="fill:#000000;fill-opacity:1;stroke:none" />
  <path
     id="path3408"
     d="M 2.1507571,18.87868 15.585786,32.313709 c 1.171573,1.171573 3.071068,1.171573 4.242641,0 1.171572,-1.171573 1.171572,-3.071068 0,-4.242641 l 4.24264,-4.24264 c 1.952622,1.952621 1.636039,5.435029 -0.707106,7.778174 l -2.121321,2.121321 c -1.952621,1.952621 -5.118446,1.952621 -7.071068,0 L 0.7365436,20.292894 2.1507571,18.87868 z"
     style="fill:#000000;fill-opacity:1;stroke:none" />
</svg>
