<?xml version="1.0" encoding="UTF-8" standalone="no"?>
<svg
   xmlns:dc="http://purl.org/dc/elements/1.1/"
   xmlns:cc="http://creativecommons.org/ns#"
   xmlns:rdf="http://www.w3.org/1999/02/22-rdf-syntax-ns#"
   xmlns:svg="http://www.w3.org/2000/svg"
   xmlns="http://www.w3.org/2000/svg"
   xmlns:sodipodi="http://sodipodi.sourceforge.net/DTD/sodipodi-0.dtd"
   xmlns:inkscape="http://www.inkscape.org/namespaces/inkscape"
   version="1.0"
   width="44"
   height="24"
   id="svg2"
   inkscape:version="0.47 r22583"
   sodipodi:docname="02-08-013-01-02-05.svg">
  <defs
     id="defs16">
    <inkscape:perspective
       sodipodi:type="inkscape:persp3d"
       inkscape:vp_x="0 : 23 : 1"
       inkscape:vp_y="0 : 1000 : 0"
       inkscape:vp_z="36 : 23 : 1"
       inkscape:persp3d-origin="18 : 15.333333 : 1"
       id="perspective18" />
  </defs>
  <sodipodi:namedview
     pagecolor="#ffffff"
     bordercolor="#666666"
     borderopacity="1"
     objecttolerance="10"
     gridtolerance="10"
     guidetolerance="10"
     inkscape:pageopacity="0"
     inkscape:pageshadow="2"
     inkscape:window-width="964"
     inkscape:window-height="721"
     id="namedview14"
     showgrid="true"
     inkscape:zoom="17.084069"
     inkscape:cx="22"
     inkscape:cy="12"
     inkscape:window-x="365"
     inkscape:window-y="0"
     inkscape:window-maximized="0"
     inkscape:current-layer="svg2"
     showborder="true">
    <inkscape:grid
       type="xygrid"
       id="grid2824"
       empspacing="5"
       visible="true"
       enabled="true"
       snapvisiblegridlinesonly="true" />
  </sodipodi:namedview>
  <metadata
     id="metadata4">
Valerie Sutton's pixel definition of the
ISWA 2010 symbol ID 04-01-003-01-01-01
transformed by Stephen E Slevinski Jr
using line and fill polygon tracing
<rdf:RDF>
  <cc:Work
     rdf:about="">
    <dc:format>image/svg+xml</dc:format>
    <dc:type
       rdf:resource="http://purl.org/dc/dcmitype/StillImage" />
    <dc:title></dc:title>
  </cc:Work>
</rdf:RDF>
</metadata>
  <path
     style="fill:#000000;fill-opacity:1;stroke:none"
     d="m 33,12 7,7 -14,0 7,-7 z M 33,13.40625 28.4375,18 37.5625,18 33,13.40625 z"
     id="path2839" />
  <path
     style="fill:#000000;fill-opacity:1;stroke:none"
     d="m 24,0 0,19 c 0,1.656854 1.343146,3 3,3 1.656854,0 3,-1.343146 3,-3 l 6,0 c 0,2.761424 -2.686292,5 -6,5 l -3,0 c -2.761424,0 -5,-2.238576 -5,-5 l 0,-19 2,0 z"
     id="path3173" />
  <path
     style="fill:#000000;fill-opacity:1;stroke:none"
     d="m 44,13 0,1 -7,0 0,-1 7,0 z m -15,0 0,1 -10,0 0,-1 10,0 z m -18,0 0,1 -11,0 0,-1 11,0 z"
     id="rect2835" />
  <path
     style="fill:#000000;fill-opacity:1;stroke:none"
     d="m 15,12 7,7 -14,0 7,-7 z M 15,13.40625 10.4375,18 19.5625,18 15,13.40625 z"
     id="path3406" />
  <path
     id="path3408"
     d="m 6,0 0,19 c 0,1.656854 1.343146,3 3,3 1.656854,0 3,-1.343146 3,-3 l 6,0 c 0,2.761424 -2.686292,5 -6,5 L 9,24 C 6.238576,24 4,21.761424 4,19 L 4,0 6,0 z"
     style="fill:#000000;fill-opacity:1;stroke:none" />
  <path
     style="fill:#ffffff;fill-opacity:1;stroke:none"
     d="M 33,13.40625 37.5625,18 28.4375,18 33,13.40625 z"
     id="path3503" />
  <path
     style="fill:#ffffff;fill-opacity:1;stroke:none"
     d="M 15,13.40625 19.5625,18 10.4375,18 15,13.40625 z"
     id="path3505" />
</svg>
