<?xml version="1.0" encoding="UTF-8" standalone="no"?>
<!-- Created with Inkscape (http://www.inkscape.org/) -->

<svg
   xmlns:dc="http://purl.org/dc/elements/1.1/"
   xmlns:cc="http://creativecommons.org/ns#"
   xmlns:rdf="http://www.w3.org/1999/02/22-rdf-syntax-ns#"
   xmlns:svg="http://www.w3.org/2000/svg"
   xmlns="http://www.w3.org/2000/svg"
   xmlns:sodipodi="http://sodipodi.sourceforge.net/DTD/sodipodi-0.dtd"
   xmlns:inkscape="http://www.inkscape.org/namespaces/inkscape"
   width="15"
   height="26"
   id="svg2"
   version="1.1"
   inkscape:version="0.47 r22583"
   sodipodi:docname="01-05-009-01-01.svg">
  <defs
     id="defs4">
    <inkscape:perspective
       sodipodi:type="inkscape:persp3d"
       inkscape:vp_x="0 : 526.18109 : 1"
       inkscape:vp_y="0 : 1000 : 0"
       inkscape:vp_z="744.09448 : 526.18109 : 1"
       inkscape:persp3d-origin="372.04724 : 350.78739 : 1"
       id="perspective10" />
  </defs>
  <sodipodi:namedview
     id="namedview2916"
     pagecolor="#ffffff"
     bordercolor="#666666"
     borderopacity="1.0"
     inkscape:pageopacity="0.0"
     inkscape:pageshadow="2"
     inkscape:zoom="15.839192"
     inkscape:cx="5.7111356"
     inkscape:cy="12.996028"
     inkscape:document-units="px"
     inkscape:current-layer="svg2"
     showgrid="true"
     inkscape:snap-grids="true"
     inkscape:window-width="1103"
     inkscape:window-height="795"
     inkscape:window-x="306"
     inkscape:window-y="0"
     inkscape:window-maximized="0">
    <inkscape:grid
       type="xygrid"
       id="grid2816" />
  </sodipodi:namedview>
  <metadata
     id="metadata7">
    <rdf:RDF>
      <cc:Work
         rdf:about="">
        <dc:format>image/svg+xml</dc:format>
        <dc:type
           rdf:resource="http://purl.org/dc/dcmitype/StillImage" />
        <dc:title></dc:title>
      </cc:Work>
    </rdf:RDF>
  </metadata>
  <g
     inkscape:label="Layer 1"
     inkscape:groupmode="layer"
     id="layer1" />
  <path
     style="fill:#000000;fill-opacity:1;stroke:none"
     d="M 8,26 8,2 c 0,0 7,0 7,7 l 0,9 c 0,8 -7,8 -7,8 z"
     id="base" />
  <path
     style="fill:#ffffff;fill-opacity:1;stroke:none"
     d="M 9,24 9,4 c 0,0 4,0 4,5 l 0,9 c 0,6 -4,6 -4,6 z"
     id="fill" />
  <path
     style="fill:#000000;fill-opacity:1;stroke:none"
     d="M 0.53125 0.0625 L 0 2 L 8 4.15625 L 8 2.0625 L 0.53125 0.0625 z "
     id="index" />
  <path
     style="fill:#000000;fill-opacity:1;stroke:none"
     d="M 0.53125 5.0625 L 0 7 L 8 9.15625 L 8 7.0625 L 0.53125 5.0625 z "
     id="middle" />
  <path
     style="fill:#000000;fill-opacity:1;stroke:none"
     d="M 0.53125 10.0625 L 0 12 L 8 14.15625 L 8 12.0625 L 0.53125 10.0625 z "
     id="ring" />
  <path
     style="fill:#000000;fill-opacity:1;stroke:none"
     d="M 0.53125 15.0625 L 0 17 L 8 19.15625 L 8 17.0625 L 0.53125 15.0625 z "
     id="baby" />
  <path
     style="fill:#000000;fill-opacity:1;stroke:none"
     d="m 8,23 -8,0 0,2 8,0 0,-2 z"
     id="thumb" />
</svg>
