<?xml version="1.0" encoding="UTF-8" standalone="no"?>
<svg
   xmlns:dc="http://purl.org/dc/elements/1.1/"
   xmlns:cc="http://creativecommons.org/ns#"
   xmlns:rdf="http://www.w3.org/1999/02/22-rdf-syntax-ns#"
   xmlns:svg="http://www.w3.org/2000/svg"
   xmlns="http://www.w3.org/2000/svg"
   xmlns:sodipodi="http://sodipodi.sourceforge.net/DTD/sodipodi-0.dtd"
   xmlns:inkscape="http://www.inkscape.org/namespaces/inkscape"
   version="1.0"
   width="23"
   height="7"
   id="svg2"
   inkscape:version="0.47 r22583"
   sodipodi:docname="02-10-007-04-02-05.svg">
  <defs
     id="defs24">
    <inkscape:perspective
       sodipodi:type="inkscape:persp3d"
       inkscape:vp_x="0 : 5 : 1"
       inkscape:vp_y="0 : 1000 : 0"
       inkscape:vp_z="22 : 5 : 1"
       inkscape:persp3d-origin="11 : 3.3333333 : 1"
       id="perspective26" />
  </defs>
  <sodipodi:namedview
     pagecolor="#ffffff"
     bordercolor="#666666"
     borderopacity="1"
     objecttolerance="10"
     gridtolerance="10"
     guidetolerance="10"
     inkscape:pageopacity="0"
     inkscape:pageshadow="2"
     inkscape:window-width="964"
     inkscape:window-height="789"
     id="namedview22"
     showgrid="true"
     inkscape:zoom="16.318747"
     inkscape:cx="11.495714"
     inkscape:cy="3.4986957"
     inkscape:window-x="282"
     inkscape:window-y="0"
     inkscape:window-maximized="0"
     inkscape:current-layer="svg2">
    <inkscape:grid
       type="xygrid"
       id="grid2832" />
  </sodipodi:namedview>
  <metadata
     id="metadata4">
Valerie Sutton's pixel definition of the
ISWA 2010 symbol ID 04-01-008-01-02-01
transformed by Stephen E Slevinski Jr
using line and fill polygon tracing
<rdf:RDF>
  <cc:Work
     rdf:about="">
    <dc:format>image/svg+xml</dc:format>
    <dc:type
       rdf:resource="http://purl.org/dc/dcmitype/StillImage" />
    <dc:title></dc:title>
  </cc:Work>
</rdf:RDF>
</metadata>
  <path
     style="fill:#000000"
     d="M 10.891,2 11.60975,2.71875 9.8285,4.5 11.60975,6.28125 10.891,7 8.391,4.5 10.891,2 z"
     id="path14" />
  <path
     style="fill:#000000;fill-opacity:1;stroke:none"
     d="M 22.34375,0 C 22.763994,0.4662319 23,0.97742 23,1.5 23,2.6649757 21.85618,3.7321078 20,4.53125 l 0,-2.9375 C 20.618383,1.2619508 21,0.8944891 21,0.5 21,0.3336086 20.933875,0.1580936 20.8125,0 l 1.53125,0 z M 2.1875,0 C 2.066125,0.1580936 2,0.3336086 2,0.5 2,0.8944891 2.381617,1.2619508 3,1.59375 l 0,2.9375 C 1.14382,3.7321078 0,2.6649757 0,1.5 0,0.97742 0.236006,0.4662319 0.65625,0 L 2.1875,0 z M 19,2.03125 l 0,2.875 C 17.84778,5.2952916 16.483959,5.5671757 15,5.75 l 0,-2.9375 c 1.589652,-0.1650444 2.969769,-0.4294068 4,-0.78125 z m -15,0 C 5.030231,2.3830932 6.410348,2.6474556 8,2.8125 L 8,5.75 C 6.516041,5.5671757 5.15222,5.2952916 4,4.90625 l 0,-2.875 z"
     id="path3037" />
  <path
     id="path2968"
     d="M 13.891,2 14.60975,2.71875 12.8285,4.5 14.60975,6.28125 13.891,7 11.391,4.5 13.891,2 z"
     style="fill:#000000" />
</svg>
