<?xml version="1.0" encoding="UTF-8" standalone="no"?>
<svg
   xmlns:dc="http://purl.org/dc/elements/1.1/"
   xmlns:cc="http://creativecommons.org/ns#"
   xmlns:rdf="http://www.w3.org/1999/02/22-rdf-syntax-ns#"
   xmlns:svg="http://www.w3.org/2000/svg"
   xmlns="http://www.w3.org/2000/svg"
   xmlns:sodipodi="http://sodipodi.sourceforge.net/DTD/sodipodi-0.dtd"
   xmlns:inkscape="http://www.inkscape.org/namespaces/inkscape"
   version="1.0"
   width="23"
   height="10"
   id="svg2"
   inkscape:version="0.47 r22583"
   sodipodi:docname="02-10-007-04-01-05.svg">
  <defs
     id="defs24">
    <inkscape:perspective
       sodipodi:type="inkscape:persp3d"
       inkscape:vp_x="0 : 5 : 1"
       inkscape:vp_y="0 : 1000 : 0"
       inkscape:vp_z="22 : 5 : 1"
       inkscape:persp3d-origin="11 : 3.3333333 : 1"
       id="perspective26" />
  </defs>
  <sodipodi:namedview
     pagecolor="#ffffff"
     bordercolor="#666666"
     borderopacity="1"
     objecttolerance="10"
     gridtolerance="10"
     guidetolerance="10"
     inkscape:pageopacity="0"
     inkscape:pageshadow="2"
     inkscape:window-width="964"
     inkscape:window-height="789"
     id="namedview22"
     showgrid="true"
     inkscape:zoom="16.328077"
     inkscape:cx="11.497868"
     inkscape:cy="4.9990731"
     inkscape:window-x="282"
     inkscape:window-y="0"
     inkscape:window-maximized="0"
     inkscape:current-layer="svg2">
    <inkscape:grid
       type="xygrid"
       id="grid2832" />
  </sodipodi:namedview>
  <metadata
     id="metadata4">
Valerie Sutton's pixel definition of the
ISWA 2010 symbol ID 04-01-008-01-02-01
transformed by Stephen E Slevinski Jr
using line and fill polygon tracing
<rdf:RDF>
  <cc:Work
     rdf:about="">
    <dc:format>image/svg+xml</dc:format>
    <dc:type
       rdf:resource="http://purl.org/dc/dcmitype/StillImage" />
    <dc:title></dc:title>
  </cc:Work>
</rdf:RDF>
</metadata>
  <path
     style="fill:#000000"
     d="M 10.891,5 11.60975,5.71875 9.8285,7.5 11.60975,9.28125 10.891,10 8.391,7.5 10.891,5 z"
     id="path14" />
  <path
     style="fill:#000000;fill-opacity:1;stroke:none"
     d="m 12,0.03125 c 0.684139,0.011745 1.351999,0.037219 2,0.09375 l 0,0.96875 C 13.354407,1.047033 12.692798,1.040956 12,1.03125 l 0,-1 z m -1,0 0,1 C 10.307202,1.04096 9.645593,1.047033 9,1.09375 L 9,0.125 C 9.648001,0.0684687 10.315861,0.0429951 11,0.03125 z m 4,0.1875 c 1.066879,0.1344047 2.094551,0.3506249 3,0.59375 l 0,0.875 c -0.86279,-0.2140998 -1.879926,-0.3824128 -3,-0.5 l 0,-0.96875 z m -7,0 0,0.96875 C 6.879926,1.3050872 5.86279,1.4734002 5,1.6875 L 5,0.8125 C 5.905449,0.5693749 6.933121,0.3531547 8,0.21875 z m 11,0.875 c 2.443993,0.8252023 4,2.0439826 4,3.40625 0,1.1649757 -1.14382,2.2321078 -3,3.03125 l 0,-2.9375 C 20.618383,4.2619508 21,3.8944891 21,3.5 21,2.9261102 20.235537,2.390709 19,1.96875 l 0,-0.875 z m -15,0 0,0.875 C 2.764463,2.390709 2,2.9261102 2,3.5 2,3.8944891 2.381617,4.2619508 3,4.59375 l 0,2.9375 C 1.14382,6.7321078 0,5.6649757 0,4.5 0,3.1377326 1.556007,1.9189523 4,1.09375 z m 15,3.9375 0,2.875 C 17.84778,8.2952916 16.483959,8.5671757 15,8.75 l 0,-2.9375 c 1.589652,-0.1650444 2.969769,-0.4294068 4,-0.78125 z m -15,0 C 5.030231,5.3830932 6.410348,5.6474556 8,5.8125 L 8,8.75 C 6.516041,8.5671757 5.15222,8.2952916 4,7.90625 l 0,-2.875 z"
     id="path3037" />
  <path
     id="path2968"
     d="M 13.891,5 14.60975,5.71875 12.8285,7.5 14.60975,9.28125 13.891,10 11.391,7.5 13.891,5 z"
     style="fill:#000000" />
</svg>
