<?xml version="1.0" encoding="UTF-8" standalone="no"?>
<svg
   xmlns:dc="http://purl.org/dc/elements/1.1/"
   xmlns:cc="http://creativecommons.org/ns#"
   xmlns:rdf="http://www.w3.org/1999/02/22-rdf-syntax-ns#"
   xmlns:svg="http://www.w3.org/2000/svg"
   xmlns="http://www.w3.org/2000/svg"
   xmlns:sodipodi="http://sodipodi.sourceforge.net/DTD/sodipodi-0.dtd"
   xmlns:inkscape="http://www.inkscape.org/namespaces/inkscape"
   version="1.0"
   width="23"
   height="10"
   id="svg2"
   inkscape:version="0.47 r22583"
   sodipodi:docname="02-10-007-04-01-01.svg">
  <defs
     id="defs24">
    <inkscape:perspective
       sodipodi:type="inkscape:persp3d"
       inkscape:vp_x="0 : 5 : 1"
       inkscape:vp_y="0 : 1000 : 0"
       inkscape:vp_z="22 : 5 : 1"
       inkscape:persp3d-origin="11 : 3.3333333 : 1"
       id="perspective26" />
  </defs>
  <sodipodi:namedview
     pagecolor="#ffffff"
     bordercolor="#666666"
     borderopacity="1"
     objecttolerance="10"
     gridtolerance="10"
     guidetolerance="10"
     inkscape:pageopacity="0"
     inkscape:pageshadow="2"
     inkscape:window-width="964"
     inkscape:window-height="789"
     id="namedview22"
     showgrid="true"
     inkscape:zoom="16.318747"
     inkscape:cx="11.495714"
     inkscape:cy="4.9981367"
     inkscape:window-x="282"
     inkscape:window-y="0"
     inkscape:window-maximized="0"
     inkscape:current-layer="svg2">
    <inkscape:grid
       type="xygrid"
       id="grid2832" />
  </sodipodi:namedview>
  <metadata
     id="metadata4">
Valerie Sutton's pixel definition of the
ISWA 2010 symbol ID 04-01-008-01-02-01
transformed by Stephen E Slevinski Jr
using line and fill polygon tracing
<rdf:RDF>
  <cc:Work
     rdf:about="">
    <dc:format>image/svg+xml</dc:format>
    <dc:type
       rdf:resource="http://purl.org/dc/dcmitype/StillImage" />
    <dc:title></dc:title>
  </cc:Work>
</rdf:RDF>
</metadata>
  <path
     style="fill:#000000"
     d="M 12.109,0 11.39025,0.71875 13.1715,2.5 11.39025,4.28125 12.109,5 14.609,2.5 12.109,0 z"
     id="path14" />
  <path
     id="path2968"
     d="M 9.109,0 8.39025,0.71875 10.1715,2.5 8.39025,4.28125 9.109,5 11.609,2.5 9.109,0 z"
     style="fill:#000000" />
  <path
     style="fill:#000000;fill-opacity:1;stroke:none"
     d="M 8 2.21875 C 6.9328149 2.3383269 5.9055986 2.5024763 5 2.71875 L 5 3.5625 C 5.8625687 3.3913147 6.8803696 3.2502824 8 3.15625 L 8 2.21875 z M 15 2.21875 L 15 3.15625 C 16.11963 3.2502824 17.137431 3.3913147 18 3.5625 L 18 2.71875 C 17.094401 2.5024763 16.067185 2.3383269 15 2.21875 z M 4 2.96875 C 1.5681552 3.7021692 0 4.7925694 0 6 C 0 7.0355339 1.1438202 7.9771514 3 8.6875 L 3 5.875 C 2.3824983 5.6097121 2 5.3153515 2 5 C 2 4.5409371 2.7647017 4.1187995 4 3.78125 L 4 2.96875 z M 19 2.96875 L 19 3.78125 C 20.235298 4.1187995 21 4.5409371 21 5 C 21 5.3153515 20.617502 5.6097121 20 5.875 L 20 8.6875 C 21.85618 7.9771514 23 7.0355339 23 6 C 23 4.7925694 21.431845 3.7021692 19 2.96875 z M 4 6.21875 L 4 9.03125 C 5.1549247 9.3795633 6.5109188 9.6144001 8 9.78125 L 8 6.84375 C 6.4039598 6.7097061 5.0328446 6.5009783 4 6.21875 z M 19 6.21875 C 17.967155 6.5009783 16.59604 6.7097061 15 6.84375 L 15 9.78125 C 16.489081 9.6144001 17.845075 9.3795633 19 9.03125 L 19 6.21875 z M 9 6.9375 L 9 9.875 C 9.8090376 9.9377417 10.636603 10 11.5 10 C 12.363397 10 13.190962 9.9377417 14 9.875 L 14 6.9375 C 13.196051 6.9840413 12.374183 7 11.5 7 C 10.625817 7 9.8039492 6.9840413 9 6.9375 z "
     id="path2941" />
</svg>
