<?xml version="1.0" encoding="UTF-8" standalone="no"?>
<svg
   xmlns:dc="http://purl.org/dc/elements/1.1/"
   xmlns:cc="http://creativecommons.org/ns#"
   xmlns:rdf="http://www.w3.org/1999/02/22-rdf-syntax-ns#"
   xmlns:svg="http://www.w3.org/2000/svg"
   xmlns="http://www.w3.org/2000/svg"
   xmlns:sodipodi="http://sodipodi.sourceforge.net/DTD/sodipodi-0.dtd"
   xmlns:inkscape="http://www.inkscape.org/namespaces/inkscape"
   version="1.0"
   width="18"
   height="10"
   id="svg2"
   inkscape:version="0.47 r22583"
   sodipodi:docname="02-10-007-04-01-08.svg">
  <defs
     id="defs24">
    <inkscape:perspective
       sodipodi:type="inkscape:persp3d"
       inkscape:vp_x="0 : 5 : 1"
       inkscape:vp_y="0 : 1000 : 0"
       inkscape:vp_z="22 : 5 : 1"
       inkscape:persp3d-origin="11 : 3.3333333 : 1"
       id="perspective26" />
  </defs>
  <sodipodi:namedview
     pagecolor="#ffffff"
     bordercolor="#666666"
     borderopacity="1"
     objecttolerance="10"
     gridtolerance="10"
     guidetolerance="10"
     inkscape:pageopacity="0"
     inkscape:pageshadow="2"
     inkscape:window-width="964"
     inkscape:window-height="789"
     id="namedview22"
     showgrid="true"
     inkscape:zoom="16.955456"
     inkscape:cx="8.9977849"
     inkscape:cy="4.9987694"
     inkscape:window-x="282"
     inkscape:window-y="0"
     inkscape:window-maximized="0"
     inkscape:current-layer="svg2">
    <inkscape:grid
       type="xygrid"
       id="grid2832" />
  </sodipodi:namedview>
  <metadata
     id="metadata4">
Valerie Sutton's pixel definition of the
ISWA 2010 symbol ID 04-01-008-01-02-01
transformed by Stephen E Slevinski Jr
using line and fill polygon tracing
<rdf:RDF>
  <cc:Work
     rdf:about="">
    <dc:format>image/svg+xml</dc:format>
    <dc:type
       rdf:resource="http://purl.org/dc/dcmitype/StillImage" />
    <dc:title></dc:title>
  </cc:Work>
</rdf:RDF>
</metadata>
  <path
     style="fill:#000000"
     d="M 5.891,0 6.60975,0.71875 4.8285,2.5 6.60975,4.28125 5.891,5 3.391,2.5 5.891,0 z"
     id="path14" />
  <path
     id="path2968"
     d="M 8.891,0 9.60975,0.71875 7.8285,2.5 9.60975,4.28125 8.891,5 6.391,2.5 8.891,0 z"
     style="fill:#000000" />
  <path
     style="fill:#000000;fill-opacity:1;stroke:none"
     d="m 10,2.21875 c 1.067185,0.1195769 2.094401,0.2837263 3,0.5 L 13,3.5625 C 12.137431,3.3913147 11.11963,3.2502824 10,3.15625 l 0,-0.9375 z m -7,0 0,0.9375 C 1.88037,3.2502824 0.862569,3.3913147 0,3.5625 L 0,2.71875 c 0.905599,-0.2162737 1.932815,-0.3804231 3,-0.5 z m 11,0.75 C 16.431845,3.7021692 18,4.7925694 18,6 18,7.0355339 16.85618,7.9771514 15,8.6875 L 15,5.875 C 15.617502,5.6097121 16,5.3153515 16,5 16,4.5409371 15.235298,4.1187995 14,3.78125 l 0,-0.8125 z m 0,3.25 0,2.8125 c -1.154925,0.3483133 -2.510919,0.5831501 -4,0.75 l 0,-2.9375 c 1.59604,-0.1340439 2.967155,-0.3427717 4,-0.625 z"
     id="path2941"
     sodipodi:nodetypes="cccccccccccsccsccccccc" />
</svg>
