<?xml version="1.0" encoding="UTF-8" standalone="no"?>
<svg
   xmlns:dc="http://purl.org/dc/elements/1.1/"
   xmlns:cc="http://creativecommons.org/ns#"
   xmlns:rdf="http://www.w3.org/1999/02/22-rdf-syntax-ns#"
   xmlns:svg="http://www.w3.org/2000/svg"
   xmlns="http://www.w3.org/2000/svg"
   xmlns:sodipodi="http://sodipodi.sourceforge.net/DTD/sodipodi-0.dtd"
   xmlns:inkscape="http://www.inkscape.org/namespaces/inkscape"
   version="1.0"
   width="23"
   height="7"
   id="svg2"
   inkscape:version="0.47 r22583"
   sodipodi:docname="02-10-007-04-02-07.svg">
  <defs
     id="defs24">
    <inkscape:perspective
       sodipodi:type="inkscape:persp3d"
       inkscape:vp_x="0 : 5 : 1"
       inkscape:vp_y="0 : 1000 : 0"
       inkscape:vp_z="22 : 5 : 1"
       inkscape:persp3d-origin="11 : 3.3333333 : 1"
       id="perspective26" />
  </defs>
  <sodipodi:namedview
     pagecolor="#ffffff"
     bordercolor="#666666"
     borderopacity="1"
     objecttolerance="10"
     gridtolerance="10"
     guidetolerance="10"
     inkscape:pageopacity="0"
     inkscape:pageshadow="2"
     inkscape:window-width="964"
     inkscape:window-height="789"
     id="namedview22"
     showgrid="true"
     inkscape:zoom="16.318747"
     inkscape:cx="11.495714"
     inkscape:cy="3.4986957"
     inkscape:window-x="282"
     inkscape:window-y="0"
     inkscape:window-maximized="0"
     inkscape:current-layer="svg2">
    <inkscape:grid
       type="xygrid"
       id="grid2832" />
  </sodipodi:namedview>
  <metadata
     id="metadata4">
Valerie Sutton's pixel definition of the
ISWA 2010 symbol ID 04-01-008-01-02-01
transformed by Stephen E Slevinski Jr
using line and fill polygon tracing
<rdf:RDF>
  <cc:Work
     rdf:about="">
    <dc:format>image/svg+xml</dc:format>
    <dc:type
       rdf:resource="http://purl.org/dc/dcmitype/StillImage" />
    <dc:title></dc:title>
  </cc:Work>
</rdf:RDF>
</metadata>
  <path
     style="fill:#000000"
     d="M 12.109,2 11.39025,2.71875 13.1715,4.5 11.39025,6.28125 12.109,7 14.609,4.5 12.109,2 z"
     id="path14" />
  <path
     style="fill:#000000;fill-opacity:1;stroke:none"
     d="M 0.65625,0 C 0.23600591,0.4662319 0,0.97742 0,1.5 0,2.6649757 1.1438202,3.7321078 3,4.53125 L 3,1.59375 C 2.3816168,1.2619508 2,0.8944891 2,0.5 2,0.3336086 2.0661247,0.1580936 2.1875,0 L 0.65625,0 z M 20.8125,0 C 20.933875,0.1580936 21,0.3336086 21,0.5 21,0.8944891 20.618383,1.2619508 20,1.59375 l 0,2.9375 C 21.85618,3.7321078 23,2.6649757 23,1.5 23,0.97742 22.763994,0.4662319 22.34375,0 L 20.8125,0 z M 4,2.03125 4,4.90625 C 5.15222,5.2952916 6.5160412,5.5671757 8,5.75 L 8,2.8125 C 6.4103483,2.6474556 5.0302306,2.3830932 4,2.03125 z m 15,0 C 17.969769,2.3830932 16.589652,2.6474556 15,2.8125 L 15,5.75 c 1.483959,-0.1828243 2.84778,-0.4547084 4,-0.84375 l 0,-2.875 z"
     id="path3037" />
  <path
     id="path2968"
     d="M 9.109,2 8.39025,2.71875 10.1715,4.5 8.39025,6.28125 9.109,7 11.609,4.5 9.109,2 z"
     style="fill:#000000" />
</svg>
