<?xml version="1.0" encoding="UTF-8" standalone="no"?>
<svg
   xmlns:dc="http://purl.org/dc/elements/1.1/"
   xmlns:cc="http://creativecommons.org/ns#"
   xmlns:rdf="http://www.w3.org/1999/02/22-rdf-syntax-ns#"
   xmlns:svg="http://www.w3.org/2000/svg"
   xmlns="http://www.w3.org/2000/svg"
   xmlns:sodipodi="http://sodipodi.sourceforge.net/DTD/sodipodi-0.dtd"
   xmlns:inkscape="http://www.inkscape.org/namespaces/inkscape"
   version="1.0"
   width="7"
   height="23"
   id="svg2"
   inkscape:version="0.47 r22583"
   sodipodi:docname="02-10-007-04-02-01.svg">
  <defs
     id="defs24">
    <inkscape:perspective
       sodipodi:type="inkscape:persp3d"
       inkscape:vp_x="0 : 5 : 1"
       inkscape:vp_y="0 : 1000 : 0"
       inkscape:vp_z="22 : 5 : 1"
       inkscape:persp3d-origin="11 : 3.3333333 : 1"
       id="perspective26" />
  </defs>
  <sodipodi:namedview
     pagecolor="#ffffff"
     bordercolor="#666666"
     borderopacity="1"
     objecttolerance="10"
     gridtolerance="10"
     guidetolerance="10"
     inkscape:pageopacity="0"
     inkscape:pageshadow="2"
     inkscape:window-width="964"
     inkscape:window-height="789"
     id="namedview22"
     showgrid="true"
     inkscape:zoom="16.644642"
     inkscape:cx="3.5006762"
     inkscape:cy="11.502222"
     inkscape:window-x="282"
     inkscape:window-y="0"
     inkscape:window-maximized="0"
     inkscape:current-layer="svg2">
    <inkscape:grid
       type="xygrid"
       id="grid2832" />
  </sodipodi:namedview>
  <metadata
     id="metadata4">
Valerie Sutton's pixel definition of the
ISWA 2010 symbol ID 04-01-008-01-02-01
transformed by Stephen E Slevinski Jr
using line and fill polygon tracing
<rdf:RDF>
  <cc:Work
     rdf:about="">
    <dc:format>image/svg+xml</dc:format>
    <dc:type
       rdf:resource="http://purl.org/dc/dcmitype/StillImage" />
    <dc:title></dc:title>
  </cc:Work>
</rdf:RDF>
</metadata>
  <path
     style="fill:#000000"
     d="M 5,10.891 4.28125,11.60975 2.5,9.8285 0.71875,11.60975 0,10.891 l 2.5,-2.5 2.5,2.5 z"
     id="path14" />
  <path
     style="fill:#000000;fill-opacity:1;stroke:none"
     d="M 7,22.34375 C 6.5337681,22.763994 6.02258,23 5.5,23 4.335024,23 3.267892,21.85618 2.46875,20 l 2.9375,0 C 5.7380492,20.618383 6.1055109,21 6.5,21 6.6663914,21 6.8419064,20.933875 7,20.8125 l 0,1.53125 z M 7,2.1875 C 6.8419064,2.066125 6.6663914,2 6.5,2 6.1055109,2 5.7380492,2.381617 5.40625,3 L 2.46875,3 C 3.267892,1.14382 4.335024,0 5.5,0 6.02258,0 6.5337681,0.236006 7,0.65625 L 7,2.1875 z M 4.96875,19 2.09375,19 C 1.704708,17.84778 1.432824,16.483959 1.25,15 l 2.9375,0 c 0.165044,1.589652 0.429407,2.969769 0.78125,4 z m 0,-15 C 4.616907,5.030231 4.352544,6.410348 4.1875,8 L 1.25,8 C 1.432824,6.516041 1.704708,5.15222 2.09375,4 l 2.875,0 z"
     id="path3037" />
  <path
     id="path2968"
     d="M 5,13.891 4.28125,14.60975 2.5,12.8285 0.71875,14.60975 0,13.891 l 2.5,-2.5 2.5,2.5 z"
     style="fill:#000000" />
</svg>
