<?xml version="1.0" encoding="UTF-8" standalone="no"?>
<svg
   xmlns:dc="http://purl.org/dc/elements/1.1/"
   xmlns:cc="http://creativecommons.org/ns#"
   xmlns:rdf="http://www.w3.org/1999/02/22-rdf-syntax-ns#"
   xmlns:svg="http://www.w3.org/2000/svg"
   xmlns="http://www.w3.org/2000/svg"
   xmlns:sodipodi="http://sodipodi.sourceforge.net/DTD/sodipodi-0.dtd"
   xmlns:inkscape="http://www.inkscape.org/namespaces/inkscape"
   version="1.0"
   width="13"
   height="35"
   id="svg2"
   inkscape:version="0.47 r22583"
   sodipodi:docname="02-07-010-01-02-04.svg">
  <defs
     id="defs16">
    <inkscape:perspective
       sodipodi:type="inkscape:persp3d"
       inkscape:vp_x="0 : 23 : 1"
       inkscape:vp_y="0 : 1000 : 0"
       inkscape:vp_z="36 : 23 : 1"
       inkscape:persp3d-origin="18 : 15.333333 : 1"
       id="perspective18" />
  </defs>
  <sodipodi:namedview
     pagecolor="#ffffff"
     bordercolor="#666666"
     borderopacity="1"
     objecttolerance="10"
     gridtolerance="10"
     guidetolerance="10"
     inkscape:pageopacity="0"
     inkscape:pageshadow="2"
     inkscape:window-width="964"
     inkscape:window-height="721"
     id="namedview14"
     showgrid="true"
     inkscape:zoom="13.514286"
     inkscape:cx="6.5"
     inkscape:cy="17.5"
     inkscape:window-x="365"
     inkscape:window-y="0"
     inkscape:window-maximized="0"
     inkscape:current-layer="svg2"
     showborder="true">
    <inkscape:grid
       type="xygrid"
       id="grid2824"
       empspacing="5"
       visible="true"
       enabled="true"
       snapvisiblegridlinesonly="true" />
  </sodipodi:namedview>
  <metadata
     id="metadata4">
Valerie Sutton's pixel definition of the
ISWA 2010 symbol ID 04-01-003-01-01-01
transformed by Stephen E Slevinski Jr
using line and fill polygon tracing
<rdf:RDF>
  <cc:Work
     rdf:about="">
    <dc:format>image/svg+xml</dc:format>
    <dc:type
       rdf:resource="http://purl.org/dc/dcmitype/StillImage" />
    <dc:title></dc:title>
  </cc:Work>
</rdf:RDF>
</metadata>
  <path
     style="fill:#000000;fill-opacity:1;stroke:none"
     d="M 13,0 13,10 3,0 13,0 z M 12,1 5.40625,1 12,7.5625 12,1 z"
     id="path2820" />
  <path
     style="fill:#000000;fill-opacity:1;stroke:none"
     d="M 5.875,2.875 6.9375,3.9375 3.25,7.625 c -2.343145,2.343144 -2.343145,6.125605 0,8.46875 l 2.125,2.125 -2.125,2.125 c -2.343145,2.343146 -2.343146,6.156853 0,8.5 L 8.375,33.9375 7.3125,35 2.1875,29.90625 c -2.928932,-2.928933 -2.928932,-7.696068 0,-10.625 L 3.25,18.21875 2.1875,17.15625 c -2.928932,-2.928933 -2.928932,-7.664817 0,-10.59375 L 5.875,2.875 z"
     id="rect2825" />
  <path
     style="fill:#000000;fill-opacity:1;stroke:none"
     d="M 9.0625,6.0625 10.125,7.125 6.4375,10.8125 c -0.585787,0.585786 -0.585787,1.539214 0,2.125 l 5.3125,5.28125 -1.0625,1.0625 -4.25,4.25 c -0.585787,0.585786 -0.585787,1.539214 0,2.125 L 11.5625,30.75 10.5,31.8125 5.375,26.71875 c -1.171573,-1.171573 -1.171573,-3.078427 0,-4.25 l 4.25,-4.25 L 5.375,14 c -1.171573,-1.171573 -1.171573,-3.078428 0,-4.25 L 9.0625,6.0625 z"
     id="rect2849" />
  <path
     style="fill:#ffffff;fill-opacity:1;stroke:none"
     d="M 6.9375,3.9375 9.0625,6.0625 5.375,9.75 c -1.171573,1.171572 -1.171573,3.078427 0,4.25 l 4.25,4.21875 -4.25,4.25 c -1.171573,1.171573 -1.171573,3.078427 0,4.25 L 10.5,31.8125 8.375,33.9375 3.25,28.84375 c -2.343146,-2.343147 -2.343145,-6.156854 0,-8.5 l 2.125,-2.125 -2.125,-2.125 C 0.906855,13.750605 0.906855,9.968144 3.25,7.625 L 6.9375,3.9375 z"
     id="rect2997" />
  <path
     style="fill:#ffffff;fill-opacity:1;stroke:none"
     d="M 12,1 12,7.5625 5.40625,1 12,1 z"
     id="path3078" />
  <path
     style="fill:#000000;fill-opacity:1;stroke:none"
     d="m 3,9 c 1.656854,0 3,1.343146 3,3 0,1.656854 -1.343146,3 -3,3 C 1.343146,15 0,13.656854 0,12 0,10.343146 1.343146,9 3,9 z"
     id="path2953" />
  <path
     id="path2955"
     d="m 3,22 c 1.656854,0 3,1.343146 3,3 0,1.656854 -1.343146,3 -3,3 -1.656854,0 -3,-1.343146 -3,-3 0,-1.656854 1.343146,-3 3,-3 z"
     style="fill:#000000;fill-opacity:1;stroke:none" />
</svg>
