<?xml version="1.0" encoding="UTF-8" standalone="no"?>
<svg
   xmlns:dc="http://purl.org/dc/elements/1.1/"
   xmlns:cc="http://creativecommons.org/ns#"
   xmlns:rdf="http://www.w3.org/1999/02/22-rdf-syntax-ns#"
   xmlns:svg="http://www.w3.org/2000/svg"
   xmlns="http://www.w3.org/2000/svg"
   xmlns:sodipodi="http://sodipodi.sourceforge.net/DTD/sodipodi-0.dtd"
   xmlns:inkscape="http://www.inkscape.org/namespaces/inkscape"
   version="1.0"
   width="31"
   height="25"
   id="svg2"
   inkscape:version="0.47 r22583"
   sodipodi:docname="02-08-003-03-02-03.svg">
  <defs
     id="defs16">
    <inkscape:perspective
       sodipodi:type="inkscape:persp3d"
       inkscape:vp_x="0 : 23 : 1"
       inkscape:vp_y="0 : 1000 : 0"
       inkscape:vp_z="36 : 23 : 1"
       inkscape:persp3d-origin="18 : 15.333333 : 1"
       id="perspective18" />
  </defs>
  <sodipodi:namedview
     pagecolor="#ffffff"
     bordercolor="#666666"
     borderopacity="1"
     objecttolerance="10"
     gridtolerance="10"
     guidetolerance="10"
     inkscape:pageopacity="0"
     inkscape:pageshadow="2"
     inkscape:window-width="964"
     inkscape:window-height="721"
     id="namedview14"
     showgrid="true"
     inkscape:zoom="16.47"
     inkscape:cx="15.5"
     inkscape:cy="12.5"
     inkscape:window-x="365"
     inkscape:window-y="0"
     inkscape:window-maximized="0"
     inkscape:current-layer="svg2"
     showborder="true">
    <inkscape:grid
       type="xygrid"
       id="grid2824"
       empspacing="5"
       visible="true"
       enabled="true"
       snapvisiblegridlinesonly="true" />
  </sodipodi:namedview>
  <metadata
     id="metadata4">
Valerie Sutton's pixel definition of the
ISWA 2010 symbol ID 04-01-003-01-01-01
transformed by Stephen E Slevinski Jr
using line and fill polygon tracing
<rdf:RDF>
  <cc:Work
     rdf:about="">
    <dc:format>image/svg+xml</dc:format>
    <dc:type
       rdf:resource="http://purl.org/dc/dcmitype/StillImage" />
    <dc:title></dc:title>
  </cc:Work>
</rdf:RDF>
</metadata>
  <path
     style="fill:#000000;fill-opacity:1;stroke:none"
     d="m 2.0502525,3.1005055 c -1.5620972,1.5620972 -1.5620972,4.0947571 0,5.6568543 L 2.7573593,9.464467 3.4644661,8.7573598 2.7573593,8.050253 c -1.1715729,-1.1715728 -1.1715729,-3.0710678 0,-4.2426407 L 3.4644661,3.1005055 C 4.6360387,1.9289328 6.8521164,2.2455152 8.4142135,3.8076123 L 12.23701,7.6304084 c -0.493476,0.1313069 -0.960856,0.3863313 -1.347923,0.773398 -1.1715726,1.1715726 -1.1715724,3.0710676 0,4.2426406 1.171573,1.171573 3.071068,1.171573 4.242641,0 0.387067,-0.387067 0.642091,-0.854447 0.773398,-1.347922 l 1.988738,1.988738 c -0.493475,0.131307 -0.960855,0.386331 -1.347922,0.773398 -1.171573,1.171572 -1.171573,3.071068 0,4.24264 1.171573,1.171573 3.071068,1.171573 4.242641,0 0.387066,-0.387066 0.642091,-0.854446 0.773398,-1.347922 l 7.35833,7.35833 1.414213,-1.414214 L 9.8284271,2.3933988 c -1.9526214,-1.9526215 -5.1184462,-1.9526217 -7.0710678,0 L 2.0502525,3.1005055 z M 11.949747,9.464467 c 0.585787,-0.5857868 1.535534,-0.5857868 2.121321,0 0.585786,0.585786 0.585786,1.535534 0,2.12132 -0.585787,0.585786 -1.535534,0.585786 -2.121321,0 -0.585786,-0.585786 -0.585786,-1.535534 0,-2.12132 z m 5.656855,5.656854 c 0.585786,-0.585787 1.535534,-0.585787 2.12132,0 0.585787,0.585786 0.585787,1.535534 0,2.12132 -0.585786,0.585787 -1.535534,0.585787 -2.12132,0 -0.585786,-0.585786 -0.585786,-1.535534 0,-2.12132 z"
     id="path2825" />
</svg>
