<?xml version="1.0" encoding="UTF-8" standalone="no"?>
<svg
   xmlns:dc="http://purl.org/dc/elements/1.1/"
   xmlns:cc="http://creativecommons.org/ns#"
   xmlns:rdf="http://www.w3.org/1999/02/22-rdf-syntax-ns#"
   xmlns:svg="http://www.w3.org/2000/svg"
   xmlns="http://www.w3.org/2000/svg"
   xmlns:sodipodi="http://sodipodi.sourceforge.net/DTD/sodipodi-0.dtd"
   xmlns:inkscape="http://www.inkscape.org/namespaces/inkscape"
   version="1.0"
   width="10"
   height="34"
   id="svg2"
   inkscape:version="0.47 r22583"
   sodipodi:docname="02-08-003-03-04-01.svg">
  <defs
     id="defs16">
    <inkscape:perspective
       sodipodi:type="inkscape:persp3d"
       inkscape:vp_x="0 : 23 : 1"
       inkscape:vp_y="0 : 1000 : 0"
       inkscape:vp_z="36 : 23 : 1"
       inkscape:persp3d-origin="18 : 15.333333 : 1"
       id="perspective18" />
  </defs>
  <sodipodi:namedview
     pagecolor="#ffffff"
     bordercolor="#666666"
     borderopacity="1"
     objecttolerance="10"
     gridtolerance="10"
     guidetolerance="10"
     inkscape:pageopacity="0"
     inkscape:pageshadow="2"
     inkscape:window-width="964"
     inkscape:window-height="721"
     id="namedview14"
     showgrid="true"
     inkscape:zoom="13.911765"
     inkscape:cx="5"
     inkscape:cy="17"
     inkscape:window-x="365"
     inkscape:window-y="0"
     inkscape:window-maximized="0"
     inkscape:current-layer="svg2"
     showborder="true">
    <inkscape:grid
       type="xygrid"
       id="grid2824"
       empspacing="5"
       visible="true"
       enabled="true"
       snapvisiblegridlinesonly="true" />
  </sodipodi:namedview>
  <metadata
     id="metadata4">
Valerie Sutton's pixel definition of the
ISWA 2010 symbol ID 04-01-003-01-01-01
transformed by Stephen E Slevinski Jr
using line and fill polygon tracing
<rdf:RDF>
  <cc:Work
     rdf:about="">
    <dc:format>image/svg+xml</dc:format>
    <dc:type
       rdf:resource="http://purl.org/dc/dcmitype/StillImage" />
    <dc:title></dc:title>
  </cc:Work>
</rdf:RDF>
</metadata>
  <path
     style="fill:#000000;fill-opacity:1;stroke:none"
     d="m 6,0 c 2.209139,0 4,1.790861 4,4 L 10,5 9,5 9,4 C 9,2.3431458 7.6568542,1 6,1 L 5,1 C 3.343146,1 2,2.790861 2,5 l 0,5.40625 C 2.441788,10.150158 2.952605,10 3.5,10 c 1.6568542,0 3,1.343146 3,3 0,1.656854 -1.3431458,3 -3,3 C 2.952605,16 2.441788,15.849842 2,15.59375 l 0,2.8125 C 2.441788,18.150158 2.952605,18 3.5,18 c 1.6568542,0 3,1.343146 3,3 0,1.656854 -1.3431458,3 -3,3 C 2.952605,24 2.441788,23.849842 2,23.59375 L 2,34 0,34 0,5 C 0,2.2385763 2.238576,0 5,0 L 6,0 z M 3.5,11.5 C 2.671573,11.5 2,12.171573 2,13 2,13.828427 2.671573,14.5 3.5,14.5 4.328427,14.5 5,13.828427 5,13 5,12.171573 4.328427,11.5 3.5,11.5 z m 0,8 C 2.671573,19.5 2,20.171573 2,21 2,21.828427 2.671573,22.5 3.5,22.5 4.328427,22.5 5,21.828427 5,21 5,20.171573 4.328427,19.5 3.5,19.5 z"
     id="path2825" />
</svg>
