<?xml version="1.0" encoding="UTF-8" standalone="no"?>
<svg
   xmlns:dc="http://purl.org/dc/elements/1.1/"
   xmlns:cc="http://creativecommons.org/ns#"
   xmlns:rdf="http://www.w3.org/1999/02/22-rdf-syntax-ns#"
   xmlns:svg="http://www.w3.org/2000/svg"
   xmlns="http://www.w3.org/2000/svg"
   xmlns:sodipodi="http://sodipodi.sourceforge.net/DTD/sodipodi-0.dtd"
   xmlns:inkscape="http://www.inkscape.org/namespaces/inkscape"
   version="1.0"
   width="7"
   height="29"
   id="svg2"
   inkscape:version="0.47 r22583"
   sodipodi:docname="02-08-003-03-04-05.svg">
  <defs
     id="defs16">
    <inkscape:perspective
       sodipodi:type="inkscape:persp3d"
       inkscape:vp_x="0 : 23 : 1"
       inkscape:vp_y="0 : 1000 : 0"
       inkscape:vp_z="36 : 23 : 1"
       inkscape:persp3d-origin="18 : 15.333333 : 1"
       id="perspective18" />
  </defs>
  <sodipodi:namedview
     pagecolor="#ffffff"
     bordercolor="#666666"
     borderopacity="1"
     objecttolerance="10"
     gridtolerance="10"
     guidetolerance="10"
     inkscape:pageopacity="0"
     inkscape:pageshadow="2"
     inkscape:window-width="964"
     inkscape:window-height="721"
     id="namedview14"
     showgrid="true"
     inkscape:zoom="16.310345"
     inkscape:cx="3.5"
     inkscape:cy="14.5"
     inkscape:window-x="365"
     inkscape:window-y="0"
     inkscape:window-maximized="0"
     inkscape:current-layer="svg2"
     showborder="true">
    <inkscape:grid
       type="xygrid"
       id="grid2824"
       empspacing="5"
       visible="true"
       enabled="true"
       snapvisiblegridlinesonly="true" />
  </sodipodi:namedview>
  <metadata
     id="metadata4">
Valerie Sutton's pixel definition of the
ISWA 2010 symbol ID 04-01-003-01-01-01
transformed by Stephen E Slevinski Jr
using line and fill polygon tracing
<rdf:RDF>
  <cc:Work
     rdf:about="">
    <dc:format>image/svg+xml</dc:format>
    <dc:type
       rdf:resource="http://purl.org/dc/dcmitype/StillImage" />
    <dc:title></dc:title>
  </cc:Work>
</rdf:RDF>
</metadata>
  <path
     style="fill:#000000;fill-opacity:1;stroke:none"
     d="M 3,0 C 5.209139,0 7,1.790861 7,4 L 7,29 5,29 5,22.59375 C 4.5582123,22.849842 4.0473955,23 3.5,23 c -1.656854,0 -3,-1.343146 -3,-3 0,-1.656854 1.343146,-3 3,-3 0.5473955,0 1.0582123,0.150158 1.5,0.40625 l 0,-2.8125 C 4.5582123,14.849842 4.0473955,15 3.5,15 1.843146,15 0.5,13.656854 0.5,12 0.5,10.343146 1.843146,9 3.5,9 4.0473955,9 4.5582123,9.150158 5,9.40625 L 5,4 C 5,2.8954305 4.1045695,2 3,2 2.447715,2 2,2.4477153 2,3 L 2,8 0,8 0,3 C 0,1.3431458 1.343146,0 3,0 z M 3.5,10.5 C 2.671573,10.5 2,11.171573 2,12 2,12.828427 2.671573,13.5 3.5,13.5 4.3284271,13.5 5,12.828427 5,12 5,11.171573 4.3284271,10.5 3.5,10.5 z m 0,8 C 2.671573,18.5 2,19.171573 2,20 2,20.828427 2.671573,21.5 3.5,21.5 4.3284271,21.5 5,20.828427 5,20 5,19.171573 4.3284271,18.5 3.5,18.5 z"
     id="path2816" />
</svg>
