<?xml version="1.0" encoding="UTF-8" standalone="no"?>
<svg
   xmlns:dc="http://purl.org/dc/elements/1.1/"
   xmlns:cc="http://creativecommons.org/ns#"
   xmlns:rdf="http://www.w3.org/1999/02/22-rdf-syntax-ns#"
   xmlns:svg="http://www.w3.org/2000/svg"
   xmlns="http://www.w3.org/2000/svg"
   xmlns:sodipodi="http://sodipodi.sourceforge.net/DTD/sodipodi-0.dtd"
   xmlns:inkscape="http://www.inkscape.org/namespaces/inkscape"
   version="1.0"
   width="29"
   height="25"
   id="svg2"
   inkscape:version="0.47 r22583"
   sodipodi:docname="02-08-003-03-02-06.svg">
  <defs
     id="defs16">
    <inkscape:perspective
       sodipodi:type="inkscape:persp3d"
       inkscape:vp_x="0 : 23 : 1"
       inkscape:vp_y="0 : 1000 : 0"
       inkscape:vp_z="36 : 23 : 1"
       inkscape:persp3d-origin="18 : 15.333333 : 1"
       id="perspective18" />
  </defs>
  <sodipodi:namedview
     pagecolor="#ffffff"
     bordercolor="#666666"
     borderopacity="1"
     objecttolerance="10"
     gridtolerance="10"
     guidetolerance="10"
     inkscape:pageopacity="0"
     inkscape:pageshadow="2"
     inkscape:window-width="964"
     inkscape:window-height="721"
     id="namedview14"
     showgrid="true"
     inkscape:zoom="16.47"
     inkscape:cx="14.5"
     inkscape:cy="12.5"
     inkscape:window-x="365"
     inkscape:window-y="0"
     inkscape:window-maximized="0"
     inkscape:current-layer="svg2"
     showborder="true">
    <inkscape:grid
       type="xygrid"
       id="grid2824"
       empspacing="5"
       visible="true"
       enabled="true"
       snapvisiblegridlinesonly="true" />
  </sodipodi:namedview>
  <metadata
     id="metadata4">
Valerie Sutton's pixel definition of the
ISWA 2010 symbol ID 04-01-003-01-01-01
transformed by Stephen E Slevinski Jr
using line and fill polygon tracing
<rdf:RDF>
  <cc:Work
     rdf:about="">
    <dc:format>image/svg+xml</dc:format>
    <dc:type
       rdf:resource="http://purl.org/dc/dcmitype/StillImage" />
    <dc:title></dc:title>
  </cc:Work>
</rdf:RDF>
</metadata>
  <path
     style="fill:#000000;fill-opacity:1;stroke:none"
     d="M 29,15.100505 29,25 19.100505,25 29,15.100505 z m -1.016466,2.43068 -6.452349,6.452349 6.474446,0.0221 -0.0221,-6.474446 z"
     id="path2814" />
  <path
     style="fill:#000000;fill-opacity:1;stroke:none"
     d="m 1.4228356,1.6654763 c 1.5620972,-1.5620972 4.0947571,-1.5620972 5.6568542,0 L 19.807612,14.393398 c 1.795055,1.795055 7.071068,2.828427 7.071068,2.828427 l -5.656855,5.656855 c 0,0 -0.884817,-4.480096 -2.430679,-6.584932 -0.136391,0.468842 -0.381658,0.911988 -0.751301,1.281631 -1.171573,1.171573 -3.071068,1.171573 -4.242641,0 -1.171572,-1.171573 -1.171572,-3.071068 0,-4.242641 0.387067,-0.387067 0.854447,-0.642091 1.347923,-0.773398 l -1.988738,-1.988738 c -0.131307,0.493476 -0.386331,0.960856 -0.773398,1.347923 -1.171573,1.171572 -3.0710683,1.171572 -4.242641,0 -1.1715727,-1.171573 -1.1715727,-3.071068 0,-4.242641 C 8.5274171,7.288817 8.9947969,7.033793 9.4882723,6.902486 L 5.6654763,3.0796898 c -0.7810486,-0.7810485 -2.0473786,-0.7810485 -2.8284271,0 -0.3905245,0.3905245 -0.3905243,1.0236894 0,1.4142132 L 6.3725831,8.029437 4.9583695,9.443651 1.4228356,5.908117 c -1.1715728,-1.171573 -1.1715727,-3.071068 0,-4.2426407 z M 9.2010102,8.736544 c -0.5857864,0.585786 -0.5857864,1.535534 0,2.12132 0.5857863,0.585787 1.5355338,0.585787 2.1213208,0 0.585786,-0.585786 0.585786,-1.535534 0,-2.12132 -0.585787,-0.585786 -1.5355344,-0.585786 -2.1213208,0 z m 5.6568538,5.656854 c -0.585786,0.585787 -0.585786,1.535534 0,2.121321 0.585787,0.585786 1.535534,0.585786 2.121321,0 0.585786,-0.585787 0.585786,-1.535534 0,-2.121321 -0.585787,-0.585786 -1.535534,-0.585786 -2.121321,0 z"
     id="path2816" />
  <path
     style="fill:#ffffff;fill-opacity:1;stroke:none"
     d="m 27.983534,17.531185 0.0221,6.474446 -6.474446,-0.0221 6.452349,-6.452349 z"
     id="path2912" />
</svg>
