<?xml version="1.0" encoding="UTF-8" standalone="no"?>
<svg
   xmlns:dc="http://purl.org/dc/elements/1.1/"
   xmlns:cc="http://creativecommons.org/ns#"
   xmlns:rdf="http://www.w3.org/1999/02/22-rdf-syntax-ns#"
   xmlns:svg="http://www.w3.org/2000/svg"
   xmlns="http://www.w3.org/2000/svg"
   xmlns:sodipodi="http://sodipodi.sourceforge.net/DTD/sodipodi-0.dtd"
   xmlns:inkscape="http://www.inkscape.org/namespaces/inkscape"
   version="1.0"
   width="31"
   height="25"
   id="svg2"
   inkscape:version="0.47 r22583"
   sodipodi:docname="02-08-003-03-04-03.svg">
  <defs
     id="defs16">
    <inkscape:perspective
       sodipodi:type="inkscape:persp3d"
       inkscape:vp_x="0 : 23 : 1"
       inkscape:vp_y="0 : 1000 : 0"
       inkscape:vp_z="36 : 23 : 1"
       inkscape:persp3d-origin="18 : 15.333333 : 1"
       id="perspective18" />
  </defs>
  <sodipodi:namedview
     pagecolor="#ffffff"
     bordercolor="#666666"
     borderopacity="1"
     objecttolerance="10"
     gridtolerance="10"
     guidetolerance="10"
     inkscape:pageopacity="0"
     inkscape:pageshadow="2"
     inkscape:window-width="964"
     inkscape:window-height="721"
     id="namedview14"
     showgrid="true"
     inkscape:zoom="16.47"
     inkscape:cx="15.5"
     inkscape:cy="12.5"
     inkscape:window-x="365"
     inkscape:window-y="0"
     inkscape:window-maximized="0"
     inkscape:current-layer="svg2"
     showborder="true">
    <inkscape:grid
       type="xygrid"
       id="grid2824"
       empspacing="5"
       visible="true"
       enabled="true"
       snapvisiblegridlinesonly="true" />
  </sodipodi:namedview>
  <metadata
     id="metadata4">
Valerie Sutton's pixel definition of the
ISWA 2010 symbol ID 04-01-003-01-01-01
transformed by Stephen E Slevinski Jr
using line and fill polygon tracing
<rdf:RDF>
  <cc:Work
     rdf:about="">
    <dc:format>image/svg+xml</dc:format>
    <dc:type
       rdf:resource="http://purl.org/dc/dcmitype/StillImage" />
    <dc:title></dc:title>
  </cc:Work>
</rdf:RDF>
</metadata>
  <path
     style="fill:#000000;fill-opacity:1;stroke:none"
     d="m 28.949748,3.1005055 c 1.562097,1.5620972 1.562097,4.0947571 0,5.6568543 L 28.242641,9.464467 27.535534,8.7573598 28.242641,8.050253 c 1.171573,-1.1715728 1.171573,-3.0710678 0,-4.2426407 L 27.535534,3.1005055 C 26.363962,1.9289328 24.147884,2.2455152 22.585787,3.8076123 L 18.76299,7.6304084 c 0.493476,0.1313069 0.960856,0.3863313 1.347923,0.773398 1.171573,1.1715726 1.171573,3.0710676 0,4.2426406 -1.171573,1.171573 -3.071068,1.171573 -4.242641,0 C 15.481205,12.25938 15.226181,11.792 15.094874,11.298525 l -1.988738,1.988738 c 0.493475,0.131307 0.960855,0.386331 1.347922,0.773398 1.171573,1.171572 1.171573,3.071068 0,4.24264 -1.171573,1.171573 -3.071068,1.171573 -4.242641,0 C 9.8243514,17.916235 9.5693264,17.448855 9.4380194,16.955379 l -7.35833,7.35833 L 0.6654764,22.899495 21.171573,2.3933988 c 1.952622,-1.9526215 5.118446,-1.9526217 7.071068,0 l 0.707107,0.7071067 z M 19.050253,9.464467 c -0.585787,-0.5857868 -1.535534,-0.5857868 -2.121321,0 -0.585786,0.585786 -0.585786,1.535534 0,2.12132 0.585787,0.585786 1.535534,0.585786 2.121321,0 0.585786,-0.585786 0.585786,-1.535534 0,-2.12132 z m -5.656855,5.656854 c -0.585786,-0.585787 -1.535534,-0.585787 -2.12132,0 -0.585787,0.585786 -0.585787,1.535534 0,2.12132 0.585786,0.585787 1.535534,0.585787 2.12132,0 0.585786,-0.585786 0.585786,-1.535534 0,-2.12132 z"
     id="path2825" />
</svg>
