<?xml version="1.0" encoding="UTF-8" standalone="no"?>
<svg
   xmlns:dc="http://purl.org/dc/elements/1.1/"
   xmlns:cc="http://creativecommons.org/ns#"
   xmlns:rdf="http://www.w3.org/1999/02/22-rdf-syntax-ns#"
   xmlns:svg="http://www.w3.org/2000/svg"
   xmlns="http://www.w3.org/2000/svg"
   xmlns:sodipodi="http://sodipodi.sourceforge.net/DTD/sodipodi-0.dtd"
   xmlns:inkscape="http://www.inkscape.org/namespaces/inkscape"
   version="1.0"
   width="17"
   height="37"
   id="svg2"
   inkscape:version="0.47 r22583"
   sodipodi:docname="02-06-006-02-01-01.svg">
  <defs
     id="defs16">
    <inkscape:perspective
       sodipodi:type="inkscape:persp3d"
       inkscape:vp_x="0 : 23 : 1"
       inkscape:vp_y="0 : 1000 : 0"
       inkscape:vp_z="36 : 23 : 1"
       inkscape:persp3d-origin="18 : 15.333333 : 1"
       id="perspective18" />
  </defs>
  <sodipodi:namedview
     pagecolor="#ffffff"
     bordercolor="#666666"
     borderopacity="1"
     objecttolerance="10"
     gridtolerance="10"
     guidetolerance="10"
     inkscape:pageopacity="0"
     inkscape:pageshadow="2"
     inkscape:window-width="964"
     inkscape:window-height="721"
     id="namedview14"
     showgrid="true"
     inkscape:zoom="12.783784"
     inkscape:cx="8.5"
     inkscape:cy="18.5"
     inkscape:window-x="365"
     inkscape:window-y="0"
     inkscape:window-maximized="0"
     inkscape:current-layer="svg2"
     showborder="true">
    <inkscape:grid
       type="xygrid"
       id="grid2824"
       empspacing="5"
       visible="true"
       enabled="true"
       snapvisiblegridlinesonly="true" />
  </sodipodi:namedview>
  <metadata
     id="metadata4">
Valerie Sutton's pixel definition of the
ISWA 2010 symbol ID 04-01-003-01-01-01
transformed by Stephen E Slevinski Jr
using line and fill polygon tracing
<rdf:RDF>
  <cc:Work
     rdf:about="">
    <dc:format>image/svg+xml</dc:format>
    <dc:type
       rdf:resource="http://purl.org/dc/dcmitype/StillImage" />
    <dc:title></dc:title>
  </cc:Work>
</rdf:RDF>
</metadata>
  <path
     style="fill:#000000;fill-opacity:1;stroke:none"
     d="M 6,0 6,12 0,6 6,0 z"
     id="path2816" />
  <path
     style="fill:#000000;fill-opacity:1;stroke:none"
     d="M 6 4 L 6 5 L 11 5 C 13.761424 5 16 7.2385763 16 10 L 16 12 C 16 14.761424 13.761424 17 11 17 L 7 17 C 5.343146 17 4 18.343146 4 20 L 4 21 C 4 22.656854 5.343146 24 7 24 L 11 24 C 13.761424 24 16 26.238576 16 29 L 16 31 C 16 33.761424 13.761424 36 11 36 L 3 36 L 3 37 L 11 37 C 14.313709 37 17 34.313709 17 31 L 17 29 C 17 25.686291 14.313709 23 11 23 L 7 23 C 5.895431 23 5 22.104569 5 21 L 5 20 C 5 18.895431 5.895431 18 7 18 L 11 18 C 14.313709 18 17 15.313709 17 12 L 17 10 C 17 6.6862915 14.313709 4 11 4 L 6 4 z "
     id="path2986" />
  <path
     style="fill:#ffffff;fill-opacity:1;stroke:none"
     d="M 6 5 L 6 7 L 11 7 C 12.656854 7 14 8.3431458 14 10 L 14 12 C 14 13.656854 12.656854 15 11 15 L 7 15 C 4.238576 15 2 17.238576 2 20 L 2 21 C 2 23.761424 4.238576 26 7 26 L 11 26 C 12.656854 26 14 27.343146 14 29 L 14 31 C 14 32.656854 12.656854 34 11 34 L 3 34 L 3 36 L 11 36 C 13.761424 36 16 33.761424 16 31 L 16 29 C 16 26.238576 13.761424 24 11 24 L 7 24 C 5.343146 24 4 22.656854 4 21 L 4 20 C 4 18.343146 5.343146 17 7 17 L 11 17 C 13.761424 17 16 14.761424 16 12 L 16 10 C 16 7.2385763 13.761424 5 11 5 L 6 5 z "
     id="path2983" />
  <path
     style="fill:#000000;fill-opacity:1;stroke:none"
     d="M 6 7 L 6 8 L 11 8 C 12.104569 8 13 8.8954305 13 10 L 13 12 C 13 13.104569 12.104569 14 11 14 L 7 14 C 3.686291 14 1 16.686291 1 20 L 1 21 C 1 24.313709 3.686291 27 7 27 L 11 27 C 12.104569 27 13 27.895431 13 29 L 13 31 C 13 32.104569 12.104569 33 11 33 L 3 33 L 3 34 L 11 34 C 12.656854 34 14 32.656854 14 31 L 14 29 C 14 27.343146 12.656854 26 11 26 L 7 26 C 4.238576 26 2 23.761424 2 21 L 2 20 C 2 17.238576 4.238576 15 7 15 L 11 15 C 12.656854 15 14 13.656854 14 12 L 14 10 C 14 8.3431458 12.656854 7 11 7 L 6 7 z "
     id="path2980" />
</svg>
