<?xml version="1.0" encoding="UTF-8" standalone="no"?>
<svg
   xmlns:dc="http://purl.org/dc/elements/1.1/"
   xmlns:cc="http://creativecommons.org/ns#"
   xmlns:rdf="http://www.w3.org/1999/02/22-rdf-syntax-ns#"
   xmlns:svg="http://www.w3.org/2000/svg"
   xmlns="http://www.w3.org/2000/svg"
   xmlns:sodipodi="http://sodipodi.sourceforge.net/DTD/sodipodi-0.dtd"
   xmlns:inkscape="http://www.inkscape.org/namespaces/inkscape"
   version="1.0"
   width="36"
   height="45"
   id="svg2"
   inkscape:version="0.47 r22583"
   sodipodi:docname="04-01-001-01-02-02.svg">
  <defs
     id="defs20">
    <inkscape:perspective
       sodipodi:type="inkscape:persp3d"
       inkscape:vp_x="0 : 22.5 : 1"
       inkscape:vp_y="0 : 1000 : 0"
       inkscape:vp_z="36 : 22.5 : 1"
       inkscape:persp3d-origin="18 : 15 : 1"
       id="perspective22" />
  </defs>
  <sodipodi:namedview
     pagecolor="#ffffff"
     bordercolor="#666666"
     borderopacity="1"
     objecttolerance="10"
     gridtolerance="10"
     guidetolerance="10"
     inkscape:pageopacity="0"
     inkscape:pageshadow="2"
     inkscape:window-width="1112"
     inkscape:window-height="792"
     id="namedview18"
     showgrid="true"
     inkscape:zoom="12.05"
     inkscape:cx="17.175844"
     inkscape:cy="22.3616"
     inkscape:window-x="0"
     inkscape:window-y="0"
     inkscape:window-maximized="0"
     inkscape:current-layer="svg2">
    <inkscape:grid
       type="xygrid"
       id="grid2828" />
  </sodipodi:namedview>
  <metadata
     id="metadata4">
Valerie Sutton's pixel definition of the
ISWA 2010 symbol ID 04-01-004-01-01-01
transformed by Stephen E Slevinski Jr
using line and fill polygon tracing
<rdf:RDF>
  <cc:Work
     rdf:about="">
    <dc:format>image/svg+xml</dc:format>
    <dc:type
       rdf:resource="http://purl.org/dc/dcmitype/StillImage" />
    <dc:title></dc:title>
  </cc:Work>
</rdf:RDF>
</metadata>
  <path
     style="fill:#000000;fill-opacity:1;stroke:none"
     d="M 18 10 C 8.0588745 10 1.1183935e-16 17.835017 0 27.5 C 0 37.164983 8.0588745 45 18 45 C 27.941125 45 36 37.164983 36 27.5 C 36 17.835017 27.941125 10 18 10 z M 18 12 C 26.836556 12 34 18.939586 34 27.5 C 34 36.060414 26.836556 43 18 43 C 9.163444 43 2 36.060414 2 27.5 C 2 18.939586 9.163444 12 18 12 z "
     id="path2830" />
  <path
     style="fill:#000000;fill-opacity:1;stroke:none"
     d="M 19.6875,0 13.5,6.1875 14.21875,6.875 20.375,0.6875 19.6875,0 z"
     id="path3038" />
  <path
     style="fill:#ffffff;fill-opacity:1;stroke:none"
     d="M 20.375,0.6875 14.21875,6.875 15.625,8.3125 21.8125,2.125 20.375,0.6875 z"
     id="path3040" />
  <path
     style="fill:#000000;fill-opacity:1;stroke:none"
     d="M 21.8125,2.125 15.625,8.3125 16.3125,9 22.5,2.8125 21.8125,2.125 z"
     id="path3042" />
</svg>
