<?xml version="1.0" encoding="UTF-8" standalone="no"?>
<svg
   xmlns:dc="http://purl.org/dc/elements/1.1/"
   xmlns:cc="http://creativecommons.org/ns#"
   xmlns:rdf="http://www.w3.org/1999/02/22-rdf-syntax-ns#"
   xmlns:svg="http://www.w3.org/2000/svg"
   xmlns="http://www.w3.org/2000/svg"
   xmlns:sodipodi="http://sodipodi.sourceforge.net/DTD/sodipodi-0.dtd"
   xmlns:inkscape="http://www.inkscape.org/namespaces/inkscape"
   version="1.0"
   width="36"
   height="45"
   id="svg2"
   inkscape:version="0.47 r22583"
   sodipodi:docname="04-01-001-01-04-01.svg">
  <defs
     id="defs20">
    <inkscape:perspective
       sodipodi:type="inkscape:persp3d"
       inkscape:vp_x="0 : 22.5 : 1"
       inkscape:vp_y="0 : 1000 : 0"
       inkscape:vp_z="36 : 22.5 : 1"
       inkscape:persp3d-origin="18 : 15 : 1"
       id="perspective22" />
  </defs>
  <sodipodi:namedview
     pagecolor="#ffffff"
     bordercolor="#666666"
     borderopacity="1"
     objecttolerance="10"
     gridtolerance="10"
     guidetolerance="10"
     inkscape:pageopacity="0"
     inkscape:pageshadow="2"
     inkscape:window-width="1112"
     inkscape:window-height="792"
     id="namedview18"
     showgrid="true"
     inkscape:zoom="12.046734"
     inkscape:cx="18.414504"
     inkscape:cy="23.19193"
     inkscape:window-x="0"
     inkscape:window-y="0"
     inkscape:window-maximized="0"
     inkscape:current-layer="svg2">
    <inkscape:grid
       type="xygrid"
       id="grid2828" />
  </sodipodi:namedview>
  <metadata
     id="metadata4">
Valerie Sutton's pixel definition of the
ISWA 2010 symbol ID 04-01-004-01-01-01
transformed by Stephen E Slevinski Jr
using line and fill polygon tracing
<rdf:RDF>
  <cc:Work
     rdf:about="">
    <dc:format>image/svg+xml</dc:format>
    <dc:type
       rdf:resource="http://purl.org/dc/dcmitype/StillImage" />
    <dc:title />
  </cc:Work>
</rdf:RDF>
</metadata>
  <path
     style="fill:#000000;fill-opacity:1;stroke:none"
     d="m 20,1 -0.71875,0.71875 1.8125,1.8125 -1.8125,1.8125 L 20,6.03125 22.53125,3.53125 20,1 z"
     id="path3159" />
  <path
     style="fill:#000000;fill-opacity:1;stroke:none"
     d="M 18 10 C 8.0588745 10 1.1183935e-16 17.835017 0 27.5 C 0 37.164983 8.0588745 45 18 45 C 27.941125 45 36 37.164983 36 27.5 C 36 17.835017 27.941125 10 18 10 z M 18 12 C 26.836556 12 34 18.939586 34 27.5 C 34 36.060414 26.836556 43 18 43 C 9.163444 43 2 36.060414 2 27.5 C 2 18.939586 9.163444 12 18 12 z "
     id="path2830" />
  <path
     style="fill:#000000;fill-opacity:1;stroke:none"
     d="M 30.1875,0 24,6.1875 24.71875,6.875 30.875,0.6875 30.1875,0 z"
     id="path2912" />
  <path
     style="fill:#ffffff;fill-opacity:1;stroke:none"
     d="M 30.875,0.6875 24.71875,6.875 26.125,8.3125 32.3125,2.125 30.875,0.6875 z"
     id="path2914" />
  <path
     style="fill:#000000;fill-opacity:1;stroke:none"
     d="M 32.3125,2.125 26.125,8.3125 26.8125,9 33,2.8125 32.3125,2.125 z"
     id="path2916" />
  <path
     style="fill:#000000;fill-opacity:1;stroke:none"
     d="M 5.8125,0 5.125,0.6875 11.28125,6.875 12,6.1875 5.8125,0 z"
     id="path3000" />
  <path
     style="fill:#ffffff;fill-opacity:1;stroke:none"
     d="M 5.125,0.6875 3.6875,2.125 9.875,8.3125 11.28125,6.875 5.125,0.6875 z"
     id="path3002" />
  <path
     style="fill:#000000;fill-opacity:1;stroke:none"
     d="M 3.6875,2.125 3,2.8125 9.1875,9 9.875,8.3125 3.6875,2.125 z"
     id="path3004" />
  <rect
     style="fill:#000000;fill-opacity:1;stroke:none"
     id="rect3112"
     width="7"
     height="1"
     x="13.5"
     y="3" />
</svg>
