<?xml version="1.0" encoding="UTF-8" standalone="no"?>
<svg
   xmlns:dc="http://purl.org/dc/elements/1.1/"
   xmlns:cc="http://creativecommons.org/ns#"
   xmlns:rdf="http://www.w3.org/1999/02/22-rdf-syntax-ns#"
   xmlns:svg="http://www.w3.org/2000/svg"
   xmlns="http://www.w3.org/2000/svg"
   xmlns:sodipodi="http://sodipodi.sourceforge.net/DTD/sodipodi-0.dtd"
   xmlns:inkscape="http://www.inkscape.org/namespaces/inkscape"
   version="1.0"
   width="37"
   height="17"
   id="svg2"
   inkscape:version="0.47 r22583"
   sodipodi:docname="02-08-009-02-02-02.svg">
  <defs
     id="defs16">
    <inkscape:perspective
       sodipodi:type="inkscape:persp3d"
       inkscape:vp_x="0 : 23 : 1"
       inkscape:vp_y="0 : 1000 : 0"
       inkscape:vp_z="36 : 23 : 1"
       inkscape:persp3d-origin="18 : 15.333333 : 1"
       id="perspective18" />
  </defs>
  <sodipodi:namedview
     pagecolor="#ffffff"
     bordercolor="#666666"
     borderopacity="1"
     objecttolerance="10"
     gridtolerance="10"
     guidetolerance="10"
     inkscape:pageopacity="0"
     inkscape:pageshadow="2"
     inkscape:window-width="964"
     inkscape:window-height="721"
     id="namedview14"
     showgrid="true"
     inkscape:zoom="16.486693"
     inkscape:cx="18.497211"
     inkscape:cy="8.4987186"
     inkscape:window-x="365"
     inkscape:window-y="0"
     inkscape:window-maximized="0"
     inkscape:current-layer="svg2"
     showborder="true">
    <inkscape:grid
       type="xygrid"
       id="grid2824"
       empspacing="5"
       visible="true"
       enabled="true"
       snapvisiblegridlinesonly="true" />
  </sodipodi:namedview>
  <metadata
     id="metadata4">
Valerie Sutton's pixel definition of the
ISWA 2010 symbol ID 04-01-003-01-01-01
transformed by Stephen E Slevinski Jr
using line and fill polygon tracing
<rdf:RDF>
  <cc:Work
     rdf:about="">
    <dc:format>image/svg+xml</dc:format>
    <dc:type
       rdf:resource="http://purl.org/dc/dcmitype/StillImage" />
    <dc:title></dc:title>
  </cc:Work>
</rdf:RDF>
</metadata>
  <path
     style="fill:#000000;fill-opacity:1;stroke:none"
     d="M 37,0 37,11.313708 25.686291,0 37,0 z m -1.016466,1.016466 -7.88866,-0.0221 7.910757,7.910757 -0.0221,-7.88866 z"
     id="path2839" />
  <path
     style="fill:#000000;fill-opacity:1;stroke:none"
     d="m 32.050252,6.363961 -8.131728,8.131728 c -1.366835,1.366835 -3.582912,1.366835 -4.949747,0 -0.683418,-0.683418 -1.016466,-1.579146 -1.016466,-2.474874 l 0,-2.872621 -6.408155,6.408155 c -1.5620975,1.562097 -4.0947575,1.562097 -5.6568546,0 L 3.0588743,12.727922 c -3.1241944,-3.124194 -3.1241944,-8.189514 0,-11.313708 l 7.0710677,7.071067 -2.1213203,2.121321 c -1.1715727,1.171572 -1.488155,2.754485 -0.7071068,3.535534 0.781049,0.781049 2.0473789,0.781048 2.8284271,0 l 9.833204,-9.833204 -0.0221,7.711883 c 0,0.383884 0.149048,0.767767 0.441941,1.06066 0.585787,0.585787 1.535534,0.585787 2.121321,0 l 8.131731,-8.131728 1.414213,1.414214 z"
     id="path2816" />
  <path
     style="fill:#ffffff;fill-opacity:1;stroke:none"
     d="m 35.983534,1.016466 0.0221,7.88866 -7.910757,-7.910757 7.88866,0.0221 z"
     id="path3344" />
</svg>
