<?xml version="1.0" encoding="UTF-8" standalone="no"?>
<svg
   xmlns:dc="http://purl.org/dc/elements/1.1/"
   xmlns:cc="http://creativecommons.org/ns#"
   xmlns:rdf="http://www.w3.org/1999/02/22-rdf-syntax-ns#"
   xmlns:svg="http://www.w3.org/2000/svg"
   xmlns="http://www.w3.org/2000/svg"
   xmlns:sodipodi="http://sodipodi.sourceforge.net/DTD/sodipodi-0.dtd"
   xmlns:inkscape="http://www.inkscape.org/namespaces/inkscape"
   version="1.0"
   width="34"
   height="18"
   id="svg2"
   inkscape:version="0.47 r22583"
   sodipodi:docname="02-08-009-02-01-06.svg">
  <defs
     id="defs16">
    <inkscape:perspective
       sodipodi:type="inkscape:persp3d"
       inkscape:vp_x="0 : 23 : 1"
       inkscape:vp_y="0 : 1000 : 0"
       inkscape:vp_z="36 : 23 : 1"
       inkscape:persp3d-origin="18 : 15.333333 : 1"
       id="perspective18" />
  </defs>
  <sodipodi:namedview
     pagecolor="#ffffff"
     bordercolor="#666666"
     borderopacity="1"
     objecttolerance="10"
     gridtolerance="10"
     guidetolerance="10"
     inkscape:pageopacity="0"
     inkscape:pageshadow="2"
     inkscape:window-width="964"
     inkscape:window-height="721"
     id="namedview14"
     showgrid="true"
     inkscape:zoom="16.738612"
     inkscape:cx="16.997105"
     inkscape:cy="8.9984675"
     inkscape:window-x="365"
     inkscape:window-y="0"
     inkscape:window-maximized="0"
     inkscape:current-layer="svg2"
     showborder="true">
    <inkscape:grid
       type="xygrid"
       id="grid2824"
       empspacing="5"
       visible="true"
       enabled="true"
       snapvisiblegridlinesonly="true" />
  </sodipodi:namedview>
  <metadata
     id="metadata4">
Valerie Sutton's pixel definition of the
ISWA 2010 symbol ID 04-01-003-01-01-01
transformed by Stephen E Slevinski Jr
using line and fill polygon tracing
<rdf:RDF>
  <cc:Work
     rdf:about="">
    <dc:format>image/svg+xml</dc:format>
    <dc:type
       rdf:resource="http://purl.org/dc/dcmitype/StillImage" />
    <dc:title></dc:title>
  </cc:Work>
</rdf:RDF>
</metadata>
  <path
     style="fill:#000000;fill-opacity:1;stroke:none"
     d="M 33.313708,0 22,0 22,11.313709 33.313708,0 z"
     id="path2839" />
  <path
     style="fill:#000000;fill-opacity:1;stroke:none"
     d="M 1.4939031,3.5355339 11.746951,13.788582 c 0.585787,0.585787 1.535534,0.585787 2.121321,0 0.292893,-0.292893 0.441941,-0.676776 0.441941,-1.06066 l -0.0221,-7.7118831 9.833204,9.8332041 c 0.781048,0.781048 2.047379,0.781048 2.828427,0 1.171573,-1.171573 0.221825,-4.020816 -2.12132,-6.3639611 l 5.656854,-5.656855 c 3.124194,3.124195 3.124194,8.1895141 0,11.3137091 l -2.12132,2.12132 c -1.562097,1.562097 -4.094757,1.562097 -5.656854,0 l -6.408156,-6.4081551 0,2.8726211 c 0,0.895728 -0.333048,1.791456 -1.016466,2.474874 -1.366835,1.366835 -3.582912,1.366835 -4.949747,0 L 0.0796895,4.9497479 1.4939031,3.5355339 z"
     id="path3113" />
</svg>
