<?xml version="1.0" encoding="UTF-8" standalone="no"?>
<svg
   xmlns:dc="http://purl.org/dc/elements/1.1/"
   xmlns:cc="http://creativecommons.org/ns#"
   xmlns:rdf="http://www.w3.org/1999/02/22-rdf-syntax-ns#"
   xmlns:svg="http://www.w3.org/2000/svg"
   xmlns="http://www.w3.org/2000/svg"
   xmlns:sodipodi="http://sodipodi.sourceforge.net/DTD/sodipodi-0.dtd"
   xmlns:inkscape="http://www.inkscape.org/namespaces/inkscape"
   version="1.0"
   width="11"
   height="10"
   id="svg2"
   inkscape:version="0.47 r22583"
   sodipodi:docname="04-05-001-05-02-03.svg">
  <defs
     id="defs14">
    <inkscape:perspective
       sodipodi:type="inkscape:persp3d"
       inkscape:vp_x="0 : 17.5 : 1"
       inkscape:vp_y="0 : 1000 : 0"
       inkscape:vp_z="36 : 17.5 : 1"
       inkscape:persp3d-origin="18 : 11.666667 : 1"
       id="perspective16" />
  </defs>
  <sodipodi:namedview
     pagecolor="#ffffff"
     bordercolor="#666666"
     borderopacity="1"
     objecttolerance="10"
     gridtolerance="10"
     guidetolerance="10"
     inkscape:pageopacity="0"
     inkscape:pageshadow="2"
     inkscape:window-width="993"
     inkscape:window-height="789"
     id="namedview12"
     showgrid="true"
     inkscape:zoom="15.487127"
     inkscape:cx="7.6688392"
     inkscape:cy="-0.57953147"
     inkscape:window-x="209"
     inkscape:window-y="0"
     inkscape:window-maximized="0"
     inkscape:current-layer="svg2">
    <inkscape:grid
       type="xygrid"
       id="grid2822" />
  </sodipodi:namedview>
  <metadata
     id="metadata4">
Valerie Sutton's pixel definition of the
ISWA 2010 symbol ID 04-03-001-01-01-01
transformed by Stephen E Slevinski Jr
using line and fill polygon tracing
<rdf:RDF>
  <cc:Work
     rdf:about="">
    <dc:format>image/svg+xml</dc:format>
    <dc:type
       rdf:resource="http://purl.org/dc/dcmitype/StillImage" />
    <dc:title></dc:title>
  </cc:Work>
</rdf:RDF>
</metadata>
  <path
     style="fill:#000000;fill-opacity:1;stroke:none"
     d="M 2.097049,3.0112622 C 2.0009299,3.1759848 1.8582838,3.323312 1.7876898,3.4973981 1.5924286,3.9789117 1.4783306,4.4881551 1.4783306,5 c 0,0.5118449 0.114098,1.0210884 0.3093628,1.5026012 0.1952583,0.481515 0.4933596,0.9353001 0.8838828,1.3258245 0.3905251,0.3905252 0.8443123,0.6886216 1.3258259,0.8838842 0.4815149,0.1952612 0.990757,0.3093592 1.5026019,0.3093592 0.5118449,0 1.0210883,-0.114098 1.5026011,-0.3093627 C 7.176688,8.6417157 7.3240185,8.4990663 7.488741,8.4029456 L 2.0970525,3.0112571 z"
     id="path2815" />
  <path
     style="fill:#000000;fill-opacity:1;stroke:none"
     d="M 5.5000003,-2.0629701e-7 C 2.738577,-2.0629701e-7 0.50000057,2.2385762 0.50000056,4.9999997 0.49999993,7.7614243 2.7385769,9.9999998 5.5000005,9.9999999 8.2614237,9.9999994 10.5,7.7614244 10.5,4.9999999 10.5,2.2385763 8.2614244,-1.7094167e-7 5.5000003,-2.0629701e-7 z m 0,1.00000002629701 c 2.2091393,6e-8 4.0000004,1.79086108 4.0000001,4.00000008 0,2.2091388 -1.7908611,3.9999999 -4.0000001,3.9999999 -2.2091388,0 -3.9999999,-1.790861 -3.9999998,-3.9999999 0,-2.209139 1.7908611,-4.00000008 3.9999998,-4.00000008 z"
     id="path2813" />
</svg>
