<?xml version="1.0" encoding="UTF-8" standalone="no"?>
<svg
   xmlns:dc="http://purl.org/dc/elements/1.1/"
   xmlns:cc="http://creativecommons.org/ns#"
   xmlns:rdf="http://www.w3.org/1999/02/22-rdf-syntax-ns#"
   xmlns:svg="http://www.w3.org/2000/svg"
   xmlns="http://www.w3.org/2000/svg"
   xmlns:sodipodi="http://sodipodi.sourceforge.net/DTD/sodipodi-0.dtd"
   xmlns:inkscape="http://www.inkscape.org/namespaces/inkscape"
   version="1.0"
   width="11"
   height="10"
   id="svg2"
   inkscape:version="0.47 r22583"
   sodipodi:docname="04-05-001-05-02-07.svg">
  <defs
     id="defs14">
    <inkscape:perspective
       sodipodi:type="inkscape:persp3d"
       inkscape:vp_x="0 : 17.5 : 1"
       inkscape:vp_y="0 : 1000 : 0"
       inkscape:vp_z="36 : 17.5 : 1"
       inkscape:persp3d-origin="18 : 11.666667 : 1"
       id="perspective16" />
  </defs>
  <sodipodi:namedview
     pagecolor="#ffffff"
     bordercolor="#666666"
     borderopacity="1"
     objecttolerance="10"
     gridtolerance="10"
     guidetolerance="10"
     inkscape:pageopacity="0"
     inkscape:pageshadow="2"
     inkscape:window-width="993"
     inkscape:window-height="789"
     id="namedview12"
     showgrid="true"
     inkscape:zoom="15.487127"
     inkscape:cx="7.6688392"
     inkscape:cy="-0.57953147"
     inkscape:window-x="209"
     inkscape:window-y="0"
     inkscape:window-maximized="0"
     inkscape:current-layer="svg2">
    <inkscape:grid
       type="xygrid"
       id="grid2822" />
  </sodipodi:namedview>
  <metadata
     id="metadata4">
Valerie Sutton's pixel definition of the
ISWA 2010 symbol ID 04-03-001-01-01-01
transformed by Stephen E Slevinski Jr
using line and fill polygon tracing
<rdf:RDF>
  <cc:Work
     rdf:about="">
    <dc:format>image/svg+xml</dc:format>
    <dc:type
       rdf:resource="http://purl.org/dc/dcmitype/StillImage" />
    <dc:title></dc:title>
  </cc:Work>
</rdf:RDF>
</metadata>
  <path
     style="fill:#000000;fill-opacity:1;stroke:none"
     d="M 8.9029516,6.9887375 C 8.9990706,6.824015 9.1417168,6.6766877 9.2123109,6.5026016 9.407572,6.0210882 9.5216701,5.5118446 9.5216701,4.9999997 9.5216701,4.4881548 9.407572,3.9789115 9.2123073,3.4973986 9.0170491,3.0158836 8.7189477,2.5620985 8.3284245,2.1715741 7.9378994,1.7810489 7.4841122,1.4829525 7.0025986,1.2876899 6.5210838,1.0924287 6.0118416,0.9783307 5.4999967,0.9783307 c -0.5118449,0 -1.0210882,0.114098 -1.5026012,0.3093628 -0.1740828,0.070591 -0.3214133,0.21324 -0.4861358,0.3093607 l 5.3916885,5.3916885 z"
     id="path2815" />
  <path
     style="fill:#000000;fill-opacity:1;stroke:none"
     d="M 5.5000004,-2.5723302e-7 C 2.7385774,-2.3601981e-7 0.50000089,2.2385762 0.50000088,4.9999997 0.5000001,7.7614243 2.7385771,9.9999999 5.5000008,9.9999999 8.2614238,9.9999992 10.5,7.7614243 10.5,4.9999998 10.5,2.2385763 8.2614248,-1.0874059e-7 5.5000004,-2.5723302e-7 z m 0,1.00000002723302 c 2.2091395,3e-8 4.0000006,1.79086113 4.0000004,4.00000013 -2e-7,2.2091388 -1.7908611,4 -4.0000001,3.9999998 -2.2091388,2e-7 -4,-1.7908608 -4,-3.9999998 1e-7,-2.209139 1.7908611,-4.0000002 3.9999997,-4.00000013 z"
     id="path2813" />
</svg>
