<?xml version="1.0" encoding="UTF-8" standalone="no"?>
<svg
   xmlns:dc="http://purl.org/dc/elements/1.1/"
   xmlns:cc="http://creativecommons.org/ns#"
   xmlns:rdf="http://www.w3.org/1999/02/22-rdf-syntax-ns#"
   xmlns:svg="http://www.w3.org/2000/svg"
   xmlns="http://www.w3.org/2000/svg"
   xmlns:sodipodi="http://sodipodi.sourceforge.net/DTD/sodipodi-0.dtd"
   xmlns:inkscape="http://www.inkscape.org/namespaces/inkscape"
   version="1.0"
   width="35"
   height="35"
   id="svg2"
   inkscape:version="0.47 r22583"
   sodipodi:docname="04-05-001-05-01-01.svg">
  <defs
     id="defs14">
    <inkscape:perspective
       sodipodi:type="inkscape:persp3d"
       inkscape:vp_x="0 : 17.5 : 1"
       inkscape:vp_y="0 : 1000 : 0"
       inkscape:vp_z="36 : 17.5 : 1"
       inkscape:persp3d-origin="18 : 11.666667 : 1"
       id="perspective16" />
  </defs>
  <sodipodi:namedview
     pagecolor="#ffffff"
     bordercolor="#666666"
     borderopacity="1"
     objecttolerance="10"
     gridtolerance="10"
     guidetolerance="10"
     inkscape:pageopacity="0"
     inkscape:pageshadow="2"
     inkscape:window-width="993"
     inkscape:window-height="789"
     id="namedview12"
     showgrid="true"
     inkscape:zoom="15.487127"
     inkscape:cx="18"
     inkscape:cy="17.5"
     inkscape:window-x="209"
     inkscape:window-y="0"
     inkscape:window-maximized="0"
     inkscape:current-layer="svg2">
    <inkscape:grid
       type="xygrid"
       id="grid2822" />
  </sodipodi:namedview>
  <metadata
     id="metadata4">
Valerie Sutton's pixel definition of the
ISWA 2010 symbol ID 04-03-001-01-01-01
transformed by Stephen E Slevinski Jr
using line and fill polygon tracing
<rdf:RDF>
  <cc:Work
     rdf:about="">
    <dc:format>image/svg+xml</dc:format>
    <dc:type
       rdf:resource="http://purl.org/dc/dcmitype/StillImage" />
    <dc:title></dc:title>
  </cc:Work>
</rdf:RDF>
</metadata>
  <path
     style="fill:#000000;fill-opacity:1;stroke:none"
     d="M 17.5 0 C 7.8350169 4.7369516e-15 1.087327e-16 7.8350169 0 17.5 C 0 27.164983 7.8350169 35 17.5 35 C 27.164983 35 35 27.164983 35 17.5 C 35 7.8350169 27.164983 -3.443981e-15 17.5 0 z M 17.5 2 C 26.060414 2 33 8.9395864 33 17.5 C 33 26.060414 26.060414 33 17.5 33 C 8.9395864 33 2 26.060414 2 17.5 C 2 8.9395864 8.9395864 2 17.5 2 z "
     id="path2824" />
  <path
     style="fill:#000000;fill-opacity:1;stroke:none"
     d="m 18.794095,20.170371 c -2.667331,-0.71471 -5.409015,0.868202 -6.123724,3.535534 -0.71471,2.667331 0.868202,5.409015 3.535534,6.123724 2.667331,0.71471 5.409015,-0.868202 6.123724,-3.535534 0.71471,-2.667331 -0.868202,-5.409015 -3.535534,-6.123724 z m -0.258819,0.965925 c 2.133864,0.571768 3.400194,2.765116 2.828428,4.89898 -0.571768,2.133864 -2.765116,3.400194 -4.89898,2.828428 -2.133864,-0.571768 -3.400194,-2.765116 -2.828428,-4.89898 0.571768,-2.133864 2.765116,-3.400194 4.89898,-2.828428 z"
     id="path2814" />
  <path
     style="fill:#000000;fill-opacity:1;stroke:none"
     d="m 20.301722,22.227725 c -0.134234,-0.135477 -0.239621,-0.311394 -0.389503,-0.42464 -0.41457,-0.313233 -0.87693,-0.555245 -1.371334,-0.68772 -0.494404,-0.132475 -1.015826,-0.154067 -1.53147,-0.09008 -0.515645,0.06398 -1.031122,0.234475 -1.509415,0.510617 -0.478293,0.276143 -0.883681,0.637314 -1.196915,1.051883 -0.313233,0.41457 -0.555245,0.87693 -0.68772,1.371334 -0.132475,0.494404 -0.154067,1.015826 -0.09008,1.53147 0.02313,0.186425 0.122788,0.365651 0.172997,0.54964 l 6.603444,-3.8125 z"
     id="path3094" />
</svg>
