<?xml version="1.0" encoding="UTF-8" standalone="no"?>
<svg
   xmlns:dc="http://purl.org/dc/elements/1.1/"
   xmlns:cc="http://creativecommons.org/ns#"
   xmlns:rdf="http://www.w3.org/1999/02/22-rdf-syntax-ns#"
   xmlns:svg="http://www.w3.org/2000/svg"
   xmlns="http://www.w3.org/2000/svg"
   xmlns:sodipodi="http://sodipodi.sourceforge.net/DTD/sodipodi-0.dtd"
   xmlns:inkscape="http://www.inkscape.org/namespaces/inkscape"
   version="1.0"
   width="11"
   height="10"
   id="svg2"
   inkscape:version="0.47 r22583"
   sodipodi:docname="04-05-001-05-02-06.svg">
  <defs
     id="defs14">
    <inkscape:perspective
       sodipodi:type="inkscape:persp3d"
       inkscape:vp_x="0 : 17.5 : 1"
       inkscape:vp_y="0 : 1000 : 0"
       inkscape:vp_z="36 : 17.5 : 1"
       inkscape:persp3d-origin="18 : 11.666667 : 1"
       id="perspective16" />
  </defs>
  <sodipodi:namedview
     pagecolor="#ffffff"
     bordercolor="#666666"
     borderopacity="1"
     objecttolerance="10"
     gridtolerance="10"
     guidetolerance="10"
     inkscape:pageopacity="0"
     inkscape:pageshadow="2"
     inkscape:window-width="993"
     inkscape:window-height="789"
     id="namedview12"
     showgrid="true"
     inkscape:zoom="15.487127"
     inkscape:cx="7.6688392"
     inkscape:cy="-0.57953147"
     inkscape:window-x="209"
     inkscape:window-y="0"
     inkscape:window-maximized="0"
     inkscape:current-layer="svg2">
    <inkscape:grid
       type="xygrid"
       id="grid2822" />
  </sodipodi:namedview>
  <metadata
     id="metadata4">
Valerie Sutton's pixel definition of the
ISWA 2010 symbol ID 04-03-001-01-01-01
transformed by Stephen E Slevinski Jr
using line and fill polygon tracing
<rdf:RDF>
  <cc:Work
     rdf:about="">
    <dc:format>image/svg+xml</dc:format>
    <dc:type
       rdf:resource="http://purl.org/dc/dcmitype/StillImage" />
    <dc:title></dc:title>
  </cc:Work>
</rdf:RDF>
</metadata>
  <path
     style="fill:#000000;fill-opacity:1;stroke:none"
     d="m 6.5000004,8.8124996 c 0.1844428,-0.04851 0.389485,-0.05182 0.5625,-0.1249999 0.4785519,-0.202411 0.919321,-0.481821 1.28125,-0.84375 0.361929,-0.361929 0.6413389,-0.802698 0.8437469,-1.281252 0.2024141,-0.4785509 0.3124991,-1.010215 0.3125,-1.562499 10e-8,-0.552286 -0.11009,-1.083948 -0.3125,-1.562501 -0.2024119,-0.4785529 -0.481821,-0.919321 -0.84375,-1.28125 -0.361929,-0.361929 -0.8026979,-0.6413389 -1.281252,-0.843747 -0.1730102,-0.07318 -0.378057,-0.07649 -0.562501,-0.1249988 l 0,7.624999 z"
     id="path2815" />
  <path
     style="fill:#000000;fill-opacity:1;stroke:none"
     d="M 5.5000004,-2.2795763e-7 C 2.7385773,-2.562419e-7 0.50000083,2.2385762 0.5000008,4.9999997 0.50000009,7.7614243 2.7385771,9.9999999 5.5000007,9.9999999 8.2614237,9.9999993 10.5,7.7614243 10.5,4.9999998 10.5,2.2385763 8.2614247,-1.2896268e-7 5.5000004,-2.2795763e-7 z m 0,1.00000002795763 c 2.2091394,1e-8 4.0000005,1.7908611 4.0000003,4.0000001 -2e-7,2.2091388 -1.7908611,4 -4.0000001,3.9999998 -2.2091388,2e-7 -4,-1.7908609 -4,-3.9999998 2e-7,-2.209139 1.7908611,-4.00000017 3.9999998,-4.0000001 z"
     id="path2813" />
</svg>
