<?xml version="1.0" encoding="UTF-8" standalone="no"?>
<svg
   xmlns:dc="http://purl.org/dc/elements/1.1/"
   xmlns:cc="http://creativecommons.org/ns#"
   xmlns:rdf="http://www.w3.org/1999/02/22-rdf-syntax-ns#"
   xmlns:svg="http://www.w3.org/2000/svg"
   xmlns="http://www.w3.org/2000/svg"
   xmlns:sodipodi="http://sodipodi.sourceforge.net/DTD/sodipodi-0.dtd"
   xmlns:inkscape="http://www.inkscape.org/namespaces/inkscape"
   version="1.0"
   width="11"
   height="10"
   id="svg2"
   inkscape:version="0.47 r22583"
   sodipodi:docname="04-05-001-05-02-05.svg">
  <defs
     id="defs14">
    <inkscape:perspective
       sodipodi:type="inkscape:persp3d"
       inkscape:vp_x="0 : 17.5 : 1"
       inkscape:vp_y="0 : 1000 : 0"
       inkscape:vp_z="36 : 17.5 : 1"
       inkscape:persp3d-origin="18 : 11.666667 : 1"
       id="perspective16" />
  </defs>
  <sodipodi:namedview
     pagecolor="#ffffff"
     bordercolor="#666666"
     borderopacity="1"
     objecttolerance="10"
     gridtolerance="10"
     guidetolerance="10"
     inkscape:pageopacity="0"
     inkscape:pageshadow="2"
     inkscape:window-width="993"
     inkscape:window-height="789"
     id="namedview12"
     showgrid="true"
     inkscape:zoom="15.487127"
     inkscape:cx="7.6688392"
     inkscape:cy="-0.57953147"
     inkscape:window-x="209"
     inkscape:window-y="0"
     inkscape:window-maximized="0"
     inkscape:current-layer="svg2">
    <inkscape:grid
       type="xygrid"
       id="grid2822" />
  </sodipodi:namedview>
  <metadata
     id="metadata4">
Valerie Sutton's pixel definition of the
ISWA 2010 symbol ID 04-03-001-01-01-01
transformed by Stephen E Slevinski Jr
using line and fill polygon tracing
<rdf:RDF>
  <cc:Work
     rdf:about="">
    <dc:format>image/svg+xml</dc:format>
    <dc:type
       rdf:resource="http://purl.org/dc/dcmitype/StillImage" />
    <dc:title></dc:title>
  </cc:Work>
</rdf:RDF>
</metadata>
  <path
     style="fill:#000000;fill-opacity:1;stroke:none"
     d="m 3.5112627,8.4029511 c 0.1647225,0.096119 0.3120497,0.2387653 0.4861359,0.3093593 0.4815135,0.1952611 0.990757,0.3093592 1.5026019,0.3093592 0.5118449,0 1.0210883,-0.1140981 1.5026011,-0.3093628 C 7.4841166,8.5170485 7.9379017,8.2189471 8.3284261,7.828424 8.7189514,7.4378989 9.0170477,6.9841116 9.2123103,6.5025981 9.4075715,6.0210832 9.5216695,5.5118411 9.5216695,4.9999962 9.5216695,4.4881513 9.4075715,3.9789079 9.2123068,3.497395 9.1417162,3.3233122 8.9990667,3.1759817 8.902946,3.0112592 L 3.5112575,8.4029477 z"
     id="path2815" />
  <path
     style="fill:#000000;fill-opacity:1;stroke:none"
     d="M 5.5000004,-1.9647254e-7 C 2.7385772,-2.2475681e-7 0.50000075,2.2385762 0.50000072,4.9999997 0.50000001,7.7614243 2.738577,9.9999999 5.5000007,9.9999999 8.2614237,9.9999993 10.5,7.7614244 10.5,4.9999999 10.5,2.2385763 8.2614246,-1.4697506e-7 5.5000004,-1.9647254e-7 z m 0,1.00000002647254 c 2.2091393,10e-9 4.0000004,1.79086107 4.0000002,4.00000007 -10e-8,2.2091388 -1.7908611,4 -4.0000001,3.9999999 -2.2091388,1e-7 -4,-1.790861 -4,-3.9999999 2e-7,-2.209139 1.7908612,-4.00000014 3.9999999,-4.00000007 z"
     id="path2813" />
</svg>
