<?xml version="1.0" encoding="UTF-8" standalone="no"?>
<svg
   xmlns:dc="http://purl.org/dc/elements/1.1/"
   xmlns:cc="http://creativecommons.org/ns#"
   xmlns:rdf="http://www.w3.org/1999/02/22-rdf-syntax-ns#"
   xmlns:svg="http://www.w3.org/2000/svg"
   xmlns="http://www.w3.org/2000/svg"
   xmlns:sodipodi="http://sodipodi.sourceforge.net/DTD/sodipodi-0.dtd"
   xmlns:inkscape="http://www.inkscape.org/namespaces/inkscape"
   version="1.0"
   width="11"
   height="10"
   id="svg2"
   inkscape:version="0.47 r22583"
   sodipodi:docname="04-05-001-05-02-04.svg">
  <defs
     id="defs14">
    <inkscape:perspective
       sodipodi:type="inkscape:persp3d"
       inkscape:vp_x="0 : 17.5 : 1"
       inkscape:vp_y="0 : 1000 : 0"
       inkscape:vp_z="36 : 17.5 : 1"
       inkscape:persp3d-origin="18 : 11.666667 : 1"
       id="perspective16" />
  </defs>
  <sodipodi:namedview
     pagecolor="#ffffff"
     bordercolor="#666666"
     borderopacity="1"
     objecttolerance="10"
     gridtolerance="10"
     guidetolerance="10"
     inkscape:pageopacity="0"
     inkscape:pageshadow="2"
     inkscape:window-width="993"
     inkscape:window-height="789"
     id="namedview12"
     showgrid="true"
     inkscape:zoom="15.487127"
     inkscape:cx="7.6688392"
     inkscape:cy="-0.57953147"
     inkscape:window-x="209"
     inkscape:window-y="0"
     inkscape:window-maximized="0"
     inkscape:current-layer="svg2">
    <inkscape:grid
       type="xygrid"
       id="grid2822" />
  </sodipodi:namedview>
  <metadata
     id="metadata4">
Valerie Sutton's pixel definition of the
ISWA 2010 symbol ID 04-03-001-01-01-01
transformed by Stephen E Slevinski Jr
using line and fill polygon tracing
<rdf:RDF>
  <cc:Work
     rdf:about="">
    <dc:format>image/svg+xml</dc:format>
    <dc:type
       rdf:resource="http://purl.org/dc/dcmitype/StillImage" />
    <dc:title></dc:title>
  </cc:Work>
</rdf:RDF>
</metadata>
  <path
     style="fill:#000000;fill-opacity:1;stroke:none"
     d="m 1.6875005,5.9999999 c 0.04851,0.1844429 0.05182,0.389485 0.125,0.5625 0.202411,0.478552 0.481821,0.919321 0.84375,1.28125 0.361929,0.361929 0.802698,0.641339 1.281252,0.8437469 0.478551,0.2024141 1.010215,0.3124991 1.562499,0.3125 0.552286,10e-8 1.083948,-0.11009 1.562501,-0.3125 0.478553,-0.2024119 0.919321,-0.481821 1.28125,-0.84375 0.361929,-0.361929 0.641339,-0.8026979 0.843747,-1.2812519 0.07318,-0.1730103 0.07649,-0.3780571 0.1249988,-0.5625011 l -7.624999,0 z"
     id="path2815" />
  <path
     style="fill:#000000;fill-opacity:1;stroke:none"
     d="M 5.5000004,-1.7696428e-7 C 2.7385771,-2.4060389e-7 0.50000064,2.2385762 0.50000064,4.9999997 0.50000001,7.7614243 2.738577,9.9999999 5.5000006,9.9999999 8.2614237,9.9999993 10.5,7.7614244 10.5,4.9999999 10.5,2.2385763 8.2614245,-1.6989322e-7 5.5000004,-1.7696429e-7 z m 0,1.00000002696428 c 2.2091393,3e-8 4.0000004,1.79086105 4.0000001,4.00000005 0,2.2091388 -1.7908611,4 -4.0000001,3.9999999 -2.2091388,1e-7 -3.9999999,-1.790861 -3.9999999,-3.9999999 10e-8,-2.209139 1.7908612,-4.00000012 3.9999999,-4.00000005 z"
     id="path2813" />
</svg>
