<?xml version="1.0" encoding="UTF-8" standalone="no"?>
<svg
   xmlns:dc="http://purl.org/dc/elements/1.1/"
   xmlns:cc="http://creativecommons.org/ns#"
   xmlns:rdf="http://www.w3.org/1999/02/22-rdf-syntax-ns#"
   xmlns:svg="http://www.w3.org/2000/svg"
   xmlns="http://www.w3.org/2000/svg"
   xmlns:sodipodi="http://sodipodi.sourceforge.net/DTD/sodipodi-0.dtd"
   xmlns:inkscape="http://www.inkscape.org/namespaces/inkscape"
   version="1.0"
   width="56"
   height="19"
   id="svg2"
   inkscape:version="0.47 r22583"
   sodipodi:docname="05-01-005-01-04-16.svg">
  <defs
     id="defs14">
    <inkscape:perspective
       sodipodi:type="inkscape:persp3d"
       inkscape:vp_x="0 : 5.5 : 1"
       inkscape:vp_y="0 : 1000 : 0"
       inkscape:vp_z="10 : 5.5 : 1"
       inkscape:persp3d-origin="5 : 3.6666667 : 1"
       id="perspective16" />
  </defs>
  <sodipodi:namedview
     pagecolor="#ffffff"
     bordercolor="#666666"
     borderopacity="1"
     objecttolerance="10"
     gridtolerance="10"
     guidetolerance="10"
     inkscape:pageopacity="0"
     inkscape:pageshadow="2"
     inkscape:window-width="917"
     inkscape:window-height="792"
     id="namedview12"
     showgrid="true"
     inkscape:zoom="14.571429"
     inkscape:cx="28"
     inkscape:cy="9.5"
     inkscape:window-x="313"
     inkscape:window-y="0"
     inkscape:window-maximized="0"
     inkscape:current-layer="svg2"
     showborder="true"
     inkscape:showpageshadow="true">
    <inkscape:grid
       type="xygrid"
       id="grid2822"
       empspacing="5"
       visible="true"
       enabled="true"
       snapvisiblegridlinesonly="true" />
  </sodipodi:namedview>
  <metadata
     id="metadata4">
Valerie Sutton's pixel definition of the
ISWA 2010 symbol ID 02-01-001-01-01-01
transformed by Stephen E Slevinski Jr
using line and fill polygon tracing
<rdf:RDF>
  <cc:Work
     rdf:about="">
    <dc:format>image/svg+xml</dc:format>
    <dc:type
       rdf:resource="http://purl.org/dc/dcmitype/StillImage" />
    <dc:title></dc:title>
  </cc:Work>
</rdf:RDF>
</metadata>
  <path
     style="fill:#000000;fill-opacity:1;stroke:none"
     d="m 13.999961,19 42,0 0,-4 -42,0 0,4 z"
     id="rect2813" />
  <path
     style="fill:#000000;fill-opacity:1;stroke:none"
     d="M 15.792855,5.085786 15.085748,5.792893 10.136,0.843145 10.843107,0.136039 15.792855,5.085786 z"
     id="rect2815" />
  <path
     style="fill:#000000;fill-opacity:1;stroke:none"
     d="m 13.999961,6.499999 c 10e-7,-1.380711 1.119289,-2.499999 2.5,-2.5 1.380712,1e-6 2.500001,1.119289 2.5,2.500001 0,1.380712 -1.119288,2.499999 -2.5,2.499999 -1.380712,0 -2.5,-1.119288 -2.5,-2.5 z"
     id="path2815" />
  <path
     id="path2816"
     d="M 10.792855,10.085787 10.085748,10.792894 5.136,5.843145 5.843107,5.136039 l 4.949748,4.949748 z"
     style="fill:#000000;fill-opacity:1;stroke:none" />
  <path
     id="path2818"
     d="m 8.999961,11.5 c 10e-7,-1.380711 1.119289,-2.5 2.5,-2.500001 1.380712,10e-7 2.500001,1.11929 2.5,2.500001 0,1.380711 -1.119288,2.5 -2.5,2.5 -1.380712,0 -2.5,-1.119289 -2.5,-2.5 z"
     style="fill:#000000;fill-opacity:1;stroke:none" />
  <path
     style="fill:#000000;fill-opacity:1;stroke:none"
     d="M 5.792855,15.085787 5.085748,15.792894 0.136,10.843145 0.843107,10.136039 5.792855,15.085787 z"
     id="path3268" />
  <path
     style="fill:#000000;fill-opacity:1;stroke:none"
     d="m 3.999961,16.5 c 1e-6,-1.380711 1.119289,-2.5 2.5,-2.500001 1.380712,10e-7 2.500001,1.11929 2.5,2.500001 0,1.380711 -1.119288,2.5 -2.5,2.5 -1.380712,0 -2.5,-1.119289 -2.5,-2.5 z"
     id="path3270" />
</svg>
