<?xml version="1.0" encoding="UTF-8" standalone="no"?>
<svg
   xmlns:dc="http://purl.org/dc/elements/1.1/"
   xmlns:cc="http://creativecommons.org/ns#"
   xmlns:rdf="http://www.w3.org/1999/02/22-rdf-syntax-ns#"
   xmlns:svg="http://www.w3.org/2000/svg"
   xmlns="http://www.w3.org/2000/svg"
   xmlns:sodipodi="http://sodipodi.sourceforge.net/DTD/sodipodi-0.dtd"
   xmlns:inkscape="http://www.inkscape.org/namespaces/inkscape"
   version="1.0"
   width="56"
   height="19"
   id="svg2"
   inkscape:version="0.47 r22583"
   sodipodi:docname="05-01-005-01-04-12.svg">
  <defs
     id="defs14">
    <inkscape:perspective
       sodipodi:type="inkscape:persp3d"
       inkscape:vp_x="0 : 5.5 : 1"
       inkscape:vp_y="0 : 1000 : 0"
       inkscape:vp_z="10 : 5.5 : 1"
       inkscape:persp3d-origin="5 : 3.6666667 : 1"
       id="perspective16" />
  </defs>
  <sodipodi:namedview
     pagecolor="#ffffff"
     bordercolor="#666666"
     borderopacity="1"
     objecttolerance="10"
     gridtolerance="10"
     guidetolerance="10"
     inkscape:pageopacity="0"
     inkscape:pageshadow="2"
     inkscape:window-width="917"
     inkscape:window-height="792"
     id="namedview12"
     showgrid="true"
     inkscape:zoom="14.571429"
     inkscape:cx="28"
     inkscape:cy="9.5"
     inkscape:window-x="313"
     inkscape:window-y="0"
     inkscape:window-maximized="0"
     inkscape:current-layer="svg2"
     showborder="true"
     inkscape:showpageshadow="true">
    <inkscape:grid
       type="xygrid"
       id="grid2822"
       empspacing="5"
       visible="true"
       enabled="true"
       snapvisiblegridlinesonly="true" />
  </sodipodi:namedview>
  <metadata
     id="metadata4">
Valerie Sutton's pixel definition of the
ISWA 2010 symbol ID 02-01-001-01-01-01
transformed by Stephen E Slevinski Jr
using line and fill polygon tracing
<rdf:RDF>
  <cc:Work
     rdf:about="">
    <dc:format>image/svg+xml</dc:format>
    <dc:type
       rdf:resource="http://purl.org/dc/dcmitype/StillImage" />
    <dc:title></dc:title>
  </cc:Work>
</rdf:RDF>
</metadata>
  <path
     style="fill:#000000;fill-opacity:1;stroke:none"
     d="m 42,19 -42,0 0,-4 42,0 0,4 z"
     id="rect2813" />
  <path
     style="fill:#000000;fill-opacity:1;stroke:none"
     d="M 40.207106,5.085786 40.914213,5.792893 45.863961,0.843145 45.156854,0.136039 40.207106,5.085786 z"
     id="rect2815" />
  <path
     style="fill:#000000;fill-opacity:1;stroke:none"
     d="M 42,6.499999 C 41.999999,5.119288 40.880711,4 39.5,3.999999 38.119288,4 36.999999,5.119288 37,6.5 c 0,1.380712 1.119288,2.499999 2.5,2.499999 1.380712,0 2.5,-1.119288 2.5,-2.5 z"
     id="path2815" />
  <path
     id="path2816"
     d="m 45.207106,10.085787 0.707107,0.707107 4.949748,-4.949749 -0.707107,-0.707106 -4.949748,4.949748 z"
     style="fill:#000000;fill-opacity:1;stroke:none" />
  <path
     id="path2818"
     d="M 47,11.5 C 46.999999,10.119289 45.880711,9 44.5,8.999999 43.119288,9 41.999999,10.119289 42,11.5 c 0,1.380711 1.119288,2.5 2.5,2.5 1.380712,0 2.5,-1.119289 2.5,-2.5 z"
     style="fill:#000000;fill-opacity:1;stroke:none" />
  <path
     style="fill:#000000;fill-opacity:1;stroke:none"
     d="m 50.207106,15.085787 0.707107,0.707107 4.949748,-4.949749 -0.707107,-0.707106 -4.949748,4.949748 z"
     id="path3268" />
  <path
     style="fill:#000000;fill-opacity:1;stroke:none"
     d="M 52,16.5 C 51.999999,15.119289 50.880711,14 49.5,13.999999 48.119288,14 46.999999,15.119289 47,16.5 c 0,1.380711 1.119288,2.5 2.5,2.5 1.380712,0 2.5,-1.119289 2.5,-2.5 z"
     id="path3270" />
</svg>
