<?xml version="1.0" encoding="UTF-8" standalone="no"?>
<svg
   xmlns:dc="http://purl.org/dc/elements/1.1/"
   xmlns:cc="http://creativecommons.org/ns#"
   xmlns:rdf="http://www.w3.org/1999/02/22-rdf-syntax-ns#"
   xmlns:svg="http://www.w3.org/2000/svg"
   xmlns="http://www.w3.org/2000/svg"
   xmlns:sodipodi="http://sodipodi.sourceforge.net/DTD/sodipodi-0.dtd"
   xmlns:inkscape="http://www.inkscape.org/namespaces/inkscape"
   version="1.0"
   width="20"
   height="16"
   id="svg2"
   inkscape:version="0.47 r22583"
   sodipodi:docname="02-08-001-01-05-01.svg">
  <defs
     id="defs16">
    <inkscape:perspective
       sodipodi:type="inkscape:persp3d"
       inkscape:vp_x="0 : 23 : 1"
       inkscape:vp_y="0 : 1000 : 0"
       inkscape:vp_z="36 : 23 : 1"
       inkscape:persp3d-origin="18 : 15.333333 : 1"
       id="perspective18" />
  </defs>
  <sodipodi:namedview
     pagecolor="#ffffff"
     bordercolor="#666666"
     borderopacity="1"
     objecttolerance="10"
     gridtolerance="10"
     guidetolerance="10"
     inkscape:pageopacity="0"
     inkscape:pageshadow="2"
     inkscape:window-width="964"
     inkscape:window-height="721"
     id="namedview14"
     showgrid="true"
     inkscape:zoom="16.97187"
     inkscape:cx="9.9945791"
     inkscape:cy="7.9956633"
     inkscape:window-x="365"
     inkscape:window-y="0"
     inkscape:window-maximized="0"
     inkscape:current-layer="svg2"
     showborder="true">
    <inkscape:grid
       type="xygrid"
       id="grid2824"
       empspacing="5"
       visible="true"
       enabled="true"
       snapvisiblegridlinesonly="true" />
  </sodipodi:namedview>
  <metadata
     id="metadata4">
Valerie Sutton's pixel definition of the
ISWA 2010 symbol ID 04-01-003-01-01-01
transformed by Stephen E Slevinski Jr
using line and fill polygon tracing
<rdf:RDF>
  <cc:Work
     rdf:about="">
    <dc:format>image/svg+xml</dc:format>
    <dc:type
       rdf:resource="http://purl.org/dc/dcmitype/StillImage" />
    <dc:title></dc:title>
  </cc:Work>
</rdf:RDF>
</metadata>
  <path
     style="fill:#000000;fill-opacity:1;stroke:none"
     d="m 11,0 c 2.209139,0 4,1.790861 4,4 l 0,1 -1,0 0,-1 C 14,2.3431458 12.656854,1 11,1 8.790861,1 7,3.6862915 7,7 l 0,1 c 0,2.981424 4,8 4,8 L 0,16 C 0,16 4,10.981424 4,8 L 4,7 C 4,3.1340068 7.134007,0 11,0 z"
     id="path2825" />
  <path
     style="fill:#000000;fill-opacity:1;stroke:none"
     d="M 20,5 14.5,10.5 9,5 20,5 z M 17.5625,6 11.4375,6 14.5,9.09375 17.5625,6 z"
     id="path2839" />
  <path
     style="fill:#ffffff;fill-opacity:1;stroke:none"
     d="M 17.5625,6 14.5,9.09375 11.4375,6 l 6.125,0 z"
     id="path2924" />
</svg>
