<?xml version="1.0" encoding="UTF-8" standalone="no"?>
<svg
   xmlns:dc="http://purl.org/dc/elements/1.1/"
   xmlns:cc="http://creativecommons.org/ns#"
   xmlns:rdf="http://www.w3.org/1999/02/22-rdf-syntax-ns#"
   xmlns:svg="http://www.w3.org/2000/svg"
   xmlns="http://www.w3.org/2000/svg"
   xmlns:sodipodi="http://sodipodi.sourceforge.net/DTD/sodipodi-0.dtd"
   xmlns:inkscape="http://www.inkscape.org/namespaces/inkscape"
   version="1.0"
   width="37"
   height="36"
   id="svg2"
   inkscape:version="0.47 r22583"
   sodipodi:docname="02-01-014-01-02-02.svg">
  <defs
     id="defs14">
    <inkscape:perspective
       sodipodi:type="inkscape:persp3d"
       inkscape:vp_x="0 : 5.5 : 1"
       inkscape:vp_y="0 : 1000 : 0"
       inkscape:vp_z="10 : 5.5 : 1"
       inkscape:persp3d-origin="5 : 3.6666667 : 1"
       id="perspective16" />
  </defs>
  <sodipodi:namedview
     pagecolor="#ffffff"
     bordercolor="#666666"
     borderopacity="1"
     objecttolerance="10"
     gridtolerance="10"
     guidetolerance="10"
     inkscape:pageopacity="0"
     inkscape:pageshadow="2"
     inkscape:window-width="917"
     inkscape:window-height="792"
     id="namedview12"
     showgrid="true"
     inkscape:zoom="11.494966"
     inkscape:cx="19.846442"
     inkscape:cy="18.123434"
     inkscape:window-x="313"
     inkscape:window-y="0"
     inkscape:window-maximized="0"
     inkscape:current-layer="svg2">
    <inkscape:grid
       type="xygrid"
       id="grid2822" />
  </sodipodi:namedview>
  <metadata
     id="metadata4">
Valerie Sutton's pixel definition of the
ISWA 2010 symbol ID 02-01-001-01-01-01
transformed by Stephen E Slevinski Jr
using line and fill polygon tracing
<rdf:RDF>
  <cc:Work
     rdf:about="">
    <dc:format>image/svg+xml</dc:format>
    <dc:type
       rdf:resource="http://purl.org/dc/dcmitype/StillImage" />
    <dc:title></dc:title>
  </cc:Work>
</rdf:RDF>
</metadata>
  <path
     style="fill:#000000;fill-opacity:1;stroke:none"
     d="m 7,22 c -3.8659932,0 -7,3.134007 -7,7 0,3.865993 3.1340068,7 7,7 2.30985,0 4.40655,-0.882098 6,-2.3125 l -1.34375,-1.5 C 10.415964,33.304267 8.8003793,34 7,34 4.2385763,34 2,31.761424 2,29 c 0,-2.761424 2.2385763,-5 5,-5 1.6568542,0 3,1.343146 3,3 0,1.656854 -1.3431458,3 -3,3 -0.5522847,0 -1,-0.447715 -1,-1 0,-0.552285 0.4477153,-1 1,-1 l 1,0 0,-2 -1,0 c -1.6568542,0 -3,1.343146 -3,3 0,1.656854 1.3431458,3 3,3 2.761424,0 5,-2.238576 5,-5 0,-2.761424 -2.238576,-5 -5,-5 z"
     id="path3907" />
  <path
     style="fill:#ffffff;fill-opacity:1;stroke:none"
     d="m 7,24 c -2.7614237,0 -5,2.238576 -5,5 0,2.761424 2.2385763,5 5,5 1.8003793,0 3.415964,-0.695733 4.65625,-1.8125 L 10.3125,30.71875 C 9.428337,31.508571 8.2788561,32 7,32 5.3431458,32 4,30.656854 4,29 4,27.343146 5.3431458,26 7,26 l 1,0 0,2 -1,0 c -0.5522847,0 -1,0.447715 -1,1 0,0.552285 0.4477153,1 1,1 1.6568542,0 3,-1.343146 3,-3 0,-1.656854 -1.3431458,-3 -3,-3 z"
     id="path3957" />
  <path
     id="path2814"
     d="m 19,11 c -3.865993,0 -7,3.134007 -7,7 0,3.865993 3.134007,7 7,7 2.30985,0 4.40655,-0.882098 6,-2.3125 l -1.34375,-1.5 C 22.415964,22.304267 20.800379,23 19,23 c -2.761424,0 -5,-2.238576 -5,-5 0,-2.761424 2.238576,-5 5,-5 1.656854,0 3,1.343146 3,3 0,1.656854 -1.343146,3 -3,3 -0.552285,0 -1,-0.447715 -1,-1 0,-0.552285 0.447715,-1 1,-1 l 1,0 0,-2 -1,0 c -1.656854,0 -3,1.343146 -3,3 0,1.656854 1.343146,3 3,3 2.761424,0 5,-2.238576 5,-5 0,-2.761424 -2.238576,-5 -5,-5 z"
     style="fill:#000000;fill-opacity:1;stroke:none" />
  <path
     id="path2816"
     d="m 19,13 c -2.761424,0 -5,2.238576 -5,5 0,2.761424 2.238576,5 5,5 1.800379,0 3.415964,-0.695733 4.65625,-1.8125 L 22.3125,19.71875 C 21.428337,20.508571 20.278856,21 19,21 c -1.656854,0 -3,-1.343146 -3,-3 0,-1.656854 1.343146,-3 3,-3 l 1,0 0,2 -1,0 c -0.552285,0 -1,0.447715 -1,1 0,0.552285 0.447715,1 1,1 1.656854,0 3,-1.343146 3,-3 0,-1.656854 -1.343146,-3 -3,-3 z"
     style="fill:#ffffff;fill-opacity:1;stroke:none" />
  <path
     style="fill:#000000;fill-opacity:1;stroke:none"
     d="m 31,0 c -3.865993,0 -7,3.1340068 -7,7 0,3.865993 3.134007,7 7,7 2.30985,0 4.40655,-0.882098 6,-2.3125 l -1.34375,-1.5 C 34.415964,11.304267 32.800379,12 31,12 28.238576,12 26,9.7614237 26,7 c 0,-2.7614237 2.238576,-5 5,-5 1.656854,0 3,1.3431458 3,3 0,1.6568542 -1.343146,3 -3,3 -0.552285,0 -1,-0.4477153 -1,-1 0,-0.5522847 0.447715,-1 1,-1 l 1,0 0,-2 -1,0 c -1.656854,0 -3,1.3431458 -3,3 0,1.6568542 1.343146,3 3,3 2.761424,0 5,-2.2385763 5,-5 0,-2.7614237 -2.238576,-5 -5,-5 z"
     id="path2902" />
  <path
     style="fill:#ffffff;fill-opacity:1;stroke:none"
     d="m 31,2 c -2.761424,0 -5,2.2385763 -5,5 0,2.7614237 2.238576,5 5,5 1.800379,0 3.415964,-0.695733 4.65625,-1.8125 L 34.3125,8.71875 C 33.428337,9.5085709 32.278856,10 31,10 29.343146,10 28,8.6568542 28,7 28,5.3431458 29.343146,4 31,4 l 1,0 0,2 -1,0 c -0.552285,0 -1,0.4477153 -1,1 0,0.5522847 0.447715,1 1,1 1.656854,0 3,-1.3431458 3,-3 0,-1.6568542 -1.343146,-3 -3,-3 z"
     id="path2904" />
</svg>
