<?xml version="1.0" encoding="UTF-8" standalone="no"?>
<svg
   xmlns:dc="http://purl.org/dc/elements/1.1/"
   xmlns:cc="http://creativecommons.org/ns#"
   xmlns:rdf="http://www.w3.org/1999/02/22-rdf-syntax-ns#"
   xmlns:svg="http://www.w3.org/2000/svg"
   xmlns="http://www.w3.org/2000/svg"
   xmlns:sodipodi="http://sodipodi.sourceforge.net/DTD/sodipodi-0.dtd"
   xmlns:inkscape="http://www.inkscape.org/namespaces/inkscape"
   version="1.0"
   width="43"
   height="14"
   id="svg2"
   inkscape:version="0.47 r22583"
   sodipodi:docname="02-01-014-01-01-03.svg">
  <defs
     id="defs14">
    <inkscape:perspective
       sodipodi:type="inkscape:persp3d"
       inkscape:vp_x="0 : 5.5 : 1"
       inkscape:vp_y="0 : 1000 : 0"
       inkscape:vp_z="10 : 5.5 : 1"
       inkscape:persp3d-origin="5 : 3.6666667 : 1"
       id="perspective16" />
  </defs>
  <sodipodi:namedview
     pagecolor="#ffffff"
     bordercolor="#666666"
     borderopacity="1"
     objecttolerance="10"
     gridtolerance="10"
     guidetolerance="10"
     inkscape:pageopacity="0"
     inkscape:pageshadow="2"
     inkscape:window-width="917"
     inkscape:window-height="792"
     id="namedview12"
     showgrid="true"
     inkscape:zoom="11.494966"
     inkscape:cx="19.846442"
     inkscape:cy="7.6840816"
     inkscape:window-x="313"
     inkscape:window-y="0"
     inkscape:window-maximized="0"
     inkscape:current-layer="svg2">
    <inkscape:grid
       type="xygrid"
       id="grid2822" />
  </sodipodi:namedview>
  <metadata
     id="metadata4">
Valerie Sutton's pixel definition of the
ISWA 2010 symbol ID 02-01-001-01-01-01
transformed by Stephen E Slevinski Jr
using line and fill polygon tracing
<rdf:RDF>
  <cc:Work
     rdf:about="">
    <dc:format>image/svg+xml</dc:format>
    <dc:type
       rdf:resource="http://purl.org/dc/dcmitype/StillImage" />
    <dc:title></dc:title>
  </cc:Work>
</rdf:RDF>
</metadata>
  <path
     style="fill:#000000;fill-opacity:1;stroke:none"
     d="M 7,0 C 3.1340068,0 0,3.1340068 0,7 c 0,3.865993 3.1340068,7 7,7 2.3098499,0 4.40655,-0.882098 6,-2.3125 l -1.34375,-1.5 C 10.415964,11.304267 8.8003793,12 7,12 4.2385763,12 2,9.7614237 2,7 2,4.2385763 4.2385763,2 7,2 8.6568542,2 10,3.3431458 10,5 10,6.6568542 8.6568542,8 7,8 6.4477153,8 6,7.5522847 6,7 6,6.4477153 6.4477153,6 7,6 L 8,6 8,4 7,4 C 5.3431458,4 4,5.3431458 4,7 4,8.6568542 5.3431458,10 7,10 9.761424,10 12,7.7614237 12,5 12,2.2385763 9.761424,0 7,0 z"
     id="path3907" />
  <path
     style="fill:#ffffff;fill-opacity:1;stroke:none"
     d="M 7,2 C 4.2385763,2 2,4.2385763 2,7 c 0,2.7614237 2.2385763,5 5,5 1.8003793,0 3.415964,-0.695733 4.65625,-1.8125 L 10.3125,8.71875 C 9.4283373,9.5085709 8.2788561,10 7,10 5.3431458,10 4,8.6568542 4,7 4,5.3431458 5.3431458,4 7,4 L 8,4 8,6 7,6 C 6.4477153,6 6,6.4477153 6,7 6,7.5522847 6.4477153,8 7,8 8.6568542,8 10,6.6568542 10,5 10,3.3431458 8.6568542,2 7,2 z"
     id="path3957" />
  <path
     id="path2814"
     d="m 22,0 c -3.865993,0 -7,3.1340068 -7,7 0,3.865993 3.134007,7 7,7 2.30985,0 4.40655,-0.882098 6,-2.3125 l -1.34375,-1.5 C 25.415964,11.304267 23.800379,12 22,12 19.238576,12 17,9.7614237 17,7 c 0,-2.7614237 2.238576,-5 5,-5 1.656854,0 3,1.3431458 3,3 0,1.6568542 -1.343146,3 -3,3 -0.552285,0 -1,-0.4477153 -1,-1 0,-0.5522847 0.447715,-1 1,-1 l 1,0 0,-2 -1,0 c -1.656854,0 -3,1.3431458 -3,3 0,1.6568542 1.343146,3 3,3 2.761424,0 5,-2.2385763 5,-5 0,-2.7614237 -2.238576,-5 -5,-5 z"
     style="fill:#000000;fill-opacity:1;stroke:none" />
  <path
     id="path2816"
     d="m 22,2 c -2.761424,0 -5,2.2385763 -5,5 0,2.7614237 2.238576,5 5,5 1.800379,0 3.415964,-0.695733 4.65625,-1.8125 L 25.3125,8.71875 C 24.428337,9.5085709 23.278856,10 22,10 20.343146,10 19,8.6568542 19,7 19,5.3431458 20.343146,4 22,4 l 1,0 0,2 -1,0 c -0.552285,0 -1,0.4477153 -1,1 0,0.5522847 0.447715,1 1,1 1.656854,0 3,-1.3431458 3,-3 0,-1.6568542 -1.343146,-3 -3,-3 z"
     style="fill:#ffffff;fill-opacity:1;stroke:none" />
  <path
     style="fill:#000000;fill-opacity:1;stroke:none"
     d="m 37,0 c -3.865993,0 -7,3.1340068 -7,7 0,3.865993 3.134007,7 7,7 2.30985,0 4.40655,-0.882098 6,-2.3125 l -1.34375,-1.5 C 40.415964,11.304267 38.800379,12 37,12 34.238576,12 32,9.7614237 32,7 c 0,-2.7614237 2.238576,-5 5,-5 1.656854,0 3,1.3431458 3,3 0,1.6568542 -1.343146,3 -3,3 -0.552285,0 -1,-0.4477153 -1,-1 0,-0.5522847 0.447715,-1 1,-1 l 1,0 0,-2 -1,0 c -1.656854,0 -3,1.3431458 -3,3 0,1.6568542 1.343146,3 3,3 2.761424,0 5,-2.2385763 5,-5 0,-2.7614237 -2.238576,-5 -5,-5 z"
     id="path2902" />
  <path
     style="fill:#ffffff;fill-opacity:1;stroke:none"
     d="m 37,2 c -2.761424,0 -5,2.2385763 -5,5 0,2.7614237 2.238576,5 5,5 1.800379,0 3.415964,-0.695733 4.65625,-1.8125 L 40.3125,8.71875 C 39.428337,9.5085709 38.278856,10 37,10 35.343146,10 34,8.6568542 34,7 34,5.3431458 35.343146,4 37,4 l 1,0 0,2 -1,0 c -0.552285,0 -1,0.4477153 -1,1 0,0.5522847 0.447715,1 1,1 1.656854,0 3,-1.3431458 3,-3 0,-1.6568542 -1.343146,-3 -3,-3 z"
     id="path2904" />
</svg>
