<?xml version="1.0" encoding="UTF-8" standalone="no"?>
<!-- Created with Inkscape (http://www.inkscape.org/) -->

<svg
   xmlns:dc="http://purl.org/dc/elements/1.1/"
   xmlns:cc="http://creativecommons.org/ns#"
   xmlns:rdf="http://www.w3.org/1999/02/22-rdf-syntax-ns#"
   xmlns:svg="http://www.w3.org/2000/svg"
   xmlns="http://www.w3.org/2000/svg"
   xmlns:sodipodi="http://sodipodi.sourceforge.net/DTD/sodipodi-0.dtd"
   xmlns:inkscape="http://www.inkscape.org/namespaces/inkscape"
   width="28"
   height="28"
   id="svg3198"
   sodipodi:version="0.32"
   inkscape:version="0.47 r22583"
   version="1.0"
   sodipodi:docname="01-08-003-01-03.svg"
   inkscape:output_extension="org.inkscape.output.svg.inkscape">
  <defs
     id="defs3200">
    <inkscape:perspective
       sodipodi:type="inkscape:persp3d"
       inkscape:vp_x="0 : 526.18109 : 1"
       inkscape:vp_y="0 : 1000 : 0"
       inkscape:vp_z="744.09448 : 526.18109 : 1"
       inkscape:persp3d-origin="372.04724 : 350.78739 : 1"
       id="perspective3206" />
  </defs>
  <sodipodi:namedview
     id="namedview3727"
     pagecolor="#ffffff"
     bordercolor="#666666"
     borderopacity="1.0"
     gridtolerance="10000"
     guidetolerance="10"
     objecttolerance="10"
     inkscape:pageopacity="0.0"
     inkscape:pageshadow="2"
     inkscape:zoom="18.37142"
     inkscape:cx="14.333192"
     inkscape:cy="14.169635"
     inkscape:document-units="px"
     inkscape:current-layer=""
     showgrid="true"
     inkscape:window-width="1440"
     inkscape:window-height="797"
     inkscape:window-x="0"
     inkscape:window-y="0"
     inkscape:window-maximized="0">
    <inkscape:grid
       type="xygrid"
       id="grid3208"
       visible="true"
       enabled="true" />
  </sodipodi:namedview>
  <metadata
     id="metadata3203">
    <rdf:RDF>
      <cc:Work
         rdf:about="">
        <dc:format>image/svg+xml</dc:format>
        <dc:type
           rdf:resource="http://purl.org/dc/dcmitype/StillImage" />
        <dc:title></dc:title>
      </cc:Work>
    </rdf:RDF>
  </metadata>
  <g
     inkscape:label="Layer 1"
     inkscape:groupmode="layer"
     id="">
    <path
       style="fill:#000000;fill-opacity:1;stroke:none"
       d="M 13 11 C 6 11 6 17 6 17 C 6 23 12 23 12 23 L 17.9375 23 C 16.305684 25.496599 13.274133 25.931312 12.3125 26 L 12 26 C 6.4811321 26 3.5161142 23.46044 1.90625 20.71875 L 0 21.8125 C 3.8719628 27.996595 12 28 12 28 C 21 28 21 19 21 19 C 21 11 13 11 13 11 z "
       id="base" />
    <path
       style="fill:#000000;fill-opacity:1;stroke:none"
       d="m 6,0 0,16.75 c 0.058105,-0.697266 0.398468,-2.65564 2,-4.09375 L 8,0 6,0 z"
       id="index" />
    <path
       style="fill:#000000;fill-opacity:1;stroke:none"
       d="m 17,3 0,9 c 0.691892,0.345946 1.390913,0.810795 2,1.4375 L 19,3 17,3 z"
       id="ring" />
    <path
       style="fill:#000000;fill-opacity:1;stroke:none"
       d="m 26,9 -5.9375,5.9375 c 0.323101,0.603569 0.560029,1.321651 0.71875,2.125 l 6.625,-6.65625 L 26,9 z"
       id="baby" />
  </g>
</svg>
