<?xml version="1.0" encoding="UTF-8" standalone="no"?>
<!-- Created with Inkscape (http://www.inkscape.org/) -->

<svg
   xmlns:dc="http://purl.org/dc/elements/1.1/"
   xmlns:cc="http://creativecommons.org/ns#"
   xmlns:rdf="http://www.w3.org/1999/02/22-rdf-syntax-ns#"
   xmlns:svg="http://www.w3.org/2000/svg"
   xmlns="http://www.w3.org/2000/svg"
   xmlns:sodipodi="http://sodipodi.sourceforge.net/DTD/sodipodi-0.dtd"
   xmlns:inkscape="http://www.inkscape.org/namespaces/inkscape"
   width="28"
   height="28"
   id="svg3198"
   sodipodi:version="0.32"
   inkscape:version="0.47 r22583"
   version="1.0"
   sodipodi:docname="01-05-042-01-06.svg"
   inkscape:output_extension="org.inkscape.output.svg.inkscape">
  <defs
     id="defs3200">
    <inkscape:perspective
       sodipodi:type="inkscape:persp3d"
       inkscape:vp_x="0 : 526.18109 : 1"
       inkscape:vp_y="0 : 1000 : 0"
       inkscape:vp_z="744.09448 : 526.18109 : 1"
       inkscape:persp3d-origin="372.04724 : 350.78739 : 1"
       id="perspective3206" />
  </defs>
  <sodipodi:namedview
     id="namedview3727"
     pagecolor="#ffffff"
     bordercolor="#666666"
     borderopacity="1.0"
     gridtolerance="10000"
     guidetolerance="10"
     objecttolerance="10"
     inkscape:pageopacity="0.0"
     inkscape:pageshadow="2"
     inkscape:zoom="18.37142"
     inkscape:cx="14.682567"
     inkscape:cy="14.123432"
     inkscape:document-units="px"
     inkscape:current-layer=""
     showgrid="true"
     inkscape:window-width="1094"
     inkscape:window-height="799"
     inkscape:window-x="0"
     inkscape:window-y="0"
     inkscape:window-maximized="0">
    <inkscape:grid
       type="xygrid"
       id="grid3208"
       visible="true"
       enabled="true" />
  </sodipodi:namedview>
  <metadata
     id="metadata3203">
    <rdf:RDF>
      <cc:Work
         rdf:about="">
        <dc:format>image/svg+xml</dc:format>
        <dc:type
           rdf:resource="http://purl.org/dc/dcmitype/StillImage" />
        <dc:title></dc:title>
      </cc:Work>
    </rdf:RDF>
  </metadata>
  <g
     inkscape:label="Layer 1"
     inkscape:groupmode="layer"
     id="">
    <path
       style="fill:#000000;fill-opacity:1;stroke:none"
       d="M 13,11 C 6.875,11 6.0957031,15.601563 6,16.75 L 6,17 c 0,6 6,6 6,6 l 3,0 2.9375,0 c -1.631816,2.496599 -4.663367,2.931312 -5.625,3 L 12,26 C 10.901637,26 9.9055023,25.9015 9,25.71875 L 8.5,27.5 c 2.008764,0.486454 3.5,0.5 3.5,0.5 9,0 9,-9 9,-9 0,-8 -8,-8 -8,-8 z M 1.90625,20.71875 0,21.8125 c 1.7181835,2.744192 4.281536,4.275162 6.59375,5.125 L 7.0625,25.15625 C 4.5622175,24.184617 2.9477073,22.492411 1.90625,20.71875 z"
       id="base" />
    <path
       style="fill:#000000;fill-opacity:1;stroke:none"
       d="M 6,0 6,11.6875 C 6.6049903,11.073504 7.289756,10.615758 8,10.25 L 8,0 6,0 z"
       id="index" />
    <path
       style="fill:#000000;fill-opacity:1;stroke:none"
       d="m 17,3 0,6.8125 c 0.65486,0.250031 1.344904,0.572217 2,1 L 19,3 17,3 z"
       id="ring" />
    <path
       style="fill:#000000;fill-opacity:1;stroke:none"
       d="m 26,9 -4.4375,4.4375 c 0.358902,0.574349 0.669263,1.204319 0.90625,1.9375 L 27.40625,10.40625 26,9 z"
       id="baby" />
  </g>
</svg>
