<?xml version="1.0" encoding="UTF-8" standalone="no"?>
<!-- Created with Inkscape (http://www.inkscape.org/) -->

<svg
   xmlns:dc="http://purl.org/dc/elements/1.1/"
   xmlns:cc="http://creativecommons.org/ns#"
   xmlns:rdf="http://www.w3.org/1999/02/22-rdf-syntax-ns#"
   xmlns:svg="http://www.w3.org/2000/svg"
   xmlns="http://www.w3.org/2000/svg"
   xmlns:sodipodi="http://sodipodi.sourceforge.net/DTD/sodipodi-0.dtd"
   xmlns:inkscape="http://www.inkscape.org/namespaces/inkscape"
   width="21"
   height="28"
   id="svg3198"
   sodipodi:version="0.32"
   inkscape:version="0.47 r22583"
   version="1.0"
   sodipodi:docname="01-05-042-01-04.svg"
   inkscape:output_extension="org.inkscape.output.svg.inkscape">
  <defs
     id="defs3200">
    <inkscape:perspective
       sodipodi:type="inkscape:persp3d"
       inkscape:vp_x="0 : 526.18109 : 1"
       inkscape:vp_y="0 : 1000 : 0"
       inkscape:vp_z="744.09448 : 526.18109 : 1"
       inkscape:persp3d-origin="372.04724 : 350.78739 : 1"
       id="perspective3206" />
  </defs>
  <sodipodi:namedview
     id="namedview3727"
     pagecolor="#ffffff"
     bordercolor="#666666"
     borderopacity="1.0"
     gridtolerance="10000"
     guidetolerance="10"
     objecttolerance="10"
     inkscape:pageopacity="0.0"
     inkscape:pageshadow="2"
     inkscape:zoom="17.141141"
     inkscape:cx="10.470265"
     inkscape:cy="12.665805"
     inkscape:document-units="px"
     inkscape:current-layer=""
     showgrid="true"
     inkscape:window-width="955"
     inkscape:window-height="798"
     inkscape:window-x="0"
     inkscape:window-y="0"
     inkscape:window-maximized="0">
    <inkscape:grid
       type="xygrid"
       id="grid3208"
       visible="true"
       enabled="true" />
  </sodipodi:namedview>
  <metadata
     id="metadata3203">
    <rdf:RDF>
      <cc:Work
         rdf:about="">
        <dc:format>image/svg+xml</dc:format>
        <dc:type
           rdf:resource="http://purl.org/dc/dcmitype/StillImage" />
        <dc:title></dc:title>
      </cc:Work>
    </rdf:RDF>
  </metadata>
  <g
     inkscape:label="Layer 1"
     inkscape:groupmode="layer"
     id="">
    <path
       style="fill:#000000;fill-opacity:1;stroke:none"
       d="M 13,11 C 6.875,11 6.0957031,15.601563 6,16.75 L 6,17 c 0,6 6,6 6,6 l 3,0 0,-2 -3,0 c -4,0 -4,-4 -4,-4 0,-4 5,-4 5,-4 6,0 6,6 6,6 0,6.125 -5.347656,6.904297 -6.6875,7 L 12,26 C 10.901637,26 9.9055023,25.9015 9,25.71875 L 8.5,27.5 c 2.008764,0.486454 3.5,0.5 3.5,0.5 9,0 9,-9 9,-9 0,-8 -8,-8 -8,-8 z M 1.90625,20.71875 0,21.8125 c 1.7181835,2.744192 4.281536,4.275162 6.59375,5.125 L 7.0625,25.15625 C 4.5622175,24.184617 2.9477073,22.492411 1.90625,20.71875 z"
       id="base" />
    <path
       style="fill:#ffffff;fill-opacity:1;stroke:none"
       d="m 13,13 c 0,0 -5,0 -5,4 0,0 0,4 4,4 l 3,0 0,2 2.9375,0 C 18.584878,22.022122 19,20.729217 19,19 c 0,0 0,-6 -6,-6 z"
       id="fill"
       sodipodi:nodetypes="cccccccc" />
    <path
       style="fill:#000000;fill-opacity:1;stroke:none"
       d="M 19 0 L 19 10.8125 C 19.723507 11.284955 20.397989 11.906087 21 12.65625 L 21 0 L 19 0 z "
       id="rect2943" />
    <path
       style="fill:#000000;fill-opacity:1;stroke:none"
       d="M 8 3 L 8 10.25 C 8.6711123 9.9043941 9.3598209 9.6482325 10 9.46875 L 10 3 L 8 3 z "
       id="rect2945" />
    <path
       style="fill:#000000;fill-opacity:1;stroke:none"
       d="M 2 9 L 0.59375 10.40625 L 4.4375 14.25 C 4.6774789 13.550648 5.0159873 12.930945 5.40625 12.40625 L 5.40625 12.375 L 2 9 z "
       id="rect2947" />
  </g>
</svg>
