<?xml version="1.0" encoding="UTF-8" standalone="no"?>
<!-- Created with Inkscape (http://www.inkscape.org/) -->

<svg
   xmlns:dc="http://purl.org/dc/elements/1.1/"
   xmlns:cc="http://creativecommons.org/ns#"
   xmlns:rdf="http://www.w3.org/1999/02/22-rdf-syntax-ns#"
   xmlns:svg="http://www.w3.org/2000/svg"
   xmlns="http://www.w3.org/2000/svg"
   xmlns:sodipodi="http://sodipodi.sourceforge.net/DTD/sodipodi-0.dtd"
   xmlns:inkscape="http://www.inkscape.org/namespaces/inkscape"
   width="21"
   height="28"
   id="svg3198"
   sodipodi:version="0.32"
   inkscape:version="0.47 r22583"
   version="1.0"
   sodipodi:docname="01-05-042-01-01.svg"
   inkscape:output_extension="org.inkscape.output.svg.inkscape">
  <defs
     id="defs3200">
    <inkscape:perspective
       sodipodi:type="inkscape:persp3d"
       inkscape:vp_x="0 : 526.18109 : 1"
       inkscape:vp_y="0 : 1000 : 0"
       inkscape:vp_z="744.09448 : 526.18109 : 1"
       inkscape:persp3d-origin="372.04724 : 350.78739 : 1"
       id="perspective3206" />
  </defs>
  <sodipodi:namedview
     id="namedview3727"
     pagecolor="#ffffff"
     bordercolor="#666666"
     borderopacity="1.0"
     gridtolerance="10000"
     guidetolerance="10"
     objecttolerance="10"
     inkscape:pageopacity="0.0"
     inkscape:pageshadow="2"
     inkscape:zoom="17.139816"
     inkscape:cx="10.756958"
     inkscape:cy="13.602808"
     inkscape:document-units="px"
     inkscape:current-layer=""
     showgrid="true"
     inkscape:window-width="1433"
     inkscape:window-height="794"
     inkscape:window-x="0"
     inkscape:window-y="0"
     inkscape:window-maximized="0">
    <inkscape:grid
       type="xygrid"
       id="grid3208"
       visible="true"
       enabled="true" />
  </sodipodi:namedview>
  <metadata
     id="metadata3203">
    <rdf:RDF>
      <cc:Work
         rdf:about="">
        <dc:format>image/svg+xml</dc:format>
        <dc:type
           rdf:resource="http://purl.org/dc/dcmitype/StillImage" />
        <dc:title></dc:title>
      </cc:Work>
    </rdf:RDF>
  </metadata>
  <g
     inkscape:label="Layer 1"
     inkscape:groupmode="layer"
     id="">
    <path
       style="fill:#000000;fill-opacity:1;stroke:none"
       d="M 13 11 C 6 11 6 17 6 17 C 6 23 12 23 12 23 L 15 23 L 15 21 L 12 21 C 8 21 8 17 8 17 C 8 13 13 13 13 13 C 19 13 19 19 19 19 C 19 26 12 26 12 26 C 6.4811321 26 3.5161142 23.46044 1.90625 20.71875 L 0 21.8125 C 3.8719628 27.996595 12 28 12 28 C 21 28 21 19 21 19 C 21 11 13 11 13 11 z "
       id="base" />
    <path
       style="fill:#ffffff;fill-opacity:1;stroke:none"
       d="M 13 13 C 13 13 8 13 8 17 C 8 17 8 21 12 21 L 15 21 L 15 23 L 17.9375 23 C 18.584878 22.022122 19 20.729217 19 19 C 19 19 19 13 13 13 z "
       id="fill" />
    <path
       style="fill:#000000;fill-opacity:1;stroke:none"
       d="m 19,0 0,13.4375 c 1.151556,1.184865 2,2.946284 2,5.5625 L 21,0 19,0 z"
       id="index" />
    <path
       style="fill:#000000;fill-opacity:1;stroke:none"
       d="m 8,3 0,9.65625 c 0.521911,-0.468655 1.1663962,-0.893509 2,-1.1875 L 10,3 8,3 z"
       id="ring" />
    <path
       style="fill:#000000;fill-opacity:1;stroke:none"
       d="M 2,9 0.59375,10.40625 6.15625,16 C 6.272977,15.426119 6.4868114,14.685736 6.9375,13.9375 L 2,9 z"
       id="baby" />
  </g>
</svg>
