<?xml version="1.0" encoding="UTF-8" standalone="no"?>
<svg
   xmlns:dc="http://purl.org/dc/elements/1.1/"
   xmlns:cc="http://creativecommons.org/ns#"
   xmlns:rdf="http://www.w3.org/1999/02/22-rdf-syntax-ns#"
   xmlns:svg="http://www.w3.org/2000/svg"
   xmlns="http://www.w3.org/2000/svg"
   xmlns:sodipodi="http://sodipodi.sourceforge.net/DTD/sodipodi-0.dtd"
   xmlns:inkscape="http://www.inkscape.org/namespaces/inkscape"
   version="1.0"
   width="29"
   height="27"
   id="svg2"
   inkscape:version="0.47 r22583"
   sodipodi:docname="02-01-002-01-02-02.svg">
  <defs
     id="defs14">
    <inkscape:perspective
       sodipodi:type="inkscape:persp3d"
       inkscape:vp_x="0 : 5.5 : 1"
       inkscape:vp_y="0 : 1000 : 0"
       inkscape:vp_z="10 : 5.5 : 1"
       inkscape:persp3d-origin="5 : 3.6666667 : 1"
       id="perspective16" />
  </defs>
  <sodipodi:namedview
     pagecolor="#ffffff"
     bordercolor="#666666"
     borderopacity="1"
     objecttolerance="10"
     gridtolerance="10"
     guidetolerance="10"
     inkscape:pageopacity="0"
     inkscape:pageshadow="2"
     inkscape:window-width="917"
     inkscape:window-height="792"
     id="namedview12"
     showgrid="true"
     inkscape:zoom="14.15411"
     inkscape:cx="12.517126"
     inkscape:cy="14.940074"
     inkscape:window-x="313"
     inkscape:window-y="0"
     inkscape:window-maximized="0"
     inkscape:current-layer="svg2">
    <inkscape:grid
       type="xygrid"
       id="grid2822" />
  </sodipodi:namedview>
  <metadata
     id="metadata4">
Valerie Sutton's pixel definition of the
ISWA 2010 symbol ID 02-01-001-01-01-01
transformed by Stephen E Slevinski Jr
using line and fill polygon tracing
<rdf:RDF>
  <cc:Work
     rdf:about="">
    <dc:format>image/svg+xml</dc:format>
    <dc:type
       rdf:resource="http://purl.org/dc/dcmitype/StillImage" />
    <dc:title />
  </cc:Work>
</rdf:RDF>
</metadata>
  <path
     style="fill:#000000;fill-opacity:1;stroke:none"
     d="m 4.75,16 0,4.1875 -3.625,-2.09375 -0.75,1.3125 L 4,21.5 l -3.625,2.09375 0.75,1.3125 3.625,-2.09375 0,4.1875 1.5,0 0,-4.1875 3.625,2.09375 0.75,-1.3125 L 7,21.5 10.625,19.40625 9.875,18.09375 6.25,20.1875 6.25,16 4.75,16 z"
     id="rect2824" />
  <path
     style="fill:#000000;fill-opacity:1;stroke:none"
     d="m 22.75,0 0,4.1875 -3.625,-2.09375 -0.75,1.3125 L 22,5.5 l -3.625,2.09375 0.75,1.3125 3.625,-2.09375 0,4.1875 1.5,0 0,-4.1875 3.625,2.09375 0.75,-1.3125 L 25,5.5 28.625,3.40625 27.875,2.09375 24.25,4.1875 24.25,0 22.75,0 z"
     id="path2891" />
  <path
     style="fill:#000000;fill-opacity:1;stroke:none"
     d="m 13.75,8 0,4.1875 -3.625,-2.09375 -0.75,1.3125 L 13,13.5 l -3.625,2.09375 0.75,1.3125 3.625,-2.09375 0,4.1875 1.5,0 0,-4.1875 3.625,2.09375 0.75,-1.3125 L 16,13.5 19.625,11.40625 18.875,10.09375 15.25,12.1875 15.25,8 13.75,8 z"
     id="path2893" />
</svg>
