<?xml version="1.0" encoding="UTF-8" standalone="no"?>
<svg
   xmlns:dc="http://purl.org/dc/elements/1.1/"
   xmlns:cc="http://creativecommons.org/ns#"
   xmlns:rdf="http://www.w3.org/1999/02/22-rdf-syntax-ns#"
   xmlns:svg="http://www.w3.org/2000/svg"
   xmlns="http://www.w3.org/2000/svg"
   xmlns:sodipodi="http://sodipodi.sourceforge.net/DTD/sodipodi-0.dtd"
   xmlns:inkscape="http://www.inkscape.org/namespaces/inkscape"
   version="1.0"
   width="31"
   height="30"
   id="svg2"
   inkscape:version="0.47 r22583"
   sodipodi:docname="02-09-004-02-03-16.svg">
  <defs
     id="defs16">
    <inkscape:perspective
       sodipodi:type="inkscape:persp3d"
       inkscape:vp_x="0 : 23 : 1"
       inkscape:vp_y="0 : 1000 : 0"
       inkscape:vp_z="36 : 23 : 1"
       inkscape:persp3d-origin="18 : 15.333333 : 1"
       id="perspective18" />
  </defs>
  <sodipodi:namedview
     pagecolor="#ffffff"
     bordercolor="#666666"
     borderopacity="1"
     objecttolerance="10"
     gridtolerance="10"
     guidetolerance="10"
     inkscape:pageopacity="0"
     inkscape:pageshadow="2"
     inkscape:window-width="964"
     inkscape:window-height="721"
     id="namedview14"
     showgrid="true"
     inkscape:zoom="15.766667"
     inkscape:cx="15.5"
     inkscape:cy="15"
     inkscape:window-x="365"
     inkscape:window-y="0"
     inkscape:window-maximized="0"
     inkscape:current-layer="svg2"
     showborder="true"
     inkscape:snap-nodes="true">
    <inkscape:grid
       type="xygrid"
       id="grid2824"
       empspacing="5"
       visible="true"
       enabled="true"
       snapvisiblegridlinesonly="true" />
  </sodipodi:namedview>
  <metadata
     id="metadata4">
Valerie Sutton's pixel definition of the
ISWA 2010 symbol ID 04-01-003-01-01-01
transformed by Stephen E Slevinski Jr
using line and fill polygon tracing
<rdf:RDF>
  <cc:Work
     rdf:about="">
    <dc:format>image/svg+xml</dc:format>
    <dc:type
       rdf:resource="http://purl.org/dc/dcmitype/StillImage" />
    <dc:title></dc:title>
  </cc:Work>
</rdf:RDF>
</metadata>
  <path
     style="fill:#000000;fill-opacity:1;stroke:none"
     d="M 0 23 L 7 30 L 14 23 L 0 23 z M 2.40625 24 L 11.59375 24 L 7 28.5625 L 2.40625 24 z "
     id="path2814" />
  <path
     style="fill:#000000;fill-opacity:1;stroke:none"
     d="M 23.5 0 C 20.462434 0 18 2.4624339 18 5.5 C 18 8.5375661 20.462434 11 23.5 11 L 24 11 C 25.656854 11 27 12.343146 27 14 C 27 15.656854 25.656854 17 24 17 L 19 17 C 18.682056 17 17.1796 16.666165 16.625 16.375 L 14.125 15.0625 C 12.936575 14.38055 12.131022 14.157929 11 14 C 8.2385763 14 6 16.238576 6 19 L 6 23 L 8 23 L 8 19 C 8 16.790861 9.3431458 15 11 15 C 11.762892 15 12.46914 15.376565 13 16 L 16.15625 18.84375 C 16.880108 19.567608 17.89543 20 19 20 L 23 20 C 26.313708 20 29 17.313708 29 14 C 29 10.686292 26.313708 8 23 8 C 21.300999 7.7599089 20 6.2652647 20 4.5 C 20 2.5670034 21.567003 1 23.5 1 L 31 1 L 31 0 L 23.5 0 z "
     id="path3791" />
  <path
     style="fill:#ffffff;fill-opacity:1;stroke:none"
     d="M 2.40625 24 L 7 28.5625 L 11.59375 24 L 2.40625 24 z "
     id="path3981" />
</svg>
