<?xml version="1.0" encoding="UTF-8" standalone="no"?>
<svg
   xmlns:dc="http://purl.org/dc/elements/1.1/"
   xmlns:cc="http://creativecommons.org/ns#"
   xmlns:rdf="http://www.w3.org/1999/02/22-rdf-syntax-ns#"
   xmlns:svg="http://www.w3.org/2000/svg"
   xmlns="http://www.w3.org/2000/svg"
   xmlns:sodipodi="http://sodipodi.sourceforge.net/DTD/sodipodi-0.dtd"
   xmlns:inkscape="http://www.inkscape.org/namespaces/inkscape"
   version="1.0"
   width="31"
   height="29"
   id="svg2"
   inkscape:version="0.47 r22583"
   sodipodi:docname="02-09-004-02-02-10.svg">
  <defs
     id="defs16">
    <inkscape:perspective
       sodipodi:type="inkscape:persp3d"
       inkscape:vp_x="0 : 23 : 1"
       inkscape:vp_y="0 : 1000 : 0"
       inkscape:vp_z="36 : 23 : 1"
       inkscape:persp3d-origin="18 : 15.333333 : 1"
       id="perspective18" />
  </defs>
  <sodipodi:namedview
     pagecolor="#ffffff"
     bordercolor="#666666"
     borderopacity="1"
     objecttolerance="10"
     gridtolerance="10"
     guidetolerance="10"
     inkscape:pageopacity="0"
     inkscape:pageshadow="2"
     inkscape:window-width="964"
     inkscape:window-height="721"
     id="namedview14"
     showgrid="true"
     inkscape:zoom="16.310345"
     inkscape:cx="15.5"
     inkscape:cy="14.5"
     inkscape:window-x="365"
     inkscape:window-y="0"
     inkscape:window-maximized="0"
     inkscape:current-layer="svg2"
     showborder="true"
     inkscape:snap-nodes="true">
    <inkscape:grid
       type="xygrid"
       id="grid2824"
       empspacing="5"
       visible="true"
       enabled="true"
       snapvisiblegridlinesonly="true" />
  </sodipodi:namedview>
  <metadata
     id="metadata4">
Valerie Sutton's pixel definition of the
ISWA 2010 symbol ID 04-01-003-01-01-01
transformed by Stephen E Slevinski Jr
using line and fill polygon tracing
<rdf:RDF>
  <cc:Work
     rdf:about="">
    <dc:format>image/svg+xml</dc:format>
    <dc:type
       rdf:resource="http://purl.org/dc/dcmitype/StillImage" />
    <dc:title></dc:title>
  </cc:Work>
</rdf:RDF>
</metadata>
  <path
     style="fill:#000000;fill-opacity:1;stroke:none"
     d="M 7,0 0.5,6.5 7,13 7,0 z M 6,2.4375 6,10.5625 1.90625,6.5 6,2.4375 z"
     id="path2814" />
  <path
     style="fill:#000000;fill-opacity:1;stroke:none"
     d="m 7,6 0,1 6.5,0 c 1.932997,0 3.5,1.5670034 3.5,3.5 0,1.765265 -1.300999,3.259909 -3,3.5 -3.313708,0 -6,2.686292 -6,6 0,3.313708 2.686292,6 6,6 l 4,0 c 1.10457,0 2.119892,-0.432392 2.84375,-1.15625 L 24,22 c 0.53086,-0.623435 1.237108,-1 2,-1 1.656854,0 3,1.790861 3,4 l 0,4 2,0 0,-4 c 0,-2.761424 -2.238576,-5 -5,-5 -1.131022,0.157929 -1.936575,0.38055 -3.125,1.0625 l -2.5,1.3125 C 19.8204,22.666165 18.317944,23 18,23 l -5,0 c -1.656854,0 -3,-1.343146 -3,-3 0,-1.656854 1.343146,-3 3,-3 l 0.5,0 C 16.537566,17 19,14.537566 19,11.5 19,8.4624339 16.537566,6 13.5,6 L 7,6 z"
     id="path3791" />
  <path
     style="fill:#ffffff;fill-opacity:1;stroke:none"
     d="M 6,2.4375 1.90625,6.5 6,10.5625 6,2.4375 z"
     id="path3981" />
</svg>
