<?xml version="1.0" encoding="UTF-8" standalone="no"?>
<svg
   xmlns:dc="http://purl.org/dc/elements/1.1/"
   xmlns:cc="http://creativecommons.org/ns#"
   xmlns:rdf="http://www.w3.org/1999/02/22-rdf-syntax-ns#"
   xmlns:svg="http://www.w3.org/2000/svg"
   xmlns="http://www.w3.org/2000/svg"
   xmlns:sodipodi="http://sodipodi.sourceforge.net/DTD/sodipodi-0.dtd"
   xmlns:inkscape="http://www.inkscape.org/namespaces/inkscape"
   version="1.0"
   width="15"
   height="34"
   id="svg2"
   inkscape:version="0.47 r22583"
   sodipodi:docname="02-09-004-02-04-11.svg">
  <defs
     id="defs16">
    <inkscape:perspective
       sodipodi:type="inkscape:persp3d"
       inkscape:vp_x="0 : 23 : 1"
       inkscape:vp_y="0 : 1000 : 0"
       inkscape:vp_z="36 : 23 : 1"
       inkscape:persp3d-origin="18 : 15.333333 : 1"
       id="perspective18" />
  </defs>
  <sodipodi:namedview
     pagecolor="#ffffff"
     bordercolor="#666666"
     borderopacity="1"
     objecttolerance="10"
     gridtolerance="10"
     guidetolerance="10"
     inkscape:pageopacity="0"
     inkscape:pageshadow="2"
     inkscape:window-width="964"
     inkscape:window-height="721"
     id="namedview14"
     showgrid="true"
     inkscape:zoom="13.911765"
     inkscape:cx="7.5"
     inkscape:cy="17"
     inkscape:window-x="365"
     inkscape:window-y="0"
     inkscape:window-maximized="0"
     inkscape:current-layer="svg2"
     showborder="true">
    <inkscape:grid
       type="xygrid"
       id="grid2824"
       empspacing="5"
       visible="true"
       enabled="true"
       snapvisiblegridlinesonly="true" />
  </sodipodi:namedview>
  <metadata
     id="metadata4">
Valerie Sutton's pixel definition of the
ISWA 2010 symbol ID 04-01-003-01-01-01
transformed by Stephen E Slevinski Jr
using line and fill polygon tracing
<rdf:RDF>
  <cc:Work
     rdf:about="">
    <dc:format>image/svg+xml</dc:format>
    <dc:type
       rdf:resource="http://purl.org/dc/dcmitype/StillImage" />
    <dc:title></dc:title>
  </cc:Work>
</rdf:RDF>
</metadata>
  <path
     style="fill:#000000;fill-opacity:1;stroke:none"
     d="M 5.5,0 C 2.462434,0 0,2.2385763 0,5 L 0,6.5 C 0,10.089851 2.910149,13 6.5,13 l 3.5,0 c 1.656854,0 3,1.343146 3,3 0,1.656854 -1.343146,3 -3,3 L 7.5,19 C 3.357864,19 0,22.357864 0,26.5 0,30.642136 3.357864,34 7.5,34 l 3.5,0 0,-4 -5.5,0 C 3.567003,30 2,28.432997 2,26.5 2,24.567003 3.567003,23 5.5,23 L 8,23 c 3.865993,0 7,-3.134007 7,-7 C 15,12.134007 11.865993,9 8,9 L 5.5,9 C 3.567003,9 2,7.4329966 2,5.5 2,3.5670034 3.567003,2 5.5,2 L 14,2 14,0 6.5,0 5.5,0 z"
     id="path3311" />
</svg>
