<?xml version="1.0" encoding="UTF-8" standalone="no"?>
<svg
   xmlns:dc="http://purl.org/dc/elements/1.1/"
   xmlns:cc="http://creativecommons.org/ns#"
   xmlns:rdf="http://www.w3.org/1999/02/22-rdf-syntax-ns#"
   xmlns:svg="http://www.w3.org/2000/svg"
   xmlns="http://www.w3.org/2000/svg"
   xmlns:sodipodi="http://sodipodi.sourceforge.net/DTD/sodipodi-0.dtd"
   xmlns:inkscape="http://www.inkscape.org/namespaces/inkscape"
   version="1.0"
   width="16"
   height="40"
   id="svg2"
   inkscape:version="0.47 r22583"
   sodipodi:docname="02-09-004-02-03-07.svg">
  <defs
     id="defs16">
    <inkscape:perspective
       sodipodi:type="inkscape:persp3d"
       inkscape:vp_x="0 : 23 : 1"
       inkscape:vp_y="0 : 1000 : 0"
       inkscape:vp_z="36 : 23 : 1"
       inkscape:persp3d-origin="18 : 15.333333 : 1"
       id="perspective18" />
  </defs>
  <sodipodi:namedview
     pagecolor="#ffffff"
     bordercolor="#666666"
     borderopacity="1"
     objecttolerance="10"
     gridtolerance="10"
     guidetolerance="10"
     inkscape:pageopacity="0"
     inkscape:pageshadow="2"
     inkscape:window-width="964"
     inkscape:window-height="721"
     id="namedview14"
     showgrid="true"
     inkscape:zoom="11.825"
     inkscape:cx="8"
     inkscape:cy="20"
     inkscape:window-x="365"
     inkscape:window-y="0"
     inkscape:window-maximized="0"
     inkscape:current-layer="svg2"
     showborder="true">
    <inkscape:grid
       type="xygrid"
       id="grid2824"
       empspacing="5"
       visible="true"
       enabled="true"
       snapvisiblegridlinesonly="true" />
  </sodipodi:namedview>
  <metadata
     id="metadata4">
Valerie Sutton's pixel definition of the
ISWA 2010 symbol ID 04-01-003-01-01-01
transformed by Stephen E Slevinski Jr
using line and fill polygon tracing
<rdf:RDF>
  <cc:Work
     rdf:about="">
    <dc:format>image/svg+xml</dc:format>
    <dc:type
       rdf:resource="http://purl.org/dc/dcmitype/StillImage" />
    <dc:title></dc:title>
  </cc:Work>
</rdf:RDF>
</metadata>
  <path
     style="fill:#000000;fill-opacity:1;stroke:none"
     d="M 7 0 L 0 7 L 7 14 L 7 0 z M 6 2.4375 L 6 11.5625 L 1.40625 7 L 6 2.4375 z "
     id="path2814" />
  <path
     style="fill:#000000;fill-opacity:1;stroke:none"
     d="M 7 6 L 7 8 L 10.5 8 C 12.432997 8 14 9.5670034 14 11.5 C 14 13.432997 12.432997 15 10.5 15 L 8 15 C 4.134007 15 1 18.134007 1 22 C 1 25.865993 4.134007 29 8 29 L 10.5 29 C 12.432997 29 14 30.567003 14 32.5 C 14 34.432997 12.432997 36 10.5 36 L 3 36 L 3 40 L 8.5 40 C 12.642136 40 16 36.642136 16 32.5 C 16 28.357864 12.642136 25 8.5 25 L 6 25 C 4.343146 25 3 23.656854 3 22 C 3 20.343146 4.343146 19 6 19 L 9.5 19 C 13.089851 19 16 16.089851 16 12.5 L 16 11 C 16 8.2385763 13.537566 6 10.5 6 L 9.5 6 L 7 6 z "
     id="path3311" />
  <path
     style="fill:#ffffff;fill-opacity:1;stroke:none"
     d="M 6 2.4375 L 1.40625 7 L 6 11.5625 L 6 2.4375 z "
     id="path3692" />
</svg>
