<?xml version="1.0" encoding="UTF-8" standalone="no"?>
<svg
   xmlns:dc="http://purl.org/dc/elements/1.1/"
   xmlns:cc="http://creativecommons.org/ns#"
   xmlns:rdf="http://www.w3.org/1999/02/22-rdf-syntax-ns#"
   xmlns:svg="http://www.w3.org/2000/svg"
   xmlns="http://www.w3.org/2000/svg"
   xmlns:sodipodi="http://sodipodi.sourceforge.net/DTD/sodipodi-0.dtd"
   xmlns:inkscape="http://www.inkscape.org/namespaces/inkscape"
   version="1.0"
   width="26"
   height="34"
   id="svg2"
   inkscape:version="0.47 r22583"
   sodipodi:docname="02-09-004-02-03-14.svg">
  <defs
     id="defs16">
    <inkscape:perspective
       sodipodi:type="inkscape:persp3d"
       inkscape:vp_x="0 : 23 : 1"
       inkscape:vp_y="0 : 1000 : 0"
       inkscape:vp_z="36 : 23 : 1"
       inkscape:persp3d-origin="18 : 15.333333 : 1"
       id="perspective18" />
  </defs>
  <sodipodi:namedview
     pagecolor="#ffffff"
     bordercolor="#666666"
     borderopacity="1"
     objecttolerance="10"
     gridtolerance="10"
     guidetolerance="10"
     inkscape:pageopacity="0"
     inkscape:pageshadow="2"
     inkscape:window-width="964"
     inkscape:window-height="721"
     id="namedview14"
     showgrid="true"
     inkscape:zoom="13.911765"
     inkscape:cx="13"
     inkscape:cy="17"
     inkscape:window-x="365"
     inkscape:window-y="0"
     inkscape:window-maximized="0"
     inkscape:current-layer="svg2"
     showborder="true"
     inkscape:snap-nodes="true">
    <inkscape:grid
       type="xygrid"
       id="grid2824"
       empspacing="5"
       visible="true"
       enabled="true"
       snapvisiblegridlinesonly="true" />
  </sodipodi:namedview>
  <metadata
     id="metadata4">
Valerie Sutton's pixel definition of the
ISWA 2010 symbol ID 04-01-003-01-01-01
transformed by Stephen E Slevinski Jr
using line and fill polygon tracing
<rdf:RDF>
  <cc:Work
     rdf:about="">
    <dc:format>image/svg+xml</dc:format>
    <dc:type
       rdf:resource="http://purl.org/dc/dcmitype/StillImage" />
    <dc:title></dc:title>
  </cc:Work>
</rdf:RDF>
</metadata>
  <path
     style="fill:#000000;fill-opacity:1;stroke:none"
     d="M 11,0 11,13 17.5,6.5 11,0 z"
     id="path2814" />
  <path
     style="fill:#000000;fill-opacity:1;stroke:none"
     d="M 6 6 C 2.6862915 6 0 8.6862915 0 12 C 0 15.313708 2.6862915 18 6 18 L 14 18 C 15.104569 18 16 18.895431 16 20 C 16 20.552284 15.768179 21.044321 15.40625 21.40625 L 12.125 24.21875 C 11.429801 24.93836 11 25.920406 11 27 C 11 30.865993 14.134007 34 18 34 L 26 34 L 26 30 L 16 30 C 14.343146 30 13 28.656854 13 27 C 13 26.463903 13.219108 25.984106 13.5625 25.625 L 16.84375 22.84375 C 17.567608 22.119892 18 21.10457 18 20 C 18 17.238576 15.761424 15 13 15 L 6 15 C 3.790861 15 2 13.209139 2 11 C 2 8.790861 3.790861 7 6 7 L 11 7 L 11 6 L 6 6 z "
     id="path4267" />
</svg>
