<?xml version="1.0" encoding="UTF-8" standalone="no"?>
<svg
   xmlns:dc="http://purl.org/dc/elements/1.1/"
   xmlns:cc="http://creativecommons.org/ns#"
   xmlns:rdf="http://www.w3.org/1999/02/22-rdf-syntax-ns#"
   xmlns:svg="http://www.w3.org/2000/svg"
   xmlns="http://www.w3.org/2000/svg"
   xmlns:sodipodi="http://sodipodi.sourceforge.net/DTD/sodipodi-0.dtd"
   xmlns:inkscape="http://www.inkscape.org/namespaces/inkscape"
   version="1.0"
   width="30"
   height="24"
   id="svg2"
   inkscape:version="0.47 r22583"
   sodipodi:docname="02-08-010-03-02-08.svg">
  <defs
     id="defs16">
    <inkscape:perspective
       sodipodi:type="inkscape:persp3d"
       inkscape:vp_x="0 : 23 : 1"
       inkscape:vp_y="0 : 1000 : 0"
       inkscape:vp_z="36 : 23 : 1"
       inkscape:persp3d-origin="18 : 15.333333 : 1"
       id="perspective18" />
  </defs>
  <sodipodi:namedview
     pagecolor="#ffffff"
     bordercolor="#666666"
     borderopacity="1"
     objecttolerance="10"
     gridtolerance="10"
     guidetolerance="10"
     inkscape:pageopacity="0"
     inkscape:pageshadow="2"
     inkscape:window-width="964"
     inkscape:window-height="721"
     id="namedview14"
     showgrid="true"
     inkscape:zoom="16.010846"
     inkscape:cx="15.004944"
     inkscape:cy="12.003955"
     inkscape:window-x="365"
     inkscape:window-y="0"
     inkscape:window-maximized="0"
     inkscape:current-layer="svg2"
     showborder="true">
    <inkscape:grid
       type="xygrid"
       id="grid2824"
       empspacing="5"
       visible="true"
       enabled="true"
       snapvisiblegridlinesonly="true" />
  </sodipodi:namedview>
  <metadata
     id="metadata4">
Valerie Sutton's pixel definition of the
ISWA 2010 symbol ID 04-01-003-01-01-01
transformed by Stephen E Slevinski Jr
using line and fill polygon tracing
<rdf:RDF>
  <cc:Work
     rdf:about="">
    <dc:format>image/svg+xml</dc:format>
    <dc:type
       rdf:resource="http://purl.org/dc/dcmitype/StillImage" />
    <dc:title></dc:title>
  </cc:Work>
</rdf:RDF>
</metadata>
  <path
     style="fill:#000000;fill-opacity:1;stroke:none"
     d="M 0,0 0,9.8994953 9.8994949,0 0,0 z M 1.016466,1.016466 7.490912,0.994369 0.99436903,7.4909124 1.016469,1.0164661 z"
     id="path2839" />
  <path
     style="fill:#000000;fill-opacity:1;stroke:none"
     d="M 4.24264,5.6568543 20.506096,21.92031 c 1.562098,1.562097 4.094758,1.562097 5.656855,0 l 1.414213,-1.414214 c 2.73367,-2.73367 3.050252,-6.849242 0.707107,-9.192388 l -4.949747,4.949748 c 1.562097,1.562097 2.195261,3.461592 1.414213,4.24264 -0.781049,0.781049 -2.047379,0.781049 -2.828427,0 l -3.270369,-3.270369 c 0.677792,-0.122282 1.332252,-0.448368 1.856155,-0.972271 1.366836,-1.366836 1.366836,-3.582913 0,-4.949748 -1.366835,-1.3668347 -3.582912,-1.3668347 -4.949747,0 -0.523903,0.523903 -0.849989,1.178364 -0.972272,1.856155 L 12.28598,10.871766 c 0.677792,-0.122282 1.332252,-0.448368 1.856155,-0.9722707 1.366836,-1.366836 1.366836,-3.582913 0,-4.949748 -1.366835,-1.366835 -3.582912,-1.366835 -4.949747,0 -0.523903,0.523903 -0.849989,1.178364 -0.972272,1.856155 L 5.656854,4.2426403 4.24264,5.6568543 z m 6.010408,0.353553 c 0.781048,-0.781048 2.047379,-0.781048 2.828427,0 0.781048,0.781049 0.781048,2.047379 0,2.828427 -0.781049,0.781049 -2.047379,0.781049 -2.828427,0 -0.781048,-0.781048 -0.781049,-2.047378 0,-2.828427 z m 6.363961,6.3639607 c 0.781048,-0.781048 2.047379,-0.781048 2.828427,0 0.781049,0.781049 0.781049,2.047379 0,2.828427 -0.781049,0.781049 -2.047379,0.781049 -2.828427,0 -0.781048,-0.781048 -0.781049,-2.047378 0,-2.828427 z"
     id="path2816" />
  <path
     style="fill:#ffffff;fill-opacity:1;stroke:none"
     d="m 1.016466,1.016466 -0.0221,6.4744463 L 7.490909,0.9943689 1.016463,1.0164659 z"
     id="path3326" />
</svg>
