<?xml version="1.0" encoding="UTF-8" standalone="no"?>
<svg
   xmlns:dc="http://purl.org/dc/elements/1.1/"
   xmlns:cc="http://creativecommons.org/ns#"
   xmlns:rdf="http://www.w3.org/1999/02/22-rdf-syntax-ns#"
   xmlns:svg="http://www.w3.org/2000/svg"
   xmlns="http://www.w3.org/2000/svg"
   xmlns:sodipodi="http://sodipodi.sourceforge.net/DTD/sodipodi-0.dtd"
   xmlns:inkscape="http://www.inkscape.org/namespaces/inkscape"
   version="1.0"
   width="24"
   height="21"
   id="svg2"
   inkscape:version="0.47 r22583"
   sodipodi:docname="02-08-010-03-02-03.svg">
  <defs
     id="defs16">
    <inkscape:perspective
       sodipodi:type="inkscape:persp3d"
       inkscape:vp_x="0 : 23 : 1"
       inkscape:vp_y="0 : 1000 : 0"
       inkscape:vp_z="36 : 23 : 1"
       inkscape:persp3d-origin="18 : 15.333333 : 1"
       id="perspective18" />
  </defs>
  <sodipodi:namedview
     pagecolor="#ffffff"
     bordercolor="#666666"
     borderopacity="1"
     objecttolerance="10"
     gridtolerance="10"
     guidetolerance="10"
     inkscape:pageopacity="0"
     inkscape:pageshadow="2"
     inkscape:window-width="964"
     inkscape:window-height="721"
     id="namedview14"
     showgrid="true"
     inkscape:zoom="17.062634"
     inkscape:cx="11.997827"
     inkscape:cy="10.498098"
     inkscape:window-x="365"
     inkscape:window-y="0"
     inkscape:window-maximized="0"
     inkscape:current-layer="svg2"
     showborder="true">
    <inkscape:grid
       type="xygrid"
       id="grid2824"
       empspacing="5"
       visible="true"
       enabled="true"
       snapvisiblegridlinesonly="true" />
  </sodipodi:namedview>
  <metadata
     id="metadata4">
Valerie Sutton's pixel definition of the
ISWA 2010 symbol ID 04-01-003-01-01-01
transformed by Stephen E Slevinski Jr
using line and fill polygon tracing
<rdf:RDF>
  <cc:Work
     rdf:about="">
    <dc:format>image/svg+xml</dc:format>
    <dc:type
       rdf:resource="http://purl.org/dc/dcmitype/StillImage" />
    <dc:title></dc:title>
  </cc:Work>
</rdf:RDF>
</metadata>
  <path
     style="fill:#000000;fill-opacity:1;stroke:none"
     d="M 0.24264073,2.656854 16.506097,18.92031 c 1.562097,1.562097 4.094757,1.562097 5.656854,0 2.343145,-2.343146 2.343145,-6.142136 0,-8.485282 l -1.414214,1.414214 c 1.562097,1.562097 1.562097,4.094757 0,5.656854 -0.781048,0.781049 -2.047379,0.781048 -2.828427,0 l -3.270369,-3.270369 c 0.677792,-0.122283 1.332253,-0.448368 1.856156,-0.972272 1.366835,-1.366835 1.366835,-3.582912 0,-4.949747 -1.366836,-1.366835 -3.582913,-1.366835 -4.949748,0 -0.523903,0.523903 -0.849989,1.178364 -0.972272,1.856155 L 8.2859804,7.871767 C 8.9637721,7.749484 9.6182326,7.423398 10.142136,6.899494 c 1.366835,-1.366835 1.366835,-3.582912 0,-4.9497465 -1.3668356,-1.3668353 -3.5829125,-1.3668353 -4.9497478,0 C 4.6684851,2.473651 4.3423994,3.128111 4.2201164,3.805902 L 1.6568543,1.2426407 0.24264073,2.656854 z M 6.2530484,3.010407 c 0.7810482,-0.781048 2.0473789,-0.781048 2.8284271,0 0.7810482,0.781048 0.7810482,2.047379 0,2.828427 -0.7810486,0.781049 -2.0473789,0.781048 -2.8284271,0 -0.7810483,-0.781048 -0.7810486,-2.047378 0,-2.828427 z m 6.3639606,6.363961 c 0.781049,-0.781048 2.047379,-0.781048 2.828427,0 0.781049,0.781048 0.781049,2.047379 0,2.828427 -0.781048,0.781049 -2.047378,0.781049 -2.828427,0 -0.781048,-0.781048 -0.781048,-2.047378 0,-2.828427 z"
     id="path2816" />
</svg>
