<?xml version="1.0" encoding="UTF-8" standalone="no"?>
<svg
   xmlns:dc="http://purl.org/dc/elements/1.1/"
   xmlns:cc="http://creativecommons.org/ns#"
   xmlns:rdf="http://www.w3.org/1999/02/22-rdf-syntax-ns#"
   xmlns:svg="http://www.w3.org/2000/svg"
   xmlns="http://www.w3.org/2000/svg"
   xmlns:sodipodi="http://sodipodi.sourceforge.net/DTD/sodipodi-0.dtd"
   xmlns:inkscape="http://www.inkscape.org/namespaces/inkscape"
   version="1.0"
   width="24"
   height="21"
   id="svg2"
   inkscape:version="0.47 r22583"
   sodipodi:docname="02-08-010-03-04-03.svg">
  <defs
     id="defs16">
    <inkscape:perspective
       sodipodi:type="inkscape:persp3d"
       inkscape:vp_x="0 : 23 : 1"
       inkscape:vp_y="0 : 1000 : 0"
       inkscape:vp_z="36 : 23 : 1"
       inkscape:persp3d-origin="18 : 15.333333 : 1"
       id="perspective18" />
  </defs>
  <sodipodi:namedview
     pagecolor="#ffffff"
     bordercolor="#666666"
     borderopacity="1"
     objecttolerance="10"
     gridtolerance="10"
     guidetolerance="10"
     inkscape:pageopacity="0"
     inkscape:pageshadow="2"
     inkscape:window-width="964"
     inkscape:window-height="721"
     id="namedview14"
     showgrid="true"
     inkscape:zoom="17.062634"
     inkscape:cx="11.997827"
     inkscape:cy="10.498098"
     inkscape:window-x="365"
     inkscape:window-y="0"
     inkscape:window-maximized="0"
     inkscape:current-layer="svg2"
     showborder="true">
    <inkscape:grid
       type="xygrid"
       id="grid2824"
       empspacing="5"
       visible="true"
       enabled="true"
       snapvisiblegridlinesonly="true" />
  </sodipodi:namedview>
  <metadata
     id="metadata4">
Valerie Sutton's pixel definition of the
ISWA 2010 symbol ID 04-01-003-01-01-01
transformed by Stephen E Slevinski Jr
using line and fill polygon tracing
<rdf:RDF>
  <cc:Work
     rdf:about="">
    <dc:format>image/svg+xml</dc:format>
    <dc:type
       rdf:resource="http://purl.org/dc/dcmitype/StillImage" />
    <dc:title></dc:title>
  </cc:Work>
</rdf:RDF>
</metadata>
  <path
     style="fill:#000000;fill-opacity:1;stroke:none"
     d="M 23.757359,2.656854 7.4939027,18.92031 c -1.562097,1.562097 -4.094757,1.562097 -5.656854,0 -2.343145,-2.343146 -2.343145,-6.142136 0,-8.485282 l 1.414214,1.414214 c -1.562097,1.562097 -1.562097,4.094757 0,5.656854 0.781048,0.781049 2.047379,0.781048 2.8284271,0 l 3.270369,-3.270369 c -0.677792,-0.122283 -1.332253,-0.448368 -1.856156,-0.972272 -1.3668351,-1.366835 -1.3668351,-3.582912 0,-4.949747 1.3668359,-1.366835 3.5829132,-1.366835 4.9497482,0 0.523903,0.523903 0.849989,1.178364 0.972272,1.856155 L 15.714019,7.871767 C 15.036228,7.749484 14.381767,7.423398 13.857864,6.899494 c -1.366835,-1.366835 -1.366835,-3.582912 0,-4.9497465 1.366835,-1.3668353 3.582912,-1.3668353 4.949748,0 0.523903,0.5239035 0.849988,1.1783635 0.972271,1.8561545 l 2.563262,-2.5632613 1.414214,1.4142133 z m -6.010408,0.353553 c -0.781048,-0.781048 -2.047379,-0.781048 -2.828427,0 -0.781048,0.781048 -0.781048,2.047379 0,2.828427 0.781049,0.781049 2.047379,0.781048 2.828427,0 0.781049,-0.781048 0.781049,-2.047378 0,-2.828427 z m -6.36396,6.363961 c -0.781049,-0.781048 -2.0473793,-0.781048 -2.8284273,0 -0.781049,0.781048 -0.781049,2.047379 0,2.828427 0.781048,0.781049 2.0473783,0.781049 2.8284273,0 0.781048,-0.781048 0.781048,-2.047378 0,-2.828427 z"
     id="path2816" />
</svg>
