<?xml version="1.0" encoding="UTF-8" standalone="no"?>
<svg
   xmlns:dc="http://purl.org/dc/elements/1.1/"
   xmlns:cc="http://creativecommons.org/ns#"
   xmlns:rdf="http://www.w3.org/1999/02/22-rdf-syntax-ns#"
   xmlns:svg="http://www.w3.org/2000/svg"
   xmlns="http://www.w3.org/2000/svg"
   xmlns:sodipodi="http://sodipodi.sourceforge.net/DTD/sodipodi-0.dtd"
   xmlns:inkscape="http://www.inkscape.org/namespaces/inkscape"
   version="1.0"
   width="34"
   height="27"
   id="svg2"
   inkscape:version="0.47 r22583"
   sodipodi:docname="02-08-010-03-02-04.svg">
  <defs
     id="defs16">
    <inkscape:perspective
       sodipodi:type="inkscape:persp3d"
       inkscape:vp_x="0 : 23 : 1"
       inkscape:vp_y="0 : 1000 : 0"
       inkscape:vp_z="36 : 23 : 1"
       inkscape:persp3d-origin="18 : 15.333333 : 1"
       id="perspective18" />
  </defs>
  <sodipodi:namedview
     pagecolor="#ffffff"
     bordercolor="#666666"
     borderopacity="1"
     objecttolerance="10"
     gridtolerance="10"
     guidetolerance="10"
     inkscape:pageopacity="0"
     inkscape:pageshadow="2"
     inkscape:window-width="964"
     inkscape:window-height="721"
     id="namedview14"
     showgrid="true"
     inkscape:zoom="16.345356"
     inkscape:cx="17.002875"
     inkscape:cy="13.502283"
     inkscape:window-x="365"
     inkscape:window-y="0"
     inkscape:window-maximized="0"
     inkscape:current-layer="svg2"
     showborder="true">
    <inkscape:grid
       type="xygrid"
       id="grid2824"
       empspacing="5"
       visible="true"
       enabled="true"
       snapvisiblegridlinesonly="true" />
  </sodipodi:namedview>
  <metadata
     id="metadata4">
Valerie Sutton's pixel definition of the
ISWA 2010 symbol ID 04-01-003-01-01-01
transformed by Stephen E Slevinski Jr
using line and fill polygon tracing
<rdf:RDF>
  <cc:Work
     rdf:about="">
    <dc:format>image/svg+xml</dc:format>
    <dc:type
       rdf:resource="http://purl.org/dc/dcmitype/StillImage" />
    <dc:title></dc:title>
  </cc:Work>
</rdf:RDF>
</metadata>
  <path
     style="fill:#000000;fill-opacity:1;stroke:none"
     d="M 32.04163,0.686292 25.235728,7.492194 C 25.113445,6.814402 24.787359,6.159942 24.263456,5.636039 c -1.366836,-1.366835 -3.582912,-1.366835 -4.949748,0 -1.366835,1.366835 -1.366835,3.582912 0,4.949748 0.523903,0.523903 1.178364,0.849989 1.856156,0.972271 l -2.298097,2.298097 C 18.749484,13.178364 18.423398,12.523903 17.899495,12 c -1.366836,-1.366835 -3.582912,-1.366835 -4.949748,0 -1.366835,1.366835 -1.366835,3.582912 0,4.949748 0.523904,0.523903 1.178364,0.849989 1.856156,0.972271 l -6.0987963,6.098796 c -1.1715727,1.171573 -3.071068,1.171573 -4.2426407,0 C 2.5118444,22.068194 2.1952621,19.218952 3.7573593,17.656854 L 2.3431457,16.242641 C 3e-7,18.585786 0.3165825,22.701359 3.0502525,25.435029 c 1.9526216,1.952622 5.1184462,1.952622 7.0710675,0 L 33.455844,2.100505 32.04163,0.686292 z m -8.838834,6.010407 c 0.781048,0.781048 0.781048,2.047379 0,2.828427 -0.781049,0.781049 -2.047379,0.781049 -2.828428,0 -0.781048,-0.781048 -0.781048,-2.047379 0,-2.828427 0.781049,-0.781048 2.047379,-0.781048 2.828428,0 z m -6.363961,6.363961 c 0.781048,0.781049 0.781048,2.047379 0,2.828427 -0.781049,0.781049 -2.047379,0.781049 -2.828427,0 -0.781049,-0.781048 -0.781049,-2.047378 0,-2.828427 0.781048,-0.781048 2.047378,-0.781048 2.828427,0 z"
     id="path3173" />
</svg>
