<?xml version="1.0" encoding="UTF-8" standalone="no"?>
<svg
   xmlns:dc="http://purl.org/dc/elements/1.1/"
   xmlns:cc="http://creativecommons.org/ns#"
   xmlns:rdf="http://www.w3.org/1999/02/22-rdf-syntax-ns#"
   xmlns:svg="http://www.w3.org/2000/svg"
   xmlns="http://www.w3.org/2000/svg"
   xmlns:sodipodi="http://sodipodi.sourceforge.net/DTD/sodipodi-0.dtd"
   xmlns:inkscape="http://www.inkscape.org/namespaces/inkscape"
   version="1.0"
   width="23"
   height="13"
   id="svg2"
   inkscape:version="0.47 r22583"
   sodipodi:docname="04-05-005-02-06-01.svg">
  <defs
     id="defs14">
    <inkscape:perspective
       sodipodi:type="inkscape:persp3d"
       inkscape:vp_x="0 : 17.5 : 1"
       inkscape:vp_y="0 : 1000 : 0"
       inkscape:vp_z="36 : 17.5 : 1"
       inkscape:persp3d-origin="18 : 11.666667 : 1"
       id="perspective16" />
  </defs>
  <sodipodi:namedview
     pagecolor="#ffffff"
     bordercolor="#666666"
     borderopacity="1"
     objecttolerance="10"
     gridtolerance="10"
     guidetolerance="10"
     inkscape:pageopacity="0"
     inkscape:pageshadow="2"
     inkscape:window-width="993"
     inkscape:window-height="789"
     id="namedview12"
     showgrid="true"
     inkscape:zoom="15.487127"
     inkscape:cx="10.251629"
     inkscape:cy="7.1688392"
     inkscape:window-x="209"
     inkscape:window-y="0"
     inkscape:window-maximized="0"
     inkscape:current-layer="svg2">
    <inkscape:grid
       type="xygrid"
       id="grid2822" />
  </sodipodi:namedview>
  <metadata
     id="metadata4">
Valerie Sutton's pixel definition of the
ISWA 2010 symbol ID 04-03-001-01-01-01
transformed by Stephen E Slevinski Jr
using line and fill polygon tracing
<rdf:RDF>
  <cc:Work
     rdf:about="">
    <dc:format>image/svg+xml</dc:format>
    <dc:type
       rdf:resource="http://purl.org/dc/dcmitype/StillImage" />
    <dc:title></dc:title>
  </cc:Work>
</rdf:RDF>
</metadata>
  <path
     style="fill:#000000;fill-opacity:1;stroke:none"
     d="M 2.9375,0.4375 0.09375,3.28125 0.8125,4 2.96875,1.875 5.09375,4 7.25,1.875 9.375,4 11.53125,1.875 13.65625,4 15.8125,1.875 17.9375,4 20.0625,1.875 22.21875,4 22.9375,3.28125 20.09375,0.4375 17.9375,2.5625 15.78125,0.4375 13.65625,2.5625 11.5,0.4375 9.375,2.5625 7.21875,0.4375 5.09375,2.5625 2.9375,0.4375 z"
     id="rect3469" />
  <path
     style="fill:#000000;fill-opacity:1;stroke:none"
     d="M 8,5 C 5.784,5 4,6.784 4,9 c 0,2.216 1.784,4 4,4 l 7,0 c 2.216,0 4,-1.784 4,-4 C 19,6.784 17.216,5 15,5 L 8,5 z m 0,2 0,4 C 6.892,11 6,10.108 6,9 6,7.892 6.892,7 8,7 z m 1,0 2,0 0,4 -2,0 0,-4 z m 3,0 2,0 0,4 -2,0 0,-4 z m 3,0 c 1.108,0 2,0.892 2,2 0,1.108 -0.892,2 -2,2 l 0,-4 z"
     id="rect3549" />
</svg>
