<?xml version="1.0" encoding="UTF-8" standalone="no"?>
<svg
   xmlns:dc="http://purl.org/dc/elements/1.1/"
   xmlns:cc="http://creativecommons.org/ns#"
   xmlns:rdf="http://www.w3.org/1999/02/22-rdf-syntax-ns#"
   xmlns:svg="http://www.w3.org/2000/svg"
   xmlns="http://www.w3.org/2000/svg"
   xmlns:sodipodi="http://sodipodi.sourceforge.net/DTD/sodipodi-0.dtd"
   xmlns:inkscape="http://www.inkscape.org/namespaces/inkscape"
   version="1.0"
   width="35"
   height="38"
   id="svg2"
   inkscape:version="0.47 r22583"
   sodipodi:docname="04-01-008-01-01-03.svg">
  <defs
     id="defs24">
    <inkscape:perspective
       sodipodi:type="inkscape:persp3d"
       inkscape:vp_x="0 : 5 : 1"
       inkscape:vp_y="0 : 1000 : 0"
       inkscape:vp_z="22 : 5 : 1"
       inkscape:persp3d-origin="11 : 3.3333333 : 1"
       id="perspective26" />
  </defs>
  <sodipodi:namedview
     pagecolor="#ffffff"
     bordercolor="#666666"
     borderopacity="1"
     objecttolerance="10"
     gridtolerance="10"
     guidetolerance="10"
     inkscape:pageopacity="0"
     inkscape:pageshadow="2"
     inkscape:window-width="964"
     inkscape:window-height="789"
     id="namedview22"
     showgrid="true"
     inkscape:zoom="13.55"
     inkscape:cx="16.141388"
     inkscape:cy="19"
     inkscape:window-x="282"
     inkscape:window-y="0"
     inkscape:window-maximized="0"
     inkscape:current-layer="svg2">
    <inkscape:grid
       type="xygrid"
       id="grid2832" />
  </sodipodi:namedview>
  <metadata
     id="metadata4">
Valerie Sutton's pixel definition of the
ISWA 2010 symbol ID 04-01-008-01-02-01
transformed by Stephen E Slevinski Jr
using line and fill polygon tracing
<rdf:RDF>
  <cc:Work
     rdf:about="">
    <dc:format>image/svg+xml</dc:format>
    <dc:type
       rdf:resource="http://purl.org/dc/dcmitype/StillImage" />
    <dc:title />
  </cc:Work>
</rdf:RDF>
</metadata>
  <path
     style="fill:#000000"
     d="M 18.10975,5 17.391,5.71875 19.17225,7.5 17.391,9.28125 18.10975,10 l 2.5,-2.5 -2.5,-2.5 z"
     id="path14" />
  <path
     style="fill:#000000;fill-opacity:1;stroke:none"
     d="M 17 0.03125 C 16.315861 0.042995 15.648001 0.068469 15 0.125 L 15 1.09375 C 15.645593 1.047033 16.307202 1.040956 17 1.03125 L 17 0.03125 z M 18 0.03125 L 18 1.03125 C 18.692798 1.04096 19.354407 1.047033 20 1.09375 L 20 0.125 C 19.351999 0.0684687 18.684139 0.0429951 18 0.03125 z M 14 0.21875 C 12.933121 0.3531547 11.905449 0.5693749 11 0.8125 L 11 1.6875 C 11.86279 1.4734002 12.879926 1.3050872 14 1.1875 L 14 0.21875 z M 21 0.21875 L 21 1.1875 C 22.120074 1.3050872 23.13721 1.4734002 24 1.6875 L 24 0.8125 C 23.094551 0.5693749 22.066879 0.3531547 21 0.21875 z M 10 1.09375 C 7.5560065 1.9189523 6 3.1377326 6 4.5 C 6 5.6649757 7.1438202 6.7321078 9 7.53125 L 9 4.59375 C 8.3816168 4.2619508 8 3.8944891 8 3.5 C 8 2.9261102 8.7644634 2.390709 10 1.96875 L 10 1.09375 z M 25 1.09375 L 25 1.96875 C 26.235537 2.390709 27 2.9261102 27 3.5 C 27 3.8944891 26.618383 4.2619508 26 4.59375 L 26 7.53125 C 27.85618 6.7321078 29 5.6649757 29 4.5 C 29 3.1377326 27.443993 1.9189523 25 1.09375 z M 10 5.03125 L 10 7.90625 C 11.15222 8.2952916 12.516041 8.5671757 14 8.75 L 14 5.8125 C 12.410348 5.6474556 11.030231 5.3830932 10 5.03125 z M 25 5.03125 C 23.969769 5.3830932 22.589652 5.6474556 21 5.8125 L 21 8.75 C 22.483959 8.5671757 23.84778 8.2952916 25 7.90625 L 25 5.03125 z "
     id="path3037" />
  <path
     id="path2968"
     d="M 15.10975,5 14.391,5.71875 16.17225,7.5 14.391,9.28125 15.10975,10 l 2.5,-2.5 -2.5,-2.5 z"
     style="fill:#000000" />
  <path
     style="fill:#000000;fill-opacity:1;stroke:none"
     d="M 5.125 8.125 C 1.9581229 11.291877 0 15.667509 0 20.5 C 0 30.164983 7.8350169 38 17.5 38 C 27.164983 38 35 30.164983 35 20.5 C 35 15.667509 33.041877 11.291877 29.875 8.125 L 28.8125 9.1875 C 31.707931 12.082931 33.5 16.081722 33.5 20.5 C 33.5 29.336556 26.336556 36.5 17.5 36.5 C 8.663444 36.5 1.5 29.336556 1.5 20.5 C 1.5 16.081722 3.2920695 12.082931 6.1875 9.1875 L 5.125 8.125 z "
     id="path3092" />
</svg>
