<?xml version="1.0" encoding="UTF-8" standalone="no"?>
<svg
   xmlns:dc="http://purl.org/dc/elements/1.1/"
   xmlns:cc="http://creativecommons.org/ns#"
   xmlns:rdf="http://www.w3.org/1999/02/22-rdf-syntax-ns#"
   xmlns:svg="http://www.w3.org/2000/svg"
   xmlns="http://www.w3.org/2000/svg"
   xmlns:sodipodi="http://sodipodi.sourceforge.net/DTD/sodipodi-0.dtd"
   xmlns:inkscape="http://www.inkscape.org/namespaces/inkscape"
   version="1.0"
   width="23"
   height="10"
   id="svg2"
   inkscape:version="0.47 r22583"
   sodipodi:docname="04-01-008-01-02-04.svg">
  <defs
     id="defs24">
    <inkscape:perspective
       sodipodi:type="inkscape:persp3d"
       inkscape:vp_x="0 : 5 : 1"
       inkscape:vp_y="0 : 1000 : 0"
       inkscape:vp_z="22 : 5 : 1"
       inkscape:persp3d-origin="11 : 3.3333333 : 1"
       id="perspective26" />
  </defs>
  <sodipodi:namedview
     pagecolor="#ffffff"
     bordercolor="#666666"
     borderopacity="1"
     objecttolerance="10"
     gridtolerance="10"
     guidetolerance="10"
     inkscape:pageopacity="0"
     inkscape:pageshadow="2"
     inkscape:window-width="964"
     inkscape:window-height="789"
     id="namedview22"
     showgrid="true"
     inkscape:zoom="23.6"
     inkscape:cx="11"
     inkscape:cy="5"
     inkscape:window-x="282"
     inkscape:window-y="0"
     inkscape:window-maximized="0"
     inkscape:current-layer="svg2">
    <inkscape:grid
       type="xygrid"
       id="grid2832" />
  </sodipodi:namedview>
  <metadata
     id="metadata4">
Valerie Sutton's pixel definition of the
ISWA 2010 symbol ID 04-01-008-01-02-01
transformed by Stephen E Slevinski Jr
using line and fill polygon tracing
<rdf:RDF>
  <cc:Work
     rdf:about="">
    <dc:format>image/svg+xml</dc:format>
    <dc:type
       rdf:resource="http://purl.org/dc/dcmitype/StillImage" />
    <dc:title />
  </cc:Work>
</rdf:RDF>
</metadata>
  <path
     style="fill:#000000"
     d="M 10.891,5 11.60975,5.71875 9.8285,7.5 11.60975,9.28125 10.891,10 8.391,7.5 10.891,5 z"
     id="path14" />
  <path
     style="fill:#000000;fill-opacity:1;stroke:none"
     d="M 11 0.03125 C 10.315861 0.042995 9.648001 0.068469 9 0.125 L 9 1.09375 C 9.645593 1.047033 10.307202 1.040956 11 1.03125 L 11 0.03125 z M 12 0.03125 L 12 1.03125 C 12.692798 1.04096 13.354407 1.047033 14 1.09375 L 14 0.125 C 13.351999 0.0684687 12.684139 0.0429951 12 0.03125 z M 8 0.21875 C 6.933121 0.3531547 5.905449 0.5693749 5 0.8125 L 5 1.6875 C 5.86279 1.4734002 6.879926 1.3050872 8 1.1875 L 8 0.21875 z M 15 0.21875 L 15 1.1875 C 16.120074 1.3050872 17.13721 1.4734002 18 1.6875 L 18 0.8125 C 17.094551 0.5693749 16.066879 0.3531547 15 0.21875 z M 4 1.09375 C 1.5560065 1.9189523 0 3.1377326 0 4.5 C 0 5.6649757 1.1438202 6.7321078 3 7.53125 L 3 4.59375 C 2.3816168 4.2619508 2 3.8944891 2 3.5 C 2 2.9261102 2.7644634 2.390709 4 1.96875 L 4 1.09375 z M 19 1.09375 L 19 1.96875 C 20.235537 2.390709 21 2.9261102 21 3.5 C 21 3.8944891 20.618383 4.2619508 20 4.59375 L 20 7.53125 C 21.85618 6.7321078 23 5.6649757 23 4.5 C 23 3.1377326 21.443993 1.9189523 19 1.09375 z M 4 5.03125 L 4 7.90625 C 5.15222 8.2952916 6.5160412 8.5671757 8 8.75 L 8 5.8125 C 6.4103483 5.6474556 5.0302306 5.3830932 4 5.03125 z M 19 5.03125 C 17.969769 5.3830932 16.589652 5.6474556 15 5.8125 L 15 8.75 C 16.483959 8.5671757 17.84778 8.2952916 19 7.90625 L 19 5.03125 z "
     id="path3037" />
  <path
     id="path2968"
     d="M 13.891,5 14.60975,5.71875 12.8285,7.5 14.60975,9.28125 13.891,10 11.391,7.5 13.891,5 z"
     style="fill:#000000" />
</svg>
