<?xml version="1.0" encoding="UTF-8" standalone="no"?>
<svg
   xmlns:dc="http://purl.org/dc/elements/1.1/"
   xmlns:cc="http://creativecommons.org/ns#"
   xmlns:rdf="http://www.w3.org/1999/02/22-rdf-syntax-ns#"
   xmlns:svg="http://www.w3.org/2000/svg"
   xmlns="http://www.w3.org/2000/svg"
   xmlns:sodipodi="http://sodipodi.sourceforge.net/DTD/sodipodi-0.dtd"
   xmlns:inkscape="http://www.inkscape.org/namespaces/inkscape"
   version="1.0"
   width="35"
   height="38"
   id="svg2"
   inkscape:version="0.47 r22583"
   sodipodi:docname="04-01-008-01-01-02.svg">
  <defs
     id="defs24">
    <inkscape:perspective
       sodipodi:type="inkscape:persp3d"
       inkscape:vp_x="0 : 5 : 1"
       inkscape:vp_y="0 : 1000 : 0"
       inkscape:vp_z="22 : 5 : 1"
       inkscape:persp3d-origin="11 : 3.3333333 : 1"
       id="perspective26" />
  </defs>
  <sodipodi:namedview
     pagecolor="#ffffff"
     bordercolor="#666666"
     borderopacity="1"
     objecttolerance="10"
     gridtolerance="10"
     guidetolerance="10"
     inkscape:pageopacity="0"
     inkscape:pageshadow="2"
     inkscape:window-width="964"
     inkscape:window-height="789"
     id="namedview22"
     showgrid="true"
     inkscape:zoom="13.55"
     inkscape:cx="16.141388"
     inkscape:cy="19"
     inkscape:window-x="282"
     inkscape:window-y="0"
     inkscape:window-maximized="0"
     inkscape:current-layer="svg2">
    <inkscape:grid
       type="xygrid"
       id="grid2832" />
  </sodipodi:namedview>
  <metadata
     id="metadata4">
Valerie Sutton's pixel definition of the
ISWA 2010 symbol ID 04-01-008-01-02-01
transformed by Stephen E Slevinski Jr
using line and fill polygon tracing
<rdf:RDF>
  <cc:Work
     rdf:about="">
    <dc:format>image/svg+xml</dc:format>
    <dc:type
       rdf:resource="http://purl.org/dc/dcmitype/StillImage" />
    <dc:title />
  </cc:Work>
</rdf:RDF>
</metadata>
  <path
     style="fill:#000000"
     d="M 18.391,5 19.10975,5.71875 17.3285,7.5 19.10975,9.28125 18.391,10 15.891,7.5 18.391,5 z"
     id="path14" />
  <path
     style="fill:#000000;fill-opacity:1;stroke:none"
     d="M 5.125 8.125 C 1.9581229 11.291877 0 15.667509 0 20.5 C 0 30.164983 7.8350169 38 17.5 38 C 27.164983 38 35 30.164983 35 20.5 C 35 15.667509 33.041877 11.291877 29.875 8.125 L 28.8125 9.1875 C 31.707931 12.082931 33.5 16.081722 33.5 20.5 C 33.5 29.336556 26.336556 36.5 17.5 36.5 C 8.663444 36.5 1.5 29.336556 1.5 20.5 C 1.5 16.081722 3.2920695 12.082931 6.1875 9.1875 L 5.125 8.125 z "
     id="path3156" />
  <path
     style="fill:#000000;fill-opacity:1;stroke:none"
     d="M 17,0.03125 C 16.315861,0.042995 15.648001,0.068469 15,0.125 l 0,0.96875 c 0.645593,-0.046717 1.307202,-0.052794 2,-0.0625 l 0,-1 z m 1,0 0,1 c 0.692798,0.00971 1.354407,0.015783 2,0.0625 L 20,0.125 C 19.351999,0.0684687 18.684139,0.0429951 18,0.03125 z m -4,0.1875 C 12.933121,0.3531547 11.905449,0.5693749 11,0.8125 l 0,0.875 c 0.86279,-0.2140998 1.879926,-0.3824128 3,-0.5 l 0,-0.96875 z m 7,0 0,0.96875 c 1.120074,0.1175872 2.13721,0.2859002 3,0.5 l 0,-0.875 C 23.094551,0.5693749 22.066879,0.3531547 21,0.21875 z m -11,0.875 C 7.5560065,1.9189523 6,3.1377326 6,4.5 6,5.6649757 7.1438202,6.7321078 9,7.53125 L 9,4.59375 C 8.3816168,4.2619508 8,3.8944891 8,3.5 8,2.9261102 8.7644634,2.390709 10,1.96875 l 0,-0.875 z m 15,0 0,0.875 c 1.235537,0.421959 2,0.9573602 2,1.53125 0,0.3944891 -0.381617,0.7619508 -1,1.09375 l 0,2.9375 C 27.85618,6.7321078 29,5.6649757 29,4.5 29,3.1377326 27.443993,1.9189523 25,1.09375 z m -15,3.9375 0,2.875 c 1.408668,0.47563 3.119746,0.804718 5,0.96875 L 15,5.90625 C 12.984348,5.7603902 11.241746,5.4553297 10,5.03125 z m 15,0 c -1.241746,0.4240797 -2.984348,0.7291402 -5,0.875 L 20,8.875 c 1.880254,-0.164032 3.591332,-0.49312 5,-0.96875 l 0,-2.875 z"
     id="path2820" />
</svg>
