<?xml version="1.0" encoding="UTF-8" standalone="no"?>
<svg
   xmlns:dc="http://purl.org/dc/elements/1.1/"
   xmlns:cc="http://creativecommons.org/ns#"
   xmlns:rdf="http://www.w3.org/1999/02/22-rdf-syntax-ns#"
   xmlns:svg="http://www.w3.org/2000/svg"
   xmlns="http://www.w3.org/2000/svg"
   xmlns:sodipodi="http://sodipodi.sourceforge.net/DTD/sodipodi-0.dtd"
   xmlns:inkscape="http://www.inkscape.org/namespaces/inkscape"
   version="1.0"
   width="46"
   height="46"
   id="svg2"
   inkscape:version="0.47 r22583"
   sodipodi:docname="04-01-003-01-04-05.svg">
  <defs
     id="defs16">
    <inkscape:perspective
       sodipodi:type="inkscape:persp3d"
       inkscape:vp_x="0 : 23 : 1"
       inkscape:vp_y="0 : 1000 : 0"
       inkscape:vp_z="36 : 23 : 1"
       inkscape:persp3d-origin="18 : 15.333333 : 1"
       id="perspective18" />
  </defs>
  <sodipodi:namedview
     pagecolor="#ffffff"
     bordercolor="#666666"
     borderopacity="1"
     objecttolerance="10"
     gridtolerance="10"
     guidetolerance="10"
     inkscape:pageopacity="0"
     inkscape:pageshadow="2"
     inkscape:window-width="964"
     inkscape:window-height="721"
     id="namedview14"
     showgrid="true"
     inkscape:zoom="9.5822488"
     inkscape:cx="15.506544"
     inkscape:cy="23.824129"
     inkscape:window-x="365"
     inkscape:window-y="0"
     inkscape:window-maximized="0"
     inkscape:current-layer="svg2">
    <inkscape:grid
       type="xygrid"
       id="grid2824" />
  </sodipodi:namedview>
  <metadata
     id="metadata4">
Valerie Sutton's pixel definition of the
ISWA 2010 symbol ID 04-01-003-01-01-01
transformed by Stephen E Slevinski Jr
using line and fill polygon tracing
<rdf:RDF>
  <cc:Work
     rdf:about="">
    <dc:format>image/svg+xml</dc:format>
    <dc:type
       rdf:resource="http://purl.org/dc/dcmitype/StillImage" />
    <dc:title></dc:title>
  </cc:Work>
</rdf:RDF>
</metadata>
  <path
     d="M 28.5,11 C 18.835017,11 11,18.835017 11,28.5 11,38.164983 18.835017,46 28.5,46 38.164983,46 46,38.164983 46,28.5 46,18.835017 38.164983,11 28.5,11 z m 0,2 C 37.060414,13 44,19.939586 44,28.5 44,37.060414 37.060414,44 28.5,44 19.939586,44 13,37.060414 13,28.5 13,19.939586 19.939586,13 28.5,13 z"
     id="path12"
     style="fill:#000000" />
  <path
     d="m 15.55635,0 0,7.0710678 1.016465,0 0,-6.0546018 6.054601,0 0,-1.016466 -7.071066,0 z"
     id="path10"
     style="fill:#000000" />
  <path
     style="fill:#000000;fill-opacity:1;stroke:none"
     d="M 16.970562,4.2426407 17.677669,3.5355339 21.92031,7.7781746 21.213203,8.4852814 16.970562,4.2426407 z"
     id="path2831" />
  <path
     id="path2833"
     d="M 19.091884,2.1213203 19.798989,1.4142136 24.04163,5.6568543 23.334523,6.363961 19.091883,2.1213203 z"
     style="fill:#000000;fill-opacity:1;stroke:none" />
  <path
     style="fill:#000000"
     id="path3049"
     d="m 7.7781745,7.7781746 0,7.0710684 1.016466,0 0,-6.0546024 6.0546015,0 0,-1.016466 -7.0710675,0 z" />
  <path
     id="path3051"
     d="M 9.1923885,12.020816 9.899495,11.313709 14.142136,15.55635 13.435029,16.263457 9.1923885,12.020816 z"
     style="fill:#000000;fill-opacity:1;stroke:none" />
  <path
     style="fill:#000000;fill-opacity:1;stroke:none"
     d="M 11.313709,9.8994949 12.020816,9.1923882 16.263455,13.435029 15.55635,14.142136 11.313709,9.8994949 z"
     id="path3053" />
  <path
     d="m 0,15.55635 0,7.071067 1.016466,0 0,-6.054601 6.0546015,0 0,-1.016466 -7.0710675,0 z"
     id="path3081"
     style="fill:#000000" />
  <path
     style="fill:#000000;fill-opacity:1;stroke:none"
     d="m 1.4142136,19.79899 0.7071067,-0.707106 4.2426412,4.24264 -0.707107,0.707107 -4.2426409,-4.242641 z"
     id="path3083" />
  <path
     id="path3085"
     d="m 3.5355339,17.67767 0.7071066,-0.707107 4.242641,4.24264 -0.707107,0.707108 -4.2426406,-4.242641 z"
     style="fill:#000000;fill-opacity:1;stroke:none" />
</svg>
