<?xml version="1.0" encoding="UTF-8" standalone="no"?>
<svg
   xmlns:dc="http://purl.org/dc/elements/1.1/"
   xmlns:cc="http://creativecommons.org/ns#"
   xmlns:rdf="http://www.w3.org/1999/02/22-rdf-syntax-ns#"
   xmlns:svg="http://www.w3.org/2000/svg"
   xmlns="http://www.w3.org/2000/svg"
   xmlns:sodipodi="http://sodipodi.sourceforge.net/DTD/sodipodi-0.dtd"
   xmlns:inkscape="http://www.inkscape.org/namespaces/inkscape"
   version="1.0"
   width="35"
   height="48"
   id="svg2"
   inkscape:version="0.47 r22583"
   sodipodi:docname="04-01-003-01-03-06.svg">
  <defs
     id="defs16">
    <inkscape:perspective
       sodipodi:type="inkscape:persp3d"
       inkscape:vp_x="0 : 23 : 1"
       inkscape:vp_y="0 : 1000 : 0"
       inkscape:vp_z="36 : 23 : 1"
       inkscape:persp3d-origin="18 : 15.333333 : 1"
       id="perspective18" />
  </defs>
  <sodipodi:namedview
     pagecolor="#ffffff"
     bordercolor="#666666"
     borderopacity="1"
     objecttolerance="10"
     gridtolerance="10"
     guidetolerance="10"
     inkscape:pageopacity="0"
     inkscape:pageshadow="2"
     inkscape:window-width="964"
     inkscape:window-height="721"
     id="namedview14"
     showgrid="true"
     inkscape:zoom="9.5822488"
     inkscape:cx="15.531557"
     inkscape:cy="23.82751"
     inkscape:window-x="365"
     inkscape:window-y="0"
     inkscape:window-maximized="0"
     inkscape:current-layer="svg2">
    <inkscape:grid
       type="xygrid"
       id="grid2824" />
  </sodipodi:namedview>
  <metadata
     id="metadata4">
Valerie Sutton's pixel definition of the
ISWA 2010 symbol ID 04-01-003-01-01-01
transformed by Stephen E Slevinski Jr
using line and fill polygon tracing
<rdf:RDF>
  <cc:Work
     rdf:about="">
    <dc:format>image/svg+xml</dc:format>
    <dc:type
       rdf:resource="http://purl.org/dc/dcmitype/StillImage" />
    <dc:title></dc:title>
  </cc:Work>
</rdf:RDF>
</metadata>
  <path
     style="fill:#000000"
     d="M 9.21875 15.09375 C 3.7301602 18.047138 0 23.830569 0 30.5 C 0 40.164983 7.8350169 48 17.5 48 C 27.164983 48 35 40.164983 35 30.5 C 35 23.830569 31.26984 18.047138 25.78125 15.09375 L 24.84375 16.875 C 29.68904 19.495704 33 24.604669 33 30.5 C 33 39.060414 26.060414 46 17.5 46 C 8.9395864 46 2 39.060414 2 30.5 C 2 24.604669 5.3109598 19.495704 10.15625 16.875 L 9.21875 15.09375 z "
     id="path12" />
  <path
     d="M 26,5 21,10 20.28125,9.28125 24.5625,5 20.28125,0.71875 21,0 26,5 z"
     id="path10"
     style="fill:#000000" />
  <path
     style="fill:#000000;fill-opacity:1;stroke:none"
     d="m 22,7 0,-1 -6,0 0,1 6,0 z"
     id="path2831" />
  <path
     id="path2833"
     d="m 22,4 0,-1 -6,0 0,1 6,0 z"
     style="fill:#000000;fill-opacity:1;stroke:none" />
  <path
     style="fill:#000000"
     id="path3049"
     d="m 9,11 5,5 0.71875,-0.71875 L 10.4375,11 14.71875,6.71875 14,6 9,11 z" />
  <path
     id="path3051"
     d="m 13,13 0,-1 6,0 0,1 -6,0 z"
     style="fill:#000000;fill-opacity:1;stroke:none" />
  <path
     style="fill:#000000;fill-opacity:1;stroke:none"
     d="m 13,10 0,-1 6,0 0,1 -6,0 z"
     id="path3053" />
</svg>
