<?xml version="1.0" encoding="UTF-8" standalone="no"?>
<svg
   xmlns:dc="http://purl.org/dc/elements/1.1/"
   xmlns:cc="http://creativecommons.org/ns#"
   xmlns:rdf="http://www.w3.org/1999/02/22-rdf-syntax-ns#"
   xmlns:svg="http://www.w3.org/2000/svg"
   xmlns="http://www.w3.org/2000/svg"
   xmlns:sodipodi="http://sodipodi.sourceforge.net/DTD/sodipodi-0.dtd"
   xmlns:inkscape="http://www.inkscape.org/namespaces/inkscape"
   version="1.0"
   width="48"
   height="46"
   id="svg2"
   inkscape:version="0.47 r22583"
   sodipodi:docname="04-01-003-01-04-04.svg">
  <defs
     id="defs16">
    <inkscape:perspective
       sodipodi:type="inkscape:persp3d"
       inkscape:vp_x="0 : 23 : 1"
       inkscape:vp_y="0 : 1000 : 0"
       inkscape:vp_z="36 : 23 : 1"
       inkscape:persp3d-origin="18 : 15.333333 : 1"
       id="perspective18" />
  </defs>
  <sodipodi:namedview
     pagecolor="#ffffff"
     bordercolor="#666666"
     borderopacity="1"
     objecttolerance="10"
     gridtolerance="10"
     guidetolerance="10"
     inkscape:pageopacity="0"
     inkscape:pageshadow="2"
     inkscape:window-width="964"
     inkscape:window-height="721"
     id="namedview14"
     showgrid="true"
     inkscape:zoom="9.5822488"
     inkscape:cx="15.506544"
     inkscape:cy="23.824129"
     inkscape:window-x="365"
     inkscape:window-y="0"
     inkscape:window-maximized="0"
     inkscape:current-layer="svg2">
    <inkscape:grid
       type="xygrid"
       id="grid2824" />
  </sodipodi:namedview>
  <metadata
     id="metadata4">
Valerie Sutton's pixel definition of the
ISWA 2010 symbol ID 04-01-003-01-01-01
transformed by Stephen E Slevinski Jr
using line and fill polygon tracing
<rdf:RDF>
  <cc:Work
     rdf:about="">
    <dc:format>image/svg+xml</dc:format>
    <dc:type
       rdf:resource="http://purl.org/dc/dcmitype/StillImage" />
    <dc:title></dc:title>
  </cc:Work>
</rdf:RDF>
</metadata>
  <path
     d="M 30.5,11 C 20.835017,11 13,18.835017 13,28.5 13,38.164983 20.835017,46 30.5,46 40.164983,46 48,38.164983 48,28.5 48,18.835017 40.164983,11 30.5,11 z m 0,2 C 39.060414,13 46,19.939586 46,28.5 46,37.060414 39.060414,44 30.5,44 21.939586,44 15,37.060414 15,28.5 15,19.939586 21.939586,13 30.5,13 z"
     id="path12"
     style="fill:#000000" />
  <path
     d="m 8.48528,24.042 0,-7.071068 -1.016465,0 0,6.054602 -6.054601,0 0,1.016466 7.071066,0 z"
     id="path10"
     style="fill:#000000" />
  <path
     style="fill:#000000;fill-opacity:1;stroke:none"
     d="M 7.071068,19.799359 6.363961,20.506466 2.12132,16.263825 2.828427,15.556719 7.071068,19.799359 z"
     id="path2831" />
  <path
     id="path2833"
     d="M 4.949746,21.92068 4.242641,22.627786 0,18.385146 0.707107,17.678039 4.949747,21.92068 z"
     style="fill:#000000;fill-opacity:1;stroke:none" />
  <path
     style="fill:#000000"
     id="path3049"
     d="m 16.263456,16.263825 0,-7.071068 -1.016467,0 0,6.054602 -6.054601,0 0,1.016466 7.071068,0 z" />
  <path
     id="path3051"
     d="m 14.849241,12.021184 -0.707106,0.707107 -4.242641,-4.242641 0.707107,-0.707107 4.24264,4.242641 z"
     style="fill:#000000;fill-opacity:1;stroke:none" />
  <path
     style="fill:#000000;fill-opacity:1;stroke:none"
     d="M 12.727921,14.142505 12.020814,14.849612 7.778175,10.606971 8.48528,9.899864 12.727921,14.142505 z"
     id="path3053" />
  <path
     d="m 24.04163,8.48565 0,-7.071067 -1.016466,0 0,6.054601 -6.054601,0 0,1.016466 7.071067,0 z"
     id="path3081"
     style="fill:#000000" />
  <path
     style="fill:#000000;fill-opacity:1;stroke:none"
     d="M 22.627416,4.24301 21.92031,4.950116 17.677668,0.707476 18.384775,3.69e-4 22.627416,4.24301 z"
     id="path3083" />
  <path
     id="path3085"
     d="m 20.506096,6.36433 -0.707107,0.707107 -4.242641,-4.24264 0.707108,-0.707108 4.24264,4.242641 z"
     style="fill:#000000;fill-opacity:1;stroke:none" />
</svg>
