<?xml version="1.0" encoding="UTF-8" standalone="no"?>
<svg
   xmlns:dc="http://purl.org/dc/elements/1.1/"
   xmlns:cc="http://creativecommons.org/ns#"
   xmlns:rdf="http://www.w3.org/1999/02/22-rdf-syntax-ns#"
   xmlns:svg="http://www.w3.org/2000/svg"
   xmlns="http://www.w3.org/2000/svg"
   xmlns:sodipodi="http://sodipodi.sourceforge.net/DTD/sodipodi-0.dtd"
   xmlns:inkscape="http://www.inkscape.org/namespaces/inkscape"
   version="1.0"
   width="40"
   height="45"
   id="svg2"
   inkscape:version="0.47 r22583"
   sodipodi:docname="04-01-003-01-02-04.svg">
  <defs
     id="defs16">
    <inkscape:perspective
       sodipodi:type="inkscape:persp3d"
       inkscape:vp_x="0 : 23 : 1"
       inkscape:vp_y="0 : 1000 : 0"
       inkscape:vp_z="36 : 23 : 1"
       inkscape:persp3d-origin="18 : 15.333333 : 1"
       id="perspective18" />
  </defs>
  <sodipodi:namedview
     pagecolor="#ffffff"
     bordercolor="#666666"
     borderopacity="1"
     objecttolerance="10"
     gridtolerance="10"
     guidetolerance="10"
     inkscape:pageopacity="0"
     inkscape:pageshadow="2"
     inkscape:window-width="964"
     inkscape:window-height="721"
     id="namedview14"
     showgrid="true"
     inkscape:zoom="9.5737298"
     inkscape:cx="15.415942"
     inkscape:cy="23.827565"
     inkscape:window-x="365"
     inkscape:window-y="0"
     inkscape:window-maximized="0"
     inkscape:current-layer="svg2">
    <inkscape:grid
       type="xygrid"
       id="grid2824" />
  </sodipodi:namedview>
  <metadata
     id="metadata4">
Valerie Sutton's pixel definition of the
ISWA 2010 symbol ID 04-01-003-01-01-01
transformed by Stephen E Slevinski Jr
using line and fill polygon tracing
<rdf:RDF>
  <cc:Work
     rdf:about="">
    <dc:format>image/svg+xml</dc:format>
    <dc:type
       rdf:resource="http://purl.org/dc/dcmitype/StillImage" />
    <dc:title></dc:title>
  </cc:Work>
</rdf:RDF>
</metadata>
  <path
     d="m 22.500456,10 c -9.664983,0 -17.5,7.835017 -17.5,17.5 0,9.664983 7.835017,17.5 17.5,17.5 9.664983,0 17.5,-7.835017 17.5,-17.5 0,-9.664983 -7.835017,-17.5 -17.5,-17.5 z m 0,2 c 8.560414,0 15.5,6.939586 15.5,15.5 0,8.560414 -6.939586,15.5 -15.5,15.5 -8.560414,0 -15.5,-6.939586 -15.5,-15.5 0,-8.560414 6.939586,-15.5 15.5,-15.5 z"
     id="path12"
     style="fill:#000000" />
  <path
     d="m 16.263456,8.485282 -7.071068,0 0,-1.016466 6.054602,0 0,-6.054602 1.016466,0 0,7.071068 z"
     id="path10"
     style="fill:#000000" />
  <path
     style="fill:#000000;fill-opacity:1;stroke:none"
     d="M 12.020815,7.071068 12.727922,6.363961 8.485281,2.121321 7.778175,2.828427 12.020815,7.071068 z"
     id="path2831" />
  <path
     id="path2833"
     d="M 14.142136,4.949748 14.849242,4.242641 10.606602,0 9.899495,0.707107 14.142136,4.949748 z"
     style="fill:#000000;fill-opacity:1;stroke:none" />
  <path
     style="fill:#000000"
     id="path3049"
     d="m 8.485281,16.263456 -7.071068,0 0,-1.016466 6.054602,0 0,-6.054602 1.016466,0 0,7.071068 z" />
  <path
     id="path3051"
     d="M 4.24264,14.849243 4.949747,14.142136 0.707106,9.899495 0,10.606602 4.24264,14.849243 z"
     style="fill:#000000;fill-opacity:1;stroke:none" />
  <path
     style="fill:#000000;fill-opacity:1;stroke:none"
     d="M 6.363961,12.727922 7.071068,12.020816 2.828426,7.778175 2.12132,8.485282 l 4.242641,4.24264 z"
     id="path3053" />
</svg>
