<?xml version="1.0" encoding="UTF-8" standalone="no"?>
<svg
   xmlns:dc="http://purl.org/dc/elements/1.1/"
   xmlns:cc="http://creativecommons.org/ns#"
   xmlns:rdf="http://www.w3.org/1999/02/22-rdf-syntax-ns#"
   xmlns:svg="http://www.w3.org/2000/svg"
   xmlns="http://www.w3.org/2000/svg"
   xmlns:sodipodi="http://sodipodi.sourceforge.net/DTD/sodipodi-0.dtd"
   xmlns:inkscape="http://www.inkscape.org/namespaces/inkscape"
   version="1.0"
   width="46"
   height="46"
   id="svg2"
   inkscape:version="0.47 r22583"
   sodipodi:docname="04-01-003-01-05-02.svg">
  <defs
     id="defs16">
    <inkscape:perspective
       sodipodi:type="inkscape:persp3d"
       inkscape:vp_x="0 : 23 : 1"
       inkscape:vp_y="0 : 1000 : 0"
       inkscape:vp_z="36 : 23 : 1"
       inkscape:persp3d-origin="18 : 15.333333 : 1"
       id="perspective18" />
  </defs>
  <sodipodi:namedview
     pagecolor="#ffffff"
     bordercolor="#666666"
     borderopacity="1"
     objecttolerance="10"
     gridtolerance="10"
     guidetolerance="10"
     inkscape:pageopacity="0"
     inkscape:pageshadow="2"
     inkscape:window-width="964"
     inkscape:window-height="721"
     id="namedview14"
     showgrid="true"
     inkscape:zoom="9.5822488"
     inkscape:cx="15.506544"
     inkscape:cy="23.824129"
     inkscape:window-x="365"
     inkscape:window-y="0"
     inkscape:window-maximized="0"
     inkscape:current-layer="svg2">
    <inkscape:grid
       type="xygrid"
       id="grid2824" />
  </sodipodi:namedview>
  <metadata
     id="metadata4">
Valerie Sutton's pixel definition of the
ISWA 2010 symbol ID 04-01-003-01-01-01
transformed by Stephen E Slevinski Jr
using line and fill polygon tracing
<rdf:RDF>
  <cc:Work
     rdf:about="">
    <dc:format>image/svg+xml</dc:format>
    <dc:type
       rdf:resource="http://purl.org/dc/dcmitype/StillImage" />
    <dc:title></dc:title>
  </cc:Work>
</rdf:RDF>
</metadata>
  <path
     d="M 28.5,11 C 18.835017,11 11,18.835017 11,28.5 11,38.164983 18.835017,46 28.5,46 38.164983,46 46,38.164983 46,28.5 46,18.835017 38.164983,11 28.5,11 z m 0,2 C 37.060414,13 44,19.939586 44,28.5 44,37.060414 37.060414,44 28.5,44 19.939586,44 13,37.060414 13,28.5 13,19.939586 19.939586,13 28.5,13 z"
     id="path12"
     style="fill:#000000" />
  <path
     d="m 24.041631,8.7781745 -7.071068,7e-7 0,-1.016466 6.054602,0 0,-6.0546019 1.016466,-7e-7 0,7.0710679 z"
     id="path10"
     style="fill:#000000" />
  <path
     style="fill:#000000;fill-opacity:1;stroke:none"
     d="m 19.798991,7.3639616 0.707106,-0.7071068 -4.242641,-4.242641 -0.707107,0.7071066 4.242642,4.2426412 z"
     id="path2831" />
  <path
     id="path2833"
     d="M 21.92031,5.2426405 22.627417,4.5355338 18.384776,0.29289322 17.67767,0.99999986 21.92031,5.2426405 z"
     style="fill:#000000;fill-opacity:1;stroke:none" />
  <path
     style="fill:#000000"
     id="path3049"
     d="m 7.7781739,8.071068 7.0710681,0 0,1.016466 -6.0546021,0 0,6.054602 -1.016466,0 0,-7.071068 z" />
  <path
     id="path3051"
     d="m 12.020815,9.485282 -0.707107,0.707106 4.242641,4.242641 0.707107,-0.707108 -4.242641,-4.242639 z"
     style="fill:#000000;fill-opacity:1;stroke:none" />
  <path
     style="fill:#000000;fill-opacity:1;stroke:none"
     d="m 9.8994939,11.606602 -0.707106,0.707107 4.2426401,4.24264 0.707107,-0.707107 -4.2426411,-4.24264 z"
     id="path3053" />
  <path
     d="m 8.4852812,24.334523 -7.0710676,0 2e-7,-1.016464 6.0546016,0 -6e-7,-6.054603 1.016466,0 4e-7,7.071067 z"
     id="path3081"
     style="fill:#000000" />
  <path
     style="fill:#000000;fill-opacity:1;stroke:none"
     d="M 4.2426404,22.92031 4.9497473,22.213203 0.70710676,17.970563 0,18.677669 4.2426404,22.92031 z"
     id="path3083" />
  <path
     id="path3085"
     d="m 6.3639613,20.798991 0.707107,-0.707107 -4.2426411,-4.242642 -0.7071068,0.707107 4.2426409,4.242642 z"
     style="fill:#000000;fill-opacity:1;stroke:none" />
</svg>
