<?xml version="1.0" encoding="UTF-8" standalone="no"?>
<svg
   xmlns:dc="http://purl.org/dc/elements/1.1/"
   xmlns:cc="http://creativecommons.org/ns#"
   xmlns:rdf="http://www.w3.org/1999/02/22-rdf-syntax-ns#"
   xmlns:svg="http://www.w3.org/2000/svg"
   xmlns="http://www.w3.org/2000/svg"
   xmlns:sodipodi="http://sodipodi.sourceforge.net/DTD/sodipodi-0.dtd"
   xmlns:inkscape="http://www.inkscape.org/namespaces/inkscape"
   version="1.0"
   width="35"
   height="48"
   id="svg2"
   inkscape:version="0.47 r22583"
   sodipodi:docname="04-01-003-01-04-03.svg">
  <defs
     id="defs16">
    <inkscape:perspective
       sodipodi:type="inkscape:persp3d"
       inkscape:vp_x="0 : 23 : 1"
       inkscape:vp_y="0 : 1000 : 0"
       inkscape:vp_z="36 : 23 : 1"
       inkscape:persp3d-origin="18 : 15.333333 : 1"
       id="perspective18" />
  </defs>
  <sodipodi:namedview
     pagecolor="#ffffff"
     bordercolor="#666666"
     borderopacity="1"
     objecttolerance="10"
     gridtolerance="10"
     guidetolerance="10"
     inkscape:pageopacity="0"
     inkscape:pageshadow="2"
     inkscape:window-width="964"
     inkscape:window-height="721"
     id="namedview14"
     showgrid="true"
     inkscape:zoom="9.5816548"
     inkscape:cx="16.737462"
     inkscape:cy="24.517458"
     inkscape:window-x="365"
     inkscape:window-y="0"
     inkscape:window-maximized="0"
     inkscape:current-layer="svg2">
    <inkscape:grid
       type="xygrid"
       id="grid2824" />
  </sodipodi:namedview>
  <metadata
     id="metadata4">
Valerie Sutton's pixel definition of the
ISWA 2010 symbol ID 04-01-003-01-01-01
transformed by Stephen E Slevinski Jr
using line and fill polygon tracing
<rdf:RDF>
  <cc:Work
     rdf:about="">
    <dc:format>image/svg+xml</dc:format>
    <dc:type
       rdf:resource="http://purl.org/dc/dcmitype/StillImage" />
    <dc:title></dc:title>
  </cc:Work>
</rdf:RDF>
</metadata>
  <path
     style="fill:#000000"
     d="M 25.46875,14.9375 C 31.124958,17.837462 35,23.706794 35,30.5 35,40.164983 27.164983,48 17.5,48 7.835017,48 0,40.164983 0,30.5 0,23.706794 3.875042,17.837462 9.53125,14.9375 l 0.90625,1.78125 C 5.436624,19.290252 2,24.48972 2,30.5 2,39.060414 8.939586,46 17.5,46 26.060414,46 33,39.060414 33,30.5 33,24.48972 29.563376,19.290252 24.5625,16.71875 l 0.90625,-1.78125 z"
     id="path12" />
  <path
     d="m 22.5,16 -5,-5 -0.71875,0.71875 L 21.0625,16 16.78125,20.28125 17.5,21 l 5,-5 z"
     id="path10"
     style="fill:#000000" />
  <path
     style="fill:#000000;fill-opacity:1;stroke:none"
     d="m 18.5,14 0,1 -6,0 0,-1 6,0 z"
     id="path2831" />
  <path
     id="path2833"
     d="m 18.5,17 0,1 -6,0 0,-1 6,0 z"
     style="fill:#000000;fill-opacity:1;stroke:none" />
  <path
     style="fill:#000000"
     id="path3049"
     d="M 22.5,5 17.5,0 16.78125,0.71875 21.0625,5 16.78125,9.28125 17.5,10 l 5,-5 z" />
  <path
     id="path3051"
     d="m 18.5,3 0,1 -6,0 0,-1 6,0 z"
     style="fill:#000000;fill-opacity:1;stroke:none" />
  <path
     style="fill:#000000;fill-opacity:1;stroke:none"
     d="m 18.5,6 0,1 -6,0 0,-1 6,0 z"
     id="path3053" />
  <path
     style="fill:#000000"
     id="path2819"
     d="m 22.5,27 -5,-5 -0.71875,0.71875 L 21.0625,27 16.78125,31.28125 17.5,32 l 5,-5 z" />
  <path
     id="path2821"
     d="m 18.5,25 0,1 -6,0 0,-1 6,0 z"
     style="fill:#000000;fill-opacity:1;stroke:none" />
  <path
     style="fill:#000000;fill-opacity:1;stroke:none"
     d="m 18.5,28 0,1 -6,0 0,-1 6,0 z"
     id="path2823" />
</svg>
