<?xml version="1.0" encoding="UTF-8" standalone="no"?>
<svg
   xmlns:dc="http://purl.org/dc/elements/1.1/"
   xmlns:cc="http://creativecommons.org/ns#"
   xmlns:rdf="http://www.w3.org/1999/02/22-rdf-syntax-ns#"
   xmlns:svg="http://www.w3.org/2000/svg"
   xmlns="http://www.w3.org/2000/svg"
   xmlns:sodipodi="http://sodipodi.sourceforge.net/DTD/sodipodi-0.dtd"
   xmlns:inkscape="http://www.inkscape.org/namespaces/inkscape"
   version="1.0"
   width="35"
   height="48"
   id="svg2"
   inkscape:version="0.47 r22583"
   sodipodi:docname="04-01-003-01-02-02.svg">
  <defs
     id="defs16">
    <inkscape:perspective
       sodipodi:type="inkscape:persp3d"
       inkscape:vp_x="0 : 23 : 1"
       inkscape:vp_y="0 : 1000 : 0"
       inkscape:vp_z="36 : 23 : 1"
       inkscape:persp3d-origin="18 : 15.333333 : 1"
       id="perspective18" />
  </defs>
  <sodipodi:namedview
     pagecolor="#ffffff"
     bordercolor="#666666"
     borderopacity="1"
     objecttolerance="10"
     gridtolerance="10"
     guidetolerance="10"
     inkscape:pageopacity="0"
     inkscape:pageshadow="2"
     inkscape:window-width="964"
     inkscape:window-height="721"
     id="namedview14"
     showgrid="true"
     inkscape:zoom="9.5737298"
     inkscape:cx="17.015956"
     inkscape:cy="23.827565"
     inkscape:window-x="365"
     inkscape:window-y="0"
     inkscape:window-maximized="0"
     inkscape:current-layer="svg2">
    <inkscape:grid
       type="xygrid"
       id="grid2824" />
  </sodipodi:namedview>
  <metadata
     id="metadata4">
Valerie Sutton's pixel definition of the
ISWA 2010 symbol ID 04-01-003-01-01-01
transformed by Stephen E Slevinski Jr
using line and fill polygon tracing
<rdf:RDF>
  <cc:Work
     rdf:about="">
    <dc:format>image/svg+xml</dc:format>
    <dc:type
       rdf:resource="http://purl.org/dc/dcmitype/StillImage" />
    <dc:title></dc:title>
  </cc:Work>
</rdf:RDF>
</metadata>
  <path
     d="M 17.5,13 C 7.835017,13 0,20.835017 0,30.5 0,40.164983 7.835017,48 17.5,48 27.164983,48 35,40.164983 35,30.5 35,20.835017 27.164983,13 17.5,13 z m 0,2 C 26.060414,15 33,21.939586 33,30.5 33,39.060414 26.060414,46 17.5,46 8.939586,46 2,39.060414 2,30.5 2,21.939586 8.939586,15 17.5,15 z"
     id="path12"
     style="fill:#000000" />
  <path
     d="m 27,0 0,7.0710678 -1.016466,0 0,-6.0546018 -6.054602,0 L 19.928932,0 27,0 z"
     id="path10"
     style="fill:#000000" />
  <path
     style="fill:#000000;fill-opacity:1;stroke:none"
     d="m 25.585786,4.2426407 -0.707107,-0.7071068 -4.24264,4.2426407 0.707106,0.7071068 4.242641,-4.2426407 z"
     id="path2831" />
  <path
     id="path2833"
     d="M 23.464466,2.1213203 22.757359,1.4142136 18.514718,5.6568542 19.221825,6.363961 23.464466,2.1213203 z"
     style="fill:#000000;fill-opacity:1;stroke:none" />
  <path
     style="fill:#000000"
     id="path3049"
     d="m 34.778174,7.7781746 0,7.0710684 -1.016466,0 0,-6.0546024 -6.054602,0 0,-1.016466 7.071068,0 z" />
  <path
     id="path3051"
     d="m 33.363961,12.020816 -0.707107,-0.707107 -4.242641,4.242641 0.707107,0.707106 4.242641,-4.24264 z"
     style="fill:#000000;fill-opacity:1;stroke:none" />
  <path
     style="fill:#000000;fill-opacity:1;stroke:none"
     d="M 31.24264,9.8994946 30.535534,9.1923882 26.292893,13.43503 27,14.142136 31.24264,9.8994946 z"
     id="path3053" />
</svg>
