<?xml version="1.0" encoding="UTF-8" standalone="no"?>
<svg
   xmlns:dc="http://purl.org/dc/elements/1.1/"
   xmlns:cc="http://creativecommons.org/ns#"
   xmlns:rdf="http://www.w3.org/1999/02/22-rdf-syntax-ns#"
   xmlns:svg="http://www.w3.org/2000/svg"
   xmlns="http://www.w3.org/2000/svg"
   xmlns:sodipodi="http://sodipodi.sourceforge.net/DTD/sodipodi-0.dtd"
   xmlns:inkscape="http://www.inkscape.org/namespaces/inkscape"
   version="1.0"
   width="35"
   height="35"
   id="svg2"
   inkscape:version="0.47 r22583"
   sodipodi:docname="04-02-007-03-01-02.svg">
  <defs
     id="defs14">
    <inkscape:perspective
       sodipodi:type="inkscape:persp3d"
       inkscape:vp_x="0 : 3.5 : 1"
       inkscape:vp_y="0 : 1000 : 0"
       inkscape:vp_z="7 : 3.5 : 1"
       inkscape:persp3d-origin="3.5 : 2.3333333 : 1"
       id="perspective16" />
  </defs>
  <sodipodi:namedview
     pagecolor="#ffffff"
     bordercolor="#666666"
     borderopacity="1"
     objecttolerance="10"
     gridtolerance="10"
     guidetolerance="10"
     inkscape:pageopacity="0"
     inkscape:pageshadow="2"
     inkscape:window-width="928"
     inkscape:window-height="791"
     id="namedview12"
     showgrid="true"
     inkscape:zoom="15.71"
     inkscape:cx="17.638494"
     inkscape:cy="17.823025"
     inkscape:window-x="273"
     inkscape:window-y="0"
     inkscape:window-maximized="0"
     inkscape:current-layer="svg2">
    <inkscape:grid
       type="xygrid"
       id="grid2822" />
  </sodipodi:namedview>
  <metadata
     id="metadata4">
Valerie Sutton's pixel definition of the
ISWA 2010 symbol ID 04-02-007-01-04-01
transformed by Stephen E Slevinski Jr
using line and fill polygon tracing
<rdf:RDF>
  <cc:Work
     rdf:about="">
    <dc:format>image/svg+xml</dc:format>
    <dc:type
       rdf:resource="http://purl.org/dc/dcmitype/StillImage" />
    <dc:title />
  </cc:Work>
</rdf:RDF>
</metadata>
  <path
     style="fill:#000000;fill-opacity:1;stroke:none"
     d="m 24.999887,17 0,-5 -1.000056,0 0,4 -4.000224,0 0,1 5.00028,0 z"
     id="path2841" />
  <path
     style="fill:#000000;fill-opacity:1;stroke:none"
     d="M 23.949829,13.828427 21.121242,11 l -0.707146,0.707107 2.828586,2.828427 0.707147,-0.707107 z"
     id="rect2849" />
  <path
     style="fill:#000000;fill-opacity:1;stroke:none"
     d="m 22.535536,15.242641 -2.828587,-2.828427 -0.707146,0.707106 2.828586,2.828428 0.707147,-0.707107 z"
     id="rect2851" />
  <path
     id="path2881"
     d="m 21.999719,6 0,5 1.000056,0 0,-4 L 27,7 27,6 21.999719,6 z"
     style="fill:#000000;fill-opacity:1;stroke:none" />
  <path
     id="path2883"
     d="M 23.049779,9.171573 25.878364,12 26.58551,11.292893 23.756924,8.464466 23.049779,9.171573 z"
     style="fill:#000000;fill-opacity:1;stroke:none" />
  <path
     id="path2885"
     d="M 24.464072,7.757359 27.292657,10.585786 27.999803,9.87868 25.171217,7.050252 24.464072,7.757359 z"
     style="fill:#000000;fill-opacity:1;stroke:none" />
  <path
     id="path2943"
     d="m 11.999887,17 0,-5 -1.000056,0 0,4 -4.000225,0 0,1 5.000281,0 z"
     style="fill:#000000;fill-opacity:1;stroke:none" />
  <path
     id="path2945"
     d="M 10.949829,13.828427 8.1212425,11 7.414095,11.707107 l 2.828586,2.828427 0.707148,-0.707107 z"
     style="fill:#000000;fill-opacity:1;stroke:none" />
  <path
     id="path2947"
     d="M 9.535535,15.242641 6.706949,12.414214 5.999802,13.12132 8.8283885,15.949748 9.535535,15.242641 z"
     style="fill:#000000;fill-opacity:1;stroke:none" />
  <path
     style="fill:#000000;fill-opacity:1;stroke:none"
     d="m 8.9997175,6 0,5 1.0000575,0 0,-4 L 14,7 14,6 8.9997175,6 z"
     id="path2949" />
  <path
     style="fill:#000000;fill-opacity:1;stroke:none"
     d="M 10.049778,9.171573 12.878364,12 13.58551,11.292893 10.756924,8.464466 10.049778,9.171573 z"
     id="path2951" />
  <path
     style="fill:#000000;fill-opacity:1;stroke:none"
     d="M 11.46407,7.757359 14.292656,10.585786 14.999802,9.87868 12.171218,7.050252 11.46407,7.757359 z"
     id="path2953" />
  <path
     style="fill:#000000;fill-opacity:1;stroke:none"
     d="M 17.5 0 C 7.8350169 4.7369516e-15 1.087327e-16 7.8350169 0 17.5 C 0 27.164983 7.8350169 35 17.5 35 C 27.164983 35 35 27.164983 35 17.5 C 35 7.8350169 27.164983 -3.443981e-15 17.5 0 z M 17.5 2 C 26.060414 2 33 8.9395864 33 17.5 C 33 26.060414 26.060414 33 17.5 33 C 8.9395864 33 2 26.060414 2 17.5 C 2 8.9395864 8.9395864 2 17.5 2 z "
     id="path2997" />
</svg>
