<?xml version="1.0" encoding="UTF-8" standalone="no"?>
<svg
   xmlns:dc="http://purl.org/dc/elements/1.1/"
   xmlns:cc="http://creativecommons.org/ns#"
   xmlns:rdf="http://www.w3.org/1999/02/22-rdf-syntax-ns#"
   xmlns:svg="http://www.w3.org/2000/svg"
   xmlns="http://www.w3.org/2000/svg"
   xmlns:sodipodi="http://sodipodi.sourceforge.net/DTD/sodipodi-0.dtd"
   xmlns:inkscape="http://www.inkscape.org/namespaces/inkscape"
   version="1.0"
   width="21"
   height="13"
   id="svg2"
   inkscape:version="0.47 r22583"
   sodipodi:docname="04-02-007-03-02-07.svg">
  <defs
     id="defs14">
    <inkscape:perspective
       sodipodi:type="inkscape:persp3d"
       inkscape:vp_x="0 : 3.5 : 1"
       inkscape:vp_y="0 : 1000 : 0"
       inkscape:vp_z="7 : 3.5 : 1"
       inkscape:persp3d-origin="3.5 : 2.3333333 : 1"
       id="perspective16" />
  </defs>
  <sodipodi:namedview
     pagecolor="#ffffff"
     bordercolor="#666666"
     borderopacity="1"
     objecttolerance="10"
     gridtolerance="10"
     guidetolerance="10"
     inkscape:pageopacity="0"
     inkscape:pageshadow="2"
     inkscape:window-width="928"
     inkscape:window-height="791"
     id="namedview12"
     showgrid="true"
     inkscape:zoom="15.722143"
     inkscape:cx="10.00593"
     inkscape:cy="4.8867927"
     inkscape:window-x="273"
     inkscape:window-y="0"
     inkscape:window-maximized="0"
     inkscape:current-layer="svg2">
    <inkscape:grid
       type="xygrid"
       id="grid2822" />
  </sodipodi:namedview>
  <metadata
     id="metadata4">
Valerie Sutton's pixel definition of the
ISWA 2010 symbol ID 04-02-007-01-04-01
transformed by Stephen E Slevinski Jr
using line and fill polygon tracing
<rdf:RDF>
  <cc:Work
     rdf:about="">
    <dc:format>image/svg+xml</dc:format>
    <dc:type
       rdf:resource="http://purl.org/dc/dcmitype/StillImage" />
    <dc:title />
  </cc:Work>
</rdf:RDF>
</metadata>
  <path
     style="fill:#000000;fill-opacity:1;stroke:none"
     d="M 21,3.5 17.5,7 16.78125,6.28125 19.59375,3.5 16.78125,0.71875 17.5,0 21,3.5 z"
     id="path2841" />
  <path
     style="fill:#000000;fill-opacity:1;stroke:none"
     d="m 18,5 -4,0 0,-1 4,0 0,1 z"
     id="rect2849" />
  <path
     style="fill:#000000;fill-opacity:1;stroke:none"
     d="m 18,3 -4,0 0,-1 4,0 0,1 z"
     id="rect2851" />
  <path
     id="path2833"
     d="M 13,9.5 16.5,13 17.21875,12.28125 14.40625,9.5 17.21875,6.71875 16.5,6 13,9.5 z"
     style="fill:#000000;fill-opacity:1;stroke:none" />
  <path
     id="path2835"
     d="m 16,11 4,0 0,-1 -4,0 0,1 z"
     style="fill:#000000;fill-opacity:1;stroke:none" />
  <path
     id="path2837"
     d="m 16,9 4,0 0,-1 -4,0 0,1 z"
     style="fill:#000000;fill-opacity:1;stroke:none" />
  <path
     id="path3044"
     d="M 8,3.5 4.5,7 3.78125,6.28125 6.59375,3.5 3.78125,0.71875 4.5,0 8,3.5 z"
     style="fill:#000000;fill-opacity:1;stroke:none" />
  <path
     id="path3046"
     d="M 5,5 1,5 1,4 5,4 5,5 z"
     style="fill:#000000;fill-opacity:1;stroke:none" />
  <path
     id="path3048"
     d="M 5,3 1,3 1,2 5,2 5,3 z"
     style="fill:#000000;fill-opacity:1;stroke:none" />
  <path
     style="fill:#000000;fill-opacity:1;stroke:none"
     d="M 0,9.5 3.5,13 4.21875,12.28125 1.40625,9.5 4.21875,6.71875 3.5,6 0,9.5 z"
     id="path3050" />
  <path
     style="fill:#000000;fill-opacity:1;stroke:none"
     d="m 3,11 4,0 0,-1 -4,0 0,1 z"
     id="path3052" />
  <path
     style="fill:#000000;fill-opacity:1;stroke:none"
     d="M 3,9 7,9 7,8 3,8 3,9 z"
     id="path3054" />
</svg>
