<?xml version="1.0" encoding="UTF-8" standalone="no"?>
<svg
   xmlns:dc="http://purl.org/dc/elements/1.1/"
   xmlns:cc="http://creativecommons.org/ns#"
   xmlns:rdf="http://www.w3.org/1999/02/22-rdf-syntax-ns#"
   xmlns:svg="http://www.w3.org/2000/svg"
   xmlns="http://www.w3.org/2000/svg"
   xmlns:sodipodi="http://sodipodi.sourceforge.net/DTD/sodipodi-0.dtd"
   xmlns:inkscape="http://www.inkscape.org/namespaces/inkscape"
   version="1.0"
   width="35"
   height="35"
   id="svg2"
   inkscape:version="0.47 r22583"
   sodipodi:docname="04-02-007-03-01-03.svg">
  <defs
     id="defs14">
    <inkscape:perspective
       sodipodi:type="inkscape:persp3d"
       inkscape:vp_x="0 : 3.5 : 1"
       inkscape:vp_y="0 : 1000 : 0"
       inkscape:vp_z="7 : 3.5 : 1"
       inkscape:persp3d-origin="3.5 : 2.3333333 : 1"
       id="perspective16" />
  </defs>
  <sodipodi:namedview
     pagecolor="#ffffff"
     bordercolor="#666666"
     borderopacity="1"
     objecttolerance="10"
     gridtolerance="10"
     guidetolerance="10"
     inkscape:pageopacity="0"
     inkscape:pageshadow="2"
     inkscape:window-width="928"
     inkscape:window-height="791"
     id="namedview12"
     showgrid="true"
     inkscape:zoom="15.722143"
     inkscape:cx="17.638477"
     inkscape:cy="17.607705"
     inkscape:window-x="273"
     inkscape:window-y="0"
     inkscape:window-maximized="0"
     inkscape:current-layer="svg2">
    <inkscape:grid
       type="xygrid"
       id="grid2822" />
  </sodipodi:namedview>
  <metadata
     id="metadata4">
Valerie Sutton's pixel definition of the
ISWA 2010 symbol ID 04-02-007-01-04-01
transformed by Stephen E Slevinski Jr
using line and fill polygon tracing
<rdf:RDF>
  <cc:Work
     rdf:about="">
    <dc:format>image/svg+xml</dc:format>
    <dc:type
       rdf:resource="http://purl.org/dc/dcmitype/StillImage" />
    <dc:title />
  </cc:Work>
</rdf:RDF>
</metadata>
  <path
     style="fill:#000000;fill-opacity:1;stroke:none"
     d="M 7,9.5 10.5,13 11.21875,12.28125 8.40625,9.5 11.21875,6.71875 10.5,6 7,9.5 z"
     id="path2841" />
  <path
     style="fill:#000000;fill-opacity:1;stroke:none"
     d="m 10,11 4,0 0,-1 -4,0 0,1 z"
     id="rect2849" />
  <path
     style="fill:#000000;fill-opacity:1;stroke:none"
     d="m 10,9 4,0 0,-1 -4,0 0,1 z"
     id="rect2851" />
  <path
     id="path2833"
     d="M 15,15.5 11.5,19 10.78125,18.28125 13.59375,15.5 10.78125,12.71875 11.5,12 15,15.5 z"
     style="fill:#000000;fill-opacity:1;stroke:none" />
  <path
     id="path2835"
     d="m 12,17 -4,0 0,-1 4,0 0,1 z"
     style="fill:#000000;fill-opacity:1;stroke:none" />
  <path
     id="path2837"
     d="m 12,15 -4,0 0,-1 4,0 0,1 z"
     style="fill:#000000;fill-opacity:1;stroke:none" />
  <path
     id="path3044"
     d="M 20,9.5 23.5,13 24.21875,12.28125 21.40625,9.5 24.21875,6.71875 23.5,6 20,9.5 z"
     style="fill:#000000;fill-opacity:1;stroke:none" />
  <path
     id="path3046"
     d="m 23,11 4,0 0,-1 -4,0 0,1 z"
     style="fill:#000000;fill-opacity:1;stroke:none" />
  <path
     id="path3048"
     d="m 23,9 4,0 0,-1 -4,0 0,1 z"
     style="fill:#000000;fill-opacity:1;stroke:none" />
  <path
     style="fill:#000000;fill-opacity:1;stroke:none"
     d="M 28,15.5 24.5,19 23.78125,18.28125 26.59375,15.5 23.78125,12.71875 24.5,12 28,15.5 z"
     id="path3050" />
  <path
     style="fill:#000000;fill-opacity:1;stroke:none"
     d="m 25,17 -4,0 0,-1 4,0 0,1 z"
     id="path3052" />
  <path
     style="fill:#000000;fill-opacity:1;stroke:none"
     d="m 25,15 -4,0 0,-1 4,0 0,1 z"
     id="path3054" />
  <path
     style="fill:#000000;fill-opacity:1;stroke:none"
     d="M 17.5 0 C 7.8350169 4.7369516e-15 1.087327e-16 7.8350169 0 17.5 C 0 27.164983 7.8350169 35 17.5 35 C 27.164983 35 35 27.164983 35 17.5 C 35 7.8350169 27.164983 -3.443981e-15 17.5 0 z M 17.5 2 C 26.060414 2 33 8.9395864 33 17.5 C 33 26.060414 26.060414 33 17.5 33 C 8.9395864 33 2 26.060414 2 17.5 C 2 8.9395864 8.9395864 2 17.5 2 z "
     id="path3098" />
</svg>
