<?xml version="1.0" encoding="UTF-8" standalone="no"?>
<!-- Created with Inkscape (http://www.inkscape.org/) -->

<svg
   xmlns:dc="http://purl.org/dc/elements/1.1/"
   xmlns:cc="http://creativecommons.org/ns#"
   xmlns:rdf="http://www.w3.org/1999/02/22-rdf-syntax-ns#"
   xmlns:svg="http://www.w3.org/2000/svg"
   xmlns="http://www.w3.org/2000/svg"
   xmlns:sodipodi="http://sodipodi.sourceforge.net/DTD/sodipodi-0.dtd"
   xmlns:inkscape="http://www.inkscape.org/namespaces/inkscape"
   width="23"
   height="29"
   id="svg3198"
   sodipodi:version="0.32"
   inkscape:version="0.47 r22583"
   version="1.0"
   sodipodi:docname="01-09-009-01-04.svg"
   inkscape:output_extension="org.inkscape.output.svg.inkscape">
  <defs
     id="defs3200">
    <inkscape:perspective
       sodipodi:type="inkscape:persp3d"
       inkscape:vp_x="0 : 526.18109 : 1"
       inkscape:vp_y="0 : 1000 : 0"
       inkscape:vp_z="744.09448 : 526.18109 : 1"
       inkscape:persp3d-origin="372.04724 : 350.78739 : 1"
       id="perspective3206" />
  </defs>
  <sodipodi:namedview
     id="namedview3727"
     pagecolor="#ffffff"
     bordercolor="#666666"
     borderopacity="1.0"
     gridtolerance="10000"
     guidetolerance="10"
     objecttolerance="10"
     inkscape:pageopacity="0.0"
     inkscape:pageshadow="2"
     inkscape:zoom="18.370197"
     inkscape:cx="12.419085"
     inkscape:cy="14.232909"
     inkscape:document-units="px"
     inkscape:current-layer=""
     showgrid="true"
     inkscape:window-width="1123"
     inkscape:window-height="791"
     inkscape:window-x="0"
     inkscape:window-y="0"
     inkscape:window-maximized="0">
    <inkscape:grid
       type="xygrid"
       id="grid3208"
       visible="true"
       enabled="true" />
  </sodipodi:namedview>
  <metadata
     id="metadata3203">
    <rdf:RDF>
      <cc:Work
         rdf:about="">
        <dc:format>image/svg+xml</dc:format>
        <dc:type
           rdf:resource="http://purl.org/dc/dcmitype/StillImage" />
        <dc:title></dc:title>
      </cc:Work>
    </rdf:RDF>
  </metadata>
  <g
     inkscape:label="Layer 1"
     inkscape:groupmode="layer"
     id="">
    <path
       sodipodi:type="arc"
       style="fill:#000000;fill-opacity:1;stroke:none"
       id="base"
       sodipodi:cx="8"
       sodipodi:cy="21"
       sodipodi:rx="8"
       sodipodi:ry="8"
       d="M 16,21 A 8,8 0 1 1 0,21 8,8 0 1 1 16,21 z" />
    <path
       style="fill:#ffffff;fill-opacity:1;stroke:none"
       d="M 8 15 C 4.6862915 15 2 17.686292 2 21 C 2 24.313708 4.6862915 27 8 27 L 8 15 z "
       id="fill" />
    <path
       style="fill:#000000;fill-opacity:1;stroke:none"
       d="M 6,0 C 3,0 3,3 3,3 L 3,6 5,6 5,3 C 5,2 6,2 6,2 7,2 7,3 7,3 L 7,13.0625 C 7.3288322,13.021333 7.6600097,13 8,13 c 0.3399903,0 0.6711678,0.02133 1,0.0625 L 9,3 C 9,0 6,0 6,0 z"
       id="middle" />
    <path
       style="fill:#000000;fill-opacity:1;stroke:none"
       d="m 13.90625,3.03125 c -1.517938,0.097897 -2.375,1.5625 -2.375,1.5625 l -1.5,2.59375 1.75,1 1.5,-2.59375 c 0.375,-0.6495191 0.951743,-0.5375301 1.21875,-0.4375 0.05711,0.032972 -0.04056,-0.033088 0.125,0.0625 0.866026,0.4999999 0.375,1.375 0.375,1.375 l -4.03125,6.96875 c 0.628229,0.250404 1.211933,0.575453 1.75,0.96875 l 4,-6.9375 C 18.21875,4.9956738 15.625,3.5 15.625,3.5 14.975481,3.125 14.412229,2.9986178 13.90625,3.03125 z"
       id="ring" />
    <path
       style="fill:#000000;fill-opacity:1;stroke:none"
       d="m 19.40625,10.09375 c -0.837019,0.05024 -1.5,0.40625 -1.5,0.40625 l -2.59375,1.5 1,1.75 2.59375,-1.5 c 0.866026,-0.5 1.375,0.34375 1.375,0.34375 0.499999,0.866025 -0.375,1.375 -0.375,1.375 l -5,3.03125 c 0.317659,0.547305 0.56834,1.130383 0.75,1.75 l 5.25,-3.03125 c 2.598077,-1.5 1.09375,-4.125 1.09375,-4.125 -0.75,-1.299038 -1.756731,-1.55024 -2.59375,-1.5 z"
       id="baby" />
  </g>
</svg>
