<?xml version="1.0" encoding="UTF-8" standalone="no"?>
<!-- Created with Inkscape (http://www.inkscape.org/) -->

<svg
   xmlns:dc="http://purl.org/dc/elements/1.1/"
   xmlns:cc="http://creativecommons.org/ns#"
   xmlns:rdf="http://www.w3.org/1999/02/22-rdf-syntax-ns#"
   xmlns:svg="http://www.w3.org/2000/svg"
   xmlns="http://www.w3.org/2000/svg"
   xmlns:sodipodi="http://sodipodi.sourceforge.net/DTD/sodipodi-0.dtd"
   xmlns:inkscape="http://www.inkscape.org/namespaces/inkscape"
   width="25"
   height="29"
   id="svg3198"
   sodipodi:version="0.32"
   inkscape:version="0.47 r22583"
   version="1.0"
   sodipodi:docname="01-09-009-01-01.svg"
   inkscape:output_extension="org.inkscape.output.svg.inkscape">
  <defs
     id="defs3200">
    <inkscape:perspective
       sodipodi:type="inkscape:persp3d"
       inkscape:vp_x="0 : 526.18109 : 1"
       inkscape:vp_y="0 : 1000 : 0"
       inkscape:vp_z="744.09448 : 526.18109 : 1"
       inkscape:persp3d-origin="372.04724 : 350.78739 : 1"
       id="perspective3206" />
  </defs>
  <sodipodi:namedview
     id="namedview3727"
     pagecolor="#ffffff"
     bordercolor="#666666"
     borderopacity="1.0"
     gridtolerance="10000"
     guidetolerance="10"
     objecttolerance="10"
     inkscape:pageopacity="0.0"
     inkscape:pageshadow="2"
     inkscape:zoom="18.370197"
     inkscape:cx="12.419085"
     inkscape:cy="14.232909"
     inkscape:document-units="px"
     inkscape:current-layer=""
     showgrid="true"
     inkscape:window-width="1123"
     inkscape:window-height="791"
     inkscape:window-x="0"
     inkscape:window-y="0"
     inkscape:window-maximized="0">
    <inkscape:grid
       type="xygrid"
       id="grid3208"
       visible="true"
       enabled="true" />
  </sodipodi:namedview>
  <metadata
     id="metadata3203">
    <rdf:RDF>
      <cc:Work
         rdf:about="">
        <dc:format>image/svg+xml</dc:format>
        <dc:type
           rdf:resource="http://purl.org/dc/dcmitype/StillImage" />
        <dc:title></dc:title>
      </cc:Work>
    </rdf:RDF>
  </metadata>
  <g
     inkscape:label="Layer 1"
     inkscape:groupmode="layer"
     id="">
    <path
       sodipodi:type="arc"
       style="fill:#000000;fill-opacity:1;stroke:none"
       id="base"
       sodipodi:cx="17"
       sodipodi:cy="21"
       sodipodi:rx="8"
       sodipodi:ry="8"
       d="M 25,21 A 8,8 0 1 1 9,21 8,8 0 1 1 25,21 z" />
    <path
       sodipodi:type="arc"
       style="fill:#ffffff;fill-opacity:1;stroke:none"
       id="fill"
       sodipodi:cx="17"
       sodipodi:cy="21"
       sodipodi:rx="6"
       sodipodi:ry="6"
       d="m 23,21 a 6,6 0 1 1 -12,0 6,6 0 1 1 12,0 z" />
    <path
       style="fill:#000000;fill-opacity:1;stroke:none"
       d="M 15 0 C 12 0 12 3 12 3 L 12 6 L 14 6 L 14 3 C 14 2 15 2 15 2 C 16 2 16 3 16 3 L 16 11.0625 C 16.326309 11.030367 16.665244 11 17 11 C 17.334756 11 17.673691 11.030367 18 11.0625 L 18 3 C 18 0 15 0 15 0 z "
       id="middle" />
    <path
       style="fill:#000000;fill-opacity:1;stroke:none"
       d="M 7.375 3.8125 C 6.5379809 3.8627405 5.90625 4.25 5.90625 4.25 C 3.3081738 5.75 4.8125 8.34375 4.8125 8.34375 L 6.3125 10.9375 L 8.03125 9.9375 L 6.53125 7.34375 C 6.03125 6.4777246 6.90625 5.96875 6.90625 5.96875 C 7.7722754 5.46875 8.28125 6.34375 8.28125 6.34375 L 11.8125 12.46875 C 12.371866 12.128871 12.969464 11.819907 13.59375 11.59375 L 10 5.34375 C 9.25 4.0447119 8.2120191 3.7622595 7.375 3.8125 z "
       id="ring" />
    <path
       style="fill:#000000;fill-opacity:1;stroke:none"
       d="M 3.65625 11 C 2.516869 11.10358 1.6875 11.9375 1.6875 11.9375 C -0.4338203 14.05882 1.6875 16.15625 1.6875 16.15625 L 3.8125 18.28125 L 5.21875 16.875 L 3.09375 14.75 C 2.3866432 14.042893 3.09375 13.34375 3.09375 13.34375 C 3.8008568 12.636644 4.5 13.34375 4.5 13.34375 L 7.96875 16.6875 C 8.2550681 16.086888 8.6046724 15.527227 9 15 L 5.9375 11.9375 C 5.1420049 11.142005 4.3398786 10.937852 3.65625 11 z "
       id="baby" />
  </g>
</svg>
