<?xml version="1.0" encoding="UTF-8" standalone="no"?>
<!-- Created with Inkscape (http://www.inkscape.org/) -->

<svg
   xmlns:dc="http://purl.org/dc/elements/1.1/"
   xmlns:cc="http://creativecommons.org/ns#"
   xmlns:rdf="http://www.w3.org/1999/02/22-rdf-syntax-ns#"
   xmlns:svg="http://www.w3.org/2000/svg"
   xmlns="http://www.w3.org/2000/svg"
   xmlns:sodipodi="http://sodipodi.sourceforge.net/DTD/sodipodi-0.dtd"
   xmlns:inkscape="http://www.inkscape.org/namespaces/inkscape"
   width="23"
   height="29"
   id="svg3198"
   sodipodi:version="0.32"
   inkscape:version="0.47 r22583"
   version="1.0"
   sodipodi:docname="01-09-009-01-05.svg"
   inkscape:output_extension="org.inkscape.output.svg.inkscape">
  <defs
     id="defs3200">
    <inkscape:perspective
       sodipodi:type="inkscape:persp3d"
       inkscape:vp_x="0 : 526.18109 : 1"
       inkscape:vp_y="0 : 1000 : 0"
       inkscape:vp_z="744.09448 : 526.18109 : 1"
       inkscape:persp3d-origin="372.04724 : 350.78739 : 1"
       id="perspective3206" />
  </defs>
  <sodipodi:namedview
     id="namedview3727"
     pagecolor="#ffffff"
     bordercolor="#666666"
     borderopacity="1.0"
     gridtolerance="10000"
     guidetolerance="10"
     objecttolerance="10"
     inkscape:pageopacity="0.0"
     inkscape:pageshadow="2"
     inkscape:zoom="18.370197"
     inkscape:cx="12.419085"
     inkscape:cy="14.232909"
     inkscape:document-units="px"
     inkscape:current-layer=""
     showgrid="true"
     inkscape:window-width="1123"
     inkscape:window-height="791"
     inkscape:window-x="0"
     inkscape:window-y="0"
     inkscape:window-maximized="0">
    <inkscape:grid
       type="xygrid"
       id="grid3208"
       visible="true"
       enabled="true" />
  </sodipodi:namedview>
  <metadata
     id="metadata3203">
    <rdf:RDF>
      <cc:Work
         rdf:about="">
        <dc:format>image/svg+xml</dc:format>
        <dc:type
           rdf:resource="http://purl.org/dc/dcmitype/StillImage" />
        <dc:title></dc:title>
      </cc:Work>
    </rdf:RDF>
  </metadata>
  <g
     inkscape:label="Layer 1"
     inkscape:groupmode="layer"
     id="">
    <path
       sodipodi:type="arc"
       style="fill:#000000;fill-opacity:1;stroke:none"
       id="base"
       sodipodi:cx="8"
       sodipodi:cy="21"
       sodipodi:rx="8"
       sodipodi:ry="8"
       d="M 16,21 A 8,8 0 1 1 0,21 8,8 0 1 1 16,21 z" />
    <path
       style="fill:#000000;fill-opacity:1;stroke:none"
       d="M 6 0 C 3 0 3 3 3 3 L 3 6 L 5 6 L 5 3 C 5 2 6 2 6 2 C 7 2 7 3 7 3 L 7 11.0625 C 7.3263085 11.030367 7.6652437 11 8 11 C 8.3347563 11 8.6736915 11.030367 9 11.0625 L 9 3 C 9 0 6 0 6 0 z "
       id="middle" />
    <path
       style="fill:#000000;fill-opacity:1;stroke:none"
       d="M 13.90625 3.03125 C 12.388312 3.129147 11.53125 4.59375 11.53125 4.59375 L 10.03125 7.1875 L 11.78125 8.1875 L 13.28125 5.59375 C 13.65625 4.9442309 14.232993 5.0562199 14.5 5.15625 C 14.55711 5.189222 14.45944 5.123162 14.625 5.21875 C 15.491026 5.7187499 15 6.59375 15 6.59375 L 11.96875 11.8125 C 12.591884 12.081221 13.16881 12.428349 13.71875 12.8125 L 16.71875 7.59375 C 18.21875 4.9956738 15.625 3.5 15.625 3.5 C 14.975481 3.125 14.412229 2.9986178 13.90625 3.03125 z "
       id="ring" />
    <path
       style="fill:#000000;fill-opacity:1;stroke:none"
       d="M 19.40625 10.09375 C 18.569231 10.14399 17.90625 10.5 17.90625 10.5 L 15.3125 12 L 16.3125 13.75 L 18.90625 12.25 C 19.772276 11.75 20.28125 12.59375 20.28125 12.59375 C 20.781249 13.459775 19.90625 13.96875 19.90625 13.96875 L 16.625 15.96875 C 16.944645 16.517372 17.225718 17.110186 17.4375 17.71875 L 20.90625 15.71875 C 23.504327 14.21875 22 11.59375 22 11.59375 C 21.25 10.294712 20.243269 10.04351 19.40625 10.09375 z "
       id="baby" />
  </g>
</svg>
