<?xml version="1.0" encoding="UTF-8" standalone="no"?>
<svg
   xmlns:dc="http://purl.org/dc/elements/1.1/"
   xmlns:cc="http://creativecommons.org/ns#"
   xmlns:rdf="http://www.w3.org/1999/02/22-rdf-syntax-ns#"
   xmlns:svg="http://www.w3.org/2000/svg"
   xmlns="http://www.w3.org/2000/svg"
   xmlns:sodipodi="http://sodipodi.sourceforge.net/DTD/sodipodi-0.dtd"
   xmlns:inkscape="http://www.inkscape.org/namespaces/inkscape"
   version="1.0"
   width="23"
   height="9"
   id="svg2"
   inkscape:version="0.47 r22583"
   sodipodi:docname="04-02-005-05-04-01.svg">
  <defs
     id="defs14">
    <inkscape:perspective
       sodipodi:type="inkscape:persp3d"
       inkscape:vp_x="0 : 2 : 1"
       inkscape:vp_y="0 : 1000 : 0"
       inkscape:vp_z="8 : 2 : 1"
       inkscape:persp3d-origin="4 : 1.3333333 : 1"
       id="perspective16" />
  </defs>
  <sodipodi:namedview
     pagecolor="#ffffff"
     bordercolor="#666666"
     borderopacity="1"
     objecttolerance="10"
     gridtolerance="10"
     guidetolerance="10"
     inkscape:pageopacity="0"
     inkscape:pageshadow="2"
     inkscape:window-width="1035"
     inkscape:window-height="791"
     id="namedview12"
     showgrid="true"
     inkscape:zoom="15.81"
     inkscape:cx="12.443801"
     inkscape:cy="2.3197343"
     inkscape:window-x="208"
     inkscape:window-y="0"
     inkscape:window-maximized="0"
     inkscape:current-layer="svg2">
    <inkscape:grid
       type="xygrid"
       id="grid2822" />
  </sodipodi:namedview>
  <metadata
     id="metadata4">
Valerie Sutton's pixel definition of the
ISWA 2010 symbol ID 04-02-004-01-05-01
transformed by Stephen E Slevinski Jr
using line and fill polygon tracing
<rdf:RDF>
  <cc:Work
     rdf:about="">
    <dc:format>image/svg+xml</dc:format>
    <dc:type
       rdf:resource="http://purl.org/dc/dcmitype/StillImage" />
    <dc:title />
  </cc:Work>
</rdf:RDF>
</metadata>
  <path
     style="fill:#000000;fill-opacity:1;stroke:none"
     d="M 5.5,0 C 3.0147186,0 1,1.790861 1,4 L 0,4 0,5 1,5 C 1,7.209139 3.0147186,9 5.5,9 7.9852814,9 10,7.209139 10,5 l 1,0 0,-1 -1,0 C 10,1.790861 7.9852814,0 5.5,0 z m 0,1.5 C 7.4329966,1.5 9,2.6192881 9,4 L 2,4 C 2,2.6192881 3.5670034,1.5 5.5,1.5 z M 2,5 9,5 C 9,6.3807119 7.4329966,7.5 5.5,7.5 3.5670034,7.5 2,6.3807119 2,5 z"
     id="path2857" />
  <path
     style="fill:#000000;fill-opacity:1;stroke:none"
     d="M 17.5,0 C 15.014719,0 13,1.790861 13,4 l -1,0 0,1 1,0 c 0,2.209139 2.014719,4 4.5,4 C 19.985281,9 22,7.209139 22,5 l 1,0 0,-1 -1,0 C 22,1.790861 19.985281,0 17.5,0 z m 0,1.5 C 19.432997,1.5 21,2.6192881 21,4 L 14,4 C 14,2.6192881 15.567003,1.5 17.5,1.5 z M 14,5 21,5 C 21,6.3807119 19.432997,7.5 17.5,7.5 15.567003,7.5 14,6.3807119 14,5 z"
     id="path2960" />
</svg>
