<?xml version="1.0" encoding="UTF-8" standalone="no"?>
<svg
   xmlns:dc="http://purl.org/dc/elements/1.1/"
   xmlns:cc="http://creativecommons.org/ns#"
   xmlns:rdf="http://www.w3.org/1999/02/22-rdf-syntax-ns#"
   xmlns:svg="http://www.w3.org/2000/svg"
   xmlns="http://www.w3.org/2000/svg"
   xmlns:sodipodi="http://sodipodi.sourceforge.net/DTD/sodipodi-0.dtd"
   xmlns:inkscape="http://www.inkscape.org/namespaces/inkscape"
   version="1.0"
   width="22"
   height="35"
   id="svg2"
   inkscape:version="0.47 r22583"
   sodipodi:docname="02-03-014-01-01-01.svg">
  <defs
     id="defs16">
    <inkscape:perspective
       sodipodi:type="inkscape:persp3d"
       inkscape:vp_x="0 : 23 : 1"
       inkscape:vp_y="0 : 1000 : 0"
       inkscape:vp_z="36 : 23 : 1"
       inkscape:persp3d-origin="18 : 15.333333 : 1"
       id="perspective18" />
  </defs>
  <sodipodi:namedview
     pagecolor="#ffffff"
     bordercolor="#666666"
     borderopacity="1"
     objecttolerance="10"
     gridtolerance="10"
     guidetolerance="10"
     inkscape:pageopacity="0"
     inkscape:pageshadow="2"
     inkscape:window-width="964"
     inkscape:window-height="721"
     id="namedview14"
     showgrid="true"
     inkscape:zoom="12.642597"
     inkscape:cx="10.778085"
     inkscape:cy="16.71331"
     inkscape:window-x="365"
     inkscape:window-y="0"
     inkscape:window-maximized="0"
     inkscape:current-layer="svg2"
     showborder="true">
    <inkscape:grid
       type="xygrid"
       id="grid2824"
       empspacing="5"
       visible="true"
       enabled="true"
       snapvisiblegridlinesonly="true" />
  </sodipodi:namedview>
  <metadata
     id="metadata4">
Valerie Sutton's pixel definition of the
ISWA 2010 symbol ID 04-01-003-01-01-01
transformed by Stephen E Slevinski Jr
using line and fill polygon tracing
<rdf:RDF>
  <cc:Work
     rdf:about="">
    <dc:format>image/svg+xml</dc:format>
    <dc:type
       rdf:resource="http://purl.org/dc/dcmitype/StillImage" />
    <dc:title />
  </cc:Work>
</rdf:RDF>
</metadata>
  <path
     style="fill:#000000;fill-opacity:1;stroke:none"
     d="M 8,7 8,35 9,35 9,7 8,7 z"
     id="path2831" />
  <path
     style="fill:#000000;fill-opacity:1;stroke:none"
     d="m 13,7 0,28 1,0 0,-28 -1,0 z"
     id="path2833" />
  <path
     style="fill:#ffffff;fill-opacity:1;stroke:none"
     d="M 9,7 9,35 13,35 13,7 9,7 z"
     id="rect2821" />
  <path
     style="fill:#000000;fill-opacity:1;stroke:none"
     d="m 20.506096,15.343146 c -5.076816,-5.076816 -13.3079595,-5.076816 -18.3847756,0 l 0.7071068,0.707107 c 4.6862913,-4.686292 12.2842708,-4.686292 16.9705618,0 l 1.414214,1.414213 0.707107,-0.707107 -1.414214,-1.414213 z"
     id="path2910" />
  <path
     style="fill:#ffffff;fill-opacity:1;stroke:none"
     d="m 19.798989,16.050253 c -4.686291,-4.686292 -12.2842705,-4.686292 -16.9705618,0 l 2.1213203,2.12132 c 3.5147195,-3.514719 9.2132025,-3.514719 12.7279215,0 l 1.414214,1.414213 2.12132,-2.12132 -1.414214,-1.414213 z"
     id="path2918" />
  <path
     style="fill:#000000;fill-opacity:1;stroke:none"
     d="m 17.677669,18.171573 c -3.514719,-3.514719 -9.213202,-3.514719 -12.7279215,0 l 0.7071068,0.707107 c 3.1241947,-3.124195 8.1895137,-3.124195 11.3137077,0 l 1.414214,1.414213 0.707108,-0.707107 -1.414215,-1.414213 z"
     id="path2923" />
  <path
     style="fill:#000000;fill-opacity:1;stroke:none"
     d="M 7.7781748,21.000001 0,21 3e-7,13.221826 7.7781748,21.000001 z"
     id="path2964" />
  <path
     style="fill:#000000;fill-opacity:1;stroke:none"
     d="M 18,7 4,7 11,0 18,7 z"
     id="path2966" />
  <path
     id="path3250"
     d="m 20.506096,26.343146 c -5.076816,-5.076816 -13.3079595,-5.076816 -18.3847756,0 l 0.7071068,0.707107 c 4.6862913,-4.686292 12.2842708,-4.686292 16.9705618,0 l 1.414214,1.414213 0.707107,-0.707107 -1.414214,-1.414213 z"
     style="fill:#000000;fill-opacity:1;stroke:none" />
  <path
     id="path3252"
     d="m 19.798989,27.050253 c -4.686291,-4.686292 -12.2842705,-4.686292 -16.9705618,0 l 2.1213203,2.12132 c 3.5147195,-3.514719 9.2132025,-3.514719 12.7279215,0 l 1.414214,1.414213 2.12132,-2.12132 -1.414214,-1.414213 z"
     style="fill:#ffffff;fill-opacity:1;stroke:none" />
  <path
     id="path3254"
     d="m 17.677669,29.171573 c -3.514719,-3.514719 -9.213202,-3.514719 -12.7279215,0 l 0.7071068,0.707107 c 3.1241947,-3.124195 8.1895137,-3.124195 11.3137077,0 l 1.414214,1.414213 0.707108,-0.707107 -1.414215,-1.414213 z"
     style="fill:#000000;fill-opacity:1;stroke:none" />
  <path
     id="path3256"
     d="M 7.7781748,32.000001 0,32 3e-7,24.221826 7.7781748,32.000001 z"
     style="fill:#000000;fill-opacity:1;stroke:none" />
</svg>
