<?xml version="1.0" encoding="UTF-8" standalone="no"?>
<svg
   xmlns:dc="http://purl.org/dc/elements/1.1/"
   xmlns:cc="http://creativecommons.org/ns#"
   xmlns:rdf="http://www.w3.org/1999/02/22-rdf-syntax-ns#"
   xmlns:svg="http://www.w3.org/2000/svg"
   xmlns="http://www.w3.org/2000/svg"
   xmlns:sodipodi="http://sodipodi.sourceforge.net/DTD/sodipodi-0.dtd"
   xmlns:inkscape="http://www.inkscape.org/namespaces/inkscape"
   version="1.0"
   width="11"
   height="20"
   id="svg2"
   inkscape:version="0.47 r22583"
   sodipodi:docname="02-08-010-01-04-08.svg">
  <defs
     id="defs16">
    <inkscape:perspective
       sodipodi:type="inkscape:persp3d"
       inkscape:vp_x="0 : 23 : 1"
       inkscape:vp_y="0 : 1000 : 0"
       inkscape:vp_z="36 : 23 : 1"
       inkscape:persp3d-origin="18 : 15.333333 : 1"
       id="perspective18" />
  </defs>
  <sodipodi:namedview
     pagecolor="#ffffff"
     bordercolor="#666666"
     borderopacity="1"
     objecttolerance="10"
     gridtolerance="10"
     guidetolerance="10"
     inkscape:pageopacity="0"
     inkscape:pageshadow="2"
     inkscape:window-width="964"
     inkscape:window-height="721"
     id="namedview14"
     showgrid="true"
     inkscape:zoom="16.719951"
     inkscape:cx="5.4983671"
     inkscape:cy="9.997031"
     inkscape:window-x="365"
     inkscape:window-y="0"
     inkscape:window-maximized="0"
     inkscape:current-layer="svg2"
     showborder="true">
    <inkscape:grid
       type="xygrid"
       id="grid2824"
       empspacing="5"
       visible="true"
       enabled="true"
       snapvisiblegridlinesonly="true" />
  </sodipodi:namedview>
  <metadata
     id="metadata4">
Valerie Sutton's pixel definition of the
ISWA 2010 symbol ID 04-01-003-01-01-01
transformed by Stephen E Slevinski Jr
using line and fill polygon tracing
<rdf:RDF>
  <cc:Work
     rdf:about="">
    <dc:format>image/svg+xml</dc:format>
    <dc:type
       rdf:resource="http://purl.org/dc/dcmitype/StillImage" />
    <dc:title></dc:title>
  </cc:Work>
</rdf:RDF>
</metadata>
  <path
     style="fill:#000000;fill-opacity:1;stroke:none"
     d="M 0 0 L 0 16 C 0 18.209139 1.790861 20 4 20 C 7.8659932 20 11 17.313708 11 14 L 9 14 C 9 16.209139 6.7614237 18 4 18 C 2.8954305 18 2 17.104569 2 16 L 2 11.375 C 2.5657383 11.767804 3.2590892 12 4 12 C 5.932997 12 7.5 10.432997 7.5 8.5 C 7.5 6.567003 5.932997 5 4 5 C 3.2590892 5 2.5657383 5.2321956 2 5.625 L 2 0 L 0 0 z M 4 6.5 C 5.104569 6.5 6 7.395431 6 8.5 C 6 9.604569 5.104569 10.5 4 10.5 C 2.8954305 10.5 2 9.604569 2 8.5 C 2 7.395431 2.8954305 6.5 4 6.5 z "
     id="path2816" />
</svg>
