<?xml version="1.0" encoding="UTF-8" standalone="no"?>
<svg
   xmlns:dc="http://purl.org/dc/elements/1.1/"
   xmlns:cc="http://creativecommons.org/ns#"
   xmlns:rdf="http://www.w3.org/1999/02/22-rdf-syntax-ns#"
   xmlns:svg="http://www.w3.org/2000/svg"
   xmlns="http://www.w3.org/2000/svg"
   xmlns:sodipodi="http://sodipodi.sourceforge.net/DTD/sodipodi-0.dtd"
   xmlns:inkscape="http://www.inkscape.org/namespaces/inkscape"
   version="1.0"
   width="29"
   height="20"
   id="svg2"
   inkscape:version="0.47 r22583"
   sodipodi:docname="02-08-010-01-02-06.svg">
  <defs
     id="defs16">
    <inkscape:perspective
       sodipodi:type="inkscape:persp3d"
       inkscape:vp_x="0 : 23 : 1"
       inkscape:vp_y="0 : 1000 : 0"
       inkscape:vp_z="36 : 23 : 1"
       inkscape:persp3d-origin="18 : 15.333333 : 1"
       id="perspective18" />
  </defs>
  <sodipodi:namedview
     pagecolor="#ffffff"
     bordercolor="#666666"
     borderopacity="1"
     objecttolerance="10"
     gridtolerance="10"
     guidetolerance="10"
     inkscape:pageopacity="0"
     inkscape:pageshadow="2"
     inkscape:window-width="964"
     inkscape:window-height="721"
     id="namedview14"
     showgrid="true"
     inkscape:zoom="16.719951"
     inkscape:cx="14.495695"
     inkscape:cy="9.997031"
     inkscape:window-x="365"
     inkscape:window-y="0"
     inkscape:window-maximized="0"
     inkscape:current-layer="svg2"
     showborder="true">
    <inkscape:grid
       type="xygrid"
       id="grid2824"
       empspacing="5"
       visible="true"
       enabled="true"
       snapvisiblegridlinesonly="true" />
  </sodipodi:namedview>
  <metadata
     id="metadata4">
Valerie Sutton's pixel definition of the
ISWA 2010 symbol ID 04-01-003-01-01-01
transformed by Stephen E Slevinski Jr
using line and fill polygon tracing
<rdf:RDF>
  <cc:Work
     rdf:about="">
    <dc:format>image/svg+xml</dc:format>
    <dc:type
       rdf:resource="http://purl.org/dc/dcmitype/StillImage" />
    <dc:title></dc:title>
  </cc:Work>
</rdf:RDF>
</metadata>
  <path
     style="fill:#000000;fill-opacity:1;stroke:none"
     d="M 19,5 28.899495,5 19,14.899495 19,5 z m 1.016466,1.016466 0,6.45235 6.45235,-6.45235 -6.45235,0 z"
     id="path2839" />
  <path
     style="fill:#000000;fill-opacity:1;stroke:none"
     d="M 2.0294376,0.7573595 8.1282336,6.856156 C 8.250516,6.178364 8.5766022,5.523903 9.1005054,5 10.467341,3.633165 12.683418,3.633165 14.050253,5 c 1.366835,1.366836 1.366835,3.582912 0,4.949748 -0.523903,0.523903 -1.178364,0.849989 -1.856155,0.972272 l 6.098796,6.098795 c 1.171572,1.171573 3.071068,1.171573 4.24264,0 1.171573,-1.171572 0.854991,-3.38765 -0.707107,-4.949747 l 4.242641,-4.242641 c 2.343146,2.343146 2.343146,6.142136 0,8.485282 l -2.12132,2.12132 c -1.952622,1.952622 -5.118446,1.952622 -7.071068,0 L 0.615224,2.171573 2.0294376,0.7573595 z M 10.161166,6.06066 c -0.7810487,0.781049 -0.7810487,2.047379 0,2.828428 0.781048,0.781048 2.047379,0.781048 2.828427,0 0.781048,-0.781049 0.781048,-2.047379 0,-2.828428 -0.781048,-0.781048 -2.047379,-0.781048 -2.828427,0 z"
     id="path3173" />
  <path
     style="fill:#ffffff;fill-opacity:1;stroke:none"
     d="m 20.016466,6.016466 6.45235,0 -6.45235,6.45235 0,-6.45235 z"
     id="path2912" />
</svg>
