<?xml version="1.0" encoding="UTF-8" standalone="no"?>
<svg
   xmlns:dc="http://purl.org/dc/elements/1.1/"
   xmlns:cc="http://creativecommons.org/ns#"
   xmlns:rdf="http://www.w3.org/1999/02/22-rdf-syntax-ns#"
   xmlns:svg="http://www.w3.org/2000/svg"
   xmlns="http://www.w3.org/2000/svg"
   xmlns:sodipodi="http://sodipodi.sourceforge.net/DTD/sodipodi-0.dtd"
   xmlns:inkscape="http://www.inkscape.org/namespaces/inkscape"
   version="1.0"
   width="25"
   height="18"
   id="svg2"
   inkscape:version="0.47 r22583"
   sodipodi:docname="02-08-010-01-03-02.svg">
  <defs
     id="defs16">
    <inkscape:perspective
       sodipodi:type="inkscape:persp3d"
       inkscape:vp_x="0 : 23 : 1"
       inkscape:vp_y="0 : 1000 : 0"
       inkscape:vp_z="36 : 23 : 1"
       inkscape:persp3d-origin="18 : 15.333333 : 1"
       id="perspective18" />
  </defs>
  <sodipodi:namedview
     pagecolor="#ffffff"
     bordercolor="#666666"
     borderopacity="1"
     objecttolerance="10"
     gridtolerance="10"
     guidetolerance="10"
     inkscape:pageopacity="0"
     inkscape:pageshadow="2"
     inkscape:window-width="964"
     inkscape:window-height="721"
     id="namedview14"
     showgrid="true"
     inkscape:zoom="16.178792"
     inkscape:cx="12.505053"
     inkscape:cy="9.0036384"
     inkscape:window-x="365"
     inkscape:window-y="0"
     inkscape:window-maximized="0"
     inkscape:current-layer="svg2"
     showborder="true">
    <inkscape:grid
       type="xygrid"
       id="grid2824"
       empspacing="5"
       visible="true"
       enabled="true"
       snapvisiblegridlinesonly="true" />
  </sodipodi:namedview>
  <metadata
     id="metadata4">
Valerie Sutton's pixel definition of the
ISWA 2010 symbol ID 04-01-003-01-01-01
transformed by Stephen E Slevinski Jr
using line and fill polygon tracing
<rdf:RDF>
  <cc:Work
     rdf:about="">
    <dc:format>image/svg+xml</dc:format>
    <dc:type
       rdf:resource="http://purl.org/dc/dcmitype/StillImage" />
    <dc:title></dc:title>
  </cc:Work>
</rdf:RDF>
</metadata>
  <path
     style="fill:#000000;fill-opacity:1;stroke:none"
     d="m 25,0 0,9.8994952 -1.414213,-1.414214 0,-7.0710676 -7.071068,0 L 15.100505,0 25,0 z"
     id="path2839" />
  <path
     style="fill:#000000;fill-opacity:1;stroke:none"
     d="M 20.757359,5.6568542 10.150758,16.263456 c -1.5620975,1.562097 -4.0947574,1.562097 -5.6568546,0 L 3.0796899,14.849242 C 0.34602,12.115572 0.0294377,7.9999992 2.3725831,5.6568542 l 4.9497475,4.9497478 c -1.5620972,1.562097 -2.1952618,3.461592 -1.4142136,4.24264 0.781049,0.781049 2.0473789,0.781048 2.8284271,0 l 3.2703689,-3.270369 c -0.677792,-0.122282 -1.332252,-0.448368 -1.856155,-0.972271 -1.3668356,-1.3668358 -1.3668356,-3.5829128 0,-4.9497478 1.366835,-1.3668352 3.582912,-1.3668352 4.949747,0 0.523903,0.523903 0.849989,1.178364 0.972272,1.856155 l 3.270369,-3.2703685 1.414213,1.4142135 z m -6.717514,1.06066 c -0.781048,-0.781048 -2.047379,-0.781048 -2.828427,0 -0.781048,0.781048 -0.781048,2.047379 0,2.828427 0.781049,0.7810488 2.047379,0.7810488 2.828427,0 0.781048,-0.781048 0.781049,-2.047378 0,-2.828427 z"
     id="path2816" />
</svg>
