<?xml version="1.0" encoding="UTF-8" standalone="no"?>
<svg
   xmlns:dc="http://purl.org/dc/elements/1.1/"
   xmlns:cc="http://creativecommons.org/ns#"
   xmlns:rdf="http://www.w3.org/1999/02/22-rdf-syntax-ns#"
   xmlns:svg="http://www.w3.org/2000/svg"
   xmlns="http://www.w3.org/2000/svg"
   xmlns:sodipodi="http://sodipodi.sourceforge.net/DTD/sodipodi-0.dtd"
   xmlns:inkscape="http://www.inkscape.org/namespaces/inkscape"
   version="1.0"
   width="20"
   height="15"
   id="svg2"
   inkscape:version="0.47 r22583"
   sodipodi:docname="02-08-010-01-02-03.svg">
  <defs
     id="defs16">
    <inkscape:perspective
       sodipodi:type="inkscape:persp3d"
       inkscape:vp_x="0 : 23 : 1"
       inkscape:vp_y="0 : 1000 : 0"
       inkscape:vp_z="36 : 23 : 1"
       inkscape:persp3d-origin="18 : 15.333333 : 1"
       id="perspective18" />
  </defs>
  <sodipodi:namedview
     pagecolor="#ffffff"
     bordercolor="#666666"
     borderopacity="1"
     objecttolerance="10"
     gridtolerance="10"
     guidetolerance="10"
     inkscape:pageopacity="0"
     inkscape:pageshadow="2"
     inkscape:window-width="964"
     inkscape:window-height="721"
     id="namedview14"
     showgrid="true"
     inkscape:zoom="16.91"
     inkscape:cx="10.00281"
     inkscape:cy="7.5021077"
     inkscape:window-x="365"
     inkscape:window-y="0"
     inkscape:window-maximized="0"
     inkscape:current-layer="svg2"
     showborder="true">
    <inkscape:grid
       type="xygrid"
       id="grid2824"
       empspacing="5"
       visible="true"
       enabled="true"
       snapvisiblegridlinesonly="true" />
  </sodipodi:namedview>
  <metadata
     id="metadata4">
Valerie Sutton's pixel definition of the
ISWA 2010 symbol ID 04-01-003-01-01-01
transformed by Stephen E Slevinski Jr
using line and fill polygon tracing
<rdf:RDF>
  <cc:Work
     rdf:about="">
    <dc:format>image/svg+xml</dc:format>
    <dc:type
       rdf:resource="http://purl.org/dc/dcmitype/StillImage" />
    <dc:title></dc:title>
  </cc:Work>
</rdf:RDF>
</metadata>
  <path
     style="fill:#000000;fill-opacity:1;stroke:none"
     d="M 0.2426407,1.6568543 11.556349,12.970562 c 1.562097,1.562098 4.094758,1.562098 5.656855,0 2.73367,-2.73367 3.050252,-6.849242 0.707106,-9.1923874 l -1.414213,1.4142136 c 1.562097,1.5620971 1.245515,4.4113392 -0.707107,6.3639608 -0.781048,0.781048 -2.047379,0.781048 -2.828427,0 L 9.7001939,8.2859804 c 0.6777921,-0.122283 1.3322521,-0.4483688 1.8561551,-0.9722719 1.366836,-1.3668353 1.366836,-3.5829122 0,-4.9497474 -1.366835,-1.3668353 -3.582912,-1.3668353 -4.9497473,0 C 6.0826986,2.8878641 5.7566126,3.5423243 5.6343299,4.2201164 L 1.6568542,0.2426407 0.2426407,1.6568543 z m 7.4246212,1.7677669 c 0.7810482,-0.7810482 2.0473789,-0.7810482 2.8284271,0 0.781048,0.7810483 0.781048,2.0473789 0,2.8284272 -0.7810486,0.7810485 -2.0473789,0.7810482 -2.8284271,0 -0.7810483,-0.7810483 -0.7810486,-2.0473786 0,-2.8284272 z"
     id="path2816" />
</svg>
