<?xml version="1.0" encoding="UTF-8" standalone="no"?>
<svg
   xmlns:dc="http://purl.org/dc/elements/1.1/"
   xmlns:cc="http://creativecommons.org/ns#"
   xmlns:rdf="http://www.w3.org/1999/02/22-rdf-syntax-ns#"
   xmlns:svg="http://www.w3.org/2000/svg"
   xmlns="http://www.w3.org/2000/svg"
   xmlns:sodipodi="http://sodipodi.sourceforge.net/DTD/sodipodi-0.dtd"
   xmlns:inkscape="http://www.inkscape.org/namespaces/inkscape"
   version="1.0"
   width="35"
   height="39"
   id="svg2"
   inkscape:version="0.47 r22583"
   sodipodi:docname="04-05-002-01-01-03.svg">
  <defs
     id="defs14">
    <inkscape:perspective
       sodipodi:type="inkscape:persp3d"
       inkscape:vp_x="0 : 17.5 : 1"
       inkscape:vp_y="0 : 1000 : 0"
       inkscape:vp_z="36 : 17.5 : 1"
       inkscape:persp3d-origin="18 : 11.666667 : 1"
       id="perspective16" />
  </defs>
  <sodipodi:namedview
     pagecolor="#ffffff"
     bordercolor="#666666"
     borderopacity="1"
     objecttolerance="10"
     gridtolerance="10"
     guidetolerance="10"
     inkscape:pageopacity="0"
     inkscape:pageshadow="2"
     inkscape:window-width="993"
     inkscape:window-height="789"
     id="namedview12"
     showgrid="true"
     inkscape:zoom="15.487127"
     inkscape:cx="18"
     inkscape:cy="17.5"
     inkscape:window-x="209"
     inkscape:window-y="0"
     inkscape:window-maximized="0"
     inkscape:current-layer="svg2"
     inkscape:snap-grids="true">
    <inkscape:grid
       type="xygrid"
       id="grid2822" />
  </sodipodi:namedview>
  <metadata
     id="metadata4">
Valerie Sutton's pixel definition of the
ISWA 2010 symbol ID 04-03-001-01-01-01
transformed by Stephen E Slevinski Jr
using line and fill polygon tracing
<rdf:RDF>
  <cc:Work
     rdf:about="">
    <dc:format>image/svg+xml</dc:format>
    <dc:type
       rdf:resource="http://purl.org/dc/dcmitype/StillImage" />
    <dc:title />
  </cc:Work>
</rdf:RDF>
</metadata>
  <path
     style="fill:#000000;fill-opacity:1;stroke:none"
     d="m 35,17.5 c 0,6.155463 -3.195222,11.536628 -8,14.65625 -0.279018,-0.607654 -0.679769,-1.147423 -1.0625,-1.6875 C 30.177906,27.702901 33,22.940324 33,17.5 33,8.939586 26.060414,2 17.5,2 8.939586,2 2,8.939586 2,17.5 2,22.940324 4.822094,27.702901 9.0625,30.46875 8.679769,31.008827 8.279018,31.548596 8,32.15625 3.195222,29.036628 0,23.655463 0,17.5 0,7.835017 7.835017,0 17.5,0 27.164983,0 35,7.835017 35,17.5 z"
     id="path2824" />
  <path
     style="fill:#000000;fill-opacity:1;stroke:none"
     d="M 17.5 26 C 13.263021 26 9.659362 28.542447 8 32.15625 C 9.619976 33.080371 11.665034 33.679722 13.125 34.96875 C 13.858923 35.616743 14.84375 37.34375 14.84375 37.34375 C 15.338981 38.319048 16.331284 39 17.5 39 C 18.668716 39 19.661019 38.319048 20.15625 37.34375 C 20.15625 37.34375 21.141077 35.616743 21.875 34.96875 C 23.334966 33.679722 25.437677 33.20769 27 32.15625 C 25.340638 28.542447 21.736979 26 17.5 26 z M 17.5 28 C 20.351264 28 22.862256 29.4095 24.40625 31.5625 C 23.346774 32.223114 22.114564 32.89601 21.21875 33.84375 C 20.386503 34.724239 19.28125 36.90625 19.28125 36.90625 C 18.951112 37.556496 18.279178 38 17.5 38 C 16.720822 38 16.048888 37.556496 15.71875 36.90625 C 15.71875 36.90625 14.613497 34.724239 13.78125 33.84375 C 12.885436 32.89601 11.659793 32.214212 10.59375 31.5625 C 12.137744 29.4095 14.648736 28 17.5 28 z "
     id="path2841" />
</svg>
