<?xml version="1.0" encoding="UTF-8" standalone="no"?>
<svg
   xmlns:dc="http://purl.org/dc/elements/1.1/"
   xmlns:cc="http://creativecommons.org/ns#"
   xmlns:rdf="http://www.w3.org/1999/02/22-rdf-syntax-ns#"
   xmlns:svg="http://www.w3.org/2000/svg"
   xmlns="http://www.w3.org/2000/svg"
   xmlns:sodipodi="http://sodipodi.sourceforge.net/DTD/sodipodi-0.dtd"
   xmlns:inkscape="http://www.inkscape.org/namespaces/inkscape"
   version="1.0"
   width="13"
   height="19"
   id="svg2"
   inkscape:version="0.47 r22583"
   sodipodi:docname="04-05-002-01-03-01.svg">
  <defs
     id="defs14">
    <inkscape:perspective
       sodipodi:type="inkscape:persp3d"
       inkscape:vp_x="0 : 17.5 : 1"
       inkscape:vp_y="0 : 1000 : 0"
       inkscape:vp_z="36 : 17.5 : 1"
       inkscape:persp3d-origin="18 : 11.666667 : 1"
       id="perspective16" />
  </defs>
  <sodipodi:namedview
     pagecolor="#ffffff"
     bordercolor="#666666"
     borderopacity="1"
     objecttolerance="10"
     gridtolerance="10"
     guidetolerance="10"
     inkscape:pageopacity="0"
     inkscape:pageshadow="2"
     inkscape:window-width="993"
     inkscape:window-height="789"
     id="namedview12"
     showgrid="true"
     inkscape:zoom="15.487127"
     inkscape:cx="5.0860489"
     inkscape:cy="9.7516294"
     inkscape:window-x="209"
     inkscape:window-y="0"
     inkscape:window-maximized="0"
     inkscape:current-layer="svg2"
     inkscape:snap-grids="true">
    <inkscape:grid
       type="xygrid"
       id="grid2822" />
  </sodipodi:namedview>
  <metadata
     id="metadata4">
Valerie Sutton's pixel definition of the
ISWA 2010 symbol ID 04-03-001-01-01-01
transformed by Stephen E Slevinski Jr
using line and fill polygon tracing
<rdf:RDF>
  <cc:Work
     rdf:about="">
    <dc:format>image/svg+xml</dc:format>
    <dc:type
       rdf:resource="http://purl.org/dc/dcmitype/StillImage" />
    <dc:title></dc:title>
  </cc:Work>
</rdf:RDF>
</metadata>
  <path
     style="fill:#000000;fill-opacity:1;stroke:none"
     d="m 6.15625,0 c 1.0514402,1.5623232 1.5234718,3.665034 2.8125,5.125 0.6479926,0.733923 2.375,1.71875 2.375,1.71875 C 12.319048,7.338981 13,8.331284 13,9.5 c 0,1.168716 -0.680952,2.161019 -1.65625,2.65625 0,0 -1.7270074,0.984827 -2.375,1.71875 C 7.6797218,15.334966 7.0803714,17.380024 6.15625,19 2.542447,17.340638 0,13.736979 0,9.5 0,5.263021 2.542447,1.6593616 6.15625,0 z M 5.5625,2.59375 C 3.4095002,4.137744 2,6.648736 2,9.5 c 0,2.851264 1.4095002,5.362256 3.5625,6.90625 0.6517121,-1.066043 1.3335098,-2.291686 2.28125,-3.1875 0.880489,-0.832247 3.0625,-1.9375 3.0625,-1.9375 C 11.556496,10.951112 12,10.279178 12,9.5 12,8.720822 11.556496,8.048888 10.90625,7.71875 c 0,0 -2.182011,-1.105253 -3.0625,-1.9375 C 6.8960098,4.885436 6.2231144,3.653226 5.5625,2.59375 z"
     id="path2841" />
</svg>
