<?xml version="1.0" encoding="UTF-8" standalone="no"?>
<svg
   xmlns:dc="http://purl.org/dc/elements/1.1/"
   xmlns:cc="http://creativecommons.org/ns#"
   xmlns:rdf="http://www.w3.org/1999/02/22-rdf-syntax-ns#"
   xmlns:svg="http://www.w3.org/2000/svg"
   xmlns="http://www.w3.org/2000/svg"
   xmlns:sodipodi="http://sodipodi.sourceforge.net/DTD/sodipodi-0.dtd"
   xmlns:inkscape="http://www.inkscape.org/namespaces/inkscape"
   version="1.0"
   width="39"
   height="35"
   id="svg2"
   inkscape:version="0.47 r22583"
   sodipodi:docname="04-05-002-01-01-07.svg">
  <defs
     id="defs14">
    <inkscape:perspective
       sodipodi:type="inkscape:persp3d"
       inkscape:vp_x="0 : 17.5 : 1"
       inkscape:vp_y="0 : 1000 : 0"
       inkscape:vp_z="36 : 17.5 : 1"
       inkscape:persp3d-origin="18 : 11.666667 : 1"
       id="perspective16" />
  </defs>
  <sodipodi:namedview
     pagecolor="#ffffff"
     bordercolor="#666666"
     borderopacity="1"
     objecttolerance="10"
     gridtolerance="10"
     guidetolerance="10"
     inkscape:pageopacity="0"
     inkscape:pageshadow="2"
     inkscape:window-width="993"
     inkscape:window-height="789"
     id="namedview12"
     showgrid="true"
     inkscape:zoom="15.487127"
     inkscape:cx="18"
     inkscape:cy="17.5"
     inkscape:window-x="209"
     inkscape:window-y="0"
     inkscape:window-maximized="0"
     inkscape:current-layer="svg2"
     inkscape:snap-grids="true">
    <inkscape:grid
       type="xygrid"
       id="grid2822" />
  </sodipodi:namedview>
  <metadata
     id="metadata4">
Valerie Sutton's pixel definition of the
ISWA 2010 symbol ID 04-03-001-01-01-01
transformed by Stephen E Slevinski Jr
using line and fill polygon tracing
<rdf:RDF>
  <cc:Work
     rdf:about="">
    <dc:format>image/svg+xml</dc:format>
    <dc:type
       rdf:resource="http://purl.org/dc/dcmitype/StillImage" />
    <dc:title />
  </cc:Work>
</rdf:RDF>
</metadata>
  <path
     style="fill:#000000;fill-opacity:1;stroke:none"
     d="m 17.5,0 c 6.155463,0 11.536628,3.1952218 14.65625,8 1.05144,1.5623232 1.523472,3.665034 2.8125,5.125 0.647993,0.733923 2.375,1.71875 2.375,1.71875 C 38.319048,15.338981 39,16.331284 39,17.5 c 0,1.168716 -0.680952,2.161019 -1.65625,2.65625 0,0 -1.727007,0.984827 -2.375,1.71875 C 33.679722,23.334966 33.080371,25.380024 32.15625,27 29.036628,31.804778 23.655463,35 17.5,35 7.835017,35 0,27.164983 0,17.5 0,7.8350169 7.835017,0 17.5,0 z m 0,2 C 8.939586,2 2,8.9395864 2,17.5 2,26.060414 8.939586,33 17.5,33 c 5.415399,0 10.166138,-2.791987 12.9375,-7 0.932721,-1.728872 2.211364,-3.232666 3.40625,-4.78125 0.880489,-0.832247 3.0625,-1.9375 3.0625,-1.9375 C 37.556496,18.951112 38,18.279178 38,17.5 c 0,-0.779178 -0.443504,-1.451112 -1.09375,-1.78125 0,0 -2.182011,-1.105253 -3.0625,-1.9375 C 32.579279,12.27636 31.428538,10.696007 30.4375,9 27.666138,4.7919868 22.915399,2 17.5,2 z"
     id="path2824" />
  <path
     style="fill:#000000;fill-opacity:1;stroke:none"
     d="m 17.5,19 c -2.761424,0 -5,2.238576 -5,5 0,2.761424 2.238576,5 5,5 2.761424,0 5,-2.238576 5,-5 0,-2.761424 -2.238576,-5 -5,-5 z m 0,1 c 2.209139,0 4,1.790861 4,4 0,2.209139 -1.790861,4 -4,4 -2.209139,0 -4,-1.790861 -4,-4 0,-2.209139 1.790861,-4 4,-4 z"
     id="path2813" />
  <path
     style="fill:#000000;fill-opacity:1;stroke:none"
     d="m 21.5,23.99975 c 0,-0.345951 -0.07369,-0.679835 -0.15625,-1 l -1.59375,0 c -1.796689,0 -3.366043,-0.964279 -4.3125,-2.40625 -1.161009,0.700082 -1.9375,1.951666 -1.9375,3.40625 0,1.454584 0.776491,2.706168 1.9375,3.40625 0.946457,-1.441971 2.51581,-2.40625 4.3125,-2.40625 l 1.59375,0 c 0.08257,-0.320165 0.15625,-0.654049 0.15625,-1 z"
     id="path2818" />
  <path
     style="fill:#000000;fill-opacity:1;stroke:none"
     d="m 28,15 c -1.656854,0 -3,1.343146 -3,3 0,1.656854 1.343146,3 3,3 1.656854,0 3,-1.343146 3,-3 0,-1.656854 -1.343146,-3 -3,-3 z m 0,1 c 1.104569,0 2,0.895431 2,2 0,1.104569 -0.895431,2 -2,2 -1.104569,0 -2,-0.895431 -2,-2 0,-1.104569 0.895431,-2 2,-2 z"
     id="path2823" />
  <path
     style="fill:#ffffff;fill-opacity:1;stroke:none"
     d="m 28,16 c -1.104569,0 -2,0.895431 -2,2 0,1.104569 0.895431,2 2,2 1.104569,0 2,-0.895431 2,-2 0,-1.104569 -0.895431,-2 -2,-2 z m 0,1 c 0.552285,0 1,0.447715 1,1 0,0.552285 -0.447715,1 -1,1 -0.552285,0 -1,-0.447715 -1,-1 0,-0.552285 0.447715,-1 1,-1 z"
     id="path2828" />
  <path
     sodipodi:type="arc"
     style="fill:#000000;fill-opacity:1;stroke:none"
     id="path2833"
     sodipodi:cx="28"
     sodipodi:cy="20"
     sodipodi:rx="1"
     sodipodi:ry="1"
     d="m 29,20 a 1,1 0 1 1 -2,0 1,1 0 1 1 2,0 z"
     transform="translate(0,-2)" />
  <path
     style="fill:#000000;fill-opacity:1;stroke:none"
     d="m 20.177201,13.005637 0,3.844893 0.994369,-0.0221 0.0221,-2.099224 2.165514,2.165515 0.707107,-0.707107 L 21.900776,14.0221 24,14 l 0.0221,-2.099223 2.165514,2.165515 0.707107,-0.707107 -2.165514,-2.165515 2.099223,-0.0221 0.0221,-0.994368 -3.844893,0 0,2.828427 -2.828427,0 z"
     id="rect2835" />
</svg>
