<?xml version="1.0" encoding="UTF-8" standalone="no"?>
<svg
   xmlns:dc="http://purl.org/dc/elements/1.1/"
   xmlns:cc="http://creativecommons.org/ns#"
   xmlns:rdf="http://www.w3.org/1999/02/22-rdf-syntax-ns#"
   xmlns:svg="http://www.w3.org/2000/svg"
   xmlns="http://www.w3.org/2000/svg"
   xmlns:sodipodi="http://sodipodi.sourceforge.net/DTD/sodipodi-0.dtd"
   xmlns:inkscape="http://www.inkscape.org/namespaces/inkscape"
   version="1.0"
   width="35"
   height="35"
   id="svg2"
   inkscape:version="0.47 r22583"
   sodipodi:docname="04-03-002-01-02-03.svg">
  <defs
     id="defs14">
    <inkscape:perspective
       sodipodi:type="inkscape:persp3d"
       inkscape:vp_x="0 : 17.5 : 1"
       inkscape:vp_y="0 : 1000 : 0"
       inkscape:vp_z="36 : 17.5 : 1"
       inkscape:persp3d-origin="18 : 11.666667 : 1"
       id="perspective16" />
  </defs>
  <sodipodi:namedview
     pagecolor="#ffffff"
     bordercolor="#666666"
     borderopacity="1"
     objecttolerance="10"
     gridtolerance="10"
     guidetolerance="10"
     inkscape:pageopacity="0"
     inkscape:pageshadow="2"
     inkscape:window-width="993"
     inkscape:window-height="789"
     id="namedview12"
     showgrid="true"
     inkscape:zoom="15.487127"
     inkscape:cx="18"
     inkscape:cy="17.5"
     inkscape:window-x="209"
     inkscape:window-y="0"
     inkscape:window-maximized="0"
     inkscape:current-layer="svg2"
     inkscape:snap-grids="true">
    <inkscape:grid
       type="xygrid"
       id="grid2822" />
  </sodipodi:namedview>
  <metadata
     id="metadata4">
Valerie Sutton's pixel definition of the
ISWA 2010 symbol ID 04-03-001-01-01-01
transformed by Stephen E Slevinski Jr
using line and fill polygon tracing
<rdf:RDF>
  <cc:Work
     rdf:about="">
    <dc:format>image/svg+xml</dc:format>
    <dc:type
       rdf:resource="http://purl.org/dc/dcmitype/StillImage" />
    <dc:title></dc:title>
  </cc:Work>
</rdf:RDF>
</metadata>
  <path
     style="fill:#000000;fill-opacity:1;stroke:none"
     d="M 5.0952031,5.1560586 C 0.74263346,9.5086278 -0.80306184,15.573051 0.38852356,21.176448 c 0.3612488,1.848209 1.51431304,3.668828 1.63518444,5.61266 0.060762,0.977162 -0.4640388,2.894718 -0.4640388,2.894718 -0.3394586,1.039821 -0.1193002,2.222991 0.7071068,3.049398 0.826407,0.826407 2.0095769,1.046566 3.049398,0.707107 0,0 1.9175562,-0.5248 2.8947183,-0.464039 1.9438317,0.120872 3.8137117,1.143141 5.6126597,1.635185 5.603397,1.191585 11.667819,-0.35411 16.020388,-4.70668 6.834175,-6.834175 6.834175,-17.914562 0,-24.7487384 -6.834175,-6.8341751 -17.914562,-6.8341751 -24.7487369,0 z m 1.4142136,1.4142135 c 6.0531263,-6.05312677 15.8671833,-6.05312677 21.9203103,0 6.053126,6.0531279 6.053126,15.8671849 0,21.9203119 -3.829266,3.829265 -9.162778,5.214312 -14.097942,4.198446 -1.88203,-0.562964 -3.84951,-0.72217 -5.7894364,-0.972272 -1.2110872,0.03411 -3.5355339,0.795495 -3.5355339,0.795495 -0.6932361,0.226351 -1.4819699,0.06483 -2.032932,-0.486136 -0.550962,-0.550962 -0.7124864,-1.339695 -0.4861359,-2.032932 0,0 0.7613829,-2.324446 0.7954952,-3.535533 C 3.1132401,24.499418 2.8094585,22.568243 2.3109701,20.668215 1.2951043,15.733051 2.6801513,10.399539 6.5094167,6.5702721 z"
     id="path2824" />
</svg>
