<?xml version="1.0" encoding="UTF-8" standalone="no"?>
<svg
   xmlns:dc="http://purl.org/dc/elements/1.1/"
   xmlns:cc="http://creativecommons.org/ns#"
   xmlns:rdf="http://www.w3.org/1999/02/22-rdf-syntax-ns#"
   xmlns:svg="http://www.w3.org/2000/svg"
   xmlns="http://www.w3.org/2000/svg"
   xmlns:sodipodi="http://sodipodi.sourceforge.net/DTD/sodipodi-0.dtd"
   xmlns:inkscape="http://www.inkscape.org/namespaces/inkscape"
   version="1.0"
   width="35"
   height="35"
   id="svg2"
   inkscape:version="0.47 r22583"
   sodipodi:docname="04-05-002-01-01-04.svg">
  <defs
     id="defs14">
    <inkscape:perspective
       sodipodi:type="inkscape:persp3d"
       inkscape:vp_x="0 : 17.5 : 1"
       inkscape:vp_y="0 : 1000 : 0"
       inkscape:vp_z="36 : 17.5 : 1"
       inkscape:persp3d-origin="18 : 11.666667 : 1"
       id="perspective16" />
  </defs>
  <sodipodi:namedview
     pagecolor="#ffffff"
     bordercolor="#666666"
     borderopacity="1"
     objecttolerance="10"
     gridtolerance="10"
     guidetolerance="10"
     inkscape:pageopacity="0"
     inkscape:pageshadow="2"
     inkscape:window-width="993"
     inkscape:window-height="789"
     id="namedview12"
     showgrid="true"
     inkscape:zoom="15.487127"
     inkscape:cx="18"
     inkscape:cy="17.5"
     inkscape:window-x="209"
     inkscape:window-y="0"
     inkscape:window-maximized="0"
     inkscape:current-layer="svg2"
     inkscape:snap-grids="true">
    <inkscape:grid
       type="xygrid"
       id="grid2822" />
  </sodipodi:namedview>
  <metadata
     id="metadata4">
Valerie Sutton's pixel definition of the
ISWA 2010 symbol ID 04-03-001-01-01-01
transformed by Stephen E Slevinski Jr
using line and fill polygon tracing
<rdf:RDF>
  <cc:Work
     rdf:about="">
    <dc:format>image/svg+xml</dc:format>
    <dc:type
       rdf:resource="http://purl.org/dc/dcmitype/StillImage" />
    <dc:title />
  </cc:Work>
</rdf:RDF>
</metadata>
  <path
     style="fill:#000000;fill-opacity:1;stroke:none"
     d="m 29.874368,5.1560568 c 4.35257,4.3525696 5.898265,10.4169932 4.70668,16.0203912 -0.626972,-0.232381 -1.29202,-0.330681 -1.944544,-0.441942 1.04267,-4.954171 -0.329459,-10.317343 -4.176349,-14.1642357 -6.053127,-6.05312668 -15.867184,-6.0531264 -21.9203108,0 -6.05312595,6.0531297 -6.05312595,15.8671867 0,21.9203137 3.8468898,3.84689 9.2100628,5.219018 14.1642328,4.176349 0.111261,0.652524 0.209561,1.317572 0.441942,1.944544 -5.603398,1.191585 -11.6678188,-0.35411 -16.0203878,-4.70668 -6.834175,-6.834175 -6.834175,-17.914562 0,-24.7487402 6.8341748,-6.8341751 17.9145618,-6.8341751 24.7487368,0 z"
     id="path2824" />
  <path
     style="fill:#000000;fill-opacity:1;stroke:none"
     d="M 30.96875 20.5 C 28.272122 20.473738 25.559748 21.471502 23.5 23.53125 C 20.504003 26.527247 19.774251 30.896309 21.15625 34.625 C 22.955198 34.132956 24.806167 33.089621 26.75 32.96875 C 27.727162 32.907988 29.65625 33.4375 29.65625 33.4375 C 30.696072 33.776959 31.861093 33.545157 32.6875 32.71875 C 33.513907 31.892343 33.745709 30.727321 33.40625 29.6875 C 33.40625 29.6875 32.87674 27.758412 32.9375 26.78125 C 33.058372 24.837417 34.232501 23.03571 34.59375 21.1875 C 33.428534 20.755625 32.19449 20.511937 30.96875 20.5 z M 30.34375 22.5 C 31.002764 22.456036 31.658958 22.486092 32.3125 22.59375 C 32.030462 23.810038 31.65078 25.13391 31.6875 26.4375 C 31.721612 27.648587 32.46875 30 32.46875 30 C 32.6951 30.693237 32.550962 31.480288 32 32.03125 C 31.449038 32.582216 30.661986 32.726351 29.96875 32.5 C 29.96875 32.5 27.617337 31.75286 26.40625 31.71875 C 25.10266 31.682032 23.777137 32.050774 22.5625 32.34375 C 22.131868 29.72958 22.921352 26.984898 24.9375 24.96875 C 26.449611 23.456639 28.366707 22.631892 30.34375 22.5 z "
     id="path2841" />
</svg>
