<?xml version="1.0" encoding="UTF-8" standalone="no"?>
<svg
   xmlns:dc="http://purl.org/dc/elements/1.1/"
   xmlns:cc="http://creativecommons.org/ns#"
   xmlns:rdf="http://www.w3.org/1999/02/22-rdf-syntax-ns#"
   xmlns:svg="http://www.w3.org/2000/svg"
   xmlns="http://www.w3.org/2000/svg"
   xmlns:sodipodi="http://sodipodi.sourceforge.net/DTD/sodipodi-0.dtd"
   xmlns:inkscape="http://www.inkscape.org/namespaces/inkscape"
   version="1.0"
   width="35"
   height="35"
   id="svg2"
   inkscape:version="0.47 r22583"
   sodipodi:docname="04-05-002-01-01-02.svg">
  <defs
     id="defs14">
    <inkscape:perspective
       sodipodi:type="inkscape:persp3d"
       inkscape:vp_x="0 : 17.5 : 1"
       inkscape:vp_y="0 : 1000 : 0"
       inkscape:vp_z="36 : 17.5 : 1"
       inkscape:persp3d-origin="18 : 11.666667 : 1"
       id="perspective16" />
  </defs>
  <sodipodi:namedview
     pagecolor="#ffffff"
     bordercolor="#666666"
     borderopacity="1"
     objecttolerance="10"
     gridtolerance="10"
     guidetolerance="10"
     inkscape:pageopacity="0"
     inkscape:pageshadow="2"
     inkscape:window-width="993"
     inkscape:window-height="789"
     id="namedview12"
     showgrid="true"
     inkscape:zoom="15.487127"
     inkscape:cx="18"
     inkscape:cy="17.5"
     inkscape:window-x="209"
     inkscape:window-y="0"
     inkscape:window-maximized="0"
     inkscape:current-layer="svg2"
     inkscape:snap-grids="true">
    <inkscape:grid
       type="xygrid"
       id="grid2822" />
  </sodipodi:namedview>
  <metadata
     id="metadata4">
Valerie Sutton's pixel definition of the
ISWA 2010 symbol ID 04-03-001-01-01-01
transformed by Stephen E Slevinski Jr
using line and fill polygon tracing
<rdf:RDF>
  <cc:Work
     rdf:about="">
    <dc:format>image/svg+xml</dc:format>
    <dc:type
       rdf:resource="http://purl.org/dc/dcmitype/StillImage" />
    <dc:title />
  </cc:Work>
</rdf:RDF>
</metadata>
  <path
     style="fill:#000000;fill-opacity:1;stroke:none"
     d="M 5.0950029,5.1562576 C 0.7424333,9.5088272 -0.8032616,15.57325 0.3883234,21.176648 1.0152952,20.944267 1.6803431,20.845967 2.332867,20.734706 1.2901974,15.780535 2.6623265,10.417363 6.5092165,6.5704711 c 6.0531265,-6.0531267 15.8671835,-6.05312642 21.9203105,0 6.053126,6.0531289 6.053126,15.8671859 0,21.9203129 -3.84689,3.84689 -9.210063,5.219018 -14.164233,4.176349 -0.111261,0.652524 -0.209561,1.317572 -0.441942,1.944544 5.603398,1.191585 11.667819,-0.35411 16.020388,-4.70668 6.834175,-6.834175 6.834175,-17.914562 0,-24.7487394 -6.834175,-6.8341751 -17.914562,-6.8341751 -24.7487371,0 z"
     id="path2824" />
  <path
     style="fill:#000000;fill-opacity:1;stroke:none"
     d="M 4 20.5 C 2.7742599 20.511937 1.5402157 20.755625 0.375 21.1875 C 0.7362488 23.03571 1.9103787 24.837417 2.03125 26.78125 C 2.092012 27.758412 1.5625 29.6875 1.5625 29.6875 C 1.2230413 30.727321 1.454843 31.892343 2.28125 32.71875 C 3.107657 33.545157 4.2726789 33.776959 5.3125 33.4375 C 5.3125 33.4375 7.241588 32.907988 8.21875 32.96875 C 10.162583 33.089621 12.013552 34.132956 13.8125 34.625 C 15.194499 30.896309 14.464747 26.527247 11.46875 23.53125 C 9.4090021 21.471502 6.6966283 20.473738 4 20.5 z M 3.625 22.5 C 5.9344714 22.388156 8.2671205 23.204621 10.03125 24.96875 C 12.047398 26.984898 12.836882 29.72958 12.40625 32.34375 C 11.191613 32.050774 9.86609 31.682032 8.5625 31.71875 C 7.351413 31.75286 5 32.5 5 32.5 C 4.3067637 32.726351 3.5197121 32.582216 2.96875 32.03125 C 2.417788 31.480288 2.2736494 30.693237 2.5 30 C 2.5 30 3.2471377 27.648587 3.28125 26.4375 C 3.317967 25.13391 2.9382878 23.810038 2.65625 22.59375 C 2.9830212 22.539921 3.2950755 22.515978 3.625 22.5 z "
     id="path2841" />
</svg>
