<?xml version="1.0" encoding="UTF-8" standalone="no"?>
<!-- Created with Inkscape (http://www.inkscape.org/) -->

<svg
   xmlns:dc="http://purl.org/dc/elements/1.1/"
   xmlns:cc="http://creativecommons.org/ns#"
   xmlns:rdf="http://www.w3.org/1999/02/22-rdf-syntax-ns#"
   xmlns:svg="http://www.w3.org/2000/svg"
   xmlns="http://www.w3.org/2000/svg"
   xmlns:sodipodi="http://sodipodi.sourceforge.net/DTD/sodipodi-0.dtd"
   xmlns:inkscape="http://www.inkscape.org/namespaces/inkscape"
   width="15"
   height="18"
   id="svg3198"
   sodipodi:version="0.32"
   inkscape:version="0.47 r22583"
   version="1.0"
   sodipodi:docname="01-10-010-01-05.svg"
   inkscape:output_extension="org.inkscape.output.svg.inkscape">
  <defs
     id="defs3200">
    <inkscape:perspective
       sodipodi:type="inkscape:persp3d"
       inkscape:vp_x="0 : 526.18109 : 1"
       inkscape:vp_y="0 : 1000 : 0"
       inkscape:vp_z="744.09448 : 526.18109 : 1"
       inkscape:persp3d-origin="372.04724 : 350.78739 : 1"
       id="perspective3206" />
  </defs>
  <sodipodi:namedview
     id="namedview3727"
     pagecolor="#ffffff"
     bordercolor="#666666"
     borderopacity="1.0"
     gridtolerance="10000"
     guidetolerance="10"
     objecttolerance="10"
     inkscape:pageopacity="0.0"
     inkscape:pageshadow="2"
     inkscape:zoom="25.979789"
     inkscape:cx="7.2011861"
     inkscape:cy="9.0415193"
     inkscape:document-units="px"
     inkscape:current-layer=""
     showgrid="true"
     inkscape:window-width="1261"
     inkscape:window-height="918"
     inkscape:window-x="63"
     inkscape:window-y="19"
     inkscape:window-maximized="0">
    <inkscape:grid
       type="xygrid"
       id="grid3208"
       visible="true"
       enabled="true" />
  </sodipodi:namedview>
  <metadata
     id="metadata3203">
    <rdf:RDF>
      <cc:Work
         rdf:about="">
        <dc:format>image/svg+xml</dc:format>
        <dc:type
           rdf:resource="http://purl.org/dc/dcmitype/StillImage" />
        <dc:title></dc:title>
      </cc:Work>
    </rdf:RDF>
  </metadata>
  <g
     inkscape:label="Layer 1"
     inkscape:groupmode="layer"
     id="">
    <rect
       style="fill:#000000;fill-opacity:1;stroke:none"
       id="base"
       width="15"
       height="15"
       x="0"
       y="3" />
    <path
       style="fill:#ffffff;fill-opacity:1;stroke:none"
       d="M 8,2 8,8 7,8 7,2 C 7,2 7,1 6,1 5.066698,1 5,2 5,2 L 5,8 4,8 4,5 2,5 2,8 0,8 l 0,3 2,0 0,5 6,0 0,-2 -4,0 0,-3 1,0 0,2 2,0 0,-2 1,0 0,2 2,0 0,-2 1,0 0,2 2,0 0,-2 2,0 0,-3 -2,0 0,-6 c 0,0 0,-1 -1,-1 -1,0 -1,1 -1,1 l 0,6 -1,0 0,-6 C 10,2 10,1 9,1 8,1 8,2 8,2 z"
       id="fill"
       sodipodi:nodetypes="cccczccccccccccccccccccccccccccccccccccccc" />
    <path
       style="fill:#000000;fill-opacity:1;stroke:none"
       d="M 12 0 C 12 0 10 0 10 2 L 10 8 L 11 8 L 11 2 C 11 2 11 1 12 1 C 13 1 13 2 13 2 L 13 8 L 14 8 L 14 2 C 14 2 14 0 12 0 z M 10 11 L 10 14 L 14 14 L 14 11 L 13 11 L 13 13 L 11 13 L 11 11 L 10 11 z "
       id="index" />
    <path
       style="fill:#000000;fill-opacity:1;stroke:none"
       d="M 9 0 C 9 0 7 0 7 2 L 7 8 L 8 8 L 8 2 C 8 2 8 1 9 1 C 10 1 10 2 10 2 L 10 8 L 11 8 L 11 2 C 11 2 11 0 9 0 z M 7 11 L 7 14 L 11 14 L 11 11 L 10 11 L 10 13 L 8 13 L 8 11 L 7 11 z "
       id="middle" />
    <path
       id="ring"
       d="M 6,0 C 6,0 4,0 4,2 L 4,8 5,8 5,2 C 5,2 5,1 6,1 7,1 7,2 7,2 L 7,8 8,8 8,2 C 8,2 8,0 6,0 z m -2,11 0,3 4,0 0,-3 -1,0 0,2 -2,0 0,-2 -1,0 z"
       style="fill:#000000;fill-opacity:1;stroke:none" />
  </g>
</svg>
