<?xml version="1.0" encoding="UTF-8" standalone="no"?>
<!-- Created with Inkscape (http://www.inkscape.org/) -->

<svg
   xmlns:dc="http://purl.org/dc/elements/1.1/"
   xmlns:cc="http://creativecommons.org/ns#"
   xmlns:rdf="http://www.w3.org/1999/02/22-rdf-syntax-ns#"
   xmlns:svg="http://www.w3.org/2000/svg"
   xmlns="http://www.w3.org/2000/svg"
   xmlns:sodipodi="http://sodipodi.sourceforge.net/DTD/sodipodi-0.dtd"
   xmlns:inkscape="http://www.inkscape.org/namespaces/inkscape"
   width="15"
   height="18"
   id="svg3198"
   sodipodi:version="0.32"
   inkscape:version="0.47 r22583"
   version="1.0"
   sodipodi:docname="01-10-010-01-01.svg"
   inkscape:output_extension="org.inkscape.output.svg.inkscape">
  <defs
     id="defs3200">
    <inkscape:perspective
       sodipodi:type="inkscape:persp3d"
       inkscape:vp_x="0 : 526.18109 : 1"
       inkscape:vp_y="0 : 1000 : 0"
       inkscape:vp_z="744.09448 : 526.18109 : 1"
       inkscape:persp3d-origin="372.04724 : 350.78739 : 1"
       id="perspective3206" />
  </defs>
  <sodipodi:namedview
     id="namedview3727"
     pagecolor="#ffffff"
     bordercolor="#666666"
     borderopacity="1.0"
     gridtolerance="10000"
     guidetolerance="10"
     objecttolerance="10"
     inkscape:pageopacity="0.0"
     inkscape:pageshadow="2"
     inkscape:zoom="25.979789"
     inkscape:cx="7.2011861"
     inkscape:cy="9.0415193"
     inkscape:document-units="px"
     inkscape:current-layer=""
     showgrid="true"
     inkscape:window-width="1261"
     inkscape:window-height="918"
     inkscape:window-x="63"
     inkscape:window-y="19"
     inkscape:window-maximized="0">
    <inkscape:grid
       type="xygrid"
       id="grid3208"
       visible="true"
       enabled="true" />
  </sodipodi:namedview>
  <metadata
     id="metadata3203">
    <rdf:RDF>
      <cc:Work
         rdf:about="">
        <dc:format>image/svg+xml</dc:format>
        <dc:type
           rdf:resource="http://purl.org/dc/dcmitype/StillImage" />
        <dc:title></dc:title>
      </cc:Work>
    </rdf:RDF>
  </metadata>
  <g
     inkscape:label="Layer 1"
     inkscape:groupmode="layer"
     id="">
    <rect
       style="fill:#000000;fill-opacity:1;stroke:none"
       id="base"
       width="15"
       height="15"
       x="0"
       y="3" />
    <path
       style="fill:#ffffff;fill-opacity:1;stroke:none"
       d="M 6 1 C 5.0274445 1 5 2 5 2 L 5 11 L 7 11 L 7 2 C 7 2 7 1 6 1 z M 9 1 C 8 1 8 2 8 2 L 8 11 L 10 11 L 10 2 C 10 2 10 1 9 1 z M 12 1 C 11 1 11 2 11 2 L 11 11 L 13 11 L 13 2 C 13 2 13 1 12 1 z M 2 5 L 2 16 L 13 16 L 13 12 L 4 12 L 4 5 L 2 5 z "
       id="fill" />
    <path
       style="fill:#000000;fill-opacity:1;stroke:none"
       d="m 12,0 c 0,0 -2,0 -2,2 l 0,10 4,0 0,-10 c 0,0 0,-2 -2,-2 z m 0,1 c 1,0 1,1 1,1 l 0,9 -2,0 0,-9 c 0,0 0,-1 1,-1 z"
       id="index"
       sodipodi:nodetypes="cccccccccccc" />
    <path
       style="fill:#000000;fill-opacity:1;stroke:none"
       d="M 9,0 C 9,0 7,0 7,2 l 0,10 4,0 0,-10 C 11,2 11,0 9,0 z m 0,1 c 1,0 1,1 1,1 l 0,9 -2,0 0,-9 C 8,2 8,1 9,1 z"
       id="middle"
       sodipodi:nodetypes="cccccccccccc" />
    <path
       sodipodi:nodetypes="cccccccccccc"
       id="ring"
       d="M 6,0 C 6,0 4,0 4,2 L 4,12 8,12 8,2 C 8,2 8,0 6,0 z M 6,1 C 7,1 7,2 7,2 L 7,11 5,11 5,2 C 5,2 5,1 6,1 z"
       style="fill:#000000;fill-opacity:1;stroke:none" />
  </g>
</svg>
