<?xml version="1.0" encoding="UTF-8" standalone="no"?>
<svg
   xmlns:dc="http://purl.org/dc/elements/1.1/"
   xmlns:cc="http://creativecommons.org/ns#"
   xmlns:rdf="http://www.w3.org/1999/02/22-rdf-syntax-ns#"
   xmlns:svg="http://www.w3.org/2000/svg"
   xmlns="http://www.w3.org/2000/svg"
   xmlns:sodipodi="http://sodipodi.sourceforge.net/DTD/sodipodi-0.dtd"
   xmlns:inkscape="http://www.inkscape.org/namespaces/inkscape"
   version="1.0"
   width="13"
   height="23"
   id="svg2"
   inkscape:version="0.47 r22583"
   sodipodi:docname="02-07-009-01-01-01.svg">
  <defs
     id="defs16">
    <inkscape:perspective
       sodipodi:type="inkscape:persp3d"
       inkscape:vp_x="0 : 23 : 1"
       inkscape:vp_y="0 : 1000 : 0"
       inkscape:vp_z="36 : 23 : 1"
       inkscape:persp3d-origin="18 : 15.333333 : 1"
       id="perspective18" />
  </defs>
  <sodipodi:namedview
     pagecolor="#ffffff"
     bordercolor="#666666"
     borderopacity="1"
     objecttolerance="10"
     gridtolerance="10"
     guidetolerance="10"
     inkscape:pageopacity="0"
     inkscape:pageshadow="2"
     inkscape:window-width="964"
     inkscape:window-height="721"
     id="namedview14"
     showgrid="true"
     inkscape:zoom="16.698231"
     inkscape:cx="6.4989955"
     inkscape:cy="11.498223"
     inkscape:window-x="365"
     inkscape:window-y="0"
     inkscape:window-maximized="0"
     inkscape:current-layer="svg2"
     showborder="true">
    <inkscape:grid
       type="xygrid"
       id="grid2824"
       empspacing="5"
       visible="true"
       enabled="true"
       snapvisiblegridlinesonly="true" />
  </sodipodi:namedview>
  <metadata
     id="metadata4">
Valerie Sutton's pixel definition of the
ISWA 2010 symbol ID 04-01-003-01-01-01
transformed by Stephen E Slevinski Jr
using line and fill polygon tracing
<rdf:RDF>
  <cc:Work
     rdf:about="">
    <dc:format>image/svg+xml</dc:format>
    <dc:type
       rdf:resource="http://purl.org/dc/dcmitype/StillImage" />
    <dc:title></dc:title>
  </cc:Work>
</rdf:RDF>
</metadata>
  <path
     style="fill:#000000;fill-opacity:1;stroke:none"
     d="M 13,0 3,0 13,10 13,0 z"
     id="path3273" />
  <path
     style="fill:#000000;fill-opacity:1;stroke:none"
     d="m 5.53125,2.53125 1.0625,1.0625 -2.75,2.75 C 2.396035,7.7914652 1.5,9.790861 1.5,12 c 0,2.209139 0.896035,4.208535 2.34375,5.65625 L 8.125,21.9375 7.0625,23 2.78125,18.71875 C 1.062088,16.999588 0,14.623352 0,12 0,9.3766475 1.062088,7.0004119 2.78125,5.28125 l 2.75,-2.75 z"
     id="path3340" />
  <path
     style="fill:#000000;fill-opacity:1;stroke:none"
     d="m 9.40625,6.40625 1.0625,1.0625 -2.75,2.75 C 7.266339,10.671161 7,11.309644 7,12 c 0,0.690356 0.266339,1.328839 0.71875,1.78125 L 12,18.0625 10.9375,19.125 6.65625,14.84375 C 5.9323924,14.119892 5.5,13.10457 5.5,12 5.5,10.895431 5.9323924,9.8801076 6.65625,9.15625 l 2.75,-2.75 z"
     id="path3338" />
  <path
     style="fill:#ffffff;fill-opacity:1;stroke:none"
     d="m 6.59375,3.59375 2.8125,2.8125 -2.75,2.75 C 5.9323924,9.8801076 5.5,10.895431 5.5,12 c 0,1.10457 0.4323924,2.119892 1.15625,2.84375 L 10.9375,19.125 8.125,21.9375 3.84375,17.65625 C 2.396035,16.208535 1.5,14.209139 1.5,12 1.5,9.790861 2.396035,7.7914652 3.84375,6.34375 l 2.75,-2.75 z"
     id="path3292" />
  <path
     id="path3030"
     d="m 4,9 c 1.656854,0 3,1.343146 3,3 0,1.656854 -1.343146,3 -3,3 C 2.343146,15 1,13.656854 1,12 1,10.343146 2.343146,9 4,9 z"
     style="fill:#000000;fill-opacity:1;stroke:none" />
</svg>
