<?xml version="1.0" encoding="UTF-8" standalone="no"?>
<svg
   xmlns:dc="http://purl.org/dc/elements/1.1/"
   xmlns:cc="http://creativecommons.org/ns#"
   xmlns:rdf="http://www.w3.org/1999/02/22-rdf-syntax-ns#"
   xmlns:svg="http://www.w3.org/2000/svg"
   xmlns="http://www.w3.org/2000/svg"
   xmlns:sodipodi="http://sodipodi.sourceforge.net/DTD/sodipodi-0.dtd"
   xmlns:inkscape="http://www.inkscape.org/namespaces/inkscape"
   version="1.0"
   width="49"
   height="13"
   id="svg2"
   inkscape:version="0.47 r22583"
   sodipodi:docname="02-09-004-01-01-09.svg">
  <defs
     id="defs16">
    <inkscape:perspective
       sodipodi:type="inkscape:persp3d"
       inkscape:vp_x="0 : 23 : 1"
       inkscape:vp_y="0 : 1000 : 0"
       inkscape:vp_z="36 : 23 : 1"
       inkscape:persp3d-origin="18 : 15.333333 : 1"
       id="perspective18" />
  </defs>
  <sodipodi:namedview
     pagecolor="#ffffff"
     bordercolor="#666666"
     borderopacity="1"
     objecttolerance="10"
     gridtolerance="10"
     guidetolerance="10"
     inkscape:pageopacity="0"
     inkscape:pageshadow="2"
     inkscape:window-width="964"
     inkscape:window-height="721"
     id="namedview14"
     showgrid="true"
     inkscape:zoom="16.430711"
     inkscape:cx="24.5"
     inkscape:cy="6.5"
     inkscape:window-x="365"
     inkscape:window-y="0"
     inkscape:window-maximized="0"
     inkscape:current-layer="svg2"
     showborder="true">
    <inkscape:grid
       type="xygrid"
       id="grid2824"
       empspacing="5"
       visible="true"
       enabled="true"
       snapvisiblegridlinesonly="true" />
  </sodipodi:namedview>
  <metadata
     id="metadata4">
Valerie Sutton's pixel definition of the
ISWA 2010 symbol ID 04-01-003-01-01-01
transformed by Stephen E Slevinski Jr
using line and fill polygon tracing
<rdf:RDF>
  <cc:Work
     rdf:about="">
    <dc:format>image/svg+xml</dc:format>
    <dc:type
       rdf:resource="http://purl.org/dc/dcmitype/StillImage" />
    <dc:title></dc:title>
  </cc:Work>
</rdf:RDF>
</metadata>
  <path
     style="fill:#000000;fill-opacity:1;stroke:none"
     d="M 42,13 42,0 48.5,6.5 42,13 z"
     id="path2814" />
  <path
     style="fill:#000000;fill-opacity:1;stroke:none"
     d="M 27 1 C 23.962434 1 21.209359 2.228142 19.21875 4.21875 L 18.375 5.375 C 16.74632 7.0036797 14.485281 7 12 7 C 9.514719 7 7.25368 7.0036797 5.625 5.375 L 1.4375 1.1875 L 0 2.59375 L 4.21875 6.78125 C 6.209359 8.7718585 8.962434 10 12 10 C 15.037566 10 17.790641 8.7718585 19.78125 6.78125 L 20.625 5.625 C 22.25368 3.9963203 24.514719 3 27 3 C 29.485281 3 31.74632 3.99632 33.375 5.625 L 34.375 6.625 C 34.917893 7.1678932 35.671573 7.5 36.5 7.5 L 42 7.5 L 42 5.5 L 36.5 5.5 C 36.223858 5.5 35.962214 5.3997144 35.78125 5.21875 L 34.78125 4.21875 C 32.790641 2.228142 30.037566 1 27 1 z "
     id="rect2814" />
</svg>
