<?xml version="1.0" encoding="UTF-8" standalone="no"?>
<svg
   xmlns:dc="http://purl.org/dc/elements/1.1/"
   xmlns:cc="http://creativecommons.org/ns#"
   xmlns:rdf="http://www.w3.org/1999/02/22-rdf-syntax-ns#"
   xmlns:svg="http://www.w3.org/2000/svg"
   xmlns="http://www.w3.org/2000/svg"
   xmlns:sodipodi="http://sodipodi.sourceforge.net/DTD/sodipodi-0.dtd"
   xmlns:inkscape="http://www.inkscape.org/namespaces/inkscape"
   version="1.0"
   width="13"
   height="49"
   id="svg2"
   inkscape:version="0.47 r22583"
   sodipodi:docname="02-09-004-01-03-07.svg">
  <defs
     id="defs16">
    <inkscape:perspective
       sodipodi:type="inkscape:persp3d"
       inkscape:vp_x="0 : 23 : 1"
       inkscape:vp_y="0 : 1000 : 0"
       inkscape:vp_z="36 : 23 : 1"
       inkscape:persp3d-origin="18 : 15.333333 : 1"
       id="perspective18" />
  </defs>
  <sodipodi:namedview
     pagecolor="#ffffff"
     bordercolor="#666666"
     borderopacity="1"
     objecttolerance="10"
     gridtolerance="10"
     guidetolerance="10"
     inkscape:pageopacity="0"
     inkscape:pageshadow="2"
     inkscape:window-width="964"
     inkscape:window-height="721"
     id="namedview14"
     showgrid="true"
     inkscape:zoom="9.6530612"
     inkscape:cx="6.5"
     inkscape:cy="24.5"
     inkscape:window-x="365"
     inkscape:window-y="0"
     inkscape:window-maximized="0"
     inkscape:current-layer="svg2"
     showborder="true">
    <inkscape:grid
       type="xygrid"
       id="grid2824"
       empspacing="5"
       visible="true"
       enabled="true"
       snapvisiblegridlinesonly="true" />
  </sodipodi:namedview>
  <metadata
     id="metadata4">
Valerie Sutton's pixel definition of the
ISWA 2010 symbol ID 04-01-003-01-01-01
transformed by Stephen E Slevinski Jr
using line and fill polygon tracing
<rdf:RDF>
  <cc:Work
     rdf:about="">
    <dc:format>image/svg+xml</dc:format>
    <dc:type
       rdf:resource="http://purl.org/dc/dcmitype/StillImage" />
    <dc:title></dc:title>
  </cc:Work>
</rdf:RDF>
</metadata>
  <path
     style="fill:#000000;fill-opacity:1;stroke:none"
     d="M 6.5 0.5 L 0 7 L 13 7 L 6.5 0.5 z M 6.5 1.90625 L 10.5625 6 L 2.4375 6 L 6.5 1.90625 z "
     id="path2814" />
  <path
     style="fill:#000000;fill-opacity:1;stroke:none"
     d="M 6 7 L 6 12 C 6 12.568472 5.7557923 13.07337 5.375 13.4375 L 4.21875 14.21875 C 2.228142 16.209359 1 18.962434 1 22 C 1 25.037566 2.228142 27.790641 4.21875 29.78125 L 5.375 30.625 C 7.00368 32.25368 7 34.514719 7 37 C 7 39.485281 6.28493 41.02757 4.65625 42.65625 L 0.4375 46.875 L 2.5625 49 L 6.78125 44.78125 C 8.771858 42.790641 10 40.037566 10 37 C 10 33.962434 8.771858 31.209359 6.78125 29.21875 L 5.625 28.375 C 3.99632 26.74632 3 24.485281 3 22 C 3 19.514719 3.99632 17.25368 5.625 15.625 L 6.28125 14.84375 C 6.733661 14.119892 7 13.10457 7 12 L 7 7 L 6 7 z "
     id="rect2814" />
  <path
     style="fill:#ffffff;fill-opacity:1;stroke:none"
     d="M 6.5 1.90625 L 2.4375 6 L 10.5625 6 L 6.5 1.90625 z "
     id="path3169" />
</svg>
