<?xml version="1.0" encoding="UTF-8" standalone="no"?>
<!-- Created with Inkscape (http://www.inkscape.org/) -->

<svg
   xmlns:dc="http://purl.org/dc/elements/1.1/"
   xmlns:cc="http://creativecommons.org/ns#"
   xmlns:rdf="http://www.w3.org/1999/02/22-rdf-syntax-ns#"
   xmlns:svg="http://www.w3.org/2000/svg"
   xmlns="http://www.w3.org/2000/svg"
   xmlns:sodipodi="http://sodipodi.sourceforge.net/DTD/sodipodi-0.dtd"
   xmlns:inkscape="http://www.inkscape.org/namespaces/inkscape"
   width="21"
   height="30"
   id="svg3198"
   sodipodi:version="0.32"
   inkscape:version="0.47 r22583"
   version="1.0"
   sodipodi:docname="01-06-010-01-01.svg"
   inkscape:output_extension="org.inkscape.output.svg.inkscape">
  <defs
     id="defs3200">
    <inkscape:perspective
       sodipodi:type="inkscape:persp3d"
       inkscape:vp_x="0 : 526.18109 : 1"
       inkscape:vp_y="0 : 1000 : 0"
       inkscape:vp_z="744.09448 : 526.18109 : 1"
       inkscape:persp3d-origin="372.04724 : 350.78739 : 1"
       id="perspective3206" />
  </defs>
  <sodipodi:namedview
     id="namedview3727"
     pagecolor="#ffffff"
     bordercolor="#666666"
     borderopacity="1.0"
     gridtolerance="10000"
     guidetolerance="10"
     objecttolerance="10"
     inkscape:pageopacity="0.0"
     inkscape:pageshadow="2"
     inkscape:zoom="16"
     inkscape:cx="11.830351"
     inkscape:cy="15.568436"
     inkscape:document-units="px"
     inkscape:current-layer="01-01-003-01-01-01"
     showgrid="true"
     inkscape:window-width="1439"
     inkscape:window-height="800"
     inkscape:window-x="0"
     inkscape:window-y="0"
     showborder="false"
     showguides="true"
     inkscape:guide-bbox="true"
     inkscape:snap-global="true"
     inkscape:window-maximized="0">
    <inkscape:grid
       type="xygrid"
       id="grid3208"
       visible="true"
       enabled="true" />
  </sodipodi:namedview>
  <metadata
     id="metadata3203">
    <rdf:RDF>
      <cc:Work
         rdf:about="">
        <dc:format>image/svg+xml</dc:format>
        <dc:type
           rdf:resource="http://purl.org/dc/dcmitype/StillImage" />
        <dc:title></dc:title>
      </cc:Work>
    </rdf:RDF>
  </metadata>
  <g
     inkscape:label="Layer 1"
     inkscape:groupmode="layer"
     id="01-01-003-01-01-01">
    <path
       style="fill:#000000;fill-opacity:1;stroke:none"
       d="m 6,15 0,4 0,9 0,2 8,0 0,-15 -8,0 z"
       id="base" />
    <rect
       style="fill:#ffffff;fill-opacity:1;stroke:none"
       id="fill"
       width="6"
       height="13"
       x="7"
       y="16" />
    <path
       style="fill:#000000;fill-opacity:1;stroke:none"
       d="M 18.9375,17.21875 14,22.1875 14,25 20.375,18.625 18.9375,17.21875 z"
       id="thumb" />
    <rect
       style="fill:#000000;fill-opacity:1;stroke:none"
       id="index"
       width="2"
       height="15"
       x="12"
       y="0" />
    <path
       style="fill:#000000;fill-opacity:1;stroke:none"
       d="m 8.5,4.5 c -1.1045695,0 -2,0.8954305 -2,2 0,0.9319805 0.6373007,1.7155373 1.5,1.9375 L 8,15 9,15 9,8.4375 C 9.8626993,8.2155373 10.5,7.4319805 10.5,6.5 c 0,-1.1045695 -0.8954305,-2 -2,-2 z"
       id="middle" />
    <path
       style="fill:#000000;fill-opacity:1;stroke:none"
       d="m 4.5,10.5 c -1.1045695,0 -2,0.895431 -2,2 0,1.104569 0.8954305,2 2,2 1.1045695,0 2,-0.895431 2,-2 0,-1.104569 -0.8954305,-2 -2,-2 z"
       id="ring" />
    <path
       style="fill:#000000;fill-opacity:1;stroke:none"
       d="m 2.5,17.5 c -1.1045695,0 -2,0.895431 -2,2 0,1.104569 0.8954305,2 2,2 1.1045695,0 2,-0.895431 2,-2 0,-1.104569 -0.8954305,-2 -2,-2 z"
       id="baby" />
  </g>
</svg>
