<?xml version="1.0" encoding="UTF-8" standalone="no"?>
<svg
   xmlns:dc="http://purl.org/dc/elements/1.1/"
   xmlns:cc="http://creativecommons.org/ns#"
   xmlns:rdf="http://www.w3.org/1999/02/22-rdf-syntax-ns#"
   xmlns:svg="http://www.w3.org/2000/svg"
   xmlns="http://www.w3.org/2000/svg"
   xmlns:sodipodi="http://sodipodi.sourceforge.net/DTD/sodipodi-0.dtd"
   xmlns:inkscape="http://www.inkscape.org/namespaces/inkscape"
   version="1.0"
   width="21"
   height="51"
   id="svg2"
   inkscape:version="0.47 r22583"
   sodipodi:docname="02-09-004-03-02-07.svg">
  <defs
     id="defs16">
    <inkscape:perspective
       sodipodi:type="inkscape:persp3d"
       inkscape:vp_x="0 : 23 : 1"
       inkscape:vp_y="0 : 1000 : 0"
       inkscape:vp_z="36 : 23 : 1"
       inkscape:persp3d-origin="18 : 15.333333 : 1"
       id="perspective18" />
  </defs>
  <sodipodi:namedview
     pagecolor="#ffffff"
     bordercolor="#666666"
     borderopacity="1"
     objecttolerance="10"
     gridtolerance="10"
     guidetolerance="10"
     inkscape:pageopacity="0"
     inkscape:pageshadow="2"
     inkscape:window-width="964"
     inkscape:window-height="721"
     id="namedview14"
     showgrid="true"
     inkscape:zoom="9.2745098"
     inkscape:cx="10.5"
     inkscape:cy="25.5"
     inkscape:window-x="365"
     inkscape:window-y="0"
     inkscape:window-maximized="0"
     inkscape:current-layer="svg2"
     showborder="true">
    <inkscape:grid
       type="xygrid"
       id="grid2824"
       empspacing="5"
       visible="true"
       enabled="true"
       snapvisiblegridlinesonly="true" />
  </sodipodi:namedview>
  <metadata
     id="metadata4">
Valerie Sutton's pixel definition of the
ISWA 2010 symbol ID 04-01-003-01-01-01
transformed by Stephen E Slevinski Jr
using line and fill polygon tracing
<rdf:RDF>
  <cc:Work
     rdf:about="">
    <dc:format>image/svg+xml</dc:format>
    <dc:type
       rdf:resource="http://purl.org/dc/dcmitype/StillImage" />
    <dc:title></dc:title>
  </cc:Work>
</rdf:RDF>
</metadata>
  <path
     style="fill:#000000;fill-opacity:1;stroke:none"
     d="m 14,0 7,7 -7,7 0,-14 z m 1,2.4375 0,9.125 L 19.59375,7 15,2.4375 z"
     id="path2814" />
  <path
     style="fill:#000000;fill-opacity:1;stroke:none"
     d="M 14,6 14,8 6.5,8 C 4.014719,8 2,10.014719 2,12.5 2,14.985281 4.014719,17 6.5,17 l 3.5,0 c 5.522847,0 10,4.477153 10,10 0,5.522847 -4.477153,10 -10,10 l -3,0 c -2.761424,0 -5,2.238576 -5,5 0,2.761424 2.238576,5 5,5 l 11,0 0,4 -9,0 C 4.029437,51 0,46.970563 0,42 0,37.029437 4.029437,33 9,33 l 3,0 c 3.313708,0 6,-2.686292 6,-6 0,-3.313708 -2.686292,-6 -6,-6 L 7.5,21 C 3.357864,21 0,17.642136 0,13.5 0,9.357864 3.357864,6 7.5,6 L 14,6 z"
     id="path2831" />
  <path
     style="fill:#ffffff;fill-opacity:1;stroke:none"
     d="M 15,2.4375 19.59375,7 15,11.5625 15,2.4375 z"
     id="path3385" />
</svg>
