<?xml version="1.0" encoding="UTF-8" standalone="no"?>
<svg
   xmlns:dc="http://purl.org/dc/elements/1.1/"
   xmlns:cc="http://creativecommons.org/ns#"
   xmlns:rdf="http://www.w3.org/1999/02/22-rdf-syntax-ns#"
   xmlns:svg="http://www.w3.org/2000/svg"
   xmlns="http://www.w3.org/2000/svg"
   xmlns:sodipodi="http://sodipodi.sourceforge.net/DTD/sodipodi-0.dtd"
   xmlns:inkscape="http://www.inkscape.org/namespaces/inkscape"
   version="1.0"
   width="27"
   height="43"
   id="svg2"
   inkscape:version="0.47 r22583"
   sodipodi:docname="06-01-003-01-01-02.svg">
  <defs
     id="defs14">
    <inkscape:perspective
       sodipodi:type="inkscape:persp3d"
       inkscape:vp_x="0 : 5.5 : 1"
       inkscape:vp_y="0 : 1000 : 0"
       inkscape:vp_z="10 : 5.5 : 1"
       inkscape:persp3d-origin="5 : 3.6666667 : 1"
       id="perspective16" />
  </defs>
  <sodipodi:namedview
     pagecolor="#ffffff"
     bordercolor="#666666"
     borderopacity="1"
     objecttolerance="10"
     gridtolerance="10"
     guidetolerance="10"
     inkscape:pageopacity="0"
     inkscape:pageshadow="2"
     inkscape:window-width="917"
     inkscape:window-height="792"
     id="namedview12"
     showgrid="true"
     inkscape:zoom="12.651163"
     inkscape:cx="13.5"
     inkscape:cy="21.5"
     inkscape:window-x="313"
     inkscape:window-y="0"
     inkscape:window-maximized="0"
     inkscape:current-layer="svg2"
     showborder="true"
     inkscape:showpageshadow="true"
     inkscape:snap-center="false">
    <inkscape:grid
       type="xygrid"
       id="grid2822"
       empspacing="5"
       visible="true"
       enabled="true"
       snapvisiblegridlinesonly="true" />
  </sodipodi:namedview>
  <metadata
     id="metadata4">
Valerie Sutton's pixel definition of the
ISWA 2010 symbol ID 02-01-001-01-01-01
transformed by Stephen E Slevinski Jr
using line and fill polygon tracing
<rdf:RDF>
  <cc:Work
     rdf:about="">
    <dc:format>image/svg+xml</dc:format>
    <dc:type
       rdf:resource="http://purl.org/dc/dcmitype/StillImage" />
    <dc:title />
  </cc:Work>
</rdf:RDF>
</metadata>
  <path
     style="fill:#000000;fill-opacity:1;stroke:none"
     d="M 13.5 4 C 8.80558 4 5 7.8055796 5 12.5 C 5 15.947465 7.050435 18.916435 10 20.25 L 10 23 L 7 23 C 3.134007 23 0 26.134007 0 30 L 0 43 L 2 43 L 2 30 C 2 27.238576 4.238576 25 7 25 L 15 25 L 15 4.15625 C 14.513546 4.0697249 14.011312 4 13.5 4 z M 19 6.03125 L 19 19 C 20.840129 17.440582 22 15.101216 22 12.5 C 22 9.9069324 20.830701 7.5903413 19 6.03125 z M 19 23 L 19 25 L 20 25 C 22.761424 25 25 27.238576 25 30 L 25 43 L 27 43 L 27 30 C 27 26.134007 23.865993 23 20 23 L 19 23 z M 6 30 L 6 43 L 9 43 L 9 30 L 6 30 z M 19 30 L 19 43 L 21 43 L 21 30 L 19 30 z "
     id="path2968" />
  <path
     style="fill:#000000;fill-opacity:1;stroke:none"
     d="m 16,43 0,-43 2,0 0,43 -2,0 z"
     id="rect3008" />
</svg>
