<?xml version="1.0" encoding="UTF-8" standalone="no"?>
<svg
   xmlns:dc="http://purl.org/dc/elements/1.1/"
   xmlns:cc="http://creativecommons.org/ns#"
   xmlns:rdf="http://www.w3.org/1999/02/22-rdf-syntax-ns#"
   xmlns:svg="http://www.w3.org/2000/svg"
   xmlns="http://www.w3.org/2000/svg"
   xmlns:sodipodi="http://sodipodi.sourceforge.net/DTD/sodipodi-0.dtd"
   xmlns:inkscape="http://www.inkscape.org/namespaces/inkscape"
   version="1.0"
   width="19"
   height="32"
   id="svg2"
   inkscape:version="0.47 r22583"
   sodipodi:docname="02-09-008-01-02-01.svg">
  <defs
     id="defs16">
    <inkscape:perspective
       sodipodi:type="inkscape:persp3d"
       inkscape:vp_x="0 : 23 : 1"
       inkscape:vp_y="0 : 1000 : 0"
       inkscape:vp_z="36 : 23 : 1"
       inkscape:persp3d-origin="18 : 15.333333 : 1"
       id="perspective18" />
  </defs>
  <sodipodi:namedview
     pagecolor="#ffffff"
     bordercolor="#666666"
     borderopacity="1"
     objecttolerance="10"
     gridtolerance="10"
     guidetolerance="10"
     inkscape:pageopacity="0"
     inkscape:pageshadow="2"
     inkscape:window-width="964"
     inkscape:window-height="721"
     id="namedview14"
     showgrid="true"
     inkscape:zoom="14.78125"
     inkscape:cx="9.5"
     inkscape:cy="16"
     inkscape:window-x="365"
     inkscape:window-y="0"
     inkscape:window-maximized="0"
     inkscape:current-layer="svg2"
     showborder="true">
    <inkscape:grid
       type="xygrid"
       id="grid2824"
       empspacing="5"
       visible="true"
       enabled="true"
       snapvisiblegridlinesonly="true" />
  </sodipodi:namedview>
  <metadata
     id="metadata4">
Valerie Sutton's pixel definition of the
ISWA 2010 symbol ID 04-01-003-01-01-01
transformed by Stephen E Slevinski Jr
using line and fill polygon tracing
<rdf:RDF>
  <cc:Work
     rdf:about="">
    <dc:format>image/svg+xml</dc:format>
    <dc:type
       rdf:resource="http://purl.org/dc/dcmitype/StillImage" />
    <dc:title></dc:title>
  </cc:Work>
</rdf:RDF>
</metadata>
  <path
     style="fill:#000000;fill-opacity:1;stroke:none"
     d="M 7,0 8,0 8,32 7,32 7,0 z"
     id="rect2878" />
  <path
     style="fill:#ffffff;fill-opacity:1;stroke:none"
     d="M 8,0 11,0 11,32 8,32 8,0 z"
     id="rect2880" />
  <path
     style="fill:#000000;fill-opacity:1;stroke:none"
     d="m 11,0 1,0 0,32 -1,0 0,-32 z"
     id="rect2882" />
  <path
     style="fill:#000000;fill-opacity:1;stroke:none"
     d="M 9.5,7 C 7.5805827,7 5.651966,7.723034 4.1875,9.1875 L 0,13.28125 0.75,14 4.90625,9.90625 C 6.0825186,8.729981 7.7050746,8 9.5,8 c 1.794925,0 3.417481,0.729981 4.59375,1.90625 L 18.28125,14 19,13.28125 14.8125,9.1875 C 13.348034,7.723034 11.419417,7 9.5,7 z"
     id="path2854" />
  <path
     id="path2964"
     d="M 9.5,13 C 7.5805827,13 5.651966,13.723034 4.1875,15.1875 L 0,19.28125 0.75,20 4.90625,15.90625 C 6.0825186,14.729981 7.7050746,14 9.5,14 c 1.794925,0 3.417481,0.729981 4.59375,1.90625 L 18.28125,20 19,19.28125 14.8125,15.1875 C 13.348034,13.723034 11.419417,13 9.5,13 z"
     style="fill:#000000;fill-opacity:1;stroke:none" />
  <path
     style="fill:#000000;fill-opacity:1;stroke:none"
     d="M 9.5,19 C 7.5805827,19 5.651966,19.723034 4.1875,21.1875 L 0,25.28125 0.75,26 4.90625,21.90625 C 6.0825186,20.729981 7.7050746,20 9.5,20 c 1.794925,0 3.417481,0.729981 4.59375,1.90625 L 18.28125,26 19,25.28125 14.8125,21.1875 C 13.348034,19.723034 11.419417,19 9.5,19 z"
     id="path2966" />
</svg>
