<?xml version="1.0" encoding="UTF-8" standalone="no"?>
<svg
   xmlns:dc="http://purl.org/dc/elements/1.1/"
   xmlns:cc="http://creativecommons.org/ns#"
   xmlns:rdf="http://www.w3.org/1999/02/22-rdf-syntax-ns#"
   xmlns:svg="http://www.w3.org/2000/svg"
   xmlns="http://www.w3.org/2000/svg"
   xmlns:sodipodi="http://sodipodi.sourceforge.net/DTD/sodipodi-0.dtd"
   xmlns:inkscape="http://www.inkscape.org/namespaces/inkscape"
   version="1.0"
   width="20"
   height="32"
   id="svg2"
   inkscape:version="0.47 r22583"
   sodipodi:docname="02-09-005-01-04-01.svg">
  <defs
     id="defs16">
    <inkscape:perspective
       sodipodi:type="inkscape:persp3d"
       inkscape:vp_x="0 : 23 : 1"
       inkscape:vp_y="0 : 1000 : 0"
       inkscape:vp_z="36 : 23 : 1"
       inkscape:persp3d-origin="18 : 15.333333 : 1"
       id="perspective18" />
  </defs>
  <sodipodi:namedview
     pagecolor="#ffffff"
     bordercolor="#666666"
     borderopacity="1"
     objecttolerance="10"
     gridtolerance="10"
     guidetolerance="10"
     inkscape:pageopacity="0"
     inkscape:pageshadow="2"
     inkscape:window-width="964"
     inkscape:window-height="721"
     id="namedview14"
     showgrid="true"
     inkscape:zoom="14.78125"
     inkscape:cx="10"
     inkscape:cy="16"
     inkscape:window-x="365"
     inkscape:window-y="0"
     inkscape:window-maximized="0"
     inkscape:current-layer="svg2"
     showborder="true">
    <inkscape:grid
       type="xygrid"
       id="grid2824"
       empspacing="5"
       visible="true"
       enabled="true"
       snapvisiblegridlinesonly="true" />
  </sodipodi:namedview>
  <metadata
     id="metadata4">
Valerie Sutton's pixel definition of the
ISWA 2010 symbol ID 04-01-003-01-01-01
transformed by Stephen E Slevinski Jr
using line and fill polygon tracing
<rdf:RDF>
  <cc:Work
     rdf:about="">
    <dc:format>image/svg+xml</dc:format>
    <dc:type
       rdf:resource="http://purl.org/dc/dcmitype/StillImage" />
    <dc:title></dc:title>
  </cc:Work>
</rdf:RDF>
</metadata>
  <path
     style="fill:#000000;fill-opacity:1;stroke:none"
     d="m 0,27 0,-7 7,7 -7,0 z"
     id="path2813" />
  <path
     style="fill:#000000;fill-opacity:1;stroke:none"
     d="M 8,0 9,0 9,32 8,32 8,0 z"
     id="rect2878" />
  <path
     style="fill:#ffffff;fill-opacity:1;stroke:none"
     d="M 9,0 12,0 12,32 9,32 9,0 z"
     id="rect2880" />
  <path
     style="fill:#000000;fill-opacity:1;stroke:none"
     d="m 12,0 1,0 0,32 -1,0 0,-32 z"
     id="rect2882" />
  <path
     style="fill:#000000;fill-opacity:1;stroke:none"
     d="M 10.5 19 C 8.5805827 19 6.651966 19.723034 5.1875 21.1875 L 3.15625 23.15625 L 3.875 23.875 L 5.90625 21.90625 C 7.0825186 20.729981 8.7050746 20 10.5 20 C 12.294925 20 13.917481 20.729981 15.09375 21.90625 L 19.28125 26 L 20 25.28125 L 15.8125 21.1875 C 14.348034 19.723034 12.419417 19 10.5 19 z "
     id="rect2814" />
  <path
     style="fill:#000000;fill-opacity:1;stroke:none"
     d="M 10.5 13 C 8.5805827 13 6.651966 13.723034 5.1875 15.1875 L 2 18.3125 L 2.75 19 L 5.90625 15.90625 C 7.0825186 14.729981 8.7050746 14 10.5 14 C 12.294925 14 13.917481 14.729981 15.09375 15.90625 L 19.28125 20 L 20 19.28125 L 15.8125 15.1875 C 14.348034 13.723034 12.419417 13 10.5 13 z "
     id="path2848" />
  <path
     style="fill:#000000;fill-opacity:1;stroke:none"
     d="M 10.5 7 C 8.5805827 7 6.651966 7.723034 5.1875 9.1875 L 1 13.28125 L 1.75 14 L 5.90625 9.90625 C 7.0825186 8.729981 8.7050746 8 10.5 8 C 12.294925 8 13.917481 8.729981 15.09375 9.90625 L 19.28125 14 L 20 13.28125 L 15.8125 9.1875 C 14.348034 7.723034 12.419417 7 10.5 7 z "
     id="path2854" />
</svg>
