<?xml version="1.0" encoding="UTF-8" standalone="no"?>
<svg
   xmlns:dc="http://purl.org/dc/elements/1.1/"
   xmlns:cc="http://creativecommons.org/ns#"
   xmlns:rdf="http://www.w3.org/1999/02/22-rdf-syntax-ns#"
   xmlns:svg="http://www.w3.org/2000/svg"
   xmlns="http://www.w3.org/2000/svg"
   xmlns:sodipodi="http://sodipodi.sourceforge.net/DTD/sodipodi-0.dtd"
   xmlns:inkscape="http://www.inkscape.org/namespaces/inkscape"
   version="1.0"
   width="19"
   height="19"
   id="svg2"
   inkscape:version="0.47 r22583"
   sodipodi:docname="02-09-008-01-04-01.svg">
  <defs
     id="defs16">
    <inkscape:perspective
       sodipodi:type="inkscape:persp3d"
       inkscape:vp_x="0 : 23 : 1"
       inkscape:vp_y="0 : 1000 : 0"
       inkscape:vp_z="36 : 23 : 1"
       inkscape:persp3d-origin="18 : 15.333333 : 1"
       id="perspective18" />
  </defs>
  <sodipodi:namedview
     pagecolor="#ffffff"
     bordercolor="#666666"
     borderopacity="1"
     objecttolerance="10"
     gridtolerance="10"
     guidetolerance="10"
     inkscape:pageopacity="0"
     inkscape:pageshadow="2"
     inkscape:window-width="964"
     inkscape:window-height="721"
     id="namedview14"
     showgrid="true"
     inkscape:zoom="16.421381"
     inkscape:cx="9.5011043"
     inkscape:cy="9.5011043"
     inkscape:window-x="365"
     inkscape:window-y="0"
     inkscape:window-maximized="0"
     inkscape:current-layer="svg2"
     showborder="true">
    <inkscape:grid
       type="xygrid"
       id="grid2824"
       empspacing="5"
       visible="true"
       enabled="true"
       snapvisiblegridlinesonly="true" />
  </sodipodi:namedview>
  <metadata
     id="metadata4">
Valerie Sutton's pixel definition of the
ISWA 2010 symbol ID 04-01-003-01-01-01
transformed by Stephen E Slevinski Jr
using line and fill polygon tracing
<rdf:RDF>
  <cc:Work
     rdf:about="">
    <dc:format>image/svg+xml</dc:format>
    <dc:type
       rdf:resource="http://purl.org/dc/dcmitype/StillImage" />
    <dc:title></dc:title>
  </cc:Work>
</rdf:RDF>
</metadata>
  <path
     style="fill:#000000;fill-opacity:1;stroke:none"
     d="M 9.5,0 C 7.5805827,0 5.651966,0.723034 4.1875,2.1875 L 0,6.28125 0.75,7 4.90625,2.90625 C 6.0825186,1.729981 7.7050746,1 9.5,1 c 1.794925,0 3.417481,0.729981 4.59375,1.90625 L 18.28125,7 19,6.28125 14.8125,2.1875 C 13.348034,0.723034 11.419417,0 9.5,0 z"
     id="path2854" />
  <path
     id="path2964"
     d="M 9.5,6 C 7.5805827,6 5.651966,6.723034 4.1875,8.1875 L 0,12.28125 0.75,13 4.90625,8.90625 C 6.0825186,7.729981 7.7050746,7 9.5,7 c 1.794925,0 3.417481,0.729981 4.59375,1.90625 L 18.28125,13 19,12.28125 14.8125,8.1875 C 13.348034,6.723034 11.419417,6 9.5,6 z"
     style="fill:#000000;fill-opacity:1;stroke:none" />
  <path
     style="fill:#000000;fill-opacity:1;stroke:none"
     d="M 9.5,12 C 7.5805827,12 5.651966,12.723034 4.1875,14.1875 L 0,18.28125 0.75,19 4.90625,14.90625 C 6.0825186,13.729981 7.7050746,13 9.5,13 c 1.794925,0 3.417481,0.729981 4.59375,1.90625 L 18.28125,19 19,18.28125 14.8125,14.1875 C 13.348034,12.723034 11.419417,12 9.5,12 z"
     id="path2966" />
</svg>
