<?xml version="1.0" encoding="UTF-8" standalone="no"?>
<svg
   xmlns:dc="http://purl.org/dc/elements/1.1/"
   xmlns:cc="http://creativecommons.org/ns#"
   xmlns:rdf="http://www.w3.org/1999/02/22-rdf-syntax-ns#"
   xmlns:svg="http://www.w3.org/2000/svg"
   xmlns="http://www.w3.org/2000/svg"
   xmlns:sodipodi="http://sodipodi.sourceforge.net/DTD/sodipodi-0.dtd"
   xmlns:inkscape="http://www.inkscape.org/namespaces/inkscape"
   version="1.0"
   width="17"
   height="23"
   id="svg2"
   inkscape:version="0.47 r22583"
   sodipodi:docname="02-07-001-01-01-02.svg">
  <defs
     id="defs16">
    <inkscape:perspective
       sodipodi:type="inkscape:persp3d"
       inkscape:vp_x="0 : 23 : 1"
       inkscape:vp_y="0 : 1000 : 0"
       inkscape:vp_z="36 : 23 : 1"
       inkscape:persp3d-origin="18 : 15.333333 : 1"
       id="perspective18" />
  </defs>
  <sodipodi:namedview
     pagecolor="#ffffff"
     bordercolor="#666666"
     borderopacity="1"
     objecttolerance="10"
     gridtolerance="10"
     guidetolerance="10"
     inkscape:pageopacity="0"
     inkscape:pageshadow="2"
     inkscape:window-width="964"
     inkscape:window-height="721"
     id="namedview14"
     showgrid="true"
     inkscape:zoom="16.701291"
     inkscape:cx="8.5"
     inkscape:cy="11.5"
     inkscape:window-x="365"
     inkscape:window-y="0"
     inkscape:window-maximized="0"
     inkscape:current-layer="svg2"
     showborder="true">
    <inkscape:grid
       type="xygrid"
       id="grid2824"
       empspacing="5"
       visible="true"
       enabled="true"
       snapvisiblegridlinesonly="true" />
  </sodipodi:namedview>
  <metadata
     id="metadata4">
Valerie Sutton's pixel definition of the
ISWA 2010 symbol ID 04-01-003-01-01-01
transformed by Stephen E Slevinski Jr
using line and fill polygon tracing
<rdf:RDF>
  <cc:Work
     rdf:about="">
    <dc:format>image/svg+xml</dc:format>
    <dc:type
       rdf:resource="http://purl.org/dc/dcmitype/StillImage" />
    <dc:title></dc:title>
  </cc:Work>
</rdf:RDF>
</metadata>
  <path
     style="fill:#000000;fill-opacity:1;stroke:none"
     d="M 17,23 7,23 17,13 17,23 z"
     id="path3273" />
  <path
     style="fill:#000000;fill-opacity:1;stroke:none"
     d="m 9.53125,20.46875 1.0625,-1.0625 -2.75,-2.75 C 6.396035,15.208535 5.5,13.209139 5.5,11 5.5,8.790861 6.396035,6.791465 7.84375,5.34375 L 12.125,1.0625 11.0625,0 6.78125,4.28125 C 5.062088,6.000412 4,8.376648 4,11 c 0,2.623352 1.062088,4.999588 2.78125,6.71875 l 2.75,2.75 z"
     id="path3340" />
  <path
     style="fill:#000000;fill-opacity:1;stroke:none"
     d="m 13.40625,16.59375 1.0625,-1.0625 -2.75,-2.75 C 11.266339,12.328839 11,11.690356 11,11 11,10.309644 11.266339,9.671161 11.71875,9.21875 L 16,4.9375 14.9375,3.875 10.65625,8.15625 C 9.9323924,8.880108 9.5,9.89543 9.5,11 c 0,1.104569 0.4323924,2.119892 1.15625,2.84375 l 2.75,2.75 z"
     id="path3338" />
  <path
     style="fill:#ffffff;fill-opacity:1;stroke:none"
     d="m 10.59375,19.40625 2.8125,-2.8125 -2.75,-2.75 C 9.9323924,13.119892 9.5,12.104569 9.5,11 9.5,9.89543 9.9323924,8.880108 10.65625,8.15625 L 14.9375,3.875 12.125,1.0625 7.84375,5.34375 C 6.396035,6.791465 5.5,8.790861 5.5,11 c 0,2.209139 0.896035,4.208535 2.34375,5.65625 l 2.75,2.75 z"
     id="path3292" />
  <path
     id="path3030"
     d="M 16,12 16,9 0,9 0,12 16,12 z"
     style="fill:#000000;fill-opacity:1;stroke:none" />
</svg>
