<?xml version="1.0" encoding="UTF-8" standalone="no"?>
<svg
   xmlns:dc="http://purl.org/dc/elements/1.1/"
   xmlns:cc="http://creativecommons.org/ns#"
   xmlns:rdf="http://www.w3.org/1999/02/22-rdf-syntax-ns#"
   xmlns:svg="http://www.w3.org/2000/svg"
   xmlns="http://www.w3.org/2000/svg"
   xmlns:sodipodi="http://sodipodi.sourceforge.net/DTD/sodipodi-0.dtd"
   xmlns:inkscape="http://www.inkscape.org/namespaces/inkscape"
   version="1.0"
   width="17"
   height="23"
   id="svg2"
   inkscape:version="0.47 r22583"
   sodipodi:docname="02-06-001-01-02-01.svg">
  <defs
     id="defs16">
    <inkscape:perspective
       sodipodi:type="inkscape:persp3d"
       inkscape:vp_x="0 : 23 : 1"
       inkscape:vp_y="0 : 1000 : 0"
       inkscape:vp_z="36 : 23 : 1"
       inkscape:persp3d-origin="18 : 15.333333 : 1"
       id="perspective18" />
  </defs>
  <sodipodi:namedview
     pagecolor="#ffffff"
     bordercolor="#666666"
     borderopacity="1"
     objecttolerance="10"
     gridtolerance="10"
     guidetolerance="10"
     inkscape:pageopacity="0"
     inkscape:pageshadow="2"
     inkscape:window-width="964"
     inkscape:window-height="721"
     id="namedview14"
     showgrid="true"
     inkscape:zoom="16.701291"
     inkscape:cx="8.5"
     inkscape:cy="11.5"
     inkscape:window-x="365"
     inkscape:window-y="0"
     inkscape:window-maximized="0"
     inkscape:current-layer="svg2"
     showborder="true">
    <inkscape:grid
       type="xygrid"
       id="grid2824"
       empspacing="5"
       visible="true"
       enabled="true"
       snapvisiblegridlinesonly="true" />
  </sodipodi:namedview>
  <metadata
     id="metadata4">
Valerie Sutton's pixel definition of the
ISWA 2010 symbol ID 04-01-003-01-01-01
transformed by Stephen E Slevinski Jr
using line and fill polygon tracing
<rdf:RDF>
  <cc:Work
     rdf:about="">
    <dc:format>image/svg+xml</dc:format>
    <dc:type
       rdf:resource="http://purl.org/dc/dcmitype/StillImage" />
    <dc:title></dc:title>
  </cc:Work>
</rdf:RDF>
</metadata>
  <path
     style="fill:#000000;fill-opacity:1;stroke:none"
     d="M 0,0 0,10 10,0 0,0 z M 1,1 7.59375,1 1,7.5625 1,1 z"
     id="path3273" />
  <path
     style="fill:#000000;fill-opacity:1;stroke:none"
     d="M 7.46875 2.53125 L 6.40625 3.59375 L 9.15625 6.34375 C 10.603965 7.7914652 11.5 9.790861 11.5 12 C 11.5 14.209139 10.603965 16.208535 9.15625 17.65625 L 4.875 21.9375 L 5.9375 23 L 10.21875 18.71875 C 11.937912 16.999588 13 14.623352 13 12 C 13 9.3766475 11.937912 7.0004119 10.21875 5.28125 L 7.46875 2.53125 z "
     id="path3340" />
  <path
     style="fill:#000000;fill-opacity:1;stroke:none"
     d="M 3.59375 6.40625 L 2.53125 7.46875 L 5.28125 10.21875 C 5.733661 10.671161 6 11.309644 6 12 C 6 12.690356 5.733661 13.328839 5.28125 13.78125 L 1 18.0625 L 2.0625 19.125 L 6.34375 14.84375 C 7.0676076 14.119892 7.5 13.10457 7.5 12 C 7.5 10.895431 7.0676076 9.8801076 6.34375 9.15625 L 3.59375 6.40625 z "
     id="path3338" />
  <path
     style="fill:#ffffff;fill-opacity:1;stroke:none"
     d="M 6.40625 3.59375 L 3.59375 6.40625 L 6.34375 9.15625 C 7.0676076 9.8801076 7.5 10.895431 7.5 12 C 7.5 13.10457 7.0676076 14.119892 6.34375 14.84375 L 2.0625 19.125 L 4.875 21.9375 L 9.15625 17.65625 C 10.603965 16.208535 11.5 14.209139 11.5 12 C 11.5 9.790861 10.603965 7.7914652 9.15625 6.34375 L 6.40625 3.59375 z "
     id="path3292" />
  <path
     style="fill:#ffffff;fill-opacity:1;stroke:none"
     d="M 1,1 1,7.5625 7.59375,1 1,1 z"
     id="path3397" />
  <path
     style="fill:#000000;fill-opacity:1;stroke:none"
     d="m 1,11 0,3 16,0 0,-3 -16,0 z"
     id="path2935" />
</svg>
