<?xml version="1.0" encoding="UTF-8" standalone="no"?>
<svg
   xmlns:dc="http://purl.org/dc/elements/1.1/"
   xmlns:cc="http://creativecommons.org/ns#"
   xmlns:rdf="http://www.w3.org/1999/02/22-rdf-syntax-ns#"
   xmlns:svg="http://www.w3.org/2000/svg"
   xmlns="http://www.w3.org/2000/svg"
   xmlns:sodipodi="http://sodipodi.sourceforge.net/DTD/sodipodi-0.dtd"
   xmlns:inkscape="http://www.inkscape.org/namespaces/inkscape"
   version="1.0"
   width="60"
   height="15"
   id="svg2"
   inkscape:version="0.47 r22583"
   sodipodi:docname="07-01-002-02-01-01.svg">
  <defs
     id="defs14">
    <inkscape:perspective
       sodipodi:type="inkscape:persp3d"
       inkscape:vp_x="0 : 5.5 : 1"
       inkscape:vp_y="0 : 1000 : 0"
       inkscape:vp_z="10 : 5.5 : 1"
       inkscape:persp3d-origin="5 : 3.6666667 : 1"
       id="perspective16" />
  </defs>
  <sodipodi:namedview
     pagecolor="#ffffff"
     bordercolor="#666666"
     borderopacity="1"
     objecttolerance="10"
     gridtolerance="10"
     guidetolerance="10"
     inkscape:pageopacity="0"
     inkscape:pageshadow="2"
     inkscape:window-width="917"
     inkscape:window-height="792"
     id="namedview12"
     showgrid="true"
     inkscape:zoom="13.6"
     inkscape:cx="30"
     inkscape:cy="7.5"
     inkscape:window-x="313"
     inkscape:window-y="0"
     inkscape:window-maximized="0"
     inkscape:current-layer="svg2"
     showborder="true"
     inkscape:showpageshadow="true">
    <inkscape:grid
       type="xygrid"
       id="grid2822"
       empspacing="5"
       visible="true"
       enabled="true"
       snapvisiblegridlinesonly="true" />
  </sodipodi:namedview>
  <metadata
     id="metadata4">
Valerie Sutton's pixel definition of the
ISWA 2010 symbol ID 02-01-001-01-01-01
transformed by Stephen E Slevinski Jr
using line and fill polygon tracing
<rdf:RDF>
  <cc:Work
     rdf:about="">
    <dc:format>image/svg+xml</dc:format>
    <dc:type
       rdf:resource="http://purl.org/dc/dcmitype/StillImage" />
    <dc:title></dc:title>
  </cc:Work>
</rdf:RDF>
</metadata>
  <path
     style="fill:#000000;fill-opacity:1;stroke:none"
     d="M 30 0 C 19.206529 0 9.0294909 2.5838764 0 7.125 L 0 9.34375 C 8.9759041 4.6610146 19.170284 2 30 2 C 40.829716 2 51.024096 4.6610146 60 9.34375 L 60 7.125 C 50.970509 2.5838764 40.793471 0 30 0 z "
     id="path2921" />
  <path
     style="fill:#ffffff;fill-opacity:1;stroke:none"
     d="M 30 2 C 19.170284 2 8.9759041 4.6610146 0 9.34375 L 0 13.90625 C 8.8585905 8.8895732 19.092756 6 30 6 C 40.907244 6 51.141409 8.8895732 60 13.90625 L 60 9.34375 C 51.024096 4.6610146 40.829716 2 30 2 z "
     id="path2936" />
  <path
     style="fill:#000000;fill-opacity:1;stroke:none"
     d="M 30 6 C 19.092756 6 8.8585905 8.8895732 0 13.90625 L 0 15 L 2.125 15 C 10.426591 10.541281 19.917059 8 30 8 C 40.082941 8 49.573409 10.541281 57.875 15 L 60 15 L 60 13.90625 C 51.141409 8.8895732 40.907244 6 30 6 z "
     id="path2940" />
</svg>
