<?xml version="1.0" encoding="UTF-8" standalone="no"?>
<svg
   xmlns:dc="http://purl.org/dc/elements/1.1/"
   xmlns:cc="http://creativecommons.org/ns#"
   xmlns:rdf="http://www.w3.org/1999/02/22-rdf-syntax-ns#"
   xmlns:svg="http://www.w3.org/2000/svg"
   xmlns="http://www.w3.org/2000/svg"
   xmlns:sodipodi="http://sodipodi.sourceforge.net/DTD/sodipodi-0.dtd"
   xmlns:inkscape="http://www.inkscape.org/namespaces/inkscape"
   version="1.0"
   width="28"
   height="14"
   id="svg2"
   inkscape:version="0.47 r22583"
   sodipodi:docname="02-08-009-01-03-02.svg">
  <defs
     id="defs16">
    <inkscape:perspective
       sodipodi:type="inkscape:persp3d"
       inkscape:vp_x="0 : 23 : 1"
       inkscape:vp_y="0 : 1000 : 0"
       inkscape:vp_z="36 : 23 : 1"
       inkscape:persp3d-origin="18 : 15.333333 : 1"
       id="perspective18" />
  </defs>
  <sodipodi:namedview
     pagecolor="#ffffff"
     bordercolor="#666666"
     borderopacity="1"
     objecttolerance="10"
     gridtolerance="10"
     guidetolerance="10"
     inkscape:pageopacity="0"
     inkscape:pageshadow="2"
     inkscape:window-width="964"
     inkscape:window-height="721"
     id="namedview14"
     showgrid="true"
     inkscape:zoom="16.52305"
     inkscape:cx="14.001994"
     inkscape:cy="7.0009969"
     inkscape:window-x="365"
     inkscape:window-y="0"
     inkscape:window-maximized="0"
     inkscape:current-layer="svg2"
     showborder="true">
    <inkscape:grid
       type="xygrid"
       id="grid2824"
       empspacing="5"
       visible="true"
       enabled="true"
       snapvisiblegridlinesonly="true" />
  </sodipodi:namedview>
  <metadata
     id="metadata4">
Valerie Sutton's pixel definition of the
ISWA 2010 symbol ID 04-01-003-01-01-01
transformed by Stephen E Slevinski Jr
using line and fill polygon tracing
<rdf:RDF>
  <cc:Work
     rdf:about="">
    <dc:format>image/svg+xml</dc:format>
    <dc:type
       rdf:resource="http://purl.org/dc/dcmitype/StillImage" />
    <dc:title></dc:title>
  </cc:Work>
</rdf:RDF>
</metadata>
  <path
     style="fill:#000000;fill-opacity:1;stroke:none"
     d="m 28,0 0,9.8994946 -1.414214,-1.414213 0,-7.0710681 -7.071068,0 L 18.100505,0 28,0 z"
     id="path2839" />
  <path
     style="fill:#000000;fill-opacity:1;stroke:none"
     d="m 23.757359,5.6568546 -5.656854,5.6568544 c -1.171573,1.171573 -3.071068,1.171573 -4.242641,0 -0.546159,-0.54616 -0.824228,-1.251588 -0.861786,-1.9666414 L 9.6152234,12.727922 c -1.5620972,1.562098 -4.0947571,1.562098 -5.6568543,0 L 3.2512623,12.020816 C 0.5175925,9.2871456 0.2010102,5.1715726 2.5441555,2.8284271 l 4.2426407,4.2426405 c -1.5620971,1.562097 -2.1952618,3.4615934 -1.4142135,4.2426414 0.7810482,0.781048 2.0473789,0.781048 2.8284271,0 l 6.7617082,-6.7617094 0,4.640389 c 0,0.255921 0.114098,0.511844 0.30936,0.707106 0.390524,0.3905254 1.023689,0.3905254 1.414213,0 l 5.656854,-5.656854 1.414214,1.414214 z"
     id="path2816" />
</svg>
