<?xml version="1.0" encoding="UTF-8" standalone="no"?>
<svg
   xmlns:dc="http://purl.org/dc/elements/1.1/"
   xmlns:cc="http://creativecommons.org/ns#"
   xmlns:rdf="http://www.w3.org/1999/02/22-rdf-syntax-ns#"
   xmlns:svg="http://www.w3.org/2000/svg"
   xmlns="http://www.w3.org/2000/svg"
   xmlns:sodipodi="http://sodipodi.sourceforge.net/DTD/sodipodi-0.dtd"
   xmlns:inkscape="http://www.inkscape.org/namespaces/inkscape"
   version="1.0"
   width="30"
   height="15"
   id="svg2"
   inkscape:version="0.47 r22583"
   sodipodi:docname="02-08-009-01-02-06.svg">
  <defs
     id="defs16">
    <inkscape:perspective
       sodipodi:type="inkscape:persp3d"
       inkscape:vp_x="0 : 23 : 1"
       inkscape:vp_y="0 : 1000 : 0"
       inkscape:vp_z="36 : 23 : 1"
       inkscape:persp3d-origin="18 : 15.333333 : 1"
       id="perspective18" />
  </defs>
  <sodipodi:namedview
     pagecolor="#ffffff"
     bordercolor="#666666"
     borderopacity="1"
     objecttolerance="10"
     gridtolerance="10"
     guidetolerance="10"
     inkscape:pageopacity="0"
     inkscape:pageshadow="2"
     inkscape:window-width="964"
     inkscape:window-height="721"
     id="namedview14"
     showgrid="true"
     inkscape:zoom="16.52305"
     inkscape:cx="15.002627"
     inkscape:cy="7.5013136"
     inkscape:window-x="365"
     inkscape:window-y="0"
     inkscape:window-maximized="0"
     inkscape:current-layer="svg2"
     showborder="true">
    <inkscape:grid
       type="xygrid"
       id="grid2824"
       empspacing="5"
       visible="true"
       enabled="true"
       snapvisiblegridlinesonly="true" />
  </sodipodi:namedview>
  <metadata
     id="metadata4">
Valerie Sutton's pixel definition of the
ISWA 2010 symbol ID 04-01-003-01-01-01
transformed by Stephen E Slevinski Jr
using line and fill polygon tracing
<rdf:RDF>
  <cc:Work
     rdf:about="">
    <dc:format>image/svg+xml</dc:format>
    <dc:type
       rdf:resource="http://purl.org/dc/dcmitype/StillImage" />
    <dc:title></dc:title>
  </cc:Work>
</rdf:RDF>
</metadata>
  <path
     style="fill:#000000;fill-opacity:1;stroke:none"
     d="M 20,0 29.899495,0 20,9.8994953 20,0 z m 0.994369,0.9943689 0.0221,6.4744464 6.452349,-6.4523493 -6.474446,-0.022097 z"
     id="path2839" />
  <path
     style="fill:#000000;fill-opacity:1;stroke:none"
     d="m 2.3223302,2.1213203 7.7781748,7.778175 c 0.390524,0.3905237 1.023689,0.3905237 1.414213,0 0.195262,-0.195262 0.30936,-0.451185 0.30936,-0.707107 l 0,-4.640388 1.988737,1.988737 5.480078,5.4800777 c 1.171573,1.171573 3.071068,1.171573 4.242641,0 1.171572,-1.171573 0.85499,-3.3876497 -0.707107,-4.9497467 l 4.242641,-4.242641 c 2.343145,2.343145 2.343145,6.142136 0,8.4852807 l -2.121321,2.121321 c -1.952621,1.952621 -5.118446,1.952621 -7.071068,0 L 13.790718,9.3470673 c -0.03756,0.7150537 -0.315627,1.4204817 -0.861786,1.9666407 -1.171573,1.171573 -3.0710681,1.171573 -4.2426408,0 L 0.9081166,3.5355343 2.3223302,2.1213203 z"
     id="path3173" />
  <path
     style="fill:#ffffff;fill-opacity:1;stroke:none"
     d="m 20.994369,0.9943689 6.474446,0.022097 -6.452349,6.4523493 -0.0221,-6.4744464 z"
     id="path2925" />
</svg>
