<?xml version="1.0" encoding="UTF-8" standalone="no"?>
<svg
   xmlns:dc="http://purl.org/dc/elements/1.1/"
   xmlns:cc="http://creativecommons.org/ns#"
   xmlns:rdf="http://www.w3.org/1999/02/22-rdf-syntax-ns#"
   xmlns:svg="http://www.w3.org/2000/svg"
   xmlns="http://www.w3.org/2000/svg"
   xmlns:sodipodi="http://sodipodi.sourceforge.net/DTD/sodipodi-0.dtd"
   xmlns:inkscape="http://www.inkscape.org/namespaces/inkscape"
   version="1.0"
   width="30"
   height="15"
   id="svg2"
   inkscape:version="0.47 r22583"
   sodipodi:docname="02-08-009-01-03-07.svg">
  <defs
     id="defs16">
    <inkscape:perspective
       sodipodi:type="inkscape:persp3d"
       inkscape:vp_x="0 : 23 : 1"
       inkscape:vp_y="0 : 1000 : 0"
       inkscape:vp_z="36 : 23 : 1"
       inkscape:persp3d-origin="18 : 15.333333 : 1"
       id="perspective18" />
  </defs>
  <sodipodi:namedview
     pagecolor="#ffffff"
     bordercolor="#666666"
     borderopacity="1"
     objecttolerance="10"
     gridtolerance="10"
     guidetolerance="10"
     inkscape:pageopacity="0"
     inkscape:pageshadow="2"
     inkscape:window-width="964"
     inkscape:window-height="721"
     id="namedview14"
     showgrid="true"
     inkscape:zoom="16.52305"
     inkscape:cx="15.002627"
     inkscape:cy="7.5013136"
     inkscape:window-x="365"
     inkscape:window-y="0"
     inkscape:window-maximized="0"
     inkscape:current-layer="svg2"
     showborder="true">
    <inkscape:grid
       type="xygrid"
       id="grid2824"
       empspacing="5"
       visible="true"
       enabled="true"
       snapvisiblegridlinesonly="true" />
  </sodipodi:namedview>
  <metadata
     id="metadata4">
Valerie Sutton's pixel definition of the
ISWA 2010 symbol ID 04-01-003-01-01-01
transformed by Stephen E Slevinski Jr
using line and fill polygon tracing
<rdf:RDF>
  <cc:Work
     rdf:about="">
    <dc:format>image/svg+xml</dc:format>
    <dc:type
       rdf:resource="http://purl.org/dc/dcmitype/StillImage" />
    <dc:title></dc:title>
  </cc:Work>
</rdf:RDF>
</metadata>
  <path
     style="fill:#000000;fill-opacity:1;stroke:none"
     d="m 10,0 -9.8994954,0 1.414214,1.4142136 7.071068,0 0,7.0710677 L 10,9.8994953 10,0 z"
     id="path2839" />
  <path
     style="fill:#000000;fill-opacity:1;stroke:none"
     d="m 27.677669,2.1213203 -7.778174,7.778175 c -0.390524,0.3905237 -1.023689,0.3905237 -1.414213,0 -0.195262,-0.195262 -0.30936,-0.451185 -0.30936,-0.707107 l 0,-4.640388 -1.988737,1.988737 -5.480078,5.4800777 c -1.171573,1.171573 -3.0710684,1.171573 -4.2426414,0 -1.171572,-1.171573 -0.85499,-3.3876497 0.707107,-4.9497467 l -4.242641,-4.242641 c -2.343145,2.343145 -2.343145,6.142136 0,8.4852807 l 2.121321,2.121321 c 1.952621,1.952621 5.1184464,1.952621 7.0710684,0 l 4.087961,-4.0879617 c 0.03756,0.7150537 0.315627,1.4204817 0.861786,1.9666407 1.171573,1.171573 3.071068,1.171573 4.24264,0 l 7.778175,-7.7781737 -1.414214,-1.414214 z"
     id="path3173" />
</svg>
