<?xml version="1.0" encoding="UTF-8" standalone="no"?>
<svg
   xmlns:dc="http://purl.org/dc/elements/1.1/"
   xmlns:cc="http://creativecommons.org/ns#"
   xmlns:rdf="http://www.w3.org/1999/02/22-rdf-syntax-ns#"
   xmlns:svg="http://www.w3.org/2000/svg"
   xmlns="http://www.w3.org/2000/svg"
   xmlns:sodipodi="http://sodipodi.sourceforge.net/DTD/sodipodi-0.dtd"
   xmlns:inkscape="http://www.inkscape.org/namespaces/inkscape"
   version="1.0"
   width="13"
   height="8"
   id="svg2"
   inkscape:version="0.47 r22583"
   sodipodi:docname="04-02-006-01-05-01.svg">
  <defs
     id="defs14">
    <inkscape:perspective
       sodipodi:type="inkscape:persp3d"
       inkscape:vp_x="0 : 2 : 1"
       inkscape:vp_y="0 : 1000 : 0"
       inkscape:vp_z="8 : 2 : 1"
       inkscape:persp3d-origin="4 : 1.3333333 : 1"
       id="perspective16" />
  </defs>
  <sodipodi:namedview
     pagecolor="#ffffff"
     bordercolor="#666666"
     borderopacity="1"
     objecttolerance="10"
     gridtolerance="10"
     guidetolerance="10"
     inkscape:pageopacity="0"
     inkscape:pageshadow="2"
     inkscape:window-width="1035"
     inkscape:window-height="791"
     id="namedview12"
     showgrid="true"
     inkscape:zoom="15.81"
     inkscape:cx="7.3837127"
     inkscape:cy="2.3197343"
     inkscape:window-x="208"
     inkscape:window-y="0"
     inkscape:window-maximized="0"
     inkscape:current-layer="svg2">
    <inkscape:grid
       type="xygrid"
       id="grid2822" />
  </sodipodi:namedview>
  <metadata
     id="metadata4">
Valerie Sutton's pixel definition of the
ISWA 2010 symbol ID 04-02-004-01-05-01
transformed by Stephen E Slevinski Jr
using line and fill polygon tracing
<rdf:RDF>
  <cc:Work
     rdf:about="">
    <dc:format>image/svg+xml</dc:format>
    <dc:type
       rdf:resource="http://purl.org/dc/dcmitype/StillImage" />
    <dc:title />
  </cc:Work>
</rdf:RDF>
</metadata>
  <path
     style="fill:#000000;fill-opacity:1;stroke:none"
     d="M 2,8 C 1.978023,7.274333 2.3054406,6.667654 2.59375,6.03125 L 0.46875,3.875 1.15625,3.15625 3.25,5.25 C 3.4544067,5.058332 3.662909,4.902767 3.90625,4.75 L 3,1.40625 3.96875,1.125 4.8125,4.28125 C 5.18377,4.147612 5.587205,4.103731 6,4.0625 L 6,0 7,0 7,4.0625 C 7.412795,4.10373 7.81623,4.14761 8.1875,4.28125 L 9.03125,1.125 10,1.40625 9.09375,4.75 C 9.337091,4.902767 9.545593,5.058332 9.75,5.25 l 2.09375,-2.09375 0.6875,0.71875 -2.125,2.15625 C 10.774945,6.611472 11,7.286091 11,8 L 10,8 C 10,6.619288 8.432997,5.5 6.5,5.5 4.567003,5.5 3,6.619288 3,8 L 2,8 z"
     id="path2857" />
</svg>
