<?xml version="1.0" encoding="UTF-8" standalone="no"?>
<svg
   xmlns:dc="http://purl.org/dc/elements/1.1/"
   xmlns:cc="http://creativecommons.org/ns#"
   xmlns:rdf="http://www.w3.org/1999/02/22-rdf-syntax-ns#"
   xmlns:svg="http://www.w3.org/2000/svg"
   xmlns="http://www.w3.org/2000/svg"
   xmlns:sodipodi="http://sodipodi.sourceforge.net/DTD/sodipodi-0.dtd"
   xmlns:inkscape="http://www.inkscape.org/namespaces/inkscape"
   version="1.0"
   width="13"
   height="44"
   id="svg2"
   inkscape:version="0.47 r22583"
   sodipodi:docname="02-06-005-04-01-01.svg">
  <defs
     id="defs16">
    <inkscape:perspective
       sodipodi:type="inkscape:persp3d"
       inkscape:vp_x="0 : 23 : 1"
       inkscape:vp_y="0 : 1000 : 0"
       inkscape:vp_z="36 : 23 : 1"
       inkscape:persp3d-origin="18 : 15.333333 : 1"
       id="perspective18" />
  </defs>
  <sodipodi:namedview
     pagecolor="#ffffff"
     bordercolor="#666666"
     borderopacity="1"
     objecttolerance="10"
     gridtolerance="10"
     guidetolerance="10"
     inkscape:pageopacity="0"
     inkscape:pageshadow="2"
     inkscape:window-width="964"
     inkscape:window-height="721"
     id="namedview14"
     showgrid="true"
     inkscape:zoom="10.75"
     inkscape:cx="6.5"
     inkscape:cy="22"
     inkscape:window-x="365"
     inkscape:window-y="0"
     inkscape:window-maximized="0"
     inkscape:current-layer="svg2"
     showborder="true">
    <inkscape:grid
       type="xygrid"
       id="grid2824"
       empspacing="5"
       visible="true"
       enabled="true"
       snapvisiblegridlinesonly="true" />
  </sodipodi:namedview>
  <metadata
     id="metadata4">
Valerie Sutton's pixel definition of the
ISWA 2010 symbol ID 04-01-003-01-01-01
transformed by Stephen E Slevinski Jr
using line and fill polygon tracing
<rdf:RDF>
  <cc:Work
     rdf:about="">
    <dc:format>image/svg+xml</dc:format>
    <dc:type
       rdf:resource="http://purl.org/dc/dcmitype/StillImage" />
    <dc:title></dc:title>
  </cc:Work>
</rdf:RDF>
</metadata>
  <path
     style="fill:#000000;fill-opacity:1;stroke:none"
     d="M 1 0 L 1 10 L 3 8 L 3 2 L 9 2 L 11 0 L 1 0 z "
     id="path2820" />
  <path
     style="fill:#000000;fill-opacity:1;stroke:none"
     d="M 7.375 3.625 L 6.65625 4.34375 L 9.65625 7.34375 C 11.103965 8.7914652 12 10.790861 12 13 C 12 15.209139 11.103965 17.208535 9.65625 18.65625 L 8.6875 19.6875 C 7.8731605 20.501839 6.7426405 21 5.5 21 C 3.0147184 21 1.0000001 18.985281 1 16.5 C 1 14.01472 3.0147181 12.000001 5.5 12 C 6.7426402 12.000001 7.8731601 12.49816 8.6875 13.3125 L 8.96875 13.59375 C 8.9927561 13.395887 9 13.204452 9 13 C 9 12.741117 8.975681 12.498034 8.9375 12.25 C 7.9946238 11.479159 6.8132237 11 5.5 11 C 2.4624343 11 0 13.462434 0 16.5 C 0 19.537566 2.4624333 22 5.5 22 C 7.0187827 21.999999 8.3796963 21.370304 9.375 20.375 L 10.375 19.375 C 10.870343 18.879657 11.288132 18.319598 11.65625 17.71875 C 11.871512 18.442301 12 19.206477 12 20 L 12 26 C 12 28.209139 11.103965 30.208535 9.65625 31.65625 L 8.6875 32.6875 C 7.8731605 33.501839 6.7426405 34 5.5 34 C 3.0147184 34 1.0000001 31.985281 1 29.5 C 1 27.01472 3.0147181 25.000001 5.5 25 C 6.8898851 25 8.1120437 25.634852 8.9375 26.625 C 8.9653702 26.416495 9 26.217654 9 26 L 9 25.25 C 8.0492757 24.465393 6.8289352 24 5.5 24 C 2.4624343 24 0 26.462434 0 29.5 C 0 32.537566 2.4624333 35 5.5 35 C 6.8132233 34.999999 7.9946237 34.52084 8.9375 33.75 C 9.0850888 33.62934 9.2402908 33.509709 9.375 33.375 L 10 32.75 L 10.375 32.375 C 10.870343 31.879657 11.288132 31.319598 11.65625 30.71875 C 11.871512 31.442301 12 32.206477 12 33 C 12 35.209139 11.103965 37.208535 9.65625 38.65625 L 5.03125 43.28125 L 5.75 44 L 10.375 39.375 C 12.00368 37.74632 13 35.485281 13 33 C 13 31.757359 12.765165 30.579505 12.3125 29.5 C 12.765165 28.420495 13 27.242641 13 26 L 13 20 C 13 18.757359 12.765165 17.579505 12.3125 16.5 C 12.765165 15.420495 13 14.242641 13 13 C 13 10.514719 12.00368 8.2536797 10.375 6.625 L 7.375 3.625 z "
     id="path2816" />
  <path
     style="fill:#ffffff;fill-opacity:1;stroke:none"
     d="M 6.65625 4.34375 L 5.25 5.75 L 8.25 8.75 C 9.335786 9.8357864 10 11.343146 10 13 C 10 14.656854 9.335786 16.164213 8.25 17.25 L 7.28125 18.28125 C 6.8288388 18.733661 6.1903569 19 5.5 19 C 4.1192881 19 2.9999999 17.880712 3 16.5 C 3.0000002 15.119288 4.1192879 14 5.5 14 C 6.1903556 14 6.828839 14.266339 7.28125 14.71875 L 8.1875 15.6875 C 8.233962 15.616 8.269302 15.542414 8.3125 15.46875 C 8.362407 15.38265 8.4239305 15.307985 8.46875 15.21875 C 8.514187 15.13027 8.553393 15.028758 8.59375 14.9375 C 8.628051 14.85689 8.65739 14.770216 8.6875 14.6875 C 8.7877143 14.424511 8.8849732 14.158289 8.9375 13.875 C 8.954034 13.78291 8.95737 13.687542 8.96875 13.59375 L 8.6875 13.3125 C 7.8731601 12.49816 6.7426402 12.000001 5.5 12 C 3.0147181 12.000001 1 14.01472 1 16.5 C 1.0000001 18.985281 3.0147184 21 5.5 21 C 6.7426405 21 7.8731605 20.501839 8.6875 19.6875 L 9.65625 18.65625 C 11.103965 17.208535 12 15.209139 12 13 C 12 10.790861 11.103965 8.7914652 9.65625 7.34375 L 6.65625 4.34375 z M 11.65625 17.71875 C 11.288132 18.319598 10.870343 18.879657 10.375 19.375 L 10 19.75 C 10.0033 19.83186 10 19.917364 10 20 L 10 26 C 10 27.656854 9.335786 29.164213 8.25 30.25 L 7.28125 31.28125 C 6.8288388 31.733661 6.1903569 32 5.5 32 C 4.1192881 32 2.9999999 30.880712 3 29.5 C 3.0000002 28.119288 4.1192879 27 5.5 27 C 6.1903556 27 6.828839 27.266339 7.28125 27.71875 L 8.1875 28.6875 C 8.233962 28.616 8.269302 28.542414 8.3125 28.46875 C 8.362407 28.38265 8.4239305 28.307985 8.46875 28.21875 C 8.514187 28.13027 8.553393 28.028758 8.59375 27.9375 C 8.628051 27.85689 8.65739 27.770216 8.6875 27.6875 C 8.7877143 27.424511 8.8849732 27.158289 8.9375 26.875 C 8.954034 26.78291 8.95737 26.687542 8.96875 26.59375 L 8.6875 26.3125 C 7.8731601 25.49816 6.7426402 25.000001 5.5 25 C 3.0147181 25.000001 1 27.01472 1 29.5 C 1.0000001 31.985281 3.0147184 34 5.5 34 C 6.7426405 34 7.8731605 33.501839 8.6875 32.6875 L 9.65625 31.65625 C 11.103965 30.208535 12 28.209139 12 26 L 12 20 C 12 19.206477 11.871512 18.442301 11.65625 17.71875 z M 11.65625 30.71875 C 11.288132 31.319598 10.870343 31.879657 10.375 32.375 L 10 32.75 C 10.0033 32.83186 10 32.917364 10 33 C 10 34.656854 9.3357864 36.164213 8.25 37.25 L 3.625 41.875 L 5.03125 43.28125 L 9.65625 38.65625 C 11.103965 37.208535 12 35.209139 12 33 C 12 32.206477 11.871512 31.442301 11.65625 30.71875 z "
     id="path2842" />
  <path
     style="fill:#000000;fill-opacity:1;stroke:none"
     d="M 5.25 5.75 L 4.53125 6.46875 L 7.53125 9.46875 C 8.436072 10.373572 9 11.619288 9 13 C 9 14.000083 8.6944689 14.907311 8.1875 15.6875 L 7.28125 14.71875 C 6.828839 14.266339 6.1903557 14 5.5 14 C 4.1192879 14 3.0000002 15.119288 3 16.5 C 2.9999999 17.880712 4.1192881 19 5.5 19 C 6.1903569 19 6.8288388 18.733661 7.28125 18.28125 L 8.25 17.25 C 9.335786 16.164213 10 14.656854 10 13 C 10 11.343146 9.335786 9.8357864 8.25 8.75 L 5.25 5.75 z M 5.5 15 C 5.9142134 15 6.2910532 15.166053 6.5625 15.4375 L 7.53125 16.46875 C 7.541599 16.4791 7.552239 16.48956 7.5625 16.5 C 7.552389 16.51028 7.541448 16.52105 7.53125 16.53125 L 6.5625 17.5625 C 6.2910537 17.833947 5.9142136 18 5.5 18 C 4.6715732 17.999999 4.0000003 17.328426 4 16.5 C 3.9999998 15.671573 4.6715732 15 5.5 15 z M 10 19.75 L 9.75 20 L 9.375 20.375 C 9.2608934 20.489106 9.1264321 20.585241 9 20.6875 L 9 26 C 9 27.000083 8.6944689 27.907311 8.1875 28.6875 L 7.28125 27.71875 C 6.828839 27.266339 6.1903557 27 5.5 27 C 4.1192879 27 3.0000002 28.119288 3 29.5 C 2.9999999 30.880712 4.1192881 32 5.5 32 C 6.1903569 32 6.8288388 31.733661 7.28125 31.28125 L 8.25 30.25 C 9.335786 29.164213 10 27.656854 10 26 L 10 20 C 10 19.91736 10.0033 19.831859 10 19.75 z M 5.5 28 C 5.9142134 28 6.2910532 28.166053 6.5625 28.4375 L 7.53125 29.46875 C 7.541599 29.4791 7.552239 29.48956 7.5625 29.5 C 7.552389 29.51028 7.541448 29.52105 7.53125 29.53125 L 6.5625 30.5625 C 6.2910537 30.833947 5.9142136 31 5.5 31 C 4.6715732 30.999999 4.0000003 30.328426 4 29.5 C 3.9999998 28.671573 4.6715732 28 5.5 28 z M 10 32.75 L 9.375 33.375 C 9.2402908 33.509709 9.0850888 33.62934 8.9375 33.75 C 8.772049 34.824816 8.2664179 35.796082 7.53125 36.53125 L 2.90625 41.15625 L 3.625 41.875 L 8.25 37.25 C 9.3357864 36.164213 10 34.656854 10 33 C 10 32.91736 10.0033 32.831859 10 32.75 z "
     id="path2845" />
  <path
     id="path2819"
     d="m 12,20 -2,0 0,6 c 0,1.656854 -0.664214,3.164213 -1.75,4.25 L 7.28125,31.28125 C 6.8288388,31.733661 6.1903569,32 5.5,32 4.1192881,32 2.9999999,30.880712 3,29.5 c 2e-7,-1.380712 1.1192879,-2.5 2.5,-2.5 0.6903556,0 1.328839,0.266339 1.78125,0.71875 L 8.1875,28.6875 c 0.046462,-0.0715 0.081802,-0.145086 0.125,-0.21875 0.049907,-0.0861 0.1114305,-0.160765 0.15625,-0.25 0.045437,-0.08848 0.084643,-0.189992 0.125,-0.28125 0.034301,-0.08061 0.06364,-0.167284 0.09375,-0.25 0.1002143,-0.262989 0.1974732,-0.529211 0.25,-0.8125 0.016534,-0.09209 0.01987,-0.187458 0.03125,-0.28125 L 8.6875,26.3125 C 7.8731601,25.49816 6.7426402,25.000001 5.5,25 c -2.4852819,1e-6 -4.5,2.01472 -4.5,4.5 1e-7,2.485281 2.0147184,4.5 4.5,4.5 1.2426405,0 2.3731605,-0.498161 3.1875,-1.3125 L 9.65625,31.65625 C 11.103965,30.208535 12,28.209139 12,26 l 0,-6 z M 11.65625,30.71875 C 11.288132,31.319598 10.870343,31.879657 10.375,32.375 L 10,32.75 c 0.0033,0.08186 0,0.167364 0,0.25 0,1.656854 -0.6642136,3.164213 -1.75,4.25 l -4.625,4.625 1.40625,1.40625 4.625,-4.625 C 11.103965,37.208535 12,35.209139 12,33 12,32.206477 11.871512,31.442301 11.65625,30.71875 z"
     style="fill:#ffffff;fill-opacity:1;stroke:none"
     sodipodi:nodetypes="cccccsssccsssssccssscccccccsccccsc" />
</svg>
