<?xml version="1.0" encoding="UTF-8" standalone="no"?>
<svg
   xmlns:dc="http://purl.org/dc/elements/1.1/"
   xmlns:cc="http://creativecommons.org/ns#"
   xmlns:rdf="http://www.w3.org/1999/02/22-rdf-syntax-ns#"
   xmlns:svg="http://www.w3.org/2000/svg"
   xmlns="http://www.w3.org/2000/svg"
   xmlns:sodipodi="http://sodipodi.sourceforge.net/DTD/sodipodi-0.dtd"
   xmlns:inkscape="http://www.inkscape.org/namespaces/inkscape"
   version="1.0"
   width="13"
   height="41"
   id="svg2"
   inkscape:version="0.47 r22583"
   sodipodi:docname="02-06-005-04-02-01.svg">
  <defs
     id="defs16">
    <inkscape:perspective
       sodipodi:type="inkscape:persp3d"
       inkscape:vp_x="0 : 23 : 1"
       inkscape:vp_y="0 : 1000 : 0"
       inkscape:vp_z="36 : 23 : 1"
       inkscape:persp3d-origin="18 : 15.333333 : 1"
       id="perspective18" />
  </defs>
  <sodipodi:namedview
     pagecolor="#ffffff"
     bordercolor="#666666"
     borderopacity="1"
     objecttolerance="10"
     gridtolerance="10"
     guidetolerance="10"
     inkscape:pageopacity="0"
     inkscape:pageshadow="2"
     inkscape:window-width="964"
     inkscape:window-height="721"
     id="namedview14"
     showgrid="true"
     inkscape:zoom="11.536585"
     inkscape:cx="6.5"
     inkscape:cy="20.5"
     inkscape:window-x="365"
     inkscape:window-y="0"
     inkscape:window-maximized="0"
     inkscape:current-layer="svg2"
     showborder="true">
    <inkscape:grid
       type="xygrid"
       id="grid2824"
       empspacing="5"
       visible="true"
       enabled="true"
       snapvisiblegridlinesonly="true" />
  </sodipodi:namedview>
  <metadata
     id="metadata4">
Valerie Sutton's pixel definition of the
ISWA 2010 symbol ID 04-01-003-01-01-01
transformed by Stephen E Slevinski Jr
using line and fill polygon tracing
<rdf:RDF>
  <cc:Work
     rdf:about="">
    <dc:format>image/svg+xml</dc:format>
    <dc:type
       rdf:resource="http://purl.org/dc/dcmitype/StillImage" />
    <dc:title></dc:title>
  </cc:Work>
</rdf:RDF>
</metadata>
  <path
     style="fill:#000000;fill-opacity:1;stroke:none"
     d="m 7.375,0.625 -0.71875,0.71875 3,3 C 11.103965,5.7914652 12,7.790861 12,10 c 0,2.209139 -0.896035,4.208535 -2.34375,5.65625 L 8.6875,16.6875 C 7.8731605,17.501839 6.7426405,18 5.5,18 3.0147184,18 1.0000001,15.985281 1,13.5 1,11.01472 3.0147181,9.000001 5.5,9 c 1.2426402,10e-7 2.3731601,0.49816 3.1875,1.3125 l 0.28125,0.28125 C 8.9927561,10.395887 9,10.204452 9,10 9,9.741117 8.975681,9.498034 8.9375,9.25 7.9946238,8.479159 6.8132237,8 5.5,8 2.4624343,8 0,10.462434 0,13.5 0,16.537566 2.4624333,19 5.5,19 c 1.5187827,-1e-6 2.8796963,-0.629696 3.875,-1.625 l 1,-1 c 0.495343,-0.495343 0.913132,-1.055402 1.28125,-1.65625 C 11.871512,15.442301 12,16.206477 12,17 l 0,6 c 0,2.209139 -0.896035,4.208535 -2.34375,5.65625 L 8.6875,29.6875 C 7.8731605,30.501839 6.7426405,31 5.5,31 3.0147184,31 1.0000001,28.985281 1,26.5 1,24.01472 3.0147181,22.000001 5.5,22 6.8898851,22 8.1120437,22.634852 8.9375,23.625 8.9653702,23.416495 9,23.217654 9,23 L 9,22.25 C 8.0492757,21.465393 6.8289352,21 5.5,21 2.4624343,21 0,23.462434 0,26.5 0,29.537566 2.4624333,32 5.5,32 c 1.3132233,-1e-6 2.4946237,-0.47916 3.4375,-1.25 0.1475888,-0.12066 0.3027908,-0.240291 0.4375,-0.375 L 10,29.75 10.375,29.375 c 0.495343,-0.495343 0.913132,-1.055402 1.28125,-1.65625 C 11.871512,28.442301 12,29.206477 12,30 c 0,2.209139 -0.896035,4.208535 -2.34375,5.65625 l -4.625,4.625 L 5.75,41 10.375,36.375 C 12.00368,34.74632 13,32.485281 13,30 13,28.757359 12.765165,27.579505 12.3125,26.5 12.765165,25.420495 13,24.242641 13,23 l 0,-6 C 13,15.757359 12.765165,14.579505 12.3125,13.5 12.765165,12.420495 13,11.242641 13,10 13,7.514719 12.00368,5.2536797 10.375,3.625 l -3,-3 z"
     id="path2816" />
  <path
     style="fill:#ffffff;fill-opacity:1;stroke:none"
     d="M 6.65625,1.34375 5.25,2.75 l 3,3 C 9.335786,6.8357864 10,8.343146 10,10 10,11.656854 9.335786,13.164213 8.25,14.25 L 7.28125,15.28125 C 6.8288388,15.733661 6.1903569,16 5.5,16 4.1192881,16 2.9999999,14.880712 3,13.5 c 2e-7,-1.380712 1.1192879,-2.5 2.5,-2.5 0.6903556,0 1.328839,0.266339 1.78125,0.71875 L 8.1875,12.6875 c 0.046462,-0.0715 0.081802,-0.145086 0.125,-0.21875 0.049907,-0.0861 0.1114305,-0.160765 0.15625,-0.25 0.045437,-0.08848 0.084643,-0.189992 0.125,-0.28125 0.034301,-0.08061 0.06364,-0.167284 0.09375,-0.25 0.1002143,-0.262989 0.1974732,-0.529211 0.25,-0.8125 0.016534,-0.09209 0.01987,-0.187458 0.03125,-0.28125 L 8.6875,10.3125 C 7.8731601,9.49816 6.7426402,9.000001 5.5,9 3.0147181,9.000001 1,11.01472 1,13.5 c 1e-7,2.485281 2.0147184,4.5 4.5,4.5 1.2426405,0 2.3731605,-0.498161 3.1875,-1.3125 L 9.65625,15.65625 C 11.103965,14.208535 12,12.209139 12,10 12,7.790861 11.103965,5.7914652 9.65625,4.34375 l -3,-3 z m 5,13.375 C 11.288132,15.319598 10.870343,15.879657 10.375,16.375 L 10,16.75 c 0.0033,0.08186 0,0.167364 0,0.25 l 0,6 c 0,1.656854 -0.664214,3.164213 -1.75,4.25 L 7.28125,28.28125 C 6.8288388,28.733661 6.1903569,29 5.5,29 4.1192881,29 2.9999999,27.880712 3,26.5 c 2e-7,-1.380712 1.1192879,-2.5 2.5,-2.5 0.6903556,0 1.328839,0.266339 1.78125,0.71875 L 8.1875,25.6875 c 0.046462,-0.0715 0.081802,-0.145086 0.125,-0.21875 0.049907,-0.0861 0.1114305,-0.160765 0.15625,-0.25 0.045437,-0.08848 0.084643,-0.189992 0.125,-0.28125 0.034301,-0.08061 0.06364,-0.167284 0.09375,-0.25 0.1002143,-0.262989 0.1974732,-0.529211 0.25,-0.8125 0.016534,-0.09209 0.01987,-0.187458 0.03125,-0.28125 L 8.6875,23.3125 C 7.8731601,22.49816 6.7426402,22.000001 5.5,22 c -2.4852819,1e-6 -4.5,2.01472 -4.5,4.5 1e-7,2.485281 2.0147184,4.5 4.5,4.5 1.2426405,0 2.3731605,-0.498161 3.1875,-1.3125 L 9.65625,28.65625 C 11.103965,27.208535 12,25.209139 12,23 l 0,-6 c 0,-0.793523 -0.128488,-1.557699 -0.34375,-2.28125 z m 0,13 C 11.288132,28.319598 10.870343,28.879657 10.375,29.375 L 10,29.75 c 0.0033,0.08186 0,0.167364 0,0.25 0,1.656854 -0.6642136,3.164213 -1.75,4.25 l -4.625,4.625 1.40625,1.40625 4.625,-4.625 C 11.103965,34.208535 12,32.209139 12,30 12,29.206477 11.871512,28.442301 11.65625,27.71875 z"
     id="path2842" />
  <path
     style="fill:#000000;fill-opacity:1;stroke:none"
     d="m 5.25,2.75 -0.71875,0.71875 3,3 C 8.436072,7.373572 9,8.619288 9,10 9,11.000083 8.6944689,11.907311 8.1875,12.6875 L 7.28125,11.71875 C 6.828839,11.266339 6.1903557,11 5.5,11 4.1192879,11 3.0000002,12.119288 3,13.5 c -10e-8,1.380712 1.1192881,2.5 2.5,2.5 0.6903569,0 1.3288388,-0.266339 1.78125,-0.71875 L 8.25,14.25 C 9.335786,13.164213 10,11.656854 10,10 10,8.343146 9.335786,6.8357864 8.25,5.75 l -3,-3 z M 5.5,12 c 0.4142134,0 0.7910532,0.166053 1.0625,0.4375 l 0.96875,1.03125 C 7.541599,13.4791 7.552239,13.48956 7.5625,13.5 7.552389,13.51028 7.541448,13.52105 7.53125,13.53125 L 6.5625,14.5625 C 6.2910537,14.833947 5.9142136,15 5.5,15 4.6715732,14.999999 4.0000003,14.328426 4,13.5 3.9999998,12.671573 4.6715732,12 5.5,12 z M 10,16.75 9.75,17 9.375,17.375 C 9.2608934,17.489106 9.1264321,17.585241 9,17.6875 L 9,23 c 0,1.000083 -0.3055311,1.907311 -0.8125,2.6875 L 7.28125,24.71875 C 6.828839,24.266339 6.1903557,24 5.5,24 4.1192879,24 3.0000002,25.119288 3,26.5 c -10e-8,1.380712 1.1192881,2.5 2.5,2.5 0.6903569,0 1.3288388,-0.266339 1.78125,-0.71875 L 8.25,27.25 C 9.335786,26.164213 10,24.656854 10,23 l 0,-6 c 0,-0.08264 0.0033,-0.168141 0,-0.25 z M 5.5,25 c 0.4142134,0 0.7910532,0.166053 1.0625,0.4375 l 0.96875,1.03125 C 7.541599,26.4791 7.552239,26.48956 7.5625,26.5 7.552389,26.51028 7.541448,26.52105 7.53125,26.53125 L 6.5625,27.5625 C 6.2910537,27.833947 5.9142136,28 5.5,28 4.6715732,27.999999 4.0000003,27.328426 4,26.5 3.9999998,25.671573 4.6715732,25 5.5,25 z M 10,29.75 9.375,30.375 C 9.2402908,30.509709 9.0850888,30.62934 8.9375,30.75 8.772049,31.824816 8.2664179,32.796082 7.53125,33.53125 l -4.625,4.625 L 3.625,38.875 8.25,34.25 C 9.3357864,33.164213 10,31.656854 10,30 c 0,-0.08264 0.0033,-0.168141 0,-0.25 z"
     id="path2845" />
  <path
     id="path2819"
     d="m 12,17 -2,0 0,6 c 0,1.656854 -0.664214,3.164213 -1.75,4.25 L 7.28125,28.28125 C 6.8288388,28.733661 6.1903569,29 5.5,29 4.1192881,29 2.9999999,27.880712 3,26.5 c 2e-7,-1.380712 1.1192879,-2.5 2.5,-2.5 0.6903556,0 1.328839,0.266339 1.78125,0.71875 L 8.1875,25.6875 c 0.046462,-0.0715 0.081802,-0.145086 0.125,-0.21875 0.049907,-0.0861 0.1114305,-0.160765 0.15625,-0.25 0.045437,-0.08848 0.084643,-0.189992 0.125,-0.28125 0.034301,-0.08061 0.06364,-0.167284 0.09375,-0.25 0.1002143,-0.262989 0.1974732,-0.529211 0.25,-0.8125 0.016534,-0.09209 0.01987,-0.187458 0.03125,-0.28125 L 8.6875,23.3125 C 7.8731601,22.49816 6.7426402,22.000001 5.5,22 c -2.4852819,1e-6 -4.5,2.01472 -4.5,4.5 1e-7,2.485281 2.0147184,4.5 4.5,4.5 1.2426405,0 2.3731605,-0.498161 3.1875,-1.3125 L 9.65625,28.65625 C 11.103965,27.208535 12,25.209139 12,23 l 0,-6 z M 11.65625,27.71875 C 11.288132,28.319598 10.870343,28.879657 10.375,29.375 L 10,29.75 c 0.0033,0.08186 0,0.167364 0,0.25 0,1.656854 -0.6642136,3.164213 -1.75,4.25 l -4.625,4.625 1.40625,1.40625 4.625,-4.625 C 11.103965,34.208535 12,32.209139 12,30 12,29.206477 11.871512,28.442301 11.65625,27.71875 z"
     style="fill:#ffffff;fill-opacity:1;stroke:none"
     sodipodi:nodetypes="cccccsssccsssssccssscccccccsccccsc" />
</svg>
