<?xml version="1.0" encoding="UTF-8" standalone="no"?>
<svg
   xmlns:dc="http://purl.org/dc/elements/1.1/"
   xmlns:cc="http://creativecommons.org/ns#"
   xmlns:rdf="http://www.w3.org/1999/02/22-rdf-syntax-ns#"
   xmlns:svg="http://www.w3.org/2000/svg"
   xmlns="http://www.w3.org/2000/svg"
   xmlns:sodipodi="http://sodipodi.sourceforge.net/DTD/sodipodi-0.dtd"
   xmlns:inkscape="http://www.inkscape.org/namespaces/inkscape"
   version="1.0"
   width="10"
   height="10"
   id="svg2"
   inkscape:version="0.47 r22583"
   sodipodi:docname="04-02-010-01-03-01.svg">
  <defs
     id="defs14">
    <inkscape:perspective
       sodipodi:type="inkscape:persp3d"
       inkscape:vp_x="0 : 3.5 : 1"
       inkscape:vp_y="0 : 1000 : 0"
       inkscape:vp_z="7 : 3.5 : 1"
       inkscape:persp3d-origin="3.5 : 2.3333333 : 1"
       id="perspective16" />
  </defs>
  <sodipodi:namedview
     pagecolor="#ffffff"
     bordercolor="#666666"
     borderopacity="1"
     objecttolerance="10"
     gridtolerance="10"
     guidetolerance="10"
     inkscape:pageopacity="0"
     inkscape:pageshadow="2"
     inkscape:window-width="928"
     inkscape:window-height="791"
     id="namedview12"
     showgrid="true"
     inkscape:zoom="22.8"
     inkscape:cx="5.0381738"
     inkscape:cy="4.3621765"
     inkscape:window-x="273"
     inkscape:window-y="0"
     inkscape:window-maximized="0"
     inkscape:current-layer="svg2">
    <inkscape:grid
       type="xygrid"
       id="grid2822" />
  </sodipodi:namedview>
  <metadata
     id="metadata4">
Valerie Sutton's pixel definition of the
ISWA 2010 symbol ID 04-02-007-01-04-01
transformed by Stephen E Slevinski Jr
using line and fill polygon tracing
<rdf:RDF>
  <cc:Work
     rdf:about="">
    <dc:format>image/svg+xml</dc:format>
    <dc:type
       rdf:resource="http://purl.org/dc/dcmitype/StillImage" />
    <dc:title></dc:title>
  </cc:Work>
</rdf:RDF>
</metadata>
  <path
     style="fill:#000000;fill-opacity:1;stroke:none"
     d="M 0,5 0,0 1,0 1,4 5,4 5,5 0,5 z"
     id="path2841" />
  <path
     style="fill:#000000;fill-opacity:1;stroke:none"
     d="M 5,0 C 3.6192882,0 2.373572,0.56392796 1.46875,1.46875 l 0.6875,0.6875 C 2.8801076,1.4323924 3.8954305,1 5,1 7.209139,1 9,2.790861 9,5 9,7.209139 7.209139,9 5,9 3.4319686,9 2.0932364,8.0949104 1.4375,6.78125 l -0.875,0.4375 C 1.3849013,8.8529643 3.045733,10 5,10 7.7614237,10 10,7.7614237 10,5 10,2.2385763 7.7614237,0 5,0 z"
     id="path2814" />
  <path
     style="fill:#000000;fill-opacity:1;stroke:none"
     d="M 5,2 C 4.1715729,2 3.4178932,2.3321068 2.875,2.875 L 3.59375,3.59375 C 3.9556788,3.2318212 4.4477152,3 5,3 6.1045695,3 7,3.8954305 7,5 7,6.1045695 6.1045695,7 5,7 4.2208212,7 3.5488877,6.5564962 3.21875,5.90625 l -0.875,0.4375 C 2.8389807,7.3190481 3.8312841,8 5,8 6.6568542,8 8,6.6568542 8,5 8,3.3431458 6.6568542,2 5,2 z"
     id="path2826" />
</svg>
