<?xml version="1.0" encoding="UTF-8" standalone="no"?>
<svg
   xmlns:dc="http://purl.org/dc/elements/1.1/"
   xmlns:cc="http://creativecommons.org/ns#"
   xmlns:rdf="http://www.w3.org/1999/02/22-rdf-syntax-ns#"
   xmlns:svg="http://www.w3.org/2000/svg"
   xmlns="http://www.w3.org/2000/svg"
   xmlns:sodipodi="http://sodipodi.sourceforge.net/DTD/sodipodi-0.dtd"
   xmlns:inkscape="http://www.inkscape.org/namespaces/inkscape"
   version="1.0"
   width="25"
   height="10"
   id="svg2"
   inkscape:version="0.47 r22583"
   sodipodi:docname="04-02-011-01-03-06.svg">
  <defs
     id="defs14">
    <inkscape:perspective
       sodipodi:type="inkscape:persp3d"
       inkscape:vp_x="0 : 3.5 : 1"
       inkscape:vp_y="0 : 1000 : 0"
       inkscape:vp_z="7 : 3.5 : 1"
       inkscape:persp3d-origin="3.5 : 2.3333333 : 1"
       id="perspective16" />
  </defs>
  <sodipodi:namedview
     pagecolor="#ffffff"
     bordercolor="#666666"
     borderopacity="1"
     objecttolerance="10"
     gridtolerance="10"
     guidetolerance="10"
     inkscape:pageopacity="0"
     inkscape:pageshadow="2"
     inkscape:window-width="928"
     inkscape:window-height="791"
     id="namedview12"
     showgrid="true"
     inkscape:zoom="22.8"
     inkscape:cx="12.055718"
     inkscape:cy="4.3621765"
     inkscape:window-x="273"
     inkscape:window-y="0"
     inkscape:window-maximized="0"
     inkscape:current-layer="svg2">
    <inkscape:grid
       type="xygrid"
       id="grid2822" />
  </sodipodi:namedview>
  <metadata
     id="metadata4">
Valerie Sutton's pixel definition of the
ISWA 2010 symbol ID 04-02-007-01-04-01
transformed by Stephen E Slevinski Jr
using line and fill polygon tracing
<rdf:RDF>
  <cc:Work
     rdf:about="">
    <dc:format>image/svg+xml</dc:format>
    <dc:type
       rdf:resource="http://purl.org/dc/dcmitype/StillImage" />
    <dc:title></dc:title>
  </cc:Work>
</rdf:RDF>
</metadata>
  <path
     style="fill:#000000;fill-opacity:1;stroke:none"
     d="M 5,10 10,10 10,9 6,9 6,5 5,5 5,10 z"
     id="path2841" />
  <path
     style="fill:#000000;fill-opacity:1;stroke:none"
     d="M 10,5 C 10,6.3807118 9.436072,7.626428 8.53125,8.53125 L 7.84375,7.84375 C 8.5676076,7.1198924 9,6.1045695 9,5 9,2.790861 7.209139,1 5,1 2.790861,1 1,2.790861 1,5 1,6.5680314 1.9050896,7.9067636 3.21875,8.5625 l -0.4375,0.875 C 1.1470357,8.6150987 0,6.954267 0,5 0,2.2385763 2.2385763,0 5,0 c 2.7614237,0 5,2.2385763 5,5 z"
     id="path2814" />
  <path
     style="fill:#000000;fill-opacity:1;stroke:none"
     d="M 8,5 C 8,5.8284271 7.6678932,6.5821068 7.125,7.125 L 6.40625,6.40625 C 6.7681788,6.0443212 7,5.5522848 7,5 7,3.8954305 6.1045695,3 5,3 3.8954305,3 3,3.8954305 3,5 3,5.7791788 3.4435038,6.4511123 4.09375,6.78125 l -0.4375,0.875 C 2.6809519,7.1610193 2,6.1687159 2,5 2,3.3431458 3.3431458,2 5,2 6.6568542,2 8,3.3431458 8,5 z"
     id="path2826" />
  <path
     id="path3020"
     d="m 20,10 5,0 0,-1 -4,0 0,-4 -1,0 0,5 z"
     style="fill:#000000;fill-opacity:1;stroke:none" />
  <path
     id="path3022"
     d="m 25,5 c 0,1.3807118 -0.563928,2.626428 -1.46875,3.53125 l -0.6875,-0.6875 C 23.567608,7.1198924 24,6.1045695 24,5 24,2.790861 22.209139,1 20,1 c -2.209139,0 -4,1.790861 -4,4 0,1.5680314 0.90509,2.9067636 2.21875,3.5625 l -0.4375,0.875 C 16.147036,8.6150987 15,6.954267 15,5 c 0,-2.7614237 2.238576,-5 5,-5 2.761424,0 5,2.2385763 5,5 z"
     style="fill:#000000;fill-opacity:1;stroke:none" />
  <path
     id="path3024"
     d="m 23,5 c 0,0.8284271 -0.332107,1.5821068 -0.875,2.125 L 21.40625,6.40625 C 21.768179,6.0443212 22,5.5522848 22,5 22,3.8954305 21.10457,3 20,3 c -1.104569,0 -2,0.8954305 -2,2 0,0.7791788 0.443504,1.4511123 1.09375,1.78125 l -0.4375,0.875 C 17.680952,7.1610193 17,6.1687159 17,5 c 0,-1.6568542 1.343146,-3 3,-3 1.656854,0 3,1.3431458 3,3 z"
     style="fill:#000000;fill-opacity:1;stroke:none" />
</svg>
