<?xml version="1.0" encoding="UTF-8" standalone="no"?>
<svg
   xmlns:dc="http://purl.org/dc/elements/1.1/"
   xmlns:cc="http://creativecommons.org/ns#"
   xmlns:rdf="http://www.w3.org/1999/02/22-rdf-syntax-ns#"
   xmlns:svg="http://www.w3.org/2000/svg"
   xmlns="http://www.w3.org/2000/svg"
   xmlns:sodipodi="http://sodipodi.sourceforge.net/DTD/sodipodi-0.dtd"
   xmlns:inkscape="http://www.inkscape.org/namespaces/inkscape"
   version="1.0"
   width="10"
   height="10"
   id="svg2"
   inkscape:version="0.47 r22583"
   sodipodi:docname="04-02-011-01-03-08.svg">
  <defs
     id="defs14">
    <inkscape:perspective
       sodipodi:type="inkscape:persp3d"
       inkscape:vp_x="0 : 3.5 : 1"
       inkscape:vp_y="0 : 1000 : 0"
       inkscape:vp_z="7 : 3.5 : 1"
       inkscape:persp3d-origin="3.5 : 2.3333333 : 1"
       id="perspective16" />
  </defs>
  <sodipodi:namedview
     pagecolor="#ffffff"
     bordercolor="#666666"
     borderopacity="1"
     objecttolerance="10"
     gridtolerance="10"
     guidetolerance="10"
     inkscape:pageopacity="0"
     inkscape:pageshadow="2"
     inkscape:window-width="928"
     inkscape:window-height="791"
     id="namedview12"
     showgrid="true"
     inkscape:zoom="22.8"
     inkscape:cx="5.0381738"
     inkscape:cy="4.3621765"
     inkscape:window-x="273"
     inkscape:window-y="0"
     inkscape:window-maximized="0"
     inkscape:current-layer="svg2">
    <inkscape:grid
       type="xygrid"
       id="grid2822" />
  </sodipodi:namedview>
  <metadata
     id="metadata4">
Valerie Sutton's pixel definition of the
ISWA 2010 symbol ID 04-02-007-01-04-01
transformed by Stephen E Slevinski Jr
using line and fill polygon tracing
<rdf:RDF>
  <cc:Work
     rdf:about="">
    <dc:format>image/svg+xml</dc:format>
    <dc:type
       rdf:resource="http://purl.org/dc/dcmitype/StillImage" />
    <dc:title></dc:title>
  </cc:Work>
</rdf:RDF>
</metadata>
  <path
     style="fill:#000000;fill-opacity:1;stroke:none"
     d="M 5,0 10,0 10,1 6,1 6,5 5,5 5,0 z"
     id="path2841" />
  <path
     style="fill:#000000;fill-opacity:1;stroke:none"
     d="M 10,5 C 10,3.6192882 9.436072,2.373572 8.53125,1.46875 l -0.6875,0.6875 C 8.5676076,2.8801076 9,3.8954305 9,5 9,7.209139 7.209139,9 5,9 2.790861,9 1,7.209139 1,5 1,3.4319686 1.9050896,2.0932364 3.21875,1.4375 L 2.78125,0.5625 C 1.1470357,1.3849013 0,3.045733 0,5 c 0,2.7614237 2.2385763,5 5,5 2.7614237,0 5,-2.2385763 5,-5 z"
     id="path2814" />
  <path
     style="fill:#000000;fill-opacity:1;stroke:none"
     d="M 8,5 C 8,4.1715729 7.6678932,3.4178932 7.125,2.875 L 6.40625,3.59375 C 6.7681788,3.9556788 7,4.4477152 7,5 7,6.1045695 6.1045695,7 5,7 3.8954305,7 3,6.1045695 3,5 3,4.2208212 3.4435038,3.5488877 4.09375,3.21875 l -0.4375,-0.875 C 2.6809519,2.8389807 2,3.8312841 2,5 2,6.6568542 3.3431458,8 5,8 6.6568542,8 8,6.6568542 8,5 z"
     id="path2826" />
</svg>
