<?xml version="1.0" encoding="UTF-8" standalone="no"?>
<!-- Created with Inkscape (http://www.inkscape.org/) -->

<svg
   xmlns:dc="http://purl.org/dc/elements/1.1/"
   xmlns:cc="http://creativecommons.org/ns#"
   xmlns:rdf="http://www.w3.org/1999/02/22-rdf-syntax-ns#"
   xmlns:svg="http://www.w3.org/2000/svg"
   xmlns="http://www.w3.org/2000/svg"
   xmlns:sodipodi="http://sodipodi.sourceforge.net/DTD/sodipodi-0.dtd"
   xmlns:inkscape="http://www.inkscape.org/namespaces/inkscape"
   width="15"
   height="25"
   id="svg2"
   version="1.1"
   inkscape:version="0.47 r22583"
   sodipodi:docname="01-05-009-01-04.svg">
  <defs
     id="defs4">
    <inkscape:perspective
       sodipodi:type="inkscape:persp3d"
       inkscape:vp_x="0 : 526.18109 : 1"
       inkscape:vp_y="0 : 1000 : 0"
       inkscape:vp_z="744.09448 : 526.18109 : 1"
       inkscape:persp3d-origin="372.04724 : 350.78739 : 1"
       id="perspective10" />
  </defs>
  <sodipodi:namedview
     id="namedview2916"
     pagecolor="#ffffff"
     bordercolor="#666666"
     borderopacity="1.0"
     inkscape:pageopacity="0.0"
     inkscape:pageshadow="2"
     inkscape:zoom="15.839192"
     inkscape:cx="5.7111356"
     inkscape:cy="12.996028"
     inkscape:document-units="px"
     inkscape:current-layer="svg2"
     showgrid="true"
     inkscape:snap-grids="true"
     inkscape:window-width="1103"
     inkscape:window-height="795"
     inkscape:window-x="306"
     inkscape:window-y="0"
     inkscape:window-maximized="0">
    <inkscape:grid
       type="xygrid"
       id="grid2816" />
  </sodipodi:namedview>
  <metadata
     id="metadata7">
    <rdf:RDF>
      <cc:Work
         rdf:about="">
        <dc:format>image/svg+xml</dc:format>
        <dc:type
           rdf:resource="http://purl.org/dc/dcmitype/StillImage" />
        <dc:title></dc:title>
      </cc:Work>
    </rdf:RDF>
  </metadata>
  <g
     inkscape:label="Layer 1"
     inkscape:groupmode="layer"
     id="layer1" />
  <path
     style="fill:#000000;fill-opacity:1;stroke:none"
     d="M 8,25 8,1 c 0,0 7,0 7,7 l 0,9 c 0,8 -7,8 -7,8 z"
     id="base" />
  <path
     style="fill:#ffffff;fill-opacity:1;stroke:none"
     d="M 9 3 L 9 23 C 9 23 10.815375 23.001531 12 21.15625 L 12 4.53125 C 10.815224 3.001758 9 3 9 3 z "
     id="fill" />
  <path
     style="fill:#000000;fill-opacity:1;stroke:none"
     d="M 0 0 L 0 2 L 4 2 C 4.7781694 2 5.4450451 2.106891 6 2.3125 L 6 0.3125 C 4.875292 0.005087063 4 0 4 0 L 0 0 z "
     id="index" />
  <path
     style="fill:#000000;fill-opacity:1;stroke:none"
     d="M 0 5 L 0 7 L 4 7 C 4 7 4.9379635 7.0143706 6 7.34375 L 6 5.3125 C 4.8806082 5.0489905 4 5 4 5 L 0 5 z "
     id="middle" />
  <path
     style="fill:#000000;fill-opacity:1;stroke:none"
     d="M 0 10 L 0 12 L 4 12 C 4 12 4.9391434 12.025085 6 12.4375 L 6 10.3125 C 4.875292 10.005087 4 10 4 10 L 0 10 z "
     id="ring" />
  <path
     style="fill:#000000;fill-opacity:1;stroke:none"
     d="M 0 15 L 0 17 L 4 17 C 4 17 4.9391434 17.025085 6 17.4375 L 6 15.3125 C 4.875292 15.005087 4 15 4 15 L 0 15 z "
     id="baby" />
  <path
     style="fill:#000000;fill-opacity:1;stroke:none"
     d="M 6 22.5625 C 4.9391434 22.974915 4 23 4 23 L 0 23 L 0 25 L 4 25 C 4 25 4.875292 24.994913 6 24.6875 L 6 22.5625 z "
     id="thumb" />
</svg>
