<?xml version="1.0" encoding="UTF-8" standalone="no"?>
<svg
   xmlns:dc="http://purl.org/dc/elements/1.1/"
   xmlns:cc="http://creativecommons.org/ns#"
   xmlns:rdf="http://www.w3.org/1999/02/22-rdf-syntax-ns#"
   xmlns:svg="http://www.w3.org/2000/svg"
   xmlns="http://www.w3.org/2000/svg"
   xmlns:sodipodi="http://sodipodi.sourceforge.net/DTD/sodipodi-0.dtd"
   xmlns:inkscape="http://www.inkscape.org/namespaces/inkscape"
   version="1.0"
   width="47"
   height="47"
   id="svg2"
   inkscape:version="0.47 r22583"
   sodipodi:docname="04-05-013-01-01-01.svg">
  <defs
     id="defs14">
    <inkscape:perspective
       sodipodi:type="inkscape:persp3d"
       inkscape:vp_x="0 : 17.5 : 1"
       inkscape:vp_y="0 : 1000 : 0"
       inkscape:vp_z="36 : 17.5 : 1"
       inkscape:persp3d-origin="18 : 11.666667 : 1"
       id="perspective16" />
  </defs>
  <sodipodi:namedview
     pagecolor="#ffffff"
     bordercolor="#666666"
     borderopacity="1"
     objecttolerance="10"
     gridtolerance="10"
     guidetolerance="10"
     inkscape:pageopacity="0"
     inkscape:pageshadow="2"
     inkscape:window-width="993"
     inkscape:window-height="789"
     id="namedview12"
     showgrid="true"
     inkscape:zoom="11.737555"
     inkscape:cx="22.507754"
     inkscape:cy="23.761424"
     inkscape:window-x="209"
     inkscape:window-y="0"
     inkscape:window-maximized="0"
     inkscape:current-layer="svg2">
    <inkscape:grid
       type="xygrid"
       id="grid2822" />
  </sodipodi:namedview>
  <metadata
     id="metadata4">
Valerie Sutton's pixel definition of the
ISWA 2010 symbol ID 04-03-001-01-01-01
transformed by Stephen E Slevinski Jr
using line and fill polygon tracing
<rdf:RDF>
  <cc:Work
     rdf:about="">
    <dc:format>image/svg+xml</dc:format>
    <dc:type
       rdf:resource="http://purl.org/dc/dcmitype/StillImage" />
    <dc:title />
  </cc:Work>
</rdf:RDF>
</metadata>
  <path
     style="fill:#000000;fill-opacity:1;stroke:none"
     d="M 21.5 0 L 17.40625 4.09375 L 11 0.40625 L 11 7.59375 L 1.96875 10.78125 L 4.65625 17.34375 L 0 22 L 3.21875 25.21875 L 0 28.4375 L 5 33.4375 L 5 40 L 10 40 L 10 47 L 14.65625 42.34375 L 19.34375 47.0625 L 23 43.4375 L 25.65625 46.0625 L 29.5 42.21875 L 32.78125 45.5 L 34.8125 40.03125 L 42.1875 42 L 40.21875 34.71875 L 46.6875 32.96875 L 41.65625 27.9375 L 46 26.78125 L 46 24 L 43.34375 21.34375 L 47 15 L 41.125 15 L 42 9 L 35 9 L 35 0 L 27.90625 6.40625 L 21.5 0 z M 21.5 1.4375 L 27.875 7.8125 L 27.90625 7.78125 L 34 2.25 L 34 10 L 40.84375 10 L 40 16 L 45.25 16 L 42.09375 21.5 L 45 24.4375 L 45 26 L 39.71875 27.4375 L 44.71875 32.4375 L 39 34 L 40.78125 40.59375 L 34.1875 38.84375 L 32.40625 43.6875 L 29.5 40.78125 L 25.625 44.625 L 23 42 L 19.375 45.625 L 14.625 40.9375 L 11 44.5625 L 11 39 L 6 39 L 6 33 L 1.4375 28.4375 L 4.65625 25.21875 L 1.4375 22 L 5.8125 17.59375 L 3.25 11.375 L 12 8.28125 L 12 2.15625 L 17.53125 5.375 L 21.5 1.4375 z "
     id="path3419" />
  <path
     style="fill:#000000;fill-opacity:1;stroke:none"
     d="M 22.5,7 C 12.835017,7 5,14.835017 5,24.5 5,34.164983 12.835017,42 22.5,42 32.164983,42 40,34.164983 40,24.5 40,14.835017 32.164983,7 22.5,7 z m 0,1.5 c 8.836556,0 16,7.163444 16,16 0,8.836556 -7.163444,16 -16,16 -8.836556,0 -16,-7.163444 -16,-16 0,-8.836556 7.163444,-16 16,-16 z"
     id="path2824" />
</svg>
