<?xml version="1.0" encoding="UTF-8" standalone="no"?>
<svg
   xmlns:dc="http://purl.org/dc/elements/1.1/"
   xmlns:cc="http://creativecommons.org/ns#"
   xmlns:rdf="http://www.w3.org/1999/02/22-rdf-syntax-ns#"
   xmlns:svg="http://www.w3.org/2000/svg"
   xmlns="http://www.w3.org/2000/svg"
   xmlns:sodipodi="http://sodipodi.sourceforge.net/DTD/sodipodi-0.dtd"
   xmlns:inkscape="http://www.inkscape.org/namespaces/inkscape"
   version="1.0"
   width="7"
   height="9"
   id="svg2"
   inkscape:version="0.47 r22583"
   sodipodi:docname="05-02-004-01-04-01.svg">
  <defs
     id="defs14">
    <inkscape:perspective
       sodipodi:type="inkscape:persp3d"
       inkscape:vp_x="0 : 5.5 : 1"
       inkscape:vp_y="0 : 1000 : 0"
       inkscape:vp_z="10 : 5.5 : 1"
       inkscape:persp3d-origin="5 : 3.6666667 : 1"
       id="perspective16" />
  </defs>
  <sodipodi:namedview
     pagecolor="#ffffff"
     bordercolor="#666666"
     borderopacity="1"
     objecttolerance="10"
     gridtolerance="10"
     guidetolerance="10"
     inkscape:pageopacity="0"
     inkscape:pageshadow="2"
     inkscape:window-width="917"
     inkscape:window-height="792"
     id="namedview12"
     showgrid="true"
     inkscape:zoom="16.188122"
     inkscape:cx="3.4998662"
     inkscape:cy="4.4998279"
     inkscape:window-x="313"
     inkscape:window-y="0"
     inkscape:window-maximized="0"
     inkscape:current-layer="svg2"
     showborder="true"
     inkscape:showpageshadow="true">
    <inkscape:grid
       type="xygrid"
       id="grid2822"
       empspacing="5"
       visible="true"
       enabled="true"
       snapvisiblegridlinesonly="true" />
  </sodipodi:namedview>
  <metadata
     id="metadata4">
Valerie Sutton's pixel definition of the
ISWA 2010 symbol ID 02-01-001-01-01-01
transformed by Stephen E Slevinski Jr
using line and fill polygon tracing
<rdf:RDF>
  <cc:Work
     rdf:about="">
    <dc:format>image/svg+xml</dc:format>
    <dc:type
       rdf:resource="http://purl.org/dc/dcmitype/StillImage" />
    <dc:title></dc:title>
  </cc:Work>
</rdf:RDF>
</metadata>
  <path
     style="fill:#000000;fill-opacity:1;stroke:none"
     d="M 0 0 L 0 1.5 L 1.5 1.5 C 3.1568542 1.5 4.5 2.8431458 4.5 4.5 C 4.5 6.1568542 3.1568542 7.5 1.5 7.5 L 0 7.5 L 0 9 L 1.5 9 C 3.9852814 9 6 6.9852814 6 4.5 C 6 2.0147186 3.9852814 -5.9211895e-16 1.5 0 L 0 0 z "
     id="path7827" />
  <path
     style="fill:#ffffff;fill-opacity:1;stroke:none"
     d="M 1.5 0 C 3.9852814 -8.3225874e-16 6 2.0147186 6 4.5 C 6 6.9852814 3.9852814 9 1.5 9 L 4.65625 9 C 6.0678642 8.0043985 7 6.3587134 7 4.5 C 7 2.6412866 6.0678642 0.99560152 4.65625 0 L 1.5 0 z M 0 1.5 L 0 2.5 L 1.5 2.5 C 2.6045695 2.5 3.5 3.3954305 3.5 4.5 C 3.5 5.6045695 2.6045695 6.5 1.5 6.5 L 0 6.5 L 0 7.5 L 1.5 7.5 C 3.1568542 7.5 4.5 6.1568542 4.5 4.5 C 4.5 2.8431458 3.1568542 1.5 1.5 1.5 L 0 1.5 z "
     id="path7835" />
</svg>
