<?xml version="1.0" encoding="UTF-8" standalone="no"?>
<svg
   xmlns:dc="http://purl.org/dc/elements/1.1/"
   xmlns:cc="http://creativecommons.org/ns#"
   xmlns:rdf="http://www.w3.org/1999/02/22-rdf-syntax-ns#"
   xmlns:svg="http://www.w3.org/2000/svg"
   xmlns="http://www.w3.org/2000/svg"
   xmlns:sodipodi="http://sodipodi.sourceforge.net/DTD/sodipodi-0.dtd"
   xmlns:inkscape="http://www.inkscape.org/namespaces/inkscape"
   version="1.0"
   width="11"
   height="12"
   id="svg2"
   inkscape:version="0.47 r22583"
   sodipodi:docname="05-02-004-01-03-01.svg">
  <defs
     id="defs14">
    <inkscape:perspective
       sodipodi:type="inkscape:persp3d"
       inkscape:vp_x="0 : 5.5 : 1"
       inkscape:vp_y="0 : 1000 : 0"
       inkscape:vp_z="10 : 5.5 : 1"
       inkscape:persp3d-origin="5 : 3.6666667 : 1"
       id="perspective16" />
  </defs>
  <sodipodi:namedview
     pagecolor="#ffffff"
     bordercolor="#666666"
     borderopacity="1"
     objecttolerance="10"
     gridtolerance="10"
     guidetolerance="10"
     inkscape:pageopacity="0"
     inkscape:pageshadow="2"
     inkscape:window-width="917"
     inkscape:window-height="792"
     id="namedview12"
     showgrid="true"
     inkscape:zoom="16.029507"
     inkscape:cx="5.4999435"
     inkscape:cy="5.9999383"
     inkscape:window-x="313"
     inkscape:window-y="0"
     inkscape:window-maximized="0"
     inkscape:current-layer="svg2"
     showborder="true"
     inkscape:showpageshadow="true">
    <inkscape:grid
       type="xygrid"
       id="grid2822"
       empspacing="5"
       visible="true"
       enabled="true"
       snapvisiblegridlinesonly="true" />
  </sodipodi:namedview>
  <metadata
     id="metadata4">
Valerie Sutton's pixel definition of the
ISWA 2010 symbol ID 02-01-001-01-01-01
transformed by Stephen E Slevinski Jr
using line and fill polygon tracing
<rdf:RDF>
  <cc:Work
     rdf:about="">
    <dc:format>image/svg+xml</dc:format>
    <dc:type
       rdf:resource="http://purl.org/dc/dcmitype/StillImage" />
    <dc:title></dc:title>
  </cc:Work>
</rdf:RDF>
</metadata>
  <path
     style="fill:#000000;fill-opacity:1;stroke:none"
     d="M 5 0 C 2.2385763 0 0 2.6862915 0 6 C 0 9.3137085 2.2385763 12 5 12 C 7.7614237 12 10 9.3137085 10 6 C 10 2.6862915 7.7614237 -1.7763568e-15 5 0 z M 5 2 C 6.6568542 2 8 3.790861 8 6 C 8 8.209139 6.6568542 10 5 10 C 3.3431458 10 2 8.209139 2 6 C 2 3.790861 3.3431458 2 5 2 z "
     id="path7782" />
  <path
     style="fill:#ffffff;fill-opacity:1;stroke:none"
     d="M 1.90625 0 C 1.1381009 0.54008822 0.49339313 1.28475 0 2.15625 L 0 6 C 0 2.6862915 2.2385763 0 5 0 L 1.90625 0 z M 5 0 C 7.7614237 -1.7763568e-15 10 2.6862915 10 6 C 10 9.3137085 7.7614237 12 5 12 L 8.09375 12 C 9.8359621 10.775045 11 8.5461364 11 6 C 11 3.4538636 9.8359621 1.2249552 8.09375 0 L 5 0 z M 5 12 C 2.2385763 12 0 9.3137085 0 6 L 0 9.84375 C 0.49339313 10.71525 1.1381009 11.459912 1.90625 12 L 5 12 z M 5 2 C 3.3431458 2 2 3.790861 2 6 C 2 8.209139 3.3431458 10 5 10 C 6.6568542 10 8 8.209139 8 6 C 8 3.790861 6.6568542 2 5 2 z M 5 3 C 6.1045695 3 7 4.3431458 7 6 C 7 7.6568542 6.1045695 9 5 9 C 3.8954305 9 3 7.6568542 3 6 C 3 4.3431458 3.8954305 3 5 3 z "
     id="path7787" />
</svg>
