<?xml version="1.0" encoding="UTF-8" standalone="no"?>
<svg
   xmlns:dc="http://purl.org/dc/elements/1.1/"
   xmlns:cc="http://creativecommons.org/ns#"
   xmlns:rdf="http://www.w3.org/1999/02/22-rdf-syntax-ns#"
   xmlns:svg="http://www.w3.org/2000/svg"
   xmlns="http://www.w3.org/2000/svg"
   xmlns:sodipodi="http://sodipodi.sourceforge.net/DTD/sodipodi-0.dtd"
   xmlns:inkscape="http://www.inkscape.org/namespaces/inkscape"
   version="1.0"
   width="23"
   height="36"
   id="svg2"
   inkscape:version="0.47 r22583"
   sodipodi:docname="02-06-008-01-01-09.svg">
  <defs
     id="defs16">
    <inkscape:perspective
       sodipodi:type="inkscape:persp3d"
       inkscape:vp_x="0 : 23 : 1"
       inkscape:vp_y="0 : 1000 : 0"
       inkscape:vp_z="36 : 23 : 1"
       inkscape:persp3d-origin="18 : 15.333333 : 1"
       id="perspective18" />
  </defs>
  <sodipodi:namedview
     pagecolor="#ffffff"
     bordercolor="#666666"
     borderopacity="1"
     objecttolerance="10"
     gridtolerance="10"
     guidetolerance="10"
     inkscape:pageopacity="0"
     inkscape:pageshadow="2"
     inkscape:window-width="964"
     inkscape:window-height="721"
     id="namedview14"
     showgrid="true"
     inkscape:zoom="13.138889"
     inkscape:cx="11.5"
     inkscape:cy="18"
     inkscape:window-x="365"
     inkscape:window-y="0"
     inkscape:window-maximized="0"
     inkscape:current-layer="svg2"
     showborder="true">
    <inkscape:grid
       type="xygrid"
       id="grid2824"
       empspacing="5"
       visible="true"
       enabled="true"
       snapvisiblegridlinesonly="true" />
  </sodipodi:namedview>
  <metadata
     id="metadata4">
Valerie Sutton's pixel definition of the
ISWA 2010 symbol ID 04-01-003-01-01-01
transformed by Stephen E Slevinski Jr
using line and fill polygon tracing
<rdf:RDF>
  <cc:Work
     rdf:about="">
    <dc:format>image/svg+xml</dc:format>
    <dc:type
       rdf:resource="http://purl.org/dc/dcmitype/StillImage" />
    <dc:title></dc:title>
  </cc:Work>
</rdf:RDF>
</metadata>
  <path
     style="fill:#000000;fill-opacity:1;stroke:none"
     d="m 11,0 0,36 -1,0 0,-36 1,0 z"
     id="path2831" />
  <path
     style="fill:#000000;fill-opacity:1;stroke:none"
     d="M 13,19.000001 23,19 23,9 13,19.000001 z"
     id="path2964" />
  <path
     style="fill:#000000;fill-opacity:1;stroke:none"
     d="m 10.5,7 c 2.623352,0 4.999589,1.062088 6.71875,2.78125 l 2.5,2.5 L 19,13 16.5,10.5 C 14.961802,8.961802 12.84721,8 10.5,8 8.15279,8 6.038198,8.961802 4.5,10.5 L 0.6875,14.28125 0,13.59375 3.78125,9.78125 C 5.500411,8.062088 7.876648,7 10.5,7 z"
     id="path2817" />
  <path
     style="fill:#ffffff;fill-opacity:1;stroke:none"
     d="m 10.5,8 c 2.34721,0 4.461802,0.961802 6,2.5 l 2.5,2.5 -2.125,2.125 -2.5,-2.5 C 13.379696,11.629695 12.018783,11 10.5,11 8.981217,11 7.620304,11.629695 6.625,12.625 L 2.8125,16.40625 0.6875,14.28125 4.5,10.5 C 6.038198,8.961802 8.152789,8.000001 10.5,8 z"
     id="path2819" />
  <path
     style="fill:#000000;fill-opacity:1;stroke:none"
     d="m 10.5,11 c 1.518783,0 2.879696,0.629695 3.875,1.625 l 2.5,2.5 -0.6875,0.6875 -2.5,-2.5 C 12.87316,12.49816 11.742641,12 10.5,12 9.257359,12 8.126841,12.498159 7.3125,13.3125 L 3.53125,17.125 2.8125,16.40625 6.625,12.625 C 7.620304,11.629695 8.981217,11 10.5,11 z"
     id="path2824" />
  <path
     id="path2879"
     d="M 13,33.000001 23,33 23,23 13,33.000001 z"
     style="fill:#000000;fill-opacity:1;stroke:none" />
  <path
     id="path2881"
     d="m 10.5,21 c 2.623352,0 4.999589,1.062088 6.71875,2.78125 l 2.5,2.5 L 19,27 16.5,24.5 C 14.961802,22.961802 12.84721,22 10.5,22 8.15279,22 6.038198,22.961802 4.5,24.5 L 0.6875,28.28125 0,27.59375 3.78125,23.78125 C 5.500411,22.062088 7.876648,21 10.5,21 z"
     style="fill:#000000;fill-opacity:1;stroke:none" />
  <path
     id="path2883"
     d="m 10.5,22 c 2.34721,0 4.461802,0.961802 6,2.5 l 2.5,2.5 -2.125,2.125 -2.5,-2.5 C 13.379696,25.629695 12.018783,25 10.5,25 8.981217,25 7.620304,25.629695 6.625,26.625 L 2.8125,30.40625 0.6875,28.28125 4.5,24.5 c 1.538198,-1.538198 3.652789,-2.499999 6,-2.5 z"
     style="fill:#ffffff;fill-opacity:1;stroke:none" />
  <path
     id="path2885"
     d="m 10.5,25 c 1.518783,0 2.879696,0.629695 3.875,1.625 l 2.5,2.5 -0.6875,0.6875 -2.5,-2.5 C 12.87316,26.49816 11.742641,26 10.5,26 9.257359,26 8.126841,26.498159 7.3125,27.3125 L 3.53125,31.125 2.8125,30.40625 6.625,26.625 C 7.620304,25.629695 8.981217,25 10.5,25 z"
     style="fill:#000000;fill-opacity:1;stroke:none" />
</svg>
