<?xml version="1.0" encoding="UTF-8" standalone="no"?>
<svg
   xmlns:dc="http://purl.org/dc/elements/1.1/"
   xmlns:cc="http://creativecommons.org/ns#"
   xmlns:rdf="http://www.w3.org/1999/02/22-rdf-syntax-ns#"
   xmlns:svg="http://www.w3.org/2000/svg"
   xmlns="http://www.w3.org/2000/svg"
   xmlns:sodipodi="http://sodipodi.sourceforge.net/DTD/sodipodi-0.dtd"
   xmlns:inkscape="http://www.inkscape.org/namespaces/inkscape"
   version="1.0"
   width="32"
   height="29"
   id="svg2"
   inkscape:version="0.47 r22583"
   sodipodi:docname="02-06-008-01-01-04.svg">
  <defs
     id="defs16">
    <inkscape:perspective
       sodipodi:type="inkscape:persp3d"
       inkscape:vp_x="0 : 23 : 1"
       inkscape:vp_y="0 : 1000 : 0"
       inkscape:vp_z="36 : 23 : 1"
       inkscape:persp3d-origin="18 : 15.333333 : 1"
       id="perspective18" />
  </defs>
  <sodipodi:namedview
     pagecolor="#ffffff"
     bordercolor="#666666"
     borderopacity="1"
     objecttolerance="10"
     gridtolerance="10"
     guidetolerance="10"
     inkscape:pageopacity="0"
     inkscape:pageshadow="2"
     inkscape:window-width="964"
     inkscape:window-height="721"
     id="namedview14"
     showgrid="true"
     inkscape:zoom="16.310345"
     inkscape:cx="16"
     inkscape:cy="14.5"
     inkscape:window-x="365"
     inkscape:window-y="0"
     inkscape:window-maximized="0"
     inkscape:current-layer="svg2"
     showborder="true">
    <inkscape:grid
       type="xygrid"
       id="grid2824"
       empspacing="5"
       visible="true"
       enabled="true"
       snapvisiblegridlinesonly="true" />
  </sodipodi:namedview>
  <metadata
     id="metadata4">
Valerie Sutton's pixel definition of the
ISWA 2010 symbol ID 04-01-003-01-01-01
transformed by Stephen E Slevinski Jr
using line and fill polygon tracing
<rdf:RDF>
  <cc:Work
     rdf:about="">
    <dc:format>image/svg+xml</dc:format>
    <dc:type
       rdf:resource="http://purl.org/dc/dcmitype/StillImage" />
    <dc:title></dc:title>
  </cc:Work>
</rdf:RDF>
</metadata>
  <path
     style="fill:#000000;fill-opacity:1;stroke:none"
     d="M 25.000001,5.5 32,12.5 l -7,7 1e-6,-14 z"
     id="path2964" />
  <path
     id="path2952"
     d="M 16.000001,14.5 23,21.5 l -7,7 1e-6,-14 z"
     style="fill:#000000;fill-opacity:1;stroke:none" />
  <path
     style="fill:#000000;fill-opacity:1;stroke:none"
     d="m 18,5.5 c 0,1.407313 0.551256,2.801256 1.625,3.875 C 20.698744,10.448744 22.092686,11 23.5,11 l 1.5,0 0,-1 -1.5,0 C 22.348561,10 21.191019,9.566018 20.3125,8.6875 19.433983,7.808983 19,6.651439 19,5.5 L 19,0 18,0 18,5.5 z"
     id="path2941" />
  <path
     id="path2954"
     d="m 9,14.5 c 0,1.407313 0.551256,2.801256 1.625,3.875 C 11.698744,19.448744 13.092686,20 14.5,20 l 1.5,0 0,-1 -1.5,0 C 13.348561,19 12.191019,18.566018 11.3125,17.6875 10.433983,16.808983 10,15.651439 10,14.5 L 10,9 9,9 9,14.5 z"
     style="fill:#000000;fill-opacity:1;stroke:none" />
  <path
     style="fill:#ffffff;fill-opacity:1;stroke:none"
     d="m 15,5.5 c -10e-7,2.17494 0.840577,4.340578 2.5,6 1.659422,1.659423 3.82506,2.5 6,2.5 l 1.5,0 0,-3 -1.5,0 C 22.092686,11 20.698744,10.448744 19.625,9.375 18.551256,8.301256 18,6.907313 18,5.5 L 18,0 15,0 15,5.5 z"
     id="path2939" />
  <path
     id="path2956"
     d="m 6,14.5 c -1e-6,2.17494 0.840577,4.340578 2.5,6 1.659422,1.659423 3.82506,2.5 6,2.5 l 1.5,0 0,-3 -1.5,0 C 13.092686,20 11.698744,19.448744 10.625,18.375 9.551256,17.301256 9,15.907313 9,14.5 L 9,9 6,9 6,14.5 z"
     style="fill:#ffffff;fill-opacity:1;stroke:none" />
  <path
     style="fill:#000000;fill-opacity:1;stroke:none"
     d="M 28.28125 0 L 0 28.28125 L 0.71875 29 L 29 0.71875 L 28.28125 0 z "
     id="path2831" />
  <path
     id="path2958"
     d="m 5,14.5 c 0,2.430815 0.926601,4.864101 2.78125,6.71875 C 9.6359,23.073399 12.069185,24 14.5,24 l 1.5,0 0,-1 -1.5,0 C 12.32506,23 10.159423,22.159423 8.5,20.5 6.840577,18.840578 5.999999,16.67494 6,14.5 L 6,9 5,9 5,14.5 z"
     style="fill:#000000;fill-opacity:1;stroke:none" />
  <path
     style="fill:#000000;fill-opacity:1;stroke:none"
     d="m 14,5.5 c 0,2.430815 0.926601,4.864101 2.78125,6.71875 C 18.6359,14.073399 21.069185,15 23.5,15 l 1.5,0 0,-1 -1.5,0 c -2.17494,0 -4.340577,-0.840577 -6,-2.5 C 15.840577,9.840578 14.999999,7.67494 15,5.5 L 15,0 14,0 14,5.5 z"
     id="rect2820" />
</svg>
