<?xml version="1.0" encoding="UTF-8" standalone="no"?>
<svg
   xmlns:dc="http://purl.org/dc/elements/1.1/"
   xmlns:cc="http://creativecommons.org/ns#"
   xmlns:rdf="http://www.w3.org/1999/02/22-rdf-syntax-ns#"
   xmlns:svg="http://www.w3.org/2000/svg"
   xmlns="http://www.w3.org/2000/svg"
   xmlns:sodipodi="http://sodipodi.sourceforge.net/DTD/sodipodi-0.dtd"
   xmlns:inkscape="http://www.inkscape.org/namespaces/inkscape"
   version="1.0"
   width="29"
   height="32"
   id="svg2"
   inkscape:version="0.47 r22583"
   sodipodi:docname="02-06-009-01-03-10.svg">
  <defs
     id="defs16">
    <inkscape:perspective
       sodipodi:type="inkscape:persp3d"
       inkscape:vp_x="0 : 23 : 1"
       inkscape:vp_y="0 : 1000 : 0"
       inkscape:vp_z="36 : 23 : 1"
       inkscape:persp3d-origin="18 : 15.333333 : 1"
       id="perspective18" />
  </defs>
  <sodipodi:namedview
     pagecolor="#ffffff"
     bordercolor="#666666"
     borderopacity="1"
     objecttolerance="10"
     gridtolerance="10"
     guidetolerance="10"
     inkscape:pageopacity="0"
     inkscape:pageshadow="2"
     inkscape:window-width="964"
     inkscape:window-height="721"
     id="namedview14"
     showgrid="true"
     inkscape:zoom="14.78125"
     inkscape:cx="14.5"
     inkscape:cy="16"
     inkscape:window-x="365"
     inkscape:window-y="0"
     inkscape:window-maximized="0"
     inkscape:current-layer="svg2"
     showborder="true">
    <inkscape:grid
       type="xygrid"
       id="grid2824"
       empspacing="5"
       visible="true"
       enabled="true"
       snapvisiblegridlinesonly="true" />
  </sodipodi:namedview>
  <metadata
     id="metadata4">
Valerie Sutton's pixel definition of the
ISWA 2010 symbol ID 04-01-003-01-01-01
transformed by Stephen E Slevinski Jr
using line and fill polygon tracing
<rdf:RDF>
  <cc:Work
     rdf:about="">
    <dc:format>image/svg+xml</dc:format>
    <dc:type
       rdf:resource="http://purl.org/dc/dcmitype/StillImage" />
    <dc:title></dc:title>
  </cc:Work>
</rdf:RDF>
</metadata>
  <path
     style="fill:#000000;fill-opacity:1;stroke:none"
     d="M 28.28125 0 L 0 28.28125 L 0.71875 29 L 29 0.71875 L 28.28125 0 z "
     id="path2831" />
  <path
     style="fill:#000000;fill-opacity:1;stroke:none"
     d="M 14.5 16 L 21.5 23 L 28.5 16 L 14.5 16 z M 16.9375 17 L 26.0625 17 L 21.5 21.59375 L 16.9375 17 z "
     id="path2964" />
  <path
     style="fill:#000000;fill-opacity:1;stroke:none"
     d="m 14.5,9 c 1.407313,0 2.801256,0.551256 3.875,1.625 C 19.448744,11.698744 20,13.092686 20,14.5 l 0,1.5 -1,0 0,-1.5 C 19,13.348561 18.566018,12.191019 17.6875,11.3125 16.808983,10.433983 15.651439,10 14.5,10 L 9,10 9,9 14.5,9 z"
     id="path2941" />
  <path
     style="fill:#ffffff;fill-opacity:1;stroke:none"
     d="m 14.5,6 c 2.17494,-7e-7 4.340578,0.8405772 6,2.5 1.659423,1.659422 2.5,3.82506 2.5,6 l 0,1.5 -3,0 0,-1.5 C 20,13.092686 19.448744,11.698744 18.375,10.625 17.301256,9.551256 15.907313,9 14.5,9 L 9,9 9,6 14.5,6 z"
     id="path2939" />
  <path
     style="fill:#000000;fill-opacity:1;stroke:none"
     d="m 14.5,5 c 2.430815,0 4.864101,0.9266013 6.71875,2.78125 C 23.073399,9.6359002 24,12.069185 24,14.5 l 0,1.5 -1,0 0,-1.5 C 23,12.32506 22.159423,10.159423 20.5,8.5 18.840578,6.8405772 16.67494,5.9999993 14.5,6 L 9,6 9,5 14.5,5 z"
     id="rect2820" />
  <path
     style="fill:#000000;fill-opacity:1;stroke:none"
     d="M 5.5 25 L 12.5 32 L 19.5 25 L 5.5 25 z M 7.9375 26 L 17.0625 26 L 12.5 30.59375 L 7.9375 26 z "
     id="path2885" />
  <path
     id="path2887"
     d="m 5.5,18 c 1.407313,0 2.801256,0.551256 3.875,1.625 C 10.448744,20.698744 11,22.092686 11,23.5 l 0,1.5 -1,0 0,-1.5 C 10,22.348561 9.566018,21.191019 8.6875,20.3125 7.808983,19.433983 6.651439,19 5.5,19 L 0,19 0,18 5.5,18 z"
     style="fill:#000000;fill-opacity:1;stroke:none" />
  <path
     id="path2889"
     d="m 5.5,15 c 2.17494,-10e-7 4.340578,0.840577 6,2.5 1.659423,1.659422 2.5,3.82506 2.5,6 l 0,1.5 -3,0 0,-1.5 C 11,22.092686 10.448744,20.698744 9.375,19.625 8.301256,18.551256 6.907313,18 5.5,18 L 0,18 0,15 5.5,15 z"
     style="fill:#ffffff;fill-opacity:1;stroke:none" />
  <path
     id="path2891"
     d="m 5.5,14 c 2.430815,0 4.864101,0.926601 6.71875,2.78125 C 14.073399,18.6359 15,21.069185 15,23.5 l 0,1.5 -1,0 0,-1.5 c 0,-2.17494 -0.840577,-4.340577 -2.5,-6 C 9.840578,15.840577 7.67494,14.999999 5.5,15 L 0,15 0,14 5.5,14 z"
     style="fill:#000000;fill-opacity:1;stroke:none" />
  <path
     style="fill:#ffffff;fill-opacity:1;stroke:none"
     d="M 16.9375 17 L 21.5 21.59375 L 26.0625 17 L 16.9375 17 z "
     id="path3442" />
  <path
     style="fill:#ffffff;fill-opacity:1;stroke:none"
     d="M 7.9375 26 L 12.5 30.59375 L 17.0625 26 L 7.9375 26 z "
     id="path3444" />
</svg>
