<?xml version="1.0" encoding="UTF-8" standalone="no"?>
<svg
   xmlns:dc="http://purl.org/dc/elements/1.1/"
   xmlns:cc="http://creativecommons.org/ns#"
   xmlns:rdf="http://www.w3.org/1999/02/22-rdf-syntax-ns#"
   xmlns:svg="http://www.w3.org/2000/svg"
   xmlns="http://www.w3.org/2000/svg"
   xmlns:sodipodi="http://sodipodi.sourceforge.net/DTD/sodipodi-0.dtd"
   xmlns:inkscape="http://www.inkscape.org/namespaces/inkscape"
   version="1.0"
   width="26"
   height="24"
   id="svg2"
   inkscape:version="0.47 r22583"
   sodipodi:docname="02-06-009-01-04-02.svg">
  <defs
     id="defs16">
    <inkscape:perspective
       sodipodi:type="inkscape:persp3d"
       inkscape:vp_x="0 : 23 : 1"
       inkscape:vp_y="0 : 1000 : 0"
       inkscape:vp_z="36 : 23 : 1"
       inkscape:persp3d-origin="18 : 15.333333 : 1"
       id="perspective18" />
  </defs>
  <sodipodi:namedview
     pagecolor="#ffffff"
     bordercolor="#666666"
     borderopacity="1"
     objecttolerance="10"
     gridtolerance="10"
     guidetolerance="10"
     inkscape:pageopacity="0"
     inkscape:pageshadow="2"
     inkscape:window-width="964"
     inkscape:window-height="721"
     id="namedview14"
     showgrid="true"
     inkscape:zoom="16.010846"
     inkscape:cx="13.004285"
     inkscape:cy="12.003955"
     inkscape:window-x="365"
     inkscape:window-y="0"
     inkscape:window-maximized="0"
     inkscape:current-layer="svg2"
     showborder="true">
    <inkscape:grid
       type="xygrid"
       id="grid2824"
       empspacing="5"
       visible="true"
       enabled="true"
       snapvisiblegridlinesonly="true" />
  </sodipodi:namedview>
  <metadata
     id="metadata4">
Valerie Sutton's pixel definition of the
ISWA 2010 symbol ID 04-01-003-01-01-01
transformed by Stephen E Slevinski Jr
using line and fill polygon tracing
<rdf:RDF>
  <cc:Work
     rdf:about="">
    <dc:format>image/svg+xml</dc:format>
    <dc:type
       rdf:resource="http://purl.org/dc/dcmitype/StillImage" />
    <dc:title />
  </cc:Work>
</rdf:RDF>
</metadata>
  <path
     style="fill:#000000;fill-opacity:1;stroke:none"
     d="m 0,14 5.000001,5 5,-5 L 0,14 z"
     id="path2964" />
  <path
     style="fill:#000000;fill-opacity:1;stroke:none"
     d="m 3.000001,9 c 0,-4.970563 4.029437,-9 9,-9 L 18,0 18,1 12.000001,1 c -4.418278,0 -8,3.581722 -8,8 l 0,5 -1,0 0,-5 z"
     id="path2816" />
  <path
     style="fill:#ffffff;fill-opacity:1;stroke:none"
     d="m 4.000001,9 c 0,-4.418278 3.581722,-8 8,-8 L 18,1 18,3 12.000001,3 c -3.313709,0 -6,2.686292 -6,6 l 0,5 -2,0 0,-5 z"
     id="path2818" />
  <path
     style="fill:#000000;fill-opacity:1;stroke:none"
     d="m 6.000001,9 c 0,-3.313708 2.686291,-6 6,-6 L 18,3 18,4 12.000001,4 c -2.761424,0 -5,2.238576 -5,5 l 0,5 -1,0 0,-5 z"
     id="path2823" />
  <path
     id="path2867"
     d="M 8,19 13.000001,24 18,19 8,19 z"
     style="fill:#000000;fill-opacity:1;stroke:none" />
  <path
     id="path2869"
     d="m 11.000001,14 c 0,-4.9705626 4.029437,-9 8.999999,-9 l 6,0 0,1 -6,0 c -4.418277,0 -7.999999,3.5817224 -7.999999,8 l 0,5 -1,0 0,-5 z"
     style="fill:#000000;fill-opacity:1;stroke:none" />
  <path
     id="path2871"
     d="m 12.000001,14 c 0,-4.4182776 3.581722,-8 7.999999,-8 l 6,0 0,2 -6,0 c -3.313709,0 -5.999999,2.686291 -5.999999,6 l 0,5 -2,0 0,-5 z"
     style="fill:#ffffff;fill-opacity:1;stroke:none" />
  <path
     id="path2873"
     d="m 14.000001,14 c 0,-3.313709 2.68629,-6 5.999999,-6 l 6,0 0,1 -6,0 c -2.761424,0 -4.999999,2.238576 -4.999999,5 l 0,5 -1,0 0,-5 z"
     style="fill:#000000;fill-opacity:1;stroke:none" />
</svg>
