<?xml version="1.0" encoding="UTF-8" standalone="no"?>
<svg
   xmlns:dc="http://purl.org/dc/elements/1.1/"
   xmlns:cc="http://creativecommons.org/ns#"
   xmlns:rdf="http://www.w3.org/1999/02/22-rdf-syntax-ns#"
   xmlns:svg="http://www.w3.org/2000/svg"
   xmlns="http://www.w3.org/2000/svg"
   xmlns:sodipodi="http://sodipodi.sourceforge.net/DTD/sodipodi-0.dtd"
   xmlns:inkscape="http://www.inkscape.org/namespaces/inkscape"
   version="1.0"
   width="21"
   height="22"
   id="svg2"
   inkscape:version="0.47 r22583"
   sodipodi:docname="02-06-009-01-06-07.svg">
  <defs
     id="defs16">
    <inkscape:perspective
       sodipodi:type="inkscape:persp3d"
       inkscape:vp_x="0 : 23 : 1"
       inkscape:vp_y="0 : 1000 : 0"
       inkscape:vp_z="36 : 23 : 1"
       inkscape:persp3d-origin="18 : 15.333333 : 1"
       id="perspective18" />
  </defs>
  <sodipodi:namedview
     pagecolor="#ffffff"
     bordercolor="#666666"
     borderopacity="1"
     objecttolerance="10"
     gridtolerance="10"
     guidetolerance="10"
     inkscape:pageopacity="0"
     inkscape:pageshadow="2"
     inkscape:window-width="964"
     inkscape:window-height="721"
     id="namedview14"
     showgrid="true"
     inkscape:zoom="16.300086"
     inkscape:cx="10.5"
     inkscape:cy="11"
     inkscape:window-x="365"
     inkscape:window-y="0"
     inkscape:window-maximized="0"
     inkscape:current-layer="svg2"
     showborder="true">
    <inkscape:grid
       type="xygrid"
       id="grid2824"
       empspacing="5"
       visible="true"
       enabled="true"
       snapvisiblegridlinesonly="true" />
  </sodipodi:namedview>
  <metadata
     id="metadata4">
Valerie Sutton's pixel definition of the
ISWA 2010 symbol ID 04-01-003-01-01-01
transformed by Stephen E Slevinski Jr
using line and fill polygon tracing
<rdf:RDF>
  <cc:Work
     rdf:about="">
    <dc:format>image/svg+xml</dc:format>
    <dc:type
       rdf:resource="http://purl.org/dc/dcmitype/StillImage" />
    <dc:title></dc:title>
  </cc:Work>
</rdf:RDF>
</metadata>
  <path
     style="fill:#000000;fill-opacity:1;stroke:none"
     d="m 11,6.9999994 -1,-1 0,-4.99999999 -5,0 -1,-1 7,0 0,6.99999999 z"
     id="path2964" />
  <path
     style="fill:#000000;fill-opacity:1;stroke:none"
     d="m 21,6.9999994 -1,-1 0,-4.99999999 -5,0 -1,-1 7,0 0,6.99999999 z"
     id="path2867" />
  <path
     style="fill:#000000;fill-opacity:1;stroke:none"
     d="M 6.09375,2.0937504 2.625,5.6250004 C 0.99632,7.2536794 0,9.5147184 0,12 c 0,2.485281 0.99632,4.74632 2.625,6.375 L 6.28125,22 6.96875,21.3125 3.34375,17.65625 C 1.896035,16.208535 1,14.209139 1,12 1,9.7908614 1.896035,7.7914654 3.34375,6.3437504 l 3.4375,-3.5625 -0.6875,-0.6875 z"
     id="path2904" />
  <path
     style="fill:#ffffff;fill-opacity:1;stroke:none"
     d="m 6.78125,2.7812504 -3.4375,3.5625 C 1.896035,7.7914654 1,9.7908614 1,12 c 0,2.209139 0.896035,4.208535 2.34375,5.65625 L 6.96875,21.3125 8.40625,19.875 4.75,16.25 C 3.664214,15.164214 3,13.656854 3,12 3,10.343146 3.664214,8.8357864 4.75,7.7500004 l 3.46875,-3.53125 -1.4375,-1.4375 z"
     id="path2906" />
  <path
     style="fill:#000000;fill-opacity:1;stroke:none"
     d="M 8.21875,4.2187504 4.75,7.7500004 C 3.664214,8.8357864 3,10.343146 3,12 c 0,1.656854 0.664214,3.164214 1.75,4.25 l 3.65625,3.625 0.6875,-0.6875 -3.625,-3.65625 C 4.563928,14.626428 4,13.380712 4,12 4,10.619288 4.563928,9.3735724 5.46875,8.4687504 l 3.4375,-3.5625 -0.6875,-0.6875 z"
     id="path2917" />
  <path
     id="path2991"
     d="M 16.09375,2.0937504 12.625,5.6250004 C 10.99632,7.2536794 10,9.5147184 10,12 c 0,2.485281 0.99632,4.74632 2.625,6.375 l 3.65625,3.625 0.6875,-0.6875 -3.625,-3.65625 C 11.896035,16.208535 11,14.209139 11,12 11,9.7908614 11.896035,7.7914654 13.34375,6.3437504 l 3.4375,-3.5625 -0.6875,-0.6875 z"
     style="fill:#000000;fill-opacity:1;stroke:none" />
  <path
     id="path2993"
     d="m 16.78125,2.7812504 -3.4375,3.5625 C 11.896035,7.7914654 11,9.7908614 11,12 c 0,2.209139 0.896035,4.208535 2.34375,5.65625 l 3.625,3.65625 1.4375,-1.4375 L 14.75,16.25 C 13.664214,15.164214 13,13.656854 13,12 13,10.343146 13.664214,8.8357864 14.75,7.7500004 l 3.46875,-3.53125 -1.4375,-1.4375 z"
     style="fill:#ffffff;fill-opacity:1;stroke:none" />
  <path
     id="path2995"
     d="M 18.21875,4.2187504 14.75,7.7500004 C 13.664214,8.8357864 13,10.343146 13,12 c 0,1.656854 0.664214,3.164214 1.75,4.25 l 3.65625,3.625 0.6875,-0.6875 -3.625,-3.65625 C 14.563928,14.626428 14,13.380712 14,12 14,10.619288 14.563928,9.3735724 15.46875,8.4687504 l 3.4375,-3.5625 -0.6875,-0.6875 z"
     style="fill:#000000;fill-opacity:1;stroke:none" />
</svg>
