<?xml version="1.0" encoding="UTF-8" standalone="no"?>
<svg
   xmlns:dc="http://purl.org/dc/elements/1.1/"
   xmlns:cc="http://creativecommons.org/ns#"
   xmlns:rdf="http://www.w3.org/1999/02/22-rdf-syntax-ns#"
   xmlns:svg="http://www.w3.org/2000/svg"
   xmlns="http://www.w3.org/2000/svg"
   xmlns:sodipodi="http://sodipodi.sourceforge.net/DTD/sodipodi-0.dtd"
   xmlns:inkscape="http://www.inkscape.org/namespaces/inkscape"
   version="1.0"
   width="32"
   height="29"
   id="svg2"
   inkscape:version="0.47 r22583"
   sodipodi:docname="02-06-009-01-01-08.svg">
  <defs
     id="defs16">
    <inkscape:perspective
       sodipodi:type="inkscape:persp3d"
       inkscape:vp_x="0 : 23 : 1"
       inkscape:vp_y="0 : 1000 : 0"
       inkscape:vp_z="36 : 23 : 1"
       inkscape:persp3d-origin="18 : 15.333333 : 1"
       id="perspective18" />
  </defs>
  <sodipodi:namedview
     pagecolor="#ffffff"
     bordercolor="#666666"
     borderopacity="1"
     objecttolerance="10"
     gridtolerance="10"
     guidetolerance="10"
     inkscape:pageopacity="0"
     inkscape:pageshadow="2"
     inkscape:window-width="964"
     inkscape:window-height="721"
     id="namedview14"
     showgrid="true"
     inkscape:zoom="16.310345"
     inkscape:cx="16"
     inkscape:cy="14.5"
     inkscape:window-x="365"
     inkscape:window-y="0"
     inkscape:window-maximized="0"
     inkscape:current-layer="svg2"
     showborder="true">
    <inkscape:grid
       type="xygrid"
       id="grid2824"
       empspacing="5"
       visible="true"
       enabled="true"
       snapvisiblegridlinesonly="true" />
  </sodipodi:namedview>
  <metadata
     id="metadata4">
Valerie Sutton's pixel definition of the
ISWA 2010 symbol ID 04-01-003-01-01-01
transformed by Stephen E Slevinski Jr
using line and fill polygon tracing
<rdf:RDF>
  <cc:Work
     rdf:about="">
    <dc:format>image/svg+xml</dc:format>
    <dc:type
       rdf:resource="http://purl.org/dc/dcmitype/StillImage" />
    <dc:title></dc:title>
  </cc:Work>
</rdf:RDF>
</metadata>
  <path
     style="fill:#000000;fill-opacity:1;stroke:none"
     d="M 31.28125 0 L 3 28.28125 L 3.71875 29 L 32 0.71875 L 31.28125 0 z "
     id="path2831" />
  <path
     style="fill:#000000;fill-opacity:1;stroke:none"
     d="M 16 0.5 L 9 7.5 L 16 14.5 L 16 12.5 L 11 7.5 L 16 2.5 L 16 0.5 z "
     id="path2964" />
  <path
     style="fill:#000000;fill-opacity:1;stroke:none"
     d="M 23,14.5 C 23,13.092687 22.448744,11.698744 21.375,10.625 20.301256,9.551256 18.907314,9 17.5,9 l -1.5,0 0,1 1.5,0 c 1.151439,0 2.308981,0.433982 3.1875,1.3125 C 21.566017,12.191017 22,13.348561 22,14.5 l 0,5.5 1,0 0,-5.5 z"
     id="path2941" />
  <path
     style="fill:#ffffff;fill-opacity:1;stroke:none"
     d="m 26,14.5 c 1e-6,-2.17494 -0.840577,-4.340578 -2.5,-6 C 21.840578,6.840577 19.67494,6 17.5,6 l -1.5,0 0,3 1.5,0 c 1.407314,0 2.801256,0.551256 3.875,1.625 C 22.448744,11.698744 23,13.092687 23,14.5 l 0,5.5 3,0 0,-5.5 z"
     id="path2939" />
  <path
     style="fill:#000000;fill-opacity:1;stroke:none"
     d="M 27,14.5 C 27,12.069185 26.073399,9.635899 24.21875,7.78125 22.3641,5.926601 19.930815,5 17.5,5 l -1.5,0 0,1 1.5,0 c 2.17494,0 4.340577,0.840577 6,2.5 1.659423,1.659422 2.500001,3.82506 2.5,6 l 0,5.5 1,0 0,-5.5 z"
     id="rect2820" />
  <path
     style="fill:#000000;fill-opacity:1;stroke:none"
     d="M 7 9.5 L 0 16.5 L 7 23.5 L 7 21.5 L 2 16.5 L 7 11.5 L 7 9.5 z "
     id="path2920" />
  <path
     id="path2922"
     d="M 14,23.5 C 14,22.092687 13.448744,20.698744 12.375,19.625 11.301256,18.551256 9.907314,18 8.5,18 l -1.5,0 0,1 1.5,0 c 1.151439,0 2.308981,0.433982 3.1875,1.3125 C 12.566017,21.191017 13,22.348561 13,23.5 l 0,5.5 1,0 0,-5.5 z"
     style="fill:#000000;fill-opacity:1;stroke:none" />
  <path
     id="path2924"
     d="m 17,23.5 c 1e-6,-2.17494 -0.840577,-4.340578 -2.5,-6 C 12.840578,15.840577 10.67494,15 8.5,15 l -1.5,0 0,3 1.5,0 c 1.407314,0 2.801256,0.551256 3.875,1.625 C 13.448744,20.698744 14,22.092687 14,23.5 l 0,5.5 3,0 0,-5.5 z"
     style="fill:#ffffff;fill-opacity:1;stroke:none" />
  <path
     id="path2926"
     d="M 18,23.5 C 18,21.069185 17.073399,18.635899 15.21875,16.78125 13.3641,14.926601 10.930815,14 8.5,14 l -1.5,0 0,1 1.5,0 c 2.17494,0 4.340577,0.840577 6,2.5 1.659423,1.659422 2.500001,3.82506 2.5,6 l 0,5.5 1,0 0,-5.5 z"
     style="fill:#000000;fill-opacity:1;stroke:none" />
</svg>
