<?xml version="1.0" encoding="UTF-8" standalone="no"?>
<svg
   xmlns:dc="http://purl.org/dc/elements/1.1/"
   xmlns:cc="http://creativecommons.org/ns#"
   xmlns:rdf="http://www.w3.org/1999/02/22-rdf-syntax-ns#"
   xmlns:svg="http://www.w3.org/2000/svg"
   xmlns="http://www.w3.org/2000/svg"
   xmlns:sodipodi="http://sodipodi.sourceforge.net/DTD/sodipodi-0.dtd"
   xmlns:inkscape="http://www.inkscape.org/namespaces/inkscape"
   version="1.0"
   width="21"
   height="48"
   id="svg2"
   inkscape:version="0.47 r22583"
   sodipodi:docname="02-06-009-01-03-07.svg">
  <defs
     id="defs16">
    <inkscape:perspective
       sodipodi:type="inkscape:persp3d"
       inkscape:vp_x="0 : 23 : 1"
       inkscape:vp_y="0 : 1000 : 0"
       inkscape:vp_z="36 : 23 : 1"
       inkscape:persp3d-origin="18 : 15.333333 : 1"
       id="perspective18" />
  </defs>
  <sodipodi:namedview
     pagecolor="#ffffff"
     bordercolor="#666666"
     borderopacity="1"
     objecttolerance="10"
     gridtolerance="10"
     guidetolerance="10"
     inkscape:pageopacity="0"
     inkscape:pageshadow="2"
     inkscape:window-width="964"
     inkscape:window-height="721"
     id="namedview14"
     showgrid="true"
     inkscape:zoom="9.8541667"
     inkscape:cx="10.5"
     inkscape:cy="24"
     inkscape:window-x="365"
     inkscape:window-y="0"
     inkscape:window-maximized="0"
     inkscape:current-layer="svg2"
     showborder="true">
    <inkscape:grid
       type="xygrid"
       id="grid2824"
       empspacing="5"
       visible="true"
       enabled="true"
       snapvisiblegridlinesonly="true" />
  </sodipodi:namedview>
  <metadata
     id="metadata4">
Valerie Sutton's pixel definition of the
ISWA 2010 symbol ID 04-01-003-01-01-01
transformed by Stephen E Slevinski Jr
using line and fill polygon tracing
<rdf:RDF>
  <cc:Work
     rdf:about="">
    <dc:format>image/svg+xml</dc:format>
    <dc:type
       rdf:resource="http://purl.org/dc/dcmitype/StillImage" />
    <dc:title></dc:title>
  </cc:Work>
</rdf:RDF>
</metadata>
  <path
     style="fill:#000000;fill-opacity:1;stroke:none"
     d="m 12,48 0,-48 -1,0 0,48 1,0 z"
     id="path2831" />
  <path
     style="fill:#000000;fill-opacity:1;stroke:none"
     d="M 13.5,22 C 17.642136,22 21,18.642136 21,14.5 21,10.357864 17.642136,7 13.5,7 L 6,7 6,8 13.5,8 c 3.589851,0 6.5,2.910149 6.5,6.5 0,3.589851 -2.910149,6.5 -6.5,6.5 l -8.5,0 0,1 8.5,0 z"
     id="path2817" />
  <path
     style="fill:#000000;fill-opacity:1;stroke:none"
     d="M 13.5,19 C 15.985281,19 18,16.985281 18,14.5 18,12.014719 15.985281,10 13.5,10 l -7.5,0 0,1 7.5,0 c 1.932997,0 3.5,1.567003 3.5,3.5 0,1.932997 -1.567003,3.5 -3.5,3.5 l -8.5,0 0,1 8.5,0 z"
     id="path2824" />
  <path
     style="fill:#000000;fill-opacity:1;stroke:none"
     d="M 6 3 L 0 9 L 6 15 L 6 3 z M 5 5.4375 L 5 12.5625 L 1.40625 9 L 5 5.4375 z "
     id="path2843" />
  <path
     style="fill:#ffffff;fill-opacity:1;stroke:none"
     d="m 6,8 0,2 7.5,0 c 2.485281,0 4.5,2.014719 4.5,4.5 0,2.485281 -2.014719,4.5 -4.5,4.5 l -0.5,0 0,-1 -1,0 0,4 1,0 0,-1 0.5,0 C 17.089851,21 20,18.089851 20,14.5 20,10.910149 17.089851,8 13.5,8 L 6,8 z m 4,10 0,1 -5,0 0,2 5,0 0,1 1,0 0,-4 -1,0 z"
     id="path2968" />
  <path
     id="path2988"
     d="M 13.5,43 C 17.642136,43 21,39.642136 21,35.5 21,31.357864 17.642136,28 13.5,28 l -7.5,0 0,1 7.5,0 c 3.589851,0 6.5,2.910149 6.5,6.5 0,3.589851 -2.910149,6.5 -6.5,6.5 l -8.5,0 0,1 8.5,0 z"
     style="fill:#000000;fill-opacity:1;stroke:none" />
  <path
     id="path2990"
     d="M 13.5,40 C 15.985281,40 18,37.985281 18,35.5 18,33.014719 15.985281,31 13.5,31 l -7.5,0 0,1 7.5,0 c 1.932997,0 3.5,1.567003 3.5,3.5 0,1.932997 -1.567003,3.5 -3.5,3.5 l -8.5,0 0,1 8.5,0 z"
     style="fill:#000000;fill-opacity:1;stroke:none" />
  <path
     style="fill:#000000;fill-opacity:1;stroke:none"
     d="M 6 24 L 0 30 L 6 36 L 6 24 z M 5 26.4375 L 5 33.5625 L 1.40625 30 L 5 26.4375 z "
     id="path2992" />
  <path
     id="path2994"
     d="m 6,29 0,2 7.5,0 c 2.485281,0 4.5,2.014719 4.5,4.5 0,2.485281 -2.014719,4.5 -4.5,4.5 l -0.5,0 0,-1 -1,0 0,4 1,0 0,-1 0.5,0 C 17.089851,42 20,39.089851 20,35.5 20,31.910149 17.089851,29 13.5,29 L 6,29 z m 4,10 0,1 -5,0 0,2 5,0 0,1 1,0 0,-4 -1,0 z"
     style="fill:#ffffff;fill-opacity:1;stroke:none" />
  <path
     style="fill:#ffffff;fill-opacity:1;stroke:none"
     d="M 5 5.4375 L 1.40625 9 L 5 12.5625 L 5 5.4375 z "
     id="path3637" />
  <path
     style="fill:#ffffff;fill-opacity:1;stroke:none"
     d="M 5 26.4375 L 1.40625 30 L 5 33.5625 L 5 26.4375 z "
     id="path3639" />
</svg>
