<?xml version="1.0" encoding="UTF-8" standalone="no"?>
<svg
   xmlns:dc="http://purl.org/dc/elements/1.1/"
   xmlns:cc="http://creativecommons.org/ns#"
   xmlns:rdf="http://www.w3.org/1999/02/22-rdf-syntax-ns#"
   xmlns:svg="http://www.w3.org/2000/svg"
   xmlns="http://www.w3.org/2000/svg"
   xmlns:sodipodi="http://sodipodi.sourceforge.net/DTD/sodipodi-0.dtd"
   xmlns:inkscape="http://www.inkscape.org/namespaces/inkscape"
   version="1.0"
   width="21"
   height="48"
   id="svg2"
   inkscape:version="0.47 r22583"
   sodipodi:docname="02-06-009-01-01-15.svg">
  <defs
     id="defs16">
    <inkscape:perspective
       sodipodi:type="inkscape:persp3d"
       inkscape:vp_x="0 : 23 : 1"
       inkscape:vp_y="0 : 1000 : 0"
       inkscape:vp_z="36 : 23 : 1"
       inkscape:persp3d-origin="18 : 15.333333 : 1"
       id="perspective18" />
  </defs>
  <sodipodi:namedview
     pagecolor="#ffffff"
     bordercolor="#666666"
     borderopacity="1"
     objecttolerance="10"
     gridtolerance="10"
     guidetolerance="10"
     inkscape:pageopacity="0"
     inkscape:pageshadow="2"
     inkscape:window-width="964"
     inkscape:window-height="721"
     id="namedview14"
     showgrid="true"
     inkscape:zoom="9.8541667"
     inkscape:cx="10.5"
     inkscape:cy="24"
     inkscape:window-x="365"
     inkscape:window-y="0"
     inkscape:window-maximized="0"
     inkscape:current-layer="svg2"
     showborder="true">
    <inkscape:grid
       type="xygrid"
       id="grid2824"
       empspacing="5"
       visible="true"
       enabled="true"
       snapvisiblegridlinesonly="true" />
  </sodipodi:namedview>
  <metadata
     id="metadata4">
Valerie Sutton's pixel definition of the
ISWA 2010 symbol ID 04-01-003-01-01-01
transformed by Stephen E Slevinski Jr
using line and fill polygon tracing
<rdf:RDF>
  <cc:Work
     rdf:about="">
    <dc:format>image/svg+xml</dc:format>
    <dc:type
       rdf:resource="http://purl.org/dc/dcmitype/StillImage" />
    <dc:title></dc:title>
  </cc:Work>
</rdf:RDF>
</metadata>
  <path
     style="fill:#000000;fill-opacity:1;stroke:none"
     d="M 9,48 9,0 10,0 10,48 9,48 z"
     id="path2831" />
  <path
     style="fill:#000000;fill-opacity:1;stroke:none"
     d="M 7.5,22 C 3.357864,22 0,18.642136 0,14.5 0,10.357864 3.357864,7 7.5,7 L 15,7 15,8 7.5,8 C 3.910149,8 1,10.910149 1,14.5 1,18.089851 3.910149,21 7.5,21 l 8.5,0 0,1 -8.5,0 z"
     id="path2817" />
  <path
     style="fill:#000000;fill-opacity:1;stroke:none"
     d="M 7.5,19 C 5.014719,19 3,16.985281 3,14.5 3,12.014719 5.014719,10 7.5,10 l 7.5,0 0,1 -7.5,0 C 5.567003,11 4,12.567003 4,14.5 4,16.432997 5.567003,18 7.5,18 l 8.5,0 0,1 -8.5,0 z"
     id="path2824" />
  <path
     style="fill:#000000;fill-opacity:1;stroke:none"
     d="M 15 3 L 15 5 L 19 9 L 15 13 L 15 15 L 21 9 L 15 3 z "
     id="path2843" />
  <path
     id="path2850"
     d="M 7.5,43 C 3.357864,43 0,39.642136 0,35.5 0,31.357864 3.357864,28 7.5,28 l 7.5,0 0,1 -7.5,0 C 3.910149,29 1,31.910149 1,35.5 1,39.089851 3.910149,42 7.5,42 l 8.5,0 0,1 -8.5,0 z"
     style="fill:#000000;fill-opacity:1;stroke:none" />
  <path
     id="path2852"
     d="M 7.5,40 C 5.014719,40 3,37.985281 3,35.5 3,33.014719 5.014719,31 7.5,31 l 7.5,0 0,1 -7.5,0 C 5.567003,32 4,33.567003 4,35.5 4,37.432997 5.567003,39 7.5,39 l 8.5,0 0,1 -8.5,0 z"
     style="fill:#000000;fill-opacity:1;stroke:none" />
  <path
     style="fill:#000000;fill-opacity:1;stroke:none"
     d="M 15 24 L 15 26 L 19 30 L 15 34 L 15 36 L 21 30 L 15 24 z "
     id="path2856" />
  <path
     style="fill:#ffffff;fill-opacity:1;stroke:none"
     d="M 7.5 29 C 3.9101491 29 1 31.910149 1 35.5 C 1 39.089851 3.9101491 42 7.5 42 L 8 42 L 8 43 L 9 43 L 9 39 L 8 39 L 8 40 L 7.5 40 C 5.0147186 40 3 37.985281 3 35.5 C 3 33.014719 5.0147186 31 7.5 31 L 15 31 L 15 29 L 7.5 29 z M 10 39 L 10 43 L 11 43 L 11 42 L 16 42 L 16 40 L 11 40 L 11 39 L 10 39 z "
     id="path2858" />
  <path
     style="fill:#ffffff;fill-opacity:1;stroke:none"
     d="M 7.5 8 C 3.9101491 8 1 10.910149 1 14.5 C 1 18.089851 3.9101491 21 7.5 21 L 8 21 L 8 22 L 9 22 L 9 18 L 8 18 L 8 19 L 7.5 19 C 5.0147186 19 3 16.985281 3 14.5 C 3 12.014719 5.0147186 10 7.5 10 L 15 10 L 15 8 L 7.5 8 z M 10 18 L 10 22 L 11 22 L 11 21 L 16 21 L 16 19 L 11 19 L 11 18 L 10 18 z "
     id="path2863" />
</svg>
