<?xml version="1.0" encoding="UTF-8" standalone="no"?>
<svg
   xmlns:dc="http://purl.org/dc/elements/1.1/"
   xmlns:cc="http://creativecommons.org/ns#"
   xmlns:rdf="http://www.w3.org/1999/02/22-rdf-syntax-ns#"
   xmlns:svg="http://www.w3.org/2000/svg"
   xmlns="http://www.w3.org/2000/svg"
   xmlns:sodipodi="http://sodipodi.sourceforge.net/DTD/sodipodi-0.dtd"
   xmlns:inkscape="http://www.inkscape.org/namespaces/inkscape"
   version="1.0"
   width="29"
   height="32"
   id="svg2"
   inkscape:version="0.47 r22583"
   sodipodi:docname="02-06-009-01-03-06.svg">
  <defs
     id="defs16">
    <inkscape:perspective
       sodipodi:type="inkscape:persp3d"
       inkscape:vp_x="0 : 23 : 1"
       inkscape:vp_y="0 : 1000 : 0"
       inkscape:vp_z="36 : 23 : 1"
       inkscape:persp3d-origin="18 : 15.333333 : 1"
       id="perspective18" />
  </defs>
  <sodipodi:namedview
     pagecolor="#ffffff"
     bordercolor="#666666"
     borderopacity="1"
     objecttolerance="10"
     gridtolerance="10"
     guidetolerance="10"
     inkscape:pageopacity="0"
     inkscape:pageshadow="2"
     inkscape:window-width="964"
     inkscape:window-height="721"
     id="namedview14"
     showgrid="true"
     inkscape:zoom="14.78125"
     inkscape:cx="14.5"
     inkscape:cy="16"
     inkscape:window-x="365"
     inkscape:window-y="0"
     inkscape:window-maximized="0"
     inkscape:current-layer="svg2"
     showborder="true">
    <inkscape:grid
       type="xygrid"
       id="grid2824"
       empspacing="5"
       visible="true"
       enabled="true"
       snapvisiblegridlinesonly="true" />
  </sodipodi:namedview>
  <metadata
     id="metadata4">
Valerie Sutton's pixel definition of the
ISWA 2010 symbol ID 04-01-003-01-01-01
transformed by Stephen E Slevinski Jr
using line and fill polygon tracing
<rdf:RDF>
  <cc:Work
     rdf:about="">
    <dc:format>image/svg+xml</dc:format>
    <dc:type
       rdf:resource="http://purl.org/dc/dcmitype/StillImage" />
    <dc:title></dc:title>
  </cc:Work>
</rdf:RDF>
</metadata>
  <path
     style="fill:#000000;fill-opacity:1;stroke:none"
     d="M 12.5 0 L 5.5 7 L 19.5 7 L 12.5 0 z M 12.5 1.40625 L 17.0625 6 L 7.9375 6 L 12.5 1.40625 z "
     id="path2964" />
  <path
     style="fill:#000000;fill-opacity:1;stroke:none"
     d="M 5.5,14 C 6.907313,14 8.301256,13.448744 9.375,12.375 10.448744,11.301256 11,9.907314 11,8.5 L 11,7 10,7 10,8.5 C 10,9.651439 9.566018,10.808981 8.6875,11.6875 7.808983,12.566017 6.651439,13 5.5,13 l -5.5,0 0,1 5.5,0 z"
     id="path2941" />
  <path
     style="fill:#ffffff;fill-opacity:1;stroke:none"
     d="m 5.5,17 c 2.17494,1e-6 4.340578,-0.840577 6,-2.5 1.659423,-1.659422 2.5,-3.82506 2.5,-6 L 14,7 11,7 11,8.5 C 11,9.907314 10.448744,11.301256 9.375,12.375 8.301256,13.448744 6.907313,14 5.5,14 l -5.5,0 0,3 5.5,0 z"
     id="path2939" />
  <path
     style="fill:#000000;fill-opacity:1;stroke:none"
     d="m 5.5,18 c 2.430815,0 4.864101,-0.926601 6.71875,-2.78125 C 14.073399,13.3641 15,10.930815 15,8.5 L 15,7 14,7 14,8.5 c 0,2.17494 -0.840577,4.340577 -2.5,6 -1.659422,1.659423 -3.82506,2.500001 -6,2.5 l -5.5,0 0,1 5.5,0 z"
     id="rect2820" />
  <path
     style="fill:#000000;fill-opacity:1;stroke:none"
     d="M 21.5 9 L 14.5 16 L 28.5 16 L 21.5 9 z M 21.5 10.40625 L 26.0625 15 L 16.9375 15 L 21.5 10.40625 z "
     id="path2926" />
  <path
     id="path2928"
     d="m 14.5,23 c 1.407313,0 2.801256,-0.551256 3.875,-1.625 C 19.448744,20.301256 20,18.907314 20,17.5 l 0,-1.5 -1,0 0,1.5 c 0,1.151439 -0.433982,2.308981 -1.3125,3.1875 C 16.808983,21.566017 15.651439,22 14.5,22 l -5.5,0 0,1 5.5,0 z"
     style="fill:#000000;fill-opacity:1;stroke:none" />
  <path
     id="path2930"
     d="m 14.5,26 c 2.17494,1e-6 4.340578,-0.840577 6,-2.5 1.659423,-1.659422 2.5,-3.82506 2.5,-6 l 0,-1.5 -3,0 0,1.5 c 0,1.407314 -0.551256,2.801256 -1.625,3.875 C 17.301256,22.448744 15.907313,23 14.5,23 l -5.5,0 0,3 5.5,0 z"
     style="fill:#ffffff;fill-opacity:1;stroke:none" />
  <path
     id="path2932"
     d="m 14.5,27 c 2.430815,0 4.864101,-0.926601 6.71875,-2.78125 C 23.073399,22.3641 24,19.930815 24,17.5 l 0,-1.5 -1,0 0,1.5 c 0,2.17494 -0.840577,4.340577 -2.5,6 -1.659422,1.659423 -3.82506,2.500001 -6,2.5 l -5.5,0 0,1 5.5,0 z"
     style="fill:#000000;fill-opacity:1;stroke:none" />
  <path
     style="fill:#000000;fill-opacity:1;stroke:none"
     d="M 0.71875 3 L 0 3.71875 L 28.28125 32 L 29 31.28125 L 0.71875 3 z "
     id="path2831" />
  <path
     style="fill:#ffffff;fill-opacity:1;stroke:none"
     d="M 12.5 1.40625 L 7.9375 6 L 17.0625 6 L 12.5 1.40625 z "
     id="path3702" />
  <path
     style="fill:#ffffff;fill-opacity:1;stroke:none"
     d="M 21.5 10.40625 L 16.9375 15 L 26.0625 15 L 21.5 10.40625 z "
     id="path3704" />
</svg>
