<?xml version="1.0" encoding="UTF-8" standalone="no"?>
<svg
   xmlns:dc="http://purl.org/dc/elements/1.1/"
   xmlns:cc="http://creativecommons.org/ns#"
   xmlns:rdf="http://www.w3.org/1999/02/22-rdf-syntax-ns#"
   xmlns:svg="http://www.w3.org/2000/svg"
   xmlns="http://www.w3.org/2000/svg"
   xmlns:sodipodi="http://sodipodi.sourceforge.net/DTD/sodipodi-0.dtd"
   xmlns:inkscape="http://www.inkscape.org/namespaces/inkscape"
   version="1.0"
   width="21"
   height="48"
   id="svg2"
   inkscape:version="0.47 r22583"
   sodipodi:docname="02-06-009-01-01-03.svg">
  <defs
     id="defs16">
    <inkscape:perspective
       sodipodi:type="inkscape:persp3d"
       inkscape:vp_x="0 : 23 : 1"
       inkscape:vp_y="0 : 1000 : 0"
       inkscape:vp_z="36 : 23 : 1"
       inkscape:persp3d-origin="18 : 15.333333 : 1"
       id="perspective18" />
  </defs>
  <sodipodi:namedview
     pagecolor="#ffffff"
     bordercolor="#666666"
     borderopacity="1"
     objecttolerance="10"
     gridtolerance="10"
     guidetolerance="10"
     inkscape:pageopacity="0"
     inkscape:pageshadow="2"
     inkscape:window-width="964"
     inkscape:window-height="721"
     id="namedview14"
     showgrid="true"
     inkscape:zoom="9.8541667"
     inkscape:cx="10.5"
     inkscape:cy="24"
     inkscape:window-x="365"
     inkscape:window-y="0"
     inkscape:window-maximized="0"
     inkscape:current-layer="svg2"
     showborder="true">
    <inkscape:grid
       type="xygrid"
       id="grid2824"
       empspacing="5"
       visible="true"
       enabled="true"
       snapvisiblegridlinesonly="true" />
  </sodipodi:namedview>
  <metadata
     id="metadata4">
Valerie Sutton's pixel definition of the
ISWA 2010 symbol ID 04-01-003-01-01-01
transformed by Stephen E Slevinski Jr
using line and fill polygon tracing
<rdf:RDF>
  <cc:Work
     rdf:about="">
    <dc:format>image/svg+xml</dc:format>
    <dc:type
       rdf:resource="http://purl.org/dc/dcmitype/StillImage" />
    <dc:title></dc:title>
  </cc:Work>
</rdf:RDF>
</metadata>
  <path
     style="fill:#000000;fill-opacity:1;stroke:none"
     d="M 9,48 9,0 10,0 10,48 9,48 z"
     id="path2831" />
  <path
     style="fill:#000000;fill-opacity:1;stroke:none"
     d="M 7.5,5 C 3.357864,5 0,8.357864 0,12.5 0,16.642136 3.357864,20 7.5,20 l 7.5,0 0,-1 -7.5,0 C 3.910149,19 1,16.089851 1,12.5 1,8.910149 3.910149,6 7.5,6 L 16,6 16,5 7.5,5 z"
     id="path2817" />
  <path
     style="fill:#000000;fill-opacity:1;stroke:none"
     d="M 7.5,8 C 5.014719,8 3,10.014719 3,12.5 3,14.985281 5.014719,17 7.5,17 l 7.5,0 0,-1 -7.5,0 C 5.567003,16 4,14.432997 4,12.5 4,10.567003 5.567003,9 7.5,9 L 16,9 16,8 7.5,8 z"
     id="path2824" />
  <path
     style="fill:#000000;fill-opacity:1;stroke:none"
     d="M 15 12 L 15 14 L 19 18 L 15 22 L 15 24 L 21 18 L 15 12 z "
     id="path2843" />
  <path
     style="fill:#ffffff;fill-opacity:1;stroke:none"
     d="M 7.5,6 C 3.9101491,6 1,8.9101491 1,12.5 1,16.089851 3.9101491,19 7.5,19 l 0.5,0 0,1 1,0 0,-4 -1,0 0,1 -0.5,0 C 5.0147186,17 3,14.985281 3,12.5 3,10.014719 5.0147186,8 7.5,8 L 16,8 16,6 7.5,6 z m 2.5,10 0,4 1,0 0,-1 4,0 0,-2 -4,0 0,-1 -1,0 z"
     id="path3017" />
  <path
     id="path3037"
     d="M 7.5,26 C 3.357864,26 0,29.357864 0,33.5 0,37.642136 3.357864,41 7.5,41 l 7.5,0 0,-1 -7.5,0 C 3.910149,40 1,37.089851 1,33.5 1,29.910149 3.910149,27 7.5,27 l 8.5,0 0,-1 -8.5,0 z"
     style="fill:#000000;fill-opacity:1;stroke:none" />
  <path
     id="path3039"
     d="M 7.5,29 C 5.014719,29 3,31.014719 3,33.5 3,35.985281 5.014719,38 7.5,38 l 7.5,0 0,-1 -7.5,0 C 5.567003,37 4,35.432997 4,33.5 4,31.567003 5.567003,30 7.5,30 l 8.5,0 0,-1 -8.5,0 z"
     style="fill:#000000;fill-opacity:1;stroke:none" />
  <path
     style="fill:#000000;fill-opacity:1;stroke:none"
     d="M 15 33 L 15 35 L 19 39 L 15 43 L 15 45 L 21 39 L 15 33 z "
     id="path3041" />
  <path
     id="path3043"
     d="M 7.5,27 C 3.9101491,27 1,29.910149 1,33.5 1,37.089851 3.9101491,40 7.5,40 l 0.5,0 0,1 1,0 0,-4 -1,0 0,1 -0.5,0 C 5.0147186,38 3,35.985281 3,33.5 3,31.014719 5.0147186,29 7.5,29 l 8.5,0 0,-2 -8.5,0 z m 2.5,10 0,4 1,0 0,-1 4,0 0,-2 -4,0 0,-1 -1,0 z"
     style="fill:#ffffff;fill-opacity:1;stroke:none" />
</svg>
