<?xml version="1.0" encoding="UTF-8" standalone="no"?>
<svg
   xmlns:dc="http://purl.org/dc/elements/1.1/"
   xmlns:cc="http://creativecommons.org/ns#"
   xmlns:rdf="http://www.w3.org/1999/02/22-rdf-syntax-ns#"
   xmlns:svg="http://www.w3.org/2000/svg"
   xmlns="http://www.w3.org/2000/svg"
   xmlns:sodipodi="http://sodipodi.sourceforge.net/DTD/sodipodi-0.dtd"
   xmlns:inkscape="http://www.inkscape.org/namespaces/inkscape"
   version="1.0"
   width="24"
   height="26"
   id="svg2"
   inkscape:version="0.47 r22583"
   sodipodi:docname="02-06-009-01-06-12.svg">
  <defs
     id="defs16">
    <inkscape:perspective
       sodipodi:type="inkscape:persp3d"
       inkscape:vp_x="0 : 23 : 1"
       inkscape:vp_y="0 : 1000 : 0"
       inkscape:vp_z="36 : 23 : 1"
       inkscape:persp3d-origin="18 : 15.333333 : 1"
       id="perspective18" />
  </defs>
  <sodipodi:namedview
     pagecolor="#ffffff"
     bordercolor="#666666"
     borderopacity="1"
     objecttolerance="10"
     gridtolerance="10"
     guidetolerance="10"
     inkscape:pageopacity="0"
     inkscape:pageshadow="2"
     inkscape:window-width="964"
     inkscape:window-height="721"
     id="namedview14"
     showgrid="true"
     inkscape:zoom="16.97187"
     inkscape:cx="12"
     inkscape:cy="13"
     inkscape:window-x="365"
     inkscape:window-y="0"
     inkscape:window-maximized="0"
     inkscape:current-layer="svg2"
     showborder="true">
    <inkscape:grid
       type="xygrid"
       id="grid2824"
       empspacing="5"
       visible="true"
       enabled="true"
       snapvisiblegridlinesonly="true" />
  </sodipodi:namedview>
  <metadata
     id="metadata4">
Valerie Sutton's pixel definition of the
ISWA 2010 symbol ID 04-01-003-01-01-01
transformed by Stephen E Slevinski Jr
using line and fill polygon tracing
<rdf:RDF>
  <cc:Work
     rdf:about="">
    <dc:format>image/svg+xml</dc:format>
    <dc:type
       rdf:resource="http://purl.org/dc/dcmitype/StillImage" />
    <dc:title></dc:title>
  </cc:Work>
</rdf:RDF>
</metadata>
  <path
     style="fill:#000000;fill-opacity:1;stroke:none"
     d="m 10,9.9999992 0,-1.5 -3.5,-3.5 3.5,-3.5 0,-1.5 -5,5 5,5 z"
     id="path2964" />
  <path
     style="fill:#000000;fill-opacity:1;stroke:none"
     d="m 15,3.0000002 c 4.970563,0 9,4.029437 9,8.9999998 l 0,6 -1,0 0,-6 C 23,7.5817222 19.418278,4.0000002 15,4.0000002 l -5,0 0,-1 5,0 z"
     id="path2816" />
  <path
     style="fill:#ffffff;fill-opacity:1;stroke:none"
     d="m 15,4.0000002 c 4.418278,0 8,3.581722 8,7.9999998 l 0,6 -2,0 0,-6 C 21,8.6862912 18.313708,6.0000002 15,6.0000002 l -5,0 0,-2 5,0 z"
     id="path2818" />
  <path
     style="fill:#000000;fill-opacity:1;stroke:none"
     d="m 15,6.0000002 c 3.313708,0 6,2.686291 6,5.9999998 l 0,6 -1,0 0,-6 C 20,9.2385762 17.761424,7.0000002 15,7.0000002 l -5,0 0,-1 5,0 z"
     id="path2823" />
  <path
     style="fill:#000000;fill-opacity:1;stroke:none"
     d="m 5,17.999999 0,-1.5 -3.5,-3.5 3.5,-3.4999998 0,-1.5 -5,4.9999998 5,5 z"
     id="path2867" />
  <path
     id="path2869"
     d="m 10,11 c 4.970563,0 9,4.029437 9,9 l 0,6 -1,0 0,-6 c 0,-4.418278 -3.581722,-8 -8,-8 l -5,0 0,-1 5,0 z"
     style="fill:#000000;fill-opacity:1;stroke:none" />
  <path
     id="path2871"
     d="m 10,12 c 4.418278,0 8,3.581722 8,8 l 0,6 -2,0 0,-6 c 0,-3.313709 -2.686291,-6 -6,-6 l -5,0 0,-2 5,0 z"
     style="fill:#ffffff;fill-opacity:1;stroke:none" />
  <path
     id="path2873"
     d="m 10,14 c 3.313709,0 6,2.686291 6,6 l 0,6 -1,0 0,-6 c 0,-2.761424 -2.238576,-5 -5,-5 l -5,0 0,-1 5,0 z"
     style="fill:#000000;fill-opacity:1;stroke:none" />
</svg>
