<?xml version="1.0" encoding="UTF-8" standalone="no"?>
<svg
   xmlns:dc="http://purl.org/dc/elements/1.1/"
   xmlns:cc="http://creativecommons.org/ns#"
   xmlns:rdf="http://www.w3.org/1999/02/22-rdf-syntax-ns#"
   xmlns:svg="http://www.w3.org/2000/svg"
   xmlns="http://www.w3.org/2000/svg"
   xmlns:sodipodi="http://sodipodi.sourceforge.net/DTD/sodipodi-0.dtd"
   xmlns:inkscape="http://www.inkscape.org/namespaces/inkscape"
   version="1.0"
   width="21"
   height="22"
   id="svg2"
   inkscape:version="0.47 r22583"
   sodipodi:docname="02-06-009-01-06-15.svg">
  <defs
     id="defs16">
    <inkscape:perspective
       sodipodi:type="inkscape:persp3d"
       inkscape:vp_x="0 : 23 : 1"
       inkscape:vp_y="0 : 1000 : 0"
       inkscape:vp_z="36 : 23 : 1"
       inkscape:persp3d-origin="18 : 15.333333 : 1"
       id="perspective18" />
  </defs>
  <sodipodi:namedview
     pagecolor="#ffffff"
     bordercolor="#666666"
     borderopacity="1"
     objecttolerance="10"
     gridtolerance="10"
     guidetolerance="10"
     inkscape:pageopacity="0"
     inkscape:pageshadow="2"
     inkscape:window-width="964"
     inkscape:window-height="721"
     id="namedview14"
     showgrid="true"
     inkscape:zoom="16.300086"
     inkscape:cx="10.5"
     inkscape:cy="11"
     inkscape:window-x="365"
     inkscape:window-y="0"
     inkscape:window-maximized="0"
     inkscape:current-layer="svg2"
     showborder="true">
    <inkscape:grid
       type="xygrid"
       id="grid2824"
       empspacing="5"
       visible="true"
       enabled="true"
       snapvisiblegridlinesonly="true" />
  </sodipodi:namedview>
  <metadata
     id="metadata4">
Valerie Sutton's pixel definition of the
ISWA 2010 symbol ID 04-01-003-01-01-01
transformed by Stephen E Slevinski Jr
using line and fill polygon tracing
<rdf:RDF>
  <cc:Work
     rdf:about="">
    <dc:format>image/svg+xml</dc:format>
    <dc:type
       rdf:resource="http://purl.org/dc/dcmitype/StillImage" />
    <dc:title></dc:title>
  </cc:Work>
</rdf:RDF>
</metadata>
  <path
     style="fill:#000000;fill-opacity:1;stroke:none"
     d="M 11 15 L 4 22 L 11 22 L 11 15 z M 10 17.40625 L 10 21 L 6.4375 21 L 10 17.40625 z "
     id="path2964" />
  <path
     style="fill:#000000;fill-opacity:1;stroke:none"
     d="M 21 15 L 14 22 L 21 22 L 21 15 z M 20 17.40625 L 20 21 L 16.4375 21 L 20 17.40625 z "
     id="path2867" />
  <path
     style="fill:#000000;fill-opacity:1;stroke:none"
     d="M 6.09375,19.906249 2.625,16.374999 C 0.99632,14.74632 0,12.485281 0,9.9999994 c 0,-2.485281 0.99632,-4.74632 2.625,-6.375 L 6.28125,-5.9e-7 l 0.6875,0.6875 -3.625,3.65624999 C 1.896035,5.7914644 1,7.7908604 1,9.9999994 1,12.209138 1.896035,14.208534 3.34375,15.656249 l 3.4375,3.5625 -0.6875,0.6875 z"
     id="path2904" />
  <path
     style="fill:#ffffff;fill-opacity:1;stroke:none"
     d="m 6.78125,19.218749 -3.4375,-3.5625 C 1.896035,14.208534 1,12.209138 1,9.9999994 1,7.7908604 1.896035,5.7914644 3.34375,4.3437494 l 3.625,-3.65624999 1.4375,1.43749999 -3.65625,3.625 C 3.664214,6.8357854 3,8.3431454 3,9.9999994 3,11.656853 3.664214,13.164213 4.75,14.249999 l 3.46875,3.53125 -1.4375,1.4375 z"
     id="path2906" />
  <path
     style="fill:#000000;fill-opacity:1;stroke:none"
     d="M 8.21875,17.781249 4.75,14.249999 C 3.664214,13.164213 3,11.656853 3,9.9999994 c 0,-1.656854 0.664214,-3.164214 1.75,-4.25 l 3.65625,-3.625 0.6875,0.6875 -3.625,3.65625 C 4.563928,7.3735714 4,8.6192874 4,9.9999994 4,11.380711 4.563928,12.626427 5.46875,13.531249 l 3.4375,3.5625 -0.6875,0.6875 z"
     id="path2917" />
  <path
     id="path2991"
     d="M 16.09375,19.906249 12.625,16.374999 C 10.99632,14.74632 10,12.485281 10,9.9999994 c 0,-2.485281 0.99632,-4.74632 2.625,-6.375 L 16.28125,-5.9e-7 l 0.6875,0.6875 -3.625,3.65624999 C 11.896035,5.7914644 11,7.7908604 11,9.9999994 c 0,2.2091386 0.896035,4.2085346 2.34375,5.6562496 l 3.4375,3.5625 -0.6875,0.6875 z"
     style="fill:#000000;fill-opacity:1;stroke:none" />
  <path
     id="path2993"
     d="m 16.78125,19.218749 -3.4375,-3.5625 C 11.896035,14.208534 11,12.209138 11,9.9999994 c 0,-2.209139 0.896035,-4.208535 2.34375,-5.65625 l 3.625,-3.65624999 1.4375,1.43749999 -3.65625,3.625 c -1.085786,1.085786 -1.75,2.593146 -1.75,4.25 0,1.6568536 0.664214,3.1642136 1.75,4.2499996 l 3.46875,3.53125 -1.4375,1.4375 z"
     style="fill:#ffffff;fill-opacity:1;stroke:none" />
  <path
     id="path2995"
     d="M 18.21875,17.781249 14.75,14.249999 C 13.664214,13.164213 13,11.656853 13,9.9999994 c 0,-1.656854 0.664214,-3.164214 1.75,-4.25 l 3.65625,-3.625 0.6875,0.6875 -3.625,3.65625 C 14.563928,7.3735714 14,8.6192874 14,9.9999994 c 0,1.3807116 0.563928,2.6264276 1.46875,3.5312496 l 3.4375,3.5625 -0.6875,0.6875 z"
     style="fill:#000000;fill-opacity:1;stroke:none" />
  <path
     style="fill:#ffffff;fill-opacity:1;stroke:none"
     d="M 10 17.40625 L 6.4375 21 L 10 21 L 10 17.40625 z "
     id="path3031" />
  <path
     style="fill:#ffffff;fill-opacity:1;stroke:none"
     d="M 20 17.40625 L 16.4375 21 L 20 21 L 20 17.40625 z "
     id="path3033" />
</svg>
