<?xml version="1.0" encoding="UTF-8" standalone="no"?>
<svg
   xmlns:dc="http://purl.org/dc/elements/1.1/"
   xmlns:cc="http://creativecommons.org/ns#"
   xmlns:rdf="http://www.w3.org/1999/02/22-rdf-syntax-ns#"
   xmlns:svg="http://www.w3.org/2000/svg"
   xmlns="http://www.w3.org/2000/svg"
   xmlns:sodipodi="http://sodipodi.sourceforge.net/DTD/sodipodi-0.dtd"
   xmlns:inkscape="http://www.inkscape.org/namespaces/inkscape"
   version="1.0"
   width="22"
   height="21"
   id="svg2"
   inkscape:version="0.47 r22583"
   sodipodi:docname="02-06-009-01-04-01.svg">
  <defs
     id="defs16">
    <inkscape:perspective
       sodipodi:type="inkscape:persp3d"
       inkscape:vp_x="0 : 23 : 1"
       inkscape:vp_y="0 : 1000 : 0"
       inkscape:vp_z="36 : 23 : 1"
       inkscape:persp3d-origin="18 : 15.333333 : 1"
       id="perspective18" />
  </defs>
  <sodipodi:namedview
     pagecolor="#ffffff"
     bordercolor="#666666"
     borderopacity="1"
     objecttolerance="10"
     gridtolerance="10"
     guidetolerance="10"
     inkscape:pageopacity="0"
     inkscape:pageshadow="2"
     inkscape:window-width="964"
     inkscape:window-height="721"
     id="namedview14"
     showgrid="true"
     inkscape:zoom="17.062634"
     inkscape:cx="10.998008"
     inkscape:cy="10.498098"
     inkscape:window-x="365"
     inkscape:window-y="0"
     inkscape:window-maximized="0"
     inkscape:current-layer="svg2"
     showborder="true">
    <inkscape:grid
       type="xygrid"
       id="grid2824"
       empspacing="5"
       visible="true"
       enabled="true"
       snapvisiblegridlinesonly="true" />
  </sodipodi:namedview>
  <metadata
     id="metadata4">
Valerie Sutton's pixel definition of the
ISWA 2010 symbol ID 04-01-003-01-01-01
transformed by Stephen E Slevinski Jr
using line and fill polygon tracing
<rdf:RDF>
  <cc:Work
     rdf:about="">
    <dc:format>image/svg+xml</dc:format>
    <dc:type
       rdf:resource="http://purl.org/dc/dcmitype/StillImage" />
    <dc:title></dc:title>
  </cc:Work>
</rdf:RDF>
</metadata>
  <path
     style="fill:#000000;fill-opacity:1;stroke:none"
     d="M 0 4 L 0 11 L 7 11 L 6 10 L 1 10 L 1 5 L 0 4 z "
     id="path2964" />
  <path
     style="fill:#000000;fill-opacity:1;stroke:none"
     d="M 0 14 L 0 21 L 7 21 L 6 20 L 1 20 L 1 15 L 0 14 z "
     id="path2867" />
  <path
     style="fill:#000000;fill-opacity:1;stroke:none"
     d="m 2.094251,6.0937497 3.53125,-3.46875 C 7.25418,0.9963197 9.515219,-2.9e-7 12.0005,-2.9e-7 c 2.485281,0 4.74632,0.99631999 6.375,2.62499999 l 3.625,3.65625 -0.6875,0.6875 -3.65625,-3.625 c -1.447715,-1.447715 -3.447111,-2.34375 -5.65625,-2.34375 -2.209138,0 -4.208534,0.896035 -5.656249,2.34375 l -3.5625,3.4375 -0.6875,-0.6875 z"
     id="path2904" />
  <path
     style="fill:#ffffff;fill-opacity:1;stroke:none"
     d="m 2.781751,6.7812497 3.5625,-3.4375 c 1.447715,-1.447715 3.447111,-2.34375 5.656249,-2.34375 2.209139,0 4.208535,0.896035 5.65625,2.34375 l 3.65625,3.625 -1.4375,1.4375 -3.625,-3.65625 c -1.085786,-1.085786 -2.593146,-1.75 -4.25,-1.75 -1.656853,0 -3.164213,0.664214 -4.249999,1.75 l -3.53125,3.46875 -1.4375,-1.4375 z"
     id="path2906" />
  <path
     style="fill:#000000;fill-opacity:1;stroke:none"
     d="m 4.219251,8.2187497 3.53125,-3.46875 c 1.085786,-1.085786 2.593146,-1.75 4.249999,-1.75 1.656854,0 3.164214,0.664214 4.25,1.75 l 3.625,3.65625 -0.6875,0.6875 -3.65625,-3.625 c -0.904822,-0.904822 -2.150538,-1.46875 -3.53125,-1.46875 -1.380711,0 -2.626427,0.563928 -3.531249,1.46875 l -3.5625,3.4375 -0.6875,-0.6875 z"
     id="path2917" />
  <path
     id="path2991"
     d="M 2.094251,16.09375 5.625501,12.625 C 7.25418,10.99632 9.515219,10 12.0005,10 c 2.485281,0 4.74632,0.99632 6.375,2.625 l 3.625,3.65625 -0.6875,0.6875 -3.65625,-3.625 C 16.209035,11.896035 14.209639,11 12.0005,11 9.791362,11 7.791966,11.896035 6.344251,13.34375 l -3.5625,3.4375 -0.6875,-0.6875 z"
     style="fill:#000000;fill-opacity:1;stroke:none" />
  <path
     id="path2993"
     d="m 2.781751,16.78125 3.5625,-3.4375 C 7.791966,11.896035 9.791362,11 12.0005,11 c 2.209139,0 4.208535,0.896035 5.65625,2.34375 l 3.65625,3.625 -1.4375,1.4375 L 16.2505,14.75 C 15.164714,13.664214 13.657354,13 12.0005,13 10.343647,13 8.836287,13.664214 7.750501,14.75 l -3.53125,3.46875 -1.4375,-1.4375 z"
     style="fill:#ffffff;fill-opacity:1;stroke:none" />
  <path
     id="path2995"
     d="M 4.219251,18.21875 7.750501,14.75 C 8.836287,13.664214 10.343647,13 12.0005,13 c 1.656854,0 3.164214,0.664214 4.25,1.75 l 3.625,3.65625 -0.6875,0.6875 -3.65625,-3.625 C 14.626928,14.563928 13.381212,14 12.0005,14 10.619789,14 9.374073,14.563928 8.469251,15.46875 l -3.5625,3.4375 -0.6875,-0.6875 z"
     style="fill:#000000;fill-opacity:1;stroke:none" />
</svg>
