<?xml version="1.0" encoding="UTF-8" standalone="no"?>
<svg
   xmlns:dc="http://purl.org/dc/elements/1.1/"
   xmlns:cc="http://creativecommons.org/ns#"
   xmlns:rdf="http://www.w3.org/1999/02/22-rdf-syntax-ns#"
   xmlns:svg="http://www.w3.org/2000/svg"
   xmlns="http://www.w3.org/2000/svg"
   xmlns:sodipodi="http://sodipodi.sourceforge.net/DTD/sodipodi-0.dtd"
   xmlns:inkscape="http://www.inkscape.org/namespaces/inkscape"
   version="1.0"
   width="26"
   height="24"
   id="svg2"
   inkscape:version="0.47 r22583"
   sodipodi:docname="02-06-009-01-04-14.svg">
  <defs
     id="defs16">
    <inkscape:perspective
       sodipodi:type="inkscape:persp3d"
       inkscape:vp_x="0 : 23 : 1"
       inkscape:vp_y="0 : 1000 : 0"
       inkscape:vp_z="36 : 23 : 1"
       inkscape:persp3d-origin="18 : 15.333333 : 1"
       id="perspective18" />
  </defs>
  <sodipodi:namedview
     pagecolor="#ffffff"
     bordercolor="#666666"
     borderopacity="1"
     objecttolerance="10"
     gridtolerance="10"
     guidetolerance="10"
     inkscape:pageopacity="0"
     inkscape:pageshadow="2"
     inkscape:window-width="964"
     inkscape:window-height="721"
     id="namedview14"
     showgrid="true"
     inkscape:zoom="16.010846"
     inkscape:cx="13.004285"
     inkscape:cy="12.003955"
     inkscape:window-x="365"
     inkscape:window-y="0"
     inkscape:window-maximized="0"
     inkscape:current-layer="svg2"
     showborder="true">
    <inkscape:grid
       type="xygrid"
       id="grid2824"
       empspacing="5"
       visible="true"
       enabled="true"
       snapvisiblegridlinesonly="true" />
  </sodipodi:namedview>
  <metadata
     id="metadata4">
Valerie Sutton's pixel definition of the
ISWA 2010 symbol ID 04-01-003-01-01-01
transformed by Stephen E Slevinski Jr
using line and fill polygon tracing
<rdf:RDF>
  <cc:Work
     rdf:about="">
    <dc:format>image/svg+xml</dc:format>
    <dc:type
       rdf:resource="http://purl.org/dc/dcmitype/StillImage" />
    <dc:title></dc:title>
  </cc:Work>
</rdf:RDF>
</metadata>
  <path
     style="fill:#000000;fill-opacity:1;stroke:none"
     d="m 0,10 5.000001,-5 5,5 L 0,10 z"
     id="path2964" />
  <path
     style="fill:#000000;fill-opacity:1;stroke:none"
     d="m 3.0000006,15 c 0,4.970563 4.029437,9 9.0000004,9 L 18,24 18,23 12.000001,23 C 7.5817226,23 4.0000006,19.418278 4.0000006,15 l 0,-5 -1,0 0,5 z"
     id="path2816" />
  <path
     style="fill:#ffffff;fill-opacity:1;stroke:none"
     d="m 4.0000006,15 c 0,4.418278 3.581722,8 8.0000004,8 L 18,23 18,21 12.000001,21 C 8.6862916,21 6.0000006,18.313708 6.0000006,15 l 0,-5 -2,0 0,5 z"
     id="path2818" />
  <path
     style="fill:#000000;fill-opacity:1;stroke:none"
     d="m 6.0000006,15 c 0,3.313708 2.686291,6 6.0000004,6 L 18,21 18,20 12.000001,20 C 9.2385766,20 7.0000006,17.761424 7.0000006,15 l 0,-5 -1,0 0,5 z"
     id="path2823" />
  <path
     id="path2867"
     d="M 7.9999996,5 13.000001,0 18,5 7.9999996,5 z"
     style="fill:#000000;fill-opacity:1;stroke:none" />
  <path
     id="path2869"
     d="m 11.000001,10 c 0,4.970563 4.029437,9 8.999999,9 l 6,0 0,-1 -6,0 c -4.418277,0 -7.999999,-3.581722 -7.999999,-8 l 0,-5 -1,0 0,5 z"
     style="fill:#000000;fill-opacity:1;stroke:none" />
  <path
     id="path2871"
     d="m 12.000001,10 c 0,4.418278 3.581722,8 7.999999,8 l 6,0 0,-2 -6,0 c -3.313709,0 -5.999999,-2.686291 -5.999999,-6 l 0,-5 -2,0 0,5 z"
     style="fill:#ffffff;fill-opacity:1;stroke:none" />
  <path
     id="path2873"
     d="m 14.000001,10 c 0,3.313709 2.68629,6 5.999999,6 l 6,0 0,-1 -6,0 c -2.761424,0 -4.999999,-2.238576 -4.999999,-5 l 0,-5 -1,0 0,5 z"
     style="fill:#000000;fill-opacity:1;stroke:none" />
</svg>
