<?xml version="1.0" encoding="UTF-8" standalone="no"?>
<svg
   xmlns:dc="http://purl.org/dc/elements/1.1/"
   xmlns:cc="http://creativecommons.org/ns#"
   xmlns:rdf="http://www.w3.org/1999/02/22-rdf-syntax-ns#"
   xmlns:svg="http://www.w3.org/2000/svg"
   xmlns="http://www.w3.org/2000/svg"
   xmlns:sodipodi="http://sodipodi.sourceforge.net/DTD/sodipodi-0.dtd"
   xmlns:inkscape="http://www.inkscape.org/namespaces/inkscape"
   version="1.0"
   width="22"
   height="21"
   id="svg2"
   inkscape:version="0.47 r22583"
   sodipodi:docname="02-06-009-01-05-01.svg">
  <defs
     id="defs16">
    <inkscape:perspective
       sodipodi:type="inkscape:persp3d"
       inkscape:vp_x="0 : 23 : 1"
       inkscape:vp_y="0 : 1000 : 0"
       inkscape:vp_z="36 : 23 : 1"
       inkscape:persp3d-origin="18 : 15.333333 : 1"
       id="perspective18" />
  </defs>
  <sodipodi:namedview
     pagecolor="#ffffff"
     bordercolor="#666666"
     borderopacity="1"
     objecttolerance="10"
     gridtolerance="10"
     guidetolerance="10"
     inkscape:pageopacity="0"
     inkscape:pageshadow="2"
     inkscape:window-width="964"
     inkscape:window-height="721"
     id="namedview14"
     showgrid="true"
     inkscape:zoom="17.062634"
     inkscape:cx="10.998008"
     inkscape:cy="10.498098"
     inkscape:window-x="365"
     inkscape:window-y="0"
     inkscape:window-maximized="0"
     inkscape:current-layer="svg2"
     showborder="true">
    <inkscape:grid
       type="xygrid"
       id="grid2824"
       empspacing="5"
       visible="true"
       enabled="true"
       snapvisiblegridlinesonly="true" />
  </sodipodi:namedview>
  <metadata
     id="metadata4">
Valerie Sutton's pixel definition of the
ISWA 2010 symbol ID 04-01-003-01-01-01
transformed by Stephen E Slevinski Jr
using line and fill polygon tracing
<rdf:RDF>
  <cc:Work
     rdf:about="">
    <dc:format>image/svg+xml</dc:format>
    <dc:type
       rdf:resource="http://purl.org/dc/dcmitype/StillImage" />
    <dc:title></dc:title>
  </cc:Work>
</rdf:RDF>
</metadata>
  <path
     style="fill:#000000;fill-opacity:1;stroke:none"
     d="m 22.0005,4 0,7 -7,0 7,-7 z m -1,2.40625 L 17.438,10 l 3.5625,0 0,-3.59375 z"
     id="path2964" />
  <path
     style="fill:#000000;fill-opacity:1;stroke:none"
     d="m 22.0005,14 0,7 -7,0 7,-7 z m -1,2.40625 L 17.438,20 l 3.5625,0 0,-3.59375 z"
     id="path2867" />
  <path
     style="fill:#000000;fill-opacity:1;stroke:none"
     d="m 19.906249,6.0937497 -3.53125,-3.46875 C 14.74632,0.9963197 12.485281,-2.9e-7 10,-2.9e-7 7.514719,-2.9e-7 5.25368,0.9963197 3.625,2.6249997 L 0,6.2812497 l 0.6875,0.6875 3.65625,-3.625 C 5.791465,1.8960347 7.790861,0.9999997 10,0.9999997 c 2.209138,0 4.208534,0.896035 5.656249,2.34375 l 3.5625,3.4375 0.6875,-0.6875 z"
     id="path2904" />
  <path
     style="fill:#ffffff;fill-opacity:1;stroke:none"
     d="m 19.218749,6.7812497 -3.5625,-3.4375 C 14.208534,1.8960347 12.209138,0.9999997 10,0.9999997 c -2.209139,0 -4.208535,0.896035 -5.65625,2.34375 l -3.65625,3.625 1.4375,1.4375 3.625,-3.65625 c 1.085786,-1.085786 2.593146,-1.75 4.25,-1.75 1.656853,0 3.164213,0.664214 4.249999,1.75 l 3.53125,3.46875 1.4375,-1.4375 z"
     id="path2906" />
  <path
     style="fill:#000000;fill-opacity:1;stroke:none"
     d="m 17.781249,8.2187497 -3.53125,-3.46875 c -1.085786,-1.085786 -2.593146,-1.75 -4.249999,-1.75 -1.656854,0 -3.164214,0.664214 -4.25,1.75 l -3.625,3.65625 0.6875,0.6875 3.65625,-3.625 C 7.373572,4.5639277 8.619288,3.9999997 10,3.9999997 c 1.380711,0 2.626427,0.563928 3.531249,1.46875 l 3.5625,3.4375 0.6875,-0.6875 z"
     id="path2917" />
  <path
     id="path2991"
     d="M 19.906249,16.09375 16.374999,12.625 C 14.74632,10.99632 12.485281,10 10,10 7.514719,10 5.25368,10.99632 3.625,12.625 L 0,16.28125 l 0.6875,0.6875 3.65625,-3.625 C 5.791465,11.896035 7.790861,11 10,11 c 2.209138,0 4.208534,0.896035 5.656249,2.34375 l 3.5625,3.4375 0.6875,-0.6875 z"
     style="fill:#000000;fill-opacity:1;stroke:none" />
  <path
     id="path2993"
     d="m 19.218749,16.78125 -3.5625,-3.4375 C 14.208534,11.896035 12.209138,11 10,11 7.790861,11 5.791465,11.896035 4.34375,13.34375 L 0.6875,16.96875 2.125,18.40625 5.75,14.75 C 6.835786,13.664214 8.343146,13 10,13 c 1.656853,0 3.164213,0.664214 4.249999,1.75 l 3.53125,3.46875 1.4375,-1.4375 z"
     style="fill:#ffffff;fill-opacity:1;stroke:none" />
  <path
     id="path2995"
     d="M 17.781249,18.21875 14.249999,14.75 C 13.164213,13.664214 11.656853,13 10,13 8.343146,13 6.835786,13.664214 5.75,14.75 l -3.625,3.65625 0.6875,0.6875 3.65625,-3.625 C 7.373572,14.563928 8.619288,14 10,14 c 1.380711,0 2.626427,0.563928 3.531249,1.46875 l 3.5625,3.4375 0.6875,-0.6875 z"
     style="fill:#000000;fill-opacity:1;stroke:none" />
  <path
     style="fill:#ffffff;fill-opacity:1;stroke:none"
     d="m 21.0005,6.40625 0,3.59375 -3.5625,0 3.5625,-3.59375 z"
     id="path3025" />
  <path
     style="fill:#ffffff;fill-opacity:1;stroke:none"
     d="m 21.0005,16.40625 0,3.59375 -3.5625,0 3.5625,-3.59375 z"
     id="path3027" />
</svg>
