<?xml version="1.0" encoding="UTF-8" standalone="no"?>
<svg
   xmlns:dc="http://purl.org/dc/elements/1.1/"
   xmlns:cc="http://creativecommons.org/ns#"
   xmlns:rdf="http://www.w3.org/1999/02/22-rdf-syntax-ns#"
   xmlns:svg="http://www.w3.org/2000/svg"
   xmlns="http://www.w3.org/2000/svg"
   xmlns:sodipodi="http://sodipodi.sourceforge.net/DTD/sodipodi-0.dtd"
   xmlns:inkscape="http://www.inkscape.org/namespaces/inkscape"
   version="1.0"
   width="22"
   height="11"
   id="svg2"
   inkscape:version="0.47 r22583"
   sodipodi:docname="04-02-009-01-02-10.svg">
  <defs
     id="defs14">
    <inkscape:perspective
       sodipodi:type="inkscape:persp3d"
       inkscape:vp_x="0 : 3.5 : 1"
       inkscape:vp_y="0 : 1000 : 0"
       inkscape:vp_z="7 : 3.5 : 1"
       inkscape:persp3d-origin="3.5 : 2.3333333 : 1"
       id="perspective16" />
  </defs>
  <sodipodi:namedview
     pagecolor="#ffffff"
     bordercolor="#666666"
     borderopacity="1"
     objecttolerance="10"
     gridtolerance="10"
     guidetolerance="10"
     inkscape:pageopacity="0"
     inkscape:pageshadow="2"
     inkscape:window-width="928"
     inkscape:window-height="791"
     id="namedview12"
     showgrid="true"
     inkscape:zoom="19.79896"
     inkscape:cx="10.03983"
     inkscape:cy="5.7174312"
     inkscape:window-x="273"
     inkscape:window-y="0"
     inkscape:window-maximized="0"
     inkscape:current-layer="svg2"
     inkscape:snap-grids="true">
    <inkscape:grid
       type="xygrid"
       id="grid2822" />
  </sodipodi:namedview>
  <metadata
     id="metadata4">
Valerie Sutton's pixel definition of the
ISWA 2010 symbol ID 04-02-007-01-04-01
transformed by Stephen E Slevinski Jr
using line and fill polygon tracing
<rdf:RDF>
  <cc:Work
     rdf:about="">
    <dc:format>image/svg+xml</dc:format>
    <dc:type
       rdf:resource="http://purl.org/dc/dcmitype/StillImage" />
    <dc:title></dc:title>
  </cc:Work>
</rdf:RDF>
</metadata>
  <path
     style="fill:#000000;fill-opacity:1;stroke:none"
     d="M 17.496366,0.653183 21.0319,4.1887167 20.324794,4.8958235 17.496366,2.0673964 14.667939,4.8958235 13.960832,4.1887167 17.496366,0.653183 z"
     id="path2841" />
  <path
     style="fill:#000000;fill-opacity:1;stroke:none"
     d="M 15.817164,7.8128156 C 16.541022,7.088958 17.010407,6.0889581 17.010407,4.9843885 l -1.016466,0 c 0,1.6568543 -1.34835,3.0052036 -3.005203,3.0052035 l -1.988739,6e-7 -0.0221,0.9943687 2.010835,0.022097 c 1.104569,2e-7 2.104569,-0.4693848 2.828427,-1.1932424 z"
     id="path2844" />
  <path
     style="fill:#000000;fill-opacity:1;stroke:none"
     d="m 17.231379,9.2270292 c 1.085785,-1.0857864 1.767766,-2.5857863 1.767766,-4.2426407 l -1.016466,0 c 0,2.7614233 -2.232518,4.9939413 -4.993941,4.9939413 l -1.988739,5e-7 0,1.0164657 1.988739,0 c 1.656853,0 3.156853,-0.68198 4.242641,-1.7677668 z"
     id="rect2867" />
  <path
     style="fill:#ffffff;fill-opacity:1;stroke:none"
     d="m 13,9.994796 c 2.761423,2e-7 5,-2.2385761 5,-4.9999998 l -1,0 c 0,2.209139 -1.790861,4 -3.999999,3.9999996 L 11,8.9947959 l 0,1.0000002 2.000001,-1e-7 z"
     id="path3015" />
  <path
     id="path3366"
     d="M 6.496367,0.658387 10.0319,4.1939204 9.3247935,4.9010272 6.496367,2.0726001 3.667939,4.9010272 2.960833,4.1939204 6.496367,0.658387 z"
     style="fill:#000000;fill-opacity:1;stroke:none" />
  <path
     id="path3368"
     d="M 4.817165,7.8180193 C 5.541022,7.0941617 6.010407,6.0941618 6.010407,4.9895922 l -1.016466,0 c 0,1.6568543 -1.348349,3.0052036 -3.005203,3.0052035 L 0,7.9947963 -0.0221,8.989165 1.988735,9.011262 c 1.104569,2e-7 2.104569,-0.4693848 2.828427,-1.1932424 z"
     style="fill:#000000;fill-opacity:1;stroke:none" />
  <path
     id="path3370"
     d="M 6.231378,9.2322329 C 7.317165,8.1464465 7.999145,6.6464466 7.999145,4.9895922 l -1.016466,0 c 0,2.7614233 -2.232517,4.9939413 -4.993941,4.9939413 L 0,9.983534 0,11 l 1.988738,-10e-7 C 3.645591,11 5.145592,10.318019 6.231378,9.2322329 z"
     style="fill:#000000;fill-opacity:1;stroke:none" />
  <path
     id="path3372"
     d="m 2,9.9999997 c 2.761424,2e-7 5,-2.2385761 5,-4.9999998 l -1,0 c 0,2.209139 -1.790861,4 -4,3.9999996 l -2,1e-7 0,1.0000002 2,-10e-8 z"
     style="fill:#ffffff;fill-opacity:1;stroke:none" />
</svg>
