<?xml version="1.0" encoding="UTF-8" standalone="no"?>
<svg
   xmlns:dc="http://purl.org/dc/elements/1.1/"
   xmlns:cc="http://creativecommons.org/ns#"
   xmlns:rdf="http://www.w3.org/1999/02/22-rdf-syntax-ns#"
   xmlns:svg="http://www.w3.org/2000/svg"
   xmlns="http://www.w3.org/2000/svg"
   xmlns:sodipodi="http://sodipodi.sourceforge.net/DTD/sodipodi-0.dtd"
   xmlns:inkscape="http://www.inkscape.org/namespaces/inkscape"
   version="1.0"
   width="11"
   height="11"
   id="svg2"
   inkscape:version="0.47 r22583"
   sodipodi:docname="04-02-009-01-03-04.svg">
  <defs
     id="defs14">
    <inkscape:perspective
       sodipodi:type="inkscape:persp3d"
       inkscape:vp_x="0 : 3.5 : 1"
       inkscape:vp_y="0 : 1000 : 0"
       inkscape:vp_z="7 : 3.5 : 1"
       inkscape:persp3d-origin="3.5 : 2.3333333 : 1"
       id="perspective16" />
  </defs>
  <sodipodi:namedview
     pagecolor="#ffffff"
     bordercolor="#666666"
     borderopacity="1"
     objecttolerance="10"
     gridtolerance="10"
     guidetolerance="10"
     inkscape:pageopacity="0"
     inkscape:pageshadow="2"
     inkscape:window-width="928"
     inkscape:window-height="791"
     id="namedview12"
     showgrid="true"
     inkscape:zoom="19.79896"
     inkscape:cx="5.9992141"
     inkscape:cy="6.0991984"
     inkscape:window-x="273"
     inkscape:window-y="0"
     inkscape:window-maximized="0"
     inkscape:current-layer="svg2"
     inkscape:snap-grids="true">
    <inkscape:grid
       type="xygrid"
       id="grid2822" />
  </sodipodi:namedview>
  <metadata
     id="metadata4">
Valerie Sutton's pixel definition of the
ISWA 2010 symbol ID 04-02-007-01-04-01
transformed by Stephen E Slevinski Jr
using line and fill polygon tracing
<rdf:RDF>
  <cc:Work
     rdf:about="">
    <dc:format>image/svg+xml</dc:format>
    <dc:type
       rdf:resource="http://purl.org/dc/dcmitype/StillImage" />
    <dc:title></dc:title>
  </cc:Work>
</rdf:RDF>
</metadata>
  <path
     style="fill:#000000;fill-opacity:1;stroke:none"
     d="M 0.6583873,6.4963667 4.1939209,10.031901 4.9010277,9.3247939 2.0726006,6.4963667 4.9010277,3.6679397 4.1939209,2.9608329 0.6583873,6.4963667 z"
     id="path2841" />
  <path
     style="fill:#000000;fill-opacity:1;stroke:none"
     d="M 7.8180198,4.8171647 C 7.0941622,5.5410224 6.0941623,6.0104075 4.9895927,6.0104074 l 0,-1.016466 c 1.6568543,0 3.0052036,-1.3483496 3.0052035,-3.0052031 l 6e-7,-1.98873851 0.9943687,-0.0220998 0.022097,2.01083531 c 2e-7,1.104569 -0.4693848,2.1045688 -1.1932424,2.8284265 z"
     id="path2844" />
  <path
     style="fill:#000000;fill-opacity:1;stroke:none"
     d="M 9.2322334,6.2313784 C 8.146447,7.3171648 6.6464471,7.9991452 4.9895927,7.9991453 l 0,-1.016466 c 2.7614233,2e-7 4.9939413,-2.2325175 4.9939413,-4.993941 L 9.9835345,0 11,0 11,1.9887385 c 0,1.6568531 -0.68198,3.1568533 -1.7677666,4.2426399 z"
     id="rect2867" />
  <path
     style="fill:#ffffff;fill-opacity:1;stroke:none"
     d="M 10,2.0000002 C 10,4.7614237 7.7614241,7.0000001 5.0000004,7.0000001 l 0,-1 c 2.209139,0 4,-1.790861 3.9999996,-3.9999997 L 9.0000001,2.9e-7 10,1.5e-7 10,2.0000002 z"
     id="path3015" />
</svg>
