<?xml version="1.0" encoding="UTF-8" standalone="no"?>
<svg
   xmlns:dc="http://purl.org/dc/elements/1.1/"
   xmlns:cc="http://creativecommons.org/ns#"
   xmlns:rdf="http://www.w3.org/1999/02/22-rdf-syntax-ns#"
   xmlns:svg="http://www.w3.org/2000/svg"
   xmlns="http://www.w3.org/2000/svg"
   xmlns:sodipodi="http://sodipodi.sourceforge.net/DTD/sodipodi-0.dtd"
   xmlns:inkscape="http://www.inkscape.org/namespaces/inkscape"
   version="1.0"
   width="11"
   height="11"
   id="svg2"
   inkscape:version="0.47 r22583"
   sodipodi:docname="04-02-009-01-03-13.svg">
  <defs
     id="defs14">
    <inkscape:perspective
       sodipodi:type="inkscape:persp3d"
       inkscape:vp_x="0 : 3.5 : 1"
       inkscape:vp_y="0 : 1000 : 0"
       inkscape:vp_z="7 : 3.5 : 1"
       inkscape:persp3d-origin="3.5 : 2.3333333 : 1"
       id="perspective16" />
  </defs>
  <sodipodi:namedview
     pagecolor="#ffffff"
     bordercolor="#666666"
     borderopacity="1"
     objecttolerance="10"
     gridtolerance="10"
     guidetolerance="10"
     inkscape:pageopacity="0"
     inkscape:pageshadow="2"
     inkscape:window-width="928"
     inkscape:window-height="791"
     id="namedview12"
     showgrid="true"
     inkscape:zoom="19.79896"
     inkscape:cx="5.9992141"
     inkscape:cy="5.7174312"
     inkscape:window-x="273"
     inkscape:window-y="0"
     inkscape:window-maximized="0"
     inkscape:current-layer="svg2"
     inkscape:snap-grids="true">
    <inkscape:grid
       type="xygrid"
       id="grid2822" />
  </sodipodi:namedview>
  <metadata
     id="metadata4">
Valerie Sutton's pixel definition of the
ISWA 2010 symbol ID 04-02-007-01-04-01
transformed by Stephen E Slevinski Jr
using line and fill polygon tracing
<rdf:RDF>
  <cc:Work
     rdf:about="">
    <dc:format>image/svg+xml</dc:format>
    <dc:type
       rdf:resource="http://purl.org/dc/dcmitype/StillImage" />
    <dc:title></dc:title>
  </cc:Work>
</rdf:RDF>
</metadata>
  <path
     style="fill:#000000;fill-opacity:1;stroke:none"
     d="M 4.5036334,10.341613 0.9680995,6.8060796 1.6752063,6.0989728 4.5036334,8.9273999 7.3320605,6.0989728 8.0391673,6.8060796 4.5036334,10.341613 z"
     id="path2841" />
  <path
     style="fill:#000000;fill-opacity:1;stroke:none"
     d="M 6.1828354,3.1819807 C 5.4589777,3.9058383 4.9895926,4.9058382 4.9895928,6.0104078 l 1.0164659,0 c 0,-1.6568543 1.3483496,-3.0052036 3.0052031,-3.0052035 L 11,3.0052037 11.0221,2.010835 9.011265,1.988738 c -1.104569,-2e-7 -2.1045688,0.4693848 -2.8284265,1.1932424 z"
     id="path2844" />
  <path
     style="fill:#000000;fill-opacity:1;stroke:none"
     d="M 4.7686217,1.7677671 C 3.6828353,2.8535535 3.000855,4.3535534 3.0008548,6.0104078 l 1.016466,0 c -2e-7,-2.7614233 2.2325175,-4.9939413 4.993941,-4.9939413 L 11,1.016466 11,0 9.0112616,7e-7 C 7.3544085,2e-7 5.8544083,0.6819806 4.7686217,1.7677671 z"
     id="rect2867" />
  <path
     style="fill:#ffffff;fill-opacity:1;stroke:none"
     d="m 8.9999999,1.0000003 c -2.7614235,-2e-7 -4.9999998,2.2385761 -4.9999998,4.9999998 l 1,0 c 0,-2.209139 1.790861,-4 3.9999997,-3.9999996 L 11,2.0000004 l 0,-1.0000002 -2.0000001,1e-7 z"
     id="path3015" />
</svg>
