<?xml version="1.0" encoding="UTF-8" standalone="no"?>
<svg
   xmlns:dc="http://purl.org/dc/elements/1.1/"
   xmlns:cc="http://creativecommons.org/ns#"
   xmlns:rdf="http://www.w3.org/1999/02/22-rdf-syntax-ns#"
   xmlns:svg="http://www.w3.org/2000/svg"
   xmlns="http://www.w3.org/2000/svg"
   xmlns:sodipodi="http://sodipodi.sourceforge.net/DTD/sodipodi-0.dtd"
   xmlns:inkscape="http://www.inkscape.org/namespaces/inkscape"
   version="1.0"
   width="35"
   height="35"
   id="svg2"
   inkscape:version="0.47 r22583"
   sodipodi:docname="04-02-009-01-01-15.svg">
  <defs
     id="defs14">
    <inkscape:perspective
       sodipodi:type="inkscape:persp3d"
       inkscape:vp_x="0 : 3.5 : 1"
       inkscape:vp_y="0 : 1000 : 0"
       inkscape:vp_z="7 : 3.5 : 1"
       inkscape:persp3d-origin="3.5 : 2.3333333 : 1"
       id="perspective16" />
  </defs>
  <sodipodi:namedview
     pagecolor="#ffffff"
     bordercolor="#666666"
     borderopacity="1"
     objecttolerance="10"
     gridtolerance="10"
     guidetolerance="10"
     inkscape:pageopacity="0"
     inkscape:pageshadow="2"
     inkscape:window-width="928"
     inkscape:window-height="791"
     id="namedview12"
     showgrid="true"
     inkscape:zoom="15.003171"
     inkscape:cx="17.569436"
     inkscape:cy="16.764252"
     inkscape:window-x="273"
     inkscape:window-y="0"
     inkscape:window-maximized="0"
     inkscape:current-layer="svg2"
     inkscape:snap-grids="true">
    <inkscape:grid
       type="xygrid"
       id="grid2822" />
  </sodipodi:namedview>
  <metadata
     id="metadata4">
Valerie Sutton's pixel definition of the
ISWA 2010 symbol ID 04-02-007-01-04-01
transformed by Stephen E Slevinski Jr
using line and fill polygon tracing
<rdf:RDF>
  <cc:Work
     rdf:about="">
    <dc:format>image/svg+xml</dc:format>
    <dc:type
       rdf:resource="http://purl.org/dc/dcmitype/StillImage" />
    <dc:title />
  </cc:Work>
</rdf:RDF>
</metadata>
  <path
     style="fill:#000000;fill-opacity:1;stroke:none"
     d="m 15.00025,6 -5,0 0,1 4,0 0,4 1,0 0,-5 z"
     id="path2841" />
  <path
     style="fill:#000000;fill-opacity:1;stroke:none"
     d="m 11.125,12.25 c 0,-1.023689 0.375201,-2.062701 1.15625,-2.84375 L 13,10.125 c -1.171573,1.171573 -1.171573,3.078427 0,4.249999 l 1.40625,1.406251 -0.687498,0.718752 -1.4375,-1.406251 c -0.781048,-0.781048 -1.15625,-1.82006 -1.15625,-2.843749 z"
     id="path2844" />
  <path
     style="fill:#000000;fill-opacity:1;stroke:none"
     d="m 9.125,12.25 c 0,-1.535534 0.578427,-3.078427 1.75,-4.25 l 0.71875,0.71875 c -1.952621,1.952621 -1.952621,5.109878 0,7.062499 L 13,17.1875 12.28125,17.90625 10.875,16.499999 C 9.703427,15.328427 9.125,13.785534 9.125,12.25 z"
     id="rect2867" />
  <path
     style="fill:#ffffff;fill-opacity:1;stroke:none"
     d="m 11.574143,15.784929 c -1.952621,-1.952621 -1.952621,-5.118446 0,-7.071067 l 0.707107,0.707106 c -1.562097,1.562098 -1.562097,4.094758 0,5.656854 l 1.414213,1.414214 -0.707106,0.707107 -1.414214,-1.414214 z"
     id="path3015" />
  <path
     id="path3185"
     d="m 26.00025,6 -5,0 0,1 4,0 0,4 1,0 0,-5 z"
     style="fill:#000000;fill-opacity:1;stroke:none" />
  <path
     id="path3187"
     d="m 22.125,12.25 c 0,-1.023689 0.375202,-2.062701 1.15625,-2.84375 L 24,10.125 c -1.171573,1.171573 -1.171572,3.078427 0,4.249999 l 1.40625,1.406251 -0.687498,0.718752 -1.4375,-1.406251 c -0.781048,-0.781048 -1.15625,-1.82006 -1.15625,-2.843749 z"
     style="fill:#000000;fill-opacity:1;stroke:none" />
  <path
     id="path3189"
     d="m 20.125,12.25 c 0,-1.535534 0.578427,-3.078427 1.75,-4.25 l 0.71875,0.71875 c -1.952621,1.952621 -1.952621,5.109878 0,7.062499 L 24,17.1875 23.28125,17.90625 21.875,16.499999 C 20.703428,15.328427 20.125,13.785534 20.125,12.25 z"
     style="fill:#000000;fill-opacity:1;stroke:none" />
  <path
     id="path3191"
     d="m 22.574143,15.784929 c -1.952621,-1.952621 -1.952621,-5.118446 0,-7.071067 l 0.707107,0.707106 c -1.562097,1.562098 -1.562097,4.094758 0,5.656854 l 1.414214,1.414214 -0.707107,0.707107 -1.414214,-1.414214 z"
     style="fill:#ffffff;fill-opacity:1;stroke:none" />
  <path
     style="fill:#000000;fill-opacity:1;stroke:none"
     d="M 17.5,0 C 7.8350169,0 0,7.8350169 0,17.5 0,27.164983 7.8350169,35 17.5,35 27.164983,35 35,27.164983 35,17.5 35,7.8350169 27.164983,0 17.5,0 z m 0,1.5 c 8.836556,0 16,7.163444 16,16 0,8.836556 -7.163444,16 -16,16 -8.836556,0 -16,-7.163444 -16,-16 0,-8.836556 7.163444,-16 16,-16 z"
     id="path3277" />
</svg>
