<?xml version="1.0" encoding="UTF-8" standalone="no"?>
<svg
   xmlns:dc="http://purl.org/dc/elements/1.1/"
   xmlns:cc="http://creativecommons.org/ns#"
   xmlns:rdf="http://www.w3.org/1999/02/22-rdf-syntax-ns#"
   xmlns:svg="http://www.w3.org/2000/svg"
   xmlns="http://www.w3.org/2000/svg"
   xmlns:sodipodi="http://sodipodi.sourceforge.net/DTD/sodipodi-0.dtd"
   xmlns:inkscape="http://www.inkscape.org/namespaces/inkscape"
   version="1.0"
   width="24"
   height="11"
   id="svg2"
   inkscape:version="0.47 r22583"
   sodipodi:docname="04-02-009-01-02-08.svg">
  <defs
     id="defs14">
    <inkscape:perspective
       sodipodi:type="inkscape:persp3d"
       inkscape:vp_x="0 : 3.5 : 1"
       inkscape:vp_y="0 : 1000 : 0"
       inkscape:vp_z="7 : 3.5 : 1"
       inkscape:persp3d-origin="3.5 : 2.3333333 : 1"
       id="perspective16" />
  </defs>
  <sodipodi:namedview
     pagecolor="#ffffff"
     bordercolor="#666666"
     borderopacity="1"
     objecttolerance="10"
     gridtolerance="10"
     guidetolerance="10"
     inkscape:pageopacity="0"
     inkscape:pageshadow="2"
     inkscape:window-width="928"
     inkscape:window-height="791"
     id="namedview12"
     showgrid="true"
     inkscape:zoom="19.79896"
     inkscape:cx="10.03983"
     inkscape:cy="6.0991984"
     inkscape:window-x="273"
     inkscape:window-y="0"
     inkscape:window-maximized="0"
     inkscape:current-layer="svg2"
     inkscape:snap-grids="true">
    <inkscape:grid
       type="xygrid"
       id="grid2822" />
  </sodipodi:namedview>
  <metadata
     id="metadata4">
Valerie Sutton's pixel definition of the
ISWA 2010 symbol ID 04-02-007-01-04-01
transformed by Stephen E Slevinski Jr
using line and fill polygon tracing
<rdf:RDF>
  <cc:Work
     rdf:about="">
    <dc:format>image/svg+xml</dc:format>
    <dc:type
       rdf:resource="http://purl.org/dc/dcmitype/StillImage" />
    <dc:title></dc:title>
  </cc:Work>
</rdf:RDF>
</metadata>
  <path
     style="fill:#000000;fill-opacity:1;stroke:none"
     d="M 23.341613,4.5036333 19.806079,0.96809899 19.098973,1.6752061 21.9274,4.5036333 l -2.828427,2.828427 0.707106,0.7071068 3.535534,-3.5355338 z"
     id="path2841" />
  <path
     style="fill:#000000;fill-opacity:1;stroke:none"
     d="m 16.18198,6.1828353 c 0.723858,-0.7238577 1.723858,-1.1932428 2.828428,-1.1932427 l 0,1.016466 c -1.656855,0 -3.005204,1.3483496 -3.005204,3.0052031 l 0,1.9887383 -0.994369,0.0221 -0.0221,-2.0108353 c 0,-1.104569 0.469385,-2.1045688 1.193242,-2.8284265 z"
     id="path2844" />
  <path
     style="fill:#000000;fill-opacity:1;stroke:none"
     d="m 14.767767,4.7686216 c 1.085786,-1.0857864 2.585786,-1.7677668 4.242641,-1.7677669 l 0,1.016466 c -2.761424,-2e-7 -4.993942,2.2325175 -4.993942,4.993941 L 14.016466,11 13,11 13,9.0112615 c 0,-1.6568531 0.68198,-3.1568533 1.767767,-4.2426399 z"
     id="rect2867" />
  <path
     style="fill:#ffffff;fill-opacity:1;stroke:none"
     d="m 14,8.9999998 c 0,-2.7614235 2.238576,-4.9999999 5,-4.9999999 l 0,1 c -2.209139,0 -4,1.790861 -4,3.9999997 L 15,11 14,11 14,8.9999998 z"
     id="path3015" />
  <path
     id="path2846"
     d="M 10.341613,4.5036333 6.806079,0.96809899 6.098973,1.6752061 8.9274,4.5036333 6.098973,7.3320603 6.806079,8.0391671 10.341613,4.5036333 z"
     style="fill:#000000;fill-opacity:1;stroke:none" />
  <path
     id="path2848"
     d="M 3.181981,6.1828353 C 3.905838,5.4589776 4.905838,4.9895925 6.010408,4.9895926 l 0,1.016466 c -1.656855,0 -3.005204,1.3483496 -3.005204,3.0052031 l 0,1.9887383 -0.994369,0.0221 -0.0221,-2.0108353 c 0,-1.104569 0.469385,-2.1045688 1.193242,-2.8284265 z"
     style="fill:#000000;fill-opacity:1;stroke:none" />
  <path
     id="path2850"
     d="M 1.767767,4.7686216 C 2.853553,3.6828352 4.353553,3.0008548 6.010408,3.0008547 l 0,1.016466 c -2.761424,-2e-7 -4.993942,2.2325175 -4.993942,4.993941 L 1.016466,11 0,11 0,9.0112615 C 0,7.3544084 0.68198,5.8544082 1.767767,4.7686216 z"
     style="fill:#000000;fill-opacity:1;stroke:none" />
  <path
     id="path2852"
     d="M 1,8.9999998 C 1,6.2385763 3.238576,3.9999999 6,3.9999999 l 0,1 c -2.209139,0 -4,1.790861 -4,3.9999997 L 2,11 1,11 1,8.9999997 z"
     style="fill:#ffffff;fill-opacity:1;stroke:none" />
</svg>
