<?xml version="1.0" encoding="UTF-8" standalone="no"?>
<svg
   xmlns:dc="http://purl.org/dc/elements/1.1/"
   xmlns:cc="http://creativecommons.org/ns#"
   xmlns:rdf="http://www.w3.org/1999/02/22-rdf-syntax-ns#"
   xmlns:svg="http://www.w3.org/2000/svg"
   xmlns="http://www.w3.org/2000/svg"
   xmlns:sodipodi="http://sodipodi.sourceforge.net/DTD/sodipodi-0.dtd"
   xmlns:inkscape="http://www.inkscape.org/namespaces/inkscape"
   version="1.0"
   width="35"
   height="35"
   id="svg2"
   inkscape:version="0.47 r22583"
   sodipodi:docname="04-02-009-01-01-05.svg">
  <defs
     id="defs14">
    <inkscape:perspective
       sodipodi:type="inkscape:persp3d"
       inkscape:vp_x="0 : 3.5 : 1"
       inkscape:vp_y="0 : 1000 : 0"
       inkscape:vp_z="7 : 3.5 : 1"
       inkscape:persp3d-origin="3.5 : 2.3333333 : 1"
       id="perspective16" />
  </defs>
  <sodipodi:namedview
     pagecolor="#ffffff"
     bordercolor="#666666"
     borderopacity="1"
     objecttolerance="10"
     gridtolerance="10"
     guidetolerance="10"
     inkscape:pageopacity="0"
     inkscape:pageshadow="2"
     inkscape:window-width="928"
     inkscape:window-height="791"
     id="namedview12"
     showgrid="true"
     inkscape:zoom="15.003171"
     inkscape:cx="17.393612"
     inkscape:cy="17.67361"
     inkscape:window-x="273"
     inkscape:window-y="0"
     inkscape:window-maximized="0"
     inkscape:current-layer="svg2"
     inkscape:snap-grids="true">
    <inkscape:grid
       type="xygrid"
       id="grid2822" />
  </sodipodi:namedview>
  <metadata
     id="metadata4">
Valerie Sutton's pixel definition of the
ISWA 2010 symbol ID 04-02-007-01-04-01
transformed by Stephen E Slevinski Jr
using line and fill polygon tracing
<rdf:RDF>
  <cc:Work
     rdf:about="">
    <dc:format>image/svg+xml</dc:format>
    <dc:type
       rdf:resource="http://purl.org/dc/dcmitype/StillImage" />
    <dc:title />
  </cc:Work>
</rdf:RDF>
</metadata>
  <path
     style="fill:#000000;fill-opacity:1;stroke:none"
     d="m 30,10 0,5 -1,0 0,-4 -4,0 0,-1 5,0 z"
     id="path2841" />
  <path
     style="fill:#000000;fill-opacity:1;stroke:none"
     d="m 23.75,13.87525 c 1.023689,0 2.062701,-0.375201 2.84375,-1.15625 L 25.875,12.00025 c -1.171573,1.171573 -3.078427,1.171573 -4.249999,0 L 20.21875,10.594 l -0.718752,0.687498 1.406251,1.4375 c 0.781048,0.781048 1.82006,1.15625 2.843749,1.15625 z"
     id="path2844" />
  <path
     style="fill:#000000;fill-opacity:1;stroke:none"
     d="m 23.75,15.87525 c 1.535534,0 3.078427,-0.578427 4.25,-1.75 L 27.28125,13.4065 c -1.952621,1.952621 -5.109878,1.952621 -7.062499,0 L 18.8125,12.00025 18.09375,12.719 l 1.406251,1.40625 c 1.171572,1.171572 2.714465,1.75 4.249999,1.75 z"
     id="rect2867" />
  <path
     style="fill:#ffffff;fill-opacity:1;stroke:none"
     d="m 20.215071,13.426107 c 1.952621,1.952621 5.118446,1.952621 7.071067,0 L 26.579031,12.719 c -1.562097,1.562097 -4.094757,1.562097 -5.656853,0 l -1.414214,-1.414214 -0.707107,0.707107 1.414214,1.414214 z"
     id="path3015" />
  <path
     id="path3581"
     d="m 17,10 0,5 -1,0 0,-4 -4,0 0,-1 5,0 z"
     style="fill:#000000;fill-opacity:1;stroke:none" />
  <path
     id="path3583"
     d="m 10.75,13.87525 c 1.023689,0 2.062701,-0.375201 2.84375,-1.15625 L 12.875,12.00025 c -1.171573,1.171573 -3.078427,1.171573 -4.249999,0 L 7.21875,10.594 l -0.718752,0.687498 1.406251,1.4375 c 0.781048,0.781048 1.82006,1.15625 2.843749,1.15625 z"
     style="fill:#000000;fill-opacity:1;stroke:none" />
  <path
     id="path3585"
     d="m 10.75,15.87525 c 1.535534,0 3.078427,-0.578427 4.25,-1.75 L 14.28125,13.4065 c -1.952621,1.952621 -5.109878,1.952621 -7.062499,0 L 5.8125,12.00025 5.09375,12.719 6.500001,14.12525 c 1.171572,1.171572 2.714465,1.75 4.249999,1.75 z"
     style="fill:#000000;fill-opacity:1;stroke:none" />
  <path
     id="path3587"
     d="m 7.215071,13.426107 c 1.952621,1.952621 5.118446,1.952621 7.071067,0 L 13.579031,12.719 c -1.562097,1.562097 -4.094757,1.562097 -5.656853,0 l -1.414214,-1.414214 -0.707107,0.707107 1.414214,1.414214 z"
     style="fill:#ffffff;fill-opacity:1;stroke:none" />
  <path
     style="fill:#000000;fill-opacity:1;stroke:none"
     d="M 17.5,0 C 7.8350169,0 0,7.8350169 0,17.5 0,27.164983 7.8350169,35 17.5,35 27.164983,35 35,27.164983 35,17.5 35,7.8350169 27.164983,0 17.5,0 z m 0,1.5 c 8.836556,0 16,7.163444 16,16 0,8.836556 -7.163444,16 -16,16 -8.836556,0 -16,-7.163444 -16,-16 0,-8.836556 7.163444,-16 16,-16 z"
     id="path3704" />
</svg>
