<?xml version="1.0" encoding="UTF-8" standalone="no"?>
<svg
   xmlns:dc="http://purl.org/dc/elements/1.1/"
   xmlns:cc="http://creativecommons.org/ns#"
   xmlns:rdf="http://www.w3.org/1999/02/22-rdf-syntax-ns#"
   xmlns:svg="http://www.w3.org/2000/svg"
   xmlns="http://www.w3.org/2000/svg"
   xmlns:sodipodi="http://sodipodi.sourceforge.net/DTD/sodipodi-0.dtd"
   xmlns:inkscape="http://www.inkscape.org/namespaces/inkscape"
   version="1.0"
   width="35"
   height="35"
   id="svg2"
   inkscape:version="0.47 r22583"
   sodipodi:docname="04-02-009-01-01-12.svg">
  <defs
     id="defs14">
    <inkscape:perspective
       sodipodi:type="inkscape:persp3d"
       inkscape:vp_x="0 : 3.5 : 1"
       inkscape:vp_y="0 : 1000 : 0"
       inkscape:vp_z="7 : 3.5 : 1"
       inkscape:persp3d-origin="3.5 : 2.3333333 : 1"
       id="perspective16" />
  </defs>
  <sodipodi:namedview
     pagecolor="#ffffff"
     bordercolor="#666666"
     borderopacity="1"
     objecttolerance="10"
     gridtolerance="10"
     guidetolerance="10"
     inkscape:pageopacity="0"
     inkscape:pageshadow="2"
     inkscape:window-width="928"
     inkscape:window-height="791"
     id="namedview12"
     showgrid="true"
     inkscape:zoom="15.003171"
     inkscape:cx="17.430564"
     inkscape:cy="17.715927"
     inkscape:window-x="273"
     inkscape:window-y="0"
     inkscape:window-maximized="0"
     inkscape:current-layer="svg2"
     inkscape:snap-grids="true">
    <inkscape:grid
       type="xygrid"
       id="grid2822" />
  </sodipodi:namedview>
  <metadata
     id="metadata4">
Valerie Sutton's pixel definition of the
ISWA 2010 symbol ID 04-02-007-01-04-01
transformed by Stephen E Slevinski Jr
using line and fill polygon tracing
<rdf:RDF>
  <cc:Work
     rdf:about="">
    <dc:format>image/svg+xml</dc:format>
    <dc:type
       rdf:resource="http://purl.org/dc/dcmitype/StillImage" />
    <dc:title />
  </cc:Work>
</rdf:RDF>
</metadata>
  <path
     style="fill:#000000;fill-opacity:1;stroke:none"
     d="M 4.658387,13.496367 8.193921,17.031901 8.901027,16.324794 6.0726,13.496367 8.901027,10.66794 8.193921,9.960833 4.658387,13.496367 z"
     id="path2841" />
  <path
     style="fill:#000000;fill-opacity:1;stroke:none"
     d="m 11.81802,11.817165 c -0.723858,0.723857 -1.723858,1.193242 -2.828428,1.193242 l 0,-1.016466 c 1.656855,0 3.005204,-1.348349 3.005204,-3.005203 l 0,-1.988738 0.994369,-0.0221 0.0221,2.010835 c 0,1.104569 -0.469385,2.104569 -1.193242,2.828427 z"
     id="path2844" />
  <path
     style="fill:#000000;fill-opacity:1;stroke:none"
     d="m 13.232233,13.231378 c -1.085786,1.085787 -2.585786,1.767767 -4.242641,1.767767 l 0,-1.016466 c 2.761424,1e-6 4.993942,-2.232517 4.993942,-4.993941 L 13.983534,7 15,7 15,8.988738 c 0,1.656854 -0.68198,3.156854 -1.767767,4.24264 z"
     id="rect2867" />
  <path
     style="fill:#ffffff;fill-opacity:1;stroke:none"
     d="m 14,9 c 0,2.761424 -2.238576,5 -5,5 l 0,-1 c 2.209139,0 4,-1.790861 4,-4 l 0,-2 1,0 0,2 z"
     id="path3015" />
  <path
     id="path2846"
     d="m 17.658387,13.496367 3.535534,3.535534 0.707106,-0.707107 -2.828427,-2.828427 2.828427,-2.828427 -0.707106,-0.707107 -3.535534,3.535534 z"
     style="fill:#000000;fill-opacity:1;stroke:none" />
  <path
     id="path2848"
     d="m 24.818019,11.817165 c -0.723857,0.723857 -1.723857,1.193242 -2.828427,1.193242 l 0,-1.016466 c 1.656855,0 3.005204,-1.348349 3.005204,-3.005203 l 0,-1.988738 0.994369,-0.0221 0.0221,2.010835 c 0,1.104569 -0.469385,2.104569 -1.193242,2.828427 z"
     style="fill:#000000;fill-opacity:1;stroke:none" />
  <path
     id="path2850"
     d="m 26.232233,13.231378 c -1.085786,1.085787 -2.585786,1.767767 -4.242641,1.767767 l 0,-1.016466 c 2.761424,1e-6 4.993942,-2.232517 4.993942,-4.993941 L 26.983534,7 28,7 28,8.988738 c 0,1.656854 -0.68198,3.156854 -1.767767,4.24264 z"
     style="fill:#000000;fill-opacity:1;stroke:none" />
  <path
     id="path2852"
     d="m 27,9 c 0,2.761424 -2.238576,5 -5,5 l 0,-1 c 2.209139,0 4,-1.790861 4,-4 l 0,-2 1,0 0,2 z"
     style="fill:#ffffff;fill-opacity:1;stroke:none" />
  <path
     style="fill:#000000;fill-opacity:1;stroke:none"
     d="M 17.5,0 C 7.8350169,0 0,7.8350169 0,17.5 0,27.164983 7.8350169,35 17.5,35 27.164983,35 35,27.164983 35,17.5 35,7.8350169 27.164983,0 17.5,0 z m 0,1.5 c 8.836556,0 16,7.163444 16,16 0,8.836556 -7.163444,16 -16,16 -8.836556,0 -16,-7.163444 -16,-16 0,-8.836556 7.163444,-16 16,-16 z"
     id="path2938" />
</svg>
