<?xml version="1.0" encoding="UTF-8" standalone="no"?>
<svg
   xmlns:dc="http://purl.org/dc/elements/1.1/"
   xmlns:cc="http://creativecommons.org/ns#"
   xmlns:rdf="http://www.w3.org/1999/02/22-rdf-syntax-ns#"
   xmlns:svg="http://www.w3.org/2000/svg"
   xmlns="http://www.w3.org/2000/svg"
   xmlns:sodipodi="http://sodipodi.sourceforge.net/DTD/sodipodi-0.dtd"
   xmlns:inkscape="http://www.inkscape.org/namespaces/inkscape"
   version="1.0"
   width="11"
   height="11"
   id="svg2"
   inkscape:version="0.47 r22583"
   sodipodi:docname="04-02-009-01-03-10.svg">
  <defs
     id="defs14">
    <inkscape:perspective
       sodipodi:type="inkscape:persp3d"
       inkscape:vp_x="0 : 3.5 : 1"
       inkscape:vp_y="0 : 1000 : 0"
       inkscape:vp_z="7 : 3.5 : 1"
       inkscape:persp3d-origin="3.5 : 2.3333333 : 1"
       id="perspective16" />
  </defs>
  <sodipodi:namedview
     pagecolor="#ffffff"
     bordercolor="#666666"
     borderopacity="1"
     objecttolerance="10"
     gridtolerance="10"
     guidetolerance="10"
     inkscape:pageopacity="0"
     inkscape:pageshadow="2"
     inkscape:window-width="928"
     inkscape:window-height="791"
     id="namedview12"
     showgrid="true"
     inkscape:zoom="19.79896"
     inkscape:cx="5.9992141"
     inkscape:cy="5.7174312"
     inkscape:window-x="273"
     inkscape:window-y="0"
     inkscape:window-maximized="0"
     inkscape:current-layer="svg2"
     inkscape:snap-grids="true">
    <inkscape:grid
       type="xygrid"
       id="grid2822" />
  </sodipodi:namedview>
  <metadata
     id="metadata4">
Valerie Sutton's pixel definition of the
ISWA 2010 symbol ID 04-02-007-01-04-01
transformed by Stephen E Slevinski Jr
using line and fill polygon tracing
<rdf:RDF>
  <cc:Work
     rdf:about="">
    <dc:format>image/svg+xml</dc:format>
    <dc:type
       rdf:resource="http://purl.org/dc/dcmitype/StillImage" />
    <dc:title></dc:title>
  </cc:Work>
</rdf:RDF>
</metadata>
  <path
     style="fill:#000000;fill-opacity:1;stroke:none"
     d="M 6.4963666,0.658387 10.031901,4.1939204 9.3247935,4.9010272 6.4963666,2.0726001 3.6679395,4.9010272 2.9608327,4.1939204 6.4963666,0.658387 z"
     id="path2841" />
  <path
     style="fill:#000000;fill-opacity:1;stroke:none"
     d="M 4.8171646,7.8180193 C 5.5410223,7.0941617 6.0104074,6.0941618 6.0104072,4.9895922 l -1.0164659,0 c 0,1.6568543 -1.3483496,3.0052036 -3.0052031,3.0052035 L 0,7.9947963 -0.0221,8.989165 1.988735,9.011262 c 1.104569,2e-7 2.1045688,-0.4693848 2.8284265,-1.1932424 z"
     id="path2844" />
  <path
     style="fill:#000000;fill-opacity:1;stroke:none"
     d="M 6.2313783,9.2322329 C 7.3171647,8.1464465 7.999145,6.6464466 7.9991452,4.9895922 l -1.016466,0 c 2e-7,2.7614233 -2.2325175,4.9939413 -4.993941,4.9939413 L 0,9.983534 0,11 l 1.9887384,-10e-7 C 3.6455915,11 5.1455917,10.318019 6.2313783,9.2322329 z"
     id="rect2867" />
  <path
     style="fill:#ffffff;fill-opacity:1;stroke:none"
     d="m 2.0000001,9.9999997 c 2.7614235,2e-7 4.9999998,-2.2385761 4.9999998,-4.9999998 l -1,0 c 0,2.209139 -1.790861,4 -3.9999997,3.9999996 L 0,8.9999996 l 0,1.0000002 2.0000001,-10e-8 z"
     id="path3015" />
</svg>
