<?xml version="1.0" encoding="UTF-8" standalone="no"?>
<svg
   xmlns:dc="http://purl.org/dc/elements/1.1/"
   xmlns:cc="http://creativecommons.org/ns#"
   xmlns:rdf="http://www.w3.org/1999/02/22-rdf-syntax-ns#"
   xmlns:svg="http://www.w3.org/2000/svg"
   xmlns="http://www.w3.org/2000/svg"
   xmlns:sodipodi="http://sodipodi.sourceforge.net/DTD/sodipodi-0.dtd"
   xmlns:inkscape="http://www.inkscape.org/namespaces/inkscape"
   version="1.0"
   width="25"
   height="6"
   id="svg2"
   inkscape:version="0.47 r22583"
   sodipodi:docname="04-02-009-01-03-01.svg">
  <defs
     id="defs14">
    <inkscape:perspective
       sodipodi:type="inkscape:persp3d"
       inkscape:vp_x="0 : 3.5 : 1"
       inkscape:vp_y="0 : 1000 : 0"
       inkscape:vp_z="7 : 3.5 : 1"
       inkscape:persp3d-origin="3.5 : 2.3333333 : 1"
       id="perspective16" />
  </defs>
  <sodipodi:namedview
     pagecolor="#ffffff"
     bordercolor="#666666"
     borderopacity="1"
     objecttolerance="10"
     gridtolerance="10"
     guidetolerance="10"
     inkscape:pageopacity="0"
     inkscape:pageshadow="2"
     inkscape:window-width="928"
     inkscape:window-height="791"
     id="namedview12"
     showgrid="true"
     inkscape:zoom="19.79896"
     inkscape:cx="12.060139"
     inkscape:cy="1.6768149"
     inkscape:window-x="273"
     inkscape:window-y="0"
     inkscape:window-maximized="0"
     inkscape:current-layer="svg2"
     inkscape:snap-grids="true">
    <inkscape:grid
       type="xygrid"
       id="grid2822" />
  </sodipodi:namedview>
  <metadata
     id="metadata4">
Valerie Sutton's pixel definition of the
ISWA 2010 symbol ID 04-02-007-01-04-01
transformed by Stephen E Slevinski Jr
using line and fill polygon tracing
<rdf:RDF>
  <cc:Work
     rdf:about="">
    <dc:format>image/svg+xml</dc:format>
    <dc:type
       rdf:resource="http://purl.org/dc/dcmitype/StillImage" />
    <dc:title></dc:title>
  </cc:Work>
</rdf:RDF>
</metadata>
  <path
     style="fill:#000000;fill-opacity:1;stroke:none"
     d="M 0,6 0,1 1,1 1,5 5,5 5,6 0,6 z"
     id="path2841" />
  <path
     style="fill:#000000;fill-opacity:1;stroke:none"
     d="m 6.25,2.1247502 c -1.0236893,-10e-8 -2.0627014,0.3752013 -2.8437499,1.15625 l 0.71875,0.71875 C 5.296573,2.8281773 7.203427,2.8281775 8.3749993,3.9997499 L 9.7812503,5.406 10.500002,4.7185021 9.0937513,3.2810021 C 8.3127033,2.4999537 7.2736913,2.1247524 6.250002,2.1247524 z"
     id="path2844" />
  <path
     style="fill:#000000;fill-opacity:1;stroke:none"
     d="m 6.25,0.1247501 c -1.5355339,0 -3.0784269,0.5784272 -4.25,1.75 l 0.71875,0.71875 c 1.952621,-1.9526212 5.109878,-1.9526215 7.0624993,-2e-7 L 11.1875,3.99975 11.90625,3.281 10.499999,1.8747499 C 9.3284273,0.7031775 7.785534,0.1247502 6.25,0.1247501 z"
     id="rect2867" />
  <path
     style="fill:#ffffff;fill-opacity:1;stroke:none"
     d="m 9.7849293,2.5738932 c -1.9526212,-1.9526214 -5.1184461,-1.9526214 -7.0710676,0 L 3.4209685,3.281 c 1.5620972,-1.5620972 4.0947571,-1.5620972 5.6568538,0 L 10.492036,4.6952136 11.199143,3.9881068 9.7849293,2.5738932 z"
     id="path3015" />
  <path
     id="path3581"
     d="m 13,6 0,-5 1,0 0,4 4,0 0,1 -5,0 z"
     style="fill:#000000;fill-opacity:1;stroke:none" />
  <path
     id="path3583"
     d="m 19.25,2.1247502 c -1.023689,-10e-8 -2.062701,0.3752013 -2.84375,1.15625 l 0.71875,0.71875 c 1.171573,-1.1715729 3.078427,-1.1715727 4.249999,-3e-7 L 22.78125,5.406 23.500002,4.7185021 22.093751,3.2810021 C 21.312703,2.4999537 20.273691,2.1247524 19.250002,2.1247524 z"
     style="fill:#000000;fill-opacity:1;stroke:none" />
  <path
     id="path3585"
     d="m 19.25,0.1247501 c -1.535534,0 -3.078427,0.5784272 -4.25,1.75 l 0.71875,0.71875 c 1.952621,-1.9526212 5.109878,-1.9526215 7.062499,-2e-7 L 24.1875,3.99975 24.90625,3.281 23.499999,1.8747499 C 22.328427,0.7031775 20.785534,0.1247502 19.25,0.1247501 z"
     style="fill:#000000;fill-opacity:1;stroke:none" />
  <path
     id="path3587"
     d="m 22.784929,2.5738932 c -1.952621,-1.9526214 -5.118446,-1.9526214 -7.071067,0 L 16.420969,3.281 c 1.562097,-1.5620972 4.094757,-1.5620972 5.656853,0 l 1.414214,1.4142136 0.707107,-0.7071068 -1.414214,-1.4142136 z"
     style="fill:#ffffff;fill-opacity:1;stroke:none" />
</svg>
