<?xml version="1.0" encoding="UTF-8" standalone="no"?>
<svg
   xmlns:dc="http://purl.org/dc/elements/1.1/"
   xmlns:cc="http://creativecommons.org/ns#"
   xmlns:rdf="http://www.w3.org/1999/02/22-rdf-syntax-ns#"
   xmlns:svg="http://www.w3.org/2000/svg"
   xmlns="http://www.w3.org/2000/svg"
   xmlns:sodipodi="http://sodipodi.sourceforge.net/DTD/sodipodi-0.dtd"
   xmlns:inkscape="http://www.inkscape.org/namespaces/inkscape"
   version="1.0"
   width="27"
   height="27"
   id="svg2"
   inkscape:version="0.47 r22583"
   sodipodi:docname="02-01-009-01-01-04.svg">
  <defs
     id="defs14">
    <inkscape:perspective
       sodipodi:type="inkscape:persp3d"
       inkscape:vp_x="0 : 5.5 : 1"
       inkscape:vp_y="0 : 1000 : 0"
       inkscape:vp_z="10 : 5.5 : 1"
       inkscape:persp3d-origin="5 : 3.6666667 : 1"
       id="perspective16" />
  </defs>
  <sodipodi:namedview
     pagecolor="#ffffff"
     bordercolor="#666666"
     borderopacity="1"
     objecttolerance="10"
     gridtolerance="10"
     guidetolerance="10"
     inkscape:pageopacity="0"
     inkscape:pageshadow="2"
     inkscape:window-width="917"
     inkscape:window-height="792"
     id="namedview12"
     showgrid="true"
     inkscape:zoom="11.494966"
     inkscape:cx="12.886874"
     inkscape:cy="11.163866"
     inkscape:window-x="313"
     inkscape:window-y="0"
     inkscape:window-maximized="0"
     inkscape:current-layer="svg2">
    <inkscape:grid
       type="xygrid"
       id="grid2822" />
  </sodipodi:namedview>
  <metadata
     id="metadata4">
Valerie Sutton's pixel definition of the
ISWA 2010 symbol ID 02-01-001-01-01-01
transformed by Stephen E Slevinski Jr
using line and fill polygon tracing
<rdf:RDF>
  <cc:Work
     rdf:about="">
    <dc:format>image/svg+xml</dc:format>
    <dc:type
       rdf:resource="http://purl.org/dc/dcmitype/StillImage" />
    <dc:title />
  </cc:Work>
</rdf:RDF>
</metadata>
  <path
     style="fill:#000000;fill-opacity:1;stroke:none"
     d="m 10,7 0,3 -3,0 0,2 3,0 0,3 -3,0 0,2 3,0 0,3 2,0 0,-3 3,0 0,3 2,0 0,-3 3,0 0,-2 -3,0 0,-3 3,0 0,-2 -3,0 0,-3 -2,0 0,3 -3,0 0,-3 -2,0 z m 2,5 3,0 0,3 -3,0 0,-3 z"
     id="rect2814" />
  <rect
     style="fill:#ffffff;fill-opacity:1;stroke:none"
     id="rect2822"
     width="3"
     height="3"
     x="12"
     y="12" />
  <path
     style="fill:#000000;fill-opacity:1;stroke:none"
     d="M 24.8125 14.21875 L 14.21875 24.8125 L 15.625 26.21875 L 26.21875 15.625 L 24.8125 14.21875 z "
     id="rect3148" />
  <path
     style="fill:#000000;fill-opacity:1;stroke:none"
     d="M 11.375 0.78125 L 0.78125 11.375 L 2.1875 12.78125 L 12.78125 2.1875 L 11.375 0.78125 z "
     id="rect3150" />
</svg>
