<?xml version="1.0" encoding="UTF-8" standalone="no"?>
<svg
   xmlns:dc="http://purl.org/dc/elements/1.1/"
   xmlns:cc="http://creativecommons.org/ns#"
   xmlns:rdf="http://www.w3.org/1999/02/22-rdf-syntax-ns#"
   xmlns:svg="http://www.w3.org/2000/svg"
   xmlns="http://www.w3.org/2000/svg"
   xmlns:sodipodi="http://sodipodi.sourceforge.net/DTD/sodipodi-0.dtd"
   xmlns:inkscape="http://www.inkscape.org/namespaces/inkscape"
   version="1.0"
   width="29"
   height="33"
   id="svg2"
   inkscape:version="0.47 r22583"
   sodipodi:docname="02-10-002-02-03-01.svg">
  <defs
     id="defs16">
    <inkscape:perspective
       sodipodi:type="inkscape:persp3d"
       inkscape:vp_x="0 : 23 : 1"
       inkscape:vp_y="0 : 1000 : 0"
       inkscape:vp_z="36 : 23 : 1"
       inkscape:persp3d-origin="18 : 15.333333 : 1"
       id="perspective18" />
  </defs>
  <sodipodi:namedview
     pagecolor="#ffffff"
     bordercolor="#666666"
     borderopacity="1"
     objecttolerance="10"
     gridtolerance="10"
     guidetolerance="10"
     inkscape:pageopacity="0"
     inkscape:pageshadow="2"
     inkscape:window-width="964"
     inkscape:window-height="721"
     id="namedview14"
     showgrid="true"
     inkscape:zoom="14.333333"
     inkscape:cx="14.5"
     inkscape:cy="16.5"
     inkscape:window-x="365"
     inkscape:window-y="0"
     inkscape:window-maximized="0"
     inkscape:current-layer="svg2"
     showborder="true">
    <inkscape:grid
       type="xygrid"
       id="grid2824"
       empspacing="5"
       visible="true"
       enabled="true"
       snapvisiblegridlinesonly="true" />
  </sodipodi:namedview>
  <metadata
     id="metadata4">
Valerie Sutton's pixel definition of the
ISWA 2010 symbol ID 04-01-003-01-01-01
transformed by Stephen E Slevinski Jr
using line and fill polygon tracing
<rdf:RDF>
  <cc:Work
     rdf:about="">
    <dc:format>image/svg+xml</dc:format>
    <dc:type
       rdf:resource="http://purl.org/dc/dcmitype/StillImage" />
    <dc:title></dc:title>
  </cc:Work>
</rdf:RDF>
</metadata>
  <path
     style="fill:#000000;fill-opacity:1;stroke:none"
     d="M 19 4.71875 L 19 5.8125 C 24.234444 7.6659282 28 12.629571 28 18.5 C 28 25.955844 21.955844 32 14.5 32 C 7.0441559 32 1 25.955844 1 18.5 C 1 14.258656 2.943764 10.475506 6 8 L 5.3125 7.3125 C 2.0864649 9.9744229 0 13.993806 0 18.5 C 0 26.508129 6.4918711 33 14.5 33 C 22.508129 33 29 26.508129 29 18.5 C 29 12.062639 24.807618 6.6066415 19 4.71875 z "
     id="path3083" />
  <path
     style="fill:#ffffff;fill-opacity:1;stroke:none"
     d="M 19 5.8125 L 19 9.0625 C 22.53966 10.746145 25 14.318907 25 18.5 C 25 24.29899 20.29899 29 14.5 29 C 8.7010101 29 4 24.29899 4 18.5 C 4 15.084996 5.6281845 12.067492 8.15625 10.15625 L 6 8 C 2.943764 10.475506 1 14.258656 1 18.5 C 1 25.955844 7.0441559 32 14.5 32 C 21.955844 32 28 25.955844 28 18.5 C 28 12.629571 24.234444 7.6659282 19 5.8125 z "
     id="path3085" />
  <path
     style="fill:#000000;fill-opacity:1;stroke:none"
     d="M 19 9.0625 L 19 10.15625 C 21.975583 11.755827 24 14.883336 24 18.5 C 24 23.746705 19.746705 28 14.5 28 C 9.2532949 28 5 23.746705 5 18.5 C 5 15.364615 6.5326509 12.602706 8.875 10.875 L 8.15625 10.15625 C 5.6281845 12.067492 4 15.084996 4 18.5 C 4 24.29899 8.7010101 29 14.5 29 C 20.29899 29 25 24.29899 25 18.5 C 25 14.318907 22.53966 10.746145 19 9.0625 z "
     id="path3090" />
  <path
     style="fill:#000000;fill-opacity:1;stroke:none"
     d="M 19,0 12.5,6.5 19,13 19,0 z m -1,2.4375 0,8.125 L 13.90625,6.5 18,2.4375 z"
     id="path2829" />
  <path
     style="fill:#ffffff;fill-opacity:1;stroke:none"
     d="M 18,2.4375 13.90625,6.5 18,10.5625 18,2.4375 z"
     id="path3241" />
  <path
     id="path3254"
     d="M 13,0 6.5,6.5 13,13 13,0 z m -1,2.4375 0,8.125 L 7.90625,6.5 12,2.4375 z"
     style="fill:#000000;fill-opacity:1;stroke:none" />
  <path
     id="path3256"
     d="M 12,2.4375 7.90625,6.5 12,10.5625 12,2.4375 z"
     style="fill:#ffffff;fill-opacity:1;stroke:none" />
</svg>
