<?xml version="1.0" encoding="UTF-8" standalone="no"?>
<svg
   xmlns:dc="http://purl.org/dc/elements/1.1/"
   xmlns:cc="http://creativecommons.org/ns#"
   xmlns:rdf="http://www.w3.org/1999/02/22-rdf-syntax-ns#"
   xmlns:svg="http://www.w3.org/2000/svg"
   xmlns="http://www.w3.org/2000/svg"
   xmlns:sodipodi="http://sodipodi.sourceforge.net/DTD/sodipodi-0.dtd"
   xmlns:inkscape="http://www.inkscape.org/namespaces/inkscape"
   version="1.0"
   width="7"
   height="7"
   id="svg2"
   inkscape:version="0.47 r22583"
   sodipodi:docname="04-05-006-01-05-01.svg">
  <defs
     id="defs14">
    <inkscape:perspective
       sodipodi:type="inkscape:persp3d"
       inkscape:vp_x="0 : 17.5 : 1"
       inkscape:vp_y="0 : 1000 : 0"
       inkscape:vp_z="36 : 17.5 : 1"
       inkscape:persp3d-origin="18 : 11.666667 : 1"
       id="perspective16" />
  </defs>
  <sodipodi:namedview
     pagecolor="#ffffff"
     bordercolor="#666666"
     borderopacity="1"
     objecttolerance="10"
     gridtolerance="10"
     guidetolerance="10"
     inkscape:pageopacity="0"
     inkscape:pageshadow="2"
     inkscape:window-width="993"
     inkscape:window-height="789"
     id="namedview12"
     showgrid="true"
     inkscape:zoom="15.487127"
     inkscape:cx="2.5032588"
     inkscape:cy="2.0032587"
     inkscape:window-x="209"
     inkscape:window-y="0"
     inkscape:window-maximized="0"
     inkscape:current-layer="svg2">
    <inkscape:grid
       type="xygrid"
       id="grid2822" />
  </sodipodi:namedview>
  <metadata
     id="metadata4">
Valerie Sutton's pixel definition of the
ISWA 2010 symbol ID 04-03-001-01-01-01
transformed by Stephen E Slevinski Jr
using line and fill polygon tracing
<rdf:RDF>
  <cc:Work
     rdf:about="">
    <dc:format>image/svg+xml</dc:format>
    <dc:type
       rdf:resource="http://purl.org/dc/dcmitype/StillImage" />
    <dc:title></dc:title>
  </cc:Work>
</rdf:RDF>
</metadata>
  <path
     style="fill:#000000;fill-opacity:1;stroke:none"
     d="M 3.5 0 C 1.5670034 0 0 1.5670034 0 3.5 C 0 5.4329966 1.5670034 7 3.5 7 C 4.9222278 7 6.175356 6.3426852 7 5.3125 L 6.28125 4.59375 C 5.6458226 5.4479615 4.6498656 6 3.5 6 C 2.1192881 6 1 4.8807119 1 3.5 C 1 2.1192881 2.1192881 1 3.5 1 C 4.3284271 1 5 1.6715729 5 2.5 C 5 3.3284271 4.3284271 4 3.5 4 C 3.2238576 4 3 3.7761424 3 3.5 C 3 3.2238576 3.2238576 3 3.5 3 L 3.5 2 C 2.6715729 2 2 2.6715729 2 3.5 C 2 4.3284271 2.6715729 5 3.5 5 C 4.8807119 5 6 3.8807119 6 2.5 C 6 1.1192881 4.8807119 -5.9211895e-16 3.5 0 z "
     id="path3737" />
  <path
     style="fill:#ffffff;fill-opacity:1;stroke:none"
     d="M 3.5 1 C 2.1192881 1 1 2.1192881 1 3.5 C 1 4.8807119 2.1192881 6 3.5 6 C 4.6439748 6 5.6425937 5.4424725 6.28125 4.59375 L 5.5625 3.90625 C 5.1132319 4.5712543 4.3629449 5 3.5 5 C 2.6715729 5 2 4.3284271 2 3.5 C 2 2.6715729 2.6715729 2 3.5 2 L 3.5 3 C 3.2238576 3 3 3.2238576 3 3.5 C 3 3.7761424 3.2238576 4 3.5 4 C 4.3284271 4 5 3.3284271 5 2.5 C 5 1.6715729 4.3284271 1 3.5 1 z "
     id="path3797" />
</svg>
