<?xml version="1.0" encoding="UTF-8" standalone="no"?>
<svg
   xmlns:dc="http://purl.org/dc/elements/1.1/"
   xmlns:cc="http://creativecommons.org/ns#"
   xmlns:rdf="http://www.w3.org/1999/02/22-rdf-syntax-ns#"
   xmlns:svg="http://www.w3.org/2000/svg"
   xmlns="http://www.w3.org/2000/svg"
   xmlns:sodipodi="http://sodipodi.sourceforge.net/DTD/sodipodi-0.dtd"
   xmlns:inkscape="http://www.inkscape.org/namespaces/inkscape"
   version="1.0"
   width="24"
   height="24"
   id="svg2"
   inkscape:version="0.47 r22583"
   sodipodi:docname="02-03-016-01-06-01.svg">
  <defs
     id="defs16">
    <inkscape:perspective
       sodipodi:type="inkscape:persp3d"
       inkscape:vp_x="0 : 23 : 1"
       inkscape:vp_y="0 : 1000 : 0"
       inkscape:vp_z="36 : 23 : 1"
       inkscape:persp3d-origin="18 : 15.333333 : 1"
       id="perspective18" />
  </defs>
  <sodipodi:namedview
     pagecolor="#ffffff"
     bordercolor="#666666"
     borderopacity="1"
     objecttolerance="10"
     gridtolerance="10"
     guidetolerance="10"
     inkscape:pageopacity="0"
     inkscape:pageshadow="2"
     inkscape:window-width="964"
     inkscape:window-height="721"
     id="namedview14"
     showgrid="true"
     inkscape:zoom="15.56"
     inkscape:cx="12.905245"
     inkscape:cy="12.083004"
     inkscape:window-x="365"
     inkscape:window-y="0"
     inkscape:window-maximized="0"
     inkscape:current-layer="svg2"
     showborder="true">
    <inkscape:grid
       type="xygrid"
       id="grid2824"
       empspacing="5"
       visible="true"
       enabled="true"
       snapvisiblegridlinesonly="true" />
  </sodipodi:namedview>
  <metadata
     id="metadata4">
Valerie Sutton's pixel definition of the
ISWA 2010 symbol ID 04-01-003-01-01-01
transformed by Stephen E Slevinski Jr
using line and fill polygon tracing
<rdf:RDF>
  <cc:Work
     rdf:about="">
    <dc:format>image/svg+xml</dc:format>
    <dc:type
       rdf:resource="http://purl.org/dc/dcmitype/StillImage" />
    <dc:title></dc:title>
  </cc:Work>
</rdf:RDF>
</metadata>
  <path
     style="fill:#000000;fill-opacity:1;stroke:none"
     d="M 20.464466,6.3639606 4.2010099,22.627417 4.9081167,23.334524 21.171573,7.0710676 20.464466,6.3639606 z"
     id="path2831" />
  <path
     style="fill:#000000;fill-opacity:1;stroke:none"
     d="M 14.100505,0 24,0 l 0,9.8994946 -2.010835,-2.010835 0,-5.8778247 -5.877825,0 L 14.100505,0 z"
     id="path2966" />
  <path
     style="fill:#000000;fill-opacity:1;stroke:none"
     d="M 16.928932,2.8284271 0.665476,19.091883 1.3725828,19.79899 17.636039,3.5355339 16.928932,2.8284271 z"
     id="path2833" />
  <path
     style="fill:#000000;fill-opacity:1;stroke:none"
     d="m 0.9908746,6.9900186 5.5021747,-5.5021743 5.5021747,5.5021743 -1.414214,0 -4.0879607,-4.0879607 -4.0879611,4.0879607 -1.4142136,0 z"
     id="path3018" />
  <path
     style="fill:#ffffff;fill-opacity:1;stroke:none"
     d="M 17.636039,3.5355339 1.3725828,19.79899 4.2010099,22.627417 20.464466,6.3639606 17.636039,3.5355339 z"
     id="rect2821" />
  <path
     style="fill:#000000;fill-opacity:1;stroke:none"
     d="M 19,17 16.989166,16.9779 C 14.721188,16.7402 12.443704,15.17248 10.625204,13.35398 8.806705,11.535481 7.2389843,9.2579956 7.0012823,6.9900186 l -1.016466,0 c -4e-7,2.8151464 1.0782911,5.6302914 3.2261747,7.7781754 2.147883,2.147883 4.963028,3.226175 7.778175,3.226175 l 1.988737,0 L 19.000003,17 z"
     id="path3020" />
</svg>
