<?xml version="1.0" encoding="UTF-8" standalone="no"?>
<svg
   xmlns:dc="http://purl.org/dc/elements/1.1/"
   xmlns:cc="http://creativecommons.org/ns#"
   xmlns:rdf="http://www.w3.org/1999/02/22-rdf-syntax-ns#"
   xmlns:svg="http://www.w3.org/2000/svg"
   xmlns="http://www.w3.org/2000/svg"
   xmlns:sodipodi="http://sodipodi.sourceforge.net/DTD/sodipodi-0.dtd"
   xmlns:inkscape="http://www.inkscape.org/namespaces/inkscape"
   version="1.0"
   width="24"
   height="24"
   id="svg2"
   inkscape:version="0.47 r22583"
   sodipodi:docname="02-03-016-01-02-06.svg">
  <defs
     id="defs16">
    <inkscape:perspective
       sodipodi:type="inkscape:persp3d"
       inkscape:vp_x="0 : 23 : 1"
       inkscape:vp_y="0 : 1000 : 0"
       inkscape:vp_z="36 : 23 : 1"
       inkscape:persp3d-origin="18 : 15.333333 : 1"
       id="perspective18" />
  </defs>
  <sodipodi:namedview
     pagecolor="#ffffff"
     bordercolor="#666666"
     borderopacity="1"
     objecttolerance="10"
     gridtolerance="10"
     guidetolerance="10"
     inkscape:pageopacity="0"
     inkscape:pageshadow="2"
     inkscape:window-width="964"
     inkscape:window-height="721"
     id="namedview14"
     showgrid="true"
     inkscape:zoom="15.56"
     inkscape:cx="13.510775"
     inkscape:cy="12.071337"
     inkscape:window-x="365"
     inkscape:window-y="0"
     inkscape:window-maximized="0"
     inkscape:current-layer="svg2"
     showborder="true">
    <inkscape:grid
       type="xygrid"
       id="grid2824"
       empspacing="5"
       visible="true"
       enabled="true"
       snapvisiblegridlinesonly="true" />
  </sodipodi:namedview>
  <metadata
     id="metadata4">
Valerie Sutton's pixel definition of the
ISWA 2010 symbol ID 04-01-003-01-01-01
transformed by Stephen E Slevinski Jr
using line and fill polygon tracing
<rdf:RDF>
  <cc:Work
     rdf:about="">
    <dc:format>image/svg+xml</dc:format>
    <dc:type
       rdf:resource="http://purl.org/dc/dcmitype/StillImage" />
    <dc:title></dc:title>
  </cc:Work>
</rdf:RDF>
</metadata>
  <path
     style="fill:#000000;fill-opacity:1;stroke:none"
     d="M 6.3639609,20.464466 22.627417,4.2010094 23.334524,4.9081161 7.071068,21.171573 6.3639609,20.464466 z"
     id="path2831" />
  <path
     style="fill:#000000;fill-opacity:1;stroke:none"
     d="M 2.8284271,16.928932 19.091883,0.66547555 19.79899,1.3725822 3.5355339,17.636039 2.8284271,16.928932 z"
     id="path2833" />
  <path
     style="fill:#ffffff;fill-opacity:1;stroke:none"
     d="M 3.5355339,17.636039 19.79899,1.3725822 22.627417,4.2010094 6.3639609,20.464466 3.5355339,17.636039 z"
     id="rect2821" />
  <path
     style="fill:#000000;fill-opacity:1;stroke:none"
     d="m 7.994366,3.9779027 0.0221,2.0108349 c 0.237702,2.2679771 1.8054224,4.5454614 3.623922,6.3639614 1.8185,1.8185 4.095984,3.386221 6.363961,3.623922 l 0,1.016466 c -2.815145,1e-6 -5.630291,-1.078291 -7.778174,-3.226174 C 8.0782911,11.619029 7,8.8038838 7,5.9887376 L 7,3.9999997 7.9943689,3.9779027 z"
     id="path2910" />
  <path
     style="fill:#000000;fill-opacity:1;stroke:none"
     d="m 18.004346,10.98268 0,11.004349 5.502174,-5.502175 -5.502174,-5.502174 z m 0.994369,2.408582 3.093592,3.093592 -3.071495,3.071495 -0.0221,-6.165087 z"
     id="path2964" />
  <path
     style="fill:#000000;fill-opacity:1;stroke:none"
     d="M 0,14.100505 0,24 9.8994955,24 0,14.100505 z m 1.016466,2.430679 6.4523501,6.45235 -6.45235,0 0,-6.45235 z"
     id="path2997" />
  <path
     style="fill:#ffffff;fill-opacity:1;stroke:none"
     d="m 1.016466,16.531184 0,6.45235 6.4523501,0 -6.45235,-6.45235 z"
     id="path2966" />
  <path
     style="fill:#ffffff;fill-opacity:1;stroke:none"
     d="m 18.998715,13.391262 0.0221,6.165087 3.071495,-3.071495 -3.093592,-3.093592 z"
     id="path2863" />
</svg>
