<?xml version="1.0" encoding="UTF-8" standalone="no"?>
<svg
   xmlns:dc="http://purl.org/dc/elements/1.1/"
   xmlns:cc="http://creativecommons.org/ns#"
   xmlns:rdf="http://www.w3.org/1999/02/22-rdf-syntax-ns#"
   xmlns:svg="http://www.w3.org/2000/svg"
   xmlns="http://www.w3.org/2000/svg"
   xmlns:sodipodi="http://sodipodi.sourceforge.net/DTD/sodipodi-0.dtd"
   xmlns:inkscape="http://www.inkscape.org/namespaces/inkscape"
   version="1.0"
   width="24"
   height="24"
   id="svg2"
   inkscape:version="0.47 r22583"
   sodipodi:docname="02-03-016-01-05-05.svg">
  <defs
     id="defs16">
    <inkscape:perspective
       sodipodi:type="inkscape:persp3d"
       inkscape:vp_x="0 : 23 : 1"
       inkscape:vp_y="0 : 1000 : 0"
       inkscape:vp_z="36 : 23 : 1"
       inkscape:persp3d-origin="18 : 15.333333 : 1"
       id="perspective18" />
  </defs>
  <sodipodi:namedview
     pagecolor="#ffffff"
     bordercolor="#666666"
     borderopacity="1"
     objecttolerance="10"
     gridtolerance="10"
     guidetolerance="10"
     inkscape:pageopacity="0"
     inkscape:pageshadow="2"
     inkscape:window-width="964"
     inkscape:window-height="721"
     id="namedview14"
     showgrid="true"
     inkscape:zoom="15.56"
     inkscape:cx="10.940081"
     inkscape:cy="12.071337"
     inkscape:window-x="365"
     inkscape:window-y="0"
     inkscape:window-maximized="0"
     inkscape:current-layer="svg2"
     showborder="true">
    <inkscape:grid
       type="xygrid"
       id="grid2824"
       empspacing="5"
       visible="true"
       enabled="true"
       snapvisiblegridlinesonly="true" />
  </sodipodi:namedview>
  <metadata
     id="metadata4">
Valerie Sutton's pixel definition of the
ISWA 2010 symbol ID 04-01-003-01-01-01
transformed by Stephen E Slevinski Jr
using line and fill polygon tracing
<rdf:RDF>
  <cc:Work
     rdf:about="">
    <dc:format>image/svg+xml</dc:format>
    <dc:type
       rdf:resource="http://purl.org/dc/dcmitype/StillImage" />
    <dc:title></dc:title>
  </cc:Work>
</rdf:RDF>
</metadata>
  <path
     style="fill:#000000;fill-opacity:1;stroke:none"
     d="M 6.363961,20.464466 22.627417,4.2010104 23.334524,4.9081172 7.0710678,21.171573 6.363961,20.464466 z"
     id="path2831" />
  <path
     style="fill:#000000;fill-opacity:1;stroke:none"
     d="M 2.8284271,16.928932 19.091883,0.6654765 19.79899,1.3725832 3.5355339,17.636039 2.8284271,16.928932 z"
     id="path2833" />
  <path
     style="fill:#000000;fill-opacity:1;stroke:none"
     d="M 6,7.0000004 C 12.075133,6.9999997 17,11.924867 17,18 l -1,-1e-6 C 15.999999,12.477152 11.522847,8 6,7.9999993 L 4,8 4,6.9999997 l 2,7e-7 z"
     id="path2910" />
  <path
     style="fill:#ffffff;fill-opacity:1;stroke:none"
     d="M 3.5355339,17.636039 19.79899,1.3725832 22.627417,4.2010104 6.363961,20.464466 3.5355339,17.636039 z"
     id="rect2821" />
  <path
     style="fill:#000000;fill-opacity:1;stroke:none"
     d="m 10.997826,17.997825 11.004349,0 L 16.5,23.499999 10.997826,17.997825 z m 2.408582,0.994369 3.093592,3.093592 3.071495,-3.071495 -6.165087,-0.0221 z"
     id="path2964" />
  <path
     style="fill:#000000;fill-opacity:1;stroke:none"
     d="M 0,14.100505 0,24 9.8994949,24 0,14.100505 z m 1.016466,2.43068 6.4523494,6.452349 -6.4523494,0 0,-6.452349 z"
     id="path2997" />
  <path
     style="fill:#ffffff;fill-opacity:1;stroke:none"
     d="m 1.016466,16.531185 0,6.452349 6.4523494,0 -6.4523494,-6.452349 z"
     id="path2966" />
  <path
     style="fill:#ffffff;fill-opacity:1;stroke:none"
     d="m 13.406408,18.992194 6.165087,0.0221 L 16.5,22.085789 13.406408,18.992197 z"
     id="path2863" />
</svg>
