<?xml version="1.0" encoding="UTF-8" standalone="no"?>
<svg
   xmlns:dc="http://purl.org/dc/elements/1.1/"
   xmlns:cc="http://creativecommons.org/ns#"
   xmlns:rdf="http://www.w3.org/1999/02/22-rdf-syntax-ns#"
   xmlns:svg="http://www.w3.org/2000/svg"
   xmlns="http://www.w3.org/2000/svg"
   xmlns:sodipodi="http://sodipodi.sourceforge.net/DTD/sodipodi-0.dtd"
   xmlns:inkscape="http://www.inkscape.org/namespaces/inkscape"
   version="1.0"
   width="20"
   height="8"
   id="svg2"
   inkscape:version="0.47 r22583"
   sodipodi:docname="04-01-006-01-02-01.svg">
  <defs
     id="defs20">
    <inkscape:perspective
       sodipodi:type="inkscape:persp3d"
       inkscape:vp_x="0 : 4 : 1"
       inkscape:vp_y="0 : 1000 : 0"
       inkscape:vp_z="20 : 4 : 1"
       inkscape:persp3d-origin="10 : 2.6666667 : 1"
       id="perspective22" />
  </defs>
  <sodipodi:namedview
     pagecolor="#ffffff"
     bordercolor="#666666"
     borderopacity="1"
     objecttolerance="10"
     gridtolerance="10"
     guidetolerance="10"
     inkscape:pageopacity="0"
     inkscape:pageshadow="2"
     inkscape:window-width="998"
     inkscape:window-height="791"
     id="namedview18"
     showgrid="true"
     inkscape:zoom="17.76"
     inkscape:cx="10.223825"
     inkscape:cy="3.0004798"
     inkscape:window-x="238"
     inkscape:window-y="0"
     inkscape:window-maximized="0"
     inkscape:current-layer="svg2"
     inkscape:snap-grids="true">
    <inkscape:grid
       type="xygrid"
       id="grid2828" />
  </sodipodi:namedview>
  <metadata
     id="metadata4">
Valerie Sutton's pixel definition of the
ISWA 2010 symbol ID 04-01-006-01-02-01
transformed by Stephen E Slevinski Jr
using line and fill polygon tracing
<rdf:RDF>
  <cc:Work
     rdf:about="">
    <dc:format>image/svg+xml</dc:format>
    <dc:type
       rdf:resource="http://purl.org/dc/dcmitype/StillImage" />
    <dc:title />
  </cc:Work>
</rdf:RDF>
</metadata>
  <path
     style="fill:#000000"
     d="M 0 2 L 0 8 L 6 8 L 6 7 L 1 7 L 1 2 L 0 2 z "
     id="path12" />
  <path
     style="fill:#000000;fill-opacity:1;stroke:none"
     d="M 10 0 C 6.9624339 0 4.2093585 1.2281415 2.21875 3.21875 L 2.9375 3.9375 C 4.7471441 2.1278559 7.2385762 1 10 1 C 12.761424 1 15.252856 2.1278559 17.0625 3.9375 L 19 5.875 L 19.71875 5.1875 L 17.78125 3.21875 C 15.790641 1.2281415 13.037566 5.9211895e-16 10 0 z "
     id="path3021" />
  <path
     style="fill:#ffffff;fill-opacity:1;stroke:none"
     d="M 10 1 C 7.2385762 1 4.7471441 2.1278559 2.9375 3.9375 L 4.34375 5.34375 C 5.7914652 3.8960348 7.790861 3 10 3 C 12.209139 3 14.208535 3.8960348 15.65625 5.34375 L 17.625 7.3125 L 19 5.875 L 17.0625 3.9375 C 15.252856 2.1278559 12.761424 1 10 1 z "
     id="path3026" />
  <path
     style="fill:#000000;fill-opacity:1;stroke:none"
     d="M 10 3 C 7.790861 3 5.7914652 3.8960348 4.34375 5.34375 L 5.0625 6.0625 C 6.3292508 4.7957492 8.0670034 4 10 4 C 11.932996 4 13.670749 4.7957492 14.9375 6.0625 L 16.90625 8 L 17.625 7.3125 L 15.65625 5.34375 C 14.208535 3.8960348 12.209139 3 10 3 z "
     id="path3031" />
</svg>
