<?xml version="1.0" encoding="UTF-8" standalone="no"?>
<svg
   xmlns:dc="http://purl.org/dc/elements/1.1/"
   xmlns:cc="http://creativecommons.org/ns#"
   xmlns:rdf="http://www.w3.org/1999/02/22-rdf-syntax-ns#"
   xmlns:svg="http://www.w3.org/2000/svg"
   xmlns="http://www.w3.org/2000/svg"
   xmlns:sodipodi="http://sodipodi.sourceforge.net/DTD/sodipodi-0.dtd"
   xmlns:inkscape="http://www.inkscape.org/namespaces/inkscape"
   version="1.0"
   width="20"
   height="8"
   id="svg2"
   inkscape:version="0.47 r22583"
   sodipodi:docname="04-01-006-01-02-02.svg">
  <defs
     id="defs20">
    <inkscape:perspective
       sodipodi:type="inkscape:persp3d"
       inkscape:vp_x="0 : 4 : 1"
       inkscape:vp_y="0 : 1000 : 0"
       inkscape:vp_z="20 : 4 : 1"
       inkscape:persp3d-origin="10 : 2.6666667 : 1"
       id="perspective22" />
  </defs>
  <sodipodi:namedview
     pagecolor="#ffffff"
     bordercolor="#666666"
     borderopacity="1"
     objecttolerance="10"
     gridtolerance="10"
     guidetolerance="10"
     inkscape:pageopacity="0"
     inkscape:pageshadow="2"
     inkscape:window-width="998"
     inkscape:window-height="791"
     id="namedview18"
     showgrid="true"
     inkscape:zoom="17.76"
     inkscape:cx="10.223825"
     inkscape:cy="3.0004798"
     inkscape:window-x="238"
     inkscape:window-y="0"
     inkscape:window-maximized="0"
     inkscape:current-layer="svg2"
     inkscape:snap-grids="true">
    <inkscape:grid
       type="xygrid"
       id="grid2828" />
  </sodipodi:namedview>
  <metadata
     id="metadata4">
Valerie Sutton's pixel definition of the
ISWA 2010 symbol ID 04-01-006-01-02-01
transformed by Stephen E Slevinski Jr
using line and fill polygon tracing
<rdf:RDF>
  <cc:Work
     rdf:about="">
    <dc:format>image/svg+xml</dc:format>
    <dc:type
       rdf:resource="http://purl.org/dc/dcmitype/StillImage" />
    <dc:title></dc:title>
  </cc:Work>
</rdf:RDF>
</metadata>
  <path
     style="fill:#000000"
     d="M 0,6 0,0 6,0 6,1 1,1 1,6 0,6 z"
     id="path12" />
  <path
     style="fill:#000000;fill-opacity:1;stroke:none"
     d="M 10,8 C 6.962434,8 4.209358,6.7718585 2.21875,4.78125 L 2.9375,4.0625 C 4.747144,5.8721441 7.238576,7 10,7 12.761424,7 15.252856,5.8721441 17.0625,4.0625 L 19,2.125 19.71875,2.8125 17.78125,4.78125 C 15.790641,6.7718585 13.037566,8 10,8 z"
     id="path3021" />
  <path
     style="fill:#ffffff;fill-opacity:1;stroke:none"
     d="M 10,7 C 7.238576,7 4.747144,5.8721441 2.9375,4.0625 L 4.34375,2.65625 C 5.791465,4.1039652 7.790861,5 10,5 12.209139,5 14.208535,4.1039652 15.65625,2.65625 L 17.625,0.6875 19,2.125 17.0625,4.0625 C 15.252856,5.8721441 12.761424,7 10,7 z"
     id="path3026" />
  <path
     style="fill:#000000;fill-opacity:1;stroke:none"
     d="M 10,5 C 7.790861,5 5.791465,4.1039652 4.34375,2.65625 L 5.0625,1.9375 C 6.329251,3.2042508 8.067003,4 10,4 11.932996,4 13.670749,3.2042508 14.9375,1.9375 L 16.90625,0 17.625,0.6875 15.65625,2.65625 C 14.208535,4.1039652 12.209139,5 10,5 z"
     id="path3031" />
</svg>
