<?xml version="1.0" encoding="UTF-8" standalone="no"?>
<svg
   xmlns:dc="http://purl.org/dc/elements/1.1/"
   xmlns:cc="http://creativecommons.org/ns#"
   xmlns:rdf="http://www.w3.org/1999/02/22-rdf-syntax-ns#"
   xmlns:svg="http://www.w3.org/2000/svg"
   xmlns="http://www.w3.org/2000/svg"
   xmlns:sodipodi="http://sodipodi.sourceforge.net/DTD/sodipodi-0.dtd"
   xmlns:inkscape="http://www.inkscape.org/namespaces/inkscape"
   version="1.0"
   width="41"
   height="25"
   id="svg2"
   inkscape:version="0.47 r22583"
   sodipodi:docname="02-08-011-02-02-07.svg">
  <defs
     id="defs16">
    <inkscape:perspective
       sodipodi:type="inkscape:persp3d"
       inkscape:vp_x="0 : 23 : 1"
       inkscape:vp_y="0 : 1000 : 0"
       inkscape:vp_z="36 : 23 : 1"
       inkscape:persp3d-origin="18 : 15.333333 : 1"
       id="perspective18" />
  </defs>
  <sodipodi:namedview
     pagecolor="#ffffff"
     bordercolor="#666666"
     borderopacity="1"
     objecttolerance="10"
     gridtolerance="10"
     guidetolerance="10"
     inkscape:pageopacity="0"
     inkscape:pageshadow="2"
     inkscape:window-width="964"
     inkscape:window-height="721"
     id="namedview14"
     showgrid="true"
     inkscape:zoom="16.47"
     inkscape:cx="20.5"
     inkscape:cy="12.5"
     inkscape:window-x="365"
     inkscape:window-y="0"
     inkscape:window-maximized="0"
     inkscape:current-layer="svg2"
     showborder="true">
    <inkscape:grid
       type="xygrid"
       id="grid2824"
       empspacing="5"
       visible="true"
       enabled="true"
       snapvisiblegridlinesonly="true" />
  </sodipodi:namedview>
  <metadata
     id="metadata4">
Valerie Sutton's pixel definition of the
ISWA 2010 symbol ID 04-01-003-01-01-01
transformed by Stephen E Slevinski Jr
using line and fill polygon tracing
<rdf:RDF>
  <cc:Work
     rdf:about="">
    <dc:format>image/svg+xml</dc:format>
    <dc:type
       rdf:resource="http://purl.org/dc/dcmitype/StillImage" />
    <dc:title></dc:title>
  </cc:Work>
</rdf:RDF>
</metadata>
  <path
     style="fill:#000000;fill-opacity:1;stroke:none"
     d="m 38.455844,1.757359 c -2.343145,-2.343145 -6.142135,-2.3431453 -8.485282,0 L 10.878679,20.849242 c -0.781048,0.781049 -2.3639606,0.464466 -3.5355326,-0.707106 -0.781049,-0.781049 -0.464466,-2.363961 0.707106,-3.535534 L 10.171573,14.485281 4.5147184,8.828427 1.6862914,11.656854 C -0.65685364,14 -0.02368964,18.432155 3.1005054,21.556349 l 1.414213,1.414214 c 1.952622,1.952621 5.1184466,1.952621 7.0710676,0 l 19.79899,-19.79899 c 1.562098,-1.562097 4.094757,-1.562097 5.656855,0 1.562097,1.562097 1.562097,4.094757 0,5.656854 l -7.071069,7.071068 1.414214,1.414214 7.071068,-7.071068 c 2.343146,-2.343146 2.343146,-6.142136 0,-8.485282 z"
     id="path2826" />
  <path
     style="fill:#000000;fill-opacity:1;stroke:none"
     d="M 13,6 1.6862914,6 13,17.313709 13,6 z m -1.016466,1.016466 0,7.866563 -7.8665626,-7.866563 7.8665626,0 z"
     id="path3265" />
  <path
     style="fill:#ffffff;fill-opacity:1;stroke:none"
     d="m 11.983534,7.016466 -7.8665626,0 7.8665626,7.866563 0,-7.866563 z"
     id="path3526" />
</svg>
