<?xml version="1.0" encoding="UTF-8" standalone="no"?>
<svg
   xmlns:dc="http://purl.org/dc/elements/1.1/"
   xmlns:cc="http://creativecommons.org/ns#"
   xmlns:rdf="http://www.w3.org/1999/02/22-rdf-syntax-ns#"
   xmlns:svg="http://www.w3.org/2000/svg"
   xmlns="http://www.w3.org/2000/svg"
   xmlns:sodipodi="http://sodipodi.sourceforge.net/DTD/sodipodi-0.dtd"
   xmlns:inkscape="http://www.inkscape.org/namespaces/inkscape"
   version="1.0"
   width="41"
   height="25"
   id="svg2"
   inkscape:version="0.47 r22583"
   sodipodi:docname="02-08-011-02-02-06.svg">
  <defs
     id="defs16">
    <inkscape:perspective
       sodipodi:type="inkscape:persp3d"
       inkscape:vp_x="0 : 23 : 1"
       inkscape:vp_y="0 : 1000 : 0"
       inkscape:vp_z="36 : 23 : 1"
       inkscape:persp3d-origin="18 : 15.333333 : 1"
       id="perspective18" />
  </defs>
  <sodipodi:namedview
     pagecolor="#ffffff"
     bordercolor="#666666"
     borderopacity="1"
     objecttolerance="10"
     gridtolerance="10"
     guidetolerance="10"
     inkscape:pageopacity="0"
     inkscape:pageshadow="2"
     inkscape:window-width="964"
     inkscape:window-height="721"
     id="namedview14"
     showgrid="true"
     inkscape:zoom="16.47"
     inkscape:cx="20.5"
     inkscape:cy="12.5"
     inkscape:window-x="365"
     inkscape:window-y="0"
     inkscape:window-maximized="0"
     inkscape:current-layer="svg2"
     showborder="true">
    <inkscape:grid
       type="xygrid"
       id="grid2824"
       empspacing="5"
       visible="true"
       enabled="true"
       snapvisiblegridlinesonly="true" />
  </sodipodi:namedview>
  <metadata
     id="metadata4">
Valerie Sutton's pixel definition of the
ISWA 2010 symbol ID 04-01-003-01-01-01
transformed by Stephen E Slevinski Jr
using line and fill polygon tracing
<rdf:RDF>
  <cc:Work
     rdf:about="">
    <dc:format>image/svg+xml</dc:format>
    <dc:type
       rdf:resource="http://purl.org/dc/dcmitype/StillImage" />
    <dc:title></dc:title>
  </cc:Work>
</rdf:RDF>
</metadata>
  <path
     style="fill:#000000;fill-opacity:1;stroke:none"
     d="m 2.5441561,1.757359 c 2.3431454,-2.343145 6.1421357,-2.3431453 8.4852819,0 l 19.091883,19.091883 c 0.781048,0.781049 2.363961,0.464466 3.535533,-0.707106 0.781049,-0.781049 0.464466,-2.363961 -0.707106,-3.535534 l -2.121321,-2.121321 5.656855,-5.656854 2.828427,2.828427 C 41.656854,14 41.02369,18.432155 37.899495,21.556349 l -1.414213,1.414214 c -1.952622,1.952621 -5.118447,1.952621 -7.071068,0 L 9.6152239,3.171573 c -1.5620971,-1.562097 -4.094757,-1.562097 -5.6568542,0 -1.5620972,1.562097 -1.5620972,4.094757 0,5.656854 l 7.0710683,7.071068 -1.4142141,1.414214 -7.0710678,-7.071068 c -2.3431457,-2.343146 -2.3431454,-6.142136 0,-8.485282 z"
     id="path2826" />
  <path
     style="fill:#000000;fill-opacity:1;stroke:none"
     d="M 28,6 39.313709,6 28,17.313709 28,6 z m 1.016466,1.016466 0,7.866563 7.866563,-7.866563 -7.866563,0 z"
     id="path3265" />
  <path
     style="fill:#ffffff;fill-opacity:1;stroke:none"
     d="m 29.016466,7.016466 7.866563,0 -7.866563,7.866563 0,-7.866563 z"
     id="path3526" />
</svg>
