<?xml version="1.0" encoding="UTF-8" standalone="no"?>
<svg
   xmlns:dc="http://purl.org/dc/elements/1.1/"
   xmlns:cc="http://creativecommons.org/ns#"
   xmlns:rdf="http://www.w3.org/1999/02/22-rdf-syntax-ns#"
   xmlns:svg="http://www.w3.org/2000/svg"
   xmlns="http://www.w3.org/2000/svg"
   xmlns:sodipodi="http://sodipodi.sourceforge.net/DTD/sodipodi-0.dtd"
   xmlns:inkscape="http://www.inkscape.org/namespaces/inkscape"
   version="1.0"
   width="14"
   height="41"
   id="svg2"
   inkscape:version="0.47 r22583"
   sodipodi:docname="02-06-004-02-02-01.svg">
  <defs
     id="defs16">
    <inkscape:perspective
       sodipodi:type="inkscape:persp3d"
       inkscape:vp_x="0 : 23 : 1"
       inkscape:vp_y="0 : 1000 : 0"
       inkscape:vp_z="36 : 23 : 1"
       inkscape:persp3d-origin="18 : 15.333333 : 1"
       id="perspective18" />
  </defs>
  <sodipodi:namedview
     pagecolor="#ffffff"
     bordercolor="#666666"
     borderopacity="1"
     objecttolerance="10"
     gridtolerance="10"
     guidetolerance="10"
     inkscape:pageopacity="0"
     inkscape:pageshadow="2"
     inkscape:window-width="964"
     inkscape:window-height="721"
     id="namedview14"
     showgrid="true"
     inkscape:zoom="11.536585"
     inkscape:cx="7"
     inkscape:cy="20.5"
     inkscape:window-x="365"
     inkscape:window-y="0"
     inkscape:window-maximized="0"
     inkscape:current-layer="svg2"
     showborder="true">
    <inkscape:grid
       type="xygrid"
       id="grid2824"
       empspacing="5"
       visible="true"
       enabled="true"
       snapvisiblegridlinesonly="true" />
  </sodipodi:namedview>
  <metadata
     id="metadata4">
Valerie Sutton's pixel definition of the
ISWA 2010 symbol ID 04-01-003-01-01-01
transformed by Stephen E Slevinski Jr
using line and fill polygon tracing
<rdf:RDF>
  <cc:Work
     rdf:about="">
    <dc:format>image/svg+xml</dc:format>
    <dc:type
       rdf:resource="http://purl.org/dc/dcmitype/StillImage" />
    <dc:title></dc:title>
  </cc:Work>
</rdf:RDF>
</metadata>
  <path
     style="fill:#000000;fill-opacity:1;stroke:none"
     d="M 8.47775,0.53125 7.41525,1.59375 10.009,4.1875 c 3.319457,3.319456 3.319457,8.711794 0,12.03125 l -2.21875,2.21875 2.21875,2.25 c 3.319457,3.319456 3.319457,8.680544 0,12 l -4.25,4.25 1.0625,1.0625 4.25,-4.25 c 3.905242,-3.905243 3.905242,-10.219757 0,-14.125 L 9.91525,18.4375 11.0715,17.28125 c 3.905242,-3.905243 3.905242,-10.251007 0,-14.15625 L 8.47775,0.53125 z"
     id="rect3136" />
  <path
     style="fill:#000000;fill-opacity:1;stroke:none"
     d="M 4.5715,4.4375 3.54025,5.46875 6.134,8.0625 c 1.1715727,1.171572 1.1715727,3.078428 0,4.25 l -6.125,6.125 6.125,6.125 c 1.1715727,1.171573 1.1715727,3.078427 0,4.25 l -4.25,4.25 1.0625,1.0625 4.25,-4.25 c 1.7573591,-1.757359 1.7573591,-4.617641 0,-6.375 L 2.134,18.4375 7.1965,13.375 c 1.7573591,-1.757359 1.7573591,-4.586391 0,-6.34375 L 4.5715,4.4375 z"
     id="rect3150" />
  <path
     style="fill:#ffffff;fill-opacity:1;stroke:none"
     d="M 7.41525,1.59375 4.5715,4.4375 7.1965,7.03125 c 1.7573591,1.757359 1.7573591,4.586391 0,6.34375 L 2.134,18.4375 7.1965,23.5 c 1.7573591,1.757359 1.7573591,4.617641 0,6.375 l -4.25,4.25 2.8125,2.8125 4.25,-4.25 c 3.319457,-3.319456 3.319457,-8.680544 0,-12 l -2.21875,-2.25 2.21875,-2.21875 c 3.319457,-3.319456 3.319457,-8.711794 0,-12.03125 L 7.41525,1.59375 z"
     id="rect3232" />
</svg>
