<?xml version="1.0" encoding="UTF-8" standalone="no"?>
<svg
   xmlns:dc="http://purl.org/dc/elements/1.1/"
   xmlns:cc="http://creativecommons.org/ns#"
   xmlns:rdf="http://www.w3.org/1999/02/22-rdf-syntax-ns#"
   xmlns:svg="http://www.w3.org/2000/svg"
   xmlns="http://www.w3.org/2000/svg"
   xmlns:sodipodi="http://sodipodi.sourceforge.net/DTD/sodipodi-0.dtd"
   xmlns:inkscape="http://www.inkscape.org/namespaces/inkscape"
   version="1.0"
   width="41"
   height="38"
   id="svg2"
   inkscape:version="0.47 r22583"
   sodipodi:docname="04-05-009-01-01-02.svg">
  <defs
     id="defs14">
    <inkscape:perspective
       sodipodi:type="inkscape:persp3d"
       inkscape:vp_x="0 : 17.5 : 1"
       inkscape:vp_y="0 : 1000 : 0"
       inkscape:vp_z="36 : 17.5 : 1"
       inkscape:persp3d-origin="18 : 11.666667 : 1"
       id="perspective16" />
  </defs>
  <sodipodi:namedview
     pagecolor="#ffffff"
     bordercolor="#666666"
     borderopacity="1"
     objecttolerance="10"
     gridtolerance="10"
     guidetolerance="10"
     inkscape:pageopacity="0"
     inkscape:pageshadow="2"
     inkscape:window-width="993"
     inkscape:window-height="789"
     id="namedview12"
     showgrid="true"
     inkscape:zoom="14.452681"
     inkscape:cx="18"
     inkscape:cy="18.765251"
     inkscape:window-x="209"
     inkscape:window-y="0"
     inkscape:window-maximized="0"
     inkscape:current-layer="svg2">
    <inkscape:grid
       type="xygrid"
       id="grid2822" />
  </sodipodi:namedview>
  <metadata
     id="metadata4">
Valerie Sutton's pixel definition of the
ISWA 2010 symbol ID 04-03-001-01-01-01
transformed by Stephen E Slevinski Jr
using line and fill polygon tracing
<rdf:RDF>
  <cc:Work
     rdf:about="">
    <dc:format>image/svg+xml</dc:format>
    <dc:type
       rdf:resource="http://purl.org/dc/dcmitype/StillImage" />
    <dc:title />
  </cc:Work>
</rdf:RDF>
</metadata>
  <path
     style="fill:#000000;fill-opacity:1;stroke:none"
     d="M 19.5,0 C 9.835017,0 2,7.8350169 2,17.5 2,27.164983 9.835017,35 19.5,35 29.164983,35 37,27.164983 37,17.5 37,7.8350169 29.164983,0 19.5,0 z m 0,1.5 c 8.836556,0 16,7.163444 16,16 0,8.836556 -7.163444,16 -16,16 -8.836556,0 -16,-7.163444 -16,-16 0,-8.836556 7.163444,-16 16,-16 z"
     id="path2824" />
  <path
     style="fill:#000000;fill-opacity:1;stroke:none"
     d="m 12.406,33.46875 c 0.09857,0.04387 0.181734,0.114158 0.28125,0.15625 0.358019,0.151429 0.755274,0.215941 1.125,0.34375 0.688637,-2.554436 2.915456,-4.46875 5.6875,-4.46875 2.772044,0 4.998863,1.914314 5.6875,4.46875 0.369726,-0.127809 0.766981,-0.192321 1.125,-0.34375 0.09952,-0.04209 0.182685,-0.11238 0.28125,-0.15625 C 25.690482,30.340545 22.918736,28 19.49975,28 16.080764,28 13.309018,30.340545 12.406,33.46875 z"
     id="path2823" />
  <path
     style="fill:#000000;fill-opacity:1;stroke:none"
     d="M 3.5355338,32.121318 7.0710677,35.656852 7.7781745,34.949745 4.2426406,31.414211 3.5355338,32.121318 z"
     id="path2922" />
  <path
     style="fill:#000000;fill-opacity:1;stroke:none"
     d="m -1e-7,29.999997 0,5.656855 1.016466,0 -0.022097,-4.662486 4.6624853,0.0221 0,-1.016466 L 0,30 z"
     id="path2914" />
  <path
     style="fill:#000000;fill-opacity:1;stroke:none"
     d="m 1.4142134,34.242638 3.535534,3.535534 0.7071067,-0.707107 -3.5355339,-3.535534 -0.7071068,0.707107 z"
     id="rect2924" />
  <path
     id="path2934"
     d="m 36.541168,32.126949 3.535534,3.535534 0.707107,-0.707107 -3.535534,-3.535534 -0.707107,0.707107 z"
     style="fill:#000000;fill-opacity:1;stroke:none" />
  <path
     id="path2936"
     d="m 33.005634,30.005628 0,5.656855 1.016466,0 L 34,30.999997 l 4.662486,0.0221 0,-1.016466 -5.656855,0 z"
     style="fill:#000000;fill-opacity:1;stroke:none" />
  <path
     id="path2938"
     d="m 34.419848,34.248269 3.535534,3.535534 0.707107,-0.707107 -3.535534,-3.535534 -0.707107,0.707107 z"
     style="fill:#000000;fill-opacity:1;stroke:none" />
</svg>
