<?xml version="1.0" encoding="UTF-8" standalone="no"?>
<svg
   xmlns:dc="http://purl.org/dc/elements/1.1/"
   xmlns:cc="http://creativecommons.org/ns#"
   xmlns:rdf="http://www.w3.org/1999/02/22-rdf-syntax-ns#"
   xmlns:svg="http://www.w3.org/2000/svg"
   xmlns="http://www.w3.org/2000/svg"
   xmlns:sodipodi="http://sodipodi.sourceforge.net/DTD/sodipodi-0.dtd"
   xmlns:inkscape="http://www.inkscape.org/namespaces/inkscape"
   version="1.0"
   width="19"
   height="47"
   id="svg2"
   inkscape:version="0.47 r22583"
   sodipodi:docname="02-06-005-03-03-01.svg">
  <defs
     id="defs16">
    <inkscape:perspective
       sodipodi:type="inkscape:persp3d"
       inkscape:vp_x="0 : 23 : 1"
       inkscape:vp_y="0 : 1000 : 0"
       inkscape:vp_z="36 : 23 : 1"
       inkscape:persp3d-origin="18 : 15.333333 : 1"
       id="perspective18" />
  </defs>
  <sodipodi:namedview
     pagecolor="#ffffff"
     bordercolor="#666666"
     borderopacity="1"
     objecttolerance="10"
     gridtolerance="10"
     guidetolerance="10"
     inkscape:pageopacity="0"
     inkscape:pageshadow="2"
     inkscape:window-width="964"
     inkscape:window-height="721"
     id="namedview14"
     showgrid="true"
     inkscape:zoom="10.06383"
     inkscape:cx="9.5"
     inkscape:cy="23.5"
     inkscape:window-x="365"
     inkscape:window-y="0"
     inkscape:window-maximized="0"
     inkscape:current-layer="svg2"
     showborder="true">
    <inkscape:grid
       type="xygrid"
       id="grid2824"
       empspacing="5"
       visible="true"
       enabled="true"
       snapvisiblegridlinesonly="true" />
  </sodipodi:namedview>
  <metadata
     id="metadata4">
Valerie Sutton's pixel definition of the
ISWA 2010 symbol ID 04-01-003-01-01-01
transformed by Stephen E Slevinski Jr
using line and fill polygon tracing
<rdf:RDF>
  <cc:Work
     rdf:about="">
    <dc:format>image/svg+xml</dc:format>
    <dc:type
       rdf:resource="http://purl.org/dc/dcmitype/StillImage" />
    <dc:title></dc:title>
  </cc:Work>
</rdf:RDF>
</metadata>
  <path
     style="fill:#000000;fill-opacity:1;stroke:none"
     d="M 2 0 L 2 12 L 14 0 L 2 0 z M 3 1 L 11.5625 1 L 3 9.59375 L 3 1 z "
     id="path3690" />
  <path
     style="fill:#000000;fill-opacity:1;stroke:none"
     d="M 10.46875 3.53125 L 9.40625 4.59375 L 14 9.09375 C 16.171573 11.265323 17.5 14.280041 17.5 17.59375 L 17.5 19.4375 C 17.5 22.751209 16.171573 25.765927 14 27.9375 L 13.4375 28.4375 C 12.170749 29.704251 10.432997 30.5 8.5 30.5 C 4.6340068 30.5 1.5 27.365993 1.5 23.5 C 1.5 19.634007 4.6340068 16.5 8.5 16.5 C 9.7731752 16.5 10.975023 16.839862 12 17.4375 C 11.985116 16.821321 11.894024 16.218106 11.71875 15.65625 C 10.725091 15.245106 9.6412094 15 8.5 15 C 3.8055796 15 0 18.80558 0 23.5 C 0 28.19442 3.8055796 32 8.5 32 C 10.84721 32 12.961802 31.038198 14.5 29.5 L 15.03125 28.96875 C 15.947382 28.052618 16.748941 27.020133 17.375 25.875 C 17.453019 26.431089 17.5 26.985399 17.5 27.5625 L 17.5 29.40625 C 17.5 32.71996 16.171573 35.73468 14 37.90625 L 5.875 45.9375 L 6.9375 47 L 15.03125 38.9375 C 17.47427 36.49448 19 33.13417 19 29.40625 L 19 27.5625 C 19 26.140141 18.754171 24.784799 18.34375 23.5 C 18.754171 22.215201 19 20.85986 19 19.4375 L 19 17.59375 C 19 13.865828 17.47427 10.50552 15.03125 8.0625 L 10.46875 3.53125 z "
     id="path4274" />
  <path
     style="fill:#ffffff;fill-opacity:1;stroke:none"
     d="M 9.40625 4.59375 L 6.59375 7.40625 L 11.15625 11.9375 C 12.603965 13.385215 13.5 15.384611 13.5 17.59375 L 13.5 19.4375 C 13.5 21.646639 12.603965 23.646035 11.15625 25.09375 L 10.625 25.625 C 10.082107 26.167893 9.328427 26.5 8.5 26.5 C 6.8431458 26.5 5.5 25.156854 5.5 23.5 C 5.5 21.843146 6.8431458 20.5 8.5 20.5 C 9.328427 20.5 10.082107 20.832107 10.625 21.375 L 11.15625 21.90625 C 11.245693 21.995694 11.321865 22.093511 11.40625 22.1875 C 11.796951 21.353396 12 20.419723 12 19.4375 L 12 17.59375 C 12 17.54045 12.00128 17.490488 12 17.4375 C 10.975023 16.839862 9.7731759 16.5 8.5 16.5 C 4.6340068 16.5 1.5 19.634007 1.5 23.5 C 1.5 27.365993 4.6340068 30.5 8.5 30.5 C 10.432996 30.5 12.170749 29.704251 13.4375 28.4375 L 14 27.9375 C 16.171573 25.765927 17.5 22.751209 17.5 19.4375 L 17.5 17.59375 C 17.5 14.280041 16.171573 11.265323 14 9.09375 L 9.40625 4.59375 z M 17.375 25.875 C 16.748941 27.020133 15.947382 28.052618 15.03125 28.96875 L 14.5 29.5 C 14.169149 29.830851 13.818263 30.132566 13.4375 30.40625 C 13.211045 32.213922 12.381159 33.837587 11.15625 35.0625 L 3.0625 43.125 L 5.875 45.9375 L 14 37.90625 C 16.171573 35.73468 17.5 32.71996 17.5 29.40625 L 17.5 27.5625 C 17.5 26.985399 17.453019 26.431089 17.375 25.875 z "
     id="path4277" />
  <path
     style="fill:#000000;fill-opacity:1;stroke:none"
     d="M 6.59375 7.40625 L 5.53125 8.46875 L 10.09375 13 C 11.270019 14.176269 12 15.798825 12 17.59375 L 12 19.4375 C 12 20.419723 11.796951 21.353396 11.40625 22.1875 C 11.321865 22.093511 11.245693 21.995694 11.15625 21.90625 L 10.625 21.375 C 10.082107 20.832107 9.328427 20.5 8.5 20.5 C 6.8431458 20.5 5.5 21.843146 5.5 23.5 C 5.5 25.156854 6.8431458 26.5 8.5 26.5 C 9.328427 26.5 10.082107 26.167893 10.625 25.625 L 11.15625 25.09375 C 12.603965 23.646035 13.5 21.646639 13.5 19.4375 L 13.5 17.59375 C 13.5 15.384611 12.603965 13.385215 11.15625 11.9375 L 6.59375 7.40625 z M 8.5 22 C 8.914214 22 9.291053 22.166053 9.5625 22.4375 L 10.09375 22.96875 C 10.259451 23.134451 10.414821 23.316992 10.5625 23.5 C 10.413827 23.684951 10.261368 23.863632 10.09375 24.03125 L 9.5625 24.5625 C 9.291053 24.833947 8.914214 25 8.5 25 C 7.6715729 25 7 24.328427 7 23.5 C 7 22.671573 7.6715729 22 8.5 22 z M 13.4375 30.40625 C 12.907196 30.787421 12.329992 31.091269 11.71875 31.34375 C 11.401505 32.360705 10.828918 33.264831 10.09375 34 L 2 42.0625 L 3.0625 43.125 L 11.15625 35.0625 C 12.381159 33.837587 13.211045 32.213922 13.4375 30.40625 z "
     id="path4280" />
  <path
     style="fill:#ffffff;fill-opacity:1;stroke:none"
     d="M 3 1 L 3 9.59375 L 11.5625 1 L 3 1 z "
     id="path4373" />
</svg>
