<?xml version="1.0" encoding="UTF-8" standalone="no"?>
<svg
   xmlns:dc="http://purl.org/dc/elements/1.1/"
   xmlns:cc="http://creativecommons.org/ns#"
   xmlns:rdf="http://www.w3.org/1999/02/22-rdf-syntax-ns#"
   xmlns:svg="http://www.w3.org/2000/svg"
   xmlns="http://www.w3.org/2000/svg"
   xmlns:sodipodi="http://sodipodi.sourceforge.net/DTD/sodipodi-0.dtd"
   xmlns:inkscape="http://www.inkscape.org/namespaces/inkscape"
   version="1.0"
   width="35"
   height="42"
   id="svg2"
   inkscape:version="0.47 r22583"
   sodipodi:docname="04-01-007-01-01-03.svg">
  <defs
     id="defs20">
    <inkscape:perspective
       sodipodi:type="inkscape:persp3d"
       inkscape:vp_x="0 : 4 : 1"
       inkscape:vp_y="0 : 1000 : 0"
       inkscape:vp_z="20 : 4 : 1"
       inkscape:persp3d-origin="10 : 2.6666667 : 1"
       id="perspective22" />
  </defs>
  <sodipodi:namedview
     pagecolor="#ffffff"
     bordercolor="#666666"
     borderopacity="1"
     objecttolerance="10"
     gridtolerance="10"
     guidetolerance="10"
     inkscape:pageopacity="0"
     inkscape:pageshadow="2"
     inkscape:window-width="998"
     inkscape:window-height="791"
     id="namedview18"
     showgrid="true"
     inkscape:zoom="12.56"
     inkscape:cx="16.012124"
     inkscape:cy="20.679389"
     inkscape:window-x="238"
     inkscape:window-y="0"
     inkscape:window-maximized="0"
     inkscape:current-layer="svg2">
    <inkscape:grid
       type="xygrid"
       id="grid2828" />
  </sodipodi:namedview>
  <metadata
     id="metadata4">
Valerie Sutton's pixel definition of the
ISWA 2010 symbol ID 04-01-006-01-02-01
transformed by Stephen E Slevinski Jr
using line and fill polygon tracing
<rdf:RDF>
  <cc:Work
     rdf:about="">
    <dc:format>image/svg+xml</dc:format>
    <dc:type
       rdf:resource="http://purl.org/dc/dcmitype/StillImage" />
    <dc:title />
  </cc:Work>
</rdf:RDF>
</metadata>
  <path
     style="fill:#000000"
     d="m 27,0 0,6 -6,0 0,-1 5,0 0,-5 1,0 z"
     id="path12" />
  <path
     style="fill:#000000;fill-opacity:1;stroke:none"
     d="m 17.5,0 c 2.899495,0 5.537374,1.1623737 7.4375,3.0625 L 24.21875,3.78125 C 22.499588,2.0620881 20.123352,1 17.5,1 14.876648,1 12.500412,2.0620881 10.78125,3.78125 L 9.6875,4.875 9,4.15625 10.0625,3.09375 C 11.962626,1.1936237 14.600505,0 17.5,0 z"
     id="path2848" />
  <path
     style="fill:#000000;fill-opacity:1;stroke:none"
     d="M 17.5,7 C 7.8350169,7 0,14.835017 0,24.5 0,34.164983 7.8350169,42 17.5,42 27.164983,42 35,34.164983 35,24.5 35,14.835017 27.164983,7 17.5,7 z m 0,1.5 c 8.836556,0 16,7.163444 16,16 0,8.836556 -7.163444,16 -16,16 -8.836556,0 -16,-7.163444 -16,-16 0,-8.836556 7.163444,-16 16,-16 z"
     id="path2915" />
</svg>
