<?xml version="1.0" encoding="UTF-8" standalone="no"?>
<svg
   xmlns:dc="http://purl.org/dc/elements/1.1/"
   xmlns:cc="http://creativecommons.org/ns#"
   xmlns:rdf="http://www.w3.org/1999/02/22-rdf-syntax-ns#"
   xmlns:svg="http://www.w3.org/2000/svg"
   xmlns="http://www.w3.org/2000/svg"
   xmlns:sodipodi="http://sodipodi.sourceforge.net/DTD/sodipodi-0.dtd"
   xmlns:inkscape="http://www.inkscape.org/namespaces/inkscape"
   version="1.0"
   width="28"
   height="23"
   id="svg2"
   inkscape:version="0.47 r22583"
   sodipodi:docname="02-07-005-01-03-01.svg">
  <defs
     id="defs16">
    <inkscape:perspective
       sodipodi:type="inkscape:persp3d"
       inkscape:vp_x="0 : 23 : 1"
       inkscape:vp_y="0 : 1000 : 0"
       inkscape:vp_z="36 : 23 : 1"
       inkscape:persp3d-origin="18 : 15.333333 : 1"
       id="perspective18" />
  </defs>
  <sodipodi:namedview
     pagecolor="#ffffff"
     bordercolor="#666666"
     borderopacity="1"
     objecttolerance="10"
     gridtolerance="10"
     guidetolerance="10"
     inkscape:pageopacity="0"
     inkscape:pageshadow="2"
     inkscape:window-width="964"
     inkscape:window-height="721"
     id="namedview14"
     showgrid="true"
     inkscape:zoom="16.701291"
     inkscape:cx="14"
     inkscape:cy="11.5"
     inkscape:window-x="365"
     inkscape:window-y="0"
     inkscape:window-maximized="0"
     inkscape:current-layer="svg2"
     showborder="true">
    <inkscape:grid
       type="xygrid"
       id="grid2824"
       empspacing="5"
       visible="true"
       enabled="true"
       snapvisiblegridlinesonly="true" />
  </sodipodi:namedview>
  <metadata
     id="metadata4">
Valerie Sutton's pixel definition of the
ISWA 2010 symbol ID 04-01-003-01-01-01
transformed by Stephen E Slevinski Jr
using line and fill polygon tracing
<rdf:RDF>
  <cc:Work
     rdf:about="">
    <dc:format>image/svg+xml</dc:format>
    <dc:type
       rdf:resource="http://purl.org/dc/dcmitype/StillImage" />
    <dc:title></dc:title>
  </cc:Work>
</rdf:RDF>
</metadata>
  <path
     style="fill:#000000;fill-opacity:1;stroke:none"
     d="m 0,12 28,0 0,1 -28,0 0,-1 z"
     id="path2831" />
  <path
     style="fill:#000000;fill-opacity:1;stroke:none"
     d="m 11,0 10,0 0,10 -1.5,-1.5 0,-7 -7,0 L 11,0 z"
     id="path2964" />
  <path
     style="fill:#000000;fill-opacity:1;stroke:none"
     d="M 9,12.5 C 9,9.876648 10.062088,7.500411 11.78125,5.78125 l 2.5,-2.5 L 15,4 12.5,6.5 c -1.538198,1.538198 -2.5,3.65279 -2.5,6 0,2.34721 0.961802,4.461802 2.5,6 L 16.28125,22.3125 15.59375,23 11.78125,19.21875 C 10.062088,17.499589 9,15.123352 9,12.5 z"
     id="path2817" />
  <path
     style="fill:#ffffff;fill-opacity:1;stroke:none"
     d="m 10,12.5 c 0,-2.34721 0.961802,-4.461802 2.5,-6 L 15,4 l 2.125,2.125 -2.5,2.5 C 13.629695,9.620304 13,10.981217 13,12.5 c 0,1.518783 0.629695,2.879696 1.625,3.875 l 3.78125,3.8125 -2.125,2.125 L 12.5,18.5 c -1.538198,-1.538198 -2.499999,-3.652789 -2.5,-6 z"
     id="path2819" />
  <path
     style="fill:#000000;fill-opacity:1;stroke:none"
     d="m 13,12.5 c 0,-1.518783 0.629695,-2.879696 1.625,-3.875 l 2.5,-2.5 0.6875,0.6875 -2.5,2.5 C 14.49816,10.12684 14,11.257359 14,12.5 c 0,1.242641 0.498159,2.373159 1.3125,3.1875 L 19.125,19.46875 18.40625,20.1875 14.625,16.375 C 13.629695,15.379696 13,14.018783 13,12.5 z"
     id="path2824" />
  <path
     style="fill:#000000;fill-opacity:1;stroke:none"
     d="m 17,10.5 0,4 -10,0 0,-4 10,0 z"
     id="rect2840" />
</svg>
