<?xml version="1.0" encoding="UTF-8" standalone="no"?>
<svg
   xmlns:dc="http://purl.org/dc/elements/1.1/"
   xmlns:cc="http://creativecommons.org/ns#"
   xmlns:rdf="http://www.w3.org/1999/02/22-rdf-syntax-ns#"
   xmlns:svg="http://www.w3.org/2000/svg"
   xmlns="http://www.w3.org/2000/svg"
   xmlns:sodipodi="http://sodipodi.sourceforge.net/DTD/sodipodi-0.dtd"
   xmlns:inkscape="http://www.inkscape.org/namespaces/inkscape"
   version="1.0"
   width="47"
   height="35"
   id="svg2"
   inkscape:version="0.47 r22583"
   sodipodi:docname="04-03-002-03-03-01.svg">
  <defs
     id="defs14">
    <inkscape:perspective
       sodipodi:type="inkscape:persp3d"
       inkscape:vp_x="0 : 17.5 : 1"
       inkscape:vp_y="0 : 1000 : 0"
       inkscape:vp_z="36 : 17.5 : 1"
       inkscape:persp3d-origin="18 : 11.666667 : 1"
       id="perspective16" />
  </defs>
  <sodipodi:namedview
     pagecolor="#ffffff"
     bordercolor="#666666"
     borderopacity="1"
     objecttolerance="10"
     gridtolerance="10"
     guidetolerance="10"
     inkscape:pageopacity="0"
     inkscape:pageshadow="2"
     inkscape:window-width="993"
     inkscape:window-height="789"
     id="namedview12"
     showgrid="true"
     inkscape:zoom="15.487095"
     inkscape:cx="23.148503"
     inkscape:cy="17.483386"
     inkscape:window-x="209"
     inkscape:window-y="0"
     inkscape:window-maximized="0"
     inkscape:current-layer="svg2">
    <inkscape:grid
       type="xygrid"
       id="grid2822" />
  </sodipodi:namedview>
  <metadata
     id="metadata4">
Valerie Sutton's pixel definition of the
ISWA 2010 symbol ID 04-03-001-01-01-01
transformed by Stephen E Slevinski Jr
using line and fill polygon tracing
<rdf:RDF>
  <cc:Work
     rdf:about="">
    <dc:format>image/svg+xml</dc:format>
    <dc:type
       rdf:resource="http://purl.org/dc/dcmitype/StillImage" />
    <dc:title></dc:title>
  </cc:Work>
</rdf:RDF>
</metadata>
  <path
     style="fill:#000000;fill-opacity:1;stroke:none"
     d="M 23.5,0 C 13.835017,0 6,7.8350169 6,17.5 6,27.164983 13.835017,35 23.5,35 33.164983,35 41,27.164983 41,17.5 41,7.8350169 33.164983,0 23.5,0 z m 0,2 C 32.060414,2 39,8.9395864 39,17.5 39,26.060414 32.060414,33 23.5,33 14.939586,33 8,26.060414 8,17.5 8,8.9395864 14.939586,2 23.5,2 z"
     id="path2824" />
  <path
     style="fill:#000000;fill-opacity:1;stroke:none"
     d="M 7 10 C 3.1340068 10 0 13.134007 0 17 C 0 20.865993 3.1340068 24 7 24 C 7.0838848 24 7.166829 24.002926 7.25 24 C 6.9865045 23.341686 6.7767385 22.66371 6.59375 21.96875 C 4.0273358 21.756964 2 19.62107 2 17 C 2 14.281555 4.1729869 12.06819 6.875 12 C 7.0997763 11.318992 7.3842339 10.672378 7.6875 10.03125 C 7.4621075 10.009358 7.231139 10 7 10 z "
     id="path3315" />
  <path
     style="fill:#000000;fill-opacity:1;stroke:none"
     d="M 40 10 C 39.768861 10 39.537893 10.009358 39.3125 10.03125 C 39.615766 10.672378 39.900224 11.318992 40.125 12 C 42.827013 12.06819 45 14.281555 45 17 C 45 19.62107 42.972664 21.756964 40.40625 21.96875 C 40.223262 22.66371 40.013495 23.341686 39.75 24 C 39.833171 24.002926 39.916115 24 40 24 C 43.865993 24 47 20.865993 47 17 C 47 13.134007 43.865993 10 40 10 z "
     id="path3321" />
</svg>
