<?xml version="1.0" encoding="UTF-8" standalone="no"?>
<svg
   xmlns:dc="http://purl.org/dc/elements/1.1/"
   xmlns:cc="http://creativecommons.org/ns#"
   xmlns:rdf="http://www.w3.org/1999/02/22-rdf-syntax-ns#"
   xmlns:svg="http://www.w3.org/2000/svg"
   xmlns="http://www.w3.org/2000/svg"
   xmlns:sodipodi="http://sodipodi.sourceforge.net/DTD/sodipodi-0.dtd"
   xmlns:inkscape="http://www.inkscape.org/namespaces/inkscape"
   version="1.0"
   width="22"
   height="33"
   id="svg2"
   inkscape:version="0.47 r22583"
   sodipodi:docname="02-05-014-01-05-13.svg">
  <defs
     id="defs16">
    <inkscape:perspective
       sodipodi:type="inkscape:persp3d"
       inkscape:vp_x="0 : 23 : 1"
       inkscape:vp_y="0 : 1000 : 0"
       inkscape:vp_z="36 : 23 : 1"
       inkscape:persp3d-origin="18 : 15.333333 : 1"
       id="perspective18" />
  </defs>
  <sodipodi:namedview
     pagecolor="#ffffff"
     bordercolor="#666666"
     borderopacity="1"
     objecttolerance="10"
     gridtolerance="10"
     guidetolerance="10"
     inkscape:pageopacity="0"
     inkscape:pageshadow="2"
     inkscape:window-width="964"
     inkscape:window-height="721"
     id="namedview14"
     showgrid="true"
     inkscape:zoom="14.333333"
     inkscape:cx="11"
     inkscape:cy="16.5"
     inkscape:window-x="365"
     inkscape:window-y="0"
     inkscape:window-maximized="0"
     inkscape:current-layer="svg2"
     showborder="true">
    <inkscape:grid
       type="xygrid"
       id="grid2824"
       empspacing="5"
       visible="true"
       enabled="true"
       snapvisiblegridlinesonly="true" />
  </sodipodi:namedview>
  <metadata
     id="metadata4">
Valerie Sutton's pixel definition of the
ISWA 2010 symbol ID 04-01-003-01-01-01
transformed by Stephen E Slevinski Jr
using line and fill polygon tracing
<rdf:RDF>
  <cc:Work
     rdf:about="">
    <dc:format>image/svg+xml</dc:format>
    <dc:type
       rdf:resource="http://purl.org/dc/dcmitype/StillImage" />
    <dc:title></dc:title>
  </cc:Work>
</rdf:RDF>
</metadata>
  <path
     style="fill:#000000;fill-opacity:1;stroke:none"
     d="m 10,26 0,-26 2,0 0,26 -2,0 z"
     id="path2833" />
  <path
     style="fill:#000000;fill-opacity:1;stroke:none"
     d="m 2.908117,8.75736 c 4.295767,-4.295768 11.260582,-4.295768 15.556349,0 l -0.707107,0.707106 c -3.905243,-3.905242 -10.236893,-3.905242 -14.142136,0 L 2.20101,10.87868 1.493903,10.171573 2.908117,8.75736 z"
     id="path2910" />
  <path
     style="fill:#000000;fill-opacity:1;stroke:none"
     d="M 14.21875,13 22,5.21875 22,13 14.21875,13 z M 16.625,12 21,12 21,7.65625 16.625,12 z"
     id="path2964" />
  <path
     style="fill:#000000;fill-opacity:1;stroke:none"
     d="m 4,26 7,7 7,-7 -14,0 z m 2.4375,1 9.125,0 L 11,31.5625 6.4375,27 z"
     id="path2997" />
  <path
     style="fill:#ffffff;fill-opacity:1;stroke:none"
     d="M 6.4375,27 11,31.5625 15.5625,27 6.4375,27 z"
     id="path2966" />
  <path
     style="fill:#ffffff;fill-opacity:1;stroke:none"
     d="M 16.625,12 21,7.65625 21,12 16.625,12 z"
     id="path2863" />
  <path
     id="path3162"
     d="m 19.091883,18.75736 c -4.295767,-4.295768 -11.260582,-4.295768 -15.556349,0 l 0.707107,0.707106 c 3.905243,-3.905242 10.236893,-3.905242 14.142136,0 l 1.414213,1.414214 0.707107,-0.707107 -1.414214,-1.414213 z"
     style="fill:#000000;fill-opacity:1;stroke:none" />
  <path
     id="path3164"
     d="M 7.78125,23 0,15.21875 0,23 7.78125,23 z M 5.375,22 1,22 1,17.65625 5.375,22 z"
     style="fill:#000000;fill-opacity:1;stroke:none" />
  <path
     id="path3166"
     d="M 5.375,22 1,17.65625 1,22 5.375,22 z"
     style="fill:#ffffff;fill-opacity:1;stroke:none" />
</svg>
