<?xml version="1.0" encoding="UTF-8" standalone="no"?>
<svg
   xmlns:dc="http://purl.org/dc/elements/1.1/"
   xmlns:cc="http://creativecommons.org/ns#"
   xmlns:rdf="http://www.w3.org/1999/02/22-rdf-syntax-ns#"
   xmlns:svg="http://www.w3.org/2000/svg"
   xmlns="http://www.w3.org/2000/svg"
   xmlns:sodipodi="http://sodipodi.sourceforge.net/DTD/sodipodi-0.dtd"
   xmlns:inkscape="http://www.inkscape.org/namespaces/inkscape"
   version="1.0"
   width="28"
   height="24"
   id="svg2"
   inkscape:version="0.47 r22583"
   sodipodi:docname="02-05-015-01-05-05.svg">
  <defs
     id="defs16">
    <inkscape:perspective
       sodipodi:type="inkscape:persp3d"
       inkscape:vp_x="0 : 23 : 1"
       inkscape:vp_y="0 : 1000 : 0"
       inkscape:vp_z="36 : 23 : 1"
       inkscape:persp3d-origin="18 : 15.333333 : 1"
       id="perspective18" />
  </defs>
  <sodipodi:namedview
     pagecolor="#ffffff"
     bordercolor="#666666"
     borderopacity="1"
     objecttolerance="10"
     gridtolerance="10"
     guidetolerance="10"
     inkscape:pageopacity="0"
     inkscape:pageshadow="2"
     inkscape:window-width="964"
     inkscape:window-height="721"
     id="namedview14"
     showgrid="true"
     inkscape:zoom="16.010846"
     inkscape:cx="14.004614"
     inkscape:cy="12.003955"
     inkscape:window-x="365"
     inkscape:window-y="0"
     inkscape:window-maximized="0"
     inkscape:current-layer="svg2"
     showborder="true">
    <inkscape:grid
       type="xygrid"
       id="grid2824"
       empspacing="5"
       visible="true"
       enabled="true"
       snapvisiblegridlinesonly="true" />
  </sodipodi:namedview>
  <metadata
     id="metadata4">
Valerie Sutton's pixel definition of the
ISWA 2010 symbol ID 04-01-003-01-01-01
transformed by Stephen E Slevinski Jr
using line and fill polygon tracing
<rdf:RDF>
  <cc:Work
     rdf:about="">
    <dc:format>image/svg+xml</dc:format>
    <dc:type
       rdf:resource="http://purl.org/dc/dcmitype/StillImage" />
    <dc:title></dc:title>
  </cc:Work>
</rdf:RDF>
</metadata>
  <path
     style="fill:#000000;fill-opacity:1;stroke:none"
     d="M 5.2010097,5.6152229 23.585786,24 25,22.585786 6.6152233,4.2010097 5.2010097,5.6152229 z"
     id="path2833" />
  <path
     style="fill:#000000;fill-opacity:1;stroke:none"
     d="M 17,4.9999999 C 17,11.075133 12.075133,16.000001 5.9999998,16 l 7e-7,-1 C 11.522847,15 16,10.522847 16.000001,4.9999999 L 16,3 l 1,0 0,1.9999999 z"
     id="path2910" />
  <path
     style="fill:#000000;fill-opacity:1;stroke:none"
     d="M 6,10 6,21 0.49999999,15.500001 6,10 z m -0.9939759,2.40763 -3.0923695,3.092371 3.0702811,3.070281 0.022088,-6.162652 z"
     id="path2964" />
  <path
     style="fill:#000000;fill-opacity:1;stroke:none"
     d="M 1,9.8994949 1,0 10.899495,0 1,9.8994949 z m 1.016466,-2.43068 6.4523494,-6.4523489 -6.4523494,0 0,6.4523489 z"
     id="path2997" />
  <path
     style="fill:#ffffff;fill-opacity:1;stroke:none"
     d="m 2.016466,7.4688149 0,-6.4523489 6.4523494,0 -6.4523494,6.4523489 z"
     id="path2966" />
  <path
     style="fill:#ffffff;fill-opacity:1;stroke:none"
     d="M 5.0060241,12.40763 4.9839357,18.570282 1.9136546,15.500001 5.0060241,12.40763 z"
     id="path2863" />
  <path
     id="path3216"
     d="m 12,23 c 6.075133,0 11,-4.924868 11,-11 l -1,0 c -1e-6,5.522847 -4.477153,10 -10,10.000001 L 10,22 l 0,1 2,0 z"
     style="fill:#000000;fill-opacity:1;stroke:none" />
  <path
     id="path3218"
     d="M 17,12 28,12 22.5,6.5 17,12 z M 19.40763,11.006024 22.5,7.9136549 l 3.070281,3.0702811 -6.162651,0.02209 z"
     style="fill:#000000;fill-opacity:1;stroke:none" />
  <path
     id="path3220"
     d="M 19.40763,11.006024 25.570281,10.983934 22.5,7.9136529 19.40763,11.006022 z"
     style="fill:#ffffff;fill-opacity:1;stroke:none" />
</svg>
