<?xml version="1.0" encoding="UTF-8" standalone="no"?>
<svg
   xmlns:dc="http://purl.org/dc/elements/1.1/"
   xmlns:cc="http://creativecommons.org/ns#"
   xmlns:rdf="http://www.w3.org/1999/02/22-rdf-syntax-ns#"
   xmlns:svg="http://www.w3.org/2000/svg"
   xmlns="http://www.w3.org/2000/svg"
   xmlns:sodipodi="http://sodipodi.sourceforge.net/DTD/sodipodi-0.dtd"
   xmlns:inkscape="http://www.inkscape.org/namespaces/inkscape"
   version="1.0"
   width="43"
   height="20"
   id="svg2"
   inkscape:version="0.47 r22583"
   sodipodi:docname="02-05-015-01-02-11.svg">
  <defs
     id="defs16">
    <inkscape:perspective
       sodipodi:type="inkscape:persp3d"
       inkscape:vp_x="0 : 23 : 1"
       inkscape:vp_y="0 : 1000 : 0"
       inkscape:vp_z="36 : 23 : 1"
       inkscape:persp3d-origin="18 : 15.333333 : 1"
       id="perspective18" />
  </defs>
  <sodipodi:namedview
     pagecolor="#ffffff"
     bordercolor="#666666"
     borderopacity="1"
     objecttolerance="10"
     gridtolerance="10"
     guidetolerance="10"
     inkscape:pageopacity="0"
     inkscape:pageshadow="2"
     inkscape:window-width="964"
     inkscape:window-height="721"
     id="namedview14"
     showgrid="true"
     inkscape:zoom="16.309417"
     inkscape:cx="21.500769"
     inkscape:cy="10.000358"
     inkscape:window-x="365"
     inkscape:window-y="0"
     inkscape:window-maximized="0"
     inkscape:current-layer="svg2"
     showborder="true">
    <inkscape:grid
       type="xygrid"
       id="grid2824"
       empspacing="5"
       visible="true"
       enabled="true"
       snapvisiblegridlinesonly="true" />
  </sodipodi:namedview>
  <metadata
     id="metadata4">
Valerie Sutton's pixel definition of the
ISWA 2010 symbol ID 04-01-003-01-01-01
transformed by Stephen E Slevinski Jr
using line and fill polygon tracing
<rdf:RDF>
  <cc:Work
     rdf:about="">
    <dc:format>image/svg+xml</dc:format>
    <dc:type
       rdf:resource="http://purl.org/dc/dcmitype/StillImage" />
    <dc:title></dc:title>
  </cc:Work>
</rdf:RDF>
</metadata>
  <path
     style="fill:#000000;fill-opacity:1;stroke:none"
     d="M 36,11 0,11 0,9 36,9 36,11 z"
     id="path2833" />
  <path
     style="fill:#000000;fill-opacity:1;stroke:none"
     d="m 26,5 c 3.313708,0 6,2.6862915 6,6 0,3.313708 -2.686292,6 -6,6 l -3,0 0,-3 3,0 c 2.761424,0 5,-1.343146 5,-3 0,-2.7614237 -2.238576,-5 -5,-5 l -3,0 0,-1 3,0 z"
     id="path2910" />
  <path
     style="fill:#000000;fill-opacity:1;stroke:none"
     d="m 24,11 -4.5,4.5 4.5,4.5 0,-9 z m -1,2.40625 0,4.1875 L 20.90625,15.5 23,13.40625 z"
     id="path2964" />
  <path
     style="fill:#000000;fill-opacity:1;stroke:none"
     d="m 36,17 7,-7 -7,-7 0,14 z M 37,14.5625 37,5.4375 41.5625,10 37,14.5625 z"
     id="path2997" />
  <path
     style="fill:#ffffff;fill-opacity:1;stroke:none"
     d="M 37,14.5625 41.5625,10 37,5.4375 l 0,9.125 z"
     id="path2966" />
  <path
     style="fill:#ffffff;fill-opacity:1;stroke:none"
     d="M 23,13.40625 20.90625,15.5 23,17.59375 l 0,-4.1875 z"
     id="path2863" />
  <path
     id="path3225"
     d="m 11,4 0,1 2,0 c 2.761424,0 5,2.2385763 5,5 0,1.656854 -2.238576,3 -5,3 l -5,0 0,3 5,0 c 3.313708,0 6,-2.686292 6,-6 0,-3.3137085 -2.686292,-6 -6,-6 l -2,0 z"
     style="fill:#000000;fill-opacity:1;stroke:none" />
  <path
     id="path3227"
     d="M 12,0 7.5,4.5 12,9 12,0 z M 11,2.40625 11,6.59375 8.90625,4.5 11,2.40625 z"
     style="fill:#000000;fill-opacity:1;stroke:none" />
  <path
     id="path3229"
     d="M 11,2.40625 8.90625,4.5 11,6.59375 11,2.40625 z"
     style="fill:#ffffff;fill-opacity:1;stroke:none" />
</svg>
