<?xml version="1.0" encoding="UTF-8" standalone="no"?>
<svg
   xmlns:dc="http://purl.org/dc/elements/1.1/"
   xmlns:cc="http://creativecommons.org/ns#"
   xmlns:rdf="http://www.w3.org/1999/02/22-rdf-syntax-ns#"
   xmlns:svg="http://www.w3.org/2000/svg"
   xmlns="http://www.w3.org/2000/svg"
   xmlns:sodipodi="http://sodipodi.sourceforge.net/DTD/sodipodi-0.dtd"
   xmlns:inkscape="http://www.inkscape.org/namespaces/inkscape"
   version="1.0"
   width="22"
   height="33"
   id="svg2"
   inkscape:version="0.47 r22583"
   sodipodi:docname="02-05-014-01-06-01.svg">
  <defs
     id="defs16">
    <inkscape:perspective
       sodipodi:type="inkscape:persp3d"
       inkscape:vp_x="0 : 23 : 1"
       inkscape:vp_y="0 : 1000 : 0"
       inkscape:vp_z="36 : 23 : 1"
       inkscape:persp3d-origin="18 : 15.333333 : 1"
       id="perspective18" />
  </defs>
  <sodipodi:namedview
     pagecolor="#ffffff"
     bordercolor="#666666"
     borderopacity="1"
     objecttolerance="10"
     gridtolerance="10"
     guidetolerance="10"
     inkscape:pageopacity="0"
     inkscape:pageshadow="2"
     inkscape:window-width="964"
     inkscape:window-height="721"
     id="namedview14"
     showgrid="true"
     inkscape:zoom="14.333333"
     inkscape:cx="11"
     inkscape:cy="16.5"
     inkscape:window-x="365"
     inkscape:window-y="0"
     inkscape:window-maximized="0"
     inkscape:current-layer="svg2"
     showborder="true">
    <inkscape:grid
       type="xygrid"
       id="grid2824"
       empspacing="5"
       visible="true"
       enabled="true"
       snapvisiblegridlinesonly="true" />
  </sodipodi:namedview>
  <metadata
     id="metadata4">
Valerie Sutton's pixel definition of the
ISWA 2010 symbol ID 04-01-003-01-01-01
transformed by Stephen E Slevinski Jr
using line and fill polygon tracing
<rdf:RDF>
  <cc:Work
     rdf:about="">
    <dc:format>image/svg+xml</dc:format>
    <dc:type
       rdf:resource="http://purl.org/dc/dcmitype/StillImage" />
    <dc:title></dc:title>
  </cc:Work>
</rdf:RDF>
</metadata>
  <path
     style="fill:#000000;fill-opacity:1;stroke:none"
     d="M 18,7 11,0 4,7 6.84375,7 11,2.84375 15.15625,7 18,7 z"
     id="path2966" />
  <path
     style="fill:#000000;fill-opacity:1;stroke:none"
     d="m 12,7 0,26 -2,0 0,-26 2,0 z"
     id="path2833" />
  <path
     style="fill:#000000;fill-opacity:1;stroke:none"
     d="M 0,17.78125 0,10 l 7.78125,0 -1,1 L 1,11 l 0,5.78125 -1,1 z"
     id="path3018" />
  <path
     style="fill:#000000;fill-opacity:1;stroke:none"
     d="m 19.8125,12.125 -1.4375,1.40625 c -1.771783,1.435621 -4.490753,1.9375 -7.0625,1.9375 -2.571747,0 -5.290718,-0.501879 -7.0625,-1.9375 L 3.53125,14.25 c 1.990608,1.990609 4.743684,3.21875 7.78125,3.21875 3.037566,0 5.790641,-1.228141 7.78125,-3.21875 L 20.5,12.84375 19.8125,12.125 z"
     id="path3020" />
  <path
     id="path3137"
     d="M 22,27.78125 22,20 l -7.78125,0 1,1 5.78125,0 0,5.78125 1,1 z"
     style="fill:#000000;fill-opacity:1;stroke:none" />
  <path
     id="path3139"
     d="m 2.1875,22.125 1.4375,1.40625 c 1.771783,1.435621 4.490753,1.9375 7.0625,1.9375 2.571747,0 5.290718,-0.501879 7.0625,-1.9375 L 18.46875,24.25 c -1.990608,1.990609 -4.743684,3.21875 -7.78125,3.21875 -3.037566,0 -5.790641,-1.228141 -7.78125,-3.21875 L 1.5,22.84375 2.1875,22.125 z"
     style="fill:#000000;fill-opacity:1;stroke:none" />
</svg>
