<?xml version="1.0" encoding="UTF-8" standalone="no"?>
<svg
   xmlns:dc="http://purl.org/dc/elements/1.1/"
   xmlns:cc="http://creativecommons.org/ns#"
   xmlns:rdf="http://www.w3.org/1999/02/22-rdf-syntax-ns#"
   xmlns:svg="http://www.w3.org/2000/svg"
   xmlns="http://www.w3.org/2000/svg"
   xmlns:sodipodi="http://sodipodi.sourceforge.net/DTD/sodipodi-0.dtd"
   xmlns:inkscape="http://www.inkscape.org/namespaces/inkscape"
   version="1.0"
   width="28"
   height="24"
   id="svg2"
   inkscape:version="0.47 r22583"
   sodipodi:docname="02-05-015-01-05-06.svg">
  <defs
     id="defs16">
    <inkscape:perspective
       sodipodi:type="inkscape:persp3d"
       inkscape:vp_x="0 : 23 : 1"
       inkscape:vp_y="0 : 1000 : 0"
       inkscape:vp_z="36 : 23 : 1"
       inkscape:persp3d-origin="18 : 15.333333 : 1"
       id="perspective18" />
  </defs>
  <sodipodi:namedview
     pagecolor="#ffffff"
     bordercolor="#666666"
     borderopacity="1"
     objecttolerance="10"
     gridtolerance="10"
     guidetolerance="10"
     inkscape:pageopacity="0"
     inkscape:pageshadow="2"
     inkscape:window-width="964"
     inkscape:window-height="721"
     id="namedview14"
     showgrid="true"
     inkscape:zoom="16.010846"
     inkscape:cx="14.004614"
     inkscape:cy="12.003955"
     inkscape:window-x="365"
     inkscape:window-y="0"
     inkscape:window-maximized="0"
     inkscape:current-layer="svg2"
     showborder="true">
    <inkscape:grid
       type="xygrid"
       id="grid2824"
       empspacing="5"
       visible="true"
       enabled="true"
       snapvisiblegridlinesonly="true" />
  </sodipodi:namedview>
  <metadata
     id="metadata4">
Valerie Sutton's pixel definition of the
ISWA 2010 symbol ID 04-01-003-01-01-01
transformed by Stephen E Slevinski Jr
using line and fill polygon tracing
<rdf:RDF>
  <cc:Work
     rdf:about="">
    <dc:format>image/svg+xml</dc:format>
    <dc:type
       rdf:resource="http://purl.org/dc/dcmitype/StillImage" />
    <dc:title></dc:title>
  </cc:Work>
</rdf:RDF>
</metadata>
  <path
     style="fill:#000000;fill-opacity:1;stroke:none"
     d="M 5.20101,18.384777 23.585786,0 25,1.414214 6.615223,19.79899 5.20101,18.384777 z"
     id="path2833" />
  <path
     style="fill:#000000;fill-opacity:1;stroke:none"
     d="M 17,19 C 17,12.924867 12.075133,7.999999 6,8 l 1e-6,1 c 5.522846,0 9.999999,4.477153 10,10 l -1e-6,2 1,0 0,-2 z"
     id="path2910" />
  <path
     style="fill:#000000;fill-opacity:1;stroke:none"
     d="M 6,14 6,3 0.5,8.499999 6,14 z M 5.006024,11.59237 1.913655,8.499999 4.983936,5.429718 5.006026,11.59237 z"
     id="path2964" />
  <path
     style="fill:#000000;fill-opacity:1;stroke:none"
     d="M 1,14.100505 1,24 10.899495,24 1,14.100505 z m 1.016466,2.43068 6.452349,6.452349 -6.452349,0 0,-6.452349 z"
     id="path2997" />
  <path
     style="fill:#ffffff;fill-opacity:1;stroke:none"
     d="m 2.016466,16.531185 0,6.452349 6.452349,0 -6.452349,-6.452349 z"
     id="path2966" />
  <path
     style="fill:#ffffff;fill-opacity:1;stroke:none"
     d="M 5.006024,11.59237 4.983934,5.429718 1.913653,8.499999 5.006022,11.59237 z"
     id="path2863" />
  <path
     id="path3216"
     d="m 12,1 c 6.075133,0 11,4.924868 11,11 l -1,0 C 21.999999,6.477153 17.522847,2 12,1.999999 L 10,2 10,1 12,1 z"
     style="fill:#000000;fill-opacity:1;stroke:none" />
  <path
     id="path3218"
     d="M 17,12 28,12 22.5,17.5 17,12 z m 2.40763,0.993976 3.09237,3.092369 3.070281,-3.070281 -6.162651,-0.02209 z"
     style="fill:#000000;fill-opacity:1;stroke:none" />
  <path
     id="path3220"
     d="m 19.40763,12.993976 6.162651,0.02209 L 22.5,16.086347 19.40763,12.993978 z"
     style="fill:#ffffff;fill-opacity:1;stroke:none" />
</svg>
