<?xml version="1.0" encoding="UTF-8" standalone="no"?>
<svg
   xmlns:dc="http://purl.org/dc/elements/1.1/"
   xmlns:cc="http://creativecommons.org/ns#"
   xmlns:rdf="http://www.w3.org/1999/02/22-rdf-syntax-ns#"
   xmlns:svg="http://www.w3.org/2000/svg"
   xmlns="http://www.w3.org/2000/svg"
   xmlns:sodipodi="http://sodipodi.sourceforge.net/DTD/sodipodi-0.dtd"
   xmlns:inkscape="http://www.inkscape.org/namespaces/inkscape"
   version="1.0"
   width="24"
   height="29"
   id="svg2"
   inkscape:version="0.47 r22583"
   sodipodi:docname="02-05-015-01-03-16.svg">
  <defs
     id="defs16">
    <inkscape:perspective
       sodipodi:type="inkscape:persp3d"
       inkscape:vp_x="0 : 23 : 1"
       inkscape:vp_y="0 : 1000 : 0"
       inkscape:vp_z="36 : 23 : 1"
       inkscape:persp3d-origin="18 : 15.333333 : 1"
       id="perspective18" />
  </defs>
  <sodipodi:namedview
     pagecolor="#ffffff"
     bordercolor="#666666"
     borderopacity="1"
     objecttolerance="10"
     gridtolerance="10"
     guidetolerance="10"
     inkscape:pageopacity="0"
     inkscape:pageshadow="2"
     inkscape:window-width="964"
     inkscape:window-height="721"
     id="namedview14"
     showgrid="true"
     inkscape:zoom="16.310345"
     inkscape:cx="12"
     inkscape:cy="14.5"
     inkscape:window-x="365"
     inkscape:window-y="0"
     inkscape:window-maximized="0"
     inkscape:current-layer="svg2"
     showborder="true">
    <inkscape:grid
       type="xygrid"
       id="grid2824"
       empspacing="5"
       visible="true"
       enabled="true"
       snapvisiblegridlinesonly="true" />
  </sodipodi:namedview>
  <metadata
     id="metadata4">
Valerie Sutton's pixel definition of the
ISWA 2010 symbol ID 04-01-003-01-01-01
transformed by Stephen E Slevinski Jr
using line and fill polygon tracing
<rdf:RDF>
  <cc:Work
     rdf:about="">
    <dc:format>image/svg+xml</dc:format>
    <dc:type
       rdf:resource="http://purl.org/dc/dcmitype/StillImage" />
    <dc:title></dc:title>
  </cc:Work>
</rdf:RDF>
</metadata>
  <path
     style="fill:#000000;fill-opacity:1;stroke:none"
     d="M 14.100505,28 24,28 l 0,-9.899495 -2.010835,2.010835 0,5.877825 -5.877825,0 L 14.100505,28 z"
     id="path2966" />
  <path
     style="fill:#000000;fill-opacity:1;stroke:none"
     d="M 18.384777,23.79899 0,5.414214 1.414214,4 19.79899,22.384777 18.384777,23.79899 z"
     id="path2833" />
  <path
     style="fill:#000000;fill-opacity:1;stroke:none"
     d="m 8.999999,28.9995 -5.5,-5.5 5.5,-5.5 0,1.413654 -4.086344,4.086346 4.086344,4.086345 0,1.413655 z"
     id="path3018" />
  <path
     style="fill:#000000;fill-opacity:1;stroke:none"
     d="m 19.999999,13 c 1e-6,6.075133 -4.924867,11.000001 -11,11 L 9,23 c 5.522847,0 10,-4.477153 10,-10 l 0,-2 1,0 -1e-6,2 z"
     id="path3020" />
  <path
     id="path3445"
     d="m 18,5.9995 -5.5,-5.5 -5.5,5.5 1.413655,0 L 12.5,1.913155 16.586346,5.9995 18,5.9995 z"
     style="fill:#000000;fill-opacity:1;stroke:none" />
  <path
     id="path3447"
     d="m 2,17 c 6.075133,1e-6 11.000001,-4.924867 11,-11 l -1,1e-6 C 12,11.522848 7.522847,16 2,16.000001 L 0,16 0,17.000001 2,17 z"
     style="fill:#000000;fill-opacity:1;stroke:none" />
</svg>
