<?xml version="1.0" encoding="UTF-8" standalone="no"?>
<svg
   xmlns:dc="http://purl.org/dc/elements/1.1/"
   xmlns:cc="http://creativecommons.org/ns#"
   xmlns:rdf="http://www.w3.org/1999/02/22-rdf-syntax-ns#"
   xmlns:svg="http://www.w3.org/2000/svg"
   xmlns="http://www.w3.org/2000/svg"
   xmlns:sodipodi="http://sodipodi.sourceforge.net/DTD/sodipodi-0.dtd"
   xmlns:inkscape="http://www.inkscape.org/namespaces/inkscape"
   version="1.0"
   width="43"
   height="17"
   id="svg2"
   inkscape:version="0.47 r22583"
   sodipodi:docname="02-05-013-01-02-03.svg">
  <defs
     id="defs16">
    <inkscape:perspective
       sodipodi:type="inkscape:persp3d"
       inkscape:vp_x="0 : 23 : 1"
       inkscape:vp_y="0 : 1000 : 0"
       inkscape:vp_z="36 : 23 : 1"
       inkscape:persp3d-origin="18 : 15.333333 : 1"
       id="perspective18" />
  </defs>
  <sodipodi:namedview
     pagecolor="#ffffff"
     bordercolor="#666666"
     borderopacity="1"
     objecttolerance="10"
     gridtolerance="10"
     guidetolerance="10"
     inkscape:pageopacity="0"
     inkscape:pageshadow="2"
     inkscape:window-width="964"
     inkscape:window-height="721"
     id="namedview14"
     showgrid="true"
     inkscape:zoom="16.309417"
     inkscape:cx="21.500769"
     inkscape:cy="8.500304"
     inkscape:window-x="365"
     inkscape:window-y="0"
     inkscape:window-maximized="0"
     inkscape:current-layer="svg2"
     showborder="true">
    <inkscape:grid
       type="xygrid"
       id="grid2824"
       empspacing="5"
       visible="true"
       enabled="true"
       snapvisiblegridlinesonly="true" />
  </sodipodi:namedview>
  <metadata
     id="metadata4">
Valerie Sutton's pixel definition of the
ISWA 2010 symbol ID 04-01-003-01-01-01
transformed by Stephen E Slevinski Jr
using line and fill polygon tracing
<rdf:RDF>
  <cc:Work
     rdf:about="">
    <dc:format>image/svg+xml</dc:format>
    <dc:type
       rdf:resource="http://purl.org/dc/dcmitype/StillImage" />
    <dc:title></dc:title>
  </cc:Work>
</rdf:RDF>
</metadata>
  <path
     style="fill:#000000;fill-opacity:1;stroke:none"
     d="M 7,8 43,8 43,6 7,6 7,8 z"
     id="path2833" />
  <path
     style="fill:#000000;fill-opacity:1;stroke:none"
     d="m 17,2 c -3.313708,0 -6,2.6862915 -6,6 0,3.313708 2.686292,6 6,6 l 3,0 0,-3 -3,0 C 14.238576,11 12,9.656854 12,8 12,5.2385763 14.238576,3 17,3 l 3,0 0,-1 -3,0 z"
     id="path2910" />
  <path
     style="fill:#000000;fill-opacity:1;stroke:none"
     d="M 19,8 23.5,12.5 19,17 19,8 z m 1,2.40625 0,4.1875 L 22.09375,12.5 20,10.40625 z"
     id="path2964" />
  <path
     style="fill:#000000;fill-opacity:1;stroke:none"
     d="M 7,14 0,7 7,0 7,14 z M 6,11.5625 6,2.4375 1.4375,7 6,11.5625 z"
     id="path2997" />
  <path
     style="fill:#ffffff;fill-opacity:1;stroke:none"
     d="M 6,11.5625 1.4375,7 6,2.4375 l 0,9.125 z"
     id="path2966" />
  <path
     style="fill:#ffffff;fill-opacity:1;stroke:none"
     d="M 20,10.40625 22.09375,12.5 20,14.59375 l 0,-4.1875 z"
     id="path2863" />
  <path
     id="path3279"
     d="m 30,2 c -3.313708,0 -6,2.6862915 -6,6 0,3.313708 2.686292,6 6,6 l 3,0 0,-3 -3,0 C 27.238576,11 25,9.656854 25,8 25,5.2385763 27.238576,3 30,3 l 3,0 0,-1 -3,0 z"
     style="fill:#000000;fill-opacity:1;stroke:none" />
  <path
     id="path3281"
     d="M 32,8 36.5,12.5 32,17 32,8 z m 1,2.40625 0,4.1875 L 35.09375,12.5 33,10.40625 z"
     style="fill:#000000;fill-opacity:1;stroke:none" />
  <path
     id="path3283"
     d="M 33,10.40625 35.09375,12.5 33,14.59375 l 0,-4.1875 z"
     style="fill:#ffffff;fill-opacity:1;stroke:none" />
</svg>
