<?xml version="1.0" encoding="UTF-8" standalone="no"?>
<svg
   xmlns:dc="http://purl.org/dc/elements/1.1/"
   xmlns:cc="http://creativecommons.org/ns#"
   xmlns:rdf="http://www.w3.org/1999/02/22-rdf-syntax-ns#"
   xmlns:svg="http://www.w3.org/2000/svg"
   xmlns="http://www.w3.org/2000/svg"
   xmlns:sodipodi="http://sodipodi.sourceforge.net/DTD/sodipodi-0.dtd"
   xmlns:inkscape="http://www.inkscape.org/namespaces/inkscape"
   version="1.0"
   width="21"
   height="33"
   id="svg2"
   inkscape:version="0.47 r22583"
   sodipodi:docname="02-05-014-01-03-05.svg">
  <defs
     id="defs16">
    <inkscape:perspective
       sodipodi:type="inkscape:persp3d"
       inkscape:vp_x="0 : 23 : 1"
       inkscape:vp_y="0 : 1000 : 0"
       inkscape:vp_z="36 : 23 : 1"
       inkscape:persp3d-origin="18 : 15.333333 : 1"
       id="perspective18" />
  </defs>
  <sodipodi:namedview
     pagecolor="#ffffff"
     bordercolor="#666666"
     borderopacity="1"
     objecttolerance="10"
     gridtolerance="10"
     guidetolerance="10"
     inkscape:pageopacity="0"
     inkscape:pageshadow="2"
     inkscape:window-width="964"
     inkscape:window-height="721"
     id="namedview14"
     showgrid="true"
     inkscape:zoom="14.333333"
     inkscape:cx="10.5"
     inkscape:cy="16.5"
     inkscape:window-x="365"
     inkscape:window-y="0"
     inkscape:window-maximized="0"
     inkscape:current-layer="svg2"
     showborder="true">
    <inkscape:grid
       type="xygrid"
       id="grid2824"
       empspacing="5"
       visible="true"
       enabled="true"
       snapvisiblegridlinesonly="true" />
  </sodipodi:namedview>
  <metadata
     id="metadata4">
Valerie Sutton's pixel definition of the
ISWA 2010 symbol ID 04-01-003-01-01-01
transformed by Stephen E Slevinski Jr
using line and fill polygon tracing
<rdf:RDF>
  <cc:Work
     rdf:about="">
    <dc:format>image/svg+xml</dc:format>
    <dc:type
       rdf:resource="http://purl.org/dc/dcmitype/StillImage" />
    <dc:title></dc:title>
  </cc:Work>
</rdf:RDF>
</metadata>
  <path
     style="fill:#000000;fill-opacity:1;stroke:none"
     d="m 3,26 7,7 7,-7 -2.84375,0 L 10,30.15625 5.84375,26 3,26 z"
     id="path2966" />
  <path
     style="fill:#000000;fill-opacity:1;stroke:none"
     d="M 9,26 9,0 11,0 11,26 9,26 z"
     id="path2833" />
  <path
     style="fill:#000000;fill-opacity:1;stroke:none"
     d="M 21,22.78125 21,15 l -7.78125,0 1,1 5.78125,0 0,5.78125 1,1 z"
     id="path3018" />
  <path
     style="fill:#000000;fill-opacity:1;stroke:none"
     d="m 1.1875,17.125 1.4375,1.40625 c 1.771783,1.435621 4.490753,1.9375 7.0625,1.9375 2.571747,0 5.290718,-0.501879 7.0625,-1.9375 L 17.46875,19.25 c -1.990608,1.990609 -4.743684,3.21875 -7.78125,3.21875 -3.037566,0 -5.790641,-1.228141 -7.78125,-3.21875 L 0.5,17.84375 1.1875,17.125 z"
     id="path3020" />
  <path
     id="path3420"
     d="M 21,12.78125 21,5 l -7.78125,0 1,1 L 20,6 l 0,5.78125 1,1 z"
     style="fill:#000000;fill-opacity:1;stroke:none" />
  <path
     id="path3422"
     d="M 1.1875,7.125 2.625,8.53125 c 1.771783,1.435621 4.490753,1.9375 7.0625,1.9375 2.571747,0 5.290718,-0.501879 7.0625,-1.9375 L 17.46875,9.25 c -1.990608,1.990609 -4.743684,3.21875 -7.78125,3.21875 -3.037566,0 -5.790641,-1.228141 -7.78125,-3.21875 L 0.5,7.84375 1.1875,7.125 z"
     style="fill:#000000;fill-opacity:1;stroke:none" />
</svg>
