<?xml version="1.0" encoding="UTF-8" standalone="no"?>
<svg
   xmlns:dc="http://purl.org/dc/elements/1.1/"
   xmlns:cc="http://creativecommons.org/ns#"
   xmlns:rdf="http://www.w3.org/1999/02/22-rdf-syntax-ns#"
   xmlns:svg="http://www.w3.org/2000/svg"
   xmlns="http://www.w3.org/2000/svg"
   xmlns:sodipodi="http://sodipodi.sourceforge.net/DTD/sodipodi-0.dtd"
   xmlns:inkscape="http://www.inkscape.org/namespaces/inkscape"
   version="1.0"
   width="25"
   height="28"
   id="svg2"
   inkscape:version="0.47 r22583"
   sodipodi:docname="02-05-014-01-02-14.svg">
  <defs
     id="defs16">
    <inkscape:perspective
       sodipodi:type="inkscape:persp3d"
       inkscape:vp_x="0 : 23 : 1"
       inkscape:vp_y="0 : 1000 : 0"
       inkscape:vp_z="36 : 23 : 1"
       inkscape:persp3d-origin="18 : 15.333333 : 1"
       id="perspective18" />
  </defs>
  <sodipodi:namedview
     pagecolor="#ffffff"
     bordercolor="#666666"
     borderopacity="1"
     objecttolerance="10"
     gridtolerance="10"
     guidetolerance="10"
     inkscape:pageopacity="0"
     inkscape:pageshadow="2"
     inkscape:window-width="964"
     inkscape:window-height="721"
     id="namedview14"
     showgrid="true"
     inkscape:zoom="16.892857"
     inkscape:cx="12.5"
     inkscape:cy="14"
     inkscape:window-x="365"
     inkscape:window-y="0"
     inkscape:window-maximized="0"
     inkscape:current-layer="svg2"
     showborder="true">
    <inkscape:grid
       type="xygrid"
       id="grid2824"
       empspacing="5"
       visible="true"
       enabled="true"
       snapvisiblegridlinesonly="true" />
  </sodipodi:namedview>
  <metadata
     id="metadata4">
Valerie Sutton's pixel definition of the
ISWA 2010 symbol ID 04-01-003-01-01-01
transformed by Stephen E Slevinski Jr
using line and fill polygon tracing
<rdf:RDF>
  <cc:Work
     rdf:about="">
    <dc:format>image/svg+xml</dc:format>
    <dc:type
       rdf:resource="http://purl.org/dc/dcmitype/StillImage" />
    <dc:title></dc:title>
  </cc:Work>
</rdf:RDF>
</metadata>
  <path
     style="fill:#000000;fill-opacity:1;stroke:none"
     d="M 19.79899,5.657224 1.414214,24.042 0,22.627787 18.384777,4.243011 19.79899,5.657224 z"
     id="path2833" />
  <path
     style="fill:#000000;fill-opacity:1;stroke:none"
     d="m 9,4.000001 c 6.075133,-1e-6 11.000001,4.924867 11,11 L 19,15 C 19,9.477153 14.522847,5 9,5 l -2,0 0,-1 2,1e-6 z"
     id="path2910" />
  <path
     style="fill:#000000;fill-opacity:1;stroke:none"
     d="M 14,15 25,15 19.5,20.5 14,15 z m 2.40763,0.993976 3.09237,3.092369 3.070281,-3.070281 -6.162651,-0.02209 z"
     id="path2964" />
  <path
     style="fill:#000000;fill-opacity:1;stroke:none"
     d="M 24,9.899495 24,0 14.100505,0 24,9.899495 z m -1.016466,-2.43068 -6.452349,-6.452349 6.452349,0 0,6.452349 z"
     id="path2997" />
  <path
     style="fill:#ffffff;fill-opacity:1;stroke:none"
     d="m 22.983534,7.468815 0,-6.452349 -6.452349,0 6.452349,6.452349 z"
     id="path2966" />
  <path
     style="fill:#ffffff;fill-opacity:1;stroke:none"
     d="m 16.40763,15.993976 6.162651,0.02209 L 19.5,19.086347 16.40763,15.993978 z"
     id="path2863" />
  <path
     id="path3551"
     d="m 2,11.000001 c 6.075133,-10e-7 11.000001,4.924867 11,11 L 12,22 C 12,16.477153 7.522847,12 2,12 l -2,0 0,-1 2,10e-7 z"
     style="fill:#000000;fill-opacity:1;stroke:none" />
  <path
     id="path3553"
     d="M 7,22 18,22 12.500001,27.5 7,22 z m 2.40763,0.993976 3.092371,3.09237 3.07028,-3.070282 -6.162651,-0.02209 z"
     style="fill:#000000;fill-opacity:1;stroke:none" />
  <path
     id="path3555"
     d="m 9.40763,22.993976 6.162651,0.02209 -3.07028,3.070282 -3.092371,-3.09237 z"
     style="fill:#ffffff;fill-opacity:1;stroke:none" />
</svg>
