<?xml version="1.0" encoding="UTF-8" standalone="no"?>
<svg
   xmlns:dc="http://purl.org/dc/elements/1.1/"
   xmlns:cc="http://creativecommons.org/ns#"
   xmlns:rdf="http://www.w3.org/1999/02/22-rdf-syntax-ns#"
   xmlns:svg="http://www.w3.org/2000/svg"
   xmlns="http://www.w3.org/2000/svg"
   xmlns:sodipodi="http://sodipodi.sourceforge.net/DTD/sodipodi-0.dtd"
   xmlns:inkscape="http://www.inkscape.org/namespaces/inkscape"
   version="1.0"
   width="25"
   height="28"
   id="svg2"
   inkscape:version="0.47 r22583"
   sodipodi:docname="02-05-014-01-05-14.svg">
  <defs
     id="defs16">
    <inkscape:perspective
       sodipodi:type="inkscape:persp3d"
       inkscape:vp_x="0 : 23 : 1"
       inkscape:vp_y="0 : 1000 : 0"
       inkscape:vp_z="36 : 23 : 1"
       inkscape:persp3d-origin="18 : 15.333333 : 1"
       id="perspective18" />
  </defs>
  <sodipodi:namedview
     pagecolor="#ffffff"
     bordercolor="#666666"
     borderopacity="1"
     objecttolerance="10"
     gridtolerance="10"
     guidetolerance="10"
     inkscape:pageopacity="0"
     inkscape:pageshadow="2"
     inkscape:window-width="964"
     inkscape:window-height="721"
     id="namedview14"
     showgrid="true"
     inkscape:zoom="16.892857"
     inkscape:cx="12.5"
     inkscape:cy="14"
     inkscape:window-x="365"
     inkscape:window-y="0"
     inkscape:window-maximized="0"
     inkscape:current-layer="svg2"
     showborder="true">
    <inkscape:grid
       type="xygrid"
       id="grid2824"
       empspacing="5"
       visible="true"
       enabled="true"
       snapvisiblegridlinesonly="true" />
  </sodipodi:namedview>
  <metadata
     id="metadata4">
Valerie Sutton's pixel definition of the
ISWA 2010 symbol ID 04-01-003-01-01-01
transformed by Stephen E Slevinski Jr
using line and fill polygon tracing
<rdf:RDF>
  <cc:Work
     rdf:about="">
    <dc:format>image/svg+xml</dc:format>
    <dc:type
       rdf:resource="http://purl.org/dc/dcmitype/StillImage" />
    <dc:title></dc:title>
  </cc:Work>
</rdf:RDF>
</metadata>
  <path
     style="fill:#000000;fill-opacity:1;stroke:none"
     d="M 5.201,5.6572243 23.585776,24.042 24.99999,22.627787 6.6152135,4.2430107 5.201,5.6572243 z"
     id="path2833" />
  <path
     style="fill:#000000;fill-opacity:1;stroke:none"
     d="M 17,4.9999999 C 17,11.075132 12.075133,16 5.9999998,15.999999 L 6.0000005,15 C 11.522847,14.999999 16,10.522847 16.000001,4.9999999 L 16,3 l 1,0 0,1.9999999 z"
     id="path2910" />
  <path
     style="fill:#000000;fill-opacity:1;stroke:none"
     d="m 6.0000002,10 0,11 L 0.50000022,15.5 6.0000002,10 z M 5.0060243,12.407631 1.9136549,15.5 l 3.070281,3.070281 0.022088,-6.16265 z"
     id="path2964" />
  <path
     style="fill:#000000;fill-opacity:1;stroke:none"
     d="M 1,9.8994954 1,0 10.899495,0 1,9.8994954 z m 1.016466,-2.43068 6.4523494,-6.4523494 -6.4523494,0 0,6.4523494 z"
     id="path2997" />
  <path
     style="fill:#ffffff;fill-opacity:1;stroke:none"
     d="m 2.016466,7.4688154 0,-6.4523494 6.4523494,0 -6.4523494,6.4523494 z"
     id="path2966" />
  <path
     style="fill:#ffffff;fill-opacity:1;stroke:none"
     d="M 5.0060243,12.407631 4.983936,18.570281 1.913655,15.5 5.0060244,12.407631 z"
     id="path2863" />
  <path
     id="path3216"
     d="m 24,11.999999 c 0,6.075133 -4.924868,11.000001 -11,11 L 13,22 c 5.522847,-1e-6 10,-4.477154 10.000001,-10.000001 L 23,10 l 1,0 0,1.999999 z"
     style="fill:#000000;fill-opacity:1;stroke:none" />
  <path
     id="path3218"
     d="M 13,17 13,28 7.5,22.5 13,17 z M 12.006024,19.407631 8.9136546,22.5 l 3.0702814,3.070282 0.02209,-6.162651 z"
     style="fill:#000000;fill-opacity:1;stroke:none" />
  <path
     id="path3220"
     d="M 12.006024,19.407631 11.983934,25.570282 8.9136526,22.5 12.006022,19.407631 z"
     style="fill:#ffffff;fill-opacity:1;stroke:none" />
</svg>
