<?xml version="1.0" encoding="UTF-8" standalone="no"?>
<svg
   xmlns:dc="http://purl.org/dc/elements/1.1/"
   xmlns:cc="http://creativecommons.org/ns#"
   xmlns:rdf="http://www.w3.org/1999/02/22-rdf-syntax-ns#"
   xmlns:svg="http://www.w3.org/2000/svg"
   xmlns="http://www.w3.org/2000/svg"
   xmlns:sodipodi="http://sodipodi.sourceforge.net/DTD/sodipodi-0.dtd"
   xmlns:inkscape="http://www.inkscape.org/namespaces/inkscape"
   version="1.0"
   width="28"
   height="25"
   id="svg2"
   inkscape:version="0.47 r22583"
   sodipodi:docname="02-05-014-01-02-10.svg">
  <defs
     id="defs16">
    <inkscape:perspective
       sodipodi:type="inkscape:persp3d"
       inkscape:vp_x="0 : 23 : 1"
       inkscape:vp_y="0 : 1000 : 0"
       inkscape:vp_z="36 : 23 : 1"
       inkscape:persp3d-origin="18 : 15.333333 : 1"
       id="perspective18" />
  </defs>
  <sodipodi:namedview
     pagecolor="#ffffff"
     bordercolor="#666666"
     borderopacity="1"
     objecttolerance="10"
     gridtolerance="10"
     guidetolerance="10"
     inkscape:pageopacity="0"
     inkscape:pageshadow="2"
     inkscape:window-width="964"
     inkscape:window-height="721"
     id="namedview14"
     showgrid="true"
     inkscape:zoom="16.47"
     inkscape:cx="14"
     inkscape:cy="12.5"
     inkscape:window-x="365"
     inkscape:window-y="0"
     inkscape:window-maximized="0"
     inkscape:current-layer="svg2"
     showborder="true">
    <inkscape:grid
       type="xygrid"
       id="grid2824"
       empspacing="5"
       visible="true"
       enabled="true"
       snapvisiblegridlinesonly="true" />
  </sodipodi:namedview>
  <metadata
     id="metadata4">
Valerie Sutton's pixel definition of the
ISWA 2010 symbol ID 04-01-003-01-01-01
transformed by Stephen E Slevinski Jr
using line and fill polygon tracing
<rdf:RDF>
  <cc:Work
     rdf:about="">
    <dc:format>image/svg+xml</dc:format>
    <dc:type
       rdf:resource="http://purl.org/dc/dcmitype/StillImage" />
    <dc:title></dc:title>
  </cc:Work>
</rdf:RDF>
</metadata>
  <path
     style="fill:#000000;fill-opacity:1;stroke:none"
     d="M 5.657224,5.20101 24.042,23.585786 22.627787,25 4.243011,6.615223 5.657224,5.20101 z"
     id="path2833" />
  <path
     style="fill:#000000;fill-opacity:1;stroke:none"
     d="M 4.000001,16 C 4,9.924867 8.924868,4.999999 15.000001,5 L 15,6 C 9.477153,6 5,10.477153 5,16 l 0,2 -1,0 1e-6,-2 z"
     id="path2910" />
  <path
     style="fill:#000000;fill-opacity:1;stroke:none"
     d="M 15,11 15,0 20.5,5.5 15,11 z M 15.993976,8.59237 19.086345,5.5 16.016064,2.429719 15.993974,8.59237 z"
     id="path2964" />
  <path
     style="fill:#000000;fill-opacity:1;stroke:none"
     d="M 9.899495,1 0,1 0,10.899495 9.899495,1 z m -2.43068,1.016466 -6.452349,6.452349 0,-6.452349 6.452349,0 z"
     id="path2997" />
  <path
     style="fill:#ffffff;fill-opacity:1;stroke:none"
     d="m 7.468815,2.016466 -6.452349,0 0,6.452349 6.452349,-6.452349 z"
     id="path2966" />
  <path
     style="fill:#ffffff;fill-opacity:1;stroke:none"
     d="M 15.993976,8.59237 16.016066,2.429719 19.086347,5.5 15.993978,8.59237 z"
     id="path2863" />
  <path
     id="path3551"
     d="m 11.000001,23 c -10e-7,-6.075133 4.924867,-11.000001 11,-11 L 22,13 c -5.522847,0 -10,4.477153 -10,10 l 0,2 -1,0 10e-7,-2 z"
     style="fill:#000000;fill-opacity:1;stroke:none" />
  <path
     id="path3553"
     d="M 22,18 22,7 27.5,12.499999 22,18 z m 0.993976,-2.40763 3.09237,-3.092371 -3.070282,-3.07028 -0.02209,6.162651 z"
     style="fill:#000000;fill-opacity:1;stroke:none" />
  <path
     id="path3555"
     d="m 22.993976,15.59237 0.02209,-6.162651 3.070282,3.07028 -3.09237,3.092371 z"
     style="fill:#ffffff;fill-opacity:1;stroke:none" />
</svg>
