<?xml version="1.0" encoding="UTF-8" standalone="no"?>
<svg
   xmlns:dc="http://purl.org/dc/elements/1.1/"
   xmlns:cc="http://creativecommons.org/ns#"
   xmlns:rdf="http://www.w3.org/1999/02/22-rdf-syntax-ns#"
   xmlns:svg="http://www.w3.org/2000/svg"
   xmlns="http://www.w3.org/2000/svg"
   xmlns:sodipodi="http://sodipodi.sourceforge.net/DTD/sodipodi-0.dtd"
   xmlns:inkscape="http://www.inkscape.org/namespaces/inkscape"
   version="1.0"
   width="28"
   height="25"
   id="svg2"
   inkscape:version="0.47 r22583"
   sodipodi:docname="02-05-014-01-05-16.svg">
  <defs
     id="defs16">
    <inkscape:perspective
       sodipodi:type="inkscape:persp3d"
       inkscape:vp_x="0 : 23 : 1"
       inkscape:vp_y="0 : 1000 : 0"
       inkscape:vp_z="36 : 23 : 1"
       inkscape:persp3d-origin="18 : 15.333333 : 1"
       id="perspective18" />
  </defs>
  <sodipodi:namedview
     pagecolor="#ffffff"
     bordercolor="#666666"
     borderopacity="1"
     objecttolerance="10"
     gridtolerance="10"
     guidetolerance="10"
     inkscape:pageopacity="0"
     inkscape:pageshadow="2"
     inkscape:window-width="964"
     inkscape:window-height="721"
     id="namedview14"
     showgrid="true"
     inkscape:zoom="16.47"
     inkscape:cx="14"
     inkscape:cy="12.5"
     inkscape:window-x="365"
     inkscape:window-y="0"
     inkscape:window-maximized="0"
     inkscape:current-layer="svg2"
     showborder="true">
    <inkscape:grid
       type="xygrid"
       id="grid2824"
       empspacing="5"
       visible="true"
       enabled="true"
       snapvisiblegridlinesonly="true" />
  </sodipodi:namedview>
  <metadata
     id="metadata4">
Valerie Sutton's pixel definition of the
ISWA 2010 symbol ID 04-01-003-01-01-01
transformed by Stephen E Slevinski Jr
using line and fill polygon tracing
<rdf:RDF>
  <cc:Work
     rdf:about="">
    <dc:format>image/svg+xml</dc:format>
    <dc:type
       rdf:resource="http://purl.org/dc/dcmitype/StillImage" />
    <dc:title></dc:title>
  </cc:Work>
</rdf:RDF>
</metadata>
  <path
     style="fill:#000000;fill-opacity:1;stroke:none"
     d="M 22.342776,19.799 3.958,1.414224 5.372213,10e-6 23.756989,18.384787 22.342776,19.799 z"
     id="path2833" />
  <path
     style="fill:#000000;fill-opacity:1;stroke:none"
     d="M 23,8 C 16.924868,8 12,12.924867 12.000001,19 L 13,19 c 10e-7,-5.522847 4.477153,-10 10,-10.000001 L 25,9 25,8 23,8 z"
     id="path2910" />
  <path
     style="fill:#000000;fill-opacity:1;stroke:none"
     d="M 18,19 7,19 12.5,24.5 18,19 z M 15.592369,19.993976 12.5,23.086345 9.429719,20.016064 l 6.16265,-0.02209 z"
     id="path2964" />
  <path
     style="fill:#000000;fill-opacity:1;stroke:none"
     d="M 18.100505,24 28,24 28,14.100505 18.100505,24 z m 2.43068,-1.016466 6.452349,-6.452349 0,6.452349 -6.452349,0 z"
     id="path2997" />
  <path
     style="fill:#ffffff;fill-opacity:1;stroke:none"
     d="m 20.531185,22.983534 6.452349,0 0,-6.452349 -6.452349,6.452349 z"
     id="path2966" />
  <path
     style="fill:#ffffff;fill-opacity:1;stroke:none"
     d="M 15.592369,19.993976 9.429719,20.016066 12.5,23.086345 15.592369,19.993976 z"
     id="path2863" />
  <path
     id="path3216"
     d="M 16.000001,1 C 9.924868,1 5,5.924868 5.000001,12 L 6,12 C 6.000001,6.477153 10.477154,2 16.000001,1.999999 L 18,2 18,1 16.000001,1 z"
     style="fill:#000000;fill-opacity:1;stroke:none" />
  <path
     id="path3218"
     d="M 11,12 0,12 5.5,17.5 11,12 z M 8.592369,12.993976 5.5,16.086346 2.429718,13.016064 8.592369,12.993974 z"
     style="fill:#000000;fill-opacity:1;stroke:none" />
  <path
     id="path3220"
     d="M 8.592369,12.993976 2.429718,13.016066 5.5,16.086348 8.592369,12.993978 z"
     style="fill:#ffffff;fill-opacity:1;stroke:none" />
</svg>
