<?xml version="1.0" encoding="UTF-8" standalone="no"?>
<svg
   xmlns:dc="http://purl.org/dc/elements/1.1/"
   xmlns:cc="http://creativecommons.org/ns#"
   xmlns:rdf="http://www.w3.org/1999/02/22-rdf-syntax-ns#"
   xmlns:svg="http://www.w3.org/2000/svg"
   xmlns="http://www.w3.org/2000/svg"
   xmlns:sodipodi="http://sodipodi.sourceforge.net/DTD/sodipodi-0.dtd"
   xmlns:inkscape="http://www.inkscape.org/namespaces/inkscape"
   version="1.0"
   width="28"
   height="25"
   id="svg2"
   inkscape:version="0.47 r22583"
   sodipodi:docname="02-05-014-01-05-04.svg">
  <defs
     id="defs16">
    <inkscape:perspective
       sodipodi:type="inkscape:persp3d"
       inkscape:vp_x="0 : 23 : 1"
       inkscape:vp_y="0 : 1000 : 0"
       inkscape:vp_z="36 : 23 : 1"
       inkscape:persp3d-origin="18 : 15.333333 : 1"
       id="perspective18" />
  </defs>
  <sodipodi:namedview
     pagecolor="#ffffff"
     bordercolor="#666666"
     borderopacity="1"
     objecttolerance="10"
     gridtolerance="10"
     guidetolerance="10"
     inkscape:pageopacity="0"
     inkscape:pageshadow="2"
     inkscape:window-width="964"
     inkscape:window-height="721"
     id="namedview14"
     showgrid="true"
     inkscape:zoom="16.47"
     inkscape:cx="14"
     inkscape:cy="12.5"
     inkscape:window-x="365"
     inkscape:window-y="0"
     inkscape:window-maximized="0"
     inkscape:current-layer="svg2"
     showborder="true">
    <inkscape:grid
       type="xygrid"
       id="grid2824"
       empspacing="5"
       visible="true"
       enabled="true"
       snapvisiblegridlinesonly="true" />
  </sodipodi:namedview>
  <metadata
     id="metadata4">
Valerie Sutton's pixel definition of the
ISWA 2010 symbol ID 04-01-003-01-01-01
transformed by Stephen E Slevinski Jr
using line and fill polygon tracing
<rdf:RDF>
  <cc:Work
     rdf:about="">
    <dc:format>image/svg+xml</dc:format>
    <dc:type
       rdf:resource="http://purl.org/dc/dcmitype/StillImage" />
    <dc:title></dc:title>
  </cc:Work>
</rdf:RDF>
</metadata>
  <path
     style="fill:#000000;fill-opacity:1;stroke:none"
     d="M 22.342776,5.201 3.958,23.585776 5.372213,24.99999 23.756989,6.615213 22.342776,5.201 z"
     id="path2833" />
  <path
     style="fill:#000000;fill-opacity:1;stroke:none"
     d="M 23,17 C 16.924868,17 12,12.075133 12.000001,6 L 13,6 c 10e-7,5.522847 4.477153,10 10,10.000001 l 2,-1e-6 0,1 -2,0 z"
     id="path2910" />
  <path
     style="fill:#000000;fill-opacity:1;stroke:none"
     d="M 18,6 7,6 12.5,0.5 18,6 z M 15.592369,5.006024 12.5,1.913655 9.429719,4.983936 l 6.16265,0.02209 z"
     id="path2964" />
  <path
     style="fill:#000000;fill-opacity:1;stroke:none"
     d="M 18.100505,1 28,1 28,10.899495 18.100505,1 z m 2.43068,1.016466 6.452349,6.452349 0,-6.452349 -6.452349,0 z"
     id="path2997" />
  <path
     style="fill:#ffffff;fill-opacity:1;stroke:none"
     d="m 20.531185,2.016466 6.452349,0 0,6.452349 -6.452349,-6.452349 z"
     id="path2966" />
  <path
     style="fill:#ffffff;fill-opacity:1;stroke:none"
     d="M 15.592369,5.006024 9.429719,4.983934 12.5,1.913655 15.592369,5.006024 z"
     id="path2863" />
  <path
     id="path3216"
     d="M 16.000001,24 C 9.924868,24 5,19.075132 5.000001,13 L 6,13 c 1e-6,5.522847 4.477154,10 10.000001,10.000001 L 18,23 l 0,1 -1.999999,0 z"
     style="fill:#000000;fill-opacity:1;stroke:none" />
  <path
     id="path3218"
     d="M 11,13 0,13 5.5,7.5 11,13 z M 8.592369,12.006024 5.5,8.913654 l -3.070282,3.070282 6.162651,0.02209 z"
     style="fill:#000000;fill-opacity:1;stroke:none" />
  <path
     id="path3220"
     d="M 8.592369,12.006024 2.429718,11.983934 5.5,8.913652 l 3.092369,3.09237 z"
     style="fill:#ffffff;fill-opacity:1;stroke:none" />
</svg>
