<?xml version="1.0" encoding="UTF-8" standalone="no"?>
<svg
   xmlns:dc="http://purl.org/dc/elements/1.1/"
   xmlns:cc="http://creativecommons.org/ns#"
   xmlns:rdf="http://www.w3.org/1999/02/22-rdf-syntax-ns#"
   xmlns:svg="http://www.w3.org/2000/svg"
   xmlns="http://www.w3.org/2000/svg"
   xmlns:sodipodi="http://sodipodi.sourceforge.net/DTD/sodipodi-0.dtd"
   xmlns:inkscape="http://www.inkscape.org/namespaces/inkscape"
   version="1.0"
   width="28"
   height="25"
   id="svg2"
   inkscape:version="0.47 r22583"
   sodipodi:docname="02-05-014-01-02-12.svg">
  <defs
     id="defs16">
    <inkscape:perspective
       sodipodi:type="inkscape:persp3d"
       inkscape:vp_x="0 : 23 : 1"
       inkscape:vp_y="0 : 1000 : 0"
       inkscape:vp_z="36 : 23 : 1"
       inkscape:persp3d-origin="18 : 15.333333 : 1"
       id="perspective18" />
  </defs>
  <sodipodi:namedview
     pagecolor="#ffffff"
     bordercolor="#666666"
     borderopacity="1"
     objecttolerance="10"
     gridtolerance="10"
     guidetolerance="10"
     inkscape:pageopacity="0"
     inkscape:pageshadow="2"
     inkscape:window-width="964"
     inkscape:window-height="721"
     id="namedview14"
     showgrid="true"
     inkscape:zoom="16.47"
     inkscape:cx="14"
     inkscape:cy="12.5"
     inkscape:window-x="365"
     inkscape:window-y="0"
     inkscape:window-maximized="0"
     inkscape:current-layer="svg2"
     showborder="true">
    <inkscape:grid
       type="xygrid"
       id="grid2824"
       empspacing="5"
       visible="true"
       enabled="true"
       snapvisiblegridlinesonly="true" />
  </sodipodi:namedview>
  <metadata
     id="metadata4">
Valerie Sutton's pixel definition of the
ISWA 2010 symbol ID 04-01-003-01-01-01
transformed by Stephen E Slevinski Jr
using line and fill polygon tracing
<rdf:RDF>
  <cc:Work
     rdf:about="">
    <dc:format>image/svg+xml</dc:format>
    <dc:type
       rdf:resource="http://purl.org/dc/dcmitype/StillImage" />
    <dc:title></dc:title>
  </cc:Work>
</rdf:RDF>
</metadata>
  <path
     style="fill:#000000;fill-opacity:1;stroke:none"
     d="M 5.657224,19.79899 24.042,1.414214 22.627787,0 4.243011,18.384777 5.657224,19.79899 z"
     id="path2833" />
  <path
     style="fill:#000000;fill-opacity:1;stroke:none"
     d="m 4.000001,9 c -1e-6,6.075133 4.924867,11.000001 11,11 L 15,19 C 9.477153,19 5,14.522847 5,9 l 0,-2 -1,0 1e-6,2 z"
     id="path2910" />
  <path
     style="fill:#000000;fill-opacity:1;stroke:none"
     d="M 15,14 15,25 20.5,19.5 15,14 z m 0.993976,2.40763 3.092369,3.09237 -3.070281,3.070281 -0.02209,-6.162651 z"
     id="path2964" />
  <path
     style="fill:#000000;fill-opacity:1;stroke:none"
     d="M 9.899495,24 0,24 0,14.100505 9.899495,24 z m -2.43068,-1.016466 -6.452349,-6.452349 0,6.452349 6.452349,0 z"
     id="path2997" />
  <path
     style="fill:#ffffff;fill-opacity:1;stroke:none"
     d="m 7.468815,22.983534 -6.452349,0 0,-6.452349 6.452349,6.452349 z"
     id="path2966" />
  <path
     style="fill:#ffffff;fill-opacity:1;stroke:none"
     d="m 15.993976,16.40763 0.02209,6.162651 L 19.086347,19.5 15.993978,16.40763 z"
     id="path2863" />
  <path
     id="path3551"
     d="m 11.000001,2 c -10e-7,6.075133 4.924867,11.000001 11,11 L 22,12 C 16.477153,12 12,7.522847 12,2 l 0,-2 -1,0 10e-7,2 z"
     style="fill:#000000;fill-opacity:1;stroke:none" />
  <path
     id="path3553"
     d="M 22,7 22,18 27.5,12.500001 22,7 z m 0.993976,2.40763 3.09237,3.092371 -3.070282,3.07028 -0.02209,-6.162651 z"
     style="fill:#000000;fill-opacity:1;stroke:none" />
  <path
     id="path3555"
     d="m 22.993976,9.40763 0.02209,6.162651 3.070282,-3.07028 -3.09237,-3.092371 z"
     style="fill:#ffffff;fill-opacity:1;stroke:none" />
</svg>
