<?xml version="1.0" encoding="UTF-8" standalone="no"?>
<svg
   xmlns:dc="http://purl.org/dc/elements/1.1/"
   xmlns:cc="http://creativecommons.org/ns#"
   xmlns:rdf="http://www.w3.org/1999/02/22-rdf-syntax-ns#"
   xmlns:svg="http://www.w3.org/2000/svg"
   xmlns="http://www.w3.org/2000/svg"
   xmlns:sodipodi="http://sodipodi.sourceforge.net/DTD/sodipodi-0.dtd"
   xmlns:inkscape="http://www.inkscape.org/namespaces/inkscape"
   version="1.0"
   width="20"
   height="21"
   id="svg2"
   inkscape:version="0.48.2 r9819"
   sodipodi:docname="02-10-006-02-03-06.svg">
  <defs
     id="defs16">
    <inkscape:perspective
       sodipodi:type="inkscape:persp3d"
       inkscape:vp_x="0 : 23 : 1"
       inkscape:vp_y="0 : 1000 : 0"
       inkscape:vp_z="36 : 23 : 1"
       inkscape:persp3d-origin="18 : 15.333333 : 1"
       id="perspective18" />
  </defs>
  <sodipodi:namedview
     pagecolor="#ffffff"
     bordercolor="#666666"
     borderopacity="1"
     objecttolerance="10"
     gridtolerance="10"
     guidetolerance="10"
     inkscape:pageopacity="0"
     inkscape:pageshadow="2"
     inkscape:window-width="964"
     inkscape:window-height="721"
     id="namedview14"
     showgrid="true"
     inkscape:zoom="17.065173"
     inkscape:cx="9.9981888"
     inkscape:cy="10.498098"
     inkscape:window-x="365"
     inkscape:window-y="0"
     inkscape:window-maximized="0"
     inkscape:current-layer="svg2"
     showborder="true">
    <inkscape:grid
       type="xygrid"
       id="grid2824"
       empspacing="5"
       visible="true"
       enabled="true"
       snapvisiblegridlinesonly="true" />
  </sodipodi:namedview>
  <metadata
     id="metadata4">
Valerie Sutton's pixel definition of the
ISWA 2010 symbol ID 04-01-003-01-01-01
transformed by Stephen E Slevinski Jr
using line and fill polygon tracing
<rdf:RDF>
  <cc:Work
     rdf:about="">
    <dc:format>image/svg+xml</dc:format>
    <dc:type
       rdf:resource="http://purl.org/dc/dcmitype/StillImage" />
    <dc:title />
  </cc:Work>
</rdf:RDF>
</metadata>
  <path
     style="fill:#000000;fill-opacity:1;stroke:none"
     d="M 14,6 C 14,3.238576 10.865993,1 7,1 3.134007,1 0,3.238576 0,6 c 0,2.761424 3.134007,5 7,5 3.865993,0 7,-2.238576 7,-5 z M 12.5,6 7,6 1.5,6 C 1.5,4.067003 3.962434,2.5 7,2.5 c 3.037566,0 5.5,1.567003 5.5,3.5 z"
     id="path2818"
     inkscape:connector-curvature="0" />
  <path
     style="fill:#ffffff;fill-opacity:1;stroke:none"
     d="M 7 2.5 C 3.9624339 2.5000001 1.4999999 4.0670034 1.5 6 L 7 6 L 12.5 6 C 12.5 4.0670034 10.037566 2.4999999 7 2.5 z "
     id="path2826" />
  <path
     style="fill:#000000;fill-opacity:1;stroke:none"
     d="m 10,18 0,-8 1.5,1.5 0,5 5,0 1.5,1.5 -8,0 z"
     id="path2831" />
  <path
     style="fill:#000000;fill-opacity:1;stroke:none"
     d="m 20,7 c 0,1.791456 -0.695665,3.570665 -2.0625,4.9375 l -3.15625,2.84375 -1.375,-1.375 3.125,-2.875 C 17.436072,9.626428 18,8.380712 18,7 18,5.619288 17.436072,4.373572 16.53125,3.46875 L 14.21875,1.40625 15.625,0 17.9375,2.0625 C 19.304335,3.429335 20,5.208544 20,7 z"
     id="path2833" />
  <path
     id="path2816"
     d="m 7,21 0,-8 1.5,1.5 0,5 5,0 1.5,1.5 -8,0 z"
     style="fill:#000000;fill-opacity:1;stroke:none" />
</svg>
