<?xml version="1.0" encoding="UTF-8" standalone="no"?>
<svg
   xmlns:dc="http://purl.org/dc/elements/1.1/"
   xmlns:cc="http://creativecommons.org/ns#"
   xmlns:rdf="http://www.w3.org/1999/02/22-rdf-syntax-ns#"
   xmlns:svg="http://www.w3.org/2000/svg"
   xmlns="http://www.w3.org/2000/svg"
   xmlns:sodipodi="http://sodipodi.sourceforge.net/DTD/sodipodi-0.dtd"
   xmlns:inkscape="http://www.inkscape.org/namespaces/inkscape"
   version="1.0"
   width="21"
   height="20"
   id="svg2"
   inkscape:version="0.48.2 r9819"
   sodipodi:docname="02-10-006-02-02-03.svg">
  <defs
     id="defs16">
    <inkscape:perspective
       sodipodi:type="inkscape:persp3d"
       inkscape:vp_x="0 : 23 : 1"
       inkscape:vp_y="0 : 1000 : 0"
       inkscape:vp_z="36 : 23 : 1"
       inkscape:persp3d-origin="18 : 15.333333 : 1"
       id="perspective18" />
  </defs>
  <sodipodi:namedview
     pagecolor="#ffffff"
     bordercolor="#666666"
     borderopacity="1"
     objecttolerance="10"
     gridtolerance="10"
     guidetolerance="10"
     inkscape:pageopacity="0"
     inkscape:pageshadow="2"
     inkscape:window-width="964"
     inkscape:window-height="721"
     id="namedview14"
     showgrid="true"
     inkscape:zoom="16.719951"
     inkscape:cx="10.496883"
     inkscape:cy="9.997031"
     inkscape:window-x="365"
     inkscape:window-y="0"
     inkscape:window-maximized="0"
     inkscape:current-layer="svg2"
     showborder="true">
    <inkscape:grid
       type="xygrid"
       id="grid2824"
       empspacing="5"
       visible="true"
       enabled="true"
       snapvisiblegridlinesonly="true" />
  </sodipodi:namedview>
  <metadata
     id="metadata4">
Valerie Sutton's pixel definition of the
ISWA 2010 symbol ID 04-01-003-01-01-01
transformed by Stephen E Slevinski Jr
using line and fill polygon tracing
<rdf:RDF>
  <cc:Work
     rdf:about="">
    <dc:format>image/svg+xml</dc:format>
    <dc:type
       rdf:resource="http://purl.org/dc/dcmitype/StillImage" />
    <dc:title />
  </cc:Work>
</rdf:RDF>
</metadata>
  <path
     style="fill:#000000;fill-opacity:1;stroke:none"
     d="M 6,14 C 8.761424,14 11,10.865993 11,7 11,3.134007 8.761424,0 6,0 3.238576,0 1,3.134007 1,7 c 0,3.865993 2.238576,7 5,7 z M 6,12.5 6,7 6,1.5 c 1.932997,0 3.5,2.462434 3.5,5.5 0,3.037566 -1.567003,5.5 -3.5,5.5 z"
     id="path2818"
     inkscape:connector-curvature="0" />
  <path
     style="fill:#ffffff;fill-opacity:1;stroke:none"
     d="M 6 1.5 L 6 7 L 6 12.5 C 7.9329966 12.5 9.5000001 10.037566 9.5 7 C 9.4999999 3.9624339 7.9329966 1.4999999 6 1.5 z "
     id="path2826" />
  <path
     style="fill:#000000;fill-opacity:1;stroke:none"
     d="m 10,10 8,8 0,-8 -8,0 z M 12.40625,11 17,11 17,15.5625 12.40625,11 z"
     id="path2831"
     inkscape:connector-curvature="0" />
  <path
     style="fill:#000000;fill-opacity:1;stroke:none"
     d="m 7,20 c 1.791456,0 3.570665,-0.695665 4.9375,-2.0625 l 2.84375,-3.15625 -1.375,-1.375 -2.875,3.125 C 9.626428,17.436072 8.380712,18 7,18 5.619288,18 4.373572,17.436072 3.46875,16.53125 L 1.40625,14.21875 0,15.625 2.0625,17.9375 C 3.429335,19.304335 5.208544,20 7,20 z"
     id="path2833"
     inkscape:connector-curvature="0" />
  <path
     style="fill:#ffffff;fill-opacity:1;stroke:none"
     d="M 12.40625,11 17,15.5625 17,11 12.40625,11 z"
     id="path3125"
     inkscape:connector-curvature="0" />
  <path
     id="path2817"
     d="m 13,7 8,8 0,-8 -8,0 z M 15.40625,8 20,8 20,12.5625 15.40625,8 z"
     style="fill:#000000;fill-opacity:1;stroke:none"
     inkscape:connector-curvature="0" />
  <path
     id="path2819"
     d="M 15.40625,8 20,12.5625 20,8 15.40625,8 z"
     style="fill:#ffffff;fill-opacity:1;stroke:none"
     inkscape:connector-curvature="0" />
</svg>
