<?xml version="1.0" encoding="UTF-8" standalone="no"?>
<svg
   xmlns:dc="http://purl.org/dc/elements/1.1/"
   xmlns:cc="http://creativecommons.org/ns#"
   xmlns:rdf="http://www.w3.org/1999/02/22-rdf-syntax-ns#"
   xmlns:svg="http://www.w3.org/2000/svg"
   xmlns="http://www.w3.org/2000/svg"
   xmlns:sodipodi="http://sodipodi.sourceforge.net/DTD/sodipodi-0.dtd"
   xmlns:inkscape="http://www.inkscape.org/namespaces/inkscape"
   version="1.0"
   width="20"
   height="21"
   id="svg2"
   inkscape:version="0.48.2 r9819"
   sodipodi:docname="02-10-006-02-02-05.svg">
  <defs
     id="defs16">
    <inkscape:perspective
       sodipodi:type="inkscape:persp3d"
       inkscape:vp_x="0 : 23 : 1"
       inkscape:vp_y="0 : 1000 : 0"
       inkscape:vp_z="36 : 23 : 1"
       inkscape:persp3d-origin="18 : 15.333333 : 1"
       id="perspective18" />
  </defs>
  <sodipodi:namedview
     pagecolor="#ffffff"
     bordercolor="#666666"
     borderopacity="1"
     objecttolerance="10"
     gridtolerance="10"
     guidetolerance="10"
     inkscape:pageopacity="0"
     inkscape:pageshadow="2"
     inkscape:window-width="964"
     inkscape:window-height="721"
     id="namedview14"
     showgrid="true"
     inkscape:zoom="17.065173"
     inkscape:cx="9.9981888"
     inkscape:cy="10.498098"
     inkscape:window-x="365"
     inkscape:window-y="0"
     inkscape:window-maximized="0"
     inkscape:current-layer="svg2"
     showborder="true">
    <inkscape:grid
       type="xygrid"
       id="grid2824"
       empspacing="5"
       visible="true"
       enabled="true"
       snapvisiblegridlinesonly="true" />
  </sodipodi:namedview>
  <metadata
     id="metadata4">
Valerie Sutton's pixel definition of the
ISWA 2010 symbol ID 04-01-003-01-01-01
transformed by Stephen E Slevinski Jr
using line and fill polygon tracing
<rdf:RDF>
  <cc:Work
     rdf:about="">
    <dc:format>image/svg+xml</dc:format>
    <dc:type
       rdf:resource="http://purl.org/dc/dcmitype/StillImage" />
    <dc:title />
  </cc:Work>
</rdf:RDF>
</metadata>
  <path
     style="fill:#000000;fill-opacity:1;stroke:none"
     d="m 6,15 c 0,-2.761424 3.134007,-5 7,-5 3.865993,0 7,2.238576 7,5 0,2.761424 -3.134007,5 -7,5 -3.865993,0 -7,-2.238576 -7,-5 z m 1.5,0 5.5,0 5.5,0 c 0,-1.932997 -2.462434,-3.5 -5.5,-3.5 -3.037566,0 -5.5,1.567003 -5.5,3.5 z"
     id="path2818"
     inkscape:connector-curvature="0" />
  <path
     style="fill:#ffffff;fill-opacity:1;stroke:none"
     d="M 13 11.5 C 9.9624339 11.5 7.5000001 13.067003 7.5 15 L 13 15 L 18.5 15 C 18.5 13.067003 16.037566 11.5 13 11.5 z "
     id="path2826" />
  <path
     style="fill:#000000;fill-opacity:1;stroke:none"
     d="m 10,11 -8,-8 8,0 0,8 z M 9,8.59375 9,4 4.4375,4 9,8.59375 z"
     id="path2831"
     inkscape:connector-curvature="0" />
  <path
     style="fill:#000000;fill-opacity:1;stroke:none"
     d="M 0,14 C 0,12.208544 0.695665,10.429335 2.0625,9.0625 l 3.15625,-2.84375 1.375,1.375 -3.125,2.875 C 2.563928,11.373572 2,12.619288 2,14 c 0,1.380712 0.563928,2.626428 1.46875,3.53125 l 2.3125,2.0625 L 4.375,21 2.0625,18.9375 C 0.695665,17.570665 0,15.791456 0,14 z"
     id="path2833"
     inkscape:connector-curvature="0" />
  <path
     style="fill:#ffffff;fill-opacity:1;stroke:none"
     d="M 9,8.59375 4.4375,4 9,4 9,8.59375 z"
     id="path3125"
     inkscape:connector-curvature="0" />
  <path
     id="path2817"
     d="M 13,8 5,0 13,0 13,8 z M 12,5.59375 12,1 7.4375,1 12,5.59375 z"
     style="fill:#000000;fill-opacity:1;stroke:none"
     inkscape:connector-curvature="0" />
  <path
     id="path2819"
     d="M 12,5.59375 7.4375,1 12,1 12,5.59375 z"
     style="fill:#ffffff;fill-opacity:1;stroke:none"
     inkscape:connector-curvature="0" />
</svg>
