<?xml version="1.0" encoding="UTF-8" standalone="no"?>
<svg
   xmlns:dc="http://purl.org/dc/elements/1.1/"
   xmlns:cc="http://creativecommons.org/ns#"
   xmlns:rdf="http://www.w3.org/1999/02/22-rdf-syntax-ns#"
   xmlns:svg="http://www.w3.org/2000/svg"
   xmlns="http://www.w3.org/2000/svg"
   xmlns:sodipodi="http://sodipodi.sourceforge.net/DTD/sodipodi-0.dtd"
   xmlns:inkscape="http://www.inkscape.org/namespaces/inkscape"
   version="1.0"
   width="25"
   height="42"
   id="svg2"
   inkscape:version="0.47 r22583"
   sodipodi:docname="02-03-020-02-03-01.svg">
  <defs
     id="defs16">
    <inkscape:perspective
       sodipodi:type="inkscape:persp3d"
       inkscape:vp_x="0 : 23 : 1"
       inkscape:vp_y="0 : 1000 : 0"
       inkscape:vp_z="36 : 23 : 1"
       inkscape:persp3d-origin="18 : 15.333333 : 1"
       id="perspective18" />
  </defs>
  <sodipodi:namedview
     pagecolor="#ffffff"
     bordercolor="#666666"
     borderopacity="1"
     objecttolerance="10"
     gridtolerance="10"
     guidetolerance="10"
     inkscape:pageopacity="0"
     inkscape:pageshadow="2"
     inkscape:window-width="964"
     inkscape:window-height="721"
     id="namedview14"
     showgrid="true"
     inkscape:zoom="11.261905"
     inkscape:cx="12.5"
     inkscape:cy="21"
     inkscape:window-x="365"
     inkscape:window-y="0"
     inkscape:window-maximized="0"
     inkscape:current-layer="svg2"
     showborder="true">
    <inkscape:grid
       type="xygrid"
       id="grid2824"
       empspacing="5"
       visible="true"
       enabled="true"
       snapvisiblegridlinesonly="true" />
  </sodipodi:namedview>
  <metadata
     id="metadata4">
Valerie Sutton's pixel definition of the
ISWA 2010 symbol ID 04-01-003-01-01-01
transformed by Stephen E Slevinski Jr
using line and fill polygon tracing
<rdf:RDF>
  <cc:Work
     rdf:about="">
    <dc:format>image/svg+xml</dc:format>
    <dc:type
       rdf:resource="http://purl.org/dc/dcmitype/StillImage" />
    <dc:title />
  </cc:Work>
</rdf:RDF>
</metadata>
  <path
     style="fill:#000000;fill-opacity:1;stroke:none"
     d="M 13,0 5,8 7.5,8 13,2.5 18.5,8 21,8 13,0 z"
     id="path2966" />
  <path
     style="fill:#000000;fill-opacity:1;stroke:none"
     d="M 9,8 9,42 11,42 11,8 9,8 z"
     id="path2831" />
  <path
     style="fill:#000000;fill-opacity:1;stroke:none"
     d="m 15,8 0,34 2,0 0,-34 -2,0 z"
     id="path2833" />
  <path
     style="fill:#ffffff;fill-opacity:1;stroke:none"
     d="m 8,23 c -3.3137085,0 -6,1.343146 -6,3 0,1.656854 2.6862915,3 6,3 l 1,0 0,5 2,0 0,-6 -2,0 0,-5 -1,0 z m 9,0 0,5.875 -2,-2 0,9.25 3.25,-3.25 C 18.504239,32.82777 18.746568,32.764695 19,32.71875 L 19,28.8125 C 21.329993,28.400558 23,27.306079 23,26 23,24.343146 20.313708,23 17,23 z"
     id="rect2821" />
  <path
     style="fill:#ffffff;fill-opacity:1;stroke:none"
     d="m 11,8 0,34 4,0 0,-34 -4,0 z"
     id="rect3145" />
  <path
     style="fill:#000000;fill-opacity:1;stroke:none"
     d="M 8 22 C 3.581722 22 0 24.462434 0 27.5 C 0 30.537566 3.581722 33 8 33 L 11 33 L 11 29 L 8 29 C 4.6862915 29 2 27.656854 2 26 C 2 24.343146 4.6862915 23 8 23 L 9 23 L 9 22 L 8 22 z M 17 22 L 17 23 C 20.313708 23 23 24.343146 23 26 C 23 27.306079 21.329993 28.400558 19 28.8125 L 19 32.8125 C 22.450797 32.202103 25 30.062946 25 27.5 C 25 24.462434 21.418278 22 17 22 z "
     id="rect2942" />
  <path
     style="fill:#000000;fill-opacity:1;stroke:none"
     d="m 12,26 0,2 3.5,3.5 L 12,35 12,37 17.5,31.5 12,26 z"
     id="path3055" />
  <path
     style="fill:#000000;fill-opacity:1;stroke:none"
     d="m 8,13 c -4.418278,0 -8,2.238576 -8,5 0,2.761424 3.581722,5 8,5 l 9,0 c 4.418278,0 8,-2.238576 8,-5 0,-2.761424 -3.581722,-5 -8,-5 l 0,1 c 3.313708,0 6,1.343146 6,3 0,1.656854 -2.686292,3 -6,3 L 8,20 C 4.6862915,20 2,18.656854 2,17 2,15.343146 4.6862915,14 8,14 l 1,0 0,-1 -1,0 z"
     id="path3001" />
  <path
     style="fill:#ffffff;fill-opacity:1;stroke:none"
     d="m 8,14 c -3.3137085,0 -6,1.343146 -6,3 0,1.656854 2.6862915,3 6,3 l 1,0 0,-6 -1,0 z m 9,0 0,6 c 3.313708,0 6,-1.343146 6,-3 0,-1.656854 -2.686292,-3 -6,-3 z"
     id="path3005" />
</svg>
