<?xml version="1.0" encoding="UTF-8" standalone="no"?>
<svg
   xmlns:dc="http://purl.org/dc/elements/1.1/"
   xmlns:cc="http://creativecommons.org/ns#"
   xmlns:rdf="http://www.w3.org/1999/02/22-rdf-syntax-ns#"
   xmlns:svg="http://www.w3.org/2000/svg"
   xmlns="http://www.w3.org/2000/svg"
   xmlns:sodipodi="http://sodipodi.sourceforge.net/DTD/sodipodi-0.dtd"
   xmlns:inkscape="http://www.inkscape.org/namespaces/inkscape"
   version="1.0"
   width="13"
   height="13"
   id="svg2"
   inkscape:version="0.47 r22583"
   sodipodi:docname="02-01-017-01-02-03.svg">
  <defs
     id="defs14">
    <inkscape:perspective
       sodipodi:type="inkscape:persp3d"
       inkscape:vp_x="0 : 5.5 : 1"
       inkscape:vp_y="0 : 1000 : 0"
       inkscape:vp_z="10 : 5.5 : 1"
       inkscape:persp3d-origin="5 : 3.6666667 : 1"
       id="perspective16" />
  </defs>
  <sodipodi:namedview
     pagecolor="#ffffff"
     bordercolor="#666666"
     borderopacity="1"
     objecttolerance="10"
     gridtolerance="10"
     guidetolerance="10"
     inkscape:pageopacity="0"
     inkscape:pageshadow="2"
     inkscape:window-width="917"
     inkscape:window-height="792"
     id="namedview12"
     showgrid="true"
     inkscape:zoom="21.458847"
     inkscape:cx="7.5417196"
     inkscape:cy="6.0677329"
     inkscape:window-x="313"
     inkscape:window-y="0"
     inkscape:window-maximized="0"
     inkscape:current-layer="svg2">
    <inkscape:grid
       type="xygrid"
       id="grid2822" />
  </sodipodi:namedview>
  <metadata
     id="metadata4">
Valerie Sutton's pixel definition of the
ISWA 2010 symbol ID 02-01-001-01-01-01
transformed by Stephen E Slevinski Jr
using line and fill polygon tracing
<rdf:RDF>
  <cc:Work
     rdf:about="">
    <dc:format>image/svg+xml</dc:format>
    <dc:type
       rdf:resource="http://purl.org/dc/dcmitype/StillImage" />
    <dc:title></dc:title>
  </cc:Work>
</rdf:RDF>
</metadata>
  <path
     style="fill:#000000;fill-opacity:1;stroke:none"
     d="M 0.843,11.449748 1.5501067,12.156854 12.156708,1.5502525 11.449601,0.8431458 0.843,11.449748 z"
     id="rect3212" />
  <path
     style="fill:#000000;fill-opacity:1;stroke:none"
     d="m 2.9643203,3.6715729 c -1.5620972,1.5620971 -1.5620972,4.0947571 0,5.6568542 L 3.6714271,8.6213203 c -1.1715729,-1.1715728 -1.1715729,-3.0710678 0,-4.2426406 L 4.3785339,3.6715729 C 5.5501067,2.5 7.4496017,2.5 8.6211745,3.6715729 L 9.3282812,2.9644661 c -1.562097,-1.5620972 -4.094757,-1.5620972 -5.6568541,0 L 2.9643203,3.6715729 z"
     id="path3230" />
  <path
     style="fill:#ffffff;fill-opacity:1;stroke:none"
     d="m 3.6714271,4.3786797 c -1.1715729,1.1715728 -1.1715729,3.0710678 0,4.2426406 L 8.6211745,3.6715729 C 7.4496017,2.5 5.5501067,2.5 4.3785339,3.6715729 L 3.6714271,4.3786797 z"
     id="path3242" />
  <path
     id="path3322"
     d="m 9.3282812,10.035534 c -1.562097,1.562097 -4.094757,1.562097 -5.6568541,0 L 4.3785339,9.3284271 C 5.5501067,10.5 7.4496017,10.5 8.6211745,9.3284271 L 9.3282812,8.6213203 c 1.1715728,-1.1715728 1.1715728,-3.0710678 0,-4.2426406 L 10.035388,3.6715729 c 1.562097,1.5620971 1.562097,4.0947571 0,5.6568542 L 9.3282812,10.035534 z"
     style="fill:#000000;fill-opacity:1;stroke:none" />
  <path
     id="path3324"
     d="M 8.6211745,9.3284271 C 7.4496017,10.5 5.5501067,10.5 4.3785339,9.3284271 L 9.3282812,4.3786797 c 1.1715728,1.1715728 1.1715728,3.0710678 0,4.2426406 L 8.6211745,9.3284271 z"
     style="fill:#ffffff;fill-opacity:1;stroke:none" />
</svg>
