<?xml version="1.0" encoding="UTF-8" standalone="no"?>
<svg
   xmlns:dc="http://purl.org/dc/elements/1.1/"
   xmlns:cc="http://creativecommons.org/ns#"
   xmlns:rdf="http://www.w3.org/1999/02/22-rdf-syntax-ns#"
   xmlns:svg="http://www.w3.org/2000/svg"
   xmlns="http://www.w3.org/2000/svg"
   xmlns:sodipodi="http://sodipodi.sourceforge.net/DTD/sodipodi-0.dtd"
   xmlns:inkscape="http://www.inkscape.org/namespaces/inkscape"
   version="1.0"
   width="9"
   height="15"
   id="svg2"
   inkscape:version="0.47 r22583"
   sodipodi:docname="02-01-017-01-01-04.svg">
  <defs
     id="defs14">
    <inkscape:perspective
       sodipodi:type="inkscape:persp3d"
       inkscape:vp_x="0 : 5.5 : 1"
       inkscape:vp_y="0 : 1000 : 0"
       inkscape:vp_z="10 : 5.5 : 1"
       inkscape:persp3d-origin="5 : 3.6666667 : 1"
       id="perspective16" />
  </defs>
  <sodipodi:namedview
     pagecolor="#ffffff"
     bordercolor="#666666"
     borderopacity="1"
     objecttolerance="10"
     gridtolerance="10"
     guidetolerance="10"
     inkscape:pageopacity="0"
     inkscape:pageshadow="2"
     inkscape:window-width="917"
     inkscape:window-height="792"
     id="namedview12"
     showgrid="true"
     inkscape:zoom="21.458847"
     inkscape:cx="3.8136535"
     inkscape:cy="6.0677329"
     inkscape:window-x="313"
     inkscape:window-y="0"
     inkscape:window-maximized="0"
     inkscape:current-layer="svg2">
    <inkscape:grid
       type="xygrid"
       id="grid2822" />
  </sodipodi:namedview>
  <metadata
     id="metadata4">
Valerie Sutton's pixel definition of the
ISWA 2010 symbol ID 02-01-001-01-01-01
transformed by Stephen E Slevinski Jr
using line and fill polygon tracing
<rdf:RDF>
  <cc:Work
     rdf:about="">
    <dc:format>image/svg+xml</dc:format>
    <dc:type
       rdf:resource="http://purl.org/dc/dcmitype/StillImage" />
    <dc:title></dc:title>
  </cc:Work>
</rdf:RDF>
</metadata>
  <path
     style="fill:#000000;fill-opacity:1;stroke:none"
     d="M 4.0000007,15 5.0000003,15 5.0000001,-2.2e-7 4,0 l 7e-7,15 z"
     id="rect3212" />
  <path
     style="fill:#000000;fill-opacity:1;stroke:none"
     d="M 2e-7,7.9999998 C 2e-7,10.209139 1.7908613,12 4.0000001,12 l 3e-7,-1.000001 C 2.343146,11 1.0000002,9.6568539 1.0000005,7.9999995 l 0,-1 c -1e-7,-1.6568542 1.3431457,-3 2.9999999,-3 l -1e-7,-0.9999999 C 1.7908614,2.9999994 4e-7,4.7908605 5e-7,6.9999995 L 2e-7,7.9999998 z"
     id="path3230" />
  <path
     style="fill:#ffffff;fill-opacity:1;stroke:none"
     d="M 1.0000005,7.9999995 C 1.0000002,9.6568539 2.343146,11 4.0000004,10.999999 l 0,-6.9999995 c -1.6568542,0 -3,1.3431458 -2.9999999,3 l 0,1 z"
     id="path3242" />
  <path
     id="path3322"
     d="M 9.0000002,7.9999996 C 9.0000002,10.209138 7.2091393,12 5.0000004,12 l 0,-1.000001 c 1.6568542,0 3,-1.3431454 3,-2.9999995 l -10e-8,-1 c 0,-1.6568541 -1.3431458,-2.9999999 -2.9999999,-2.9999999 l 0,-1 c 2.2091388,0 3.9999998,1.7908611 3.9999998,3.9999999 l 0,1.0000001 z"
     style="fill:#000000;fill-opacity:1;stroke:none" />
  <path
     id="path3324"
     d="m 8.0000004,7.9999995 c 0,1.6568541 -1.3431458,2.9999995 -3,2.9999995 l 0,-6.9999994 c 1.6568541,0 2.9999999,1.3431458 2.9999999,2.9999999 l 10e-8,1 z"
     style="fill:#ffffff;fill-opacity:1;stroke:none" />
</svg>
