<?xml version="1.0" encoding="UTF-8" standalone="no"?>
<svg
   xmlns:dc="http://purl.org/dc/elements/1.1/"
   xmlns:cc="http://creativecommons.org/ns#"
   xmlns:rdf="http://www.w3.org/1999/02/22-rdf-syntax-ns#"
   xmlns:svg="http://www.w3.org/2000/svg"
   xmlns="http://www.w3.org/2000/svg"
   xmlns:sodipodi="http://sodipodi.sourceforge.net/DTD/sodipodi-0.dtd"
   xmlns:inkscape="http://www.inkscape.org/namespaces/inkscape"
   version="1.0"
   width="13"
   height="13"
   id="svg2"
   inkscape:version="0.47 r22583"
   sodipodi:docname="02-01-017-01-02-02.svg">
  <defs
     id="defs14">
    <inkscape:perspective
       sodipodi:type="inkscape:persp3d"
       inkscape:vp_x="0 : 5.5 : 1"
       inkscape:vp_y="0 : 1000 : 0"
       inkscape:vp_z="10 : 5.5 : 1"
       inkscape:persp3d-origin="5 : 3.6666667 : 1"
       id="perspective16" />
  </defs>
  <sodipodi:namedview
     pagecolor="#ffffff"
     bordercolor="#666666"
     borderopacity="1"
     objecttolerance="10"
     gridtolerance="10"
     guidetolerance="10"
     inkscape:pageopacity="0"
     inkscape:pageshadow="2"
     inkscape:window-width="917"
     inkscape:window-height="792"
     id="namedview12"
     showgrid="true"
     inkscape:zoom="21.458847"
     inkscape:cx="7.5417196"
     inkscape:cy="6.0677329"
     inkscape:window-x="313"
     inkscape:window-y="0"
     inkscape:window-maximized="0"
     inkscape:current-layer="svg2">
    <inkscape:grid
       type="xygrid"
       id="grid2822" />
  </sodipodi:namedview>
  <metadata
     id="metadata4">
Valerie Sutton's pixel definition of the
ISWA 2010 symbol ID 02-01-001-01-01-01
transformed by Stephen E Slevinski Jr
using line and fill polygon tracing
<rdf:RDF>
  <cc:Work
     rdf:about="">
    <dc:format>image/svg+xml</dc:format>
    <dc:type
       rdf:resource="http://purl.org/dc/dcmitype/StillImage" />
    <dc:title></dc:title>
  </cc:Work>
</rdf:RDF>
</metadata>
  <path
     style="fill:#000000;fill-opacity:1;stroke:none"
     d="M 0.12496122,2.2389613 10.749961,12.863961 l 0.6875,-0.71875 -10.59374978,-10.5937497 -0.71875,0.6875 z"
     id="rect3212" />
  <path
     style="fill:#000000;fill-opacity:1;stroke:none"
     d="m 2.9644663,10.731641 c 1.5620972,1.562097 4.0947571,1.562097 5.6568542,0 L 7.9142138,10.024534 c -1.1715729,1.171573 -3.0710679,1.171573 -4.2426407,0 L 2.9644663,9.3174274 c -1.1715728,-1.1715728 -1.1715728,-3.0710678 0,-4.2426407 L 2.2573595,4.36768 c -1.56209721,1.5620971 -1.56209721,4.094757 0,5.656854 l 0.7071068,0.707107 z"
     id="path3230" />
  <path
     style="fill:#ffffff;fill-opacity:1;stroke:none"
     d="m 3.6715731,10.024534 c 1.1715728,1.171573 3.0710678,1.171573 4.2426407,0 L 2.9644663,5.0747867 c -1.1715728,1.1715729 -1.1715728,3.0710679 0,4.2426407 l 0.7071068,0.7071066 z"
     id="path3242" />
  <path
     id="path3322"
     d="m 10.742641,2.9534663 c 1.562097,1.5620973 1.562097,4.0947572 0,5.6568543 L 10.035534,7.9032139 c 1.171573,-1.1715729 1.171573,-3.0710679 0,-4.2426406 L 9.3284272,2.9534663 c -1.1715727,-1.171573 -3.0710677,-1.171573 -4.2426406,0 L 4.3786799,2.2463593 c 1.5620971,-1.56209702 4.094757,-1.56209702 5.6568541,0 l 0.707107,0.707107 z"
     style="fill:#000000;fill-opacity:1;stroke:none" />
  <path
     id="path3324"
     d="m 10.035534,3.6605733 c 1.171573,1.1715727 1.171573,3.0710677 0,4.2426406 L 5.0857866,2.9534663 c 1.1715729,-1.171573 3.0710679,-1.171573 4.2426406,0 l 0.7071068,0.707107 z"
     style="fill:#ffffff;fill-opacity:1;stroke:none" />
  <path
     style="fill:#ffffff;fill-opacity:1;stroke:none"
     d="M 0.84371122,1.5514613 11.437461,12.145211 12.156211,11.426461 1.5624612,0.83271128 0.84371122,1.5514613 z"
     id="rect3356" />
  <rect
     style="fill:#000000;fill-opacity:1;stroke:none"
     id="rect3358"
     width="15"
     height="1"
     x="-16.68461"
     y="0.50777853"
     transform="matrix(-0.70710678,-0.70710678,0.70710678,-0.70710678,0,0)" />
  <rect
     style="fill:#000000;fill-opacity:1;stroke:none"
     id="rect3384"
     height="1"
     x="-4.9889612"
     y="5.9999614"
     width="0"
     transform="matrix(0,-1,1,0,0,0)" />
</svg>
