<?xml version="1.0" encoding="UTF-8" standalone="no"?>
<svg
   xmlns:dc="http://purl.org/dc/elements/1.1/"
   xmlns:cc="http://creativecommons.org/ns#"
   xmlns:rdf="http://www.w3.org/1999/02/22-rdf-syntax-ns#"
   xmlns:svg="http://www.w3.org/2000/svg"
   xmlns="http://www.w3.org/2000/svg"
   xmlns:sodipodi="http://sodipodi.sourceforge.net/DTD/sodipodi-0.dtd"
   xmlns:inkscape="http://www.inkscape.org/namespaces/inkscape"
   version="1.0"
   width="15"
   height="9"
   id="svg2"
   inkscape:version="0.47 r22583"
   sodipodi:docname="02-01-016-01-02-01.svg">
  <defs
     id="defs14">
    <inkscape:perspective
       sodipodi:type="inkscape:persp3d"
       inkscape:vp_x="0 : 5.5 : 1"
       inkscape:vp_y="0 : 1000 : 0"
       inkscape:vp_z="10 : 5.5 : 1"
       inkscape:persp3d-origin="5 : 3.6666667 : 1"
       id="perspective16" />
  </defs>
  <sodipodi:namedview
     pagecolor="#ffffff"
     bordercolor="#666666"
     borderopacity="1"
     objecttolerance="10"
     gridtolerance="10"
     guidetolerance="10"
     inkscape:pageopacity="0"
     inkscape:pageshadow="2"
     inkscape:window-width="917"
     inkscape:window-height="792"
     id="namedview12"
     showgrid="true"
     inkscape:zoom="21.458847"
     inkscape:cx="7.5417196"
     inkscape:cy="4.2036999"
     inkscape:window-x="313"
     inkscape:window-y="0"
     inkscape:window-maximized="0"
     inkscape:current-layer="svg2">
    <inkscape:grid
       type="xygrid"
       id="grid2822" />
  </sodipodi:namedview>
  <metadata
     id="metadata4">
Valerie Sutton's pixel definition of the
ISWA 2010 symbol ID 02-01-001-01-01-01
transformed by Stephen E Slevinski Jr
using line and fill polygon tracing
<rdf:RDF>
  <cc:Work
     rdf:about="">
    <dc:format>image/svg+xml</dc:format>
    <dc:type
       rdf:resource="http://purl.org/dc/dcmitype/StillImage" />
    <dc:title></dc:title>
  </cc:Work>
</rdf:RDF>
</metadata>
  <rect
     style="fill:#000000;fill-opacity:1;stroke:none"
     id="rect3212"
     width="15"
     height="1"
     x="0"
     y="4" />
  <path
     style="fill:#000000;fill-opacity:1;stroke:none"
     d="M 7,0 C 4.790861,0 3,1.790861 3,4 L 4,4 C 4,2.3431458 5.3431458,1 7,1 l 1,0 c 1.6568542,0 3,1.3431458 3,3 l 1,0 C 12,1.790861 10.209139,0 8,0 L 7,0 z"
     id="path3230" />
  <path
     style="fill:#ffffff;fill-opacity:1;stroke:none"
     d="M 7,1 C 5.3431458,1 4,2.3431458 4,4 l 7,0 C 11,2.3431458 9.6568542,1 8,1 L 7,1 z"
     id="path3242" />
  <path
     id="path3322"
     d="M 7,9 C 4.790861,9 3,7.209139 3,5 l 1,0 c 0,1.6568542 1.3431458,3 3,3 l 1,0 c 1.6568542,0 3,-1.3431458 3,-3 l 1,0 C 12,7.209139 10.209139,9 8,9 L 7,9 z"
     style="fill:#000000;fill-opacity:1;stroke:none" />
  <path
     id="path3324"
     d="M 7,8 C 5.3431458,8 4,6.6568542 4,5 l 7,0 C 11,6.6568542 9.6568542,8 8,8 L 7,8 z"
     style="fill:#ffffff;fill-opacity:1;stroke:none" />
</svg>
