<?xml version="1.0" encoding="UTF-8" standalone="no"?>
<svg
   xmlns:dc="http://purl.org/dc/elements/1.1/"
   xmlns:cc="http://creativecommons.org/ns#"
   xmlns:rdf="http://www.w3.org/1999/02/22-rdf-syntax-ns#"
   xmlns:svg="http://www.w3.org/2000/svg"
   xmlns="http://www.w3.org/2000/svg"
   xmlns:sodipodi="http://sodipodi.sourceforge.net/DTD/sodipodi-0.dtd"
   xmlns:inkscape="http://www.inkscape.org/namespaces/inkscape"
   version="1.0"
   width="13"
   height="13"
   id="svg2"
   inkscape:version="0.47 r22583"
   sodipodi:docname="02-01-017-01-02-01.svg">
  <defs
     id="defs14">
    <inkscape:perspective
       sodipodi:type="inkscape:persp3d"
       inkscape:vp_x="0 : 5.5 : 1"
       inkscape:vp_y="0 : 1000 : 0"
       inkscape:vp_z="10 : 5.5 : 1"
       inkscape:persp3d-origin="5 : 3.6666667 : 1"
       id="perspective16" />
  </defs>
  <sodipodi:namedview
     pagecolor="#ffffff"
     bordercolor="#666666"
     borderopacity="1"
     objecttolerance="10"
     gridtolerance="10"
     guidetolerance="10"
     inkscape:pageopacity="0"
     inkscape:pageshadow="2"
     inkscape:window-width="917"
     inkscape:window-height="792"
     id="namedview12"
     showgrid="true"
     inkscape:zoom="21.458847"
     inkscape:cx="7.5417196"
     inkscape:cy="6.0677329"
     inkscape:window-x="313"
     inkscape:window-y="0"
     inkscape:window-maximized="0"
     inkscape:current-layer="svg2">
    <inkscape:grid
       type="xygrid"
       id="grid2822" />
  </sodipodi:namedview>
  <metadata
     id="metadata4">
Valerie Sutton's pixel definition of the
ISWA 2010 symbol ID 02-01-001-01-01-01
transformed by Stephen E Slevinski Jr
using line and fill polygon tracing
<rdf:RDF>
  <cc:Work
     rdf:about="">
    <dc:format>image/svg+xml</dc:format>
    <dc:type
       rdf:resource="http://purl.org/dc/dcmitype/StillImage" />
    <dc:title></dc:title>
  </cc:Work>
</rdf:RDF>
</metadata>
  <path
     style="fill:#000000;fill-opacity:1;stroke:none"
     d="M 10.75 0.125 L 0.125 10.75 L 0.84375 11.4375 L 11.4375 0.84375 L 10.75 0.125 z "
     id="rect3212" />
  <path
     style="fill:#000000;fill-opacity:1;stroke:none"
     d="m 2.2573203,2.9645051 c -1.56209717,1.5620972 -1.56209717,4.0947571 0,5.6568542 L 2.9644271,7.9142526 c -1.1715728,-1.1715729 -1.1715728,-3.0710679 0,-4.2426407 L 3.6715339,2.9645051 c 1.1715728,-1.1715728 3.0710678,-1.1715728 4.2426407,0 L 8.6212813,2.2573983 c -1.5620971,-1.56209723 -4.094757,-1.56209723 -5.6568542,0 L 2.2573203,2.9645051 z"
     id="path3230" />
  <path
     style="fill:#ffffff;fill-opacity:1;stroke:none"
     d="m 2.9644271,3.6716119 c -1.1715728,1.1715728 -1.1715728,3.0710678 0,4.2426407 L 7.9141746,2.9645051 c -1.1715729,-1.1715728 -3.0710679,-1.1715728 -4.2426407,0 L 2.9644271,3.6716119 z"
     id="path3242" />
  <path
     id="path3322"
     d="m 10.035495,10.74268 c -1.5620973,1.562097 -4.0947572,1.562097 -5.6568543,0 l 0.7071067,-0.707107 c 1.1715729,1.171573 3.0710679,1.171573 4.2426406,0 l 0.707107,-0.707107 c 1.171573,-1.1715727 1.171573,-3.0710677 0,-4.2426406 l 0.707107,-0.7071067 c 1.562097,1.5620971 1.562097,4.094757 0,5.6568543 l -0.707107,0.707107 z"
     style="fill:#000000;fill-opacity:1;stroke:none" />
  <path
     id="path3324"
     d="m 9.328388,10.035573 c -1.1715727,1.171573 -3.0710677,1.171573 -4.2426406,0 L 10.035495,5.0858254 c 1.171573,1.1715729 1.171573,3.0710679 0,4.2426406 l -0.707107,0.707107 z"
     style="fill:#ffffff;fill-opacity:1;stroke:none" />
  <path
     style="fill:#ffffff;fill-opacity:1;stroke:none"
     d="M 11.4375 0.84375 L 0.84375 11.4375 L 1.5625 12.15625 L 12.15625 1.5625 L 11.4375 0.84375 z "
     id="rect3356" />
  <rect
     style="fill:#000000;fill-opacity:1;stroke:none"
     id="rect3358"
     width="15"
     height="1"
     x="-7.5000548"
     y="9.6923885"
     transform="matrix(0.70710678,-0.70710678,0.70710678,0.70710678,0,0)" />
  <rect
     style="fill:#000000;fill-opacity:1;stroke:none"
     id="rect3384"
     height="1"
     x="8"
     y="6" />
</svg>
