<?xml version="1.0" encoding="UTF-8" standalone="no"?>
<svg
   xmlns:dc="http://purl.org/dc/elements/1.1/"
   xmlns:cc="http://creativecommons.org/ns#"
   xmlns:rdf="http://www.w3.org/1999/02/22-rdf-syntax-ns#"
   xmlns:svg="http://www.w3.org/2000/svg"
   xmlns="http://www.w3.org/2000/svg"
   xmlns:sodipodi="http://sodipodi.sourceforge.net/DTD/sodipodi-0.dtd"
   xmlns:inkscape="http://www.inkscape.org/namespaces/inkscape"
   version="1.0"
   width="11"
   height="15"
   id="svg2"
   inkscape:version="0.47 r22583"
   sodipodi:docname="02-01-017-01-02-04.svg">
  <defs
     id="defs14">
    <inkscape:perspective
       sodipodi:type="inkscape:persp3d"
       inkscape:vp_x="0 : 5.5 : 1"
       inkscape:vp_y="0 : 1000 : 0"
       inkscape:vp_z="10 : 5.5 : 1"
       inkscape:persp3d-origin="5 : 3.6666667 : 1"
       id="perspective16" />
  </defs>
  <sodipodi:namedview
     pagecolor="#ffffff"
     bordercolor="#666666"
     borderopacity="1"
     objecttolerance="10"
     gridtolerance="10"
     guidetolerance="10"
     inkscape:pageopacity="0"
     inkscape:pageshadow="2"
     inkscape:window-width="917"
     inkscape:window-height="792"
     id="namedview12"
     showgrid="true"
     inkscape:zoom="21.458847"
     inkscape:cx="7.5417196"
     inkscape:cy="7.931766"
     inkscape:window-x="313"
     inkscape:window-y="0"
     inkscape:window-maximized="0"
     inkscape:current-layer="svg2">
    <inkscape:grid
       type="xygrid"
       id="grid2822" />
  </sodipodi:namedview>
  <metadata
     id="metadata4">
Valerie Sutton's pixel definition of the
ISWA 2010 symbol ID 02-01-001-01-01-01
transformed by Stephen E Slevinski Jr
using line and fill polygon tracing
<rdf:RDF>
  <cc:Work
     rdf:about="">
    <dc:format>image/svg+xml</dc:format>
    <dc:type
       rdf:resource="http://purl.org/dc/dcmitype/StillImage" />
    <dc:title></dc:title>
  </cc:Work>
</rdf:RDF>
</metadata>
  <path
     style="fill:#000000;fill-opacity:1;stroke:none"
     d="m 4,0 0,15.026019 0.994369,-0.0221 -1e-7,-14.98182494 L 4,-3.04e-6 z"
     id="rect3212" />
  <path
     style="fill:#000000;fill-opacity:1;stroke:none"
     d="m 0.0026019,8.0130647 c 1e-7,2.2091393 1.7908611,4.0000003 3.9999999,4.0000003 l 3e-7,-1.000001 c -1.6568544,10e-7 -3.0000002,-1.3431452 -3,-2.9999995 l -2e-7,-0.9999998 c 0,-1.6568542 1.3431458,-3 3,-3.0000001 l -1e-7,-0.9999999 c -2.2091389,-1e-7 -3.9999999,1.7908609 -3.9999998,3.9999998 l -1e-7,1.0000002 z"
     id="path3230" />
  <path
     style="fill:#ffffff;fill-opacity:1;stroke:none"
     d="m 1.0026021,8.0130645 c -2e-7,1.6568543 1.3431456,3.0000005 3,3.0000005 l -2e-7,-7.0000004 c -1.6568542,1e-7 -3,1.3431459 -3,3.0000001 l 2e-7,0.9999998 z"
     id="path3242" />
  <path
     id="path3322"
     d="m 11.002602,8.0130647 c 0,2.2091393 -1.7908609,4.0000003 -4,4.0000003 l -2e-7,-1 c 1.6568543,0 3.0000002,-1.3431461 3.0000002,-3.0000003 l 0,-1.0000002 c 0,-1.6568542 -1.3431457,-3 -3.0000001,-2.9999999 l 2e-7,-1.0000001 c 2.209139,0 3.9999999,1.790861 3.9999999,3.9999999 l 0,1.0000003 z"
     style="fill:#000000;fill-opacity:1;stroke:none" />
  <path
     id="path3324"
     d="m 10.002602,8.0130647 c 0,1.6568542 -1.3431459,3.0000003 -3.0000002,3.0000003 l 1e-7,-7.0000004 c 1.6568544,-1e-7 3.0000001,1.3431457 3.0000001,2.9999999 l 0,1.0000002 z"
     style="fill:#ffffff;fill-opacity:1;stroke:none" />
  <path
     style="fill:#ffffff;fill-opacity:1;stroke:none"
     d="m 4.9943689,0.02209706 1e-7,14.98182494 1.016466,0 -1e-7,-14.98182497 -1.016466,3e-8 z"
     id="rect3356" />
  <rect
     style="fill:#000000;fill-opacity:1;stroke:none"
     id="rect3358"
     width="15"
     height="1"
     x="-15.013064"
     y="6.0026026"
     transform="matrix(0,-1,1,0,0,0)" />
  <rect
     style="fill:#000000;fill-opacity:1;stroke:none"
     id="rect3384"
     height="1"
     x="0.07842727"
     y="8.7034273"
     width="0"
     transform="matrix(0.70710678,-0.70710678,0.70710678,0.70710678,0,0)" />
</svg>
