<?xml version="1.0" encoding="UTF-8" standalone="no"?>
<svg
   xmlns:dc="http://purl.org/dc/elements/1.1/"
   xmlns:cc="http://creativecommons.org/ns#"
   xmlns:rdf="http://www.w3.org/1999/02/22-rdf-syntax-ns#"
   xmlns:svg="http://www.w3.org/2000/svg"
   xmlns="http://www.w3.org/2000/svg"
   xmlns:sodipodi="http://sodipodi.sourceforge.net/DTD/sodipodi-0.dtd"
   xmlns:inkscape="http://www.inkscape.org/namespaces/inkscape"
   version="1.0"
   width="13"
   height="13"
   id="svg2"
   inkscape:version="0.47 r22583"
   sodipodi:docname="02-01-017-01-01-02.svg">
  <defs
     id="defs14">
    <inkscape:perspective
       sodipodi:type="inkscape:persp3d"
       inkscape:vp_x="0 : 5.5 : 1"
       inkscape:vp_y="0 : 1000 : 0"
       inkscape:vp_z="10 : 5.5 : 1"
       inkscape:persp3d-origin="5 : 3.6666667 : 1"
       id="perspective16" />
  </defs>
  <sodipodi:namedview
     pagecolor="#ffffff"
     bordercolor="#666666"
     borderopacity="1"
     objecttolerance="10"
     gridtolerance="10"
     guidetolerance="10"
     inkscape:pageopacity="0"
     inkscape:pageshadow="2"
     inkscape:window-width="917"
     inkscape:window-height="792"
     id="namedview12"
     showgrid="true"
     inkscape:zoom="21.458847"
     inkscape:cx="7.5417196"
     inkscape:cy="6.0677329"
     inkscape:window-x="313"
     inkscape:window-y="0"
     inkscape:window-maximized="0"
     inkscape:current-layer="svg2">
    <inkscape:grid
       type="xygrid"
       id="grid2822" />
  </sodipodi:namedview>
  <metadata
     id="metadata4">
Valerie Sutton's pixel definition of the
ISWA 2010 symbol ID 02-01-001-01-01-01
transformed by Stephen E Slevinski Jr
using line and fill polygon tracing
<rdf:RDF>
  <cc:Work
     rdf:about="">
    <dc:format>image/svg+xml</dc:format>
    <dc:type
       rdf:resource="http://purl.org/dc/dcmitype/StillImage" />
    <dc:title></dc:title>
  </cc:Work>
</rdf:RDF>
</metadata>
  <path
     style="fill:#000000;fill-opacity:1;stroke:none"
     d="M 11.449602,12.156854 12.156708,11.449747 1.5501066,0.8431459 0.8429999,1.5502529 11.449602,12.156854 z"
     id="rect3212" />
  <path
     style="fill:#000000;fill-opacity:1;stroke:none"
     d="m 3.671427,10.035534 c 1.5620971,1.562097 4.0947571,1.562097 5.6568542,0 L 8.6211744,9.3284268 C 7.4496016,10.5 5.5501066,10.5 4.3785338,9.3284268 L 3.671427,8.62132 c -1.1715729,-1.1715728 -1.1715729,-3.0710678 0,-4.2426406 L 2.9643202,3.6715727 c -1.5620972,1.562097 -1.5620972,4.094757 0,5.6568541 L 3.671427,10.035534 z"
     id="path3230" />
  <path
     style="fill:#ffffff;fill-opacity:1;stroke:none"
     d="M 4.3785338,9.3284268 C 5.5501066,10.5 7.4496016,10.5 8.6211744,9.3284268 L 3.671427,4.3786794 c -1.1715729,1.1715728 -1.1715729,3.0710678 0,4.2426406 l 0.7071068,0.7071068 z"
     id="path3242" />
  <path
     id="path3322"
     d="m 10.035388,3.6715727 c 1.562097,1.562097 1.562097,4.094757 0,5.6568541 L 9.3282812,8.62132 c 1.1715728,-1.1715728 1.1715728,-3.0710678 0,-4.2426406 L 8.6211744,3.6715727 c -1.1715728,-1.1715728 -3.0710678,-1.1715728 -4.2426406,0 L 3.671427,2.9644659 c 1.5620971,-1.562097 4.0947571,-1.562097 5.6568542,0 l 0.7071068,0.7071068 z"
     style="fill:#000000;fill-opacity:1;stroke:none" />
  <path
     id="path3324"
     d="m 9.3282812,4.3786794 c 1.1715728,1.1715728 1.1715728,3.0710678 0,4.2426406 L 4.3785338,3.6715727 c 1.1715728,-1.1715728 3.0710678,-1.1715728 4.2426406,0 l 0.7071068,0.7071067 z"
     style="fill:#ffffff;fill-opacity:1;stroke:none" />
</svg>
