<?xml version="1.0" encoding="UTF-8" standalone="no"?>
<svg
   xmlns:dc="http://purl.org/dc/elements/1.1/"
   xmlns:cc="http://creativecommons.org/ns#"
   xmlns:rdf="http://www.w3.org/1999/02/22-rdf-syntax-ns#"
   xmlns:svg="http://www.w3.org/2000/svg"
   xmlns="http://www.w3.org/2000/svg"
   xmlns:sodipodi="http://sodipodi.sourceforge.net/DTD/sodipodi-0.dtd"
   xmlns:inkscape="http://www.inkscape.org/namespaces/inkscape"
   version="1.0"
   width="29"
   height="22"
   id="svg2"
   inkscape:version="0.47 r22583"
   sodipodi:docname="02-08-013-01-04-05.svg">
  <defs
     id="defs16">
    <inkscape:perspective
       sodipodi:type="inkscape:persp3d"
       inkscape:vp_x="0 : 23 : 1"
       inkscape:vp_y="0 : 1000 : 0"
       inkscape:vp_z="36 : 23 : 1"
       inkscape:persp3d-origin="18 : 15.333333 : 1"
       id="perspective18" />
  </defs>
  <sodipodi:namedview
     pagecolor="#ffffff"
     bordercolor="#666666"
     borderopacity="1"
     objecttolerance="10"
     gridtolerance="10"
     guidetolerance="10"
     inkscape:pageopacity="0"
     inkscape:pageshadow="2"
     inkscape:window-width="964"
     inkscape:window-height="721"
     id="namedview14"
     showgrid="true"
     inkscape:zoom="16.300086"
     inkscape:cx="14.5"
     inkscape:cy="11"
     inkscape:window-x="365"
     inkscape:window-y="0"
     inkscape:window-maximized="0"
     inkscape:current-layer="svg2"
     showborder="true">
    <inkscape:grid
       type="xygrid"
       id="grid2824"
       empspacing="5"
       visible="true"
       enabled="true"
       snapvisiblegridlinesonly="true" />
  </sodipodi:namedview>
  <metadata
     id="metadata4">
Valerie Sutton's pixel definition of the
ISWA 2010 symbol ID 04-01-003-01-01-01
transformed by Stephen E Slevinski Jr
using line and fill polygon tracing
<rdf:RDF>
  <cc:Work
     rdf:about="">
    <dc:format>image/svg+xml</dc:format>
    <dc:type
       rdf:resource="http://purl.org/dc/dcmitype/StillImage" />
    <dc:title></dc:title>
  </cc:Work>
</rdf:RDF>
</metadata>
  <path
     style="fill:#000000;fill-opacity:1;stroke:none"
     d="M 0.636039,5 7,5 7,11.363961 0.636039,5 z"
     id="path2839" />
  <path
     style="fill:#000000;fill-opacity:1;stroke:none"
     d="M 21.142136,0.0502525 9.1213204,12.071068 c -1.1715727,1.171573 -2.7544857,1.488155 -3.535534,0.707107 -0.7810482,-0.781048 -0.7810482,-2.047379 0,-2.8284273 L 2.0502525,6.4142136 c -1.5620971,1.5620971 -1.5620971,4.0947574 0,5.6568544 l 0.7071068,0.707107 c 1.9526217,1.952622 5.1184462,1.952622 7.0710678,0 L 21.849243,0.7573593 21.142136,0.0502525 z"
     id="rect3127" />
  <path
     id="path2840"
     d="M 22.636039,8 29,8 29,14.363961 22.636039,8 z"
     style="fill:#000000;fill-opacity:1;stroke:none" />
  <path
     id="path2842"
     d="m 26.171573,11.535534 -9.192388,9.192388 c -1.562098,1.562098 -4.094758,1.562098 -5.656855,0 -1.9526217,-1.952621 -1.9526217,-5.118446 0,-7.071067 l 3.535534,3.535534 c -1.171572,1.171572 -1.646446,2.596194 -1.06066,3.18198 0.585786,0.585786 2.010408,0.110913 3.181981,-1.06066 l 8.485281,-8.485281 0.707107,0.707106 z"
     style="fill:#000000;fill-opacity:1;stroke:none" />
</svg>
