<?xml version="1.0" encoding="UTF-8" standalone="no"?>
<svg
   xmlns:dc="http://purl.org/dc/elements/1.1/"
   xmlns:cc="http://creativecommons.org/ns#"
   xmlns:rdf="http://www.w3.org/1999/02/22-rdf-syntax-ns#"
   xmlns:svg="http://www.w3.org/2000/svg"
   xmlns="http://www.w3.org/2000/svg"
   xmlns:sodipodi="http://sodipodi.sourceforge.net/DTD/sodipodi-0.dtd"
   xmlns:inkscape="http://www.inkscape.org/namespaces/inkscape"
   version="1.0"
   width="30"
   height="23"
   id="svg2"
   inkscape:version="0.47 r22583"
   sodipodi:docname="02-08-013-01-04-07.svg">
  <defs
     id="defs16">
    <inkscape:perspective
       sodipodi:type="inkscape:persp3d"
       inkscape:vp_x="0 : 23 : 1"
       inkscape:vp_y="0 : 1000 : 0"
       inkscape:vp_z="36 : 23 : 1"
       inkscape:persp3d-origin="18 : 15.333333 : 1"
       id="perspective18" />
  </defs>
  <sodipodi:namedview
     pagecolor="#ffffff"
     bordercolor="#666666"
     borderopacity="1"
     objecttolerance="10"
     gridtolerance="10"
     guidetolerance="10"
     inkscape:pageopacity="0"
     inkscape:pageshadow="2"
     inkscape:window-width="964"
     inkscape:window-height="721"
     id="namedview14"
     showgrid="true"
     inkscape:zoom="16.701291"
     inkscape:cx="15"
     inkscape:cy="11.5"
     inkscape:window-x="365"
     inkscape:window-y="0"
     inkscape:window-maximized="0"
     inkscape:current-layer="svg2"
     showborder="true">
    <inkscape:grid
       type="xygrid"
       id="grid2824"
       empspacing="5"
       visible="true"
       enabled="true"
       snapvisiblegridlinesonly="true" />
  </sodipodi:namedview>
  <metadata
     id="metadata4">
Valerie Sutton's pixel definition of the
ISWA 2010 symbol ID 04-01-003-01-01-01
transformed by Stephen E Slevinski Jr
using line and fill polygon tracing
<rdf:RDF>
  <cc:Work
     rdf:about="">
    <dc:format>image/svg+xml</dc:format>
    <dc:type
       rdf:resource="http://purl.org/dc/dcmitype/StillImage" />
    <dc:title></dc:title>
  </cc:Work>
</rdf:RDF>
</metadata>
  <path
     style="fill:#000000;fill-opacity:1;stroke:none"
     d="M 8.6360393,13 15,13 15,19.363961 8.6360393,13 z"
     id="path2839" />
  <path
     style="fill:#000000;fill-opacity:1;stroke:none"
     d="M 29.142137,8.0502526 17.121321,20.071068 c -1.171573,1.171573 -2.754486,1.488155 -3.535534,0.707107 -0.781048,-0.781048 -0.781048,-2.047379 0,-2.828427 l -3.535534,-3.535534 c -1.5620967,1.562097 -1.5620967,4.094757 0,5.656854 l 0.707107,0.707107 c 1.952621,1.952622 5.118446,1.952622 7.071068,0 L 29.849244,8.7573598 29.142137,8.0502526 z"
     id="rect3127" />
  <path
     id="path2840"
     d="M 13.636039,0 20,0 20,6.3639611 13.636039,0 z"
     style="fill:#000000;fill-opacity:1;stroke:none" />
  <path
     id="path2842"
     d="M 17.171573,3.5355339 7.9791843,12.727922 c -1.562097,1.562097 -4.094757,1.562097 -5.656854,0 -1.952622,-1.952621 -1.952622,-5.1184461 0,-7.0710677 l 3.535534,3.5355335 c -1.171573,1.1715732 -1.646447,2.5961952 -1.06066,3.1819812 0.585786,0.585786 2.010408,0.110912 3.18198,-1.06066 l 8.4852817,-8.4852818 0.707107,0.7071067 z"
     style="fill:#000000;fill-opacity:1;stroke:none" />
</svg>
