<?xml version="1.0" encoding="UTF-8" standalone="no"?>
<svg
   xmlns:dc="http://purl.org/dc/elements/1.1/"
   xmlns:cc="http://creativecommons.org/ns#"
   xmlns:rdf="http://www.w3.org/1999/02/22-rdf-syntax-ns#"
   xmlns:svg="http://www.w3.org/2000/svg"
   xmlns="http://www.w3.org/2000/svg"
   xmlns:sodipodi="http://sodipodi.sourceforge.net/DTD/sodipodi-0.dtd"
   xmlns:inkscape="http://www.inkscape.org/namespaces/inkscape"
   version="1.0"
   width="38"
   height="31"
   id="svg2"
   inkscape:version="0.47 r22583"
   sodipodi:docname="02-08-014-01-01-07.svg">
  <defs
     id="defs16">
    <inkscape:perspective
       sodipodi:type="inkscape:persp3d"
       inkscape:vp_x="0 : 23 : 1"
       inkscape:vp_y="0 : 1000 : 0"
       inkscape:vp_z="36 : 23 : 1"
       inkscape:persp3d-origin="18 : 15.333333 : 1"
       id="perspective18" />
  </defs>
  <sodipodi:namedview
     pagecolor="#ffffff"
     bordercolor="#666666"
     borderopacity="1"
     objecttolerance="10"
     gridtolerance="10"
     guidetolerance="10"
     inkscape:pageopacity="0"
     inkscape:pageshadow="2"
     inkscape:window-width="964"
     inkscape:window-height="721"
     id="namedview14"
     showgrid="true"
     inkscape:zoom="15.258065"
     inkscape:cx="19"
     inkscape:cy="15.5"
     inkscape:window-x="365"
     inkscape:window-y="0"
     inkscape:window-maximized="0"
     inkscape:current-layer="svg2"
     showborder="true">
    <inkscape:grid
       type="xygrid"
       id="grid2824"
       empspacing="5"
       visible="true"
       enabled="true"
       snapvisiblegridlinesonly="true" />
  </sodipodi:namedview>
  <metadata
     id="metadata4">
Valerie Sutton's pixel definition of the
ISWA 2010 symbol ID 04-01-003-01-01-01
transformed by Stephen E Slevinski Jr
using line and fill polygon tracing
<rdf:RDF>
  <cc:Work
     rdf:about="">
    <dc:format>image/svg+xml</dc:format>
    <dc:type
       rdf:resource="http://purl.org/dc/dcmitype/StillImage" />
    <dc:title></dc:title>
  </cc:Work>
</rdf:RDF>
</metadata>
  <path
     style="fill:#000000;fill-opacity:1;stroke:none"
     d="M 12.100505,16 22,16 22,25.899495 12.100505,16 z"
     id="path2839" />
  <path
     style="fill:#000000;fill-opacity:1;stroke:none"
     d="M 37.55635,16 24.828427,28.727922 c -1.952621,1.952622 -5.118446,1.952622 -7.071068,0 l -2.12132,-2.12132 c -2.343145,-2.343145 -2.659728,-5.825553 -0.707107,-7.778175 l 4.242641,4.242641 C 18,24.242641 18,26.142136 19.171573,27.313709 c 1.171573,1.171573 3.071068,1.171573 4.242641,0 L 36.142136,14.585787 37.55635,16 z"
     id="path3173" />
  <path
     style="fill:#000000;fill-opacity:1;stroke:none"
     d="M 5.0294374,0.4436512 4.3223314,1.1507579 17.757359,14.585787 18.464466,13.87868 5.0294374,0.4436512 z M 24.12132,19.535534 l -0.707106,0.707107 8.485282,8.485281 0.707106,-0.707106 -8.485282,-8.485282 z"
     id="rect2835" />
  <path
     id="path3406"
     d="M 13.100505,2 23,2 23,11.899495 13.100505,2 z"
     style="fill:#000000;fill-opacity:1;stroke:none" />
  <path
     id="path3408"
     d="m 18.757359,7.6568543 -8.485281,8.4852807 c -1.5620976,1.562098 -4.0947566,1.562098 -5.6568546,0 L 3.2010104,14.727922 C 0.46734042,11.994252 0.15075842,7.8786793 2.4939034,5.5355339 l 4.949748,4.9497471 c -1.562098,1.562097 -2.195262,3.461593 -1.414214,4.242641 0.781048,0.781048 2.047379,0.781048 2.828427,0 l 8.4852806,-8.4852813 1.414214,1.4142136 z"
     style="fill:#000000;fill-opacity:1;stroke:none" />
</svg>
