<?xml version="1.0" encoding="UTF-8" standalone="no"?>
<svg
   xmlns:dc="http://purl.org/dc/elements/1.1/"
   xmlns:cc="http://creativecommons.org/ns#"
   xmlns:rdf="http://www.w3.org/1999/02/22-rdf-syntax-ns#"
   xmlns:svg="http://www.w3.org/2000/svg"
   xmlns="http://www.w3.org/2000/svg"
   xmlns:sodipodi="http://sodipodi.sourceforge.net/DTD/sodipodi-0.dtd"
   xmlns:inkscape="http://www.inkscape.org/namespaces/inkscape"
   version="1.0"
   width="35"
   height="32"
   id="svg2"
   inkscape:version="0.47 r22583"
   sodipodi:docname="02-08-014-01-01-05.svg">
  <defs
     id="defs16">
    <inkscape:perspective
       sodipodi:type="inkscape:persp3d"
       inkscape:vp_x="0 : 23 : 1"
       inkscape:vp_y="0 : 1000 : 0"
       inkscape:vp_z="36 : 23 : 1"
       inkscape:persp3d-origin="18 : 15.333333 : 1"
       id="perspective18" />
  </defs>
  <sodipodi:namedview
     pagecolor="#ffffff"
     bordercolor="#666666"
     borderopacity="1"
     objecttolerance="10"
     gridtolerance="10"
     guidetolerance="10"
     inkscape:pageopacity="0"
     inkscape:pageshadow="2"
     inkscape:window-width="964"
     inkscape:window-height="721"
     id="namedview14"
     showgrid="true"
     inkscape:zoom="14.78125"
     inkscape:cx="17.5"
     inkscape:cy="16"
     inkscape:window-x="365"
     inkscape:window-y="0"
     inkscape:window-maximized="0"
     inkscape:current-layer="svg2"
     showborder="true">
    <inkscape:grid
       type="xygrid"
       id="grid2824"
       empspacing="5"
       visible="true"
       enabled="true"
       snapvisiblegridlinesonly="true" />
  </sodipodi:namedview>
  <metadata
     id="metadata4">
Valerie Sutton's pixel definition of the
ISWA 2010 symbol ID 04-01-003-01-01-01
transformed by Stephen E Slevinski Jr
using line and fill polygon tracing
<rdf:RDF>
  <cc:Work
     rdf:about="">
    <dc:format>image/svg+xml</dc:format>
    <dc:type
       rdf:resource="http://purl.org/dc/dcmitype/StillImage" />
    <dc:title></dc:title>
  </cc:Work>
</rdf:RDF>
</metadata>
  <path
     style="fill:#000000;fill-opacity:1;stroke:none"
     d="M 0.1005055,7 10,7 10,16.899495 0.1005055,7 z"
     id="path2839" />
  <path
     style="fill:#000000;fill-opacity:1;stroke:none"
     d="M 25.55635,7 12.828428,19.727922 c -1.952622,1.952621 -5.118447,1.952621 -7.0710683,0 L 3.6360394,17.606601 C 1.292894,15.263456 0.976311,11.781049 2.9289326,9.8284272 L 7.171573,14.071067 c -1.1715724,1.171573 -1.1715724,3.071068 0,4.242641 1.171573,1.171573 3.071068,1.171573 4.242641,0 L 24.142136,5.5857865 25.55635,7 z"
     id="path3173" />
  <path
     style="fill:#000000;fill-opacity:1;stroke:none"
     d="M 32.627417,31.04163 31.920311,31.748737 11.414214,11.242641 12.121321,10.535534 32.627417,31.04163 z M 6.464467,4.8786797 5.7573597,5.5857865 1.514719,1.3431458 2.2218258,0.636039 6.464467,4.8786797 z"
     id="rect2835" />
  <path
     id="path3406"
     d="M 25.100505,16 35,16 35,25.899495 25.100505,16 z"
     style="fill:#000000;fill-opacity:1;stroke:none" />
  <path
     id="path3408"
     d="m 30.757359,21.656854 -8.485281,8.485281 c -1.562097,1.562098 -4.094757,1.562098 -5.656855,0 L 15.20101,28.727922 c -2.73367,-2.73367 -3.050252,-6.849243 -0.707107,-9.192388 l 4.949748,4.949747 c -1.562098,1.562097 -2.195262,3.461593 -1.414214,4.242641 0.781048,0.781048 2.047379,0.781048 2.828427,0 l 8.485281,-8.485282 1.414214,1.414214 z"
     style="fill:#000000;fill-opacity:1;stroke:none" />
</svg>
