<?xml version="1.0" encoding="UTF-8" standalone="no"?>
<svg
   xmlns:dc="http://purl.org/dc/elements/1.1/"
   xmlns:cc="http://creativecommons.org/ns#"
   xmlns:rdf="http://www.w3.org/1999/02/22-rdf-syntax-ns#"
   xmlns:svg="http://www.w3.org/2000/svg"
   xmlns="http://www.w3.org/2000/svg"
   xmlns:sodipodi="http://sodipodi.sourceforge.net/DTD/sodipodi-0.dtd"
   xmlns:inkscape="http://www.inkscape.org/namespaces/inkscape"
   version="1.0"
   width="39"
   height="23"
   id="svg2"
   inkscape:version="0.47 r22583"
   sodipodi:docname="02-08-014-01-02-03.svg">
  <defs
     id="defs16">
    <inkscape:perspective
       sodipodi:type="inkscape:persp3d"
       inkscape:vp_x="0 : 23 : 1"
       inkscape:vp_y="0 : 1000 : 0"
       inkscape:vp_z="36 : 23 : 1"
       inkscape:persp3d-origin="18 : 15.333333 : 1"
       id="perspective18" />
  </defs>
  <sodipodi:namedview
     pagecolor="#ffffff"
     bordercolor="#666666"
     borderopacity="1"
     objecttolerance="10"
     gridtolerance="10"
     guidetolerance="10"
     inkscape:pageopacity="0"
     inkscape:pageshadow="2"
     inkscape:window-width="964"
     inkscape:window-height="721"
     id="namedview14"
     showgrid="true"
     inkscape:zoom="16.701291"
     inkscape:cx="19.5"
     inkscape:cy="11.5"
     inkscape:window-x="365"
     inkscape:window-y="0"
     inkscape:window-maximized="0"
     inkscape:current-layer="svg2"
     showborder="true">
    <inkscape:grid
       type="xygrid"
       id="grid2824"
       empspacing="5"
       visible="true"
       enabled="true"
       snapvisiblegridlinesonly="true" />
  </sodipodi:namedview>
  <metadata
     id="metadata4">
Valerie Sutton's pixel definition of the
ISWA 2010 symbol ID 04-01-003-01-01-01
transformed by Stephen E Slevinski Jr
using line and fill polygon tracing
<rdf:RDF>
  <cc:Work
     rdf:about="">
    <dc:format>image/svg+xml</dc:format>
    <dc:type
       rdf:resource="http://purl.org/dc/dcmitype/StillImage" />
    <dc:title></dc:title>
  </cc:Work>
</rdf:RDF>
</metadata>
  <path
     style="fill:#000000;fill-opacity:1;stroke:none"
     d="m 23,11 7,7 -14,0 7,-7 z M 23,12.40625 18.4375,17 27.5625,17 23,12.40625 z"
     id="path2839" />
  <path
     style="fill:#000000;fill-opacity:1;stroke:none"
     d="m 34,0 0,18 c 0,2.761424 -2.238576,5 -5,5 l -3,0 c -3.313708,0 -6,-2.238576 -6,-5 l 6,0 c 0,1.656854 1.343146,3 3,3 1.656854,0 3,-1.343146 3,-3 l 0,-18 2,0 z"
     id="path3173" />
  <path
     style="fill:#000000;fill-opacity:1;stroke:none"
     d="M 0 12 L 0 13 L 19 13 L 19 12 L 0 12 z M 27 12 L 27 13 L 39 13 L 39 12 L 27 12 z "
     id="rect2835" />
  <path
     style="fill:#000000;fill-opacity:1;stroke:none"
     d="M 14,0 21,7 7,7 14,0 z M 14,1.40625 9.4375,6 18.5625,6 14,1.40625 z"
     id="path3406" />
  <path
     id="path3408"
     d="m 15,7 0,12 c 0,2.209139 -1.790861,4 -4,4 L 9,23 C 5.134007,23 2,20.313708 2,17 l 7,0 c 0,2.209139 0.895431,4 2,4 1.104569,0 2,-0.895431 2,-2 l 0,-12 2,0 z"
     style="fill:#000000;fill-opacity:1;stroke:none" />
  <path
     style="fill:#ffffff;fill-opacity:1;stroke:none"
     d="M 23,12.40625 27.5625,17 18.4375,17 23,12.40625 z"
     id="path3555" />
  <path
     style="fill:#ffffff;fill-opacity:1;stroke:none"
     d="M 14,1.40625 18.5625,6 9.4375,6 14,1.40625 z"
     id="path3557" />
</svg>
