<?xml version="1.0" encoding="UTF-8" standalone="no"?>
<svg
   xmlns:dc="http://purl.org/dc/elements/1.1/"
   xmlns:cc="http://creativecommons.org/ns#"
   xmlns:rdf="http://www.w3.org/1999/02/22-rdf-syntax-ns#"
   xmlns:svg="http://www.w3.org/2000/svg"
   xmlns="http://www.w3.org/2000/svg"
   xmlns:sodipodi="http://sodipodi.sourceforge.net/DTD/sodipodi-0.dtd"
   xmlns:inkscape="http://www.inkscape.org/namespaces/inkscape"
   version="1.0"
   width="35"
   height="32"
   id="svg2"
   inkscape:version="0.47 r22583"
   sodipodi:docname="02-08-014-01-03-08.svg">
  <defs
     id="defs16">
    <inkscape:perspective
       sodipodi:type="inkscape:persp3d"
       inkscape:vp_x="0 : 23 : 1"
       inkscape:vp_y="0 : 1000 : 0"
       inkscape:vp_z="36 : 23 : 1"
       inkscape:persp3d-origin="18 : 15.333333 : 1"
       id="perspective18" />
  </defs>
  <sodipodi:namedview
     pagecolor="#ffffff"
     bordercolor="#666666"
     borderopacity="1"
     objecttolerance="10"
     gridtolerance="10"
     guidetolerance="10"
     inkscape:pageopacity="0"
     inkscape:pageshadow="2"
     inkscape:window-width="964"
     inkscape:window-height="721"
     id="namedview14"
     showgrid="true"
     inkscape:zoom="14.78125"
     inkscape:cx="17.5"
     inkscape:cy="16"
     inkscape:window-x="365"
     inkscape:window-y="0"
     inkscape:window-maximized="0"
     inkscape:current-layer="svg2"
     showborder="true">
    <inkscape:grid
       type="xygrid"
       id="grid2824"
       empspacing="5"
       visible="true"
       enabled="true"
       snapvisiblegridlinesonly="true" />
  </sodipodi:namedview>
  <metadata
     id="metadata4">
Valerie Sutton's pixel definition of the
ISWA 2010 symbol ID 04-01-003-01-01-01
transformed by Stephen E Slevinski Jr
using line and fill polygon tracing
<rdf:RDF>
  <cc:Work
     rdf:about="">
    <dc:format>image/svg+xml</dc:format>
    <dc:type
       rdf:resource="http://purl.org/dc/dcmitype/StillImage" />
    <dc:title></dc:title>
  </cc:Work>
</rdf:RDF>
</metadata>
  <path
     style="fill:#000000;fill-opacity:1;stroke:none"
     d="m 25,7 0,9.899495 1.414213,-1.414214 0,-7.0710674 7.071068,0 L 34.899495,7 25,7 z"
     id="path2839" />
  <path
     style="fill:#000000;fill-opacity:1;stroke:none"
     d="M 9.4436505,7 22.171572,19.727922 c 1.952622,1.952621 5.118447,1.952621 7.071069,0 l 2.12132,-2.121321 c 2.343145,-2.343145 2.659728,-5.825552 0.707107,-7.7781738 l -4.242641,4.2426398 c 1.171573,1.171573 1.171573,3.071068 0,4.242641 -1.171573,1.171573 -3.071068,1.171573 -4.242641,0 L 10.857864,5.5857865 9.4436505,7 z"
     id="path3173" />
  <path
     style="fill:#000000;fill-opacity:1;stroke:none"
     d="M 2.3725835,31.04163 3.0796895,31.748737 23.585786,11.242641 22.878679,10.535534 2.3725835,31.04163 z M 28.535533,4.8786797 29.242641,5.5857865 33.485281,1.3431458 32.778175,0.636039 28.535533,4.8786797 z"
     id="rect2835" />
  <path
     style="fill:#000000;fill-opacity:1;stroke:none"
     d="m 5e-7,16 0,9.899495 1.414214,-1.414214 0,-7.071068 7.071068,0 L 9.899495,16 5e-7,16 z"
     id="path3406" />
  <path
     id="path3408"
     d="m 4.2426415,21.656854 8.4852805,8.485281 c 1.562097,1.562098 4.094757,1.562098 5.656855,0 l 1.414213,-1.414213 c 2.73367,-2.73367 3.050252,-6.849243 0.707107,-9.192388 l -4.949748,4.949747 c 1.562098,1.562097 2.195262,3.461593 1.414214,4.242641 -0.781048,0.781048 -2.047378,0.781048 -2.828427,0 L 5.6568555,20.24264 4.2426415,21.656854 z"
     style="fill:#000000;fill-opacity:1;stroke:none" />
</svg>
