<?xml version="1.0" encoding="UTF-8" standalone="no"?>
<svg
   xmlns:dc="http://purl.org/dc/elements/1.1/"
   xmlns:cc="http://creativecommons.org/ns#"
   xmlns:rdf="http://www.w3.org/1999/02/22-rdf-syntax-ns#"
   xmlns:svg="http://www.w3.org/2000/svg"
   xmlns="http://www.w3.org/2000/svg"
   xmlns:sodipodi="http://sodipodi.sourceforge.net/DTD/sodipodi-0.dtd"
   xmlns:inkscape="http://www.inkscape.org/namespaces/inkscape"
   version="1.0"
   width="35"
   height="32"
   id="svg2"
   inkscape:version="0.47 r22583"
   sodipodi:docname="02-08-014-01-02-05.svg">
  <defs
     id="defs16">
    <inkscape:perspective
       sodipodi:type="inkscape:persp3d"
       inkscape:vp_x="0 : 23 : 1"
       inkscape:vp_y="0 : 1000 : 0"
       inkscape:vp_z="36 : 23 : 1"
       inkscape:persp3d-origin="18 : 15.333333 : 1"
       id="perspective18" />
  </defs>
  <sodipodi:namedview
     pagecolor="#ffffff"
     bordercolor="#666666"
     borderopacity="1"
     objecttolerance="10"
     gridtolerance="10"
     guidetolerance="10"
     inkscape:pageopacity="0"
     inkscape:pageshadow="2"
     inkscape:window-width="964"
     inkscape:window-height="721"
     id="namedview14"
     showgrid="true"
     inkscape:zoom="14.78125"
     inkscape:cx="17.5"
     inkscape:cy="16"
     inkscape:window-x="365"
     inkscape:window-y="0"
     inkscape:window-maximized="0"
     inkscape:current-layer="svg2"
     showborder="true">
    <inkscape:grid
       type="xygrid"
       id="grid2824"
       empspacing="5"
       visible="true"
       enabled="true"
       snapvisiblegridlinesonly="true" />
  </sodipodi:namedview>
  <metadata
     id="metadata4">
Valerie Sutton's pixel definition of the
ISWA 2010 symbol ID 04-01-003-01-01-01
transformed by Stephen E Slevinski Jr
using line and fill polygon tracing
<rdf:RDF>
  <cc:Work
     rdf:about="">
    <dc:format>image/svg+xml</dc:format>
    <dc:type
       rdf:resource="http://purl.org/dc/dcmitype/StillImage" />
    <dc:title></dc:title>
  </cc:Work>
</rdf:RDF>
</metadata>
  <path
     style="fill:#000000;fill-opacity:1;stroke:none"
     d="m 9.994366,7.0056312 0,9.8994958 -9.8994945,-9.8994958 9.8994945,0 z M 8.999997,8.0000001 2.525551,8.0220971 8.9779,14.474447 9,8 z"
     id="path2839" />
  <path
     style="fill:#000000;fill-opacity:1;stroke:none"
     d="M 25.550716,7.0056312 12.822794,19.733554 c -1.952622,1.952621 -5.118447,1.952621 -7.0710683,0 L 3.6304054,17.612233 C 1.28726,15.269088 0.970677,11.78668 2.9232986,9.8340584 L 7.165939,14.076699 c -1.1715724,1.171573 -1.1715724,3.071068 0,4.242641 1.171573,1.171573 3.071068,1.171573 4.242641,0 L 24.136502,5.5914177 25.550716,7.0056312 z"
     id="path3173" />
  <path
     style="fill:#000000;fill-opacity:1;stroke:none"
     d="M 32.621783,31.047262 31.914677,31.754369 11.40858,11.248272 12.115687,10.541165 32.621783,31.047262 z M 6.458833,4.8843109 5.7517257,5.5914177 1.509085,1.348777 2.2161918,0.6416702 6.458833,4.8843109 z"
     id="rect2835" />
  <path
     style="fill:#000000;fill-opacity:1;stroke:none"
     d="M 35,16 35,25.899495 25.100505,16 35,16 z m -0.994369,0.994369 -6.474447,0.0221 6.45235,6.452349 0.0221,-6.474446 z"
     id="path3406" />
  <path
     id="path3408"
     d="m 30.757359,21.656854 -8.485281,8.485281 c -1.562097,1.562098 -4.094757,1.562098 -5.656855,0 L 15.20101,28.727922 c -2.73367,-2.73367 -3.050252,-6.849243 -0.707107,-9.192388 l 4.949748,4.949747 c -1.562098,1.562097 -2.195262,3.461593 -1.414214,4.242641 0.781048,0.781048 2.047379,0.781048 2.828427,0 l 8.485281,-8.485282 1.414214,1.414214 z"
     style="fill:#000000;fill-opacity:1;stroke:none" />
  <path
     style="fill:#ffffff;fill-opacity:1;stroke:none"
     d="M 8.999997,8.0000001 8.9779,14.474447 2.525551,8.0220972 8.999997,8.0000001 z"
     id="path3555" />
  <path
     style="fill:#ffffff;fill-opacity:1;stroke:none"
     d="m 34.005631,16.994369 -0.0221,6.474446 -6.45235,-6.452349 6.474447,-0.0221 z"
     id="path3557" />
</svg>
