<?xml version="1.0" encoding="UTF-8" standalone="no"?>
<!-- Created with Inkscape (http://www.inkscape.org/) -->

<svg
   xmlns:dc="http://purl.org/dc/elements/1.1/"
   xmlns:cc="http://creativecommons.org/ns#"
   xmlns:rdf="http://www.w3.org/1999/02/22-rdf-syntax-ns#"
   xmlns:svg="http://www.w3.org/2000/svg"
   xmlns="http://www.w3.org/2000/svg"
   xmlns:sodipodi="http://sodipodi.sourceforge.net/DTD/sodipodi-0.dtd"
   xmlns:inkscape="http://www.inkscape.org/namespaces/inkscape"
   width="30"
   height="16"
   id="svg3198"
   sodipodi:version="0.32"
   inkscape:version="0.47 r22583"
   version="1.0"
   sodipodi:docname="01-05-004-01-01.svg"
   inkscape:output_extension="org.inkscape.output.svg.inkscape">
  <defs
     id="defs3200">
    <inkscape:perspective
       sodipodi:type="inkscape:persp3d"
       inkscape:vp_x="0 : 526.18109 : 1"
       inkscape:vp_y="0 : 1000 : 0"
       inkscape:vp_z="744.09448 : 526.18109 : 1"
       inkscape:persp3d-origin="372.04724 : 350.78739 : 1"
       id="perspective3206" />
  </defs>
  <sodipodi:namedview
     id="namedview3727"
     pagecolor="#ffffff"
     bordercolor="#666666"
     borderopacity="1.0"
     gridtolerance="10000"
     guidetolerance="10"
     objecttolerance="10"
     inkscape:pageopacity="0.0"
     inkscape:pageshadow="2"
     inkscape:zoom="24.24"
     inkscape:cx="17.102176"
     inkscape:cy="8.9356436"
     inkscape:document-units="px"
     inkscape:current-layer="svg3198"
     showgrid="true"
     inkscape:window-width="1261"
     inkscape:window-height="918"
     inkscape:window-x="63"
     inkscape:window-y="19"
     inkscape:window-maximized="0">
    <inkscape:grid
       type="xygrid"
       id="grid3208"
       visible="true"
       enabled="true" />
  </sodipodi:namedview>
  <metadata
     id="metadata3203">
    <rdf:RDF>
      <cc:Work
         rdf:about="">
        <dc:format>image/svg+xml</dc:format>
        <dc:type
           rdf:resource="http://purl.org/dc/dcmitype/StillImage" />
        <dc:title></dc:title>
      </cc:Work>
    </rdf:RDF>
  </metadata>
  <g
     inkscape:label="Layer 1"
     inkscape:groupmode="layer"
     id="" />
  <rect
     style="fill:#000000;fill-opacity:1;stroke:none"
     id="base"
     width="20"
     height="9"
     x="3"
     y="7" />
  <rect
     style="fill:#ffffff;fill-opacity:1;stroke:none"
     id="fill"
     width="16"
     height="3"
     x="5"
     y="9" />
  <path
     style="fill:#000000;fill-opacity:1;stroke:none"
     d="M 26.3125 3.5625 C 24.996515 3.499834 24 4.5 24 4.5 L 25.40625 5.9375 C 26.113356 5.2303932 26.84375 5.9375 26.84375 5.9375 C 27.550857 6.6446068 26.84375 7.34375 26.84375 7.34375 L 24 10.1875 L 24 13 L 28.25 8.75 C 30.37132 6.6286797 28.25 4.5 28.25 4.5 C 27.587087 3.8370874 26.910675 3.5909845 26.3125 3.5625 z "
     id="thumb" />
  <path
     style="fill:#000000;fill-opacity:1;stroke:none"
     d="M 19.5,0.8125 C 18.901825,0.84098453 18.256663,1.0870874 17.59375,1.75 L 19,3.15625 c 0,0 0.699144,-0.7071068 1.40625,0 0,0 0.707107,0.7303932 0,1.4375 L 19,6 21.84375,6 c 0,0 2.12132,-2.1286796 0,-4.25 0,0 -1.027765,-1.00016596 -2.34375,-0.9375 z"
     id="index"
     sodipodi:nodetypes="ccccccccc" />
  <path
     style="fill:#000000;fill-opacity:1;stroke:none"
     d="M 13.6875,0.15625 C 13.089325,0.18473453 12.412912,0.43083737 11.75,1.09375 L 13.15625,2.5 c 0,0 0.730393,-0.7071068 1.4375,0 0,0 0.707107,0.7303932 0,1.4375 L 12.53125,6 15.34375,6 16,5.34375 c 0,0 2.121321,-2.1286797 0,-4.25 0,0 -0.996515,-1.00016596 -2.3125,-0.9375 z"
     id="middle"
     sodipodi:nodetypes="cccccccccc" />
  <path
     style="fill:#000000;fill-opacity:1;stroke:none"
     d="M 8.9375 0.15625 C 8.3393249 0.18473453 7.6629126 0.43083737 7 1.09375 C 7 1.09375 4.8786796 3.2224297 7 5.34375 L 7.65625 6 L 10.46875 6 L 8.40625 3.9375 C 8.40625 3.9375 7.6991432 3.2071068 8.40625 2.5 C 8.552548 2.353702 8.4872388 2.4502612 8.53125 2.40625 C 8.7632694 2.2405218 9.3134199 1.9696699 9.84375 2.5 L 11.25 1.09375 C 11.25 1.09375 10.253485 0.093584041 8.9375 0.15625 z "
     id="ring" />
  <path
     style="fill:#000000;fill-opacity:1;stroke:none"
     d="M 3.3125 1.625 C 2.714325 1.6534845 2.0691626 1.8995874 1.40625 2.5625 C 1.40625 2.5625 -0.71507046 4.6911797 1.40625 6.8125 L 2 7.40625 L 2 6 L 3.4375 6 L 2.8125 5.375 C 2.8125 5.375 2.1053932 4.6758568 2.8125 3.96875 C 2.958798 3.822452 2.8934888 3.9190112 2.9375 3.875 C 3.1695194 3.7092718 3.6884199 3.4384199 4.21875 3.96875 L 5.65625 2.5625 C 5.65625 2.5625 4.6284851 1.562334 3.3125 1.625 z "
     id="baby" />
</svg>
