<?xml version="1.0" encoding="UTF-8" standalone="no"?>
<svg
   xmlns:dc="http://purl.org/dc/elements/1.1/"
   xmlns:cc="http://creativecommons.org/ns#"
   xmlns:rdf="http://www.w3.org/1999/02/22-rdf-syntax-ns#"
   xmlns:svg="http://www.w3.org/2000/svg"
   xmlns="http://www.w3.org/2000/svg"
   xmlns:sodipodi="http://sodipodi.sourceforge.net/DTD/sodipodi-0.dtd"
   xmlns:inkscape="http://www.inkscape.org/namespaces/inkscape"
   version="1.0"
   width="35"
   height="35"
   id="svg2"
   inkscape:version="0.47 r22583"
   sodipodi:docname="04-04-004-02-01-01.svg">
  <defs
     id="defs14">
    <inkscape:perspective
       sodipodi:type="inkscape:persp3d"
       inkscape:vp_x="0 : 17.5 : 1"
       inkscape:vp_y="0 : 1000 : 0"
       inkscape:vp_z="36 : 17.5 : 1"
       inkscape:persp3d-origin="18 : 11.666667 : 1"
       id="perspective16" />
  </defs>
  <sodipodi:namedview
     pagecolor="#ffffff"
     bordercolor="#666666"
     borderopacity="1"
     objecttolerance="10"
     gridtolerance="10"
     guidetolerance="10"
     inkscape:pageopacity="0"
     inkscape:pageshadow="2"
     inkscape:window-width="993"
     inkscape:window-height="789"
     id="namedview12"
     showgrid="true"
     inkscape:zoom="15.487127"
     inkscape:cx="18"
     inkscape:cy="17.5"
     inkscape:window-x="209"
     inkscape:window-y="0"
     inkscape:window-maximized="0"
     inkscape:current-layer="svg2">
    <inkscape:grid
       type="xygrid"
       id="grid2822" />
  </sodipodi:namedview>
  <metadata
     id="metadata4">
Valerie Sutton's pixel definition of the
ISWA 2010 symbol ID 04-03-001-01-01-01
transformed by Stephen E Slevinski Jr
using line and fill polygon tracing
<rdf:RDF>
  <cc:Work
     rdf:about="">
    <dc:format>image/svg+xml</dc:format>
    <dc:type
       rdf:resource="http://purl.org/dc/dcmitype/StillImage" />
    <dc:title />
  </cc:Work>
</rdf:RDF>
</metadata>
  <path
     style="fill:#000000;fill-opacity:1;stroke:none"
     d="M 17.5 0 C 7.8350169 4.7369516e-15 0 7.8350169 0 17.5 C 0 27.164983 7.8350169 35 17.5 35 C 27.164983 35 35 27.164983 35 17.5 C 35 7.8350169 27.164983 -2.3684758e-15 17.5 0 z M 17.5 1.5 C 26.336556 1.5 33.5 8.663444 33.5 17.5 C 33.5 26.336556 26.336556 33.5 17.5 33.5 C 8.663444 33.5 1.5 26.336556 1.5 17.5 C 1.5 8.663444 8.663444 1.5 17.5 1.5 z "
     id="path2824" />
  <path
     style="fill:#000000;fill-opacity:1;stroke:none"
     d="M 17.5 21 C 15.014719 21 13 22.790861 13 25 C 13 27.209139 15.014719 29 17.5 29 C 19.985281 29 22 27.209139 22 25 C 22 22.790861 19.985281 21 17.5 21 z M 17.5 22.5 C 19.156854 22.5 20.5 23.619288 20.5 25 C 20.5 26.380712 19.156854 27.5 17.5 27.5 C 15.843146 27.5 14.5 26.380712 14.5 25 C 14.5 23.619288 15.843146 22.5 17.5 22.5 z "
     id="path2815" />
  <rect
     style="fill:#000000;fill-opacity:1;stroke:none"
     id="rect2814"
     width="0.99975014"
     height="4"
     x="9"
     y="24" />
  <rect
     style="fill:#000000;fill-opacity:1;stroke:none"
     id="rect2816"
     width="0.99975014"
     height="4"
     x="25"
     y="24" />
  <path
     style="fill:#000000;fill-opacity:1;stroke:none"
     d="M 25.49975,19 22.906,23.46875 23.781,24 25.49975,21.03125 27.2185,24 28.0935,23.46875 25.49975,19 z"
     id="path2841" />
  <path
     id="path2847"
     d="M 9.49975,19 6.906,23.46875 7.781,24 9.49975,21.03125 11.2185,24 12.0935,23.46875 9.49975,19 z"
     style="fill:#000000;fill-opacity:1;stroke:none" />
</svg>
