<?xml version="1.0" encoding="UTF-8" standalone="no"?>
<svg
   xmlns:dc="http://purl.org/dc/elements/1.1/"
   xmlns:cc="http://creativecommons.org/ns#"
   xmlns:rdf="http://www.w3.org/1999/02/22-rdf-syntax-ns#"
   xmlns:svg="http://www.w3.org/2000/svg"
   xmlns="http://www.w3.org/2000/svg"
   xmlns:sodipodi="http://sodipodi.sourceforge.net/DTD/sodipodi-0.dtd"
   xmlns:inkscape="http://www.inkscape.org/namespaces/inkscape"
   version="1.0"
   width="43"
   height="16"
   id="svg2"
   inkscape:version="0.47 r22583"
   sodipodi:docname="02-08-002-03-03-08.svg">
  <defs
     id="defs16">
    <inkscape:perspective
       sodipodi:type="inkscape:persp3d"
       inkscape:vp_x="0 : 23 : 1"
       inkscape:vp_y="0 : 1000 : 0"
       inkscape:vp_z="36 : 23 : 1"
       inkscape:persp3d-origin="18 : 15.333333 : 1"
       id="perspective18" />
  </defs>
  <sodipodi:namedview
     pagecolor="#ffffff"
     bordercolor="#666666"
     borderopacity="1"
     objecttolerance="10"
     gridtolerance="10"
     guidetolerance="10"
     inkscape:pageopacity="0"
     inkscape:pageshadow="2"
     inkscape:window-width="964"
     inkscape:window-height="721"
     id="namedview14"
     showgrid="true"
     inkscape:zoom="16.309417"
     inkscape:cx="21.500769"
     inkscape:cy="8.0002861"
     inkscape:window-x="365"
     inkscape:window-y="0"
     inkscape:window-maximized="0"
     inkscape:current-layer="svg2"
     showborder="true">
    <inkscape:grid
       type="xygrid"
       id="grid2824"
       empspacing="5"
       visible="true"
       enabled="true"
       snapvisiblegridlinesonly="true" />
  </sodipodi:namedview>
  <metadata
     id="metadata4">
Valerie Sutton's pixel definition of the
ISWA 2010 symbol ID 04-01-003-01-01-01
transformed by Stephen E Slevinski Jr
using line and fill polygon tracing
<rdf:RDF>
  <cc:Work
     rdf:about="">
    <dc:format>image/svg+xml</dc:format>
    <dc:type
       rdf:resource="http://purl.org/dc/dcmitype/StillImage" />
    <dc:title></dc:title>
  </cc:Work>
</rdf:RDF>
</metadata>
  <path
     style="fill:#000000;fill-opacity:1;stroke:none"
     d="m 3.343146,3.1005054 c -1.562098,1.5620976 -1.562098,4.0947566 0,5.6568546 L 4.050252,9.464466 5.464466,8.050253 4.757359,7.343146 c -0.781048,-0.781049 -0.781048,-2.047379 0,-2.828427 L 5.464466,3.807612 c 1.171573,-1.1715726 3.071068,-1.1715727 4.242641,0 l 7.071067,7.071068 -1.259533,-4.618291 c -0.105205,-0.617592 0.07572,-1.268961 0.552427,-1.74567 1.171572,-1.171573 3.071068,-1.171573 4.24264,0 l 7.071068,7.071068 -1.259534,-4.618291 c -0.105205,-0.617592 0.07572,-1.268962 0.552427,-1.74567 1.171573,-1.171573 3.071068,-1.171573 4.242641,0 l 1.414214,1.414213 c 2.321398,2.321399 3.535533,9.192388 3.535533,9.192388 L 42.941125,8.75736 c 0,0 -6.87099,-1.214136 -9.192388,-3.535534 L 32.334524,3.807612 c -1.952622,-1.9526215 -5.118446,-1.9526215 -7.071068,0 C 24.747317,4.323751 24.42205,4.961537 24.24699,5.619573 L 21.727922,3.1005054 c -1.952622,-1.9526217 -5.118446,-1.9526217 -7.071068,0 C 14.140716,3.616644 13.815448,4.25443 13.640388,4.912466 L 11.12132,2.3933986 c -1.952621,-1.9526214 -5.118446,-1.9526217 -7.071068,0 L 3.343146,3.1005054 z"
     id="path2825" />
  <path
     style="fill:#000000;fill-opacity:1;stroke:none"
     d="M 0.514719,13 9,13 9,4.514719 7.585786,5.928932 l 0,5.656855 -5.656854,0 L 0.514719,13 z"
     id="path2839" />
</svg>
