<?xml version="1.0" encoding="UTF-8" standalone="no"?>
<svg
   xmlns:dc="http://purl.org/dc/elements/1.1/"
   xmlns:cc="http://creativecommons.org/ns#"
   xmlns:rdf="http://www.w3.org/1999/02/22-rdf-syntax-ns#"
   xmlns:svg="http://www.w3.org/2000/svg"
   xmlns="http://www.w3.org/2000/svg"
   xmlns:sodipodi="http://sodipodi.sourceforge.net/DTD/sodipodi-0.dtd"
   xmlns:inkscape="http://www.inkscape.org/namespaces/inkscape"
   version="1.0"
   width="26"
   height="36"
   id="svg2"
   inkscape:version="0.47 r22583"
   sodipodi:docname="02-08-002-01-01-05.svg">
  <defs
     id="defs16">
    <inkscape:perspective
       sodipodi:type="inkscape:persp3d"
       inkscape:vp_x="0 : 23 : 1"
       inkscape:vp_y="0 : 1000 : 0"
       inkscape:vp_z="36 : 23 : 1"
       inkscape:persp3d-origin="18 : 15.333333 : 1"
       id="perspective18" />
  </defs>
  <sodipodi:namedview
     pagecolor="#ffffff"
     bordercolor="#666666"
     borderopacity="1"
     objecttolerance="10"
     gridtolerance="10"
     guidetolerance="10"
     inkscape:pageopacity="0"
     inkscape:pageshadow="2"
     inkscape:window-width="964"
     inkscape:window-height="721"
     id="namedview14"
     showgrid="true"
     inkscape:zoom="13.138889"
     inkscape:cx="13"
     inkscape:cy="18"
     inkscape:window-x="365"
     inkscape:window-y="0"
     inkscape:window-maximized="0"
     inkscape:current-layer="svg2"
     showborder="true">
    <inkscape:grid
       type="xygrid"
       id="grid2824"
       empspacing="5"
       visible="true"
       enabled="true"
       snapvisiblegridlinesonly="true" />
  </sodipodi:namedview>
  <metadata
     id="metadata4">
Valerie Sutton's pixel definition of the
ISWA 2010 symbol ID 04-01-003-01-01-01
transformed by Stephen E Slevinski Jr
using line and fill polygon tracing
<rdf:RDF>
  <cc:Work
     rdf:about="">
    <dc:format>image/svg+xml</dc:format>
    <dc:type
       rdf:resource="http://purl.org/dc/dcmitype/StillImage" />
    <dc:title></dc:title>
  </cc:Work>
</rdf:RDF>
</metadata>
  <path
     style="fill:#000000;fill-opacity:1;stroke:none"
     d="m 0,29 7,7 7,-7 -14,0 z"
     id="path2839" />
  <path
     style="fill:#000000;fill-opacity:1;stroke:none"
     d="M 22 0 C 19.790861 0 18 1.790861 18 4 L 18 7.5625 C 17.410912 7.2209836 16.72993 7 16 7 C 13.790861 7 12 8.790861 12 11 L 12 14.5625 C 11.408673 14.22071 10.732996 14 10 14 C 7.790861 14 6 15.790861 6 18 L 6 22 C 6 24.538591 3 29 3 29 L 11 29 C 11 29 8 24.538591 8 22 L 8 18 C 8 16.895431 8.895431 16 10 16 C 11.104569 16 12 16.895431 12 18 L 12 21 L 14 21 L 14 11 C 14 9.895431 14.895431 9 16 9 C 17.104569 9 18 9.895431 18 11 L 18 14 L 20 14 L 20 4 C 20 2.8954305 20.895431 2 22 2 C 23.104569 2 24 2.8954305 24 4 L 24 8 L 26 8 L 26 4 C 26 1.790861 24.209139 0 22 0 z "
     id="path3428" />
</svg>
