<?xml version="1.0" encoding="UTF-8" standalone="no"?>
<svg
   xmlns:dc="http://purl.org/dc/elements/1.1/"
   xmlns:cc="http://creativecommons.org/ns#"
   xmlns:rdf="http://www.w3.org/1999/02/22-rdf-syntax-ns#"
   xmlns:svg="http://www.w3.org/2000/svg"
   xmlns="http://www.w3.org/2000/svg"
   xmlns:sodipodi="http://sodipodi.sourceforge.net/DTD/sodipodi-0.dtd"
   xmlns:inkscape="http://www.inkscape.org/namespaces/inkscape"
   version="1.0"
   width="43"
   height="16"
   id="svg2"
   inkscape:version="0.47 r22583"
   sodipodi:docname="02-08-002-03-02-02.svg">
  <defs
     id="defs16">
    <inkscape:perspective
       sodipodi:type="inkscape:persp3d"
       inkscape:vp_x="0 : 23 : 1"
       inkscape:vp_y="0 : 1000 : 0"
       inkscape:vp_z="36 : 23 : 1"
       inkscape:persp3d-origin="18 : 15.333333 : 1"
       id="perspective18" />
  </defs>
  <sodipodi:namedview
     pagecolor="#ffffff"
     bordercolor="#666666"
     borderopacity="1"
     objecttolerance="10"
     gridtolerance="10"
     guidetolerance="10"
     inkscape:pageopacity="0"
     inkscape:pageshadow="2"
     inkscape:window-width="964"
     inkscape:window-height="721"
     id="namedview14"
     showgrid="true"
     inkscape:zoom="16.312392"
     inkscape:cx="21.502307"
     inkscape:cy="8.0008584"
     inkscape:window-x="365"
     inkscape:window-y="0"
     inkscape:window-maximized="0"
     inkscape:current-layer="svg2"
     showborder="true">
    <inkscape:grid
       type="xygrid"
       id="grid2824"
       empspacing="5"
       visible="true"
       enabled="true"
       snapvisiblegridlinesonly="true" />
  </sodipodi:namedview>
  <metadata
     id="metadata4">
Valerie Sutton's pixel definition of the
ISWA 2010 symbol ID 04-01-003-01-01-01
transformed by Stephen E Slevinski Jr
using line and fill polygon tracing
<rdf:RDF>
  <cc:Work
     rdf:about="">
    <dc:format>image/svg+xml</dc:format>
    <dc:type
       rdf:resource="http://purl.org/dc/dcmitype/StillImage" />
    <dc:title></dc:title>
  </cc:Work>
</rdf:RDF>
</metadata>
  <path
     style="fill:#000000;fill-opacity:1;stroke:none"
     d="m 39.656854,3.1005054 c 1.562098,1.5620976 1.562098,4.0947566 0,5.6568546 L 38.949748,9.464466 37.535534,8.050253 38.242641,7.343146 c 0.781048,-0.781049 0.781048,-2.047379 0,-2.828427 L 37.535534,3.807612 c -1.171573,-1.1715726 -3.071068,-1.1715727 -4.242641,0 l -7.071067,7.071068 1.259533,-4.618291 c 0.105205,-0.617592 -0.07572,-1.268961 -0.552427,-1.74567 -1.171572,-1.171573 -3.071068,-1.171573 -4.24264,0 l -7.071068,7.071068 1.259534,-4.618291 c 0.105205,-0.617592 -0.07572,-1.268962 -0.552427,-1.74567 -1.171573,-1.171573 -3.071068,-1.171573 -4.242641,0 L 10.665476,6.636039 C 8.344078,8.957438 7.1299424,15.828427 7.1299424,15.828427 L 0.0588746,8.75736 c 0,0 6.8709898,-1.214136 9.1923882,-3.535534 L 10.665476,3.807612 c 1.952622,-1.9526215 5.118446,-1.9526215 7.071068,0 0.516139,0.516139 0.841406,1.153925 1.016466,1.811961 l 2.519068,-2.5190676 c 1.952622,-1.9526217 5.118446,-1.9526217 7.071068,0 0.516138,0.5161386 0.841406,1.1539246 1.016466,1.8119606 L 31.87868,2.3933986 c 1.952621,-1.9526214 5.118446,-1.9526217 7.071068,0 l 0.707106,0.7071068 z"
     id="path2825" />
  <path
     style="fill:#000000;fill-opacity:1;stroke:none"
     d="M 42.485281,13 34,13 34,4.514719 42.485281,13 z m -2.430679,-1.016466 -5.038136,-5.038136 0,5.038136 5.038136,0 z"
     id="path2839" />
  <path
     style="fill:#ffffff;fill-opacity:1;stroke:none"
     d="m 40.054602,11.983534 -5.038136,0 0,-5.038136 5.038136,5.038136 z"
     id="path3296" />
</svg>
