<?xml version="1.0" encoding="UTF-8" standalone="no"?>
<svg
   xmlns:dc="http://purl.org/dc/elements/1.1/"
   xmlns:cc="http://creativecommons.org/ns#"
   xmlns:rdf="http://www.w3.org/1999/02/22-rdf-syntax-ns#"
   xmlns:svg="http://www.w3.org/2000/svg"
   xmlns="http://www.w3.org/2000/svg"
   xmlns:sodipodi="http://sodipodi.sourceforge.net/DTD/sodipodi-0.dtd"
   xmlns:inkscape="http://www.inkscape.org/namespaces/inkscape"
   version="1.0"
   width="39"
   height="13"
   id="svg2"
   inkscape:version="0.47 r22583"
   sodipodi:docname="02-08-002-03-02-03.svg">
  <defs
     id="defs16">
    <inkscape:perspective
       sodipodi:type="inkscape:persp3d"
       inkscape:vp_x="0 : 23 : 1"
       inkscape:vp_y="0 : 1000 : 0"
       inkscape:vp_z="36 : 23 : 1"
       inkscape:persp3d-origin="18 : 15.333333 : 1"
       id="perspective18" />
  </defs>
  <sodipodi:namedview
     pagecolor="#ffffff"
     bordercolor="#666666"
     borderopacity="1"
     objecttolerance="10"
     gridtolerance="10"
     guidetolerance="10"
     inkscape:pageopacity="0"
     inkscape:pageshadow="2"
     inkscape:window-width="964"
     inkscape:window-height="721"
     id="namedview14"
     showgrid="true"
     inkscape:zoom="16.78"
     inkscape:cx="19.503164"
     inkscape:cy="6.5010545"
     inkscape:window-x="365"
     inkscape:window-y="0"
     inkscape:window-maximized="0"
     inkscape:current-layer="svg2"
     showborder="true">
    <inkscape:grid
       type="xygrid"
       id="grid2824"
       empspacing="5"
       visible="true"
       enabled="true"
       snapvisiblegridlinesonly="true" />
  </sodipodi:namedview>
  <metadata
     id="metadata4">
Valerie Sutton's pixel definition of the
ISWA 2010 symbol ID 04-01-003-01-01-01
transformed by Stephen E Slevinski Jr
using line and fill polygon tracing
<rdf:RDF>
  <cc:Work
     rdf:about="">
    <dc:format>image/svg+xml</dc:format>
    <dc:type
       rdf:resource="http://purl.org/dc/dcmitype/StillImage" />
    <dc:title></dc:title>
  </cc:Work>
</rdf:RDF>
</metadata>
  <path
     style="fill:#000000;fill-opacity:1;stroke:none"
     d="m 1.3431457,3.1005048 c -1.5620972,1.5620972 -1.5620972,4.0947572 0,5.6568542 L 2.0502525,9.464466 3.464466,8.050252 2.7573593,7.343145 c -0.7810486,-0.781048 -0.7810486,-2.047378 0,-2.8284266 L 3.464466,3.8076116 c 1.1715727,-1.1715727 3.0710679,-1.1715729 4.2426407,0 L 14.778175,10.878679 13.518641,6.260388 c -0.105205,-0.617591 0.07572,-1.268961 0.552427,-1.7456696 1.171573,-1.1715727 3.071068,-1.1715727 4.24264,0 l 7.071068,7.0710676 -1.259534,-4.618291 c -0.105205,-0.617591 0.07572,-1.268961 0.552427,-1.74567 1.171574,-1.1715726 3.071069,-1.1715726 4.242641,0 L 36.698484,13 38.112698,11.585786 30.334524,3.8076116 c -1.952621,-1.9526217 -5.118446,-1.9526217 -7.071069,0 C 22.747317,4.32375 22.422049,4.961536 22.246989,5.619573 L 19.727922,3.1005048 c -1.952622,-1.9526216 -5.118446,-1.9526216 -7.071067,0 -0.51614,0.5161385 -0.841407,1.1539244 -1.016467,1.8119612 L 9.1213203,2.393398 c -1.9526214,-1.9526214 -5.1184462,-1.9526216 -7.0710678,0 L 1.3431457,3.1005048 z"
     id="path2825" />
</svg>
