<?xml version="1.0" encoding="UTF-8" standalone="no"?>
<svg
   xmlns:dc="http://purl.org/dc/elements/1.1/"
   xmlns:cc="http://creativecommons.org/ns#"
   xmlns:rdf="http://www.w3.org/1999/02/22-rdf-syntax-ns#"
   xmlns:svg="http://www.w3.org/2000/svg"
   xmlns="http://www.w3.org/2000/svg"
   xmlns:sodipodi="http://sodipodi.sourceforge.net/DTD/sodipodi-0.dtd"
   xmlns:inkscape="http://www.inkscape.org/namespaces/inkscape"
   version="1.0"
   width="38"
   height="17"
   id="svg2"
   inkscape:version="0.47 r22583"
   sodipodi:docname="02-08-002-03-01-07.svg">
  <defs
     id="defs16">
    <inkscape:perspective
       sodipodi:type="inkscape:persp3d"
       inkscape:vp_x="0 : 23 : 1"
       inkscape:vp_y="0 : 1000 : 0"
       inkscape:vp_z="36 : 23 : 1"
       inkscape:persp3d-origin="18 : 15.333333 : 1"
       id="perspective18" />
  </defs>
  <sodipodi:namedview
     pagecolor="#ffffff"
     bordercolor="#666666"
     borderopacity="1"
     objecttolerance="10"
     gridtolerance="10"
     guidetolerance="10"
     inkscape:pageopacity="0"
     inkscape:pageshadow="2"
     inkscape:window-width="964"
     inkscape:window-height="721"
     id="namedview14"
     showgrid="true"
     inkscape:zoom="16.057498"
     inkscape:cx="18.997212"
     inkscape:cy="8.4987529"
     inkscape:window-x="365"
     inkscape:window-y="0"
     inkscape:window-maximized="0"
     inkscape:current-layer="svg2"
     showborder="true">
    <inkscape:grid
       type="xygrid"
       id="grid2824"
       empspacing="5"
       visible="true"
       enabled="true"
       snapvisiblegridlinesonly="true" />
  </sodipodi:namedview>
  <metadata
     id="metadata4">
Valerie Sutton's pixel definition of the
ISWA 2010 symbol ID 04-01-003-01-01-01
transformed by Stephen E Slevinski Jr
using line and fill polygon tracing
<rdf:RDF>
  <cc:Work
     rdf:about="">
    <dc:format>image/svg+xml</dc:format>
    <dc:type
       rdf:resource="http://purl.org/dc/dcmitype/StillImage" />
    <dc:title></dc:title>
  </cc:Work>
</rdf:RDF>
</metadata>
  <path
     style="fill:#000000;fill-opacity:1;stroke:none"
     d="M 0,7.100505 0,17 9.899495,17 0,7.100505 z"
     id="path2839" />
  <path
     style="fill:#000000;fill-opacity:1;stroke:none"
     d="m 36.062446,2.150758 c -1.562097,-1.562097 -4.094757,-1.562097 -5.656854,0 l -2.519068,2.519068 c -0.17506,-0.658037 -0.500328,-1.295823 -1.016466,-1.811961 -1.562097,-1.562097 -4.094757,-1.562097 -5.656854,0 l -2.519068,2.519068 c -0.17645,-0.659814 -0.49816,-1.293655 -1.016466,-1.811961 -1.562097,-1.562098 -4.094757,-1.562098 -5.656854,0 L 9.192388,6.393399 C 7.397333,8.188454 2.121321,9.221826 2.121321,9.221826 l 5.656854,5.656854 c 0,0 1.033372,-5.276013 2.828427,-7.071068 l 2.828427,-2.828427 c 0.781048,-0.781048 2.047379,-0.781048 2.828427,0 0.781048,0.781048 0.781048,2.047379 0,2.828427 l -2.12132,2.121321 1.414213,1.414213 7.071068,-7.071068 c 0.781049,-0.781048 2.047379,-0.781048 2.828427,0 0.781049,0.781049 0.781049,2.047379 0,2.828427 l -2.12132,2.121321 1.414214,1.414213 7.071067,-7.071067 c 0.781049,-0.781049 2.047379,-0.781049 2.828427,0 0.781049,0.781048 0.781049,2.047378 0,2.828427 l -2.828427,2.828427 1.414214,1.414213 2.828427,-2.828427 c 1.562097,-1.562097 1.562097,-4.094757 0,-5.656854 z"
     id="path3428" />
</svg>
