<?xml version="1.0" encoding="UTF-8" standalone="no"?>
<svg
   xmlns:dc="http://purl.org/dc/elements/1.1/"
   xmlns:cc="http://creativecommons.org/ns#"
   xmlns:rdf="http://www.w3.org/1999/02/22-rdf-syntax-ns#"
   xmlns:svg="http://www.w3.org/2000/svg"
   xmlns="http://www.w3.org/2000/svg"
   xmlns:sodipodi="http://sodipodi.sourceforge.net/DTD/sodipodi-0.dtd"
   xmlns:inkscape="http://www.inkscape.org/namespaces/inkscape"
   version="1.0"
   width="14"
   height="18"
   id="svg2"
   inkscape:version="0.47 r22583"
   sodipodi:docname="04-03-005-01-05-01.svg">
  <defs
     id="defs14">
    <inkscape:perspective
       sodipodi:type="inkscape:persp3d"
       inkscape:vp_x="0 : 17.5 : 1"
       inkscape:vp_y="0 : 1000 : 0"
       inkscape:vp_z="36 : 17.5 : 1"
       inkscape:persp3d-origin="18 : 11.666667 : 1"
       id="perspective16" />
  </defs>
  <sodipodi:namedview
     pagecolor="#ffffff"
     bordercolor="#666666"
     borderopacity="1"
     objecttolerance="10"
     gridtolerance="10"
     guidetolerance="10"
     inkscape:pageopacity="0"
     inkscape:pageshadow="2"
     inkscape:window-width="993"
     inkscape:window-height="789"
     id="namedview12"
     showgrid="true"
     inkscape:zoom="15.487095"
     inkscape:cx="7.6517287"
     inkscape:cy="9.1662025"
     inkscape:window-x="209"
     inkscape:window-y="0"
     inkscape:window-maximized="0"
     inkscape:current-layer="svg2"
     showguides="true"
     inkscape:guide-bbox="true">
    <inkscape:grid
       type="xygrid"
       id="grid2822" />
  </sodipodi:namedview>
  <metadata
     id="metadata4">
Valerie Sutton's pixel definition of the
ISWA 2010 symbol ID 04-03-001-01-01-01
transformed by Stephen E Slevinski Jr
using line and fill polygon tracing
<rdf:RDF>
  <cc:Work
     rdf:about="">
    <dc:format>image/svg+xml</dc:format>
    <dc:type
       rdf:resource="http://purl.org/dc/dcmitype/StillImage" />
    <dc:title></dc:title>
  </cc:Work>
</rdf:RDF>
</metadata>
  <path
     style="fill:#000000;fill-opacity:1;stroke:none"
     d="m 1,8 0,2 3,0 0,-2 -3,0 z m 5,0 0,2 3,0 0,-2 -3,0 z m 5,0 0,2 3,0 0,-2 -3,0 z"
     id="rect2815" />
  <path
     style="fill:#000000;fill-opacity:1;stroke:none"
     d="M 0.48236191,4.0681483 1,6 3.8977775,5.2235429 3.3801394,3.2916912 0.48236191,4.0681483 z M 5.311991,2.7740531 5.8296291,4.7059048 8.7274066,3.9294476 8.2097685,1.997596 5.311991,2.7740531 z M 10.14162,1.4799579 10.659258,3.4118095 13.557036,2.6353524 13.039398,0.70350076 10.14162,1.4799579 z"
     id="rect2817" />
  <path
     style="fill:#000000;fill-opacity:1;stroke:none"
     d="M 1,12 0.48236191,13.931852 3.3801394,14.708309 3.8977775,12.776457 1,12 z m 4.8296291,1.294095 -0.5176381,1.931852 2.8977775,0.776457 0.5176381,-1.931852 -2.8977775,-0.776457 z m 4.8296289,1.294095 -0.517638,1.931852 2.897778,0.776457 0.517638,-1.931851 -2.897778,-0.776458 z"
     id="rect2819" />
</svg>
