<?xml version="1.0" encoding="UTF-8" standalone="no"?>
<svg
   xmlns:dc="http://purl.org/dc/elements/1.1/"
   xmlns:cc="http://creativecommons.org/ns#"
   xmlns:rdf="http://www.w3.org/1999/02/22-rdf-syntax-ns#"
   xmlns:svg="http://www.w3.org/2000/svg"
   xmlns="http://www.w3.org/2000/svg"
   xmlns:sodipodi="http://sodipodi.sourceforge.net/DTD/sodipodi-0.dtd"
   xmlns:inkscape="http://www.inkscape.org/namespaces/inkscape"
   version="1.0"
   width="18"
   height="14"
   id="svg2"
   inkscape:version="0.47 r22583"
   sodipodi:docname="04-03-006-01-01-01.svg">
  <defs
     id="defs14">
    <inkscape:perspective
       sodipodi:type="inkscape:persp3d"
       inkscape:vp_x="0 : 17.5 : 1"
       inkscape:vp_y="0 : 1000 : 0"
       inkscape:vp_z="36 : 17.5 : 1"
       inkscape:persp3d-origin="18 : 11.666667 : 1"
       id="perspective16" />
  </defs>
  <sodipodi:namedview
     pagecolor="#ffffff"
     bordercolor="#666666"
     borderopacity="1"
     objecttolerance="10"
     gridtolerance="10"
     guidetolerance="10"
     inkscape:pageopacity="0"
     inkscape:pageshadow="2"
     inkscape:window-width="993"
     inkscape:window-height="789"
     id="namedview12"
     showgrid="true"
     inkscape:zoom="15.487095"
     inkscape:cx="7.6517287"
     inkscape:cy="6.583407"
     inkscape:window-x="209"
     inkscape:window-y="0"
     inkscape:window-maximized="0"
     inkscape:current-layer="svg2"
     showguides="true"
     inkscape:guide-bbox="true">
    <inkscape:grid
       type="xygrid"
       id="grid2822" />
  </sodipodi:namedview>
  <metadata
     id="metadata4">
Valerie Sutton's pixel definition of the
ISWA 2010 symbol ID 04-03-001-01-01-01
transformed by Stephen E Slevinski Jr
using line and fill polygon tracing
<rdf:RDF>
  <cc:Work
     rdf:about="">
    <dc:format>image/svg+xml</dc:format>
    <dc:type
       rdf:resource="http://purl.org/dc/dcmitype/StillImage" />
    <dc:title></dc:title>
  </cc:Work>
</rdf:RDF>
</metadata>
  <path
     style="fill:#000000;fill-opacity:1;stroke:none"
     d="m 10,1 -2,0 0,3 2,0 0,-3 z m 0,4.9999998 -2,0 L 8,9 10,9 10,5.9999998 z M 10,11 l -2,0 0,3 2,0 0,-3 z"
     id="rect2815" />
  <path
     style="fill:#000000;fill-opacity:1;stroke:none"
     d="M 13.931852,0.482362 12,1 12.776457,3.897778 14.708309,3.380139 13.931852,0.482362 z m 1.294095,4.8296288 -1.931852,0.517638 0.776457,2.8977778 1.931852,-0.5176381 -0.776457,-2.8977777 z m 1.294095,4.8296292 -1.931852,0.517638 0.776457,2.897778 1.931852,-0.517638 -0.776457,-2.897778 z"
     id="rect2817" />
  <path
     style="fill:#000000;fill-opacity:1;stroke:none"
     d="M 6,1 4.068148,0.482362 3.291691,3.380139 5.223543,3.897778 6,1 z M 4.705905,5.8296288 2.774053,5.3119908 1.997596,8.2097685 3.929448,8.7274066 4.705905,5.8296288 z M 3.41181,10.659258 1.479958,10.14162 0.703501,13.039398 2.635352,13.557036 3.41181,10.659258 z"
     id="rect2819" />
</svg>
