<?xml version="1.0" encoding="UTF-8" standalone="no"?>
<svg
   xmlns:dc="http://purl.org/dc/elements/1.1/"
   xmlns:cc="http://creativecommons.org/ns#"
   xmlns:rdf="http://www.w3.org/1999/02/22-rdf-syntax-ns#"
   xmlns:svg="http://www.w3.org/2000/svg"
   xmlns="http://www.w3.org/2000/svg"
   xmlns:sodipodi="http://sodipodi.sourceforge.net/DTD/sodipodi-0.dtd"
   xmlns:inkscape="http://www.inkscape.org/namespaces/inkscape"
   version="1.0"
   width="16"
   height="16"
   id="svg2"
   inkscape:version="0.47 r22583"
   sodipodi:docname="04-03-006-01-02-06.svg">
  <defs
     id="defs14">
    <inkscape:perspective
       sodipodi:type="inkscape:persp3d"
       inkscape:vp_x="0 : 17.5 : 1"
       inkscape:vp_y="0 : 1000 : 0"
       inkscape:vp_z="36 : 17.5 : 1"
       inkscape:persp3d-origin="18 : 11.666667 : 1"
       id="perspective16" />
  </defs>
  <sodipodi:namedview
     pagecolor="#ffffff"
     bordercolor="#666666"
     borderopacity="1"
     objecttolerance="10"
     gridtolerance="10"
     guidetolerance="10"
     inkscape:pageopacity="0"
     inkscape:pageshadow="2"
     inkscape:window-width="993"
     inkscape:window-height="789"
     id="namedview12"
     showgrid="true"
     inkscape:zoom="15.487095"
     inkscape:cx="7.6517287"
     inkscape:cy="6.583407"
     inkscape:window-x="209"
     inkscape:window-y="0"
     inkscape:window-maximized="0"
     inkscape:current-layer="svg2"
     showguides="true"
     inkscape:guide-bbox="true">
    <inkscape:grid
       type="xygrid"
       id="grid2822" />
  </sodipodi:namedview>
  <metadata
     id="metadata4">
Valerie Sutton's pixel definition of the
ISWA 2010 symbol ID 04-03-001-01-01-01
transformed by Stephen E Slevinski Jr
using line and fill polygon tracing
<rdf:RDF>
  <cc:Work
     rdf:about="">
    <dc:format>image/svg+xml</dc:format>
    <dc:type
       rdf:resource="http://purl.org/dc/dcmitype/StillImage" />
    <dc:title></dc:title>
  </cc:Work>
</rdf:RDF>
</metadata>
  <path
     style="fill:#000000;fill-opacity:1;stroke:none"
     d="M 11.565255,5.8489585 10.151041,7.2631717 8.7368278,5.8489585 10.151041,4.4347445 11.565255,5.8489585 z M 8.7368278,8.6773854 7.3226142,10.091599 5.908401,8.6773854 7.3226142,7.2631718 8.7368278,8.6773854 z M 5.908401,11.505813 4.494187,12.920026 3.079974,11.505813 4.494187,10.091599 5.908401,11.505813 z"
     id="rect3199" />
  <path
     style="fill:#000000;fill-opacity:1;stroke:none"
     d="M 6.7320513,1.5418305 5.747677,3.2468185 4.015625,2.2468175 5,0.54183046 6.7320513,1.5418305 z m -1.9843753,3.437038 -1,1.7320511 -1.732051,-1.0000001 1,-1.732051 1.732051,1 z m -2,3.4641017 L 1.732051,10.202084 0,9.202084 1.015625,7.4429699 2.747676,8.4429702 z"
     id="rect3201" />
  <path
     style="fill:#000000;fill-opacity:1;stroke:none"
     d="m 15.458169,11 -1.704987,0.984374 -1,-1.732051 1.704987,-0.9843744 1,1.7320514 z m -3.437038,1.984375 -1.732051,1 -0.9999998,-1.732051 1.7320508,-1 1,1.732051 z M 8.5570295,14.984374 6.7979153,16 5.797915,14.267949 l 1.7591145,-1.015625 1,1.73205 z"
     id="rect3203" />
</svg>
