<?xml version="1.0" encoding="UTF-8" standalone="no"?>
<svg
   xmlns:dc="http://purl.org/dc/elements/1.1/"
   xmlns:cc="http://creativecommons.org/ns#"
   xmlns:rdf="http://www.w3.org/1999/02/22-rdf-syntax-ns#"
   xmlns:svg="http://www.w3.org/2000/svg"
   xmlns="http://www.w3.org/2000/svg"
   xmlns:sodipodi="http://sodipodi.sourceforge.net/DTD/sodipodi-0.dtd"
   xmlns:inkscape="http://www.inkscape.org/namespaces/inkscape"
   version="1.0"
   width="11"
   height="16"
   id="svg2"
   inkscape:version="0.47 r22583"
   sodipodi:docname="04-03-006-01-02-05.svg">
  <defs
     id="defs14">
    <inkscape:perspective
       sodipodi:type="inkscape:persp3d"
       inkscape:vp_x="0 : 17.5 : 1"
       inkscape:vp_y="0 : 1000 : 0"
       inkscape:vp_z="36 : 17.5 : 1"
       inkscape:persp3d-origin="18 : 11.666667 : 1"
       id="perspective16" />
  </defs>
  <sodipodi:namedview
     pagecolor="#ffffff"
     bordercolor="#666666"
     borderopacity="1"
     objecttolerance="10"
     gridtolerance="10"
     guidetolerance="10"
     inkscape:pageopacity="0"
     inkscape:pageshadow="2"
     inkscape:window-width="993"
     inkscape:window-height="789"
     id="namedview12"
     showgrid="true"
     inkscape:zoom="15.487095"
     inkscape:cx="7.6517287"
     inkscape:cy="6.583407"
     inkscape:window-x="209"
     inkscape:window-y="0"
     inkscape:window-maximized="0"
     inkscape:current-layer="svg2"
     showguides="true"
     inkscape:guide-bbox="true">
    <inkscape:grid
       type="xygrid"
       id="grid2822" />
  </sodipodi:namedview>
  <metadata
     id="metadata4">
Valerie Sutton's pixel definition of the
ISWA 2010 symbol ID 04-03-001-01-01-01
transformed by Stephen E Slevinski Jr
using line and fill polygon tracing
<rdf:RDF>
  <cc:Work
     rdf:about="">
    <dc:format>image/svg+xml</dc:format>
    <dc:type
       rdf:resource="http://purl.org/dc/dcmitype/StillImage" />
    <dc:title></dc:title>
  </cc:Work>
</rdf:RDF>
</metadata>
  <path
     style="fill:#000000;fill-opacity:1;stroke:none"
     d="m 0,7.0000001 2,0 L 2,9 0,9 0,7.0000001 z M 4,7 6,7 6,9 4,9 4,7 z m 4,0 2,0 0,2 -2,0 0,-2 z"
     id="rect3199" />
  <path
     style="fill:#000000;fill-opacity:1;stroke:none"
     d="M 0.371992,13.46319 2.2736581,12.95364 2.7912963,14.885492 0.88963,15.395042 0.371992,13.46319 z M 4.2055099,12.436002 6.1373615,11.918364 6.6549996,13.850216 4.723148,14.367854 4.2055099,12.436002 z M 8.069213,11.400726 10.03125,10.875 10.548888,12.806852 8.586851,13.332578 8.069213,11.400726 z"
     id="rect3201" />
  <path
     style="fill:#000000;fill-opacity:1;stroke:none"
     d="M 0.88963,0.604958 2.7912963,1.114508 2.2736581,3.0463595 0.371992,2.5368095 0.88963,0.604958 z M 4.723148,1.632146 6.6549996,2.1497841 6.1373615,4.0816357 4.2055099,3.5639977 4.723148,1.632146 z M 8.586851,2.6674222 10.548888,3.1931483 10.03125,5.1250001 8.069213,4.5992738 8.586851,2.6674222 z"
     id="rect3203" />
</svg>
