<?xml version="1.0" encoding="UTF-8" standalone="no"?>
<svg
   xmlns:dc="http://purl.org/dc/elements/1.1/"
   xmlns:cc="http://creativecommons.org/ns#"
   xmlns:rdf="http://www.w3.org/1999/02/22-rdf-syntax-ns#"
   xmlns:svg="http://www.w3.org/2000/svg"
   xmlns="http://www.w3.org/2000/svg"
   xmlns:sodipodi="http://sodipodi.sourceforge.net/DTD/sodipodi-0.dtd"
   xmlns:inkscape="http://www.inkscape.org/namespaces/inkscape"
   version="1.0"
   width="11"
   height="15"
   id="svg2"
   inkscape:version="0.47 r22583"
   sodipodi:docname="03-01-003-02-02-01.svg">
  <defs
     id="defs14">
    <inkscape:perspective
       sodipodi:type="inkscape:persp3d"
       inkscape:vp_x="0 : 5.5 : 1"
       inkscape:vp_y="0 : 1000 : 0"
       inkscape:vp_z="10 : 5.5 : 1"
       inkscape:persp3d-origin="5 : 3.6666667 : 1"
       id="perspective16" />
  </defs>
  <sodipodi:namedview
     pagecolor="#ffffff"
     bordercolor="#666666"
     borderopacity="1"
     objecttolerance="10"
     gridtolerance="10"
     guidetolerance="10"
     inkscape:pageopacity="0"
     inkscape:pageshadow="2"
     inkscape:window-width="917"
     inkscape:window-height="792"
     id="namedview12"
     showgrid="true"
     inkscape:zoom="16.914797"
     inkscape:cx="5.5039196"
     inkscape:cy="7.5053448"
     inkscape:window-x="313"
     inkscape:window-y="0"
     inkscape:window-maximized="0"
     inkscape:current-layer="svg2"
     showborder="true"
     inkscape:showpageshadow="true">
    <inkscape:grid
       type="xygrid"
       id="grid2822"
       empspacing="5"
       visible="true"
       enabled="true"
       snapvisiblegridlinesonly="true" />
  </sodipodi:namedview>
  <metadata
     id="metadata4">
Valerie Sutton's pixel definition of the
ISWA 2010 symbol ID 02-01-001-01-01-01
transformed by Stephen E Slevinski Jr
using line and fill polygon tracing
<rdf:RDF>
  <cc:Work
     rdf:about="">
    <dc:format>image/svg+xml</dc:format>
    <dc:type
       rdf:resource="http://purl.org/dc/dcmitype/StillImage" />
    <dc:title></dc:title>
  </cc:Work>
</rdf:RDF>
</metadata>
  <path
     style="fill:#000000;fill-opacity:1;stroke:none"
     d="M 3.5,0 C 1,0 0,2.5 0,2.5 L 0,7 C 0,7 2,4 3.5,4 4.5,4 5,7 7.5,7 10,7 11,4.5 11,4.5 L 11,0 C 11,0 9,3 7.5,3 6.5,3 6,0 3.5,0 z m 0,1.0625 C 4.0374655,1.0851821 4.536801,1.3981197 4.96875,1.71875 5.3362039,1.9915064 5.5839858,2.3968299 5.875,2.75 6.124318,3.0525682 6.2816445,3.4502298 6.59375,3.6875 6.8534018,3.8848937 7.1749328,4.035767 7.5,4.0625 7.9044783,4.0957637 8.3274511,3.9685305 8.6875,3.78125 9.2514473,3.4879112 9.7546388,3.0191596 10.09375,2.5 l 0,1.84375 C 9.8373281,4.6502301 9.4996485,5.1130403 9.09375,5.375 8.6197929,5.6808835 8.0635905,5.9612846 7.5,5.9375 6.9625345,5.9148179 6.463199,5.6018803 6.03125,5.28125 5.6637961,5.0084936 5.4160142,4.6031701 5.125,4.25 4.875682,3.9474318 4.7183555,3.5497702 4.40625,3.3125 4.1465982,3.1151063 3.8250672,2.964233 3.5,2.9375 3.0955217,2.9042363 2.6725489,3.0314695 2.3125,3.21875 1.7485527,3.5120888 1.2453612,3.9808404 0.90625,4.5 l 0,-1.84375 C 1.1626719,2.3497699 1.5003515,1.8869597 1.90625,1.625 2.3802071,1.3191165 2.9364095,1.0387154 3.5,1.0625 z"
     id="path2922" />
  <path
     style="fill:#ffffff;fill-opacity:1;stroke:none"
     d="M 3.5,1.0625 C 2.9364095,1.0387154 2.3802071,1.3191165 1.90625,1.625 c -0.4058985,0.2619597 -0.7435781,0.7247699 -1,1.03125 l 0,1.84375 C 1.2453612,3.9808404 1.7485527,3.5120888 2.3125,3.21875 2.6725489,3.0314695 3.0955217,2.9042363 3.5,2.9375 3.8250672,2.964233 4.1465982,3.1151063 4.40625,3.3125 4.7183555,3.5497702 4.875682,3.9474318 5.125,4.25 5.4160142,4.6031701 5.6637961,5.0084936 6.03125,5.28125 6.463199,5.6018803 6.9625345,5.9148179 7.5,5.9375 8.0635905,5.9612846 8.6197929,5.6808835 9.09375,5.375 c 0.4058985,-0.2619597 0.7435781,-0.7247699 1,-1.03125 l 0,-1.84375 C 9.7546388,3.0191596 9.2514473,3.4879112 8.6875,3.78125 8.3274511,3.9685305 7.9044783,4.0957637 7.5,4.0625 7.1749328,4.035767 6.8534018,3.8848937 6.59375,3.6875 6.2816445,3.4502298 6.124318,3.0525682 5.875,2.75 5.5839858,2.3968299 5.3362039,1.9915064 4.96875,1.71875 4.536801,1.3981197 4.0374655,1.0851821 3.5,1.0625 z"
     id="path3745" />
  <path
     id="path3800"
     d="M 3.5,8 C 1,8 0,10.5 0,10.5 L 0,15 c 0,0 2,-3 3.5,-3 1,0 1.5,3 4,3 C 10,15 11,12.5 11,12.5 L 11,8 C 11,8 9,11 7.5,11 6.5,11 6,8 3.5,8 z m 0,1.0625 c 0.5374655,0.022682 1.036801,0.3356197 1.46875,0.65625 0.3674539,0.2727564 0.6152358,0.67808 0.90625,1.03125 0.249318,0.302568 0.4066445,0.70023 0.71875,0.9375 0.2596518,0.197394 0.5811828,0.348267 0.90625,0.375 0.4044783,0.03326 0.8274511,-0.09397 1.1875,-0.28125 C 9.2514473,11.487911 9.7546388,11.01916 10.09375,10.5 l 0,1.84375 c -0.2564219,0.30648 -0.5941015,0.76929 -1,1.03125 C 8.6197929,13.680884 8.0635905,13.961285 7.5,13.9375 6.9625345,13.914818 6.463199,13.60188 6.03125,13.28125 5.6637961,13.008494 5.4160142,12.60317 5.125,12.25 4.875682,11.947432 4.7183555,11.54977 4.40625,11.3125 4.1465982,11.115106 3.8250672,10.964233 3.5,10.9375 3.0955217,10.904236 2.6725489,11.03147 2.3125,11.21875 1.7485527,11.512089 1.2453612,11.98084 0.90625,12.5 l 0,-1.84375 C 1.1626719,10.34977 1.5003515,9.8869597 1.90625,9.625 2.3802071,9.3191165 2.9364095,9.0387154 3.5,9.0625 z"
     style="fill:#000000;fill-opacity:1;stroke:none" />
  <path
     id="path3802"
     d="M 3.5,9.0625 C 2.9364095,9.0387154 2.3802071,9.3191165 1.90625,9.625 c -0.4058985,0.2619597 -0.7435781,0.72477 -1,1.03125 l 0,1.84375 C 1.2453612,11.98084 1.7485527,11.512089 2.3125,11.21875 2.6725489,11.03147 3.0955217,10.904236 3.5,10.9375 c 0.3250672,0.02673 0.6465982,0.177606 0.90625,0.375 0.3121055,0.23727 0.469432,0.634932 0.71875,0.9375 0.2910142,0.35317 0.5387961,0.758494 0.90625,1.03125 0.431949,0.32063 0.9312845,0.633568 1.46875,0.65625 0.5635905,0.02379 1.1197929,-0.256616 1.59375,-0.5625 0.4058985,-0.26196 0.7435781,-0.72477 1,-1.03125 l 0,-1.84375 C 9.7546388,11.01916 9.2514473,11.487911 8.6875,11.78125 8.3274511,11.968531 7.9044783,12.095764 7.5,12.0625 7.1749328,12.035767 6.8534018,11.884894 6.59375,11.6875 6.2816445,11.45023 6.124318,11.052568 5.875,10.75 5.5839858,10.39683 5.3362039,9.9915064 4.96875,9.71875 4.536801,9.3981197 4.0374655,9.0851821 3.5,9.0625 z"
     style="fill:#ffffff;fill-opacity:1;stroke:none" />
</svg>
