<?xml version="1.0" encoding="UTF-8" standalone="no"?>
<svg
   xmlns:dc="http://purl.org/dc/elements/1.1/"
   xmlns:cc="http://creativecommons.org/ns#"
   xmlns:rdf="http://www.w3.org/1999/02/22-rdf-syntax-ns#"
   xmlns:svg="http://www.w3.org/2000/svg"
   xmlns="http://www.w3.org/2000/svg"
   xmlns:sodipodi="http://sodipodi.sourceforge.net/DTD/sodipodi-0.dtd"
   xmlns:inkscape="http://www.inkscape.org/namespaces/inkscape"
   version="1.0"
   width="11"
   height="7"
   id="svg2"
   inkscape:version="0.47 r22583"
   sodipodi:docname="03-01-003-01-03-01.svg">
  <defs
     id="defs14">
    <inkscape:perspective
       sodipodi:type="inkscape:persp3d"
       inkscape:vp_x="0 : 5.5 : 1"
       inkscape:vp_y="0 : 1000 : 0"
       inkscape:vp_z="10 : 5.5 : 1"
       inkscape:persp3d-origin="5 : 3.6666667 : 1"
       id="perspective16" />
  </defs>
  <sodipodi:namedview
     pagecolor="#ffffff"
     bordercolor="#666666"
     borderopacity="1"
     objecttolerance="10"
     gridtolerance="10"
     guidetolerance="10"
     inkscape:pageopacity="0"
     inkscape:pageshadow="2"
     inkscape:window-width="917"
     inkscape:window-height="792"
     id="namedview12"
     showgrid="true"
     inkscape:zoom="16.141471"
     inkscape:cx="5.498204"
     inkscape:cy="3.4988571"
     inkscape:window-x="313"
     inkscape:window-y="0"
     inkscape:window-maximized="0"
     inkscape:current-layer="svg2"
     showborder="true"
     inkscape:showpageshadow="true">
    <inkscape:grid
       type="xygrid"
       id="grid2822"
       empspacing="5"
       visible="true"
       enabled="true"
       snapvisiblegridlinesonly="true" />
  </sodipodi:namedview>
  <metadata
     id="metadata4">
Valerie Sutton's pixel definition of the
ISWA 2010 symbol ID 02-01-001-01-01-01
transformed by Stephen E Slevinski Jr
using line and fill polygon tracing
<rdf:RDF>
  <cc:Work
     rdf:about="">
    <dc:format>image/svg+xml</dc:format>
    <dc:type
       rdf:resource="http://purl.org/dc/dcmitype/StillImage" />
    <dc:title></dc:title>
  </cc:Work>
</rdf:RDF>
</metadata>
  <path
     style="fill:#000000;fill-opacity:1;stroke:none"
     d="M 3.5 0 C 1 0 0 2.5 0 2.5 L 0 7 C 0 7 2 4 3.5 4 C 4.5 4 5 7 7.5 7 C 10 7 11 4.5 11 4.5 L 11 0 C 11 0 9 3 7.5 3 C 6.5 3 6 0 3.5 0 z M 3.5 1.0625 C 4.0374655 1.0851821 4.536801 1.3981197 4.96875 1.71875 C 5.3362039 1.9915064 5.5839858 2.3968299 5.875 2.75 C 6.124318 3.0525682 6.2816445 3.4502298 6.59375 3.6875 C 6.8534018 3.8848937 7.1749328 4.035767 7.5 4.0625 C 7.9044783 4.0957637 8.3274511 3.9685305 8.6875 3.78125 C 9.2514473 3.4879112 9.7546388 3.0191596 10.09375 2.5 L 10.09375 4.34375 C 9.8373281 4.6502301 9.4996485 5.1130403 9.09375 5.375 C 8.6197929 5.6808835 8.0635905 5.9612846 7.5 5.9375 C 6.9625345 5.9148179 6.463199 5.6018803 6.03125 5.28125 C 5.6637961 5.0084936 5.4160142 4.6031701 5.125 4.25 C 4.875682 3.9474318 4.7183555 3.5497702 4.40625 3.3125 C 4.1465982 3.1151063 3.8250672 2.964233 3.5 2.9375 C 3.0955217 2.9042363 2.6725489 3.0314695 2.3125 3.21875 C 1.7485527 3.5120888 1.2453612 3.9808404 0.90625 4.5 L 0.90625 2.65625 C 1.1626719 2.3497699 1.5003515 1.8869597 1.90625 1.625 C 2.3802071 1.3191165 2.9364095 1.0387154 3.5 1.0625 z "
     id="path2922" />
  <path
     style="fill:#ffffff;fill-opacity:1;stroke:none"
     d="M 3.5 1.0625 C 2.9364095 1.0387154 2.3802071 1.3191165 1.90625 1.625 C 1.5003515 1.8869597 1.1626719 2.3497699 0.90625 2.65625 L 0.90625 4.5 C 1.2453612 3.9808404 1.7485527 3.5120888 2.3125 3.21875 C 2.6725489 3.0314695 3.0955217 2.9042363 3.5 2.9375 C 3.8250672 2.964233 4.1465982 3.1151063 4.40625 3.3125 C 4.7183555 3.5497702 4.875682 3.9474318 5.125 4.25 C 5.4160142 4.6031701 5.6637961 5.0084936 6.03125 5.28125 C 6.463199 5.6018803 6.9625345 5.9148179 7.5 5.9375 C 8.0635905 5.9612846 8.6197929 5.6808835 9.09375 5.375 C 9.4996485 5.1130403 9.8373281 4.6502301 10.09375 4.34375 L 10.09375 2.5 C 9.7546388 3.0191596 9.2514473 3.4879112 8.6875 3.78125 C 8.3274511 3.9685305 7.9044783 4.0957637 7.5 4.0625 C 7.1749328 4.035767 6.8534018 3.8848937 6.59375 3.6875 C 6.2816445 3.4502298 6.124318 3.0525682 5.875 2.75 C 5.5839858 2.3968299 5.3362039 1.9915064 4.96875 1.71875 C 4.536801 1.3981197 4.0374655 1.0851821 3.5 1.0625 z "
     id="path3745" />
</svg>
