<?xml version="1.0" encoding="UTF-8" standalone="no"?>
<svg
   xmlns:dc="http://purl.org/dc/elements/1.1/"
   xmlns:cc="http://creativecommons.org/ns#"
   xmlns:rdf="http://www.w3.org/1999/02/22-rdf-syntax-ns#"
   xmlns:svg="http://www.w3.org/2000/svg"
   xmlns="http://www.w3.org/2000/svg"
   xmlns:sodipodi="http://sodipodi.sourceforge.net/DTD/sodipodi-0.dtd"
   xmlns:inkscape="http://www.inkscape.org/namespaces/inkscape"
   version="1.0"
   width="11"
   height="7"
   id="svg2"
   inkscape:version="0.47 r22583"
   sodipodi:docname="03-01-003-02-01-01.svg">
  <defs
     id="defs14">
    <inkscape:perspective
       sodipodi:type="inkscape:persp3d"
       inkscape:vp_x="0 : 5.5 : 1"
       inkscape:vp_y="0 : 1000 : 0"
       inkscape:vp_z="10 : 5.5 : 1"
       inkscape:persp3d-origin="5 : 3.6666667 : 1"
       id="perspective16" />
  </defs>
  <sodipodi:namedview
     pagecolor="#ffffff"
     bordercolor="#666666"
     borderopacity="1"
     objecttolerance="10"
     gridtolerance="10"
     guidetolerance="10"
     inkscape:pageopacity="0"
     inkscape:pageshadow="2"
     inkscape:window-width="917"
     inkscape:window-height="792"
     id="namedview12"
     showgrid="true"
     inkscape:zoom="16.141471"
     inkscape:cx="5.498204"
     inkscape:cy="3.4988571"
     inkscape:window-x="313"
     inkscape:window-y="0"
     inkscape:window-maximized="0"
     inkscape:current-layer="svg2"
     showborder="true"
     inkscape:showpageshadow="true">
    <inkscape:grid
       type="xygrid"
       id="grid2822"
       empspacing="5"
       visible="true"
       enabled="true"
       snapvisiblegridlinesonly="true" />
  </sodipodi:namedview>
  <metadata
     id="metadata4">
Valerie Sutton's pixel definition of the
ISWA 2010 symbol ID 02-01-001-01-01-01
transformed by Stephen E Slevinski Jr
using line and fill polygon tracing
<rdf:RDF>
  <cc:Work
     rdf:about="">
    <dc:format>image/svg+xml</dc:format>
    <dc:type
       rdf:resource="http://purl.org/dc/dcmitype/StillImage" />
    <dc:title></dc:title>
  </cc:Work>
</rdf:RDF>
</metadata>
  <path
     style="fill:#000000;fill-opacity:1;stroke:none"
     d="M 7.5,0 C 10,0 11,2.5 11,2.5 L 11,7 C 11,7 9,4 7.5,4 6.5,4 6,7 3.5,7 1,7 0,4.5 0,4.5 L 0,0 c 0,0 2,3 3.5,3 1,0 1.5,-3 4,-3 z m 0,1.0625 C 6.9625345,1.0851821 6.463199,1.3981197 6.03125,1.71875 5.6637961,1.9915064 5.4160142,2.3968299 5.125,2.75 4.875682,3.0525682 4.7183555,3.4502298 4.40625,3.6875 4.1465982,3.8848937 3.8250672,4.035767 3.5,4.0625 3.0955217,4.0957637 2.6725489,3.9685305 2.3125,3.78125 1.7485527,3.4879112 1.2453612,3.0191596 0.90625,2.5 l 0,1.84375 c 0.2564219,0.3064801 0.5941015,0.7692903 1,1.03125 C 2.3802071,5.6808835 2.9364095,5.9612846 3.5,5.9375 4.0374655,5.9148179 4.536801,5.6018803 4.96875,5.28125 5.3362039,5.0084936 5.5839858,4.6031701 5.875,4.25 6.124318,3.9474318 6.2816445,3.5497702 6.59375,3.3125 6.8534018,3.1151063 7.1749328,2.964233 7.5,2.9375 7.9044783,2.9042363 8.3274511,3.0314695 8.6875,3.21875 9.2514473,3.5120888 9.7546388,3.9808404 10.09375,4.5 l 0,-1.84375 C 9.8373281,2.3497699 9.4996485,1.8869597 9.09375,1.625 8.6197929,1.3191165 8.0635905,1.0387154 7.5,1.0625 z"
     id="path2922" />
  <path
     style="fill:#ffffff;fill-opacity:1;stroke:none"
     d="m 7.5,1.0625 c 0.5635905,-0.023785 1.1197929,0.2566165 1.59375,0.5625 0.4058985,0.2619597 0.7435781,0.7247699 1,1.03125 l 0,1.84375 C 9.7546388,3.9808404 9.2514473,3.5120888 8.6875,3.21875 8.3274511,3.0314695 7.9044783,2.9042363 7.5,2.9375 7.1749328,2.964233 6.8534018,3.1151063 6.59375,3.3125 6.2816445,3.5497702 6.124318,3.9474318 5.875,4.25 5.5839858,4.6031701 5.3362039,5.0084936 4.96875,5.28125 4.536801,5.6018803 4.0374655,5.9148179 3.5,5.9375 2.9364095,5.9612846 2.3802071,5.6808835 1.90625,5.375 1.5003515,5.1130403 1.1626719,4.6502301 0.90625,4.34375 l 0,-1.84375 C 1.2453612,3.0191596 1.7485527,3.4879112 2.3125,3.78125 2.6725489,3.9685305 3.0955217,4.0957637 3.5,4.0625 3.8250672,4.035767 4.1465982,3.8848937 4.40625,3.6875 4.7183555,3.4502298 4.875682,3.0525682 5.125,2.75 5.4160142,2.3968299 5.6637961,1.9915064 6.03125,1.71875 6.463199,1.3981197 6.9625345,1.0851821 7.5,1.0625 z"
     id="path3745" />
</svg>
