<?xml version="1.0" encoding="UTF-8" standalone="no"?>
<svg
   xmlns:dc="http://purl.org/dc/elements/1.1/"
   xmlns:cc="http://creativecommons.org/ns#"
   xmlns:rdf="http://www.w3.org/1999/02/22-rdf-syntax-ns#"
   xmlns:svg="http://www.w3.org/2000/svg"
   xmlns="http://www.w3.org/2000/svg"
   xmlns:sodipodi="http://sodipodi.sourceforge.net/DTD/sodipodi-0.dtd"
   xmlns:inkscape="http://www.inkscape.org/namespaces/inkscape"
   version="1.0"
   width="34"
   height="11"
   id="svg2"
   inkscape:version="0.47 r22583"
   sodipodi:docname="02-02-002-02-01-02.svg">
  <defs
     id="defs14">
    <inkscape:perspective
       sodipodi:type="inkscape:persp3d"
       inkscape:vp_x="0 : 5.5 : 1"
       inkscape:vp_y="0 : 1000 : 0"
       inkscape:vp_z="10 : 5.5 : 1"
       inkscape:persp3d-origin="5 : 3.6666667 : 1"
       id="perspective16" />
  </defs>
  <sodipodi:namedview
     pagecolor="#ffffff"
     bordercolor="#666666"
     borderopacity="1"
     objecttolerance="10"
     gridtolerance="10"
     guidetolerance="10"
     inkscape:pageopacity="0"
     inkscape:pageshadow="2"
     inkscape:window-width="917"
     inkscape:window-height="792"
     id="namedview12"
     showgrid="true"
     inkscape:zoom="18.681011"
     inkscape:cx="15.828696"
     inkscape:cy="6.8219189"
     inkscape:window-x="313"
     inkscape:window-y="0"
     inkscape:window-maximized="0"
     inkscape:current-layer="svg2">
    <inkscape:grid
       type="xygrid"
       id="grid2822" />
  </sodipodi:namedview>
  <metadata
     id="metadata4">
Valerie Sutton's pixel definition of the
ISWA 2010 symbol ID 02-01-001-01-01-01
transformed by Stephen E Slevinski Jr
using line and fill polygon tracing
<rdf:RDF>
  <cc:Work
     rdf:about="">
    <dc:format>image/svg+xml</dc:format>
    <dc:type
       rdf:resource="http://purl.org/dc/dcmitype/StillImage" />
    <dc:title></dc:title>
  </cc:Work>
</rdf:RDF>
</metadata>
  <path
     style="fill:#000000;fill-opacity:1;stroke:none"
     d="M 3 5 C 1.3431458 5 0 6.343146 0 8 C 0 9.656854 1.3431458 11 3 11 C 4.6568543 11 6 9.656854 6 8 C 6 6.343146 4.6568543 5 3 5 z M 3 6 C 4.1045695 6 5 6.8954307 5 8 C 5 9.104569 4.1045695 10 3 10 C 1.8954305 10 1 9.104569 1 8 C 1 6.8954307 1.8954305 6 3 6 z "
     id="path3529" />
  <path
     style="fill:#000000;fill-opacity:1;stroke:none"
     d="M 10,0 C 8.3431458,0 7,1.343146 7,3 7,4.656854 8.3431458,6 10,6 11.656854,6 13,4.656854 13,3 13,1.343146 11.656854,0 10,0 z"
     id="path3578" />
  <path
     style="fill:#000000;fill-opacity:1;stroke:none"
     d="M 17 5 C 15.343146 5 14 6.343146 14 8 C 14 9.656854 15.343146 11 17 11 C 18.656854 11 20 9.656854 20 8 C 20 6.343146 18.656854 5 17 5 z M 17 6 C 18.10457 6 19 6.8954307 19 8 C 19 9.104569 18.10457 10 17 10 C 15.895431 10 15 9.104569 15 8 C 15 6.8954307 15.895431 6 17 6 z "
     id="path2814" />
  <path
     id="path2816"
     d="m 24,0 c -1.656854,0 -3,1.343146 -3,3 0,1.656854 1.343146,3 3,3 1.656854,0 3,-1.343146 3,-3 0,-1.656854 -1.343146,-3 -3,-3 z"
     style="fill:#000000;fill-opacity:1;stroke:none" />
  <path
     style="fill:#000000;fill-opacity:1;stroke:none"
     d="M 31 5 C 29.343146 5 28 6.343146 28 8 C 28 9.656854 29.343146 11 31 11 C 32.656854 11 34 9.656854 34 8 C 34 6.343146 32.656854 5 31 5 z M 31 6 C 32.10457 6 33 6.8954307 33 8 C 33 9.104569 32.10457 10 31 10 C 29.895431 10 29 9.104569 29 8 C 29 6.8954307 29.895431 6 31 6 z "
     id="path2818" />
  <path
     id="path2820"
     d="M 3,6 C 1.8954305,6 1,6.8954307 1,8 1,9.104569 1.8954305,10 3,10 4.1045695,10 5,9.104569 5,8 5,6.8954307 4.1045695,6 3,6 z"
     style="fill:#ffffff;fill-opacity:1;stroke:none" />
  <path
     style="fill:#ffffff;fill-opacity:1;stroke:none"
     d="m 17,6 c -1.104569,0 -2,0.8954307 -2,2 0,1.104569 0.895431,2 2,2 1.10457,0 2,-0.895431 2,-2 0,-1.1045693 -0.89543,-2 -2,-2 z"
     id="path2822" />
  <path
     id="path2824"
     d="m 31,6 c -1.104569,0 -2,0.8954307 -2,2 0,1.104569 0.895431,2 2,2 1.10457,0 2,-0.895431 2,-2 0,-1.1045693 -0.89543,-2 -2,-2 z"
     style="fill:#ffffff;fill-opacity:1;stroke:none" />
</svg>
