<?xml version="1.0" encoding="UTF-8" standalone="no"?>
<svg
   xmlns:dc="http://purl.org/dc/elements/1.1/"
   xmlns:cc="http://creativecommons.org/ns#"
   xmlns:rdf="http://www.w3.org/1999/02/22-rdf-syntax-ns#"
   xmlns:svg="http://www.w3.org/2000/svg"
   xmlns="http://www.w3.org/2000/svg"
   xmlns:sodipodi="http://sodipodi.sourceforge.net/DTD/sodipodi-0.dtd"
   xmlns:inkscape="http://www.inkscape.org/namespaces/inkscape"
   version="1.0"
   width="34"
   height="11"
   id="svg2"
   inkscape:version="0.47 r22583"
   sodipodi:docname="02-02-007-01-01-01.svg">
  <defs
     id="defs14">
    <inkscape:perspective
       sodipodi:type="inkscape:persp3d"
       inkscape:vp_x="0 : 5.5 : 1"
       inkscape:vp_y="0 : 1000 : 0"
       inkscape:vp_z="10 : 5.5 : 1"
       inkscape:persp3d-origin="5 : 3.6666667 : 1"
       id="perspective16" />
  </defs>
  <sodipodi:namedview
     pagecolor="#ffffff"
     bordercolor="#666666"
     borderopacity="1"
     objecttolerance="10"
     gridtolerance="10"
     guidetolerance="10"
     inkscape:pageopacity="0"
     inkscape:pageshadow="2"
     inkscape:window-width="917"
     inkscape:window-height="792"
     id="namedview12"
     showgrid="true"
     inkscape:zoom="18.681011"
     inkscape:cx="15.828696"
     inkscape:cy="6.8219189"
     inkscape:window-x="313"
     inkscape:window-y="0"
     inkscape:window-maximized="0"
     inkscape:current-layer="svg2">
    <inkscape:grid
       type="xygrid"
       id="grid2822" />
  </sodipodi:namedview>
  <metadata
     id="metadata4">
Valerie Sutton's pixel definition of the
ISWA 2010 symbol ID 02-01-001-01-01-01
transformed by Stephen E Slevinski Jr
using line and fill polygon tracing
<rdf:RDF>
  <cc:Work
     rdf:about="">
    <dc:format>image/svg+xml</dc:format>
    <dc:type
       rdf:resource="http://purl.org/dc/dcmitype/StillImage" />
    <dc:title></dc:title>
  </cc:Work>
</rdf:RDF>
</metadata>
  <path
     style="fill:#000000;fill-opacity:1;stroke:none"
     d="M 3,5 C 1.3431458,5 0,6.343146 0,8 0,9.656854 1.3431458,11 3,11 4.6568543,11 6,9.656854 6,8 6,6.343146 4.6568543,5 3,5 z"
     id="path3529" />
  <path
     style="fill:#000000;fill-opacity:1;stroke:none"
     d="M 10 0 C 8.3431458 0 7 1.343146 7 3 C 7 4.656854 8.3431458 6 10 6 C 11.656854 6 13 4.656854 13 3 C 13 1.343146 11.656854 0 10 0 z M 10 1 C 11.104569 1 12 1.8954307 12 3 C 12 4.1045693 11.104569 5 10 5 C 8.8954305 5 8 4.1045693 8 3 C 8 1.8954307 8.8954305 1 10 1 z "
     id="path3578" />
  <path
     id="path2814"
     d="m 17,5 c -1.656854,0 -3,1.343146 -3,3 0,1.656854 1.343146,3 3,3 1.656854,0 3,-1.343146 3,-3 0,-1.656854 -1.343146,-3 -3,-3 z"
     style="fill:#000000;fill-opacity:1;stroke:none" />
  <path
     style="fill:#000000;fill-opacity:1;stroke:none"
     d="M 24 0 C 22.343146 0 21 1.343146 21 3 C 21 4.656854 22.343146 6 24 6 C 25.656854 6 27 4.656854 27 3 C 27 1.343146 25.656854 0 24 0 z M 24 1 C 25.104569 1 26 1.8954307 26 3 C 26 4.1045693 25.104569 5 24 5 C 22.895431 5 22 4.1045693 22 3 C 22 1.8954307 22.895431 1 24 1 z "
     id="path2816" />
  <path
     id="path2818"
     d="m 31,5 c -1.656854,0 -3,1.343146 -3,3 0,1.656854 1.343146,3 3,3 1.656854,0 3,-1.343146 3,-3 0,-1.656854 -1.343146,-3 -3,-3 z"
     style="fill:#000000;fill-opacity:1;stroke:none" />
  <path
     id="path2857"
     d="M 10,1 C 8.8954305,1 8,1.8954307 8,3 8,4.1045693 8.8954305,5 10,5 11.104569,5 12,4.1045693 12,3 12,1.8954307 11.104569,1 10,1 z"
     style="fill:#ffffff;fill-opacity:1;stroke:none" />
  <path
     style="fill:#ffffff;fill-opacity:1;stroke:none"
     d="m 24,1 c -1.104569,0 -2,0.8954307 -2,2 0,1.1045693 0.895431,2 2,2 1.104569,0 2,-0.8954307 2,-2 0,-1.1045693 -0.895431,-2 -2,-2 z"
     id="path2859" />
</svg>
