<?xml version="1.0" encoding="UTF-8" standalone="no"?>
<svg
   xmlns:dc="http://purl.org/dc/elements/1.1/"
   xmlns:cc="http://creativecommons.org/ns#"
   xmlns:rdf="http://www.w3.org/1999/02/22-rdf-syntax-ns#"
   xmlns:svg="http://www.w3.org/2000/svg"
   xmlns="http://www.w3.org/2000/svg"
   xmlns:sodipodi="http://sodipodi.sourceforge.net/DTD/sodipodi-0.dtd"
   xmlns:inkscape="http://www.inkscape.org/namespaces/inkscape"
   version="1.0"
   width="13"
   height="14"
   id="svg2"
   inkscape:version="0.47 r22583"
   sodipodi:docname="02-01-013-01-01-01.svg">
  <defs
     id="defs14">
    <inkscape:perspective
       sodipodi:type="inkscape:persp3d"
       inkscape:vp_x="0 : 5.5 : 1"
       inkscape:vp_y="0 : 1000 : 0"
       inkscape:vp_z="10 : 5.5 : 1"
       inkscape:persp3d-origin="5 : 3.6666667 : 1"
       id="perspective16" />
  </defs>
  <sodipodi:namedview
     pagecolor="#ffffff"
     bordercolor="#666666"
     borderopacity="1"
     objecttolerance="10"
     gridtolerance="10"
     guidetolerance="10"
     inkscape:pageopacity="0"
     inkscape:pageshadow="2"
     inkscape:window-width="917"
     inkscape:window-height="792"
     id="namedview12"
     showgrid="true"
     inkscape:zoom="11.494966"
     inkscape:cx="5.9273056"
     inkscape:cy="7.6840816"
     inkscape:window-x="313"
     inkscape:window-y="0"
     inkscape:window-maximized="0"
     inkscape:current-layer="svg2">
    <inkscape:grid
       type="xygrid"
       id="grid2822" />
  </sodipodi:namedview>
  <metadata
     id="metadata4">
Valerie Sutton's pixel definition of the
ISWA 2010 symbol ID 02-01-001-01-01-01
transformed by Stephen E Slevinski Jr
using line and fill polygon tracing
<rdf:RDF>
  <cc:Work
     rdf:about="">
    <dc:format>image/svg+xml</dc:format>
    <dc:type
       rdf:resource="http://purl.org/dc/dcmitype/StillImage" />
    <dc:title />
  </cc:Work>
</rdf:RDF>
</metadata>
  <path
     style="fill:#000000;fill-opacity:1;stroke:none"
     d="M 7 0 C 3.1340068 0 0 3.1340068 0 7 C 0 10.865993 3.1340068 14 7 14 C 9.3098499 14 11.40655 13.117902 13 11.6875 L 11.65625 10.1875 C 10.415964 11.304267 8.8003793 12 7 12 C 4.2385763 12 2 9.7614237 2 7 C 2 4.2385763 4.2385763 2 7 2 C 8.6568542 2 10 3.3431458 10 5 C 10 6.6568542 8.6568542 8 7 8 C 6.4477153 8 6 7.5522847 6 7 C 6 6.4477153 6.4477153 6 7 6 L 8 6 L 8 4 L 7 4 C 5.3431458 4 4 5.3431458 4 7 C 4 8.6568542 5.3431458 10 7 10 C 9.761424 10 12 7.7614237 12 5 C 12 2.2385763 9.761424 0 7 0 z "
     id="path3907" />
  <path
     style="fill:#ffffff;fill-opacity:1;stroke:none"
     d="M 7 2 C 4.2385763 2 2 4.2385763 2 7 C 2 9.7614237 4.2385763 12 7 12 C 8.8003793 12 10.415964 11.304267 11.65625 10.1875 L 10.3125 8.71875 C 9.4283373 9.5085709 8.2788561 10 7 10 C 5.3431458 10 4 8.6568542 4 7 C 4 5.3431458 5.3431458 4 7 4 L 8 4 L 8 6 L 7 6 C 6.4477153 6 6 6.4477153 6 7 C 6 7.5522847 6.4477153 8 7 8 C 8.6568542 8 10 6.6568542 10 5 C 10 3.3431458 8.6568542 2 7 2 z "
     id="path3957" />
</svg>
