<?xml version="1.0" encoding="UTF-8" standalone="no"?>
<svg
   xmlns:dc="http://purl.org/dc/elements/1.1/"
   xmlns:cc="http://creativecommons.org/ns#"
   xmlns:rdf="http://www.w3.org/1999/02/22-rdf-syntax-ns#"
   xmlns:svg="http://www.w3.org/2000/svg"
   xmlns="http://www.w3.org/2000/svg"
   xmlns:sodipodi="http://sodipodi.sourceforge.net/DTD/sodipodi-0.dtd"
   xmlns:inkscape="http://www.inkscape.org/namespaces/inkscape"
   version="1.0"
   width="20"
   height="20"
   id="svg2"
   inkscape:version="0.47 r22583"
   sodipodi:docname="04-05-011-01-02-01.svg">
  <defs
     id="defs14">
    <inkscape:perspective
       sodipodi:type="inkscape:persp3d"
       inkscape:vp_x="0 : 17.5 : 1"
       inkscape:vp_y="0 : 1000 : 0"
       inkscape:vp_z="36 : 17.5 : 1"
       inkscape:persp3d-origin="18 : 11.666667 : 1"
       id="perspective16" />
  </defs>
  <sodipodi:namedview
     pagecolor="#ffffff"
     bordercolor="#666666"
     borderopacity="1"
     objecttolerance="10"
     gridtolerance="10"
     guidetolerance="10"
     inkscape:pageopacity="0"
     inkscape:pageshadow="2"
     inkscape:window-width="897"
     inkscape:window-height="755"
     id="namedview12"
     showgrid="true"
     inkscape:zoom="10.953807"
     inkscape:cx="9.9614511"
     inkscape:cy="8.0872599"
     inkscape:window-x="209"
     inkscape:window-y="0"
     inkscape:window-maximized="0"
     inkscape:current-layer="svg2"
     inkscape:snap-grids="true">
    <inkscape:grid
       type="xygrid"
       id="grid2822" />
  </sodipodi:namedview>
  <metadata
     id="metadata4">
Valerie Sutton's pixel definition of the
ISWA 2010 symbol ID 04-01-001-01-01-01
transformed by Stephen E Slevinski Jr
using line and fill polygon tracing
<rdf:RDF>
  <cc:Work
     rdf:about="">
    <dc:format>image/svg+xml</dc:format>
    <dc:type
       rdf:resource="http://purl.org/dc/dcmitype/StillImage" />
    <dc:title></dc:title>
  </cc:Work>
</rdf:RDF>
</metadata>
  <path
     style="fill:#000000;fill-opacity:1;stroke:none"
     d="m 4,0 0,7 c 0,0 -0.123094,5.459674 -1,8 -0.6342143,1.837267 -3,5 -3,5 l 2.28125,0 C 2.28125,20 4.431626,17.157782 5,15.5 5.925245,12.801332 6,7 6,7 L 6,0 4,0 z"
     id="rect2817" />
  <path
     style="fill:#000000;fill-opacity:1;stroke:none"
     d="m 14,0 0,7 c 0,0 0.07475,5.801332 1,8.5 0.568374,1.657782 2.71875,4.5 2.71875,4.5 L 20,20 c 0,0 -2.365786,-3.162733 -3,-5 -0.876906,-2.540326 -1,-8 -1,-8 l 0,-7 -2,0 z"
     id="path2853" />
  <path
     style="fill:#000000;fill-opacity:1;stroke:none"
     d="M 10 7 C 8.3431458 7 7 8.3431458 7 10 C 7 11.656854 8.3431458 13 10 13 C 11.656854 13 13 11.656854 13 10 C 13 8.3431458 11.656854 7 10 7 z M 10 8 C 11.104569 8 12 8.8954305 12 10 C 12 11.104569 11.104569 12 10 12 C 8.8954305 12 8 11.104569 8 10 C 8 8.8954305 8.8954305 8 10 8 z "
     id="path2903" />
  <path
     sodipodi:type="arc"
     style="fill:#000000;fill-opacity:1;stroke:none"
     id="path2908"
     sodipodi:cx="10"
     sodipodi:cy="10"
     sodipodi:rx="1"
     sodipodi:ry="1"
     d="m 11,10 a 1,1 0 1 1 -2,0 1,1 0 1 1 2,0 z" />
</svg>
