<?xml version="1.0" encoding="UTF-8" standalone="no"?>
<svg
   xmlns:dc="http://purl.org/dc/elements/1.1/"
   xmlns:cc="http://creativecommons.org/ns#"
   xmlns:rdf="http://www.w3.org/1999/02/22-rdf-syntax-ns#"
   xmlns:svg="http://www.w3.org/2000/svg"
   xmlns="http://www.w3.org/2000/svg"
   xmlns:sodipodi="http://sodipodi.sourceforge.net/DTD/sodipodi-0.dtd"
   xmlns:inkscape="http://www.inkscape.org/namespaces/inkscape"
   version="1.0"
   width="35"
   height="46"
   id="svg2"
   inkscape:version="0.47 r22583"
   sodipodi:docname="04-01-001-01-01-01.svg">
  <defs
     id="defs14">
    <inkscape:perspective
       sodipodi:type="inkscape:persp3d"
       inkscape:vp_x="0 : 17.5 : 1"
       inkscape:vp_y="0 : 1000 : 0"
       inkscape:vp_z="36 : 17.5 : 1"
       inkscape:persp3d-origin="18 : 11.666667 : 1"
       id="perspective16" />
  </defs>
  <sodipodi:namedview
     pagecolor="#ffffff"
     bordercolor="#666666"
     borderopacity="1"
     objecttolerance="10"
     gridtolerance="10"
     guidetolerance="10"
     inkscape:pageopacity="0"
     inkscape:pageshadow="2"
     inkscape:window-width="897"
     inkscape:window-height="755"
     id="namedview12"
     showgrid="true"
     inkscape:zoom="10.953807"
     inkscape:cx="17.264848"
     inkscape:cy="22.694053"
     inkscape:window-x="209"
     inkscape:window-y="0"
     inkscape:window-maximized="0"
     inkscape:current-layer="svg2"
     inkscape:snap-grids="true">
    <inkscape:grid
       type="xygrid"
       id="grid2822" />
  </sodipodi:namedview>
  <metadata
     id="metadata4">
Valerie Sutton's pixel definition of the
ISWA 2010 symbol ID 04-01-001-01-01-01
transformed by Stephen E Slevinski Jr
using line and fill polygon tracing
<rdf:RDF>
  <cc:Work
     rdf:about="">
    <dc:format>image/svg+xml</dc:format>
    <dc:type
       rdf:resource="http://purl.org/dc/dcmitype/StillImage" />
    <dc:title></dc:title>
  </cc:Work>
</rdf:RDF>
</metadata>
  <path
     style="fill:#000000;fill-opacity:1;stroke:none"
     d="M 17.5,0 C 7.8350169,0 0,7.8350169 0,17.5 0,27.164983 7.8350169,35 17.5,35 27.164983,35 35,27.164983 35,17.5 35,7.8350169 27.164983,0 17.5,0 z m 0,2 C 26.060414,2 33,8.9395864 33,17.5 33,26.060414 26.060414,33 17.5,33 8.9395864,33 2,26.060414 2,17.5 2,8.9395864 8.9395864,2 17.5,2 z"
     id="path2835" />
  <path
     style="fill:#000000;fill-opacity:1;stroke:none"
     d="M 11 33 C 11 33 10.876906 38.459674 10 41 C 9.3657857 42.837267 7 46 7 46 L 9.28125 46 C 9.28125 46 11.431626 43.157782 12 41.5 C 12.925245 38.801332 13 33 13 33 L 11 33 z "
     id="rect2817" />
  <path
     id="path2853"
     d="m 23,33 c 0,0 0.123094,5.459674 1,8 0.634214,1.837267 3,5 3,5 l -2.28125,0 C 24.71875,46 22.568374,43.157782 22,41.5 21.074755,38.801332 21,33 21,33 l 2,0 z"
     style="fill:#000000;fill-opacity:1;stroke:none" />
</svg>
