<?xml version="1.0" encoding="UTF-8" standalone="no"?>
<svg
   xmlns:dc="http://purl.org/dc/elements/1.1/"
   xmlns:cc="http://creativecommons.org/ns#"
   xmlns:rdf="http://www.w3.org/1999/02/22-rdf-syntax-ns#"
   xmlns:svg="http://www.w3.org/2000/svg"
   xmlns="http://www.w3.org/2000/svg"
   xmlns:sodipodi="http://sodipodi.sourceforge.net/DTD/sodipodi-0.dtd"
   xmlns:inkscape="http://www.inkscape.org/namespaces/inkscape"
   version="1.0"
   width="19"
   height="38"
   id="svg2"
   inkscape:version="0.47 r22583"
   sodipodi:docname="02-08-003-02-01-04.svg">
  <defs
     id="defs16">
    <inkscape:perspective
       sodipodi:type="inkscape:persp3d"
       inkscape:vp_x="0 : 23 : 1"
       inkscape:vp_y="0 : 1000 : 0"
       inkscape:vp_z="36 : 23 : 1"
       inkscape:persp3d-origin="18 : 15.333333 : 1"
       id="perspective18" />
  </defs>
  <sodipodi:namedview
     pagecolor="#ffffff"
     bordercolor="#666666"
     borderopacity="1"
     objecttolerance="10"
     gridtolerance="10"
     guidetolerance="10"
     inkscape:pageopacity="0"
     inkscape:pageshadow="2"
     inkscape:window-width="964"
     inkscape:window-height="721"
     id="namedview14"
     showgrid="true"
     inkscape:zoom="12.447368"
     inkscape:cx="9.5"
     inkscape:cy="19"
     inkscape:window-x="365"
     inkscape:window-y="0"
     inkscape:window-maximized="0"
     inkscape:current-layer="svg2"
     showborder="true">
    <inkscape:grid
       type="xygrid"
       id="grid2824"
       empspacing="5"
       visible="true"
       enabled="true"
       snapvisiblegridlinesonly="true" />
  </sodipodi:namedview>
  <metadata
     id="metadata4">
Valerie Sutton's pixel definition of the
ISWA 2010 symbol ID 04-01-003-01-01-01
transformed by Stephen E Slevinski Jr
using line and fill polygon tracing
<rdf:RDF>
  <cc:Work
     rdf:about="">
    <dc:format>image/svg+xml</dc:format>
    <dc:type
       rdf:resource="http://purl.org/dc/dcmitype/StillImage" />
    <dc:title></dc:title>
  </cc:Work>
</rdf:RDF>
</metadata>
  <path
     style="fill:#000000;fill-opacity:1;stroke:none"
     d="M 14 0 C 10.686292 0 8 2.6862915 8 6 L 8 16 L 8 21 C 8 23.981424 4 29 4 29 L 14 29 C 14 29 10 23.981424 10 21 L 10 19.4375 C 10.589088 19.779016 11.27007 20 12 20 C 14.209139 20 16 18.209139 16 16 C 16 13.790861 14.209139 12 12 12 C 11.27007 12 10.589088 12.220984 10 12.5625 L 10 6 C 10 3.790861 11.790861 2 14 2 C 15.656854 2 17 3.3431458 17 5 L 17 8 L 19 8 L 19 5 C 19 2.2385763 16.761424 0 14 0 z M 12 14 C 13.104569 14 14 14.895431 14 16 C 14 17.104569 13.104569 18 12 18 C 10.895431 18 10 17.104569 10 16 C 10 14.895431 10.895431 14 12 14 z "
     id="path2816" />
  <path
     style="fill:#000000;fill-opacity:1;stroke:none"
     d="M 0 29 L 9 38 L 18 29 L 16 29 L 9 36 L 2 29 L 0 29 z "
     id="path2817" />
</svg>
