<?xml version="1.0" encoding="UTF-8" standalone="no"?>
<svg
   xmlns:dc="http://purl.org/dc/elements/1.1/"
   xmlns:cc="http://creativecommons.org/ns#"
   xmlns:rdf="http://www.w3.org/1999/02/22-rdf-syntax-ns#"
   xmlns:svg="http://www.w3.org/2000/svg"
   xmlns="http://www.w3.org/2000/svg"
   xmlns:sodipodi="http://sodipodi.sourceforge.net/DTD/sodipodi-0.dtd"
   xmlns:inkscape="http://www.inkscape.org/namespaces/inkscape"
   version="1.0"
   width="30"
   height="22"
   id="svg2"
   inkscape:version="0.47 r22583"
   sodipodi:docname="02-08-003-02-04-03.svg">
  <defs
     id="defs16">
    <inkscape:perspective
       sodipodi:type="inkscape:persp3d"
       inkscape:vp_x="0 : 23 : 1"
       inkscape:vp_y="0 : 1000 : 0"
       inkscape:vp_z="36 : 23 : 1"
       inkscape:persp3d-origin="18 : 15.333333 : 1"
       id="perspective18" />
  </defs>
  <sodipodi:namedview
     pagecolor="#ffffff"
     bordercolor="#666666"
     borderopacity="1"
     objecttolerance="10"
     gridtolerance="10"
     guidetolerance="10"
     inkscape:pageopacity="0"
     inkscape:pageshadow="2"
     inkscape:window-width="964"
     inkscape:window-height="721"
     id="namedview14"
     showgrid="true"
     inkscape:zoom="16.300086"
     inkscape:cx="15"
     inkscape:cy="11"
     inkscape:window-x="365"
     inkscape:window-y="0"
     inkscape:window-maximized="0"
     inkscape:current-layer="svg2"
     showborder="true">
    <inkscape:grid
       type="xygrid"
       id="grid2824"
       empspacing="5"
       visible="true"
       enabled="true"
       snapvisiblegridlinesonly="true" />
  </sodipodi:namedview>
  <metadata
     id="metadata4">
Valerie Sutton's pixel definition of the
ISWA 2010 symbol ID 04-01-003-01-01-01
transformed by Stephen E Slevinski Jr
using line and fill polygon tracing
<rdf:RDF>
  <cc:Work
     rdf:about="">
    <dc:format>image/svg+xml</dc:format>
    <dc:type
       rdf:resource="http://purl.org/dc/dcmitype/StillImage" />
    <dc:title></dc:title>
  </cc:Work>
</rdf:RDF>
</metadata>
  <path
     style="fill:#000000;fill-opacity:1;stroke:none"
     d="m 27.778175,2.5649709 c 1.952621,1.9526215 1.952621,5.1184464 0,7.0710681 l -2.121321,2.12132 -1.414213,-1.414213 2.12132,-2.1213208 c 1.171573,-1.1715729 1.171573,-3.0710679 0,-4.2426407 L 25.656854,3.2720777 C 24.094757,1.7099806 21.562097,1.7099806 20,3.2720777 L 13.945399,9.32668 c 0.658036,0.175059 1.295822,0.500327 1.811961,1.016466 1.562096,1.562097 1.562096,4.094757 0,5.656854 -1.562098,1.562097 -4.094757,1.562097 -5.656855,0 C 9.584367,15.483861 9.259099,14.846075 9.084039,14.188039 L 1.615224,21.656854 0.20101,20.24264 10.100505,10.343146 18.585786,1.8578642 c 2.343146,-2.34314579 6.142136,-2.34314544 8.485282,0 l 0.707107,0.7071067 z M 14.343146,11.757359 c -0.781048,-0.781048 -2.047379,-0.781048 -2.828427,0 -0.781048,0.781048 -0.781048,2.047379 0,2.828427 0.781048,0.781048 2.047379,0.781048 2.828427,0 0.781048,-0.781048 0.781048,-2.047379 0,-2.828427 z"
     id="path2816" />
</svg>
