<?xml version="1.0" encoding="UTF-8" standalone="no"?>
<svg
   xmlns:dc="http://purl.org/dc/elements/1.1/"
   xmlns:cc="http://creativecommons.org/ns#"
   xmlns:rdf="http://www.w3.org/1999/02/22-rdf-syntax-ns#"
   xmlns:svg="http://www.w3.org/2000/svg"
   xmlns="http://www.w3.org/2000/svg"
   xmlns:sodipodi="http://sodipodi.sourceforge.net/DTD/sodipodi-0.dtd"
   xmlns:inkscape="http://www.inkscape.org/namespaces/inkscape"
   version="1.0"
   width="34"
   height="26"
   id="svg2"
   inkscape:version="0.47 r22583"
   sodipodi:docname="02-08-003-02-03-02.svg">
  <defs
     id="defs16">
    <inkscape:perspective
       sodipodi:type="inkscape:persp3d"
       inkscape:vp_x="0 : 23 : 1"
       inkscape:vp_y="0 : 1000 : 0"
       inkscape:vp_z="36 : 23 : 1"
       inkscape:persp3d-origin="18 : 15.333333 : 1"
       id="perspective18" />
  </defs>
  <sodipodi:namedview
     pagecolor="#ffffff"
     bordercolor="#666666"
     borderopacity="1"
     objecttolerance="10"
     gridtolerance="10"
     guidetolerance="10"
     inkscape:pageopacity="0"
     inkscape:pageshadow="2"
     inkscape:window-width="964"
     inkscape:window-height="721"
     id="namedview14"
     showgrid="true"
     inkscape:zoom="16.966174"
     inkscape:cx="17"
     inkscape:cy="13"
     inkscape:window-x="365"
     inkscape:window-y="0"
     inkscape:window-maximized="0"
     inkscape:current-layer="svg2"
     showborder="true">
    <inkscape:grid
       type="xygrid"
       id="grid2824"
       empspacing="5"
       visible="true"
       enabled="true"
       snapvisiblegridlinesonly="true" />
  </sodipodi:namedview>
  <metadata
     id="metadata4">
Valerie Sutton's pixel definition of the
ISWA 2010 symbol ID 04-01-003-01-01-01
transformed by Stephen E Slevinski Jr
using line and fill polygon tracing
<rdf:RDF>
  <cc:Work
     rdf:about="">
    <dc:format>image/svg+xml</dc:format>
    <dc:type
       rdf:resource="http://purl.org/dc/dcmitype/StillImage" />
    <dc:title></dc:title>
  </cc:Work>
</rdf:RDF>
</metadata>
  <path
     style="fill:#000000;fill-opacity:1;stroke:none"
     d="M 33.899495,16 24,16 l 0,-9.8994952 1.414214,1.4142136 0,7.0710676 7.071068,0 L 33.899495,16 z"
     id="path2814" />
  <path
     style="fill:#000000;fill-opacity:1;stroke:none"
     d="m 31.778175,2.5649709 c 1.952622,1.9526216 1.952621,5.1184461 0,7.0710681 l -2.12132,2.12132 -1.414214,-1.414214 2.12132,-2.12132 c 1.171573,-1.1715727 1.171573,-3.0710678 0,-4.2426405 L 29.656855,3.2720777 C 28.094757,1.7099805 25.562097,1.7099805 24,3.2720777 L 17.945398,9.326679 c 0.658037,0.17506 1.295823,0.500328 1.811962,1.016466 1.562097,1.562098 1.562097,4.094758 0,5.656855 -1.562098,1.562097 -4.094758,1.562097 -5.656855,0 C 13.594938,15.494433 13.262356,14.875321 13.084039,14.232233 10.447453,17.35964 9.1507579,25.192388 9.1507579,25.192388 L 0.6654765,16.707107 c 0,0 8.4657073,-1.39464 11.3137085,-4.242641 l 2.12132,-2.121321 8.485282,-8.4852809 c 2.343145,-2.3431457 6.142136,-2.3431454 8.485281,0 l 0.707107,0.7071068 z M 18.343146,11.757359 c -0.781048,-0.781048 -2.047379,-0.781048 -2.828427,0 -0.781048,0.781048 -0.781048,2.047379 0,2.828427 0.781048,0.781048 2.047379,0.781048 2.828427,0 0.781048,-0.781048 0.781048,-2.047379 0,-2.828427 z"
     id="path2816" />
</svg>
