<?xml version="1.0" encoding="UTF-8" standalone="no"?>
<svg
   xmlns:dc="http://purl.org/dc/elements/1.1/"
   xmlns:cc="http://creativecommons.org/ns#"
   xmlns:rdf="http://www.w3.org/1999/02/22-rdf-syntax-ns#"
   xmlns:svg="http://www.w3.org/2000/svg"
   xmlns="http://www.w3.org/2000/svg"
   xmlns:sodipodi="http://sodipodi.sourceforge.net/DTD/sodipodi-0.dtd"
   xmlns:inkscape="http://www.inkscape.org/namespaces/inkscape"
   version="1.0"
   width="27"
   height="21"
   id="svg2"
   inkscape:version="0.47 r22583"
   sodipodi:docname="02-08-003-02-02-04.svg">
  <defs
     id="defs16">
    <inkscape:perspective
       sodipodi:type="inkscape:persp3d"
       inkscape:vp_x="0 : 23 : 1"
       inkscape:vp_y="0 : 1000 : 0"
       inkscape:vp_z="36 : 23 : 1"
       inkscape:persp3d-origin="18 : 15.333333 : 1"
       id="perspective18" />
  </defs>
  <sodipodi:namedview
     pagecolor="#ffffff"
     bordercolor="#666666"
     borderopacity="1"
     objecttolerance="10"
     gridtolerance="10"
     guidetolerance="10"
     inkscape:pageopacity="0"
     inkscape:pageshadow="2"
     inkscape:window-width="964"
     inkscape:window-height="721"
     id="namedview14"
     showgrid="true"
     inkscape:zoom="17.062634"
     inkscape:cx="13.497555"
     inkscape:cy="10.498098"
     inkscape:window-x="365"
     inkscape:window-y="0"
     inkscape:window-maximized="0"
     inkscape:current-layer="svg2"
     showborder="true">
    <inkscape:grid
       type="xygrid"
       id="grid2824"
       empspacing="5"
       visible="true"
       enabled="true"
       snapvisiblegridlinesonly="true" />
  </sodipodi:namedview>
  <metadata
     id="metadata4">
Valerie Sutton's pixel definition of the
ISWA 2010 symbol ID 04-01-003-01-01-01
transformed by Stephen E Slevinski Jr
using line and fill polygon tracing
<rdf:RDF>
  <cc:Work
     rdf:about="">
    <dc:format>image/svg+xml</dc:format>
    <dc:type
       rdf:resource="http://purl.org/dc/dcmitype/StillImage" />
    <dc:title></dc:title>
  </cc:Work>
</rdf:RDF>
</metadata>
  <path
     style="fill:#000000;fill-opacity:1;stroke:none"
     d="m 25.405591,2.6654767 c -2.343145,-2.3431454 -6.142135,-2.3431458 -8.485281,0 l -7.0710678,7.0710673 -9.192388,9.192389 1.4142136,1.414213 6.7617086,-6.761708 c 0.1750598,0.658036 0.5003278,1.295822 1.0164658,1.811961 1.5620968,1.562097 4.0947568,1.562097 5.6568538,0 1.562098,-1.562097 1.562098,-4.094757 0,-5.656855 C 14.989958,9.220406 14.352172,8.895138 13.694135,8.720078 L 18.334524,4.07969 c 1.562097,-1.5620969 4.094757,-1.5620969 5.656854,0 1.171572,1.171573 1.171573,3.071068 0,4.242641 l -2.121321,2.12132 1.414214,1.414214 2.12132,-2.121321 c 1.952622,-1.952621 1.952622,-5.118446 0,-7.0710673 z M 14.091883,11.150758 c 0.781048,0.781048 0.781048,2.047379 0,2.828427 -0.781048,0.781048 -2.047379,0.781048 -2.828427,0 -0.781048,-0.781048 -0.781048,-2.047379 0,-2.828427 0.781048,-0.781048 2.047379,-0.781048 2.828427,0 z"
     id="path2816" />
</svg>
