<?xml version="1.0" encoding="UTF-8" standalone="no"?>
<svg
   xmlns:dc="http://purl.org/dc/elements/1.1/"
   xmlns:cc="http://creativecommons.org/ns#"
   xmlns:rdf="http://www.w3.org/1999/02/22-rdf-syntax-ns#"
   xmlns:svg="http://www.w3.org/2000/svg"
   xmlns="http://www.w3.org/2000/svg"
   xmlns:sodipodi="http://sodipodi.sourceforge.net/DTD/sodipodi-0.dtd"
   xmlns:inkscape="http://www.inkscape.org/namespaces/inkscape"
   version="1.0"
   width="30"
   height="22"
   id="svg2"
   inkscape:version="0.47 r22583"
   sodipodi:docname="02-08-010-02-01-02.svg">
  <defs
     id="defs16">
    <inkscape:perspective
       sodipodi:type="inkscape:persp3d"
       inkscape:vp_x="0 : 23 : 1"
       inkscape:vp_y="0 : 1000 : 0"
       inkscape:vp_z="36 : 23 : 1"
       inkscape:persp3d-origin="18 : 15.333333 : 1"
       id="perspective18" />
  </defs>
  <sodipodi:namedview
     pagecolor="#ffffff"
     bordercolor="#666666"
     borderopacity="1"
     objecttolerance="10"
     gridtolerance="10"
     guidetolerance="10"
     inkscape:pageopacity="0"
     inkscape:pageshadow="2"
     inkscape:window-width="964"
     inkscape:window-height="721"
     id="namedview14"
     showgrid="true"
     inkscape:zoom="16.300086"
     inkscape:cx="15.004384"
     inkscape:cy="11.003215"
     inkscape:window-x="365"
     inkscape:window-y="0"
     inkscape:window-maximized="0"
     inkscape:current-layer="svg2"
     showborder="true">
    <inkscape:grid
       type="xygrid"
       id="grid2824"
       empspacing="5"
       visible="true"
       enabled="true"
       snapvisiblegridlinesonly="true" />
  </sodipodi:namedview>
  <metadata
     id="metadata4">
Valerie Sutton's pixel definition of the
ISWA 2010 symbol ID 04-01-003-01-01-01
transformed by Stephen E Slevinski Jr
using line and fill polygon tracing
<rdf:RDF>
  <cc:Work
     rdf:about="">
    <dc:format>image/svg+xml</dc:format>
    <dc:type
       rdf:resource="http://purl.org/dc/dcmitype/StillImage" />
    <dc:title></dc:title>
  </cc:Work>
</rdf:RDF>
</metadata>
  <path
     style="fill:#000000;fill-opacity:1;stroke:none"
     d="M 30,11.313709 30,0 18.686292,0 30,11.313709 z"
     id="path2839" />
  <path
     style="fill:#000000;fill-opacity:1;stroke:none"
     d="M 25.050253,6.3639608 10.908117,20.506097 c -1.562097,1.562097 -4.0947569,1.562097 -5.6568541,0 L 2.4228358,17.67767 c -3.1241944,-3.124195 -3.1241944,-8.1895142 0,-11.3137092 l 7.0710678,7.0710682 -2.1213204,2.12132 c -1.1715727,1.171573 -1.488155,2.754486 -0.7071067,3.535534 0.7810489,0.781049 2.0473788,0.781049 2.8284271,0 l 5.3474954,-5.347495 c -0.659814,-0.176449 -1.293655,-0.498159 -1.811962,-1.016466 -1.562097,-1.562097 -1.562097,-4.0947572 0,-5.6568542 1.562098,-1.562097 4.094758,-1.562097 5.656855,0 0.518306,0.518306 0.840016,1.152148 1.016466,1.811961 l 3.933281,-3.933281 1.414214,1.414213 z m -7.778175,2.121321 c -0.781048,-0.781049 -2.047379,-0.781049 -2.828427,0 -0.781048,0.781048 -0.781048,2.0473792 0,2.8284272 0.781049,0.781049 2.047379,0.781048 2.828427,0 0.781048,-0.781048 0.781049,-2.0473782 0,-2.8284272 z"
     id="path2816" />
</svg>
