<?xml version="1.0" encoding="UTF-8" standalone="no"?>
<svg
   xmlns:dc="http://purl.org/dc/elements/1.1/"
   xmlns:cc="http://creativecommons.org/ns#"
   xmlns:rdf="http://www.w3.org/1999/02/22-rdf-syntax-ns#"
   xmlns:svg="http://www.w3.org/2000/svg"
   xmlns="http://www.w3.org/2000/svg"
   xmlns:sodipodi="http://sodipodi.sourceforge.net/DTD/sodipodi-0.dtd"
   xmlns:inkscape="http://www.inkscape.org/namespaces/inkscape"
   version="1.0"
   width="24"
   height="18"
   id="svg2"
   inkscape:version="0.47 r22583"
   sodipodi:docname="02-08-010-02-02-03.svg">
  <defs
     id="defs16">
    <inkscape:perspective
       sodipodi:type="inkscape:persp3d"
       inkscape:vp_x="0 : 23 : 1"
       inkscape:vp_y="0 : 1000 : 0"
       inkscape:vp_z="36 : 23 : 1"
       inkscape:persp3d-origin="18 : 15.333333 : 1"
       id="perspective18" />
  </defs>
  <sodipodi:namedview
     pagecolor="#ffffff"
     bordercolor="#666666"
     borderopacity="1"
     objecttolerance="10"
     gridtolerance="10"
     guidetolerance="10"
     inkscape:pageopacity="0"
     inkscape:pageshadow="2"
     inkscape:window-width="964"
     inkscape:window-height="721"
     id="namedview14"
     showgrid="true"
     inkscape:zoom="16.178792"
     inkscape:cx="12.004851"
     inkscape:cy="9.0036384"
     inkscape:window-x="365"
     inkscape:window-y="0"
     inkscape:window-maximized="0"
     inkscape:current-layer="svg2"
     showborder="true">
    <inkscape:grid
       type="xygrid"
       id="grid2824"
       empspacing="5"
       visible="true"
       enabled="true"
       snapvisiblegridlinesonly="true" />
  </sodipodi:namedview>
  <metadata
     id="metadata4">
Valerie Sutton's pixel definition of the
ISWA 2010 symbol ID 04-01-003-01-01-01
transformed by Stephen E Slevinski Jr
using line and fill polygon tracing
<rdf:RDF>
  <cc:Work
     rdf:about="">
    <dc:format>image/svg+xml</dc:format>
    <dc:type
       rdf:resource="http://purl.org/dc/dcmitype/StillImage" />
    <dc:title></dc:title>
  </cc:Work>
</rdf:RDF>
</metadata>
  <path
     style="fill:#000000;fill-opacity:1;stroke:none"
     d="M 0.9497475,2.3639613 15.091883,16.506096 c 1.562098,1.562097 4.094758,1.562097 5.656855,0 3.124194,-3.124194 3.124194,-8.189514 0,-11.3137077 L 19.334524,6.606601 c 2.343146,2.343146 2.343146,6.142136 0,8.485282 -0.781048,0.781048 -2.047379,0.781048 -2.828427,0 L 11.158602,9.744388 c 0.659813,-0.17645 1.293655,-0.49816 1.811961,-1.016466 1.562097,-1.562097 1.562097,-4.0947567 0,-5.6568547 -1.562097,-1.562097 -4.0947573,-1.562097 -5.6568545,0 -0.5183064,0.518307 -0.8400167,1.152148 -1.016466,1.811962 L 2.3639611,0.9497473 0.9497475,2.3639613 z m 7.7781746,2.12132 c 0.7810486,-0.781048 2.0473789,-0.781048 2.8284279,0 0.781048,0.781048 0.781048,2.0473787 0,2.8284267 -0.781049,0.781049 -2.0473793,0.781048 -2.8284279,0 -0.7810482,-0.781048 -0.7810486,-2.0473777 0,-2.8284267 z"
     id="path2816" />
</svg>
