<?xml version="1.0" encoding="UTF-8" standalone="no"?>
<svg
   xmlns:dc="http://purl.org/dc/elements/1.1/"
   xmlns:cc="http://creativecommons.org/ns#"
   xmlns:rdf="http://www.w3.org/1999/02/22-rdf-syntax-ns#"
   xmlns:svg="http://www.w3.org/2000/svg"
   xmlns="http://www.w3.org/2000/svg"
   xmlns:sodipodi="http://sodipodi.sourceforge.net/DTD/sodipodi-0.dtd"
   xmlns:inkscape="http://www.inkscape.org/namespaces/inkscape"
   version="1.0"
   width="28"
   height="23"
   id="svg2"
   inkscape:version="0.47 r22583"
   sodipodi:docname="02-07-013-01-02-02.svg">
  <defs
     id="defs16">
    <inkscape:perspective
       sodipodi:type="inkscape:persp3d"
       inkscape:vp_x="0 : 23 : 1"
       inkscape:vp_y="0 : 1000 : 0"
       inkscape:vp_z="36 : 23 : 1"
       inkscape:persp3d-origin="18 : 15.333333 : 1"
       id="perspective18" />
  </defs>
  <sodipodi:namedview
     pagecolor="#ffffff"
     bordercolor="#666666"
     borderopacity="1"
     objecttolerance="10"
     gridtolerance="10"
     guidetolerance="10"
     inkscape:pageopacity="0"
     inkscape:pageshadow="2"
     inkscape:window-width="964"
     inkscape:window-height="721"
     id="namedview14"
     showgrid="true"
     inkscape:zoom="16.701291"
     inkscape:cx="14"
     inkscape:cy="11.5"
     inkscape:window-x="365"
     inkscape:window-y="0"
     inkscape:window-maximized="0"
     inkscape:current-layer="svg2"
     showborder="true">
    <inkscape:grid
       type="xygrid"
       id="grid2824"
       empspacing="5"
       visible="true"
       enabled="true"
       snapvisiblegridlinesonly="true" />
  </sodipodi:namedview>
  <metadata
     id="metadata4">
Valerie Sutton's pixel definition of the
ISWA 2010 symbol ID 04-01-003-01-01-01
transformed by Stephen E Slevinski Jr
using line and fill polygon tracing
<rdf:RDF>
  <cc:Work
     rdf:about="">
    <dc:format>image/svg+xml</dc:format>
    <dc:type
       rdf:resource="http://purl.org/dc/dcmitype/StillImage" />
    <dc:title></dc:title>
  </cc:Work>
</rdf:RDF>
</metadata>
  <path
     style="fill:#000000;fill-opacity:1;stroke:none"
     d="m 0,11 28,0 0,-1 -28,0 0,1 z"
     id="path2831" />
  <path
     style="fill:#000000;fill-opacity:1;stroke:none"
     d="M 11,23 21,23 21,13 11,23 z M 13.40625,22 20,15.4375 20,22 13.40625,22 z"
     id="path2964" />
  <path
     style="fill:#000000;fill-opacity:1;stroke:none"
     d="m 9,10.5 c 0,2.623352 1.062088,4.999589 2.78125,6.71875 l 2.5,2.5 L 15,19 12.5,16.5 C 10.961802,14.961802 10,12.84721 10,10.5 10,8.15279 10.961802,6.038198 12.5,4.5 L 16.28125,0.6875 15.59375,0 11.78125,3.78125 C 10.062088,5.500411 9,7.876648 9,10.5 z"
     id="path2817" />
  <path
     style="fill:#ffffff;fill-opacity:1;stroke:none"
     d="m 10,10.5 c 0,2.34721 0.961802,4.461802 2.5,6 l 2.5,2.5 2.125,-2.125 -2.5,-2.5 C 13.629695,13.379696 13,12.018783 13,10.5 13,8.981217 13.629695,7.620304 14.625,6.625 L 18.40625,2.8125 16.28125,0.6875 12.5,4.5 c -1.538198,1.538198 -2.499999,3.652789 -2.5,6 z"
     id="path2819" />
  <path
     style="fill:#000000;fill-opacity:1;stroke:none"
     d="m 13,10.5 c 0,1.518783 0.629695,2.879696 1.625,3.875 l 2.5,2.5 0.6875,-0.6875 -2.5,-2.5 C 14.49816,12.87316 14,11.742641 14,10.5 14,9.257359 14.498159,8.126841 15.3125,7.3125 L 19.125,3.53125 18.40625,2.8125 14.625,6.625 C 13.629695,7.620304 13,8.981217 13,10.5 z"
     id="path2824" />
  <path
     style="fill:#ffffff;fill-opacity:1;stroke:none"
     d="M 13.40625,22 20,22 20,15.4375 13.40625,22 z"
     id="path3506" />
  <path
     style="fill:#000000;fill-opacity:1;stroke:none"
     d="m 12,14.5 c 2.209139,0 4,-1.790861 4,-4 0,-2.209139 -1.790861,-4 -4,-4 -2.209139,0 -4,1.790861 -4,4 0,2.209139 1.790861,4 4,4 z"
     id="path2929" />
</svg>
