<?xml version="1.0" encoding="UTF-8" standalone="no"?>
<svg
   xmlns:dc="http://purl.org/dc/elements/1.1/"
   xmlns:cc="http://creativecommons.org/ns#"
   xmlns:rdf="http://www.w3.org/1999/02/22-rdf-syntax-ns#"
   xmlns:svg="http://www.w3.org/2000/svg"
   xmlns="http://www.w3.org/2000/svg"
   xmlns:sodipodi="http://sodipodi.sourceforge.net/DTD/sodipodi-0.dtd"
   xmlns:inkscape="http://www.inkscape.org/namespaces/inkscape"
   version="1.0"
   width="20"
   height="40"
   id="svg2"
   inkscape:version="0.47 r22583"
   sodipodi:docname="02-03-001-02-02-01.svg">
  <defs
     id="defs16">
    <inkscape:perspective
       sodipodi:type="inkscape:persp3d"
       inkscape:vp_x="0 : 23 : 1"
       inkscape:vp_y="0 : 1000 : 0"
       inkscape:vp_z="36 : 23 : 1"
       inkscape:persp3d-origin="18 : 15.333333 : 1"
       id="perspective18" />
  </defs>
  <sodipodi:namedview
     pagecolor="#ffffff"
     bordercolor="#666666"
     borderopacity="1"
     objecttolerance="10"
     gridtolerance="10"
     guidetolerance="10"
     inkscape:pageopacity="0"
     inkscape:pageshadow="2"
     inkscape:window-width="964"
     inkscape:window-height="721"
     id="namedview14"
     showgrid="true"
     inkscape:zoom="11.793537"
     inkscape:cx="8.6391347"
     inkscape:cy="20.228019"
     inkscape:window-x="365"
     inkscape:window-y="0"
     inkscape:window-maximized="0"
     inkscape:current-layer="svg2"
     showborder="true">
    <inkscape:grid
       type="xygrid"
       id="grid2824"
       empspacing="5"
       visible="true"
       enabled="true"
       snapvisiblegridlinesonly="true" />
  </sodipodi:namedview>
  <metadata
     id="metadata4">
Valerie Sutton's pixel definition of the
ISWA 2010 symbol ID 04-01-003-01-01-01
transformed by Stephen E Slevinski Jr
using line and fill polygon tracing
<rdf:RDF>
  <cc:Work
     rdf:about="">
    <dc:format>image/svg+xml</dc:format>
    <dc:type
       rdf:resource="http://purl.org/dc/dcmitype/StillImage" />
    <dc:title></dc:title>
  </cc:Work>
</rdf:RDF>
</metadata>
  <path
     style="fill:#000000"
     d="M 0.5,0.1862919 0.5,11.5 11.813708,0.1862919 0.5,0.1862919 z m 1.016466,1.016466 7.8665631,0 -7.8665631,7.8665631 0,-7.8665631 z"
     id="path2818" />
  <path
     style="fill:#000000;fill-opacity:1;stroke:none"
     d="M 4.7573595,7.2426407 3.3431459,8.6568542 8.292893,13.606602 1.9289324,19.970563 8.292893,26.334524 1.2218256,33.405592 2.6360391,34.819805 11.121321,26.334524 4.7573595,19.970563 11.121321,13.606602 4.7573595,7.2426407 z"
     id="path2831" />
  <path
     id="path2833"
     d="m 9,3 -1.414213,1.4142135 9.192388,9.1923885 -6.363961,6.363961 6.363961,6.363961 L 5.4644663,37.648232 6.87868,39.062446 19.606601,26.334524 13.242641,19.970563 19.606601,13.606602 9,3 z"
     style="fill:#000000;fill-opacity:1;stroke:none" />
  <path
     style="fill:#ffffff;fill-opacity:1;stroke:none"
     d="M 7.585787,4.4142135 4.7573595,7.2426407 11.121321,13.606602 4.7573595,19.970563 11.121321,26.334524 2.6360391,34.819805 5.4644663,37.648232 16.778175,26.334524 10.414214,19.970563 16.778175,13.606602 7.585787,4.4142135 z"
     id="rect2821" />
  <path
     style="fill:#ffffff"
     d="m 1.516466,1.2027579 0,7.8665631 7.8665631,-7.8665631 -7.8665631,0 z"
     id="path3008" />
</svg>
