<?xml version="1.0" encoding="UTF-8" standalone="no"?>
<svg
   xmlns:dc="http://purl.org/dc/elements/1.1/"
   xmlns:cc="http://creativecommons.org/ns#"
   xmlns:rdf="http://www.w3.org/1999/02/22-rdf-syntax-ns#"
   xmlns:svg="http://www.w3.org/2000/svg"
   xmlns="http://www.w3.org/2000/svg"
   xmlns:sodipodi="http://sodipodi.sourceforge.net/DTD/sodipodi-0.dtd"
   xmlns:inkscape="http://www.inkscape.org/namespaces/inkscape"
   version="1.0"
   width="26"
   height="24"
   id="svg2"
   inkscape:version="0.47 r22583"
   sodipodi:docname="02-08-002-01-03-03.svg">
  <defs
     id="defs16">
    <inkscape:perspective
       sodipodi:type="inkscape:persp3d"
       inkscape:vp_x="0 : 23 : 1"
       inkscape:vp_y="0 : 1000 : 0"
       inkscape:vp_z="36 : 23 : 1"
       inkscape:persp3d-origin="18 : 15.333333 : 1"
       id="perspective18" />
  </defs>
  <sodipodi:namedview
     pagecolor="#ffffff"
     bordercolor="#666666"
     borderopacity="1"
     objecttolerance="10"
     gridtolerance="10"
     guidetolerance="10"
     inkscape:pageopacity="0"
     inkscape:pageshadow="2"
     inkscape:window-width="964"
     inkscape:window-height="721"
     id="namedview14"
     showgrid="true"
     inkscape:zoom="16.010846"
     inkscape:cx="13.004285"
     inkscape:cy="12.003955"
     inkscape:window-x="365"
     inkscape:window-y="0"
     inkscape:window-maximized="0"
     inkscape:current-layer="svg2"
     showborder="true">
    <inkscape:grid
       type="xygrid"
       id="grid2824"
       empspacing="5"
       visible="true"
       enabled="true"
       snapvisiblegridlinesonly="true" />
  </sodipodi:namedview>
  <metadata
     id="metadata4">
Valerie Sutton's pixel definition of the
ISWA 2010 symbol ID 04-01-003-01-01-01
transformed by Stephen E Slevinski Jr
using line and fill polygon tracing
<rdf:RDF>
  <cc:Work
     rdf:about="">
    <dc:format>image/svg+xml</dc:format>
    <dc:type
       rdf:resource="http://purl.org/dc/dcmitype/StillImage" />
    <dc:title></dc:title>
  </cc:Work>
</rdf:RDF>
</metadata>
  <path
     style="fill:#000000;fill-opacity:1;stroke:none"
     d="M 9 0 C 6.790861 0 5 1.790861 5 4 L 5 5 L 7 5 L 7 4 C 7 2.8954305 7.8954305 2 9 2 L 10 2 C 11.656854 2 13 3.3431458 13 5 L 13 15 L 15.375 10.84375 C 15.737312 10.332656 16.325832 10 17 10 C 18.656854 10 20 11.343146 20 13 L 20 15 C 20 18.282953 16 24 16 24 L 26 24 C 26 24 22 18.282953 22 15 L 22 13 C 22 10.238576 19.761424 8 17 8 C 16.27007 8 15.589088 8.2209836 15 8.5625 L 15 5 C 15 2.2385763 12.761424 0 10 0 L 9 0 z "
     id="path2825" />
  <path
     style="fill:#000000;fill-opacity:1;stroke:none"
     d="M 0 5 L 6 11 L 12 5 L 0 5 z M 2.4375 6 L 9.5625 6 L 6 9.5625 L 2.4375 6 z "
     id="path2839" />
  <path
     style="fill:#ffffff;fill-opacity:1;stroke:none"
     d="M 2.4375 6 L 6 9.5625 L 9.5625 6 L 2.4375 6 z "
     id="path3114" />
</svg>
