<?xml version="1.0" encoding="UTF-8" standalone="no"?>
<svg
   xmlns:dc="http://purl.org/dc/elements/1.1/"
   xmlns:cc="http://creativecommons.org/ns#"
   xmlns:rdf="http://www.w3.org/1999/02/22-rdf-syntax-ns#"
   xmlns:svg="http://www.w3.org/2000/svg"
   xmlns="http://www.w3.org/2000/svg"
   xmlns:sodipodi="http://sodipodi.sourceforge.net/DTD/sodipodi-0.dtd"
   xmlns:inkscape="http://www.inkscape.org/namespaces/inkscape"
   version="1.0"
   width="30"
   height="17"
   id="svg2"
   inkscape:version="0.47 r22583"
   sodipodi:docname="02-08-002-01-03-06.svg">
  <defs
     id="defs16">
    <inkscape:perspective
       sodipodi:type="inkscape:persp3d"
       inkscape:vp_x="0 : 23 : 1"
       inkscape:vp_y="0 : 1000 : 0"
       inkscape:vp_z="36 : 23 : 1"
       inkscape:persp3d-origin="18 : 15.333333 : 1"
       id="perspective18" />
  </defs>
  <sodipodi:namedview
     pagecolor="#ffffff"
     bordercolor="#666666"
     borderopacity="1"
     objecttolerance="10"
     gridtolerance="10"
     guidetolerance="10"
     inkscape:pageopacity="0"
     inkscape:pageshadow="2"
     inkscape:window-width="964"
     inkscape:window-height="721"
     id="namedview14"
     showgrid="true"
     inkscape:zoom="17.13"
     inkscape:cx="14.99877"
     inkscape:cy="8.4993033"
     inkscape:window-x="365"
     inkscape:window-y="0"
     inkscape:window-maximized="0"
     inkscape:current-layer="svg2"
     showborder="true">
    <inkscape:grid
       type="xygrid"
       id="grid2824"
       empspacing="5"
       visible="true"
       enabled="true"
       snapvisiblegridlinesonly="true" />
  </sodipodi:namedview>
  <metadata
     id="metadata4">
Valerie Sutton's pixel definition of the
ISWA 2010 symbol ID 04-01-003-01-01-01
transformed by Stephen E Slevinski Jr
using line and fill polygon tracing
<rdf:RDF>
  <cc:Work
     rdf:about="">
    <dc:format>image/svg+xml</dc:format>
    <dc:type
       rdf:resource="http://purl.org/dc/dcmitype/StillImage" />
    <dc:title></dc:title>
  </cc:Work>
</rdf:RDF>
</metadata>
  <path
     style="fill:#000000;fill-opacity:1;stroke:none"
     d="M 30,7.100505 30,17 l -9.899494,0 1.414213,-1.414214 7.071068,0 0,-7.071068 L 30,7.100505 z"
     id="path2839" />
  <path
     style="fill:#000000;fill-opacity:1;stroke:none"
     d="m 1.7157292,1.4436506 c 1.5620972,-1.5620972 4.0947571,-1.5620972 5.6568542,0 L 11.305865,5.376932 c 0.176449,-0.659814 0.498159,-1.293655 1.016466,-1.811961 1.562097,-1.5620972 4.094757,-1.5620972 5.656854,0 l 2.828427,2.828427 c 1.795055,1.795055 7.071068,2.828427 7.071068,2.828427 l -5.656854,5.656854 c 0,0 -1.033372,-5.276012 -2.828427,-7.071067 L 16.564972,4.979184 c -0.781049,-0.781048 -2.047379,-0.781048 -2.828427,0 -0.781049,0.781049 -0.781049,2.047379 0,2.828428 l 2.12132,2.12132 -1.414214,1.414214 -8.4852811,-8.485282 c -0.7810486,-0.7810484 -2.0473789,-0.7810481 -2.8284271,0 -0.7810483,0.781048 -0.7810486,2.047379 0,2.828427 L 6.6654767,9.221825 5.2512631,10.636039 1.7157292,7.100505 c -1.5620972,-1.562097 -1.5620972,-4.094757 0,-5.6568544 z"
     id="path3428" />
</svg>
