<?xml version="1.0" encoding="UTF-8" standalone="no"?>
<svg
   xmlns:dc="http://purl.org/dc/elements/1.1/"
   xmlns:cc="http://creativecommons.org/ns#"
   xmlns:rdf="http://www.w3.org/1999/02/22-rdf-syntax-ns#"
   xmlns:svg="http://www.w3.org/2000/svg"
   xmlns="http://www.w3.org/2000/svg"
   xmlns:sodipodi="http://sodipodi.sourceforge.net/DTD/sodipodi-0.dtd"
   xmlns:inkscape="http://www.inkscape.org/namespaces/inkscape"
   version="1.0"
   width="33"
   height="16"
   id="svg2"
   inkscape:version="0.47 r22583"
   sodipodi:docname="02-08-002-01-03-02.svg">
  <defs
     id="defs16">
    <inkscape:perspective
       sodipodi:type="inkscape:persp3d"
       inkscape:vp_x="0 : 23 : 1"
       inkscape:vp_y="0 : 1000 : 0"
       inkscape:vp_z="36 : 23 : 1"
       inkscape:persp3d-origin="18 : 15.333333 : 1"
       id="perspective18" />
  </defs>
  <sodipodi:namedview
     pagecolor="#ffffff"
     bordercolor="#666666"
     borderopacity="1"
     objecttolerance="10"
     gridtolerance="10"
     guidetolerance="10"
     inkscape:pageopacity="0"
     inkscape:pageshadow="2"
     inkscape:window-width="964"
     inkscape:window-height="721"
     id="namedview14"
     showgrid="true"
     inkscape:zoom="16.1"
     inkscape:cx="16.498088"
     inkscape:cy="7.999073"
     inkscape:window-x="365"
     inkscape:window-y="0"
     inkscape:window-maximized="0"
     inkscape:current-layer="svg2"
     showborder="true">
    <inkscape:grid
       type="xygrid"
       id="grid2824"
       empspacing="5"
       visible="true"
       enabled="true"
       snapvisiblegridlinesonly="true" />
  </sodipodi:namedview>
  <metadata
     id="metadata4">
Valerie Sutton's pixel definition of the
ISWA 2010 symbol ID 04-01-003-01-01-01
transformed by Stephen E Slevinski Jr
using line and fill polygon tracing
<rdf:RDF>
  <cc:Work
     rdf:about="">
    <dc:format>image/svg+xml</dc:format>
    <dc:type
       rdf:resource="http://purl.org/dc/dcmitype/StillImage" />
    <dc:title></dc:title>
  </cc:Work>
</rdf:RDF>
</metadata>
  <path
     style="fill:#000000;fill-opacity:1;stroke:none"
     d="m 29.656854,3.1005048 c 1.562098,1.5620971 1.562098,4.0947572 0,5.6568542 L 28.949748,9.464466 27.535534,8.050252 28.242641,7.343145 c 0.781049,-0.7810481 0.781048,-2.0473785 0,-2.8284267 L 27.535534,3.8076115 c -1.171573,-1.1715727 -3.071068,-1.1715728 -4.242641,0 L 16.221826,10.878679 17.48136,6.2603882 c 0.105204,-0.6175913 -0.07572,-1.2689611 -0.552428,-1.7456699 -1.171572,-1.1715727 -3.071068,-1.1715727 -4.24264,0 L 11.272078,5.9289319 C 8.9506799,8.25033 7.7365443,15.12132 7.7365443,15.12132 L 0.6654765,8.050252 c 0,0 6.8709898,-1.214135 9.1923881,-3.5355337 L 11.272078,3.1005048 c 1.952622,-1.9526217 5.118446,-1.9526217 7.071068,0 0.516138,0.5161384 0.841406,1.1539244 1.016466,1.8119611 L 21.87868,2.393398 c 1.952621,-1.9526215 5.118446,-1.9526217 7.071068,0 l 0.707106,0.7071068 z"
     id="path2825" />
  <path
     style="fill:#000000;fill-opacity:1;stroke:none"
     d="M 32.485282,13 24,13 l 0,-8.4852817 1.414214,1.4142136 0,5.6568541 5.656854,0 L 32.485282,13 z"
     id="path2839" />
</svg>
