<?xml version="1.0" encoding="UTF-8" standalone="no"?>
<svg
   xmlns:dc="http://purl.org/dc/elements/1.1/"
   xmlns:cc="http://creativecommons.org/ns#"
   xmlns:rdf="http://www.w3.org/1999/02/22-rdf-syntax-ns#"
   xmlns:svg="http://www.w3.org/2000/svg"
   xmlns="http://www.w3.org/2000/svg"
   xmlns:sodipodi="http://sodipodi.sourceforge.net/DTD/sodipodi-0.dtd"
   xmlns:inkscape="http://www.inkscape.org/namespaces/inkscape"
   version="1.0"
   width="28"
   height="13"
   id="svg2"
   inkscape:version="0.47 r22583"
   sodipodi:docname="02-08-002-01-04-08.svg">
  <defs
     id="defs16">
    <inkscape:perspective
       sodipodi:type="inkscape:persp3d"
       inkscape:vp_x="0 : 23 : 1"
       inkscape:vp_y="0 : 1000 : 0"
       inkscape:vp_z="36 : 23 : 1"
       inkscape:persp3d-origin="18 : 15.333333 : 1"
       id="perspective18" />
  </defs>
  <sodipodi:namedview
     pagecolor="#ffffff"
     bordercolor="#666666"
     borderopacity="1"
     objecttolerance="10"
     gridtolerance="10"
     guidetolerance="10"
     inkscape:pageopacity="0"
     inkscape:pageshadow="2"
     inkscape:window-width="964"
     inkscape:window-height="721"
     id="namedview14"
     showgrid="true"
     inkscape:zoom="16.52305"
     inkscape:cx="14.001994"
     inkscape:cy="6.5009257"
     inkscape:window-x="365"
     inkscape:window-y="0"
     inkscape:window-maximized="0"
     inkscape:current-layer="svg2"
     showborder="true">
    <inkscape:grid
       type="xygrid"
       id="grid2824"
       empspacing="5"
       visible="true"
       enabled="true"
       snapvisiblegridlinesonly="true" />
  </sodipodi:namedview>
  <metadata
     id="metadata4">
Valerie Sutton's pixel definition of the
ISWA 2010 symbol ID 04-01-003-01-01-01
transformed by Stephen E Slevinski Jr
using line and fill polygon tracing
<rdf:RDF>
  <cc:Work
     rdf:about="">
    <dc:format>image/svg+xml</dc:format>
    <dc:type
       rdf:resource="http://purl.org/dc/dcmitype/StillImage" />
    <dc:title></dc:title>
  </cc:Work>
</rdf:RDF>
</metadata>
  <path
     style="fill:#000000;fill-opacity:1;stroke:none"
     d="m 2.0496797,2.3933984 c 1.952621,-1.9526216 5.118446,-1.9526214 7.0710681,0 l 2.5190682,2.5190679 c 0.175059,-0.6580367 0.500327,-1.2958227 1.016466,-1.8119611 1.952621,-1.9526216 5.118446,-1.9526216 7.071067,0 L 27.505524,10.87868 26.09131,12.292893 18.313136,4.5147188 c -1.171573,-1.1715727 -3.071068,-1.1715727 -4.242641,0 -0.476709,0.4767087 -0.657632,1.1280785 -0.552427,1.7456698 L 14.777602,10.87868 7.7065337,3.807612 c -1.171573,-1.1715729 -3.071068,-1.1715727 -4.242641,0 L 2.7567868,4.5147188 c -0.781049,0.7810482 -0.781049,2.0473785 0,2.8284271 L 3.4638927,8.0502527 2.0496797,9.464466 1.3425727,8.757359 c -1.56209694,-1.5620967 -1.56209694,-4.0947566 0,-5.6568538 l 0.707107,-0.7071068 z"
     id="path2825" />
</svg>
