<?xml version="1.0" encoding="UTF-8" standalone="no"?>
<svg
   xmlns:dc="http://purl.org/dc/elements/1.1/"
   xmlns:cc="http://creativecommons.org/ns#"
   xmlns:rdf="http://www.w3.org/1999/02/22-rdf-syntax-ns#"
   xmlns:svg="http://www.w3.org/2000/svg"
   xmlns="http://www.w3.org/2000/svg"
   xmlns:sodipodi="http://sodipodi.sourceforge.net/DTD/sodipodi-0.dtd"
   xmlns:inkscape="http://www.inkscape.org/namespaces/inkscape"
   version="1.0"
   width="28"
   height="13"
   id="svg2"
   inkscape:version="0.47 r22583"
   sodipodi:docname="02-08-002-01-04-02.svg">
  <defs
     id="defs16">
    <inkscape:perspective
       sodipodi:type="inkscape:persp3d"
       inkscape:vp_x="0 : 23 : 1"
       inkscape:vp_y="0 : 1000 : 0"
       inkscape:vp_z="36 : 23 : 1"
       inkscape:persp3d-origin="18 : 15.333333 : 1"
       id="perspective18" />
  </defs>
  <sodipodi:namedview
     pagecolor="#ffffff"
     bordercolor="#666666"
     borderopacity="1"
     objecttolerance="10"
     gridtolerance="10"
     guidetolerance="10"
     inkscape:pageopacity="0"
     inkscape:pageshadow="2"
     inkscape:window-width="964"
     inkscape:window-height="721"
     id="namedview14"
     showgrid="true"
     inkscape:zoom="16.52305"
     inkscape:cx="14.001994"
     inkscape:cy="6.5009257"
     inkscape:window-x="365"
     inkscape:window-y="0"
     inkscape:window-maximized="0"
     inkscape:current-layer="svg2"
     showborder="true">
    <inkscape:grid
       type="xygrid"
       id="grid2824"
       empspacing="5"
       visible="true"
       enabled="true"
       snapvisiblegridlinesonly="true" />
  </sodipodi:namedview>
  <metadata
     id="metadata4">
Valerie Sutton's pixel definition of the
ISWA 2010 symbol ID 04-01-003-01-01-01
transformed by Stephen E Slevinski Jr
using line and fill polygon tracing
<rdf:RDF>
  <cc:Work
     rdf:about="">
    <dc:format>image/svg+xml</dc:format>
    <dc:type
       rdf:resource="http://purl.org/dc/dcmitype/StillImage" />
    <dc:title></dc:title>
  </cc:Work>
</rdf:RDF>
</metadata>
  <path
     style="fill:#000000;fill-opacity:1;stroke:none"
     d="m 25.949747,2.3933984 c -1.952621,-1.9526216 -5.118446,-1.9526214 -7.071068,0 L 16.359611,4.9124663 C 16.184552,4.2544296 15.859284,3.6166436 15.343145,3.1005052 c -1.952621,-1.9526216 -5.118446,-1.9526216 -7.0710674,0 L 0.493903,10.87868 1.9081166,12.292893 9.6862912,4.5147188 c 1.1715728,-1.1715727 3.0710678,-1.1715727 4.2426408,0 0.476709,0.4767087 0.657632,1.1280785 0.552427,1.7456698 L 13.221825,10.87868 20.292893,3.807612 c 1.171573,-1.1715729 3.071068,-1.1715727 4.242641,0 l 0.707106,0.7071068 c 0.781049,0.7810482 0.781049,2.0473785 0,2.8284271 l -0.707106,0.7071068 1.414213,1.4142133 0.707107,-0.707107 c 1.562097,-1.5620967 1.562097,-4.0947566 0,-5.6568538 L 25.949747,2.3933984 z"
     id="path2825" />
</svg>
