<?xml version="1.0" encoding="UTF-8" standalone="no"?>
<svg
   xmlns:dc="http://purl.org/dc/elements/1.1/"
   xmlns:cc="http://creativecommons.org/ns#"
   xmlns:rdf="http://www.w3.org/1999/02/22-rdf-syntax-ns#"
   xmlns:svg="http://www.w3.org/2000/svg"
   xmlns="http://www.w3.org/2000/svg"
   xmlns:sodipodi="http://sodipodi.sourceforge.net/DTD/sodipodi-0.dtd"
   xmlns:inkscape="http://www.inkscape.org/namespaces/inkscape"
   version="1.0"
   width="13"
   height="31"
   id="svg2"
   inkscape:version="0.47 r22583"
   sodipodi:docname="02-06-004-01-01-01.svg">
  <defs
     id="defs16">
    <inkscape:perspective
       sodipodi:type="inkscape:persp3d"
       inkscape:vp_x="0 : 23 : 1"
       inkscape:vp_y="0 : 1000 : 0"
       inkscape:vp_z="36 : 23 : 1"
       inkscape:persp3d-origin="18 : 15.333333 : 1"
       id="perspective18" />
  </defs>
  <sodipodi:namedview
     pagecolor="#ffffff"
     bordercolor="#666666"
     borderopacity="1"
     objecttolerance="10"
     gridtolerance="10"
     guidetolerance="10"
     inkscape:pageopacity="0"
     inkscape:pageshadow="2"
     inkscape:window-width="964"
     inkscape:window-height="721"
     id="namedview14"
     showgrid="true"
     inkscape:zoom="15.258065"
     inkscape:cx="6.5"
     inkscape:cy="15.5"
     inkscape:window-x="365"
     inkscape:window-y="0"
     inkscape:window-maximized="0"
     inkscape:current-layer="svg2"
     showborder="true">
    <inkscape:grid
       type="xygrid"
       id="grid2824"
       empspacing="5"
       visible="true"
       enabled="true"
       snapvisiblegridlinesonly="true" />
  </sodipodi:namedview>
  <metadata
     id="metadata4">
Valerie Sutton's pixel definition of the
ISWA 2010 symbol ID 04-01-003-01-01-01
transformed by Stephen E Slevinski Jr
using line and fill polygon tracing
<rdf:RDF>
  <cc:Work
     rdf:about="">
    <dc:format>image/svg+xml</dc:format>
    <dc:type
       rdf:resource="http://purl.org/dc/dcmitype/StillImage" />
    <dc:title></dc:title>
  </cc:Work>
</rdf:RDF>
</metadata>
  <path
     style="fill:#000000;fill-opacity:1;stroke:none"
     d="M 11,0 1.0000003,0 1,10 11,0 z"
     id="path2820" />
  <path
     style="fill:#000000;fill-opacity:1;stroke:none"
     d="m 7.375,3.625 -0.71875,0.71875 3,3 C 11.103965,8.7914652 12,10.790861 12,13 c 0,2.209139 -0.896035,4.208535 -2.34375,5.65625 L 8.6875,19.6875 C 7.8731605,20.501839 6.7426405,21 5.5,21 3.0147184,21 1.0000001,18.985281 1,16.5 1,14.01472 3.0147181,12.000001 5.5,12 c 1.2426402,10e-7 2.3731601,0.49816 3.1875,1.3125 l 0.28125,0.28125 C 8.9927561,13.395887 9,13.204452 9,13 9,12.741117 8.975681,12.498034 8.9375,12.25 7.9946238,11.479159 6.8132237,11 5.5,11 2.4624343,11 0,13.462434 0,16.5 0,19.537566 2.4624333,22 5.5,22 c 1.5187827,-1e-6 2.8796963,-0.629696 3.875,-1.625 l 1,-1 c 0.495343,-0.495343 0.913132,-1.055402 1.28125,-1.65625 C 11.871512,18.442301 12,19.206477 12,20 c 0,2.209139 -0.896035,4.208535 -2.34375,5.65625 l -4.625,4.625 L 5.75,31 10.375,26.375 C 12.00368,24.74632 13,22.485281 13,20 13,18.757359 12.765165,17.579505 12.3125,16.5 12.765165,15.420495 13,14.242641 13,13 13,10.514719 12.00368,8.2536797 10.375,6.625 l -3,-3 z"
     id="path2816" />
  <path
     style="fill:#ffffff;fill-opacity:1;stroke:none"
     d="M 6.65625,4.34375 5.25,5.75 l 3,3 C 9.335786,9.8357864 10,11.343146 10,13 10,14.656854 9.335786,16.164213 8.25,17.25 L 7.28125,18.28125 C 6.8288388,18.733661 6.1903569,19 5.5,19 4.1192881,19 2.9999999,17.880712 3,16.5 c 2e-7,-1.380712 1.1192879,-2.5 2.5,-2.5 0.6903556,0 1.328839,0.266339 1.78125,0.71875 L 8.1875,15.6875 c 0.046462,-0.0715 0.081802,-0.145086 0.125,-0.21875 0.049907,-0.0861 0.1114305,-0.160765 0.15625,-0.25 0.045437,-0.08848 0.084643,-0.189992 0.125,-0.28125 0.034301,-0.08061 0.06364,-0.167284 0.09375,-0.25 0.1002143,-0.262989 0.1974732,-0.529211 0.25,-0.8125 0.016534,-0.09209 0.01987,-0.187458 0.03125,-0.28125 L 8.6875,13.3125 C 7.8731601,12.49816 6.7426402,12.000001 5.5,12 3.0147181,12.000001 1,14.01472 1,16.5 c 1e-7,2.485281 2.0147184,4.5 4.5,4.5 1.2426405,0 2.3731605,-0.498161 3.1875,-1.3125 L 9.65625,18.65625 C 11.103965,17.208535 12,15.209139 12,13 12,10.790861 11.103965,8.7914652 9.65625,7.34375 l -3,-3 z m 5,13.375 C 11.288132,18.319598 10.870343,18.879657 10.375,19.375 L 10,19.75 c 0.0033,0.08186 0,0.167364 0,0.25 0,1.656854 -0.6642136,3.164213 -1.75,4.25 l -4.625,4.625 1.40625,1.40625 4.625,-4.625 C 11.103965,24.208535 12,22.209139 12,20 12,19.206477 11.871512,18.442301 11.65625,17.71875 z"
     id="path2842" />
  <path
     style="fill:#000000;fill-opacity:1;stroke:none"
     d="m 5.25,5.75 -0.71875,0.71875 3,3 C 8.436072,10.373572 9,11.619288 9,13 9,14.000083 8.6944689,14.907311 8.1875,15.6875 L 7.28125,14.71875 C 6.828839,14.266339 6.1903557,14 5.5,14 4.1192879,14 3.0000002,15.119288 3,16.5 c -10e-8,1.380712 1.1192881,2.5 2.5,2.5 0.6903569,0 1.3288388,-0.266339 1.78125,-0.71875 L 8.25,17.25 C 9.335786,16.164213 10,14.656854 10,13 10,11.343146 9.335786,9.8357864 8.25,8.75 l -3,-3 z M 5.5,15 c 0.4142134,0 0.7910532,0.166053 1.0625,0.4375 l 0.96875,1.03125 c 0.010349,0.01035 0.020989,0.02081 0.03125,0.03125 -0.010111,0.01028 -0.021052,0.02105 -0.03125,0.03125 L 6.5625,17.5625 C 6.2910537,17.833947 5.9142136,18 5.5,18 4.6715732,17.999999 4.0000003,17.328426 4,16.5 3.9999998,15.671573 4.6715732,15 5.5,15 z M 10,19.75 9.375,20.375 C 9.2402908,20.509709 9.0850888,20.62934 8.9375,20.75 8.772049,21.824816 8.2664179,22.796082 7.53125,23.53125 l -4.625,4.625 L 3.625,28.875 8.25,24.25 C 9.3357864,23.164213 10,21.656854 10,20 c 0,-0.08264 0.0033,-0.168141 0,-0.25 z"
     id="path2845" />
</svg>
