<?xml version="1.0" encoding="UTF-8" standalone="no"?>
<svg
   xmlns:dc="http://purl.org/dc/elements/1.1/"
   xmlns:cc="http://creativecommons.org/ns#"
   xmlns:rdf="http://www.w3.org/1999/02/22-rdf-syntax-ns#"
   xmlns:svg="http://www.w3.org/2000/svg"
   xmlns="http://www.w3.org/2000/svg"
   xmlns:sodipodi="http://sodipodi.sourceforge.net/DTD/sodipodi-0.dtd"
   xmlns:inkscape="http://www.inkscape.org/namespaces/inkscape"
   version="1.0"
   width="25"
   height="19"
   id="svg2"
   inkscape:version="0.47 r22583"
   sodipodi:docname="02-08-003-01-04-03.svg">
  <defs
     id="defs16">
    <inkscape:perspective
       sodipodi:type="inkscape:persp3d"
       inkscape:vp_x="0 : 23 : 1"
       inkscape:vp_y="0 : 1000 : 0"
       inkscape:vp_z="36 : 23 : 1"
       inkscape:persp3d-origin="18 : 15.333333 : 1"
       id="perspective18" />
  </defs>
  <sodipodi:namedview
     pagecolor="#ffffff"
     bordercolor="#666666"
     borderopacity="1"
     objecttolerance="10"
     gridtolerance="10"
     guidetolerance="10"
     inkscape:pageopacity="0"
     inkscape:pageshadow="2"
     inkscape:window-width="964"
     inkscape:window-height="721"
     id="namedview14"
     showgrid="true"
     inkscape:zoom="16.421381"
     inkscape:cx="12.501453"
     inkscape:cy="9.5011043"
     inkscape:window-x="365"
     inkscape:window-y="0"
     inkscape:window-maximized="0"
     inkscape:current-layer="svg2"
     showborder="true">
    <inkscape:grid
       type="xygrid"
       id="grid2824"
       empspacing="5"
       visible="true"
       enabled="true"
       snapvisiblegridlinesonly="true" />
  </sodipodi:namedview>
  <metadata
     id="metadata4">
Valerie Sutton's pixel definition of the
ISWA 2010 symbol ID 04-01-003-01-01-01
transformed by Stephen E Slevinski Jr
using line and fill polygon tracing
<rdf:RDF>
  <cc:Work
     rdf:about="">
    <dc:format>image/svg+xml</dc:format>
    <dc:type
       rdf:resource="http://purl.org/dc/dcmitype/StillImage" />
    <dc:title></dc:title>
  </cc:Work>
</rdf:RDF>
</metadata>
  <path
     style="fill:#000000;fill-opacity:1;stroke:none"
     d="m 2.0502525,3.1005047 c -1.5620972,1.5620971 -1.5620972,4.0947571 0,5.6568542 L 2.7573593,9.4644657 3.4644661,8.7573589 2.7573593,8.0502521 c -1.1715728,-1.1715728 -1.1715728,-3.0710678 0,-4.2426406 L 3.4644661,3.1005047 C 4.6360388,1.928932 6.8521164,2.2455143 8.4142135,3.8076115 l 3.8227965,3.822796 c -0.493476,0.1313069 -0.960856,0.3863313 -1.347923,0.773398 -1.1715726,1.1715729 -1.1715724,3.0710685 0,4.2426405 1.171573,1.171573 3.071069,1.171573 4.242641,0 0.387067,-0.387066 0.642092,-0.854446 0.773399,-1.347922 l 7.358328,7.35833 L 24.677669,17.24264 9.8284271,2.3933979 c -1.9526214,-1.9526214 -5.1184462,-1.9526216 -7.0710678,0 L 2.0502525,3.1005047 z m 9.8994945,6.363961 c 0.585787,-0.5857863 1.535534,-0.5857863 2.121321,0 0.585787,0.5857863 0.585787,1.5355343 0,2.1213203 -0.585787,0.585786 -1.535534,0.585786 -2.121321,0 -0.585786,-0.585786 -0.585786,-1.535534 0,-2.1213203 z"
     id="path2825" />
</svg>
