<?xml version="1.0" encoding="UTF-8" standalone="no"?>
<svg
   xmlns:dc="http://purl.org/dc/elements/1.1/"
   xmlns:cc="http://creativecommons.org/ns#"
   xmlns:rdf="http://www.w3.org/1999/02/22-rdf-syntax-ns#"
   xmlns:svg="http://www.w3.org/2000/svg"
   xmlns="http://www.w3.org/2000/svg"
   xmlns:sodipodi="http://sodipodi.sourceforge.net/DTD/sodipodi-0.dtd"
   xmlns:inkscape="http://www.inkscape.org/namespaces/inkscape"
   version="1.0"
   width="23"
   height="19"
   id="svg2"
   inkscape:version="0.47 r22583"
   sodipodi:docname="02-08-003-01-01-07.svg">
  <defs
     id="defs16">
    <inkscape:perspective
       sodipodi:type="inkscape:persp3d"
       inkscape:vp_x="0 : 23 : 1"
       inkscape:vp_y="0 : 1000 : 0"
       inkscape:vp_z="36 : 23 : 1"
       inkscape:persp3d-origin="18 : 15.333333 : 1"
       id="perspective18" />
  </defs>
  <sodipodi:namedview
     pagecolor="#ffffff"
     bordercolor="#666666"
     borderopacity="1"
     objecttolerance="10"
     gridtolerance="10"
     guidetolerance="10"
     inkscape:pageopacity="0"
     inkscape:pageshadow="2"
     inkscape:window-width="964"
     inkscape:window-height="721"
     id="namedview14"
     showgrid="true"
     inkscape:zoom="16.421381"
     inkscape:cx="11.501337"
     inkscape:cy="9.5011043"
     inkscape:window-x="365"
     inkscape:window-y="0"
     inkscape:window-maximized="0"
     inkscape:current-layer="svg2"
     showborder="true">
    <inkscape:grid
       type="xygrid"
       id="grid2824"
       empspacing="5"
       visible="true"
       enabled="true"
       snapvisiblegridlinesonly="true" />
  </sodipodi:namedview>
  <metadata
     id="metadata4">
Valerie Sutton's pixel definition of the
ISWA 2010 symbol ID 04-01-003-01-01-01
transformed by Stephen E Slevinski Jr
using line and fill polygon tracing
<rdf:RDF>
  <cc:Work
     rdf:about="">
    <dc:format>image/svg+xml</dc:format>
    <dc:type
       rdf:resource="http://purl.org/dc/dcmitype/StillImage" />
    <dc:title></dc:title>
  </cc:Work>
</rdf:RDF>
</metadata>
  <path
     style="fill:#000000;fill-opacity:1;stroke:none"
     d="M 0,9.100505 9.8994949,19 0,19 0,9.100505 z"
     id="path2814" />
  <path
     style="fill:#000000;fill-opacity:1;stroke:none"
     d="m 21.92031,1.3223304 c -1.562097,-1.5620972 -4.094757,-1.5620972 -5.656854,0 L 9.192388,8.393398 C 7.397333,10.188453 2.12132,11.221825 2.12132,11.221825 l 5.656855,5.656855 c 0,0 0.884818,-4.480096 2.430679,-6.584932 0.136391,0.468841 0.381658,0.911988 0.751301,1.281631 1.171573,1.171572 3.071068,1.171572 4.242641,0 1.171573,-1.171573 1.171573,-3.071068 0,-4.242641 C 14.815729,6.945671 14.348349,6.690647 13.854874,6.55934 L 17.67767,2.736544 c 0.781048,-0.7810486 2.047378,-0.7810486 2.828427,0 0.390524,0.3905244 0.390524,1.0236893 0,1.4142135 L 16.970563,7.686291 18.384777,9.100505 21.92031,5.564971 c 1.171573,-1.1715727 1.171573,-3.0710679 0,-4.2426406 z M 14.142136,8.393398 c 0.585786,0.585787 0.585786,1.535534 0,2.121321 -0.585787,0.585786 -1.535534,0.585786 -2.121321,0 -0.585786,-0.585787 -0.585786,-1.535534 0,-2.121321 0.585787,-0.585786 1.535534,-0.585786 2.121321,0 z"
     id="path2816" />
</svg>
