<?xml version="1.0" encoding="UTF-8" standalone="no"?>
<svg
   xmlns:dc="http://purl.org/dc/elements/1.1/"
   xmlns:cc="http://creativecommons.org/ns#"
   xmlns:rdf="http://www.w3.org/1999/02/22-rdf-syntax-ns#"
   xmlns:svg="http://www.w3.org/2000/svg"
   xmlns="http://www.w3.org/2000/svg"
   xmlns:sodipodi="http://sodipodi.sourceforge.net/DTD/sodipodi-0.dtd"
   xmlns:inkscape="http://www.inkscape.org/namespaces/inkscape"
   version="1.0"
   width="19"
   height="15"
   id="svg2"
   inkscape:version="0.47 r22583"
   sodipodi:docname="02-08-003-01-04-04.svg">
  <defs
     id="defs16">
    <inkscape:perspective
       sodipodi:type="inkscape:persp3d"
       inkscape:vp_x="0 : 23 : 1"
       inkscape:vp_y="0 : 1000 : 0"
       inkscape:vp_z="36 : 23 : 1"
       inkscape:persp3d-origin="18 : 15.333333 : 1"
       id="perspective18" />
  </defs>
  <sodipodi:namedview
     pagecolor="#ffffff"
     bordercolor="#666666"
     borderopacity="1"
     objecttolerance="10"
     gridtolerance="10"
     guidetolerance="10"
     inkscape:pageopacity="0"
     inkscape:pageshadow="2"
     inkscape:window-width="964"
     inkscape:window-height="721"
     id="namedview14"
     showgrid="true"
     inkscape:zoom="16.91"
     inkscape:cx="9.5026698"
     inkscape:cy="7.5021077"
     inkscape:window-x="365"
     inkscape:window-y="0"
     inkscape:window-maximized="0"
     inkscape:current-layer="svg2"
     showborder="true">
    <inkscape:grid
       type="xygrid"
       id="grid2824"
       empspacing="5"
       visible="true"
       enabled="true"
       snapvisiblegridlinesonly="true" />
  </sodipodi:namedview>
  <metadata
     id="metadata4">
Valerie Sutton's pixel definition of the
ISWA 2010 symbol ID 04-01-003-01-01-01
transformed by Stephen E Slevinski Jr
using line and fill polygon tracing
<rdf:RDF>
  <cc:Work
     rdf:about="">
    <dc:format>image/svg+xml</dc:format>
    <dc:type
       rdf:resource="http://purl.org/dc/dcmitype/StillImage" />
    <dc:title></dc:title>
  </cc:Work>
</rdf:RDF>
</metadata>
  <path
     style="fill:#000000;fill-opacity:1;stroke:none"
     d="m 1.0796897,1.3223304 c 1.5620971,-1.5620972 4.0947571,-1.5620972 5.656854,0 L 18.757359,13.343146 17.343146,14.757359 12.813243,10.227456 c -0.131307,0.493476 -0.386331,0.960856 -0.773398,1.347923 -1.171573,1.171572 -3.0710683,1.171572 -4.2426412,0 -1.171573,-1.171573 -1.171573,-3.071068 0,-4.242641 C 8.1842708,6.945671 8.6516507,6.690647 9.1451259,6.55934 L 5.3223297,2.736544 c -0.781048,-0.7810486 -2.0473779,-0.7810486 -2.8284269,0 -0.390524,0.3905244 -0.390524,1.0236893 0,1.4142135 L 6.0294368,7.686291 4.6152237,9.100505 1.0796897,5.564971 c -1.1715729,-1.1715727 -1.1715729,-3.0710679 0,-4.2426406 z m 7.778174,7.0710676 c -0.585786,0.585787 -0.585786,1.535534 0,2.121321 0.5857871,0.585786 1.5355343,0.585786 2.1213213,0 0.585786,-0.585787 0.585786,-1.535534 0,-2.121321 -0.585787,-0.585786 -1.5355342,-0.585786 -2.1213213,0 z"
     id="path2816" />
</svg>
