<?xml version="1.0" encoding="UTF-8" standalone="no"?>
<svg
   xmlns:dc="http://purl.org/dc/elements/1.1/"
   xmlns:cc="http://creativecommons.org/ns#"
   xmlns:rdf="http://www.w3.org/1999/02/22-rdf-syntax-ns#"
   xmlns:svg="http://www.w3.org/2000/svg"
   xmlns="http://www.w3.org/2000/svg"
   xmlns:sodipodi="http://sodipodi.sourceforge.net/DTD/sodipodi-0.dtd"
   xmlns:inkscape="http://www.inkscape.org/namespaces/inkscape"
   version="1.0"
   width="19"
   height="15"
   id="svg2"
   inkscape:version="0.47 r22583"
   sodipodi:docname="02-08-003-01-02-04.svg">
  <defs
     id="defs16">
    <inkscape:perspective
       sodipodi:type="inkscape:persp3d"
       inkscape:vp_x="0 : 23 : 1"
       inkscape:vp_y="0 : 1000 : 0"
       inkscape:vp_z="36 : 23 : 1"
       inkscape:persp3d-origin="18 : 15.333333 : 1"
       id="perspective18" />
  </defs>
  <sodipodi:namedview
     pagecolor="#ffffff"
     bordercolor="#666666"
     borderopacity="1"
     objecttolerance="10"
     gridtolerance="10"
     guidetolerance="10"
     inkscape:pageopacity="0"
     inkscape:pageshadow="2"
     inkscape:window-width="964"
     inkscape:window-height="721"
     id="namedview14"
     showgrid="true"
     inkscape:zoom="16.91"
     inkscape:cx="9.5026698"
     inkscape:cy="7.5021077"
     inkscape:window-x="365"
     inkscape:window-y="0"
     inkscape:window-maximized="0"
     inkscape:current-layer="svg2"
     showborder="true">
    <inkscape:grid
       type="xygrid"
       id="grid2824"
       empspacing="5"
       visible="true"
       enabled="true"
       snapvisiblegridlinesonly="true" />
  </sodipodi:namedview>
  <metadata
     id="metadata4">
Valerie Sutton's pixel definition of the
ISWA 2010 symbol ID 04-01-003-01-01-01
transformed by Stephen E Slevinski Jr
using line and fill polygon tracing
<rdf:RDF>
  <cc:Work
     rdf:about="">
    <dc:format>image/svg+xml</dc:format>
    <dc:type
       rdf:resource="http://purl.org/dc/dcmitype/StillImage" />
    <dc:title></dc:title>
  </cc:Work>
</rdf:RDF>
</metadata>
  <path
     style="fill:#000000;fill-opacity:1;stroke:none"
     d="m 17.92031,1.3223304 c -1.562097,-1.5620972 -4.094757,-1.5620972 -5.656854,0 L 0.2426407,13.343146 1.6568542,14.757359 6.186757,10.227456 c 0.1313067,0.493476 0.386331,0.960856 0.7733981,1.347923 1.1715727,1.171572 3.0710679,1.171572 4.2426409,0 1.171573,-1.171573 1.171573,-3.071068 0,-4.242641 C 10.815729,6.945671 10.348349,6.690647 9.8548739,6.55934 L 13.67767,2.736544 c 0.781048,-0.7810486 2.047378,-0.7810486 2.828427,0 0.390524,0.3905244 0.390524,1.0236893 0,1.4142135 L 12.970563,7.686291 14.384776,9.100505 17.92031,5.564971 c 1.171573,-1.1715727 1.171573,-3.0710679 0,-4.2426406 z M 10.142136,8.393398 c 0.585786,0.585787 0.585786,1.535534 0,2.121321 -0.5857871,0.585786 -1.5355344,0.585786 -2.1213208,0 -0.5857864,-0.585787 -0.5857863,-1.535534 0,-2.121321 0.5857864,-0.585786 1.5355337,-0.585786 2.1213208,0 z"
     id="path2816" />
</svg>
