<?xml version="1.0" encoding="UTF-8" standalone="no"?>
<svg
   xmlns:dc="http://purl.org/dc/elements/1.1/"
   xmlns:cc="http://creativecommons.org/ns#"
   xmlns:rdf="http://www.w3.org/1999/02/22-rdf-syntax-ns#"
   xmlns:svg="http://www.w3.org/2000/svg"
   xmlns="http://www.w3.org/2000/svg"
   xmlns:sodipodi="http://sodipodi.sourceforge.net/DTD/sodipodi-0.dtd"
   xmlns:inkscape="http://www.inkscape.org/namespaces/inkscape"
   version="1.0"
   width="29"
   height="22"
   id="svg2"
   inkscape:version="0.47 r22583"
   sodipodi:docname="02-08-003-01-03-08.svg">
  <defs
     id="defs16">
    <inkscape:perspective
       sodipodi:type="inkscape:persp3d"
       inkscape:vp_x="0 : 23 : 1"
       inkscape:vp_y="0 : 1000 : 0"
       inkscape:vp_z="36 : 23 : 1"
       inkscape:persp3d-origin="18 : 15.333333 : 1"
       id="perspective18" />
  </defs>
  <sodipodi:namedview
     pagecolor="#ffffff"
     bordercolor="#666666"
     borderopacity="1"
     objecttolerance="10"
     gridtolerance="10"
     guidetolerance="10"
     inkscape:pageopacity="0"
     inkscape:pageshadow="2"
     inkscape:window-width="964"
     inkscape:window-height="721"
     id="namedview14"
     showgrid="true"
     inkscape:zoom="16.300086"
     inkscape:cx="14.5"
     inkscape:cy="11"
     inkscape:window-x="365"
     inkscape:window-y="0"
     inkscape:window-maximized="0"
     inkscape:current-layer="svg2"
     showborder="true">
    <inkscape:grid
       type="xygrid"
       id="grid2824"
       empspacing="5"
       visible="true"
       enabled="true"
       snapvisiblegridlinesonly="true" />
  </sodipodi:namedview>
  <metadata
     id="metadata4">
Valerie Sutton's pixel definition of the
ISWA 2010 symbol ID 04-01-003-01-01-01
transformed by Stephen E Slevinski Jr
using line and fill polygon tracing
<rdf:RDF>
  <cc:Work
     rdf:about="">
    <dc:format>image/svg+xml</dc:format>
    <dc:type
       rdf:resource="http://purl.org/dc/dcmitype/StillImage" />
    <dc:title></dc:title>
  </cc:Work>
</rdf:RDF>
</metadata>
  <path
     style="fill:#000000;fill-opacity:1;stroke:none"
     d="m 3.050252,3.1005052 c -1.562097,1.5620972 -1.562097,4.0947571 0,5.6568543 L 3.757359,9.464466 4.464466,8.7573595 3.757359,8.0502527 c -1.171573,-1.1715728 -1.171572,-3.071068 0,-4.2426407 L 4.464466,3.1005052 C 5.636039,1.9289325 7.852116,2.2455148 9.414213,3.807612 l 3.822797,3.8227961 c -0.493476,0.1313069 -0.960856,0.3863313 -1.347923,0.773398 -1.171573,1.1715729 -1.171572,3.0710679 0,4.2426409 1.171573,1.171572 3.071068,1.171573 4.242641,0 0.387067,-0.387067 0.642091,-0.854447 0.773398,-1.347923 l 0.994369,0.994369 c 2.321399,2.321399 3.535534,9.192389 3.535534,9.192389 l 7.071068,-7.071068 c 0,0 -6.87099,-1.214136 -9.192388,-3.535534 L 10.828427,2.3933985 c -1.952621,-1.9526215 -5.118446,-1.9526217 -7.071068,0 L 3.050252,3.1005052 z m 9.899495,6.3639608 c 0.585787,-0.5857861 1.535534,-0.5857861 2.121321,0 0.585786,0.585787 0.585786,1.535534 0,2.121321 -0.585787,0.585786 -1.535534,0.585786 -2.121321,0 -0.585786,-0.585787 -0.585786,-1.535534 0,-2.121321 z"
     id="path2825" />
  <path
     style="fill:#000000;fill-opacity:1;stroke:none"
     d="M 0.221825,13 8,13 8,5.2218256 6.585786,6.6360391 l 0,4.9497479 -4.949747,0 L 0.221825,13 z"
     id="path2839" />
</svg>
