<?xml version="1.0" encoding="UTF-8" standalone="no"?>
<svg
   xmlns:dc="http://purl.org/dc/elements/1.1/"
   xmlns:cc="http://creativecommons.org/ns#"
   xmlns:rdf="http://www.w3.org/1999/02/22-rdf-syntax-ns#"
   xmlns:svg="http://www.w3.org/2000/svg"
   xmlns="http://www.w3.org/2000/svg"
   xmlns:sodipodi="http://sodipodi.sourceforge.net/DTD/sodipodi-0.dtd"
   xmlns:inkscape="http://www.inkscape.org/namespaces/inkscape"
   version="1.0"
   width="50"
   height="19"
   id="svg2"
   inkscape:version="0.47 r22583"
   sodipodi:docname="02-08-009-04-03-02.svg">
  <defs
     id="defs16">
    <inkscape:perspective
       sodipodi:type="inkscape:persp3d"
       inkscape:vp_x="0 : 23 : 1"
       inkscape:vp_y="0 : 1000 : 0"
       inkscape:vp_z="36 : 23 : 1"
       inkscape:persp3d-origin="18 : 15.333333 : 1"
       id="perspective18" />
  </defs>
  <sodipodi:namedview
     pagecolor="#ffffff"
     bordercolor="#666666"
     borderopacity="1"
     objecttolerance="10"
     gridtolerance="10"
     guidetolerance="10"
     inkscape:pageopacity="0"
     inkscape:pageshadow="2"
     inkscape:window-width="964"
     inkscape:window-height="721"
     id="namedview14"
     showgrid="true"
     inkscape:zoom="16.1"
     inkscape:cx="25"
     inkscape:cy="9.5"
     inkscape:window-x="365"
     inkscape:window-y="0"
     inkscape:window-maximized="0"
     inkscape:current-layer="svg2"
     showborder="true">
    <inkscape:grid
       type="xygrid"
       id="grid2824"
       empspacing="5"
       visible="true"
       enabled="true"
       snapvisiblegridlinesonly="true" />
  </sodipodi:namedview>
  <metadata
     id="metadata4">
Valerie Sutton's pixel definition of the
ISWA 2010 symbol ID 04-01-003-01-01-01
transformed by Stephen E Slevinski Jr
using line and fill polygon tracing
<rdf:RDF>
  <cc:Work
     rdf:about="">
    <dc:format>image/svg+xml</dc:format>
    <dc:type
       rdf:resource="http://purl.org/dc/dcmitype/StillImage" />
    <dc:title></dc:title>
  </cc:Work>
</rdf:RDF>
</metadata>
  <path
     style="fill:#000000;fill-opacity:1;stroke:none"
     d="m 50,0 0,11.313709 -1.414214,-1.414214 0,-8.485281 -8.485281,0 L 38.686291,0 50,0 z"
     id="path2839" />
  <path
     style="fill:#000000;fill-opacity:1;stroke:none"
     d="m 45.050252,6.363961 -8.131728,8.131728 c -1.366835,1.366835 -3.582912,1.366835 -4.949747,0 -0.683418,-0.683418 -1.016466,-1.579146 -1.016466,-2.474874 l 0,-2.872621 -6.761709,6.761709 c -1.366835,1.366835 -3.582912,1.366835 -4.949747,0 -0.683418,-0.683418 -1.016466,-1.579146 -1.016466,-2.474874 l 0,-2.872621 -6.408155,6.408155 c -1.562098,1.562097 -4.0947575,1.562097 -5.6568547,0 L 3.3309522,14.142136 c -3.1241943,-3.124195 -3.1241943,-8.189514 0,-11.313709 l 7.0710678,7.071068 -2.1213203,2.12132 c -1.1715727,1.171573 -1.488155,2.754486 -0.7071068,3.535534 0.7810489,0.781049 2.0473789,0.781049 2.8284271,0 l 9.833204,-9.833203 -0.0221,7.711883 c 0,0.383884 0.149048,0.767767 0.441941,1.06066 0.585787,0.585787 1.535534,0.585787 2.121321,0 l 10.186757,-10.186757 -0.0221,7.711883 c 0,0.383884 0.149048,0.767767 0.441941,1.060661 0.585787,0.585786 1.535534,0.585786 2.121321,0 l 8.131728,-8.131728 1.414213,1.414213 z"
     id="path2816" />
</svg>
