<?xml version="1.0" encoding="UTF-8" standalone="no"?>
<svg
   xmlns:dc="http://purl.org/dc/elements/1.1/"
   xmlns:cc="http://creativecommons.org/ns#"
   xmlns:rdf="http://www.w3.org/1999/02/22-rdf-syntax-ns#"
   xmlns:svg="http://www.w3.org/2000/svg"
   xmlns="http://www.w3.org/2000/svg"
   xmlns:sodipodi="http://sodipodi.sourceforge.net/DTD/sodipodi-0.dtd"
   xmlns:inkscape="http://www.inkscape.org/namespaces/inkscape"
   version="1.0"
   width="43"
   height="15"
   id="svg2"
   inkscape:version="0.47 r22583"
   sodipodi:docname="02-08-009-04-04-03.svg">
  <defs
     id="defs16">
    <inkscape:perspective
       sodipodi:type="inkscape:persp3d"
       inkscape:vp_x="0 : 23 : 1"
       inkscape:vp_y="0 : 1000 : 0"
       inkscape:vp_z="36 : 23 : 1"
       inkscape:persp3d-origin="18 : 15.333333 : 1"
       id="perspective18" />
  </defs>
  <sodipodi:namedview
     pagecolor="#ffffff"
     bordercolor="#666666"
     borderopacity="1"
     objecttolerance="10"
     gridtolerance="10"
     guidetolerance="10"
     inkscape:pageopacity="0"
     inkscape:pageshadow="2"
     inkscape:window-width="964"
     inkscape:window-height="721"
     id="namedview14"
     showgrid="true"
     inkscape:zoom="16.309417"
     inkscape:cx="21.500769"
     inkscape:cy="7.5002682"
     inkscape:window-x="365"
     inkscape:window-y="0"
     inkscape:window-maximized="0"
     inkscape:current-layer="svg2"
     showborder="true">
    <inkscape:grid
       type="xygrid"
       id="grid2824"
       empspacing="5"
       visible="true"
       enabled="true"
       snapvisiblegridlinesonly="true" />
  </sodipodi:namedview>
  <metadata
     id="metadata4">
Valerie Sutton's pixel definition of the
ISWA 2010 symbol ID 04-01-003-01-01-01
transformed by Stephen E Slevinski Jr
using line and fill polygon tracing
<rdf:RDF>
  <cc:Work
     rdf:about="">
    <dc:format>image/svg+xml</dc:format>
    <dc:type
       rdf:resource="http://purl.org/dc/dcmitype/StillImage" />
    <dc:title></dc:title>
  </cc:Work>
</rdf:RDF>
</metadata>
  <path
     style="fill:#000000;fill-opacity:1;stroke:none"
     d="m 42.050253,2.363961 -8.131728,8.131728 c -1.366836,1.366835 -3.582913,1.366835 -4.949748,0 C 28.285359,9.812271 27.952311,8.916542 27.952311,8.020815 l 0,-2.872621 -6.761708,6.761708 c -1.366836,1.366835 -3.582912,1.366835 -4.949748,0 -0.683418,-0.683418 -1.016466,-1.579146 -1.016466,-2.474874 l 0,-2.872621 -6.4081547,6.408155 c -1.562097,1.562098 -4.094757,1.562098 -5.656854,0 -3.124195,-3.124194 -3.124195,-8.189514 0,-11.313708 l 1.414213,1.414213 c -2.343145,2.343146 -2.343145,6.142136 0,8.485282 0.781049,0.781049 2.0473789,0.781048 2.8284269,0 l 9.8332038,-9.833204 -0.0221,7.711883 c 0,0.383884 0.149048,0.767767 0.441942,1.060661 0.585786,0.585786 1.535534,0.585786 2.12132,0 l 10.186757,-10.186757 -0.0221,7.711883 c 0,0.383884 0.149048,0.767767 0.441942,1.06066 0.585786,0.585786 1.535534,0.585786 2.12132,0 l 8.131734,-8.131728 1.414214,1.414214 z"
     id="path2816" />
</svg>
