<?xml version="1.0" encoding="UTF-8" standalone="no"?>
<svg
   xmlns:dc="http://purl.org/dc/elements/1.1/"
   xmlns:cc="http://creativecommons.org/ns#"
   xmlns:rdf="http://www.w3.org/1999/02/22-rdf-syntax-ns#"
   xmlns:svg="http://www.w3.org/2000/svg"
   xmlns="http://www.w3.org/2000/svg"
   xmlns:sodipodi="http://sodipodi.sourceforge.net/DTD/sodipodi-0.dtd"
   xmlns:inkscape="http://www.inkscape.org/namespaces/inkscape"
   version="1.0"
   width="39"
   height="43"
   id="svg2"
   inkscape:version="0.47 r22583"
   sodipodi:docname="02-08-009-04-03-01.svg">
  <defs
     id="defs16">
    <inkscape:perspective
       sodipodi:type="inkscape:persp3d"
       inkscape:vp_x="0 : 23 : 1"
       inkscape:vp_y="0 : 1000 : 0"
       inkscape:vp_z="36 : 23 : 1"
       inkscape:persp3d-origin="18 : 15.333333 : 1"
       id="perspective18" />
  </defs>
  <sodipodi:namedview
     pagecolor="#ffffff"
     bordercolor="#666666"
     borderopacity="1"
     objecttolerance="10"
     gridtolerance="10"
     guidetolerance="10"
     inkscape:pageopacity="0"
     inkscape:pageshadow="2"
     inkscape:window-width="964"
     inkscape:window-height="721"
     id="namedview14"
     showgrid="true"
     inkscape:zoom="11"
     inkscape:cx="19.5"
     inkscape:cy="21.5"
     inkscape:window-x="365"
     inkscape:window-y="0"
     inkscape:window-maximized="0"
     inkscape:current-layer="svg2"
     showborder="true">
    <inkscape:grid
       type="xygrid"
       id="grid2824"
       empspacing="5"
       visible="true"
       enabled="true"
       snapvisiblegridlinesonly="true" />
  </sodipodi:namedview>
  <metadata
     id="metadata4">
Valerie Sutton's pixel definition of the
ISWA 2010 symbol ID 04-01-003-01-01-01
transformed by Stephen E Slevinski Jr
using line and fill polygon tracing
<rdf:RDF>
  <cc:Work
     rdf:about="">
    <dc:format>image/svg+xml</dc:format>
    <dc:type
       rdf:resource="http://purl.org/dc/dcmitype/StillImage" />
    <dc:title></dc:title>
  </cc:Work>
</rdf:RDF>
</metadata>
  <path
     style="fill:#000000;fill-opacity:1;stroke:none"
     d="M 31,0 39,8 37,8 31,2 25,8 23,8 31,0 z"
     id="path2839" />
  <path
     style="fill:#000000;fill-opacity:1;stroke:none"
     d="m 32,8 0,11.5 c 0,1.932997 -1.567003,3.5 -3.5,3.5 -0.966499,0 -1.835375,-0.397875 -2.46875,-1.03125 L 24,19.9375 24,29.5 c 0,1.932997 -1.567003,3.5 -3.5,3.5 -0.966499,0 -1.835375,-0.397875 -2.46875,-1.03125 L 16,29.9375 16,39 c 0,2.209139 -1.790861,4 -4,4 L 8,43 C 3.581722,43 0,39.418278 0,35 l 10,0 0,3 c 0,1.656854 0.895431,3 2,3 1.10457,0 2,-0.895431 2,-2 l 0,-13.90625 5.4375,5.46875 C 19.708947,30.833947 20.085786,31 20.5,31 21.328427,31 22,30.328427 22,29.5 l 0,-14.40625 5.4375,5.46875 C 27.708947,20.833947 28.085786,21 28.5,21 29.328427,21 30,20.328427 30,19.5 L 30,8 32,8 z"
     id="path2816" />
</svg>
