<?xml version="1.0" encoding="UTF-8" standalone="no"?>
<svg
   xmlns:dc="http://purl.org/dc/elements/1.1/"
   xmlns:cc="http://creativecommons.org/ns#"
   xmlns:rdf="http://www.w3.org/1999/02/22-rdf-syntax-ns#"
   xmlns:svg="http://www.w3.org/2000/svg"
   xmlns="http://www.w3.org/2000/svg"
   xmlns:sodipodi="http://sodipodi.sourceforge.net/DTD/sodipodi-0.dtd"
   xmlns:inkscape="http://www.inkscape.org/namespaces/inkscape"
   version="1.0"
   width="48"
   height="18"
   id="svg2"
   inkscape:version="0.47 r22583"
   sodipodi:docname="02-08-009-04-02-06.svg">
  <defs
     id="defs16">
    <inkscape:perspective
       sodipodi:type="inkscape:persp3d"
       inkscape:vp_x="0 : 23 : 1"
       inkscape:vp_y="0 : 1000 : 0"
       inkscape:vp_z="36 : 23 : 1"
       inkscape:persp3d-origin="18 : 15.333333 : 1"
       id="perspective18" />
  </defs>
  <sodipodi:namedview
     pagecolor="#ffffff"
     bordercolor="#666666"
     borderopacity="1"
     objecttolerance="10"
     gridtolerance="10"
     guidetolerance="10"
     inkscape:pageopacity="0"
     inkscape:pageshadow="2"
     inkscape:window-width="964"
     inkscape:window-height="721"
     id="namedview14"
     showgrid="true"
     inkscape:zoom="16.775156"
     inkscape:cx="24.002225"
     inkscape:cy="9.0008343"
     inkscape:window-x="365"
     inkscape:window-y="0"
     inkscape:window-maximized="0"
     inkscape:current-layer="svg2"
     showborder="true">
    <inkscape:grid
       type="xygrid"
       id="grid2824"
       empspacing="5"
       visible="true"
       enabled="true"
       snapvisiblegridlinesonly="true" />
  </sodipodi:namedview>
  <metadata
     id="metadata4">
Valerie Sutton's pixel definition of the
ISWA 2010 symbol ID 04-01-003-01-01-01
transformed by Stephen E Slevinski Jr
using line and fill polygon tracing
<rdf:RDF>
  <cc:Work
     rdf:about="">
    <dc:format>image/svg+xml</dc:format>
    <dc:type
       rdf:resource="http://purl.org/dc/dcmitype/StillImage" />
    <dc:title></dc:title>
  </cc:Work>
</rdf:RDF>
</metadata>
  <path
     style="fill:#000000;fill-opacity:1;stroke:none"
     d="M 36,0 47.313709,0 36,11.313709 36,0 z m 0.994369,0.994369 0.0221,7.88866 7.866563,-7.866563 -7.88866,-0.0221 z"
     id="path2839" />
  <path
     style="fill:#000000;fill-opacity:1;stroke:none"
     d="M 2.0588747,1.414214 12.311923,11.667262 c 0.585786,0.585787 1.535534,0.585787 2.12132,0 0.292894,-0.292893 0.441942,-0.676776 0.441942,-1.06066 l -0.0221,-7.711883 10.893864,10.893864 c 0.585786,0.585786 1.535534,0.585786 2.12132,0 0.292894,-0.292894 0.441942,-0.676777 0.441942,-1.060661 l -0.0221,-7.711883 9.833203,9.833204 c 0.781049,0.781048 2.047379,0.781048 2.828428,0 1.171572,-1.171573 0.221825,-4.020816 -2.121321,-6.363961 l 5.656855,-5.656855 c 3.124194,3.124195 3.124194,8.189515 0,11.313709 l -2.121321,2.12132 c -1.562097,1.562097 -4.094757,1.562097 -5.656854,0 l -6.408155,-6.408155 0,2.872621 c 0,0.895728 -0.333048,1.791456 -1.016466,2.474874 -1.366836,1.366835 -3.582912,1.366835 -4.949748,0 l -7.468815,-7.468815 0,2.872621 c 0,0.895728 -0.333048,1.791456 -1.016466,2.474874 -1.366835,1.366835 -3.582912,1.366835 -4.949748,0 L 0.6446611,2.828427 2.0588747,1.414214 z"
     id="path3113" />
  <path
     style="fill:#ffffff;fill-opacity:1;stroke:none"
     d="m 36.994369,0.994369 7.88866,0.0221 -7.866563,7.866563 -0.0221,-7.88866 z"
     id="path2909" />
</svg>
