<?xml version="1.0" encoding="UTF-8" standalone="no"?>
<svg
   xmlns:dc="http://purl.org/dc/elements/1.1/"
   xmlns:cc="http://creativecommons.org/ns#"
   xmlns:rdf="http://www.w3.org/1999/02/22-rdf-syntax-ns#"
   xmlns:svg="http://www.w3.org/2000/svg"
   xmlns="http://www.w3.org/2000/svg"
   xmlns:sodipodi="http://sodipodi.sourceforge.net/DTD/sodipodi-0.dtd"
   xmlns:inkscape="http://www.inkscape.org/namespaces/inkscape"
   version="1.0"
   width="35"
   height="39"
   id="svg2"
   inkscape:version="0.47 r22583"
   sodipodi:docname="02-08-009-02-01-05.svg">
  <defs
     id="defs16">
    <inkscape:perspective
       sodipodi:type="inkscape:persp3d"
       inkscape:vp_x="0 : 23 : 1"
       inkscape:vp_y="0 : 1000 : 0"
       inkscape:vp_z="36 : 23 : 1"
       inkscape:persp3d-origin="18 : 15.333333 : 1"
       id="perspective18" />
  </defs>
  <sodipodi:namedview
     pagecolor="#ffffff"
     bordercolor="#666666"
     borderopacity="1"
     objecttolerance="10"
     gridtolerance="10"
     guidetolerance="10"
     inkscape:pageopacity="0"
     inkscape:pageshadow="2"
     inkscape:window-width="964"
     inkscape:window-height="721"
     id="namedview14"
     showgrid="true"
     inkscape:zoom="12.128205"
     inkscape:cx="17.5"
     inkscape:cy="19.5"
     inkscape:window-x="365"
     inkscape:window-y="0"
     inkscape:window-maximized="0"
     inkscape:current-layer="svg2"
     showborder="true">
    <inkscape:grid
       type="xygrid"
       id="grid2824"
       empspacing="5"
       visible="true"
       enabled="true"
       snapvisiblegridlinesonly="true" />
  </sodipodi:namedview>
  <metadata
     id="metadata4">
Valerie Sutton's pixel definition of the
ISWA 2010 symbol ID 04-01-003-01-01-01
transformed by Stephen E Slevinski Jr
using line and fill polygon tracing
<rdf:RDF>
  <cc:Work
     rdf:about="">
    <dc:format>image/svg+xml</dc:format>
    <dc:type
       rdf:resource="http://purl.org/dc/dcmitype/StillImage" />
    <dc:title></dc:title>
  </cc:Work>
</rdf:RDF>
</metadata>
  <path
     style="fill:#000000;fill-opacity:1;stroke:none"
     d="m 0,31 8,-8 8,8 -16,0 z"
     id="path2839" />
  <path
     style="fill:#000000;fill-opacity:1;stroke:none"
     d="M 33 0 L 33 14.5 C 33 15.328427 32.328427 16 31.5 16 C 31.085786 16 30.708947 15.833947 30.4375 15.5625 L 25 10.09375 L 25 25.5 C 25 26.328427 24.328427 27 23.5 27 C 23.085786 27 22.708947 26.833947 22.4375 26.5625 L 17 21.09375 L 17 35 C 17 36.104569 16.104569 37 15 37 C 13.343146 37 12 34.313708 12 31 L 4 31 C 4 35.418278 7.581722 39 12 39 L 15 39 C 17.209139 39 19 37.209139 19 35 L 19 25.9375 L 21.03125 27.96875 C 21.664625 28.602125 22.533501 29 23.5 29 C 25.432997 29 27 27.432997 27 25.5 L 27 14.9375 L 29.03125 16.96875 C 29.664625 17.602125 30.533501 18 31.5 18 C 33.432997 18 35 16.432997 35 14.5 L 35 0 L 33 0 z "
     id="path3113" />
</svg>
