<?xml version="1.0" encoding="UTF-8" standalone="no"?>
<svg
   xmlns:dc="http://purl.org/dc/elements/1.1/"
   xmlns:cc="http://creativecommons.org/ns#"
   xmlns:rdf="http://www.w3.org/1999/02/22-rdf-syntax-ns#"
   xmlns:svg="http://www.w3.org/2000/svg"
   xmlns="http://www.w3.org/2000/svg"
   xmlns:sodipodi="http://sodipodi.sourceforge.net/DTD/sodipodi-0.dtd"
   xmlns:inkscape="http://www.inkscape.org/namespaces/inkscape"
   version="1.0"
   width="39"
   height="43"
   id="svg2"
   inkscape:version="0.47 r22583"
   sodipodi:docname="02-08-009-04-03-03.svg">
  <defs
     id="defs16">
    <inkscape:perspective
       sodipodi:type="inkscape:persp3d"
       inkscape:vp_x="0 : 23 : 1"
       inkscape:vp_y="0 : 1000 : 0"
       inkscape:vp_z="36 : 23 : 1"
       inkscape:persp3d-origin="18 : 15.333333 : 1"
       id="perspective18" />
  </defs>
  <sodipodi:namedview
     pagecolor="#ffffff"
     bordercolor="#666666"
     borderopacity="1"
     objecttolerance="10"
     gridtolerance="10"
     guidetolerance="10"
     inkscape:pageopacity="0"
     inkscape:pageshadow="2"
     inkscape:window-width="964"
     inkscape:window-height="721"
     id="namedview14"
     showgrid="true"
     inkscape:zoom="11"
     inkscape:cx="19.5"
     inkscape:cy="21.5"
     inkscape:window-x="365"
     inkscape:window-y="0"
     inkscape:window-maximized="0"
     inkscape:current-layer="svg2"
     showborder="true">
    <inkscape:grid
       type="xygrid"
       id="grid2824"
       empspacing="5"
       visible="true"
       enabled="true"
       snapvisiblegridlinesonly="true" />
  </sodipodi:namedview>
  <metadata
     id="metadata4">
Valerie Sutton's pixel definition of the
ISWA 2010 symbol ID 04-01-003-01-01-01
transformed by Stephen E Slevinski Jr
using line and fill polygon tracing
<rdf:RDF>
  <cc:Work
     rdf:about="">
    <dc:format>image/svg+xml</dc:format>
    <dc:type
       rdf:resource="http://purl.org/dc/dcmitype/StillImage" />
    <dc:title></dc:title>
  </cc:Work>
</rdf:RDF>
</metadata>
  <path
     style="fill:#000000;fill-opacity:1;stroke:none"
     d="M 8 0 L 0 8 L 16 8 L 8 0 z M 8 1.4375 L 13.59375 7 L 2.40625 7 L 8 1.4375 z "
     id="path2839" />
  <path
     style="fill:#000000;fill-opacity:1;stroke:none"
     d="M 7 8 L 7 19.5 C 7 21.432997 8.5670034 23 10.5 23 C 11.466499 23 12.335375 22.602125 12.96875 21.96875 L 15 19.9375 L 15 29.5 C 15 31.432997 16.567003 33 18.5 33 C 19.466499 33 20.335375 32.602125 20.96875 31.96875 L 23 29.9375 L 23 39 C 23 41.209139 24.790861 43 27 43 L 31 43 C 35.418278 43 39 39.418278 39 35 L 29 35 L 29 38 C 29 39.656854 28.104569 41 27 41 C 25.89543 41 25 40.104569 25 39 L 25 25.09375 L 19.5625 30.5625 C 19.291053 30.833947 18.914214 31 18.5 31 C 17.671573 31 17 30.328427 17 29.5 L 17 15.09375 L 11.5625 20.5625 C 11.291053 20.833947 10.914214 21 10.5 21 C 9.6715729 21 9 20.328427 9 19.5 L 9 8 L 7 8 z "
     id="path2816" />
  <path
     style="fill:#ffffff;fill-opacity:1;stroke:none"
     d="M 8 1.4375 L 2.40625 7 L 13.59375 7 L 8 1.4375 z "
     id="path3298" />
</svg>
