<?xml version="1.0" encoding="UTF-8" standalone="no"?>
<svg
   xmlns:dc="http://purl.org/dc/elements/1.1/"
   xmlns:cc="http://creativecommons.org/ns#"
   xmlns:rdf="http://www.w3.org/1999/02/22-rdf-syntax-ns#"
   xmlns:svg="http://www.w3.org/2000/svg"
   xmlns="http://www.w3.org/2000/svg"
   xmlns:sodipodi="http://sodipodi.sourceforge.net/DTD/sodipodi-0.dtd"
   xmlns:inkscape="http://www.inkscape.org/namespaces/inkscape"
   version="1.0"
   width="20"
   height="13"
   id="svg2"
   inkscape:version="0.47 r22583"
   sodipodi:docname="04-05-011-01-03-01.svg">
  <defs
     id="defs14">
    <inkscape:perspective
       sodipodi:type="inkscape:persp3d"
       inkscape:vp_x="0 : 17.5 : 1"
       inkscape:vp_y="0 : 1000 : 0"
       inkscape:vp_z="36 : 17.5 : 1"
       inkscape:persp3d-origin="18 : 11.666667 : 1"
       id="perspective16" />
  </defs>
  <sodipodi:namedview
     pagecolor="#ffffff"
     bordercolor="#666666"
     borderopacity="1"
     objecttolerance="10"
     gridtolerance="10"
     guidetolerance="10"
     inkscape:pageopacity="0"
     inkscape:pageshadow="2"
     inkscape:window-width="897"
     inkscape:window-height="755"
     id="namedview12"
     showgrid="true"
     inkscape:zoom="10.953807"
     inkscape:cx="9.9614511"
     inkscape:cy="8.0872599"
     inkscape:window-x="209"
     inkscape:window-y="0"
     inkscape:window-maximized="0"
     inkscape:current-layer="svg2"
     inkscape:snap-grids="true">
    <inkscape:grid
       type="xygrid"
       id="grid2822" />
  </sodipodi:namedview>
  <metadata
     id="metadata4">
Valerie Sutton's pixel definition of the
ISWA 2010 symbol ID 04-01-001-01-01-01
transformed by Stephen E Slevinski Jr
using line and fill polygon tracing
<rdf:RDF>
  <cc:Work
     rdf:about="">
    <dc:format>image/svg+xml</dc:format>
    <dc:type
       rdf:resource="http://purl.org/dc/dcmitype/StillImage" />
    <dc:title />
  </cc:Work>
</rdf:RDF>
</metadata>
  <path
     style="fill:#000000;fill-opacity:1;stroke:none"
     d="M 4.25 0 C 4.25 0 4.273342 3.83727 3.75 5.65625 C 2.990025 8.297696 1.6597973e-16 13 0 13 L 1.75 13 C 1.75 13 4.451567 8.539499 5.15625 6.0625 C 5.71192 4.109297 5.75 0 5.75 0 L 4.25 0 z "
     id="rect2817" />
  <path
     style="fill:#000000;fill-opacity:1;stroke:none"
     d="M 14.25 0 C 14.25 0 14.28808 4.109297 14.84375 6.0625 C 15.548433 8.539499 18.25 13 18.25 13 L 20 13 C 20 13 17.009975 8.297696 16.25 5.65625 C 15.726658 3.83727 15.75 0 15.75 0 L 14.25 0 z "
     id="path2853" />
</svg>
