<?xml version="1.0" encoding="UTF-8" standalone="no"?>
<svg
   xmlns:dc="http://purl.org/dc/elements/1.1/"
   xmlns:cc="http://creativecommons.org/ns#"
   xmlns:rdf="http://www.w3.org/1999/02/22-rdf-syntax-ns#"
   xmlns:svg="http://www.w3.org/2000/svg"
   xmlns="http://www.w3.org/2000/svg"
   xmlns:sodipodi="http://sodipodi.sourceforge.net/DTD/sodipodi-0.dtd"
   xmlns:inkscape="http://www.inkscape.org/namespaces/inkscape"
   version="1.0"
   width="35"
   height="48"
   id="svg2"
   inkscape:version="0.47 r22583"
   sodipodi:docname="05-01-009-01-03-04.svg">
  <defs
     id="defs14">
    <inkscape:perspective
       sodipodi:type="inkscape:persp3d"
       inkscape:vp_x="0 : 5.5 : 1"
       inkscape:vp_y="0 : 1000 : 0"
       inkscape:vp_z="10 : 5.5 : 1"
       inkscape:persp3d-origin="5 : 3.6666667 : 1"
       id="perspective16" />
  </defs>
  <sodipodi:namedview
     pagecolor="#ffffff"
     bordercolor="#666666"
     borderopacity="1"
     objecttolerance="10"
     gridtolerance="10"
     guidetolerance="10"
     inkscape:pageopacity="0"
     inkscape:pageshadow="2"
     inkscape:window-width="917"
     inkscape:window-height="792"
     id="namedview12"
     showgrid="true"
     inkscape:zoom="11.333333"
     inkscape:cx="17.5"
     inkscape:cy="24"
     inkscape:window-x="313"
     inkscape:window-y="0"
     inkscape:window-maximized="0"
     inkscape:current-layer="svg2"
     showborder="true"
     inkscape:showpageshadow="true">
    <inkscape:grid
       type="xygrid"
       id="grid2822"
       empspacing="5"
       visible="true"
       enabled="true"
       snapvisiblegridlinesonly="true" />
  </sodipodi:namedview>
  <metadata
     id="metadata4">
Valerie Sutton's pixel definition of the
ISWA 2010 symbol ID 02-01-001-01-01-01
transformed by Stephen E Slevinski Jr
using line and fill polygon tracing
<rdf:RDF>
  <cc:Work
     rdf:about="">
    <dc:format>image/svg+xml</dc:format>
    <dc:type
       rdf:resource="http://purl.org/dc/dcmitype/StillImage" />
    <dc:title></dc:title>
  </cc:Work>
</rdf:RDF>
</metadata>
  <path
     style="fill:#000000;fill-opacity:1;stroke:none"
     d="M 17.5,13 C 7.835017,13 0,20.835017 0,30.5 0,40.164983 7.835017,48 17.5,48 27.164983,48 35,40.164983 35,30.5 35,20.835017 27.164983,13 17.5,13 z m 0,1.5 c 8.836556,0 16,7.163444 16,16 0,8.836556 -7.163444,16 -16,16 -8.836556,0 -16,-7.163444 -16,-16 0,-8.836556 7.163444,-16 16,-16 z"
     id="rect2952" />
  <path
     style="fill:#000000;fill-opacity:1;stroke:none"
     d="m 13.621611,11.12132 c -1.171573,1.171573 -3.071068,1.171573 -4.242641,0 -1.171572,-1.171572 -1.171572,-3.0710671 0,-4.2426399 1.171573,-1.1715726 3.071068,-1.1715726 4.242641,0 1.171573,1.1715728 1.171573,3.071068 0,4.2426399 z"
     id="path2815" />
  <path
     style="fill:#000000;fill-opacity:1;stroke:none"
     d="M 9.555747,8.116117 10.616407,7.0554569 5.66666,2.1057095 4.606,3.1663695 9.555747,8.116117 z"
     id="rect2817" />
  <path
     id="path3089"
     d="m 13.37868,0.87838885 c -1.171573,1.17157245 -1.171573,3.07106765 0,4.24264035 1.171573,1.1715729 3.071068,1.1715727 4.242641,0 1.171572,-1.1715727 1.171572,-3.0710678 0,-4.24264035 -1.171573,-1.171573 -3.071068,-1.171573 -4.242641,0 z"
     style="fill:#000000;fill-opacity:1;stroke:none" />
  <path
     id="path3091"
     d="M 16.383884,4.9442525 17.444544,3.8835924 22.394291,8.8333398 21.333631,9.894 16.383884,4.9442525 z"
     style="fill:#000000;fill-opacity:1;stroke:none" />
</svg>
