<?xml version="1.0" encoding="UTF-8" standalone="no"?>
<svg
   xmlns:dc="http://purl.org/dc/elements/1.1/"
   xmlns:cc="http://creativecommons.org/ns#"
   xmlns:rdf="http://www.w3.org/1999/02/22-rdf-syntax-ns#"
   xmlns:svg="http://www.w3.org/2000/svg"
   xmlns="http://www.w3.org/2000/svg"
   xmlns:sodipodi="http://sodipodi.sourceforge.net/DTD/sodipodi-0.dtd"
   xmlns:inkscape="http://www.inkscape.org/namespaces/inkscape"
   version="1.0"
   width="46"
   height="46"
   id="svg2"
   inkscape:version="0.47 r22583"
   sodipodi:docname="05-01-009-01-04-01.svg">
  <defs
     id="defs14">
    <inkscape:perspective
       sodipodi:type="inkscape:persp3d"
       inkscape:vp_x="0 : 5.5 : 1"
       inkscape:vp_y="0 : 1000 : 0"
       inkscape:vp_z="10 : 5.5 : 1"
       inkscape:persp3d-origin="5 : 3.6666667 : 1"
       id="perspective16" />
  </defs>
  <sodipodi:namedview
     pagecolor="#ffffff"
     bordercolor="#666666"
     borderopacity="1"
     objecttolerance="10"
     gridtolerance="10"
     guidetolerance="10"
     inkscape:pageopacity="0"
     inkscape:pageshadow="2"
     inkscape:window-width="917"
     inkscape:window-height="792"
     id="namedview12"
     showgrid="true"
     inkscape:zoom="11.826087"
     inkscape:cx="23"
     inkscape:cy="23"
     inkscape:window-x="313"
     inkscape:window-y="0"
     inkscape:window-maximized="0"
     inkscape:current-layer="svg2"
     showborder="true"
     inkscape:showpageshadow="true">
    <inkscape:grid
       type="xygrid"
       id="grid2822"
       empspacing="5"
       visible="true"
       enabled="true"
       snapvisiblegridlinesonly="true" />
  </sodipodi:namedview>
  <metadata
     id="metadata4">
Valerie Sutton's pixel definition of the
ISWA 2010 symbol ID 02-01-001-01-01-01
transformed by Stephen E Slevinski Jr
using line and fill polygon tracing
<rdf:RDF>
  <cc:Work
     rdf:about="">
    <dc:format>image/svg+xml</dc:format>
    <dc:type
       rdf:resource="http://purl.org/dc/dcmitype/StillImage" />
    <dc:title></dc:title>
  </cc:Work>
</rdf:RDF>
</metadata>
  <path
     style="fill:#000000;fill-opacity:1;stroke:none"
     d="M 28.5,11 C 18.835017,11 11,18.835017 11,28.5 11,38.164983 18.835017,46 28.5,46 38.164983,46 46,38.164983 46,28.5 46,18.835017 38.164983,11 28.5,11 z m 0,1.5 c 8.836556,0 16,7.163444 16,16 0,8.836556 -7.163444,16 -16,16 -8.836556,0 -16,-7.163444 -16,-16 0,-8.836556 7.163444,-16 16,-16 z"
     id="rect2952" />
  <path
     style="fill:#000000;fill-opacity:1;stroke:none"
     d="m 6.378679,5.8783883 c -1.171572,1.1715727 -1.171572,3.0710677 0,4.2426407 1.171573,1.171573 3.071068,1.171573 4.242641,0 1.171573,-1.171573 1.171573,-3.0710678 0,-4.2426407 -1.171573,-1.1715727 -3.071068,-1.1715727 -4.242641,0 z"
     id="path2815" />
  <path
     style="fill:#000000;fill-opacity:1;stroke:none"
     d="m 9.383883,9.944252 1.06066,-1.06066 4.949748,4.949748 -1.06066,1.06066 -4.949748,-4.949748 z"
     id="rect2817" />
  <path
     id="path3089"
     d="m 1.3786795,10.878389 c -1.17157267,1.171572 -1.17157267,3.071068 0,4.24264 1.1715728,1.171573 3.0710679,1.171573 4.2426409,0 1.171572,-1.171572 1.171573,-3.071068 0,-4.24264 -1.171573,-1.171573 -3.0710682,-1.171573 -4.2426409,0 z"
     style="fill:#000000;fill-opacity:1;stroke:none" />
  <path
     id="path3091"
     d="M 4.3838834,14.944253 5.4445434,13.883592 10.394291,18.83334 9.3336304,19.894 4.3838834,14.944253 z"
     style="fill:#000000;fill-opacity:1;stroke:none" />
  <path
     style="fill:#000000;fill-opacity:1;stroke:none"
     d="m 11.37868,0.8783881 c -1.171573,1.1715727 -1.171573,3.071068 0,4.2426407 1.171572,1.1715728 3.071068,1.1715726 4.24264,0 1.171573,-1.1715727 1.171573,-3.0710679 0,-4.2426407 -1.171572,-1.1715727 -3.071068,-1.1715727 -4.24264,0 z"
     id="path3460" />
  <path
     style="fill:#000000;fill-opacity:1;stroke:none"
     d="M 14.383883,4.9442521 15.444544,3.8835919 20.394291,8.833339 19.333631,9.894 14.383883,4.9442521 z"
     id="path3462" />
</svg>
