<?xml version="1.0" encoding="UTF-8" standalone="no"?>
<svg
   xmlns:dc="http://purl.org/dc/elements/1.1/"
   xmlns:cc="http://creativecommons.org/ns#"
   xmlns:rdf="http://www.w3.org/1999/02/22-rdf-syntax-ns#"
   xmlns:svg="http://www.w3.org/2000/svg"
   xmlns="http://www.w3.org/2000/svg"
   xmlns:sodipodi="http://sodipodi.sourceforge.net/DTD/sodipodi-0.dtd"
   xmlns:inkscape="http://www.inkscape.org/namespaces/inkscape"
   version="1.0"
   width="35"
   height="48"
   id="svg2"
   inkscape:version="0.47 r22583"
   sodipodi:docname="05-01-009-01-05-07.svg">
  <defs
     id="defs14">
    <inkscape:perspective
       sodipodi:type="inkscape:persp3d"
       inkscape:vp_x="0 : 5.5 : 1"
       inkscape:vp_y="0 : 1000 : 0"
       inkscape:vp_z="10 : 5.5 : 1"
       inkscape:persp3d-origin="5 : 3.6666667 : 1"
       id="perspective16" />
  </defs>
  <sodipodi:namedview
     pagecolor="#ffffff"
     bordercolor="#666666"
     borderopacity="1"
     objecttolerance="10"
     gridtolerance="10"
     guidetolerance="10"
     inkscape:pageopacity="0"
     inkscape:pageshadow="2"
     inkscape:window-width="917"
     inkscape:window-height="792"
     id="namedview12"
     showgrid="true"
     inkscape:zoom="11.333333"
     inkscape:cx="17.5"
     inkscape:cy="24"
     inkscape:window-x="313"
     inkscape:window-y="0"
     inkscape:window-maximized="0"
     inkscape:current-layer="svg2"
     showborder="true"
     inkscape:showpageshadow="true">
    <inkscape:grid
       type="xygrid"
       id="grid2822"
       empspacing="5"
       visible="true"
       enabled="true"
       snapvisiblegridlinesonly="true" />
  </sodipodi:namedview>
  <metadata
     id="metadata4">
Valerie Sutton's pixel definition of the
ISWA 2010 symbol ID 02-01-001-01-01-01
transformed by Stephen E Slevinski Jr
using line and fill polygon tracing
<rdf:RDF>
  <cc:Work
     rdf:about="">
    <dc:format>image/svg+xml</dc:format>
    <dc:type
       rdf:resource="http://purl.org/dc/dcmitype/StillImage" />
    <dc:title></dc:title>
  </cc:Work>
</rdf:RDF>
</metadata>
  <path
     style="fill:#000000;fill-opacity:1;stroke:none"
     d="M 9.125 15.15625 C 3.6952435 18.125865 0 23.874538 0 30.5 C 0 40.164983 7.8350169 48 17.5 48 C 27.164983 48 35 40.164983 35 30.5 C 35 23.874538 31.304756 18.125865 25.875 15.15625 L 25.15625 16.5 C 30.114574 19.216671 33.5 24.447564 33.5 30.5 C 33.5 39.336556 26.336556 46.5 17.5 46.5 C 8.663444 46.5 1.5 39.336556 1.5 30.5 C 1.5 24.447564 4.8854263 19.216671 9.84375 16.5 L 9.125 15.15625 z "
     id="rect2952" />
  <path
     style="fill:#000000;fill-opacity:1;stroke:none"
     d="m 23.5,10 c 0,-1.656854 -1.343146,-3 -3,-3 -1.656854,0 -3,1.343146 -3,3 0,1.656854 1.343146,3 3,3 1.656854,0 3,-1.343146 3,-3 z"
     id="path2815" />
  <path
     style="fill:#000000;fill-opacity:1;stroke:none"
     d="m 18.5,9.25 0,1.5 -7,0 0,-1.5 7,0 z"
     id="rect2817" />
  <path
     id="path3089"
     d="m 23.5,3 c 0,-1.656854 -1.343146,-3 -3,-3 -1.656854,0 -3,1.343146 -3,3 0,1.656854 1.343146,3 3,3 1.656854,0 3,-1.343146 3,-3 z"
     style="fill:#000000;fill-opacity:1;stroke:none" />
  <path
     id="path3091"
     d="m 18.5,2.25 0,1.5 -7,0 0,-1.5 7,0 z"
     style="fill:#000000;fill-opacity:1;stroke:none" />
  <path
     style="fill:#000000;fill-opacity:1;stroke:none"
     d="m 23.5,17 c 0,-1.656854 -1.343146,-3 -3,-3 -1.656854,0 -3,1.343146 -3,3 0,1.656854 1.343146,3 3,3 1.656854,0 3,-1.343146 3,-3 z"
     id="path3460" />
  <path
     style="fill:#000000;fill-opacity:1;stroke:none"
     d="m 18.5,16.25 0,1.5 -7,0 0,-1.5 7,0 z"
     id="path3462" />
</svg>
