<?xml version="1.0" encoding="UTF-8" standalone="no"?>
<svg
   xmlns:dc="http://purl.org/dc/elements/1.1/"
   xmlns:cc="http://creativecommons.org/ns#"
   xmlns:rdf="http://www.w3.org/1999/02/22-rdf-syntax-ns#"
   xmlns:svg="http://www.w3.org/2000/svg"
   xmlns="http://www.w3.org/2000/svg"
   xmlns:sodipodi="http://sodipodi.sourceforge.net/DTD/sodipodi-0.dtd"
   xmlns:inkscape="http://www.inkscape.org/namespaces/inkscape"
   version="1.0"
   width="39"
   height="48"
   id="svg2"
   inkscape:version="0.47 r22583"
   sodipodi:docname="05-01-009-01-04-08.svg">
  <defs
     id="defs14">
    <inkscape:perspective
       sodipodi:type="inkscape:persp3d"
       inkscape:vp_x="0 : 5.5 : 1"
       inkscape:vp_y="0 : 1000 : 0"
       inkscape:vp_z="10 : 5.5 : 1"
       inkscape:persp3d-origin="5 : 3.6666667 : 1"
       id="perspective16" />
  </defs>
  <sodipodi:namedview
     pagecolor="#ffffff"
     bordercolor="#666666"
     borderopacity="1"
     objecttolerance="10"
     gridtolerance="10"
     guidetolerance="10"
     inkscape:pageopacity="0"
     inkscape:pageshadow="2"
     inkscape:window-width="917"
     inkscape:window-height="792"
     id="namedview12"
     showgrid="true"
     inkscape:zoom="11.333333"
     inkscape:cx="19.5"
     inkscape:cy="24"
     inkscape:window-x="313"
     inkscape:window-y="0"
     inkscape:window-maximized="0"
     inkscape:current-layer="svg2"
     showborder="true"
     inkscape:showpageshadow="true">
    <inkscape:grid
       type="xygrid"
       id="grid2822"
       empspacing="5"
       visible="true"
       enabled="true"
       snapvisiblegridlinesonly="true" />
  </sodipodi:namedview>
  <metadata
     id="metadata4">
Valerie Sutton's pixel definition of the
ISWA 2010 symbol ID 02-01-001-01-01-01
transformed by Stephen E Slevinski Jr
using line and fill polygon tracing
<rdf:RDF>
  <cc:Work
     rdf:about="">
    <dc:format>image/svg+xml</dc:format>
    <dc:type
       rdf:resource="http://purl.org/dc/dcmitype/StillImage" />
    <dc:title></dc:title>
  </cc:Work>
</rdf:RDF>
</metadata>
  <path
     style="fill:#000000;fill-opacity:1;stroke:none"
     d="M 21.5,13 C 11.835017,13 4,20.835017 4,30.5 4,40.164983 11.835017,48 21.5,48 31.164983,48 39,40.164983 39,30.5 39,20.835017 31.164983,13 21.5,13 z m 0,1.5 c 8.836556,0 16,7.163444 16,16 0,8.836556 -7.163444,16 -16,16 -8.836556,0 -16,-7.163444 -16,-16 0,-8.836556 7.163444,-16 16,-16 z"
     id="rect2952" />
  <path
     style="fill:#000000;fill-opacity:1;stroke:none"
     d="m 17.621321,11.12132 c 1.171572,-1.1715714 1.171572,-3.0710664 0,-4.2426399 -1.171573,-1.1715729 -3.071068,-1.1715729 -4.242641,0 -1.171573,1.1715735 -1.171573,3.0710675 0,4.2426399 1.171573,1.171573 3.071068,1.171573 4.242641,0 z"
     id="path2815" />
  <path
     style="fill:#000000;fill-opacity:1;stroke:none"
     d="m 14.616117,7.0554571 -1.06066,1.0606604 -4.949748,-4.9497484 1.06066,-1.06066 4.949748,4.949748 z"
     id="rect2817" />
  <path
     id="path3089"
     d="m 25.621611,9.12132 c 1.171573,-1.171572 1.171573,-3.071068 0,-4.24264 -1.171572,-1.171573 -3.071067,-1.171573 -4.24264,0 -1.171572,1.171572 -1.171573,3.071068 0,4.24264 1.171573,1.171573 3.071068,1.171573 4.24264,0 z"
     style="fill:#000000;fill-opacity:1;stroke:none" />
  <path
     id="path3091"
     d="M 22.616408,5.055456 21.555748,6.116117 16.606,1.166369 17.666661,0.10570893 22.616408,5.055456 z"
     style="fill:#000000;fill-opacity:1;stroke:none" />
  <path
     style="fill:#000000;fill-opacity:1;stroke:none"
     d="m 9.621611,14.12132 c 1.171573,-1.171572 1.171573,-3.071068 0,-4.2426397 -1.171572,-1.171573 -3.071068,-1.171573 -4.24264,0 -1.171573,1.1715717 -1.171573,3.0710677 0,4.2426397 1.171572,1.171573 3.071068,1.171573 4.24264,0 z"
     id="path3460" />
  <path
     style="fill:#000000;fill-opacity:1;stroke:none"
     d="M 6.616408,10.055456 5.555747,11.116117 0.606,6.1663702 1.66666,5.1057092 6.616408,10.055456 z"
     id="path3462" />
</svg>
