<?xml version="1.0" encoding="UTF-8" standalone="no"?>
<svg
   xmlns:dc="http://purl.org/dc/elements/1.1/"
   xmlns:cc="http://creativecommons.org/ns#"
   xmlns:rdf="http://www.w3.org/1999/02/22-rdf-syntax-ns#"
   xmlns:svg="http://www.w3.org/2000/svg"
   xmlns="http://www.w3.org/2000/svg"
   xmlns:sodipodi="http://sodipodi.sourceforge.net/DTD/sodipodi-0.dtd"
   xmlns:inkscape="http://www.inkscape.org/namespaces/inkscape"
   version="1.0"
   width="28"
   height="32"
   id="svg2"
   inkscape:version="0.47 r22583"
   sodipodi:docname="02-05-018-01-03-12.svg">
  <defs
     id="defs16">
    <inkscape:perspective
       sodipodi:type="inkscape:persp3d"
       inkscape:vp_x="0 : 23 : 1"
       inkscape:vp_y="0 : 1000 : 0"
       inkscape:vp_z="36 : 23 : 1"
       inkscape:persp3d-origin="18 : 15.333333 : 1"
       id="perspective18" />
  </defs>
  <sodipodi:namedview
     pagecolor="#ffffff"
     bordercolor="#666666"
     borderopacity="1"
     objecttolerance="10"
     gridtolerance="10"
     guidetolerance="10"
     inkscape:pageopacity="0"
     inkscape:pageshadow="2"
     inkscape:window-width="964"
     inkscape:window-height="721"
     id="namedview14"
     showgrid="true"
     inkscape:zoom="14.78125"
     inkscape:cx="14"
     inkscape:cy="16"
     inkscape:window-x="365"
     inkscape:window-y="0"
     inkscape:window-maximized="0"
     inkscape:current-layer="svg2"
     showborder="true">
    <inkscape:grid
       type="xygrid"
       id="grid2824"
       empspacing="5"
       visible="true"
       enabled="true"
       snapvisiblegridlinesonly="true" />
  </sodipodi:namedview>
  <metadata
     id="metadata4">
Valerie Sutton's pixel definition of the
ISWA 2010 symbol ID 04-01-003-01-01-01
transformed by Stephen E Slevinski Jr
using line and fill polygon tracing
<rdf:RDF>
  <cc:Work
     rdf:about="">
    <dc:format>image/svg+xml</dc:format>
    <dc:type
       rdf:resource="http://purl.org/dc/dcmitype/StillImage" />
    <dc:title></dc:title>
  </cc:Work>
</rdf:RDF>
</metadata>
  <path
     style="fill:#000000;fill-opacity:1;stroke:none"
     d="M 18.100504,0 28,0 28,9.8994965 25.989165,7.888661 l 0,-5.877825 -5.877826,0 L 18.100504,0 z"
     id="path2966" />
  <path
     style="fill:#000000;fill-opacity:1;stroke:none"
     d="M 11,1 5.5,6.5 11,12 11,10.586346 6.913655,6.5 11,2.413655 11,1 z"
     id="path3018" />
  <path
     style="fill:#000000;fill-opacity:1;stroke:none"
     d="M 23.999999,17 C 23.999999,9.8202995 18.1797,4 11,4 l 0,1 c 6.627417,0 12,5.372583 11.999999,12 l 1e-6,2 1,0 -1e-6,-2 z"
     id="path3020" />
  <path
     style="fill:#000000;fill-opacity:1;stroke:none"
     d="M 22.627417,3.95837 1e-6,26.585786 1.414214,28 24.04163,5.372583 22.627417,3.95837 z"
     id="path2833" />
  <path
     style="fill:#ffffff;fill-opacity:1;stroke:none"
     d="M 22.999999,17 C 23,10.372583 17.627417,5 11,5 l 0,3.000002 c 4.970563,0 9,4.029436 9,8.999998 l 0,2 3,0 -1e-6,-2 z"
     id="path3025" />
  <path
     style="fill:#000000;fill-opacity:1;stroke:none"
     d="M 20,17 C 20,12.029438 15.970562,8.000001 11,8.000001 L 11,9 c 4.418278,0 8,3.581723 8,8 l 0,2 1.000001,0 L 20,17 z"
     id="path3069" />
  <path
     id="path3182"
     d="M 18,26 12.499999,31.5 7.000001,26 8.413655,26 12.499999,30.086345 16.586346,26 l 1.413655,0 z"
     style="fill:#000000;fill-opacity:1;stroke:none" />
  <path
     id="path3184"
     d="m 2.000001,13.000002 c 7.179701,0 13,5.820296 13,12.999999 l -1.000002,0 C 14.000001,19.372583 8.627418,14 2.000001,14 l -2,0 0,-1 2,2e-6 z"
     style="fill:#000000;fill-opacity:1;stroke:none" />
  <path
     id="path3186"
     d="m 2.000001,14.000001 c 6.627417,0 12,5.372582 11.999998,12 L 11,26 C 11,21.029437 6.970563,17 2.000001,17 l -2,0 0,-2.999998 2,0 z"
     style="fill:#ffffff;fill-opacity:1;stroke:none" />
  <path
     id="path3188"
     d="M 2.000001,17 C 6.970563,17 11,21.029437 11,26 l -1,1e-6 C 10,21.581721 6.418279,18 2.000001,18 l -2,0 L 0,17 2.000001,17 z"
     style="fill:#000000;fill-opacity:1;stroke:none" />
</svg>
