<?xml version="1.0" encoding="UTF-8" standalone="no"?>
<svg
   xmlns:dc="http://purl.org/dc/elements/1.1/"
   xmlns:cc="http://creativecommons.org/ns#"
   xmlns:rdf="http://www.w3.org/1999/02/22-rdf-syntax-ns#"
   xmlns:svg="http://www.w3.org/2000/svg"
   xmlns="http://www.w3.org/2000/svg"
   xmlns:sodipodi="http://sodipodi.sourceforge.net/DTD/sodipodi-0.dtd"
   xmlns:inkscape="http://www.inkscape.org/namespaces/inkscape"
   version="1.0"
   width="28"
   height="31"
   id="svg2"
   inkscape:version="0.47 r22583"
   sodipodi:docname="02-05-018-01-05-04.svg">
  <defs
     id="defs16">
    <inkscape:perspective
       sodipodi:type="inkscape:persp3d"
       inkscape:vp_x="0 : 23 : 1"
       inkscape:vp_y="0 : 1000 : 0"
       inkscape:vp_z="36 : 23 : 1"
       inkscape:persp3d-origin="18 : 15.333333 : 1"
       id="perspective18" />
  </defs>
  <sodipodi:namedview
     pagecolor="#ffffff"
     bordercolor="#666666"
     borderopacity="1"
     objecttolerance="10"
     gridtolerance="10"
     guidetolerance="10"
     inkscape:pageopacity="0"
     inkscape:pageshadow="2"
     inkscape:window-width="964"
     inkscape:window-height="721"
     id="namedview14"
     showgrid="true"
     inkscape:zoom="15.258065"
     inkscape:cx="14"
     inkscape:cy="15.5"
     inkscape:window-x="365"
     inkscape:window-y="0"
     inkscape:window-maximized="0"
     inkscape:current-layer="svg2"
     showborder="true">
    <inkscape:grid
       type="xygrid"
       id="grid2824"
       empspacing="5"
       visible="true"
       enabled="true"
       snapvisiblegridlinesonly="true" />
  </sodipodi:namedview>
  <metadata
     id="metadata4">
Valerie Sutton's pixel definition of the
ISWA 2010 symbol ID 04-01-003-01-01-01
transformed by Stephen E Slevinski Jr
using line and fill polygon tracing
<rdf:RDF>
  <cc:Work
     rdf:about="">
    <dc:format>image/svg+xml</dc:format>
    <dc:type
       rdf:resource="http://purl.org/dc/dcmitype/StillImage" />
    <dc:title></dc:title>
  </cc:Work>
</rdf:RDF>
</metadata>
  <path
     style="fill:#000000;fill-opacity:1;stroke:none"
     d="m 23,13 c -7.179702,0 -12.999999,5.820298 -12.999999,13 l 1,0 C 11,19.372583 16.372583,14 23,14.000001 L 25,14 l 0,-1 -2,0 z"
     id="path2910" />
  <path
     style="fill:#000000;fill-opacity:1;stroke:none"
     d="M 22.627417,27.041631 0,4.414214 1.414213,3 24.04163,25.627417 22.627417,27.041631 z"
     id="path2833" />
  <path
     style="fill:#ffffff;fill-opacity:1;stroke:none"
     d="M 23,14.000001 C 16.372583,14 11,19.372583 11.000001,26 l 3,-1e-6 C 14.000001,21.029436 18.029436,17 23,17 l 2,-1e-6 L 25,14 l -2,10e-7 z"
     id="path2918" />
  <path
     style="fill:#000000;fill-opacity:1;stroke:none"
     d="m 23,17 c -4.970564,0 -8.999999,4.029436 -8.999999,8.999999 l 1,1e-6 c 0,-4.418279 3.581721,-8 7.999999,-8 l 2,0 1e-6,-1.000001 L 23,17 z"
     id="path2923" />
  <path
     style="fill:#000000;fill-opacity:1;stroke:none"
     d="M 18,26 7,26 12.500001,31.5 18,26 z m -2.40763,0.993976 -3.092369,3.092369 -3.070282,-3.070281 6.162651,-0.02209 z"
     id="path2964" />
  <path
     style="fill:#000000;fill-opacity:1;stroke:none"
     d="M 18.100505,31 28,31 28,21.100505 18.100505,31 z m 2.430679,-1.016466 6.45235,-6.45235 0,6.45235 -6.45235,0 z"
     id="path2997" />
  <path
     style="fill:#ffffff;fill-opacity:1;stroke:none"
     d="m 20.531184,29.983534 6.45235,0 0,-6.45235 -6.45235,6.45235 z"
     id="path2966" />
  <path
     style="fill:#ffffff;fill-opacity:1;stroke:none"
     d="m 15.59237,26.993976 -6.162651,0.02209 3.070282,3.070281 3.092369,-3.092369 z"
     id="path2863" />
  <path
     id="path2995"
     d="m 1.000001,17 c 0,-7.179702 5.820298,-13 13,-13 l 0,1 C 7.372584,5 2,10.372583 2.000001,17 L 2,19 l -1,0 10e-7,-2 z"
     style="fill:#000000;fill-opacity:1;stroke:none" />
  <path
     id="path2998"
     d="M 2.000001,17 C 2,10.372583 7.372584,5 14.000001,5 L 14,8.000001 C 9.029437,8.000001 5.000001,12.029437 5.000001,17 L 5,19 l -3,0 1e-6,-2 z"
     style="fill:#ffffff;fill-opacity:1;stroke:none" />
  <path
     id="path3000"
     d="M 5.000001,17 C 5.000001,12.029437 9.029437,8.000001 14,8.000001 L 14.000001,9 C 9.581722,9 6,12.581722 6.000001,17 L 6,19 4.999999,19.000001 5.000001,17 z"
     style="fill:#000000;fill-opacity:1;stroke:none" />
  <path
     id="path3002"
     d="M 14,12 14,1 19.5,6.5 14,12 z M 14.993976,9.592369 18.086346,6.5 15.016064,3.429719 l -0.02209,6.16265 z"
     style="fill:#000000;fill-opacity:1;stroke:none" />
  <path
     id="path3004"
     d="M 14.993976,9.592369 15.016066,3.429719 18.086349,6.5 14.993979,9.592369 z"
     style="fill:#ffffff;fill-opacity:1;stroke:none" />
</svg>
