<?xml version="1.0" encoding="UTF-8" standalone="no"?>
<svg
   xmlns:dc="http://purl.org/dc/elements/1.1/"
   xmlns:cc="http://creativecommons.org/ns#"
   xmlns:rdf="http://www.w3.org/1999/02/22-rdf-syntax-ns#"
   xmlns:svg="http://www.w3.org/2000/svg"
   xmlns="http://www.w3.org/2000/svg"
   xmlns:sodipodi="http://sodipodi.sourceforge.net/DTD/sodipodi-0.dtd"
   xmlns:inkscape="http://www.inkscape.org/namespaces/inkscape"
   version="1.0"
   width="40"
   height="20"
   id="svg2"
   inkscape:version="0.47 r22583"
   sodipodi:docname="02-05-017-01-02-07.svg">
  <defs
     id="defs16">
    <inkscape:perspective
       sodipodi:type="inkscape:persp3d"
       inkscape:vp_x="0 : 23 : 1"
       inkscape:vp_y="0 : 1000 : 0"
       inkscape:vp_z="36 : 23 : 1"
       inkscape:persp3d-origin="18 : 15.333333 : 1"
       id="perspective18" />
  </defs>
  <sodipodi:namedview
     pagecolor="#ffffff"
     bordercolor="#666666"
     borderopacity="1"
     objecttolerance="10"
     gridtolerance="10"
     guidetolerance="10"
     inkscape:pageopacity="0"
     inkscape:pageshadow="2"
     inkscape:window-width="964"
     inkscape:window-height="721"
     id="namedview14"
     showgrid="true"
     inkscape:zoom="16.356068"
     inkscape:cx="19.997266"
     inkscape:cy="10.000255"
     inkscape:window-x="365"
     inkscape:window-y="0"
     inkscape:window-maximized="0"
     inkscape:current-layer="svg2"
     showborder="true">
    <inkscape:grid
       type="xygrid"
       id="grid2824"
       empspacing="5"
       visible="true"
       enabled="true"
       snapvisiblegridlinesonly="true" />
  </sodipodi:namedview>
  <metadata
     id="metadata4">
Valerie Sutton's pixel definition of the
ISWA 2010 symbol ID 04-01-003-01-01-01
transformed by Stephen E Slevinski Jr
using line and fill polygon tracing
<rdf:RDF>
  <cc:Work
     rdf:about="">
    <dc:format>image/svg+xml</dc:format>
    <dc:type
       rdf:resource="http://purl.org/dc/dcmitype/StillImage" />
    <dc:title></dc:title>
  </cc:Work>
</rdf:RDF>
</metadata>
  <path
     style="fill:#000000;fill-opacity:1;stroke:none"
     d="m 2,9 0,2 21,0 0,-2 -21,0 z m 24,0 0,2 7,0 0,-2 -7,0 z"
     id="path2833" />
  <path
     style="fill:#000000;fill-opacity:1;stroke:none"
     d="M 19,6 30,6 24.5,0.5 19,6 z M 21.407631,5.006024 24.5,1.913655 l 3.070281,3.070281 -6.16265,0.02209 z"
     id="path2964" />
  <path
     style="fill:#000000;fill-opacity:1;stroke:none"
     d="m 33,17 7,-7 -7,-7 0,14 z M 34,14.5625 34,5.4375 38.5625,10 34,14.5625 z"
     id="path2997" />
  <path
     style="fill:#ffffff;fill-opacity:1;stroke:none"
     d="M 34,14.5625 38.5625,10 34,5.4375 l 0,9.125 z"
     id="path2966" />
  <path
     style="fill:#ffffff;fill-opacity:1;stroke:none"
     d="m 21.407632,5.006024 6.16265,-0.02209 -3.070281,-3.070281 -3.092369,3.092369 z"
     id="path2863" />
  <path
     style="fill:#000000;fill-opacity:1;stroke:none"
     d="m 24,5 0,10 c 0,1.104569 -0.671573,2 -1.5,2 C 21.671573,17 21,16.104569 21,15 l 0,-1 -5,0 0,1 c 0,2.209139 2.014719,4 4.5,4 2.485281,0 4.5,-1.790861 4.5,-4 L 25,5 24,5 z"
     id="path2928" />
  <path
     id="path3233"
     d="M 0,17 11,17 5.5,11.5 0,17 z M 2.407631,16.006024 5.5,12.913655 l 3.070281,3.070281 -6.16265,0.02209 z"
     style="fill:#000000;fill-opacity:1;stroke:none" />
  <path
     id="path3235"
     d="m 2.407632,16.006024 6.16265,-0.02209 -3.070281,-3.070281 -3.092369,3.092369 z"
     style="fill:#ffffff;fill-opacity:1;stroke:none" />
  <path
     id="path3237"
     d="m 12,1 0,15 c 0,1.104569 -0.895431,2 -2,2 -1.104569,0 -2,-0.895431 -2,-2 l -5,0 c 0,2.209139 2.238576,4 5,4 2.761424,0 5,-1.790861 5,-4 L 13,1 12,1 z"
     style="fill:#000000;fill-opacity:1;stroke:none" />
</svg>
