<?xml version="1.0" encoding="UTF-8" standalone="no"?>
<svg
   xmlns:dc="http://purl.org/dc/elements/1.1/"
   xmlns:cc="http://creativecommons.org/ns#"
   xmlns:rdf="http://www.w3.org/1999/02/22-rdf-syntax-ns#"
   xmlns:svg="http://www.w3.org/2000/svg"
   xmlns="http://www.w3.org/2000/svg"
   xmlns:sodipodi="http://sodipodi.sourceforge.net/DTD/sodipodi-0.dtd"
   xmlns:inkscape="http://www.inkscape.org/namespaces/inkscape"
   version="1.0"
   width="32"
   height="28"
   id="svg2"
   inkscape:version="0.47 r22583"
   sodipodi:docname="02-05-018-01-02-10.svg">
  <defs
     id="defs16">
    <inkscape:perspective
       sodipodi:type="inkscape:persp3d"
       inkscape:vp_x="0 : 23 : 1"
       inkscape:vp_y="0 : 1000 : 0"
       inkscape:vp_z="36 : 23 : 1"
       inkscape:persp3d-origin="18 : 15.333333 : 1"
       id="perspective18" />
  </defs>
  <sodipodi:namedview
     pagecolor="#ffffff"
     bordercolor="#666666"
     borderopacity="1"
     objecttolerance="10"
     gridtolerance="10"
     guidetolerance="10"
     inkscape:pageopacity="0"
     inkscape:pageshadow="2"
     inkscape:window-width="964"
     inkscape:window-height="721"
     id="namedview14"
     showgrid="true"
     inkscape:zoom="16.892857"
     inkscape:cx="16"
     inkscape:cy="14"
     inkscape:window-x="365"
     inkscape:window-y="0"
     inkscape:window-maximized="0"
     inkscape:current-layer="svg2"
     showborder="true">
    <inkscape:grid
       type="xygrid"
       id="grid2824"
       empspacing="5"
       visible="true"
       enabled="true"
       snapvisiblegridlinesonly="true" />
  </sodipodi:namedview>
  <metadata
     id="metadata4">
Valerie Sutton's pixel definition of the
ISWA 2010 symbol ID 04-01-003-01-01-01
transformed by Stephen E Slevinski Jr
using line and fill polygon tracing
<rdf:RDF>
  <cc:Work
     rdf:about="">
    <dc:format>image/svg+xml</dc:format>
    <dc:type
       rdf:resource="http://purl.org/dc/dcmitype/StillImage" />
    <dc:title></dc:title>
  </cc:Work>
</rdf:RDF>
</metadata>
  <path
     style="fill:#000000;fill-opacity:1;stroke:none"
     d="m 17,4.000001 c -7.179702,0 -13,5.820298 -13,13 l 1,0 C 5,10.372584 10.372583,5 17,5.000001 L 19,5 l 0,-1 -2,1e-6 z"
     id="path2910" />
  <path
     style="fill:#000000;fill-opacity:1;stroke:none"
     d="M 3.958369,5.3725828 26.585786,28 28,26.585787 5.372583,3.9583698 3.958369,5.3725828 z"
     id="path2833" />
  <path
     style="fill:#ffffff;fill-opacity:1;stroke:none"
     d="M 17,5.000001 C 10.372583,5 5,10.372584 5,17.000001 L 8.000001,17 C 8.000001,12.029437 12.029437,8.000001 17,8.000001 L 19,8 l 0,-3 -2,1e-6 z"
     id="path2918" />
  <path
     style="fill:#000000;fill-opacity:1;stroke:none"
     d="M 17,8.000001 C 12.029437,8.000001 8.000001,12.029437 8.000001,17 L 9,17.000001 C 9,12.581722 12.581722,9 17,9.000001 L 19,9 l 0,-1.000001 -2,2e-6 z"
     id="path2923" />
  <path
     style="fill:#000000;fill-opacity:1;stroke:none"
     d="M 12,17 1,17 6.5,22.5 12,17 z M 9.592369,17.993975 6.5,21.086346 3.429718,18.016064 9.592369,17.993974 z"
     id="path2964" />
  <path
     style="fill:#000000;fill-opacity:1;stroke:none"
     d="M 0,9.8994948 0,0 9.899495,0 0,9.8994948 z m 1.016466,-2.430679 6.45235,-6.4523498 -6.45235,0 0,6.4523498 z"
     id="path2997" />
  <path
     style="fill:#ffffff;fill-opacity:1;stroke:none"
     d="m 1.016466,7.4688158 0,-6.4523498 6.45235,0 -6.45235,6.4523498 z"
     id="path2966" />
  <path
     style="fill:#ffffff;fill-opacity:1;stroke:none"
     d="M 9.592369,17.993975 3.429718,18.016065 6.5,21.086348 9.592369,17.993977 z"
     id="path2863" />
  <path
     id="path3274"
     d="m 13.000001,26 c 0,-7.179702 5.820298,-13 13,-13 l 0,1.000001 c -6.627417,-10e-7 -12,5.372582 -12,11.999999 l 0,2 L 13,28 l 10e-7,-2 z"
     style="fill:#000000;fill-opacity:1;stroke:none" />
  <path
     id="path3276"
     d="m 14.000001,26 c 0,-6.627417 5.372583,-12 12,-11.999999 l -1e-6,3 c -4.970563,0 -8.999999,4.029436 -8.999999,8.999999 l -1e-6,2 -2.999999,0 0,-2 z"
     style="fill:#ffffff;fill-opacity:1;stroke:none" />
  <path
     id="path3278"
     d="m 17.000001,26 c 0,-4.970563 4.029436,-8.999999 8.999999,-8.999999 l 1e-6,1 c -4.418279,0 -8,3.581721 -8,7.999999 l 0,2 L 17,28.000001 17.000001,26 z"
     style="fill:#000000;fill-opacity:1;stroke:none" />
  <path
     id="path3280"
     d="M 26,21 26,10 31.5,15.500001 26,21 z m 0.993976,-2.40763 3.092369,-3.092369 -3.070281,-3.070282 -0.02209,6.162651 z"
     style="fill:#000000;fill-opacity:1;stroke:none" />
  <path
     id="path3282"
     d="m 26.993976,18.59237 0.02209,-6.162651 3.070281,3.070282 -3.09237,3.092369 z"
     style="fill:#ffffff;fill-opacity:1;stroke:none" />
</svg>
