<?xml version="1.0" encoding="UTF-8" standalone="no"?>
<svg
   xmlns:dc="http://purl.org/dc/elements/1.1/"
   xmlns:cc="http://creativecommons.org/ns#"
   xmlns:rdf="http://www.w3.org/1999/02/22-rdf-syntax-ns#"
   xmlns:svg="http://www.w3.org/2000/svg"
   xmlns="http://www.w3.org/2000/svg"
   xmlns:sodipodi="http://sodipodi.sourceforge.net/DTD/sodipodi-0.dtd"
   xmlns:inkscape="http://www.inkscape.org/namespaces/inkscape"
   version="1.0"
   width="31"
   height="28"
   id="svg2"
   inkscape:version="0.47 r22583"
   sodipodi:docname="02-05-018-01-06-14.svg">
  <defs
     id="defs16">
    <inkscape:perspective
       sodipodi:type="inkscape:persp3d"
       inkscape:vp_x="0 : 23 : 1"
       inkscape:vp_y="0 : 1000 : 0"
       inkscape:vp_z="36 : 23 : 1"
       inkscape:persp3d-origin="18 : 15.333333 : 1"
       id="perspective18" />
  </defs>
  <sodipodi:namedview
     pagecolor="#ffffff"
     bordercolor="#666666"
     borderopacity="1"
     objecttolerance="10"
     gridtolerance="10"
     guidetolerance="10"
     inkscape:pageopacity="0"
     inkscape:pageshadow="2"
     inkscape:window-width="964"
     inkscape:window-height="721"
     id="namedview14"
     showgrid="true"
     inkscape:zoom="16.89115"
     inkscape:cx="15.50211"
     inkscape:cy="14.001906"
     inkscape:window-x="365"
     inkscape:window-y="0"
     inkscape:window-maximized="0"
     inkscape:current-layer="svg2"
     showborder="true">
    <inkscape:grid
       type="xygrid"
       id="grid2824"
       empspacing="5"
       visible="true"
       enabled="true"
       snapvisiblegridlinesonly="true" />
  </sodipodi:namedview>
  <metadata
     id="metadata4">
Valerie Sutton's pixel definition of the
ISWA 2010 symbol ID 04-01-003-01-01-01
transformed by Stephen E Slevinski Jr
using line and fill polygon tracing
<rdf:RDF>
  <cc:Work
     rdf:about="">
    <dc:format>image/svg+xml</dc:format>
    <dc:type
       rdf:resource="http://purl.org/dc/dcmitype/StillImage" />
    <dc:title></dc:title>
  </cc:Work>
</rdf:RDF>
</metadata>
  <path
     style="fill:#000000;fill-opacity:1;stroke:none"
     d="M 30,18.100505 30,28 l -9.899495,0 2.010835,-2.010835 5.877825,0 0,-5.877825 L 30,18.100505 z"
     id="path2966" />
  <path
     style="fill:#000000;fill-opacity:1;stroke:none"
     d="M 25,7 30.5,12.500001 25,18 25,16.586346 29.086345,12.500001 25,8.413655 25,7 z"
     id="path3018" />
  <path
     style="fill:#000000;fill-opacity:1;stroke:none"
     d="m 12,23 c 0,-7.179702 5.820298,-12.999999 13,-12.999999 l 0,1 C 18.372583,11 13,16.372583 13.000001,23 L 13,25 l -1,0 0,-2 z"
     id="path3020" />
  <path
     style="fill:#000000;fill-opacity:1;stroke:none"
     d="M 26.041631,22.627417 3.414214,0 2,1.414213 24.627417,24.04163 26.041631,22.627417 z"
     id="path2833" />
  <path
     style="fill:#ffffff;fill-opacity:1;stroke:none"
     d="M 13.000001,23 C 13,16.372583 18.372583,11 25,11.000001 l -1e-6,3 C 20.029436,14.000001 16,18.029436 16,23 l -10e-7,2 L 13,25 l 10e-7,-2 z"
     id="path3025" />
  <path
     style="fill:#000000;fill-opacity:1;stroke:none"
     d="m 16,23 c 0,-4.970564 4.029436,-8.999999 8.999999,-8.999999 l 1e-6,1 c -4.418279,0 -8,3.581721 -8,7.999999 l 0,2 -1.000001,1e-6 L 16,23 z"
     id="path3069" />
  <path
     id="path2882"
     d="M 0,14 5.5,19.5 11,14 9.586345,14 5.5,18.086346 1.413655,14 0,14 z"
     style="fill:#000000;fill-opacity:1;stroke:none" />
  <path
     id="path2884"
     d="m 16,1.000001 c -7.179702,0 -13,5.820298 -13,13 l 1,0 C 4,7.372584 9.372583,2 16,2.000001 L 18,2 l 0,-1 -2,10e-7 z"
     style="fill:#000000;fill-opacity:1;stroke:none" />
  <path
     id="path2886"
     d="M 16,2.000001 C 9.372583,2 4,7.372584 4,14.000001 L 7.000001,14 C 7.000001,9.029437 11.029437,5.000001 16,5.000001 L 18,5 l 0,-3 -2,1e-6 z"
     style="fill:#ffffff;fill-opacity:1;stroke:none" />
  <path
     id="path2888"
     d="M 16,5.000001 C 11.029437,5.000001 7.000001,9.029437 7.000001,14 L 8,14.000001 C 8,9.581722 11.581722,6 16,6.000001 L 18,6 18.000001,4.999999 16,5.000001 z"
     style="fill:#000000;fill-opacity:1;stroke:none" />
</svg>
