<?xml version="1.0" encoding="UTF-8" standalone="no"?>
<svg
   xmlns:dc="http://purl.org/dc/elements/1.1/"
   xmlns:cc="http://creativecommons.org/ns#"
   xmlns:rdf="http://www.w3.org/1999/02/22-rdf-syntax-ns#"
   xmlns:svg="http://www.w3.org/2000/svg"
   xmlns="http://www.w3.org/2000/svg"
   xmlns:sodipodi="http://sodipodi.sourceforge.net/DTD/sodipodi-0.dtd"
   xmlns:inkscape="http://www.inkscape.org/namespaces/inkscape"
   version="1.0"
   width="38"
   height="20"
   id="svg2"
   inkscape:version="0.47 r22583"
   sodipodi:docname="02-05-018-01-03-03.svg">
  <defs
     id="defs16">
    <inkscape:perspective
       sodipodi:type="inkscape:persp3d"
       inkscape:vp_x="0 : 23 : 1"
       inkscape:vp_y="0 : 1000 : 0"
       inkscape:vp_z="36 : 23 : 1"
       inkscape:persp3d-origin="18 : 15.333333 : 1"
       id="perspective18" />
  </defs>
  <sodipodi:namedview
     pagecolor="#ffffff"
     bordercolor="#666666"
     borderopacity="1"
     objecttolerance="10"
     gridtolerance="10"
     guidetolerance="10"
     inkscape:pageopacity="0"
     inkscape:pageshadow="2"
     inkscape:window-width="964"
     inkscape:window-height="721"
     id="namedview14"
     showgrid="true"
     inkscape:zoom="16.057498"
     inkscape:cx="18.997212"
     inkscape:cy="9.9985329"
     inkscape:window-x="365"
     inkscape:window-y="0"
     inkscape:window-maximized="0"
     inkscape:current-layer="svg2"
     showborder="true">
    <inkscape:grid
       type="xygrid"
       id="grid2824"
       empspacing="5"
       visible="true"
       enabled="true"
       snapvisiblegridlinesonly="true" />
  </sodipodi:namedview>
  <metadata
     id="metadata4">
Valerie Sutton's pixel definition of the
ISWA 2010 symbol ID 04-01-003-01-01-01
transformed by Stephen E Slevinski Jr
using line and fill polygon tracing
<rdf:RDF>
  <cc:Work
     rdf:about="">
    <dc:format>image/svg+xml</dc:format>
    <dc:type
       rdf:resource="http://purl.org/dc/dcmitype/StillImage" />
    <dc:title></dc:title>
  </cc:Work>
</rdf:RDF>
</metadata>
  <path
     style="fill:#000000;fill-opacity:1;stroke:none"
     d="m 31,9 0,2 -6,0 0,-2 6,0 z m -9,0 0,2 -9,0 0,-2 9,0 z M 10,9 10,11 0,11 0,9 10,9 z"
     id="path2833" />
  <path
     style="fill:#000000;fill-opacity:1;stroke:none"
     d="M 31,17 38,10 31,3 31,5.84375 35.15625,10 31,14.15625 31,17 z"
     id="path2966" />
  <path
     style="fill:#000000;fill-opacity:1;stroke:none"
     d="M 29,14 23.5,19.5 18,14 19.413655,14 23.5,18.086345 27.586345,14 29,14 z"
     id="path3018" />
  <path
     style="fill:#000000;fill-opacity:1;stroke:none"
     d="m 21,0 c 1.656854,0 3,1.3431458 3,3 l 0,8 c 0,1.004746 0.387264,1.898722 1,2.59375 L 25,15 22,15 22,13.59375 C 22.612736,12.898722 23,12.004746 23,11 L 23,3 C 23,1.8954305 22.104569,1 21,1 19.895431,1 19,1.8954305 19,3 l 0,4 -1,0 0,-4 c 0,-1.6568542 1.343146,-3 3,-3 z"
     id="path2847" />
  <path
     style="fill:#000000;fill-opacity:1;stroke:none"
     d="M 10,3 5.5,7.5 1,3 2.40625,3 5.5,6.09375 8.59375,3 10,3 z"
     id="path3375" />
  <path
     id="path3377"
     d="M 8.5,0 C 10.432997,0 12,1.3431458 12,3 l 0,8 c 0,4.418278 1.790861,8 4,8 l -4,0 -1,0 -4,0 c 2.209139,0 4,-3.581722 4,-8 L 11,3 C 11,1.8954305 9.880712,1 8.5,1 7.119288,1 6,1.8954305 6,3 L 5,3 C 5,1.3431458 6.567003,0 8.5,0 z"
     style="fill:#000000;fill-opacity:1;stroke:none" />
</svg>
