<?xml version="1.0" encoding="UTF-8" standalone="no"?>
<svg
   xmlns:dc="http://purl.org/dc/elements/1.1/"
   xmlns:cc="http://creativecommons.org/ns#"
   xmlns:rdf="http://www.w3.org/1999/02/22-rdf-syntax-ns#"
   xmlns:svg="http://www.w3.org/2000/svg"
   xmlns="http://www.w3.org/2000/svg"
   xmlns:sodipodi="http://sodipodi.sourceforge.net/DTD/sodipodi-0.dtd"
   xmlns:inkscape="http://www.inkscape.org/namespaces/inkscape"
   version="1.0"
   width="28"
   height="32"
   id="svg2"
   inkscape:version="0.47 r22583"
   sodipodi:docname="02-05-018-01-02-06.svg">
  <defs
     id="defs16">
    <inkscape:perspective
       sodipodi:type="inkscape:persp3d"
       inkscape:vp_x="0 : 23 : 1"
       inkscape:vp_y="0 : 1000 : 0"
       inkscape:vp_z="36 : 23 : 1"
       inkscape:persp3d-origin="18 : 15.333333 : 1"
       id="perspective18" />
  </defs>
  <sodipodi:namedview
     pagecolor="#ffffff"
     bordercolor="#666666"
     borderopacity="1"
     objecttolerance="10"
     gridtolerance="10"
     guidetolerance="10"
     inkscape:pageopacity="0"
     inkscape:pageshadow="2"
     inkscape:window-width="964"
     inkscape:window-height="721"
     id="namedview14"
     showgrid="true"
     inkscape:zoom="14.78125"
     inkscape:cx="14"
     inkscape:cy="16"
     inkscape:window-x="365"
     inkscape:window-y="0"
     inkscape:window-maximized="0"
     inkscape:current-layer="svg2"
     showborder="true">
    <inkscape:grid
       type="xygrid"
       id="grid2824"
       empspacing="5"
       visible="true"
       enabled="true"
       snapvisiblegridlinesonly="true" />
  </sodipodi:namedview>
  <metadata
     id="metadata4">
Valerie Sutton's pixel definition of the
ISWA 2010 symbol ID 04-01-003-01-01-01
transformed by Stephen E Slevinski Jr
using line and fill polygon tracing
<rdf:RDF>
  <cc:Work
     rdf:about="">
    <dc:format>image/svg+xml</dc:format>
    <dc:type
       rdf:resource="http://purl.org/dc/dcmitype/StillImage" />
    <dc:title></dc:title>
  </cc:Work>
</rdf:RDF>
</metadata>
  <path
     style="fill:#000000;fill-opacity:1;stroke:none"
     d="m 23.999998,17 c 0,-7.179702 -5.820298,-13 -12.999999,-13 l 0,1 c 6.627416,0 12,5.372583 11.999999,12 l 10e-7,2 1,0 -10e-7,-2 z"
     id="path2910" />
  <path
     style="fill:#000000;fill-opacity:1;stroke:none"
     d="M 22.627416,3.958369 -5e-7,26.585786 1.4142125,27.999999 24.041629,5.372583 22.627416,3.958369 z"
     id="path2833" />
  <path
     style="fill:#ffffff;fill-opacity:1;stroke:none"
     d="M 22.999998,17 C 22.999999,10.372583 17.627415,5 10.999999,5 L 11,8.000001 c 4.970562,0 8.999999,4.029436 8.999999,8.999999 l 1e-6,2 3,0 -1e-6,-2 z"
     id="path2918" />
  <path
     style="fill:#000000;fill-opacity:1;stroke:none"
     d="m 19.999998,17 c 0,-4.970563 -4.029436,-8.999999 -8.999999,-8.999999 l 0,0.999999 c 4.418278,0 8,3.581722 8,8 l 1e-6,2 1.000001,0 -2e-6,-2 z"
     id="path2923" />
  <path
     style="fill:#000000;fill-opacity:1;stroke:none"
     d="M 11,12 11,1 5.4999995,6.5 11,12 z M 10.006025,9.592369 6.9136535,6.5 9.983936,3.429718 l 0.02209,6.162651 z"
     id="path2964" />
  <path
     style="fill:#000000;fill-opacity:1;stroke:none"
     d="M 18.100504,0 28,0 27.999999,9.899495 18.100504,0 z m 2.43068,1.016466 6.452349,6.45235 0,-6.45235 -6.452349,0 z"
     id="path2997" />
  <path
     style="fill:#ffffff;fill-opacity:1;stroke:none"
     d="m 20.531184,1.016466 6.452349,0 0,6.45235 -6.452349,-6.45235 z"
     id="path2966" />
  <path
     style="fill:#ffffff;fill-opacity:1;stroke:none"
     d="M 10.006025,9.592369 9.983935,3.429718 6.9136515,6.5 10.006023,9.592369 z"
     id="path2863" />
  <path
     id="path3274"
     d="M 1.9999995,13.000001 C 9.179701,13.000001 14.999999,18.820299 14.999999,26 l -1,0 c 0,-6.627417 -5.372582,-11.999999 -11.9999995,-11.999999 l -2,0 0,-1.000001 2,10e-7 z"
     style="fill:#000000;fill-opacity:1;stroke:none" />
  <path
     id="path3276"
     d="M 1.9999995,14.000001 C 8.627417,14.000001 13.999999,19.372583 13.999999,26 l -3,0 c 0,-4.970563 -4.0294365,-9 -8.9999995,-9 l -2,-1e-6 0,-2.999998 2,0 z"
     style="fill:#ffffff;fill-opacity:1;stroke:none" />
  <path
     id="path3278"
     d="m 1.9999995,17 c 4.970563,0 8.9999995,4.029437 8.9999995,8.999999 l -1,1e-6 c 0,-4.418278 -3.5817215,-8 -7.9999995,-8 l -2,0 -1e-6,-1.000001 2.000001,1e-6 z"
     style="fill:#000000;fill-opacity:1;stroke:none" />
  <path
     id="path3280"
     d="m 6.9999995,25.999999 10.9999995,0 -5.5,5.5 -5.4999995,-5.5 z m 2.4076295,0.993976 3.09237,3.09237 3.070281,-3.070282 -6.162651,-0.02209 z"
     style="fill:#000000;fill-opacity:1;stroke:none" />
  <path
     id="path3282"
     d="m 9.407629,26.993975 6.162651,0.02209 -3.070281,3.070281 -3.09237,-3.09237 z"
     style="fill:#ffffff;fill-opacity:1;stroke:none" />
</svg>
