<?xml version="1.0" encoding="UTF-8" standalone="no"?>
<svg
   xmlns:dc="http://purl.org/dc/elements/1.1/"
   xmlns:cc="http://creativecommons.org/ns#"
   xmlns:rdf="http://www.w3.org/1999/02/22-rdf-syntax-ns#"
   xmlns:svg="http://www.w3.org/2000/svg"
   xmlns="http://www.w3.org/2000/svg"
   xmlns:sodipodi="http://sodipodi.sourceforge.net/DTD/sodipodi-0.dtd"
   xmlns:inkscape="http://www.inkscape.org/namespaces/inkscape"
   version="1.0"
   width="28"
   height="31"
   id="svg2"
   inkscape:version="0.47 r22583"
   sodipodi:docname="02-05-018-01-04-06.svg">
  <defs
     id="defs16">
    <inkscape:perspective
       sodipodi:type="inkscape:persp3d"
       inkscape:vp_x="0 : 23 : 1"
       inkscape:vp_y="0 : 1000 : 0"
       inkscape:vp_z="36 : 23 : 1"
       inkscape:persp3d-origin="18 : 15.333333 : 1"
       id="perspective18" />
  </defs>
  <sodipodi:namedview
     pagecolor="#ffffff"
     bordercolor="#666666"
     borderopacity="1"
     objecttolerance="10"
     gridtolerance="10"
     guidetolerance="10"
     inkscape:pageopacity="0"
     inkscape:pageshadow="2"
     inkscape:window-width="964"
     inkscape:window-height="721"
     id="namedview14"
     showgrid="true"
     inkscape:zoom="15.258065"
     inkscape:cx="14"
     inkscape:cy="15.5"
     inkscape:window-x="365"
     inkscape:window-y="0"
     inkscape:window-maximized="0"
     inkscape:current-layer="svg2"
     showborder="true">
    <inkscape:grid
       type="xygrid"
       id="grid2824"
       empspacing="5"
       visible="true"
       enabled="true"
       snapvisiblegridlinesonly="true" />
  </sodipodi:namedview>
  <metadata
     id="metadata4">
Valerie Sutton's pixel definition of the
ISWA 2010 symbol ID 04-01-003-01-01-01
transformed by Stephen E Slevinski Jr
using line and fill polygon tracing
<rdf:RDF>
  <cc:Work
     rdf:about="">
    <dc:format>image/svg+xml</dc:format>
    <dc:type
       rdf:resource="http://purl.org/dc/dcmitype/StillImage" />
    <dc:title></dc:title>
  </cc:Work>
</rdf:RDF>
</metadata>
  <path
     style="fill:#000000;fill-opacity:1;stroke:none"
     d="m 5,12 c 7.179703,0 13,5.820298 13,13 l -1,0 c 1e-6,-6.627418 -5.372582,-12 -12,-11.999999 L 3,13 3,12 5,12 z"
     id="path2910" />
  <path
     style="fill:#000000;fill-opacity:1;stroke:none"
     d="M 5.372583,26.04163 28,3.4142135 26.585786,1.9999995 3.95837,24.627417 5.372583,26.04163 z"
     id="path2831" />
  <path
     style="fill:#ffffff;fill-opacity:1;stroke:none"
     d="M 5,13.000001 C 11.627418,13 17.000001,18.372582 17,25 l -2.999999,-2e-6 C 14.000001,20.029436 9.9705635,16 5,16 L 3,15.999999 3,13 l 2,10e-7 z"
     id="path2918" />
  <path
     style="fill:#000000;fill-opacity:1;stroke:none"
     d="m 5,16 c 4.9705635,0 9.000001,4.029436 9.000001,8.999999 l -1,1e-6 C 13.000001,20.581721 9.4182785,17 5,17 l -2,0 -1e-6,-1.000001 L 5,16 z"
     id="path2923" />
  <path
     style="fill:#000000;fill-opacity:1;stroke:none"
     d="M 9.9999985,25 15.5,30.5 21,25 9.9999985,25 z"
     id="path2964" />
  <path
     style="fill:#000000;fill-opacity:1;stroke:none"
     d="M 0,20.100504 9.8994955,30 0,30 0,20.100504 z"
     id="path2966" />
  <path
     id="path3090"
     d="M 27,16 C 26.999998,8.8202975 21.179701,3.0000005 14,3.0000005 l 0,1 C 20.627416,3.9999995 26,9.372583 26,16 l 0,2 1,0 0,-2 z"
     style="fill:#000000;fill-opacity:1;stroke:none" />
  <path
     id="path3092"
     d="M 26,16 C 26,9.372583 20.627416,3.9999995 14,4.0000005 l 0,3 c 4.970562,0 9,4.0294355 9,8.9999995 l 0,2 3,0 0,-2 z"
     style="fill:#ffffff;fill-opacity:1;stroke:none" />
  <path
     id="path3094"
     d="M 23,16 C 23,11.029436 18.970562,7.0000005 14,7.0000005 l 0,1 c 4.418278,0 8,3.5817215 8,7.9999995 l 0,2 1.000001,1e-6 L 23,16 z"
     style="fill:#000000;fill-opacity:1;stroke:none" />
  <path
     id="path3096"
     d="m 14,11.000001 -5.5,-5.5000005 5.499999,-5.5 0,11.0000005 z"
     style="fill:#000000;fill-opacity:1;stroke:none" />
</svg>
