<?xml version="1.0" encoding="UTF-8" standalone="no"?>
<svg
   xmlns:dc="http://purl.org/dc/elements/1.1/"
   xmlns:cc="http://creativecommons.org/ns#"
   xmlns:rdf="http://www.w3.org/1999/02/22-rdf-syntax-ns#"
   xmlns:svg="http://www.w3.org/2000/svg"
   xmlns="http://www.w3.org/2000/svg"
   xmlns:sodipodi="http://sodipodi.sourceforge.net/DTD/sodipodi-0.dtd"
   xmlns:inkscape="http://www.inkscape.org/namespaces/inkscape"
   version="1.0"
   width="32"
   height="28"
   id="svg2"
   inkscape:version="0.47 r22583"
   sodipodi:docname="02-05-018-01-01-02.svg">
  <defs
     id="defs16">
    <inkscape:perspective
       sodipodi:type="inkscape:persp3d"
       inkscape:vp_x="0 : 23 : 1"
       inkscape:vp_y="0 : 1000 : 0"
       inkscape:vp_z="36 : 23 : 1"
       inkscape:persp3d-origin="18 : 15.333333 : 1"
       id="perspective18" />
  </defs>
  <sodipodi:namedview
     pagecolor="#ffffff"
     bordercolor="#666666"
     borderopacity="1"
     objecttolerance="10"
     gridtolerance="10"
     guidetolerance="10"
     inkscape:pageopacity="0"
     inkscape:pageshadow="2"
     inkscape:window-width="964"
     inkscape:window-height="721"
     id="namedview14"
     showgrid="true"
     inkscape:zoom="16.892857"
     inkscape:cx="16"
     inkscape:cy="14"
     inkscape:window-x="365"
     inkscape:window-y="0"
     inkscape:window-maximized="0"
     inkscape:current-layer="svg2"
     showborder="true">
    <inkscape:grid
       type="xygrid"
       id="grid2824"
       empspacing="5"
       visible="true"
       enabled="true"
       snapvisiblegridlinesonly="true" />
  </sodipodi:namedview>
  <metadata
     id="metadata4">
Valerie Sutton's pixel definition of the
ISWA 2010 symbol ID 04-01-003-01-01-01
transformed by Stephen E Slevinski Jr
using line and fill polygon tracing
<rdf:RDF>
  <cc:Work
     rdf:about="">
    <dc:format>image/svg+xml</dc:format>
    <dc:type
       rdf:resource="http://purl.org/dc/dcmitype/StillImage" />
    <dc:title></dc:title>
  </cc:Work>
</rdf:RDF>
</metadata>
  <path
     style="fill:#000000;fill-opacity:1;stroke:none"
     d="M 17,24 C 9.8202985,24 4,18.179702 4,11 l 1,0 c 0,6.627417 5.372584,12.000001 12,12 l 2,1e-6 0,1 L 17,24 z"
     id="path2910" />
  <path
     style="fill:#ffffff;fill-opacity:1;stroke:none"
     d="m 17,23 c -6.627416,1e-6 -12,-5.372583 -12,-12 l 3.000001,10e-7 C 8.000001,15.970564 12.029438,20 17,20 l 2,1e-6 0,3 L 17,23 z"
     id="path2918" />
  <path
     style="fill:#000000;fill-opacity:1;stroke:none"
     d="M 17,20 C 12.029438,20 8.000001,15.970564 8.000001,11.000001 L 9,11 c 0,4.418279 3.581723,8.000001 8,8 l 2,1e-6 0,1.000001 L 17,20 z"
     id="path2923" />
  <path
     style="fill:#000000;fill-opacity:1;stroke:none"
     d="M 12.000002,11 6.5,5.500001 1.000001,11 12.000002,11 z"
     id="path2964" />
  <path
     style="fill:#000000;fill-opacity:1;stroke:none"
     d="M 9.8994955,28.000001 0,18.100506 l 0,9.899495 9.8994955,0 z"
     id="path2966" />
  <path
     id="path3368"
     d="m 13.000002,2.000001 c 0,7.179702 5.820297,13 12.999999,13 l 0,-1.000001 c -6.627418,10e-7 -12,-5.372582 -12,-11.999999 l 0,-2 -1.000001,0 10e-7,2 z"
     style="fill:#000000;fill-opacity:1;stroke:none" />
  <path
     id="path3370"
     d="m 14.000002,2.000001 c 0,6.627417 5.372581,12 11.999999,11.999999 L 26,11 C 21.029437,11 17.000001,6.970564 17.000001,2.000001 l -1e-6,-2 -2.999999,0 0,2 z"
     style="fill:#ffffff;fill-opacity:1;stroke:none" />
  <path
     style="fill:#000000;fill-opacity:1;stroke:none"
     d="M 3.958369,22.627418 26.585786,10e-7 28,1.414214 5.372583,24.041631 3.958369,22.627418 z"
     id="path2831" />
  <path
     id="path3372"
     d="M 17,2.000001 C 17,6.970564 21.029436,11 26,11 l 0,-1 C 21.581721,10 18,6.418279 18,2.000001 l 0,-2 L 17,0 17,2.000001 z"
     style="fill:#000000;fill-opacity:1;stroke:none" />
  <path
     id="path3374"
     d="M 26.000001,6.999999 31.5,12.5 26.000001,18 l 0,-11.000001 z"
     style="fill:#000000;fill-opacity:1;stroke:none" />
</svg>
