<?xml version="1.0" encoding="UTF-8" standalone="no"?>
<svg
   xmlns:dc="http://purl.org/dc/elements/1.1/"
   xmlns:cc="http://creativecommons.org/ns#"
   xmlns:rdf="http://www.w3.org/1999/02/22-rdf-syntax-ns#"
   xmlns:svg="http://www.w3.org/2000/svg"
   xmlns="http://www.w3.org/2000/svg"
   xmlns:sodipodi="http://sodipodi.sourceforge.net/DTD/sodipodi-0.dtd"
   xmlns:inkscape="http://www.inkscape.org/namespaces/inkscape"
   version="1.0"
   width="38"
   height="20"
   id="svg2"
   inkscape:version="0.47 r22583"
   sodipodi:docname="02-05-018-01-05-07.svg">
  <defs
     id="defs16">
    <inkscape:perspective
       sodipodi:type="inkscape:persp3d"
       inkscape:vp_x="0 : 23 : 1"
       inkscape:vp_y="0 : 1000 : 0"
       inkscape:vp_z="36 : 23 : 1"
       inkscape:persp3d-origin="18 : 15.333333 : 1"
       id="perspective18" />
  </defs>
  <sodipodi:namedview
     pagecolor="#ffffff"
     bordercolor="#666666"
     borderopacity="1"
     objecttolerance="10"
     gridtolerance="10"
     guidetolerance="10"
     inkscape:pageopacity="0"
     inkscape:pageshadow="2"
     inkscape:window-width="964"
     inkscape:window-height="721"
     id="namedview14"
     showgrid="true"
     inkscape:zoom="16.057498"
     inkscape:cx="18.997212"
     inkscape:cy="9.9985329"
     inkscape:window-x="365"
     inkscape:window-y="0"
     inkscape:window-maximized="0"
     inkscape:current-layer="svg2"
     showborder="true">
    <inkscape:grid
       type="xygrid"
       id="grid2824"
       empspacing="5"
       visible="true"
       enabled="true"
       snapvisiblegridlinesonly="true" />
  </sodipodi:namedview>
  <metadata
     id="metadata4">
Valerie Sutton's pixel definition of the
ISWA 2010 symbol ID 04-01-003-01-01-01
transformed by Stephen E Slevinski Jr
using line and fill polygon tracing
<rdf:RDF>
  <cc:Work
     rdf:about="">
    <dc:format>image/svg+xml</dc:format>
    <dc:type
       rdf:resource="http://purl.org/dc/dcmitype/StillImage" />
    <dc:title></dc:title>
  </cc:Work>
</rdf:RDF>
</metadata>
  <path
     style="fill:#000000;fill-opacity:1;stroke:none"
     d="m 7,9 0,2 6,0 0,-2 -6,0 z m 9,0 0,2 9,0 0,-2 -9,0 z m 12,0 0,2 10,0 0,-2 -10,0 z"
     id="path2833" />
  <path
     style="fill:#000000;fill-opacity:1;stroke:none"
     d="M 32,14 21,14 26.5,19.5 32,14 z M 29.592369,14.993976 26.5,18.086345 l -3.070281,-3.070281 6.16265,-0.02209 z"
     id="path2964" />
  <path
     style="fill:#000000;fill-opacity:1;stroke:none"
     d="M 7,17 0,10 7,3 7,17 z M 6,14.5625 6,5.4375 1.4375,10 6,14.5625 z"
     id="path2997" />
  <path
     style="fill:#ffffff;fill-opacity:1;stroke:none"
     d="M 6,14.5625 1.4375,10 6,5.4375 l 0,9.125 z"
     id="path2966" />
  <path
     style="fill:#ffffff;fill-opacity:1;stroke:none"
     d="m 29.592369,14.993976 -6.16265,0.02209 3.070281,3.070281 3.092369,-3.092369 z"
     id="path2863" />
  <path
     style="fill:#000000;fill-opacity:1;stroke:none"
     d="m 29,0 c -1.656854,0 -3,1.3431458 -3,3 l 0,8 c 0,2.209139 -1.790861,4 -4,4 l 9,0 c -2.209139,0 -4,-1.790861 -4,-4 l 0,-8 c 0,-1.1045695 0.895431,-2 2,-2 1.104569,0 2,0.8954305 2,2 l 0,4 1,0 0,-4 C 32,1.3431458 30.656854,0 29,0 z"
     id="path2928" />
  <path
     style="fill:#000000;fill-opacity:1;stroke:none"
     d="M 16,3 20.5,7.5 25,3 16,3 z M 22.5625,4 20.5,6.09375 18.46875,4.03125 22.5625,4 z"
     id="path3382" />
  <path
     style="fill:#ffffff;fill-opacity:1;stroke:none"
     d="M 22.5625,4 18.46875,4.03125 20.5,6.09375 22.5625,4 z"
     id="path3384" />
  <path
     id="path3386"
     d="M 17.5,0 C 15.567003,0 14,1.3431458 14,3 l 0,8 c 0,4.418278 -1.790861,8 -4,8 l 4,0 1,0 4,0 c -2.209139,0 -4,-3.581722 -4,-8 L 15,3 C 15,1.8954305 16.119288,1 17.5,1 18.880712,1 20,1.8954305 20,3 l 1,0 C 21,1.3431458 19.432997,0 17.5,0 z"
     style="fill:#000000;fill-opacity:1;stroke:none" />
</svg>
