<?xml version="1.0" encoding="UTF-8" standalone="no"?>
<svg
   xmlns:dc="http://purl.org/dc/elements/1.1/"
   xmlns:cc="http://creativecommons.org/ns#"
   xmlns:rdf="http://www.w3.org/1999/02/22-rdf-syntax-ns#"
   xmlns:svg="http://www.w3.org/2000/svg"
   xmlns="http://www.w3.org/2000/svg"
   xmlns:sodipodi="http://sodipodi.sourceforge.net/DTD/sodipodi-0.dtd"
   xmlns:inkscape="http://www.inkscape.org/namespaces/inkscape"
   version="1.0"
   width="31"
   height="28"
   id="svg2"
   inkscape:version="0.47 r22583"
   sodipodi:docname="02-05-018-01-05-13.svg">
  <defs
     id="defs16">
    <inkscape:perspective
       sodipodi:type="inkscape:persp3d"
       inkscape:vp_x="0 : 23 : 1"
       inkscape:vp_y="0 : 1000 : 0"
       inkscape:vp_z="36 : 23 : 1"
       inkscape:persp3d-origin="18 : 15.333333 : 1"
       id="perspective18" />
  </defs>
  <sodipodi:namedview
     pagecolor="#ffffff"
     bordercolor="#666666"
     borderopacity="1"
     objecttolerance="10"
     gridtolerance="10"
     guidetolerance="10"
     inkscape:pageopacity="0"
     inkscape:pageshadow="2"
     inkscape:window-width="964"
     inkscape:window-height="721"
     id="namedview14"
     showgrid="true"
     inkscape:zoom="16.892857"
     inkscape:cx="15.5"
     inkscape:cy="14"
     inkscape:window-x="365"
     inkscape:window-y="0"
     inkscape:window-maximized="0"
     inkscape:current-layer="svg2"
     showborder="true">
    <inkscape:grid
       type="xygrid"
       id="grid2824"
       empspacing="5"
       visible="true"
       enabled="true"
       snapvisiblegridlinesonly="true" />
  </sodipodi:namedview>
  <metadata
     id="metadata4">
Valerie Sutton's pixel definition of the
ISWA 2010 symbol ID 04-01-003-01-01-01
transformed by Stephen E Slevinski Jr
using line and fill polygon tracing
<rdf:RDF>
  <cc:Work
     rdf:about="">
    <dc:format>image/svg+xml</dc:format>
    <dc:type
       rdf:resource="http://purl.org/dc/dcmitype/StillImage" />
    <dc:title></dc:title>
  </cc:Work>
</rdf:RDF>
</metadata>
  <path
     style="fill:#000000;fill-opacity:1;stroke:none"
     d="m 12,5.0000003 c 0,7.1797017 5.820298,12.9999987 13,12.9999987 l 0,-1 C 18.372583,17 13,11.627417 13.000001,5.0000003 L 13,3 12,3 12,5.0000003 z"
     id="path2910" />
  <path
     style="fill:#ffffff;fill-opacity:1;stroke:none"
     d="M 13.000001,5.0000003 C 13,11.627417 18.372583,17 25,16.999999 l -1e-6,-3 C 20.029436,13.999999 16,9.9705635 16,5.0000003 L 15.999999,3 13,3 l 10e-7,2.0000003 z"
     id="path2918" />
  <path
     style="fill:#000000;fill-opacity:1;stroke:none"
     d="m 16,5.0000003 c 0,4.9705632 4.029436,8.9999987 8.999999,8.9999987 l 1e-6,-1 c -4.418279,0 -8,-3.5817207 -8,-7.9999987 L 17,3 l -1.000001,-7e-7 10e-7,2.000001 z"
     id="path2923" />
  <path
     style="fill:#000000;fill-opacity:1;stroke:none"
     d="M 25,10 25,21 30.5,15.499999 25,10 z m 0.993976,2.40763 3.092369,3.092369 -3.070281,3.070282 -0.02209,-6.162651 z"
     id="path2964" />
  <path
     style="fill:#000000;fill-opacity:1;stroke:none"
     d="M 30,9.8994948 30,0 20.100505,0 30,9.8994948 z m -1.016466,-2.430679 -6.45235,-6.4523498 6.45235,0 0,6.4523498 z"
     id="path2997" />
  <path
     style="fill:#ffffff;fill-opacity:1;stroke:none"
     d="m 28.983534,7.4688158 0,-6.4523498 -6.45235,0 6.45235,6.4523498 z"
     id="path2966" />
  <path
     style="fill:#ffffff;fill-opacity:1;stroke:none"
     d="m 25.993976,12.40763 0.02209,6.162651 3.070281,-3.070282 -3.092369,-3.092369 z"
     id="path2863" />
  <path
     id="path2995"
     d="m 16,26.999999 c -7.179702,0 -12.9999998,-5.820298 -12.9999998,-13 l 1.0000003,0 C 3.9999998,20.627416 9.372583,26 16,25.999999 l 2,1e-6 0,1 -2,-1e-6 z"
     style="fill:#000000;fill-opacity:1;stroke:none" />
  <path
     id="path2998"
     d="M 16,25.999999 C 9.372583,26 3.9999998,20.627416 4.0000005,13.999999 L 7.0000007,14 c 0,4.970563 4.0294363,8.999999 8.9999993,8.999999 l 2,1e-6 0,3 -2,-1e-6 z"
     style="fill:#ffffff;fill-opacity:1;stroke:none" />
  <path
     style="fill:#000000;fill-opacity:1;stroke:none"
     d="M 26.041631,5.3725828 3.4142135,28 2,26.585787 24.627417,3.9583698 l 1.414214,1.414213 z"
     id="path2833" />
  <path
     id="path3000"
     d="M 16,22.999999 C 11.029437,22.999999 7.0000007,18.970563 7.0000007,14 l 0.9999996,-10e-7 c 0,4.418279 3.5817217,8.000001 7.9999997,8 l 2,1e-6 1e-6,1.000001 L 16,22.999999 z"
     style="fill:#000000;fill-opacity:1;stroke:none" />
  <path
     id="path3002"
     d="M 11,14 0,14 5.5,8.5 11,14 z M 8.5923694,13.006024 5.5,9.9136542 2.4297189,12.983936 l 6.1626505,0.02209 z"
     style="fill:#000000;fill-opacity:1;stroke:none" />
  <path
     id="path3004"
     d="M 8.5923694,13.006024 2.4297189,12.983933 5.5,9.9136512 8.5923694,13.006021 z"
     style="fill:#ffffff;fill-opacity:1;stroke:none" />
</svg>
