<?xml version="1.0" encoding="UTF-8" standalone="no"?>
<svg
   xmlns:dc="http://purl.org/dc/elements/1.1/"
   xmlns:cc="http://creativecommons.org/ns#"
   xmlns:rdf="http://www.w3.org/1999/02/22-rdf-syntax-ns#"
   xmlns:svg="http://www.w3.org/2000/svg"
   xmlns="http://www.w3.org/2000/svg"
   xmlns:sodipodi="http://sodipodi.sourceforge.net/DTD/sodipodi-0.dtd"
   xmlns:inkscape="http://www.inkscape.org/namespaces/inkscape"
   version="1.0"
   width="31"
   height="28"
   id="svg2"
   inkscape:version="0.47 r22583"
   sodipodi:docname="02-05-018-01-04-13.svg">
  <defs
     id="defs16">
    <inkscape:perspective
       sodipodi:type="inkscape:persp3d"
       inkscape:vp_x="0 : 23 : 1"
       inkscape:vp_y="0 : 1000 : 0"
       inkscape:vp_z="36 : 23 : 1"
       inkscape:persp3d-origin="18 : 15.333333 : 1"
       id="perspective18" />
  </defs>
  <sodipodi:namedview
     pagecolor="#ffffff"
     bordercolor="#666666"
     borderopacity="1"
     objecttolerance="10"
     gridtolerance="10"
     guidetolerance="10"
     inkscape:pageopacity="0"
     inkscape:pageshadow="2"
     inkscape:window-width="964"
     inkscape:window-height="721"
     id="namedview14"
     showgrid="true"
     inkscape:zoom="16.892857"
     inkscape:cx="15.5"
     inkscape:cy="14"
     inkscape:window-x="365"
     inkscape:window-y="0"
     inkscape:window-maximized="0"
     inkscape:current-layer="svg2"
     showborder="true">
    <inkscape:grid
       type="xygrid"
       id="grid2824"
       empspacing="5"
       visible="true"
       enabled="true"
       snapvisiblegridlinesonly="true" />
  </sodipodi:namedview>
  <metadata
     id="metadata4">
Valerie Sutton's pixel definition of the
ISWA 2010 symbol ID 04-01-003-01-01-01
transformed by Stephen E Slevinski Jr
using line and fill polygon tracing
<rdf:RDF>
  <cc:Work
     rdf:about="">
    <dc:format>image/svg+xml</dc:format>
    <dc:type
       rdf:resource="http://purl.org/dc/dcmitype/StillImage" />
    <dc:title></dc:title>
  </cc:Work>
</rdf:RDF>
</metadata>
  <path
     style="fill:#000000;fill-opacity:1;stroke:none"
     d="M 12,5.0000003 C 12,12.179703 17.820298,18 25,18 l 0,-1 c -6.627417,1e-6 -12,-5.372582 -11.999999,-11.9999997 L 13,3 12,3 12,5.0000003 z"
     id="path2910" />
  <path
     style="fill:#ffffff;fill-opacity:1;stroke:none"
     d="M 13.000001,5.0000003 C 13,11.627418 18.372583,17.000001 25,17 l -1e-6,-3 C 20.029436,14 16,9.9705635 16,5.0000003 L 15.999999,3 13,3 l 10e-7,2.0000003 z"
     id="path2918" />
  <path
     style="fill:#000000;fill-opacity:1;stroke:none"
     d="M 16,5.0000003 C 16,9.9705635 20.029436,14 24.999999,14 L 25,13 C 20.581721,13 17,9.4182783 17,5.0000003 L 17,3 l -1.000001,-7e-7 10e-7,2.000001 z"
     id="path2923" />
  <path
     style="fill:#000000;fill-opacity:1;stroke:none"
     d="M 25,9.9999985 30.5,15.5 25,21 25,9.9999985 z"
     id="path2964" />
  <path
     style="fill:#000000;fill-opacity:1;stroke:none"
     d="M 20.100505,0 30,9.8994948 30,0 20.100505,0 z"
     id="path2966" />
  <path
     id="path3090"
     d="m 16,26.999999 c -7.179702,0 -12.9999998,-5.820298 -12.9999998,-13 l 1.0000003,0 C 3.9999998,20.627416 9.372583,26 16,25.999999 l 2,1e-6 0,1 -2,-1e-6 z"
     style="fill:#000000;fill-opacity:1;stroke:none" />
  <path
     id="path3092"
     d="M 16,25.999999 C 9.372583,26 3.9999998,20.627416 4.0000005,13.999999 L 7.0000007,14 c 0,4.970563 4.0294363,8.999999 8.9999993,8.999999 l 2,1e-6 0,3 -2,-1e-6 z"
     style="fill:#ffffff;fill-opacity:1;stroke:none" />
  <path
     style="fill:#000000;fill-opacity:1;stroke:none"
     d="M 26.041631,5.3725828 3.4142135,28 2,26.585787 24.627417,3.9583698 l 1.414214,1.414213 z"
     id="path2831" />
  <path
     id="path3094"
     d="M 16,22.999999 C 11.029437,22.999999 7.0000007,18.970563 7.0000007,14 l 0.9999996,-10e-7 c 0,4.418279 3.5817217,8.000001 7.9999997,8 l 2,1e-6 1e-6,1.000001 L 16,22.999999 z"
     style="fill:#000000;fill-opacity:1;stroke:none" />
  <path
     id="path3096"
     d="M 11.000001,13.999999 5.5000003,8.4999998 7e-7,13.999999 l 11.0000003,0 z"
     style="fill:#000000;fill-opacity:1;stroke:none" />
</svg>
