<?xml version="1.0" encoding="UTF-8" standalone="no"?>
<svg
   xmlns:dc="http://purl.org/dc/elements/1.1/"
   xmlns:cc="http://creativecommons.org/ns#"
   xmlns:rdf="http://www.w3.org/1999/02/22-rdf-syntax-ns#"
   xmlns:svg="http://www.w3.org/2000/svg"
   xmlns="http://www.w3.org/2000/svg"
   xmlns:sodipodi="http://sodipodi.sourceforge.net/DTD/sodipodi-0.dtd"
   xmlns:inkscape="http://www.inkscape.org/namespaces/inkscape"
   version="1.0"
   width="28"
   height="32"
   id="svg2"
   inkscape:version="0.47 r22583"
   sodipodi:docname="02-05-018-01-02-16.svg">
  <defs
     id="defs16">
    <inkscape:perspective
       sodipodi:type="inkscape:persp3d"
       inkscape:vp_x="0 : 23 : 1"
       inkscape:vp_y="0 : 1000 : 0"
       inkscape:vp_z="36 : 23 : 1"
       inkscape:persp3d-origin="18 : 15.333333 : 1"
       id="perspective18" />
  </defs>
  <sodipodi:namedview
     pagecolor="#ffffff"
     bordercolor="#666666"
     borderopacity="1"
     objecttolerance="10"
     gridtolerance="10"
     guidetolerance="10"
     inkscape:pageopacity="0"
     inkscape:pageshadow="2"
     inkscape:window-width="964"
     inkscape:window-height="721"
     id="namedview14"
     showgrid="true"
     inkscape:zoom="14.78125"
     inkscape:cx="14"
     inkscape:cy="16"
     inkscape:window-x="365"
     inkscape:window-y="0"
     inkscape:window-maximized="0"
     inkscape:current-layer="svg2"
     showborder="true">
    <inkscape:grid
       type="xygrid"
       id="grid2824"
       empspacing="5"
       visible="true"
       enabled="true"
       snapvisiblegridlinesonly="true" />
  </sodipodi:namedview>
  <metadata
     id="metadata4">
Valerie Sutton's pixel definition of the
ISWA 2010 symbol ID 04-01-003-01-01-01
transformed by Stephen E Slevinski Jr
using line and fill polygon tracing
<rdf:RDF>
  <cc:Work
     rdf:about="">
    <dc:format>image/svg+xml</dc:format>
    <dc:type
       rdf:resource="http://purl.org/dc/dcmitype/StillImage" />
    <dc:title></dc:title>
  </cc:Work>
</rdf:RDF>
</metadata>
  <path
     style="fill:#000000;fill-opacity:1;stroke:none"
     d="m 4.000002,15 c 0,7.179702 5.820298,13 12.999999,13 l 0,-1 c -6.627415,0 -12,-5.372583 -11.999999,-12 l -1e-6,-2 -1,0 1e-6,2 z"
     id="path2910" />
  <path
     style="fill:#ffffff;fill-opacity:1;stroke:none"
     d="m 5.000002,15 c -1e-6,6.627417 5.372584,12 11.999999,12 L 17,23.999999 C 12.029438,23.999999 8.000001,19.970563 8.000001,15 L 8,13 l -3,0 1e-6,2 z"
     id="path2918" />
  <path
     style="fill:#000000;fill-opacity:1;stroke:none"
     d="m 8.000002,15 c 0,4.970563 4.029436,8.999999 8.999999,8.999999 l 0,-0.999999 c -4.418278,0 -8,-3.581722 -8,-8 L 9,13 l -1.000001,0 2e-6,2 z"
     id="path2923" />
  <path
     style="fill:#000000;fill-opacity:1;stroke:none"
     d="M 17,20 17,31 22.500001,25.5 17,20 z m 0.993975,2.407631 3.092371,3.092369 -3.070282,3.070282 -0.02209,-6.162651 z"
     id="path2964" />
  <path
     style="fill:#000000;fill-opacity:1;stroke:none"
     d="M 9.899496,32 0,32 1e-6,22.100505 9.899496,32 z m -2.43068,-1.016466 -6.452349,-6.45235 0,6.45235 6.452349,0 z"
     id="path2997" />
  <path
     style="fill:#ffffff;fill-opacity:1;stroke:none"
     d="m 7.468816,30.983534 -6.452349,0 0,-6.45235 6.452349,6.45235 z"
     id="path2966" />
  <path
     style="fill:#ffffff;fill-opacity:1;stroke:none"
     d="m 17.993975,22.407631 0.02209,6.162651 L 21.086348,25.5 17.993976,22.407631 z"
     id="path2863" />
  <path
     id="path3274"
     d="M 26,18.999999 C 18.820299,18.999999 13.000002,13.179701 13.000002,6 l 1,0 c 0,6.627417 5.37258,11.999999 11.999999,11.999999 l 2,0 0,1.000001 -2,-1e-6 z"
     style="fill:#000000;fill-opacity:1;stroke:none" />
  <path
     id="path3276"
     d="M 26,17.999999 C 19.372583,17.999999 14.000002,12.627417 14.000002,6 l 2.999999,0 c 0,4.970563 4.029436,9 9,9 l 2,10e-7 0,2.999998 -2,0 z"
     style="fill:#ffffff;fill-opacity:1;stroke:none" />
  <path
     style="fill:#000000;fill-opacity:1;stroke:none"
     d="M 5.372584,28.041631 28,5.414214 26.585787,4.000001 3.958371,26.627417 5.372584,28.041631 z"
     id="path2833" />
  <path
     id="path3278"
     d="m 26,15 c -4.970563,0 -8.999999,-4.029437 -8.999999,-8.999999 l 1,-1e-6 c 0,4.418278 3.581722,8 7.999999,8 l 2,0 1e-6,1.000001 L 26,15 z"
     style="fill:#000000;fill-opacity:1;stroke:none" />
  <path
     id="path3280"
     d="m 21,6.000001 -10.999999,0 5.500001,-5.5 5.499998,5.5 z m -2.40763,-0.993976 -3.092368,-3.09237 -3.070281,3.070282 6.16265,0.02209 z"
     style="fill:#000000;fill-opacity:1;stroke:none" />
  <path
     id="path3282"
     d="m 18.59237,5.006025 -6.162649,-0.02209 3.070281,-3.070281 3.092368,3.09237 z"
     style="fill:#ffffff;fill-opacity:1;stroke:none" />
</svg>
