<?xml version="1.0" encoding="UTF-8" standalone="no"?>
<svg
   xmlns:dc="http://purl.org/dc/elements/1.1/"
   xmlns:cc="http://creativecommons.org/ns#"
   xmlns:rdf="http://www.w3.org/1999/02/22-rdf-syntax-ns#"
   xmlns:svg="http://www.w3.org/2000/svg"
   xmlns="http://www.w3.org/2000/svg"
   xmlns:sodipodi="http://sodipodi.sourceforge.net/DTD/sodipodi-0.dtd"
   xmlns:inkscape="http://www.inkscape.org/namespaces/inkscape"
   version="1.0"
   width="38"
   height="20"
   id="svg2"
   inkscape:version="0.47 r22583"
   sodipodi:docname="02-05-018-01-04-15.svg">
  <defs
     id="defs16">
    <inkscape:perspective
       sodipodi:type="inkscape:persp3d"
       inkscape:vp_x="0 : 23 : 1"
       inkscape:vp_y="0 : 1000 : 0"
       inkscape:vp_z="36 : 23 : 1"
       inkscape:persp3d-origin="18 : 15.333333 : 1"
       id="perspective18" />
  </defs>
  <sodipodi:namedview
     pagecolor="#ffffff"
     bordercolor="#666666"
     borderopacity="1"
     objecttolerance="10"
     gridtolerance="10"
     guidetolerance="10"
     inkscape:pageopacity="0"
     inkscape:pageshadow="2"
     inkscape:window-width="964"
     inkscape:window-height="721"
     id="namedview14"
     showgrid="true"
     inkscape:zoom="16.057498"
     inkscape:cx="18.997212"
     inkscape:cy="9.9985329"
     inkscape:window-x="365"
     inkscape:window-y="0"
     inkscape:window-maximized="0"
     inkscape:current-layer="svg2"
     showborder="true">
    <inkscape:grid
       type="xygrid"
       id="grid2824"
       empspacing="5"
       visible="true"
       enabled="true"
       snapvisiblegridlinesonly="true" />
  </sodipodi:namedview>
  <metadata
     id="metadata4">
Valerie Sutton's pixel definition of the
ISWA 2010 symbol ID 04-01-003-01-01-01
transformed by Stephen E Slevinski Jr
using line and fill polygon tracing
<rdf:RDF>
  <cc:Work
     rdf:about="">
    <dc:format>image/svg+xml</dc:format>
    <dc:type
       rdf:resource="http://purl.org/dc/dcmitype/StillImage" />
    <dc:title></dc:title>
  </cc:Work>
</rdf:RDF>
</metadata>
  <path
     style="fill:#000000;fill-opacity:1;stroke:none"
     d="m 31,9 0,2 -6,0 0,-2 6,0 z m -9,0 0,2 -9,0 0,-2 9,0 z M 10,9 10,11 0,11 0,9 10,9 z"
     id="path2831" />
  <path
     style="fill:#000000;fill-opacity:1;stroke:none"
     d="m 9,0 c 1.656854,0 3,1.3431458 3,3 l 0,8 c 0,2.209139 1.790861,4 4,4 l -9,0 c 2.209139,0 4,-1.790861 4,-4 L 11,3 C 11,1.8954305 10.104569,1 9,1 7.895431,1 7,1.8954305 7,3 L 7,7 6,7 6,3 C 6,1.3431458 7.343146,0 9,0 z"
     id="path2910" />
  <path
     style="fill:#000000;fill-opacity:1;stroke:none"
     d="M 16,15 11.5,19.5 7,15 l 9,0 z"
     id="path2964" />
  <path
     style="fill:#000000;fill-opacity:1;stroke:none"
     d="m 31,3 0,14 7,-7 -7,-7 z"
     id="path2966" />
  <path
     id="path3391"
     d="M 20.5,0 C 22.432997,0 24,1.3431458 24,3 l 0,8 c 0,4.418278 1.790861,8 4,8 l -4,0 -1,0 -4,0 c 2.209139,0 4,-3.581722 4,-8 L 23,3 C 23,1.8954305 21.880712,1 20.5,1 19.119288,1 18,1.8954305 18,3 l -1,0 c 0,-1.6568542 1.567003,-3 3.5,-3 z"
     style="fill:#000000;fill-opacity:1;stroke:none" />
  <path
     id="path3393"
     d="M 14,3 17.5,6.5 21,3 14,3 z"
     style="fill:#000000;fill-opacity:1;stroke:none" />
</svg>
