<?xml version="1.0" encoding="UTF-8" standalone="no"?>
<svg
   xmlns:dc="http://purl.org/dc/elements/1.1/"
   xmlns:cc="http://creativecommons.org/ns#"
   xmlns:rdf="http://www.w3.org/1999/02/22-rdf-syntax-ns#"
   xmlns:svg="http://www.w3.org/2000/svg"
   xmlns="http://www.w3.org/2000/svg"
   xmlns:sodipodi="http://sodipodi.sourceforge.net/DTD/sodipodi-0.dtd"
   xmlns:inkscape="http://www.inkscape.org/namespaces/inkscape"
   version="1.0"
   width="28"
   height="32"
   id="svg2"
   inkscape:version="0.47 r22583"
   sodipodi:docname="02-05-018-01-03-06.svg">
  <defs
     id="defs16">
    <inkscape:perspective
       sodipodi:type="inkscape:persp3d"
       inkscape:vp_x="0 : 23 : 1"
       inkscape:vp_y="0 : 1000 : 0"
       inkscape:vp_z="36 : 23 : 1"
       inkscape:persp3d-origin="18 : 15.333333 : 1"
       id="perspective18" />
  </defs>
  <sodipodi:namedview
     pagecolor="#ffffff"
     bordercolor="#666666"
     borderopacity="1"
     objecttolerance="10"
     gridtolerance="10"
     guidetolerance="10"
     inkscape:pageopacity="0"
     inkscape:pageshadow="2"
     inkscape:window-width="964"
     inkscape:window-height="721"
     id="namedview14"
     showgrid="true"
     inkscape:zoom="14.78125"
     inkscape:cx="14"
     inkscape:cy="16"
     inkscape:window-x="365"
     inkscape:window-y="0"
     inkscape:window-maximized="0"
     inkscape:current-layer="svg2"
     showborder="true">
    <inkscape:grid
       type="xygrid"
       id="grid2824"
       empspacing="5"
       visible="true"
       enabled="true"
       snapvisiblegridlinesonly="true" />
  </sodipodi:namedview>
  <metadata
     id="metadata4">
Valerie Sutton's pixel definition of the
ISWA 2010 symbol ID 04-01-003-01-01-01
transformed by Stephen E Slevinski Jr
using line and fill polygon tracing
<rdf:RDF>
  <cc:Work
     rdf:about="">
    <dc:format>image/svg+xml</dc:format>
    <dc:type
       rdf:resource="http://purl.org/dc/dcmitype/StillImage" />
    <dc:title></dc:title>
  </cc:Work>
</rdf:RDF>
</metadata>
  <path
     style="fill:#000000;fill-opacity:1;stroke:none"
     d="M 9.8994955,32 0,32 l 0,-9.899496 2.010835,2.010835 0,5.877825 5.8778255,0 L 9.8994955,32 z"
     id="path2966" />
  <path
     style="fill:#000000;fill-opacity:1;stroke:none"
     d="M 17,31 22.5,25.5 17,20 17,21.413654 21.086345,25.5 17,29.586345 17,31 z"
     id="path3018" />
  <path
     style="fill:#000000;fill-opacity:1;stroke:none"
     d="m 4.000001,15 c 0,7.179701 5.8202985,13 12.999999,13 l 0,-1 C 10.372583,27 5,21.627417 5.000001,15 L 5,13 l -1,0 1e-6,2 z"
     id="path3020" />
  <path
     style="fill:#ffffff;fill-opacity:1;stroke:none"
     d="M 5.000001,15 C 5,21.627417 10.372583,27 17,27 l 0,-3.000002 C 12.029437,23.999998 8.0000005,19.970562 8.0000005,15 l -1e-6,-2 L 5,13 l 1e-6,2 z"
     id="path3025" />
  <path
     style="fill:#000000;fill-opacity:1;stroke:none"
     d="m 8.0000005,15 c 0,4.970562 4.0294375,8.999999 8.9999995,8.999999 L 17,23 C 12.581722,23 8.9999995,19.418278 9.0000005,15 l -1e-6,-2 -1.000001,0 2e-6,2 z"
     id="path3069" />
  <path
     id="path3182"
     d="m 9.9999995,5.9999995 5.5000015,-5.5 5.499998,5.5 -1.413654,0 -4.086344,-4.086345 -4.086347,4.086345 -1.4136545,0 z"
     style="fill:#000000;fill-opacity:1;stroke:none" />
  <path
     id="path3184"
     d="m 25.999999,18.999998 c -7.179701,0 -13,-5.820297 -13,-12.9999995 l 1.000002,0 c -2e-6,6.6274175 5.372581,12.0000005 11.999998,12.0000005 l 2,0 0,1.000001 -2,-2e-6 z"
     style="fill:#000000;fill-opacity:1;stroke:none" />
  <path
     id="path3186"
     d="m 25.999999,17.999999 c -6.627417,0 -12,-5.372583 -11.999998,-12.0000005 L 17,5.9999995 c 0,4.9705635 4.029437,8.9999995 8.999999,8.9999995 l 2,10e-7 0,2.999999 -2,0 z"
     style="fill:#ffffff;fill-opacity:1;stroke:none" />
  <path
     id="path3188"
     d="M 25.999999,14.999999 C 21.029437,14.999999 17,10.970563 17,5.9999995 l 1,-1e-6 c 0,4.4182795 3.581721,8.0000005 7.999999,8.0000005 l 2,0 L 28,15 l -2.000001,-10e-7 z"
     style="fill:#000000;fill-opacity:1;stroke:none" />
  <path
     style="fill:#000000;fill-opacity:1;stroke:none"
     d="M 5.372583,28.04163 27.999999,5.4142135 26.585786,3.9999995 3.95837,26.627417 5.372583,28.04163 z"
     id="path2833" />
</svg>
