<?xml version="1.0" encoding="UTF-8" standalone="no"?>
<svg
   xmlns:dc="http://purl.org/dc/elements/1.1/"
   xmlns:cc="http://creativecommons.org/ns#"
   xmlns:rdf="http://www.w3.org/1999/02/22-rdf-syntax-ns#"
   xmlns:svg="http://www.w3.org/2000/svg"
   xmlns="http://www.w3.org/2000/svg"
   xmlns:sodipodi="http://sodipodi.sourceforge.net/DTD/sodipodi-0.dtd"
   xmlns:inkscape="http://www.inkscape.org/namespaces/inkscape"
   version="1.0"
   width="28"
   height="32"
   id="svg2"
   inkscape:version="0.47 r22583"
   sodipodi:docname="02-05-018-01-02-08.svg">
  <defs
     id="defs16">
    <inkscape:perspective
       sodipodi:type="inkscape:persp3d"
       inkscape:vp_x="0 : 23 : 1"
       inkscape:vp_y="0 : 1000 : 0"
       inkscape:vp_z="36 : 23 : 1"
       inkscape:persp3d-origin="18 : 15.333333 : 1"
       id="perspective18" />
  </defs>
  <sodipodi:namedview
     pagecolor="#ffffff"
     bordercolor="#666666"
     borderopacity="1"
     objecttolerance="10"
     gridtolerance="10"
     guidetolerance="10"
     inkscape:pageopacity="0"
     inkscape:pageshadow="2"
     inkscape:window-width="964"
     inkscape:window-height="721"
     id="namedview14"
     showgrid="true"
     inkscape:zoom="14.78125"
     inkscape:cx="14"
     inkscape:cy="16"
     inkscape:window-x="365"
     inkscape:window-y="0"
     inkscape:window-maximized="0"
     inkscape:current-layer="svg2"
     showborder="true">
    <inkscape:grid
       type="xygrid"
       id="grid2824"
       empspacing="5"
       visible="true"
       enabled="true"
       snapvisiblegridlinesonly="true" />
  </sodipodi:namedview>
  <metadata
     id="metadata4">
Valerie Sutton's pixel definition of the
ISWA 2010 symbol ID 04-01-003-01-01-01
transformed by Stephen E Slevinski Jr
using line and fill polygon tracing
<rdf:RDF>
  <cc:Work
     rdf:about="">
    <dc:format>image/svg+xml</dc:format>
    <dc:type
       rdf:resource="http://purl.org/dc/dcmitype/StillImage" />
    <dc:title></dc:title>
  </cc:Work>
</rdf:RDF>
</metadata>
  <path
     style="fill:#000000;fill-opacity:1;stroke:none"
     d="M 4.0000005,17 C 4.0000005,9.820298 9.8202985,4 17,4 l 0,1 C 10.372584,5 4.9999995,10.372583 5.0000005,17 l -10e-7,2 -1,0 10e-7,-2 z"
     id="path2910" />
  <path
     style="fill:#000000;fill-opacity:1;stroke:none"
     d="M 5.3725825,3.958369 27.999999,26.585786 26.585786,27.999999 3.9583695,5.372583 5.3725825,3.958369 z"
     id="path2833" />
  <path
     style="fill:#ffffff;fill-opacity:1;stroke:none"
     d="M 5.0000005,17 C 4.9999995,10.372583 10.372584,5 17,5 l -2e-6,3.000001 c -4.970562,0 -8.9999985,4.029436 -8.9999985,8.999999 l -1e-6,2 -3,0 1e-6,-2 z"
     id="path2918" />
  <path
     style="fill:#000000;fill-opacity:1;stroke:none"
     d="M 8.0000005,17 C 8.0000005,12.029437 12.029436,8.000001 17,8.000001 L 17,9 c -4.418278,0 -8.0000005,3.581722 -8.0000005,8 l -10e-7,2 -1.000001,0 2e-6,-2 z"
     id="path2923" />
  <path
     style="fill:#000000;fill-opacity:1;stroke:none"
     d="m 16.999998,12 0,-11 5.500001,5.5 -5.500001,5.5 z M 17.993974,9.592369 21.086345,6.5 18.016062,3.429718 17.993972,9.592369 z"
     id="path2964" />
  <path
     style="fill:#000000;fill-opacity:1;stroke:none"
     d="M 9.8994945,0 -1.5e-6,0 -5e-7,9.899495 9.8994945,0 z m -2.43068,1.016466 -6.452349,6.45235 0,-6.45235 6.452349,0 z"
     id="path2997" />
  <path
     style="fill:#ffffff;fill-opacity:1;stroke:none"
     d="m 7.4688145,1.016466 -6.452349,0 0,6.45235 6.452349,-6.45235 z"
     id="path2966" />
  <path
     style="fill:#ffffff;fill-opacity:1;stroke:none"
     d="M 17.993974,9.592369 18.016064,3.429718 21.086347,6.5 17.993975,9.592369 z"
     id="path2863" />
  <path
     id="path3274"
     d="M 25.999999,13.000001 C 18.820298,13.000001 13,18.820299 13,26 l 1,0 c 0,-6.627417 5.372581,-11.999999 11.999999,-11.999999 l 2,0 0,-1.000001 -2,10e-7 z"
     style="fill:#000000;fill-opacity:1;stroke:none" />
  <path
     id="path3276"
     d="M 25.999999,14.000001 C 19.372582,14.000001 14,19.372583 14,26 l 3,0 c 0,-4.970563 4.029436,-9 8.999999,-9 l 2,-1e-6 0,-2.999998 -2,0 z"
     style="fill:#ffffff;fill-opacity:1;stroke:none" />
  <path
     id="path3278"
     d="M 25.999999,17 C 21.029436,17 17,21.029437 17,25.999999 L 18,26 c 0,-4.418278 3.581721,-8 7.999999,-8 l 2,0 L 28,16.999999 25.999999,17 z"
     style="fill:#000000;fill-opacity:1;stroke:none" />
  <path
     id="path3280"
     d="m 20.999999,25.999999 -10.9999995,0 5.5000005,5.5 5.499999,-5.5 z m -2.40763,0.993976 -3.092369,3.09237 -3.070281,-3.070282 6.162651,-0.02209 z"
     style="fill:#000000;fill-opacity:1;stroke:none" />
  <path
     id="path3282"
     d="m 18.592369,26.993975 -6.16265,0.02209 3.070281,3.070281 3.092369,-3.09237 z"
     style="fill:#ffffff;fill-opacity:1;stroke:none" />
</svg>
