<?xml version="1.0" encoding="UTF-8" standalone="no"?>
<svg
   xmlns:dc="http://purl.org/dc/elements/1.1/"
   xmlns:cc="http://creativecommons.org/ns#"
   xmlns:rdf="http://www.w3.org/1999/02/22-rdf-syntax-ns#"
   xmlns:svg="http://www.w3.org/2000/svg"
   xmlns="http://www.w3.org/2000/svg"
   xmlns:sodipodi="http://sodipodi.sourceforge.net/DTD/sodipodi-0.dtd"
   xmlns:inkscape="http://www.inkscape.org/namespaces/inkscape"
   version="1.0"
   width="28"
   height="31"
   id="svg2"
   inkscape:version="0.47 r22583"
   sodipodi:docname="02-05-018-01-04-04.svg">
  <defs
     id="defs16">
    <inkscape:perspective
       sodipodi:type="inkscape:persp3d"
       inkscape:vp_x="0 : 23 : 1"
       inkscape:vp_y="0 : 1000 : 0"
       inkscape:vp_z="36 : 23 : 1"
       inkscape:persp3d-origin="18 : 15.333333 : 1"
       id="perspective18" />
  </defs>
  <sodipodi:namedview
     pagecolor="#ffffff"
     bordercolor="#666666"
     borderopacity="1"
     objecttolerance="10"
     gridtolerance="10"
     guidetolerance="10"
     inkscape:pageopacity="0"
     inkscape:pageshadow="2"
     inkscape:window-width="964"
     inkscape:window-height="721"
     id="namedview14"
     showgrid="true"
     inkscape:zoom="15.258065"
     inkscape:cx="14"
     inkscape:cy="15.5"
     inkscape:window-x="365"
     inkscape:window-y="0"
     inkscape:window-maximized="0"
     inkscape:current-layer="svg2"
     showborder="true">
    <inkscape:grid
       type="xygrid"
       id="grid2824"
       empspacing="5"
       visible="true"
       enabled="true"
       snapvisiblegridlinesonly="true" />
  </sodipodi:namedview>
  <metadata
     id="metadata4">
Valerie Sutton's pixel definition of the
ISWA 2010 symbol ID 04-01-003-01-01-01
transformed by Stephen E Slevinski Jr
using line and fill polygon tracing
<rdf:RDF>
  <cc:Work
     rdf:about="">
    <dc:format>image/svg+xml</dc:format>
    <dc:type
       rdf:resource="http://purl.org/dc/dcmitype/StillImage" />
    <dc:title></dc:title>
  </cc:Work>
</rdf:RDF>
</metadata>
  <path
     style="fill:#000000;fill-opacity:1;stroke:none"
     d="m 23,12 c -7.179703,0 -13,5.820298 -13,13 l 1,0 c -10e-7,-6.627418 5.372582,-12 12,-11.999999 L 25,13 l 0,-1 -2,0 z"
     id="path2910" />
  <path
     style="fill:#000000;fill-opacity:1;stroke:none"
     d="M 22.627417,26.04163 0,3.4142135 1.414214,1.9999995 24.04163,24.627417 22.627417,26.04163 z"
     id="path2831" />
  <path
     style="fill:#ffffff;fill-opacity:1;stroke:none"
     d="M 23,13.000001 C 16.372582,13 10.999999,18.372582 11,25 l 2.999999,-2e-6 C 13.999999,20.029436 18.029436,16 23,16 l 2,-10e-7 L 25,13 l -2,10e-7 z"
     id="path2918" />
  <path
     style="fill:#000000;fill-opacity:1;stroke:none"
     d="m 23,16 c -4.970564,0 -9.000001,4.029436 -9.000001,8.999999 l 1,1e-6 c 0,-4.418279 3.581722,-8 8.000001,-8 l 2,0 1e-6,-1.000001 L 23,16 z"
     id="path2923" />
  <path
     style="fill:#000000;fill-opacity:1;stroke:none"
     d="M 18.000001,25 12.5,30.5 7,25 18.000001,25 z"
     id="path2964" />
  <path
     style="fill:#000000;fill-opacity:1;stroke:none"
     d="M 28,20.100504 18.100504,30 28,30 28,20.100504 z"
     id="path2966" />
  <path
     id="path3090"
     d="M 1,16 C 1.000002,8.8202975 6.820299,3.0000005 14,3.0000005 l 0,1 C 7.372584,3.9999995 2,9.372583 2,16 l 0,2 -1,0 0,-2 z"
     style="fill:#000000;fill-opacity:1;stroke:none" />
  <path
     id="path3092"
     d="M 2,16 C 2,9.372583 7.372584,3.9999995 14,4.0000005 l 0,3 C 9.029438,7.0000005 5,11.029436 5,16 l 0,2 -3,0 0,-2 z"
     style="fill:#ffffff;fill-opacity:1;stroke:none" />
  <path
     id="path3094"
     d="M 5,16 C 5,11.029436 9.029438,7.0000005 14,7.0000005 l 0,1 C 9.581722,8.0000005 6,11.581722 6,16 l 0,2 -1.000001,1e-6 L 5,16 z"
     style="fill:#000000;fill-opacity:1;stroke:none" />
  <path
     id="path3096"
     d="m 14,11.000001 5.5,-5.5000005 -5.499999,-5.5 0,11.0000005 z"
     style="fill:#000000;fill-opacity:1;stroke:none" />
</svg>
