<?xml version="1.0" encoding="UTF-8" standalone="no"?>
<svg
   xmlns:dc="http://purl.org/dc/elements/1.1/"
   xmlns:cc="http://creativecommons.org/ns#"
   xmlns:rdf="http://www.w3.org/1999/02/22-rdf-syntax-ns#"
   xmlns:svg="http://www.w3.org/2000/svg"
   xmlns="http://www.w3.org/2000/svg"
   xmlns:sodipodi="http://sodipodi.sourceforge.net/DTD/sodipodi-0.dtd"
   xmlns:inkscape="http://www.inkscape.org/namespaces/inkscape"
   version="1.0"
   width="31"
   height="28"
   id="svg2"
   inkscape:version="0.47 r22583"
   sodipodi:docname="02-05-018-01-05-02.svg">
  <defs
     id="defs16">
    <inkscape:perspective
       sodipodi:type="inkscape:persp3d"
       inkscape:vp_x="0 : 23 : 1"
       inkscape:vp_y="0 : 1000 : 0"
       inkscape:vp_z="36 : 23 : 1"
       inkscape:persp3d-origin="18 : 15.333333 : 1"
       id="perspective18" />
  </defs>
  <sodipodi:namedview
     pagecolor="#ffffff"
     bordercolor="#666666"
     borderopacity="1"
     objecttolerance="10"
     gridtolerance="10"
     guidetolerance="10"
     inkscape:pageopacity="0"
     inkscape:pageshadow="2"
     inkscape:window-width="964"
     inkscape:window-height="721"
     id="namedview14"
     showgrid="true"
     inkscape:zoom="16.892857"
     inkscape:cx="15.5"
     inkscape:cy="14"
     inkscape:window-x="365"
     inkscape:window-y="0"
     inkscape:window-maximized="0"
     inkscape:current-layer="svg2"
     showborder="true">
    <inkscape:grid
       type="xygrid"
       id="grid2824"
       empspacing="5"
       visible="true"
       enabled="true"
       snapvisiblegridlinesonly="true" />
  </sodipodi:namedview>
  <metadata
     id="metadata4">
Valerie Sutton's pixel definition of the
ISWA 2010 symbol ID 04-01-003-01-01-01
transformed by Stephen E Slevinski Jr
using line and fill polygon tracing
<rdf:RDF>
  <cc:Work
     rdf:about="">
    <dc:format>image/svg+xml</dc:format>
    <dc:type
       rdf:resource="http://purl.org/dc/dcmitype/StillImage" />
    <dc:title></dc:title>
  </cc:Work>
</rdf:RDF>
</metadata>
  <path
     style="fill:#000000;fill-opacity:1;stroke:none"
     d="M 19,23 C 19,15.820298 13.179702,10.000001 6,10.000001 l 0,1 C 12.627417,11 18,16.372583 17.999999,23 l 1e-6,2 1,0 0,-2 z"
     id="path2910" />
  <path
     style="fill:#000000;fill-opacity:1;stroke:none"
     d="M 4.958369,22.627417 27.585786,0 29,1.414213 6.372583,24.04163 4.958369,22.627417 z"
     id="path2833" />
  <path
     style="fill:#ffffff;fill-opacity:1;stroke:none"
     d="M 17.999999,23 C 18,16.372583 12.627417,11 6,11.000001 l 1e-6,3 C 10.970564,14.000001 15,18.029436 15,23 l 10e-7,2 L 18,25 l -1e-6,-2 z"
     id="path2918" />
  <path
     style="fill:#000000;fill-opacity:1;stroke:none"
     d="m 15,23 c 0,-4.970564 -4.029436,-8.999999 -8.999999,-8.999999 l -1e-6,1 c 4.418279,0 8,3.581721 8,7.999999 l 0,2 1.000001,1e-6 L 15,23 z"
     id="path2923" />
  <path
     style="fill:#000000;fill-opacity:1;stroke:none"
     d="M 6,18 6,7 0.5,12.500001 6,18 z M 5.006024,15.59237 1.913655,12.500001 4.983936,9.429719 5.006026,15.59237 z"
     id="path2964" />
  <path
     style="fill:#000000;fill-opacity:1;stroke:none"
     d="M 1,18.100505 1,28 10.899495,28 1,18.100505 z m 1.016466,2.430679 6.45235,6.45235 -6.45235,0 0,-6.45235 z"
     id="path2997" />
  <path
     style="fill:#ffffff;fill-opacity:1;stroke:none"
     d="m 2.016466,20.531184 0,6.45235 6.45235,0 -6.45235,-6.45235 z"
     id="path2966" />
  <path
     style="fill:#ffffff;fill-opacity:1;stroke:none"
     d="M 5.006024,15.59237 4.983934,9.429719 1.913653,12.500001 5.006022,15.59237 z"
     id="path2863" />
  <path
     id="path2995"
     d="m 15,1.000001 c 7.179702,0 13,5.820298 13,13 l -1,0 C 27,7.372584 21.627417,2 15,2.000001 L 13,2 l 0,-1 2,10e-7 z"
     style="fill:#000000;fill-opacity:1;stroke:none" />
  <path
     id="path2998"
     d="m 15,2.000001 c 6.627417,-1e-6 12,5.372583 12,12 L 23.999999,14 C 23.999999,9.029437 19.970563,5.000001 15,5.000001 L 13,5 l 0,-3 2,1e-6 z"
     style="fill:#ffffff;fill-opacity:1;stroke:none" />
  <path
     id="path3000"
     d="m 15,5.000001 c 4.970563,0 8.999999,4.029436 8.999999,8.999999 L 23,14.000001 C 23,9.581722 19.418278,6 15,6.000001 L 13,6 12.999999,4.999999 15,5.000001 z"
     style="fill:#000000;fill-opacity:1;stroke:none" />
  <path
     id="path3002"
     d="M 20,14 31,14 25.5,19.5 20,14 z m 2.407631,0.993976 3.092369,3.09237 3.070281,-3.070282 -6.16265,-0.02209 z"
     style="fill:#000000;fill-opacity:1;stroke:none" />
  <path
     id="path3004"
     d="m 22.407631,14.993976 6.16265,0.02209 L 25.5,18.086349 22.407631,14.993979 z"
     style="fill:#ffffff;fill-opacity:1;stroke:none" />
</svg>
