<?xml version="1.0" encoding="UTF-8" standalone="no"?>
<svg
   xmlns:dc="http://purl.org/dc/elements/1.1/"
   xmlns:cc="http://creativecommons.org/ns#"
   xmlns:rdf="http://www.w3.org/1999/02/22-rdf-syntax-ns#"
   xmlns:svg="http://www.w3.org/2000/svg"
   xmlns="http://www.w3.org/2000/svg"
   xmlns:sodipodi="http://sodipodi.sourceforge.net/DTD/sodipodi-0.dtd"
   xmlns:inkscape="http://www.inkscape.org/namespaces/inkscape"
   version="1.0"
   width="28"
   height="31"
   id="svg2"
   inkscape:version="0.47 r22583"
   sodipodi:docname="02-05-018-01-06-04.svg">
  <defs
     id="defs16">
    <inkscape:perspective
       sodipodi:type="inkscape:persp3d"
       inkscape:vp_x="0 : 23 : 1"
       inkscape:vp_y="0 : 1000 : 0"
       inkscape:vp_z="36 : 23 : 1"
       inkscape:persp3d-origin="18 : 15.333333 : 1"
       id="perspective18" />
  </defs>
  <sodipodi:namedview
     pagecolor="#ffffff"
     bordercolor="#666666"
     borderopacity="1"
     objecttolerance="10"
     gridtolerance="10"
     guidetolerance="10"
     inkscape:pageopacity="0"
     inkscape:pageshadow="2"
     inkscape:window-width="964"
     inkscape:window-height="721"
     id="namedview14"
     showgrid="true"
     inkscape:zoom="15.258065"
     inkscape:cx="14"
     inkscape:cy="15.5"
     inkscape:window-x="365"
     inkscape:window-y="0"
     inkscape:window-maximized="0"
     inkscape:current-layer="svg2"
     showborder="true">
    <inkscape:grid
       type="xygrid"
       id="grid2824"
       empspacing="5"
       visible="true"
       enabled="true"
       snapvisiblegridlinesonly="true" />
  </sodipodi:namedview>
  <metadata
     id="metadata4">
Valerie Sutton's pixel definition of the
ISWA 2010 symbol ID 04-01-003-01-01-01
transformed by Stephen E Slevinski Jr
using line and fill polygon tracing
<rdf:RDF>
  <cc:Work
     rdf:about="">
    <dc:format>image/svg+xml</dc:format>
    <dc:type
       rdf:resource="http://purl.org/dc/dcmitype/StillImage" />
    <dc:title></dc:title>
  </cc:Work>
</rdf:RDF>
</metadata>
  <path
     style="fill:#000000;fill-opacity:1;stroke:none"
     d="M 18.100505,30 28,30 l 0,-9.899495 -2.010835,2.010835 0,5.877825 -5.877825,0 L 18.100505,30 z"
     id="path2966" />
  <path
     style="fill:#000000;fill-opacity:1;stroke:none"
     d="M 7,25 12.500001,30.5 18,25 16.586346,25 12.500001,29.086345 8.413655,25 7,25 z"
     id="path3018" />
  <path
     style="fill:#000000;fill-opacity:1;stroke:none"
     d="m 23,12 c -7.179702,0 -12.999999,5.820298 -12.999999,13 l 1,0 C 11,18.372583 16.372583,13 23,13.000001 L 25,13 l 0,-1 -2,0 z"
     id="path3020" />
  <path
     style="fill:#000000;fill-opacity:1;stroke:none"
     d="M 22.627417,26.041631 0,3.414214 1.414213,2 24.04163,24.627417 22.627417,26.041631 z"
     id="path2833" />
  <path
     style="fill:#ffffff;fill-opacity:1;stroke:none"
     d="M 23,13.000001 C 16.372583,13 11,18.372583 11.000001,25 l 3,-1e-6 C 14.000001,20.029436 18.029436,16 23,16 l 2,-10e-7 L 25,13 l -2,10e-7 z"
     id="path3025" />
  <path
     style="fill:#000000;fill-opacity:1;stroke:none"
     d="m 23,16 c -4.970564,0 -8.999999,4.029436 -8.999999,8.999999 l 1,1e-6 c 0,-4.418279 3.581721,-8 7.999999,-8 l 2,0 1e-6,-1.000001 L 23,16 z"
     id="path3069" />
  <path
     id="path2882"
     d="M 14,0 19.5,5.5 14,11 14,9.586345 18.086346,5.5 14,1.413655 14,0 z"
     style="fill:#000000;fill-opacity:1;stroke:none" />
  <path
     id="path2884"
     d="m 1.000001,16 c 0,-7.179702 5.820298,-13 13,-13 l 0,1 C 7.372584,4 2,9.372583 2.000001,16 L 2,18 l -1,0 10e-7,-2 z"
     style="fill:#000000;fill-opacity:1;stroke:none" />
  <path
     id="path2886"
     d="M 2.000001,16 C 2,9.372583 7.372584,4 14.000001,4 L 14,7.000001 C 9.029437,7.000001 5.000001,11.029437 5.000001,16 L 5,18 l -3,0 1e-6,-2 z"
     style="fill:#ffffff;fill-opacity:1;stroke:none" />
  <path
     id="path2888"
     d="M 5.000001,16 C 5.000001,11.029437 9.029437,7.000001 14,7.000001 L 14.000001,8 C 9.581722,8 6,11.581722 6.000001,16 L 6,18 4.999999,18.000001 5.000001,16 z"
     style="fill:#000000;fill-opacity:1;stroke:none" />
</svg>
