<?xml version="1.0" encoding="UTF-8" standalone="no"?>
<svg
   xmlns:dc="http://purl.org/dc/elements/1.1/"
   xmlns:cc="http://creativecommons.org/ns#"
   xmlns:rdf="http://www.w3.org/1999/02/22-rdf-syntax-ns#"
   xmlns:svg="http://www.w3.org/2000/svg"
   xmlns="http://www.w3.org/2000/svg"
   xmlns:sodipodi="http://sodipodi.sourceforge.net/DTD/sodipodi-0.dtd"
   xmlns:inkscape="http://www.inkscape.org/namespaces/inkscape"
   version="1.0"
   width="28"
   height="32"
   id="svg2"
   inkscape:version="0.47 r22583"
   sodipodi:docname="02-05-018-01-01-08.svg">
  <defs
     id="defs16">
    <inkscape:perspective
       sodipodi:type="inkscape:persp3d"
       inkscape:vp_x="0 : 23 : 1"
       inkscape:vp_y="0 : 1000 : 0"
       inkscape:vp_z="36 : 23 : 1"
       inkscape:persp3d-origin="18 : 15.333333 : 1"
       id="perspective18" />
  </defs>
  <sodipodi:namedview
     pagecolor="#ffffff"
     bordercolor="#666666"
     borderopacity="1"
     objecttolerance="10"
     gridtolerance="10"
     guidetolerance="10"
     inkscape:pageopacity="0"
     inkscape:pageshadow="2"
     inkscape:window-width="964"
     inkscape:window-height="721"
     id="namedview14"
     showgrid="true"
     inkscape:zoom="14.78125"
     inkscape:cx="14"
     inkscape:cy="16"
     inkscape:window-x="365"
     inkscape:window-y="0"
     inkscape:window-maximized="0"
     inkscape:current-layer="svg2"
     showborder="true">
    <inkscape:grid
       type="xygrid"
       id="grid2824"
       empspacing="5"
       visible="true"
       enabled="true"
       snapvisiblegridlinesonly="true" />
  </sodipodi:namedview>
  <metadata
     id="metadata4">
Valerie Sutton's pixel definition of the
ISWA 2010 symbol ID 04-01-003-01-01-01
transformed by Stephen E Slevinski Jr
using line and fill polygon tracing
<rdf:RDF>
  <cc:Work
     rdf:about="">
    <dc:format>image/svg+xml</dc:format>
    <dc:type
       rdf:resource="http://purl.org/dc/dcmitype/StillImage" />
    <dc:title></dc:title>
  </cc:Work>
</rdf:RDF>
</metadata>
  <path
     style="fill:#000000;fill-opacity:1;stroke:none"
     d="M 4.0000005,17 C 4.0000005,9.820299 9.8202985,4 17,4 l 0,1 C 10.372584,5 4.9999995,10.372584 5.0000005,17 l -10e-7,2 -1,0 10e-7,-2 z"
     id="path2910" />
  <path
     style="fill:#000000;fill-opacity:1;stroke:none"
     d="M 5.3725825,3.958369 27.999999,26.585785 26.585786,27.999999 3.9583695,5.372583 5.3725825,3.958369 z"
     id="path2831" />
  <path
     style="fill:#ffffff;fill-opacity:1;stroke:none"
     d="M 5.0000005,17 C 4.9999995,10.372584 10.372584,5 17,5 l -2e-6,3.000001 c -4.970562,0 -8.9999985,4.029436 -8.9999985,8.999999 l -1e-6,2 -3,0 1e-6,-2 z"
     id="path2918" />
  <path
     style="fill:#000000;fill-opacity:1;stroke:none"
     d="M 8.0000005,17 C 8.0000005,12.029437 12.029436,8.000001 17,8.000001 L 17,9 c -4.418278,0 -8.0000005,3.581723 -8.0000005,8 l -10e-7,2 -1.000001,0 2e-6,-2 z"
     id="path2923" />
  <path
     style="fill:#000000;fill-opacity:1;stroke:none"
     d="M 17,12.000001 22.499999,6.5 17,1.000001 17,12.000002 z"
     id="path2964" />
  <path
     style="fill:#000000;fill-opacity:1;stroke:none"
     d="M -5e-7,9.899496 9.8994945,0 -1.5e-6,0 -5e-7,9.899496 z"
     id="path2966" />
  <path
     id="path3368"
     d="M 25.999999,13.000001 C 18.820298,13.000001 13,18.820298 13,26 l 1,0 c 0,-6.627418 5.372581,-12 11.999999,-12 l 2,0 0,-1 -2,0 z"
     style="fill:#000000;fill-opacity:1;stroke:none" />
  <path
     id="path3370"
     d="M 25.999999,14.000001 C 19.372582,14.000001 14,19.372582 14,26 l 3,-1e-6 C 17,21.029436 21.029436,17 25.999999,17 l 2,0 0,-3 -2,0 z"
     style="fill:#ffffff;fill-opacity:1;stroke:none" />
  <path
     id="path3372"
     d="M 25.999999,17 C 21.029436,17 17,21.029435 17,26 l 1,0 c 0,-4.418279 3.581721,-8 7.999999,-8 l 2,0 1e-6,-1 -2.000001,0 z"
     style="fill:#000000;fill-opacity:1;stroke:none" />
  <path
     id="path3374"
     d="M 21.000001,26 15.5,31.499999 9.9999995,26 21.000001,26 z"
     style="fill:#000000;fill-opacity:1;stroke:none" />
</svg>
