<?xml version="1.0" encoding="UTF-8" standalone="no"?>
<svg
   xmlns:dc="http://purl.org/dc/elements/1.1/"
   xmlns:cc="http://creativecommons.org/ns#"
   xmlns:rdf="http://www.w3.org/1999/02/22-rdf-syntax-ns#"
   xmlns:svg="http://www.w3.org/2000/svg"
   xmlns="http://www.w3.org/2000/svg"
   xmlns:sodipodi="http://sodipodi.sourceforge.net/DTD/sodipodi-0.dtd"
   xmlns:inkscape="http://www.inkscape.org/namespaces/inkscape"
   version="1.0"
   width="28"
   height="31"
   id="svg2"
   inkscape:version="0.47 r22583"
   sodipodi:docname="02-05-018-01-05-06.svg">
  <defs
     id="defs16">
    <inkscape:perspective
       sodipodi:type="inkscape:persp3d"
       inkscape:vp_x="0 : 23 : 1"
       inkscape:vp_y="0 : 1000 : 0"
       inkscape:vp_z="36 : 23 : 1"
       inkscape:persp3d-origin="18 : 15.333333 : 1"
       id="perspective18" />
  </defs>
  <sodipodi:namedview
     pagecolor="#ffffff"
     bordercolor="#666666"
     borderopacity="1"
     objecttolerance="10"
     gridtolerance="10"
     guidetolerance="10"
     inkscape:pageopacity="0"
     inkscape:pageshadow="2"
     inkscape:window-width="964"
     inkscape:window-height="721"
     id="namedview14"
     showgrid="true"
     inkscape:zoom="15.258065"
     inkscape:cx="14"
     inkscape:cy="15.5"
     inkscape:window-x="365"
     inkscape:window-y="0"
     inkscape:window-maximized="0"
     inkscape:current-layer="svg2"
     showborder="true">
    <inkscape:grid
       type="xygrid"
       id="grid2824"
       empspacing="5"
       visible="true"
       enabled="true"
       snapvisiblegridlinesonly="true" />
  </sodipodi:namedview>
  <metadata
     id="metadata4">
Valerie Sutton's pixel definition of the
ISWA 2010 symbol ID 04-01-003-01-01-01
transformed by Stephen E Slevinski Jr
using line and fill polygon tracing
<rdf:RDF>
  <cc:Work
     rdf:about="">
    <dc:format>image/svg+xml</dc:format>
    <dc:type
       rdf:resource="http://purl.org/dc/dcmitype/StillImage" />
    <dc:title></dc:title>
  </cc:Work>
</rdf:RDF>
</metadata>
  <path
     style="fill:#000000;fill-opacity:1;stroke:none"
     d="m 5,13 c 7.179702,0 12.999999,5.820298 12.999999,13 l -1,0 C 17,19.372583 11.627417,14 5,14.000001 L 3,14 3,13 5,13 z"
     id="path2910" />
  <path
     style="fill:#000000;fill-opacity:1;stroke:none"
     d="M 5.372583,27.041631 28,4.414214 26.585787,3 3.95837,25.627417 5.372583,27.041631 z"
     id="path2833" />
  <path
     style="fill:#ffffff;fill-opacity:1;stroke:none"
     d="M 5,14.000001 C 11.627417,14 17,19.372583 16.999999,26 l -3,-1e-6 C 13.999999,21.029436 9.970564,17 5,17 l -2,-1e-6 L 3,14 l 2,10e-7 z"
     id="path2918" />
  <path
     style="fill:#000000;fill-opacity:1;stroke:none"
     d="m 5,17 c 4.970564,0 8.999999,4.029436 8.999999,8.999999 l -1,1e-6 C 12.999999,21.581721 9.418278,18 5,18 l -2,0 -1e-6,-1.000001 L 5,17 z"
     id="path2923" />
  <path
     style="fill:#000000;fill-opacity:1;stroke:none"
     d="M 10,26 21,26 15.499999,31.5 10,26 z m 2.40763,0.993976 3.092369,3.092369 3.070282,-3.070281 -6.162651,-0.02209 z"
     id="path2964" />
  <path
     style="fill:#000000;fill-opacity:1;stroke:none"
     d="M 9.899495,31 0,31 0,21.100505 9.899495,31 z m -2.430679,-1.016466 -6.45235,-6.45235 0,6.45235 6.45235,0 z"
     id="path2997" />
  <path
     style="fill:#ffffff;fill-opacity:1;stroke:none"
     d="m 7.468816,29.983534 -6.45235,0 0,-6.45235 6.45235,6.45235 z"
     id="path2966" />
  <path
     style="fill:#ffffff;fill-opacity:1;stroke:none"
     d="m 12.40763,26.993976 6.162651,0.02209 -3.070282,3.070281 -3.092369,-3.092369 z"
     id="path2863" />
  <path
     id="path2995"
     d="m 26.999999,17 c 0,-7.179702 -5.820298,-13 -13,-13 l 0,1 c 6.627417,0 12.000001,5.372583 12,12 l 1e-6,2 1,0 -1e-6,-2 z"
     style="fill:#000000;fill-opacity:1;stroke:none" />
  <path
     id="path2998"
     d="M 25.999999,17 C 26,10.372583 20.627416,5 13.999999,5 L 14,8.000001 c 4.970563,0 8.999999,4.029436 8.999999,8.999999 l 1e-6,2 3,0 -1e-6,-2 z"
     style="fill:#ffffff;fill-opacity:1;stroke:none" />
  <path
     id="path3000"
     d="M 22.999999,17 C 22.999999,12.029437 18.970563,8.000001 14,8.000001 L 13.999999,9 c 4.418279,0 8.000001,3.581722 8,8 l 1e-6,2 1.000001,1e-6 L 22.999999,17 z"
     style="fill:#000000;fill-opacity:1;stroke:none" />
  <path
     id="path3002"
     d="M 14,12 14,1 8.5,6.5 14,12 z M 13.006024,9.592369 9.913654,6.5 l 3.070282,-3.070281 0.02209,6.16265 z"
     style="fill:#000000;fill-opacity:1;stroke:none" />
  <path
     id="path3004"
     d="M 13.006024,9.592369 12.983934,3.429719 9.913651,6.5 l 3.09237,3.092369 z"
     style="fill:#ffffff;fill-opacity:1;stroke:none" />
</svg>
