<?xml version="1.0" encoding="UTF-8" standalone="no"?>
<svg
   xmlns:dc="http://purl.org/dc/elements/1.1/"
   xmlns:cc="http://creativecommons.org/ns#"
   xmlns:rdf="http://www.w3.org/1999/02/22-rdf-syntax-ns#"
   xmlns:svg="http://www.w3.org/2000/svg"
   xmlns="http://www.w3.org/2000/svg"
   xmlns:sodipodi="http://sodipodi.sourceforge.net/DTD/sodipodi-0.dtd"
   xmlns:inkscape="http://www.inkscape.org/namespaces/inkscape"
   version="1.0"
   width="32"
   height="28"
   id="svg2"
   inkscape:version="0.47 r22583"
   sodipodi:docname="02-05-018-01-02-02.svg">
  <defs
     id="defs16">
    <inkscape:perspective
       sodipodi:type="inkscape:persp3d"
       inkscape:vp_x="0 : 23 : 1"
       inkscape:vp_y="0 : 1000 : 0"
       inkscape:vp_z="36 : 23 : 1"
       inkscape:persp3d-origin="18 : 15.333333 : 1"
       id="perspective18" />
  </defs>
  <sodipodi:namedview
     pagecolor="#ffffff"
     bordercolor="#666666"
     borderopacity="1"
     objecttolerance="10"
     gridtolerance="10"
     guidetolerance="10"
     inkscape:pageopacity="0"
     inkscape:pageshadow="2"
     inkscape:window-width="964"
     inkscape:window-height="721"
     id="namedview14"
     showgrid="true"
     inkscape:zoom="16.892857"
     inkscape:cx="16"
     inkscape:cy="14"
     inkscape:window-x="365"
     inkscape:window-y="0"
     inkscape:window-maximized="0"
     inkscape:current-layer="svg2"
     showborder="true">
    <inkscape:grid
       type="xygrid"
       id="grid2824"
       empspacing="5"
       visible="true"
       enabled="true"
       snapvisiblegridlinesonly="true" />
  </sodipodi:namedview>
  <metadata
     id="metadata4">
Valerie Sutton's pixel definition of the
ISWA 2010 symbol ID 04-01-003-01-01-01
transformed by Stephen E Slevinski Jr
using line and fill polygon tracing
<rdf:RDF>
  <cc:Work
     rdf:about="">
    <dc:format>image/svg+xml</dc:format>
    <dc:type
       rdf:resource="http://purl.org/dc/dcmitype/StillImage" />
    <dc:title></dc:title>
  </cc:Work>
</rdf:RDF>
</metadata>
  <path
     style="fill:#000000;fill-opacity:1;stroke:none"
     d="M 17,24 C 9.820298,24 4,18.179702 4,11 l 1,0 c 0,6.627417 5.372583,12.000001 12,12 l 2,1e-6 0,1 L 17,24 z"
     id="path2910" />
  <path
     style="fill:#ffffff;fill-opacity:1;stroke:none"
     d="m 17,23 c -6.627417,1e-6 -12,-5.372583 -12,-12 l 3.000001,10e-7 C 8.000001,15.970564 12.029437,20 17,20 l 2,1e-6 0,3 L 17,23 z"
     id="path2918" />
  <path
     style="fill:#000000;fill-opacity:1;stroke:none"
     d="M 17,20 C 12.029437,20 8.000001,15.970564 8.000001,11.000001 L 9,11 c 0,4.418279 3.581722,8.000001 8,8 l 2,1e-6 0,1.000001 L 17,20 z"
     id="path2923" />
  <path
     style="fill:#000000;fill-opacity:1;stroke:none"
     d="m 12,11.000001 -11,0 5.5,-5.5 5.5,5.5 z M 9.592369,10.006026 6.5,6.913655 3.429718,9.983937 l 6.162651,0.02209 z"
     id="path2964" />
  <path
     style="fill:#000000;fill-opacity:1;stroke:none"
     d="m 0,18.100506 0,9.899495 9.899495,0 L 0,18.100506 z m 1.016466,2.430679 6.45235,6.45235 -6.45235,0 0,-6.45235 z"
     id="path2997" />
  <path
     style="fill:#ffffff;fill-opacity:1;stroke:none"
     d="m 1.016466,20.531185 0,6.45235 6.45235,0 -6.45235,-6.45235 z"
     id="path2966" />
  <path
     style="fill:#ffffff;fill-opacity:1;stroke:none"
     d="M 9.592369,10.006026 3.429718,9.983936 6.5,6.913653 9.592369,10.006024 z"
     id="path2863" />
  <path
     id="path3274"
     d="m 13.000001,2.000001 c 0,7.179702 5.820298,13 13,13 l 0,-1.000001 c -6.627417,10e-7 -12,-5.372582 -12,-11.999999 l 0,-2 -1.000001,0 10e-7,2 z"
     style="fill:#000000;fill-opacity:1;stroke:none" />
  <path
     id="path3276"
     d="m 14.000001,2.000001 c 0,6.627417 5.372583,12 12,11.999999 L 26,11 C 21.029437,11 17.000001,6.970564 17.000001,2.000001 l -1e-6,-2 -2.999999,0 0,2 z"
     style="fill:#ffffff;fill-opacity:1;stroke:none" />
  <path
     style="fill:#000000;fill-opacity:1;stroke:none"
     d="M 3.958369,22.627418 26.585786,1e-6 28,1.414214 5.372583,24.041631 3.958369,22.627418 z"
     id="path2833" />
  <path
     id="path3278"
     d="M 17.000001,2.000001 C 17.000001,6.970564 21.029437,11 26,11 l 1e-6,-1 c -4.418279,0 -8,-3.581721 -8,-7.999999 l 0,-2 L 17,0 l 1e-6,2.000001 z"
     style="fill:#000000;fill-opacity:1;stroke:none" />
  <path
     id="path3280"
     d="m 26,7.000001 0,11 L 31.5,12.5 26,7.000001 z m 0.993976,2.40763 3.092369,3.092369 -3.070281,3.070282 -0.02209,-6.162651 z"
     style="fill:#000000;fill-opacity:1;stroke:none" />
  <path
     id="path3282"
     d="m 26.993976,9.407631 0.02209,6.162651 L 30.086347,12.5 26.993977,9.407631 z"
     style="fill:#ffffff;fill-opacity:1;stroke:none" />
</svg>
