<?xml version="1.0" encoding="UTF-8" standalone="no"?>
<svg
   xmlns:dc="http://purl.org/dc/elements/1.1/"
   xmlns:cc="http://creativecommons.org/ns#"
   xmlns:rdf="http://www.w3.org/1999/02/22-rdf-syntax-ns#"
   xmlns:svg="http://www.w3.org/2000/svg"
   xmlns="http://www.w3.org/2000/svg"
   xmlns:sodipodi="http://sodipodi.sourceforge.net/DTD/sodipodi-0.dtd"
   xmlns:inkscape="http://www.inkscape.org/namespaces/inkscape"
   version="1.0"
   width="28"
   height="31"
   id="svg2"
   inkscape:version="0.47 r22583"
   sodipodi:docname="02-05-018-01-06-12.svg">
  <defs
     id="defs16">
    <inkscape:perspective
       sodipodi:type="inkscape:persp3d"
       inkscape:vp_x="0 : 23 : 1"
       inkscape:vp_y="0 : 1000 : 0"
       inkscape:vp_z="36 : 23 : 1"
       inkscape:persp3d-origin="18 : 15.333333 : 1"
       id="perspective18" />
  </defs>
  <sodipodi:namedview
     pagecolor="#ffffff"
     bordercolor="#666666"
     borderopacity="1"
     objecttolerance="10"
     gridtolerance="10"
     guidetolerance="10"
     inkscape:pageopacity="0"
     inkscape:pageshadow="2"
     inkscape:window-width="964"
     inkscape:window-height="721"
     id="namedview14"
     showgrid="true"
     inkscape:zoom="15.258065"
     inkscape:cx="14"
     inkscape:cy="15.5"
     inkscape:window-x="365"
     inkscape:window-y="0"
     inkscape:window-maximized="0"
     inkscape:current-layer="svg2"
     showborder="true">
    <inkscape:grid
       type="xygrid"
       id="grid2824"
       empspacing="5"
       visible="true"
       enabled="true"
       snapvisiblegridlinesonly="true" />
  </sodipodi:namedview>
  <metadata
     id="metadata4">
Valerie Sutton's pixel definition of the
ISWA 2010 symbol ID 04-01-003-01-01-01
transformed by Stephen E Slevinski Jr
using line and fill polygon tracing
<rdf:RDF>
  <cc:Work
     rdf:about="">
    <dc:format>image/svg+xml</dc:format>
    <dc:type
       rdf:resource="http://purl.org/dc/dcmitype/StillImage" />
    <dc:title></dc:title>
  </cc:Work>
</rdf:RDF>
</metadata>
  <path
     style="fill:#000000;fill-opacity:1;stroke:none"
     d="M 18.100505,1 28,1 l 0,9.899495 -2.010835,-2.010835 0,-5.877825 -5.877825,0 L 18.100505,1 z"
     id="path2966" />
  <path
     style="fill:#000000;fill-opacity:1;stroke:none"
     d="M 7,6 12.500001,0.5 18,6 16.586346,6 12.500001,1.913655 8.413655,6 7,6 z"
     id="path3018" />
  <path
     style="fill:#000000;fill-opacity:1;stroke:none"
     d="M 23,19 C 15.820298,19 10.000001,13.179702 10.000001,6 l 1,0 C 11,12.627417 16.372583,18 23,17.999999 l 2,1e-6 0,1 -2,0 z"
     id="path3020" />
  <path
     style="fill:#ffffff;fill-opacity:1;stroke:none"
     d="M 23,17.999999 C 16.372583,18 11,12.627417 11.000001,6 l 3,1e-6 C 14.000001,10.970564 18.029436,15 23,15 l 2,10e-7 L 25,18 l -2,-1e-6 z"
     id="path3025" />
  <path
     style="fill:#000000;fill-opacity:1;stroke:none"
     d="m 23,15 c -4.970564,0 -8.999999,-4.029436 -8.999999,-8.999999 l 1,-1e-6 c 0,4.418279 3.581721,8 7.999999,8 l 2,0 1e-6,1.000001 L 23,15 z"
     id="path3069" />
  <path
     id="path2882"
     d="M 14,31 19.5,25.5 14,20 14,21.413655 18.086346,25.5 14,29.586345 14,31 z"
     style="fill:#000000;fill-opacity:1;stroke:none" />
  <path
     id="path2884"
     d="m 1.000001,15 c 0,7.179702 5.820298,13 13,13 l 0,-1 C 7.372584,27 2,21.627417 2.000001,15 L 2,13 l -1,0 10e-7,2 z"
     style="fill:#000000;fill-opacity:1;stroke:none" />
  <path
     id="path2886"
     d="m 2.000001,15 c -1e-6,6.627417 5.372583,12 12,12 L 14,23.999999 C 9.029437,23.999999 5.000001,19.970563 5.000001,15 L 5,13 l -3,0 1e-6,2 z"
     style="fill:#ffffff;fill-opacity:1;stroke:none" />
  <path
     style="fill:#000000;fill-opacity:1;stroke:none"
     d="M 22.627417,4.958369 0,27.585786 1.414213,29 24.04163,6.372583 22.627417,4.958369 z"
     id="path2833" />
  <path
     id="path2888"
     d="m 5.000001,15 c 0,4.970563 4.029436,8.999999 8.999999,8.999999 L 14.000001,23 C 9.581722,23 6,19.418278 6.000001,15 L 6,13 4.999999,12.999999 5.000001,15 z"
     style="fill:#000000;fill-opacity:1;stroke:none" />
</svg>
