<?xml version="1.0" encoding="UTF-8" standalone="no"?>
<svg
   xmlns:dc="http://purl.org/dc/elements/1.1/"
   xmlns:cc="http://creativecommons.org/ns#"
   xmlns:rdf="http://www.w3.org/1999/02/22-rdf-syntax-ns#"
   xmlns:svg="http://www.w3.org/2000/svg"
   xmlns="http://www.w3.org/2000/svg"
   xmlns:sodipodi="http://sodipodi.sourceforge.net/DTD/sodipodi-0.dtd"
   xmlns:inkscape="http://www.inkscape.org/namespaces/inkscape"
   version="1.0"
   width="28"
   height="32"
   id="svg2"
   inkscape:version="0.47 r22583"
   sodipodi:docname="02-05-018-01-03-08.svg">
  <defs
     id="defs16">
    <inkscape:perspective
       sodipodi:type="inkscape:persp3d"
       inkscape:vp_x="0 : 23 : 1"
       inkscape:vp_y="0 : 1000 : 0"
       inkscape:vp_z="36 : 23 : 1"
       inkscape:persp3d-origin="18 : 15.333333 : 1"
       id="perspective18" />
  </defs>
  <sodipodi:namedview
     pagecolor="#ffffff"
     bordercolor="#666666"
     borderopacity="1"
     objecttolerance="10"
     gridtolerance="10"
     guidetolerance="10"
     inkscape:pageopacity="0"
     inkscape:pageshadow="2"
     inkscape:window-width="964"
     inkscape:window-height="721"
     id="namedview14"
     showgrid="true"
     inkscape:zoom="14.78125"
     inkscape:cx="14"
     inkscape:cy="16"
     inkscape:window-x="365"
     inkscape:window-y="0"
     inkscape:window-maximized="0"
     inkscape:current-layer="svg2"
     showborder="true">
    <inkscape:grid
       type="xygrid"
       id="grid2824"
       empspacing="5"
       visible="true"
       enabled="true"
       snapvisiblegridlinesonly="true" />
  </sodipodi:namedview>
  <metadata
     id="metadata4">
Valerie Sutton's pixel definition of the
ISWA 2010 symbol ID 04-01-003-01-01-01
transformed by Stephen E Slevinski Jr
using line and fill polygon tracing
<rdf:RDF>
  <cc:Work
     rdf:about="">
    <dc:format>image/svg+xml</dc:format>
    <dc:type
       rdf:resource="http://purl.org/dc/dcmitype/StillImage" />
    <dc:title></dc:title>
  </cc:Work>
</rdf:RDF>
</metadata>
  <path
     style="fill:#000000;fill-opacity:1;stroke:none"
     d="M 9.899496,0 0,0 0,9.8994965 2.010835,7.888661 l 0,-5.877825 5.877826,0 L 9.899496,0 z"
     id="path2966" />
  <path
     style="fill:#000000;fill-opacity:1;stroke:none"
     d="M 17,1 22.5,6.5 17,12 17,10.586346 21.086345,6.5 17,2.413655 17,1 z"
     id="path3018" />
  <path
     style="fill:#000000;fill-opacity:1;stroke:none"
     d="M 4.000001,17 C 4.000001,9.8202995 9.8203,4 17,4 l 0,1 C 10.372583,5 5,10.372583 5.000001,17 L 5,19 l -1,0 1e-6,-2 z"
     id="path3020" />
  <path
     style="fill:#000000;fill-opacity:1;stroke:none"
     d="M 5.372583,3.95837 27.999999,26.585786 26.585786,28 3.95837,5.372583 5.372583,3.95837 z"
     id="path2833" />
  <path
     style="fill:#ffffff;fill-opacity:1;stroke:none"
     d="M 5.000001,17 C 5,10.372583 10.372583,5 17,5 l 0,3.000002 c -4.970563,0 -9,4.029436 -9,8.999998 l 0,2 -3,0 1e-6,-2 z"
     id="path3025" />
  <path
     style="fill:#000000;fill-opacity:1;stroke:none"
     d="M 8,17 C 8,12.029438 12.029438,8.000001 17,8.000001 L 17,9 C 12.581722,9 9,12.581723 9,17 L 9,19 7.999999,19 8,17 z"
     id="path3069" />
  <path
     id="path3182"
     d="m 10,26 5.500001,5.5 5.499998,-5.5 -1.413654,0 -4.086344,4.086345 L 11.413654,26 9.999999,26 z"
     style="fill:#000000;fill-opacity:1;stroke:none" />
  <path
     id="path3184"
     d="m 25.999999,13.000002 c -7.179701,0 -13,5.820296 -13,12.999999 l 1.000002,0 C 13.999999,19.372583 19.372582,14 25.999999,14 l 2,0 0,-1 -2,2e-6 z"
     style="fill:#000000;fill-opacity:1;stroke:none" />
  <path
     id="path3186"
     d="m 25.999999,14.000001 c -6.627417,0 -12,5.372582 -11.999998,12 L 17,26 c 0,-4.970563 4.029437,-9 8.999999,-9 l 2,0 0,-2.999998 -2,0 z"
     style="fill:#ffffff;fill-opacity:1;stroke:none" />
  <path
     id="path3188"
     d="M 25.999999,17 C 21.029437,17 17,21.029437 17,26 l 1,1e-6 C 18,21.581721 21.581721,18 25.999999,18 l 2,0 1e-6,-1 -2.000001,0 z"
     style="fill:#000000;fill-opacity:1;stroke:none" />
</svg>
