<?xml version="1.0" encoding="UTF-8" standalone="no"?>
<svg
   xmlns:dc="http://purl.org/dc/elements/1.1/"
   xmlns:cc="http://creativecommons.org/ns#"
   xmlns:rdf="http://www.w3.org/1999/02/22-rdf-syntax-ns#"
   xmlns:svg="http://www.w3.org/2000/svg"
   xmlns="http://www.w3.org/2000/svg"
   xmlns:sodipodi="http://sodipodi.sourceforge.net/DTD/sodipodi-0.dtd"
   xmlns:inkscape="http://www.inkscape.org/namespaces/inkscape"
   version="1.0"
   width="35"
   height="44"
   id="svg2"
   inkscape:version="0.47 r22583"
   sodipodi:docname="04-01-006-01-01-04.svg">
  <defs
     id="defs20">
    <inkscape:perspective
       sodipodi:type="inkscape:persp3d"
       inkscape:vp_x="0 : 4 : 1"
       inkscape:vp_y="0 : 1000 : 0"
       inkscape:vp_z="20 : 4 : 1"
       inkscape:persp3d-origin="10 : 2.6666667 : 1"
       id="perspective22" />
  </defs>
  <sodipodi:namedview
     pagecolor="#ffffff"
     bordercolor="#666666"
     borderopacity="1"
     objecttolerance="10"
     gridtolerance="10"
     guidetolerance="10"
     inkscape:pageopacity="0"
     inkscape:pageshadow="2"
     inkscape:window-width="998"
     inkscape:window-height="791"
     id="namedview18"
     showgrid="true"
     inkscape:zoom="12.558624"
     inkscape:cx="17.435957"
     inkscape:cy="21.887882"
     inkscape:window-x="238"
     inkscape:window-y="0"
     inkscape:window-maximized="0"
     inkscape:current-layer="svg2"
     inkscape:snap-grids="true">
    <inkscape:grid
       type="xygrid"
       id="grid2828" />
  </sodipodi:namedview>
  <metadata
     id="metadata4">
Valerie Sutton's pixel definition of the
ISWA 2010 symbol ID 04-01-006-01-02-01
transformed by Stephen E Slevinski Jr
using line and fill polygon tracing
<rdf:RDF>
  <cc:Work
     rdf:about="">
    <dc:format>image/svg+xml</dc:format>
    <dc:type
       rdf:resource="http://purl.org/dc/dcmitype/StillImage" />
    <dc:title />
  </cc:Work>
</rdf:RDF>
</metadata>
  <path
     style="fill:#000000"
     d="M 8,6 8,0 14,0 14,1 9,1 9,6 8,6 z"
     id="path12" />
  <path
     style="fill:#000000;fill-opacity:1;stroke:none"
     d="M 18,8 C 14.962434,8 12.209358,6.7718585 10.21875,4.78125 L 10.9375,4.0625 C 12.747144,5.8721441 15.238576,7 18,7 20.761424,7 23.252856,5.8721441 25.0625,4.0625 L 27,2.125 27.71875,2.8125 25.78125,4.78125 C 23.790641,6.7718585 21.037566,8 18,8 z"
     id="path3021" />
  <path
     style="fill:#ffffff;fill-opacity:1;stroke:none"
     d="M 18,7 C 15.238576,7 12.747144,5.8721441 10.9375,4.0625 L 12.34375,2.65625 C 13.791465,4.1039652 15.790861,5 18,5 20.209139,5 22.208535,4.1039652 23.65625,2.65625 L 25.625,0.6875 27,2.125 25.0625,4.0625 C 23.252856,5.8721441 20.761424,7 18,7 z"
     id="path3026" />
  <path
     style="fill:#000000;fill-opacity:1;stroke:none"
     d="M 18,5 C 15.790861,5 13.791465,4.1039652 12.34375,2.65625 L 13.0625,1.9375 C 14.329251,3.2042508 16.067003,4 18,4 19.932996,4 21.670749,3.2042508 22.9375,1.9375 L 24.90625,0 25.625,0.6875 23.65625,2.65625 C 22.208535,4.1039652 20.209139,5 18,5 z"
     id="path3031" />
  <path
     style="fill:#000000;fill-opacity:1;stroke:none"
     d="M 17.5,9 C 7.8350169,9 0,16.835017 0,26.5 0,36.164983 7.8350169,44 17.5,44 27.164983,44 35,36.164983 35,26.5 35,16.835017 27.164983,9 17.5,9 z m 0,1.5 c 8.836556,0 16,7.163444 16,16 0,8.836556 -7.163444,16 -16,16 -8.836556,0 -16,-7.163444 -16,-16 0,-8.836556 7.163444,-16 16,-16 z"
     id="path3195" />
</svg>
