<?xml version="1.0" encoding="UTF-8" standalone="no"?>
<svg
   xmlns:dc="http://purl.org/dc/elements/1.1/"
   xmlns:cc="http://creativecommons.org/ns#"
   xmlns:rdf="http://www.w3.org/1999/02/22-rdf-syntax-ns#"
   xmlns:svg="http://www.w3.org/2000/svg"
   xmlns="http://www.w3.org/2000/svg"
   xmlns:sodipodi="http://sodipodi.sourceforge.net/DTD/sodipodi-0.dtd"
   xmlns:inkscape="http://www.inkscape.org/namespaces/inkscape"
   version="1.0"
   width="35"
   height="44"
   id="svg2"
   inkscape:version="0.47 r22583"
   sodipodi:docname="04-01-006-01-01-02.svg">
  <defs
     id="defs20">
    <inkscape:perspective
       sodipodi:type="inkscape:persp3d"
       inkscape:vp_x="0 : 4 : 1"
       inkscape:vp_y="0 : 1000 : 0"
       inkscape:vp_z="20 : 4 : 1"
       inkscape:persp3d-origin="10 : 2.6666667 : 1"
       id="perspective22" />
  </defs>
  <sodipodi:namedview
     pagecolor="#ffffff"
     bordercolor="#666666"
     borderopacity="1"
     objecttolerance="10"
     gridtolerance="10"
     guidetolerance="10"
     inkscape:pageopacity="0"
     inkscape:pageshadow="2"
     inkscape:window-width="998"
     inkscape:window-height="791"
     id="namedview18"
     showgrid="true"
     inkscape:zoom="12.558624"
     inkscape:cx="17.435957"
     inkscape:cy="21.887882"
     inkscape:window-x="238"
     inkscape:window-y="0"
     inkscape:window-maximized="0"
     inkscape:current-layer="svg2"
     inkscape:snap-grids="true">
    <inkscape:grid
       type="xygrid"
       id="grid2828" />
  </sodipodi:namedview>
  <metadata
     id="metadata4">
Valerie Sutton's pixel definition of the
ISWA 2010 symbol ID 04-01-006-01-02-01
transformed by Stephen E Slevinski Jr
using line and fill polygon tracing
<rdf:RDF>
  <cc:Work
     rdf:about="">
    <dc:format>image/svg+xml</dc:format>
    <dc:type
       rdf:resource="http://purl.org/dc/dcmitype/StillImage" />
    <dc:title />
  </cc:Work>
</rdf:RDF>
</metadata>
  <path
     style="fill:#000000"
     d="m 27,6 0,-6 -6,0 0,1 5,0 0,5 1,0 z"
     id="path12" />
  <path
     style="fill:#000000;fill-opacity:1;stroke:none"
     d="m 17,8 c 3.037566,0 5.790642,-1.2281415 7.78125,-3.21875 L 24.0625,4.0625 C 22.252856,5.8721441 19.761424,7 17,7 14.238576,7 11.747144,5.8721441 9.9375,4.0625 L 8,2.125 7.28125,2.8125 9.21875,4.78125 C 11.209359,6.7718585 13.962434,8 17,8 z"
     id="path3021" />
  <path
     style="fill:#ffffff;fill-opacity:1;stroke:none"
     d="m 17,7 c 2.761424,0 5.252856,-1.1278559 7.0625,-2.9375 L 22.65625,2.65625 C 21.208535,4.1039652 19.209139,5 17,5 14.790861,5 12.791465,4.1039652 11.34375,2.65625 L 9.375,0.6875 8,2.125 9.9375,4.0625 C 11.747144,5.8721441 14.238576,7 17,7 z"
     id="path3026" />
  <path
     style="fill:#000000;fill-opacity:1;stroke:none"
     d="m 17,5 c 2.209139,0 4.208535,-0.8960348 5.65625,-2.34375 L 21.9375,1.9375 C 20.670749,3.2042508 18.932997,4 17,4 15.067004,4 13.329251,3.2042508 12.0625,1.9375 L 10.09375,0 9.375,0.6875 11.34375,2.65625 C 12.791465,4.1039652 14.790861,5 17,5 z"
     id="path3031" />
  <path
     style="fill:#000000;fill-opacity:1;stroke:none"
     d="M 17.5,9 C 7.8350169,9 0,16.835017 0,26.5 0,36.164983 7.8350169,44 17.5,44 27.164983,44 35,36.164983 35,26.5 35,16.835017 27.164983,9 17.5,9 z m 0,1.5 c 8.836556,0 16,7.163444 16,16 0,8.836556 -7.163444,16 -16,16 -8.836556,0 -16,-7.163444 -16,-16 0,-8.836556 7.163444,-16 16,-16 z"
     id="path3195" />
</svg>
