<?xml version="1.0" encoding="UTF-8" standalone="no"?>
<svg
   xmlns:dc="http://purl.org/dc/elements/1.1/"
   xmlns:cc="http://creativecommons.org/ns#"
   xmlns:rdf="http://www.w3.org/1999/02/22-rdf-syntax-ns#"
   xmlns:svg="http://www.w3.org/2000/svg"
   xmlns="http://www.w3.org/2000/svg"
   xmlns:sodipodi="http://sodipodi.sourceforge.net/DTD/sodipodi-0.dtd"
   xmlns:inkscape="http://www.inkscape.org/namespaces/inkscape"
   version="1.0"
   width="21"
   height="6"
   id="svg2"
   inkscape:version="0.47 r22583"
   sodipodi:docname="04-02-010-01-02-05.svg">
  <defs
     id="defs14">
    <inkscape:perspective
       sodipodi:type="inkscape:persp3d"
       inkscape:vp_x="0 : 3.5 : 1"
       inkscape:vp_y="0 : 1000 : 0"
       inkscape:vp_z="7 : 3.5 : 1"
       inkscape:persp3d-origin="3.5 : 2.3333333 : 1"
       id="perspective16" />
  </defs>
  <sodipodi:namedview
     pagecolor="#ffffff"
     bordercolor="#666666"
     borderopacity="1"
     objecttolerance="10"
     gridtolerance="10"
     guidetolerance="10"
     inkscape:pageopacity="0"
     inkscape:pageshadow="2"
     inkscape:window-width="928"
     inkscape:window-height="791"
     id="namedview12"
     showgrid="true"
     inkscape:zoom="22.8"
     inkscape:cx="10.301332"
     inkscape:cy="2.6891533"
     inkscape:window-x="273"
     inkscape:window-y="0"
     inkscape:window-maximized="0"
     inkscape:current-layer="svg2"
     showguides="true"
     inkscape:guide-bbox="true">
    <inkscape:grid
       type="xygrid"
       id="grid2822" />
  </sodipodi:namedview>
  <metadata
     id="metadata4">
Valerie Sutton's pixel definition of the
ISWA 2010 symbol ID 04-02-007-01-04-01
transformed by Stephen E Slevinski Jr
using line and fill polygon tracing
<rdf:RDF>
  <cc:Work
     rdf:about="">
    <dc:format>image/svg+xml</dc:format>
    <dc:type
       rdf:resource="http://purl.org/dc/dcmitype/StillImage" />
    <dc:title></dc:title>
  </cc:Work>
</rdf:RDF>
</metadata>
  <path
     style="fill:#000000;fill-opacity:1;stroke:none"
     d="m 12,5 0,-5 1,0 0,4 4,0 0,1 -5,0 z"
     id="path2841" />
  <path
     style="fill:#000000;fill-opacity:1;stroke:none"
     d="m 17.5,0 c -0.966498,0 -1.835375,0.39787458 -2.46875,1.03125 l -1,1 L 14.75,2.75 l 1,-1 C 16.202411,1.297589 16.809644,1 17.5,1 18.880712,1 20,2.1192881 20,3.5 L 20,6 21,6 21,3.5 C 21,1.5670034 19.432997,0 17.5,0 z"
     id="rect2822" />
  <path
     id="path2965"
     d="M 0,5 0,0 1,0 1,4 5,4 5,5 0,5 z"
     style="fill:#000000;fill-opacity:1;stroke:none" />
  <path
     id="path2967"
     d="M 5.5,0 C 4.533502,0 3.664625,0.39787458 3.03125,1.03125 l -1,1 L 2.75,2.75 l 1,-1 C 4.202411,1.297589 4.809644,1 5.5,1 6.880712,1 8,2.1192881 8,3.5 L 8,6 9,6 9,3.5 C 9,1.5670034 7.432997,0 5.5,0 z"
     style="fill:#000000;fill-opacity:1;stroke:none" />
</svg>
