<?xml version="1.0" encoding="UTF-8" standalone="no"?>
<svg
   xmlns:dc="http://purl.org/dc/elements/1.1/"
   xmlns:cc="http://creativecommons.org/ns#"
   xmlns:rdf="http://www.w3.org/1999/02/22-rdf-syntax-ns#"
   xmlns:svg="http://www.w3.org/2000/svg"
   xmlns="http://www.w3.org/2000/svg"
   xmlns:sodipodi="http://sodipodi.sourceforge.net/DTD/sodipodi-0.dtd"
   xmlns:inkscape="http://www.inkscape.org/namespaces/inkscape"
   version="1.0"
   width="36"
   height="23"
   id="svg2"
   inkscape:version="0.47 r22583"
   sodipodi:docname="02-07-014-01-02-04.svg">
  <defs
     id="defs16">
    <inkscape:perspective
       sodipodi:type="inkscape:persp3d"
       inkscape:vp_x="0 : 23 : 1"
       inkscape:vp_y="0 : 1000 : 0"
       inkscape:vp_z="36 : 23 : 1"
       inkscape:persp3d-origin="18 : 15.333333 : 1"
       id="perspective18" />
  </defs>
  <sodipodi:namedview
     pagecolor="#ffffff"
     bordercolor="#666666"
     borderopacity="1"
     objecttolerance="10"
     gridtolerance="10"
     guidetolerance="10"
     inkscape:pageopacity="0"
     inkscape:pageshadow="2"
     inkscape:window-width="964"
     inkscape:window-height="721"
     id="namedview14"
     showgrid="true"
     inkscape:zoom="16.701291"
     inkscape:cx="18"
     inkscape:cy="11.5"
     inkscape:window-x="365"
     inkscape:window-y="0"
     inkscape:window-maximized="0"
     inkscape:current-layer="svg2"
     showborder="true">
    <inkscape:grid
       type="xygrid"
       id="grid2824"
       empspacing="5"
       visible="true"
       enabled="true"
       snapvisiblegridlinesonly="true" />
  </sodipodi:namedview>
  <metadata
     id="metadata4">
Valerie Sutton's pixel definition of the
ISWA 2010 symbol ID 04-01-003-01-01-01
transformed by Stephen E Slevinski Jr
using line and fill polygon tracing
<rdf:RDF>
  <cc:Work
     rdf:about="">
    <dc:format>image/svg+xml</dc:format>
    <dc:type
       rdf:resource="http://purl.org/dc/dcmitype/StillImage" />
    <dc:title></dc:title>
  </cc:Work>
</rdf:RDF>
</metadata>
  <path
     style="fill:#000000;fill-opacity:1;stroke:none"
     d="m 36,11 -36,0 0,-1 36,0 0,1 z"
     id="path2831" />
  <path
     style="fill:#000000;fill-opacity:1;stroke:none"
     d="M 13,23 3,23 3,13 13,23 z M 10.59375,22 4,15.4375 4,22 l 6.59375,0 z"
     id="path2964" />
  <path
     style="fill:#000000;fill-opacity:1;stroke:none"
     d="m 15,10.5 c 0,2.623352 -1.062088,4.999589 -2.78125,6.71875 l -2.5,2.5 L 9,19 11.5,16.5 c 1.538198,-1.538198 2.5,-3.65279 2.5,-6 0,-2.34721 -0.961802,-4.461802 -2.5,-6 L 7.71875,0.6875 8.40625,0 12.21875,3.78125 C 13.937912,5.500411 15,7.876648 15,10.5 z"
     id="path2817" />
  <path
     style="fill:#ffffff;fill-opacity:1;stroke:none"
     d="m 14,10.5 c 0,2.34721 -0.961802,4.461802 -2.5,6 L 9,19 6.875,16.875 l 2.5,-2.5 C 10.370305,13.379696 11,12.018783 11,10.5 11,8.981217 10.370305,7.620304 9.375,6.625 L 5.59375,2.8125 7.71875,0.6875 11.5,4.5 c 1.538198,1.538198 2.499999,3.652789 2.5,6 z"
     id="path2819" />
  <path
     style="fill:#000000;fill-opacity:1;stroke:none"
     d="m 11,10.5 c 0,1.518783 -0.629695,2.879696 -1.625,3.875 l -2.5,2.5 -0.6875,-0.6875 2.5,-2.5 C 9.50184,12.87316 10,11.742641 10,10.5 10,9.257359 9.501841,8.126841 8.6875,7.3125 L 4.875,3.53125 5.59375,2.8125 9.375,6.625 C 10.370305,7.620304 11,8.981217 11,10.5 z"
     id="path2824" />
  <path
     style="fill:#ffffff;fill-opacity:1;stroke:none"
     d="M 10.59375,22 4,22 4,15.4375 10.59375,22 z"
     id="path3506" />
  <path
     style="fill:#000000;fill-opacity:1;stroke:none"
     d="m 12,14.5 c -2.209139,0 -4,-1.790861 -4,-4 0,-2.209139 1.790861,-4 4,-4 2.209139,0 4,1.790861 4,4 0,2.209139 -1.790861,4 -4,4 z"
     id="path2929" />
  <path
     id="path2958"
     d="M 27,23 17,23 17,13 27,23 z M 24.59375,22 18,15.4375 18,22 l 6.59375,0 z"
     style="fill:#000000;fill-opacity:1;stroke:none" />
  <path
     id="path2960"
     d="m 29,10.5 c 0,2.623352 -1.062088,4.999589 -2.78125,6.71875 l -2.5,2.5 L 23,19 25.5,16.5 c 1.538198,-1.538198 2.5,-3.65279 2.5,-6 0,-2.34721 -0.961802,-4.461802 -2.5,-6 L 21.71875,0.6875 22.40625,0 26.21875,3.78125 C 27.937912,5.500411 29,7.876648 29,10.5 z"
     style="fill:#000000;fill-opacity:1;stroke:none" />
  <path
     id="path2962"
     d="m 28,10.5 c 0,2.34721 -0.961802,4.461802 -2.5,6 L 23,19 l -2.125,-2.125 2.5,-2.5 C 24.370305,13.379696 25,12.018783 25,10.5 25,8.981217 24.370305,7.620304 23.375,6.625 L 19.59375,2.8125 21.71875,0.6875 25.5,4.5 c 1.538198,1.538198 2.499999,3.652789 2.5,6 z"
     style="fill:#ffffff;fill-opacity:1;stroke:none" />
  <path
     id="path2965"
     d="m 25,10.5 c 0,1.518783 -0.629695,2.879696 -1.625,3.875 l -2.5,2.5 -0.6875,-0.6875 2.5,-2.5 C 23.50184,12.87316 24,11.742641 24,10.5 24,9.257359 23.501841,8.126841 22.6875,7.3125 L 18.875,3.53125 19.59375,2.8125 23.375,6.625 C 24.370305,7.620304 25,8.981217 25,10.5 z"
     style="fill:#000000;fill-opacity:1;stroke:none" />
  <path
     id="path2967"
     d="M 24.59375,22 18,22 18,15.4375 24.59375,22 z"
     style="fill:#ffffff;fill-opacity:1;stroke:none" />
  <path
     id="path2969"
     d="m 26,14.5 c -2.209139,0 -4,-1.790861 -4,-4 0,-2.209139 1.790861,-4 4,-4 2.209139,0 4,1.790861 4,4 0,2.209139 -1.790861,4 -4,4 z"
     style="fill:#000000;fill-opacity:1;stroke:none" />
</svg>
