<?xml version="1.0" encoding="UTF-8" standalone="no"?>
<!-- Created with Inkscape (http://www.inkscape.org/) -->

<svg
   xmlns:dc="http://purl.org/dc/elements/1.1/"
   xmlns:cc="http://creativecommons.org/ns#"
   xmlns:rdf="http://www.w3.org/1999/02/22-rdf-syntax-ns#"
   xmlns:svg="http://www.w3.org/2000/svg"
   xmlns="http://www.w3.org/2000/svg"
   xmlns:sodipodi="http://sodipodi.sourceforge.net/DTD/sodipodi-0.dtd"
   xmlns:inkscape="http://www.inkscape.org/namespaces/inkscape"
   width="24"
   height="25"
   id="svg3198"
   sodipodi:version="0.32"
   inkscape:version="0.47 r22583"
   version="1.0"
   sodipodi:docname="01-03-028-01-03.svg"
   inkscape:output_extension="org.inkscape.output.svg.inkscape">
  <defs
     id="defs3200">
    <inkscape:perspective
       sodipodi:type="inkscape:persp3d"
       inkscape:vp_x="0 : 526.18109 : 1"
       inkscape:vp_y="0 : 1000 : 0"
       inkscape:vp_z="744.09448 : 526.18109 : 1"
       inkscape:persp3d-origin="372.04724 : 350.78739 : 1"
       id="perspective3206" />
  </defs>
  <sodipodi:namedview
     id="namedview3727"
     pagecolor="#ffffff"
     bordercolor="#666666"
     borderopacity="1.0"
     gridtolerance="10000"
     guidetolerance="10"
     objecttolerance="10"
     inkscape:pageopacity="0.0"
     inkscape:pageshadow="2"
     inkscape:zoom="22.634315"
     inkscape:cx="7.2062278"
     inkscape:cy="14.277582"
     inkscape:document-units="px"
     inkscape:current-layer="svg3198"
     showgrid="true"
     inkscape:window-width="1260"
     inkscape:window-height="928"
     inkscape:window-x="20"
     inkscape:window-y="20"
     showborder="false"
     inkscape:window-maximized="0">
    <inkscape:grid
       type="xygrid"
       id="grid3208"
       visible="true"
       enabled="true" />
  </sodipodi:namedview>
  <metadata
     id="metadata3203">
    <rdf:RDF>
      <cc:Work
         rdf:about="">
        <dc:format>image/svg+xml</dc:format>
        <dc:type
           rdf:resource="http://purl.org/dc/dcmitype/StillImage" />
        <dc:title></dc:title>
      </cc:Work>
    </rdf:RDF>
  </metadata>
  <g
     inkscape:label="Layer 1"
     inkscape:groupmode="layer"
     id="g8" />
  <rect
     style="fill:#000000;fill-opacity:1;stroke:none"
     id="base"
     width="15"
     height="13"
     x="9"
     y="12" />
  <rect
     style="fill:#ffffff;fill-opacity:1;stroke:none"
     id="fill"
     width="11"
     height="9"
     x="11"
     y="14" />
  <path
     style="fill:#000000;fill-opacity:1;stroke:none"
     d="M 1.40625,0.09375 0,1.5 8.5,10 11.3125,10 1.40625,0.09375 z"
     id="index" />
  <path
     style="fill:#000000;fill-opacity:1;stroke:none"
     d="M 5 7 C 5 7 0 7 0 12 L 2 12 C 2 12 2 9 5 9 L 6 9 C 6 9 7.4598827 8.9920566 8.34375 10 L 10.59375 10 C 10.066088 8.6036867 8.8477157 7 6 7 L 5 7 z "
     id="middle" />
  <path
     style="fill:#000000;fill-opacity:1;stroke:none"
     d="M 0 12 C 0 17 5 17 5 17 L 6 17 C 6.7877475 17 7.4409176 16.865362 8 16.65625 L 8 14.3125 C 7.1281836 14.999481 6 15 6 15 L 5 15 C 2 15 2 12 2 12 L 0 12 z "
     id="thumb" />
</svg>
