<?xml version="1.0" encoding="UTF-8" standalone="no"?>
<svg
   xmlns:dc="http://purl.org/dc/elements/1.1/"
   xmlns:cc="http://creativecommons.org/ns#"
   xmlns:rdf="http://www.w3.org/1999/02/22-rdf-syntax-ns#"
   xmlns:svg="http://www.w3.org/2000/svg"
   xmlns="http://www.w3.org/2000/svg"
   xmlns:sodipodi="http://sodipodi.sourceforge.net/DTD/sodipodi-0.dtd"
   xmlns:inkscape="http://www.inkscape.org/namespaces/inkscape"
   version="1.0"
   width="21"
   height="8"
   id="svg2"
   inkscape:version="0.47 r22583"
   sodipodi:docname="04-04-005-02-02-01.svg">
  <defs
     id="defs14">
    <inkscape:perspective
       sodipodi:type="inkscape:persp3d"
       inkscape:vp_x="0 : 17.5 : 1"
       inkscape:vp_y="0 : 1000 : 0"
       inkscape:vp_z="36 : 17.5 : 1"
       inkscape:persp3d-origin="18 : 11.666667 : 1"
       id="perspective16" />
  </defs>
  <sodipodi:namedview
     pagecolor="#ffffff"
     bordercolor="#666666"
     borderopacity="1"
     objecttolerance="10"
     gridtolerance="10"
     guidetolerance="10"
     inkscape:pageopacity="0"
     inkscape:pageshadow="2"
     inkscape:window-width="993"
     inkscape:window-height="789"
     id="namedview12"
     showgrid="true"
     inkscape:zoom="15.487127"
     inkscape:cx="7.6688392"
     inkscape:cy="2.0032587"
     inkscape:window-x="209"
     inkscape:window-y="0"
     inkscape:window-maximized="0"
     inkscape:current-layer="svg2"
     showguides="true"
     inkscape:guide-bbox="true">
    <inkscape:grid
       type="xygrid"
       id="grid2822" />
  </sodipodi:namedview>
  <metadata
     id="metadata4">
Valerie Sutton's pixel definition of the
ISWA 2010 symbol ID 04-03-001-01-01-01
transformed by Stephen E Slevinski Jr
using line and fill polygon tracing
<rdf:RDF>
  <cc:Work
     rdf:about="">
    <dc:format>image/svg+xml</dc:format>
    <dc:type
       rdf:resource="http://purl.org/dc/dcmitype/StillImage" />
    <dc:title />
  </cc:Work>
</rdf:RDF>
</metadata>
  <path
     style="fill:#000000;fill-opacity:1;stroke:none"
     d="M 4,4 C 4,5.656854 6.910149,7 10.5,7 14.089851,7 17,5.656854 17,4 17,2.343146 14.089851,1 10.5,1 6.910149,1 4,2.343146 4,4 z M 10.5,3 C 12.985281,3 15,3.447715 15,4 15,4.552285 12.985281,5 10.5,5 8.014719,5 6,4.552285 6,4 6,3.447715 8.014719,3 10.5,3 z"
     id="path2935" />
  <path
     style="fill:#000000;fill-opacity:1;stroke:none"
     d="M 4,0 C 1.790861,0 0,1.790861 0,4 0,6.209139 1.790861,8 4,8 L 4,7 C 2.8954305,7 2,5.6568542 2,4 2,2.3431458 2.8954305,1 4,1 L 4,0 z"
     id="path2871" />
  <path
     style="fill:#000000;fill-opacity:1;stroke:none"
     d="m 17,0 0,1 c 1.10457,0 2,1.3431458 2,3 0,1.6568542 -0.89543,3 -2,3 l 0,1 C 19.209139,8 21,6.209139 21,4 21,1.790861 19.209139,0 17,0 z"
     id="path2863" />
</svg>
