<?xml version="1.0" encoding="UTF-8" standalone="no"?>
<svg
   xmlns:dc="http://purl.org/dc/elements/1.1/"
   xmlns:cc="http://creativecommons.org/ns#"
   xmlns:rdf="http://www.w3.org/1999/02/22-rdf-syntax-ns#"
   xmlns:svg="http://www.w3.org/2000/svg"
   xmlns="http://www.w3.org/2000/svg"
   xmlns:sodipodi="http://sodipodi.sourceforge.net/DTD/sodipodi-0.dtd"
   xmlns:inkscape="http://www.inkscape.org/namespaces/inkscape"
   version="1.0"
   width="22"
   height="49"
   id="svg2"
   inkscape:version="0.47 r22583"
   sodipodi:docname="02-03-001-03-03-01.svg">
  <defs
     id="defs16">
    <inkscape:perspective
       sodipodi:type="inkscape:persp3d"
       inkscape:vp_x="0 : 23 : 1"
       inkscape:vp_y="0 : 1000 : 0"
       inkscape:vp_z="36 : 23 : 1"
       inkscape:persp3d-origin="18 : 15.333333 : 1"
       id="perspective18" />
  </defs>
  <sodipodi:namedview
     pagecolor="#ffffff"
     bordercolor="#666666"
     borderopacity="1"
     objecttolerance="10"
     gridtolerance="10"
     guidetolerance="10"
     inkscape:pageopacity="0"
     inkscape:pageshadow="2"
     inkscape:window-width="964"
     inkscape:window-height="721"
     id="namedview14"
     showgrid="true"
     inkscape:zoom="9.57"
     inkscape:cx="13.835554"
     inkscape:cy="25.49304"
     inkscape:window-x="365"
     inkscape:window-y="0"
     inkscape:window-maximized="0"
     inkscape:current-layer="svg2"
     showborder="true">
    <inkscape:grid
       type="xygrid"
       id="grid2824"
       empspacing="5"
       visible="true"
       enabled="true"
       snapvisiblegridlinesonly="true" />
  </sodipodi:namedview>
  <metadata
     id="metadata4">
Valerie Sutton's pixel definition of the
ISWA 2010 symbol ID 04-01-003-01-01-01
transformed by Stephen E Slevinski Jr
using line and fill polygon tracing
<rdf:RDF>
  <cc:Work
     rdf:about="">
    <dc:format>image/svg+xml</dc:format>
    <dc:type
       rdf:resource="http://purl.org/dc/dcmitype/StillImage" />
    <dc:title></dc:title>
  </cc:Work>
</rdf:RDF>
</metadata>
  <path
     style="fill:#000000"
     d="m 0.1715729,0.5147187 0,11.3137083 1.9224465,-1.9224464 -0.022097,-7.4025241 7.4246212,0 1.9887374,-1.9887378 -11.313708,0 z"
     id="path2818" />
  <path
     style="fill:#000000;fill-opacity:1;stroke:none"
     d="M 4.4142135,7.5857865 3,9 9.363961,15.363961 0.8786796,23.849242 10.071068,33.04163 0.1715729,42.941125 1.5857864,44.355339 12.899495,33.04163 3.7071068,23.849242 12.192388,15.363961 4.4142135,7.5857865 z"
     id="path2831" />
  <path
     id="path2833"
     d="M 8.6568542,3.3431458 7.2426407,4.7573594 17.849242,15.363961 9.363961,23.849242 18.556349,33.04163 4.4142135,47.183766 5.8284271,48.59798 21.384776,33.04163 12.192388,23.849242 20.677669,15.363961 8.6568542,3.3431458 z"
     style="fill:#000000;fill-opacity:1;stroke:none" />
  <path
     style="fill:#ffffff;fill-opacity:1;stroke:none"
     d="M 7.2426407,4.7573594 4.4142135,7.5857865 12.192388,15.363961 3.7071068,23.849242 12.899495,33.04163 1.5857864,44.355339 4.4142135,47.183766 18.556349,33.04163 9.363961,23.849242 17.849242,15.363961 7.2426407,4.7573594 z"
     id="rect2821" />
</svg>
