<?xml version="1.0" encoding="UTF-8" standalone="no"?>
<svg
   xmlns:dc="http://purl.org/dc/elements/1.1/"
   xmlns:cc="http://creativecommons.org/ns#"
   xmlns:rdf="http://www.w3.org/1999/02/22-rdf-syntax-ns#"
   xmlns:svg="http://www.w3.org/2000/svg"
   xmlns="http://www.w3.org/2000/svg"
   xmlns:sodipodi="http://sodipodi.sourceforge.net/DTD/sodipodi-0.dtd"
   xmlns:inkscape="http://www.inkscape.org/namespaces/inkscape"
   version="1.0"
   width="40"
   height="12"
   id="svg2"
   inkscape:version="0.47 r22583"
   sodipodi:docname="02-01-011-01-02-02.svg">
  <defs
     id="defs14">
    <inkscape:perspective
       sodipodi:type="inkscape:persp3d"
       inkscape:vp_x="0 : 5.5 : 1"
       inkscape:vp_y="0 : 1000 : 0"
       inkscape:vp_z="10 : 5.5 : 1"
       inkscape:persp3d-origin="5 : 3.6666667 : 1"
       id="perspective16" />
  </defs>
  <sodipodi:namedview
     pagecolor="#ffffff"
     bordercolor="#666666"
     borderopacity="1"
     objecttolerance="10"
     gridtolerance="10"
     guidetolerance="10"
     inkscape:pageopacity="0"
     inkscape:pageshadow="2"
     inkscape:window-width="917"
     inkscape:window-height="792"
     id="namedview12"
     showgrid="true"
     inkscape:zoom="11.494966"
     inkscape:cx="19.846441"
     inkscape:cy="4.2042976"
     inkscape:window-x="313"
     inkscape:window-y="0"
     inkscape:window-maximized="0"
     inkscape:current-layer="svg2">
    <inkscape:grid
       type="xygrid"
       id="grid2822" />
  </sodipodi:namedview>
  <metadata
     id="metadata4">
Valerie Sutton's pixel definition of the
ISWA 2010 symbol ID 02-01-001-01-01-01
transformed by Stephen E Slevinski Jr
using line and fill polygon tracing
<rdf:RDF>
  <cc:Work
     rdf:about="">
    <dc:format>image/svg+xml</dc:format>
    <dc:type
       rdf:resource="http://purl.org/dc/dcmitype/StillImage" />
    <dc:title></dc:title>
  </cc:Work>
</rdf:RDF>
</metadata>
  <path
     style="fill:#000000;fill-opacity:1;stroke:none"
     d="M 6.0000998,1e-6 C 2.6863911,1e-6 1.002e-4,2.686292 1e-4,6 9.99e-5,9.313709 2.6863914,12.000001 6.0000999,12 9.3138084,12 12.000099,9.313709 12.000099,6 12.0001,2.686292 9.3138084,0 6.0000998,1e-6 z M 6.0001002,2 C 8.2092391,2 10.0001,3.790861 10.0001,6 c -10e-7,2.20914 -1.7908606,4 -4.0000001,4.000001 -2.2091391,0 -4.0000001,-1.790861 -4.0000002,-4 5e-7,-2.20914 1.7908609,-4 4.0000005,-4.000001 z"
     id="path3379" />
  <path
     style="fill:#ffffff;fill-opacity:1;stroke:none"
     d="m 6.0001002,2 c -2.2091396,1e-6 -4,1.790861 -4.0000005,4.000001 1e-7,2.209139 1.7908611,4 4.0000002,4 C 8.2092394,10 10.000099,8.20914 10.0001,6 10.0001,3.790861 8.2092391,2 6.0001002,2 z m -3e-7,2.000001 c 1.1045698,-1e-6 2.0000003,0.89543 2,2 C 8.0001005,7.10457 7.10467,8 6.0001,8 c -1.1045698,10e-7 -2.0000003,-0.89543 -2,-2 3e-7,-1.104569 0.8954308,-2 1.9999999,-1.999999 z"
     id="path3384" />
  <path
     style="fill:#000000;fill-opacity:1;stroke:none"
     d="M 6.0000999,4.000001 C 4.8955308,4 4.0001003,4.895431 4.0001,6 c -3e-7,1.10457 0.8954302,2.000001 2,2 1.10457,0 2.0000005,-0.89543 1.9999999,-1.999999 3e-7,-1.10457 -0.8954302,-2.000001 -2,-2 z"
     id="path3391" />
  <path
     id="path3417"
     d="m 20.000001,0 c -3.313709,1e-6 -6.000001,2.686292 -6,6 0,3.313709 2.686291,6 5.999999,6 3.313709,0 6,-2.686291 6,-6 C 26,2.686291 23.31371,0 20.000001,0 z M 20,2 c 2.20914,1e-6 4,1.790861 4.000001,4.000001 0,2.209138 -1.790861,4 -4,4 C 17.790861,10 16.000001,8.20914 16,6 16,3.790861 17.790861,2 20,2 z"
     style="fill:#000000;fill-opacity:1;stroke:none" />
  <path
     id="path3419"
     d="m 20,2 c -2.209139,0 -4,1.790861 -4,4 1e-6,2.20914 1.790861,4 4.000001,4.000001 2.209139,0 4,-1.790861 4,-4 C 24,3.790861 22.20914,2.000001 20,2 z m 0,2 c 1.104571,0 2,0.895431 2,2 1e-6,1.10457 -0.89543,2 -2,2 -1.104568,0 -2,-0.89543 -2,-2 0,-1.104569 0.895432,-1.999999 2,-2 z"
     style="fill:#ffffff;fill-opacity:1;stroke:none" />
  <path
     id="path3421"
     d="m 20,4 c -1.104568,0 -2,0.895431 -2,2 0,1.10457 0.895432,2 2,2 1.10457,0 2.000001,-0.89543 2,-2 0,-1.104569 -0.895429,-2 -2,-2 z"
     style="fill:#000000;fill-opacity:1;stroke:none" />
  <path
     style="fill:#000000;fill-opacity:1;stroke:none"
     d="m 34.000001,0 c -3.313709,1e-6 -6.000001,2.686292 -6,6 0,3.313709 2.686291,6 5.999999,6 3.313709,0 6,-2.686291 6,-6 C 40,2.686291 37.31371,0 34.000001,0 z M 34,2 c 2.20914,1e-6 4,1.790861 4.000001,4.000001 0,2.209138 -1.790861,4 -4,4 C 31.790861,10 30.000001,8.20914 30,6 30,3.790861 31.790861,2 34,2 z"
     id="path3507" />
  <path
     style="fill:#ffffff;fill-opacity:1;stroke:none"
     d="m 34,2 c -2.209139,0 -4,1.790861 -4,4 1e-6,2.20914 1.790861,4 4.000001,4.000001 2.209139,0 4,-1.790861 4,-4 C 38,3.790861 36.20914,2.000001 34,2 z m 0,2 c 1.104571,0 2,0.895431 2,2 10e-7,1.10457 -0.89543,2 -2,2 -1.104568,0 -2,-0.89543 -2,-2 0,-1.104569 0.895432,-1.999999 2,-2 z"
     id="path3509" />
  <path
     style="fill:#000000;fill-opacity:1;stroke:none"
     d="m 34,4 c -1.104568,0 -2,0.895431 -2,2 0,1.10457 0.895432,2 2,2 1.10457,0 2.000001,-0.89543 2,-2 0,-1.104569 -0.895429,-2 -2,-2 z"
     id="path3511" />
</svg>
