<?xml version="1.0" encoding="UTF-8" standalone="no"?>
<svg
   xmlns:dc="http://purl.org/dc/elements/1.1/"
   xmlns:cc="http://creativecommons.org/ns#"
   xmlns:rdf="http://www.w3.org/1999/02/22-rdf-syntax-ns#"
   xmlns:svg="http://www.w3.org/2000/svg"
   xmlns="http://www.w3.org/2000/svg"
   xmlns:sodipodi="http://sodipodi.sourceforge.net/DTD/sodipodi-0.dtd"
   xmlns:inkscape="http://www.inkscape.org/namespaces/inkscape"
   version="1.0"
   width="26"
   height="12"
   id="svg2"
   inkscape:version="0.47 r22583"
   sodipodi:docname="02-01-010-01-01-01.svg">
  <defs
     id="defs14">
    <inkscape:perspective
       sodipodi:type="inkscape:persp3d"
       inkscape:vp_x="0 : 5.5 : 1"
       inkscape:vp_y="0 : 1000 : 0"
       inkscape:vp_z="10 : 5.5 : 1"
       inkscape:persp3d-origin="5 : 3.6666667 : 1"
       id="perspective16" />
  </defs>
  <sodipodi:namedview
     pagecolor="#ffffff"
     bordercolor="#666666"
     borderopacity="1"
     objecttolerance="10"
     gridtolerance="10"
     guidetolerance="10"
     inkscape:pageopacity="0"
     inkscape:pageshadow="2"
     inkscape:window-width="917"
     inkscape:window-height="792"
     id="namedview12"
     showgrid="true"
     inkscape:zoom="11.494966"
     inkscape:cx="12.886874"
     inkscape:cy="4.2042976"
     inkscape:window-x="313"
     inkscape:window-y="0"
     inkscape:window-maximized="0"
     inkscape:current-layer="svg2">
    <inkscape:grid
       type="xygrid"
       id="grid2822" />
  </sodipodi:namedview>
  <metadata
     id="metadata4">
Valerie Sutton's pixel definition of the
ISWA 2010 symbol ID 02-01-001-01-01-01
transformed by Stephen E Slevinski Jr
using line and fill polygon tracing
<rdf:RDF>
  <cc:Work
     rdf:about="">
    <dc:format>image/svg+xml</dc:format>
    <dc:type
       rdf:resource="http://purl.org/dc/dcmitype/StillImage" />
    <dc:title></dc:title>
  </cc:Work>
</rdf:RDF>
</metadata>
  <path
     style="fill:#000000;fill-opacity:1;stroke:none"
     d="M 6,0 C 2.6862915,0 0,2.6862915 0,6 0,9.3137085 2.6862915,12 6,12 9.3137085,12 12,9.3137085 12,6 12,2.6862915 9.3137085,0 6,0 z m 0,2 c 2.209139,0 4,1.790861 4,4 0,2.209139 -1.790861,4 -4,4 C 3.790861,10 2,8.209139 2,6 2,3.790861 3.790861,2 6,2 z"
     id="path3379" />
  <path
     style="fill:#ffffff;fill-opacity:1;stroke:none"
     d="M 6,2 C 3.790861,2 2,3.790861 2,6 2,8.209139 3.790861,10 6,10 8.209139,10 10,8.209139 10,6 10,3.790861 8.209139,2 6,2 z M 6,4 C 7.1045695,4 8,4.8954305 8,6 8,7.1045695 7.1045695,8 6,8 4.8954305,8 4,7.1045695 4,6 4,4.8954305 4.8954305,4 6,4 z"
     id="path3384" />
  <path
     style="fill:#000000;fill-opacity:1;stroke:none"
     d="M 6,4 C 4.8954305,4 4,4.8954305 4,6 4,7.1045695 4.8954305,8 6,8 7.1045695,8 8,7.1045695 8,6 8,4.8954305 7.1045695,4 6,4 z"
     id="path3391" />
  <path
     id="path3417"
     d="m 20,0 c -3.313709,0 -6,2.6862915 -6,6 0,3.3137085 2.686291,6 6,6 3.313709,0 6,-2.6862915 6,-6 0,-3.3137085 -2.686291,-6 -6,-6 z m 0,2 c 2.209139,0 4,1.790861 4,4 0,2.209139 -1.790861,4 -4,4 -2.209139,0 -4,-1.790861 -4,-4 0,-2.209139 1.790861,-4 4,-4 z"
     style="fill:#000000;fill-opacity:1;stroke:none" />
  <path
     id="path3419"
     d="m 20,2 c -2.209139,0 -4,1.790861 -4,4 0,2.209139 1.790861,4 4,4 2.209139,0 4,-1.790861 4,-4 0,-2.209139 -1.790861,-4 -4,-4 z m 0,2 c 1.10457,0 2,0.8954305 2,2 0,1.1045695 -0.89543,2 -2,2 -1.104569,0 -2,-0.8954305 -2,-2 0,-1.1045695 0.895431,-2 2,-2 z"
     style="fill:#ffffff;fill-opacity:1;stroke:none" />
  <path
     id="path3421"
     d="m 20,4 c -1.104569,0 -2,0.8954305 -2,2 0,1.1045695 0.895431,2 2,2 1.10457,0 2,-0.8954305 2,-2 0,-1.1045695 -0.89543,-2 -2,-2 z"
     style="fill:#000000;fill-opacity:1;stroke:none" />
</svg>
