<?xml version="1.0" encoding="UTF-8" standalone="no"?>
<svg
   xmlns:dc="http://purl.org/dc/elements/1.1/"
   xmlns:cc="http://creativecommons.org/ns#"
   xmlns:rdf="http://www.w3.org/1999/02/22-rdf-syntax-ns#"
   xmlns:svg="http://www.w3.org/2000/svg"
   xmlns="http://www.w3.org/2000/svg"
   xmlns:sodipodi="http://sodipodi.sourceforge.net/DTD/sodipodi-0.dtd"
   xmlns:inkscape="http://www.inkscape.org/namespaces/inkscape"
   version="1.0"
   width="22"
   height="22"
   id="svg2"
   inkscape:version="0.47 r22583"
   sodipodi:docname="02-01-011-01-01-01.svg">
  <defs
     id="defs14">
    <inkscape:perspective
       sodipodi:type="inkscape:persp3d"
       inkscape:vp_x="0 : 5.5 : 1"
       inkscape:vp_y="0 : 1000 : 0"
       inkscape:vp_z="10 : 5.5 : 1"
       inkscape:persp3d-origin="5 : 3.6666667 : 1"
       id="perspective16" />
  </defs>
  <sodipodi:namedview
     pagecolor="#ffffff"
     bordercolor="#666666"
     borderopacity="1"
     objecttolerance="10"
     gridtolerance="10"
     guidetolerance="10"
     inkscape:pageopacity="0"
     inkscape:pageshadow="2"
     inkscape:window-width="917"
     inkscape:window-height="792"
     id="namedview12"
     showgrid="true"
     inkscape:zoom="11.494966"
     inkscape:cx="9.4070896"
     inkscape:cy="11.163866"
     inkscape:window-x="313"
     inkscape:window-y="0"
     inkscape:window-maximized="0"
     inkscape:current-layer="svg2">
    <inkscape:grid
       type="xygrid"
       id="grid2822" />
  </sodipodi:namedview>
  <metadata
     id="metadata4">
Valerie Sutton's pixel definition of the
ISWA 2010 symbol ID 02-01-001-01-01-01
transformed by Stephen E Slevinski Jr
using line and fill polygon tracing
<rdf:RDF>
  <cc:Work
     rdf:about="">
    <dc:format>image/svg+xml</dc:format>
    <dc:type
       rdf:resource="http://purl.org/dc/dcmitype/StillImage" />
    <dc:title></dc:title>
  </cc:Work>
</rdf:RDF>
</metadata>
  <path
     style="fill:#000000;fill-opacity:1;stroke:none"
     d="M 6.0000998,10.000001 C 2.6863911,10.000001 1.002e-4,12.686292 1e-4,16 c -1e-7,3.313709 2.6862914,6.000001 5.9999999,6 3.3137085,0 5.9999991,-2.686291 5.9999991,-6 10e-7,-3.313708 -2.6862906,-6 -5.9999992,-5.999999 z M 6.0001002,12 c 2.2091389,0 3.9999998,1.790861 3.9999998,4 -10e-7,2.20914 -1.7908606,4 -4.0000001,4.000001 -2.2091391,0 -4.0000001,-1.790861 -4.0000002,-4 5e-7,-2.20914 1.7908609,-4 4.0000005,-4.000001 z"
     id="path3379" />
  <path
     style="fill:#ffffff;fill-opacity:1;stroke:none"
     d="m 6.0001002,12 c -2.2091396,10e-7 -4,1.790861 -4.0000005,4.000001 1e-7,2.209139 1.7908611,4 4.0000002,4 C 8.2092394,20 10.000099,18.20914 10.0001,16 c 0,-2.209139 -1.7908609,-4 -3.9999998,-4 z m -3e-7,2.000001 c 1.1045698,-10e-7 2.0000003,0.89543 2,2 C 8.0001005,17.10457 7.10467,18 6.0001,18 c -1.1045698,1e-6 -2.0000003,-0.89543 -2,-2 3e-7,-1.104569 0.8954308,-2 1.9999999,-1.999999 z"
     id="path3384" />
  <path
     style="fill:#000000;fill-opacity:1;stroke:none"
     d="M 6.0000999,14.000001 C 4.8955308,14 4.0001003,14.895431 4.0001,16 c -3e-7,1.10457 0.8954302,2.000001 2,2 1.10457,0 2.0000005,-0.89543 1.9999999,-1.999999 3e-7,-1.10457 -0.8954302,-2.000001 -2,-2 z"
     id="path3391" />
  <path
     id="path3417"
     d="M 16.000001,4.1e-7 C 12.686292,5.5e-7 10,2.6862918 10.000001,6.0000003 10.000001,9.3137091 12.686292,12 16,12 19.313709,12 22,9.3137089 22,6.0000001 22,2.6862915 19.31371,3.6e-7 16.000001,4.1e-7 z M 16,2 c 2.20914,6e-7 4,1.790861 4.000001,4.0000006 0,2.2091389 -1.790861,4.0000004 -4,4.0000004 -2.20914,-1.2e-6 -4,-1.7908612 -4.000001,-4.0000009 C 12,3.7908612 13.790861,2.0000002 16,2 z"
     style="fill:#000000;fill-opacity:1;stroke:none" />
  <path
     id="path3419"
     d="m 16,2 c -2.209139,2e-7 -4,1.7908612 -4,4.0000001 10e-7,2.2091397 1.790861,3.9999997 4.000001,4.0000009 2.209139,0 4,-1.7908615 4,-4.0000004 C 20,3.790861 18.20914,2.0000006 16,2 z m 0,2.0000004 c 1.104571,0 2,0.8954301 2,1.9999999 1e-6,1.1045698 -0.89543,2 -2,2 -1.104568,10e-8 -2,-0.8954308 -2,-1.9999999 0,-1.1045699 0.895432,-1.9999999 2,-2 z"
     style="fill:#ffffff;fill-opacity:1;stroke:none" />
  <path
     id="path3421"
     d="m 16,4.0000004 c -1.104568,10e-8 -2,0.8954301 -2,2 0,1.1045691 0.895432,2 2,1.9999999 1.10457,0 2.000001,-0.8954302 2,-2 0,-1.1045698 -0.895429,-1.9999999 -2,-1.9999999 z"
     style="fill:#000000;fill-opacity:1;stroke:none" />
</svg>
