<?xml version="1.0" encoding="UTF-8" standalone="no"?>
<svg
   xmlns:dc="http://purl.org/dc/elements/1.1/"
   xmlns:cc="http://creativecommons.org/ns#"
   xmlns:rdf="http://www.w3.org/1999/02/22-rdf-syntax-ns#"
   xmlns:svg="http://www.w3.org/2000/svg"
   xmlns="http://www.w3.org/2000/svg"
   xmlns:sodipodi="http://sodipodi.sourceforge.net/DTD/sodipodi-0.dtd"
   xmlns:inkscape="http://www.inkscape.org/namespaces/inkscape"
   version="1.0"
   width="18"
   height="20"
   id="svg2"
   inkscape:version="0.48.2 r9819"
   sodipodi:docname="02-10-006-01-01-04.svg">
  <defs
     id="defs16">
    <inkscape:perspective
       sodipodi:type="inkscape:persp3d"
       inkscape:vp_x="0 : 23 : 1"
       inkscape:vp_y="0 : 1000 : 0"
       inkscape:vp_z="36 : 23 : 1"
       inkscape:persp3d-origin="18 : 15.333333 : 1"
       id="perspective18" />
  </defs>
  <sodipodi:namedview
     pagecolor="#ffffff"
     bordercolor="#666666"
     borderopacity="1"
     objecttolerance="10"
     gridtolerance="10"
     guidetolerance="10"
     inkscape:pageopacity="0"
     inkscape:pageshadow="2"
     inkscape:window-width="964"
     inkscape:window-height="721"
     id="namedview14"
     showgrid="true"
     inkscape:zoom="16.719951"
     inkscape:cx="8.9973279"
     inkscape:cy="9.997031"
     inkscape:window-x="365"
     inkscape:window-y="0"
     inkscape:window-maximized="0"
     inkscape:current-layer="svg2"
     showborder="true">
    <inkscape:grid
       type="xygrid"
       id="grid2824"
       empspacing="5"
       visible="true"
       enabled="true"
       snapvisiblegridlinesonly="true" />
  </sodipodi:namedview>
  <metadata
     id="metadata4">
Valerie Sutton's pixel definition of the
ISWA 2010 symbol ID 04-01-003-01-01-01
transformed by Stephen E Slevinski Jr
using line and fill polygon tracing
<rdf:RDF>
  <cc:Work
     rdf:about="">
    <dc:format>image/svg+xml</dc:format>
    <dc:type
       rdf:resource="http://purl.org/dc/dcmitype/StillImage" />
    <dc:title />
  </cc:Work>
</rdf:RDF>
</metadata>
  <path
     style="fill:#000000;fill-opacity:1;stroke:none"
     d="M 6,14 C 3.2385763,14 1,10.865993 1,7 1,3.134007 3.2385763,0 6,0 c 2.761424,0 5,3.134007 5,7 0,3.865993 -2.238576,7 -5,7 z M 6,12.5 6,7 6,1.5 C 4.067003,1.5 2.5000001,3.962434 2.5,7 c -10e-8,3.037566 1.567003,5.5 3.5,5.5 z"
     id="path2818"
     inkscape:connector-curvature="0" />
  <path
     style="fill:#ffffff;fill-opacity:1;stroke:none"
     d="M 6 1.5 C 4.0670034 1.4999999 2.5000001 3.9624339 2.5 7 C 2.4999999 10.037566 4.0670034 12.5 6 12.5 L 6 7 L 6 1.5 z "
     id="path2826" />
  <path
     style="fill:#000000;fill-opacity:1;stroke:none"
     d="m 18,10 0,8 -8,-8 8,0 z"
     id="path2831" />
  <path
     style="fill:#000000;fill-opacity:1;stroke:none"
     d="m 7,20 c 1.7914562,0 3.570665,-0.695665 4.9375,-2.0625 l 2.84375,-3.15625 -1.375,-1.375 -2.875,3.125 C 9.626428,17.436072 8.3807119,18 7,18 5.619288,18 4.373572,17.436072 3.46875,16.53125 L 1.40625,14.21875 0,15.625 2.0625,17.9375 C 3.429335,19.304335 5.208544,20 7,20 z"
     id="path2833" />
</svg>
