<?xml version="1.0" encoding="UTF-8" standalone="no"?>
<svg
   xmlns:dc="http://purl.org/dc/elements/1.1/"
   xmlns:cc="http://creativecommons.org/ns#"
   xmlns:rdf="http://www.w3.org/1999/02/22-rdf-syntax-ns#"
   xmlns:svg="http://www.w3.org/2000/svg"
   xmlns="http://www.w3.org/2000/svg"
   xmlns:sodipodi="http://sodipodi.sourceforge.net/DTD/sodipodi-0.dtd"
   xmlns:inkscape="http://www.inkscape.org/namespaces/inkscape"
   version="1.0"
   width="20"
   height="18"
   id="svg2"
   inkscape:version="0.48.2 r9819"
   sodipodi:docname="02-10-006-01-02-05.svg">
  <defs
     id="defs16">
    <inkscape:perspective
       sodipodi:type="inkscape:persp3d"
       inkscape:vp_x="0 : 23 : 1"
       inkscape:vp_y="0 : 1000 : 0"
       inkscape:vp_z="36 : 23 : 1"
       inkscape:persp3d-origin="18 : 15.333333 : 1"
       id="perspective18" />
  </defs>
  <sodipodi:namedview
     pagecolor="#ffffff"
     bordercolor="#666666"
     borderopacity="1"
     objecttolerance="10"
     gridtolerance="10"
     guidetolerance="10"
     inkscape:pageopacity="0"
     inkscape:pageshadow="2"
     inkscape:window-width="964"
     inkscape:window-height="721"
     id="namedview14"
     showgrid="true"
     inkscape:zoom="16.178792"
     inkscape:cx="10.004043"
     inkscape:cy="9.0036384"
     inkscape:window-x="365"
     inkscape:window-y="0"
     inkscape:window-maximized="0"
     inkscape:current-layer="svg2"
     showborder="true">
    <inkscape:grid
       type="xygrid"
       id="grid2824"
       empspacing="5"
       visible="true"
       enabled="true"
       snapvisiblegridlinesonly="true" />
  </sodipodi:namedview>
  <metadata
     id="metadata4">
Valerie Sutton's pixel definition of the
ISWA 2010 symbol ID 04-01-003-01-01-01
transformed by Stephen E Slevinski Jr
using line and fill polygon tracing
<rdf:RDF>
  <cc:Work
     rdf:about="">
    <dc:format>image/svg+xml</dc:format>
    <dc:type
       rdf:resource="http://purl.org/dc/dcmitype/StillImage" />
    <dc:title />
  </cc:Work>
</rdf:RDF>
</metadata>
  <path
     style="fill:#000000;fill-opacity:1;stroke:none"
     d="m 6,6 c 0,-2.7614237 3.134007,-5 7,-5 3.865993,0 7,2.2385763 7,5 0,2.761424 -3.134007,5 -7,5 C 9.134007,11 6,8.761424 6,6 z M 7.5,6 13,6 18.5,6 C 18.5,4.067003 16.037566,2.5 13,2.5 9.962434,2.5 7.5,4.067003 7.5,6 z"
     id="path2818"
     inkscape:connector-curvature="0" />
  <path
     style="fill:#ffffff;fill-opacity:1;stroke:none"
     d="M 13,2.5 C 9.9624339,2.4999999 7.5000001,4.067003 7.5,6 L 13,6 18.5,6 C 18.5,4.067003 16.037566,2.5000001 13,2.5 z"
     id="path2826"
     inkscape:connector-curvature="0" />
  <path
     style="fill:#000000;fill-opacity:1;stroke:none"
     d="m 10,10 -8,8 8,0 0,-8 z M 9,12.40625 9,17 4.4375,17 9,12.40625 z"
     id="path2831"
     inkscape:connector-curvature="0" />
  <path
     style="fill:#000000;fill-opacity:1;stroke:none"
     d="m 0,7 c 0,1.7914562 0.695665,3.570665 2.0625,4.9375 l 3.15625,2.84375 1.375,-1.375 -3.125,-2.875 C 2.563928,9.626428 2,8.3807119 2,7 2,5.619288 2.563928,4.373572 3.46875,3.46875 L 5.78125,1.40625 4.375,0 2.0625,2.0625 C 0.695665,3.429335 0,5.208544 0,7 z"
     id="path2833"
     inkscape:connector-curvature="0" />
  <path
     style="fill:#ffffff;fill-opacity:1;stroke:none"
     d="M 9,12.40625 4.4375,17 9,17 9,12.40625 z"
     id="path3125"
     inkscape:connector-curvature="0" />
</svg>
