<?xml version="1.0" encoding="UTF-8" standalone="no"?>
<svg
   xmlns:dc="http://purl.org/dc/elements/1.1/"
   xmlns:cc="http://creativecommons.org/ns#"
   xmlns:rdf="http://www.w3.org/1999/02/22-rdf-syntax-ns#"
   xmlns:svg="http://www.w3.org/2000/svg"
   xmlns="http://www.w3.org/2000/svg"
   xmlns:sodipodi="http://sodipodi.sourceforge.net/DTD/sodipodi-0.dtd"
   xmlns:inkscape="http://www.inkscape.org/namespaces/inkscape"
   version="1.0"
   width="18"
   height="20"
   id="svg2"
   inkscape:version="0.47 r22583"
   sodipodi:docname="02-10-005-01-01-01.svg">
  <defs
     id="defs16">
    <inkscape:perspective
       sodipodi:type="inkscape:persp3d"
       inkscape:vp_x="0 : 23 : 1"
       inkscape:vp_y="0 : 1000 : 0"
       inkscape:vp_z="36 : 23 : 1"
       inkscape:persp3d-origin="18 : 15.333333 : 1"
       id="perspective18" />
  </defs>
  <sodipodi:namedview
     pagecolor="#ffffff"
     bordercolor="#666666"
     borderopacity="1"
     objecttolerance="10"
     gridtolerance="10"
     guidetolerance="10"
     inkscape:pageopacity="0"
     inkscape:pageshadow="2"
     inkscape:window-width="964"
     inkscape:window-height="721"
     id="namedview14"
     showgrid="true"
     inkscape:zoom="16.719951"
     inkscape:cx="8.9973279"
     inkscape:cy="9.997031"
     inkscape:window-x="365"
     inkscape:window-y="0"
     inkscape:window-maximized="0"
     inkscape:current-layer="svg2"
     showborder="true">
    <inkscape:grid
       type="xygrid"
       id="grid2824"
       empspacing="5"
       visible="true"
       enabled="true"
       snapvisiblegridlinesonly="true" />
  </sodipodi:namedview>
  <metadata
     id="metadata4">
Valerie Sutton's pixel definition of the
ISWA 2010 symbol ID 04-01-003-01-01-01
transformed by Stephen E Slevinski Jr
using line and fill polygon tracing
<rdf:RDF>
  <cc:Work
     rdf:about="">
    <dc:format>image/svg+xml</dc:format>
    <dc:type
       rdf:resource="http://purl.org/dc/dcmitype/StillImage" />
    <dc:title></dc:title>
  </cc:Work>
</rdf:RDF>
</metadata>
  <path
     style="fill:#000000;fill-opacity:1;stroke:none"
     d="M 12 6 C 9.2385763 6 7 9.1340068 7 13 C 7 16.865993 9.2385763 20 12 20 C 14.761424 20 17 16.865993 17 13 C 17 9.1340068 14.761424 6 12 6 z M 12 7.5 L 12 13 L 12 18.5 C 10.067003 18.5 8.5000001 16.037566 8.5 13 C 8.4999999 9.9624339 10.067003 7.5000001 12 7.5 z "
     id="path2818" />
  <path
     sodipodi:type="arc"
     style="fill:#ffffff;fill-opacity:1;stroke:none"
     id="path2826"
     sodipodi:cx="11.5"
     sodipodi:cy="13.5"
     sodipodi:rx="3.5"
     sodipodi:ry="5.5"
     d="m 11.5,19 a 3.5,5.5 0 1 1 0,-11 l 0,5.5 z"
     sodipodi:start="1.5707963"
     sodipodi:end="4.712389"
     transform="translate(0.5,-0.5)" />
  <path
     style="fill:#000000;fill-opacity:1;stroke:none"
     d="M 0,10 0,2 8,10 0,10 z"
     id="path2831" />
  <path
     style="fill:#000000;fill-opacity:1;stroke:none"
     d="M 11 0 C 9.2085438 5.4432841e-08 7.429335 0.69566498 6.0625 2.0625 L 3.21875 5.21875 L 4.59375 6.59375 L 7.46875 3.46875 C 8.373572 2.563928 9.6192881 2 11 2 C 12.380712 2 13.626428 2.563928 14.53125 3.46875 L 16.59375 5.78125 L 18 4.375 L 15.9375 2.0625 C 14.570665 0.69566506 12.791456 -5.4432841e-08 11 0 z "
     id="path2833" />
</svg>
