<?xml version="1.0" encoding="UTF-8" standalone="no"?>
<svg
   xmlns:dc="http://purl.org/dc/elements/1.1/"
   xmlns:cc="http://creativecommons.org/ns#"
   xmlns:rdf="http://www.w3.org/1999/02/22-rdf-syntax-ns#"
   xmlns:svg="http://www.w3.org/2000/svg"
   xmlns="http://www.w3.org/2000/svg"
   xmlns:sodipodi="http://sodipodi.sourceforge.net/DTD/sodipodi-0.dtd"
   xmlns:inkscape="http://www.inkscape.org/namespaces/inkscape"
   version="1.0"
   width="35"
   height="35"
   id="svg2"
   inkscape:version="0.47 r22583"
   sodipodi:docname="04-04-004-01-01-01.svg">
  <defs
     id="defs14">
    <inkscape:perspective
       sodipodi:type="inkscape:persp3d"
       inkscape:vp_x="0 : 17.5 : 1"
       inkscape:vp_y="0 : 1000 : 0"
       inkscape:vp_z="36 : 17.5 : 1"
       inkscape:persp3d-origin="18 : 11.666667 : 1"
       id="perspective16" />
  </defs>
  <sodipodi:namedview
     pagecolor="#ffffff"
     bordercolor="#666666"
     borderopacity="1"
     objecttolerance="10"
     gridtolerance="10"
     guidetolerance="10"
     inkscape:pageopacity="0"
     inkscape:pageshadow="2"
     inkscape:window-width="993"
     inkscape:window-height="789"
     id="namedview12"
     showgrid="true"
     inkscape:zoom="15.487127"
     inkscape:cx="18"
     inkscape:cy="17.5"
     inkscape:window-x="209"
     inkscape:window-y="0"
     inkscape:window-maximized="0"
     inkscape:current-layer="svg2"
     showguides="true"
     inkscape:guide-bbox="true">
    <inkscape:grid
       type="xygrid"
       id="grid2822" />
  </sodipodi:namedview>
  <metadata
     id="metadata4">
Valerie Sutton's pixel definition of the
ISWA 2010 symbol ID 04-03-001-01-01-01
transformed by Stephen E Slevinski Jr
using line and fill polygon tracing
<rdf:RDF>
  <cc:Work
     rdf:about="">
    <dc:format>image/svg+xml</dc:format>
    <dc:type
       rdf:resource="http://purl.org/dc/dcmitype/StillImage" />
    <dc:title></dc:title>
  </cc:Work>
</rdf:RDF>
</metadata>
  <path
     style="fill:#000000;fill-opacity:1;stroke:none"
     d="M 17.5 0 C 7.8350169 4.7369516e-15 1.087327e-16 7.8350169 0 17.5 C 0 27.164983 7.8350169 35 17.5 35 C 27.164983 35 35 27.164983 35 17.5 C 35 7.8350169 27.164983 -3.443981e-15 17.5 0 z M 17.5 2 C 26.060414 2 33 8.9395864 33 17.5 C 33 26.060414 26.060414 33 17.5 33 C 8.9395864 33 2 26.060414 2 17.5 C 2 8.9395864 8.9395864 2 17.5 2 z "
     id="path2824" />
  <path
     style="fill:#000000;fill-opacity:1;stroke:none"
     d="m 17.5,21 c -1.932997,0 -3.5,1.343146 -3.5,3 0,1.656854 1.567003,3 3.5,3 1.932997,0 3.5,-1.343146 3.5,-3 0,-1.656854 -1.567003,-3 -3.5,-3 z m 0,1 c 1.380712,0 2.5,0.895431 2.5,2 0,1.104569 -1.119288,2 -2.5,2 -1.380712,0 -2.5,-0.895431 -2.5,-2 0,-1.104569 1.119288,-2 2.5,-2 z"
     id="path2840" />
  <path
     style="fill:#000000;fill-opacity:1;stroke:none"
     d="M 17 17 L 17 21.03125 C 17.161436 21.011696 17.332268 21 17.5 21 C 17.667732 21 17.838564 21.011696 18 21.03125 L 18 17 L 17 17 z M 12.90625 18.6875 L 12.1875 19.40625 L 14.84375 22.0625 C 15.08223 21.821585 15.341037 21.60407 15.65625 21.4375 L 12.90625 18.6875 z M 22.09375 18.6875 L 19.34375 21.4375 C 19.658963 21.60407 19.91777 21.821585 20.15625 22.0625 L 22.8125 19.40625 L 22.09375 18.6875 z M 10.5 23.5 L 10.5 24.5 L 14.0625 24.5 C 14.029041 24.333425 14 24.174764 14 24 C 14 23.825236 14.029041 23.666575 14.0625 23.5 L 10.5 23.5 z M 20.9375 23.5 C 20.970959 23.666575 21 23.825236 21 24 C 21 24.174764 20.970959 24.333425 20.9375 24.5 L 24.5 24.5 L 24.5 23.5 L 20.9375 23.5 z M 14.84375 25.9375 L 12.1875 28.59375 L 12.90625 29.3125 L 15.65625 26.5625 C 15.341037 26.39593 15.08223 26.178415 14.84375 25.9375 z M 20.15625 25.9375 C 19.91777 26.178415 19.658963 26.39593 19.34375 26.5625 L 22.09375 29.3125 L 22.8125 28.59375 L 20.15625 25.9375 z M 17 26.96875 L 17 31 L 18 31 L 18 26.96875 C 17.838564 26.988304 17.667732 27 17.5 27 C 17.332268 27 17.161436 26.988304 17 26.96875 z "
     id="rect2845" />
</svg>
