<?xml version="1.0" encoding="UTF-8" standalone="no"?>
<!-- Created with Inkscape (http://www.inkscape.org/) -->

<svg
   xmlns:dc="http://purl.org/dc/elements/1.1/"
   xmlns:cc="http://creativecommons.org/ns#"
   xmlns:rdf="http://www.w3.org/1999/02/22-rdf-syntax-ns#"
   xmlns:svg="http://www.w3.org/2000/svg"
   xmlns="http://www.w3.org/2000/svg"
   xmlns:sodipodi="http://sodipodi.sourceforge.net/DTD/sodipodi-0.dtd"
   xmlns:inkscape="http://www.inkscape.org/namespaces/inkscape"
   width="19"
   height="19"
   id="svg3198"
   sodipodi:version="0.32"
   inkscape:version="0.47 r22583"
   version="1.0"
   sodipodi:docname="01-06-018-01-02.svg"
   inkscape:output_extension="org.inkscape.output.svg.inkscape">
  <defs
     id="defs3200">
    <inkscape:perspective
       sodipodi:type="inkscape:persp3d"
       inkscape:vp_x="0 : 526.18109 : 1"
       inkscape:vp_y="0 : 1000 : 0"
       inkscape:vp_z="744.09448 : 526.18109 : 1"
       inkscape:persp3d-origin="372.04724 : 350.78739 : 1"
       id="perspective3206" />
  </defs>
  <sodipodi:namedview
     id="namedview3727"
     pagecolor="#ffffff"
     bordercolor="#666666"
     borderopacity="1.0"
     gridtolerance="10000"
     guidetolerance="10"
     objecttolerance="10"
     inkscape:pageopacity="0.0"
     inkscape:pageshadow="2"
     inkscape:zoom="22.627417"
     inkscape:cx="11.020539"
     inkscape:cy="9.4905967"
     inkscape:document-units="px"
     inkscape:current-layer="svg3198"
     showgrid="true"
     inkscape:window-width="1099"
     inkscape:window-height="780"
     inkscape:window-x="4"
     inkscape:window-y="0"
     showborder="false"
     inkscape:window-maximized="0">
    <inkscape:grid
       type="xygrid"
       id="grid3208"
       visible="true"
       enabled="true"
       empspacing="5"
       snapvisiblegridlinesonly="true" />
  </sodipodi:namedview>
  <metadata
     id="metadata3203">
    <rdf:RDF>
      <cc:Work
         rdf:about="">
        <dc:format>image/svg+xml</dc:format>
        <dc:type
           rdf:resource="http://purl.org/dc/dcmitype/StillImage" />
        <dc:title></dc:title>
      </cc:Work>
    </rdf:RDF>
  </metadata>
  <g
     inkscape:label="Layer 1"
     inkscape:groupmode="layer"
     id="">
    <rect
       style="fill:#000000;fill-opacity:1;stroke:none"
       id="base"
       width="15"
       height="15"
       x="0"
       y="4" />
    <path
       style="fill:#ffffff;fill-opacity:1;stroke:none"
       d="M 15.75 1.5625 C 15.522124 1.541784 15.265165 1.6098349 15 1.875 C 15 1.875 14.838388 2.0678617 14.75 2.15625 L 12.875 4 L 15 6.125 L 17.125 4 C 17.125 4 17.832107 3.3008568 17.125 2.59375 C 16.771447 2.240197 16.78661 2.224112 16.875 2.3125 L 16.40625 1.875 C 16.40625 1.875 16.129794 1.597027 15.75 1.5625 z "
       id="fill" />
    <path
       style="fill:#000000;fill-opacity:1;stroke:none"
       d="m 17.831461,1.8791458 c 0,0 1.414213,1.4142135 0,2.8284271 L 15.003034,7.536 11.467499,4.0004661 14.295927,1.172039 c 0,0 1.414213,-1.41421359 2.828427,0 l 0.707107,0.7071068 z M 17.124354,2.5862525 16.417247,1.8791458 c 0,0 -0.707107,-0.7071068 -1.414213,0 l -2.121321,2.1213203 2.121321,2.1213203 2.12132,-2.1213203 c 0,0 0.707107,-0.7071068 0,-1.4142136 z"
       id="baby" />
  </g>
</svg>
