<?xml version="1.0" encoding="UTF-8" standalone="no"?>
<svg
   xmlns:dc="http://purl.org/dc/elements/1.1/"
   xmlns:cc="http://creativecommons.org/ns#"
   xmlns:rdf="http://www.w3.org/1999/02/22-rdf-syntax-ns#"
   xmlns:svg="http://www.w3.org/2000/svg"
   xmlns="http://www.w3.org/2000/svg"
   xmlns:sodipodi="http://sodipodi.sourceforge.net/DTD/sodipodi-0.dtd"
   xmlns:inkscape="http://www.inkscape.org/namespaces/inkscape"
   version="1.0"
   width="13"
   height="32"
   id="svg2"
   inkscape:version="0.47 r22583"
   sodipodi:docname="02-06-006-02-02-01.svg">
  <defs
     id="defs16">
    <inkscape:perspective
       sodipodi:type="inkscape:persp3d"
       inkscape:vp_x="0 : 23 : 1"
       inkscape:vp_y="0 : 1000 : 0"
       inkscape:vp_z="36 : 23 : 1"
       inkscape:persp3d-origin="18 : 15.333333 : 1"
       id="perspective18" />
  </defs>
  <sodipodi:namedview
     pagecolor="#ffffff"
     bordercolor="#666666"
     borderopacity="1"
     objecttolerance="10"
     gridtolerance="10"
     guidetolerance="10"
     inkscape:pageopacity="0"
     inkscape:pageshadow="2"
     inkscape:window-width="964"
     inkscape:window-height="721"
     id="namedview14"
     showgrid="true"
     inkscape:zoom="14.78125"
     inkscape:cx="6.5"
     inkscape:cy="16"
     inkscape:window-x="365"
     inkscape:window-y="0"
     inkscape:window-maximized="0"
     inkscape:current-layer="svg2"
     showborder="true">
    <inkscape:grid
       type="xygrid"
       id="grid2824"
       empspacing="5"
       visible="true"
       enabled="true"
       snapvisiblegridlinesonly="true" />
  </sodipodi:namedview>
  <metadata
     id="metadata4">
Valerie Sutton's pixel definition of the
ISWA 2010 symbol ID 04-01-003-01-01-01
transformed by Stephen E Slevinski Jr
using line and fill polygon tracing
<rdf:RDF>
  <cc:Work
     rdf:about="">
    <dc:format>image/svg+xml</dc:format>
    <dc:type
       rdf:resource="http://purl.org/dc/dcmitype/StillImage" />
    <dc:title></dc:title>
  </cc:Work>
</rdf:RDF>
</metadata>
  <path
     style="fill:#000000;fill-opacity:1;stroke:none"
     d="m 2.59375,4.40625 -1.0625,1.0625 3.75,3.75 C 5.733661,9.671161 6,10.309644 6,11 6,11.690356 5.733661,12.328839 5.28125,12.78125 l -2.5,2.5 C 1.062088,17.000412 0,19.376647 0,22 c 0,2.623352 1.062088,4.999588 2.78125,6.71875 L 6.0625,32 7.125,30.9375 3.84375,27.65625 C 2.396035,26.208535 1.5,24.209139 1.5,22 c 0,-2.209139 0.896035,-4.208535 2.34375,-5.65625 l 2.5,-2.5 C 7.0676076,13.119892 7.5,12.10457 7.5,11 7.5,9.89543 7.0676076,8.880108 6.34375,8.15625 l -3.75,-3.75 z"
     id="path3088" />
  <path
     style="fill:#ffffff;fill-opacity:1;stroke:none"
     d="m 5.40625,1.59375 -2.8125,2.8125 3.75,3.75 C 7.0676076,8.880108 7.5,9.89543 7.5,11 c 0,1.10457 -0.4323924,2.119892 -1.15625,2.84375 l -2.5,2.5 C 2.396035,17.791465 1.5,19.790861 1.5,22 c 0,2.209139 0.896035,4.208535 2.34375,5.65625 L 7.125,30.9375 9.9375,28.125 6.65625,24.84375 C 5.9323924,24.119892 5.5,23.10457 5.5,22 c 0,-1.10457 0.4323924,-2.119892 1.15625,-2.84375 l 2.5,-2.5 C 10.603965,15.208535 11.5,13.209139 11.5,11 11.5,8.790861 10.603965,6.7914652 9.15625,5.34375 l -3.75,-3.75 z"
     id="path3086" />
  <path
     style="fill:#000000;fill-opacity:1;stroke:none"
     d="m 6.46875,0.53125 -1.0625,1.0625 3.75,3.75 C 10.603965,6.7914652 11.5,8.790861 11.5,11 c 0,2.209139 -0.896035,4.208535 -2.34375,5.65625 l -2.5,2.5 C 5.9323924,19.880108 5.5,20.89543 5.5,22 c 0,1.10457 0.4323924,2.119892 1.15625,2.84375 L 9.9375,28.125 11,27.0625 7.71875,23.78125 C 7.266339,23.328839 7,22.690356 7,22 7,21.309644 7.266339,20.671161 7.71875,20.21875 l 2.5,-2.5 C 11.937912,15.999588 13,13.623352 13,11 13,8.376647 11.937912,6.0004119 10.21875,4.28125 l -3.75,-3.75 z"
     id="rect3055" />
</svg>
