<?xml version="1.0" encoding="UTF-8" standalone="no"?>
<svg
   xmlns:dc="http://purl.org/dc/elements/1.1/"
   xmlns:cc="http://creativecommons.org/ns#"
   xmlns:rdf="http://www.w3.org/1999/02/22-rdf-syntax-ns#"
   xmlns:svg="http://www.w3.org/2000/svg"
   xmlns="http://www.w3.org/2000/svg"
   xmlns:sodipodi="http://sodipodi.sourceforge.net/DTD/sodipodi-0.dtd"
   xmlns:inkscape="http://www.inkscape.org/namespaces/inkscape"
   version="1.0"
   width="37"
   height="43"
   id="svg2"
   inkscape:version="0.47 r22583"
   sodipodi:docname="02-02-009-02-04-01.svg">
  <defs
     id="defs14">
    <inkscape:perspective
       sodipodi:type="inkscape:persp3d"
       inkscape:vp_x="0 : 5.5 : 1"
       inkscape:vp_y="0 : 1000 : 0"
       inkscape:vp_z="10 : 5.5 : 1"
       inkscape:persp3d-origin="5 : 3.6666667 : 1"
       id="perspective16" />
  </defs>
  <sodipodi:namedview
     pagecolor="#ffffff"
     bordercolor="#666666"
     borderopacity="1"
     objecttolerance="10"
     gridtolerance="10"
     guidetolerance="10"
     inkscape:pageopacity="0"
     inkscape:pageshadow="2"
     inkscape:window-width="917"
     inkscape:window-height="792"
     id="namedview12"
     showgrid="true"
     inkscape:zoom="10.73921"
     inkscape:cx="18.827244"
     inkscape:cy="24.149926"
     inkscape:window-x="313"
     inkscape:window-y="0"
     inkscape:window-maximized="0"
     inkscape:current-layer="svg2">
    <inkscape:grid
       type="xygrid"
       id="grid2822" />
  </sodipodi:namedview>
  <metadata
     id="metadata4">
Valerie Sutton's pixel definition of the
ISWA 2010 symbol ID 02-01-001-01-01-01
transformed by Stephen E Slevinski Jr
using line and fill polygon tracing
<rdf:RDF>
  <cc:Work
     rdf:about="">
    <dc:format>image/svg+xml</dc:format>
    <dc:type
       rdf:resource="http://purl.org/dc/dcmitype/StillImage" />
    <dc:title></dc:title>
  </cc:Work>
</rdf:RDF>
</metadata>
  <path
     style="fill:#000000;fill-opacity:1;stroke:none"
     d="m 29.698485,23.384776 5.656859,5.656857 1.414213,-1.414214 -4.242641,-4.24264 4.242641,-4.24264 -1.414214,-1.414214 -5.656858,5.656851 z"
     id="rect2814" />
  <path
     style="fill:#000000;fill-opacity:1;stroke:none"
     d="M 5.7187516,0.7187495 5.0000006,-4e-7 l -5,4.9999999 5,5.0000002 0.718751,-0.7187507 -4.281251,-4.2812495 4.281251,-4.28125 z"
     id="path3820" />
  <path
     style="fill:#000000;fill-opacity:1;stroke:none"
     d="m 25,11.999999 7.999999,0 10e-7,-2.0000003 -6,-5e-7 0,-5.999999 -2,-7e-7 0,8.0000005 z"
     id="rect3641" />
  <path
     style="fill:#000000;fill-opacity:1;stroke:none"
     d="m 23.999998,42.999997 2.000002,2e-6 0,-6.000001 5.999999,2e-6 0,-2.000002 L 24,35 l -2e-6,7.999997 z"
     id="rect3679" />
  <path
     style="fill:#000000;fill-opacity:1;stroke:none"
     d="M 13.43503,7.1213198 7.7781766,1.4644658 9.1923886,0.0502526 13.43503,4.2928927 17.677671,0.0502517 19.091884,1.4644654 13.43503,7.1213198 z"
     id="path3808" />
  <path
     style="fill:#000000;fill-opacity:1;stroke:none"
     d="M 8.40625,3.5 C 7.250037,3.699444 6.093779,3.9366119 5,4.25 L 5,5.3125 C 6.376026,4.9049095 7.803349,4.5993087 9.28125,4.375 L 8.40625,3.5 z M 18.4375,3.53125 17.625,4.34375 c 2.304828,0.4435397 4.451281,1.3062924 6.375,2.5 L 24,5.6875 C 22.29672,4.7044722 20.411469,3.9809632 18.4375,3.53125 z M 30.125,13 c 1.143311,1.845222 1.978856,3.896943 2.4375,6.09375 L 33.40625,18.25 C 32.947091,16.384989 32.217335,14.62312 31.28125,13 L 30.125,13 z m 2.3125,14.53125 C 31.858798,29.895675 30.837246,32.072664 29.46875,34 l 1.1875,0 c 1.132094,-1.720939 2.029286,-3.622376 2.59375,-5.65625 l -0.8125,-0.8125 z M 23,39.75 c -1.684926,0.910127 -3.522527,1.572683 -5.46875,1.9375 l 0.25,0.96875 C 19.625894,42.304254 21.373978,41.700625 23,40.875 l 0,-1.125 z"
     id="path3958" />
</svg>
