<?xml version="1.0" encoding="UTF-8" standalone="no"?>
<svg
   xmlns:dc="http://purl.org/dc/elements/1.1/"
   xmlns:cc="http://creativecommons.org/ns#"
   xmlns:rdf="http://www.w3.org/1999/02/22-rdf-syntax-ns#"
   xmlns:svg="http://www.w3.org/2000/svg"
   xmlns="http://www.w3.org/2000/svg"
   xmlns:sodipodi="http://sodipodi.sourceforge.net/DTD/sodipodi-0.dtd"
   xmlns:inkscape="http://www.inkscape.org/namespaces/inkscape"
   version="1.0"
   width="17"
   height="30"
   id="svg2"
   inkscape:version="0.47 r22583"
   sodipodi:docname="02-02-009-02-01-01.svg">
  <defs
     id="defs14">
    <inkscape:perspective
       sodipodi:type="inkscape:persp3d"
       inkscape:vp_x="0 : 5.5 : 1"
       inkscape:vp_y="0 : 1000 : 0"
       inkscape:vp_z="10 : 5.5 : 1"
       inkscape:persp3d-origin="5 : 3.6666667 : 1"
       id="perspective16" />
  </defs>
  <sodipodi:namedview
     pagecolor="#ffffff"
     bordercolor="#666666"
     borderopacity="1"
     objecttolerance="10"
     gridtolerance="10"
     guidetolerance="10"
     inkscape:pageopacity="0"
     inkscape:pageshadow="2"
     inkscape:window-width="917"
     inkscape:window-height="792"
     id="namedview12"
     showgrid="true"
     inkscape:zoom="14.179563"
     inkscape:cx="9.1055414"
     inkscape:cy="14.365811"
     inkscape:window-x="313"
     inkscape:window-y="0"
     inkscape:window-maximized="0"
     inkscape:current-layer="svg2">
    <inkscape:grid
       type="xygrid"
       id="grid2822" />
  </sodipodi:namedview>
  <metadata
     id="metadata4">
Valerie Sutton's pixel definition of the
ISWA 2010 symbol ID 02-01-001-01-01-01
transformed by Stephen E Slevinski Jr
using line and fill polygon tracing
<rdf:RDF>
  <cc:Work
     rdf:about="">
    <dc:format>image/svg+xml</dc:format>
    <dc:type
       rdf:resource="http://purl.org/dc/dcmitype/StillImage" />
    <dc:title></dc:title>
  </cc:Work>
</rdf:RDF>
</metadata>
  <path
     style="fill:#000000;fill-opacity:1;stroke:none"
     d="m 9.727921,19.627415 5.656854,5.656854 1.414214,-1.414213 -4.24264,-4.242641 4.24264,-4.24264 -1.414213,-1.414214 -5.656855,5.656854 z"
     id="rect3641" />
  <path
     style="fill:#000000;fill-opacity:1;stroke:none"
     d="M 5,8 5,4e-7 6.999999,-5e-7 7,5.9999996 l 6,0 L 13,7.999999 5,8 z"
     id="path3808" />
  <path
     style="fill:#000000;fill-opacity:1;stroke:none"
     d="m 1.062499,-1e-6 -0.75,0.75 c 1.261208,0.6847873 2.483856,1.4885764 3.6875,2.375 l 0,-1.25 C 3.041405,1.1984611 2.057517,0.5518187 1.062499,-1e-6 z m 8.875,9 c 1.31613,1.94339 2.202554,4.076897 2.71875,6.28125 l 0.84375,-0.8125 c -0.509295,-1.899507 -1.359689,-3.754948 -2.4375,-5.46875 l -1.125,0 z m 2.71875,14.96875 c -0.45245,1.926403 -1.21905,3.793974 -2.28125,5.53125 l 0.875,0.5 c 0.994088,-1.643436 1.732943,-3.409118 2.21875,-5.21875 l -0.8125,-0.8125 z"
     id="path3958" />
</svg>
