<?xml version="1.0" encoding="UTF-8" standalone="no"?>
<svg
   xmlns:dc="http://purl.org/dc/elements/1.1/"
   xmlns:cc="http://creativecommons.org/ns#"
   xmlns:rdf="http://www.w3.org/1999/02/22-rdf-syntax-ns#"
   xmlns:svg="http://www.w3.org/2000/svg"
   xmlns="http://www.w3.org/2000/svg"
   xmlns:sodipodi="http://sodipodi.sourceforge.net/DTD/sodipodi-0.dtd"
   xmlns:inkscape="http://www.inkscape.org/namespaces/inkscape"
   version="1.0"
   width="15"
   height="14"
   id="svg2"
   inkscape:version="0.47 r22583"
   sodipodi:docname="04-04-004-02-02-01.svg">
  <defs
     id="defs14">
    <inkscape:perspective
       sodipodi:type="inkscape:persp3d"
       inkscape:vp_x="0 : 17.5 : 1"
       inkscape:vp_y="0 : 1000 : 0"
       inkscape:vp_z="36 : 17.5 : 1"
       inkscape:persp3d-origin="18 : 11.666667 : 1"
       id="perspective16" />
  </defs>
  <sodipodi:namedview
     pagecolor="#ffffff"
     bordercolor="#666666"
     borderopacity="1"
     objecttolerance="10"
     gridtolerance="10"
     guidetolerance="10"
     inkscape:pageopacity="0"
     inkscape:pageshadow="2"
     inkscape:window-width="993"
     inkscape:window-height="789"
     id="namedview12"
     showgrid="true"
     inkscape:zoom="15.487127"
     inkscape:cx="7.6688392"
     inkscape:cy="2.0032587"
     inkscape:window-x="209"
     inkscape:window-y="0"
     inkscape:window-maximized="0"
     inkscape:current-layer="svg2"
     showguides="true"
     inkscape:guide-bbox="true">
    <inkscape:grid
       type="xygrid"
       id="grid2822" />
  </sodipodi:namedview>
  <metadata
     id="metadata4">
Valerie Sutton's pixel definition of the
ISWA 2010 symbol ID 04-03-001-01-01-01
transformed by Stephen E Slevinski Jr
using line and fill polygon tracing
<rdf:RDF>
  <cc:Work
     rdf:about="">
    <dc:format>image/svg+xml</dc:format>
    <dc:type
       rdf:resource="http://purl.org/dc/dcmitype/StillImage" />
    <dc:title></dc:title>
  </cc:Work>
</rdf:RDF>
</metadata>
  <path
     style="fill:#000000;fill-opacity:1;stroke:none"
     d="M 7,0 7,4.03125 C 7.161436,4.011696 7.332268,4 7.5,4 7.667732,4 7.838564,4.0117 8,4.03125 L 8,0 7,0 z M 2.90625,1.6875 2.1875,2.40625 4.84375,5.0625 C 5.08223,4.821585 5.341037,4.60407 5.65625,4.4375 l -2.75,-2.75 z m 9.1875,0 -2.75,2.75 c 0.315213,0.16657 0.57402,0.384085 0.8125,0.625 L 12.8125,2.40625 12.09375,1.6875 z M 0.5,6.5 l 0,1 3.5625,0 C 4.029041,7.333425 4,7.174764 4,7 4,6.825236 4.02904,6.666575 4.0625,6.5 L 0.5,6.5 z m 10.4375,0 C 10.970959,6.666575 11,6.825236 11,7 11,7.174764 10.97096,7.333425 10.9375,7.5 l 3.5625,0 0,-1 -3.5625,0 z m -6.09375,2.4375 -2.65625,2.65625 0.71875,0.71875 2.75,-2.75 C 5.341037,9.39593 5.08223,9.178415 4.84375,8.9375 z m 5.3125,0 C 9.91777,9.178415 9.658963,9.39593 9.34375,9.5625 l 2.75,2.75 L 12.8125,11.59375 10.15625,8.9375 z M 7,9.96875 7,14 8,14 8,9.96875 C 7.838564,9.988304 7.667732,10 7.5,10 7.332268,10 7.161436,9.988304 7,9.96875 z"
     id="path2870" />
  <path
     style="fill:#000000;fill-opacity:1;stroke:none"
     d="M 7.5,4 C 5.567003,4 4,5.343146 4,7 4,8.656854 5.567003,10 7.5,10 9.432997,10 11,8.656854 11,7 11,5.343146 9.432997,4 7.5,4 z m 0,1 C 8.880712,5 10,5.895431 10,7 10,8.104569 8.880712,9 7.5,9 6.119288,9 5,8.104569 5,7 5,5.895431 6.119288,5 7.5,5 z"
     id="path2935" />
</svg>
