<?xml version="1.0" encoding="UTF-8" standalone="no"?>
<svg
   xmlns:dc="http://purl.org/dc/elements/1.1/"
   xmlns:cc="http://creativecommons.org/ns#"
   xmlns:rdf="http://www.w3.org/1999/02/22-rdf-syntax-ns#"
   xmlns:svg="http://www.w3.org/2000/svg"
   xmlns="http://www.w3.org/2000/svg"
   xmlns:sodipodi="http://sodipodi.sourceforge.net/DTD/sodipodi-0.dtd"
   xmlns:inkscape="http://www.inkscape.org/namespaces/inkscape"
   version="1.0"
   width="27"
   height="28"
   id="svg2"
   inkscape:version="0.47 r22583"
   sodipodi:docname="02-01-015-01-01-01.svg">
  <defs
     id="defs14">
    <inkscape:perspective
       sodipodi:type="inkscape:persp3d"
       inkscape:vp_x="0 : 5.5 : 1"
       inkscape:vp_y="0 : 1000 : 0"
       inkscape:vp_z="10 : 5.5 : 1"
       inkscape:persp3d-origin="5 : 3.6666667 : 1"
       id="perspective16" />
  </defs>
  <sodipodi:namedview
     pagecolor="#ffffff"
     bordercolor="#666666"
     borderopacity="1"
     objecttolerance="10"
     gridtolerance="10"
     guidetolerance="10"
     inkscape:pageopacity="0"
     inkscape:pageshadow="2"
     inkscape:window-width="917"
     inkscape:window-height="792"
     id="namedview12"
     showgrid="true"
     inkscape:zoom="11.494966"
     inkscape:cx="9.4070897"
     inkscape:cy="7.6840816"
     inkscape:window-x="313"
     inkscape:window-y="0"
     inkscape:window-maximized="0"
     inkscape:current-layer="svg2">
    <inkscape:grid
       type="xygrid"
       id="grid2822" />
  </sodipodi:namedview>
  <metadata
     id="metadata4">
Valerie Sutton's pixel definition of the
ISWA 2010 symbol ID 02-01-001-01-01-01
transformed by Stephen E Slevinski Jr
using line and fill polygon tracing
<rdf:RDF>
  <cc:Work
     rdf:about="">
    <dc:format>image/svg+xml</dc:format>
    <dc:type
       rdf:resource="http://purl.org/dc/dcmitype/StillImage" />
    <dc:title></dc:title>
  </cc:Work>
</rdf:RDF>
</metadata>
  <path
     style="fill:#000000;fill-opacity:1;stroke:none"
     d="m 14,7 c -3.865993,0 -7,3.134007 -7,7 0,3.865993 3.134007,7 7,7 2.30985,0 4.40655,-0.882098 6,-2.3125 l -1.34375,-1.5 C 17.415964,18.304267 15.800379,19 14,19 11.238576,19 9,16.761424 9,14 c 0,-2.761424 2.238576,-5 5,-5 1.656854,0 3,1.343146 3,3 0,1.656854 -1.343146,3 -3,3 -0.552285,0 -1,-0.447715 -1,-1 0,-0.552285 0.447715,-1 1,-1 l 1,0 0,-2 -1,0 c -1.656854,0 -3,1.343146 -3,3 0,1.656854 1.343146,3 3,3 2.761424,0 5,-2.238576 5,-5 0,-2.7614237 -2.238576,-5 -5,-5 z"
     id="path3907" />
  <path
     style="fill:#ffffff;fill-opacity:1;stroke:none"
     d="m 14,9 c -2.761424,0 -5,2.238576 -5,5 0,2.761424 2.238576,5 5,5 1.800379,0 3.415964,-0.695733 4.65625,-1.8125 L 17.3125,15.71875 C 16.428337,16.508571 15.278856,17 14,17 c -1.656854,0 -3,-1.343146 -3,-3 0,-1.656854 1.343146,-3 3,-3 l 1,0 0,2 -1,0 c -0.552285,0 -1,0.447715 -1,1 0,0.552285 0.447715,1 1,1 1.656854,0 3,-1.343146 3,-3 0,-1.656854 -1.343146,-3 -3,-3 z"
     id="path3957" />
  <path
     style="fill:#000000;fill-opacity:1;stroke:none"
     d="M 0.4185245,15.767767 11.732233,27.081475 13.146447,25.667262 1.8327381,14.353553 0.4185245,15.767767 z"
     id="rect2990" />
  <path
     style="fill:#000000;fill-opacity:1;stroke:none"
     d="M 13.853553,2.3327381 25.167262,13.646447 26.581475,12.232233 15.267767,0.9185245 13.853553,2.3327381 z"
     id="rect2992" />
</svg>
