<?xml version="1.0" encoding="UTF-8" standalone="no"?>
<svg
   xmlns:dc="http://purl.org/dc/elements/1.1/"
   xmlns:cc="http://creativecommons.org/ns#"
   xmlns:rdf="http://www.w3.org/1999/02/22-rdf-syntax-ns#"
   xmlns:svg="http://www.w3.org/2000/svg"
   xmlns="http://www.w3.org/2000/svg"
   xmlns:sodipodi="http://sodipodi.sourceforge.net/DTD/sodipodi-0.dtd"
   xmlns:inkscape="http://www.inkscape.org/namespaces/inkscape"
   version="1.0"
   width="40"
   height="16"
   id="svg2"
   inkscape:version="0.47 r22583"
   sodipodi:docname="02-01-015-01-02-02.svg">
  <defs
     id="defs14">
    <inkscape:perspective
       sodipodi:type="inkscape:persp3d"
       inkscape:vp_x="0 : 5.5 : 1"
       inkscape:vp_y="0 : 1000 : 0"
       inkscape:vp_z="10 : 5.5 : 1"
       inkscape:persp3d-origin="5 : 3.6666667 : 1"
       id="perspective16" />
  </defs>
  <sodipodi:namedview
     pagecolor="#ffffff"
     bordercolor="#666666"
     borderopacity="1"
     objecttolerance="10"
     gridtolerance="10"
     guidetolerance="10"
     inkscape:pageopacity="0"
     inkscape:pageshadow="2"
     inkscape:window-width="917"
     inkscape:window-height="792"
     id="namedview12"
     showgrid="true"
     inkscape:zoom="11.494966"
     inkscape:cx="19.846442"
     inkscape:cy="7.6840816"
     inkscape:window-x="313"
     inkscape:window-y="0"
     inkscape:window-maximized="0"
     inkscape:current-layer="svg2">
    <inkscape:grid
       type="xygrid"
       id="grid2822" />
  </sodipodi:namedview>
  <metadata
     id="metadata4">
Valerie Sutton's pixel definition of the
ISWA 2010 symbol ID 02-01-001-01-01-01
transformed by Stephen E Slevinski Jr
using line and fill polygon tracing
<rdf:RDF>
  <cc:Work
     rdf:about="">
    <dc:format>image/svg+xml</dc:format>
    <dc:type
       rdf:resource="http://purl.org/dc/dcmitype/StillImage" />
    <dc:title></dc:title>
  </cc:Work>
</rdf:RDF>
</metadata>
  <path
     style="fill:#000000;fill-opacity:1;stroke:none"
     d="M 11,1 C 7.1340068,1 4,4.1340068 4,8 c 0,3.865993 3.1340068,7 7,7 2.30985,0 4.40655,-0.882098 6,-2.3125 l -1.34375,-1.5 C 14.415964,12.304267 12.800379,13 11,13 8.2385763,13 6,10.761424 6,8 6,5.2385763 8.2385763,3 11,3 c 1.656854,0 3,1.3431458 3,3 0,1.6568542 -1.343146,3 -3,3 -0.552285,0 -1,-0.4477153 -1,-1 0,-0.5522847 0.447715,-1 1,-1 l 1,0 0,-2 -1,0 C 9.3431458,5 8,6.3431458 8,8 c 0,1.6568542 1.3431458,3 3,3 2.761424,0 5,-2.2385763 5,-5 0,-2.7614237 -2.238576,-5 -5,-5 z"
     id="path3907" />
  <path
     style="fill:#ffffff;fill-opacity:1;stroke:none"
     d="M 11,3 C 8.2385763,3 6,5.2385763 6,8 c 0,2.761424 2.2385763,5 5,5 1.800379,0 3.415964,-0.695733 4.65625,-1.8125 L 14.3125,9.71875 C 13.428337,10.508571 12.278856,11 11,11 9.3431458,11 8,9.6568542 8,8 8,6.3431458 9.3431458,5 11,5 l 1,0 0,2 -1,0 c -0.552285,0 -1,0.4477153 -1,1 0,0.5522847 0.447715,1 1,1 1.656854,0 3,-1.3431458 3,-3 0,-1.6568542 -1.343146,-3 -3,-3 z"
     id="path3957" />
  <path
     style="fill:#000000;fill-opacity:1;stroke:none"
     d="M 0,0 0,16 2,16 2,0 0,0 z"
     id="rect2990" />
  <path
     style="fill:#000000;fill-opacity:1;stroke:none"
     d="m 19,0 0,16 2,0 0,-16 -2,0 z"
     id="rect2992" />
  <path
     id="path3121"
     d="m 30,1 c -3.865993,0 -7,3.1340068 -7,7 0,3.865993 3.134007,7 7,7 2.30985,0 4.40655,-0.882098 6,-2.3125 l -1.34375,-1.5 C 33.415964,12.304267 31.800379,13 30,13 c -2.761424,0 -5,-2.238576 -5,-5 0,-2.7614237 2.238576,-5 5,-5 1.656854,0 3,1.3431458 3,3 0,1.6568542 -1.343146,3 -3,3 -0.552285,0 -1,-0.4477153 -1,-1 0,-0.5522847 0.447715,-1 1,-1 l 1,0 0,-2 -1,0 c -1.656854,0 -3,1.3431458 -3,3 0,1.6568542 1.343146,3 3,3 2.761424,0 5,-2.2385763 5,-5 0,-2.7614237 -2.238576,-5 -5,-5 z"
     style="fill:#000000;fill-opacity:1;stroke:none" />
  <path
     id="path3123"
     d="m 30,3 c -2.761424,0 -5,2.2385763 -5,5 0,2.761424 2.238576,5 5,5 1.800379,0 3.415964,-0.695733 4.65625,-1.8125 L 33.3125,9.71875 C 32.428337,10.508571 31.278856,11 30,11 28.343146,11 27,9.6568542 27,8 27,6.3431458 28.343146,5 30,5 l 1,0 0,2 -1,0 c -0.552285,0 -1,0.4477153 -1,1 0,0.5522847 0.447715,1 1,1 1.656854,0 3,-1.3431458 3,-3 0,-1.6568542 -1.343146,-3 -3,-3 z"
     style="fill:#ffffff;fill-opacity:1;stroke:none" />
  <path
     id="path3125"
     d="m 38,0 0,16 2,0 0,-16 -2,0 z"
     style="fill:#000000;fill-opacity:1;stroke:none" />
</svg>
