<?xml version="1.0" encoding="UTF-8" standalone="no"?>
<svg
   xmlns:dc="http://purl.org/dc/elements/1.1/"
   xmlns:cc="http://creativecommons.org/ns#"
   xmlns:rdf="http://www.w3.org/1999/02/22-rdf-syntax-ns#"
   xmlns:svg="http://www.w3.org/2000/svg"
   xmlns="http://www.w3.org/2000/svg"
   xmlns:sodipodi="http://sodipodi.sourceforge.net/DTD/sodipodi-0.dtd"
   xmlns:inkscape="http://www.inkscape.org/namespaces/inkscape"
   version="1.0"
   width="17"
   height="42"
   id="svg2"
   inkscape:version="0.47 r22583"
   sodipodi:docname="02-01-015-01-01-03.svg">
  <defs
     id="defs14">
    <inkscape:perspective
       sodipodi:type="inkscape:persp3d"
       inkscape:vp_x="0 : 5.5 : 1"
       inkscape:vp_y="0 : 1000 : 0"
       inkscape:vp_z="10 : 5.5 : 1"
       inkscape:persp3d-origin="5 : 3.6666667 : 1"
       id="perspective16" />
  </defs>
  <sodipodi:namedview
     pagecolor="#ffffff"
     bordercolor="#666666"
     borderopacity="1"
     objecttolerance="10"
     gridtolerance="10"
     guidetolerance="10"
     inkscape:pageopacity="0"
     inkscape:pageshadow="2"
     inkscape:window-width="917"
     inkscape:window-height="792"
     id="namedview12"
     showgrid="true"
     inkscape:zoom="11.494966"
     inkscape:cx="9.4070897"
     inkscape:cy="21.603218"
     inkscape:window-x="313"
     inkscape:window-y="0"
     inkscape:window-maximized="0"
     inkscape:current-layer="svg2">
    <inkscape:grid
       type="xygrid"
       id="grid2822" />
  </sodipodi:namedview>
  <metadata
     id="metadata4">
Valerie Sutton's pixel definition of the
ISWA 2010 symbol ID 02-01-001-01-01-01
transformed by Stephen E Slevinski Jr
using line and fill polygon tracing
<rdf:RDF>
  <cc:Work
     rdf:about="">
    <dc:format>image/svg+xml</dc:format>
    <dc:type
       rdf:resource="http://purl.org/dc/dcmitype/StillImage" />
    <dc:title></dc:title>
  </cc:Work>
</rdf:RDF>
</metadata>
  <path
     style="fill:#000000;fill-opacity:1;stroke:none"
     d="m 9,4 c -3.865993,0 -7,3.134007 -7,7 0,3.865993 3.134007,7 7,7 2.30985,0 4.40655,-0.882098 6,-2.3125 l -1.34375,-1.5 C 12.415964,15.304267 10.800379,16 9,16 6.238576,16 4,13.761424 4,11 4,8.238576 6.238576,6 9,6 c 1.656854,0 3,1.343146 3,3 0,1.656854 -1.343146,3 -3,3 -0.552285,0 -1,-0.447715 -1,-1 0,-0.552285 0.447715,-1 1,-1 l 1,0 0,-2 -1,0 c -1.656854,0 -3,1.343146 -3,3 0,1.656854 1.343146,3 3,3 2.761424,0 5,-2.238576 5,-5 C 14,6.2385763 11.761424,4 9,4 z"
     id="path3907" />
  <path
     style="fill:#ffffff;fill-opacity:1;stroke:none"
     d="m 9,6 c -2.761424,0 -5,2.238576 -5,5 0,2.761424 2.238576,5 5,5 1.800379,0 3.415964,-0.695733 4.65625,-1.8125 L 12.3125,12.71875 C 11.428337,13.508571 10.278856,14 9,14 7.343146,14 6,12.656854 6,11 6,9.343146 7.343146,8 9,8 l 1,0 0,2 -1,0 c -0.552285,0 -1,0.447715 -1,1 0,0.552285 0.447715,1 1,1 1.656854,0 3,-1.343146 3,-3 C 12,7.343146 10.656854,6 9,6 z"
     id="path3957" />
  <path
     style="fill:#000000;fill-opacity:1;stroke:none"
     d="M 17,0 4.3749998e-8,0 -7e-7,1.9999999 17,2.0000004 17,0 z"
     id="rect2990" />
  <path
     style="fill:#000000;fill-opacity:1;stroke:none"
     d="M 17,19.999999 -7e-7,20 4.3750045e-8,22 17,22 17,19.999999 z"
     id="rect2992" />
  <path
     id="path3094"
     d="m 9,24 c -3.865993,0 -7,3.134007 -7,7 0,3.865993 3.134007,7 7,7 2.30985,0 4.40655,-0.882098 6,-2.3125 l -1.34375,-1.5 C 12.415964,35.304267 10.800379,36 9,36 6.238576,36 4,33.761424 4,31 c 0,-2.761424 2.238576,-5 5,-5 1.656854,0 3,1.343146 3,3 0,1.656854 -1.343146,3 -3,3 -0.552285,0 -1,-0.447715 -1,-1 0,-0.552285 0.447715,-1 1,-1 l 1,0 0,-2 -1,0 c -1.656854,0 -3,1.343146 -3,3 0,1.656854 1.343146,3 3,3 2.761424,0 5,-2.238576 5,-5 0,-2.761424 -2.238576,-5 -5,-5 z"
     style="fill:#000000;fill-opacity:1;stroke:none" />
  <path
     id="path3096"
     d="m 9,26 c -2.761424,0 -5,2.238576 -5,5 0,2.761424 2.238576,5 5,5 1.800379,0 3.415964,-0.695733 4.65625,-1.8125 L 12.3125,32.71875 C 11.428337,33.508571 10.278856,34 9,34 7.343146,34 6,32.656854 6,31 6,29.343146 7.343146,28 9,28 l 1,0 0,2 -1,0 c -0.552285,0 -1,0.447715 -1,1 0,0.552285 0.447715,1 1,1 1.656854,0 3,-1.343146 3,-3 0,-1.656854 -1.343146,-3 -3,-3 z"
     style="fill:#ffffff;fill-opacity:1;stroke:none" />
  <path
     id="path3098"
     d="M 17,39.999999 -7e-7,40 4.3750045e-8,42 17,42 17,39.999999 z"
     style="fill:#000000;fill-opacity:1;stroke:none" />
</svg>
