<?xml version="1.0" encoding="UTF-8" standalone="no"?>
<svg
   xmlns:dc="http://purl.org/dc/elements/1.1/"
   xmlns:cc="http://creativecommons.org/ns#"
   xmlns:rdf="http://www.w3.org/1999/02/22-rdf-syntax-ns#"
   xmlns:svg="http://www.w3.org/2000/svg"
   xmlns="http://www.w3.org/2000/svg"
   xmlns:sodipodi="http://sodipodi.sourceforge.net/DTD/sodipodi-0.dtd"
   xmlns:inkscape="http://www.inkscape.org/namespaces/inkscape"
   version="1.0"
   width="33"
   height="32"
   id="svg2"
   inkscape:version="0.47 r22583"
   sodipodi:docname="02-10-004-03-01-08.svg">
  <defs
     id="defs16">
    <inkscape:perspective
       sodipodi:type="inkscape:persp3d"
       inkscape:vp_x="0 : 23 : 1"
       inkscape:vp_y="0 : 1000 : 0"
       inkscape:vp_z="36 : 23 : 1"
       inkscape:persp3d-origin="18 : 15.333333 : 1"
       id="perspective18" />
  </defs>
  <sodipodi:namedview
     pagecolor="#ffffff"
     bordercolor="#666666"
     borderopacity="1"
     objecttolerance="10"
     gridtolerance="10"
     guidetolerance="10"
     inkscape:pageopacity="0"
     inkscape:pageshadow="2"
     inkscape:window-width="964"
     inkscape:window-height="721"
     id="namedview14"
     showgrid="true"
     inkscape:zoom="14.78125"
     inkscape:cx="16.5"
     inkscape:cy="16"
     inkscape:window-x="365"
     inkscape:window-y="0"
     inkscape:window-maximized="0"
     inkscape:current-layer="svg2"
     showborder="true">
    <inkscape:grid
       type="xygrid"
       id="grid2824"
       empspacing="5"
       visible="true"
       enabled="true"
       snapvisiblegridlinesonly="true" />
  </sodipodi:namedview>
  <metadata
     id="metadata4">
Valerie Sutton's pixel definition of the
ISWA 2010 symbol ID 04-01-003-01-01-01
transformed by Stephen E Slevinski Jr
using line and fill polygon tracing
<rdf:RDF>
  <cc:Work
     rdf:about="">
    <dc:format>image/svg+xml</dc:format>
    <dc:type
       rdf:resource="http://purl.org/dc/dcmitype/StillImage" />
    <dc:title></dc:title>
  </cc:Work>
</rdf:RDF>
</metadata>
  <path
     style="fill:#000000;fill-opacity:1;stroke:none"
     d="M 15.221825,15 23,22.778175 23,15 15.221825,15 z"
     id="path3279"
     sodipodi:nodetypes="cccc" />
  <path
     style="fill:#000000;fill-opacity:1;stroke:none"
     d="M 29.717514,1.211418 C 27.960155,-0.545941 23.844582,0.7203889 20.525126,4.0398452 L 4.2616702,20.303301 C 0.9422139,23.622757 -0.324116,27.73833 1.433243,29.495689 l 1.4142136,1.414214 c 1.757359,1.757359 6.5800384,1.198136 9.8994954,-2.121321 l 3.18198,-3.18198 -3.535534,-3.535534 -3.18198,3.181981 C 6.2824852,28.181981 3.8237674,29.057787 2.8474566,28.081476 1.8711458,27.105165 2.7469513,24.646447 5.6758837,21.717515 L 21.93934,5.4540587 c 2.928932,-2.9289324 5.38765,-3.8047379 6.363961,-2.8284271 0.976311,0.9763108 0.100505,3.4350286 -2.828427,6.363961 l -3.535534,3.5355334 3.535534,3.535534 3.535533,-3.535534 c 3.319457,-3.3194557 3.87868,-8.1421354 2.121321,-9.8994944 L 29.717514,1.211418 z"
     id="path3299" />
  <path
     sodipodi:nodetypes="cccc"
     id="path4580"
     d="M 11.221826,19 19,26.778175 19,19 11.221826,19 z"
     style="fill:#000000;fill-opacity:1;stroke:none" />
</svg>
