<?xml version="1.0" encoding="UTF-8" standalone="no"?>
<svg
   xmlns:dc="http://purl.org/dc/elements/1.1/"
   xmlns:cc="http://creativecommons.org/ns#"
   xmlns:rdf="http://www.w3.org/1999/02/22-rdf-syntax-ns#"
   xmlns:svg="http://www.w3.org/2000/svg"
   xmlns="http://www.w3.org/2000/svg"
   xmlns:sodipodi="http://sodipodi.sourceforge.net/DTD/sodipodi-0.dtd"
   xmlns:inkscape="http://www.inkscape.org/namespaces/inkscape"
   version="1.0"
   width="17"
   height="40"
   id="svg2"
   inkscape:version="0.47 r22583"
   sodipodi:docname="02-10-003-03-05-01.svg">
  <defs
     id="defs16">
    <inkscape:perspective
       sodipodi:type="inkscape:persp3d"
       inkscape:vp_x="0 : 23 : 1"
       inkscape:vp_y="0 : 1000 : 0"
       inkscape:vp_z="36 : 23 : 1"
       inkscape:persp3d-origin="18 : 15.333333 : 1"
       id="perspective18" />
  </defs>
  <sodipodi:namedview
     pagecolor="#ffffff"
     bordercolor="#666666"
     borderopacity="1"
     objecttolerance="10"
     gridtolerance="10"
     guidetolerance="10"
     inkscape:pageopacity="0"
     inkscape:pageshadow="2"
     inkscape:window-width="964"
     inkscape:window-height="721"
     id="namedview14"
     showgrid="true"
     inkscape:zoom="11.825"
     inkscape:cx="8.5"
     inkscape:cy="20"
     inkscape:window-x="365"
     inkscape:window-y="0"
     inkscape:window-maximized="0"
     inkscape:current-layer="svg2"
     showborder="true">
    <inkscape:grid
       type="xygrid"
       id="grid2824"
       empspacing="5"
       visible="true"
       enabled="true"
       snapvisiblegridlinesonly="true" />
  </sodipodi:namedview>
  <metadata
     id="metadata4">
Valerie Sutton's pixel definition of the
ISWA 2010 symbol ID 04-01-003-01-01-01
transformed by Stephen E Slevinski Jr
using line and fill polygon tracing
<rdf:RDF>
  <cc:Work
     rdf:about="">
    <dc:format>image/svg+xml</dc:format>
    <dc:type
       rdf:resource="http://purl.org/dc/dcmitype/StillImage" />
    <dc:title></dc:title>
  </cc:Work>
</rdf:RDF>
</metadata>
  <path
     style="fill:#000000;fill-opacity:1;stroke:none"
     d="M 5.5,14.5 0,20 11,20 5.5,14.5 z m 0,1.4375 L 8.5625,19 2.4375,19 5.5,15.9375 z"
     id="path3279" />
  <path
     style="fill:#000000;fill-opacity:1;stroke:none"
     d="M 9.5,0 C 7.0147,0 5,3.80558 5,8.5 l 0,5 2,0 0,-5 C 7,4.357864 8.1193,2 9.5,2 10.8807,2 13,4.357864 13,8.5 l 0,23 C 13,35.642136 10.8807,38 9.5,38 8.1193,38 7,35.642136 7,31.5 L 7,27 5,27 5,31.5 C 5,36.19442 7.0147,40 9.5,40 l 2,0 c 2.4853,0 5.5,-3.80558 5.5,-8.5 l 0,-23 C 17,3.80558 13.9853,0 11.5,0 l -2,0 z"
     id="path3299" />
  <path
     style="fill:#ffffff;fill-opacity:1;stroke:none"
     d="M 5.5,15.9375 2.4375,19 8.5625,19 5.5,15.9375 z"
     id="path4692" />
  <path
     id="path3200"
     d="M 5.5,20.5 0,26 11,26 5.5,20.5 z m 0,1.4375 L 8.5625,25 2.4375,25 5.5,21.9375 z"
     style="fill:#000000;fill-opacity:1;stroke:none" />
  <path
     id="path3202"
     d="M 5.5,21.9375 2.4375,25 8.5625,25 5.5,21.9375 z"
     style="fill:#ffffff;fill-opacity:1;stroke:none" />
</svg>
