<?xml version="1.0" encoding="UTF-8" standalone="no"?>
<svg
   xmlns:dc="http://purl.org/dc/elements/1.1/"
   xmlns:cc="http://creativecommons.org/ns#"
   xmlns:rdf="http://www.w3.org/1999/02/22-rdf-syntax-ns#"
   xmlns:svg="http://www.w3.org/2000/svg"
   xmlns="http://www.w3.org/2000/svg"
   xmlns:sodipodi="http://sodipodi.sourceforge.net/DTD/sodipodi-0.dtd"
   xmlns:inkscape="http://www.inkscape.org/namespaces/inkscape"
   version="1.0"
   width="32"
   height="33"
   id="svg2"
   inkscape:version="0.47 r22583"
   sodipodi:docname="02-10-004-03-03-14.svg">
  <defs
     id="defs16">
    <inkscape:perspective
       sodipodi:type="inkscape:persp3d"
       inkscape:vp_x="0 : 23 : 1"
       inkscape:vp_y="0 : 1000 : 0"
       inkscape:vp_z="36 : 23 : 1"
       inkscape:persp3d-origin="18 : 15.333333 : 1"
       id="perspective18" />
  </defs>
  <sodipodi:namedview
     pagecolor="#ffffff"
     bordercolor="#666666"
     borderopacity="1"
     objecttolerance="10"
     gridtolerance="10"
     guidetolerance="10"
     inkscape:pageopacity="0"
     inkscape:pageshadow="2"
     inkscape:window-width="964"
     inkscape:window-height="721"
     id="namedview14"
     showgrid="true"
     inkscape:zoom="14.333333"
     inkscape:cx="16"
     inkscape:cy="16.5"
     inkscape:window-x="365"
     inkscape:window-y="0"
     inkscape:window-maximized="0"
     inkscape:current-layer="svg2"
     showborder="true">
    <inkscape:grid
       type="xygrid"
       id="grid2824"
       empspacing="5"
       visible="true"
       enabled="true"
       snapvisiblegridlinesonly="true" />
  </sodipodi:namedview>
  <metadata
     id="metadata4">
Valerie Sutton's pixel definition of the
ISWA 2010 symbol ID 04-01-003-01-01-01
transformed by Stephen E Slevinski Jr
using line and fill polygon tracing
<rdf:RDF>
  <cc:Work
     rdf:about="">
    <dc:format>image/svg+xml</dc:format>
    <dc:type
       rdf:resource="http://purl.org/dc/dcmitype/StillImage" />
    <dc:title></dc:title>
  </cc:Work>
</rdf:RDF>
</metadata>
  <path
     style="fill:#000000;fill-opacity:1;stroke:none"
     d="m 17,15.221825 -1.414214,1.414214 0,4.949747 -4.949747,0 L 9.221825,23 17,23 17,15.221825 z"
     id="path3279" />
  <path
     style="fill:#000000;fill-opacity:1;stroke:none"
     d="m 30.788582,29.717514 c 1.757359,-1.757359 0.49103,-5.872932 -2.828427,-9.192388 L 11.696699,4.2616701 C 8.3772431,0.9422131 4.2616701,-0.3241159 2.5043111,1.4332431 l -1.414214,1.414213 c -1.75735899,1.757359 -1.19813599,6.580039 2.121321,9.8994959 l 3.18198,3.18198 L 9.928932,12.393398 6.7469511,9.2114181 c -2.928932,-2.928933 -3.804738,-5.387651 -2.828427,-6.363962 0.976311,-0.976311 3.435029,-0.100505 6.3639609,2.828427 L 26.545942,21.93934 c 2.928932,2.928932 3.804738,5.38765 2.828427,6.363961 -0.976311,0.976311 -3.435029,0.100505 -6.363961,-2.828427 l -3.535534,-3.535534 -3.535534,3.535534 3.535534,3.535533 c 3.319456,3.319457 8.142136,3.87868 9.899495,2.121321 l 1.414213,-1.414214 z"
     id="path3299" />
  <path
     id="path3881"
     d="m 13,11.221826 -1.414214,1.414213 0,4.949748 -4.9497469,0 L 5.2218251,19 13,19 13,11.221826 z"
     style="fill:#000000;fill-opacity:1;stroke:none" />
</svg>
