<?xml version="1.0" encoding="UTF-8" standalone="no"?>
<svg
   xmlns:dc="http://purl.org/dc/elements/1.1/"
   xmlns:cc="http://creativecommons.org/ns#"
   xmlns:rdf="http://www.w3.org/1999/02/22-rdf-syntax-ns#"
   xmlns:svg="http://www.w3.org/2000/svg"
   xmlns="http://www.w3.org/2000/svg"
   xmlns:sodipodi="http://sodipodi.sourceforge.net/DTD/sodipodi-0.dtd"
   xmlns:inkscape="http://www.inkscape.org/namespaces/inkscape"
   version="1.0"
   width="33"
   height="32"
   id="svg2"
   inkscape:version="0.47 r22583"
   sodipodi:docname="02-10-004-03-06-02.svg">
  <defs
     id="defs16">
    <inkscape:perspective
       sodipodi:type="inkscape:persp3d"
       inkscape:vp_x="0 : 23 : 1"
       inkscape:vp_y="0 : 1000 : 0"
       inkscape:vp_z="36 : 23 : 1"
       inkscape:persp3d-origin="18 : 15.333333 : 1"
       id="perspective18" />
  </defs>
  <sodipodi:namedview
     pagecolor="#ffffff"
     bordercolor="#666666"
     borderopacity="1"
     objecttolerance="10"
     gridtolerance="10"
     guidetolerance="10"
     inkscape:pageopacity="0"
     inkscape:pageshadow="2"
     inkscape:window-width="964"
     inkscape:window-height="721"
     id="namedview14"
     showgrid="true"
     inkscape:zoom="14.78125"
     inkscape:cx="16.5"
     inkscape:cy="16"
     inkscape:window-x="365"
     inkscape:window-y="0"
     inkscape:window-maximized="0"
     inkscape:current-layer="svg2"
     showborder="true">
    <inkscape:grid
       type="xygrid"
       id="grid2824"
       empspacing="5"
       visible="true"
       enabled="true"
       snapvisiblegridlinesonly="true" />
  </sodipodi:namedview>
  <metadata
     id="metadata4">
Valerie Sutton's pixel definition of the
ISWA 2010 symbol ID 04-01-003-01-01-01
transformed by Stephen E Slevinski Jr
using line and fill polygon tracing
<rdf:RDF>
  <cc:Work
     rdf:about="">
    <dc:format>image/svg+xml</dc:format>
    <dc:type
       rdf:resource="http://purl.org/dc/dcmitype/StillImage" />
    <dc:title></dc:title>
  </cc:Work>
</rdf:RDF>
</metadata>
  <path
     style="fill:#000000;fill-opacity:1;stroke:none"
     d="m 9.0000002,8.2218252 1.4142138,1.4142138 0,4.949747 4.949747,0 L 16.778175,16 l -7.7781748,0 0,-7.7781748 z"
     id="path3279" />
  <path
     style="fill:#000000;fill-opacity:1;stroke:none"
     d="M 1.575379,29.081475 C -0.18199352,27.324103 1.0843499,23.208543 4.4038061,19.889087 L 7.93934,16.353553 9.3535536,17.767767 5.8180196,21.303301 C 2.8890872,24.232233 2.0132902,26.69096 2.9895925,27.667262 3.9658949,28.643564 7.1317279,28.474874 10.06066,25.545941 L 26.324116,9.282486 c 2.928933,-2.9289328 3.097623,-6.0947658 2.121321,-7.0710688 -0.976302,-0.976302 -3.435029,-0.100505 -6.363961,2.828428 l -3.181981,3.18198 -1.414213,-1.414213 3.18198,-3.181981 c 3.319456,-3.319456 7.435016,-4.58579999 9.192388,-2.828427 l 1.414214,1.414213 c 1.757372,1.757373 1.198136,6.580039 -2.12132,9.8994958 L 12.889087,28.374369 c -3.3194558,3.319456 -8.142122,3.878692 -9.8994945,2.12132 L 1.575379,29.081475 z"
     id="path3299" />
  <path
     id="path2862"
     d="m 13,4.2218252 1.414213,1.414214 0,4.9497478 4.949748,0 L 20.778175,12 13,12 13,4.2218252 z"
     style="fill:#000000;fill-opacity:1;stroke:none" />
</svg>
