<?xml version="1.0" encoding="UTF-8" standalone="no"?>
<svg
   xmlns:dc="http://purl.org/dc/elements/1.1/"
   xmlns:cc="http://creativecommons.org/ns#"
   xmlns:rdf="http://www.w3.org/1999/02/22-rdf-syntax-ns#"
   xmlns:svg="http://www.w3.org/2000/svg"
   xmlns="http://www.w3.org/2000/svg"
   xmlns:sodipodi="http://sodipodi.sourceforge.net/DTD/sodipodi-0.dtd"
   xmlns:inkscape="http://www.inkscape.org/namespaces/inkscape"
   version="1.0"
   width="32"
   height="33"
   id="svg2"
   inkscape:version="0.47 r22583"
   sodipodi:docname="02-10-004-03-02-04.svg">
  <defs
     id="defs16">
    <inkscape:perspective
       sodipodi:type="inkscape:persp3d"
       inkscape:vp_x="0 : 23 : 1"
       inkscape:vp_y="0 : 1000 : 0"
       inkscape:vp_z="36 : 23 : 1"
       inkscape:persp3d-origin="18 : 15.333333 : 1"
       id="perspective18" />
  </defs>
  <sodipodi:namedview
     pagecolor="#ffffff"
     bordercolor="#666666"
     borderopacity="1"
     objecttolerance="10"
     gridtolerance="10"
     guidetolerance="10"
     inkscape:pageopacity="0"
     inkscape:pageshadow="2"
     inkscape:window-width="964"
     inkscape:window-height="721"
     id="namedview14"
     showgrid="true"
     inkscape:zoom="14.333333"
     inkscape:cx="16"
     inkscape:cy="16.5"
     inkscape:window-x="365"
     inkscape:window-y="0"
     inkscape:window-maximized="0"
     inkscape:current-layer="svg2"
     showborder="true">
    <inkscape:grid
       type="xygrid"
       id="grid2824"
       empspacing="5"
       visible="true"
       enabled="true"
       snapvisiblegridlinesonly="true" />
  </sodipodi:namedview>
  <metadata
     id="metadata4">
Valerie Sutton's pixel definition of the
ISWA 2010 symbol ID 04-01-003-01-01-01
transformed by Stephen E Slevinski Jr
using line and fill polygon tracing
<rdf:RDF>
  <cc:Work
     rdf:about="">
    <dc:format>image/svg+xml</dc:format>
    <dc:type
       rdf:resource="http://purl.org/dc/dcmitype/StillImage" />
    <dc:title></dc:title>
  </cc:Work>
</rdf:RDF>
</metadata>
  <path
     style="fill:#000000;fill-opacity:1;stroke:none"
     d="M 22.778175,23 15,23 15,15.221825 22.778175,23 z m -2.43068,-1.016466 -4.331029,-4.331029 0,4.331029 4.331029,0 z"
     id="path3279" />
  <path
     style="fill:#000000;fill-opacity:1;stroke:none"
     d="M 1.2114177,29.717514 C -0.54594132,27.960155 0.7203886,23.844582 4.0398449,20.525126 L 20.303301,4.2616701 c 3.319456,-3.319457 7.435029,-4.585786 9.192388,-2.828427 l 1.414214,1.414213 c 1.757359,1.757359 1.198136,6.580039 -2.121321,9.8994959 l -3.18198,3.18198 -3.535534,-3.535534 3.181981,-3.1819799 c 2.928932,-2.928933 3.804738,-5.387651 2.828427,-6.363962 -0.976311,-0.976311 -3.435029,-0.100505 -6.363961,2.828427 L 5.4540584,21.93934 c -2.9289324,2.928932 -3.8047379,5.38765 -2.8284271,6.363961 0.9763108,0.976311 3.4350286,0.100505 6.363961,-2.828427 l 3.5355337,-3.535534 3.535534,3.535534 -3.535534,3.535533 C 9.20567,32.329864 4.3829903,32.889087 2.6256313,31.131728 L 1.2114177,29.717514 z"
     id="path3299" />
  <path
     style="fill:#ffffff;fill-opacity:1;stroke:none"
     d="m 20.347495,21.983534 -4.331029,0 0,-4.331029 4.331029,4.331029 z"
     id="path3618" />
  <path
     id="path4240"
     d="M 26.778175,19 19,19 19,11.221826 26.778175,19 z m -2.43068,-1.016466 -4.331029,-4.331029 0,4.331029 4.331029,0 z"
     style="fill:#000000;fill-opacity:1;stroke:none" />
  <path
     id="path4242"
     d="m 24.347495,17.983534 -4.331029,0 0,-4.331029 4.331029,4.331029 z"
     style="fill:#ffffff;fill-opacity:1;stroke:none" />
</svg>
