<?xml version="1.0" encoding="UTF-8" standalone="no"?>
<svg
   xmlns:dc="http://purl.org/dc/elements/1.1/"
   xmlns:cc="http://creativecommons.org/ns#"
   xmlns:rdf="http://www.w3.org/1999/02/22-rdf-syntax-ns#"
   xmlns:svg="http://www.w3.org/2000/svg"
   xmlns="http://www.w3.org/2000/svg"
   xmlns:sodipodi="http://sodipodi.sourceforge.net/DTD/sodipodi-0.dtd"
   xmlns:inkscape="http://www.inkscape.org/namespaces/inkscape"
   version="1.0"
   width="32"
   height="33"
   id="svg2"
   inkscape:version="0.47 r22583"
   sodipodi:docname="02-10-004-03-06-10.svg">
  <defs
     id="defs16">
    <inkscape:perspective
       sodipodi:type="inkscape:persp3d"
       inkscape:vp_x="0 : 23 : 1"
       inkscape:vp_y="0 : 1000 : 0"
       inkscape:vp_z="36 : 23 : 1"
       inkscape:persp3d-origin="18 : 15.333333 : 1"
       id="perspective18" />
  </defs>
  <sodipodi:namedview
     pagecolor="#ffffff"
     bordercolor="#666666"
     borderopacity="1"
     objecttolerance="10"
     gridtolerance="10"
     guidetolerance="10"
     inkscape:pageopacity="0"
     inkscape:pageshadow="2"
     inkscape:window-width="964"
     inkscape:window-height="721"
     id="namedview14"
     showgrid="true"
     inkscape:zoom="14.333333"
     inkscape:cx="16"
     inkscape:cy="16.5"
     inkscape:window-x="365"
     inkscape:window-y="0"
     inkscape:window-maximized="0"
     inkscape:current-layer="svg2"
     showborder="true">
    <inkscape:grid
       type="xygrid"
       id="grid2824"
       empspacing="5"
       visible="true"
       enabled="true"
       snapvisiblegridlinesonly="true" />
  </sodipodi:namedview>
  <metadata
     id="metadata4">
Valerie Sutton's pixel definition of the
ISWA 2010 symbol ID 04-01-003-01-01-01
transformed by Stephen E Slevinski Jr
using line and fill polygon tracing
<rdf:RDF>
  <cc:Work
     rdf:about="">
    <dc:format>image/svg+xml</dc:format>
    <dc:type
       rdf:resource="http://purl.org/dc/dcmitype/StillImage" />
    <dc:title></dc:title>
  </cc:Work>
</rdf:RDF>
</metadata>
  <path
     style="fill:#000000;fill-opacity:1;stroke:none"
     d="m 23.778175,9 -1.414214,1.414214 -4.949747,0 0,4.949747 L 16,16.778175 16,9 23.778175,9 z"
     id="path3279" />
  <path
     style="fill:#000000;fill-opacity:1;stroke:none"
     d="m 2.9185254,1.5753788 c 1.757372,-1.7573725 5.872932,-0.4910291 9.1923876,2.8284271 l 3.535534,3.5355339 -1.414214,1.4142136 -3.535534,-3.535534 C 7.7677674,2.889087 5.3090404,2.01329 4.3327384,2.9895923 3.3564364,3.9658947 3.5251264,7.1317277 6.4540594,10.06066 L 22.717514,26.324116 c 2.928933,2.928933 6.094766,3.097623 7.071069,2.121321 0.976302,-0.976302 0.100505,-3.435029 -2.828428,-6.363961 l -3.18198,-3.181981 1.414213,-1.414213 3.181981,3.18198 c 3.319456,3.319456 4.5858,7.435016 2.828427,9.192388 l -1.414213,1.414214 C 28.03121,33.031236 23.208544,32.472 19.889087,29.152544 L 3.6256314,12.889087 C 0.30617543,9.569631 -0.25306057,4.7469648 1.5043114,2.9895923 l 1.414214,-1.4142135 z"
     id="path3299" />
  <path
     id="path2862"
     d="m 27.778175,13 -1.414214,1.414213 -4.949748,0 0,4.949748 L 20,20.778175 20,13 l 7.778175,0 z"
     style="fill:#000000;fill-opacity:1;stroke:none" />
</svg>
