<?xml version="1.0" encoding="UTF-8" standalone="no"?>
<svg
   xmlns:dc="http://purl.org/dc/elements/1.1/"
   xmlns:cc="http://creativecommons.org/ns#"
   xmlns:rdf="http://www.w3.org/1999/02/22-rdf-syntax-ns#"
   xmlns:svg="http://www.w3.org/2000/svg"
   xmlns="http://www.w3.org/2000/svg"
   xmlns:sodipodi="http://sodipodi.sourceforge.net/DTD/sodipodi-0.dtd"
   xmlns:inkscape="http://www.inkscape.org/namespaces/inkscape"
   version="1.0"
   width="30"
   height="46"
   id="svg2"
   inkscape:version="0.47 r22583"
   sodipodi:docname="02-06-006-06-02-01.svg">
  <defs
     id="defs16">
    <inkscape:perspective
       sodipodi:type="inkscape:persp3d"
       inkscape:vp_x="0 : 23 : 1"
       inkscape:vp_y="0 : 1000 : 0"
       inkscape:vp_z="36 : 23 : 1"
       inkscape:persp3d-origin="18 : 15.333333 : 1"
       id="perspective18" />
  </defs>
  <sodipodi:namedview
     pagecolor="#ffffff"
     bordercolor="#666666"
     borderopacity="1"
     objecttolerance="10"
     gridtolerance="10"
     guidetolerance="10"
     inkscape:pageopacity="0"
     inkscape:pageshadow="2"
     inkscape:window-width="964"
     inkscape:window-height="721"
     id="namedview14"
     showgrid="true"
     inkscape:zoom="10.282609"
     inkscape:cx="15"
     inkscape:cy="23"
     inkscape:window-x="365"
     inkscape:window-y="0"
     inkscape:window-maximized="0"
     inkscape:current-layer="svg2"
     showborder="true">
    <inkscape:grid
       type="xygrid"
       id="grid2824"
       empspacing="5"
       visible="true"
       enabled="true"
       snapvisiblegridlinesonly="true" />
  </sodipodi:namedview>
  <metadata
     id="metadata4">
Valerie Sutton's pixel definition of the
ISWA 2010 symbol ID 04-01-003-01-01-01
transformed by Stephen E Slevinski Jr
using line and fill polygon tracing
<rdf:RDF>
  <cc:Work
     rdf:about="">
    <dc:format>image/svg+xml</dc:format>
    <dc:type
       rdf:resource="http://purl.org/dc/dcmitype/StillImage" />
    <dc:title></dc:title>
  </cc:Work>
</rdf:RDF>
</metadata>
  <path
     style="fill:#000000;fill-opacity:1;stroke:none"
     d="m 8,0 0,1 14,0 c 3.865993,0 7,3.1340068 7,7 l 0,2 c 0,3.865993 -3.134007,7 -7,7 L 8,17 c -2.761424,0 -5,2.238576 -5,5 l 0,2 c 0,2.761424 2.238576,5 5,5 l 14,0 c 3.865993,0 7,3.134007 7,7 l 0,2 c 0,3.865993 -3.134007,7 -7,7 l -18,0 0,1 18,0 c 4.418278,0 8,-3.581722 8,-8 l 0,-2 c 0,-4.418278 -3.581722,-8 -8,-8 L 8,28 C 5.790861,28 4,26.209139 4,24 l 0,-2 c 0,-2.209139 1.790861,-4 4,-4 l 14,0 c 4.418278,0 8,-3.581722 8,-8 L 30,8 C 30,3.581722 26.418278,0 22,0 L 8,0 z"
     id="path3217" />
  <path
     style="fill:#ffffff;fill-opacity:1;stroke:none"
     d="m 8,1 0,2 14,0 c 2.761424,0 5,2.238576 5,5 l 0,2 c 0,2.761424 -2.238576,5 -5,5 L 8,15 c -3.865993,0 -7,3.134007 -7,7 l 0,2 c 0,3.865993 3.134007,7 7,7 l 14,0 c 2.761424,0 5,2.238576 5,5 l 0,2 c 0,2.761424 -2.238576,5 -5,5 l -18,0 0,2 18,0 c 3.865993,0 7,-3.134007 7,-7 l 0,-2 c 0,-3.865993 -3.134007,-7 -7,-7 L 8,29 C 5.238576,29 3,26.761424 3,24 l 0,-2 c 0,-2.761424 2.238576,-5 5,-5 l 14,0 c 3.865993,0 7,-3.134007 7,-7 L 29,8 C 29,4.1340068 25.865993,1 22,1 L 8,1 z"
     id="path3220" />
  <path
     style="fill:#000000;fill-opacity:1;stroke:none"
     d="m 8,3 0,1 14,0 c 2.209139,0 4,1.790861 4,4 l 0,2 c 0,2.209139 -1.790861,4 -4,4 L 8,14 c -4.418278,0 -8,3.581722 -8,8 l 0,2 c 0,4.418278 3.581722,8 8,8 l 14,0 c 2.209139,0 4,1.790861 4,4 l 0,2 c 0,2.209139 -1.790861,4 -4,4 l -18,0 0,1 18,0 c 2.761424,0 5,-2.238576 5,-5 l 0,-2 c 0,-2.761424 -2.238576,-5 -5,-5 L 8,31 C 4.134007,31 1,27.865993 1,24 l 0,-2 c 0,-3.865993 3.134007,-7 7,-7 l 14,0 c 2.761424,0 5,-2.238576 5,-5 L 27,8 C 27,5.238576 24.761424,3 22,3 L 8,3 z"
     id="path3223" />
</svg>
