<?xml version="1.0" encoding="UTF-8" standalone="no"?>
<svg
   xmlns:dc="http://purl.org/dc/elements/1.1/"
   xmlns:cc="http://creativecommons.org/ns#"
   xmlns:rdf="http://www.w3.org/1999/02/22-rdf-syntax-ns#"
   xmlns:svg="http://www.w3.org/2000/svg"
   xmlns="http://www.w3.org/2000/svg"
   xmlns:sodipodi="http://sodipodi.sourceforge.net/DTD/sodipodi-0.dtd"
   xmlns:inkscape="http://www.inkscape.org/namespaces/inkscape"
   version="1.0"
   width="30"
   height="51"
   id="svg2"
   inkscape:version="0.47 r22583"
   sodipodi:docname="02-06-006-06-03-01.svg">
  <defs
     id="defs16">
    <inkscape:perspective
       sodipodi:type="inkscape:persp3d"
       inkscape:vp_x="0 : 23 : 1"
       inkscape:vp_y="0 : 1000 : 0"
       inkscape:vp_z="36 : 23 : 1"
       inkscape:persp3d-origin="18 : 15.333333 : 1"
       id="perspective18" />
  </defs>
  <sodipodi:namedview
     pagecolor="#ffffff"
     bordercolor="#666666"
     borderopacity="1"
     objecttolerance="10"
     gridtolerance="10"
     guidetolerance="10"
     inkscape:pageopacity="0"
     inkscape:pageshadow="2"
     inkscape:window-width="964"
     inkscape:window-height="721"
     id="namedview14"
     showgrid="true"
     inkscape:zoom="9.2745098"
     inkscape:cx="15"
     inkscape:cy="25.5"
     inkscape:window-x="365"
     inkscape:window-y="0"
     inkscape:window-maximized="0"
     inkscape:current-layer="svg2"
     showborder="true">
    <inkscape:grid
       type="xygrid"
       id="grid2824"
       empspacing="5"
       visible="true"
       enabled="true"
       snapvisiblegridlinesonly="true" />
  </sodipodi:namedview>
  <metadata
     id="metadata4">
Valerie Sutton's pixel definition of the
ISWA 2010 symbol ID 04-01-003-01-01-01
transformed by Stephen E Slevinski Jr
using line and fill polygon tracing
<rdf:RDF>
  <cc:Work
     rdf:about="">
    <dc:format>image/svg+xml</dc:format>
    <dc:type
       rdf:resource="http://purl.org/dc/dcmitype/StillImage" />
    <dc:title></dc:title>
  </cc:Work>
</rdf:RDF>
</metadata>
  <path
     style="fill:#000000;fill-opacity:1;stroke:none"
     d="M 8 0 L 1 7 L 8 14 L 8 0 z M 7 2.40625 L 7 11.59375 L 2.4375 7 L 7 2.40625 z "
     id="path3182" />
  <path
     style="fill:#000000;fill-opacity:1;stroke:none"
     d="M 8 5 L 8 6 L 22 6 C 25.865993 6 29 9.1340068 29 13 L 29 15 C 29 18.865993 25.865993 22 22 22 L 8 22 C 5.238576 22 3 24.238576 3 27 L 3 29 C 3 31.761424 5.238576 34 8 34 L 22 34 C 25.865993 34 29 37.134007 29 41 L 29 43 C 29 46.865993 25.865993 50 22 50 L 4 50 L 4 51 L 22 51 C 26.418278 51 30 47.418278 30 43 L 30 41 C 30 36.581722 26.418278 33 22 33 L 8 33 C 5.790861 33 4 31.209139 4 29 L 4 27 C 4 24.790861 5.790861 23 8 23 L 22 23 C 26.418278 23 30 19.418278 30 15 L 30 13 C 30 8.581722 26.418278 5 22 5 L 8 5 z "
     id="path3217" />
  <path
     style="fill:#ffffff;fill-opacity:1;stroke:none"
     d="M 8 6 L 8 8 L 22 8 C 24.761424 8 27 10.238576 27 13 L 27 15 C 27 17.761424 24.761424 20 22 20 L 8 20 C 4.134007 20 1 23.134007 1 27 L 1 29 C 1 32.865993 4.134007 36 8 36 L 22 36 C 24.761424 36 27 38.238576 27 41 L 27 43 C 27 45.761424 24.761424 48 22 48 L 4 48 L 4 50 L 22 50 C 25.865993 50 29 46.865993 29 43 L 29 41 C 29 37.134007 25.865993 34 22 34 L 8 34 C 5.238576 34 3 31.761424 3 29 L 3 27 C 3 24.238576 5.238576 22 8 22 L 22 22 C 25.865993 22 29 18.865993 29 15 L 29 13 C 29 9.1340068 25.865993 6 22 6 L 8 6 z "
     id="path3220" />
  <path
     style="fill:#000000;fill-opacity:1;stroke:none"
     d="M 8 8 L 8 9 L 22 9 C 24.209139 9 26 10.790861 26 13 L 26 15 C 26 17.209139 24.209139 19 22 19 L 8 19 C 3.581722 19 0 22.581722 0 27 L 0 29 C 0 33.418278 3.581722 37 8 37 L 22 37 C 24.209139 37 26 38.790861 26 41 L 26 43 C 26 45.209139 24.209139 47 22 47 L 4 47 L 4 48 L 22 48 C 24.761424 48 27 45.761424 27 43 L 27 41 C 27 38.238576 24.761424 36 22 36 L 8 36 C 4.134007 36 1 32.865993 1 29 L 1 27 C 1 23.134007 4.134007 20 8 20 L 22 20 C 24.761424 20 27 17.761424 27 15 L 27 13 C 27 10.238576 24.761424 8 22 8 L 8 8 z "
     id="path3223" />
  <path
     style="fill:#ffffff;fill-opacity:1;stroke:none"
     d="M 7 2.40625 L 2.4375 7 L 7 11.59375 L 7 2.40625 z "
     id="path3476" />
</svg>
