<?xml version="1.0" encoding="UTF-8" standalone="no"?>
<svg
   xmlns:dc="http://purl.org/dc/elements/1.1/"
   xmlns:cc="http://creativecommons.org/ns#"
   xmlns:rdf="http://www.w3.org/1999/02/22-rdf-syntax-ns#"
   xmlns:svg="http://www.w3.org/2000/svg"
   xmlns="http://www.w3.org/2000/svg"
   xmlns:sodipodi="http://sodipodi.sourceforge.net/DTD/sodipodi-0.dtd"
   xmlns:inkscape="http://www.inkscape.org/namespaces/inkscape"
   version="1.0"
   width="48"
   height="49"
   id="svg2"
   inkscape:version="0.47 r22583"
   sodipodi:docname="02-07-016-01-02-05.svg">
  <defs
     id="defs16">
    <inkscape:perspective
       sodipodi:type="inkscape:persp3d"
       inkscape:vp_x="0 : 23 : 1"
       inkscape:vp_y="0 : 1000 : 0"
       inkscape:vp_z="36 : 23 : 1"
       inkscape:persp3d-origin="18 : 15.333333 : 1"
       id="perspective18" />
  </defs>
  <sodipodi:namedview
     pagecolor="#ffffff"
     bordercolor="#666666"
     borderopacity="1"
     objecttolerance="10"
     gridtolerance="10"
     guidetolerance="10"
     inkscape:pageopacity="0"
     inkscape:pageshadow="2"
     inkscape:window-width="964"
     inkscape:window-height="721"
     id="namedview14"
     showgrid="true"
     inkscape:zoom="9.6530612"
     inkscape:cx="24"
     inkscape:cy="24.5"
     inkscape:window-x="365"
     inkscape:window-y="0"
     inkscape:window-maximized="0"
     inkscape:current-layer="svg2"
     showborder="true">
    <inkscape:grid
       type="xygrid"
       id="grid2824"
       empspacing="5"
       visible="true"
       enabled="true"
       snapvisiblegridlinesonly="true" />
  </sodipodi:namedview>
  <metadata
     id="metadata4">
Valerie Sutton's pixel definition of the
ISWA 2010 symbol ID 04-01-003-01-01-01
transformed by Stephen E Slevinski Jr
using line and fill polygon tracing
<rdf:RDF>
  <cc:Work
     rdf:about="">
    <dc:format>image/svg+xml</dc:format>
    <dc:type
       rdf:resource="http://purl.org/dc/dcmitype/StillImage" />
    <dc:title></dc:title>
  </cc:Work>
</rdf:RDF>
</metadata>
  <path
     style="fill:#000000;fill-opacity:1;stroke:none"
     d="M 9.1005055,49 19,49 19,39.100505 9.1005055,49 z m 2.4085825,-0.994369 6.496544,-6.496543 -0.0221,6.474446 -6.474446,0.0221 z"
     id="path3182" />
  <path
     style="fill:#000000;fill-opacity:1;stroke:none"
     d="M 12.63604,45.464466 13.343146,44.75736 3.4436513,34.857865 c -2.7336699,-2.73367 -2.7336699,-7.165825 0,-9.899495 l 1.4142136,-1.414214 c 2.7336698,-2.73367 7.1658251,-2.73367 9.8994951,0 l 9.899495,9.899495 c 1.952621,1.952622 5.118446,1.952622 7.071068,0 l 1.414213,-1.414213 c 1.952622,-1.952622 1.952622,-5.118447 0,-7.071068 l -9.899495,-9.899495 c -2.73367,-2.73367 -2.73367,-7.1658252 0,-9.899495 l 1.414214,-1.4142136 c 2.73367,-2.7336699 7.165825,-2.7336699 9.899495,0 L 47.284272,16.473088 47.991379,15.765982 35.263456,3.0380596 c -3.124194,-3.12419432 -8.189514,-3.12419432 -11.313708,0 l -1.414214,1.4142136 c -3.124194,3.1241943 -3.124194,8.1895138 0,11.3137088 l 9.899495,9.899495 c 1.562097,1.562097 1.562097,4.094757 0,5.656854 l -1.414213,1.414213 c -1.562097,1.562098 -4.094757,1.562098 -5.656854,0 l -9.899495,-9.899495 c -3.124195,-3.124194 -8.1895146,-3.124194 -11.3137089,0 l -1.4142136,1.414214 c -3.1241943,3.124194 -3.1241943,8.189514 0,11.313709 l 9.8994955,9.899494 z"
     id="path3217" />
  <path
     style="fill:#ffffff;fill-opacity:1;stroke:none"
     d="M 13.343146,44.75736 14.75736,43.343146 4.8578649,33.443651 c -1.9526217,-1.952621 -1.9526217,-5.118446 0,-7.071068 L 6.2720784,24.95837 c 1.9526217,-1.952622 5.1184466,-1.952622 7.0710676,0 l 9.899495,9.899495 c 2.73367,2.73367 7.165825,2.73367 9.899495,0 l 1.414214,-1.414214 c 2.73367,-2.73367 2.73367,-7.165825 0,-9.899495 l -9.899495,-9.899495 c -1.952622,-1.952621 -1.952622,-5.1184458 0,-7.0710675 L 26.071068,5.15938 c 1.952622,-1.9526217 5.118446,-1.9526217 7.071068,0 L 45.870058,17.887302 47.284272,16.473088 34.55635,3.7451664 c -2.73367,-2.7336699 -7.165825,-2.7336699 -9.899495,0 L 23.242641,5.15938 c -2.73367,2.7336698 -2.73367,7.165825 0,9.899495 l 9.899495,9.899495 c 1.952622,1.952621 1.952622,5.118446 0,7.071068 l -1.414213,1.414213 c -1.952622,1.952622 -5.118447,1.952622 -7.071068,0 L 14.75736,23.544156 c -2.73367,-2.73367 -7.1658253,-2.73367 -9.8994951,0 L 3.4436513,24.95837 c -2.7336699,2.73367 -2.7336699,7.165825 0,9.899495 l 9.8994947,9.899495 z"
     id="path3220" />
  <path
     style="fill:#000000;fill-opacity:1;stroke:none"
     d="m 14.75736,43.343146 0.707107,-0.707107 -9.8994954,-9.899495 c -1.5620971,-1.562097 -1.5620971,-4.094757 0,-5.656854 l 1.4142136,-1.414213 c 1.5620972,-1.562098 4.0947568,-1.562098 5.6568548,0 l 9.899494,9.899495 c 3.124195,3.124194 8.189515,3.124194 11.313709,0 l 1.414213,-1.414214 c 3.124195,-3.124194 3.124195,-8.189514 0,-11.313709 l -9.899494,-9.899494 c -1.562098,-1.562098 -1.562098,-4.0947575 0,-5.6568547 l 1.414213,-1.4142136 c 1.562097,-1.5620971 4.094757,-1.5620971 5.656854,0 L 45.162951,18.594409 45.870058,17.887302 33.142136,5.15938 c -1.952622,-1.9526217 -5.118446,-1.9526217 -7.071068,0 l -1.414213,1.4142135 c -1.952622,1.9526217 -1.952622,5.1184465 0,7.0710675 l 9.899495,9.899495 c 2.73367,2.73367 2.73367,7.165825 0,9.899495 l -1.414214,1.414214 c -2.73367,2.73367 -7.165825,2.73367 -9.899495,0 L 13.343146,24.95837 c -1.952621,-1.952622 -5.1184459,-1.952622 -7.0710676,0 l -1.4142135,1.414213 c -1.9526217,1.952622 -1.9526217,5.118447 0,7.071068 l 9.8994951,9.899495 z"
     id="path3223" />
  <path
     style="fill:#ffffff;fill-opacity:1;stroke:none"
     d="m 11.509088,48.005631 6.474446,-0.0221 0.0221,-6.474446 -6.496544,6.496543 z"
     id="path3476" />
  <path
     style="fill:#000000;fill-opacity:1;stroke:none"
     d="m 30.313709,36.272078 c 1.562097,1.562097 4.094757,1.562097 5.656854,0 1.562097,-1.562097 1.562097,-4.094757 0,-5.656854 -1.562097,-1.562097 -4.094757,-1.562097 -5.656854,0 -1.562097,1.562097 -1.562097,4.094757 0,5.656854 z"
     id="path3049" />
  <path
     id="path3051"
     d="m 21.828428,7.9878071 c 1.562097,1.5620971 4.094757,1.5620971 5.656854,0 1.562097,-1.5620972 1.562097,-4.0947571 0,-5.6568543 -1.562097,-1.56209714 -4.094757,-1.56209714 -5.656854,0 -1.562098,1.5620972 -1.562098,4.0947571 0,5.6568543 z"
     style="fill:#000000;fill-opacity:1;stroke:none" />
  <path
     style="fill:#000000;fill-opacity:1;stroke:none"
     d="m 2.0294377,27.786797 c 1.5620972,1.562097 4.0947571,1.562097 5.6568543,0 1.5620972,-1.562097 1.5620972,-4.094757 0,-5.656854 -1.5620972,-1.562097 -4.0947571,-1.562097 -5.6568543,0 -1.5620971,1.562097 -1.5620971,4.094757 0,5.656854 z"
     id="path3053" />
</svg>
