<?xml version="1.0" encoding="UTF-8" standalone="no"?>
<svg
   xmlns:dc="http://purl.org/dc/elements/1.1/"
   xmlns:cc="http://creativecommons.org/ns#"
   xmlns:rdf="http://www.w3.org/1999/02/22-rdf-syntax-ns#"
   xmlns:svg="http://www.w3.org/2000/svg"
   xmlns="http://www.w3.org/2000/svg"
   xmlns:sodipodi="http://sodipodi.sourceforge.net/DTD/sodipodi-0.dtd"
   xmlns:inkscape="http://www.inkscape.org/namespaces/inkscape"
   version="1.0"
   width="49"
   height="48"
   id="svg2"
   inkscape:version="0.47 r22583"
   sodipodi:docname="02-07-016-01-01-06.svg">
  <defs
     id="defs16">
    <inkscape:perspective
       sodipodi:type="inkscape:persp3d"
       inkscape:vp_x="0 : 23 : 1"
       inkscape:vp_y="0 : 1000 : 0"
       inkscape:vp_z="36 : 23 : 1"
       inkscape:persp3d-origin="18 : 15.333333 : 1"
       id="perspective18" />
  </defs>
  <sodipodi:namedview
     pagecolor="#ffffff"
     bordercolor="#666666"
     borderopacity="1"
     objecttolerance="10"
     gridtolerance="10"
     guidetolerance="10"
     inkscape:pageopacity="0"
     inkscape:pageshadow="2"
     inkscape:window-width="964"
     inkscape:window-height="721"
     id="namedview14"
     showgrid="true"
     inkscape:zoom="9.8541667"
     inkscape:cx="24.5"
     inkscape:cy="24"
     inkscape:window-x="365"
     inkscape:window-y="0"
     inkscape:window-maximized="0"
     inkscape:current-layer="svg2"
     showborder="true">
    <inkscape:grid
       type="xygrid"
       id="grid2824"
       empspacing="5"
       visible="true"
       enabled="true"
       snapvisiblegridlinesonly="true" />
  </sodipodi:namedview>
  <metadata
     id="metadata4">
Valerie Sutton's pixel definition of the
ISWA 2010 symbol ID 04-01-003-01-01-01
transformed by Stephen E Slevinski Jr
using line and fill polygon tracing
<rdf:RDF>
  <cc:Work
     rdf:about="">
    <dc:format>image/svg+xml</dc:format>
    <dc:type
       rdf:resource="http://purl.org/dc/dcmitype/StillImage" />
    <dc:title></dc:title>
  </cc:Work>
</rdf:RDF>
</metadata>
  <path
     style="fill:#000000;fill-opacity:1;stroke:none"
     d="M 0,38.899494 9.8994951,29 0,29 0,38.899494 z"
     id="path3182" />
  <path
     style="fill:#000000;fill-opacity:1;stroke:none"
     d="m 3.535534,35.363961 0.707106,-0.707107 9.899495,9.899495 c 2.73367,2.73367 7.165825,2.73367 9.899495,0 l 1.414214,-1.414214 c 2.73367,-2.73367 2.73367,-7.165825 0,-9.899495 l -9.899495,-9.899495 c -1.952622,-1.952621 -1.952622,-5.118446 0,-7.071068 l 1.414213,-1.414213 c 1.952622,-1.952622 5.118447,-1.952622 7.071068,0 l 9.899495,9.899495 c 2.73367,2.73367 7.165825,2.73367 9.899495,0 l 1.414213,-1.414214 c 2.73367,-2.73367 2.73367,-7.165825 0,-9.899495 L 32.526911,0.71572827 33.234018,0.00862149 45.96194,12.736544 c 3.124195,3.124194 3.124195,8.189514 0,11.313708 l -1.414213,1.414214 c -3.124195,3.124194 -8.189514,3.124194 -11.313709,0 l -9.899495,-9.899495 c -1.562097,-1.562097 -4.094757,-1.562097 -5.656854,0 l -1.414213,1.414213 c -1.562098,1.562097 -1.562098,4.094757 0,5.656854 l 9.899495,9.899495 c 3.124194,3.124195 3.124194,8.189515 0,11.313709 l -1.414214,1.414213 c -3.124194,3.124195 -8.189514,3.124195 -11.313709,0 L 3.535534,35.363961 z"
     id="path3217" />
  <path
     style="fill:#ffffff;fill-opacity:1;stroke:none"
     d="m 4.24264,34.656854 1.414214,-1.414214 9.899495,9.899495 c 1.952621,1.952622 5.118446,1.952622 7.071068,0 l 1.414213,-1.414213 c 1.952622,-1.952622 1.952622,-5.118447 0,-7.071068 l -9.899495,-9.899495 c -2.73367,-2.73367 -2.73367,-7.165825 0,-9.899495 l 1.414214,-1.414214 c 2.73367,-2.73367 7.165825,-2.73367 9.899495,0 l 9.899495,9.899495 c 1.952621,1.952622 5.118446,1.952622 7.071067,0 l 1.414214,-1.414213 c 1.952622,-1.952622 1.952622,-5.118446 0,-7.071068 L 31.112698,2.1299418 32.526911,0.71572827 45.254833,13.44365 c 2.73367,2.73367 2.73367,7.165825 0,9.899495 l -1.414213,1.414214 c -2.73367,2.73367 -7.165825,2.73367 -9.899495,0 L 24.04163,14.857864 c -1.952621,-1.952622 -5.118446,-1.952622 -7.071068,0 l -1.414213,1.414213 c -1.952622,1.952622 -1.952622,5.118447 0,7.071068 l 9.899495,9.899495 c 2.73367,2.73367 2.73367,7.165825 0,9.899495 l -1.414214,1.414214 c -2.73367,2.73367 -7.165825,2.73367 -9.899495,0 L 4.24264,34.656854 z"
     id="path3220" />
  <path
     style="fill:#000000;fill-opacity:1;stroke:none"
     d="m 5.656854,33.24264 0.707107,-0.707107 9.899495,9.899495 c 1.562097,1.562098 4.094757,1.562098 5.656854,0 l 1.414213,-1.414213 c 1.562098,-1.562097 1.562098,-4.094757 0,-5.656854 l -9.899495,-9.899495 c -3.124194,-3.124195 -3.124194,-8.189515 0,-11.313709 l 1.414214,-1.414213 c 3.124194,-3.1241948 8.189514,-3.1241948 11.313709,0 l 9.899495,9.899494 c 1.562097,1.562098 4.094756,1.562098 5.656854,0 l 1.414213,-1.414213 c 1.562097,-1.562097 1.562097,-4.094757 0,-5.656854 L 30.405591,2.8370486 31.112698,2.1299418 43.84062,14.857864 c 1.952622,1.952622 1.952622,5.118446 0,7.071068 l -1.414214,1.414213 c -1.952621,1.952622 -5.118446,1.952622 -7.071067,0 L 25.455844,13.44365 c -2.73367,-2.73367 -7.165825,-2.73367 -9.899495,0 l -1.414214,1.414214 c -2.73367,2.73367 -2.73367,7.165825 0,9.899495 l 9.899495,9.899495 c 1.952622,1.952621 1.952622,5.118446 0,7.071068 l -1.414213,1.414213 c -1.952622,1.952622 -5.118447,1.952622 -7.071068,0 L 5.656854,33.24264 z"
     id="path3223" />
  <path
     style="fill:#000000;fill-opacity:1;stroke:none"
     d="m 18.384776,12.029437 c -1.562097,-1.562097 -4.094757,-1.562097 -5.656854,0 -1.562097,1.562097 -1.562097,4.094757 0,5.656854 1.562097,1.562097 4.094757,1.562097 5.656854,0 1.562097,-1.562097 1.562097,-4.094757 0,-5.656854 z"
     id="path3216" />
  <path
     id="path3218"
     d="m 26.870057,40.313708 c -1.562097,-1.562097 -4.094757,-1.562097 -5.656854,0 -1.562097,1.562097 -1.562097,4.094757 0,5.656854 1.562097,1.562097 4.094757,1.562097 5.656854,0 1.562097,-1.562097 1.562097,-4.094757 0,-5.656854 z"
     style="fill:#000000;fill-opacity:1;stroke:none" />
  <path
     style="fill:#000000;fill-opacity:1;stroke:none"
     d="m 46.669047,20.514718 c -1.562097,-1.562097 -4.094757,-1.562097 -5.656854,0 -1.562097,1.562097 -1.562097,4.094757 0,5.656854 1.562097,1.562098 4.094757,1.562098 5.656854,0 1.562097,-1.562097 1.562097,-4.094757 0,-5.656854 z"
     id="path3221" />
</svg>
