<?xml version="1.0" encoding="UTF-8" standalone="no"?>
<svg
   xmlns:dc="http://purl.org/dc/elements/1.1/"
   xmlns:cc="http://creativecommons.org/ns#"
   xmlns:rdf="http://www.w3.org/1999/02/22-rdf-syntax-ns#"
   xmlns:svg="http://www.w3.org/2000/svg"
   xmlns="http://www.w3.org/2000/svg"
   xmlns:sodipodi="http://sodipodi.sourceforge.net/DTD/sodipodi-0.dtd"
   xmlns:inkscape="http://www.inkscape.org/namespaces/inkscape"
   version="1.0"
   width="49"
   height="48"
   id="svg2"
   inkscape:version="0.47 r22583"
   sodipodi:docname="02-07-016-01-03-05.svg">
  <defs
     id="defs16">
    <inkscape:perspective
       sodipodi:type="inkscape:persp3d"
       inkscape:vp_x="0 : 23 : 1"
       inkscape:vp_y="0 : 1000 : 0"
       inkscape:vp_z="36 : 23 : 1"
       inkscape:persp3d-origin="18 : 15.333333 : 1"
       id="perspective18" />
  </defs>
  <sodipodi:namedview
     pagecolor="#ffffff"
     bordercolor="#666666"
     borderopacity="1"
     objecttolerance="10"
     gridtolerance="10"
     guidetolerance="10"
     inkscape:pageopacity="0"
     inkscape:pageshadow="2"
     inkscape:window-width="964"
     inkscape:window-height="721"
     id="namedview14"
     showgrid="true"
     inkscape:zoom="9.8541667"
     inkscape:cx="24.5"
     inkscape:cy="24"
     inkscape:window-x="365"
     inkscape:window-y="0"
     inkscape:window-maximized="0"
     inkscape:current-layer="svg2"
     showborder="true">
    <inkscape:grid
       type="xygrid"
       id="grid2824"
       empspacing="5"
       visible="true"
       enabled="true"
       snapvisiblegridlinesonly="true" />
  </sodipodi:namedview>
  <metadata
     id="metadata4">
Valerie Sutton's pixel definition of the
ISWA 2010 symbol ID 04-01-003-01-01-01
transformed by Stephen E Slevinski Jr
using line and fill polygon tracing
<rdf:RDF>
  <cc:Work
     rdf:about="">
    <dc:format>image/svg+xml</dc:format>
    <dc:type
       rdf:resource="http://purl.org/dc/dcmitype/StillImage" />
    <dc:title></dc:title>
  </cc:Work>
</rdf:RDF>
</metadata>
  <path
     style="fill:#000000;fill-opacity:1;stroke:none"
     d="M 49,38.899494 49,29 l -9.899495,0 1.414214,1.414213 7.071068,0 0,7.071068 L 49,38.899494 z"
     id="path3182" />
  <path
     style="fill:#000000;fill-opacity:1;stroke:none"
     d="m 45.464466,35.363961 -0.707106,-0.707107 -9.899495,9.899495 c -2.73367,2.73367 -7.165825,2.73367 -9.899495,0 l -1.414214,-1.414214 c -2.73367,-2.73367 -2.73367,-7.165825 0,-9.899495 l 9.899495,-9.899495 c 1.952622,-1.952621 1.952622,-5.118446 0,-7.071068 l -1.414213,-1.414213 c -1.952622,-1.952622 -5.118447,-1.952622 -7.071068,0 l -9.899495,9.899495 c -2.73367,2.73367 -7.1658252,2.73367 -9.899495,0 L 3.7451664,23.343145 c -2.7336699,-2.73367 -2.7336699,-7.165825 0,-9.899495 L 16.473089,0.71572827 15.765982,0.00862149 3.0380596,12.736544 c -3.1241943,3.124194 -3.1241943,8.189514 0,11.313708 l 1.4142136,1.414214 c 3.1241943,3.124194 8.1895138,3.124194 11.3137088,0 l 9.899495,-9.899495 c 1.562097,-1.562097 4.094757,-1.562097 5.656854,0 l 1.414213,1.414213 c 1.562098,1.562097 1.562098,4.094757 0,5.656854 l -9.899495,9.899495 c -3.124194,3.124195 -3.124194,8.189515 0,11.313709 l 1.414214,1.414213 c 3.124194,3.124195 8.189514,3.124195 11.313709,0 l 9.899494,-9.899494 z"
     id="path3217" />
  <path
     style="fill:#ffffff;fill-opacity:1;stroke:none"
     d="m 44.75736,34.656854 -1.414214,-1.414214 -9.899495,9.899495 c -1.952621,1.952622 -5.118446,1.952622 -7.071068,0 L 24.95837,41.727922 c -1.952622,-1.952622 -1.952622,-5.118447 0,-7.071068 l 9.899495,-9.899495 c 2.73367,-2.73367 2.73367,-7.165825 0,-9.899495 L 33.443651,13.44365 c -2.73367,-2.73367 -7.165825,-2.73367 -9.899495,0 l -9.899495,9.899495 c -1.952621,1.952622 -5.1184459,1.952622 -7.0710675,0 L 5.15938,21.928932 c -1.9526217,-1.952622 -1.9526217,-5.118446 0,-7.071068 L 17.887302,2.1299418 16.473089,0.71572827 3.7451664,13.44365 c -2.7336699,2.73367 -2.7336699,7.165825 0,9.899495 L 5.15938,24.757359 c 2.7336698,2.73367 7.165825,2.73367 9.899495,0 l 9.899495,-9.899495 c 1.952621,-1.952622 5.118446,-1.952622 7.071068,0 l 1.414213,1.414213 c 1.952622,1.952622 1.952622,5.118447 0,7.071068 l -9.899495,9.899495 c -2.73367,2.73367 -2.73367,7.165825 0,9.899495 l 1.414214,1.414214 c 2.73367,2.73367 7.165825,2.73367 9.899495,0 l 9.899495,-9.899495 z"
     id="path3220" />
  <path
     style="fill:#000000;fill-opacity:1;stroke:none"
     d="m 43.343146,33.24264 -0.707107,-0.707107 -9.899495,9.899495 c -1.562097,1.562098 -4.094757,1.562098 -5.656854,0 l -1.414213,-1.414213 c -1.562098,-1.562097 -1.562098,-4.094757 0,-5.656854 l 9.899495,-9.899495 c 3.124194,-3.124195 3.124194,-8.189515 0,-11.313709 l -1.414214,-1.414213 c -3.124194,-3.1241948 -8.189514,-3.1241948 -11.313709,0 l -9.899495,9.899494 c -1.562097,1.562098 -4.0947565,1.562098 -5.6568537,0 L 5.8664867,21.221825 c -1.5620971,-1.562097 -1.5620971,-4.094757 0,-5.656854 L 18.594409,2.8370486 17.887302,2.1299418 5.15938,14.857864 c -1.9526217,1.952622 -1.9526217,5.118446 0,7.071068 l 1.4142135,1.414213 c 1.9526217,1.952622 5.1184465,1.952622 7.0710675,0 l 9.899495,-9.899495 c 2.73367,-2.73367 7.165825,-2.73367 9.899495,0 l 1.414214,1.414214 c 2.73367,2.73367 2.73367,7.165825 0,9.899495 l -9.899495,9.899495 c -1.952622,1.952621 -1.952622,5.118446 0,7.071068 l 1.414213,1.414213 c 1.952622,1.952622 5.118447,1.952622 7.071068,0 l 9.899495,-9.899495 z"
     id="path3223" />
  <path
     style="fill:#000000;fill-opacity:1;stroke:none"
     d="m 22.129943,40.313708 c 1.562097,-1.562097 4.094757,-1.562097 5.656854,0 1.562097,1.562097 1.562097,4.094757 0,5.656854 -1.562097,1.562097 -4.094757,1.562097 -5.656854,0 -1.562097,-1.562097 -1.562097,-4.094757 0,-5.656854 z"
     id="path2899" />
  <path
     id="path2904"
     d="m 30.615224,12.029437 c 1.562097,-1.562097 4.094757,-1.562097 5.656854,0 1.562097,1.562097 1.562097,4.094757 0,5.656854 -1.562097,1.562097 -4.094757,1.562097 -5.656854,0 -1.562097,-1.562097 -1.562097,-4.094757 0,-5.656854 z"
     style="fill:#000000;fill-opacity:1;stroke:none" />
  <path
     style="fill:#000000;fill-opacity:1;stroke:none"
     d="m 2.3309528,20.514718 c 1.5620972,-1.562097 4.0947571,-1.562097 5.6568543,0 1.5620972,1.562097 1.5620972,4.094757 0,5.656854 -1.5620972,1.562098 -4.0947571,1.562098 -5.6568543,0 -1.5620971,-1.562097 -1.5620971,-4.094757 0,-5.656854 z"
     id="path2906" />
</svg>
