<?xml version="1.0" encoding="UTF-8" standalone="no"?>
<svg
   xmlns:dc="http://purl.org/dc/elements/1.1/"
   xmlns:cc="http://creativecommons.org/ns#"
   xmlns:rdf="http://www.w3.org/1999/02/22-rdf-syntax-ns#"
   xmlns:svg="http://www.w3.org/2000/svg"
   xmlns="http://www.w3.org/2000/svg"
   xmlns:sodipodi="http://sodipodi.sourceforge.net/DTD/sodipodi-0.dtd"
   xmlns:inkscape="http://www.inkscape.org/namespaces/inkscape"
   version="1.0"
   width="49"
   height="49"
   id="svg2"
   inkscape:version="0.47 r22583"
   sodipodi:docname="02-07-016-03-02-08.svg">
  <defs
     id="defs16">
    <inkscape:perspective
       sodipodi:type="inkscape:persp3d"
       inkscape:vp_x="0 : 23 : 1"
       inkscape:vp_y="0 : 1000 : 0"
       inkscape:vp_z="36 : 23 : 1"
       inkscape:persp3d-origin="18 : 15.333333 : 1"
       id="perspective18" />
  </defs>
  <sodipodi:namedview
     pagecolor="#ffffff"
     bordercolor="#666666"
     borderopacity="1"
     objecttolerance="10"
     gridtolerance="10"
     guidetolerance="10"
     inkscape:pageopacity="0"
     inkscape:pageshadow="2"
     inkscape:window-width="964"
     inkscape:window-height="721"
     id="namedview14"
     showgrid="true"
     inkscape:zoom="9.6530612"
     inkscape:cx="24.5"
     inkscape:cy="24.5"
     inkscape:window-x="365"
     inkscape:window-y="0"
     inkscape:window-maximized="0"
     inkscape:current-layer="svg2"
     showborder="true">
    <inkscape:grid
       type="xygrid"
       id="grid2824"
       empspacing="5"
       visible="true"
       enabled="true"
       snapvisiblegridlinesonly="true" />
  </sodipodi:namedview>
  <metadata
     id="metadata4">
Valerie Sutton's pixel definition of the
ISWA 2010 symbol ID 04-01-003-01-01-01
transformed by Stephen E Slevinski Jr
using line and fill polygon tracing
<rdf:RDF>
  <cc:Work
     rdf:about="">
    <dc:format>image/svg+xml</dc:format>
    <dc:type
       rdf:resource="http://purl.org/dc/dcmitype/StillImage" />
    <dc:title></dc:title>
  </cc:Work>
</rdf:RDF>
</metadata>
  <path
     style="fill:#000000;fill-opacity:1;stroke:none"
     d="M 0,10.100506 0,20 9.8994954,20 0,10.100506 z m 0.9943689,2.408582 6.4965435,6.496544 -6.4744464,-0.0221 -0.022097,-6.474446 z"
     id="path3182" />
  <path
     style="fill:#000000;fill-opacity:1;stroke:none"
     d="m 3.5355339,13.63604 0.7071068,0.707106 9.8994943,-9.8994948 c 2.73367,-2.73367 7.165825,-2.73367 9.899495,0 l 1.414214,1.414213 c 2.73367,2.73367 2.73367,7.1658258 0,9.8994958 l -9.899495,9.899495 c -1.952622,1.952621 -1.952622,5.118446 0,7.071068 l 1.414213,1.414213 c 1.952622,1.952622 5.118447,1.952622 7.071068,0 l 9.899495,-9.899495 c 2.73367,-2.73367 7.165825,-2.73367 9.899495,0 l 1.414214,1.414214 c 2.733669,2.73367 2.733669,7.165825 0,9.899495 L 32.526912,48.284272 33.234018,48.991379 45.96194,36.263456 c 3.124195,-3.124194 3.124195,-8.189514 0,-11.313708 l -1.414213,-1.414214 c -3.124195,-3.124194 -8.189514,-3.124194 -11.313709,0 l -9.899495,9.899495 c -1.562097,1.562097 -4.094757,1.562097 -5.656854,0 l -1.414213,-1.414213 c -1.562098,-1.562097 -1.562098,-4.094757 0,-5.656854 l 9.899495,-9.899495 c 3.124194,-3.124195 3.124194,-8.1895148 0,-11.3137088 l -1.414214,-1.414214 c -3.124194,-3.124194 -8.189514,-3.124194 -11.313709,0 L 3.5355339,13.63604 z"
     id="path3217" />
  <path
     style="fill:#ffffff;fill-opacity:1;stroke:none"
     d="M 4.2426407,14.343146 5.6568543,15.75736 15.556349,5.8578652 c 1.952621,-1.952622 5.118446,-1.952622 7.071068,0 l 1.414213,1.414213 c 1.952622,1.952622 1.952622,5.1184468 0,7.0710678 l -9.899495,9.899495 c -2.73367,2.73367 -2.73367,7.165825 0,9.899495 l 1.414214,1.414214 c 2.73367,2.73367 7.165825,2.73367 9.899495,0 l 9.899495,-9.899495 c 1.952621,-1.952622 5.118446,-1.952622 7.071067,0 l 1.414214,1.414213 c 1.952622,1.952622 1.952622,5.118446 0,7.071068 L 31.112698,46.870058 32.526912,48.284272 45.254834,35.55635 c 2.733669,-2.73367 2.733669,-7.165825 0,-9.899495 L 43.84062,24.242641 c -2.73367,-2.73367 -7.165825,-2.73367 -9.899495,0 l -9.899495,9.899495 c -1.952621,1.952622 -5.118446,1.952622 -7.071068,0 l -1.414213,-1.414213 c -1.952622,-1.952622 -1.952622,-5.118447 0,-7.071068 l 9.899495,-9.899495 c 2.73367,-2.73367 2.73367,-7.1658258 0,-9.8994948 L 24.04163,4.4436512 c -2.73367,-2.73367 -7.165825,-2.73367 -9.899495,0 L 4.2426407,14.343146 z"
     id="path3220" />
  <path
     style="fill:#000000;fill-opacity:1;stroke:none"
     d="m 5.6568543,15.75736 0.7071067,0.707107 9.899495,-9.8994958 c 1.562097,-1.562097 4.094757,-1.562097 5.656854,0 l 1.414213,1.414214 c 1.562098,1.562097 1.562098,4.0947568 0,5.6568548 l -9.899495,9.899494 c -3.124194,3.124195 -3.124194,8.189515 0,11.313709 l 1.414214,1.414213 c 3.124194,3.124195 8.189514,3.124195 11.313709,0 l 9.899494,-9.899494 c 1.562098,-1.562098 4.094758,-1.562098 5.656855,0 l 1.414213,1.414213 c 1.562097,1.562097 1.562097,4.094757 0,5.656854 L 30.405591,46.162951 31.112698,46.870058 43.84062,34.142136 c 1.952622,-1.952622 1.952622,-5.118446 0,-7.071068 l -1.414214,-1.414213 c -1.952621,-1.952622 -5.118446,-1.952622 -7.071067,0 l -9.899495,9.899495 c -2.73367,2.73367 -7.165825,2.73367 -9.899495,0 l -1.414214,-1.414214 c -2.73367,-2.73367 -2.73367,-7.165825 0,-9.899495 l 9.899495,-9.899495 c 1.952622,-1.952621 1.952622,-5.1184458 0,-7.0710678 l -1.414213,-1.414213 c -1.952622,-1.952622 -5.118447,-1.952622 -7.071068,0 L 5.6568543,15.75736 z"
     id="path3223" />
  <path
     style="fill:#ffffff;fill-opacity:1;stroke:none"
     d="m 0.9943689,12.509088 0.022097,6.474446 6.4744464,0.0221 -6.4965435,-6.496544 z"
     id="path3476" />
  <path
     style="fill:#000000;fill-opacity:1;stroke:none"
     d="m 10.606601,37.67767 1.414214,1.414214 8.485281,-8.485282 -1.414213,-1.414213 -8.485282,8.485281 z"
     id="rect3034" />
  <path
     id="path3039"
     d="m 19.091883,9.3933982 1.414213,1.4142138 8.485282,-8.4852808 -1.414214,-1.414214 -8.485281,8.485281 z"
     style="fill:#000000;fill-opacity:1;stroke:none" />
  <path
     style="fill:#000000;fill-opacity:1;stroke:none"
     d="m 38.890873,29.192389 1.414213,1.414213 8.485282,-8.485281 -1.414214,-1.414214 -8.485281,8.485282 z"
     id="path3041" />
</svg>
