<?xml version="1.0" encoding="UTF-8" standalone="no"?>
<svg
   xmlns:dc="http://purl.org/dc/elements/1.1/"
   xmlns:cc="http://creativecommons.org/ns#"
   xmlns:rdf="http://www.w3.org/1999/02/22-rdf-syntax-ns#"
   xmlns:svg="http://www.w3.org/2000/svg"
   xmlns="http://www.w3.org/2000/svg"
   xmlns:sodipodi="http://sodipodi.sourceforge.net/DTD/sodipodi-0.dtd"
   xmlns:inkscape="http://www.inkscape.org/namespaces/inkscape"
   version="1.0"
   width="49"
   height="49"
   id="svg2"
   inkscape:version="0.47 r22583"
   sodipodi:docname="02-07-016-03-03-16.svg">
  <defs
     id="defs16">
    <inkscape:perspective
       sodipodi:type="inkscape:persp3d"
       inkscape:vp_x="0 : 23 : 1"
       inkscape:vp_y="0 : 1000 : 0"
       inkscape:vp_z="36 : 23 : 1"
       inkscape:persp3d-origin="18 : 15.333333 : 1"
       id="perspective18" />
  </defs>
  <sodipodi:namedview
     pagecolor="#ffffff"
     bordercolor="#666666"
     borderopacity="1"
     objecttolerance="10"
     gridtolerance="10"
     guidetolerance="10"
     inkscape:pageopacity="0"
     inkscape:pageshadow="2"
     inkscape:window-width="964"
     inkscape:window-height="721"
     id="namedview14"
     showgrid="true"
     inkscape:zoom="9.6530612"
     inkscape:cx="24.5"
     inkscape:cy="24.5"
     inkscape:window-x="365"
     inkscape:window-y="0"
     inkscape:window-maximized="0"
     inkscape:current-layer="svg2"
     showborder="true">
    <inkscape:grid
       type="xygrid"
       id="grid2824"
       empspacing="5"
       visible="true"
       enabled="true"
       snapvisiblegridlinesonly="true" />
  </sodipodi:namedview>
  <metadata
     id="metadata4">
Valerie Sutton's pixel definition of the
ISWA 2010 symbol ID 04-01-003-01-01-01
transformed by Stephen E Slevinski Jr
using line and fill polygon tracing
<rdf:RDF>
  <cc:Work
     rdf:about="">
    <dc:format>image/svg+xml</dc:format>
    <dc:type
       rdf:resource="http://purl.org/dc/dcmitype/StillImage" />
    <dc:title></dc:title>
  </cc:Work>
</rdf:RDF>
</metadata>
  <path
     style="fill:#000000;fill-opacity:1;stroke:none"
     d="M 49,10.100507 49,20 l -9.899496,0 1.414214,-1.414213 7.071068,0 0,-7.071068 L 49,10.100507 z"
     id="path3182" />
  <path
     style="fill:#000000;fill-opacity:1;stroke:none"
     d="m 45.464466,13.636039 -0.707107,0.707107 -9.899495,-9.8994942 c -2.73367,-2.73367 -7.165825,-2.73367 -9.899495,0 l -1.414214,1.414214 c -2.73367,2.73367 -2.73367,7.1658242 0,9.8994942 l 9.899495,9.899495 c 1.952622,1.952621 1.952622,5.118446 0,7.071068 l -1.414213,1.414213 c -1.952622,1.952622 -5.118447,1.952622 -7.071068,0 l -9.899495,-9.899495 c -2.73367,-2.73367 -7.1658253,-2.73367 -9.8994953,0 l -1.414214,1.414214 c -2.733669,2.73367 -2.733669,7.165825 0,9.899496 L 16.473087,48.284272 15.765981,48.991379 3.0380587,36.263456 c -3.12419495,-3.124193 -3.12419495,-8.189514 0,-11.313708 l 1.414213,-1.414214 c 3.124195,-3.124194 8.1895143,-3.124194 11.3137093,0 l 9.899495,9.899495 c 1.562097,1.562097 4.094757,1.562097 5.656854,0 l 1.414213,-1.414213 c 1.562098,-1.562097 1.562098,-4.094757 0,-5.656854 l -9.899495,-9.899495 c -3.124194,-3.124195 -3.124194,-8.1895142 0,-11.3137082 l 1.414214,-1.414213 c 3.124194,-3.12419505 8.189514,-3.12419505 11.313709,0 l 9.899495,9.8994932 z"
     id="path3217" />
  <path
     style="fill:#ffffff;fill-opacity:1;stroke:none"
     d="M 44.757359,14.343146 43.343145,15.75736 33.44365,5.8578658 c -1.952621,-1.952622 -5.118446,-1.952622 -7.071068,0 l -1.414213,1.414213 c -1.952622,1.952622 -1.952622,5.1184462 0,7.0710672 l 9.899495,9.899495 c 2.73367,2.73367 2.73367,7.165825 0,9.899495 l -1.414214,1.414215 c -2.73367,2.733668 -7.165825,2.733668 -9.899495,0 L 13.64466,25.656855 c -1.952621,-1.952622 -5.1184462,-1.952622 -7.0710672,0 l -1.4142141,1.414213 c -1.9526219,1.952623 -1.9526219,5.118446 0,7.071068 L 17.887301,46.870059 16.473087,48.284272 3.7451647,35.556351 c -2.733669,-2.733671 -2.733669,-7.165826 0,-9.899496 l 1.414214,-1.414214 c 2.7336701,-2.73367 7.1658253,-2.73367 9.8994953,0 l 9.899495,9.899495 c 1.952621,1.952622 5.118446,1.952622 7.071068,0 l 1.414213,-1.414214 c 1.952622,-1.952621 1.952622,-5.118446 0,-7.071067 L 23.544155,15.75736 c -2.73367,-2.733669 -2.73367,-7.1658242 0,-9.8994942 l 1.414214,-1.414214 c 2.73367,-2.73367 7.165825,-2.73367 9.899495,0 l 9.899495,9.8994942 z"
     id="path3220" />
  <path
     style="fill:#000000;fill-opacity:1;stroke:none"
     d="m 43.343145,15.75736 -0.707106,0.707107 -9.899496,-9.8994942 c -1.562097,-1.562098 -4.094757,-1.562098 -5.656854,0 l -1.414213,1.414213 c -1.562098,1.562097 -1.562098,4.0947562 0,5.6568532 l 9.899495,9.899495 c 3.124194,3.124195 3.124194,8.189515 0,11.313709 l -1.414214,1.414213 c -3.124194,3.124195 -8.189514,3.124195 -11.313709,0 l -9.899494,-9.899494 c -1.562098,-1.562098 -4.0947582,-1.562098 -5.6568552,0 l -1.414213,1.414213 c -1.562097,1.562097 -1.562097,4.094757 0,5.656854 L 18.594408,46.162952 17.887301,46.870059 5.1593788,34.142136 c -1.952622,-1.952622 -1.952622,-5.118445 0,-7.071068 l 1.414214,-1.414213 c 1.952621,-1.952622 5.1184462,-1.952622 7.0710672,0 l 9.899495,9.899496 c 2.73367,2.733668 7.165825,2.733668 9.899495,0 l 1.414214,-1.414215 c 2.73367,-2.73367 2.73367,-7.165824 0,-9.899495 l -9.899495,-9.899495 c -1.952622,-1.952621 -1.952622,-5.1184452 0,-7.0710672 l 1.414213,-1.414213 c 1.952622,-1.952622 5.118447,-1.952622 7.071068,0 l 9.899495,9.8994942 z"
     id="path3223" />
  <path
     style="fill:#000000;fill-opacity:1;stroke:none"
     d="M 10.109126,29.192389 8.6949128,30.606602 0.20963075,22.121321 1.6238448,20.707107 10.109126,29.192389 z"
     id="rect2899" />
  <path
     id="path2904"
     d="M 29.908116,9.3933998 28.493903,10.807612 20.008621,2.3223318 21.422835,0.90811775 29.908116,9.3933998 z"
     style="fill:#000000;fill-opacity:1;stroke:none" />
  <path
     style="fill:#000000;fill-opacity:1;stroke:none"
     d="m 38.393398,37.67767 -1.414214,1.414214 -8.485281,-8.485281 1.414213,-1.414213 8.485282,8.485281 z"
     id="path2906" />
</svg>
