<?xml version="1.0" encoding="UTF-8" standalone="no"?>
<svg
   xmlns:dc="http://purl.org/dc/elements/1.1/"
   xmlns:cc="http://creativecommons.org/ns#"
   xmlns:rdf="http://www.w3.org/1999/02/22-rdf-syntax-ns#"
   xmlns:svg="http://www.w3.org/2000/svg"
   xmlns="http://www.w3.org/2000/svg"
   xmlns:sodipodi="http://sodipodi.sourceforge.net/DTD/sodipodi-0.dtd"
   xmlns:inkscape="http://www.inkscape.org/namespaces/inkscape"
   version="1.0"
   width="23"
   height="10"
   id="svg2"
   inkscape:version="0.47 r22583"
   sodipodi:docname="04-02-007-02-02-06.svg">
  <defs
     id="defs14">
    <inkscape:perspective
       sodipodi:type="inkscape:persp3d"
       inkscape:vp_x="0 : 3.5 : 1"
       inkscape:vp_y="0 : 1000 : 0"
       inkscape:vp_z="7 : 3.5 : 1"
       inkscape:persp3d-origin="3.5 : 2.3333333 : 1"
       id="perspective16" />
  </defs>
  <sodipodi:namedview
     pagecolor="#ffffff"
     bordercolor="#666666"
     borderopacity="1"
     objecttolerance="10"
     gridtolerance="10"
     guidetolerance="10"
     inkscape:pageopacity="0"
     inkscape:pageshadow="2"
     inkscape:window-width="928"
     inkscape:window-height="791"
     id="namedview12"
     showgrid="true"
     inkscape:zoom="33.709536"
     inkscape:cx="11.861049"
     inkscape:cy="5.4993689"
     inkscape:window-x="273"
     inkscape:window-y="0"
     inkscape:window-maximized="0"
     inkscape:current-layer="svg2">
    <inkscape:grid
       type="xygrid"
       id="grid2822" />
  </sodipodi:namedview>
  <metadata
     id="metadata4">
Valerie Sutton's pixel definition of the
ISWA 2010 symbol ID 04-02-007-01-04-01
transformed by Stephen E Slevinski Jr
using line and fill polygon tracing
<rdf:RDF>
  <cc:Work
     rdf:about="">
    <dc:format>image/svg+xml</dc:format>
    <dc:type
       rdf:resource="http://purl.org/dc/dcmitype/StillImage" />
    <dc:title></dc:title>
  </cc:Work>
</rdf:RDF>
</metadata>
  <path
     style="fill:#000000;fill-opacity:1;stroke:none"
     d="M 18.4065,0.46875 17.68775,1.15625 20.5315,4 21.219,3.28125 18.4065,0.46875 z"
     id="rect2849" />
  <path
     style="fill:#000000;fill-opacity:1;stroke:none"
     d="M 14.1565,4.6875 13.469,5.40625 16.2815,8.21875 17.00025,7.53125 14.1565,4.6875 z"
     id="path2817" />
  <path
     style="fill:#000000;fill-opacity:1;stroke:none"
     d="m 23.000299,5.7573595 0,-4.9497475 -0.994369,0.022097 -0.0221,3.9111844 -4.220543,0.022097 -0.0221,4.2205436 -3.911185,0.022097 -0.0221,0.994369 4.949747,0 0,-4.2426406 4.242641,0 z"
     id="rect2826" />
  <path
     style="fill:#000000;fill-opacity:1;stroke:none"
     d="M 5.4065,0.46875 4.68775,1.15625 7.5315,4 8.219,3.28125 5.4065,0.46875 z"
     id="path2901" />
  <path
     style="fill:#000000;fill-opacity:1;stroke:none"
     d="M 1.1565,4.6875 0.469,5.40625 3.2815,8.21875 4.00025,7.53125 1.1565,4.6875 z"
     id="path2905" />
  <path
     id="path2909"
     d="m 10.000299,5.7573595 0,-4.9497475 L 9.00593,0.829709 8.98383,4.7408934 4.763287,4.7629904 4.741187,8.983534 0.830003,9.005631 0.807903,10 l 4.949747,0 0,-4.2426407 4.242641,0 z"
     style="fill:#000000;fill-opacity:1;stroke:none" />
</svg>
