<?xml version="1.0" encoding="UTF-8" standalone="no"?>
<svg
   xmlns:dc="http://purl.org/dc/elements/1.1/"
   xmlns:cc="http://creativecommons.org/ns#"
   xmlns:rdf="http://www.w3.org/1999/02/22-rdf-syntax-ns#"
   xmlns:svg="http://www.w3.org/2000/svg"
   xmlns="http://www.w3.org/2000/svg"
   xmlns:sodipodi="http://sodipodi.sourceforge.net/DTD/sodipodi-0.dtd"
   xmlns:inkscape="http://www.inkscape.org/namespaces/inkscape"
   version="1.0"
   width="35"
   height="42"
   id="svg2"
   inkscape:version="0.47 r22583"
   sodipodi:docname="04-01-007-01-01-03.svg">
  <defs
     id="defs20">
    <inkscape:perspective
       sodipodi:type="inkscape:persp3d"
       inkscape:vp_x="0 : 4 : 1"
       inkscape:vp_y="0 : 1000 : 0"
       inkscape:vp_z="20 : 4 : 1"
       inkscape:persp3d-origin="10 : 2.6666667 : 1"
       id="perspective22" />
  </defs>
  <sodipodi:namedview
     pagecolor="#ffffff"
     bordercolor="#666666"
     borderopacity="1"
     objecttolerance="10"
     gridtolerance="10"
     guidetolerance="10"
     inkscape:pageopacity="0"
     inkscape:pageshadow="2"
     inkscape:window-width="998"
     inkscape:window-height="791"
     id="namedview18"
     showgrid="true"
     inkscape:zoom="12.56"
     inkscape:cx="16.012124"
     inkscape:cy="20.679389"
     inkscape:window-x="238"
     inkscape:window-y="0"
     inkscape:window-maximized="0"
     inkscape:current-layer="svg2">
    <inkscape:grid
       type="xygrid"
       id="grid2828" />
  </sodipodi:namedview>
  <metadata
     id="metadata4">
Valerie Sutton's pixel definition of the
ISWA 2010 symbol ID 04-01-006-01-02-01
transformed by Stephen E Slevinski Jr
using line and fill polygon tracing
<rdf:RDF>
  <cc:Work
     rdf:about="">
    <dc:format>image/svg+xml</dc:format>
    <dc:type
       rdf:resource="http://purl.org/dc/dcmitype/StillImage" />
    <dc:title></dc:title>
  </cc:Work>
</rdf:RDF>
</metadata>
  <path
     style="fill:#000000"
     d="M 8,0 8,6 14,6 14,5 9,5 9,0 8,0 z"
     id="path12" />
  <path
     style="fill:#000000;fill-opacity:1;stroke:none"
     d="m 17.5,0 c -2.899495,0 -5.537374,1.1623737 -7.4375,3.0625 l 0.71875,0.71875 C 12.500412,2.0620881 14.876648,1 17.5,1 c 2.623352,0 4.999588,1.0620881 6.71875,2.78125 L 25.3125,4.875 26,4.15625 24.9375,3.09375 C 23.037374,1.1936237 20.399495,0 17.5,0 z"
     id="path2848" />
  <path
     style="fill:#000000;fill-opacity:1;stroke:none"
     d="M 17.5,7 C 7.8350169,7 0,14.835017 0,24.5 0,34.164983 7.8350169,42 17.5,42 27.164983,42 35,34.164983 35,24.5 35,14.835017 27.164983,7 17.5,7 z m 0,2 C 26.060414,9 33,15.939586 33,24.5 33,33.060414 26.060414,40 17.5,40 8.9395864,40 2,33.060414 2,24.5 2,15.939586 8.9395864,9 17.5,9 z"
     id="path2915" />
</svg>
