<?xml version="1.0" encoding="UTF-8" standalone="no"?>
<svg
   xmlns:dc="http://purl.org/dc/elements/1.1/"
   xmlns:cc="http://creativecommons.org/ns#"
   xmlns:rdf="http://www.w3.org/1999/02/22-rdf-syntax-ns#"
   xmlns:svg="http://www.w3.org/2000/svg"
   xmlns="http://www.w3.org/2000/svg"
   xmlns:sodipodi="http://sodipodi.sourceforge.net/DTD/sodipodi-0.dtd"
   xmlns:inkscape="http://www.inkscape.org/namespaces/inkscape"
   version="1.0"
   width="24"
   height="47"
   id="svg2"
   inkscape:version="0.47 r22583"
   sodipodi:docname="02-07-003-01-01-02.svg">
  <defs
     id="defs16">
    <inkscape:perspective
       sodipodi:type="inkscape:persp3d"
       inkscape:vp_x="0 : 23 : 1"
       inkscape:vp_y="0 : 1000 : 0"
       inkscape:vp_z="36 : 23 : 1"
       inkscape:persp3d-origin="18 : 15.333333 : 1"
       id="perspective18" />
  </defs>
  <sodipodi:namedview
     pagecolor="#ffffff"
     bordercolor="#666666"
     borderopacity="1"
     objecttolerance="10"
     gridtolerance="10"
     guidetolerance="10"
     inkscape:pageopacity="0"
     inkscape:pageshadow="2"
     inkscape:window-width="964"
     inkscape:window-height="721"
     id="namedview14"
     showgrid="true"
     inkscape:zoom="10.06383"
     inkscape:cx="12"
     inkscape:cy="23.5"
     inkscape:window-x="365"
     inkscape:window-y="0"
     inkscape:window-maximized="0"
     inkscape:current-layer="svg2"
     showborder="true">
    <inkscape:grid
       type="xygrid"
       id="grid2824"
       empspacing="5"
       visible="true"
       enabled="true"
       snapvisiblegridlinesonly="true" />
  </sodipodi:namedview>
  <metadata
     id="metadata4">
Valerie Sutton's pixel definition of the
ISWA 2010 symbol ID 04-01-003-01-01-01
transformed by Stephen E Slevinski Jr
using line and fill polygon tracing
<rdf:RDF>
  <cc:Work
     rdf:about="">
    <dc:format>image/svg+xml</dc:format>
    <dc:type
       rdf:resource="http://purl.org/dc/dcmitype/StillImage" />
    <dc:title></dc:title>
  </cc:Work>
</rdf:RDF>
</metadata>
  <path
     style="fill:#000000;fill-opacity:1;stroke:none"
     d="M 10,47 22,47 22,35 10,47 z"
     id="path3690" />
  <path
     style="fill:#000000;fill-opacity:1;stroke:none"
     d="m 13.53125,43.46875 1.0625,-1.0625 -4.59375,-4.5 c -2.171573,-2.171573 -3.5,-5.186291 -3.5,-8.5 l 0,-1.84375 c 0,-3.313709 1.328427,-6.328427 3.5,-8.5 l 0.5625,-0.5 C 11.829251,17.295749 13.567003,16.5 15.5,16.5 c 3.865993,0 7,3.134007 7,7 0,3.865993 -3.134007,7 -7,7 -1.273175,0 -2.475023,-0.339862 -3.5,-0.9375 0.01488,0.616179 0.105976,1.219394 0.28125,1.78125 C 13.274909,31.754894 14.358791,32 15.5,32 20.19442,32 24,28.19442 24,23.5 24,18.80558 20.19442,15 15.5,15 c -2.34721,0 -4.461802,0.961802 -6,2.5 L 8.96875,18.03125 C 8.052618,18.947382 7.251059,19.979867 6.625,21.125 6.54698,20.568911 6.5,20.014601 6.5,19.4375 l 0,-1.84375 c 0,-3.31371 1.328427,-6.32843 3.5,-8.5 L 18.125,1.0625 17.0625,0 8.96875,8.0625 C 6.52573,10.50552 5,13.86583 5,17.59375 L 5,19.4375 C 5,20.859859 5.245829,22.215201 5.65625,23.5 5.245829,24.784799 5,26.14014 5,27.5625 l 0,1.84375 c 0,3.727922 1.52573,7.08823 3.96875,9.53125 l 4.5625,4.53125 z"
     id="path4274" />
  <path
     style="fill:#ffffff;fill-opacity:1;stroke:none"
     d="m 14.59375,42.40625 2.8125,-2.8125 -4.5625,-4.53125 C 11.396035,33.614785 10.5,31.615389 10.5,29.40625 l 0,-1.84375 c 0,-2.209139 0.896035,-4.208535 2.34375,-5.65625 L 13.375,21.375 C 13.917893,20.832107 14.671573,20.5 15.5,20.5 c 1.656854,0 3,1.343146 3,3 0,1.656854 -1.343146,3 -3,3 -0.828427,0 -1.582107,-0.332107 -2.125,-0.875 L 12.84375,25.09375 C 12.75431,25.00431 12.678135,24.906489 12.59375,24.8125 12.203049,25.646604 12,26.580277 12,27.5625 l 0,1.84375 c 0,0.0533 -0.0013,0.103262 0,0.15625 1.024977,0.597638 2.226824,0.9375 3.5,0.9375 3.865993,0 7,-3.134007 7,-7 0,-3.865993 -3.134007,-7 -7,-7 -1.932996,0 -3.670749,0.795749 -4.9375,2.0625 L 10,19.0625 c -2.171573,2.171573 -3.5,5.186291 -3.5,8.5 l 0,1.84375 c 0,3.313709 1.328427,6.328427 3.5,8.5 l 4.59375,4.5 z M 6.625,21.125 C 7.251059,19.979867 8.052618,18.947382 8.96875,18.03125 L 9.5,17.5 c 0.330851,-0.330851 0.681737,-0.632566 1.0625,-0.90625 0.226455,-1.807672 1.056341,-3.431337 2.28125,-4.65625 L 20.9375,3.875 18.125,1.0625 10,9.09375 c -2.171573,2.17157 -3.5,5.18629 -3.5,8.5 l 0,1.84375 c 0,0.577101 0.04698,1.131411 0.125,1.6875 z"
     id="path4277" />
  <path
     style="fill:#000000;fill-opacity:1;stroke:none"
     d="m 17.40625,39.59375 1.0625,-1.0625 L 13.90625,34 C 12.729981,32.823731 12,31.201175 12,29.40625 l 0,-1.84375 c 0,-0.982223 0.203049,-1.915896 0.59375,-2.75 0.08438,0.09399 0.160557,0.191806 0.25,0.28125 L 13.375,25.625 c 0.542893,0.542893 1.296573,0.875 2.125,0.875 1.656854,0 3,-1.343146 3,-3 0,-1.656854 -1.343146,-3 -3,-3 -0.828427,0 -1.582107,0.332107 -2.125,0.875 l -0.53125,0.53125 C 11.396035,23.353965 10.5,25.353361 10.5,27.5625 l 0,1.84375 c 0,2.209139 0.896035,4.208535 2.34375,5.65625 l 4.5625,4.53125 z M 15.5,25 c -0.414214,0 -0.791053,-0.166053 -1.0625,-0.4375 L 13.90625,24.03125 C 13.740549,23.865549 13.585179,23.683008 13.4375,23.5 c 0.148673,-0.184951 0.301132,-0.363632 0.46875,-0.53125 L 14.4375,22.4375 C 14.708947,22.166053 15.085786,22 15.5,22 c 0.828427,0 1.5,0.671573 1.5,1.5 0,0.828427 -0.671573,1.5 -1.5,1.5 z m -4.9375,-8.40625 c 0.530304,-0.381171 1.107508,-0.685019 1.71875,-0.9375 0.317245,-1.016955 0.889832,-1.921081 1.625,-2.65625 L 22,4.9375 20.9375,3.875 12.84375,11.9375 c -1.224909,1.224913 -2.054795,2.848578 -2.28125,4.65625 z"
     id="path4280" />
  <path
     style="fill:#000000;fill-opacity:1;stroke:none"
     d="m 19,36 0,-2 -19,0 0,2 19,0 z"
     id="path3016" />
  <path
     id="path3018"
     d="m 19,14 0,-2 -19,0 0,2 19,0 z"
     style="fill:#000000;fill-opacity:1;stroke:none" />
</svg>
