<?xml version="1.0" encoding="UTF-8" standalone="no"?>
<svg
   xmlns:dc="http://purl.org/dc/elements/1.1/"
   xmlns:cc="http://creativecommons.org/ns#"
   xmlns:rdf="http://www.w3.org/1999/02/22-rdf-syntax-ns#"
   xmlns:svg="http://www.w3.org/2000/svg"
   xmlns="http://www.w3.org/2000/svg"
   xmlns:sodipodi="http://sodipodi.sourceforge.net/DTD/sodipodi-0.dtd"
   xmlns:inkscape="http://www.inkscape.org/namespaces/inkscape"
   version="1.0"
   width="24"
   height="47"
   id="svg2"
   inkscape:version="0.47 r22583"
   sodipodi:docname="02-07-003-01-02-01.svg">
  <defs
     id="defs16">
    <inkscape:perspective
       sodipodi:type="inkscape:persp3d"
       inkscape:vp_x="0 : 23 : 1"
       inkscape:vp_y="0 : 1000 : 0"
       inkscape:vp_z="36 : 23 : 1"
       inkscape:persp3d-origin="18 : 15.333333 : 1"
       id="perspective18" />
  </defs>
  <sodipodi:namedview
     pagecolor="#ffffff"
     bordercolor="#666666"
     borderopacity="1"
     objecttolerance="10"
     gridtolerance="10"
     guidetolerance="10"
     inkscape:pageopacity="0"
     inkscape:pageshadow="2"
     inkscape:window-width="964"
     inkscape:window-height="721"
     id="namedview14"
     showgrid="true"
     inkscape:zoom="10.06383"
     inkscape:cx="9.5000002"
     inkscape:cy="23.5"
     inkscape:window-x="365"
     inkscape:window-y="0"
     inkscape:window-maximized="0"
     inkscape:current-layer="svg2"
     showborder="true">
    <inkscape:grid
       type="xygrid"
       id="grid2824"
       empspacing="5"
       visible="true"
       enabled="true"
       snapvisiblegridlinesonly="true" />
  </sodipodi:namedview>
  <metadata
     id="metadata4">
Valerie Sutton's pixel definition of the
ISWA 2010 symbol ID 04-01-003-01-01-01
transformed by Stephen E Slevinski Jr
using line and fill polygon tracing
<rdf:RDF>
  <cc:Work
     rdf:about="">
    <dc:format>image/svg+xml</dc:format>
    <dc:type
       rdf:resource="http://purl.org/dc/dcmitype/StillImage" />
    <dc:title></dc:title>
  </cc:Work>
</rdf:RDF>
</metadata>
  <path
     style="fill:#000000;fill-opacity:1;stroke:none"
     d="M 22,0 22,12 10,0 22,0 z M 21,1 12.4375,1 21,9.59375 21,1 z"
     id="path3690" />
  <path
     style="fill:#000000;fill-opacity:1;stroke:none"
     d="m 13.53125,3.53125 1.0625,1.0625 -4.59375,4.5 c -2.171573,2.171573 -3.5,5.186291 -3.5,8.5 l 0,1.84375 c 0,3.313709 1.328427,6.328427 3.5,8.5 l 0.5625,0.5 C 11.829251,29.704251 13.567003,30.5 15.5,30.5 c 3.865993,0 7,-3.134007 7,-7 0,-3.865993 -3.134007,-7 -7,-7 -1.273175,0 -2.475023,0.339862 -3.5,0.9375 0.01488,-0.616179 0.105976,-1.219394 0.28125,-1.78125 C 13.274909,15.245106 14.358791,15 15.5,15 c 4.69442,0 8.5,3.80558 8.5,8.5 0,4.69442 -3.80558,8.5 -8.5,8.5 -2.34721,0 -4.461802,-0.961802 -6,-2.5 L 8.96875,28.96875 C 8.052618,28.052618 7.251059,27.020133 6.625,25.875 6.54698,26.431089 6.5,26.985399 6.5,27.5625 l 0,1.84375 c 0,3.31371 1.328427,6.32843 3.5,8.5 L 18.125,45.9375 17.0625,47 8.96875,38.9375 C 6.52573,36.49448 5,33.13417 5,29.40625 L 5,27.5625 C 5,26.140141 5.245829,24.784799 5.65625,23.5 5.245829,22.215201 5,20.85986 5,19.4375 L 5,17.59375 C 5,13.865828 6.52573,10.50552 8.96875,8.0625 l 4.5625,-4.53125 z"
     id="path4274" />
  <path
     style="fill:#ffffff;fill-opacity:1;stroke:none"
     d="m 14.59375,4.59375 2.8125,2.8125 -4.5625,4.53125 C 11.396035,13.385215 10.5,15.384611 10.5,17.59375 l 0,1.84375 c 0,2.209139 0.896035,4.208535 2.34375,5.65625 L 13.375,25.625 c 0.542893,0.542893 1.296573,0.875 2.125,0.875 1.656854,0 3,-1.343146 3,-3 0,-1.656854 -1.343146,-3 -3,-3 -0.828427,0 -1.582107,0.332107 -2.125,0.875 l -0.53125,0.53125 c -0.08944,0.08944 -0.165615,0.187261 -0.25,0.28125 C 12.203049,21.353396 12,20.419723 12,19.4375 l 0,-1.84375 c 0,-0.0533 -0.0013,-0.103262 0,-0.15625 1.024977,-0.597638 2.226824,-0.9375 3.5,-0.9375 3.865993,0 7,3.134007 7,7 0,3.865993 -3.134007,7 -7,7 -1.932996,0 -3.670749,-0.795749 -4.9375,-2.0625 L 10,27.9375 c -2.171573,-2.171573 -3.5,-5.186291 -3.5,-8.5 l 0,-1.84375 c 0,-3.313709 1.328427,-6.328427 3.5,-8.5 l 4.59375,-4.5 z M 6.625,25.875 c 0.626059,1.145133 1.427618,2.177618 2.34375,3.09375 L 9.5,29.5 c 0.330851,0.330851 0.681737,0.632566 1.0625,0.90625 0.226455,1.807672 1.056341,3.431337 2.28125,4.65625 L 20.9375,43.125 18.125,45.9375 10,37.90625 c -2.171573,-2.17157 -3.5,-5.18629 -3.5,-8.5 l 0,-1.84375 c 0,-0.577101 0.04698,-1.131411 0.125,-1.6875 z"
     id="path4277" />
  <path
     style="fill:#000000;fill-opacity:1;stroke:none"
     d="m 17.40625,7.40625 1.0625,1.0625 L 13.90625,13 C 12.729981,14.176269 12,15.798825 12,17.59375 l 0,1.84375 c 0,0.982223 0.203049,1.915896 0.59375,2.75 0.08438,-0.09399 0.160557,-0.191806 0.25,-0.28125 L 13.375,21.375 C 13.917893,20.832107 14.671573,20.5 15.5,20.5 c 1.656854,0 3,1.343146 3,3 0,1.656854 -1.343146,3 -3,3 -0.828427,0 -1.582107,-0.332107 -2.125,-0.875 L 12.84375,25.09375 C 11.396035,23.646035 10.5,21.646639 10.5,19.4375 l 0,-1.84375 c 0,-2.209139 0.896035,-4.208535 2.34375,-5.65625 l 4.5625,-4.53125 z M 15.5,22 c -0.414214,0 -0.791053,0.166053 -1.0625,0.4375 l -0.53125,0.53125 c -0.165701,0.165701 -0.321071,0.348242 -0.46875,0.53125 0.148673,0.184951 0.301132,0.363632 0.46875,0.53125 L 14.4375,24.5625 C 14.708947,24.833947 15.085786,25 15.5,25 16.328427,25 17,24.328427 17,23.5 17,22.671573 16.328427,22 15.5,22 z m -4.9375,8.40625 c 0.530304,0.381171 1.107508,0.685019 1.71875,0.9375 0.317245,1.016955 0.889832,1.921081 1.625,2.65625 L 22,42.0625 20.9375,43.125 12.84375,35.0625 C 11.618841,33.837587 10.788955,32.213922 10.5625,30.40625 z"
     id="path4280" />
  <path
     style="fill:#ffffff;fill-opacity:1;stroke:none"
     d="M 21,1 21,9.59375 12.4375,1 21,1 z"
     id="path4373" />
  <path
     style="fill:#000000;fill-opacity:1;stroke:none"
     d="m 19,11 0,2 -19,0 0,-2 19,0 z"
     id="path2928" />
  <path
     id="path2930"
     d="m 19,33 0,2 -19,0 0,-2 19,0 z"
     style="fill:#000000;fill-opacity:1;stroke:none" />
</svg>
