<?xml version="1.0" encoding="UTF-8" standalone="no"?>
<svg
   xmlns:dc="http://purl.org/dc/elements/1.1/"
   xmlns:cc="http://creativecommons.org/ns#"
   xmlns:rdf="http://www.w3.org/1999/02/22-rdf-syntax-ns#"
   xmlns:svg="http://www.w3.org/2000/svg"
   xmlns="http://www.w3.org/2000/svg"
   xmlns:sodipodi="http://sodipodi.sourceforge.net/DTD/sodipodi-0.dtd"
   xmlns:inkscape="http://www.inkscape.org/namespaces/inkscape"
   version="1.0"
   width="47"
   height="35"
   id="svg2"
   inkscape:version="0.47 r22583"
   sodipodi:docname="04-03-003-01-01-01.svg">
  <defs
     id="defs14">
    <inkscape:perspective
       sodipodi:type="inkscape:persp3d"
       inkscape:vp_x="0 : 17.5 : 1"
       inkscape:vp_y="0 : 1000 : 0"
       inkscape:vp_z="36 : 17.5 : 1"
       inkscape:persp3d-origin="18 : 11.666667 : 1"
       id="perspective16" />
  </defs>
  <sodipodi:namedview
     pagecolor="#ffffff"
     bordercolor="#666666"
     borderopacity="1"
     objecttolerance="10"
     gridtolerance="10"
     guidetolerance="10"
     inkscape:pageopacity="0"
     inkscape:pageshadow="2"
     inkscape:window-width="993"
     inkscape:window-height="789"
     id="namedview12"
     showgrid="true"
     inkscape:zoom="15.487095"
     inkscape:cx="23.148503"
     inkscape:cy="17.483386"
     inkscape:window-x="209"
     inkscape:window-y="0"
     inkscape:window-maximized="0"
     inkscape:current-layer="svg2">
    <inkscape:grid
       type="xygrid"
       id="grid2822" />
  </sodipodi:namedview>
  <metadata
     id="metadata4">
Valerie Sutton's pixel definition of the
ISWA 2010 symbol ID 04-03-001-01-01-01
transformed by Stephen E Slevinski Jr
using line and fill polygon tracing
<rdf:RDF>
  <cc:Work
     rdf:about="">
    <dc:format>image/svg+xml</dc:format>
    <dc:type
       rdf:resource="http://purl.org/dc/dcmitype/StillImage" />
    <dc:title />
  </cc:Work>
</rdf:RDF>
</metadata>
  <path
     style="fill:#000000;fill-opacity:1;stroke:none"
     d="M 23.5,0 C 13.835017,0 6,7.8350169 6,17.5 6,27.164983 13.835017,35 23.5,35 33.164983,35 41,27.164983 41,17.5 41,7.8350169 33.164983,0 23.5,0 z m 0,1.5 c 8.836556,0 16,7.163444 16,16 0,8.836556 -7.163444,16 -16,16 -8.836556,0 -16,-7.163444 -16,-16 0,-8.836556 7.163444,-16 16,-16 z"
     id="path2824" />
  <path
     style="fill:#000000;fill-opacity:1;stroke:none"
     d="M 7 10 C 3.1340068 10 0 13.134007 0 17 C 0 20.865993 3.1340068 24 7 24 C 7.0838848 24 7.166829 24.002926 7.25 24 C 7.0542067 23.510832 6.8975186 23.009781 6.75 22.5 C 3.8289297 22.368803 1.5 19.953449 1.5 17 C 1.5 13.962434 3.9624339 11.5 7 11.5 C 7.0210293 11.5 7.0415265 11.499765 7.0625 11.5 C 7.2515468 11.000787 7.4600504 10.512096 7.6875 10.03125 C 7.4621075 10.009358 7.231139 10 7 10 z "
     id="path3315" />
  <path
     style="fill:#000000;fill-opacity:1;stroke:none"
     d="M 40 10 C 39.768861 10 39.537893 10.009358 39.3125 10.03125 C 39.539949 10.512096 39.748453 11.000787 39.9375 11.5 C 39.958474 11.499765 39.978971 11.5 40 11.5 C 43.037566 11.5 45.5 13.962434 45.5 17 C 45.5 19.953449 43.17107 22.368803 40.25 22.5 C 40.102481 23.009781 39.945793 23.510832 39.75 24 C 39.833171 24.002926 39.916115 24 40 24 C 43.865993 24 47 20.865993 47 17 C 47 13.134007 43.865993 10 40 10 z "
     id="path3321" />
</svg>
