<?xml version="1.0" encoding="UTF-8" standalone="no"?>
<svg
   xmlns:dc="http://purl.org/dc/elements/1.1/"
   xmlns:cc="http://creativecommons.org/ns#"
   xmlns:rdf="http://www.w3.org/1999/02/22-rdf-syntax-ns#"
   xmlns:svg="http://www.w3.org/2000/svg"
   xmlns="http://www.w3.org/2000/svg"
   xmlns:sodipodi="http://sodipodi.sourceforge.net/DTD/sodipodi-0.dtd"
   xmlns:inkscape="http://www.inkscape.org/namespaces/inkscape"
   version="1.0"
   width="21"
   height="21"
   id="svg2"
   inkscape:version="0.47 r22583"
   sodipodi:docname="02-10-002-02-02-10.svg">
  <defs
     id="defs16">
    <inkscape:perspective
       sodipodi:type="inkscape:persp3d"
       inkscape:vp_x="0 : 23 : 1"
       inkscape:vp_y="0 : 1000 : 0"
       inkscape:vp_z="36 : 23 : 1"
       inkscape:persp3d-origin="18 : 15.333333 : 1"
       id="perspective18" />
  </defs>
  <sodipodi:namedview
     pagecolor="#ffffff"
     bordercolor="#666666"
     borderopacity="1"
     objecttolerance="10"
     gridtolerance="10"
     guidetolerance="10"
     inkscape:pageopacity="0"
     inkscape:pageshadow="2"
     inkscape:window-width="964"
     inkscape:window-height="721"
     id="namedview14"
     showgrid="true"
     inkscape:zoom="17.062634"
     inkscape:cx="10.498098"
     inkscape:cy="10.498098"
     inkscape:window-x="365"
     inkscape:window-y="0"
     inkscape:window-maximized="0"
     inkscape:current-layer="svg2"
     showborder="true">
    <inkscape:grid
       type="xygrid"
       id="grid2824"
       empspacing="5"
       visible="true"
       enabled="true"
       snapvisiblegridlinesonly="true" />
  </sodipodi:namedview>
  <metadata
     id="metadata4">
Valerie Sutton's pixel definition of the
ISWA 2010 symbol ID 04-01-003-01-01-01
transformed by Stephen E Slevinski Jr
using line and fill polygon tracing
<rdf:RDF>
  <cc:Work
     rdf:about="">
    <dc:format>image/svg+xml</dc:format>
    <dc:type
       rdf:resource="http://purl.org/dc/dcmitype/StillImage" />
    <dc:title></dc:title>
  </cc:Work>
</rdf:RDF>
</metadata>
  <path
     style="fill:#000000;fill-opacity:1;stroke:none"
     d="M 8.5 9 L 17 17.5 L 17 9 L 8.5 9 z M 10.9375 10 L 16 10 L 16 15.0625 L 10.9375 10 z "
     id="path3279" />
  <path
     style="fill:#000000;fill-opacity:1;stroke:none"
     d="M 18.767767,0.868272 C 17.010408,-0.88908706 12.894835,0.3772426 9.575379,3.6966991 L 3.918525,9.3535531 C 0.59906903,12.673009 -0.66726097,16.788582 1.090098,18.545941 l 1.414213,1.414214 c 1.75736,1.757359 5.872931,0.491029 9.192388,-2.828427 l 1.767767,-1.767767 -2.828427,-2.828427 -1.767767,1.767767 C 5.93934,17.232233 2.773514,18.815145 1.797205,17.838835 0.82089403,16.862524 2.403806,13.696699 5.332739,10.767767 L 10.989592,5.1109127 C 13.918525,2.1819805 17.084349,0.599068 18.06066,1.5753788 18.828112,2.3428303 17.98842,4.4734555 16.182408,6.7681942 l 2.784233,2.7842329 c 2.05113,-2.8533162 2.645296,-5.8399852 1.21534,-7.2699415 L 18.767767,0.868272 z"
     id="path3299" />
  <path
     style="fill:#ffffff;fill-opacity:1;stroke:none"
     d="M 10.9375 10 L 16 15.0625 L 16 10 L 10.9375 10 z "
     id="path4259" />
</svg>
