<?xml version="1.0" encoding="UTF-8" standalone="no"?>
<svg
   xmlns:dc="http://purl.org/dc/elements/1.1/"
   xmlns:cc="http://creativecommons.org/ns#"
   xmlns:rdf="http://www.w3.org/1999/02/22-rdf-syntax-ns#"
   xmlns:svg="http://www.w3.org/2000/svg"
   xmlns="http://www.w3.org/2000/svg"
   xmlns:sodipodi="http://sodipodi.sourceforge.net/DTD/sodipodi-0.dtd"
   xmlns:inkscape="http://www.inkscape.org/namespaces/inkscape"
   version="1.0"
   width="21"
   height="22"
   id="svg2"
   inkscape:version="0.47 r22583"
   sodipodi:docname="02-10-003-01-05-06.svg">
  <defs
     id="defs16">
    <inkscape:perspective
       sodipodi:type="inkscape:persp3d"
       inkscape:vp_x="0 : 23 : 1"
       inkscape:vp_y="0 : 1000 : 0"
       inkscape:vp_z="36 : 23 : 1"
       inkscape:persp3d-origin="18 : 15.333333 : 1"
       id="perspective18" />
  </defs>
  <sodipodi:namedview
     pagecolor="#ffffff"
     bordercolor="#666666"
     borderopacity="1"
     objecttolerance="10"
     gridtolerance="10"
     guidetolerance="10"
     inkscape:pageopacity="0"
     inkscape:pageshadow="2"
     inkscape:window-width="964"
     inkscape:window-height="721"
     id="namedview14"
     showgrid="true"
     inkscape:zoom="16.300086"
     inkscape:cx="10.5"
     inkscape:cy="11"
     inkscape:window-x="365"
     inkscape:window-y="0"
     inkscape:window-maximized="0"
     inkscape:current-layer="svg2"
     showborder="true">
    <inkscape:grid
       type="xygrid"
       id="grid2824"
       empspacing="5"
       visible="true"
       enabled="true"
       snapvisiblegridlinesonly="true" />
  </sodipodi:namedview>
  <metadata
     id="metadata4">
Valerie Sutton's pixel definition of the
ISWA 2010 symbol ID 04-01-003-01-01-01
transformed by Stephen E Slevinski Jr
using line and fill polygon tracing
<rdf:RDF>
  <cc:Work
     rdf:about="">
    <dc:format>image/svg+xml</dc:format>
    <dc:type
       rdf:resource="http://purl.org/dc/dcmitype/StillImage" />
    <dc:title></dc:title>
  </cc:Work>
</rdf:RDF>
</metadata>
  <path
     style="fill:#000000;fill-opacity:1;stroke:none"
     d="M 17,10 17,2.2218254 9.2218255,10 17,10 z m -1.016466,-1.016466 -4.331029,0 4.331029,-4.3310291 0,4.3310291 z"
     id="path3279" />
  <path
     style="fill:#000000;fill-opacity:1;stroke:none"
     d="m 20.181981,18.838835 c 1.629495,-1.629496 0.63063,-5.271214 -2.165515,-8.441087 l -1.392116,1.392116 c 2.471682,2.705705 3.74551,5.446878 2.850524,6.341864 -0.976311,0.976311 -4.142136,-0.606601 -7.071068,-3.535534 L 6.7469518,8.9393398 C 3.8180193,6.0104073 2.235107,2.8445828 3.2114178,1.868272 4.1877287,0.89196117 7.3535532,2.4748734 10.282486,5.4038059 l 1.06066,1.0606602 1.414213,-1.4142136 -1.06066,-1.0606602 C 8.377243,0.67013612 4.2616701,-0.5961938 2.5043111,1.1611652 L 1.0900975,2.5753788 c -1.75735905,1.757359 -0.49102909,5.8729319 2.8284271,9.1923882 l 5.6568543,5.656854 c 3.3194561,3.319457 7.4350291,4.585787 9.1923881,2.828427 l 1.414214,-1.414213 z"
     id="path3299" />
  <path
     style="fill:#ffffff;fill-opacity:1;stroke:none"
     d="m 15.983534,8.983534 0,-4.3310291 -4.331029,4.3310291 4.331029,0 z"
     id="path5184" />
</svg>
