<?xml version="1.0" encoding="UTF-8" standalone="no"?>
<svg
   xmlns:dc="http://purl.org/dc/elements/1.1/"
   xmlns:cc="http://creativecommons.org/ns#"
   xmlns:rdf="http://www.w3.org/1999/02/22-rdf-syntax-ns#"
   xmlns:svg="http://www.w3.org/2000/svg"
   xmlns="http://www.w3.org/2000/svg"
   xmlns:sodipodi="http://sodipodi.sourceforge.net/DTD/sodipodi-0.dtd"
   xmlns:inkscape="http://www.inkscape.org/namespaces/inkscape"
   version="1.0"
   width="21"
   height="22"
   id="svg2"
   inkscape:version="0.47 r22583"
   sodipodi:docname="02-10-003-01-05-12.svg">
  <defs
     id="defs16">
    <inkscape:perspective
       sodipodi:type="inkscape:persp3d"
       inkscape:vp_x="0 : 23 : 1"
       inkscape:vp_y="0 : 1000 : 0"
       inkscape:vp_z="36 : 23 : 1"
       inkscape:persp3d-origin="18 : 15.333333 : 1"
       id="perspective18" />
  </defs>
  <sodipodi:namedview
     pagecolor="#ffffff"
     bordercolor="#666666"
     borderopacity="1"
     objecttolerance="10"
     gridtolerance="10"
     guidetolerance="10"
     inkscape:pageopacity="0"
     inkscape:pageshadow="2"
     inkscape:window-width="964"
     inkscape:window-height="721"
     id="namedview14"
     showgrid="true"
     inkscape:zoom="16.300086"
     inkscape:cx="10.5"
     inkscape:cy="11"
     inkscape:window-x="365"
     inkscape:window-y="0"
     inkscape:window-maximized="0"
     inkscape:current-layer="svg2"
     showborder="true">
    <inkscape:grid
       type="xygrid"
       id="grid2824"
       empspacing="5"
       visible="true"
       enabled="true"
       snapvisiblegridlinesonly="true" />
  </sodipodi:namedview>
  <metadata
     id="metadata4">
Valerie Sutton's pixel definition of the
ISWA 2010 symbol ID 04-01-003-01-01-01
transformed by Stephen E Slevinski Jr
using line and fill polygon tracing
<rdf:RDF>
  <cc:Work
     rdf:about="">
    <dc:format>image/svg+xml</dc:format>
    <dc:type
       rdf:resource="http://purl.org/dc/dcmitype/StillImage" />
    <dc:title></dc:title>
  </cc:Work>
</rdf:RDF>
</metadata>
  <path
     style="fill:#000000;fill-opacity:1;stroke:none"
     d="M 4,10 4,2.2218254 11.778175,10 4,10 z m 1.016466,-1.016466 4.331029,0 -4.331029,-4.3310291 0,4.3310291 z"
     id="path3279" />
  <path
     style="fill:#000000;fill-opacity:1;stroke:none"
     d="M 0.818019,18.838835 C -0.81147599,17.209339 0.18738901,13.567621 2.983534,10.397748 l 1.392116,1.392116 c -2.471682,2.705705 -3.74550999,5.446878 -2.850524,6.341864 0.976311,0.976311 4.142136,-0.606601 7.071068,-3.535534 L 14.253048,8.9393398 C 17.181981,6.0104073 18.764893,2.8445828 17.788582,1.868272 16.812271,0.89196117 13.646447,2.4748734 10.717514,5.4038059 L 9.656854,6.4644661 8.242641,5.0502525 9.303301,3.9895923 c 3.319456,-3.31945618 7.435029,-4.5857861 9.192388,-2.8284271 l 1.414214,1.4142136 c 1.757359,1.757359 0.491029,5.8729319 -2.828427,9.1923882 l -5.656855,5.656854 C 8.105165,20.744078 3.989592,22.010408 2.232233,20.253048 L 0.818019,18.838835 z"
     id="path3299" />
  <path
     style="fill:#ffffff;fill-opacity:1;stroke:none"
     d="m 5.016466,8.983534 0,-4.3310291 4.331029,4.3310291 -4.331029,0 z"
     id="path5184" />
</svg>
