<?xml version="1.0" encoding="UTF-8" standalone="no"?>
<svg
   xmlns:dc="http://purl.org/dc/elements/1.1/"
   xmlns:cc="http://creativecommons.org/ns#"
   xmlns:rdf="http://www.w3.org/1999/02/22-rdf-syntax-ns#"
   xmlns:svg="http://www.w3.org/2000/svg"
   xmlns="http://www.w3.org/2000/svg"
   xmlns:sodipodi="http://sodipodi.sourceforge.net/DTD/sodipodi-0.dtd"
   xmlns:inkscape="http://www.inkscape.org/namespaces/inkscape"
   version="1.0"
   width="25"
   height="36"
   id="svg2"
   inkscape:version="0.47 r22583"
   sodipodi:docname="02-06-010-01-03-05.svg">
  <defs
     id="defs16">
    <inkscape:perspective
       sodipodi:type="inkscape:persp3d"
       inkscape:vp_x="0 : 23 : 1"
       inkscape:vp_y="0 : 1000 : 0"
       inkscape:vp_z="36 : 23 : 1"
       inkscape:persp3d-origin="18 : 15.333333 : 1"
       id="perspective18" />
  </defs>
  <sodipodi:namedview
     pagecolor="#ffffff"
     bordercolor="#666666"
     borderopacity="1"
     objecttolerance="10"
     gridtolerance="10"
     guidetolerance="10"
     inkscape:pageopacity="0"
     inkscape:pageshadow="2"
     inkscape:window-width="964"
     inkscape:window-height="721"
     id="namedview14"
     showgrid="true"
     inkscape:zoom="13.138889"
     inkscape:cx="12.5"
     inkscape:cy="18"
     inkscape:window-x="365"
     inkscape:window-y="0"
     inkscape:window-maximized="0"
     inkscape:current-layer="svg2"
     showborder="true">
    <inkscape:grid
       type="xygrid"
       id="grid2824"
       empspacing="5"
       visible="true"
       enabled="true"
       snapvisiblegridlinesonly="true" />
  </sodipodi:namedview>
  <metadata
     id="metadata4">
Valerie Sutton's pixel definition of the
ISWA 2010 symbol ID 04-01-003-01-01-01
transformed by Stephen E Slevinski Jr
using line and fill polygon tracing
<rdf:RDF>
  <cc:Work
     rdf:about="">
    <dc:format>image/svg+xml</dc:format>
    <dc:type
       rdf:resource="http://purl.org/dc/dcmitype/StillImage" />
    <dc:title></dc:title>
  </cc:Work>
</rdf:RDF>
</metadata>
  <path
     style="fill:#000000;fill-opacity:1;stroke:none"
     d="m 25,27 0,-10 -10,0 1.5,1.5 7,0 0,7 1.5,1.5 z"
     id="path2964" />
  <path
     style="fill:#000000;fill-opacity:1;stroke:none"
     d="m 12.5,29 c 2.623352,0 4.999589,-1.062088 6.71875,-2.78125 l 2.5,-2.5 L 21,23 18.5,25.5 c -1.538198,1.538198 -3.65279,2.5 -6,2.5 -2.34721,0 -4.461802,-0.961802 -6,-2.5 L 2.6875,21.71875 2,22.40625 5.78125,26.21875 C 7.500411,27.937912 9.876648,29 12.5,29 z"
     id="path2817" />
  <path
     style="fill:#ffffff;fill-opacity:1;stroke:none"
     d="m 12.5,28 c 2.34721,0 4.461802,-0.961802 6,-2.5 L 21,23 l -2.125,-2.125 -2.5,2.5 C 15.379696,24.370305 14.018783,25 12.5,25 10.981217,25 9.620304,24.370305 8.625,23.375 L 4.8125,19.59375 2.6875,21.71875 6.5,25.5 c 1.538198,1.538198 3.652789,2.499999 6,2.5 z"
     id="path2819" />
  <path
     style="fill:#000000;fill-opacity:1;stroke:none"
     d="m 12.5,25 c 1.518783,0 2.879696,-0.629695 3.875,-1.625 l 2.5,-2.5 -0.6875,-0.6875 -2.5,2.5 C 14.87316,23.50184 13.742641,24 12.5,24 11.257359,24 10.126841,23.501841 9.3125,22.6875 L 5.53125,18.875 4.8125,19.59375 8.625,23.375 C 9.620304,24.370305 10.981217,25 12.5,25 z"
     id="path2824" />
  <path
     style="fill:#000000;fill-opacity:1;stroke:none"
     d="m 0,13 1.5,-1.5 0,-7 7,0 L 10,3 0,3 0,13 z"
     id="path2937" />
  <path
     id="path2939"
     d="M 12.5,15 C 9.876648,15 7.500411,13.937912 5.78125,12.21875 l -2.5,-2.5 L 4,9 6.5,11.5 c 1.538198,1.538198 3.65279,2.5 6,2.5 2.34721,0 4.461802,-0.961802 6,-2.5 L 22.3125,7.71875 23,8.40625 19.21875,12.21875 C 17.499589,13.937912 15.123352,15 12.5,15 z"
     style="fill:#000000;fill-opacity:1;stroke:none" />
  <path
     id="path2941"
     d="m 12.5,14 c -2.34721,0 -4.461802,-0.961802 -6,-2.5 L 4,9 6.125,6.875 l 2.5,2.5 C 9.620304,10.370305 10.981217,11 12.5,11 c 1.518783,0 2.879696,-0.629695 3.875,-1.625 l 3.8125,-3.78125 2.125,2.125 L 18.5,11.5 c -1.538198,1.538198 -3.652789,2.499999 -6,2.5 z"
     style="fill:#ffffff;fill-opacity:1;stroke:none" />
  <path
     style="fill:#000000;fill-opacity:1;stroke:none"
     d="m 13,36 0,-36 -1,0 0,36 1,0 z"
     id="path2831" />
  <path
     id="path2943"
     d="M 12.5,11 C 10.981217,11 9.620304,10.370305 8.625,9.375 l -2.5,-2.5 0.6875,-0.6875 2.5,2.5 C 10.12684,9.50184 11.257359,10 12.5,10 13.742641,10 14.873159,9.501841 15.6875,8.6875 L 19.46875,4.875 20.1875,5.59375 16.375,9.375 C 15.379696,10.370305 14.018783,11 12.5,11 z"
     style="fill:#000000;fill-opacity:1;stroke:none" />
</svg>
