<?xml version="1.0" encoding="UTF-8" standalone="no"?>
<svg
   xmlns:dc="http://purl.org/dc/elements/1.1/"
   xmlns:cc="http://creativecommons.org/ns#"
   xmlns:rdf="http://www.w3.org/1999/02/22-rdf-syntax-ns#"
   xmlns:svg="http://www.w3.org/2000/svg"
   xmlns="http://www.w3.org/2000/svg"
   xmlns:sodipodi="http://sodipodi.sourceforge.net/DTD/sodipodi-0.dtd"
   xmlns:inkscape="http://www.inkscape.org/namespaces/inkscape"
   version="1.0"
   width="21"
   height="48"
   id="svg2"
   inkscape:version="0.47 r22583"
   sodipodi:docname="02-06-010-01-03-07.svg">
  <defs
     id="defs16">
    <inkscape:perspective
       sodipodi:type="inkscape:persp3d"
       inkscape:vp_x="0 : 23 : 1"
       inkscape:vp_y="0 : 1000 : 0"
       inkscape:vp_z="36 : 23 : 1"
       inkscape:persp3d-origin="18 : 15.333333 : 1"
       id="perspective18" />
  </defs>
  <sodipodi:namedview
     pagecolor="#ffffff"
     bordercolor="#666666"
     borderopacity="1"
     objecttolerance="10"
     gridtolerance="10"
     guidetolerance="10"
     inkscape:pageopacity="0"
     inkscape:pageshadow="2"
     inkscape:window-width="964"
     inkscape:window-height="721"
     id="namedview14"
     showgrid="true"
     inkscape:zoom="9.8541667"
     inkscape:cx="10.5"
     inkscape:cy="24"
     inkscape:window-x="365"
     inkscape:window-y="0"
     inkscape:window-maximized="0"
     inkscape:current-layer="svg2"
     showborder="true">
    <inkscape:grid
       type="xygrid"
       id="grid2824"
       empspacing="5"
       visible="true"
       enabled="true"
       snapvisiblegridlinesonly="true" />
  </sodipodi:namedview>
  <metadata
     id="metadata4">
Valerie Sutton's pixel definition of the
ISWA 2010 symbol ID 04-01-003-01-01-01
transformed by Stephen E Slevinski Jr
using line and fill polygon tracing
<rdf:RDF>
  <cc:Work
     rdf:about="">
    <dc:format>image/svg+xml</dc:format>
    <dc:type
       rdf:resource="http://purl.org/dc/dcmitype/StillImage" />
    <dc:title></dc:title>
  </cc:Work>
</rdf:RDF>
</metadata>
  <path
     style="fill:#000000;fill-opacity:1;stroke:none"
     d="M 9,48 9,0 10,0 10,48 9,48 z"
     id="path2831" />
  <path
     style="fill:#000000;fill-opacity:1;stroke:none"
     d="M 7.5,27 C 3.357864,27 0,30.357864 0,34.5 0,38.642136 3.357864,42 7.5,42 l 7.5,0 0,-1 -7.5,0 C 3.910149,41 1,38.089851 1,34.5 1,30.910149 3.910149,28 7.5,28 l 8.5,0 0,-1 -8.5,0 z"
     id="path2817" />
  <path
     style="fill:#000000;fill-opacity:1;stroke:none"
     d="M 7.5,30 C 5.014719,30 3,32.014719 3,34.5 3,36.985281 5.014719,39 7.5,39 l 7.5,0 0,-1 -7.5,0 C 5.567003,38 4,36.432997 4,34.5 4,32.567003 5.567003,31 7.5,31 l 8.5,0 0,-1 -8.5,0 z"
     id="path2824" />
  <path
     style="fill:#000000;fill-opacity:1;stroke:none"
     d="m 15,34 0,2 4,4 -4,4 0,2 6,-6 -6,-6 z"
     id="path2843" />
  <path
     style="fill:#ffffff;fill-opacity:1;stroke:none"
     d="M 7.5,28 C 3.910149,28 1,30.910149 1,34.5 1,38.089851 3.910149,41 7.5,41 l 0.5,0 0,1 1,0 0,-4 -1,0 0,1 -0.5,0 C 5.014719,39 3,36.985281 3,34.5 3,32.014719 5.014719,30 7.5,30 l 8.5,0 0,-2 -8.5,0 z m 2.5,10 0,4 1,0 0,-1 4,0 0,-2 -4,0 0,-1 -1,0 z"
     id="path3017" />
  <path
     style="fill:#000000;fill-opacity:1;stroke:none"
     d="M 7.5,7 C 3.357864,7 0,10.357864 0,14.5 0,18.642136 3.357864,22 7.5,22 l 8.5,0 0,-1 -8.5,0 C 3.910149,21 1,18.089851 1,14.5 1,10.910149 3.910149,8 7.5,8 L 15,8 15,7 7.5,7 z"
     id="path3037" />
  <path
     style="fill:#000000;fill-opacity:1;stroke:none"
     d="M 7.5,10 C 5.014719,10 3,12.014719 3,14.5 3,16.985281 5.014719,19 7.5,19 l 8.5,0 0,-1 -8.5,0 C 5.567003,18 4,16.432997 4,14.5 4,12.567003 5.567003,11 7.5,11 l 7.5,0 0,-1 -7.5,0 z"
     id="path3039" />
  <path
     style="fill:#000000;fill-opacity:1;stroke:none"
     d="m 15,3 0,2 4,4 -4,4 0,2 6,-6 -6,-6 z"
     id="path3041" />
  <path
     style="fill:#ffffff;fill-opacity:1;stroke:none"
     d="M 7.5,8 C 3.910149,8 1,10.910149 1,14.5 1,18.089851 3.910149,21 7.5,21 l 0.5,0 0,1 1,0 0,-4 -1,0 0,1 -0.5,0 C 5.014719,19 3,16.985281 3,14.5 3,12.014719 5.014719,10 7.5,10 L 15,10 15,8 7.5,8 z m 2.5,10 0,4 1,0 0,-1 5,0 0,-2 -5,0 0,-1 -1,0 z"
     id="path3043" />
</svg>
