<?xml version="1.0" encoding="UTF-8" standalone="no"?>
<svg
   xmlns:dc="http://purl.org/dc/elements/1.1/"
   xmlns:cc="http://creativecommons.org/ns#"
   xmlns:rdf="http://www.w3.org/1999/02/22-rdf-syntax-ns#"
   xmlns:svg="http://www.w3.org/2000/svg"
   xmlns="http://www.w3.org/2000/svg"
   xmlns:sodipodi="http://sodipodi.sourceforge.net/DTD/sodipodi-0.dtd"
   xmlns:inkscape="http://www.inkscape.org/namespaces/inkscape"
   version="1.0"
   width="21"
   height="27"
   id="svg2"
   inkscape:version="0.47 r22583"
   sodipodi:docname="02-06-010-01-05-08.svg">
  <defs
     id="defs16">
    <inkscape:perspective
       sodipodi:type="inkscape:persp3d"
       inkscape:vp_x="0 : 23 : 1"
       inkscape:vp_y="0 : 1000 : 0"
       inkscape:vp_z="36 : 23 : 1"
       inkscape:persp3d-origin="18 : 15.333333 : 1"
       id="perspective18" />
  </defs>
  <sodipodi:namedview
     pagecolor="#ffffff"
     bordercolor="#666666"
     borderopacity="1"
     objecttolerance="10"
     gridtolerance="10"
     guidetolerance="10"
     inkscape:pageopacity="0"
     inkscape:pageshadow="2"
     inkscape:window-width="964"
     inkscape:window-height="721"
     id="namedview14"
     showgrid="true"
     inkscape:zoom="17.518519"
     inkscape:cx="10.5"
     inkscape:cy="13.5"
     inkscape:window-x="365"
     inkscape:window-y="0"
     inkscape:window-maximized="0"
     inkscape:current-layer="svg2"
     showborder="true">
    <inkscape:grid
       type="xygrid"
       id="grid2824"
       empspacing="5"
       visible="true"
       enabled="true"
       snapvisiblegridlinesonly="true" />
  </sodipodi:namedview>
  <metadata
     id="metadata4">
Valerie Sutton's pixel definition of the
ISWA 2010 symbol ID 04-01-003-01-01-01
transformed by Stephen E Slevinski Jr
using line and fill polygon tracing
<rdf:RDF>
  <cc:Work
     rdf:about="">
    <dc:format>image/svg+xml</dc:format>
    <dc:type
       rdf:resource="http://purl.org/dc/dcmitype/StillImage" />
    <dc:title></dc:title>
  </cc:Work>
</rdf:RDF>
</metadata>
  <path
     style="fill:#000000;fill-opacity:1;stroke:none"
     d="m 14,10 0,-10 5,5 -5,5 z M 15,7.5625 17.5625,5 15,2.4375 l 0,5.125 z"
     id="path2964" />
  <path
     style="fill:#000000;fill-opacity:1;stroke:none"
     d="M 9,3 C 4.029437,3 0,7.029437 0,12 l 0,6 1,0 0,-6 C 1,7.581722 4.581722,4 9,4 l 5,0 0,-1 -5,0 z"
     id="path2816" />
  <path
     style="fill:#ffffff;fill-opacity:1;stroke:none"
     d="M 9,4 C 4.581722,4 1,7.581722 1,12 l 0,6 2,0 0,-6 C 3,8.686291 5.686292,6 9,6 l 5,0 0,-2 -5,0 z"
     id="path2818" />
  <path
     style="fill:#000000;fill-opacity:1;stroke:none"
     d="M 9,6 C 5.686292,6 3,8.686291 3,12 l 0,6 1,0 0,-6 C 4,9.238576 6.238576,7 9,7 l 5,0 0,-1 -5,0 z"
     id="path2823" />
  <path
     style="fill:#000000;fill-opacity:1;stroke:none"
     d="M 8,27 3,22 13,22 8,27 z M 8,25.59375 10.5625,23 5.4375,23 8,25.59375 z"
     id="path2867" />
  <path
     style="fill:#000000;fill-opacity:1;stroke:none"
     d="m 6,22 0,-3 c 0,-4.970563 4.029438,-9 9,-9 l 6,0 0,1 -6,0 c -4.418277,0 -8,3.581722 -8,8 l 0,3 -1,0 z"
     id="path2869" />
  <path
     style="fill:#ffffff;fill-opacity:1;stroke:none"
     d="m 7,22 0,-3 c 0,-4.418278 3.581723,-8 8,-8 l 6,0 0,2 -6,0 c -3.313709,0 -6,2.686291 -6,6 l 0,3 -2,0 z"
     id="path2871" />
  <path
     style="fill:#000000;fill-opacity:1;stroke:none"
     d="m 9,22 0,-3 c 0,-3.313709 2.686291,-6 6,-6 l 6,0 0,1 -6,0 c -2.761424,0 -5,2.238576 -5,5 l 0,3 -1,0 z"
     id="path2873" />
  <path
     style="fill:#ffffff;fill-opacity:1;stroke:none"
     d="M 15,7.5625 15,2.4375 17.5625,5 15,7.5625 z"
     id="path3043" />
  <path
     style="fill:#ffffff;fill-opacity:1;stroke:none"
     d="M 8,25.59375 5.4375,23 10.5625,23 8,25.59375 z"
     id="path3045" />
</svg>
