<?xml version="1.0" encoding="UTF-8" standalone="no"?>
<svg
   xmlns:dc="http://purl.org/dc/elements/1.1/"
   xmlns:cc="http://creativecommons.org/ns#"
   xmlns:rdf="http://www.w3.org/1999/02/22-rdf-syntax-ns#"
   xmlns:svg="http://www.w3.org/2000/svg"
   xmlns="http://www.w3.org/2000/svg"
   xmlns:sodipodi="http://sodipodi.sourceforge.net/DTD/sodipodi-0.dtd"
   xmlns:inkscape="http://www.inkscape.org/namespaces/inkscape"
   version="1.0"
   width="21"
   height="48"
   id="svg2"
   inkscape:version="0.47 r22583"
   sodipodi:docname="02-06-010-01-02-11.svg">
  <defs
     id="defs16">
    <inkscape:perspective
       sodipodi:type="inkscape:persp3d"
       inkscape:vp_x="0 : 23 : 1"
       inkscape:vp_y="0 : 1000 : 0"
       inkscape:vp_z="36 : 23 : 1"
       inkscape:persp3d-origin="18 : 15.333333 : 1"
       id="perspective18" />
  </defs>
  <sodipodi:namedview
     pagecolor="#ffffff"
     bordercolor="#666666"
     borderopacity="1"
     objecttolerance="10"
     gridtolerance="10"
     guidetolerance="10"
     inkscape:pageopacity="0"
     inkscape:pageshadow="2"
     inkscape:window-width="964"
     inkscape:window-height="721"
     id="namedview14"
     showgrid="true"
     inkscape:zoom="9.8541667"
     inkscape:cx="10.5"
     inkscape:cy="24"
     inkscape:window-x="365"
     inkscape:window-y="0"
     inkscape:window-maximized="0"
     inkscape:current-layer="svg2"
     showborder="true">
    <inkscape:grid
       type="xygrid"
       id="grid2824"
       empspacing="5"
       visible="true"
       enabled="true"
       snapvisiblegridlinesonly="true" />
  </sodipodi:namedview>
  <metadata
     id="metadata4">
Valerie Sutton's pixel definition of the
ISWA 2010 symbol ID 04-01-003-01-01-01
transformed by Stephen E Slevinski Jr
using line and fill polygon tracing
<rdf:RDF>
  <cc:Work
     rdf:about="">
    <dc:format>image/svg+xml</dc:format>
    <dc:type
       rdf:resource="http://purl.org/dc/dcmitype/StillImage" />
    <dc:title></dc:title>
  </cc:Work>
</rdf:RDF>
</metadata>
  <path
     style="fill:#000000;fill-opacity:1;stroke:none"
     d="m 12,48 0,-48 -1,0 0,48 1,0 z"
     id="path2831" />
  <path
     style="fill:#000000;fill-opacity:1;stroke:none"
     d="m 13.5,27 c 4.142136,0 7.5,3.357864 7.5,7.5 0,4.142136 -3.357864,7.5 -7.5,7.5 L 6,42 6,41 13.5,41 C 17.089851,41 20,38.089851 20,34.5 20,30.910149 17.089851,28 13.5,28 l -8.5,0 0,-1 8.5,0 z"
     id="path2817" />
  <path
     style="fill:#000000;fill-opacity:1;stroke:none"
     d="m 13.5,30 c 2.485281,0 4.5,2.014719 4.5,4.5 0,2.485281 -2.014719,4.5 -4.5,4.5 L 6,39 6,38 13.5,38 C 15.432997,38 17,36.432997 17,34.5 17,32.567003 15.432997,31 13.5,31 l -8.5,0 0,-1 8.5,0 z"
     id="path2824" />
  <path
     style="fill:#000000;fill-opacity:1;stroke:none"
     d="M 6,34 6,46 0,40 6,34 z M 5,36.4375 1.40625,40 5,43.5625 5,36.4375 z"
     id="path2843" />
  <path
     style="fill:#ffffff;fill-opacity:1;stroke:none"
     d="m 13.5,28 c 3.589851,0 6.5,2.910149 6.5,6.5 0,3.589851 -2.910149,6.5 -6.5,6.5 l -0.5,0 0,1 -1,0 0,-4 1,0 0,1 0.5,0 C 15.985281,39 18,36.985281 18,34.5 18,32.014719 15.985281,30 13.5,30 l -8.5,0 0,-2 8.5,0 z m -2.5,10 0,4 -1,0 0,-1 -4,0 0,-2 4,0 0,-1 1,0 z"
     id="path3017" />
  <path
     style="fill:#000000;fill-opacity:1;stroke:none"
     d="m 13.5,7 c 4.142136,0 7.5,3.357864 7.5,7.5 0,4.142136 -3.357864,7.5 -7.5,7.5 L 5,22 5,21 13.5,21 C 17.089851,21 20,18.089851 20,14.5 20,10.910149 17.089851,8 13.5,8 L 6,8 6,7 13.5,7 z"
     id="path3037" />
  <path
     style="fill:#000000;fill-opacity:1;stroke:none"
     d="m 13.5,10 c 2.485281,0 4.5,2.014719 4.5,4.5 0,2.485281 -2.014719,4.5 -4.5,4.5 L 5,19 5,18 13.5,18 C 15.432997,18 17,16.432997 17,14.5 17,12.567003 15.432997,11 13.5,11 l -7.5,0 0,-1 7.5,0 z"
     id="path3039" />
  <path
     style="fill:#000000;fill-opacity:1;stroke:none"
     d="M 6,3 6,15 0,9 6,3 z M 5,5.4375 1.40625,9 5,12.5625 5,5.4375 z"
     id="path3041" />
  <path
     style="fill:#ffffff;fill-opacity:1;stroke:none"
     d="m 13.5,8 c 3.589851,0 6.5,2.910149 6.5,6.5 0,3.589851 -2.910149,6.5 -6.5,6.5 l -0.5,0 0,1 -1,0 0,-4 1,0 0,1 0.5,0 C 15.985281,19 18,16.985281 18,14.5 18,12.014719 15.985281,10 13.5,10 L 6,10 6,8 13.5,8 z m -2.5,10 0,4 -1,0 0,-1 -5,0 0,-2 5,0 0,-1 1,0 z"
     id="path3043" />
  <path
     style="fill:#ffffff;fill-opacity:1;stroke:none"
     d="M 5,36.4375 5,43.5625 1.40625,40 5,36.4375 z"
     id="path3268" />
  <path
     style="fill:#ffffff;fill-opacity:1;stroke:none"
     d="M 5,5.4375 5,12.5625 1.40625,9 5,5.4375 z"
     id="path3270" />
</svg>
