<?xml version="1.0" encoding="UTF-8" standalone="no"?>
<svg
   xmlns:dc="http://purl.org/dc/elements/1.1/"
   xmlns:cc="http://creativecommons.org/ns#"
   xmlns:rdf="http://www.w3.org/1999/02/22-rdf-syntax-ns#"
   xmlns:svg="http://www.w3.org/2000/svg"
   xmlns="http://www.w3.org/2000/svg"
   xmlns:sodipodi="http://sodipodi.sourceforge.net/DTD/sodipodi-0.dtd"
   xmlns:inkscape="http://www.inkscape.org/namespaces/inkscape"
   version="1.0"
   width="32"
   height="29"
   id="svg2"
   inkscape:version="0.47 r22583"
   sodipodi:docname="02-06-010-01-02-02.svg">
  <defs
     id="defs16">
    <inkscape:perspective
       sodipodi:type="inkscape:persp3d"
       inkscape:vp_x="0 : 23 : 1"
       inkscape:vp_y="0 : 1000 : 0"
       inkscape:vp_z="36 : 23 : 1"
       inkscape:persp3d-origin="18 : 15.333333 : 1"
       id="perspective18" />
  </defs>
  <sodipodi:namedview
     pagecolor="#ffffff"
     bordercolor="#666666"
     borderopacity="1"
     objecttolerance="10"
     gridtolerance="10"
     guidetolerance="10"
     inkscape:pageopacity="0"
     inkscape:pageshadow="2"
     inkscape:window-width="964"
     inkscape:window-height="721"
     id="namedview14"
     showgrid="true"
     inkscape:zoom="16.310345"
     inkscape:cx="16"
     inkscape:cy="14.5"
     inkscape:window-x="365"
     inkscape:window-y="0"
     inkscape:window-maximized="0"
     inkscape:current-layer="svg2"
     showborder="true">
    <inkscape:grid
       type="xygrid"
       id="grid2824"
       empspacing="5"
       visible="true"
       enabled="true"
       snapvisiblegridlinesonly="true" />
  </sodipodi:namedview>
  <metadata
     id="metadata4">
Valerie Sutton's pixel definition of the
ISWA 2010 symbol ID 04-01-003-01-01-01
transformed by Stephen E Slevinski Jr
using line and fill polygon tracing
<rdf:RDF>
  <cc:Work
     rdf:about="">
    <dc:format>image/svg+xml</dc:format>
    <dc:type
       rdf:resource="http://purl.org/dc/dcmitype/StillImage" />
    <dc:title></dc:title>
  </cc:Work>
</rdf:RDF>
</metadata>
  <path
     style="fill:#000000;fill-opacity:1;stroke:none"
     d="M 31.28125,0 32,0.71875 3.71875,29 3,28.28125 31.28125,0 z"
     id="path2831" />
  <path
     style="fill:#000000;fill-opacity:1;stroke:none"
     d="m 31.5,16 -7,7 -7,-7 14,0 z m -2.4375,1 -9.125,0 L 24.5,21.59375 29.0625,17 z"
     id="path2964" />
  <path
     style="fill:#000000;fill-opacity:1;stroke:none"
     d="m 17.5,9 c 1.407313,0 2.801256,0.551256 3.875,1.625 C 22.448744,11.698744 23,13.092686 23,14.5 l 0,1.5 -1,0 0,-1.5 C 22,13.348561 21.566018,12.191019 20.6875,11.3125 19.808983,10.433983 18.651439,10 17.5,10 l -5.5,0 0,-1 5.5,0 z"
     id="path2941" />
  <path
     style="fill:#ffffff;fill-opacity:1;stroke:none"
     d="m 17.5,6 c 2.17494,-7e-7 4.340578,0.8405772 6,2.5 1.659423,1.659422 2.5,3.82506 2.5,6 l 0,1.5 -3,0 0,-1.5 C 23,13.092686 22.448744,11.698744 21.375,10.625 20.301256,9.551256 18.907313,9 17.5,9 L 12,9 12,6 17.5,6 z"
     id="path2939" />
  <path
     style="fill:#000000;fill-opacity:1;stroke:none"
     d="m 17.5,5 c 2.430815,0 4.864101,0.9266013 6.71875,2.78125 C 26.073399,9.6359002 27,12.069185 27,14.5 l 0,1.5 -1,0 0,-1.5 C 26,12.32506 25.159423,10.159423 23.5,8.5 21.840578,6.8405772 19.67494,5.9999993 17.5,6 L 12,6 12,5 17.5,5 z"
     id="rect2820" />
  <path
     style="fill:#000000;fill-opacity:1;stroke:none"
     d="m 7,9.5 0,14 -7,-7 7,-7 z M 6,11.9375 1.4375,16.5 6,21.0625 6,11.9375 z"
     id="path2961" />
  <path
     id="path2963"
     d="M 14,23.5 C 14,22.092687 13.448744,20.698744 12.375,19.625 11.301256,18.551256 9.907314,18 8.5,18 l -1.5,0 0,1 1.5,0 c 1.151439,0 2.308981,0.433982 3.1875,1.3125 C 12.566017,21.191017 13,22.348561 13,23.5 l 0,5.5 1,0 0,-5.5 z"
     style="fill:#000000;fill-opacity:1;stroke:none" />
  <path
     id="path2965"
     d="m 17,23.5 c 1e-6,-2.17494 -0.840577,-4.340578 -2.5,-6 C 12.840578,15.840577 10.67494,15 8.5,15 l -1.5,0 0,3 1.5,0 c 1.407314,0 2.801256,0.551256 3.875,1.625 C 13.448744,20.698744 14,22.092687 14,23.5 l 0,5.5 3,0 0,-5.5 z"
     style="fill:#ffffff;fill-opacity:1;stroke:none" />
  <path
     id="path2967"
     d="M 18,23.5 C 18,21.069185 17.073399,18.635899 15.21875,16.78125 13.3641,14.926601 10.930815,14 8.5,14 l -1.5,0 0,1 1.5,0 c 2.17494,0 4.340577,0.840577 6,2.5 1.659423,1.659422 2.500001,3.82506 2.5,6 l 0,5.5 1,0 0,-5.5 z"
     style="fill:#000000;fill-opacity:1;stroke:none" />
  <path
     style="fill:#ffffff;fill-opacity:1;stroke:none"
     d="M 29.0625,17 24.5,21.59375 19.9375,17 l 9.125,0 z"
     id="path3543" />
  <path
     style="fill:#ffffff;fill-opacity:1;stroke:none"
     d="M 6,11.9375 6,21.0625 1.4375,16.5 6,11.9375 z"
     id="path3545" />
</svg>
