<?xml version="1.0" encoding="UTF-8" standalone="no"?>
<svg
   xmlns:dc="http://purl.org/dc/elements/1.1/"
   xmlns:cc="http://creativecommons.org/ns#"
   xmlns:rdf="http://www.w3.org/1999/02/22-rdf-syntax-ns#"
   xmlns:svg="http://www.w3.org/2000/svg"
   xmlns="http://www.w3.org/2000/svg"
   xmlns:sodipodi="http://sodipodi.sourceforge.net/DTD/sodipodi-0.dtd"
   xmlns:inkscape="http://www.inkscape.org/namespaces/inkscape"
   version="1.0"
   width="25"
   height="36"
   id="svg2"
   inkscape:version="0.47 r22583"
   sodipodi:docname="02-06-010-01-03-13.svg">
  <defs
     id="defs16">
    <inkscape:perspective
       sodipodi:type="inkscape:persp3d"
       inkscape:vp_x="0 : 23 : 1"
       inkscape:vp_y="0 : 1000 : 0"
       inkscape:vp_z="36 : 23 : 1"
       inkscape:persp3d-origin="18 : 15.333333 : 1"
       id="perspective18" />
  </defs>
  <sodipodi:namedview
     pagecolor="#ffffff"
     bordercolor="#666666"
     borderopacity="1"
     objecttolerance="10"
     gridtolerance="10"
     guidetolerance="10"
     inkscape:pageopacity="0"
     inkscape:pageshadow="2"
     inkscape:window-width="964"
     inkscape:window-height="721"
     id="namedview14"
     showgrid="true"
     inkscape:zoom="13.138889"
     inkscape:cx="12.5"
     inkscape:cy="18"
     inkscape:window-x="365"
     inkscape:window-y="0"
     inkscape:window-maximized="0"
     inkscape:current-layer="svg2"
     showborder="true">
    <inkscape:grid
       type="xygrid"
       id="grid2824"
       empspacing="5"
       visible="true"
       enabled="true"
       snapvisiblegridlinesonly="true" />
  </sodipodi:namedview>
  <metadata
     id="metadata4">
Valerie Sutton's pixel definition of the
ISWA 2010 symbol ID 04-01-003-01-01-01
transformed by Stephen E Slevinski Jr
using line and fill polygon tracing
<rdf:RDF>
  <cc:Work
     rdf:about="">
    <dc:format>image/svg+xml</dc:format>
    <dc:type
       rdf:resource="http://purl.org/dc/dcmitype/StillImage" />
    <dc:title></dc:title>
  </cc:Work>
</rdf:RDF>
</metadata>
  <path
     style="fill:#000000;fill-opacity:1;stroke:none"
     d="m 12,0 0,36 1,0 0,-36 -1,0 z"
     id="path2831" />
  <path
     style="fill:#000000;fill-opacity:1;stroke:none"
     d="M 0 9 L 0 19 L 10 19 L 0 9 z M 1 11.40625 L 7.5625 18 L 1 18 L 1 11.40625 z "
     id="path2964" />
  <path
     style="fill:#000000;fill-opacity:1;stroke:none"
     d="M 12.5,7 C 9.876648,7 7.500411,8.062088 5.78125,9.78125 l -2.5,2.5 L 4,13 6.5,10.5 C 8.038198,8.961802 10.15279,8 12.5,8 c 2.34721,0 4.461802,0.961802 6,2.5 L 22.3125,14.28125 23,13.59375 19.21875,9.78125 C 17.499589,8.062088 15.123352,7 12.5,7 z"
     id="path2817" />
  <path
     style="fill:#ffffff;fill-opacity:1;stroke:none"
     d="m 12.5,8 c -2.34721,0 -4.461802,0.961802 -6,2.5 L 4,13 l 2.125,2.125 2.5,-2.5 C 9.620304,11.629695 10.981217,11 12.5,11 c 1.518783,0 2.879696,0.629695 3.875,1.625 l 3.8125,3.78125 2.125,-2.125 L 18.5,10.5 C 16.961802,8.961802 14.847211,8.000001 12.5,8 z"
     id="path2819" />
  <path
     style="fill:#000000;fill-opacity:1;stroke:none"
     d="m 12.5,11 c -1.518783,0 -2.879696,0.629695 -3.875,1.625 l -2.5,2.5 0.6875,0.6875 2.5,-2.5 C 10.12684,12.49816 11.257359,12 12.5,12 c 1.242641,0 2.373159,0.498159 3.1875,1.3125 L 19.46875,17.125 20.1875,16.40625 16.375,12.625 C 15.379696,11.629695 14.018783,11 12.5,11 z"
     id="path2824" />
  <path
     style="fill:#000000;fill-opacity:1;stroke:none"
     d="M 25 23 L 15 33 L 25 33 L 25 23 z M 24 25.40625 L 24 32 L 17.4375 32 L 24 25.40625 z "
     id="path2937" />
  <path
     id="path2939"
     d="m 12.5,21 c 2.623352,0 4.999589,1.062088 6.71875,2.78125 l 2.5,2.5 L 21,27 18.5,24.5 c -1.538198,-1.538198 -3.65279,-2.5 -6,-2.5 -2.34721,0 -4.461802,0.961802 -6,2.5 L 2.6875,28.28125 2,27.59375 5.78125,23.78125 C 7.500411,22.062088 9.876648,21 12.5,21 z"
     style="fill:#000000;fill-opacity:1;stroke:none" />
  <path
     id="path2941"
     d="m 12.5,22 c 2.34721,0 4.461802,0.961802 6,2.5 l 2.5,2.5 -2.125,2.125 -2.5,-2.5 C 15.379696,25.629695 14.018783,25 12.5,25 10.981217,25 9.620304,25.629695 8.625,26.625 L 4.8125,30.40625 2.6875,28.28125 6.5,24.5 c 1.538198,-1.538198 3.652789,-2.499999 6,-2.5 z"
     style="fill:#ffffff;fill-opacity:1;stroke:none" />
  <path
     id="path2943"
     d="m 12.5,25 c 1.518783,0 2.879696,0.629695 3.875,1.625 l 2.5,2.5 -0.6875,0.6875 -2.5,-2.5 C 14.87316,26.49816 13.742641,26 12.5,26 11.257359,26 10.126841,26.498159 9.3125,27.3125 L 5.53125,31.125 4.8125,30.40625 8.625,26.625 C 9.620304,25.629695 10.981217,25 12.5,25 z"
     style="fill:#000000;fill-opacity:1;stroke:none" />
  <path
     style="fill:#ffffff;fill-opacity:1;stroke:none"
     d="M 1 11.40625 L 1 18 L 7.5625 18 L 1 11.40625 z "
     id="path3844" />
  <path
     style="fill:#ffffff;fill-opacity:1;stroke:none"
     d="M 24 25.40625 L 17.4375 32 L 24 32 L 24 25.40625 z "
     id="path3846" />
</svg>
