<?xml version="1.0" encoding="UTF-8" standalone="no"?>
<svg
   xmlns:dc="http://purl.org/dc/elements/1.1/"
   xmlns:cc="http://creativecommons.org/ns#"
   xmlns:rdf="http://www.w3.org/1999/02/22-rdf-syntax-ns#"
   xmlns:svg="http://www.w3.org/2000/svg"
   xmlns="http://www.w3.org/2000/svg"
   xmlns:sodipodi="http://sodipodi.sourceforge.net/DTD/sodipodi-0.dtd"
   xmlns:inkscape="http://www.inkscape.org/namespaces/inkscape"
   version="1.0"
   width="21"
   height="24"
   id="svg2"
   inkscape:version="0.47 r22583"
   sodipodi:docname="02-06-010-01-06-07.svg">
  <defs
     id="defs16">
    <inkscape:perspective
       sodipodi:type="inkscape:persp3d"
       inkscape:vp_x="0 : 23 : 1"
       inkscape:vp_y="0 : 1000 : 0"
       inkscape:vp_z="36 : 23 : 1"
       inkscape:persp3d-origin="18 : 15.333333 : 1"
       id="perspective18" />
  </defs>
  <sodipodi:namedview
     pagecolor="#ffffff"
     bordercolor="#666666"
     borderopacity="1"
     objecttolerance="10"
     gridtolerance="10"
     guidetolerance="10"
     inkscape:pageopacity="0"
     inkscape:pageshadow="2"
     inkscape:window-width="964"
     inkscape:window-height="721"
     id="namedview14"
     showgrid="true"
     inkscape:zoom="16.010846"
     inkscape:cx="10.503461"
     inkscape:cy="12.003955"
     inkscape:window-x="365"
     inkscape:window-y="0"
     inkscape:window-maximized="0"
     inkscape:current-layer="svg2"
     showborder="true">
    <inkscape:grid
       type="xygrid"
       id="grid2824"
       empspacing="5"
       visible="true"
       enabled="true"
       snapvisiblegridlinesonly="true" />
  </sodipodi:namedview>
  <metadata
     id="metadata4">
Valerie Sutton's pixel definition of the
ISWA 2010 symbol ID 04-01-003-01-01-01
transformed by Stephen E Slevinski Jr
using line and fill polygon tracing
<rdf:RDF>
  <cc:Work
     rdf:about="">
    <dc:format>image/svg+xml</dc:format>
    <dc:type
       rdf:resource="http://purl.org/dc/dcmitype/StillImage" />
    <dc:title></dc:title>
  </cc:Work>
</rdf:RDF>
</metadata>
  <path
     style="fill:#000000;fill-opacity:1;stroke:none"
     d="M 11,7 10,6 10,1 5,1 4,0 l 7,0 0,7 z"
     id="path2964" />
  <path
     style="fill:#000000;fill-opacity:1;stroke:none"
     d="m 14,24 1,-1 5,0 0,-5 1,-1 0,7 -7,0 z"
     id="path2867" />
  <path
     style="fill:#000000;fill-opacity:1;stroke:none"
     d="M 6.09375,2.093751 2.625,5.625001 C 0.99632,7.25368 0,9.514719 0,12.000001 c 0,2.485281 0.99632,4.74632 2.625,6.375 l 3.65625,3.625 0.6875,-0.6875 -3.625,-3.65625 C 1.896035,16.208536 1,14.20914 1,12.000001 1,9.790862 1.896035,7.791466 3.34375,6.343751 l 3.4375,-3.5625 -0.6875,-0.6875 z"
     id="path2904" />
  <path
     style="fill:#ffffff;fill-opacity:1;stroke:none"
     d="m 6.78125,2.781251 -3.4375,3.5625 C 1.896035,7.791466 1,9.790862 1,12.000001 c 0,2.209139 0.896035,4.208535 2.34375,5.65625 l 3.625,3.65625 1.4375,-1.4375 -3.65625,-3.625 C 3.664214,15.164215 3,13.656855 3,12.000001 c 0,-1.656854 0.664214,-3.164214 1.75,-4.25 l 3.46875,-3.53125 -1.4375,-1.4375 z"
     id="path2906" />
  <path
     style="fill:#000000;fill-opacity:1;stroke:none"
     d="M 8.21875,4.218751 4.75,7.750001 C 3.664214,8.835787 3,10.343147 3,12.000001 c 0,1.656854 0.664214,3.164214 1.75,4.25 l 3.65625,3.625 0.6875,-0.6875 -3.625,-3.65625 C 4.563928,14.626429 4,13.380713 4,12.000001 4,10.619289 4.563928,9.373573 5.46875,8.468751 l 3.4375,-3.5625 -0.6875,-0.6875 z"
     id="path2917" />
  <path
     id="path2991"
     d="M 16.09375,21.90625 12.625,18.375 C 10.99632,16.746321 10,14.485282 10,12 10,9.514719 10.99632,7.25368 12.625,5.625 L 16.28125,2 l 0.6875,0.6875 -3.625,3.65625 C 11.896035,7.791465 11,9.790861 11,12 c 0,2.209139 0.896035,4.208535 2.34375,5.65625 l 3.4375,3.5625 -0.6875,0.6875 z"
     style="fill:#000000;fill-opacity:1;stroke:none" />
  <path
     id="path2993"
     d="m 16.78125,21.21875 -3.4375,-3.5625 C 11.896035,16.208535 11,14.209139 11,12 11,9.790861 11.896035,7.791465 13.34375,6.34375 L 16.96875,2.6875 18.40625,4.125 14.75,7.75 C 13.664214,8.835786 13,10.343146 13,12 c 0,1.656854 0.664214,3.164214 1.75,4.25 l 3.46875,3.53125 -1.4375,1.4375 z"
     style="fill:#ffffff;fill-opacity:1;stroke:none" />
  <path
     id="path2995"
     d="M 18.21875,19.78125 14.75,16.25 C 13.664214,15.164214 13,13.656854 13,12 13,10.343146 13.664214,8.835786 14.75,7.75 l 3.65625,-3.625 0.6875,0.6875 -3.625,3.65625 C 14.563928,9.373572 14,10.619288 14,12 c 0,1.380712 0.563928,2.626428 1.46875,3.53125 l 3.4375,3.5625 -0.6875,0.6875 z"
     style="fill:#000000;fill-opacity:1;stroke:none" />
</svg>
