<?xml version="1.0" encoding="UTF-8" standalone="no"?>
<svg
   xmlns:dc="http://purl.org/dc/elements/1.1/"
   xmlns:cc="http://creativecommons.org/ns#"
   xmlns:rdf="http://www.w3.org/1999/02/22-rdf-syntax-ns#"
   xmlns:svg="http://www.w3.org/2000/svg"
   xmlns="http://www.w3.org/2000/svg"
   xmlns:sodipodi="http://sodipodi.sourceforge.net/DTD/sodipodi-0.dtd"
   xmlns:inkscape="http://www.inkscape.org/namespaces/inkscape"
   version="1.0"
   width="29"
   height="32"
   id="svg2"
   inkscape:version="0.47 r22583"
   sodipodi:docname="02-06-010-01-01-12.svg">
  <defs
     id="defs16">
    <inkscape:perspective
       sodipodi:type="inkscape:persp3d"
       inkscape:vp_x="0 : 23 : 1"
       inkscape:vp_y="0 : 1000 : 0"
       inkscape:vp_z="36 : 23 : 1"
       inkscape:persp3d-origin="18 : 15.333333 : 1"
       id="perspective18" />
  </defs>
  <sodipodi:namedview
     pagecolor="#ffffff"
     bordercolor="#666666"
     borderopacity="1"
     objecttolerance="10"
     gridtolerance="10"
     guidetolerance="10"
     inkscape:pageopacity="0"
     inkscape:pageshadow="2"
     inkscape:window-width="964"
     inkscape:window-height="721"
     id="namedview14"
     showgrid="true"
     inkscape:zoom="14.78125"
     inkscape:cx="14.5"
     inkscape:cy="16"
     inkscape:window-x="365"
     inkscape:window-y="0"
     inkscape:window-maximized="0"
     inkscape:current-layer="svg2"
     showborder="true">
    <inkscape:grid
       type="xygrid"
       id="grid2824"
       empspacing="5"
       visible="true"
       enabled="true"
       snapvisiblegridlinesonly="true" />
  </sodipodi:namedview>
  <metadata
     id="metadata4">
Valerie Sutton's pixel definition of the
ISWA 2010 symbol ID 04-01-003-01-01-01
transformed by Stephen E Slevinski Jr
using line and fill polygon tracing
<rdf:RDF>
  <cc:Work
     rdf:about="">
    <dc:format>image/svg+xml</dc:format>
    <dc:type
       rdf:resource="http://purl.org/dc/dcmitype/StillImage" />
    <dc:title></dc:title>
  </cc:Work>
</rdf:RDF>
</metadata>
  <path
     style="fill:#000000;fill-opacity:1;stroke:none"
     d="M 5.5,25.000001 12.5,32 l 7,-7 -14,1e-6 z"
     id="path2964" />
  <path
     id="path2952"
     d="M 12.999999,14.5 6,7.5 l 7,-7 -10e-7,14 z"
     style="fill:#000000;fill-opacity:1;stroke:none" />
  <path
     style="fill:#000000;fill-opacity:1;stroke:none"
     d="m 5.5,18 c 1.407313,0 2.801256,0.551256 3.875,1.625 C 10.448744,20.698744 11,22.092686 11,23.5 l 0,1.5 -1,0 0,-1.5 C 10,22.348561 9.566018,21.191019 8.6875,20.3125 7.808983,19.433983 6.651439,19 5.5,19 L 0,19 0,18 5.5,18 z"
     id="path2941" />
  <path
     id="path2954"
     d="M 20,14.5 C 20,13.092687 19.448744,11.698744 18.375,10.625 17.301256,9.551256 15.907314,9 14.5,9 l -1.5,0 0,1 1.5,0 c 1.151439,0 2.308981,0.433982 3.1875,1.3125 C 18.566017,12.191017 19,13.348561 19,14.5 l 0,5.5 1,0 0,-5.5 z"
     style="fill:#000000;fill-opacity:1;stroke:none" />
  <path
     style="fill:#000000;fill-opacity:1;stroke:none"
     d="M 0.71875,29 29,0.71875 28.28125,0 0,28.28125 0.71875,29 z"
     id="path2831" />
  <path
     style="fill:#ffffff;fill-opacity:1;stroke:none"
     d="m 5.5,15 c 2.17494,-10e-7 4.340578,0.840577 6,2.5 1.659423,1.659422 2.5,3.82506 2.5,6 l 0,1.5 -3,0 0,-1.5 C 11,22.092686 10.448744,20.698744 9.375,19.625 8.301256,18.551256 6.907313,18 5.5,18 L 0,18 0,15 5.5,15 z"
     id="path2939" />
  <path
     id="path2956"
     d="m 23,14.5 c 1e-6,-2.17494 -0.840577,-4.340578 -2.5,-6 C 18.840578,6.840577 16.67494,6 14.5,6 l -1.5,0 0,3 1.5,0 c 1.407314,0 2.801256,0.551256 3.875,1.625 C 19.448744,11.698744 20,13.092687 20,14.5 l 0,5.5 3,0 0,-5.5 z"
     style="fill:#ffffff;fill-opacity:1;stroke:none" />
  <path
     id="path2958"
     d="M 24,14.5 C 24,12.069185 23.073399,9.635899 21.21875,7.78125 19.3641,5.926601 16.930815,5 14.5,5 l -1.5,0 0,1 1.5,0 c 2.17494,0 4.340577,0.840577 6,2.5 1.659423,1.659422 2.500001,3.82506 2.5,6 l 0,5.5 1,0 0,-5.5 z"
     style="fill:#000000;fill-opacity:1;stroke:none" />
  <path
     style="fill:#000000;fill-opacity:1;stroke:none"
     d="m 5.5,14 c 2.430815,0 4.864101,0.926601 6.71875,2.78125 C 14.073399,18.6359 15,21.069185 15,23.5 l 0,1.5 -1,0 0,-1.5 c 0,-2.17494 -0.840577,-4.340577 -2.5,-6 C 9.840578,15.840577 7.67494,14.999999 5.5,15 L 0,15 0,14 5.5,14 z"
     id="rect2820" />
</svg>
