<?xml version="1.0" encoding="UTF-8" standalone="no"?>
<svg
   xmlns:dc="http://purl.org/dc/elements/1.1/"
   xmlns:cc="http://creativecommons.org/ns#"
   xmlns:rdf="http://www.w3.org/1999/02/22-rdf-syntax-ns#"
   xmlns:svg="http://www.w3.org/2000/svg"
   xmlns="http://www.w3.org/2000/svg"
   xmlns:sodipodi="http://sodipodi.sourceforge.net/DTD/sodipodi-0.dtd"
   xmlns:inkscape="http://www.inkscape.org/namespaces/inkscape"
   version="1.0"
   width="27"
   height="21"
   id="svg2"
   inkscape:version="0.47 r22583"
   sodipodi:docname="02-06-010-01-06-14.svg">
  <defs
     id="defs16">
    <inkscape:perspective
       sodipodi:type="inkscape:persp3d"
       inkscape:vp_x="0 : 23 : 1"
       inkscape:vp_y="0 : 1000 : 0"
       inkscape:vp_z="36 : 23 : 1"
       inkscape:persp3d-origin="18 : 15.333333 : 1"
       id="perspective18" />
  </defs>
  <sodipodi:namedview
     pagecolor="#ffffff"
     bordercolor="#666666"
     borderopacity="1"
     objecttolerance="10"
     gridtolerance="10"
     guidetolerance="10"
     inkscape:pageopacity="0"
     inkscape:pageshadow="2"
     inkscape:window-width="964"
     inkscape:window-height="721"
     id="namedview14"
     showgrid="true"
     inkscape:zoom="17.062634"
     inkscape:cx="13.497555"
     inkscape:cy="10.498098"
     inkscape:window-x="365"
     inkscape:window-y="0"
     inkscape:window-maximized="0"
     inkscape:current-layer="svg2"
     showborder="true">
    <inkscape:grid
       type="xygrid"
       id="grid2824"
       empspacing="5"
       visible="true"
       enabled="true"
       snapvisiblegridlinesonly="true" />
  </sodipodi:namedview>
  <metadata
     id="metadata4">
Valerie Sutton's pixel definition of the
ISWA 2010 symbol ID 04-01-003-01-01-01
transformed by Stephen E Slevinski Jr
using line and fill polygon tracing
<rdf:RDF>
  <cc:Work
     rdf:about="">
    <dc:format>image/svg+xml</dc:format>
    <dc:type
       rdf:resource="http://purl.org/dc/dcmitype/StillImage" />
    <dc:title></dc:title>
  </cc:Work>
</rdf:RDF>
</metadata>
  <path
     style="fill:#000000;fill-opacity:1;stroke:none"
     d="M 0 14 L 5 19 L 10 14 L 0 14 z M 2.4375 15 L 7.5625 15 L 5 17.5625 L 2.4375 15 z "
     id="path2964" />
  <path
     style="fill:#000000;fill-opacity:1;stroke:none"
     d="m 3.000001,9 c 0,-4.970563 4.029437,-9 9,-9 L 18,0 18,1 12.000001,1 c -4.418278,0 -8,3.581722 -8,8 l 0,5 -1,0 0,-5 z"
     id="path2816" />
  <path
     style="fill:#ffffff;fill-opacity:1;stroke:none"
     d="m 4.000001,9 c 0,-4.418278 3.581722,-8 8,-8 L 18,1 18,3 12.000001,3 c -3.313709,0 -6,2.686292 -6,6 l 0,5 -2,0 0,-5 z"
     id="path2818" />
  <path
     style="fill:#000000;fill-opacity:1;stroke:none"
     d="m 6.000001,9 c 0,-3.313708 2.686291,-6 6,-6 L 18,3 18,4 12.000001,4 c -2.761424,0 -5,2.238576 -5,5 l 0,5 -1,0 0,-5 z"
     id="path2823" />
  <path
     style="fill:#000000;fill-opacity:1;stroke:none"
     d="M 22 3 L 22 13 L 27 8 L 22 3 z M 23 5.4375 L 25.5625 8 L 23 10.5625 L 23 5.4375 z "
     id="path2867" />
  <path
     style="fill:#000000;fill-opacity:1;stroke:none"
     d="M 19 6 C 14.029437 6 10 10.029438 10 15 L 10 21 L 11 21 L 11 15 C 11 10.581723 14.581722 7 19 7 L 22 7 L 22 6 L 19 6 z "
     id="path2869" />
  <path
     style="fill:#ffffff;fill-opacity:1;stroke:none"
     d="M 19 7 C 14.581722 7 11 10.581723 11 15 L 11 21 L 13 21 L 13 15 C 13 11.686291 15.686291 9 19 9 L 22 9 L 22 7 L 19 7 z "
     id="path2871" />
  <path
     style="fill:#000000;fill-opacity:1;stroke:none"
     d="M 19 9 C 15.686291 9 13 11.686291 13 15 L 13 21 L 14 21 L 14 15 C 14 12.238576 16.238576 10 19 10 L 22 10 L 22 9 L 19 9 z "
     id="path2873" />
  <path
     style="fill:#ffffff;fill-opacity:1;stroke:none"
     d="M 2.4375 15 L 5 17.5625 L 7.5625 15 L 2.4375 15 z "
     id="path3608" />
  <path
     style="fill:#ffffff;fill-opacity:1;stroke:none"
     d="M 23 5.4375 L 23 10.5625 L 25.5625 8 L 23 5.4375 z "
     id="path3610" />
</svg>
