<?xml version="1.0" encoding="UTF-8" standalone="no"?>
<svg
   xmlns:dc="http://purl.org/dc/elements/1.1/"
   xmlns:cc="http://creativecommons.org/ns#"
   xmlns:rdf="http://www.w3.org/1999/02/22-rdf-syntax-ns#"
   xmlns:svg="http://www.w3.org/2000/svg"
   xmlns="http://www.w3.org/2000/svg"
   xmlns:sodipodi="http://sodipodi.sourceforge.net/DTD/sodipodi-0.dtd"
   xmlns:inkscape="http://www.inkscape.org/namespaces/inkscape"
   version="1.0"
   width="21"
   height="24"
   id="svg2"
   inkscape:version="0.47 r22583"
   sodipodi:docname="02-06-010-01-04-03.svg">
  <defs
     id="defs16">
    <inkscape:perspective
       sodipodi:type="inkscape:persp3d"
       inkscape:vp_x="0 : 23 : 1"
       inkscape:vp_y="0 : 1000 : 0"
       inkscape:vp_z="36 : 23 : 1"
       inkscape:persp3d-origin="18 : 15.333333 : 1"
       id="perspective18" />
  </defs>
  <sodipodi:namedview
     pagecolor="#ffffff"
     bordercolor="#666666"
     borderopacity="1"
     objecttolerance="10"
     gridtolerance="10"
     guidetolerance="10"
     inkscape:pageopacity="0"
     inkscape:pageshadow="2"
     inkscape:window-width="964"
     inkscape:window-height="721"
     id="namedview14"
     showgrid="true"
     inkscape:zoom="16.010846"
     inkscape:cx="10.503461"
     inkscape:cy="12.003955"
     inkscape:window-x="365"
     inkscape:window-y="0"
     inkscape:window-maximized="0"
     inkscape:current-layer="svg2"
     showborder="true">
    <inkscape:grid
       type="xygrid"
       id="grid2824"
       empspacing="5"
       visible="true"
       enabled="true"
       snapvisiblegridlinesonly="true" />
  </sodipodi:namedview>
  <metadata
     id="metadata4">
Valerie Sutton's pixel definition of the
ISWA 2010 symbol ID 04-01-003-01-01-01
transformed by Stephen E Slevinski Jr
using line and fill polygon tracing
<rdf:RDF>
  <cc:Work
     rdf:about="">
    <dc:format>image/svg+xml</dc:format>
    <dc:type
       rdf:resource="http://purl.org/dc/dcmitype/StillImage" />
    <dc:title></dc:title>
  </cc:Work>
</rdf:RDF>
</metadata>
  <path
     style="fill:#000000;fill-opacity:1;stroke:none"
     d="m 17,24 -7,-1e-6 L 10,17 l 7,7 z"
     id="path2964" />
  <path
     id="path2867"
     d="m 7,-6e-7 -7,1e-6 0,6.999999 7,-7 z"
     style="fill:#000000;fill-opacity:1;stroke:none" />
  <path
     style="fill:#000000;fill-opacity:1;stroke:none"
     d="M 14.90625,21.906249 18.375,18.374999 C 20.00368,16.74632 21,14.485281 21,11.999999 21,9.5147184 20.00368,7.2536794 18.375,5.6249994 l -3.65625,-3.625 -0.6875,0.6875 3.625,3.65625 C 19.103965,7.7914644 20,9.7908604 20,11.999999 c 0,2.209139 -0.896035,4.208535 -2.34375,5.65625 l -3.4375,3.5625 0.6875,0.6875 z"
     id="path2904" />
  <path
     style="fill:#ffffff;fill-opacity:1;stroke:none"
     d="m 14.21875,21.218749 3.4375,-3.5625 C 19.103965,16.208534 20,14.209138 20,11.999999 20,9.7908604 19.103965,7.7914644 17.65625,6.3437494 l -3.625,-3.65625 -1.4375,1.4375 3.65625,3.625 c 1.085786,1.085786 1.75,2.5931456 1.75,4.2499996 0,1.656854 -0.664214,3.164214 -1.75,4.25 l -3.46875,3.53125 1.4375,1.4375 z"
     id="path2906" />
  <path
     style="fill:#000000;fill-opacity:1;stroke:none"
     d="M 12.78125,19.781249 16.25,16.249999 c 1.085786,-1.085786 1.75,-2.593146 1.75,-4.25 0,-1.656854 -0.664214,-3.1642136 -1.75,-4.2499996 l -3.65625,-3.625 -0.6875,0.6875 3.625,3.65625 C 16.436072,9.3735714 17,10.619287 17,11.999999 c 0,1.380712 -0.563928,2.626428 -1.46875,3.53125 l -3.4375,3.5625 0.6875,0.6875 z"
     id="path2917" />
  <path
     id="path2991"
     d="M 4.90625,2.0937504 8.375,5.6250004 C 10.00368,7.2536794 11,9.5147184 11,12 c 0,2.485281 -0.99632,4.74632 -2.625,6.375 L 4.71875,22 4.03125,21.3125 7.65625,17.65625 C 9.103965,16.208535 10,14.209139 10,12 10,9.7908614 9.103965,7.7914654 7.65625,6.3437504 l -3.4375,-3.5625 0.6875,-0.6875 z"
     style="fill:#000000;fill-opacity:1;stroke:none" />
  <path
     id="path2993"
     d="m 4.21875,2.7812504 3.4375,3.5625 C 9.103965,7.7914654 10,9.7908614 10,12 10,14.209139 9.103965,16.208535 7.65625,17.65625 L 4.03125,21.3125 2.59375,19.875 6.25,16.25 C 7.335786,15.164214 8,13.656854 8,12 8,10.343146 7.335786,8.8357864 6.25,7.7500004 l -3.46875,-3.53125 1.4375,-1.4375 z"
     style="fill:#ffffff;fill-opacity:1;stroke:none" />
  <path
     id="path2995"
     d="M 2.78125,4.2187504 6.25,7.7500004 C 7.335786,8.8357864 8,10.343146 8,12 8,13.656854 7.335786,15.164214 6.25,16.25 l -3.65625,3.625 -0.6875,-0.6875 3.625,-3.65625 C 6.436072,14.626428 7,13.380712 7,12 7,10.619288 6.436072,9.3735724 5.53125,8.4687504 l -3.4375,-3.5625 0.6875,-0.6875 z"
     style="fill:#000000;fill-opacity:1;stroke:none" />
</svg>
