<?xml version="1.0" encoding="UTF-8" standalone="no"?>
<svg
   xmlns:dc="http://purl.org/dc/elements/1.1/"
   xmlns:cc="http://creativecommons.org/ns#"
   xmlns:rdf="http://www.w3.org/1999/02/22-rdf-syntax-ns#"
   xmlns:svg="http://www.w3.org/2000/svg"
   xmlns="http://www.w3.org/2000/svg"
   xmlns:sodipodi="http://sodipodi.sourceforge.net/DTD/sodipodi-0.dtd"
   xmlns:inkscape="http://www.inkscape.org/namespaces/inkscape"
   version="1.0"
   width="32"
   height="29"
   id="svg2"
   inkscape:version="0.47 r22583"
   sodipodi:docname="02-06-010-01-02-06.svg">
  <defs
     id="defs16">
    <inkscape:perspective
       sodipodi:type="inkscape:persp3d"
       inkscape:vp_x="0 : 23 : 1"
       inkscape:vp_y="0 : 1000 : 0"
       inkscape:vp_z="36 : 23 : 1"
       inkscape:persp3d-origin="18 : 15.333333 : 1"
       id="perspective18" />
  </defs>
  <sodipodi:namedview
     pagecolor="#ffffff"
     bordercolor="#666666"
     borderopacity="1"
     objecttolerance="10"
     gridtolerance="10"
     guidetolerance="10"
     inkscape:pageopacity="0"
     inkscape:pageshadow="2"
     inkscape:window-width="964"
     inkscape:window-height="721"
     id="namedview14"
     showgrid="true"
     inkscape:zoom="16.310345"
     inkscape:cx="16"
     inkscape:cy="14.5"
     inkscape:window-x="365"
     inkscape:window-y="0"
     inkscape:window-maximized="0"
     inkscape:current-layer="svg2"
     showborder="true">
    <inkscape:grid
       type="xygrid"
       id="grid2824"
       empspacing="5"
       visible="true"
       enabled="true"
       snapvisiblegridlinesonly="true" />
  </sodipodi:namedview>
  <metadata
     id="metadata4">
Valerie Sutton's pixel definition of the
ISWA 2010 symbol ID 04-01-003-01-01-01
transformed by Stephen E Slevinski Jr
using line and fill polygon tracing
<rdf:RDF>
  <cc:Work
     rdf:about="">
    <dc:format>image/svg+xml</dc:format>
    <dc:type
       rdf:resource="http://purl.org/dc/dcmitype/StillImage" />
    <dc:title></dc:title>
  </cc:Work>
</rdf:RDF>
</metadata>
  <path
     style="fill:#000000;fill-opacity:1;stroke:none"
     d="m 0.5,13 7,-7 7,7 -14,0 z m 2.4375,-1 9.125,0 L 7.5,7.40625 2.9375,12 z"
     id="path2964" />
  <path
     style="fill:#000000;fill-opacity:1;stroke:none"
     d="M 14.5,20 C 13.092687,20 11.698744,19.448744 10.625,18.375 9.551256,17.301256 9,15.907314 9,14.5 l 0,-1.5 1,0 0,1.5 c 0,1.151439 0.433982,2.308981 1.3125,3.1875 C 12.191017,18.566017 13.348561,19 14.5,19 l 5.5,0 0,1 -5.5,0 z"
     id="path2941" />
  <path
     style="fill:#ffffff;fill-opacity:1;stroke:none"
     d="m 14.5,23 c -2.17494,1e-6 -4.340578,-0.840577 -6,-2.5 C 6.840577,18.840578 6,16.67494 6,14.5 l 0,-1.5 3,0 0,1.5 c 0,1.407314 0.551256,2.801256 1.625,3.875 C 11.698744,19.448744 13.092687,20 14.5,20 l 5.5,0 0,3 -5.5,0 z"
     id="path2939" />
  <path
     style="fill:#000000;fill-opacity:1;stroke:none"
     d="M 14.5,24 C 12.069185,24 9.635899,23.073399 7.78125,21.21875 5.926601,19.3641 5,16.930815 5,14.5 l 0,-1.5 1,0 0,1.5 c 0,2.17494 0.840577,4.340577 2.5,6 1.659422,1.659423 3.82506,2.500001 6,2.5 l 5.5,0 0,1 -5.5,0 z"
     id="rect2820" />
  <path
     style="fill:#000000;fill-opacity:1;stroke:none"
     d="m 25,19.5 0,-14 7,7 -7,7 z M 26,17.0625 30.5625,12.5 26,7.9375 l 0,9.125 z"
     id="path2961" />
  <path
     id="path2963"
     d="m 18,5.5 c 0,1.407313 0.551256,2.801256 1.625,3.875 C 20.698744,10.448744 22.092686,11 23.5,11 l 1.5,0 0,-1 -1.5,0 C 22.348561,10 21.191019,9.566018 20.3125,8.6875 19.433983,7.808983 19,6.651439 19,5.5 L 19,0 18,0 18,5.5 z"
     style="fill:#000000;fill-opacity:1;stroke:none" />
  <path
     id="path2965"
     d="m 15,5.5 c -10e-7,2.17494 0.840577,4.340578 2.5,6 1.659422,1.659423 3.82506,2.5 6,2.5 l 1.5,0 0,-3 -1.5,0 C 22.092686,11 20.698744,10.448744 19.625,9.375 18.551256,8.301256 18,6.907313 18,5.5 L 18,0 15,0 15,5.5 z"
     style="fill:#ffffff;fill-opacity:1;stroke:none" />
  <path
     style="fill:#000000;fill-opacity:1;stroke:none"
     d="M 0.71875,29 0,28.28125 28.28125,0 29,0.71875 0.71875,29 z"
     id="path2831" />
  <path
     id="path2967"
     d="m 14,5.5 c 0,2.430815 0.926601,4.864101 2.78125,6.71875 C 18.6359,14.073399 21.069185,15 23.5,15 l 1.5,0 0,-1 -1.5,0 c -2.17494,0 -4.340577,-0.840577 -6,-2.5 C 15.840577,9.840578 14.999999,7.67494 15,5.5 L 15,0 14,0 14,5.5 z"
     style="fill:#000000;fill-opacity:1;stroke:none" />
  <path
     style="fill:#ffffff;fill-opacity:1;stroke:none"
     d="M 2.9375,12 7.5,7.40625 12.0625,12 2.9375,12 z"
     id="path3543" />
  <path
     style="fill:#ffffff;fill-opacity:1;stroke:none"
     d="M 26,17.0625 26,7.9375 30.5625,12.5 26,17.0625 z"
     id="path3545" />
</svg>
