<?xml version="1.0" encoding="UTF-8" standalone="no"?>
<svg
   xmlns:dc="http://purl.org/dc/elements/1.1/"
   xmlns:cc="http://creativecommons.org/ns#"
   xmlns:rdf="http://www.w3.org/1999/02/22-rdf-syntax-ns#"
   xmlns:svg="http://www.w3.org/2000/svg"
   xmlns="http://www.w3.org/2000/svg"
   xmlns:sodipodi="http://sodipodi.sourceforge.net/DTD/sodipodi-0.dtd"
   xmlns:inkscape="http://www.inkscape.org/namespaces/inkscape"
   version="1.0"
   width="21"
   height="24"
   id="svg2"
   inkscape:version="0.47 r22583"
   sodipodi:docname="02-06-010-01-05-11.svg">
  <defs
     id="defs16">
    <inkscape:perspective
       sodipodi:type="inkscape:persp3d"
       inkscape:vp_x="0 : 23 : 1"
       inkscape:vp_y="0 : 1000 : 0"
       inkscape:vp_z="36 : 23 : 1"
       inkscape:persp3d-origin="18 : 15.333333 : 1"
       id="perspective18" />
  </defs>
  <sodipodi:namedview
     pagecolor="#ffffff"
     bordercolor="#666666"
     borderopacity="1"
     objecttolerance="10"
     gridtolerance="10"
     guidetolerance="10"
     inkscape:pageopacity="0"
     inkscape:pageshadow="2"
     inkscape:window-width="964"
     inkscape:window-height="721"
     id="namedview14"
     showgrid="true"
     inkscape:zoom="16.010846"
     inkscape:cx="10.503461"
     inkscape:cy="12.003955"
     inkscape:window-x="365"
     inkscape:window-y="0"
     inkscape:window-maximized="0"
     inkscape:current-layer="svg2"
     showborder="true">
    <inkscape:grid
       type="xygrid"
       id="grid2824"
       empspacing="5"
       visible="true"
       enabled="true"
       snapvisiblegridlinesonly="true" />
  </sodipodi:namedview>
  <metadata
     id="metadata4">
Valerie Sutton's pixel definition of the
ISWA 2010 symbol ID 04-01-003-01-01-01
transformed by Stephen E Slevinski Jr
using line and fill polygon tracing
<rdf:RDF>
  <cc:Work
     rdf:about="">
    <dc:format>image/svg+xml</dc:format>
    <dc:type
       rdf:resource="http://purl.org/dc/dcmitype/StillImage" />
    <dc:title></dc:title>
  </cc:Work>
</rdf:RDF>
</metadata>
  <path
     style="fill:#000000;fill-opacity:1;stroke:none"
     d="m 10,7 7,-7 -7,0 0,7 z M 11,4.5625 11,1 14.59375,1 11,4.5625 z"
     id="path2964" />
  <path
     style="fill:#000000;fill-opacity:1;stroke:none"
     d="m 7,24 -7,-7 0,7 7,0 z M 4.59375,23 1,23 1,19.4375 4.59375,23 z"
     id="path2867" />
  <path
     style="fill:#000000;fill-opacity:1;stroke:none"
     d="m 14.90625,2.093751 3.46875,3.53125 c 1.62868,1.628679 2.625,3.889718 2.625,6.375 0,2.485281 -0.99632,4.74632 -2.625,6.375 l -3.65625,3.625 -0.6875,-0.6875 3.625,-3.65625 C 19.103965,16.208536 20,14.20914 20,12.000001 20,9.790862 19.103965,7.791466 17.65625,6.343751 l -3.4375,-3.5625 0.6875,-0.6875 z"
     id="path2904" />
  <path
     style="fill:#ffffff;fill-opacity:1;stroke:none"
     d="m 14.21875,2.781251 3.4375,3.5625 C 19.103965,7.791466 20,9.790862 20,12.000001 c 0,2.209139 -0.896035,4.208535 -2.34375,5.65625 l -3.625,3.65625 -1.4375,-1.4375 3.65625,-3.625 c 1.085786,-1.085786 1.75,-2.593146 1.75,-4.25 0,-1.656854 -0.664214,-3.164214 -1.75,-4.25 l -3.46875,-3.53125 1.4375,-1.4375 z"
     id="path2906" />
  <path
     style="fill:#000000;fill-opacity:1;stroke:none"
     d="M 12.78125,4.218751 16.25,7.750001 c 1.085786,1.085786 1.75,2.593146 1.75,4.25 0,1.656854 -0.664214,3.164214 -1.75,4.25 l -3.65625,3.625 -0.6875,-0.6875 3.625,-3.65625 C 16.436072,14.626429 17,13.380713 17,12.000001 17,10.619289 16.436072,9.373573 15.53125,8.468751 l -3.4375,-3.5625 0.6875,-0.6875 z"
     id="path2917" />
  <path
     id="path2991"
     d="M 4.90625,21.90625 8.375,18.375 C 10.00368,16.746321 11,14.485282 11,12 11,9.514719 10.00368,7.25368 8.375,5.625 L 4.71875,2 4.03125,2.6875 7.65625,6.34375 C 9.103965,7.791465 10,9.790861 10,12 c 0,2.209139 -0.896035,4.208535 -2.34375,5.65625 l -3.4375,3.5625 0.6875,0.6875 z"
     style="fill:#000000;fill-opacity:1;stroke:none" />
  <path
     id="path2993"
     d="m 4.21875,21.21875 3.4375,-3.5625 C 9.103965,16.208535 10,14.209139 10,12 10,9.790861 9.103965,7.791465 7.65625,6.34375 L 4.03125,2.6875 2.59375,4.125 6.25,7.75 C 7.335786,8.835786 8,10.343146 8,12 8,13.656854 7.335786,15.164214 6.25,16.25 l -3.46875,3.53125 1.4375,1.4375 z"
     style="fill:#ffffff;fill-opacity:1;stroke:none" />
  <path
     id="path2995"
     d="M 2.78125,19.78125 6.25,16.25 C 7.335786,15.164214 8,13.656854 8,12 8,10.343146 7.335786,8.835786 6.25,7.75 L 2.59375,4.125 1.90625,4.8125 5.53125,8.46875 C 6.436072,9.373572 7,10.619288 7,12 7,13.380712 6.436072,14.626428 5.53125,15.53125 l -3.4375,3.5625 0.6875,0.6875 z"
     style="fill:#000000;fill-opacity:1;stroke:none" />
  <path
     style="fill:#ffffff;fill-opacity:1;stroke:none"
     d="M 11,4.5625 14.59375,1 11,1 11,4.5625 z"
     id="path3324" />
  <path
     style="fill:#ffffff;fill-opacity:1;stroke:none"
     d="M 4.59375,23 1,19.4375 1,23 4.59375,23 z"
     id="path3326" />
</svg>
