<?xml version="1.0" encoding="UTF-8" standalone="no"?>
<svg
   xmlns:dc="http://purl.org/dc/elements/1.1/"
   xmlns:cc="http://creativecommons.org/ns#"
   xmlns:rdf="http://www.w3.org/1999/02/22-rdf-syntax-ns#"
   xmlns:svg="http://www.w3.org/2000/svg"
   xmlns="http://www.w3.org/2000/svg"
   xmlns:sodipodi="http://sodipodi.sourceforge.net/DTD/sodipodi-0.dtd"
   xmlns:inkscape="http://www.inkscape.org/namespaces/inkscape"
   version="1.0"
   width="21"
   height="24"
   id="svg2"
   inkscape:version="0.47 r22583"
   sodipodi:docname="02-06-010-01-06-15.svg">
  <defs
     id="defs16">
    <inkscape:perspective
       sodipodi:type="inkscape:persp3d"
       inkscape:vp_x="0 : 23 : 1"
       inkscape:vp_y="0 : 1000 : 0"
       inkscape:vp_z="36 : 23 : 1"
       inkscape:persp3d-origin="18 : 15.333333 : 1"
       id="perspective18" />
  </defs>
  <sodipodi:namedview
     pagecolor="#ffffff"
     bordercolor="#666666"
     borderopacity="1"
     objecttolerance="10"
     gridtolerance="10"
     guidetolerance="10"
     inkscape:pageopacity="0"
     inkscape:pageshadow="2"
     inkscape:window-width="964"
     inkscape:window-height="721"
     id="namedview14"
     showgrid="true"
     inkscape:zoom="16.010846"
     inkscape:cx="10.503461"
     inkscape:cy="12.003955"
     inkscape:window-x="365"
     inkscape:window-y="0"
     inkscape:window-maximized="0"
     inkscape:current-layer="svg2"
     showborder="true">
    <inkscape:grid
       type="xygrid"
       id="grid2824"
       empspacing="5"
       visible="true"
       enabled="true"
       snapvisiblegridlinesonly="true" />
  </sodipodi:namedview>
  <metadata
     id="metadata4">
Valerie Sutton's pixel definition of the
ISWA 2010 symbol ID 04-01-003-01-01-01
transformed by Stephen E Slevinski Jr
using line and fill polygon tracing
<rdf:RDF>
  <cc:Work
     rdf:about="">
    <dc:format>image/svg+xml</dc:format>
    <dc:type
       rdf:resource="http://purl.org/dc/dcmitype/StillImage" />
    <dc:title></dc:title>
  </cc:Work>
</rdf:RDF>
</metadata>
  <path
     style="fill:#000000;fill-opacity:1;stroke:none"
     d="M 11 17 L 4 24 L 11 24 L 11 17 z M 10 19.4375 L 10 23 L 6.40625 23 L 10 19.4375 z "
     id="path2964" />
  <path
     style="fill:#000000;fill-opacity:1;stroke:none"
     d="M 14 0 L 21 7 L 21 0 L 14 0 z M 16.40625 1 L 20 1 L 20 4.5625 L 16.40625 1 z "
     id="path2867" />
  <path
     style="fill:#000000;fill-opacity:1;stroke:none"
     d="M 6.09375,21.906249 2.625,18.374999 C 0.99632,16.74632 0,14.485281 0,11.999999 0,9.5147184 0.99632,7.2536794 2.625,5.6249994 l 3.65625,-3.625 0.6875,0.6875 -3.625,3.65625 C 1.896035,7.7914644 1,9.7908604 1,11.999999 c 0,2.209139 0.896035,4.208535 2.34375,5.65625 l 3.4375,3.5625 -0.6875,0.6875 z"
     id="path2904" />
  <path
     style="fill:#ffffff;fill-opacity:1;stroke:none"
     d="m 6.78125,21.218749 -3.4375,-3.5625 C 1.896035,16.208534 1,14.209138 1,11.999999 1,9.7908604 1.896035,7.7914644 3.34375,6.3437494 l 3.625,-3.65625 1.4375,1.4375 -3.65625,3.625 C 3.664214,8.8357854 3,10.343145 3,11.999999 c 0,1.656854 0.664214,3.164214 1.75,4.25 l 3.46875,3.53125 -1.4375,1.4375 z"
     id="path2906" />
  <path
     style="fill:#000000;fill-opacity:1;stroke:none"
     d="M 8.21875,19.781249 4.75,16.249999 C 3.664214,15.164213 3,13.656853 3,11.999999 3,10.343145 3.664214,8.8357854 4.75,7.7499994 l 3.65625,-3.625 0.6875,0.6875 -3.625,3.65625 C 4.563928,9.3735714 4,10.619287 4,11.999999 c 0,1.380712 0.563928,2.626428 1.46875,3.53125 l 3.4375,3.5625 -0.6875,0.6875 z"
     id="path2917" />
  <path
     id="path2991"
     d="M 16.09375,2.0937504 12.625,5.6250004 C 10.99632,7.2536794 10,9.5147184 10,12 c 0,2.485281 0.99632,4.74632 2.625,6.375 l 3.65625,3.625 0.6875,-0.6875 -3.625,-3.65625 C 11.896035,16.208535 11,14.209139 11,12 11,9.7908614 11.896035,7.7914654 13.34375,6.3437504 l 3.4375,-3.5625 -0.6875,-0.6875 z"
     style="fill:#000000;fill-opacity:1;stroke:none" />
  <path
     id="path2993"
     d="m 16.78125,2.7812504 -3.4375,3.5625 C 11.896035,7.7914654 11,9.7908614 11,12 c 0,2.209139 0.896035,4.208535 2.34375,5.65625 l 3.625,3.65625 1.4375,-1.4375 L 14.75,16.25 C 13.664214,15.164214 13,13.656854 13,12 13,10.343146 13.664214,8.8357864 14.75,7.7500004 l 3.46875,-3.53125 -1.4375,-1.4375 z"
     style="fill:#ffffff;fill-opacity:1;stroke:none" />
  <path
     id="path2995"
     d="M 18.21875,4.2187504 14.75,7.7500004 C 13.664214,8.8357864 13,10.343146 13,12 c 0,1.656854 0.664214,3.164214 1.75,4.25 l 3.65625,3.625 0.6875,-0.6875 -3.625,-3.65625 C 14.563928,14.626428 14,13.380712 14,12 14,10.619288 14.563928,9.3735724 15.46875,8.4687504 l 3.4375,-3.5625 -0.6875,-0.6875 z"
     style="fill:#000000;fill-opacity:1;stroke:none" />
  <path
     style="fill:#ffffff;fill-opacity:1;stroke:none"
     d="M 10 19.4375 L 6.40625 23 L 10 23 L 10 19.4375 z "
     id="path3324" />
  <path
     style="fill:#ffffff;fill-opacity:1;stroke:none"
     d="M 16.40625 1 L 20 4.5625 L 20 1 L 16.40625 1 z "
     id="path3326" />
</svg>
