<?xml version="1.0" encoding="UTF-8" standalone="no"?>
<svg
   xmlns:dc="http://purl.org/dc/elements/1.1/"
   xmlns:cc="http://creativecommons.org/ns#"
   xmlns:rdf="http://www.w3.org/1999/02/22-rdf-syntax-ns#"
   xmlns:svg="http://www.w3.org/2000/svg"
   xmlns="http://www.w3.org/2000/svg"
   xmlns:sodipodi="http://sodipodi.sourceforge.net/DTD/sodipodi-0.dtd"
   xmlns:inkscape="http://www.inkscape.org/namespaces/inkscape"
   version="1.0"
   width="29"
   height="32"
   id="svg2"
   inkscape:version="0.47 r22583"
   sodipodi:docname="02-06-010-01-01-16.svg">
  <defs
     id="defs16">
    <inkscape:perspective
       sodipodi:type="inkscape:persp3d"
       inkscape:vp_x="0 : 23 : 1"
       inkscape:vp_y="0 : 1000 : 0"
       inkscape:vp_z="36 : 23 : 1"
       inkscape:persp3d-origin="18 : 15.333333 : 1"
       id="perspective18" />
  </defs>
  <sodipodi:namedview
     pagecolor="#ffffff"
     bordercolor="#666666"
     borderopacity="1"
     objecttolerance="10"
     gridtolerance="10"
     guidetolerance="10"
     inkscape:pageopacity="0"
     inkscape:pageshadow="2"
     inkscape:window-width="964"
     inkscape:window-height="721"
     id="namedview14"
     showgrid="true"
     inkscape:zoom="14.78125"
     inkscape:cx="14.5"
     inkscape:cy="16"
     inkscape:window-x="365"
     inkscape:window-y="0"
     inkscape:window-maximized="0"
     inkscape:current-layer="svg2"
     showborder="true">
    <inkscape:grid
       type="xygrid"
       id="grid2824"
       empspacing="5"
       visible="true"
       enabled="true"
       snapvisiblegridlinesonly="true" />
  </sodipodi:namedview>
  <metadata
     id="metadata4">
Valerie Sutton's pixel definition of the
ISWA 2010 symbol ID 04-01-003-01-01-01
transformed by Stephen E Slevinski Jr
using line and fill polygon tracing
<rdf:RDF>
  <cc:Work
     rdf:about="">
    <dc:format>image/svg+xml</dc:format>
    <dc:type
       rdf:resource="http://purl.org/dc/dcmitype/StillImage" />
    <dc:title></dc:title>
  </cc:Work>
</rdf:RDF>
</metadata>
  <path
     style="fill:#000000;fill-opacity:1;stroke:none"
     d="M 16.5 0 L 9.5 7 L 11.5 7 L 16.5 2 L 21.5 7 L 23.5 7 L 16.5 0 z "
     id="path2964" />
  <path
     style="fill:#000000;fill-opacity:1;stroke:none"
     d="M 16 17.5 L 16 19.5 L 21 24.5 L 16 29.5 L 16 31.5 L 23 24.5 L 16 17.5 z "
     id="path2952" />
  <path
     style="fill:#000000;fill-opacity:1;stroke:none"
     d="M 23.5,14 C 22.092687,14 20.698744,13.448744 19.625,12.375 18.551256,11.301256 18,9.907314 18,8.5 l 0,-1.5 1,0 0,1.5 c 0,1.151439 0.433982,2.308981 1.3125,3.1875 C 21.191017,12.566017 22.348561,13 23.5,13 l 5.5,0 0,1 -5.5,0 z"
     id="path2941" />
  <path
     id="path2954"
     d="m 9,17.5 c 0,1.407313 0.551256,2.801256 1.625,3.875 C 11.698744,22.448744 13.092686,23 14.5,23 l 1.5,0 0,-1 -1.5,0 C 13.348561,22 12.191019,21.566018 11.3125,20.6875 10.433983,19.808983 10,18.651439 10,17.5 l 0,-5.5 -1,0 0,5.5 z"
     style="fill:#000000;fill-opacity:1;stroke:none" />
  <path
     style="fill:#ffffff;fill-opacity:1;stroke:none"
     d="m 23.5,17 c -2.17494,1e-6 -4.340578,-0.840577 -6,-2.5 C 15.840577,12.840578 15,10.67494 15,8.5 l 0,-1.5 3,0 0,1.5 c 0,1.407314 0.551256,2.801256 1.625,3.875 C 20.698744,13.448744 22.092687,14 23.5,14 l 5.5,0 0,3 -5.5,0 z"
     id="path2939" />
  <path
     id="path2956"
     d="m 6,17.5 c -1e-6,2.17494 0.840577,4.340578 2.5,6 1.659422,1.659423 3.82506,2.5 6,2.5 l 1.5,0 0,-3 -1.5,0 C 13.092686,23 11.698744,22.448744 10.625,21.375 9.551256,20.301256 9,18.907313 9,17.5 L 9,12 6,12 6,17.5 z"
     style="fill:#ffffff;fill-opacity:1;stroke:none" />
  <path
     style="fill:#000000;fill-opacity:1;stroke:none"
     d="M 28.28125,3 0,31.28125 0.71875,32 29,3.71875 28.28125,3 z"
     id="path2831" />
  <path
     id="path2958"
     d="m 5,17.5 c 0,2.430815 0.926601,4.864101 2.78125,6.71875 C 9.6359,26.073399 12.069185,27 14.5,27 l 1.5,0 0,-1 -1.5,0 C 12.32506,26 10.159423,25.159423 8.5,23.5 6.840577,21.840578 5.999999,19.67494 6,17.5 L 6,12 5,12 5,17.5 z"
     style="fill:#000000;fill-opacity:1;stroke:none" />
  <path
     style="fill:#000000;fill-opacity:1;stroke:none"
     d="M 23.5,18 C 21.069185,18 18.635899,17.073399 16.78125,15.21875 14.926601,13.3641 14,10.930815 14,8.5 l 0,-1.5 1,0 0,1.5 c 0,2.17494 0.840577,4.340577 2.5,6 1.659422,1.659423 3.82506,2.500001 6,2.5 l 5.5,0 0,1 -5.5,0 z"
     id="rect2820" />
</svg>
