<?xml version="1.0" encoding="UTF-8" standalone="no"?>
<svg
   xmlns:dc="http://purl.org/dc/elements/1.1/"
   xmlns:cc="http://creativecommons.org/ns#"
   xmlns:rdf="http://www.w3.org/1999/02/22-rdf-syntax-ns#"
   xmlns:svg="http://www.w3.org/2000/svg"
   xmlns="http://www.w3.org/2000/svg"
   xmlns:sodipodi="http://sodipodi.sourceforge.net/DTD/sodipodi-0.dtd"
   xmlns:inkscape="http://www.inkscape.org/namespaces/inkscape"
   version="1.0"
   width="27"
   height="21"
   id="svg2"
   inkscape:version="0.47 r22583"
   sodipodi:docname="02-06-010-01-05-10.svg">
  <defs
     id="defs16">
    <inkscape:perspective
       sodipodi:type="inkscape:persp3d"
       inkscape:vp_x="0 : 23 : 1"
       inkscape:vp_y="0 : 1000 : 0"
       inkscape:vp_z="36 : 23 : 1"
       inkscape:persp3d-origin="18 : 15.333333 : 1"
       id="perspective18" />
  </defs>
  <sodipodi:namedview
     pagecolor="#ffffff"
     bordercolor="#666666"
     borderopacity="1"
     objecttolerance="10"
     gridtolerance="10"
     guidetolerance="10"
     inkscape:pageopacity="0"
     inkscape:pageshadow="2"
     inkscape:window-width="964"
     inkscape:window-height="721"
     id="namedview14"
     showgrid="true"
     inkscape:zoom="17.062634"
     inkscape:cx="13.497555"
     inkscape:cy="10.498098"
     inkscape:window-x="365"
     inkscape:window-y="0"
     inkscape:window-maximized="0"
     inkscape:current-layer="svg2"
     showborder="true">
    <inkscape:grid
       type="xygrid"
       id="grid2824"
       empspacing="5"
       visible="true"
       enabled="true"
       snapvisiblegridlinesonly="true" />
  </sodipodi:namedview>
  <metadata
     id="metadata4">
Valerie Sutton's pixel definition of the
ISWA 2010 symbol ID 04-01-003-01-01-01
transformed by Stephen E Slevinski Jr
using line and fill polygon tracing
<rdf:RDF>
  <cc:Work
     rdf:about="">
    <dc:format>image/svg+xml</dc:format>
    <dc:type
       rdf:resource="http://purl.org/dc/dcmitype/StillImage" />
    <dc:title></dc:title>
  </cc:Work>
</rdf:RDF>
</metadata>
  <path
     style="fill:#000000;fill-opacity:1;stroke:none"
     d="M 27,7 22,2 17,7 27,7 z M 24.5625,6 19.4375,6 22,3.4375 24.5625,6 z"
     id="path2964" />
  <path
     style="fill:#000000;fill-opacity:1;stroke:none"
     d="m 23.999999,12 c 0,4.970563 -4.029437,9 -9,9 L 9,21 l 0,-1 5.999999,0 c 4.418278,0 8,-3.581722 8,-8 l 0,-5 1,0 0,5 z"
     id="path2816" />
  <path
     style="fill:#ffffff;fill-opacity:1;stroke:none"
     d="m 22.999999,12 c 0,4.418278 -3.581722,8 -8,8 L 9,20 l 0,-2 5.999999,0 c 3.313709,0 6,-2.686292 6,-6 l 0,-5 2,0 0,5 z"
     id="path2818" />
  <path
     style="fill:#000000;fill-opacity:1;stroke:none"
     d="m 20.999999,12 c 0,3.313708 -2.686291,6 -6,6 L 9,18 l 0,-1 5.999999,0 c 2.761424,0 5,-2.238576 5,-5 l 0,-5 1,0 0,5 z"
     id="path2823" />
  <path
     style="fill:#000000;fill-opacity:1;stroke:none"
     d="M 5,18 5,8 0,13 5,18 z M 4,15.5625 1.4375,13 4,10.4375 l 0,5.125 z"
     id="path2867" />
  <path
     style="fill:#000000;fill-opacity:1;stroke:none"
     d="m 8,15 c 4.970563,0 9,-4.029438 9,-9 l 0,-6 -1,0 0,6 c 0,4.418277 -3.581722,8 -8,8 l -3,0 0,1 3,0 z"
     id="path2869" />
  <path
     style="fill:#ffffff;fill-opacity:1;stroke:none"
     d="m 8,14 c 4.418278,0 8,-3.581723 8,-8 l 0,-6 -2,0 0,6 c 0,3.313709 -2.686291,6 -6,6 l -3,0 0,2 3,0 z"
     id="path2871" />
  <path
     style="fill:#000000;fill-opacity:1;stroke:none"
     d="m 8,12 c 3.313709,0 6,-2.686291 6,-6 l 0,-6 -1,0 0,6 c 0,2.761424 -2.238576,5 -5,5 l -3,0 0,1 3,0 z"
     id="path2873" />
  <path
     style="fill:#ffffff;fill-opacity:1;stroke:none"
     d="M 24.5625,6 22,3.4375 19.4375,6 l 5.125,0 z"
     id="path3608" />
  <path
     style="fill:#ffffff;fill-opacity:1;stroke:none"
     d="M 4,15.5625 4,10.4375 1.4375,13 4,15.5625 z"
     id="path3610" />
</svg>
