<?xml version="1.0" encoding="UTF-8" standalone="no"?>
<svg
   xmlns:dc="http://purl.org/dc/elements/1.1/"
   xmlns:cc="http://creativecommons.org/ns#"
   xmlns:rdf="http://www.w3.org/1999/02/22-rdf-syntax-ns#"
   xmlns:svg="http://www.w3.org/2000/svg"
   xmlns="http://www.w3.org/2000/svg"
   xmlns:sodipodi="http://sodipodi.sourceforge.net/DTD/sodipodi-0.dtd"
   xmlns:inkscape="http://www.inkscape.org/namespaces/inkscape"
   version="1.0"
   width="18"
   height="33"
   id="svg2"
   inkscape:version="0.47 r22583"
   sodipodi:docname="02-03-019-01-01-01.svg">
  <defs
     id="defs16">
    <inkscape:perspective
       sodipodi:type="inkscape:persp3d"
       inkscape:vp_x="0 : 23 : 1"
       inkscape:vp_y="0 : 1000 : 0"
       inkscape:vp_z="36 : 23 : 1"
       inkscape:persp3d-origin="18 : 15.333333 : 1"
       id="perspective18" />
  </defs>
  <sodipodi:namedview
     pagecolor="#ffffff"
     bordercolor="#666666"
     borderopacity="1"
     objecttolerance="10"
     gridtolerance="10"
     guidetolerance="10"
     inkscape:pageopacity="0"
     inkscape:pageshadow="2"
     inkscape:window-width="964"
     inkscape:window-height="721"
     id="namedview14"
     showgrid="true"
     inkscape:zoom="14.52"
     inkscape:cx="9.0771403"
     inkscape:cy="16.065863"
     inkscape:window-x="365"
     inkscape:window-y="0"
     inkscape:window-maximized="0"
     inkscape:current-layer="svg2"
     showborder="true">
    <inkscape:grid
       type="xygrid"
       id="grid2824"
       empspacing="5"
       visible="true"
       enabled="true"
       snapvisiblegridlinesonly="true" />
  </sodipodi:namedview>
  <metadata
     id="metadata4">
Valerie Sutton's pixel definition of the
ISWA 2010 symbol ID 04-01-003-01-01-01
transformed by Stephen E Slevinski Jr
using line and fill polygon tracing
<rdf:RDF>
  <cc:Work
     rdf:about="">
    <dc:format>image/svg+xml</dc:format>
    <dc:type
       rdf:resource="http://purl.org/dc/dcmitype/StillImage" />
    <dc:title></dc:title>
  </cc:Work>
</rdf:RDF>
</metadata>
  <path
     style="fill:#000000;fill-opacity:1;stroke:none"
     d="M 2,7 9,0 16,7 13.15625,7 9,2.84375 4.84375,7 2,7 z"
     id="path2966" />
  <path
     style="fill:#000000;fill-opacity:1;stroke:none"
     d="M 6,7 6,33 7,33 7,7 6,7 z"
     id="path2831" />
  <path
     style="fill:#000000;fill-opacity:1;stroke:none"
     d="m 11,7 0,26 1,0 0,-26 -1,0 z"
     id="path2833" />
  <path
     style="fill:#ffffff;fill-opacity:1;stroke:none"
     d="M 7,7 7,33 11,33 11,7 7,7 z"
     id="rect2821" />
  <path
     style="fill:#000000;fill-opacity:1;stroke:none"
     d="M 9,12 C 6.1848545,12 3.3666335,13.070866 1.21875,15.21875 L 0,16.4375 0.71875,17.15625 1.9375,15.9375 c 3.905243,-3.905242 10.219757,-3.905242 14.125,0 L 17.28125,17.15625 18,16.4375 16.78125,15.21875 C 14.633367,13.070866 11.815146,12 9,12 z"
     id="path2850" />
  <path
     style="fill:#000000;fill-opacity:1;stroke:none"
     d="M 9,24 C 6.1848545,24 3.3666335,25.070866 1.21875,27.21875 L 0,28.4375 0.71875,29.15625 1.9375,27.9375 c 3.905243,-3.905242 10.219757,-3.905242 14.125,0 L 17.28125,29.15625 18,28.4375 16.78125,27.21875 C 14.633367,25.070866 11.815145,24 9,24 z"
     id="path3057" />
  <path
     style="fill:#000000;fill-opacity:1;stroke:none"
     d="M 9,18 C 6.1848545,18 3.3666335,19.070866 1.21875,21.21875 L 0,22.4375 0.71875,23.15625 1.9375,21.9375 c 3.905243,-3.905242 10.219757,-3.905242 14.125,0 L 17.28125,23.15625 18,22.4375 16.78125,21.21875 C 14.633367,19.070866 11.815145,18 9,18 z"
     id="path2834" />
</svg>
