<?xml version="1.0" encoding="UTF-8" standalone="no"?>
<svg
   xmlns:dc="http://purl.org/dc/elements/1.1/"
   xmlns:cc="http://creativecommons.org/ns#"
   xmlns:rdf="http://www.w3.org/1999/02/22-rdf-syntax-ns#"
   xmlns:svg="http://www.w3.org/2000/svg"
   xmlns="http://www.w3.org/2000/svg"
   xmlns:sodipodi="http://sodipodi.sourceforge.net/DTD/sodipodi-0.dtd"
   xmlns:inkscape="http://www.inkscape.org/namespaces/inkscape"
   version="1.0"
   width="23"
   height="27"
   id="svg2"
   inkscape:version="0.47 r22583"
   sodipodi:docname="02-10-001-01-01-01.svg">
  <defs
     id="defs16">
    <inkscape:perspective
       sodipodi:type="inkscape:persp3d"
       inkscape:vp_x="0 : 23 : 1"
       inkscape:vp_y="0 : 1000 : 0"
       inkscape:vp_z="36 : 23 : 1"
       inkscape:persp3d-origin="18 : 15.333333 : 1"
       id="perspective18" />
  </defs>
  <sodipodi:namedview
     pagecolor="#ffffff"
     bordercolor="#666666"
     borderopacity="1"
     objecttolerance="10"
     gridtolerance="10"
     guidetolerance="10"
     inkscape:pageopacity="0"
     inkscape:pageshadow="2"
     inkscape:window-width="964"
     inkscape:window-height="721"
     id="namedview14"
     showgrid="true"
     inkscape:zoom="16.345356"
     inkscape:cx="11.501945"
     inkscape:cy="13.502283"
     inkscape:window-x="365"
     inkscape:window-y="0"
     inkscape:window-maximized="0"
     inkscape:current-layer="svg2"
     showborder="true">
    <inkscape:grid
       type="xygrid"
       id="grid2824"
       empspacing="5"
       visible="true"
       enabled="true"
       snapvisiblegridlinesonly="true" />
  </sodipodi:namedview>
  <metadata
     id="metadata4">
Valerie Sutton's pixel definition of the
ISWA 2010 symbol ID 04-01-003-01-01-01
transformed by Stephen E Slevinski Jr
using line and fill polygon tracing
<rdf:RDF>
  <cc:Work
     rdf:about="">
    <dc:format>image/svg+xml</dc:format>
    <dc:type
       rdf:resource="http://purl.org/dc/dcmitype/StillImage" />
    <dc:title></dc:title>
  </cc:Work>
</rdf:RDF>
</metadata>
  <path
     style="fill:#000000;fill-opacity:1;stroke:none"
     d="M 12 4.03125 L 12 5.03125 C 17.562668 5.2966764 22 9.8716054 22 15.5 C 22 21.29899 17.29899 26 11.5 26 C 5.7010101 26 1 21.29899 1 15.5 C 1 12.087839 2.6350716 9.0741164 5.15625 7.15625 L 4.4375 6.4375 C 1.7405397 8.5420663 0 11.813992 0 15.5 C 0 21.851275 5.1487254 27 11.5 27 C 17.851275 27 23 21.851275 23 15.5 C 23 9.3159508 18.119728 4.2925737 12 4.03125 z "
     id="path2814" />
  <path
     style="fill:#ffffff;fill-opacity:1;stroke:none"
     d="M 12 5.03125 L 12 8.03125 C 15.912058 8.285396 19 11.523698 19 15.5 C 19 19.642136 15.642136 23 11.5 23 C 7.3578644 23 4 19.642136 4 15.5 C 4 12.919996 5.2976957 10.630804 7.28125 9.28125 L 5.15625 7.15625 C 2.6350716 9.0741164 1 12.087839 1 15.5 C 1 21.29899 5.7010101 26 11.5 26 C 17.29899 26 22 21.29899 22 15.5 C 22 9.8716054 17.562668 5.2966764 12 5.03125 z "
     id="path2816" />
  <path
     style="fill:#000000;fill-opacity:1;stroke:none"
     d="M 12 8.03125 L 12 9.03125 C 15.352269 9.2905629 18 12.081215 18 15.5 C 18 19.089851 15.089851 22 11.5 22 C 7.9101491 22 5 19.089851 5 15.5 C 5 13.19177 6.2178704 11.184532 8.03125 10.03125 L 7.3125 9.28125 L 7.28125 9.28125 C 5.2976957 10.630804 4 12.919996 4 15.5 C 4 19.642136 7.3578644 23 11.5 23 C 15.642136 23 19 19.642136 19 15.5 C 19 11.523698 15.912058 8.285396 12 8.03125 z "
     id="path2821" />
  <path
     style="fill:#000000;fill-opacity:1;stroke:none"
     d="M 12,13 5.5,6.5 12,0 12,13 z"
     id="path2829"
     sodipodi:nodetypes="cccc" />
</svg>
