<?xml version="1.0" encoding="UTF-8" standalone="no"?>
<!-- Created with Inkscape (http://www.inkscape.org/) -->

<svg
   xmlns:dc="http://purl.org/dc/elements/1.1/"
   xmlns:cc="http://creativecommons.org/ns#"
   xmlns:rdf="http://www.w3.org/1999/02/22-rdf-syntax-ns#"
   xmlns:svg="http://www.w3.org/2000/svg"
   xmlns="http://www.w3.org/2000/svg"
   xmlns:sodipodi="http://sodipodi.sourceforge.net/DTD/sodipodi-0.dtd"
   xmlns:inkscape="http://www.inkscape.org/namespaces/inkscape"
   width="22"
   height="28"
   id="svg3198"
   sodipodi:version="0.32"
   inkscape:version="0.47 r22583"
   version="1.0"
   sodipodi:docname="01-08-002-01-02.svg"
   inkscape:output_extension="org.inkscape.output.svg.inkscape">
  <defs
     id="defs3200">
    <inkscape:perspective
       sodipodi:type="inkscape:persp3d"
       inkscape:vp_x="0 : 526.18109 : 1"
       inkscape:vp_y="0 : 1000 : 0"
       inkscape:vp_z="744.09448 : 526.18109 : 1"
       inkscape:persp3d-origin="372.04724 : 350.78739 : 1"
       id="perspective3206" />
  </defs>
  <sodipodi:namedview
     id="namedview3727"
     pagecolor="#ffffff"
     bordercolor="#666666"
     borderopacity="1.0"
     gridtolerance="10000"
     guidetolerance="10"
     objecttolerance="10"
     inkscape:pageopacity="0.0"
     inkscape:pageshadow="2"
     inkscape:zoom="17.233119"
     inkscape:cx="7.2046664"
     inkscape:cy="13.100235"
     inkscape:document-units="px"
     inkscape:current-layer=""
     showgrid="true"
     inkscape:window-width="1091"
     inkscape:window-height="774"
     inkscape:window-x="1"
     inkscape:window-y="25"
     inkscape:window-maximized="0">
    <inkscape:grid
       type="xygrid"
       id="grid3208"
       visible="true"
       enabled="true" />
  </sodipodi:namedview>
  <metadata
     id="metadata3203">
    <rdf:RDF>
      <cc:Work
         rdf:about="">
        <dc:format>image/svg+xml</dc:format>
        <dc:type
           rdf:resource="http://purl.org/dc/dcmitype/StillImage" />
        <dc:title />
      </cc:Work>
    </rdf:RDF>
  </metadata>
  <g
     inkscape:label="Layer 1"
     inkscape:groupmode="layer"
     id="">
    <path
       style="fill:#000000;fill-opacity:1;stroke:none"
       d="M 14 12 C 9.581722 12 6 15.581722 6 20 C 6 24.418278 9.581722 28 14 28 C 18.418278 28 22 24.418278 22 20 C 22 15.581722 18.418278 12 14 12 z "
       id="base" />
    <path
       style="fill:#ffffff;fill-opacity:1;stroke:none"
       d="M 14 14 C 10.686292 14 8 16.686292 8 20 C 8 23.313708 10.686292 26 14 26 L 14 14 z "
       id="fill" />
    <path
       style="fill:#000000;fill-opacity:1;stroke:none"
       d="M 19 0 L 19 13.75 C 19.811046 14.400312 20.492534 15.209995 21 16.125 L 21 0 L 19 0 z "
       id="index" />
    <path
       style="fill:#000000;fill-opacity:1;stroke:none"
       d="m 8,3 0,11.71875 c 0.5698948,-0.64627 1.2501758,-1.189797 2,-1.625 L 10,3 8,3 z"
       id="ring" />
    <path
       style="fill:#000000;fill-opacity:1;stroke:none"
       d="M 2 11 L 0.59375 12.40625 L 6.25 18.0625 C 6.4274339 17.348604 6.7077591 16.68616 7.0625 16.0625 L 2 11 z "
       id="baby" />
  </g>
</svg>
