<?xml version="1.0" encoding="UTF-8" standalone="no"?>
<svg
   xmlns:dc="http://purl.org/dc/elements/1.1/"
   xmlns:cc="http://creativecommons.org/ns#"
   xmlns:rdf="http://www.w3.org/1999/02/22-rdf-syntax-ns#"
   xmlns:svg="http://www.w3.org/2000/svg"
   xmlns="http://www.w3.org/2000/svg"
   xmlns:sodipodi="http://sodipodi.sourceforge.net/DTD/sodipodi-0.dtd"
   xmlns:inkscape="http://www.inkscape.org/namespaces/inkscape"
   version="1.0"
   width="22"
   height="21"
   id="svg2"
   inkscape:version="0.47 r22583"
   sodipodi:docname="02-08-005-01-02-06.svg">
  <defs
     id="defs16">
    <inkscape:perspective
       sodipodi:type="inkscape:persp3d"
       inkscape:vp_x="0 : 23 : 1"
       inkscape:vp_y="0 : 1000 : 0"
       inkscape:vp_z="36 : 23 : 1"
       inkscape:persp3d-origin="18 : 15.333333 : 1"
       id="perspective18" />
  </defs>
  <sodipodi:namedview
     pagecolor="#ffffff"
     bordercolor="#666666"
     borderopacity="1"
     objecttolerance="10"
     gridtolerance="10"
     guidetolerance="10"
     inkscape:pageopacity="0"
     inkscape:pageshadow="2"
     inkscape:window-width="964"
     inkscape:window-height="721"
     id="namedview14"
     showgrid="true"
     inkscape:zoom="17.065173"
     inkscape:cx="10.998008"
     inkscape:cy="10.498098"
     inkscape:window-x="365"
     inkscape:window-y="0"
     inkscape:window-maximized="0"
     inkscape:current-layer="svg2"
     showborder="true">
    <inkscape:grid
       type="xygrid"
       id="grid2824"
       empspacing="5"
       visible="true"
       enabled="true"
       snapvisiblegridlinesonly="true" />
  </sodipodi:namedview>
  <metadata
     id="metadata4">
Valerie Sutton's pixel definition of the
ISWA 2010 symbol ID 04-01-003-01-01-01
transformed by Stephen E Slevinski Jr
using line and fill polygon tracing
<rdf:RDF>
  <cc:Work
     rdf:about="">
    <dc:format>image/svg+xml</dc:format>
    <dc:type
       rdf:resource="http://purl.org/dc/dcmitype/StillImage" />
    <dc:title></dc:title>
  </cc:Work>
</rdf:RDF>
</metadata>
  <path
     style="fill:#000000;fill-opacity:1;stroke:none"
     d="M 21,9.100505 21,19 11.100505,19 21,9.100505 z m -0.994369,2.408583 -6.496544,6.496543 6.474447,-0.0221 0.0221,-6.474446 z"
     id="path2814" />
  <path
     style="fill:#000000;fill-opacity:1;stroke:none"
     d="m 1.9081167,4.1507576 c 1.5620971,-1.5620972 4.0947571,-1.5620972 5.6568542,0 l 4.2426411,4.2426407 c 1.795055,1.7950547 7.071067,2.8284267 7.071067,2.8284267 l -5.656854,5.656855 c 0,0 -1.033372,-5.276013 -2.828427,-7.071068 L 6.1507574,5.5649711 c -0.7810486,-0.7810485 -2.0473789,-0.7810482 -2.8284272,0 -0.7810482,0.7810483 -0.7810485,2.0473786 0,2.8284272 L 6.1507574,11.221825 4.7365438,12.636039 1.9081167,9.807612 c -1.5620972,-1.5620973 -1.5620972,-4.0947573 0,-5.6568544 z"
     id="path2816" />
  <path
     style="fill:#000000;fill-opacity:1;stroke:none"
     d="M 1.9081167,19.707107 2.6152235,20.414214 21.707107,1.3223305 21,0.6152237 1.9081167,19.707107 z"
     id="rect2825" />
  <path
     style="fill:#ffffff;fill-opacity:1;stroke:none"
     d="m 20.005631,11.509088 -0.0221,6.474446 -6.474447,0.0221 6.496544,-6.496543 z"
     id="path2950" />
</svg>
