<?xml version="1.0" encoding="UTF-8" standalone="no"?>
<svg
   xmlns:dc="http://purl.org/dc/elements/1.1/"
   xmlns:cc="http://creativecommons.org/ns#"
   xmlns:rdf="http://www.w3.org/1999/02/22-rdf-syntax-ns#"
   xmlns:svg="http://www.w3.org/2000/svg"
   xmlns="http://www.w3.org/2000/svg"
   xmlns:sodipodi="http://sodipodi.sourceforge.net/DTD/sodipodi-0.dtd"
   xmlns:inkscape="http://www.inkscape.org/namespaces/inkscape"
   version="1.0"
   width="21"
   height="51"
   id="svg2"
   inkscape:version="0.47 r22583"
   sodipodi:docname="02-06-006-05-03-01.svg">
  <defs
     id="defs16">
    <inkscape:perspective
       sodipodi:type="inkscape:persp3d"
       inkscape:vp_x="0 : 23 : 1"
       inkscape:vp_y="0 : 1000 : 0"
       inkscape:vp_z="36 : 23 : 1"
       inkscape:persp3d-origin="18 : 15.333333 : 1"
       id="perspective18" />
  </defs>
  <sodipodi:namedview
     pagecolor="#ffffff"
     bordercolor="#666666"
     borderopacity="1"
     objecttolerance="10"
     gridtolerance="10"
     guidetolerance="10"
     inkscape:pageopacity="0"
     inkscape:pageshadow="2"
     inkscape:window-width="964"
     inkscape:window-height="721"
     id="namedview14"
     showgrid="true"
     inkscape:zoom="9.2745098"
     inkscape:cx="10.5"
     inkscape:cy="25.5"
     inkscape:window-x="365"
     inkscape:window-y="0"
     inkscape:window-maximized="0"
     inkscape:current-layer="svg2"
     showborder="true">
    <inkscape:grid
       type="xygrid"
       id="grid2824"
       empspacing="5"
       visible="true"
       enabled="true"
       snapvisiblegridlinesonly="true" />
  </sodipodi:namedview>
  <metadata
     id="metadata4">
Valerie Sutton's pixel definition of the
ISWA 2010 symbol ID 04-01-003-01-01-01
transformed by Stephen E Slevinski Jr
using line and fill polygon tracing
<rdf:RDF>
  <cc:Work
     rdf:about="">
    <dc:format>image/svg+xml</dc:format>
    <dc:type
       rdf:resource="http://purl.org/dc/dcmitype/StillImage" />
    <dc:title></dc:title>
  </cc:Work>
</rdf:RDF>
</metadata>
  <path
     style="fill:#000000;fill-opacity:1;stroke:none"
     d="M 7 0 L 0 7 L 7 14 L 7 0 z M 6 2.40625 L 6 11.59375 L 1.4375 7 L 6 2.40625 z "
     id="path3182" />
  <path
     style="fill:#000000;fill-opacity:1;stroke:none"
     d="M 7 5 L 7 6 L 13 6 C 16.865993 6 20 9.1340068 20 13 L 20 15 C 20 18.865993 16.865993 22 13 22 L 9 22 C 6.238576 22 4 24.238576 4 27 L 4 29 C 4 31.761424 6.238576 34 9 34 L 13 34 C 16.865993 34 20 37.134007 20 41 L 20 43 C 20 46.865993 16.865993 50 13 50 L 3 50 L 3 51 L 13 51 C 17.418278 51 21 47.418278 21 43 L 21 41 C 21 36.581722 17.418278 33 13 33 L 9 33 C 6.790861 33 5 31.209139 5 29 L 5 27 C 5 24.790861 6.790861 23 9 23 L 13 23 C 17.418278 23 21 19.418278 21 15 L 21 13 C 21 8.581722 17.418278 5 13 5 L 7 5 z "
     id="path3217" />
  <path
     style="fill:#ffffff;fill-opacity:1;stroke:none"
     d="M 7 6 L 7 8 L 13 8 C 15.761424 8 18 10.238576 18 13 L 18 15 C 18 17.761424 15.761424 20 13 20 L 9 20 C 5.134007 20 2 23.134007 2 27 L 2 29 C 2 32.865993 5.134007 36 9 36 L 13 36 C 15.761424 36 18 38.238576 18 41 L 18 43 C 18 45.761424 15.761424 48 13 48 L 3 48 L 3 50 L 13 50 C 16.865993 50 20 46.865993 20 43 L 20 41 C 20 37.134007 16.865993 34 13 34 L 9 34 C 6.238576 34 4 31.761424 4 29 L 4 27 C 4 24.238576 6.238576 22 9 22 L 13 22 C 16.865993 22 20 18.865993 20 15 L 20 13 C 20 9.1340068 16.865993 6 13 6 L 7 6 z "
     id="path3220" />
  <path
     style="fill:#000000;fill-opacity:1;stroke:none"
     d="M 7 8 L 7 9 L 13 9 C 15.209139 9 17 10.790861 17 13 L 17 15 C 17 17.209139 15.209139 19 13 19 L 9 19 C 4.581722 19 1 22.581722 1 27 L 1 29 C 1 33.418278 4.581722 37 9 37 L 13 37 C 15.209139 37 17 38.790861 17 41 L 17 43 C 17 45.209139 15.209139 47 13 47 L 3 47 L 3 48 L 13 48 C 15.761424 48 18 45.761424 18 43 L 18 41 C 18 38.238576 15.761424 36 13 36 L 9 36 C 5.134007 36 2 32.865993 2 29 L 2 27 C 2 23.134007 5.134007 20 9 20 L 13 20 C 15.761424 20 18 17.761424 18 15 L 18 13 C 18 10.238576 15.761424 8 13 8 L 7 8 z "
     id="path3223" />
  <path
     style="fill:#ffffff;fill-opacity:1;stroke:none"
     d="M 6 2.40625 L 1.4375 7 L 6 11.59375 L 6 2.40625 z "
     id="path3360" />
</svg>
