<?xml version="1.0" encoding="UTF-8" standalone="no"?>
<!-- Created with Inkscape (http://www.inkscape.org/) -->

<svg
   xmlns:dc="http://purl.org/dc/elements/1.1/"
   xmlns:cc="http://creativecommons.org/ns#"
   xmlns:rdf="http://www.w3.org/1999/02/22-rdf-syntax-ns#"
   xmlns:svg="http://www.w3.org/2000/svg"
   xmlns="http://www.w3.org/2000/svg"
   xmlns:sodipodi="http://sodipodi.sourceforge.net/DTD/sodipodi-0.dtd"
   xmlns:inkscape="http://www.inkscape.org/namespaces/inkscape"
   width="25"
   height="31"
   id="svg3198"
   sodipodi:version="0.32"
   inkscape:version="0.47 r22583"
   version="1.0"
   sodipodi:docname="01-04-002-01-02.svg"
   inkscape:output_extension="org.inkscape.output.svg.inkscape">
  <defs
     id="defs3200">
    <inkscape:perspective
       sodipodi:type="inkscape:persp3d"
       inkscape:vp_x="0 : 526.18109 : 1"
       inkscape:vp_y="0 : 1000 : 0"
       inkscape:vp_z="744.09448 : 526.18109 : 1"
       inkscape:persp3d-origin="372.04724 : 350.78739 : 1"
       id="perspective3206" />
    <inkscape:perspective
       id="perspective2851"
       inkscape:persp3d-origin="0.5 : 0.33333333 : 1"
       inkscape:vp_z="1 : 0.5 : 1"
       inkscape:vp_y="0 : 1000 : 0"
       inkscape:vp_x="0 : 0.5 : 1"
       sodipodi:type="inkscape:persp3d" />
  </defs>
  <sodipodi:namedview
     id="namedview3727"
     pagecolor="#ffffff"
     bordercolor="#666666"
     borderopacity="1.0"
     gridtolerance="10000"
     guidetolerance="10"
     objecttolerance="10"
     inkscape:pageopacity="0.0"
     inkscape:pageshadow="2"
     inkscape:zoom="15.99325"
     inkscape:cx="13.124517"
     inkscape:cy="14.935977"
     inkscape:document-units="px"
     inkscape:current-layer=""
     showgrid="true"
     inkscape:window-width="1440"
     inkscape:window-height="803"
     inkscape:window-x="0"
     inkscape:window-y="0"
     inkscape:window-maximized="0">
    <inkscape:grid
       type="xygrid"
       id="grid3208"
       visible="true"
       enabled="true" />
  </sodipodi:namedview>
  <metadata
     id="metadata3203">
    <rdf:RDF>
      <cc:Work
         rdf:about="">
        <dc:format>image/svg+xml</dc:format>
        <dc:type
           rdf:resource="http://purl.org/dc/dcmitype/StillImage" />
        <dc:title></dc:title>
      </cc:Work>
    </rdf:RDF>
  </metadata>
  <g
     inkscape:label="Layer 1"
     inkscape:groupmode="layer"
     id="">
    <path
       style="fill:#000000;fill-opacity:1;stroke:none"
       d="M 11 11.8125 L 4 18.84375 L 4 31 L 18 31 L 18 18.8125 L 11 11.8125 z "
       id="base" />
    <path
       style="fill:#ffffff;fill-opacity:1;stroke:none"
       d="M 11 14.6875 L 6 19.65625 L 6 29 L 12 29 L 12 15.6875 L 11 14.6875 z "
       id="fill" />
    <rect
       style="fill:#000000;fill-opacity:1;stroke:none"
       id="thumb"
       width="5"
       height="3"
       x="6"
       y="22" />
    <path
       style="fill:#000000;fill-opacity:1;stroke:none"
       d="M 15.75,3.25 C 13.660097,3.2844871 13.0625,5.5 13.0625,5.5 L 12.8125,6.46875 14.75,7 C 14.823821,6.6746248 14.916674,6.3541373 15,6.03125 15.258819,5.0653242 16.21875,5.3125 16.21875,5.3125 17.184676,5.5713191 16.9375,6.53125 16.9375,6.53125 l -1.78125,6.625 1.625,1.625 C 17.483712,12.209575 18.142615,9.6258485 18.875,7.0625 19.651457,4.1647225 16.75,3.375 16.75,3.375 16.387778,3.2779429 16.048558,3.2450733 15.75,3.25 z"
       id="index" />
    <path
       style="fill:#000000;fill-opacity:1;stroke:none"
       d="M 9,0 C 6,0 6,3 6,3 L 6,4 8,4 8,3 C 8,2.25 8.5625,2.046875 8.84375,2 L 9,2 c 1,0 1,1 1,1 l 0,7 1,-1 1,1 0,-7 C 12,0 9,0 9,0 z"
       id="middle" />
    <path
       style="fill:#000000;fill-opacity:1;stroke:none"
       d="m 3.25,3.4375 c -0.2985576,-0.00493 -0.6377778,0.027943 -1,0.125 0,0 -2.9014572,0.7584725 -2.125,3.65625 l 0.28125,0.96875 1.90625,-0.5 -0.25,-0.96875 c 0,0 -0.2471758,-0.959931 0.71875,-1.21875 0,0 0.9599309,-0.2784258 1.21875,0.6875 l 2.0625,7.75 L 7.71875,12.28125 5.9375,5.6875 c 0,0 -0.597597,-2.2155129 -2.6875,-2.25 z"
       id="ring" />
    <path
       style="fill:#000000;fill-opacity:1;stroke:none"
       d="M 21.84375 7.5 C 20.702213 7.6035801 19.875 8.4375 19.875 8.4375 L 19.1875 9.15625 L 20.59375 10.5625 L 21.3125 9.84375 C 22.019607 9.136643 22.71875 9.84375 22.71875 9.84375 C 23.24908 10.37408 22.978228 10.924231 22.8125 11.15625 L 18 16 L 19.40625 17.40625 L 24.125 12.6875 C 24.920495 11.892005 25.124648 11.089879 25.0625 10.40625 C 24.95892 9.266869 24.125 8.4375 24.125 8.4375 C 23.329505 7.6420049 22.528672 7.4378519 21.84375 7.5 z "
       id="baby" />
  </g>
</svg>
