<?xml version="1.0" encoding="UTF-8" standalone="no"?>
<!-- Created with Inkscape (http://www.inkscape.org/) -->

<svg
   xmlns:dc="http://purl.org/dc/elements/1.1/"
   xmlns:cc="http://creativecommons.org/ns#"
   xmlns:rdf="http://www.w3.org/1999/02/22-rdf-syntax-ns#"
   xmlns:svg="http://www.w3.org/2000/svg"
   xmlns="http://www.w3.org/2000/svg"
   xmlns:sodipodi="http://sodipodi.sourceforge.net/DTD/sodipodi-0.dtd"
   xmlns:inkscape="http://www.inkscape.org/namespaces/inkscape"
   width="24"
   height="31"
   id="svg3198"
   sodipodi:version="0.32"
   inkscape:version="0.47 r22583"
   version="1.0"
   sodipodi:docname="01-04-002-01-06.svg"
   inkscape:output_extension="org.inkscape.output.svg.inkscape">
  <defs
     id="defs3200">
    <inkscape:perspective
       sodipodi:type="inkscape:persp3d"
       inkscape:vp_x="0 : 526.18109 : 1"
       inkscape:vp_y="0 : 1000 : 0"
       inkscape:vp_z="744.09448 : 526.18109 : 1"
       inkscape:persp3d-origin="372.04724 : 350.78739 : 1"
       id="perspective3206" />
    <inkscape:perspective
       id="perspective2851"
       inkscape:persp3d-origin="0.5 : 0.33333333 : 1"
       inkscape:vp_z="1 : 0.5 : 1"
       inkscape:vp_y="0 : 1000 : 0"
       inkscape:vp_x="0 : 0.5 : 1"
       sodipodi:type="inkscape:persp3d" />
  </defs>
  <sodipodi:namedview
     id="namedview3727"
     pagecolor="#ffffff"
     bordercolor="#666666"
     borderopacity="1.0"
     gridtolerance="10000"
     guidetolerance="10"
     objecttolerance="10"
     inkscape:pageopacity="0.0"
     inkscape:pageshadow="2"
     inkscape:zoom="15.99325"
     inkscape:cx="13.124517"
     inkscape:cy="14.935977"
     inkscape:document-units="px"
     inkscape:current-layer=""
     showgrid="true"
     inkscape:window-width="1440"
     inkscape:window-height="803"
     inkscape:window-x="0"
     inkscape:window-y="0"
     inkscape:window-maximized="0">
    <inkscape:grid
       type="xygrid"
       id="grid3208"
       visible="true"
       enabled="true" />
  </sodipodi:namedview>
  <metadata
     id="metadata3203">
    <rdf:RDF>
      <cc:Work
         rdf:about="">
        <dc:format>image/svg+xml</dc:format>
        <dc:type
           rdf:resource="http://purl.org/dc/dcmitype/StillImage" />
        <dc:title></dc:title>
      </cc:Work>
    </rdf:RDF>
  </metadata>
  <g
     inkscape:label="Layer 1"
     inkscape:groupmode="layer"
     id="">
    <path
       style="fill:#000000;fill-opacity:1;stroke:none"
       d="M 16,9 9,16 9,31 23,31 23,16 16,9 z"
       id="base"
       sodipodi:nodetypes="cccccc" />
    <path
       style="fill:#ffffff;fill-opacity:1;stroke:none"
       d="M 16,11.8125 11,16.84375 11,29 21,29 21,16.84375 16,11.8125 z"
       id="fill" />
    <rect
       style="fill:#000000;fill-opacity:1;stroke:none"
       id="thumb"
       width="7"
       height="3"
       x="14"
       y="21" />
    <path
       style="fill:#000000;fill-opacity:1;stroke:none"
       d="M 20.75,3.25 C 18.660097,3.2844871 18.0625,5.5 18.0625,5.5 L 17.8125,6.46875 19.75,7 C 19.823821,6.6746248 19.916674,6.3541373 20,6.03125 20.258819,5.0653242 21.21875,5.3125 21.21875,5.3125 22.184676,5.5713191 21.9375,6.53125 21.9375,6.53125 l -1.78125,6.625 1.625,1.625 C 22.483712,12.209575 23.142615,9.6258485 23.875,7.0625 24.651457,4.1647225 21.75,3.375 21.75,3.375 21.387778,3.2779429 21.048558,3.2450733 20.75,3.25 z"
       id="index" />
    <path
       style="fill:#000000;fill-opacity:1;stroke:none"
       d="m 14,0 c -3,0 -3,3 -3,3 l 0,1 2,0 0,-1 C 13,2.25 13.5625,2.046875 13.84375,2 L 14,2 c 1,0 1,1 1,1 l 0,7 1,-1 1,1 0,-7 C 17,0 14,0 14,0 z"
       id="middle" />
    <path
       style="fill:#000000;fill-opacity:1;stroke:none"
       d="m 8.25,3.4375 c -0.2985576,-0.00493 -0.6377778,0.027943 -1,0.125 0,0 -2.9014572,0.7584725 -2.125,3.65625 l 0.28125,0.96875 1.90625,-0.5 -0.25,-0.96875 c 0,0 -0.2471758,-0.959931 0.71875,-1.21875 0,0 0.9599309,-0.2784258 1.21875,0.6875 l 2.0625,7.75 1.65625,-1.65625 L 10.9375,5.6875 c 0,0 -0.597597,-2.2155129 -2.6875,-2.25 z"
       id="ring" />
    <path
       style="fill:#000000;fill-opacity:1;stroke:none"
       d="M 3.40625,10.5625 C 2.266869,10.66608 1.4375,11.5 1.4375,11.5 c -2.12132026,2.12132 0,4.25 0,4.25 L 2.15625,16.4375 3.5625,15.03125 2.84375,14.3125 c -0.7071068,-0.707107 0,-1.40625 0,-1.40625 0.5303301,-0.53033 1.0804806,-0.259478 1.3125,-0.09375 L 9,17.625 9,16 9.59375,15.40625 5.6875,11.5 C 4.8920049,10.704505 4.0898786,10.500352 3.40625,10.5625 z"
       id="baby"
       sodipodi:nodetypes="ccccccccccccc" />
  </g>
</svg>
