<?xml version="1.0" encoding="UTF-8" standalone="no"?>
<svg
   xmlns:dc="http://purl.org/dc/elements/1.1/"
   xmlns:cc="http://creativecommons.org/ns#"
   xmlns:rdf="http://www.w3.org/1999/02/22-rdf-syntax-ns#"
   xmlns:svg="http://www.w3.org/2000/svg"
   xmlns="http://www.w3.org/2000/svg"
   xmlns:sodipodi="http://sodipodi.sourceforge.net/DTD/sodipodi-0.dtd"
   xmlns:inkscape="http://www.inkscape.org/namespaces/inkscape"
   version="1.0"
   width="16"
   height="18"
   id="svg2"
   inkscape:version="0.47 r22583"
   sodipodi:docname="02-01-012-01-01-04.svg">
  <defs
     id="defs14">
    <inkscape:perspective
       sodipodi:type="inkscape:persp3d"
       inkscape:vp_x="0 : 5.5 : 1"
       inkscape:vp_y="0 : 1000 : 0"
       inkscape:vp_z="10 : 5.5 : 1"
       inkscape:persp3d-origin="5 : 3.6666667 : 1"
       id="perspective16" />
  </defs>
  <sodipodi:namedview
     pagecolor="#ffffff"
     bordercolor="#666666"
     borderopacity="1"
     objecttolerance="10"
     gridtolerance="10"
     guidetolerance="10"
     inkscape:pageopacity="0"
     inkscape:pageshadow="2"
     inkscape:window-width="917"
     inkscape:window-height="792"
     id="namedview12"
     showgrid="true"
     inkscape:zoom="11.494966"
     inkscape:cx="9.4070896"
     inkscape:cy="11.163866"
     inkscape:window-x="313"
     inkscape:window-y="0"
     inkscape:window-maximized="0"
     inkscape:current-layer="svg2">
    <inkscape:grid
       type="xygrid"
       id="grid2822" />
  </sodipodi:namedview>
  <metadata
     id="metadata4">
Valerie Sutton's pixel definition of the
ISWA 2010 symbol ID 02-01-001-01-01-01
transformed by Stephen E Slevinski Jr
using line and fill polygon tracing
<rdf:RDF>
  <cc:Work
     rdf:about="">
    <dc:format>image/svg+xml</dc:format>
    <dc:type
       rdf:resource="http://purl.org/dc/dcmitype/StillImage" />
    <dc:title></dc:title>
  </cc:Work>
</rdf:RDF>
</metadata>
  <path
     style="fill:#000000;fill-opacity:1;stroke:none"
     d="m 8.0000007,2.9999999 c -3.3137085,0 -6,2.6862915 -6,6 0,3.3137091 2.6862915,6.0000001 6,6.0000001 3.3137093,0 6.0000003,-2.686291 6.0000003,-6.0000001 0,-3.3137085 -2.686291,-6 -6.0000003,-6 z m 0,2 c 2.2091393,0 4.0000003,1.790861 4.0000003,4 C 12.000001,11.209139 10.20914,13 8.0000007,13 c -2.209139,0 -4,-1.790861 -4,-4.0000001 0,-2.209139 1.790861,-4 4,-4 z"
     id="path3379" />
  <path
     style="fill:#ffffff;fill-opacity:1;stroke:none"
     d="m 8.0000007,4.9999999 c -2.209139,0 -4,1.790861 -4,4 0,2.2091391 1.790861,4.0000001 4,4.0000001 2.2091393,0 4.0000003,-1.790861 4.0000003,-4.0000001 0,-2.209139 -1.790861,-4 -4.0000003,-4 z m 0,2 c 1.10457,0 2.0000003,0.895431 2.0000003,2 C 10.000001,10.10457 9.1045707,11 8.0000007,11 c -1.104569,0 -2,-0.89543 -2,-2.0000001 0,-1.104569 0.895431,-2 2,-2 z"
     id="path3384" />
  <path
     style="fill:#000000;fill-opacity:1;stroke:none"
     d="m 8.0000007,6.9999999 c -1.104569,0 -2,0.895431 -2,2 0,1.1045691 0.895431,2.0000001 2,2.0000001 1.104569,0 2.0000003,-0.895431 2.0000003,-2.0000001 0,-1.104569 -0.8954313,-2 -2.0000003,-2 z"
     id="path3391" />
  <path
     style="fill:#000000;fill-opacity:1;stroke:none"
     d="M 16.000001,0 0,0 l 7e-7,1.9999999 16.0000003,-3e-7 0,-1.9999996 z"
     id="rect3597" />
  <path
     style="fill:#000000;fill-opacity:1;stroke:none"
     d="M 16.000001,16 7e-7,16 0,18 l 16.000001,0 0,-2 z"
     id="rect3599" />
</svg>
