<?xml version="1.0" encoding="UTF-8" standalone="no"?>
<svg
   xmlns:dc="http://purl.org/dc/elements/1.1/"
   xmlns:cc="http://creativecommons.org/ns#"
   xmlns:rdf="http://www.w3.org/1999/02/22-rdf-syntax-ns#"
   xmlns:svg="http://www.w3.org/2000/svg"
   xmlns="http://www.w3.org/2000/svg"
   xmlns:sodipodi="http://sodipodi.sourceforge.net/DTD/sodipodi-0.dtd"
   xmlns:inkscape="http://www.inkscape.org/namespaces/inkscape"
   version="1.0"
   width="38"
   height="15"
   id="svg2"
   inkscape:version="0.47 r22583"
   sodipodi:docname="02-01-012-01-02-02.svg">
  <defs
     id="defs14">
    <inkscape:perspective
       sodipodi:type="inkscape:persp3d"
       inkscape:vp_x="0 : 5.5 : 1"
       inkscape:vp_y="0 : 1000 : 0"
       inkscape:vp_z="10 : 5.5 : 1"
       inkscape:persp3d-origin="5 : 3.6666667 : 1"
       id="perspective16" />
  </defs>
  <sodipodi:namedview
     pagecolor="#ffffff"
     bordercolor="#666666"
     borderopacity="1"
     objecttolerance="10"
     gridtolerance="10"
     guidetolerance="10"
     inkscape:pageopacity="0"
     inkscape:pageshadow="2"
     inkscape:window-width="917"
     inkscape:window-height="792"
     id="namedview12"
     showgrid="true"
     inkscape:zoom="11.494966"
     inkscape:cx="16.366658"
     inkscape:cy="4.2042976"
     inkscape:window-x="313"
     inkscape:window-y="0"
     inkscape:window-maximized="0"
     inkscape:current-layer="svg2">
    <inkscape:grid
       type="xygrid"
       id="grid2822" />
  </sodipodi:namedview>
  <metadata
     id="metadata4">
Valerie Sutton's pixel definition of the
ISWA 2010 symbol ID 02-01-001-01-01-01
transformed by Stephen E Slevinski Jr
using line and fill polygon tracing
<rdf:RDF>
  <cc:Work
     rdf:about="">
    <dc:format>image/svg+xml</dc:format>
    <dc:type
       rdf:resource="http://purl.org/dc/dcmitype/StillImage" />
    <dc:title></dc:title>
  </cc:Work>
</rdf:RDF>
</metadata>
  <path
     style="fill:#000000;fill-opacity:1;stroke:none"
     d="M 10,1 C 6.6862912,1 3.9999997,3.686291 3.9999997,7 c 0,3.313709 2.6862915,6 6.0000003,6 3.313709,0 6,-2.686291 6,-6 0,-3.313709 -2.686291,-6 -6,-6 z m 0,2 c 2.209139,0 4,1.790861 4,4 0,2.209139 -1.790861,4 -4,4 C 7.790861,11 5.9999997,9.209139 5.9999997,7 5.9999997,4.790861 7.790861,3 10,3 z"
     id="path3379" />
  <path
     style="fill:#ffffff;fill-opacity:1;stroke:none"
     d="M 10,3 C 7.790861,3 5.9999997,4.790861 5.9999997,7 c 0,2.209139 1.7908613,4 4.0000003,4 2.209139,0 4,-1.790861 4,-4 0,-2.209139 -1.790861,-4 -4,-4 z m 0,2 c 1.10457,0 2,0.895431 2,2 0,1.10457 -0.89543,2 -2,2 C 8.895431,9 8,8.10457 8,7 8,5.895431 8.895431,5 10,5 z"
     id="path3384" />
  <path
     style="fill:#000000;fill-opacity:1;stroke:none"
     d="M 10,5 C 8.895431,5 8,5.895431 8,7 8,8.104569 8.895431,9 10,9 11.104569,9 12,8.104569 12,7 12,5.895431 11.104569,5 10,5 z"
     id="path3391" />
  <path
     style="fill:#000000;fill-opacity:1;stroke:none"
     d="M 6.3e-7,0 4.9e-7,15 2.0000004,14.999999 2,0 6.3e-7,0 z"
     id="rect3597" />
  <path
     style="fill:#000000;fill-opacity:1;stroke:none"
     d="M 18,0 18,14.999999 20,15 20,0 18,0 z"
     id="rect3599" />
  <path
     id="path3737"
     d="m 27.999999,1 c -3.313709,0 -6,2.686291 -6,6 0,3.313709 2.686291,6 6,6 3.313709,0 6,-2.686291 6,-6 0,-3.313709 -2.686291,-6 -6,-6 z m 0,2 c 2.209139,0 4,1.790861 4,4 0,2.209139 -1.790861,4 -4,4 -2.209139,0 -4,-1.790861 -4,-4 0,-2.209139 1.790861,-4 4,-4 z"
     style="fill:#000000;fill-opacity:1;stroke:none" />
  <path
     id="path3739"
     d="m 27.999999,3 c -2.209139,0 -4,1.790861 -4,4 0,2.209139 1.790861,4 4,4 2.209139,0 4,-1.790861 4,-4 0,-2.209139 -1.790861,-4 -4,-4 z m 0,2 c 1.10457,0 2,0.895431 2,2 0,1.10457 -0.89543,2 -2,2 -1.104569,0 -2,-0.89543 -2,-2 0,-1.104569 0.895431,-2 2,-2 z"
     style="fill:#ffffff;fill-opacity:1;stroke:none" />
  <path
     id="path3741"
     d="m 27.999999,5 c -1.104569,0 -2,0.895431 -2,2 0,1.104569 0.895431,2 2,2 1.104569,0 2,-0.895431 2,-2 0,-1.104569 -0.895431,-2 -2,-2 z"
     style="fill:#000000;fill-opacity:1;stroke:none" />
  <path
     id="path3743"
     d="M 36,1e-6 36,14.999999 38,15 38,0 36,1e-6 z"
     style="fill:#000000;fill-opacity:1;stroke:none" />
</svg>
