<?xml version="1.0" encoding="UTF-8" standalone="no"?>
<svg
   xmlns:dc="http://purl.org/dc/elements/1.1/"
   xmlns:cc="http://creativecommons.org/ns#"
   xmlns:rdf="http://www.w3.org/1999/02/22-rdf-syntax-ns#"
   xmlns:svg="http://www.w3.org/2000/svg"
   xmlns="http://www.w3.org/2000/svg"
   xmlns:sodipodi="http://sodipodi.sourceforge.net/DTD/sodipodi-0.dtd"
   xmlns:inkscape="http://www.inkscape.org/namespaces/inkscape"
   version="1.0"
   width="27"
   height="24"
   id="svg2"
   inkscape:version="0.47 r22583"
   sodipodi:docname="02-09-001-03-03-07.svg">
  <defs
     id="defs16">
    <inkscape:perspective
       sodipodi:type="inkscape:persp3d"
       inkscape:vp_x="0 : 23 : 1"
       inkscape:vp_y="0 : 1000 : 0"
       inkscape:vp_z="36 : 23 : 1"
       inkscape:persp3d-origin="18 : 15.333333 : 1"
       id="perspective18" />
  </defs>
  <sodipodi:namedview
     pagecolor="#ffffff"
     bordercolor="#666666"
     borderopacity="1"
     objecttolerance="10"
     gridtolerance="10"
     guidetolerance="10"
     inkscape:pageopacity="0"
     inkscape:pageshadow="2"
     inkscape:window-width="964"
     inkscape:window-height="721"
     id="namedview14"
     showgrid="true"
     inkscape:zoom="16.010846"
     inkscape:cx="13.504449"
     inkscape:cy="12.003955"
     inkscape:window-x="365"
     inkscape:window-y="0"
     inkscape:window-maximized="0"
     inkscape:current-layer="svg2"
     showborder="true">
    <inkscape:grid
       type="xygrid"
       id="grid2824"
       empspacing="5"
       visible="true"
       enabled="true"
       snapvisiblegridlinesonly="true" />
  </sodipodi:namedview>
  <metadata
     id="metadata4">
Valerie Sutton's pixel definition of the
ISWA 2010 symbol ID 04-01-003-01-01-01
transformed by Stephen E Slevinski Jr
using line and fill polygon tracing
<rdf:RDF>
  <cc:Work
     rdf:about="">
    <dc:format>image/svg+xml</dc:format>
    <dc:type
       rdf:resource="http://purl.org/dc/dcmitype/StillImage" />
    <dc:title></dc:title>
  </cc:Work>
</rdf:RDF>
</metadata>
  <path
     style="fill:#000000;fill-opacity:1;stroke:none"
     d="M 8 0 L 0 8 L 8 16 L 8 0 z M 7 2.4375 L 7 13.5625 L 1.40625 8 L 7 2.4375 z "
     id="path3467" />
  <path
     style="fill:#000000;fill-opacity:1;stroke:none"
     d="M 8 7 L 8 9 L 20 9 C 22.761424 9 25 11.238576 25 14 L 25 15 C 25 17.761424 22.761424 20 20 20 L 4 20 L 4 24 L 19 24 C 23.418278 24 27 20.418278 27 16 L 27 14 C 27 10.134007 23.865993 7 20 7 L 8 7 z "
     id="rect3469" />
  <path
     style="fill:#ffffff;fill-opacity:1;stroke:none"
     d="M 7 2.4375 L 1.40625 8 L 7 13.5625 L 7 2.4375 z "
     id="path4349" />
</svg>
