<?xml version="1.0" encoding="UTF-8" standalone="no"?>
<svg
   xmlns:dc="http://purl.org/dc/elements/1.1/"
   xmlns:cc="http://creativecommons.org/ns#"
   xmlns:rdf="http://www.w3.org/1999/02/22-rdf-syntax-ns#"
   xmlns:svg="http://www.w3.org/2000/svg"
   xmlns="http://www.w3.org/2000/svg"
   xmlns:sodipodi="http://sodipodi.sourceforge.net/DTD/sodipodi-0.dtd"
   xmlns:inkscape="http://www.inkscape.org/namespaces/inkscape"
   version="1.0"
   width="12"
   height="12"
   id="svg2"
   inkscape:version="0.47 r22583"
   sodipodi:docname="04-05-001-01-02-08.svg">
  <defs
     id="defs14">
    <inkscape:perspective
       sodipodi:type="inkscape:persp3d"
       inkscape:vp_x="0 : 17.5 : 1"
       inkscape:vp_y="0 : 1000 : 0"
       inkscape:vp_z="36 : 17.5 : 1"
       inkscape:persp3d-origin="18 : 11.666667 : 1"
       id="perspective16" />
  </defs>
  <sodipodi:namedview
     pagecolor="#ffffff"
     bordercolor="#666666"
     borderopacity="1"
     objecttolerance="10"
     gridtolerance="10"
     guidetolerance="10"
     inkscape:pageopacity="0"
     inkscape:pageshadow="2"
     inkscape:window-width="993"
     inkscape:window-height="789"
     id="namedview12"
     showgrid="true"
     inkscape:zoom="15.487127"
     inkscape:cx="7.6688392"
     inkscape:cy="-0.57953147"
     inkscape:window-x="209"
     inkscape:window-y="0"
     inkscape:window-maximized="0"
     inkscape:current-layer="svg2">
    <inkscape:grid
       type="xygrid"
       id="grid2822" />
  </sodipodi:namedview>
  <metadata
     id="metadata4">
Valerie Sutton's pixel definition of the
ISWA 2010 symbol ID 04-03-001-01-01-01
transformed by Stephen E Slevinski Jr
using line and fill polygon tracing
<rdf:RDF>
  <cc:Work
     rdf:about="">
    <dc:format>image/svg+xml</dc:format>
    <dc:type
       rdf:resource="http://purl.org/dc/dcmitype/StillImage" />
    <dc:title />
  </cc:Work>
</rdf:RDF>
</metadata>
  <rect
     style="fill:#000000;fill-opacity:1;stroke:none"
     id="rect2815"
     width="1.5"
     height="7"
     x="8.0888367"
     y="-0.06065068"
     transform="matrix(0.70710678,0.70710678,0.70710678,-0.70710678,0,0)" />
  <path
     style="fill:#000000;fill-opacity:1;stroke:none"
     d="m 5.5000029,1.9999909 c -2.7614237,0 -4.99999901,2.2385759 -4.99999889,4.9999996 -2.8e-7,2.7614242 2.23857529,4.9999995 4.99999879,5.0000005 2.7614237,-10e-7 5.0000002,-2.2385766 5.0000002,-5.0000004 0,-2.7614238 -2.2385764,-4.9999998 -5.0000001,-4.9999997 z m 0,0.9999999 c 2.2091389,10e-8 3.9999999,1.7908608 4,3.9999998 -10e-8,2.2091389 -1.7908611,4.0000004 -4,4.0000004 -2.2091389,-10e-7 -3.9999997,-1.7908615 -3.9999998,-4.0000004 1e-7,-2.209139 1.7908608,-3.9999997 3.9999998,-3.9999998 z"
     id="path2813" />
</svg>
