<?xml version="1.0" encoding="UTF-8" standalone="no"?>
<svg
   xmlns:dc="http://purl.org/dc/elements/1.1/"
   xmlns:cc="http://creativecommons.org/ns#"
   xmlns:rdf="http://www.w3.org/1999/02/22-rdf-syntax-ns#"
   xmlns:svg="http://www.w3.org/2000/svg"
   xmlns="http://www.w3.org/2000/svg"
   xmlns:sodipodi="http://sodipodi.sourceforge.net/DTD/sodipodi-0.dtd"
   xmlns:inkscape="http://www.inkscape.org/namespaces/inkscape"
   version="1.0"
   width="35"
   height="35"
   id="svg2"
   inkscape:version="0.47 r22583"
   sodipodi:docname="04-02-011-01-01-07.svg">
  <defs
     id="defs14">
    <inkscape:perspective
       sodipodi:type="inkscape:persp3d"
       inkscape:vp_x="0 : 3.5 : 1"
       inkscape:vp_y="0 : 1000 : 0"
       inkscape:vp_z="7 : 3.5 : 1"
       inkscape:persp3d-origin="3.5 : 2.3333333 : 1"
       id="perspective16" />
  </defs>
  <sodipodi:namedview
     pagecolor="#ffffff"
     bordercolor="#666666"
     borderopacity="1"
     objecttolerance="10"
     gridtolerance="10"
     guidetolerance="10"
     inkscape:pageopacity="0"
     inkscape:pageshadow="2"
     inkscape:window-width="928"
     inkscape:window-height="791"
     id="namedview12"
     showgrid="true"
     inkscape:zoom="15.040492"
     inkscape:cx="17.316898"
     inkscape:cy="17.659116"
     inkscape:window-x="273"
     inkscape:window-y="0"
     inkscape:window-maximized="0"
     inkscape:current-layer="svg2">
    <inkscape:grid
       type="xygrid"
       id="grid2822" />
  </sodipodi:namedview>
  <metadata
     id="metadata4">
Valerie Sutton's pixel definition of the
ISWA 2010 symbol ID 04-02-007-01-04-01
transformed by Stephen E Slevinski Jr
using line and fill polygon tracing
<rdf:RDF>
  <cc:Work
     rdf:about="">
    <dc:format>image/svg+xml</dc:format>
    <dc:type
       rdf:resource="http://purl.org/dc/dcmitype/StillImage" />
    <dc:title />
  </cc:Work>
</rdf:RDF>
</metadata>
  <path
     style="fill:#000000;fill-opacity:1;stroke:none"
     d="m 5,14 0,5 1,0 0,-4 4,0 0,-1 -5,0 z"
     id="path2841" />
  <path
     style="fill:#000000;fill-opacity:1;stroke:none"
     d="M 10,19 C 8.619288,19 7.373572,18.436072 6.46875,17.53125 l 0.6875,-0.6875 C 7.8801076,17.567608 8.895431,18 10,18 c 2.209139,0 4,-1.790861 4,-4 0,-2.209139 -1.790861,-4 -4,-4 -1.568031,0 -2.9067636,0.90509 -3.5625,2.21875 l -0.875,-0.4375 C 6.3849013,10.147036 8.045733,9 10,9 c 2.761424,0 5,2.238576 5,5 0,2.761424 -2.238576,5 -5,5 z"
     id="path2814" />
  <path
     style="fill:#000000;fill-opacity:1;stroke:none"
     d="M 10,17 C 9.171573,17 8.417893,16.667893 7.875,16.125 L 8.59375,15.40625 C 8.955679,15.768179 9.447715,16 10,16 c 1.10457,0 2,-0.89543 2,-2 0,-1.104569 -0.89543,-2 -2,-2 -0.779179,0 -1.451112,0.443504 -1.78125,1.09375 l -0.875,-0.4375 C 7.8389807,11.680952 8.831284,11 10,11 c 1.656854,0 3,1.343146 3,3 0,1.656854 -1.343146,3 -3,3 z"
     id="path2826" />
  <path
     id="path3020"
     d="m 20,14 0,5 1,0 0,-4 4,0 0,-1 -5,0 z"
     style="fill:#000000;fill-opacity:1;stroke:none" />
  <path
     id="path3022"
     d="m 25,19 c -1.380712,0 -2.626428,-0.563928 -3.53125,-1.46875 l 0.6875,-0.6875 C 22.880108,17.567608 23.89543,18 25,18 c 2.209139,0 4,-1.790861 4,-4 0,-2.209139 -1.790861,-4 -4,-4 -1.568031,0 -2.906764,0.90509 -3.5625,2.21875 l -0.875,-0.4375 C 21.384901,10.147036 23.045733,9 25,9 c 2.761424,0 5,2.238576 5,5 0,2.761424 -2.238576,5 -5,5 z"
     style="fill:#000000;fill-opacity:1;stroke:none" />
  <path
     id="path3024"
     d="m 25,17 c -0.828427,0 -1.582107,-0.332107 -2.125,-0.875 l 0.71875,-0.71875 C 23.955679,15.768179 24.447715,16 25,16 c 1.104569,0 2,-0.89543 2,-2 0,-1.104569 -0.895431,-2 -2,-2 -0.779179,0 -1.451112,0.443504 -1.78125,1.09375 l -0.875,-0.4375 C 22.838981,11.680952 23.831284,11 25,11 c 1.656854,0 3,1.343146 3,3 0,1.656854 -1.343146,3 -3,3 z"
     style="fill:#000000;fill-opacity:1;stroke:none" />
  <path
     style="fill:#000000;fill-opacity:1;stroke:none"
     d="M 17.5 0 C 7.8350169 4.7369516e-15 1.087327e-16 7.8350169 0 17.5 C 0 27.164983 7.8350169 35 17.5 35 C 27.164983 35 35 27.164983 35 17.5 C 35 7.8350169 27.164983 -3.443981e-15 17.5 0 z M 17.5 2 C 26.060414 2 33 8.9395864 33 17.5 C 33 26.060414 26.060414 33 17.5 33 C 8.9395864 33 2 26.060414 2 17.5 C 2 8.9395864 8.9395864 2 17.5 2 z "
     id="path3215" />
</svg>
