<?xml version="1.0" encoding="UTF-8" standalone="no"?>
<svg
   xmlns:dc="http://purl.org/dc/elements/1.1/"
   xmlns:cc="http://creativecommons.org/ns#"
   xmlns:rdf="http://www.w3.org/1999/02/22-rdf-syntax-ns#"
   xmlns:svg="http://www.w3.org/2000/svg"
   xmlns="http://www.w3.org/2000/svg"
   xmlns:sodipodi="http://sodipodi.sourceforge.net/DTD/sodipodi-0.dtd"
   xmlns:inkscape="http://www.inkscape.org/namespaces/inkscape"
   version="1.0"
   width="25"
   height="10"
   id="svg2"
   inkscape:version="0.47 r22583"
   sodipodi:docname="04-02-011-01-02-05.svg">
  <defs
     id="defs14">
    <inkscape:perspective
       sodipodi:type="inkscape:persp3d"
       inkscape:vp_x="0 : 3.5 : 1"
       inkscape:vp_y="0 : 1000 : 0"
       inkscape:vp_z="7 : 3.5 : 1"
       inkscape:persp3d-origin="3.5 : 2.3333333 : 1"
       id="perspective16" />
  </defs>
  <sodipodi:namedview
     pagecolor="#ffffff"
     bordercolor="#666666"
     borderopacity="1"
     objecttolerance="10"
     gridtolerance="10"
     guidetolerance="10"
     inkscape:pageopacity="0"
     inkscape:pageshadow="2"
     inkscape:window-width="928"
     inkscape:window-height="791"
     id="namedview12"
     showgrid="true"
     inkscape:zoom="22.8"
     inkscape:cx="12.055718"
     inkscape:cy="4.3621765"
     inkscape:window-x="273"
     inkscape:window-y="0"
     inkscape:window-maximized="0"
     inkscape:current-layer="svg2">
    <inkscape:grid
       type="xygrid"
       id="grid2822" />
  </sodipodi:namedview>
  <metadata
     id="metadata4">
Valerie Sutton's pixel definition of the
ISWA 2010 symbol ID 04-02-007-01-04-01
transformed by Stephen E Slevinski Jr
using line and fill polygon tracing
<rdf:RDF>
  <cc:Work
     rdf:about="">
    <dc:format>image/svg+xml</dc:format>
    <dc:type
       rdf:resource="http://purl.org/dc/dcmitype/StillImage" />
    <dc:title></dc:title>
  </cc:Work>
</rdf:RDF>
</metadata>
  <path
     style="fill:#000000;fill-opacity:1;stroke:none"
     d="M 10,5 10,10 9,10 9,6 5,6 5,5 10,5 z"
     id="path2841" />
  <path
     style="fill:#000000;fill-opacity:1;stroke:none"
     d="M 5,10 C 6.3807118,10 7.626428,9.436072 8.53125,8.53125 L 7.84375,7.84375 C 7.1198924,8.5676076 6.1045695,9 5,9 2.790861,9 1,7.209139 1,5 1,2.790861 2.790861,1 5,1 6.5680314,1 7.9067636,1.9050896 8.5625,3.21875 l 0.875,-0.4375 C 8.6150987,1.1470357 6.954267,0 5,0 2.2385763,0 0,2.2385763 0,5 c 0,2.7614237 2.2385763,5 5,5 z"
     id="path2814" />
  <path
     style="fill:#000000;fill-opacity:1;stroke:none"
     d="M 5,8 C 5.8284271,8 6.5821068,7.6678932 7.125,7.125 L 6.40625,6.40625 C 6.0443212,6.7681788 5.5522848,7 5,7 3.8954305,7 3,6.1045695 3,5 3,3.8954305 3.8954305,3 5,3 5.7791788,3 6.4511123,3.4435038 6.78125,4.09375 l 0.875,-0.4375 C 7.1610193,2.6809519 6.1687159,2 5,2 3.3431458,2 2,3.3431458 2,5 2,6.6568542 3.3431458,8 5,8 z"
     id="path2826" />
  <path
     id="path3020"
     d="m 25,5 0,5 -1,0 0,-4 -4,0 0,-1 5,0 z"
     style="fill:#000000;fill-opacity:1;stroke:none" />
  <path
     id="path3022"
     d="m 20,10 c 1.380712,0 2.626428,-0.563928 3.53125,-1.46875 l -0.6875,-0.6875 C 22.119892,8.567608 21.10457,9 20,9 17.790861,9 16,7.209139 16,5 c 0,-2.209139 1.790861,-4 4,-4 1.568031,0 2.906764,0.90509 3.5625,2.21875 l 0.875,-0.4375 C 23.615099,1.147036 21.954267,0 20,0 c -2.761424,0 -5,2.238576 -5,5 0,2.761424 2.238576,5 5,5 z"
     style="fill:#000000;fill-opacity:1;stroke:none" />
  <path
     id="path3024"
     d="m 20,8 c 0.828427,0 1.582107,-0.332107 2.125,-0.875 L 21.40625,6.40625 C 21.044321,6.768179 20.552285,7 20,7 18.895431,7 18,6.10457 18,5 c 0,-1.104569 0.895431,-2 2,-2 0.779179,0 1.451112,0.443504 1.78125,1.09375 l 0.875,-0.4375 C 22.161019,2.680952 21.168716,2 20,2 c -1.656854,0 -3,1.343146 -3,3 0,1.656854 1.343146,3 3,3 z"
     style="fill:#000000;fill-opacity:1;stroke:none" />
</svg>
