<?xml version="1.0" encoding="UTF-8" standalone="no"?>
<svg
   xmlns:dc="http://purl.org/dc/elements/1.1/"
   xmlns:cc="http://creativecommons.org/ns#"
   xmlns:rdf="http://www.w3.org/1999/02/22-rdf-syntax-ns#"
   xmlns:svg="http://www.w3.org/2000/svg"
   xmlns="http://www.w3.org/2000/svg"
   xmlns:sodipodi="http://sodipodi.sourceforge.net/DTD/sodipodi-0.dtd"
   xmlns:inkscape="http://www.inkscape.org/namespaces/inkscape"
   version="1.0"
   width="25"
   height="10"
   id="svg2"
   inkscape:version="0.47 r22583"
   sodipodi:docname="04-02-011-01-02-03.svg">
  <defs
     id="defs14">
    <inkscape:perspective
       sodipodi:type="inkscape:persp3d"
       inkscape:vp_x="0 : 3.5 : 1"
       inkscape:vp_y="0 : 1000 : 0"
       inkscape:vp_z="7 : 3.5 : 1"
       inkscape:persp3d-origin="3.5 : 2.3333333 : 1"
       id="perspective16" />
  </defs>
  <sodipodi:namedview
     pagecolor="#ffffff"
     bordercolor="#666666"
     borderopacity="1"
     objecttolerance="10"
     gridtolerance="10"
     guidetolerance="10"
     inkscape:pageopacity="0"
     inkscape:pageshadow="2"
     inkscape:window-width="928"
     inkscape:window-height="791"
     id="namedview12"
     showgrid="true"
     inkscape:zoom="22.8"
     inkscape:cx="12.055718"
     inkscape:cy="4.3621765"
     inkscape:window-x="273"
     inkscape:window-y="0"
     inkscape:window-maximized="0"
     inkscape:current-layer="svg2">
    <inkscape:grid
       type="xygrid"
       id="grid2822" />
  </sodipodi:namedview>
  <metadata
     id="metadata4">
Valerie Sutton's pixel definition of the
ISWA 2010 symbol ID 04-02-007-01-04-01
transformed by Stephen E Slevinski Jr
using line and fill polygon tracing
<rdf:RDF>
  <cc:Work
     rdf:about="">
    <dc:format>image/svg+xml</dc:format>
    <dc:type
       rdf:resource="http://purl.org/dc/dcmitype/StillImage" />
    <dc:title></dc:title>
  </cc:Work>
</rdf:RDF>
</metadata>
  <path
     style="fill:#000000;fill-opacity:1;stroke:none"
     d="M 0,5 0,10 1,10 1,6 5,6 5,5 0,5 z"
     id="path2841" />
  <path
     style="fill:#000000;fill-opacity:1;stroke:none"
     d="M 5,10 C 3.6192882,10 2.373572,9.436072 1.46875,8.53125 l 0.6875,-0.6875 C 2.8801076,8.5676076 3.8954305,9 5,9 7.209139,9 9,7.209139 9,5 9,2.790861 7.209139,1 5,1 3.4319686,1 2.0932364,1.9050896 1.4375,3.21875 L 0.5625,2.78125 C 1.3849013,1.1470357 3.045733,0 5,0 c 2.7614237,0 5,2.2385763 5,5 0,2.7614237 -2.2385763,5 -5,5 z"
     id="path2814" />
  <path
     style="fill:#000000;fill-opacity:1;stroke:none"
     d="M 5,8 C 4.1715729,8 3.4178932,7.6678932 2.875,7.125 L 3.59375,6.40625 C 3.9556788,6.7681788 4.4477152,7 5,7 6.1045695,7 7,6.1045695 7,5 7,3.8954305 6.1045695,3 5,3 4.2208212,3 3.5488877,3.4435038 3.21875,4.09375 l -0.875,-0.4375 C 2.8389807,2.6809519 3.8312841,2 5,2 6.6568542,2 8,3.3431458 8,5 8,6.6568542 6.6568542,8 5,8 z"
     id="path2826" />
  <path
     id="path3020"
     d="m 15,5 0,5 1,0 0,-4 4,0 0,-1 -5,0 z"
     style="fill:#000000;fill-opacity:1;stroke:none" />
  <path
     id="path3022"
     d="M 20,10 C 18.619288,10 17.373572,9.436072 16.46875,8.53125 l 0.6875,-0.6875 C 17.880108,8.567608 18.89543,9 20,9 22.209139,9 24,7.209139 24,5 24,2.790861 22.209139,1 20,1 18.431969,1 17.093236,1.90509 16.4375,3.21875 l -0.875,-0.4375 C 16.384901,1.147036 18.045733,0 20,0 c 2.761424,0 5,2.238576 5,5 0,2.761424 -2.238576,5 -5,5 z"
     style="fill:#000000;fill-opacity:1;stroke:none" />
  <path
     id="path3024"
     d="M 20,8 C 19.171573,8 18.417893,7.667893 17.875,7.125 L 18.59375,6.40625 C 18.955679,6.768179 19.447715,7 20,7 21.104569,7 22,6.10457 22,5 22,3.895431 21.104569,3 20,3 19.220821,3 18.548888,3.443504 18.21875,4.09375 l -0.875,-0.4375 C 17.838981,2.680952 18.831284,2 20,2 c 1.656854,0 3,1.343146 3,3 0,1.656854 -1.343146,3 -3,3 z"
     style="fill:#000000;fill-opacity:1;stroke:none" />
</svg>
