<?xml version="1.0" encoding="UTF-8" standalone="no"?>
<svg
   xmlns:dc="http://purl.org/dc/elements/1.1/"
   xmlns:cc="http://creativecommons.org/ns#"
   xmlns:rdf="http://www.w3.org/1999/02/22-rdf-syntax-ns#"
   xmlns:svg="http://www.w3.org/2000/svg"
   xmlns="http://www.w3.org/2000/svg"
   xmlns:sodipodi="http://sodipodi.sourceforge.net/DTD/sodipodi-0.dtd"
   xmlns:inkscape="http://www.inkscape.org/namespaces/inkscape"
   version="1.0"
   width="36"
   height="32"
   id="svg2"
   inkscape:version="0.47 r22583"
   sodipodi:docname="06-01-002-01-02-04.svg">
  <defs
     id="defs14">
    <inkscape:perspective
       sodipodi:type="inkscape:persp3d"
       inkscape:vp_x="0 : 5.5 : 1"
       inkscape:vp_y="0 : 1000 : 0"
       inkscape:vp_z="10 : 5.5 : 1"
       inkscape:persp3d-origin="5 : 3.6666667 : 1"
       id="perspective16" />
  </defs>
  <sodipodi:namedview
     pagecolor="#ffffff"
     bordercolor="#666666"
     borderopacity="1"
     objecttolerance="10"
     gridtolerance="10"
     guidetolerance="10"
     inkscape:pageopacity="0"
     inkscape:pageshadow="2"
     inkscape:window-width="917"
     inkscape:window-height="792"
     id="namedview12"
     showgrid="true"
     inkscape:zoom="17"
     inkscape:cx="18"
     inkscape:cy="16"
     inkscape:window-x="313"
     inkscape:window-y="0"
     inkscape:window-maximized="0"
     inkscape:current-layer="svg2"
     showborder="true"
     inkscape:showpageshadow="true"
     inkscape:snap-center="false">
    <inkscape:grid
       type="xygrid"
       id="grid2822"
       empspacing="5"
       visible="true"
       enabled="true"
       snapvisiblegridlinesonly="true" />
  </sodipodi:namedview>
  <metadata
     id="metadata4">
Valerie Sutton's pixel definition of the
ISWA 2010 symbol ID 02-01-001-01-01-01
transformed by Stephen E Slevinski Jr
using line and fill polygon tracing
<rdf:RDF>
  <cc:Work
     rdf:about="">
    <dc:format>image/svg+xml</dc:format>
    <dc:type
       rdf:resource="http://purl.org/dc/dcmitype/StillImage" />
    <dc:title></dc:title>
  </cc:Work>
</rdf:RDF>
</metadata>
  <path
     style="fill:#ffffff;fill-opacity:1;stroke:none"
     d="m 0,19 36,0 0,4 -36,0 0,-4 z"
     id="rect3180" />
  <path
     style="fill:#ffffff;fill-opacity:1;stroke:none"
     d="M 14,0 14,1.875 7,14 15,27.84375 15,28.6875 C 14.003767,28.130134 13.127809,27 12,27 l -1,0 c -1.490712,0 -2.509288,2 -4,2 l -3,0 0,3 1,0 0,-2 2,0 c 1.490712,0 2.509288,-2 4,-2 l 1,0 c 1.490712,0 2.509288,2 4,2 L 16,29 16,27.84375 8,14 15,1.875 15,0 14,0 z M 34,0 34,4 16.0625,4 10.28125,14 18,27.34375 18,32 19,32 19,27.34375 11.28125,14 16.5,5 35,5 35,0 34,0 z M 11,30 c -1.490712,0 -2.509288,2 -4,2 l 2,0 c 0.627322,-0.5 1.254644,-1 2,-1 l 1,0 c 0.745356,0 1.372678,0.5 2,1 l 2,0 c -1.490712,0 -2.509288,-2 -4,-2 l -1,0 z"
     id="rect3078" />
  <path
     style="fill:#000000;fill-opacity:1;stroke:none"
     d="M 15 0 L 15 1.875 L 8 14 L 16 27.84375 L 16 30 C 14.509288 30 13.490712 28 12 28 L 11 28 C 9.509288 28 8.490712 30 7 30 L 5 30 L 5 32 L 7 32 C 8.490712 32 9.509288 30 11 30 L 12 30 C 13.490712 30 14.509288 32 16 32 L 18 32 L 18 27.34375 L 10.28125 14 L 16.0625 4 L 34 4 L 34 0 L 15 0 z "
     id="rect3032" />
  <path
     style="fill:#000000;fill-opacity:1;stroke:none"
     d="m 0,20 36,0 0,2 -36,0 0,-2 z"
     id="rect3182" />
</svg>
