<?xml version="1.0" encoding="UTF-8" standalone="no"?>
<svg
   xmlns:dc="http://purl.org/dc/elements/1.1/"
   xmlns:cc="http://creativecommons.org/ns#"
   xmlns:rdf="http://www.w3.org/1999/02/22-rdf-syntax-ns#"
   xmlns:svg="http://www.w3.org/2000/svg"
   xmlns="http://www.w3.org/2000/svg"
   xmlns:sodipodi="http://sodipodi.sourceforge.net/DTD/sodipodi-0.dtd"
   xmlns:inkscape="http://www.inkscape.org/namespaces/inkscape"
   version="1.0"
   width="43"
   height="39"
   id="svg2"
   inkscape:version="0.47 r22583"
   sodipodi:docname="06-01-002-01-01-06.svg">
  <defs
     id="defs14">
    <inkscape:perspective
       sodipodi:type="inkscape:persp3d"
       inkscape:vp_x="0 : 5.5 : 1"
       inkscape:vp_y="0 : 1000 : 0"
       inkscape:vp_z="10 : 5.5 : 1"
       inkscape:persp3d-origin="5 : 3.6666667 : 1"
       id="perspective16" />
  </defs>
  <sodipodi:namedview
     pagecolor="#ffffff"
     bordercolor="#666666"
     borderopacity="1"
     objecttolerance="10"
     gridtolerance="10"
     guidetolerance="10"
     inkscape:pageopacity="0"
     inkscape:pageshadow="2"
     inkscape:window-width="917"
     inkscape:window-height="792"
     id="namedview12"
     showgrid="true"
     inkscape:zoom="13.948718"
     inkscape:cx="21.5"
     inkscape:cy="19.5"
     inkscape:window-x="313"
     inkscape:window-y="0"
     inkscape:window-maximized="0"
     inkscape:current-layer="svg2"
     showborder="true"
     inkscape:showpageshadow="true"
     inkscape:snap-center="false">
    <inkscape:grid
       type="xygrid"
       id="grid2822"
       empspacing="5"
       visible="true"
       enabled="true"
       snapvisiblegridlinesonly="true" />
  </sodipodi:namedview>
  <metadata
     id="metadata4">
Valerie Sutton's pixel definition of the
ISWA 2010 symbol ID 02-01-001-01-01-01
transformed by Stephen E Slevinski Jr
using line and fill polygon tracing
<rdf:RDF>
  <cc:Work
     rdf:about="">
    <dc:format>image/svg+xml</dc:format>
    <dc:type
       rdf:resource="http://purl.org/dc/dcmitype/StillImage" />
    <dc:title></dc:title>
  </cc:Work>
</rdf:RDF>
</metadata>
  <path
     style="fill:#000000;fill-opacity:1;stroke:none"
     d="M 21.5 0 C 16.80558 0 13 3.8055796 13 8.5 C 13 11.947465 15.050435 14.916435 18 16.25 L 18 19 L 15 19 C 11.134007 19 8 22.134007 8 26 L 8 39 L 10 39 L 10 26 C 10 23.238576 12.238576 21 15 21 L 28 21 C 30.761424 21 33 23.238576 33 26 L 33 39 L 35 39 L 35 26 C 35 22.134007 31.865993 19 28 19 L 25 19 L 25 16.25 C 27.949565 14.916435 30 11.947465 30 8.5 C 30 3.8055796 26.19442 -1.7763568e-15 21.5 0 z M 14 26 L 14 39 L 17 39 L 17 26 L 14 26 z M 26 26 L 26 39 L 29 39 L 29 26 L 26 26 z "
     id="path2968" />
  <path
     style="fill:#000000;fill-opacity:1;stroke:none"
     d="M 0 3 L 0 5 L 11.59375 5 C 11.843302 4.2936047 12.175239 3.6278574 12.5625 3 L 0 3 z M 30.4375 3 C 30.824761 3.6278574 31.156698 4.2936047 31.40625 5 L 43 5 L 43 3 L 30.4375 3 z "
     id="rect3008" />
</svg>
