<?xml version="1.0" encoding="UTF-8" standalone="no"?>
<!-- Created with Inkscape (http://www.inkscape.org/) -->

<svg
   xmlns:dc="http://purl.org/dc/elements/1.1/"
   xmlns:cc="http://creativecommons.org/ns#"
   xmlns:rdf="http://www.w3.org/1999/02/22-rdf-syntax-ns#"
   xmlns:svg="http://www.w3.org/2000/svg"
   xmlns="http://www.w3.org/2000/svg"
   xmlns:sodipodi="http://sodipodi.sourceforge.net/DTD/sodipodi-0.dtd"
   xmlns:inkscape="http://www.inkscape.org/namespaces/inkscape"
   width="18"
   height="30"
   id="svg3198"
   sodipodi:version="0.32"
   inkscape:version="0.47 r22583"
   version="1.0"
   sodipodi:docname="01-03-019-01-04.svg"
   inkscape:output_extension="org.inkscape.output.svg.inkscape">
  <defs
     id="defs3200">
    <inkscape:perspective
       sodipodi:type="inkscape:persp3d"
       inkscape:vp_x="0 : 526.18109 : 1"
       inkscape:vp_y="0 : 1000 : 0"
       inkscape:vp_z="744.09448 : 526.18109 : 1"
       inkscape:persp3d-origin="372.04724 : 350.78739 : 1"
       id="perspective3206" />
    <inkscape:perspective
       id="perspective2826"
       inkscape:persp3d-origin="0.5 : 0.33333333 : 1"
       inkscape:vp_z="1 : 0.5 : 1"
       inkscape:vp_y="0 : 1000 : 0"
       inkscape:vp_x="0 : 0.5 : 1"
       sodipodi:type="inkscape:persp3d" />
    <inkscape:perspective
       id="perspective2900"
       inkscape:persp3d-origin="0.5 : 0.33333333 : 1"
       inkscape:vp_z="1 : 0.5 : 1"
       inkscape:vp_y="0 : 1000 : 0"
       inkscape:vp_x="0 : 0.5 : 1"
       sodipodi:type="inkscape:persp3d" />
  </defs>
  <sodipodi:namedview
     id="namedview3727"
     pagecolor="#ffffff"
     bordercolor="#666666"
     borderopacity="1.0"
     gridtolerance="10000"
     guidetolerance="10"
     objecttolerance="10"
     inkscape:pageopacity="0.0"
     inkscape:pageshadow="2"
     inkscape:zoom="21.216033"
     inkscape:cx="9.9000214"
     inkscape:cy="14.927541"
     inkscape:document-units="px"
     inkscape:current-layer=""
     showgrid="true"
     inkscape:window-width="1260"
     inkscape:window-height="928"
     inkscape:window-x="20"
     inkscape:window-y="20"
     inkscape:window-maximized="0"
     showguides="true"
     inkscape:guide-bbox="true"
     inkscape:snap-global="true">
    <inkscape:grid
       type="xygrid"
       id="grid3208"
       visible="true"
       enabled="true" />
  </sodipodi:namedview>
  <metadata
     id="metadata3203">
    <rdf:RDF>
      <cc:Work
         rdf:about="">
        <dc:format>image/svg+xml</dc:format>
        <dc:type
           rdf:resource="http://purl.org/dc/dcmitype/StillImage" />
        <dc:title />
      </cc:Work>
    </rdf:RDF>
  </metadata>
  <g
     inkscape:label="Layer 1"
     inkscape:groupmode="layer"
     id="">
    <rect
       style="fill:#000000;fill-opacity:1;stroke:none"
       id="base"
       width="15"
       height="13"
       x="0"
       y="17" />
    <rect
       style="fill:#ffffff;fill-opacity:1;stroke:none"
       id="fill"
       width="11"
       height="9"
       x="2"
       y="19" />
    <path
       style="fill:#000000;fill-opacity:1;stroke:none"
       d="m 13,15 2,0 0,-15 -2,0 0,15 z"
       id="index"
       sodipodi:nodetypes="ccccc" />
    <path
       style="fill:#000000;fill-opacity:1;stroke:none"
       d="m 5,6 0,5 2,0 0,-3 2,0 0,7 2,0 0,-9 -6,0 z"
       id="middle"
       sodipodi:nodetypes="ccccccccc" />
    <g
       id="thumb">
      <path
         style="fill:#ffffff;fill-opacity:1;stroke:none"
         d="m 9,13 0,1 1,1 1,0 -2,-2 z M 8.1875,17 15,23.8125 l 0,-1 L 9.1875,17 l -1,0 z M 12,17 l 3,3 0,-1 -2,-2 -1,0 z"
         id="overcast" />
      <path
         style="fill:#000000;fill-opacity:1;stroke:none"
         d="M 6,11 4.59375,12.40625 7.1875,15 10,15 6,11 z M 9.1875,17 15,22.8125 C 16.01486,23.994181 16,25 16,25 c 0,1.144901 -0.983769,1.140706 -1,1.15625 L 15,28 c 3,0 3,-3 3,-3 0,-2.461481 -3,-5 -3,-5 l -3,-3 -2.8125,0 z"
         id="caster" />
    </g>
  </g>
</svg>
