<?xml version="1.0" encoding="UTF-8" standalone="no"?>
<svg
   xmlns:dc="http://purl.org/dc/elements/1.1/"
   xmlns:cc="http://creativecommons.org/ns#"
   xmlns:rdf="http://www.w3.org/1999/02/22-rdf-syntax-ns#"
   xmlns:svg="http://www.w3.org/2000/svg"
   xmlns="http://www.w3.org/2000/svg"
   xmlns:sodipodi="http://sodipodi.sourceforge.net/DTD/sodipodi-0.dtd"
   xmlns:inkscape="http://www.inkscape.org/namespaces/inkscape"
   version="1.0"
   width="27"
   height="48"
   id="svg2"
   inkscape:version="0.47 r22583"
   sodipodi:docname="06-01-006-01-04-06.svg">
  <defs
     id="defs14">
    <inkscape:perspective
       sodipodi:type="inkscape:persp3d"
       inkscape:vp_x="0 : 5.5 : 1"
       inkscape:vp_y="0 : 1000 : 0"
       inkscape:vp_z="10 : 5.5 : 1"
       inkscape:persp3d-origin="5 : 3.6666667 : 1"
       id="perspective16" />
  </defs>
  <sodipodi:namedview
     pagecolor="#ffffff"
     bordercolor="#666666"
     borderopacity="1"
     objecttolerance="10"
     gridtolerance="10"
     guidetolerance="10"
     inkscape:pageopacity="0"
     inkscape:pageshadow="2"
     inkscape:window-width="917"
     inkscape:window-height="792"
     id="namedview12"
     showgrid="true"
     inkscape:zoom="11.333333"
     inkscape:cx="13.5"
     inkscape:cy="24"
     inkscape:window-x="313"
     inkscape:window-y="0"
     inkscape:window-maximized="0"
     inkscape:current-layer="svg2"
     showborder="true"
     inkscape:showpageshadow="true"
     inkscape:snap-center="false">
    <inkscape:grid
       type="xygrid"
       id="grid2822"
       empspacing="5"
       visible="true"
       enabled="true"
       snapvisiblegridlinesonly="true" />
  </sodipodi:namedview>
  <metadata
     id="metadata4">
Valerie Sutton's pixel definition of the
ISWA 2010 symbol ID 02-01-001-01-01-01
transformed by Stephen E Slevinski Jr
using line and fill polygon tracing
<rdf:RDF>
  <cc:Work
     rdf:about="">
    <dc:format>image/svg+xml</dc:format>
    <dc:type
       rdf:resource="http://purl.org/dc/dcmitype/StillImage" />
    <dc:title></dc:title>
  </cc:Work>
</rdf:RDF>
</metadata>
  <path
     style="fill:#000000;fill-opacity:1;stroke:none"
     d="M 13.5 0 C 8.80558 0 5 3.8055796 5 8.5 C 5 11.947465 7.050435 14.916435 10 16.25 L 10 19 L 7 19 C 3.134007 19 0 22.134007 0 26 L 0 48 L 2 48 L 2 26 C 2 23.238576 4.238576 21 7 21 L 20 21 C 22.761424 21 25 23.238576 25 26 L 25 48 L 27 48 L 27 26 C 27 22.134007 23.865993 19 20 19 L 17 19 L 17 16.25 C 19.949565 14.916435 22 11.947465 22 8.5 C 22 3.8055796 18.19442 0 13.5 0 z M 6 24 L 6 41 L 8.21875 41 C 8.0815152 40.519327 8 40.024727 8 39.5 C 8 38.321147 8.3685591 37.239039 9 36.34375 L 9 24 L 6 24 z M 18 24 L 18 36.34375 C 18.631441 37.239039 19 38.321147 19 39.5 C 19 40.024727 18.918485 40.519327 18.78125 41 L 21 41 L 21 24 L 18 24 z M 4 44 L 4 48 L 23 48 L 23 44 L 16.65625 44 C 15.760961 44.631441 14.678853 45 13.5 45 C 12.321147 45 11.239039 44.631441 10.34375 44 L 4 44 z "
     id="path2968" />
  <path
     style="fill:#000000;fill-opacity:1;stroke:none"
     d="M 13.5,35 C 15.985281,35 18,37.014719 18,39.5 18,41.985281 15.985281,44 13.5,44 11.014719,44 9,41.985281 9,39.5 9,37.014719 11.014719,35 13.5,35 z"
     id="path2818" />
</svg>
