<?xml version="1.0" encoding="UTF-8" standalone="no"?>
<svg
   xmlns:dc="http://purl.org/dc/elements/1.1/"
   xmlns:cc="http://creativecommons.org/ns#"
   xmlns:rdf="http://www.w3.org/1999/02/22-rdf-syntax-ns#"
   xmlns:svg="http://www.w3.org/2000/svg"
   xmlns="http://www.w3.org/2000/svg"
   xmlns:sodipodi="http://sodipodi.sourceforge.net/DTD/sodipodi-0.dtd"
   xmlns:inkscape="http://www.inkscape.org/namespaces/inkscape"
   version="1.0"
   width="27"
   height="48"
   id="svg2"
   inkscape:version="0.47 r22583"
   sodipodi:docname="06-01-006-01-02-08.svg">
  <defs
     id="defs14">
    <inkscape:perspective
       sodipodi:type="inkscape:persp3d"
       inkscape:vp_x="0 : 5.5 : 1"
       inkscape:vp_y="0 : 1000 : 0"
       inkscape:vp_z="10 : 5.5 : 1"
       inkscape:persp3d-origin="5 : 3.6666667 : 1"
       id="perspective16" />
  </defs>
  <sodipodi:namedview
     pagecolor="#ffffff"
     bordercolor="#666666"
     borderopacity="1"
     objecttolerance="10"
     gridtolerance="10"
     guidetolerance="10"
     inkscape:pageopacity="0"
     inkscape:pageshadow="2"
     inkscape:window-width="917"
     inkscape:window-height="792"
     id="namedview12"
     showgrid="true"
     inkscape:zoom="11.333333"
     inkscape:cx="13.5"
     inkscape:cy="24"
     inkscape:window-x="313"
     inkscape:window-y="0"
     inkscape:window-maximized="0"
     inkscape:current-layer="svg2"
     showborder="true"
     inkscape:showpageshadow="true"
     inkscape:snap-center="false">
    <inkscape:grid
       type="xygrid"
       id="grid2822"
       empspacing="5"
       visible="true"
       enabled="true"
       snapvisiblegridlinesonly="true" />
  </sodipodi:namedview>
  <metadata
     id="metadata4">
Valerie Sutton's pixel definition of the
ISWA 2010 symbol ID 02-01-001-01-01-01
transformed by Stephen E Slevinski Jr
using line and fill polygon tracing
<rdf:RDF>
  <cc:Work
     rdf:about="">
    <dc:format>image/svg+xml</dc:format>
    <dc:type
       rdf:resource="http://purl.org/dc/dcmitype/StillImage" />
    <dc:title></dc:title>
  </cc:Work>
</rdf:RDF>
</metadata>
  <path
     style="fill:#000000;fill-opacity:1;stroke:none"
     d="M 13.5 0 C 8.80558 0 5 3.8055796 5 8.5 C 5 11.947465 7.050435 14.916435 10 16.25 L 10 19 L 7 19 C 3.134007 19 0 22.134007 0 26 L 0 48 L 2 48 L 2 26 C 2 23.238576 4.238576 21 7 21 L 20 21 C 22.761424 21 25 23.238576 25 26 L 25 48 L 27 48 L 27 26 C 27 22.134007 23.865993 19 20 19 L 17 19 L 17 16.25 C 19.949565 14.916435 22 11.947465 22 8.5 C 22 3.8055796 18.19442 0 13.5 0 z M 6 24 L 6 41 L 9 41 L 9 24 L 6 24 z M 18 24 L 18 27.21875 C 18.480673 27.081515 18.975273 27 19.5 27 C 20.023669 27 20.519924 27.080895 21 27.21875 L 21 24 L 18 24 z M 18 37.78125 L 18 41 L 21 41 L 21 37.78125 C 20.519924 37.919105 20.023669 38 19.5 38 C 18.975273 38 18.480673 37.918485 18 37.78125 z M 4 44 L 4 48 L 23 48 L 23 44 L 4 44 z "
     id="path2968" />
  <path
     style="fill:#000000;fill-opacity:1;stroke:none"
     d="M 19.5,28 C 21.985281,28 24,30.014719 24,32.5 24,34.985281 21.985281,37 19.5,37 17.014719,37 15,34.985281 15,32.5 15,30.014719 17.014719,28 19.5,28 z m 0,1.5 c -1.656854,0 -3,1.343146 -3,3 0,1.656854 1.343146,3 3,3 1.656854,0 3,-1.343146 3,-3 0,-1.656854 -1.343146,-3 -3,-3 z"
     id="path2818" />
  <path
     style="fill:#ffffff;fill-opacity:1;stroke:none"
     d="m 19.5,29.5 c 1.656854,0 3,1.343146 3,3 0,1.656854 -1.343146,3 -3,3 -1.656854,0 -3,-1.343146 -3,-3 0,-1.656854 1.343146,-3 3,-3 z"
     id="path2820" />
</svg>
