<?xml version="1.0" encoding="UTF-8" standalone="no"?>
<svg
   xmlns:dc="http://purl.org/dc/elements/1.1/"
   xmlns:cc="http://creativecommons.org/ns#"
   xmlns:rdf="http://www.w3.org/1999/02/22-rdf-syntax-ns#"
   xmlns:svg="http://www.w3.org/2000/svg"
   xmlns="http://www.w3.org/2000/svg"
   xmlns:sodipodi="http://sodipodi.sourceforge.net/DTD/sodipodi-0.dtd"
   xmlns:inkscape="http://www.inkscape.org/namespaces/inkscape"
   version="1.0"
   width="34"
   height="48"
   id="svg2"
   inkscape:version="0.47 r22583"
   sodipodi:docname="06-01-006-01-01-03.svg">
  <defs
     id="defs14">
    <inkscape:perspective
       sodipodi:type="inkscape:persp3d"
       inkscape:vp_x="0 : 5.5 : 1"
       inkscape:vp_y="0 : 1000 : 0"
       inkscape:vp_z="10 : 5.5 : 1"
       inkscape:persp3d-origin="5 : 3.6666667 : 1"
       id="perspective16" />
  </defs>
  <sodipodi:namedview
     pagecolor="#ffffff"
     bordercolor="#666666"
     borderopacity="1"
     objecttolerance="10"
     gridtolerance="10"
     guidetolerance="10"
     inkscape:pageopacity="0"
     inkscape:pageshadow="2"
     inkscape:window-width="917"
     inkscape:window-height="792"
     id="namedview12"
     showgrid="true"
     inkscape:zoom="11.333333"
     inkscape:cx="17"
     inkscape:cy="24"
     inkscape:window-x="313"
     inkscape:window-y="0"
     inkscape:window-maximized="0"
     inkscape:current-layer="svg2"
     showborder="true"
     inkscape:showpageshadow="true"
     inkscape:snap-center="false">
    <inkscape:grid
       type="xygrid"
       id="grid2822"
       empspacing="5"
       visible="true"
       enabled="true"
       snapvisiblegridlinesonly="true" />
  </sodipodi:namedview>
  <metadata
     id="metadata4">
Valerie Sutton's pixel definition of the
ISWA 2010 symbol ID 02-01-001-01-01-01
transformed by Stephen E Slevinski Jr
using line and fill polygon tracing
<rdf:RDF>
  <cc:Work
     rdf:about="">
    <dc:format>image/svg+xml</dc:format>
    <dc:type
       rdf:resource="http://purl.org/dc/dcmitype/StillImage" />
    <dc:title />
  </cc:Work>
</rdf:RDF>
</metadata>
  <path
     style="fill:#000000;fill-opacity:1;stroke:none"
     d="M 20.5 0 C 15.80558 0 12 3.8055796 12 8.5 C 12 11.947465 14.050435 14.916435 17 16.25 L 17 19 L 14 19 C 10.134007 19 7 22.134007 7 26 L 7 48 L 9 48 L 9 26 C 9 23.238576 11.238576 21 14 21 L 27 21 C 29.761424 21 32 23.238576 32 26 L 32 48 L 34 48 L 34 26 C 34 22.134007 30.865993 19 27 19 L 24 19 L 24 16.25 C 26.949565 14.916435 29 11.947465 29 8.5 C 29 3.8055796 25.19442 0 20.5 0 z M 13 26 L 13 41 L 16 41 L 16 26 L 13 26 z M 25 26 L 25 41 L 28 41 L 28 26 L 25 26 z M 11 44 L 11 48 L 30 48 L 30 44 L 11 44 z "
     id="path2968" />
  <path
     style="fill:#000000;fill-opacity:1;stroke:none"
     d="M 5,16 5,29 4,29 4,27 C 1.790861,27 0,24.985281 0,22.5 0,20.014719 1.790861,18 4,18 l 0,-2 1,0 z m -1,3.5 c -1.380712,0 -2.5,1.343146 -2.5,3 0,1.656854 1.119288,3 2.5,3 l 0,-6 z"
     id="rect3011" />
  <path
     style="fill:#ffffff;fill-opacity:1;stroke:none"
     d="m 4,19.5 0,6 c -1.380712,0 -2.5,-1.343146 -2.5,-3 0,-1.656854 1.119288,-3 2.5,-3 z"
     id="path3018" />
</svg>
