<?xml version="1.0" encoding="UTF-8" standalone="no"?>
<svg
   xmlns:dc="http://purl.org/dc/elements/1.1/"
   xmlns:cc="http://creativecommons.org/ns#"
   xmlns:rdf="http://www.w3.org/1999/02/22-rdf-syntax-ns#"
   xmlns:svg="http://www.w3.org/2000/svg"
   xmlns="http://www.w3.org/2000/svg"
   xmlns:sodipodi="http://sodipodi.sourceforge.net/DTD/sodipodi-0.dtd"
   xmlns:inkscape="http://www.inkscape.org/namespaces/inkscape"
   version="1.0"
   width="27"
   height="50"
   id="svg2"
   inkscape:version="0.47 r22583"
   sodipodi:docname="06-01-006-01-05-04.svg">
  <defs
     id="defs14">
    <inkscape:perspective
       sodipodi:type="inkscape:persp3d"
       inkscape:vp_x="0 : 5.5 : 1"
       inkscape:vp_y="0 : 1000 : 0"
       inkscape:vp_z="10 : 5.5 : 1"
       inkscape:persp3d-origin="5 : 3.6666667 : 1"
       id="perspective16" />
  </defs>
  <sodipodi:namedview
     pagecolor="#ffffff"
     bordercolor="#666666"
     borderopacity="1"
     objecttolerance="10"
     gridtolerance="10"
     guidetolerance="10"
     inkscape:pageopacity="0"
     inkscape:pageshadow="2"
     inkscape:window-width="917"
     inkscape:window-height="792"
     id="namedview12"
     showgrid="true"
     inkscape:zoom="10.88"
     inkscape:cx="13.5"
     inkscape:cy="25"
     inkscape:window-x="313"
     inkscape:window-y="0"
     inkscape:window-maximized="0"
     inkscape:current-layer="svg2"
     showborder="true"
     inkscape:showpageshadow="true"
     inkscape:snap-center="false">
    <inkscape:grid
       type="xygrid"
       id="grid2822"
       empspacing="5"
       visible="true"
       enabled="true"
       snapvisiblegridlinesonly="true" />
  </sodipodi:namedview>
  <metadata
     id="metadata4">
Valerie Sutton's pixel definition of the
ISWA 2010 symbol ID 02-01-001-01-01-01
transformed by Stephen E Slevinski Jr
using line and fill polygon tracing
<rdf:RDF>
  <cc:Work
     rdf:about="">
    <dc:format>image/svg+xml</dc:format>
    <dc:type
       rdf:resource="http://purl.org/dc/dcmitype/StillImage" />
    <dc:title></dc:title>
  </cc:Work>
</rdf:RDF>
</metadata>
  <path
     style="fill:#000000;fill-opacity:1;stroke:none"
     d="m 13.5,0 c 4.69442,0 8.5,3.8055796 8.5,8.5 0,3.447465 -2.050435,6.416435 -5,7.75 l 0,2.75 3,0 c 3.865993,0 7,3.134007 7,7 l 0,24 -2,0 0,-24 c 0,-2.761424 -2.238576,-5 -5,-5 L 7,21 C 4.238576,21 2,23.238576 2,26 L 2,50 0,50 0,26 c 0,-3.865993 3.134007,-7 7,-7 l 3,0 0,-2.75 C 7.050435,14.916435 5,11.947465 5,8.5 5,3.8055796 8.80558,0 13.5,0 z M 21,24 21,40.21875 C 20.519924,40.080895 20.023669,40 19.5,40 18.975273,40 18.480673,40.081515 18,40.21875 L 18,24 21,24 z M 9,24 9,41 6,41 6,24 9,24 z m 5.21875,20 C 14.081515,44.480673 14,44.975273 14,45.5 c 0,0.897967 0.212117,1.751315 0.59375,2.5 L 4,48 4,44 14.21875,44 z"
     id="path2968" />
  <path
     style="fill:#000000;fill-opacity:1;stroke:none"
     d="M 19.5,41 C 17.014719,41 15,43.014719 15,45.5 15,47.985281 17.014719,50 19.5,50 21.985281,50 24,47.985281 24,45.5 24,43.014719 21.985281,41 19.5,41 z"
     id="path2818" />
</svg>
