<?xml version="1.0" encoding="UTF-8" standalone="no"?>
<svg
   xmlns:dc="http://purl.org/dc/elements/1.1/"
   xmlns:cc="http://creativecommons.org/ns#"
   xmlns:rdf="http://www.w3.org/1999/02/22-rdf-syntax-ns#"
   xmlns:svg="http://www.w3.org/2000/svg"
   xmlns="http://www.w3.org/2000/svg"
   xmlns:sodipodi="http://sodipodi.sourceforge.net/DTD/sodipodi-0.dtd"
   xmlns:inkscape="http://www.inkscape.org/namespaces/inkscape"
   version="1.0"
   width="28"
   height="48"
   id="svg2"
   inkscape:version="0.47 r22583"
   sodipodi:docname="06-01-006-01-03-07.svg">
  <defs
     id="defs14">
    <inkscape:perspective
       sodipodi:type="inkscape:persp3d"
       inkscape:vp_x="0 : 5.5 : 1"
       inkscape:vp_y="0 : 1000 : 0"
       inkscape:vp_z="10 : 5.5 : 1"
       inkscape:persp3d-origin="5 : 3.6666667 : 1"
       id="perspective16" />
  </defs>
  <sodipodi:namedview
     pagecolor="#ffffff"
     bordercolor="#666666"
     borderopacity="1"
     objecttolerance="10"
     gridtolerance="10"
     guidetolerance="10"
     inkscape:pageopacity="0"
     inkscape:pageshadow="2"
     inkscape:window-width="917"
     inkscape:window-height="792"
     id="namedview12"
     showgrid="true"
     inkscape:zoom="11.333333"
     inkscape:cx="14"
     inkscape:cy="24"
     inkscape:window-x="313"
     inkscape:window-y="0"
     inkscape:window-maximized="0"
     inkscape:current-layer="svg2"
     showborder="true"
     inkscape:showpageshadow="true"
     inkscape:snap-center="false">
    <inkscape:grid
       type="xygrid"
       id="grid2822"
       empspacing="5"
       visible="true"
       enabled="true"
       snapvisiblegridlinesonly="true" />
  </sodipodi:namedview>
  <metadata
     id="metadata4">
Valerie Sutton's pixel definition of the
ISWA 2010 symbol ID 02-01-001-01-01-01
transformed by Stephen E Slevinski Jr
using line and fill polygon tracing
<rdf:RDF>
  <cc:Work
     rdf:about="">
    <dc:format>image/svg+xml</dc:format>
    <dc:type
       rdf:resource="http://purl.org/dc/dcmitype/StillImage" />
    <dc:title></dc:title>
  </cc:Work>
</rdf:RDF>
</metadata>
  <path
     style="fill:#000000;fill-opacity:1;stroke:none"
     d="m 14.5,0 c 4.69442,0 8.5,3.8055796 8.5,8.5 0,3.447465 -2.050435,6.416435 -5,7.75 l 0,2.75 3,0 c 3.865993,0 7,3.134007 7,7 l 0,22 -2,0 0,-22 c 0,-2.761424 -2.238576,-5 -5,-5 l -15,0 0,-2 5,0 0,-2.75 C 8.050435,14.916435 6,11.947465 6,8.5 6,3.8055796 9.80558,0 14.5,0 z m 7.5,25 0,16 -3,0 0,-16 3,0 z m -12,0 0,16 -3,0 0,-16 3,0 z m 14,19 0,4 -19,0 0,-4 19,0 z"
     id="path2968" />
  <path
     style="fill:#000000;fill-opacity:1;stroke:none"
     d="M 5,25 5,38 4,38 4,36 C 1.790861,36 0,33.985281 0,31.5 0,29.014719 1.790861,27 4,27 l 0,-2 1,0 z m -1,3.5 c -1.380712,0 -2.5,1.343146 -2.5,3 0,1.656854 1.119288,3 2.5,3 l 0,-6 z"
     id="rect3011" />
  <path
     style="fill:#ffffff;fill-opacity:1;stroke:none"
     d="m 4,28.5 0,6 c -1.380712,0 -2.5,-1.343146 -2.5,-3 0,-1.656854 1.119288,-3 2.5,-3 z"
     id="path3018" />
</svg>
