<?xml version="1.0" encoding="UTF-8" standalone="no"?>
<svg
   xmlns:dc="http://purl.org/dc/elements/1.1/"
   xmlns:cc="http://creativecommons.org/ns#"
   xmlns:rdf="http://www.w3.org/1999/02/22-rdf-syntax-ns#"
   xmlns:svg="http://www.w3.org/2000/svg"
   xmlns="http://www.w3.org/2000/svg"
   xmlns:sodipodi="http://sodipodi.sourceforge.net/DTD/sodipodi-0.dtd"
   xmlns:inkscape="http://www.inkscape.org/namespaces/inkscape"
   version="1.0"
   width="27"
   height="48"
   id="svg2"
   inkscape:version="0.47 r22583"
   sodipodi:docname="06-01-006-01-03-08.svg">
  <defs
     id="defs14">
    <inkscape:perspective
       sodipodi:type="inkscape:persp3d"
       inkscape:vp_x="0 : 5.5 : 1"
       inkscape:vp_y="0 : 1000 : 0"
       inkscape:vp_z="10 : 5.5 : 1"
       inkscape:persp3d-origin="5 : 3.6666667 : 1"
       id="perspective16" />
  </defs>
  <sodipodi:namedview
     pagecolor="#ffffff"
     bordercolor="#666666"
     borderopacity="1"
     objecttolerance="10"
     gridtolerance="10"
     guidetolerance="10"
     inkscape:pageopacity="0"
     inkscape:pageshadow="2"
     inkscape:window-width="917"
     inkscape:window-height="792"
     id="namedview12"
     showgrid="true"
     inkscape:zoom="11.333333"
     inkscape:cx="13.5"
     inkscape:cy="24"
     inkscape:window-x="313"
     inkscape:window-y="0"
     inkscape:window-maximized="0"
     inkscape:current-layer="svg2"
     showborder="true"
     inkscape:showpageshadow="true"
     inkscape:snap-center="false">
    <inkscape:grid
       type="xygrid"
       id="grid2822"
       empspacing="5"
       visible="true"
       enabled="true"
       snapvisiblegridlinesonly="true" />
  </sodipodi:namedview>
  <metadata
     id="metadata4">
Valerie Sutton's pixel definition of the
ISWA 2010 symbol ID 02-01-001-01-01-01
transformed by Stephen E Slevinski Jr
using line and fill polygon tracing
<rdf:RDF>
  <cc:Work
     rdf:about="">
    <dc:format>image/svg+xml</dc:format>
    <dc:type
       rdf:resource="http://purl.org/dc/dcmitype/StillImage" />
    <dc:title></dc:title>
  </cc:Work>
</rdf:RDF>
</metadata>
  <path
     style="fill:#000000;fill-opacity:1;stroke:none"
     d="m 13.5,0 c 4.69442,0 8.5,3.8055796 8.5,8.5 0,3.447465 -2.050435,6.416435 -5,7.75 l 0,2.75 3,0 c 3.865993,0 7,3.134007 7,7 l 0,22 -2,0 0,-22 c 0,-2.761424 -2.238576,-5 -5,-5 L 7,21 C 4.238576,21 2,23.238576 2,26 L 2,48 0,48 0,26 c 0,-3.865993 3.134007,-7 7,-7 l 3,0 0,-2.75 C 7.050435,14.916435 5,11.947465 5,8.5 5,3.8055796 8.80558,0 13.5,0 z m 7.5,24 0,17 -3,0 0,-17 3,0 z M 9,24 9,27.21875 C 8.519327,27.081515 8.024727,27 7.5,27 6.976331,27 6.480076,27.080895 6,27.21875 L 6,24 9,24 z M 9,37.78125 9,41 6,41 6,37.78125 C 6.480076,37.919105 6.976331,38 7.5,38 8.024727,38 8.519327,37.918485 9,37.78125 z M 23,44 l 0,4 -19,0 0,-4 19,0 z"
     id="path2968" />
  <path
     style="fill:#000000;fill-opacity:1;stroke:none"
     d="M 7.5,28 C 5.014719,28 3,30.014719 3,32.5 3,34.985281 5.014719,37 7.5,37 9.985281,37 12,34.985281 12,32.5 12,30.014719 9.985281,28 7.5,28 z m 0,1.5 c 1.656854,0 3,1.343146 3,3 0,1.656854 -1.343146,3 -3,3 -1.656854,0 -3,-1.343146 -3,-3 0,-1.656854 1.343146,-3 3,-3 z"
     id="path2818" />
  <path
     style="fill:#ffffff;fill-opacity:1;stroke:none"
     d="m 7.5,29.5 c -1.656854,0 -3,1.343146 -3,3 0,1.656854 1.343146,3 3,3 1.656854,0 3,-1.343146 3,-3 0,-1.656854 -1.343146,-3 -3,-3 z"
     id="path2820" />
</svg>
