<?xml version="1.0" encoding="UTF-8" standalone="no"?>
<svg
   xmlns:dc="http://purl.org/dc/elements/1.1/"
   xmlns:cc="http://creativecommons.org/ns#"
   xmlns:rdf="http://www.w3.org/1999/02/22-rdf-syntax-ns#"
   xmlns:svg="http://www.w3.org/2000/svg"
   xmlns="http://www.w3.org/2000/svg"
   xmlns:sodipodi="http://sodipodi.sourceforge.net/DTD/sodipodi-0.dtd"
   xmlns:inkscape="http://www.inkscape.org/namespaces/inkscape"
   version="1.0"
   width="34"
   height="48"
   id="svg2"
   inkscape:version="0.47 r22583"
   sodipodi:docname="06-01-006-01-01-07.svg">
  <defs
     id="defs14">
    <inkscape:perspective
       sodipodi:type="inkscape:persp3d"
       inkscape:vp_x="0 : 5.5 : 1"
       inkscape:vp_y="0 : 1000 : 0"
       inkscape:vp_z="10 : 5.5 : 1"
       inkscape:persp3d-origin="5 : 3.6666667 : 1"
       id="perspective16" />
  </defs>
  <sodipodi:namedview
     pagecolor="#ffffff"
     bordercolor="#666666"
     borderopacity="1"
     objecttolerance="10"
     gridtolerance="10"
     guidetolerance="10"
     inkscape:pageopacity="0"
     inkscape:pageshadow="2"
     inkscape:window-width="917"
     inkscape:window-height="792"
     id="namedview12"
     showgrid="true"
     inkscape:zoom="11.333333"
     inkscape:cx="17"
     inkscape:cy="24"
     inkscape:window-x="313"
     inkscape:window-y="0"
     inkscape:window-maximized="0"
     inkscape:current-layer="svg2"
     showborder="true"
     inkscape:showpageshadow="true"
     inkscape:snap-center="false">
    <inkscape:grid
       type="xygrid"
       id="grid2822"
       empspacing="5"
       visible="true"
       enabled="true"
       snapvisiblegridlinesonly="true" />
  </sodipodi:namedview>
  <metadata
     id="metadata4">
Valerie Sutton's pixel definition of the
ISWA 2010 symbol ID 02-01-001-01-01-01
transformed by Stephen E Slevinski Jr
using line and fill polygon tracing
<rdf:RDF>
  <cc:Work
     rdf:about="">
    <dc:format>image/svg+xml</dc:format>
    <dc:type
       rdf:resource="http://purl.org/dc/dcmitype/StillImage" />
    <dc:title />
  </cc:Work>
</rdf:RDF>
</metadata>
  <path
     style="fill:#000000;fill-opacity:1;stroke:none"
     d="M 13.5 0 C 8.80558 0 5 3.8055796 5 8.5 C 5 11.947465 7.050435 14.916435 10 16.25 L 10 19 L 7 19 C 3.134007 19 0 22.134007 0 26 L 0 48 L 2 48 L 2 26 C 2 23.238576 4.238576 21 7 21 L 20 21 C 22.761424 21 25 23.238576 25 26 L 25 48 L 27 48 L 27 26 C 27 22.134007 23.865993 19 20 19 L 17 19 L 17 16.25 C 19.949565 14.916435 22 11.947465 22 8.5 C 22 3.8055796 18.19442 0 13.5 0 z M 6 26 L 6 41 L 9 41 L 9 26 L 6 26 z M 18 26 L 18 41 L 21 41 L 21 26 L 18 26 z M 4 44 L 4 48 L 23 48 L 23 44 L 4 44 z "
     id="path2968" />
  <path
     style="fill:#000000;fill-opacity:1;stroke:none"
     d="M 29 16 L 29 29 L 30 29 L 30 27 C 32.209139 27 34 24.985281 34 22.5 C 34 20.014719 32.209139 18 30 18 L 30 16 L 29 16 z M 30 19.5 C 31.380712 19.5 32.5 20.843146 32.5 22.5 C 32.5 24.156854 31.380712 25.5 30 25.5 L 30 19.5 z "
     id="rect3011" />
  <path
     style="fill:#ffffff;fill-opacity:1;stroke:none"
     d="M 30 19.5 L 30 25.5 C 31.380712 25.5 32.5 24.156854 32.5 22.5 C 32.5 20.843146 31.380712 19.5 30 19.5 z "
     id="path3018" />
</svg>
