<?xml version="1.0" encoding="UTF-8" standalone="no"?>
<svg
   xmlns:dc="http://purl.org/dc/elements/1.1/"
   xmlns:cc="http://creativecommons.org/ns#"
   xmlns:rdf="http://www.w3.org/1999/02/22-rdf-syntax-ns#"
   xmlns:svg="http://www.w3.org/2000/svg"
   xmlns="http://www.w3.org/2000/svg"
   xmlns:sodipodi="http://sodipodi.sourceforge.net/DTD/sodipodi-0.dtd"
   xmlns:inkscape="http://www.inkscape.org/namespaces/inkscape"
   version="1.0"
   width="35"
   height="35"
   id="svg2"
   inkscape:version="0.47 r22583"
   sodipodi:docname="04-01-002-01-07.svg">
  <defs
     id="defs14">
    <inkscape:perspective
       sodipodi:type="inkscape:persp3d"
       inkscape:vp_x="0 : 17.5 : 1"
       inkscape:vp_y="0 : 1000 : 0"
       inkscape:vp_z="36 : 17.5 : 1"
       inkscape:persp3d-origin="18 : 11.666667 : 1"
       id="perspective16" />
  </defs>
  <sodipodi:namedview
     pagecolor="#ffffff"
     bordercolor="#666666"
     borderopacity="1"
     objecttolerance="10"
     gridtolerance="10"
     guidetolerance="10"
     inkscape:pageopacity="0"
     inkscape:pageshadow="2"
     inkscape:window-width="946"
     inkscape:window-height="791"
     id="namedview12"
     showgrid="true"
     inkscape:zoom="13.485714"
     inkscape:cx="19.289521"
     inkscape:cy="17.935591"
     inkscape:window-x="0"
     inkscape:window-y="0"
     inkscape:window-maximized="0"
     inkscape:current-layer="svg2">
    <inkscape:grid
       type="xygrid"
       id="grid2822" />
  </sodipodi:namedview>
  <metadata
     id="metadata4">
Valerie Sutton's pixel definition of the
ISWA 2010 symbol ID 04-01-002-01-01-01
transformed by Stephen E Slevinski Jr
using line and fill polygon tracing
<rdf:RDF>
  <cc:Work
     rdf:about="">
    <dc:format>image/svg+xml</dc:format>
    <dc:type
       rdf:resource="http://purl.org/dc/dcmitype/StillImage" />
    <dc:title></dc:title>
  </cc:Work>
</rdf:RDF>
</metadata>
  <path
     style="fill:#000000;fill-opacity:1;stroke:none"
     d="M 17.5,0 C 7.8350169,0 0,7.8350169 0,17.5 0,27.164983 7.8350169,35 17.5,35 27.164983,35 35,27.164983 35,17.5 35,7.8350169 27.164983,0 17.5,0 z m 0,2 C 26.060414,2 33,8.9395864 33,17.5 33,26.060414 26.060414,33 17.5,33 8.9395864,33 2,26.060414 2,17.5 2,8.9395864 8.9395864,2 17.5,2 z"
     id="path2824" />
  <path
     style="fill:#000000;fill-opacity:1;stroke:none"
     d="M 24.725747,3.777709 C 24.120196,3.459482 23.481833,3.1926864 22.847495,2.9601168 c -0.586199,2.40763 0.09887,5.1370092 2.077126,7.1152622 1.978253,1.978253 4.707632,2.663325 7.115262,2.077126 C 31.807314,11.518167 31.540518,10.879804 31.222291,10.274253 29.556087,10.556538 27.708515,10.030845 26.338835,8.6611652 24.969155,7.2914853 24.443462,5.4439128 24.725747,3.777709 z"
     id="path2862" />
</svg>
