<?xml version="1.0" encoding="UTF-8" standalone="no"?>
<svg
   xmlns:dc="http://purl.org/dc/elements/1.1/"
   xmlns:cc="http://creativecommons.org/ns#"
   xmlns:rdf="http://www.w3.org/1999/02/22-rdf-syntax-ns#"
   xmlns:svg="http://www.w3.org/2000/svg"
   xmlns="http://www.w3.org/2000/svg"
   xmlns:sodipodi="http://sodipodi.sourceforge.net/DTD/sodipodi-0.dtd"
   xmlns:inkscape="http://www.inkscape.org/namespaces/inkscape"
   version="1.0"
   width="32"
   height="15"
   id="svg2"
   inkscape:version="0.47 r22583"
   sodipodi:docname="02-08-002-02-04-04.svg">
  <defs
     id="defs16">
    <inkscape:perspective
       sodipodi:type="inkscape:persp3d"
       inkscape:vp_x="0 : 23 : 1"
       inkscape:vp_y="0 : 1000 : 0"
       inkscape:vp_z="36 : 23 : 1"
       inkscape:persp3d-origin="18 : 15.333333 : 1"
       id="perspective18" />
  </defs>
  <sodipodi:namedview
     pagecolor="#ffffff"
     bordercolor="#666666"
     borderopacity="1"
     objecttolerance="10"
     gridtolerance="10"
     guidetolerance="10"
     inkscape:pageopacity="0"
     inkscape:pageshadow="2"
     inkscape:window-width="964"
     inkscape:window-height="721"
     id="namedview14"
     showgrid="true"
     inkscape:zoom="16.598657"
     inkscape:cx="15.999479"
     inkscape:cy="7.4997558"
     inkscape:window-x="365"
     inkscape:window-y="0"
     inkscape:window-maximized="0"
     inkscape:current-layer="svg2"
     showborder="true">
    <inkscape:grid
       type="xygrid"
       id="grid2824"
       empspacing="5"
       visible="true"
       enabled="true"
       snapvisiblegridlinesonly="true" />
  </sodipodi:namedview>
  <metadata
     id="metadata4">
Valerie Sutton's pixel definition of the
ISWA 2010 symbol ID 04-01-003-01-01-01
transformed by Stephen E Slevinski Jr
using line and fill polygon tracing
<rdf:RDF>
  <cc:Work
     rdf:about="">
    <dc:format>image/svg+xml</dc:format>
    <dc:type
       rdf:resource="http://purl.org/dc/dcmitype/StillImage" />
    <dc:title></dc:title>
  </cc:Work>
</rdf:RDF>
</metadata>
  <path
     style="fill:#000000;fill-opacity:1;stroke:none"
     d="m 2.0588735,2.029437 c 1.952622,-1.9526218 5.435029,-1.6360388 7.778175,0.707107 l 4.4194165,4.419417 c 0.04766,-1.13352 0.436807,-2.204573 1.237438,-3.005204 1.952621,-1.952621 5.435029,-1.636038 7.778174,0.707107 l 7.778175,7.778175 -1.414214,1.414213 -7.778174,-7.778175 C 20.295767,4.70998 18.079689,4.393398 16.908116,5.564971 c -1.171572,1.171572 -0.85499,3.38765 0.707107,4.949747 L 20.44365,13.343145 19.029437,14.757359 8.4228345,4.150757 C 6.8607375,2.58866 4.6446595,2.272078 3.4730875,3.44365 2.3015145,4.615223 2.6180965,6.831301 4.1801935,8.393398 l 2.828428,2.828427 -1.414214,1.414214 -2.828427,-2.828428 C 0.4228345,7.464466 0.1062515,3.982058 2.0588735,2.029437 z"
     id="path3205" />
</svg>
