<?xml version="1.0" encoding="UTF-8" standalone="no"?>
<svg
   xmlns:dc="http://purl.org/dc/elements/1.1/"
   xmlns:cc="http://creativecommons.org/ns#"
   xmlns:rdf="http://www.w3.org/1999/02/22-rdf-syntax-ns#"
   xmlns:svg="http://www.w3.org/2000/svg"
   xmlns="http://www.w3.org/2000/svg"
   xmlns:sodipodi="http://sodipodi.sourceforge.net/DTD/sodipodi-0.dtd"
   xmlns:inkscape="http://www.inkscape.org/namespaces/inkscape"
   version="1.0"
   width="40"
   height="21"
   id="svg2"
   inkscape:version="0.47 r22583"
   sodipodi:docname="02-08-002-02-02-02.svg">
  <defs
     id="defs16">
    <inkscape:perspective
       sodipodi:type="inkscape:persp3d"
       inkscape:vp_x="0 : 23 : 1"
       inkscape:vp_y="0 : 1000 : 0"
       inkscape:vp_z="36 : 23 : 1"
       inkscape:persp3d-origin="18 : 15.333333 : 1"
       id="perspective18" />
  </defs>
  <sodipodi:namedview
     pagecolor="#ffffff"
     bordercolor="#666666"
     borderopacity="1"
     objecttolerance="10"
     gridtolerance="10"
     guidetolerance="10"
     inkscape:pageopacity="0"
     inkscape:pageshadow="2"
     inkscape:window-width="964"
     inkscape:window-height="721"
     id="namedview14"
     showgrid="true"
     inkscape:zoom="16.355263"
     inkscape:cx="19.997266"
     inkscape:cy="10.498565"
     inkscape:window-x="365"
     inkscape:window-y="0"
     inkscape:window-maximized="0"
     inkscape:current-layer="svg2"
     showborder="true">
    <inkscape:grid
       type="xygrid"
       id="grid2824"
       empspacing="5"
       visible="true"
       enabled="true"
       snapvisiblegridlinesonly="true" />
  </sodipodi:namedview>
  <metadata
     id="metadata4">
Valerie Sutton's pixel definition of the
ISWA 2010 symbol ID 04-01-003-01-01-01
transformed by Stephen E Slevinski Jr
using line and fill polygon tracing
<rdf:RDF>
  <cc:Work
     rdf:about="">
    <dc:format>image/svg+xml</dc:format>
    <dc:type
       rdf:resource="http://purl.org/dc/dcmitype/StillImage" />
    <dc:title></dc:title>
  </cc:Work>
</rdf:RDF>
</metadata>
  <path
     style="fill:#000000;fill-opacity:1;stroke:none"
     d="M 39.899495,16 30,16 30,6.100506 39.899495,16 z m -2.43068,-1.016466 -6.452349,-6.452349 0,6.452349 6.452349,0 z"
     id="path2839" />
  <path
     style="fill:#000000;fill-opacity:1;stroke:none"
     d="m 37.778174,2.5649716 c 1.952622,1.9526217 1.952622,5.1184464 0,7.0710674 l -2.12132,2.121321 -1.414214,-1.414214 2.121321,-2.12132 c 1.171573,-1.171573 1.171573,-3.071068 0,-4.2426408 L 35.656854,3.2720784 C 34.094757,1.7099812 31.562097,1.7099812 30,3.2720784 L 20.100505,13.171573 18.686291,11.75736 21.514718,8.928933 c 1.171573,-1.171573 1.171573,-3.071068 0,-4.242641 -1.171572,-1.1715727 -3.071068,-1.1715727 -4.24264,0 L 13.029437,8.928933 C 10.181436,11.776934 8.7867964,20.242641 8.7867964,20.242641 L 0.301515,11.75736 c 0,0 8.4657072,-1.39464 11.313709,-4.242641 l 4.24264,-4.2426406 c 1.952622,-1.9526216 5.118446,-1.9526216 7.071068,0 0.794552,0.7945519 1.27246,1.7922186 1.414214,2.8284276 l 4.24264,-4.2426412 c 2.343146,-2.3431457 6.142136,-2.3431454 8.485282,0 l 0.707106,0.7071068 z"
     id="path2814" />
  <path
     style="fill:#ffffff;fill-opacity:1;stroke:none"
     d="m 37.468815,14.983534 -6.452349,0 0,-6.452349 6.452349,6.452349 z"
     id="path2934" />
</svg>
