<?xml version="1.0" encoding="UTF-8" standalone="no"?>
<svg
   xmlns:dc="http://purl.org/dc/elements/1.1/"
   xmlns:cc="http://creativecommons.org/ns#"
   xmlns:rdf="http://www.w3.org/1999/02/22-rdf-syntax-ns#"
   xmlns:svg="http://www.w3.org/2000/svg"
   xmlns="http://www.w3.org/2000/svg"
   xmlns:sodipodi="http://sodipodi.sourceforge.net/DTD/sodipodi-0.dtd"
   xmlns:inkscape="http://www.inkscape.org/namespaces/inkscape"
   version="1.0"
   width="37"
   height="17"
   id="svg2"
   inkscape:version="0.47 r22583"
   sodipodi:docname="02-08-002-02-04-03.svg">
  <defs
     id="defs16">
    <inkscape:perspective
       sodipodi:type="inkscape:persp3d"
       inkscape:vp_x="0 : 23 : 1"
       inkscape:vp_y="0 : 1000 : 0"
       inkscape:vp_z="36 : 23 : 1"
       inkscape:persp3d-origin="18 : 15.333333 : 1"
       id="perspective18" />
  </defs>
  <sodipodi:namedview
     pagecolor="#ffffff"
     bordercolor="#666666"
     borderopacity="1"
     objecttolerance="10"
     gridtolerance="10"
     guidetolerance="10"
     inkscape:pageopacity="0"
     inkscape:pageshadow="2"
     inkscape:window-width="964"
     inkscape:window-height="721"
     id="namedview14"
     showgrid="true"
     inkscape:zoom="16.486693"
     inkscape:cx="18.497211"
     inkscape:cy="8.4987186"
     inkscape:window-x="365"
     inkscape:window-y="0"
     inkscape:window-maximized="0"
     inkscape:current-layer="svg2"
     showborder="true">
    <inkscape:grid
       type="xygrid"
       id="grid2824"
       empspacing="5"
       visible="true"
       enabled="true"
       snapvisiblegridlinesonly="true" />
  </sodipodi:namedview>
  <metadata
     id="metadata4">
Valerie Sutton's pixel definition of the
ISWA 2010 symbol ID 04-01-003-01-01-01
transformed by Stephen E Slevinski Jr
using line and fill polygon tracing
<rdf:RDF>
  <cc:Work
     rdf:about="">
    <dc:format>image/svg+xml</dc:format>
    <dc:type
       rdf:resource="http://purl.org/dc/dcmitype/StillImage" />
    <dc:title></dc:title>
  </cc:Work>
</rdf:RDF>
</metadata>
  <path
     style="fill:#000000;fill-opacity:1;stroke:none"
     d="m 34.778175,2.5649707 c 1.952621,1.9526216 1.952621,5.1184463 0,7.0710673 l -2.121321,2.121321 -1.414213,-1.414214 2.12132,-2.12132 c 1.171573,-1.171573 1.171573,-3.0710681 0,-4.2426408 L 32.656854,3.2720775 C 31.094757,1.7099803 28.562097,1.7099803 27,3.2720775 l -9.899495,9.8994945 -1.414214,-1.414213 2.828427,-2.828427 c 1.171573,-1.171573 1.171573,-3.0710683 0,-4.242641 -1.171572,-1.1715727 -3.071068,-1.1715727 -4.24264,0 L 2.2512631,16.707106 0.8370491,15.292893 12.857864,3.2720775 c 1.952622,-1.9526217 5.118446,-1.9526217 7.071068,0 0.794552,0.7945518 1.27246,1.7922187 1.414214,2.8284271 l 4.24264,-4.2426407 c 2.343146,-2.3431458 6.142136,-2.3431454 8.485282,0 l 0.707107,0.7071068 z"
     id="path2814" />
</svg>
