<?xml version="1.0" encoding="UTF-8" standalone="no"?>
<svg
   xmlns:dc="http://purl.org/dc/elements/1.1/"
   xmlns:cc="http://creativecommons.org/ns#"
   xmlns:rdf="http://www.w3.org/1999/02/22-rdf-syntax-ns#"
   xmlns:svg="http://www.w3.org/2000/svg"
   xmlns="http://www.w3.org/2000/svg"
   xmlns:sodipodi="http://sodipodi.sourceforge.net/DTD/sodipodi-0.dtd"
   xmlns:inkscape="http://www.inkscape.org/namespaces/inkscape"
   version="1.0"
   width="40"
   height="21"
   id="svg2"
   inkscape:version="0.47 r22583"
   sodipodi:docname="02-08-002-02-01-08.svg">
  <defs
     id="defs16">
    <inkscape:perspective
       sodipodi:type="inkscape:persp3d"
       inkscape:vp_x="0 : 23 : 1"
       inkscape:vp_y="0 : 1000 : 0"
       inkscape:vp_z="36 : 23 : 1"
       inkscape:persp3d-origin="18 : 15.333333 : 1"
       id="perspective18" />
  </defs>
  <sodipodi:namedview
     pagecolor="#ffffff"
     bordercolor="#666666"
     borderopacity="1"
     objecttolerance="10"
     gridtolerance="10"
     guidetolerance="10"
     inkscape:pageopacity="0"
     inkscape:pageshadow="2"
     inkscape:window-width="964"
     inkscape:window-height="721"
     id="namedview14"
     showgrid="true"
     inkscape:zoom="16.355263"
     inkscape:cx="19.997266"
     inkscape:cy="10.498565"
     inkscape:window-x="365"
     inkscape:window-y="0"
     inkscape:window-maximized="0"
     inkscape:current-layer="svg2"
     showborder="true">
    <inkscape:grid
       type="xygrid"
       id="grid2824"
       empspacing="5"
       visible="true"
       enabled="true"
       snapvisiblegridlinesonly="true" />
  </sodipodi:namedview>
  <metadata
     id="metadata4">
Valerie Sutton's pixel definition of the
ISWA 2010 symbol ID 04-01-003-01-01-01
transformed by Stephen E Slevinski Jr
using line and fill polygon tracing
<rdf:RDF>
  <cc:Work
     rdf:about="">
    <dc:format>image/svg+xml</dc:format>
    <dc:type
       rdf:resource="http://purl.org/dc/dcmitype/StillImage" />
    <dc:title></dc:title>
  </cc:Work>
</rdf:RDF>
</metadata>
  <path
     style="fill:#000000;fill-opacity:1;stroke:none"
     d="M 0.100505,16 10,16 10,6.100506 0.100505,16 z"
     id="path2839" />
  <path
     style="fill:#000000;fill-opacity:1;stroke:none"
     d="m 2.221826,2.5649716 c -1.952622,1.9526217 -1.952622,5.1184464 0,7.0710674 L 4.343146,11.75736 5.75736,10.343146 3.636039,8.221826 c -1.171573,-1.171573 -1.171573,-3.071068 0,-4.2426408 L 4.343146,3.2720784 c 1.562097,-1.5620972 4.094757,-1.5620972 5.656854,0 l 9.899495,9.8994946 1.414214,-1.414213 -2.828427,-2.828427 c -1.171573,-1.171573 -1.171573,-3.071068 0,-4.242641 1.171572,-1.1715727 3.071068,-1.1715727 4.24264,0 l 4.242641,4.242641 c 2.848001,2.848001 4.242641,11.313708 4.242641,11.313708 l 8.485281,-8.485281 c 0,0 -8.465707,-1.39464 -11.313709,-4.242641 l -4.24264,-4.2426406 c -1.952622,-1.9526216 -5.118446,-1.9526216 -7.071068,0 -0.794552,0.7945519 -1.27246,1.7922186 -1.414214,2.8284276 l -4.24264,-4.2426412 c -2.343146,-2.3431457 -6.142136,-2.3431454 -8.485282,0 L 2.221826,2.5649716 z"
     id="path2814" />
</svg>
