<?xml version="1.0" encoding="UTF-8" standalone="no"?>
<svg
   xmlns:dc="http://purl.org/dc/elements/1.1/"
   xmlns:cc="http://creativecommons.org/ns#"
   xmlns:rdf="http://www.w3.org/1999/02/22-rdf-syntax-ns#"
   xmlns:svg="http://www.w3.org/2000/svg"
   xmlns="http://www.w3.org/2000/svg"
   xmlns:sodipodi="http://sodipodi.sourceforge.net/DTD/sodipodi-0.dtd"
   xmlns:inkscape="http://www.inkscape.org/namespaces/inkscape"
   version="1.0"
   width="36"
   height="19"
   id="svg2"
   inkscape:version="0.47 r22583"
   sodipodi:docname="02-08-002-02-03-06.svg">
  <defs
     id="defs16">
    <inkscape:perspective
       sodipodi:type="inkscape:persp3d"
       inkscape:vp_x="0 : 23 : 1"
       inkscape:vp_y="0 : 1000 : 0"
       inkscape:vp_z="36 : 23 : 1"
       inkscape:persp3d-origin="18 : 15.333333 : 1"
       id="perspective18" />
  </defs>
  <sodipodi:namedview
     pagecolor="#ffffff"
     bordercolor="#666666"
     borderopacity="1"
     objecttolerance="10"
     gridtolerance="10"
     guidetolerance="10"
     inkscape:pageopacity="0"
     inkscape:pageshadow="2"
     inkscape:window-width="964"
     inkscape:window-height="721"
     id="namedview14"
     showgrid="true"
     inkscape:zoom="16.953209"
     inkscape:cx="17.993304"
     inkscape:cy="9.4964659"
     inkscape:window-x="365"
     inkscape:window-y="0"
     inkscape:window-maximized="0"
     inkscape:current-layer="svg2"
     showborder="true">
    <inkscape:grid
       type="xygrid"
       id="grid2824"
       empspacing="5"
       visible="true"
       enabled="true"
       snapvisiblegridlinesonly="true" />
  </sodipodi:namedview>
  <metadata
     id="metadata4">
Valerie Sutton's pixel definition of the
ISWA 2010 symbol ID 04-01-003-01-01-01
transformed by Stephen E Slevinski Jr
using line and fill polygon tracing
<rdf:RDF>
  <cc:Work
     rdf:about="">
    <dc:format>image/svg+xml</dc:format>
    <dc:type
       rdf:resource="http://purl.org/dc/dcmitype/StillImage" />
    <dc:title></dc:title>
  </cc:Work>
</rdf:RDF>
</metadata>
  <path
     style="fill:#000000;fill-opacity:1;stroke:none"
     d="M 36,7.686291 36,19 l -11.313709,0 1.414214,-1.414214 8.485281,0 0,-8.485281 L 36,7.686291 z"
     id="path3203" />
  <path
     style="fill:#000000;fill-opacity:1;stroke:none"
     d="M 2.0588741,2.029437 C 4.0114957,0.0768152 7.4939033,0.3933982 9.8370487,2.736544 l 4.4194173,4.419417 c 0.04766,-1.13352 0.436806,-2.204573 1.237437,-3.005204 1.952622,-1.952621 5.435029,-1.636038 7.778175,0.707107 l 2.12132,2.12132 c 1.425488,1.425489 4.768068,2.200502 6.805903,2.563262 l 0.972271,0.972272 -5.656854,5.656854 -0.972272,-0.972271 C 26.179686,13.161466 25.404673,9.818886 23.979184,8.393398 L 21.857864,6.272077 C 20.295767,4.70998 18.079689,4.393398 16.908116,5.564971 c -1.171572,1.171572 -0.85499,3.38765 0.707107,4.949747 L 20.44365,13.343145 19.029437,14.757359 8.4228351,4.150757 C 6.8607379,2.58866 4.6446603,2.272078 3.4730876,3.44365 2.3015149,4.615223 2.6180973,6.831301 4.1801944,8.393398 L 7.0086216,11.221825 5.594408,12.636039 2.7659809,9.807611 C 0.4228355,7.464466 0.1062524,3.982058 2.0588741,2.029437 z"
     id="path3205" />
</svg>
