<?xml version="1.0" encoding="UTF-8" standalone="no"?>
<!-- Created with Inkscape (http://www.inkscape.org/) -->

<svg
   xmlns:dc="http://purl.org/dc/elements/1.1/"
   xmlns:cc="http://creativecommons.org/ns#"
   xmlns:rdf="http://www.w3.org/1999/02/22-rdf-syntax-ns#"
   xmlns:svg="http://www.w3.org/2000/svg"
   xmlns="http://www.w3.org/2000/svg"
   xmlns:sodipodi="http://sodipodi.sourceforge.net/DTD/sodipodi-0.dtd"
   xmlns:inkscape="http://www.inkscape.org/namespaces/inkscape"
   width="15"
   height="19"
   id="svg3198"
   sodipodi:version="0.32"
   inkscape:version="0.47 r22583"
   version="1.0"
   sodipodi:docname="01-07-012-01-04.svg"
   inkscape:output_extension="org.inkscape.output.svg.inkscape">
  <defs
     id="defs3200">
    <inkscape:perspective
       sodipodi:type="inkscape:persp3d"
       inkscape:vp_x="0 : 526.18109 : 1"
       inkscape:vp_y="0 : 1000 : 0"
       inkscape:vp_z="744.09448 : 526.18109 : 1"
       inkscape:persp3d-origin="372.04724 : 350.78739 : 1"
       id="perspective3206" />
  </defs>
  <sodipodi:namedview
     id="namedview3727"
     pagecolor="#ffffff"
     bordercolor="#666666"
     borderopacity="1.0"
     gridtolerance="10000"
     guidetolerance="10"
     objecttolerance="10"
     inkscape:pageopacity="0.0"
     inkscape:pageshadow="2"
     inkscape:zoom="22.634315"
     inkscape:cx="6.5352904"
     inkscape:cy="9.9413058"
     inkscape:document-units="px"
     inkscape:current-layer="svg3198"
     showgrid="true"
     inkscape:window-width="1168"
     inkscape:window-height="791"
     inkscape:window-x="0"
     inkscape:window-y="0"
     showborder="false"
     inkscape:window-maximized="0">
    <inkscape:grid
       type="xygrid"
       id="grid3208"
       visible="true"
       enabled="true" />
  </sodipodi:namedview>
  <metadata
     id="metadata3203">
    <rdf:RDF>
      <cc:Work
         rdf:about="">
        <dc:format>image/svg+xml</dc:format>
        <dc:type
           rdf:resource="http://purl.org/dc/dcmitype/StillImage" />
        <dc:title></dc:title>
      </cc:Work>
    </rdf:RDF>
  </metadata>
  <g
     inkscape:label="Layer 1"
     inkscape:groupmode="layer"
     id="g8" />
  <rect
     style="fill:#000000;fill-opacity:1;stroke:none;stroke-width:2;stroke-miterlimit:4;stroke-dasharray:none;stroke-opacity:1"
     id="base"
     width="15"
     height="15"
     x="0"
     y="4" />
  <path
     style="fill:#ffffff;fill-opacity:1;stroke:none"
     d="M 3.84375 1 C 3.5625 1.046875 3 1.25 3 2 L 3 4 L 6 4 L 6 2 C 6 2 6 1 5 1 L 4 1 C 4 1 3.9375 0.984375 3.84375 1 z M 2 6 L 2 8 L 0 8 L 0 11 L 2 11 L 2 17 L 8 17 L 8 11 L 15 11 L 15 8 L 8 8 L 8 6 L 2 6 z "
     id="fill" />
  <path
     style="fill:#000000;fill-opacity:1;fill-rule:evenodd;stroke:none"
     d="M 7,4 7,2 C 7,2 7,4 7,2 7,0 5,0 5,0 L 4,0 C 4,0 6,0 4,0 2,0 2,2 2,2 L 2,4 3,4 3,2 C 3,2 3,3 3,2 3,1 4,1 4,1 L 5,1 C 5,1 4,1 5,1 6,1 6,2 6,2 l 0,2 1,0 z"
     id="ring" />
</svg>
