<?xml version="1.0" encoding="UTF-8" standalone="no"?>
<svg
   xmlns:dc="http://purl.org/dc/elements/1.1/"
   xmlns:cc="http://creativecommons.org/ns#"
   xmlns:rdf="http://www.w3.org/1999/02/22-rdf-syntax-ns#"
   xmlns:svg="http://www.w3.org/2000/svg"
   xmlns="http://www.w3.org/2000/svg"
   xmlns:sodipodi="http://sodipodi.sourceforge.net/DTD/sodipodi-0.dtd"
   xmlns:inkscape="http://www.inkscape.org/namespaces/inkscape"
   version="1.0"
   width="35"
   height="35"
   id="svg2"
   inkscape:version="0.47 r22583"
   sodipodi:docname="04-02-007-03-01-08.svg">
  <defs
     id="defs14">
    <inkscape:perspective
       sodipodi:type="inkscape:persp3d"
       inkscape:vp_x="0 : 3.5 : 1"
       inkscape:vp_y="0 : 1000 : 0"
       inkscape:vp_z="7 : 3.5 : 1"
       inkscape:persp3d-origin="3.5 : 2.3333333 : 1"
       id="perspective16" />
  </defs>
  <sodipodi:namedview
     pagecolor="#ffffff"
     bordercolor="#666666"
     borderopacity="1"
     objecttolerance="10"
     gridtolerance="10"
     guidetolerance="10"
     inkscape:pageopacity="0"
     inkscape:pageshadow="2"
     inkscape:window-width="928"
     inkscape:window-height="791"
     id="namedview12"
     showgrid="true"
     inkscape:zoom="15.71"
     inkscape:cx="17.638494"
     inkscape:cy="17.823025"
     inkscape:window-x="273"
     inkscape:window-y="0"
     inkscape:window-maximized="0"
     inkscape:current-layer="svg2">
    <inkscape:grid
       type="xygrid"
       id="grid2822" />
  </sodipodi:namedview>
  <metadata
     id="metadata4">
Valerie Sutton's pixel definition of the
ISWA 2010 symbol ID 04-02-007-01-04-01
transformed by Stephen E Slevinski Jr
using line and fill polygon tracing
<rdf:RDF>
  <cc:Work
     rdf:about="">
    <dc:format>image/svg+xml</dc:format>
    <dc:type
       rdf:resource="http://purl.org/dc/dcmitype/StillImage" />
    <dc:title />
  </cc:Work>
</rdf:RDF>
</metadata>
  <path
     style="fill:#000000;fill-opacity:1;stroke:none"
     d="m 26,6 0,5 -1.000056,0 0,-4 -4.000224,0 0,-1 L 26,6 z"
     id="path2841" />
  <path
     style="fill:#000000;fill-opacity:1;stroke:none"
     d="M 24.949942,9.1715729 22.121355,12 21.414209,11.292893 24.242795,8.4644661 24.949942,9.1715729 z"
     id="rect2849" />
  <path
     style="fill:#000000;fill-opacity:1;stroke:none"
     d="M 23.535649,7.7573593 20.707062,10.585786 19.999916,9.8786797 22.828502,7.0502525 23.535649,7.7573593 z"
     id="rect2851" />
  <path
     id="path2881"
     d="m 22.999832,17 0,-5 1.000056,0 0,4 4.000225,0 0,1 -5.000281,0 z"
     style="fill:#000000;fill-opacity:1;stroke:none" />
  <path
     id="path2883"
     d="M 24.049892,13.828427 26.878477,11 l 0.707146,0.707107 -2.828586,2.828427 -0.707145,-0.707107 z"
     style="fill:#000000;fill-opacity:1;stroke:none" />
  <path
     id="path2885"
     d="m 25.464185,15.242641 2.828585,-2.828427 0.707146,0.707106 -2.828586,2.828428 -0.707145,-0.707107 z"
     style="fill:#000000;fill-opacity:1;stroke:none" />
  <path
     id="path2943"
     d="m 13.000085,6 0,5 -1.000056,0 0,-4 -4.000225,0 0,-1 5.000281,0 z"
     style="fill:#000000;fill-opacity:1;stroke:none" />
  <path
     id="path2945"
     d="M 11.950027,9.1715729 9.1214405,12 8.414293,11.292893 11.242879,8.4644661 11.950027,9.1715729 z"
     style="fill:#000000;fill-opacity:1;stroke:none" />
  <path
     id="path2947"
     d="M 10.535733,7.7573593 7.707147,10.585786 7,9.8786797 9.8285865,7.0502525 10.535733,7.7573593 z"
     style="fill:#000000;fill-opacity:1;stroke:none" />
  <path
     style="fill:#000000;fill-opacity:1;stroke:none"
     d="m 9.9999155,17 0,-5 1.0000575,0 0,4 4.000225,0 0,1 -5.0002825,0 z"
     id="path2949" />
  <path
     style="fill:#000000;fill-opacity:1;stroke:none"
     d="M 11.049976,13.828427 13.878562,11 l 0.707146,0.707107 -2.828586,2.828427 -0.707146,-0.707107 z"
     id="path2951" />
  <path
     style="fill:#000000;fill-opacity:1;stroke:none"
     d="M 12.464268,15.242641 15.292854,12.414214 16,13.12132 13.171416,15.949748 12.464268,15.242641 z"
     id="path2953" />
  <path
     style="fill:#000000;fill-opacity:1;stroke:none"
     d="M 17.5,0 C 7.8350169,0 0,7.8350169 0,17.5 0,27.164983 7.8350169,35 17.5,35 27.164983,35 35,27.164983 35,17.5 35,7.8350169 27.164983,0 17.5,0 z m 0,1.5 c 8.836556,0 16,7.163444 16,16 0,8.836556 -7.163444,16 -16,16 -8.836556,0 -16,-7.163444 -16,-16 0,-8.836556 7.163444,-16 16,-16 z"
     id="path2997" />
</svg>
