<?xml version="1.0" encoding="UTF-8" standalone="no"?>
<svg
   xmlns:dc="http://purl.org/dc/elements/1.1/"
   xmlns:cc="http://creativecommons.org/ns#"
   xmlns:rdf="http://www.w3.org/1999/02/22-rdf-syntax-ns#"
   xmlns:svg="http://www.w3.org/2000/svg"
   xmlns="http://www.w3.org/2000/svg"
   xmlns:sodipodi="http://sodipodi.sourceforge.net/DTD/sodipodi-0.dtd"
   xmlns:inkscape="http://www.inkscape.org/namespaces/inkscape"
   version="1.0"
   width="26"
   height="9"
   id="svg2"
   inkscape:version="0.47 r22583"
   sodipodi:docname="04-02-007-03-02-06.svg">
  <defs
     id="defs14">
    <inkscape:perspective
       sodipodi:type="inkscape:persp3d"
       inkscape:vp_x="0 : 3.5 : 1"
       inkscape:vp_y="0 : 1000 : 0"
       inkscape:vp_z="7 : 3.5 : 1"
       inkscape:persp3d-origin="3.5 : 2.3333333 : 1"
       id="perspective16" />
  </defs>
  <sodipodi:namedview
     pagecolor="#ffffff"
     bordercolor="#666666"
     borderopacity="1"
     objecttolerance="10"
     gridtolerance="10"
     guidetolerance="10"
     inkscape:pageopacity="0"
     inkscape:pageshadow="2"
     inkscape:window-width="928"
     inkscape:window-height="791"
     id="namedview12"
     showgrid="true"
     inkscape:zoom="31.452542"
     inkscape:cx="12.394149"
     inkscape:cy="4.6864407"
     inkscape:window-x="273"
     inkscape:window-y="0"
     inkscape:window-maximized="0"
     inkscape:current-layer="svg2">
    <inkscape:grid
       type="xygrid"
       id="grid2822" />
  </sodipodi:namedview>
  <metadata
     id="metadata4">
Valerie Sutton's pixel definition of the
ISWA 2010 symbol ID 04-02-007-01-04-01
transformed by Stephen E Slevinski Jr
using line and fill polygon tracing
<rdf:RDF>
  <cc:Work
     rdf:about="">
    <dc:format>image/svg+xml</dc:format>
    <dc:type
       rdf:resource="http://purl.org/dc/dcmitype/StillImage" />
    <dc:title />
  </cc:Work>
</rdf:RDF>
</metadata>
  <path
     style="fill:#000000;fill-opacity:1;stroke:none"
     d="m 2.525e-4,3 0,5 1.0000561,0 0,-4 4.0002245,0 0,-1 -5.0002806,0 z"
     id="path2841" />
  <path
     style="fill:#000000;fill-opacity:1;stroke:none"
     d="M 1.0503114,6.1715729 3.8788974,9 4.5860437,8.2928932 1.7574579,5.4644661 1.0503114,6.1715729 z"
     id="rect2849" />
  <path
     style="fill:#000000;fill-opacity:1;stroke:none"
     d="M 2.4646044,4.7573593 5.2931902,7.5857864 6.0003367,6.8786797 3.1717509,4.0502525 2.4646044,4.7573593 z"
     id="rect2851" />
  <path
     id="path2881"
     d="m 11.000281,6 0,-5 -1.000056,0 0,4 L 6,5 6,6 11.000281,6 z"
     style="fill:#000000;fill-opacity:1;stroke:none" />
  <path
     id="path2883"
     d="M 9.9502217,2.8284271 7.1216357,0 6.4144894,0.707107 9.2430752,3.5355339 9.9502217,2.8284271 z"
     style="fill:#000000;fill-opacity:1;stroke:none" />
  <path
     id="path2885"
     d="M 8.5359287,4.242641 5.7073429,1.4142136 5.0001964,2.1213203 7.8287822,4.949748 8.5359287,4.242641 z"
     style="fill:#000000;fill-opacity:1;stroke:none" />
  <path
     id="path2842"
     d="m 14.999972,3 0,5 1.000056,0 0,-4 4.000224,0 0,-1 -5.00028,0 z"
     style="fill:#000000;fill-opacity:1;stroke:none" />
  <path
     id="path2844"
     d="M 16.05003,6.1715729 18.878616,9 19.585763,8.2928932 16.757177,5.4644661 16.05003,6.1715729 z"
     style="fill:#000000;fill-opacity:1;stroke:none" />
  <path
     id="path2846"
     d="M 17.464323,4.7573593 20.292909,7.5857864 21.000056,6.8786797 18.17147,4.0502525 17.464323,4.7573593 z"
     style="fill:#000000;fill-opacity:1;stroke:none" />
  <path
     style="fill:#000000;fill-opacity:1;stroke:none"
     d="m 26,6 0,-5 -1.000056,0 0,4 -4.000225,0 0,1 L 26,6 z"
     id="path2848" />
  <path
     style="fill:#000000;fill-opacity:1;stroke:none"
     d="M 24.949941,2.8284271 22.121355,0 21.414208,0.707107 24.242794,3.5355339 24.949941,2.8284271 z"
     id="path2850" />
  <path
     style="fill:#000000;fill-opacity:1;stroke:none"
     d="M 23.535648,4.242641 20.707062,1.4142136 19.999915,2.1213203 22.828501,4.949748 23.535648,4.242641 z"
     id="path2852" />
</svg>
