<?xml version="1.0" encoding="UTF-8" standalone="no"?>
<svg
   xmlns:dc="http://purl.org/dc/elements/1.1/"
   xmlns:cc="http://creativecommons.org/ns#"
   xmlns:rdf="http://www.w3.org/1999/02/22-rdf-syntax-ns#"
   xmlns:svg="http://www.w3.org/2000/svg"
   xmlns="http://www.w3.org/2000/svg"
   xmlns:sodipodi="http://sodipodi.sourceforge.net/DTD/sodipodi-0.dtd"
   xmlns:inkscape="http://www.inkscape.org/namespaces/inkscape"
   version="1.0"
   width="27"
   height="8"
   id="svg2"
   inkscape:version="0.47 r22583"
   sodipodi:docname="04-02-007-03-02-01.svg">
  <defs
     id="defs14">
    <inkscape:perspective
       sodipodi:type="inkscape:persp3d"
       inkscape:vp_x="0 : 3.5 : 1"
       inkscape:vp_y="0 : 1000 : 0"
       inkscape:vp_z="7 : 3.5 : 1"
       inkscape:persp3d-origin="3.5 : 2.3333333 : 1"
       id="perspective16" />
  </defs>
  <sodipodi:namedview
     pagecolor="#ffffff"
     bordercolor="#666666"
     borderopacity="1"
     objecttolerance="10"
     gridtolerance="10"
     guidetolerance="10"
     inkscape:pageopacity="0"
     inkscape:pageshadow="2"
     inkscape:window-width="928"
     inkscape:window-height="791"
     id="namedview12"
     showgrid="true"
     inkscape:zoom="27.384518"
     inkscape:cx="14.387926"
     inkscape:cy="3.4994342"
     inkscape:window-x="273"
     inkscape:window-y="0"
     inkscape:window-maximized="0"
     inkscape:current-layer="svg2">
    <inkscape:grid
       type="xygrid"
       id="grid2822" />
  </sodipodi:namedview>
  <metadata
     id="metadata4">
Valerie Sutton's pixel definition of the
ISWA 2010 symbol ID 04-02-007-01-04-01
transformed by Stephen E Slevinski Jr
using line and fill polygon tracing
<rdf:RDF>
  <cc:Work
     rdf:about="">
    <dc:format>image/svg+xml</dc:format>
    <dc:type
       rdf:resource="http://purl.org/dc/dcmitype/StillImage" />
    <dc:title />
  </cc:Work>
</rdf:RDF>
</metadata>
  <path
     style="fill:#000000;fill-opacity:1;stroke:none"
     d="M 3.5,8 0,4.5 0.71875,3.78125 3.5,6.59375 6.28125,3.78125 7,4.5 3.5,8 z"
     id="path2841" />
  <path
     style="fill:#000000;fill-opacity:1;stroke:none"
     d="M 2,5 2,1 3,1 3,5 2,5 z"
     id="rect2849" />
  <path
     style="fill:#000000;fill-opacity:1;stroke:none"
     d="M 4,5 4,1 5,1 5,5 4,5 z"
     id="rect2851" />
  <path
     id="path3025"
     d="M 9.5,0 6,3.5 6.71875,4.21875 9.5,1.40625 12.28125,4.21875 13,3.5 9.5,0 z"
     style="fill:#000000;fill-opacity:1;stroke:none" />
  <path
     id="path3027"
     d="M 8,3 8,7 9,7 9,3 8,3 z"
     style="fill:#000000;fill-opacity:1;stroke:none" />
  <path
     id="path3029"
     d="m 10,3 0,4 1,0 0,-4 -1,0 z"
     style="fill:#000000;fill-opacity:1;stroke:none" />
  <path
     id="path3073"
     d="M 17.5,0 14,3.5 14.71875,4.21875 17.5,1.40625 20.28125,4.21875 21,3.5 17.5,0 z"
     style="fill:#000000;fill-opacity:1;stroke:none" />
  <path
     id="path3075"
     d="m 16,3 0,4 1,0 0,-4 -1,0 z"
     style="fill:#000000;fill-opacity:1;stroke:none" />
  <path
     id="path3077"
     d="m 18,3 0,4 1,0 0,-4 -1,0 z"
     style="fill:#000000;fill-opacity:1;stroke:none" />
  <path
     style="fill:#000000;fill-opacity:1;stroke:none"
     d="M 23.5,8 20,4.5 20.71875,3.78125 23.5,6.59375 26.28125,3.78125 27,4.5 23.5,8 z"
     id="path3079" />
  <path
     style="fill:#000000;fill-opacity:1;stroke:none"
     d="m 22,5 0,-4 1,0 0,4 -1,0 z"
     id="path3081" />
  <path
     style="fill:#000000;fill-opacity:1;stroke:none"
     d="m 24,5 0,-4 1,0 0,4 -1,0 z"
     id="path3083" />
</svg>
