<?xml version="1.0" encoding="UTF-8" standalone="no"?>
<svg
   xmlns:dc="http://purl.org/dc/elements/1.1/"
   xmlns:cc="http://creativecommons.org/ns#"
   xmlns:rdf="http://www.w3.org/1999/02/22-rdf-syntax-ns#"
   xmlns:svg="http://www.w3.org/2000/svg"
   xmlns="http://www.w3.org/2000/svg"
   xmlns:sodipodi="http://sodipodi.sourceforge.net/DTD/sodipodi-0.dtd"
   xmlns:inkscape="http://www.inkscape.org/namespaces/inkscape"
   version="1.0"
   width="22"
   height="11"
   id="svg2"
   inkscape:version="0.47 r22583"
   sodipodi:docname="04-02-007-03-02-02.svg">
  <defs
     id="defs14">
    <inkscape:perspective
       sodipodi:type="inkscape:persp3d"
       inkscape:vp_x="0 : 3.5 : 1"
       inkscape:vp_y="0 : 1000 : 0"
       inkscape:vp_z="7 : 3.5 : 1"
       inkscape:persp3d-origin="3.5 : 2.3333333 : 1"
       id="perspective16" />
  </defs>
  <sodipodi:namedview
     pagecolor="#ffffff"
     bordercolor="#666666"
     borderopacity="1"
     objecttolerance="10"
     gridtolerance="10"
     guidetolerance="10"
     inkscape:pageopacity="0"
     inkscape:pageshadow="2"
     inkscape:window-width="928"
     inkscape:window-height="791"
     id="namedview12"
     showgrid="true"
     inkscape:zoom="33.714286"
     inkscape:cx="10.526139"
     inkscape:cy="5.8728813"
     inkscape:window-x="273"
     inkscape:window-y="0"
     inkscape:window-maximized="0"
     inkscape:current-layer="svg2">
    <inkscape:grid
       type="xygrid"
       id="grid2822" />
  </sodipodi:namedview>
  <metadata
     id="metadata4">
Valerie Sutton's pixel definition of the
ISWA 2010 symbol ID 04-02-007-01-04-01
transformed by Stephen E Slevinski Jr
using line and fill polygon tracing
<rdf:RDF>
  <cc:Work
     rdf:about="">
    <dc:format>image/svg+xml</dc:format>
    <dc:type
       rdf:resource="http://purl.org/dc/dcmitype/StillImage" />
    <dc:title />
  </cc:Work>
</rdf:RDF>
</metadata>
  <path
     style="fill:#000000;fill-opacity:1;stroke:none"
     d="m 3.0001683,0 0,5 1.0000561,0 0,-4 4.0002245,0 0,-1 -5.0002806,0 z"
     id="path2841" />
  <path
     style="fill:#000000;fill-opacity:1;stroke:none"
     d="M 4.0502272,3.1715729 6.8788132,6 7.5859595,5.2928932 4.7573737,2.4644661 4.0502272,3.1715729 z"
     id="rect2849" />
  <path
     style="fill:#000000;fill-opacity:1;stroke:none"
     d="M 5.4645202,1.7573593 8.293106,4.5857864 9.0002525,3.8786797 6.1716667,1.0502525 5.4645202,1.7573593 z"
     id="rect2851" />
  <path
     id="path2881"
     d="m 6.0003367,11 0,-5 -1.0000561,0 0,4 -4.0002245,0 0,1 5.0002806,0 z"
     style="fill:#000000;fill-opacity:1;stroke:none" />
  <path
     id="path2883"
     d="M 4.9502778,7.8284271 2.1216918,5 1.4145455,5.7071068 4.2431313,8.5355339 4.9502778,7.8284271 z"
     style="fill:#000000;fill-opacity:1;stroke:none" />
  <path
     id="path2885"
     d="M 3.5359848,9.242641 0.70739898,6.4142136 2.525e-4,7.1213203 2.8288383,9.949748 3.5359848,9.242641 z"
     style="fill:#000000;fill-opacity:1;stroke:none" />
  <path
     id="path2943"
     d="m 15.999719,0 0,5 1.000056,0 0,-4 L 21,1 21,0 15.999719,0 z"
     style="fill:#000000;fill-opacity:1;stroke:none" />
  <path
     id="path2945"
     d="M 17.049778,3.1715729 19.878364,6 20.585511,5.2928932 17.756925,2.4644661 17.049778,3.1715729 z"
     style="fill:#000000;fill-opacity:1;stroke:none" />
  <path
     id="path2947"
     d="M 18.464071,1.7573593 21.292657,4.5857864 21.999804,3.8786797 19.171218,1.0502525 18.464071,1.7573593 z"
     style="fill:#000000;fill-opacity:1;stroke:none" />
  <path
     style="fill:#000000;fill-opacity:1;stroke:none"
     d="m 18.999888,11 0,-5 -1.000056,0 0,4 -4.000225,0 0,1 5.000281,0 z"
     id="path2949" />
  <path
     style="fill:#000000;fill-opacity:1;stroke:none"
     d="M 17.949829,7.8284271 15.121243,5 14.414096,5.7071068 17.242682,8.5355339 17.949829,7.8284271 z"
     id="path2951" />
  <path
     style="fill:#000000;fill-opacity:1;stroke:none"
     d="M 16.535536,9.242641 13.70695,6.4142136 12.999804,7.1213203 15.828389,9.949748 16.535536,9.242641 z"
     id="path2953" />
</svg>
