<?xml version="1.0" encoding="UTF-8" standalone="no"?>
<svg
   xmlns:dc="http://purl.org/dc/elements/1.1/"
   xmlns:cc="http://creativecommons.org/ns#"
   xmlns:rdf="http://www.w3.org/1999/02/22-rdf-syntax-ns#"
   xmlns:svg="http://www.w3.org/2000/svg"
   xmlns="http://www.w3.org/2000/svg"
   xmlns:sodipodi="http://sodipodi.sourceforge.net/DTD/sodipodi-0.dtd"
   xmlns:inkscape="http://www.inkscape.org/namespaces/inkscape"
   version="1.0"
   width="35"
   height="35"
   id="svg2"
   inkscape:version="0.47 r22583"
   sodipodi:docname="04-02-007-03-01-05.svg">
  <defs
     id="defs14">
    <inkscape:perspective
       sodipodi:type="inkscape:persp3d"
       inkscape:vp_x="0 : 3.5 : 1"
       inkscape:vp_y="0 : 1000 : 0"
       inkscape:vp_z="7 : 3.5 : 1"
       inkscape:persp3d-origin="3.5 : 2.3333333 : 1"
       id="perspective16" />
  </defs>
  <sodipodi:namedview
     pagecolor="#ffffff"
     bordercolor="#666666"
     borderopacity="1"
     objecttolerance="10"
     gridtolerance="10"
     guidetolerance="10"
     inkscape:pageopacity="0"
     inkscape:pageshadow="2"
     inkscape:window-width="928"
     inkscape:window-height="791"
     id="namedview12"
     showgrid="true"
     inkscape:zoom="15.722143"
     inkscape:cx="17.361523"
     inkscape:cy="17.392295"
     inkscape:window-x="273"
     inkscape:window-y="0"
     inkscape:window-maximized="0"
     inkscape:current-layer="svg2">
    <inkscape:grid
       type="xygrid"
       id="grid2822" />
  </sodipodi:namedview>
  <metadata
     id="metadata4">
Valerie Sutton's pixel definition of the
ISWA 2010 symbol ID 04-02-007-01-04-01
transformed by Stephen E Slevinski Jr
using line and fill polygon tracing
<rdf:RDF>
  <cc:Work
     rdf:about="">
    <dc:format>image/svg+xml</dc:format>
    <dc:type
       rdf:resource="http://purl.org/dc/dcmitype/StillImage" />
    <dc:title />
  </cc:Work>
</rdf:RDF>
</metadata>
  <path
     style="fill:#000000;fill-opacity:1;stroke:none"
     d="M 7.5,8 4,11.5 4.71875,12.21875 7.5,9.40625 10.28125,12.21875 11,11.5 7.5,8 z"
     id="path2841" />
  <path
     style="fill:#000000;fill-opacity:1;stroke:none"
     d="m 6,11 0,4 1,0 0,-4 -1,0 z"
     id="rect2849" />
  <path
     style="fill:#000000;fill-opacity:1;stroke:none"
     d="m 8,11 0,4 1,0 0,-4 -1,0 z"
     id="rect2851" />
  <path
     id="path3025"
     d="M 13.5,16 10,12.5 10.71875,11.78125 13.5,14.59375 16.28125,11.78125 17,12.5 13.5,16 z"
     style="fill:#000000;fill-opacity:1;stroke:none" />
  <path
     id="path3027"
     d="m 12,13 0,-4 1,0 0,4 -1,0 z"
     style="fill:#000000;fill-opacity:1;stroke:none" />
  <path
     id="path3029"
     d="m 14,13 0,-4 1,0 0,4 -1,0 z"
     style="fill:#000000;fill-opacity:1;stroke:none" />
  <path
     id="path3073"
     d="M 21.5,16 18,12.5 18.71875,11.78125 21.5,14.59375 24.28125,11.78125 25,12.5 21.5,16 z"
     style="fill:#000000;fill-opacity:1;stroke:none" />
  <path
     id="path3075"
     d="m 20,13 0,-4 1,0 0,4 -1,0 z"
     style="fill:#000000;fill-opacity:1;stroke:none" />
  <path
     id="path3077"
     d="m 22,13 0,-4 1,0 0,4 -1,0 z"
     style="fill:#000000;fill-opacity:1;stroke:none" />
  <path
     style="fill:#000000;fill-opacity:1;stroke:none"
     d="M 27.5,8 24,11.5 24.71875,12.21875 27.5,9.40625 30.28125,12.21875 31,11.5 27.5,8 z"
     id="path3079" />
  <path
     style="fill:#000000;fill-opacity:1;stroke:none"
     d="m 26,11 0,4 1,0 0,-4 -1,0 z"
     id="path3081" />
  <path
     style="fill:#000000;fill-opacity:1;stroke:none"
     d="m 28,11 0,4 1,0 0,-4 -1,0 z"
     id="path3083" />
  <path
     style="fill:#000000;fill-opacity:1;stroke:none"
     d="M 17.5,0 C 7.8350169,0 0,7.8350169 0,17.5 0,27.164983 7.8350169,35 17.5,35 27.164983,35 35,27.164983 35,17.5 35,7.8350169 27.164983,0 17.5,0 z m 0,1.5 c 8.836556,0 16,7.163444 16,16 0,8.836556 -7.163444,16 -16,16 -8.836556,0 -16,-7.163444 -16,-16 0,-8.836556 7.163444,-16 16,-16 z"
     id="path3127" />
</svg>
