<?xml version="1.0" encoding="UTF-8" standalone="no"?>
<svg
   xmlns:dc="http://purl.org/dc/elements/1.1/"
   xmlns:cc="http://creativecommons.org/ns#"
   xmlns:rdf="http://www.w3.org/1999/02/22-rdf-syntax-ns#"
   xmlns:svg="http://www.w3.org/2000/svg"
   xmlns="http://www.w3.org/2000/svg"
   xmlns:sodipodi="http://sodipodi.sourceforge.net/DTD/sodipodi-0.dtd"
   xmlns:inkscape="http://www.inkscape.org/namespaces/inkscape"
   version="1.0"
   width="41"
   height="35"
   id="svg2"
   inkscape:version="0.47 r22583"
   sodipodi:docname="04-03-005-01-02-01.svg">
  <defs
     id="defs14">
    <inkscape:perspective
       sodipodi:type="inkscape:persp3d"
       inkscape:vp_x="0 : 17.5 : 1"
       inkscape:vp_y="0 : 1000 : 0"
       inkscape:vp_z="36 : 17.5 : 1"
       inkscape:persp3d-origin="18 : 11.666667 : 1"
       id="perspective16" />
  </defs>
  <sodipodi:namedview
     pagecolor="#ffffff"
     bordercolor="#666666"
     borderopacity="1"
     objecttolerance="10"
     gridtolerance="10"
     guidetolerance="10"
     inkscape:pageopacity="0"
     inkscape:pageshadow="2"
     inkscape:window-width="993"
     inkscape:window-height="789"
     id="namedview12"
     showgrid="true"
     inkscape:zoom="15.487095"
     inkscape:cx="23.148502"
     inkscape:cy="17.483386"
     inkscape:window-x="209"
     inkscape:window-y="0"
     inkscape:window-maximized="0"
     inkscape:current-layer="svg2"
     showguides="true"
     inkscape:guide-bbox="true">
    <inkscape:grid
       type="xygrid"
       id="grid2822" />
  </sodipodi:namedview>
  <metadata
     id="metadata4">
Valerie Sutton's pixel definition of the
ISWA 2010 symbol ID 04-03-001-01-01-01
transformed by Stephen E Slevinski Jr
using line and fill polygon tracing
<rdf:RDF>
  <cc:Work
     rdf:about="">
    <dc:format>image/svg+xml</dc:format>
    <dc:type
       rdf:resource="http://purl.org/dc/dcmitype/StillImage" />
    <dc:title />
  </cc:Work>
</rdf:RDF>
</metadata>
  <path
     style="fill:#000000;fill-opacity:1;stroke:none"
     d="M 17.5 0 C 7.835017 0 1.087327e-16 7.8350169 0 17.5 C 0 27.164983 7.835017 35 17.5 35 C 21.293413 35 24.789726 33.769618 27.65625 31.71875 L 26.8125 30.5 C 24.187068 32.386061 20.979394 33.5 17.5 33.5 C 8.663444 33.5 1.5 26.336556 1.5 17.5 C 1.5 8.663444 8.663444 1.5 17.5 1.5 C 25.837199 1.5 32.658927 7.889003 33.40625 16.03125 L 34.90625 15.90625 C 34.096455 6.9929396 26.624331 0 17.5 0 z "
     id="path2824" />
  <path
     style="fill:#000000;fill-opacity:1;stroke:none"
     d="M 24 23 L 24 25 L 26 25 L 26 23 L 24 23 z M 27 23 L 27 25 L 30 25 L 30 23 L 27 23 z M 31 23 L 31 25 L 34 25 L 34 23 L 31 23 z M 35 23 L 35 25 L 38 25 L 38 23 L 35 23 z M 39 23 L 39 25 L 41 25 L 41 23 L 39 23 z "
     id="rect2816" />
  <path
     style="fill:#000000;fill-opacity:1;stroke:none"
     d="m 23.96875,25.875 -0.517638,1.931852 1.962037,0.525726 0.517638,-1.931852 L 23.96875,25.875 z m 2.927963,0.784545 -0.517638,1.931852 2.897777,0.776457 0.517638,-1.931852 -2.897777,-0.776457 z m 3.863703,1.035276 -0.517638,1.931852 2.897777,0.776457 0.517638,-1.931851 -2.897777,-0.776458 z m 3.863703,1.035277 -0.517638,1.931851 2.897778,0.776457 0.517638,-1.931851 -2.897778,-0.776457 z m 3.863704,1.035276 -0.517639,1.931851 2.505371,0.671312 0.517638,-1.931851 -2.50537,-0.671312 z"
     id="rect2818" />
  <path
     style="fill:#000000;fill-opacity:1;stroke:none"
     d="m 23.451112,20.193148 0.517638,1.931852 1.962037,-0.525726 -0.517638,-1.931852 -1.962037,0.525726 z m 2.927963,-0.784545 0.517638,1.931852 2.897777,-0.776457 -0.517638,-1.931852 -2.897777,0.776457 z m 3.863703,-1.035276 0.517638,1.931852 2.897777,-0.776458 -0.517638,-1.931851 -2.897777,0.776457 z m 3.863703,-1.035276 0.517638,1.931851 2.897778,-0.776457 -0.517638,-1.931851 -2.897778,0.776457 z m 3.863703,-1.035276 0.517639,1.931851 2.50537,-0.671312 -0.517638,-1.931851 -2.505371,0.671312 z"
     id="rect2820" />
</svg>
