<?xml version="1.0" encoding="UTF-8" standalone="no"?>
<svg
   xmlns:dc="http://purl.org/dc/elements/1.1/"
   xmlns:cc="http://creativecommons.org/ns#"
   xmlns:rdf="http://www.w3.org/1999/02/22-rdf-syntax-ns#"
   xmlns:svg="http://www.w3.org/2000/svg"
   xmlns="http://www.w3.org/2000/svg"
   xmlns:sodipodi="http://sodipodi.sourceforge.net/DTD/sodipodi-0.dtd"
   xmlns:inkscape="http://www.inkscape.org/namespaces/inkscape"
   version="1.0"
   width="47"
   height="35"
   id="svg2"
   inkscape:version="0.47 r22583"
   sodipodi:docname="04-03-005-01-01-01.svg">
  <defs
     id="defs14">
    <inkscape:perspective
       sodipodi:type="inkscape:persp3d"
       inkscape:vp_x="0 : 17.5 : 1"
       inkscape:vp_y="0 : 1000 : 0"
       inkscape:vp_z="36 : 17.5 : 1"
       inkscape:persp3d-origin="18 : 11.666667 : 1"
       id="perspective16" />
  </defs>
  <sodipodi:namedview
     pagecolor="#ffffff"
     bordercolor="#666666"
     borderopacity="1"
     objecttolerance="10"
     gridtolerance="10"
     guidetolerance="10"
     inkscape:pageopacity="0"
     inkscape:pageshadow="2"
     inkscape:window-width="993"
     inkscape:window-height="789"
     id="namedview12"
     showgrid="true"
     inkscape:zoom="15.487095"
     inkscape:cx="23.148502"
     inkscape:cy="17.283592"
     inkscape:window-x="209"
     inkscape:window-y="0"
     inkscape:window-maximized="0"
     inkscape:current-layer="svg2"
     showguides="true"
     inkscape:guide-bbox="true">
    <inkscape:grid
       type="xygrid"
       id="grid2822" />
  </sodipodi:namedview>
  <metadata
     id="metadata4">
Valerie Sutton's pixel definition of the
ISWA 2010 symbol ID 04-03-001-01-01-01
transformed by Stephen E Slevinski Jr
using line and fill polygon tracing
<rdf:RDF>
  <cc:Work
     rdf:about="">
    <dc:format>image/svg+xml</dc:format>
    <dc:type
       rdf:resource="http://purl.org/dc/dcmitype/StillImage" />
    <dc:title />
  </cc:Work>
</rdf:RDF>
</metadata>
  <path
     style="fill:#000000;fill-opacity:1;stroke:none"
     d="M 23.5 0 C 14.375669 0 6.9035451 6.9929396 6.09375 15.90625 L 7.59375 16.03125 C 8.3410732 7.889003 15.162801 1.5 23.5 1.5 C 31.837199 1.5 38.658927 7.889003 39.40625 16.03125 L 40.90625 15.90625 C 40.096455 6.9929396 32.624331 0 23.5 0 z M 14.1875 30.5 L 13.34375 31.71875 C 16.210274 33.769618 19.706587 35 23.5 35 C 27.293413 35 30.789726 33.769618 33.65625 31.71875 L 32.8125 30.5 C 30.187068 32.386061 26.979394 33.5 23.5 33.5 C 20.020606 33.5 16.812932 32.386061 14.1875 30.5 z "
     id="path2824" />
  <path
     style="fill:#000000;fill-opacity:1;stroke:none"
     d="M 30 23 L 30 25 L 32 25 L 32 23 L 30 23 z M 33 23 L 33 25 L 36 25 L 36 23 L 33 23 z M 37 23 L 37 25 L 40 25 L 40 23 L 37 23 z M 41 23 L 41 25 L 44 25 L 44 23 L 41 23 z M 45 23 L 45 25 L 47 25 L 47 23 L 45 23 z "
     id="path2864" />
  <path
     style="fill:#000000;fill-opacity:1;stroke:none"
     d="m 29.96875,25.875 -0.517638,1.931852 1.962037,0.525726 0.517638,-1.931852 L 29.96875,25.875 z m 2.927963,0.784545 -0.517638,1.931852 2.897777,0.776457 0.517638,-1.931852 -2.897777,-0.776457 z m 3.863703,1.035276 -0.517638,1.931852 2.897777,0.776457 0.517638,-1.931851 -2.897777,-0.776458 z m 3.863703,1.035277 -0.517638,1.931851 2.897778,0.776457 0.517638,-1.931851 -2.897778,-0.776457 z m 3.863704,1.035276 -0.517639,1.931851 2.505371,0.671312 0.517638,-1.931851 -2.50537,-0.671312 z"
     id="path2866" />
  <path
     style="fill:#000000;fill-opacity:1;stroke:none"
     d="m 29.451112,20.193148 0.517638,1.931852 1.962037,-0.525726 -0.517638,-1.931852 -1.962037,0.525726 z m 2.927963,-0.784545 0.517638,1.931852 2.897777,-0.776457 -0.517638,-1.931852 -2.897777,0.776457 z m 3.863703,-1.035276 0.517638,1.931852 2.897777,-0.776458 -0.517638,-1.931851 -2.897777,0.776457 z m 3.863703,-1.035276 0.517638,1.931851 2.897778,-0.776457 -0.517638,-1.931851 -2.897778,0.776457 z m 3.863703,-1.035276 0.517639,1.931851 2.50537,-0.671312 -0.517638,-1.931851 -2.505371,0.671312 z"
     id="path2868" />
  <path
     id="path2845"
     d="m 17,23 0,2 -2,0 0,-2 2,0 z m -3,0 0,2 -3,0 0,-2 3,0 z m -4,0 0,2 -3,0 0,-2 3,0 z m -4,0 0,2 -3,0 0,-2 3,0 z m -4,0 0,2 -2,0 0,-2 2,0 z"
     style="fill:#000000;fill-opacity:1;stroke:none" />
  <path
     id="path2847"
     d="m 17.03125,25.875 0.517638,1.931852 -1.962037,0.525726 L 15.069213,26.400726 17.03125,25.875 z m -2.927963,0.784545 0.517638,1.931852 -2.897777,0.776457 -0.517638,-1.931852 2.897777,-0.776457 z m -3.863703,1.035276 0.517638,1.931852 -2.897777,0.776457 -0.517638,-1.931851 2.897777,-0.776458 z m -3.863703,1.035277 0.517638,1.931851 -2.897778,0.776457 -0.517638,-1.931851 2.897778,-0.776457 z m -3.863704,1.035276 0.517639,1.931851 -2.505371,0.671312 -0.517638,-1.931851 2.50537,-0.671312 z"
     style="fill:#000000;fill-opacity:1;stroke:none" />
  <path
     id="path2849"
     d="M 17.548888,20.193148 17.03125,22.125 l -1.962037,-0.525726 0.517638,-1.931852 1.962037,0.525726 z m -2.927963,-0.784545 -0.517638,1.931852 -2.897777,-0.776457 0.517638,-1.931852 2.897777,0.776457 z m -3.863703,-1.035276 -0.517638,1.931852 -2.897777,-0.776458 0.517638,-1.931851 2.897777,0.776457 z M 6.893519,17.338051 6.375881,19.269902 3.478103,18.493445 3.995741,16.561594 6.893519,17.338051 z m -3.863703,-1.035276 -0.517639,1.931851 -2.50537,-0.671312 0.517638,-1.931851 2.505371,0.671312 z"
     style="fill:#000000;fill-opacity:1;stroke:none" />
</svg>
