<?xml version="1.0" encoding="UTF-8" standalone="no"?>
<svg
   xmlns:dc="http://purl.org/dc/elements/1.1/"
   xmlns:cc="http://creativecommons.org/ns#"
   xmlns:rdf="http://www.w3.org/1999/02/22-rdf-syntax-ns#"
   xmlns:svg="http://www.w3.org/2000/svg"
   xmlns="http://www.w3.org/2000/svg"
   xmlns:sodipodi="http://sodipodi.sourceforge.net/DTD/sodipodi-0.dtd"
   xmlns:inkscape="http://www.inkscape.org/namespaces/inkscape"
   version="1.0"
   width="47"
   height="18"
   id="svg2"
   inkscape:version="0.47 r22583"
   sodipodi:docname="04-03-005-01-03-01.svg">
  <defs
     id="defs14">
    <inkscape:perspective
       sodipodi:type="inkscape:persp3d"
       inkscape:vp_x="0 : 17.5 : 1"
       inkscape:vp_y="0 : 1000 : 0"
       inkscape:vp_z="36 : 17.5 : 1"
       inkscape:persp3d-origin="18 : 11.666667 : 1"
       id="perspective16" />
  </defs>
  <sodipodi:namedview
     pagecolor="#ffffff"
     bordercolor="#666666"
     borderopacity="1"
     objecttolerance="10"
     gridtolerance="10"
     guidetolerance="10"
     inkscape:pageopacity="0"
     inkscape:pageshadow="2"
     inkscape:window-width="993"
     inkscape:window-height="789"
     id="namedview12"
     showgrid="true"
     inkscape:zoom="15.487095"
     inkscape:cx="23.148502"
     inkscape:cy="9.1662025"
     inkscape:window-x="209"
     inkscape:window-y="0"
     inkscape:window-maximized="0"
     inkscape:current-layer="svg2"
     showguides="true"
     inkscape:guide-bbox="true">
    <inkscape:grid
       type="xygrid"
       id="grid2822" />
  </sodipodi:namedview>
  <metadata
     id="metadata4">
Valerie Sutton's pixel definition of the
ISWA 2010 symbol ID 04-03-001-01-01-01
transformed by Stephen E Slevinski Jr
using line and fill polygon tracing
<rdf:RDF>
  <cc:Work
     rdf:about="">
    <dc:format>image/svg+xml</dc:format>
    <dc:type
       rdf:resource="http://purl.org/dc/dcmitype/StillImage" />
    <dc:title></dc:title>
  </cc:Work>
</rdf:RDF>
</metadata>
  <path
     style="fill:#000000;fill-opacity:1;stroke:none"
     d="m 17,8 0,2 -2,0 0,-2 2,0 z m -3,0 0,2 -3,0 0,-2 3,0 z m -4,0 0,2 -3,0 0,-2 3,0 z M 6,8 6,10 3,10 3,8 6,8 z M 2,8 2,10 0,10 0,8 2,8 z"
     id="rect2816" />
  <path
     style="fill:#000000;fill-opacity:1;stroke:none"
     d="m 17.03125,10.875 0.517638,1.931852 -1.962037,0.525726 L 15.069213,11.400726 17.03125,10.875 z m -2.927963,0.784545 0.517638,1.931852 -2.897777,0.776457 -0.517638,-1.931852 2.897777,-0.776457 z m -3.863703,1.035276 0.517638,1.931852 -2.897777,0.776457 -0.517638,-1.931851 2.897777,-0.776458 z m -3.863703,1.035277 0.517638,1.931851 -2.897778,0.776457 -0.517638,-1.931851 2.897778,-0.776457 z m -3.863704,1.035276 0.517639,1.931851 -2.505371,0.671312 -0.517638,-1.931851 2.50537,-0.671312 z"
     id="rect2818" />
  <path
     style="fill:#000000;fill-opacity:1;stroke:none"
     d="M 17.548888,5.193148 17.03125,7.125 15.069213,6.599274 15.586851,4.667422 17.548888,5.193148 z M 14.620925,4.408603 14.103287,6.340455 11.20551,5.563998 11.723148,3.632146 14.620925,4.408603 z M 10.757222,3.373327 10.239584,5.305179 7.341807,4.528721 7.859445,2.59687 10.757222,3.373327 z M 6.893519,2.338051 6.375881,4.269902 3.478103,3.493445 3.995741,1.561594 6.893519,2.338051 z M 3.029816,1.302775 2.512177,3.234626 0.006807,2.563314 0.524445,0.631463 3.029816,1.302775 z"
     id="rect2820" />
  <path
     id="path2875"
     d="m 30,8 0,2 2,0 0,-2 -2,0 z m 3,0 0,2 3,0 0,-2 -3,0 z m 4,0 0,2 3,0 0,-2 -3,0 z m 4,0 0,2 3,0 0,-2 -3,0 z m 4,0 0,2 2,0 0,-2 -2,0 z"
     style="fill:#000000;fill-opacity:1;stroke:none" />
  <path
     id="path2877"
     d="m 29.96875,10.875 -0.517638,1.931852 1.962037,0.525726 0.517638,-1.931852 L 29.96875,10.875 z m 2.927963,0.784545 -0.517638,1.931852 2.897777,0.776457 0.517638,-1.931852 -2.897777,-0.776457 z m 3.863703,1.035276 -0.517638,1.931852 2.897777,0.776457 0.517638,-1.931851 -2.897777,-0.776458 z m 3.863703,1.035277 -0.517638,1.931851 2.897778,0.776457 0.517638,-1.931851 -2.897778,-0.776457 z m 3.863704,1.035276 -0.517639,1.931851 2.505371,0.671312 0.517638,-1.931851 -2.50537,-0.671312 z"
     style="fill:#000000;fill-opacity:1;stroke:none" />
  <path
     id="path2879"
     d="M 29.451112,5.193148 29.96875,7.125 31.930787,6.599274 31.413149,4.667422 29.451112,5.193148 z M 32.379075,4.408603 32.896713,6.340455 35.79449,5.563998 35.276852,3.632146 32.379075,4.408603 z M 36.242778,3.373327 36.760416,5.305179 39.658193,4.528721 39.140555,2.59687 36.242778,3.373327 z m 3.863703,-1.035276 0.517638,1.931851 2.897778,-0.776457 -0.517638,-1.931851 -2.897778,0.776457 z m 3.863703,-1.035276 0.517639,1.931851 2.50537,-0.671312 -0.517638,-1.931851 -2.505371,0.671312 z"
     style="fill:#000000;fill-opacity:1;stroke:none" />
</svg>
