<?xml version="1.0" encoding="UTF-8" standalone="no"?>
<svg
   xmlns:dc="http://purl.org/dc/elements/1.1/"
   xmlns:cc="http://creativecommons.org/ns#"
   xmlns:rdf="http://www.w3.org/1999/02/22-rdf-syntax-ns#"
   xmlns:svg="http://www.w3.org/2000/svg"
   xmlns="http://www.w3.org/2000/svg"
   xmlns:sodipodi="http://sodipodi.sourceforge.net/DTD/sodipodi-0.dtd"
   xmlns:inkscape="http://www.inkscape.org/namespaces/inkscape"
   version="1.0"
   width="35"
   height="35"
   id="svg2"
   inkscape:version="0.47 r22583"
   sodipodi:docname="04-03-001-02-03-01.svg">
  <defs
     id="defs14">
    <inkscape:perspective
       sodipodi:type="inkscape:persp3d"
       inkscape:vp_x="0 : 17.5 : 1"
       inkscape:vp_y="0 : 1000 : 0"
       inkscape:vp_z="36 : 17.5 : 1"
       inkscape:persp3d-origin="18 : 11.666667 : 1"
       id="perspective16" />
  </defs>
  <sodipodi:namedview
     pagecolor="#ffffff"
     bordercolor="#666666"
     borderopacity="1"
     objecttolerance="10"
     gridtolerance="10"
     guidetolerance="10"
     inkscape:pageopacity="0"
     inkscape:pageshadow="2"
     inkscape:window-width="993"
     inkscape:window-height="789"
     id="namedview12"
     showgrid="true"
     inkscape:zoom="15.487127"
     inkscape:cx="18"
     inkscape:cy="17.5"
     inkscape:window-x="209"
     inkscape:window-y="0"
     inkscape:window-maximized="0"
     inkscape:current-layer="svg2">
    <inkscape:grid
       type="xygrid"
       id="grid2822" />
  </sodipodi:namedview>
  <metadata
     id="metadata4">
Valerie Sutton's pixel definition of the
ISWA 2010 symbol ID 04-03-001-01-01-01
transformed by Stephen E Slevinski Jr
using line and fill polygon tracing
<rdf:RDF>
  <cc:Work
     rdf:about="">
    <dc:format>image/svg+xml</dc:format>
    <dc:type
       rdf:resource="http://purl.org/dc/dcmitype/StillImage" />
    <dc:title></dc:title>
  </cc:Work>
</rdf:RDF>
</metadata>
  <path
     style="fill:#000000;fill-opacity:1;stroke:none"
     d="M 17.5,0 C 7.8350169,0 0,7.8350169 0,17.5 0,27.164983 7.8350169,35 17.5,35 27.164983,35 35,27.164983 35,17.5 35,7.8350169 27.164983,0 17.5,0 z m 0,1.5 c 8.836556,0 16,7.163444 16,16 0,8.836556 -7.163444,16 -16,16 -8.836556,0 -16,-7.163444 -16,-16 0,-8.836556 7.163444,-16 16,-16 z"
     id="path2824" />
  <path
     style="fill:#000000;fill-opacity:1;stroke:none"
     d="M 32.374314,8.40625 C 28.76223,9.3220701 26,12.936914 26,17.5 c 0,4.563086 2.76223,8.17793 6.374314,9.09375 1.720264,-2.753771 2.46006,-5.880594 2.624718,-9.09375 0.0383,-3.255115 -1.06327,-6.294763 -2.624718,-9.09375 z m -0.718672,1.78125 c 1.267764,2.264571 1.713568,4.754951 1.843551,7.3125 0.04835,2.599568 -0.752465,4.998794 -1.843551,7.3125 -2.425752,-1.135829 -4.155803,-3.923875 -4.155803,-7.3125 0,-3.388625 1.730051,-6.176671 4.155803,-7.3125 z"
     id="path2815" />
  <path
     style="fill:#000000;fill-opacity:1;stroke:none"
     d="M 2.625686,8.40625 C 0.94838451,11.163582 0.24379223,14.312179 9.6836196e-4,17.5 -0.03733047,20.755115 1.0642374,23.794763 2.625686,26.59375 7.0059162,25.95225 9,21.201905 9,17.5 9,13.798095 6.8386026,9.2092801 2.625686,8.40625 z m 0.7811659,1.6875 c 2.394168,1.179611 4.0933095,4.037956 4.0933095,7.40625 0,3.368294 -1.6991415,6.226639 -4.0933095,7.40625 C 2.2308533,22.678785 1.500807,20.194097 1.500807,17.5 c 0,-2.694097 0.7300463,-5.178785 1.9060449,-7.40625 z"
     id="path3023" />
</svg>
