<?xml version="1.0" encoding="UTF-8" standalone="no"?>
<svg
   xmlns:dc="http://purl.org/dc/elements/1.1/"
   xmlns:cc="http://creativecommons.org/ns#"
   xmlns:rdf="http://www.w3.org/1999/02/22-rdf-syntax-ns#"
   xmlns:svg="http://www.w3.org/2000/svg"
   xmlns="http://www.w3.org/2000/svg"
   xmlns:sodipodi="http://sodipodi.sourceforge.net/DTD/sodipodi-0.dtd"
   xmlns:inkscape="http://www.inkscape.org/namespaces/inkscape"
   version="1.0"
   width="20"
   height="19"
   id="svg2"
   inkscape:version="0.47 r22583"
   sodipodi:docname="02-06-008-01-06-02.svg">
  <defs
     id="defs16">
    <inkscape:perspective
       sodipodi:type="inkscape:persp3d"
       inkscape:vp_x="0 : 23 : 1"
       inkscape:vp_y="0 : 1000 : 0"
       inkscape:vp_z="36 : 23 : 1"
       inkscape:persp3d-origin="18 : 15.333333 : 1"
       id="perspective18" />
  </defs>
  <sodipodi:namedview
     pagecolor="#ffffff"
     bordercolor="#666666"
     borderopacity="1"
     objecttolerance="10"
     gridtolerance="10"
     guidetolerance="10"
     inkscape:pageopacity="0"
     inkscape:pageshadow="2"
     inkscape:window-width="964"
     inkscape:window-height="721"
     id="namedview14"
     showgrid="true"
     inkscape:zoom="16.421381"
     inkscape:cx="10.001162"
     inkscape:cy="9.5011043"
     inkscape:window-x="365"
     inkscape:window-y="0"
     inkscape:window-maximized="0"
     inkscape:current-layer="svg2"
     showborder="true">
    <inkscape:grid
       type="xygrid"
       id="grid2824"
       empspacing="5"
       visible="true"
       enabled="true"
       snapvisiblegridlinesonly="true" />
  </sodipodi:namedview>
  <metadata
     id="metadata4">
Valerie Sutton's pixel definition of the
ISWA 2010 symbol ID 04-01-003-01-01-01
transformed by Stephen E Slevinski Jr
using line and fill polygon tracing
<rdf:RDF>
  <cc:Work
     rdf:about="">
    <dc:format>image/svg+xml</dc:format>
    <dc:type
       rdf:resource="http://purl.org/dc/dcmitype/StillImage" />
    <dc:title></dc:title>
  </cc:Work>
</rdf:RDF>
</metadata>
  <path
     style="fill:#000000;fill-opacity:1;stroke:none"
     d="M 0 13 L 6 19 L 12 13 L 0 13 z M 2.4375 14 L 9.5625 14 L 6 17.5625 L 2.4375 14 z "
     id="path2964" />
  <path
     style="fill:#000000;fill-opacity:1;stroke:none"
     d="M 13 0 C 7.7532949 0 3.5 4.2532949 3.5 9.5 L 3.5 13 L 4.5 13 L 4.5 9.5 C 4.5 4.8055796 8.3055796 1 13 1 L 20 1 L 20 0 L 13 0 z "
     id="path2837" />
  <path
     style="fill:#ffffff;fill-opacity:1;stroke:none"
     d="M 13 1 C 8.3055796 1 4.5 4.8055796 4.5 9.5 L 4.5 13 L 7.5 13 L 7.5 9.5 C 7.5 6.4624339 9.962434 4 13 4 L 20 4 L 20 1 L 13 1 z "
     id="path2839" />
  <path
     style="fill:#000000;fill-opacity:1;stroke:none"
     d="M 13 4 C 9.962434 4 7.5 6.4624339 7.5 9.5 L 7.5 13 L 8.5 13 L 8.5 9.5 C 8.5 7.0147186 10.514719 5 13 5 L 20 5 L 20 4 L 13 4 z "
     id="path2847" />
  <path
     style="fill:#ffffff;fill-opacity:1;stroke:none"
     d="M 2.4375 14 L 6 17.5625 L 9.5625 14 L 2.4375 14 z "
     id="path2965" />
</svg>
