<?xml version="1.0" encoding="UTF-8" standalone="no"?>
<svg
   xmlns:dc="http://purl.org/dc/elements/1.1/"
   xmlns:cc="http://creativecommons.org/ns#"
   xmlns:rdf="http://www.w3.org/1999/02/22-rdf-syntax-ns#"
   xmlns:svg="http://www.w3.org/2000/svg"
   xmlns="http://www.w3.org/2000/svg"
   xmlns:sodipodi="http://sodipodi.sourceforge.net/DTD/sodipodi-0.dtd"
   xmlns:inkscape="http://www.inkscape.org/namespaces/inkscape"
   version="1.0"
   width="23"
   height="28"
   id="svg2"
   inkscape:version="0.47 r22583"
   sodipodi:docname="02-06-008-01-03-13.svg">
  <defs
     id="defs16">
    <inkscape:perspective
       sodipodi:type="inkscape:persp3d"
       inkscape:vp_x="0 : 23 : 1"
       inkscape:vp_y="0 : 1000 : 0"
       inkscape:vp_z="36 : 23 : 1"
       inkscape:persp3d-origin="18 : 15.333333 : 1"
       id="perspective18" />
  </defs>
  <sodipodi:namedview
     pagecolor="#ffffff"
     bordercolor="#666666"
     borderopacity="1"
     objecttolerance="10"
     gridtolerance="10"
     guidetolerance="10"
     inkscape:pageopacity="0"
     inkscape:pageshadow="2"
     inkscape:window-width="964"
     inkscape:window-height="721"
     id="namedview14"
     showgrid="true"
     inkscape:zoom="16.892857"
     inkscape:cx="11.5"
     inkscape:cy="14"
     inkscape:window-x="365"
     inkscape:window-y="0"
     inkscape:window-maximized="0"
     inkscape:current-layer="svg2"
     showborder="true">
    <inkscape:grid
       type="xygrid"
       id="grid2824"
       empspacing="5"
       visible="true"
       enabled="true"
       snapvisiblegridlinesonly="true" />
  </sodipodi:namedview>
  <metadata
     id="metadata4">
Valerie Sutton's pixel definition of the
ISWA 2010 symbol ID 04-01-003-01-01-01
transformed by Stephen E Slevinski Jr
using line and fill polygon tracing
<rdf:RDF>
  <cc:Work
     rdf:about="">
    <dc:format>image/svg+xml</dc:format>
    <dc:type
       rdf:resource="http://purl.org/dc/dcmitype/StillImage" />
    <dc:title />
  </cc:Work>
</rdf:RDF>
</metadata>
  <path
     style="fill:#000000;fill-opacity:1;stroke:none"
     d="M 0 8 L 0 18 L 1.5 16.5 L 1.5 9.5 L 8.5 9.5 L 10 8 L 0 8 z "
     id="path2964" />
  <path
     style="fill:#000000;fill-opacity:1;stroke:none"
     d="M 12.5,20 C 9.876648,20 7.500411,18.937912 5.78125,17.21875 l -2.5,-2.5 L 4,14 6.5,16.5 c 1.538198,1.538198 3.65279,2.5 6,2.5 2.34721,0 4.461802,-0.961802 6,-2.5 l 3.8125,-3.78125 0.6875,0.6875 -3.78125,3.8125 C 17.499589,18.937912 15.123352,20 12.5,20 z"
     id="path2817" />
  <path
     style="fill:#000000;fill-opacity:1;stroke:none"
     d="M 12.5,16 C 10.981217,16 9.620304,15.370305 8.625,14.375 l -2.5,-2.5 0.6875,-0.6875 2.5,2.5 C 10.12684,14.50184 11.257359,15 12.5,15 c 1.242641,0 2.373159,-0.498159 3.1875,-1.3125 L 19.46875,9.875 20.1875,10.59375 16.375,14.375 C 15.379696,15.370305 14.018783,16 12.5,16 z"
     id="path2824" />
  <path
     style="fill:#ffffff;fill-opacity:1;stroke:none"
     d="m 20.1875,10.59375 2.125,2.125 L 18.5,16.5 c -1.20312,1.20312 -2.756131,2.030302 -4.5,2.34375 L 14,20 13,20 13,18.96875 C 12.834686,18.978442 12.667818,19 12.5,19 12.332182,19 12.165314,18.97844 12,18.96875 L 12,20 11,20 11,18.84375 C 9.256131,18.530302 7.70312,17.70312 6.5,16.5 L 4,14 l 2.125,-2.125 2.5,2.5 c 0.651435,0.651435 1.468571,1.142099 2.375,1.40625 l 0,-1.0625 1,0.25 0,1 C 12.164632,15.983947 12.331181,16 12.5,16 c 0.168819,0 0.335368,-0.01605 0.5,-0.03125 l 0,-1 1,-0.25 0,1.0625 c 0.906429,-0.264151 1.723565,-0.754815 2.375,-1.40625 l 3.8125,-3.78125 z"
     id="path2819" />
  <path
     style="fill:#000000;fill-opacity:1;stroke:none"
     d="m 12,28 0,-28 1,0 0,28 -1,0 z"
     id="path2831" />
</svg>
