<?xml version="1.0" encoding="UTF-8" standalone="no"?>
<svg
   xmlns:dc="http://purl.org/dc/elements/1.1/"
   xmlns:cc="http://creativecommons.org/ns#"
   xmlns:rdf="http://www.w3.org/1999/02/22-rdf-syntax-ns#"
   xmlns:svg="http://www.w3.org/2000/svg"
   xmlns="http://www.w3.org/2000/svg"
   xmlns:sodipodi="http://sodipodi.sourceforge.net/DTD/sodipodi-0.dtd"
   xmlns:inkscape="http://www.inkscape.org/namespaces/inkscape"
   version="1.0"
   width="22"
   height="11"
   id="svg2"
   inkscape:version="0.47 r22583"
   sodipodi:docname="02-06-008-01-04-05.svg">
  <defs
     id="defs16">
    <inkscape:perspective
       sodipodi:type="inkscape:persp3d"
       inkscape:vp_x="0 : 23 : 1"
       inkscape:vp_y="0 : 1000 : 0"
       inkscape:vp_z="36 : 23 : 1"
       inkscape:persp3d-origin="18 : 15.333333 : 1"
       id="perspective18" />
  </defs>
  <sodipodi:namedview
     pagecolor="#ffffff"
     bordercolor="#666666"
     borderopacity="1"
     objecttolerance="10"
     gridtolerance="10"
     guidetolerance="10"
     inkscape:pageopacity="0"
     inkscape:pageshadow="2"
     inkscape:window-width="964"
     inkscape:window-height="721"
     id="namedview14"
     showgrid="true"
     inkscape:zoom="17.084069"
     inkscape:cx="11.001198"
     inkscape:cy="5.500599"
     inkscape:window-x="365"
     inkscape:window-y="0"
     inkscape:window-maximized="0"
     inkscape:current-layer="svg2"
     showborder="true">
    <inkscape:grid
       type="xygrid"
       id="grid2824"
       empspacing="5"
       visible="true"
       enabled="true"
       snapvisiblegridlinesonly="true" />
  </sodipodi:namedview>
  <metadata
     id="metadata4">
Valerie Sutton's pixel definition of the
ISWA 2010 symbol ID 04-01-003-01-01-01
transformed by Stephen E Slevinski Jr
using line and fill polygon tracing
<rdf:RDF>
  <cc:Work
     rdf:about="">
    <dc:format>image/svg+xml</dc:format>
    <dc:type
       rdf:resource="http://purl.org/dc/dcmitype/StillImage" />
    <dc:title></dc:title>
  </cc:Work>
</rdf:RDF>
</metadata>
  <path
     style="fill:#000000;fill-opacity:1;stroke:none"
     d="M 0,8 0,0 8,0 0,8 z"
     id="path2964" />
  <path
     style="fill:#000000;fill-opacity:1;stroke:none"
     d="M 11.5,11 C 8.876648,11 6.500411,9.937912 4.78125,8.21875 l -2.5,-2.5 L 3,5 5.5,7.5 c 1.538198,1.538198 3.65279,2.5 6,2.5 2.34721,0 4.461802,-0.961802 6,-2.5 L 21.3125,3.71875 22,4.40625 18.21875,8.21875 C 16.499589,9.937912 14.123352,11 11.5,11 z"
     id="path2817" />
  <path
     style="fill:#ffffff;fill-opacity:1;stroke:none"
     d="M 11.5,10 C 9.15279,10 7.038198,9.038198 5.5,7.5 L 3,5 5.125,2.875 l 2.5,2.5 C 8.620304,6.370305 9.981217,7 11.5,7 13.018783,7 14.379696,6.370305 15.375,5.375 l 3.8125,-3.78125 2.125,2.125 L 17.5,7.5 c -1.538198,1.538198 -3.652789,2.499999 -6,2.5 z"
     id="path2819" />
  <path
     style="fill:#000000;fill-opacity:1;stroke:none"
     d="M 11.5,7 C 9.981217,7 8.620304,6.370305 7.625,5.375 l -2.5,-2.5 0.6875,-0.6875 2.5,2.5 C 9.12684,5.50184 10.257359,6 11.5,6 12.742641,6 13.873159,5.501841 14.6875,4.6875 L 18.46875,0.875 19.1875,1.59375 15.375,5.375 C 14.379696,6.370305 13.018783,7 11.5,7 z"
     id="path2824" />
</svg>
