<?xml version="1.0" encoding="UTF-8" standalone="no"?>
<svg
   xmlns:dc="http://purl.org/dc/elements/1.1/"
   xmlns:cc="http://creativecommons.org/ns#"
   xmlns:rdf="http://www.w3.org/1999/02/22-rdf-syntax-ns#"
   xmlns:svg="http://www.w3.org/2000/svg"
   xmlns="http://www.w3.org/2000/svg"
   xmlns:sodipodi="http://sodipodi.sourceforge.net/DTD/sodipodi-0.dtd"
   xmlns:inkscape="http://www.inkscape.org/namespaces/inkscape"
   version="1.0"
   width="21"
   height="29"
   id="svg2"
   inkscape:version="0.47 r22583"
   sodipodi:docname="02-06-008-01-01-03.svg">
  <defs
     id="defs16">
    <inkscape:perspective
       sodipodi:type="inkscape:persp3d"
       inkscape:vp_x="0 : 23 : 1"
       inkscape:vp_y="0 : 1000 : 0"
       inkscape:vp_z="36 : 23 : 1"
       inkscape:persp3d-origin="18 : 15.333333 : 1"
       id="perspective18" />
  </defs>
  <sodipodi:namedview
     pagecolor="#ffffff"
     bordercolor="#666666"
     borderopacity="1"
     objecttolerance="10"
     gridtolerance="10"
     guidetolerance="10"
     inkscape:pageopacity="0"
     inkscape:pageshadow="2"
     inkscape:window-width="964"
     inkscape:window-height="721"
     id="namedview14"
     showgrid="true"
     inkscape:zoom="16.310345"
     inkscape:cx="10.5"
     inkscape:cy="14.5"
     inkscape:window-x="365"
     inkscape:window-y="0"
     inkscape:window-maximized="0"
     inkscape:current-layer="svg2"
     showborder="true">
    <inkscape:grid
       type="xygrid"
       id="grid2824"
       empspacing="5"
       visible="true"
       enabled="true"
       snapvisiblegridlinesonly="true" />
  </sodipodi:namedview>
  <metadata
     id="metadata4">
Valerie Sutton's pixel definition of the
ISWA 2010 symbol ID 04-01-003-01-01-01
transformed by Stephen E Slevinski Jr
using line and fill polygon tracing
<rdf:RDF>
  <cc:Work
     rdf:about="">
    <dc:format>image/svg+xml</dc:format>
    <dc:type
       rdf:resource="http://purl.org/dc/dcmitype/StillImage" />
    <dc:title></dc:title>
  </cc:Work>
</rdf:RDF>
</metadata>
  <path
     style="fill:#000000;fill-opacity:1;stroke:none"
     d="m 13,29 0,-29 -1,0 0,29 1,0 z"
     id="path2831" />
  <path
     style="fill:#000000;fill-opacity:1;stroke:none"
     d="M 13.5,5 C 17.642136,5 21,8.357864 21,12.5 21,16.642136 17.642136,20 13.5,20 L 6,20 6,19 13.5,19 C 17.089851,19 20,16.089851 20,12.5 20,8.910149 17.089851,6 13.5,6 L 5,6 5,5 13.5,5 z"
     id="path2817" />
  <path
     style="fill:#000000;fill-opacity:1;stroke:none"
     d="m 13.5,8 c 2.485281,0 4.5,2.014719 4.5,4.5 0,2.485281 -2.014719,4.5 -4.5,4.5 L 6,17 6,16 13.5,16 C 15.432997,16 17,14.432997 17,12.5 17,10.567003 15.432997,9 13.5,9 L 5,9 5,8 13.5,8 z"
     id="path2824" />
  <path
     style="fill:#ffffff;fill-opacity:1;stroke:none"
     d="m 13.5,6 c 3.589851,0 6.5,2.910149 6.5,6.5 0,3.418785 -2.647731,6.209437 -6,6.46875 l 0,1.0625 L 13,20 l 0,-4 1,-0.03125 0,0.96875 C 16.246085,16.685111 18,14.813504 18,12.5 18,10.014719 15.985281,8 13.5,8 L 5,8 5,6 13.5,6 z m -1.5,10 0,4 -1,0 0,-1 -5,0 0,-2 5,0 0,-1 1,0 z"
     id="path2819" />
  <path
     style="fill:#000000;fill-opacity:1;stroke:none"
     d="M 6,12 0,18 6,24 6,12 z"
     id="path2843" />
</svg>
