<?xml version="1.0" encoding="UTF-8" standalone="no"?>
<svg
   xmlns:dc="http://purl.org/dc/elements/1.1/"
   xmlns:cc="http://creativecommons.org/ns#"
   xmlns:rdf="http://www.w3.org/1999/02/22-rdf-syntax-ns#"
   xmlns:svg="http://www.w3.org/2000/svg"
   xmlns="http://www.w3.org/2000/svg"
   xmlns:sodipodi="http://sodipodi.sourceforge.net/DTD/sodipodi-0.dtd"
   xmlns:inkscape="http://www.inkscape.org/namespaces/inkscape"
   version="1.0"
   width="11"
   height="22"
   id="svg2"
   inkscape:version="0.47 r22583"
   sodipodi:docname="02-06-008-01-06-07.svg">
  <defs
     id="defs16">
    <inkscape:perspective
       sodipodi:type="inkscape:persp3d"
       inkscape:vp_x="0 : 23 : 1"
       inkscape:vp_y="0 : 1000 : 0"
       inkscape:vp_z="36 : 23 : 1"
       inkscape:persp3d-origin="18 : 15.333333 : 1"
       id="perspective18" />
  </defs>
  <sodipodi:namedview
     pagecolor="#ffffff"
     bordercolor="#666666"
     borderopacity="1"
     objecttolerance="10"
     gridtolerance="10"
     guidetolerance="10"
     inkscape:pageopacity="0"
     inkscape:pageshadow="2"
     inkscape:window-width="964"
     inkscape:window-height="721"
     id="namedview14"
     showgrid="true"
     inkscape:zoom="16.300086"
     inkscape:cx="5.5"
     inkscape:cy="11"
     inkscape:window-x="365"
     inkscape:window-y="0"
     inkscape:window-maximized="0"
     inkscape:current-layer="svg2"
     showborder="true">
    <inkscape:grid
       type="xygrid"
       id="grid2824"
       empspacing="5"
       visible="true"
       enabled="true"
       snapvisiblegridlinesonly="true" />
  </sodipodi:namedview>
  <metadata
     id="metadata4">
Valerie Sutton's pixel definition of the
ISWA 2010 symbol ID 04-01-003-01-01-01
transformed by Stephen E Slevinski Jr
using line and fill polygon tracing
<rdf:RDF>
  <cc:Work
     rdf:about="">
    <dc:format>image/svg+xml</dc:format>
    <dc:type
       rdf:resource="http://purl.org/dc/dcmitype/StillImage" />
    <dc:title></dc:title>
  </cc:Work>
</rdf:RDF>
</metadata>
  <path
     style="fill:#000000;fill-opacity:1;stroke:none"
     d="M 3,0 11,0 11,8 10,7 10,1 4,1 3,0 z"
     id="path2964" />
  <path
     style="fill:#000000;fill-opacity:1;stroke:none"
     d="M 0,11.5 C 0,8.876648 1.062088,6.500411 2.78125,4.78125 l 2.5,-2.5 L 6,3 3.5,5.5 C 1.961802,7.038198 1,9.15279 1,11.5 c 0,2.34721 0.961802,4.461802 2.5,6 L 7.28125,21.3125 6.59375,22 2.78125,18.21875 C 1.062088,16.499589 0,14.123352 0,11.5 z"
     id="path2817" />
  <path
     style="fill:#ffffff;fill-opacity:1;stroke:none"
     d="M 1,11.5 C 1,9.15279 1.961802,7.038198 3.5,5.5 L 6,3 l 2.125,2.125 -2.5,2.5 C 4.629695,8.620304 4,9.981217 4,11.5 c 0,1.518783 0.629695,2.879696 1.625,3.875 l 3.78125,3.8125 -2.125,2.125 L 3.5,17.5 C 1.961802,15.961802 1.000001,13.847211 1,11.5 z"
     id="path2819" />
  <path
     style="fill:#000000;fill-opacity:1;stroke:none"
     d="M 4,11.5 C 4,9.981217 4.629695,8.620304 5.625,7.625 l 2.5,-2.5 0.6875,0.6875 -2.5,2.5 C 5.49816,9.12684 5,10.257359 5,11.5 c 0,1.242641 0.498159,2.373159 1.3125,3.1875 L 10.125,18.46875 9.40625,19.1875 5.625,15.375 C 4.629695,14.379696 4,13.018783 4,11.5 z"
     id="path2824" />
</svg>
