<?xml version="1.0" encoding="UTF-8" standalone="no"?>
<svg
   xmlns:dc="http://purl.org/dc/elements/1.1/"
   xmlns:cc="http://creativecommons.org/ns#"
   xmlns:rdf="http://www.w3.org/1999/02/22-rdf-syntax-ns#"
   xmlns:svg="http://www.w3.org/2000/svg"
   xmlns="http://www.w3.org/2000/svg"
   xmlns:sodipodi="http://sodipodi.sourceforge.net/DTD/sodipodi-0.dtd"
   xmlns:inkscape="http://www.inkscape.org/namespaces/inkscape"
   version="1.0"
   width="23"
   height="28"
   id="svg2"
   inkscape:version="0.47 r22583"
   sodipodi:docname="02-06-008-01-01-05.svg">
  <defs
     id="defs16">
    <inkscape:perspective
       sodipodi:type="inkscape:persp3d"
       inkscape:vp_x="0 : 23 : 1"
       inkscape:vp_y="0 : 1000 : 0"
       inkscape:vp_z="36 : 23 : 1"
       inkscape:persp3d-origin="18 : 15.333333 : 1"
       id="perspective18" />
  </defs>
  <sodipodi:namedview
     pagecolor="#ffffff"
     bordercolor="#666666"
     borderopacity="1"
     objecttolerance="10"
     gridtolerance="10"
     guidetolerance="10"
     inkscape:pageopacity="0"
     inkscape:pageshadow="2"
     inkscape:window-width="964"
     inkscape:window-height="721"
     id="namedview14"
     showgrid="true"
     inkscape:zoom="16.892857"
     inkscape:cx="11.5"
     inkscape:cy="14"
     inkscape:window-x="365"
     inkscape:window-y="0"
     inkscape:window-maximized="0"
     inkscape:current-layer="svg2"
     showborder="true">
    <inkscape:grid
       type="xygrid"
       id="grid2824"
       empspacing="5"
       visible="true"
       enabled="true"
       snapvisiblegridlinesonly="true" />
  </sodipodi:namedview>
  <metadata
     id="metadata4">
Valerie Sutton's pixel definition of the
ISWA 2010 symbol ID 04-01-003-01-01-01
transformed by Stephen E Slevinski Jr
using line and fill polygon tracing
<rdf:RDF>
  <cc:Work
     rdf:about="">
    <dc:format>image/svg+xml</dc:format>
    <dc:type
       rdf:resource="http://purl.org/dc/dcmitype/StillImage" />
    <dc:title></dc:title>
  </cc:Work>
</rdf:RDF>
</metadata>
  <path
     style="fill:#000000;fill-opacity:1;stroke:none"
     d="M 13 8 L 23 18 L 23 8 L 13 8 z M 15.4375 9 L 22 9 L 22 15.59375 L 15.4375 9 z "
     id="path2964" />
  <path
     style="fill:#000000;fill-opacity:1;stroke:none"
     d="m 10.5,20 c 2.623352,0 4.999589,-1.062088 6.71875,-2.78125 l 2.5,-2.5 L 19,14 16.5,16.5 c -1.538198,1.538198 -3.65279,2.5 -6,2.5 -2.34721,0 -4.461802,-0.961802 -6,-2.5 L 0.6875,12.71875 0,13.40625 3.78125,17.21875 C 5.500411,18.937912 7.876648,20 10.5,20 z"
     id="path2817" />
  <path
     style="fill:#000000;fill-opacity:1;stroke:none"
     d="m 10.5,16 c 1.518783,0 2.879696,-0.629695 3.875,-1.625 l 2.5,-2.5 -0.6875,-0.6875 -2.5,2.5 C 12.87316,14.50184 11.742641,15 10.5,15 9.257359,15 8.126841,14.501841 7.3125,13.6875 L 3.53125,9.875 2.8125,10.59375 6.625,14.375 C 7.620304,15.370305 8.981217,16 10.5,16 z"
     id="path2824" />
  <path
     style="fill:#ffffff;fill-opacity:1;stroke:none"
     d="M 2.8125 10.59375 L 0.6875 12.71875 L 4.5 16.5 C 5.7031197 17.70312 7.2561306 18.530302 9 18.84375 L 9 20 L 10 20 L 10 18.96875 C 10.165314 18.978442 10.332182 19 10.5 19 C 10.667818 19 10.834686 18.97844 11 18.96875 L 11 20 L 12 20 L 12 18.84375 C 13.743869 18.530302 15.29688 17.70312 16.5 16.5 L 19 14 L 16.875 11.875 L 14.375 14.375 C 13.723565 15.026435 12.906429 15.517099 12 15.78125 L 12 14.71875 L 11 14.96875 L 11 15.96875 C 10.835368 15.983947 10.668819 16 10.5 16 C 10.331181 16 10.164632 15.983947 10 15.96875 L 10 14.96875 L 9 14.71875 L 9 15.78125 C 8.0935711 15.517099 7.2764346 15.026435 6.625 14.375 L 2.8125 10.59375 z "
     id="path2819" />
  <path
     style="fill:#000000;fill-opacity:1;stroke:none"
     d="m 11,28 0,-28 -1,0 0,28 1,0 z"
     id="path2831" />
  <path
     style="fill:#ffffff;fill-opacity:1;stroke:none"
     d="M 15.4375 9 L 22 15.59375 L 22 9 L 15.4375 9 z "
     id="path3368" />
</svg>
