<?xml version="1.0" encoding="UTF-8" standalone="no"?>
<svg
   xmlns:dc="http://purl.org/dc/elements/1.1/"
   xmlns:cc="http://creativecommons.org/ns#"
   xmlns:rdf="http://www.w3.org/1999/02/22-rdf-syntax-ns#"
   xmlns:svg="http://www.w3.org/2000/svg"
   xmlns="http://www.w3.org/2000/svg"
   xmlns:sodipodi="http://sodipodi.sourceforge.net/DTD/sodipodi-0.dtd"
   xmlns:inkscape="http://www.inkscape.org/namespaces/inkscape"
   version="1.0"
   width="20"
   height="23"
   id="svg2"
   inkscape:version="0.47 r22583"
   sodipodi:docname="02-06-008-01-01-10.svg">
  <defs
     id="defs16">
    <inkscape:perspective
       sodipodi:type="inkscape:persp3d"
       inkscape:vp_x="0 : 23 : 1"
       inkscape:vp_y="0 : 1000 : 0"
       inkscape:vp_z="36 : 23 : 1"
       inkscape:persp3d-origin="18 : 15.333333 : 1"
       id="perspective18" />
  </defs>
  <sodipodi:namedview
     pagecolor="#ffffff"
     bordercolor="#666666"
     borderopacity="1"
     objecttolerance="10"
     gridtolerance="10"
     guidetolerance="10"
     inkscape:pageopacity="0"
     inkscape:pageshadow="2"
     inkscape:window-width="964"
     inkscape:window-height="721"
     id="namedview14"
     showgrid="true"
     inkscape:zoom="16.701291"
     inkscape:cx="10"
     inkscape:cy="11.5"
     inkscape:window-x="365"
     inkscape:window-y="0"
     inkscape:window-maximized="0"
     inkscape:current-layer="svg2"
     showborder="true">
    <inkscape:grid
       type="xygrid"
       id="grid2824"
       empspacing="5"
       visible="true"
       enabled="true"
       snapvisiblegridlinesonly="true" />
  </sodipodi:namedview>
  <metadata
     id="metadata4">
Valerie Sutton's pixel definition of the
ISWA 2010 symbol ID 04-01-003-01-01-01
transformed by Stephen E Slevinski Jr
using line and fill polygon tracing
<rdf:RDF>
  <cc:Work
     rdf:about="">
    <dc:format>image/svg+xml</dc:format>
    <dc:type
       rdf:resource="http://purl.org/dc/dcmitype/StillImage" />
    <dc:title></dc:title>
  </cc:Work>
</rdf:RDF>
</metadata>
  <path
     style="fill:#000000;fill-opacity:1;stroke:none"
     d="M 19.28125,0 20,0.71875 0.71875,20 0,19.28125 19.28125,0 z"
     id="path2831" />
  <path
     style="fill:#000000;fill-opacity:1;stroke:none"
     d="M 5.5 16 L 12.5 23 L 19.5 16 L 17.5 16 L 12.5 21 L 7.5 16 L 5.5 16 z "
     id="path2964" />
  <path
     style="fill:#000000;fill-opacity:1;stroke:none"
     d="M 5.5,9 C 6.907313,9 8.301256,9.551256 9.375,10.625 10.448744,11.698744 11,13.092686 11,14.5 l 0,1.5 -1,0 0,-1.5 C 10,13.348561 9.566018,12.191019 8.6875,11.3125 7.808983,10.433983 6.651439,10 5.5,10 L 0,10 0,9 5.5,9 z"
     id="path2941" />
  <path
     style="fill:#ffffff;fill-opacity:1;stroke:none"
     d="m 5.5,6 c 2.17494,-7e-7 4.340578,0.8405772 6,2.5 1.659423,1.659422 2.5,3.82506 2.5,6 l 0,1.5 -3,0 0,-1.5 C 11,13.092686 10.448744,11.698744 9.375,10.625 8.301256,9.551256 6.907313,9 5.5,9 L 0,9 0,6 5.5,6 z"
     id="path2939" />
  <path
     style="fill:#000000;fill-opacity:1;stroke:none"
     d="M 5.5,5 C 7.930815,5 10.364101,5.9266013 12.21875,7.78125 14.073399,9.6359002 15,12.069185 15,14.5 l 0,1.5 -1,0 0,-1.5 C 14,12.32506 13.159423,10.159423 11.5,8.5 9.840578,6.8405772 7.67494,5.9999993 5.5,6 L 0,6 0,5 5.5,5 z"
     id="rect2820" />
</svg>
