<?xml version="1.0" encoding="UTF-8" standalone="no"?>
<svg
   xmlns:dc="http://purl.org/dc/elements/1.1/"
   xmlns:cc="http://creativecommons.org/ns#"
   xmlns:rdf="http://www.w3.org/1999/02/22-rdf-syntax-ns#"
   xmlns:svg="http://www.w3.org/2000/svg"
   xmlns="http://www.w3.org/2000/svg"
   xmlns:sodipodi="http://sodipodi.sourceforge.net/DTD/sodipodi-0.dtd"
   xmlns:inkscape="http://www.inkscape.org/namespaces/inkscape"
   version="1.0"
   width="23"
   height="20"
   id="svg2"
   inkscape:version="0.47 r22583"
   sodipodi:docname="02-06-008-01-01-04.svg">
  <defs
     id="defs16">
    <inkscape:perspective
       sodipodi:type="inkscape:persp3d"
       inkscape:vp_x="0 : 23 : 1"
       inkscape:vp_y="0 : 1000 : 0"
       inkscape:vp_z="36 : 23 : 1"
       inkscape:persp3d-origin="18 : 15.333333 : 1"
       id="perspective18" />
  </defs>
  <sodipodi:namedview
     pagecolor="#ffffff"
     bordercolor="#666666"
     borderopacity="1"
     objecttolerance="10"
     gridtolerance="10"
     guidetolerance="10"
     inkscape:pageopacity="0"
     inkscape:pageshadow="2"
     inkscape:window-width="964"
     inkscape:window-height="721"
     id="namedview14"
     showgrid="true"
     inkscape:zoom="16.719951"
     inkscape:cx="11.496586"
     inkscape:cy="9.997031"
     inkscape:window-x="365"
     inkscape:window-y="0"
     inkscape:window-maximized="0"
     inkscape:current-layer="svg2"
     showborder="true">
    <inkscape:grid
       type="xygrid"
       id="grid2824"
       empspacing="5"
       visible="true"
       enabled="true"
       snapvisiblegridlinesonly="true" />
  </sodipodi:namedview>
  <metadata
     id="metadata4">
Valerie Sutton's pixel definition of the
ISWA 2010 symbol ID 04-01-003-01-01-01
transformed by Stephen E Slevinski Jr
using line and fill polygon tracing
<rdf:RDF>
  <cc:Work
     rdf:about="">
    <dc:format>image/svg+xml</dc:format>
    <dc:type
       rdf:resource="http://purl.org/dc/dcmitype/StillImage" />
    <dc:title></dc:title>
  </cc:Work>
</rdf:RDF>
</metadata>
  <path
     style="fill:#000000;fill-opacity:1;stroke:none"
     d="M 16 5.5 L 16 19.5 L 23 12.5 L 16 5.5 z M 17 7.9375 L 21.59375 12.5 L 17 17.0625 L 17 7.9375 z "
     id="path2964" />
  <path
     style="fill:#000000;fill-opacity:1;stroke:none"
     d="M 9,5.5 C 9,6.907313 9.551256,8.301256 10.625,9.375 11.698744,10.448744 13.092686,11 14.5,11 l 1.5,0 0,-1 -1.5,0 C 13.348561,10 12.191019,9.566018 11.3125,8.6875 10.433983,7.808983 10,6.651439 10,5.5 L 10,0 9,0 9,5.5 z"
     id="path2941" />
  <path
     style="fill:#ffffff;fill-opacity:1;stroke:none"
     d="m 6,5.5 c -1e-6,2.17494 0.840577,4.340578 2.5,6 1.659422,1.659423 3.82506,2.5 6,2.5 l 1.5,0 0,-3 -1.5,0 C 13.092686,11 11.698744,10.448744 10.625,9.375 9.551256,8.301256 9,6.907313 9,5.5 L 9,0 6,0 6,5.5 z"
     id="path2939" />
  <path
     style="fill:#000000;fill-opacity:1;stroke:none"
     d="M 0,19.28125 0.71875,20 20,0.71875 19.28125,0 0,19.28125 z"
     id="path2831" />
  <path
     style="fill:#000000;fill-opacity:1;stroke:none"
     d="M 5,5.5 C 5,7.930815 5.926601,10.364101 7.78125,12.21875 9.6359,14.073399 12.069185,15 14.5,15 l 1.5,0 0,-1 -1.5,0 C 12.32506,14 10.159423,13.159423 8.5,11.5 6.840577,9.840578 5.999999,7.67494 6,5.5 L 6,0 5,0 5,5.5 z"
     id="rect2820" />
  <path
     style="fill:#ffffff;fill-opacity:1;stroke:none"
     d="M 17 7.9375 L 17 17.0625 L 21.59375 12.5 L 17 7.9375 z "
     id="path3403" />
</svg>
