<?xml version="1.0" encoding="UTF-8" standalone="no"?>
<svg
   xmlns:dc="http://purl.org/dc/elements/1.1/"
   xmlns:cc="http://creativecommons.org/ns#"
   xmlns:rdf="http://www.w3.org/1999/02/22-rdf-syntax-ns#"
   xmlns:svg="http://www.w3.org/2000/svg"
   xmlns="http://www.w3.org/2000/svg"
   xmlns:sodipodi="http://sodipodi.sourceforge.net/DTD/sodipodi-0.dtd"
   xmlns:inkscape="http://www.inkscape.org/namespaces/inkscape"
   version="1.0"
   width="11"
   height="22"
   id="svg2"
   inkscape:version="0.47 r22583"
   sodipodi:docname="02-06-008-01-04-03.svg">
  <defs
     id="defs16">
    <inkscape:perspective
       sodipodi:type="inkscape:persp3d"
       inkscape:vp_x="0 : 23 : 1"
       inkscape:vp_y="0 : 1000 : 0"
       inkscape:vp_z="36 : 23 : 1"
       inkscape:persp3d-origin="18 : 15.333333 : 1"
       id="perspective18" />
  </defs>
  <sodipodi:namedview
     pagecolor="#ffffff"
     bordercolor="#666666"
     borderopacity="1"
     objecttolerance="10"
     gridtolerance="10"
     guidetolerance="10"
     inkscape:pageopacity="0"
     inkscape:pageshadow="2"
     inkscape:window-width="964"
     inkscape:window-height="721"
     id="namedview14"
     showgrid="true"
     inkscape:zoom="16.300086"
     inkscape:cx="5.5"
     inkscape:cy="11"
     inkscape:window-x="365"
     inkscape:window-y="0"
     inkscape:window-maximized="0"
     inkscape:current-layer="svg2"
     showborder="true">
    <inkscape:grid
       type="xygrid"
       id="grid2824"
       empspacing="5"
       visible="true"
       enabled="true"
       snapvisiblegridlinesonly="true" />
  </sodipodi:namedview>
  <metadata
     id="metadata4">
Valerie Sutton's pixel definition of the
ISWA 2010 symbol ID 04-01-003-01-01-01
transformed by Stephen E Slevinski Jr
using line and fill polygon tracing
<rdf:RDF>
  <cc:Work
     rdf:about="">
    <dc:format>image/svg+xml</dc:format>
    <dc:type
       rdf:resource="http://purl.org/dc/dcmitype/StillImage" />
    <dc:title></dc:title>
  </cc:Work>
</rdf:RDF>
</metadata>
  <path
     style="fill:#000000;fill-opacity:1;stroke:none"
     d="m 8,22 -8,0 0,-8 8,8 z"
     id="path2964" />
  <path
     style="fill:#000000;fill-opacity:1;stroke:none"
     d="m 11,10.5 c 0,2.623352 -1.062088,4.999589 -2.78125,6.71875 l -2.5,2.5 L 5,19 7.5,16.5 C 9.038198,14.961802 10,12.84721 10,10.5 10,8.15279 9.038198,6.038198 7.5,4.5 L 3.71875,0.6875 4.40625,0 8.21875,3.78125 C 9.937912,5.500411 11,7.876648 11,10.5 z"
     id="path2817" />
  <path
     style="fill:#ffffff;fill-opacity:1;stroke:none"
     d="m 10,10.5 c 0,2.34721 -0.961802,4.461802 -2.5,6 L 5,19 2.875,16.875 l 2.5,-2.5 C 6.370305,13.379696 7,12.018783 7,10.5 7,8.981217 6.370305,7.620304 5.375,6.625 L 1.59375,2.8125 3.71875,0.6875 7.5,4.5 c 1.538198,1.538198 2.499999,3.652789 2.5,6 z"
     id="path2819" />
  <path
     style="fill:#000000;fill-opacity:1;stroke:none"
     d="m 7,10.5 c 0,1.518783 -0.629695,2.879696 -1.625,3.875 l -2.5,2.5 -0.6875,-0.6875 2.5,-2.5 C 5.50184,12.87316 6,11.742641 6,10.5 6,9.257359 5.501841,8.126841 4.6875,7.3125 L 0.875,3.53125 1.59375,2.8125 5.375,6.625 C 6.370305,7.620304 7,8.981217 7,10.5 z"
     id="path2824" />
</svg>
