<?xml version="1.0" encoding="UTF-8" standalone="no"?>
<svg
   xmlns:dc="http://purl.org/dc/elements/1.1/"
   xmlns:cc="http://creativecommons.org/ns#"
   xmlns:rdf="http://www.w3.org/1999/02/22-rdf-syntax-ns#"
   xmlns:svg="http://www.w3.org/2000/svg"
   xmlns="http://www.w3.org/2000/svg"
   xmlns:sodipodi="http://sodipodi.sourceforge.net/DTD/sodipodi-0.dtd"
   xmlns:inkscape="http://www.inkscape.org/namespaces/inkscape"
   version="1.0"
   width="19"
   height="20"
   id="svg2"
   inkscape:version="0.47 r22583"
   sodipodi:docname="02-06-008-01-04-04.svg">
  <defs
     id="defs16">
    <inkscape:perspective
       sodipodi:type="inkscape:persp3d"
       inkscape:vp_x="0 : 23 : 1"
       inkscape:vp_y="0 : 1000 : 0"
       inkscape:vp_z="36 : 23 : 1"
       inkscape:persp3d-origin="18 : 15.333333 : 1"
       id="perspective18" />
  </defs>
  <sodipodi:namedview
     pagecolor="#ffffff"
     bordercolor="#666666"
     borderopacity="1"
     objecttolerance="10"
     gridtolerance="10"
     guidetolerance="10"
     inkscape:pageopacity="0"
     inkscape:pageshadow="2"
     inkscape:window-width="964"
     inkscape:window-height="721"
     id="namedview14"
     showgrid="true"
     inkscape:zoom="16.719951"
     inkscape:cx="9.4971795"
     inkscape:cy="9.997031"
     inkscape:window-x="365"
     inkscape:window-y="0"
     inkscape:window-maximized="0"
     inkscape:current-layer="svg2"
     showborder="true">
    <inkscape:grid
       type="xygrid"
       id="grid2824"
       empspacing="5"
       visible="true"
       enabled="true"
       snapvisiblegridlinesonly="true" />
  </sodipodi:namedview>
  <metadata
     id="metadata4">
Valerie Sutton's pixel definition of the
ISWA 2010 symbol ID 04-01-003-01-01-01
transformed by Stephen E Slevinski Jr
using line and fill polygon tracing
<rdf:RDF>
  <cc:Work
     rdf:about="">
    <dc:format>image/svg+xml</dc:format>
    <dc:type
       rdf:resource="http://purl.org/dc/dcmitype/StillImage" />
    <dc:title></dc:title>
  </cc:Work>
</rdf:RDF>
</metadata>
  <path
     style="fill:#000000;fill-opacity:1;stroke:none"
     d="m 6,20 -6,-6.000001 6,-6 L 6,20 z"
     id="path2964" />
  <path
     style="fill:#000000;fill-opacity:1;stroke:none"
     d="m 19,7 c 0,5.246705 -4.253295,9.5 -9.4999995,9.5 L 6,16.5 l 0,-1 3.5000005,0 C 14.19442,15.5 18,11.69442 18,7 l 0,-7 1,0 0,7 z"
     id="path2837" />
  <path
     style="fill:#ffffff;fill-opacity:1;stroke:none"
     d="m 18,7 c 0,4.69442 -3.80558,8.5 -8.4999995,8.5 L 6,15.5 l 0,-3 3.5000005,0 C 12.537566,12.5 15,10.037566 15,7 l 0,-7 3,0 0,7 z"
     id="path2839" />
  <path
     style="fill:#000000;fill-opacity:1;stroke:none"
     d="m 15,7 c 0,3.037566 -2.462434,5.5 -5.4999995,5.5 L 6,12.5 l 0,-1 3.5000005,0 C 11.985281,11.5 14,9.485281 14,7 l 0,-7 1,0 0,7 z"
     id="path2847" />
</svg>
