<?xml version="1.0" encoding="UTF-8" standalone="no"?>
<svg
   xmlns:dc="http://purl.org/dc/elements/1.1/"
   xmlns:cc="http://creativecommons.org/ns#"
   xmlns:rdf="http://www.w3.org/1999/02/22-rdf-syntax-ns#"
   xmlns:svg="http://www.w3.org/2000/svg"
   xmlns="http://www.w3.org/2000/svg"
   xmlns:sodipodi="http://sodipodi.sourceforge.net/DTD/sodipodi-0.dtd"
   xmlns:inkscape="http://www.inkscape.org/namespaces/inkscape"
   version="1.0"
   width="23"
   height="20"
   id="svg2"
   inkscape:version="0.47 r22583"
   sodipodi:docname="02-06-008-01-01-16.svg">
  <defs
     id="defs16">
    <inkscape:perspective
       sodipodi:type="inkscape:persp3d"
       inkscape:vp_x="0 : 23 : 1"
       inkscape:vp_y="0 : 1000 : 0"
       inkscape:vp_z="36 : 23 : 1"
       inkscape:persp3d-origin="18 : 15.333333 : 1"
       id="perspective18" />
  </defs>
  <sodipodi:namedview
     pagecolor="#ffffff"
     bordercolor="#666666"
     borderopacity="1"
     objecttolerance="10"
     gridtolerance="10"
     guidetolerance="10"
     inkscape:pageopacity="0"
     inkscape:pageshadow="2"
     inkscape:window-width="964"
     inkscape:window-height="721"
     id="namedview14"
     showgrid="true"
     inkscape:zoom="16.719951"
     inkscape:cx="11.496586"
     inkscape:cy="9.997031"
     inkscape:window-x="365"
     inkscape:window-y="0"
     inkscape:window-maximized="0"
     inkscape:current-layer="svg2"
     showborder="true">
    <inkscape:grid
       type="xygrid"
       id="grid2824"
       empspacing="5"
       visible="true"
       enabled="true"
       snapvisiblegridlinesonly="true" />
  </sodipodi:namedview>
  <metadata
     id="metadata4">
Valerie Sutton's pixel definition of the
ISWA 2010 symbol ID 04-01-003-01-01-01
transformed by Stephen E Slevinski Jr
using line and fill polygon tracing
<rdf:RDF>
  <cc:Work
     rdf:about="">
    <dc:format>image/svg+xml</dc:format>
    <dc:type
       rdf:resource="http://purl.org/dc/dcmitype/StillImage" />
    <dc:title></dc:title>
  </cc:Work>
</rdf:RDF>
</metadata>
  <path
     style="fill:#000000;fill-opacity:1;stroke:none"
     d="M 0,0.71875 0.71875,0 20,19.28125 19.28125,20 0,0.71875 z"
     id="path2831" />
  <path
     style="fill:#000000;fill-opacity:1;stroke:none"
     d="M 16 0.5 L 16 2.5 L 21 7.5 L 16 12.5 L 16 14.5 L 23 7.5 L 16 0.5 z "
     id="path2964" />
  <path
     style="fill:#000000;fill-opacity:1;stroke:none"
     d="M 9,14.5 C 9,13.092687 9.551256,11.698744 10.625,10.625 11.698744,9.551256 13.092686,9 14.5,9 l 1.5,0 0,1 -1.5,0 c -1.151439,0 -2.308981,0.433982 -3.1875,1.3125 C 10.433983,12.191017 10,13.348561 10,14.5 l 0,5.5 -1,0 0,-5.5 z"
     id="path2941" />
  <path
     style="fill:#ffffff;fill-opacity:1;stroke:none"
     d="m 6,14.5 c -1e-6,-2.17494 0.840577,-4.340578 2.5,-6 C 10.159422,6.840577 12.32506,6 14.5,6 L 16,6 16,9 14.5,9 C 13.092686,9 11.698744,9.551256 10.625,10.625 9.551256,11.698744 9,13.092687 9,14.5 L 9,20 6,20 6,14.5 z"
     id="path2939" />
  <path
     style="fill:#000000;fill-opacity:1;stroke:none"
     d="M 5,14.5 C 5,12.069185 5.926601,9.635899 7.78125,7.78125 9.6359,5.926601 12.069185,5 14.5,5 l 1.5,0 0,1 -1.5,0 c -2.17494,0 -4.340577,0.840577 -6,2.5 -1.659423,1.659422 -2.500001,3.82506 -2.5,6 L 6,20 5,20 5,14.5 z"
     id="rect2820" />
</svg>
