<?xml version="1.0" encoding="UTF-8" standalone="no"?>
<svg
   xmlns:dc="http://purl.org/dc/elements/1.1/"
   xmlns:cc="http://creativecommons.org/ns#"
   xmlns:rdf="http://www.w3.org/1999/02/22-rdf-syntax-ns#"
   xmlns:svg="http://www.w3.org/2000/svg"
   xmlns="http://www.w3.org/2000/svg"
   xmlns:sodipodi="http://sodipodi.sourceforge.net/DTD/sodipodi-0.dtd"
   xmlns:inkscape="http://www.inkscape.org/namespaces/inkscape"
   version="1.0"
   width="20"
   height="23"
   id="svg2"
   inkscape:version="0.47 r22583"
   sodipodi:docname="02-06-008-01-01-10.svg">
  <defs
     id="defs16">
    <inkscape:perspective
       sodipodi:type="inkscape:persp3d"
       inkscape:vp_x="0 : 23 : 1"
       inkscape:vp_y="0 : 1000 : 0"
       inkscape:vp_z="36 : 23 : 1"
       inkscape:persp3d-origin="18 : 15.333333 : 1"
       id="perspective18" />
  </defs>
  <sodipodi:namedview
     pagecolor="#ffffff"
     bordercolor="#666666"
     borderopacity="1"
     objecttolerance="10"
     gridtolerance="10"
     guidetolerance="10"
     inkscape:pageopacity="0"
     inkscape:pageshadow="2"
     inkscape:window-width="964"
     inkscape:window-height="721"
     id="namedview14"
     showgrid="true"
     inkscape:zoom="16.701291"
     inkscape:cx="10"
     inkscape:cy="11.5"
     inkscape:window-x="365"
     inkscape:window-y="0"
     inkscape:window-maximized="0"
     inkscape:current-layer="svg2"
     showborder="true">
    <inkscape:grid
       type="xygrid"
       id="grid2824"
       empspacing="5"
       visible="true"
       enabled="true"
       snapvisiblegridlinesonly="true" />
  </sodipodi:namedview>
  <metadata
     id="metadata4">
Valerie Sutton's pixel definition of the
ISWA 2010 symbol ID 04-01-003-01-01-01
transformed by Stephen E Slevinski Jr
using line and fill polygon tracing
<rdf:RDF>
  <cc:Work
     rdf:about="">
    <dc:format>image/svg+xml</dc:format>
    <dc:type
       rdf:resource="http://purl.org/dc/dcmitype/StillImage" />
    <dc:title></dc:title>
  </cc:Work>
</rdf:RDF>
</metadata>
  <path
     style="fill:#000000;fill-opacity:1;stroke:none"
     d="M 5.5,6.999999 12.5,0 l 7,7 -14,-1e-6 z"
     id="path2964" />
  <path
     style="fill:#000000;fill-opacity:1;stroke:none"
     d="M 5.5,14 C 6.907313,14 8.301256,13.448744 9.375,12.375 10.448744,11.301256 11,9.907314 11,8.5 L 11,7 10,7 10,8.5 C 10,9.651439 9.566018,10.808981 8.6875,11.6875 7.808983,12.566017 6.651439,13 5.5,13 l -5.5,0 0,1 5.5,0 z"
     id="path2941" />
  <path
     style="fill:#ffffff;fill-opacity:1;stroke:none"
     d="m 5.5,17 c 2.17494,1e-6 4.340578,-0.840577 6,-2.5 1.659423,-1.659422 2.5,-3.82506 2.5,-6 L 14,7 11,7 11,8.5 C 11,9.907314 10.448744,11.301256 9.375,12.375 8.301256,13.448744 6.907313,14 5.5,14 l -5.5,0 0,3 5.5,0 z"
     id="path2939" />
  <path
     style="fill:#000000;fill-opacity:1;stroke:none"
     d="M 19.28125,23 20,22.28125 0.71875,3 0,3.71875 19.28125,23 z"
     id="path2831" />
  <path
     style="fill:#000000;fill-opacity:1;stroke:none"
     d="m 5.5,18 c 2.430815,0 4.864101,-0.926601 6.71875,-2.78125 C 14.073399,13.3641 15,10.930815 15,8.5 L 15,7 14,7 14,8.5 c 0,2.17494 -0.840577,4.340577 -2.5,6 -1.659422,1.659423 -3.82506,2.500001 -6,2.5 l -5.5,0 0,1 5.5,0 z"
     id="rect2820" />
</svg>
