<?xml version="1.0" encoding="UTF-8" standalone="no"?>
<!-- Created with Inkscape (http://www.inkscape.org/) -->

<svg
   xmlns:dc="http://purl.org/dc/elements/1.1/"
   xmlns:cc="http://creativecommons.org/ns#"
   xmlns:rdf="http://www.w3.org/1999/02/22-rdf-syntax-ns#"
   xmlns:svg="http://www.w3.org/2000/svg"
   xmlns="http://www.w3.org/2000/svg"
   xmlns:sodipodi="http://sodipodi.sourceforge.net/DTD/sodipodi-0.dtd"
   xmlns:inkscape="http://www.inkscape.org/namespaces/inkscape"
   width="18"
   height="19"
   id="svg3198"
   sodipodi:version="0.32"
   inkscape:version="0.47 r22583"
   version="1.0"
   sodipodi:docname="01-10-014-01-03.svg"
   inkscape:output_extension="org.inkscape.output.svg.inkscape">
  <defs
     id="defs3200">
    <inkscape:perspective
       sodipodi:type="inkscape:persp3d"
       inkscape:vp_x="0 : 526.18109 : 1"
       inkscape:vp_y="0 : 1000 : 0"
       inkscape:vp_z="744.09448 : 526.18109 : 1"
       inkscape:persp3d-origin="372.04724 : 350.78739 : 1"
       id="perspective3206" />
  </defs>
  <sodipodi:namedview
     id="namedview3727"
     pagecolor="#ffffff"
     bordercolor="#666666"
     borderopacity="1.0"
     gridtolerance="10000"
     guidetolerance="10"
     objecttolerance="10"
     inkscape:pageopacity="0.0"
     inkscape:pageshadow="2"
     inkscape:zoom="25.979789"
     inkscape:cx="3.2400911"
     inkscape:cy="11.151804"
     inkscape:document-units="px"
     inkscape:current-layer=""
     showgrid="true"
     inkscape:window-width="1440"
     inkscape:window-height="803"
     inkscape:window-x="0"
     inkscape:window-y="0"
     inkscape:window-maximized="0">
    <inkscape:grid
       type="xygrid"
       id="grid3208"
       visible="true"
       enabled="true" />
  </sodipodi:namedview>
  <metadata
     id="metadata3203">
    <rdf:RDF>
      <cc:Work
         rdf:about="">
        <dc:format>image/svg+xml</dc:format>
        <dc:type
           rdf:resource="http://purl.org/dc/dcmitype/StillImage" />
        <dc:title></dc:title>
      </cc:Work>
    </rdf:RDF>
  </metadata>
  <g
     inkscape:label="Layer 1"
     inkscape:groupmode="layer"
     id="">
    <rect
       style="fill:#000000;fill-opacity:1;stroke:none"
       id="base"
       width="15"
       height="15"
       x="0"
       y="4" />
    <path
       style="fill:#ffffff;fill-opacity:1;stroke:none"
       d="M 1.84375 1 C 1.5625 1.046875 1 1.25 1 2 L 1 4 L 4 4 L 4 2 C 4 2 4 1 3 1 L 2 1 C 2 1 1.9375 0.984375 1.84375 1 z M 5.84375 1 C 5.5625 1.046875 5 1.25 5 2 L 5 4 L 8 4 L 8 2 C 8 2 8 1 7 1 L 6 1 C 6 1 5.9375 0.984375 5.84375 1 z M 9.84375 1 C 9.5625001 1.046875 9 1.25 9 2 L 9 4 L 12 4 L 12 2 C 12 2 12 1 11 1 L 10 1 C 10 1 9.9375 0.984375 9.84375 1 z M 15.0625 2.75 C 14.834624 2.729284 14.546415 2.7973349 14.28125 3.0625 L 12.875 4.46875 L 15 6.59375 L 16.40625 5.15625 C 16.40625 5.15625 17.113357 4.4571068 16.40625 3.75 L 15.71875 3.0625 C 15.71875 3.0625 15.442294 2.784527 15.0625 2.75 z M 0 8 L 0 11 L 15 11 L 15 8 L 0 8 z "
       id="fill" />
    <path
       style="fill:#000000;fill-opacity:1;stroke:none"
       d="M 0,4 0,2 C 0,2 0,0 2,0 L 3,0 C 3,0 5,0 5,2 L 5,4 4,4 4,2 C 4,1 3,1 3,1 L 2,1 C 1,1 1,2 1,2 L 1,4 0,4 z"
       id="index" />
    <path
       style="fill:#000000;fill-opacity:1;stroke:none"
       d="M 4,4 4,2 C 4,2 4,0 6,0 L 7,0 C 7,0 9,0 9,2 L 9,4 8,4 8,2 C 8,2 8,1 7,1 L 6,1 C 6,1 5,1 5,2 L 5,4 4,4 z"
       id="middle" />
    <path
       style="fill:#000000;fill-opacity:1;stroke:none"
       d="M 8,4 8,2 C 8,2 8,0 10,0 l 1,0 c 0,0 2,0 2,2 l 0,2 -1,0 0,-2 C 12,2 12,1 11,1 L 10,1 C 10,1 9,1 9,2 L 9,4 8,4 z"
       id="ring" />
    <path
       style="fill:#000000;fill-opacity:1;stroke:none"
       d="m 15.117461,1.71875 c 0.759587,0.069053 1.3125,0.625 1.3125,0.625 l 0.6875,0.71875 c 1.414213,1.4142135 0,2.8125 0,2.8125 l -2.125,2.125 -0.6875,-0.71875 c 0.708333,-0.7083333 1.416666,-1.4166667 2.125,-2.125 0.707106,-0.7071068 0,-1.40625 0,-1.40625 -0.250412,-0.2178753 -0.479212,-0.4583765 -0.71875,-0.6875 -0.707107,-0.7071068 -1.40625,0 -1.40625,0 l -1.4375,1.40625 -0.6875,-0.71875 c 0.46875,-0.46875 0.9375,-0.9375 1.40625,-1.40625 0.53033,-0.5303301 1.075497,-0.666432 1.53125,-0.625 z"
       id="baby" />
  </g>
</svg>
