<?xml version="1.0" encoding="UTF-8" standalone="no"?>
<!-- Created with Inkscape (http://www.inkscape.org/) -->

<svg
   xmlns:dc="http://purl.org/dc/elements/1.1/"
   xmlns:cc="http://creativecommons.org/ns#"
   xmlns:rdf="http://www.w3.org/1999/02/22-rdf-syntax-ns#"
   xmlns:svg="http://www.w3.org/2000/svg"
   xmlns="http://www.w3.org/2000/svg"
   xmlns:sodipodi="http://sodipodi.sourceforge.net/DTD/sodipodi-0.dtd"
   xmlns:inkscape="http://www.inkscape.org/namespaces/inkscape"
   width="18"
   height="19"
   id="svg3198"
   sodipodi:version="0.32"
   inkscape:version="0.47 r22583"
   version="1.0"
   sodipodi:docname="01-10-014-01-02.svg"
   inkscape:output_extension="org.inkscape.output.svg.inkscape">
  <defs
     id="defs3200">
    <inkscape:perspective
       sodipodi:type="inkscape:persp3d"
       inkscape:vp_x="0 : 526.18109 : 1"
       inkscape:vp_y="0 : 1000 : 0"
       inkscape:vp_z="744.09448 : 526.18109 : 1"
       inkscape:persp3d-origin="372.04724 : 350.78739 : 1"
       id="perspective3206" />
  </defs>
  <sodipodi:namedview
     id="namedview3727"
     pagecolor="#ffffff"
     bordercolor="#666666"
     borderopacity="1.0"
     gridtolerance="10000"
     guidetolerance="10"
     objecttolerance="10"
     inkscape:pageopacity="0.0"
     inkscape:pageshadow="2"
     inkscape:zoom="25.979789"
     inkscape:cx="3.2400911"
     inkscape:cy="8.0724871"
     inkscape:document-units="px"
     inkscape:current-layer=""
     showgrid="true"
     inkscape:window-width="1440"
     inkscape:window-height="803"
     inkscape:window-x="0"
     inkscape:window-y="0"
     inkscape:window-maximized="0">
    <inkscape:grid
       type="xygrid"
       id="grid3208"
       visible="true"
       enabled="true" />
  </sodipodi:namedview>
  <metadata
     id="metadata3203">
    <rdf:RDF>
      <cc:Work
         rdf:about="">
        <dc:format>image/svg+xml</dc:format>
        <dc:type
           rdf:resource="http://purl.org/dc/dcmitype/StillImage" />
        <dc:title></dc:title>
      </cc:Work>
    </rdf:RDF>
  </metadata>
  <g
     inkscape:label="Layer 1"
     inkscape:groupmode="layer"
     id="">
    <rect
       style="fill:#000000;fill-opacity:1;stroke:none"
       id="base"
       width="15"
       height="15"
       x="3"
       y="4" />
    <path
       style="fill:#ffffff;fill-opacity:1;stroke:none"
       d="M 7,1 C 6,1 6,2 6,2 L 6,4 9,4 C 9,3.3333333 9,2.6666667 9,2 9,1 8,1 8,1 7.488964,1 7.463833,1 7,1 z m 4,0 c -1,0 -1,1 -1,1 l 0,2 3,0 C 13,3.3333333 13,2.6666667 13,2 13,1 12,1 12,1 L 11.375,1 C 11.5,1 11.5,1 11,1 z m 4,0 c -1,0 -1,1 -1,1 l 0,2 3,0 C 17,3.3333333 17,2.6666667 17,2 17,1 16,1 16,1 15.488964,1 15.463833,1 15,1 z M 2.9375,2.75 C 2.5577063,2.7845267 2.28125,3.0625 2.28125,3.0625 L 1.59375,3.75 c -0.70710685,0.7071068 0,1.40625 0,1.40625 L 3,6.59375 5.125,4.46875 C 4.65625,4 4.1875,3.53125 3.71875,3.0625 3.4535849,2.7973349 3.1653762,2.729284 2.9375,2.75 z M 5,6 5,17 11,17 11,6 5,6 z"
       id="fill" />
    <path
       style="fill:#000000;fill-opacity:1;stroke:none"
       d="m 18,4 0,-2 c 0,0 0,2 0,0 0,-2 -2,-2 -2,-2 l -1,0 c 0,0 2,0 0,0 -2,0 -2,2 -2,2 l 0,2 1,0 0,-2 c 0,0 0,1 0,0 0,-1 1,-1 1,-1 l 1,0 c 0,0 -1,0 0,0 1,0 1,1 1,1 l 0,2 1,0 z"
       id="index" />
    <path
       style="fill:#000000;fill-opacity:1;stroke:none"
       d="m 14,4 0,-2 c 0,0 0,2 0,0 0,-2 -2,-2 -2,-2 l -1,0 c 0,0 2,0 0,0 C 9,0 9,2 9,2 l 0,2 1,0 0,-2 c 0,0 0,1 0,0 0,-1 1,-1 1,-1 l 1,0 c 0,0 -1,0 0,0 1,0 1,1 1,1 l 0,2 1,0 z"
       id="middle" />
    <path
       style="fill:#000000;fill-opacity:1;stroke:none"
       d="m 10,4 0,-2 c 0,0 0,2 0,0 C 10,0 8,0 8,0 L 7,0 C 7,0 9,0 7,0 5,0 5,2 5,2 L 5,4 6,4 6,2 C 6,2 6,3 6,2 6,1 7,1 7,1 L 8,1 C 8,1 7,1 8,1 9,1 9,2 9,2 l 0,2 1,0 z"
       id="ring" />
    <path
       style="fill:#000000;fill-opacity:1;stroke:none"
       d="m 2.8825394,1.71875 c -0.7595874,0.069053 -1.3125,0.625 -1.3125,0.625 L 0.88253937,3.0625 c -1.41421358,1.4142135 0,2.8125 0,2.8125 L 3.0075394,8 l 0.6875,-0.71875 c -0.7083333,-0.7083333 -1.4166667,-1.4166667 -2.125,-2.125 -0.70710685,-0.7071068 0,-1.40625 0,-1.40625 0.2504118,-0.2178753 0.4792118,-0.4583765 0.71875,-0.6875 0.7071068,-0.7071068 1.40625,0 1.40625,0 l 1.4375,1.40625 0.6875,-0.71875 C 5.3512894,3.28125 4.8825394,2.8125 4.4137894,2.34375 3.8834593,1.8134199 3.3382918,1.677318 2.8825394,1.71875 z"
       id="baby" />
  </g>
</svg>
