<?xml version="1.0" encoding="UTF-8" standalone="no"?>
<svg
   xmlns:dc="http://purl.org/dc/elements/1.1/"
   xmlns:cc="http://creativecommons.org/ns#"
   xmlns:rdf="http://www.w3.org/1999/02/22-rdf-syntax-ns#"
   xmlns:svg="http://www.w3.org/2000/svg"
   xmlns="http://www.w3.org/2000/svg"
   xmlns:sodipodi="http://sodipodi.sourceforge.net/DTD/sodipodi-0.dtd"
   xmlns:inkscape="http://www.inkscape.org/namespaces/inkscape"
   version="1.0"
   width="28"
   height="30"
   id="svg2"
   inkscape:version="0.47 r22583"
   sodipodi:docname="02-03-017-01-05-04.svg">
  <defs
     id="defs16">
    <inkscape:perspective
       sodipodi:type="inkscape:persp3d"
       inkscape:vp_x="0 : 23 : 1"
       inkscape:vp_y="0 : 1000 : 0"
       inkscape:vp_z="36 : 23 : 1"
       inkscape:persp3d-origin="18 : 15.333333 : 1"
       id="perspective18" />
  </defs>
  <sodipodi:namedview
     pagecolor="#ffffff"
     bordercolor="#666666"
     borderopacity="1"
     objecttolerance="10"
     gridtolerance="10"
     guidetolerance="10"
     inkscape:pageopacity="0"
     inkscape:pageshadow="2"
     inkscape:window-width="964"
     inkscape:window-height="721"
     id="namedview14"
     showgrid="true"
     inkscape:zoom="12.64"
     inkscape:cx="14.104638"
     inkscape:cy="14.642031"
     inkscape:window-x="365"
     inkscape:window-y="0"
     inkscape:window-maximized="0"
     inkscape:current-layer="svg2"
     showborder="true">
    <inkscape:grid
       type="xygrid"
       id="grid2824"
       empspacing="5"
       visible="true"
       enabled="true"
       snapvisiblegridlinesonly="true" />
  </sodipodi:namedview>
  <metadata
     id="metadata4">
Valerie Sutton's pixel definition of the
ISWA 2010 symbol ID 04-01-003-01-01-01
transformed by Stephen E Slevinski Jr
using line and fill polygon tracing
<rdf:RDF>
  <cc:Work
     rdf:about="">
    <dc:format>image/svg+xml</dc:format>
    <dc:type
       rdf:resource="http://purl.org/dc/dcmitype/StillImage" />
    <dc:title></dc:title>
  </cc:Work>
</rdf:RDF>
</metadata>
  <path
     style="fill:#000000;fill-opacity:1;stroke:none"
     d="M 6.3639611,26.464466 26.870059,5.9583693 27.577165,6.6654761 7.071068,27.171573 6.3639611,26.464466 z"
     id="path2831" />
  <path
     style="fill:#000000;fill-opacity:1;stroke:none"
     d="M 6.0000001,13.000001 C 12.075133,13 17.000001,17.924868 17,24.000001 L 16,24 C 16,18.477153 11.522847,14 6,14 l -2,0 0,-1 2,10e-7 z"
     id="path2910" />
  <path
     style="fill:#000000;fill-opacity:1;stroke:none"
     d="M 2.828428,22.928932 23.334525,2.4228354 24.041631,3.1299422 3.535534,23.636039 2.828428,22.928932 z"
     id="path2833" />
  <path
     style="fill:#000000;fill-opacity:1;stroke:none"
     d="m 10.997826,23.997826 11.00435,0 L 16.5,29.5 10.997826,23.997826 z m 2.408582,0.994369 3.093592,3.093592 3.071496,-3.071495 -6.165088,-0.0221 z"
     id="path2964" />
  <path
     style="fill:#000000;fill-opacity:1;stroke:none"
     d="M 0,20.100505 0,30 9.8994951,30 0,20.100505 z m 1.016466,2.43068 6.45235,6.452349 -6.45235,0 0,-6.452349 z"
     id="path2997" />
  <path
     style="fill:#ffffff;fill-opacity:1;stroke:none"
     d="m 1.016466,22.531185 0,6.452349 6.45235,0 -6.45235,-6.452349 z"
     id="path2966" />
  <path
     style="fill:#ffffff;fill-opacity:1;stroke:none"
     d="m 13.406408,24.992195 6.165088,0.0221 L 16.5,28.08579 13.406408,24.992198 z"
     id="path2863" />
  <path
     id="path3337"
     d="M 25,16 C 25.000001,9.924868 20.075133,4.9999994 14,5.0000004 l 10e-7,1 c 5.522846,0 9.999999,4.4771526 10,9.9999996 L 24,18 25.000001,18 25,16 z"
     style="fill:#000000;fill-opacity:1;stroke:none" />
  <path
     style="fill:#ffffff;fill-opacity:1;stroke:none"
     d="M 3.535534,23.636039 24.041631,3.1299422 26.870059,5.9583693 6.3639611,26.464466 3.535534,23.636039 z"
     id="rect2821" />
  <path
     id="path3339"
     d="m 14.002175,11.002175 0,-11.0043496 L 8.5,5.5000004 14.002175,11.002175 z M 13.007806,8.593592 9.914214,5.5000004 l 3.071495,-3.071496 0.0221,6.1650876 z"
     style="fill:#000000;fill-opacity:1;stroke:none" />
  <path
     id="path3341"
     d="m 13.007806,8.593592 -0.0221,-6.1650876 -3.071495,3.071496 3.093592,3.0935916 z"
     style="fill:#ffffff;fill-opacity:1;stroke:none" />
</svg>
