<?xml version="1.0" encoding="UTF-8" standalone="no"?>
<svg
   xmlns:dc="http://purl.org/dc/elements/1.1/"
   xmlns:cc="http://creativecommons.org/ns#"
   xmlns:rdf="http://www.w3.org/1999/02/22-rdf-syntax-ns#"
   xmlns:svg="http://www.w3.org/2000/svg"
   xmlns="http://www.w3.org/2000/svg"
   xmlns:sodipodi="http://sodipodi.sourceforge.net/DTD/sodipodi-0.dtd"
   xmlns:inkscape="http://www.inkscape.org/namespaces/inkscape"
   version="1.0"
   width="28"
   height="30"
   id="svg2"
   inkscape:version="0.47 r22583"
   sodipodi:docname="02-03-017-01-05-12.svg">
  <defs
     id="defs16">
    <inkscape:perspective
       sodipodi:type="inkscape:persp3d"
       inkscape:vp_x="0 : 23 : 1"
       inkscape:vp_y="0 : 1000 : 0"
       inkscape:vp_z="36 : 23 : 1"
       inkscape:persp3d-origin="18 : 15.333333 : 1"
       id="perspective18" />
  </defs>
  <sodipodi:namedview
     pagecolor="#ffffff"
     bordercolor="#666666"
     borderopacity="1"
     objecttolerance="10"
     gridtolerance="10"
     guidetolerance="10"
     inkscape:pageopacity="0"
     inkscape:pageshadow="2"
     inkscape:window-width="964"
     inkscape:window-height="721"
     id="namedview14"
     showgrid="true"
     inkscape:zoom="12.64"
     inkscape:cx="14.104638"
     inkscape:cy="14.642031"
     inkscape:window-x="365"
     inkscape:window-y="0"
     inkscape:window-maximized="0"
     inkscape:current-layer="svg2"
     showborder="true">
    <inkscape:grid
       type="xygrid"
       id="grid2824"
       empspacing="5"
       visible="true"
       enabled="true"
       snapvisiblegridlinesonly="true" />
  </sodipodi:namedview>
  <metadata
     id="metadata4">
Valerie Sutton's pixel definition of the
ISWA 2010 symbol ID 04-01-003-01-01-01
transformed by Stephen E Slevinski Jr
using line and fill polygon tracing
<rdf:RDF>
  <cc:Work
     rdf:about="">
    <dc:format>image/svg+xml</dc:format>
    <dc:type
       rdf:resource="http://purl.org/dc/dcmitype/StillImage" />
    <dc:title></dc:title>
  </cc:Work>
</rdf:RDF>
</metadata>
  <path
     style="fill:#000000;fill-opacity:1;stroke:none"
     d="M 24.464466,23.636039 3.9583695,3.1299419 4.6654762,2.4228351 25.171573,22.928932 24.464466,23.636039 z"
     id="path2831" />
  <path
     style="fill:#000000;fill-opacity:1;stroke:none"
     d="M 22,13 C 15.924868,13 11,17.924868 11.000001,24 L 12,24 c 10e-7,-5.522847 4.477154,-10 10,-10.000001 l 2,10e-7 0,-1 -2,0 z"
     id="path2910" />
  <path
     style="fill:#000000;fill-opacity:1;stroke:none"
     d="M 20.928932,27.171572 0.4228356,6.6654758 1.1299423,5.958369 21.636039,26.464466 20.928932,27.171572 z"
     id="path2833" />
  <path
     style="fill:#000000;fill-opacity:1;stroke:none"
     d="m 17.002175,23.997825 -11.0043496,0 L 11.5,29.5 17.002175,23.997825 z M 14.593592,24.992194 11.5,28.085786 8.428505,25.014291 l 6.165087,-0.0221 z"
     id="path2964" />
  <path
     style="fill:#000000;fill-opacity:1;stroke:none"
     d="M 18.100505,30 28,30 28,20.100505 18.100505,30 z m 2.43068,-1.016466 6.452349,-6.45235 0,6.45235 -6.452349,0 z"
     id="path2997" />
  <path
     style="fill:#ffffff;fill-opacity:1;stroke:none"
     d="m 20.531185,28.983534 6.452349,0 0,-6.45235 -6.452349,6.45235 z"
     id="path2966" />
  <path
     style="fill:#ffffff;fill-opacity:1;stroke:none"
     d="M 14.593592,24.992194 8.428505,25.014294 11.5,28.085789 14.593592,24.992197 z"
     id="path2863" />
  <path
     id="path3199"
     d="M 3,16 C 2.9999993,9.924867 7.9248672,4.9999984 14,4.9999994 l -10e-7,1 C 8.477152,5.9999994 3.9999996,10.477153 3.9999989,16 l 7e-7,2 L 2.9999993,18 3,16 z"
     style="fill:#000000;fill-opacity:1;stroke:none" />
  <path
     style="fill:#ffffff;fill-opacity:1;stroke:none"
     d="M 21.636039,26.464466 1.1299423,5.958369 3.9583695,3.1299419 24.464466,23.636039 21.636039,26.464466 z"
     id="rect2821" />
  <path
     id="path3201"
     d="m 13.997825,11.002174 0,-11.0043496 5.502174,5.502175 -5.502174,5.5021746 z m 0.994368,-2.408583 3.093593,-3.0935916 -3.071495,-3.071495 -0.0221,6.1650866 z"
     style="fill:#000000;fill-opacity:1;stroke:none" />
  <path
     id="path3203"
     d="m 14.992193,8.593591 0.0221,-6.1650866 3.071495,3.071495 -3.093593,3.0935916 z"
     style="fill:#ffffff;fill-opacity:1;stroke:none" />
</svg>
