<?xml version="1.0" encoding="UTF-8" standalone="no"?>
<svg
   xmlns:dc="http://purl.org/dc/elements/1.1/"
   xmlns:cc="http://creativecommons.org/ns#"
   xmlns:rdf="http://www.w3.org/1999/02/22-rdf-syntax-ns#"
   xmlns:svg="http://www.w3.org/2000/svg"
   xmlns="http://www.w3.org/2000/svg"
   xmlns:sodipodi="http://sodipodi.sourceforge.net/DTD/sodipodi-0.dtd"
   xmlns:inkscape="http://www.inkscape.org/namespaces/inkscape"
   version="1.0"
   width="28"
   height="30"
   id="svg2"
   inkscape:version="0.47 r22583"
   sodipodi:docname="02-03-017-01-01-12.svg">
  <defs
     id="defs16">
    <inkscape:perspective
       sodipodi:type="inkscape:persp3d"
       inkscape:vp_x="0 : 23 : 1"
       inkscape:vp_y="0 : 1000 : 0"
       inkscape:vp_z="36 : 23 : 1"
       inkscape:persp3d-origin="18 : 15.333333 : 1"
       id="perspective18" />
  </defs>
  <sodipodi:namedview
     pagecolor="#ffffff"
     bordercolor="#666666"
     borderopacity="1"
     objecttolerance="10"
     gridtolerance="10"
     guidetolerance="10"
     inkscape:pageopacity="0"
     inkscape:pageshadow="2"
     inkscape:window-width="964"
     inkscape:window-height="721"
     id="namedview14"
     showgrid="true"
     inkscape:zoom="12.64"
     inkscape:cx="13.94064"
     inkscape:cy="14.464452"
     inkscape:window-x="365"
     inkscape:window-y="0"
     inkscape:window-maximized="0"
     inkscape:current-layer="svg2"
     showborder="true">
    <inkscape:grid
       type="xygrid"
       id="grid2824"
       empspacing="5"
       visible="true"
       enabled="true"
       snapvisiblegridlinesonly="true" />
  </sodipodi:namedview>
  <metadata
     id="metadata4">
Valerie Sutton's pixel definition of the
ISWA 2010 symbol ID 04-01-003-01-01-01
transformed by Stephen E Slevinski Jr
using line and fill polygon tracing
<rdf:RDF>
  <cc:Work
     rdf:about="">
    <dc:format>image/svg+xml</dc:format>
    <dc:type
       rdf:resource="http://purl.org/dc/dcmitype/StillImage" />
    <dc:title></dc:title>
  </cc:Work>
</rdf:RDF>
</metadata>
  <path
     style="fill:#000000;fill-opacity:1;stroke:none"
     d="M 20.928932,27.171573 0.4228357,6.6654762 1.1299425,5.9583694 21.636039,26.464466 20.928932,27.171573 z"
     id="path2831" />
  <path
     style="fill:#000000;fill-opacity:1;stroke:none"
     d="m 8.996115,6.0099451 5.500001,-5.4999996 5.5,5.4999996 -11,0 z"
     id="path2964" />
  <path
     style="fill:#000000;fill-opacity:1;stroke:none"
     d="M 28,20.100505 18.100505,30 28,30 28,20.100505 z"
     id="path2966" />
  <path
     style="fill:#000000;fill-opacity:1;stroke:none"
     d="M 24.464466,23.636039 3.9583696,3.1299423 4.6654764,2.4228355 25.171573,22.928932 24.464466,23.636039 z"
     id="path2833" />
  <path
     style="fill:#ffffff;fill-opacity:1;stroke:none"
     d="M 21.636039,26.464466 1.1299425,5.9583694 3.9583696,3.1299423 24.464466,23.636039 21.636039,26.464466 z"
     id="rect2821" />
  <path
     style="fill:#000000;fill-opacity:1;stroke:none"
     d="M 1.989165,16.0221 4,16 c 2.267977,-0.237699 4.545461,-1.805419 6.363961,-3.623919 1.8185,-1.8185 3.386221,-4.095984 3.623922,-6.3639608 l 1.016466,0 c 1e-6,2.8151458 -1.07829,5.6302908 -3.226175,7.7781738 C 9.630291,15.938178 6.815147,17.016469 4,17.016469 l -1.988737,0 -0.0221,-0.994369 z"
     id="path2850" />
  <path
     id="path2854"
     d="m 11.987844,19.00695 -5.4999993,5.500001 5.4999993,5.499999 0,-11 z"
     style="fill:#000000;fill-opacity:1;stroke:none" />
  <path
     id="path2856"
     d="m 22,12 -0.0221,2.010834 c -0.237703,2.267978 -1.805423,4.545462 -3.623923,6.363961 -1.818499,1.8185 -4.095984,3.386221 -6.363961,3.623923 l 0,1.016466 c 2.815146,0 5.630291,-1.078291 7.778175,-3.226175 2.147883,-2.147883 3.226175,-4.963028 3.226175,-7.778175 l 0,-1.988737 -0.994369,-0.0221 z"
     style="fill:#000000;fill-opacity:1;stroke:none" />
</svg>
