<?xml version="1.0" encoding="UTF-8" standalone="no"?>
<svg
   xmlns:dc="http://purl.org/dc/elements/1.1/"
   xmlns:cc="http://creativecommons.org/ns#"
   xmlns:rdf="http://www.w3.org/1999/02/22-rdf-syntax-ns#"
   xmlns:svg="http://www.w3.org/2000/svg"
   xmlns="http://www.w3.org/2000/svg"
   xmlns:sodipodi="http://sodipodi.sourceforge.net/DTD/sodipodi-0.dtd"
   xmlns:inkscape="http://www.inkscape.org/namespaces/inkscape"
   version="1.0"
   width="30"
   height="28"
   id="svg2"
   inkscape:version="0.47 r22583"
   sodipodi:docname="02-03-017-01-02-14.svg">
  <defs
     id="defs16">
    <inkscape:perspective
       sodipodi:type="inkscape:persp3d"
       inkscape:vp_x="0 : 23 : 1"
       inkscape:vp_y="0 : 1000 : 0"
       inkscape:vp_z="36 : 23 : 1"
       inkscape:persp3d-origin="18 : 15.333333 : 1"
       id="perspective18" />
  </defs>
  <sodipodi:namedview
     pagecolor="#ffffff"
     bordercolor="#666666"
     borderopacity="1"
     objecttolerance="10"
     gridtolerance="10"
     guidetolerance="10"
     inkscape:pageopacity="0"
     inkscape:pageshadow="2"
     inkscape:window-width="964"
     inkscape:window-height="721"
     id="namedview14"
     showgrid="true"
     inkscape:zoom="12.64"
     inkscape:cx="13.510775"
     inkscape:cy="14.642031"
     inkscape:window-x="365"
     inkscape:window-y="0"
     inkscape:window-maximized="0"
     inkscape:current-layer="svg2"
     showborder="true">
    <inkscape:grid
       type="xygrid"
       id="grid2824"
       empspacing="5"
       visible="true"
       enabled="true"
       snapvisiblegridlinesonly="true" />
  </sodipodi:namedview>
  <metadata
     id="metadata4">
Valerie Sutton's pixel definition of the
ISWA 2010 symbol ID 04-01-003-01-01-01
transformed by Stephen E Slevinski Jr
using line and fill polygon tracing
<rdf:RDF>
  <cc:Work
     rdf:about="">
    <dc:format>image/svg+xml</dc:format>
    <dc:type
       rdf:resource="http://purl.org/dc/dcmitype/StillImage" />
    <dc:title></dc:title>
  </cc:Work>
</rdf:RDF>
</metadata>
  <path
     style="fill:#000000;fill-opacity:1;stroke:none"
     d="M 6.373086,24.464466 26.879182,3.9583693 27.586289,4.6654761 7.080193,25.171573 6.373086,24.464466 z"
     id="path2831" />
  <path
     style="fill:#000000;fill-opacity:1;stroke:none"
     d="M 2.837552,20.928932 23.343649,0.4228354 24.050755,1.1299422 3.544659,21.636039 2.837552,20.928932 z"
     id="path2833" />
  <path
     style="fill:#ffffff;fill-opacity:1;stroke:none"
     d="M 3.544659,21.636039 24.050755,1.1299422 26.879182,3.9583693 6.373086,24.464466 3.544659,21.636039 z"
     id="rect2821" />
  <path
     style="fill:#000000;fill-opacity:1;stroke:none"
     d="M 13.9779,1.989165 14,4 c 0.237699,2.267977 1.805419,4.545461 3.623919,6.363961 1.8185,1.8185 4.095985,3.38622 6.363962,3.623922 l 0,1.016466 c -2.815146,1e-6 -5.630292,-1.078291 -7.778175,-3.226175 C 14.061822,9.630291 12.983531,6.815146 12.983531,4 l 0,-1.988738 0.994369,-0.0221 z"
     id="path2910" />
  <path
     style="fill:#000000;fill-opacity:1;stroke:none"
     d="m 23.987881,8.993941 0,11.00435 5.502175,-5.502175 -5.502175,-5.502175 z m 0.994369,2.408583 3.093592,3.093592 -3.071495,3.071495 -0.0221,-6.165087 z"
     id="path2964" />
  <path
     style="fill:#000000;fill-opacity:1;stroke:none"
     d="m 0.009125,18.100505 0,9.899495 9.8994952,0 -9.8994952,-9.899495 z m 1.016466,2.43068 6.452349,6.452349 -6.452349,0 0,-6.452349 z"
     id="path2997" />
  <path
     style="fill:#ffffff;fill-opacity:1;stroke:none"
     d="m 1.025591,20.531185 0,6.452349 6.452349,0 -6.452349,-6.452349 z"
     id="path2966" />
  <path
     style="fill:#ffffff;fill-opacity:1;stroke:none"
     d="m 24.98225,11.402524 0.0221,6.165087 3.071495,-3.071495 -3.093592,-3.093592 z"
     id="path2863" />
  <path
     id="path2862"
     d="M 18.009125,22 15.998291,21.9779 C 13.730313,21.740197 11.452829,20.172477 9.6343302,18.353977 7.81583,16.535478 6.248109,14.257993 6.010407,11.990016 l -1.016466,0 c 0,2.815146 1.078291,5.630291 3.226175,7.778175 2.147883,2.147883 4.963028,3.226175 7.778175,3.226175 l 1.988737,0 0.0221,-0.994369 z"
     style="fill:#000000;fill-opacity:1;stroke:none" />
  <path
     id="path2864"
     d="M 11.004349,11.990019 0,11.990019 5.502174,6.4878444 11.004349,11.990019 z M 8.5957662,10.99565 5.502174,7.9020577 2.430679,10.973553 l 6.1650872,0.0221 z"
     style="fill:#000000;fill-opacity:1;stroke:none" />
  <path
     id="path2866"
     d="M 8.5957662,10.99565 2.430679,10.97355 5.502174,7.9020547 8.5957662,10.995647 z"
     style="fill:#ffffff;fill-opacity:1;stroke:none" />
</svg>
