<?xml version="1.0" encoding="UTF-8" standalone="no"?>
<svg
   xmlns:dc="http://purl.org/dc/elements/1.1/"
   xmlns:cc="http://creativecommons.org/ns#"
   xmlns:rdf="http://www.w3.org/1999/02/22-rdf-syntax-ns#"
   xmlns:svg="http://www.w3.org/2000/svg"
   xmlns="http://www.w3.org/2000/svg"
   xmlns:sodipodi="http://sodipodi.sourceforge.net/DTD/sodipodi-0.dtd"
   xmlns:inkscape="http://www.inkscape.org/namespaces/inkscape"
   version="1.0"
   width="30"
   height="28"
   id="svg2"
   inkscape:version="0.47 r22583"
   sodipodi:docname="02-03-017-01-05-10.svg">
  <defs
     id="defs16">
    <inkscape:perspective
       sodipodi:type="inkscape:persp3d"
       inkscape:vp_x="0 : 23 : 1"
       inkscape:vp_y="0 : 1000 : 0"
       inkscape:vp_z="36 : 23 : 1"
       inkscape:persp3d-origin="18 : 15.333333 : 1"
       id="perspective18" />
  </defs>
  <sodipodi:namedview
     pagecolor="#ffffff"
     bordercolor="#666666"
     borderopacity="1"
     objecttolerance="10"
     gridtolerance="10"
     guidetolerance="10"
     inkscape:pageopacity="0"
     inkscape:pageshadow="2"
     inkscape:window-width="964"
     inkscape:window-height="721"
     id="namedview14"
     showgrid="true"
     inkscape:zoom="12.64"
     inkscape:cx="14.104638"
     inkscape:cy="14.642031"
     inkscape:window-x="365"
     inkscape:window-y="0"
     inkscape:window-maximized="0"
     inkscape:current-layer="svg2"
     showborder="true">
    <inkscape:grid
       type="xygrid"
       id="grid2824"
       empspacing="5"
       visible="true"
       enabled="true"
       snapvisiblegridlinesonly="true" />
  </sodipodi:namedview>
  <metadata
     id="metadata4">
Valerie Sutton's pixel definition of the
ISWA 2010 symbol ID 04-01-003-01-01-01
transformed by Stephen E Slevinski Jr
using line and fill polygon tracing
<rdf:RDF>
  <cc:Work
     rdf:about="">
    <dc:format>image/svg+xml</dc:format>
    <dc:type
       rdf:resource="http://purl.org/dc/dcmitype/StillImage" />
    <dc:title></dc:title>
  </cc:Work>
</rdf:RDF>
</metadata>
  <path
     style="fill:#000000;fill-opacity:1;stroke:none"
     d="M 26.464466,6.3639611 5.9583694,26.870058 6.6654762,27.577164 27.171573,7.0710681 26.464466,6.3639611 z"
     id="path2831" />
  <path
     style="fill:#000000;fill-opacity:1;stroke:none"
     d="M 22.928932,2.8284271 2.4228355,23.334524 3.1299423,24.04163 23.636039,3.5355339 22.928932,2.8284271 z"
     id="path2833" />
  <path
     style="fill:#ffffff;fill-opacity:1;stroke:none"
     d="M 23.636039,3.5355339 3.1299423,24.04163 5.9583694,26.870058 26.464466,6.3639611 23.636039,3.5355339 z"
     id="rect2821" />
  <path
     style="fill:#000000;fill-opacity:1;stroke:none"
     d="m 14,4 0.0221,2.0108346 c 0.237703,2.267977 1.805423,4.5454624 3.623923,6.3639614 1.818499,1.8185 4.095984,3.386221 6.363961,3.623923 l 0,1.016466 c -2.815146,0 -5.630291,-1.078292 -7.778175,-3.226175 -2.147883,-2.147884 -3.226175,-4.9630284 -3.226175,-7.7781754 l 0,-1.9887375 0.994369,-0.022097 z"
     id="path2910" />
  <path
     style="fill:#000000;fill-opacity:1;stroke:none"
     d="m 24.009981,11.004777 0,11.004348 5.502174,-5.502174 -5.502174,-5.502175 z m 0.994369,2.408582 3.093592,3.093592 -3.071495,3.071495 -0.0221,-6.165088 z"
     id="path2964" />
  <path
     style="fill:#000000;fill-opacity:1;stroke:none"
     d="M 20.100505,0 30,0 30,9.8994951 20.100505,0 z m 2.43068,1.016466 6.452349,6.4523491 0,-6.4523491 -6.452349,0 z"
     id="path2997" />
  <path
     style="fill:#ffffff;fill-opacity:1;stroke:none"
     d="m 22.531185,1.016466 6.452349,0 0,6.4523491 -6.452349,-6.4523491 z"
     id="path2966" />
  <path
     style="fill:#ffffff;fill-opacity:1;stroke:none"
     d="m 25.00435,13.413359 0.0221,6.165088 3.071495,-3.071495 -3.093592,-3.093593 z"
     id="path2863" />
  <path
     id="path3268"
     d="M 18.010835,24.0221 16,24 c -2.267977,-0.237702 -4.545461,-1.805422 -6.363961,-3.623922 -1.8185,-1.8185 -3.38622,-4.095985 -3.623922,-6.363961 l -1.016466,0 c -10e-7,2.815145 1.078291,5.630291 3.226174,7.778174 2.147884,2.147884 4.963029,3.226175 7.778175,3.226175 l 1.988738,0 0.0221,-0.994369 z"
     style="fill:#000000;fill-opacity:1;stroke:none" />
  <path
     id="path3270"
     d="m 11.006058,14.01212 -11.004349,0 5.502175,-5.502175 5.502174,5.502175 z M 8.597476,13.017751 5.503884,9.924159 l -3.071495,3.071495 6.165087,0.0221 z"
     style="fill:#000000;fill-opacity:1;stroke:none" />
  <path
     id="path3272"
     d="m 8.597476,13.017751 -6.165087,-0.0221 3.071495,-3.071495 3.093592,3.093592 z"
     style="fill:#ffffff;fill-opacity:1;stroke:none" />
</svg>
