<?xml version="1.0" encoding="UTF-8" standalone="no"?>
<svg
   xmlns:dc="http://purl.org/dc/elements/1.1/"
   xmlns:cc="http://creativecommons.org/ns#"
   xmlns:rdf="http://www.w3.org/1999/02/22-rdf-syntax-ns#"
   xmlns:svg="http://www.w3.org/2000/svg"
   xmlns="http://www.w3.org/2000/svg"
   xmlns:sodipodi="http://sodipodi.sourceforge.net/DTD/sodipodi-0.dtd"
   xmlns:inkscape="http://www.inkscape.org/namespaces/inkscape"
   version="1.0"
   width="28"
   height="30"
   id="svg2"
   inkscape:version="0.47 r22583"
   sodipodi:docname="02-03-017-01-05-08.svg">
  <defs
     id="defs16">
    <inkscape:perspective
       sodipodi:type="inkscape:persp3d"
       inkscape:vp_x="0 : 23 : 1"
       inkscape:vp_y="0 : 1000 : 0"
       inkscape:vp_z="36 : 23 : 1"
       inkscape:persp3d-origin="18 : 15.333333 : 1"
       id="perspective18" />
  </defs>
  <sodipodi:namedview
     pagecolor="#ffffff"
     bordercolor="#666666"
     borderopacity="1"
     objecttolerance="10"
     gridtolerance="10"
     guidetolerance="10"
     inkscape:pageopacity="0"
     inkscape:pageshadow="2"
     inkscape:window-width="964"
     inkscape:window-height="721"
     id="namedview14"
     showgrid="true"
     inkscape:zoom="12.64"
     inkscape:cx="14.104638"
     inkscape:cy="14.642031"
     inkscape:window-x="365"
     inkscape:window-y="0"
     inkscape:window-maximized="0"
     inkscape:current-layer="svg2"
     showborder="true">
    <inkscape:grid
       type="xygrid"
       id="grid2824"
       empspacing="5"
       visible="true"
       enabled="true"
       snapvisiblegridlinesonly="true" />
  </sodipodi:namedview>
  <metadata
     id="metadata4">
Valerie Sutton's pixel definition of the
ISWA 2010 symbol ID 04-01-003-01-01-01
transformed by Stephen E Slevinski Jr
using line and fill polygon tracing
<rdf:RDF>
  <cc:Work
     rdf:about="">
    <dc:format>image/svg+xml</dc:format>
    <dc:type
       rdf:resource="http://purl.org/dc/dcmitype/StillImage" />
    <dc:title></dc:title>
  </cc:Work>
</rdf:RDF>
</metadata>
  <path
     style="fill:#000000;fill-opacity:1;stroke:none"
     d="M 24.464466,6.363961 3.9583696,26.870058 4.6654764,27.577164 25.171573,7.071068 24.464466,6.363961 z"
     id="path2831" />
  <path
     style="fill:#000000;fill-opacity:1;stroke:none"
     d="M 20.928932,2.8284271 0.4228357,23.334524 1.1299425,24.041631 21.636039,3.5355339 20.928932,2.8284271 z"
     id="path2833" />
  <path
     style="fill:#ffffff;fill-opacity:1;stroke:none"
     d="M 21.636039,3.5355339 1.1299425,24.041631 3.9583696,26.870058 24.464466,6.363961 21.636039,3.5355339 z"
     id="rect2821" />
  <path
     style="fill:#000000;fill-opacity:1;stroke:none"
     d="M 23.999997,16 21.989162,15.9779 C 19.721185,15.7402 17.4437,14.17248 15.625201,12.35398 13.806701,10.535481 12.238981,8.257996 12.001278,5.990019 l -1.016466,0 c 0,2.815146 1.078292,5.630291 3.226175,7.778175 2.147884,2.147883 4.963028,3.226175 7.778175,3.226175 l 1.988738,0 L 24,16 z"
     id="path2910" />
  <path
     style="fill:#000000;fill-opacity:1;stroke:none"
     d="m 16.99522,5.990019 -11.0043492,0 L 11.493045,0.4878446 16.99522,5.990019 z M 14.586638,4.99565 11.493045,1.9020581 8.42155,4.973553 l 6.165088,0.0221 z"
     id="path2964" />
  <path
     style="fill:#000000;fill-opacity:1;stroke:none"
     d="M 18.100505,0 28,0 28,9.899495 18.100505,0 z m 2.43068,1.016466 6.452349,6.452349 0,-6.452349 -6.452349,0 z"
     id="path2997" />
  <path
     style="fill:#ffffff;fill-opacity:1;stroke:none"
     d="m 20.531185,1.016466 6.452349,0 0,6.452349 -6.452349,-6.452349 z"
     id="path2966" />
  <path
     style="fill:#ffffff;fill-opacity:1;stroke:none"
     d="M 14.586638,4.99565 8.42155,4.973553 11.493045,1.9020581 14.586638,4.99565 z"
     id="path2863" />
  <path
     id="path3406"
     d="M 3.9779,11.989165 4,14 c 0.237699,2.267977 1.805419,4.545461 3.623919,6.363961 1.8185,1.818499 4.095984,3.386219 6.363961,3.623921 l 0,1.016466 c -2.815146,1e-6 -5.630291,-1.078291 -7.778174,-3.226174 C 4.061822,19.630291 2.983531,16.815146 2.983531,14 l 0,-1.988738 0.994369,-0.0221 z"
     style="fill:#000000;fill-opacity:1;stroke:none" />
  <path
     id="path3408"
     d="m 13.98788,18.993942 0,11.004348 5.502175,-5.502175 -5.502175,-5.502173 z m 0.994369,2.408582 3.093592,3.093591 -3.071495,3.071495 -0.0221,-6.165086 z"
     style="fill:#000000;fill-opacity:1;stroke:none" />
  <path
     id="path3410"
     d="m 14.982249,21.402524 0.0221,6.165086 3.071495,-3.071495 -3.093592,-3.093591 z"
     style="fill:#ffffff;fill-opacity:1;stroke:none" />
</svg>
