<?xml version="1.0" encoding="UTF-8" standalone="no"?>
<svg
   xmlns:dc="http://purl.org/dc/elements/1.1/"
   xmlns:cc="http://creativecommons.org/ns#"
   xmlns:rdf="http://www.w3.org/1999/02/22-rdf-syntax-ns#"
   xmlns:svg="http://www.w3.org/2000/svg"
   xmlns="http://www.w3.org/2000/svg"
   xmlns:sodipodi="http://sodipodi.sourceforge.net/DTD/sodipodi-0.dtd"
   xmlns:inkscape="http://www.inkscape.org/namespaces/inkscape"
   version="1.0"
   width="30"
   height="28"
   id="svg2"
   inkscape:version="0.47 r22583"
   sodipodi:docname="02-03-017-01-03-02.svg">
  <defs
     id="defs16">
    <inkscape:perspective
       sodipodi:type="inkscape:persp3d"
       inkscape:vp_x="0 : 23 : 1"
       inkscape:vp_y="0 : 1000 : 0"
       inkscape:vp_z="36 : 23 : 1"
       inkscape:persp3d-origin="18 : 15.333333 : 1"
       id="perspective18" />
  </defs>
  <sodipodi:namedview
     pagecolor="#ffffff"
     bordercolor="#666666"
     borderopacity="1"
     objecttolerance="10"
     gridtolerance="10"
     guidetolerance="10"
     inkscape:pageopacity="0"
     inkscape:pageshadow="2"
     inkscape:window-width="964"
     inkscape:window-height="721"
     id="namedview14"
     showgrid="true"
     inkscape:zoom="12.64"
     inkscape:cx="13.499108"
     inkscape:cy="14.653698"
     inkscape:window-x="365"
     inkscape:window-y="0"
     inkscape:window-maximized="0"
     inkscape:current-layer="svg2"
     showborder="true">
    <inkscape:grid
       type="xygrid"
       id="grid2824"
       empspacing="5"
       visible="true"
       enabled="true"
       snapvisiblegridlinesonly="true" />
  </sodipodi:namedview>
  <metadata
     id="metadata4">
Valerie Sutton's pixel definition of the
ISWA 2010 symbol ID 04-01-003-01-01-01
transformed by Stephen E Slevinski Jr
using line and fill polygon tracing
<rdf:RDF>
  <cc:Work
     rdf:about="">
    <dc:format>image/svg+xml</dc:format>
    <dc:type
       rdf:resource="http://purl.org/dc/dcmitype/StillImage" />
    <dc:title></dc:title>
  </cc:Work>
</rdf:RDF>
</metadata>
  <path
     style="fill:#000000;fill-opacity:1;stroke:none"
     d="M 0,9.899494 0,0 9.8994956,0 7.8886602,2.010834 l -5.8778252,0 0,5.877826 L 0,9.899494 z"
     id="path2966" />
  <path
     style="fill:#000000;fill-opacity:1;stroke:none"
     d="M 6.3639612,3.535533 26.870058,24.04163 27.577164,23.334523 7.0710682,2.828427 6.3639612,3.535533 z"
     id="path2831" />
  <path
     style="fill:#000000;fill-opacity:1;stroke:none"
     d="m -0.0021748,15.997825 5.502175,5.502174 5.5021738,-5.502174 -1.4142124,0 -4.0879614,4.087961 -4.0879614,-4.087961 -1.4142136,0 z"
     id="path3018" />
  <path
     style="fill:#000000;fill-opacity:1;stroke:none"
     d="M 16,5 C 9.9248676,4.999999 5.0000002,9.924867 5.0000002,16 l 1,-10e-7 C 6.0000012,10.477152 10.477153,6 16,5.999999 L 18,6 18,4.999999 16,5 z"
     id="path3020" />
  <path
     style="fill:#000000;fill-opacity:1;stroke:none"
     d="M 2.8284272,7.071067 23.334524,27.577164 24.04163,26.870057 3.535534,6.363961 2.8284272,7.071067 z"
     id="path2833" />
  <path
     id="path3480"
     d="M 23.997824,7.997826 29.499999,13.5 l -5.502175,5.502175 0,-1.414214 L 28.085785,13.5 23.997824,9.412039 l 0,-1.414213 z"
     style="fill:#000000;fill-opacity:1;stroke:none" />
  <path
     id="path3482"
     d="m 13,24 c -10e-7,-6.075132 4.924867,-11 10.999999,-10.999999 L 23.999998,14 c -5.522846,10e-7 -9.999999,4.477154 -10,10 l 1e-6,2 -1,0 L 13,24 z"
     style="fill:#000000;fill-opacity:1;stroke:none" />
  <path
     style="fill:#ffffff;fill-opacity:1;stroke:none"
     d="M 3.535534,6.363961 24.04163,26.870057 26.870058,24.04163 6.3639612,3.535533 3.535534,6.363961 z"
     id="rect2821" />
</svg>
