<?xml version="1.0" encoding="UTF-8" standalone="no"?>
<svg
   xmlns:dc="http://purl.org/dc/elements/1.1/"
   xmlns:cc="http://creativecommons.org/ns#"
   xmlns:rdf="http://www.w3.org/1999/02/22-rdf-syntax-ns#"
   xmlns:svg="http://www.w3.org/2000/svg"
   xmlns="http://www.w3.org/2000/svg"
   xmlns:sodipodi="http://sodipodi.sourceforge.net/DTD/sodipodi-0.dtd"
   xmlns:inkscape="http://www.inkscape.org/namespaces/inkscape"
   version="1.0"
   width="28"
   height="30"
   id="svg2"
   inkscape:version="0.47 r22583"
   sodipodi:docname="02-03-017-01-04-16.svg">
  <defs
     id="defs16">
    <inkscape:perspective
       sodipodi:type="inkscape:persp3d"
       inkscape:vp_x="0 : 23 : 1"
       inkscape:vp_y="0 : 1000 : 0"
       inkscape:vp_z="36 : 23 : 1"
       inkscape:persp3d-origin="18 : 15.333333 : 1"
       id="perspective18" />
  </defs>
  <sodipodi:namedview
     pagecolor="#ffffff"
     bordercolor="#666666"
     borderopacity="1"
     objecttolerance="10"
     gridtolerance="10"
     guidetolerance="10"
     inkscape:pageopacity="0"
     inkscape:pageshadow="2"
     inkscape:window-width="964"
     inkscape:window-height="721"
     id="namedview14"
     showgrid="true"
     inkscape:zoom="12.64"
     inkscape:cx="13.94064"
     inkscape:cy="14.676979"
     inkscape:window-x="365"
     inkscape:window-y="0"
     inkscape:window-maximized="0"
     inkscape:current-layer="svg2"
     showborder="true">
    <inkscape:grid
       type="xygrid"
       id="grid2824"
       empspacing="5"
       visible="true"
       enabled="true"
       snapvisiblegridlinesonly="true" />
  </sodipodi:namedview>
  <metadata
     id="metadata4">
Valerie Sutton's pixel definition of the
ISWA 2010 symbol ID 04-01-003-01-01-01
transformed by Stephen E Slevinski Jr
using line and fill polygon tracing
<rdf:RDF>
  <cc:Work
     rdf:about="">
    <dc:format>image/svg+xml</dc:format>
    <dc:type
       rdf:resource="http://purl.org/dc/dcmitype/StillImage" />
    <dc:title></dc:title>
  </cc:Work>
</rdf:RDF>
</metadata>
  <path
     style="fill:#000000;fill-opacity:1;stroke:none"
     d="M 2.8284272,7.071068 23.334524,27.577164 24.04163,26.870057 3.535534,6.363961 2.8284272,7.071068 z"
     id="path2831" />
  <path
     style="fill:#000000;fill-opacity:1;stroke:none"
     d="m 11.984853,6.993476 5.500001,-5.5 5.5,5.5 -11.000001,0 z"
     id="path2964" />
  <path
     style="fill:#000000;fill-opacity:1;stroke:none"
     d="M 9.8994952,0 0,9.8994952 0,0 9.8994952,0 z"
     id="path2966" />
  <path
     style="fill:#000000;fill-opacity:1;stroke:none"
     d="M 6.3639612,3.5355339 26.870058,24.04163 27.577164,23.334524 7.0710682,2.828427 6.3639612,3.5355339 z"
     id="path2833" />
  <path
     style="fill:#ffffff;fill-opacity:1;stroke:none"
     d="M 3.535534,6.363961 24.04163,26.870057 26.870058,24.04163 6.3639612,3.5355339 3.535534,6.363961 z"
     id="rect2821" />
  <path
     style="fill:#000000;fill-opacity:1;stroke:none"
     d="m 4.977903,17.005631 2.0108347,-0.0221 c 2.2679771,-0.237702 4.5454613,-1.805422 6.3639613,-3.623922 1.8185,-1.8185 3.386221,-4.0959848 3.623922,-6.363961 l 1.016466,0 c 1e-6,2.8151462 -1.078291,5.630291 -3.226174,7.778175 C 12.619029,16.921709 9.8038838,18 6.9887377,18 l -1.9887376,0 -0.022097,-0.994369 z"
     id="path2850" />
  <path
     id="path2990"
     d="m 14.009944,18.996116 -5.5,5.5 5.5,5.5 0,-11 z"
     style="fill:#000000;fill-opacity:1;stroke:none" />
  <path
     id="path2992"
     d="M 24.0221,11.989165 24,14 c -0.237703,2.267977 -1.805423,4.545462 -3.623922,6.36396 -1.8185,1.8185 -4.095985,3.38622 -6.363961,3.623923 l 0,1.016466 c 2.815146,10e-7 5.630291,-1.078291 7.778174,-3.226175 C 23.938176,19.630291 25.016467,16.815146 25.016467,14 l 0,-1.988738 -0.994369,-0.0221 z"
     style="fill:#000000;fill-opacity:1;stroke:none" />
</svg>
