<?xml version="1.0" encoding="UTF-8" standalone="no"?>
<svg
   xmlns:dc="http://purl.org/dc/elements/1.1/"
   xmlns:cc="http://creativecommons.org/ns#"
   xmlns:rdf="http://www.w3.org/1999/02/22-rdf-syntax-ns#"
   xmlns:svg="http://www.w3.org/2000/svg"
   xmlns="http://www.w3.org/2000/svg"
   xmlns:sodipodi="http://sodipodi.sourceforge.net/DTD/sodipodi-0.dtd"
   xmlns:inkscape="http://www.inkscape.org/namespaces/inkscape"
   version="1.0"
   width="28"
   height="30"
   id="svg2"
   inkscape:version="0.47 r22583"
   sodipodi:docname="02-03-017-01-02-08.svg">
  <defs
     id="defs16">
    <inkscape:perspective
       sodipodi:type="inkscape:persp3d"
       inkscape:vp_x="0 : 23 : 1"
       inkscape:vp_y="0 : 1000 : 0"
       inkscape:vp_z="36 : 23 : 1"
       inkscape:persp3d-origin="18 : 15.333333 : 1"
       id="perspective18" />
  </defs>
  <sodipodi:namedview
     pagecolor="#ffffff"
     bordercolor="#666666"
     borderopacity="1"
     objecttolerance="10"
     gridtolerance="10"
     guidetolerance="10"
     inkscape:pageopacity="0"
     inkscape:pageshadow="2"
     inkscape:window-width="964"
     inkscape:window-height="721"
     id="namedview14"
     showgrid="true"
     inkscape:zoom="12.64"
     inkscape:cx="14.104638"
     inkscape:cy="14.642031"
     inkscape:window-x="365"
     inkscape:window-y="0"
     inkscape:window-maximized="0"
     inkscape:current-layer="svg2"
     showborder="true">
    <inkscape:grid
       type="xygrid"
       id="grid2824"
       empspacing="5"
       visible="true"
       enabled="true"
       snapvisiblegridlinesonly="true" />
  </sodipodi:namedview>
  <metadata
     id="metadata4">
Valerie Sutton's pixel definition of the
ISWA 2010 symbol ID 04-01-003-01-01-01
transformed by Stephen E Slevinski Jr
using line and fill polygon tracing
<rdf:RDF>
  <cc:Work
     rdf:about="">
    <dc:format>image/svg+xml</dc:format>
    <dc:type
       rdf:resource="http://purl.org/dc/dcmitype/StillImage" />
    <dc:title></dc:title>
  </cc:Work>
</rdf:RDF>
</metadata>
  <path
     style="fill:#000000;fill-opacity:1;stroke:none"
     d="m 4,13 c 6.075133,-10e-7 11.000001,4.924867 11,10.999999 l -0.999999,0 C 14,18.477152 9.522847,13.999999 4,13.999998 l -2,1e-6 0,-1 L 4,13 z"
     id="path2910" />
  <path
     style="fill:#000000;fill-opacity:1;stroke:none"
     d="M 24.464466,6.3639606 3.9583695,26.870058 4.6654762,27.577165 25.171573,7.0710676 24.464466,6.3639606 z"
     id="path2831" />
  <path
     style="fill:#000000;fill-opacity:1;stroke:none"
     d="m 8.997826,23.997824 11.00435,0 -5.502175,5.502175 -5.502175,-5.502175 z m 2.408583,0.994369 3.093592,3.093592 3.071495,-3.071495 -6.165087,-0.0221 z"
     id="path2964" />
  <path
     style="fill:#000000;fill-opacity:1;stroke:none"
     d="M 18.100505,0 28,0 28,9.8994946 18.100505,0 z m 2.43068,1.016466 6.452349,6.4523496 0,-6.4523496 -6.452349,0 z"
     id="path2997" />
  <path
     style="fill:#000000;fill-opacity:1;stroke:none"
     d="M 20.928932,2.8284271 0.4228356,23.334524 1.1299423,24.041631 21.636039,3.5355339 20.928932,2.8284271 z"
     id="path2833" />
  <path
     style="fill:#ffffff;fill-opacity:1;stroke:none"
     d="m 20.531185,1.016466 6.452349,0 0,6.4523496 -6.452349,-6.4523496 z"
     id="path2966" />
  <path
     style="fill:#ffffff;fill-opacity:1;stroke:none"
     d="m 11.406409,24.992193 6.165087,0.0221 -3.071495,3.071495 -3.093592,-3.093592 z"
     id="path2863" />
  <path
     id="path3075"
     d="M 23,16 C 23.000001,9.924867 18.075133,4.9999996 12,4.9999996 l 10e-7,1 C 17.522848,6.0000006 22,10.477153 22.000001,16 L 22,18 23.000001,18 23,16 z"
     style="fill:#000000;fill-opacity:1;stroke:none" />
  <path
     style="fill:#ffffff;fill-opacity:1;stroke:none"
     d="M 21.636039,3.5355339 1.1299423,24.041631 3.9583695,26.870058 24.464466,6.3639606 21.636039,3.5355339 z"
     id="rect2821" />
  <path
     id="path3077"
     d="m 12.002175,11.002174 0,-11.0043494 -5.5021744,5.502175 5.5021744,5.5021744 z m -0.994369,-2.4085824 -3.093592,-3.093592 3.071495,-3.0714954 0.0221,6.1650874 z"
     style="fill:#000000;fill-opacity:1;stroke:none" />
  <path
     id="path3079"
     d="m 11.007806,8.5935916 -0.0221,-6.1650874 -3.071495,3.0714954 3.093592,3.093592 z"
     style="fill:#ffffff;fill-opacity:1;stroke:none" />
</svg>
