<?xml version="1.0" encoding="UTF-8" standalone="no"?>
<svg
   xmlns:dc="http://purl.org/dc/elements/1.1/"
   xmlns:cc="http://creativecommons.org/ns#"
   xmlns:rdf="http://www.w3.org/1999/02/22-rdf-syntax-ns#"
   xmlns:svg="http://www.w3.org/2000/svg"
   xmlns="http://www.w3.org/2000/svg"
   xmlns:sodipodi="http://sodipodi.sourceforge.net/DTD/sodipodi-0.dtd"
   xmlns:inkscape="http://www.inkscape.org/namespaces/inkscape"
   version="1.0"
   width="30"
   height="28"
   id="svg2"
   inkscape:version="0.47 r22583"
   sodipodi:docname="02-03-017-01-02-10.svg">
  <defs
     id="defs16">
    <inkscape:perspective
       sodipodi:type="inkscape:persp3d"
       inkscape:vp_x="0 : 23 : 1"
       inkscape:vp_y="0 : 1000 : 0"
       inkscape:vp_z="36 : 23 : 1"
       inkscape:persp3d-origin="18 : 15.333333 : 1"
       id="perspective18" />
  </defs>
  <sodipodi:namedview
     pagecolor="#ffffff"
     bordercolor="#666666"
     borderopacity="1"
     objecttolerance="10"
     gridtolerance="10"
     guidetolerance="10"
     inkscape:pageopacity="0"
     inkscape:pageshadow="2"
     inkscape:window-width="964"
     inkscape:window-height="721"
     id="namedview14"
     showgrid="true"
     inkscape:zoom="12.64"
     inkscape:cx="14.104638"
     inkscape:cy="14.642031"
     inkscape:window-x="365"
     inkscape:window-y="0"
     inkscape:window-maximized="0"
     inkscape:current-layer="svg2"
     showborder="true">
    <inkscape:grid
       type="xygrid"
       id="grid2824"
       empspacing="5"
       visible="true"
       enabled="true"
       snapvisiblegridlinesonly="true" />
  </sodipodi:namedview>
  <metadata
     id="metadata4">
Valerie Sutton's pixel definition of the
ISWA 2010 symbol ID 04-01-003-01-01-01
transformed by Stephen E Slevinski Jr
using line and fill polygon tracing
<rdf:RDF>
  <cc:Work
     rdf:about="">
    <dc:format>image/svg+xml</dc:format>
    <dc:type
       rdf:resource="http://purl.org/dc/dcmitype/StillImage" />
    <dc:title></dc:title>
  </cc:Work>
</rdf:RDF>
</metadata>
  <path
     style="fill:#000000;fill-opacity:1;stroke:none"
     d="M 13.999999,5.0000005 C 20.075132,4.9999997 25,9.924868 24.999999,16 L 24,16 C 23.999999,10.477154 19.522846,6 13.999999,5.999999 L 12,6 l 0,-1.0000003 1.999999,8e-7 z"
     id="path2910" />
  <path
     style="fill:#000000;fill-opacity:1;stroke:none"
     d="M 26.464466,6.3639605 5.9583695,26.870057 6.6654763,27.577164 27.171573,7.0710675 26.464466,6.3639605 z"
     id="path2831" />
  <path
     style="fill:#000000;fill-opacity:1;stroke:none"
     d="m 18.997825,15.997825 11.004349,0 L 24.5,21.5 18.997825,15.997825 z m 2.408583,0.994369 3.093592,3.093592 3.071495,-3.071495 -6.165087,-0.0221 z"
     id="path2964" />
  <path
     style="fill:#000000;fill-opacity:1;stroke:none"
     d="M 20.100505,0 30,0 30,9.8994945 20.100505,0 z m 2.43068,1.016466 6.452349,6.4523495 0,-6.4523495 -6.452349,0 z"
     id="path2997" />
  <path
     style="fill:#000000;fill-opacity:1;stroke:none"
     d="M 22.928932,2.8284271 2.4228356,23.334523 3.1299424,24.04163 23.636039,3.5355339 22.928932,2.8284271 z"
     id="path2833" />
  <path
     style="fill:#ffffff;fill-opacity:1;stroke:none"
     d="m 22.531185,1.016466 6.452349,0 0,6.4523495 -6.452349,-6.4523495 z"
     id="path2966" />
  <path
     style="fill:#ffffff;fill-opacity:1;stroke:none"
     d="m 21.406408,16.992194 6.165087,0.0221 L 24.5,20.085788 21.406408,16.992196 z"
     id="path2863" />
  <path
     id="path2937"
     d="m 17,24 c 2e-6,-6.075132 -4.924866,-11 -10.9999995,-10.999999 l 1e-6,1 C 11.522848,14.000001 16,18.477153 16.000002,24 L 16,26 17.000002,26 17,24 z"
     style="fill:#000000;fill-opacity:1;stroke:none" />
  <path
     style="fill:#ffffff;fill-opacity:1;stroke:none"
     d="M 23.636039,3.5355339 3.1299424,24.04163 5.9583695,26.870057 26.464466,6.3639605 23.636039,3.5355339 z"
     id="rect2821" />
  <path
     id="path2939"
     d="m 6.0021755,19.002174 0,-11.004349 L 0.5000015,13.5 6.0021755,19.002174 z M 5.0078065,16.593592 1.9142145,13.5 l 3.071495,-3.071495 0.0221,6.165087 z"
     style="fill:#000000;fill-opacity:1;stroke:none" />
  <path
     id="path2941"
     d="m 5.0078065,16.593592 -0.0221,-6.165086 -3.071495,3.071495 3.093592,3.093592 z"
     style="fill:#ffffff;fill-opacity:1;stroke:none" />
</svg>
