<?xml version="1.0" encoding="UTF-8" standalone="no"?>
<svg
   xmlns:dc="http://purl.org/dc/elements/1.1/"
   xmlns:cc="http://creativecommons.org/ns#"
   xmlns:rdf="http://www.w3.org/1999/02/22-rdf-syntax-ns#"
   xmlns:svg="http://www.w3.org/2000/svg"
   xmlns="http://www.w3.org/2000/svg"
   xmlns:sodipodi="http://sodipodi.sourceforge.net/DTD/sodipodi-0.dtd"
   xmlns:inkscape="http://www.inkscape.org/namespaces/inkscape"
   version="1.0"
   width="28"
   height="30"
   id="svg2"
   inkscape:version="0.47 r22583"
   sodipodi:docname="02-03-017-01-01-04.svg">
  <defs
     id="defs16">
    <inkscape:perspective
       sodipodi:type="inkscape:persp3d"
       inkscape:vp_x="0 : 23 : 1"
       inkscape:vp_y="0 : 1000 : 0"
       inkscape:vp_z="36 : 23 : 1"
       inkscape:persp3d-origin="18 : 15.333333 : 1"
       id="perspective18" />
  </defs>
  <sodipodi:namedview
     pagecolor="#ffffff"
     bordercolor="#666666"
     borderopacity="1"
     objecttolerance="10"
     gridtolerance="10"
     guidetolerance="10"
     inkscape:pageopacity="0"
     inkscape:pageshadow="2"
     inkscape:window-width="964"
     inkscape:window-height="721"
     id="namedview14"
     showgrid="true"
     inkscape:zoom="12.64"
     inkscape:cx="13.94064"
     inkscape:cy="14.676979"
     inkscape:window-x="365"
     inkscape:window-y="0"
     inkscape:window-maximized="0"
     inkscape:current-layer="svg2"
     showborder="true">
    <inkscape:grid
       type="xygrid"
       id="grid2824"
       empspacing="5"
       visible="true"
       enabled="true"
       snapvisiblegridlinesonly="true" />
  </sodipodi:namedview>
  <metadata
     id="metadata4">
Valerie Sutton's pixel definition of the
ISWA 2010 symbol ID 04-01-003-01-01-01
transformed by Stephen E Slevinski Jr
using line and fill polygon tracing
<rdf:RDF>
  <cc:Work
     rdf:about="">
    <dc:format>image/svg+xml</dc:format>
    <dc:type
       rdf:resource="http://purl.org/dc/dcmitype/StillImage" />
    <dc:title></dc:title>
  </cc:Work>
</rdf:RDF>
</metadata>
  <path
     style="fill:#000000;fill-opacity:1;stroke:none"
     d="M 2.8284271,22.928932 23.334524,2.4228355 24.04163,3.1299423 3.5355339,23.636039 2.8284271,22.928932 z"
     id="path2831" />
  <path
     style="fill:#000000;fill-opacity:1;stroke:none"
     d="m 19.003884,6.0099454 -5.500001,-5.5 -5.5,5.5 11.000001,0 z"
     id="path2964" />
  <path
     style="fill:#000000;fill-opacity:1;stroke:none"
     d="M 9.8994949,30 0,20.100505 0,30 9.8994949,30 z"
     id="path2966" />
  <path
     style="fill:#000000;fill-opacity:1;stroke:none"
     d="M 6.363961,26.464466 26.870058,5.9583694 27.577164,6.6654762 7.0710678,27.171573 6.363961,26.464466 z"
     id="path2833" />
  <path
     style="fill:#ffffff;fill-opacity:1;stroke:none"
     d="M 3.5355339,23.636039 24.04163,3.1299423 26.870058,5.9583694 6.363961,26.464466 3.5355339,23.636039 z"
     id="rect2821" />
  <path
     style="fill:#000000;fill-opacity:1;stroke:none"
     d="M 26.010835,16.0221 24,16 c -2.267978,-0.237702 -4.545462,-1.805422 -6.363962,-3.623922 -1.8185,-1.8185 -3.38622,-4.095985 -3.623922,-6.3639606 l -1.016466,0 c -10e-7,2.8151446 1.078291,5.6302906 3.226175,7.7781736 2.147883,2.147887 4.963028,3.226178 7.778175,3.226178 l 1.988737,0 0.0221,-0.994369 z"
     id="path2850" />
  <path
     id="path2988"
     d="m 16.012156,19.00695 5.499999,5.500001 -5.499999,5.499999 0,-11 z"
     style="fill:#000000;fill-opacity:1;stroke:none" />
  <path
     id="path2990"
     d="m 6,12 0.022097,2.010834 c 0.2377024,2.267978 1.8054225,4.545462 3.6239222,6.363961 1.8184998,1.8185 4.0959848,3.386221 6.3639618,3.623923 l 0,1.016466 c -2.815146,0 -5.630291,-1.078291 -7.7781753,-3.226175 C 6.0839222,19.641126 5.0056311,16.825981 5.0056311,14.010834 l 0,-1.988737 L 6,11.999997 z"
     style="fill:#000000;fill-opacity:1;stroke:none" />
</svg>
