<?xml version="1.0" encoding="UTF-8" standalone="no"?>
<svg
   xmlns:dc="http://purl.org/dc/elements/1.1/"
   xmlns:cc="http://creativecommons.org/ns#"
   xmlns:rdf="http://www.w3.org/1999/02/22-rdf-syntax-ns#"
   xmlns:svg="http://www.w3.org/2000/svg"
   xmlns="http://www.w3.org/2000/svg"
   xmlns:sodipodi="http://sodipodi.sourceforge.net/DTD/sodipodi-0.dtd"
   xmlns:inkscape="http://www.inkscape.org/namespaces/inkscape"
   version="1.0"
   width="30"
   height="28"
   id="svg2"
   inkscape:version="0.47 r22583"
   sodipodi:docname="02-03-017-01-06-06.svg">
  <defs
     id="defs16">
    <inkscape:perspective
       sodipodi:type="inkscape:persp3d"
       inkscape:vp_x="0 : 23 : 1"
       inkscape:vp_y="0 : 1000 : 0"
       inkscape:vp_z="36 : 23 : 1"
       inkscape:persp3d-origin="18 : 15.333333 : 1"
       id="perspective18" />
  </defs>
  <sodipodi:namedview
     pagecolor="#ffffff"
     bordercolor="#666666"
     borderopacity="1"
     objecttolerance="10"
     gridtolerance="10"
     guidetolerance="10"
     inkscape:pageopacity="0"
     inkscape:pageshadow="2"
     inkscape:window-width="964"
     inkscape:window-height="721"
     id="namedview14"
     showgrid="true"
     inkscape:zoom="12.64"
     inkscape:cx="13.499108"
     inkscape:cy="14.653698"
     inkscape:window-x="365"
     inkscape:window-y="0"
     inkscape:window-maximized="0"
     inkscape:current-layer="svg2"
     showborder="true">
    <inkscape:grid
       type="xygrid"
       id="grid2824"
       empspacing="5"
       visible="true"
       enabled="true"
       snapvisiblegridlinesonly="true" />
  </sodipodi:namedview>
  <metadata
     id="metadata4">
Valerie Sutton's pixel definition of the
ISWA 2010 symbol ID 04-01-003-01-01-01
transformed by Stephen E Slevinski Jr
using line and fill polygon tracing
<rdf:RDF>
  <cc:Work
     rdf:about="">
    <dc:format>image/svg+xml</dc:format>
    <dc:type
       rdf:resource="http://purl.org/dc/dcmitype/StillImage" />
    <dc:title></dc:title>
  </cc:Work>
</rdf:RDF>
</metadata>
  <path
     style="fill:#000000;fill-opacity:1;stroke:none"
     d="M 26.464466,21.636039 5.9583695,1.1299418 6.6654763,0.4228351 27.171573,20.928932 26.464466,21.636039 z"
     id="path2831" />
  <path
     style="fill:#000000;fill-opacity:1;stroke:none"
     d="M 20.100505,28 30,28 l 0,-9.899495 -2.010835,2.010835 0,5.877825 -5.877825,0 L 20.100505,28 z"
     id="path2966" />
  <path
     style="fill:#000000;fill-opacity:1;stroke:none"
     d="M 23.997826,5.9978249 29.5,11.5 l -5.502174,5.502174 0,-1.414213 L 28.085787,11.5 23.997826,7.412038 l 0,-1.4142131 z"
     id="path3018" />
  <path
     style="fill:#000000;fill-opacity:1;stroke:none"
     d="m 13.000001,22 c -10e-7,-6.075133 4.924867,-11.000001 11,-11 L 24,12 c -5.522847,0 -10,4.477153 -10,10 l 0,2 -1,0 10e-7,-2 z"
     id="path3020" />
  <path
     style="fill:#000000;fill-opacity:1;stroke:none"
     d="M 22.928932,25.171572 2.4228356,4.6654758 3.1299424,3.958369 23.636039,24.464466 22.928932,25.171572 z"
     id="path2833" />
  <path
     id="path3065"
     d="m -0.0021744,13.997824 5.5021747,5.502175 5.5021747,-5.502175 -1.414214,0 -4.0879607,4.087961 -4.0879611,-4.087961 -1.4142136,0 z"
     style="fill:#000000;fill-opacity:1;stroke:none" />
  <path
     id="path3067"
     d="M 16,3 C 9.924868,2.999999 5.0000001,7.9248671 5.0000008,13.999999 l 0.9999997,-1e-6 C 6.0000011,8.477152 10.477153,3.9999991 16,3.9999991 l 2,0 L 18,2.999999 16,3 z"
     style="fill:#000000;fill-opacity:1;stroke:none" />
  <path
     style="fill:#ffffff;fill-opacity:1;stroke:none"
     d="M 23.636039,24.464466 3.1299424,3.958369 5.9583695,1.1299418 26.464466,21.636039 23.636039,24.464466 z"
     id="rect2821" />
</svg>
