<?xml version="1.0" encoding="UTF-8" standalone="no"?>
<svg
   xmlns:dc="http://purl.org/dc/elements/1.1/"
   xmlns:cc="http://creativecommons.org/ns#"
   xmlns:rdf="http://www.w3.org/1999/02/22-rdf-syntax-ns#"
   xmlns:svg="http://www.w3.org/2000/svg"
   xmlns="http://www.w3.org/2000/svg"
   xmlns:sodipodi="http://sodipodi.sourceforge.net/DTD/sodipodi-0.dtd"
   xmlns:inkscape="http://www.inkscape.org/namespaces/inkscape"
   version="1.0"
   width="30"
   height="28"
   id="svg2"
   inkscape:version="0.47 r22583"
   sodipodi:docname="02-03-017-01-01-06.svg">
  <defs
     id="defs16">
    <inkscape:perspective
       sodipodi:type="inkscape:persp3d"
       inkscape:vp_x="0 : 23 : 1"
       inkscape:vp_y="0 : 1000 : 0"
       inkscape:vp_z="36 : 23 : 1"
       inkscape:persp3d-origin="18 : 15.333333 : 1"
       id="perspective18" />
  </defs>
  <sodipodi:namedview
     pagecolor="#ffffff"
     bordercolor="#666666"
     borderopacity="1"
     objecttolerance="10"
     gridtolerance="10"
     guidetolerance="10"
     inkscape:pageopacity="0"
     inkscape:pageshadow="2"
     inkscape:window-width="964"
     inkscape:window-height="721"
     id="namedview14"
     showgrid="true"
     inkscape:zoom="12.64"
     inkscape:cx="13.94064"
     inkscape:cy="14.676979"
     inkscape:window-x="365"
     inkscape:window-y="0"
     inkscape:window-maximized="0"
     inkscape:current-layer="svg2"
     showborder="true">
    <inkscape:grid
       type="xygrid"
       id="grid2824"
       empspacing="5"
       visible="true"
       enabled="true"
       snapvisiblegridlinesonly="true" />
  </sodipodi:namedview>
  <metadata
     id="metadata4">
Valerie Sutton's pixel definition of the
ISWA 2010 symbol ID 04-01-003-01-01-01
transformed by Stephen E Slevinski Jr
using line and fill polygon tracing
<rdf:RDF>
  <cc:Work
     rdf:about="">
    <dc:format>image/svg+xml</dc:format>
    <dc:type
       rdf:resource="http://purl.org/dc/dcmitype/StillImage" />
    <dc:title></dc:title>
  </cc:Work>
</rdf:RDF>
</metadata>
  <path
     style="fill:#000000;fill-opacity:1;stroke:none"
     d="M 22.928932,25.171573 2.4228353,4.6654763 3.1299421,3.9583702 23.636039,24.464466 22.928932,25.171573 z"
     id="path2831" />
  <path
     style="fill:#000000;fill-opacity:1;stroke:none"
     d="m 6.0099455,8.996115 -5.5,5.500002 5.5,5.5 0,-11.000002 z"
     id="path2964" />
  <path
     style="fill:#000000;fill-opacity:1;stroke:none"
     d="M 30,18.100505 20.100505,28 30,28 30,18.100505 z"
     id="path2966" />
  <path
     style="fill:#000000;fill-opacity:1;stroke:none"
     d="M 26.464466,21.636039 5.9583692,1.1299423 6.665476,0.4228363 27.171573,20.928932 26.464466,21.636039 z"
     id="path2833" />
  <path
     style="fill:#ffffff;fill-opacity:1;stroke:none"
     d="M 23.636039,24.464466 3.1299421,3.9583702 5.9583692,1.1299423 26.464466,21.636039 23.636039,24.464466 z"
     id="rect2821" />
  <path
     style="fill:#000000;fill-opacity:1;stroke:none"
     d="M 16.0221,1.9891652 16,4 c -0.237702,2.2679772 -1.805422,4.545461 -3.623922,6.363962 -1.8185,1.8185 -4.095984,3.38622 -6.3639605,3.623922 l 0,1.016466 c 2.8151455,10e-7 5.6302905,-1.078291 7.7781735,-3.226175 C 15.938178,9.630292 17.016469,6.8151463 17.016469,4 l 0,-1.9887378 -0.994369,-0.022097 z"
     id="path2850" />
  <path
     id="path2988"
     d="m 19.00695,11.987844 5.500001,-5.4999987 5.499999,5.4999987 -11,0 z"
     style="fill:#000000;fill-opacity:1;stroke:none" />
  <path
     id="path2990"
     d="m 12,22 2.010834,-0.0221 c 2.267978,-0.237702 4.545462,-1.805422 6.363961,-3.623922 1.8185,-1.8185 3.386221,-4.095985 3.623923,-6.363962 l 1.016466,0 c 0,2.815146 -1.078291,5.630291 -3.226175,7.778176 -2.147883,2.147883 -4.963028,3.226174 -7.778175,3.226174 l -1.988737,0 -0.0221,-0.994369 z"
     style="fill:#000000;fill-opacity:1;stroke:none" />
</svg>
