<?xml version="1.0" encoding="UTF-8" standalone="no"?>
<svg
   xmlns:dc="http://purl.org/dc/elements/1.1/"
   xmlns:cc="http://creativecommons.org/ns#"
   xmlns:rdf="http://www.w3.org/1999/02/22-rdf-syntax-ns#"
   xmlns:svg="http://www.w3.org/2000/svg"
   xmlns="http://www.w3.org/2000/svg"
   xmlns:sodipodi="http://sodipodi.sourceforge.net/DTD/sodipodi-0.dtd"
   xmlns:inkscape="http://www.inkscape.org/namespaces/inkscape"
   version="1.0"
   width="28"
   height="30"
   id="svg2"
   inkscape:version="0.47 r22583"
   sodipodi:docname="02-03-017-01-02-04.svg">
  <defs
     id="defs16">
    <inkscape:perspective
       sodipodi:type="inkscape:persp3d"
       inkscape:vp_x="0 : 23 : 1"
       inkscape:vp_y="0 : 1000 : 0"
       inkscape:vp_z="36 : 23 : 1"
       inkscape:persp3d-origin="18 : 15.333333 : 1"
       id="perspective18" />
  </defs>
  <sodipodi:namedview
     pagecolor="#ffffff"
     bordercolor="#666666"
     borderopacity="1"
     objecttolerance="10"
     gridtolerance="10"
     guidetolerance="10"
     inkscape:pageopacity="0"
     inkscape:pageshadow="2"
     inkscape:window-width="964"
     inkscape:window-height="721"
     id="namedview14"
     showgrid="true"
     inkscape:zoom="12.64"
     inkscape:cx="14.104638"
     inkscape:cy="14.642031"
     inkscape:window-x="365"
     inkscape:window-y="0"
     inkscape:window-maximized="0"
     inkscape:current-layer="svg2"
     showborder="true">
    <inkscape:grid
       type="xygrid"
       id="grid2824"
       empspacing="5"
       visible="true"
       enabled="true"
       snapvisiblegridlinesonly="true" />
  </sodipodi:namedview>
  <metadata
     id="metadata4">
Valerie Sutton's pixel definition of the
ISWA 2010 symbol ID 04-01-003-01-01-01
transformed by Stephen E Slevinski Jr
using line and fill polygon tracing
<rdf:RDF>
  <cc:Work
     rdf:about="">
    <dc:format>image/svg+xml</dc:format>
    <dc:type
       rdf:resource="http://purl.org/dc/dcmitype/StillImage" />
    <dc:title></dc:title>
  </cc:Work>
</rdf:RDF>
</metadata>
  <path
     style="fill:#000000;fill-opacity:1;stroke:none"
     d="M 6.363961,26.455341 26.870057,5.9492447 27.577164,6.6563515 7.071068,27.162448 6.363961,26.455341 z"
     id="path2831" />
  <path
     style="fill:#000000;fill-opacity:1;stroke:none"
     d="M 2.828427,22.919807 23.334523,2.4137108 24.04163,3.1208176 3.535534,23.626914 2.828427,22.919807 z"
     id="path2833" />
  <path
     style="fill:#ffffff;fill-opacity:1;stroke:none"
     d="M 3.535534,23.626914 24.04163,3.1208176 26.870057,5.9492447 6.363961,26.455341 3.535534,23.626914 z"
     id="rect2821" />
  <path
     style="fill:#000000;fill-opacity:1;stroke:none"
     d="M 26.010835,16.0221 24,16 c -2.267977,-0.237699 -4.545461,-1.805419 -6.363961,-3.623919 -1.8185,-1.8185 -3.38622,-4.095985 -3.623922,-6.3639609 l -1.016466,0 c -1e-6,2.8151449 1.078291,5.6302909 3.226175,7.7781739 2.147883,2.147884 4.963028,3.226175 7.778174,3.226175 l 1.988738,0 0.0221,-0.994369 z"
     id="path2910" />
  <path
     style="fill:#000000;fill-opacity:1;stroke:none"
     d="m 19.006058,6.0121201 -11.004349,0 5.502175,-5.502175 5.502174,5.502175 z m -2.408582,-0.994369 -3.093592,-3.093592 -3.071495,3.071495 6.165087,0.0221 z"
     id="path2964" />
  <path
     style="fill:#000000;fill-opacity:1;stroke:none"
     d="m 0,20.09138 0,9.899495 9.899495,0 L 0,20.09138 z m 1.016466,2.43068 6.452349,6.452349 -6.452349,0 0,-6.452349 z"
     id="path2997" />
  <path
     style="fill:#ffffff;fill-opacity:1;stroke:none"
     d="m 1.016466,22.52206 0,6.452349 6.452349,0 -6.452349,-6.452349 z"
     id="path2966" />
  <path
     style="fill:#ffffff;fill-opacity:1;stroke:none"
     d="m 16.597476,5.0177511 -6.165087,-0.0221 3.071495,-3.071495 3.093592,3.093592 z"
     id="path2863" />
  <path
     id="path3006"
     d="m 5.999997,11.990875 0.0221,2.010834 c 0.237703,2.267978 1.805423,4.545462 3.623923,6.363961 1.818499,1.8185 4.095984,3.386221 6.363961,3.623923 l 0,1.016466 c -2.815146,0 -5.630291,-1.078291 -7.778175,-3.226175 C 6.083923,19.632001 5.005631,16.816856 5.005631,14.001709 l 0,-1.988737 L 6,11.990872 z"
     style="fill:#000000;fill-opacity:1;stroke:none" />
  <path
     id="path3008"
     d="m 16.009978,18.995651 0,11.004349 5.502174,-5.502174 -5.502174,-5.502175 z m 0.994369,2.408583 3.093592,3.093592 -3.071495,3.071495 -0.0221,-6.165087 z"
     style="fill:#000000;fill-opacity:1;stroke:none" />
  <path
     id="path3010"
     d="m 17.004347,21.404234 0.0221,6.165087 3.071495,-3.071495 -3.093592,-3.093592 z"
     style="fill:#ffffff;fill-opacity:1;stroke:none" />
</svg>
