<?xml version="1.0" encoding="UTF-8" standalone="no"?>
<svg
   xmlns:dc="http://purl.org/dc/elements/1.1/"
   xmlns:cc="http://creativecommons.org/ns#"
   xmlns:rdf="http://www.w3.org/1999/02/22-rdf-syntax-ns#"
   xmlns:svg="http://www.w3.org/2000/svg"
   xmlns="http://www.w3.org/2000/svg"
   xmlns:sodipodi="http://sodipodi.sourceforge.net/DTD/sodipodi-0.dtd"
   xmlns:inkscape="http://www.inkscape.org/namespaces/inkscape"
   version="1.0"
   width="22"
   height="36"
   id="svg2"
   inkscape:version="0.47 r22583"
   sodipodi:docname="02-03-017-01-04-01.svg">
  <defs
     id="defs16">
    <inkscape:perspective
       sodipodi:type="inkscape:persp3d"
       inkscape:vp_x="0 : 23 : 1"
       inkscape:vp_y="0 : 1000 : 0"
       inkscape:vp_z="36 : 23 : 1"
       inkscape:persp3d-origin="18 : 15.333333 : 1"
       id="perspective18" />
  </defs>
  <sodipodi:namedview
     pagecolor="#ffffff"
     bordercolor="#666666"
     borderopacity="1"
     objecttolerance="10"
     gridtolerance="10"
     guidetolerance="10"
     inkscape:pageopacity="0"
     inkscape:pageshadow="2"
     inkscape:window-width="964"
     inkscape:window-height="721"
     id="namedview14"
     showgrid="true"
     inkscape:zoom="12.64"
     inkscape:cx="10.776083"
     inkscape:cy="17.841536"
     inkscape:window-x="365"
     inkscape:window-y="0"
     inkscape:window-maximized="0"
     inkscape:current-layer="svg2"
     showborder="true">
    <inkscape:grid
       type="xygrid"
       id="grid2824"
       empspacing="5"
       visible="true"
       enabled="true"
       snapvisiblegridlinesonly="true" />
  </sodipodi:namedview>
  <metadata
     id="metadata4">
Valerie Sutton's pixel definition of the
ISWA 2010 symbol ID 04-01-003-01-01-01
transformed by Stephen E Slevinski Jr
using line and fill polygon tracing
<rdf:RDF>
  <cc:Work
     rdf:about="">
    <dc:format>image/svg+xml</dc:format>
    <dc:type
       rdf:resource="http://purl.org/dc/dcmitype/StillImage" />
    <dc:title></dc:title>
  </cc:Work>
</rdf:RDF>
</metadata>
  <path
     style="fill:#000000;fill-opacity:1;stroke:none"
     d="M 8,7 8,36 9,36 9,7 8,7 z"
     id="path2831" />
  <path
     style="fill:#000000;fill-opacity:1;stroke:none"
     d="M 7.7781748,12.999999 0,13 3e-7,20.778174 7.7781748,12.999999 z"
     id="path2964" />
  <path
     style="fill:#000000;fill-opacity:1;stroke:none"
     d="M 18,7 4,7 11,0 18,7 z"
     id="path2966" />
  <path
     style="fill:#000000;fill-opacity:1;stroke:none"
     d="m 13,7 0,29 1,0 0,-29 -1,0 z"
     id="path2833" />
  <path
     style="fill:#ffffff;fill-opacity:1;stroke:none"
     d="M 9,7 9,36 13,36 13,7 9,7 z"
     id="rect2821" />
  <path
     style="fill:#000000;fill-opacity:1;stroke:none"
     d="m 19.8125,15.125 -1.4375,1.40625 c -1.771783,1.435621 -4.490753,1.9375 -7.0625,1.9375 -2.5717467,0 -5.2907175,-0.501879 -7.0625,-1.9375 L 3.53125,17.25 c 1.9906085,1.990609 4.7436839,3.21875 7.78125,3.21875 3.037566,0 5.790641,-1.228141 7.78125,-3.21875 L 20.5,15.84375 19.8125,15.125 z"
     id="path2850" />
  <path
     id="path3166"
     d="M 14.221825,23.999999 22,24 l 0,7.778174 -7.778175,-7.778175 z"
     style="fill:#000000;fill-opacity:1;stroke:none" />
  <path
     id="path3168"
     d="m 2.1875,26.125 1.4375,1.40625 c 1.771783,1.435621 4.490753,1.9375 7.0625,1.9375 2.571747,0 5.290718,-0.501879 7.0625,-1.9375 L 18.46875,28.25 c -1.990608,1.990609 -4.743684,3.21875 -7.78125,3.21875 -3.037566,0 -5.790641,-1.228141 -7.78125,-3.21875 L 1.5,26.84375 2.1875,26.125 z"
     style="fill:#000000;fill-opacity:1;stroke:none" />
</svg>
