<?xml version="1.0" encoding="UTF-8" standalone="no"?>
<svg
   xmlns:dc="http://purl.org/dc/elements/1.1/"
   xmlns:cc="http://creativecommons.org/ns#"
   xmlns:rdf="http://www.w3.org/1999/02/22-rdf-syntax-ns#"
   xmlns:svg="http://www.w3.org/2000/svg"
   xmlns="http://www.w3.org/2000/svg"
   xmlns:sodipodi="http://sodipodi.sourceforge.net/DTD/sodipodi-0.dtd"
   xmlns:inkscape="http://www.inkscape.org/namespaces/inkscape"
   version="1.0"
   width="30"
   height="28"
   id="svg2"
   inkscape:version="0.47 r22583"
   sodipodi:docname="02-03-017-01-03-06.svg">
  <defs
     id="defs16">
    <inkscape:perspective
       sodipodi:type="inkscape:persp3d"
       inkscape:vp_x="0 : 23 : 1"
       inkscape:vp_y="0 : 1000 : 0"
       inkscape:vp_z="36 : 23 : 1"
       inkscape:persp3d-origin="18 : 15.333333 : 1"
       id="perspective18" />
  </defs>
  <sodipodi:namedview
     pagecolor="#ffffff"
     bordercolor="#666666"
     borderopacity="1"
     objecttolerance="10"
     gridtolerance="10"
     guidetolerance="10"
     inkscape:pageopacity="0"
     inkscape:pageshadow="2"
     inkscape:window-width="964"
     inkscape:window-height="721"
     id="namedview14"
     showgrid="true"
     inkscape:zoom="12.64"
     inkscape:cx="16.663665"
     inkscape:cy="14.653698"
     inkscape:window-x="365"
     inkscape:window-y="0"
     inkscape:window-maximized="0"
     inkscape:current-layer="svg2"
     showborder="true">
    <inkscape:grid
       type="xygrid"
       id="grid2824"
       empspacing="5"
       visible="true"
       enabled="true"
       snapvisiblegridlinesonly="true" />
  </sodipodi:namedview>
  <metadata
     id="metadata4">
Valerie Sutton's pixel definition of the
ISWA 2010 symbol ID 04-01-003-01-01-01
transformed by Stephen E Slevinski Jr
using line and fill polygon tracing
<rdf:RDF>
  <cc:Work
     rdf:about="">
    <dc:format>image/svg+xml</dc:format>
    <dc:type
       rdf:resource="http://purl.org/dc/dcmitype/StillImage" />
    <dc:title></dc:title>
  </cc:Work>
</rdf:RDF>
</metadata>
  <path
     style="fill:#000000;fill-opacity:1;stroke:none"
     d="M 26.464466,21.636039 5.9583694,1.1299425 6.6654762,0.4228357 27.171573,20.928932 26.464466,21.636039 z"
     id="path2831" />
  <path
     style="fill:#000000;fill-opacity:1;stroke:none"
     d="M 20.100505,28 30,28 l 0,-9.899495 -2.010835,2.010835 0,5.877825 -5.877825,0 L 20.100505,28 z"
     id="path2966" />
  <path
     style="fill:#000000;fill-opacity:1;stroke:none"
     d="M 22.928932,25.171573 2.4228355,4.6654764 3.1299423,3.9583696 23.636039,24.464466 22.928932,25.171573 z"
     id="path2833" />
  <path
     style="fill:#000000;fill-opacity:1;stroke:none"
     d="m 6.0121202,19.998291 -5.5021747,-5.502175 5.5021747,-5.502174 0,1.414213 -4.0879611,4.087961 4.0879611,4.087961 0,1.414214 z"
     id="path3018" />
  <path
     style="fill:#ffffff;fill-opacity:1;stroke:none"
     d="M 23.636039,24.464466 3.1299423,3.9583696 5.9583694,1.1299425 26.464466,21.636039 23.636039,24.464466 z"
     id="rect2821" />
  <path
     style="fill:#000000;fill-opacity:1;stroke:none"
     d="M 16.0221,1.989165 16,4 c -0.237699,2.267977 -1.805419,4.545461 -3.623919,6.363961 -1.8185,1.8185 -4.095985,3.386221 -6.3639608,3.623922 l 0,1.016466 c 2.8151448,1e-6 5.6302908,-1.078291 7.7781738,-3.226175 C 15.938178,9.630291 17.016469,6.815146 17.016469,4 l 0,-1.988738 -0.994369,-0.0221 z"
     id="path3020" />
  <path
     id="path3371"
     d="m 30.009126,11.995653 -5.502175,-5.502174 -5.502175,5.502174 1.414214,0 4.087961,-4.087961 4.087961,4.087961 1.414214,0 z"
     style="fill:#000000;fill-opacity:1;stroke:none" />
  <path
     id="path3373"
     d="m 12,22.005634 2.010835,-0.0221 c 2.267977,-0.237703 4.545462,-1.805423 6.36396,-3.623923 1.8185,-1.818499 3.386221,-4.095984 3.623924,-6.363961 l 1.016466,0 c 0,2.815146 -1.078291,5.630291 -3.226176,7.778175 C 19.641126,21.921708 16.825981,23 14.010835,23 L 12.022097,23 12,22.005631 z"
     style="fill:#000000;fill-opacity:1;stroke:none" />
</svg>
