<?xml version="1.0" encoding="UTF-8" standalone="no"?>
<svg
   xmlns:dc="http://purl.org/dc/elements/1.1/"
   xmlns:cc="http://creativecommons.org/ns#"
   xmlns:rdf="http://www.w3.org/1999/02/22-rdf-syntax-ns#"
   xmlns:svg="http://www.w3.org/2000/svg"
   xmlns="http://www.w3.org/2000/svg"
   xmlns:sodipodi="http://sodipodi.sourceforge.net/DTD/sodipodi-0.dtd"
   xmlns:inkscape="http://www.inkscape.org/namespaces/inkscape"
   version="1.0"
   width="25"
   height="50"
   id="svg2"
   inkscape:version="0.47 r22583"
   sodipodi:docname="02-03-020-03-01-01.svg">
  <defs
     id="defs16">
    <inkscape:perspective
       sodipodi:type="inkscape:persp3d"
       inkscape:vp_x="0 : 23 : 1"
       inkscape:vp_y="0 : 1000 : 0"
       inkscape:vp_z="36 : 23 : 1"
       inkscape:persp3d-origin="18 : 15.333333 : 1"
       id="perspective18" />
  </defs>
  <sodipodi:namedview
     pagecolor="#ffffff"
     bordercolor="#666666"
     borderopacity="1"
     objecttolerance="10"
     gridtolerance="10"
     guidetolerance="10"
     inkscape:pageopacity="0"
     inkscape:pageshadow="2"
     inkscape:window-width="964"
     inkscape:window-height="721"
     id="namedview14"
     showgrid="true"
     inkscape:zoom="9.46"
     inkscape:cx="12.5"
     inkscape:cy="25"
     inkscape:window-x="365"
     inkscape:window-y="0"
     inkscape:window-maximized="0"
     inkscape:current-layer="svg2"
     showborder="true">
    <inkscape:grid
       type="xygrid"
       id="grid2824"
       empspacing="5"
       visible="true"
       enabled="true"
       snapvisiblegridlinesonly="true" />
  </sodipodi:namedview>
  <metadata
     id="metadata4">
Valerie Sutton's pixel definition of the
ISWA 2010 symbol ID 04-01-003-01-01-01
transformed by Stephen E Slevinski Jr
using line and fill polygon tracing
<rdf:RDF>
  <cc:Work
     rdf:about="">
    <dc:format>image/svg+xml</dc:format>
    <dc:type
       rdf:resource="http://purl.org/dc/dcmitype/StillImage" />
    <dc:title></dc:title>
  </cc:Work>
</rdf:RDF>
</metadata>
  <path
     style="fill:#000000;fill-opacity:1;stroke:none"
     d="M 21,8 5,8 13,0 21,8 z"
     id="path2966" />
  <path
     style="fill:#000000;fill-opacity:1;stroke:none"
     d="M 9,8 9,50 11,50 11,8 9,8 z"
     id="path2831" />
  <path
     style="fill:#000000;fill-opacity:1;stroke:none"
     d="m 15,8 0,42 2,0 0,-42 -2,0 z"
     id="path2833" />
  <path
     style="fill:#ffffff;fill-opacity:1;stroke:none"
     d="m 11,8 0,42 4,0 0,-42 -4,0 z"
     id="rect3145" />
  <path
     style="fill:#ffffff;fill-opacity:1;stroke:none"
     d="m 8,31 c -3.3137085,0 -6,1.343146 -6,3 0,1.656854 2.6862915,3 6,3 l 1,0 0,5 2,0 0,-6 -2,0 0,-5 -1,0 z m 9,0 0,5.875 -2,-2 0,9.25 3.25,-3.25 C 18.504239,40.82777 18.746568,40.764695 19,40.71875 L 19,36.8125 C 21.329993,36.400558 23,35.306079 23,34 23,32.343146 20.313708,31 17,31 z"
     id="path2893" />
  <path
     style="fill:#000000;fill-opacity:1;stroke:none"
     d="M 8,30 C 3.581722,30 0,32.462434 0,35.5 0,38.537566 3.581722,41 8,41 l 4,0 0,-4 -4,0 C 4.6862915,37 2,35.656854 2,34 2,32.343146 4.6862915,31 8,31 l 1,0 0,-1 -1,0 z m 9,0 0,1 c 3.313708,0 6,1.343146 6,3 0,1.306079 -1.670007,2.400558 -4,2.8125 l 0,4 C 22.450797,40.202103 25,38.062946 25,35.5 25,32.462434 21.418278,30 17,30 z"
     id="rect2942" />
  <path
     id="path3055"
     d="M 12,45 17.499999,39.499999 12,33.999999 11.999999,45 z"
     style="fill:#000000;fill-opacity:1;stroke:none" />
  <path
     style="fill:#000000;fill-opacity:1;stroke:none"
     d="m 8,12 c -4.418278,0 -8,2.238576 -8,5 0,2.761424 3.581722,5 8,5 l 9,0 c 4.418278,0 8,-2.238576 8,-5 0,-2.761424 -3.581722,-5 -8,-5 l 0,1 c 3.313708,0 6,1.343146 6,3 0,1.656854 -2.686292,3 -6,3 L 8,19 C 4.6862915,19 2,17.656854 2,16 2,14.343146 4.6862915,13 8,13 l 1,0 0,-1 -1,0 z"
     id="path2960" />
  <path
     style="fill:#ffffff;fill-opacity:1;stroke:none"
     d="m 8,13 c -3.3137085,0 -6,1.343146 -6,3 0,1.656854 2.6862915,3 6,3 l 1,0 0,-6 -1,0 z m 9,0 0,6 c 3.313708,0 6,-1.343146 6,-3 0,-1.656854 -2.686292,-3 -6,-3 z"
     id="path2972" />
  <path
     id="path3049"
     d="m 7.999999,21 c -4.418278,0 -8,2.238576 -8,5 0,2.761424 3.581722,5 8,5 l 9,0 c 4.418278,0 8,-2.238576 8,-5 0,-2.761424 -3.581722,-5 -8,-5 l 0,1 c 3.313708,0 6,1.343146 6,3 0,1.656854 -2.686292,3 -6,3 l -9,0 c -3.3137085,0 -6,-1.343146 -6,-3 0,-1.656854 2.6862915,-3 6,-3 l 1,0 0,-1 -1,0 z"
     style="fill:#000000;fill-opacity:1;stroke:none" />
  <path
     id="path3051"
     d="m 7.999999,22 c -3.3137085,0 -6,1.343146 -6,3 0,1.656854 2.6862915,3 6,3 l 1,0 0,-6 -1,0 z m 9,0 0,6 c 3.313708,0 6,-1.343146 6,-3 0,-1.656854 -2.686292,-3 -6,-3 z"
     style="fill:#ffffff;fill-opacity:1;stroke:none" />
</svg>
