<?xml version="1.0" encoding="UTF-8" standalone="no"?>
<!-- Created with Inkscape (http://www.inkscape.org/) -->

<svg
   xmlns:dc="http://purl.org/dc/elements/1.1/"
   xmlns:cc="http://creativecommons.org/ns#"
   xmlns:rdf="http://www.w3.org/1999/02/22-rdf-syntax-ns#"
   xmlns:svg="http://www.w3.org/2000/svg"
   xmlns="http://www.w3.org/2000/svg"
   xmlns:sodipodi="http://sodipodi.sourceforge.net/DTD/sodipodi-0.dtd"
   xmlns:inkscape="http://www.inkscape.org/namespaces/inkscape"
   width="23"
   height="24"
   id="svg3198"
   sodipodi:version="0.32"
   inkscape:version="0.47 r22583"
   version="1.0"
   sodipodi:docname="01-03-011-01-02.svg"
   inkscape:output_extension="org.inkscape.output.svg.inkscape">
  <defs
     id="defs3200">
    <inkscape:perspective
       sodipodi:type="inkscape:persp3d"
       inkscape:vp_x="0 : 526.18109 : 1"
       inkscape:vp_y="0 : 1000 : 0"
       inkscape:vp_z="744.09448 : 526.18109 : 1"
       inkscape:persp3d-origin="372.04724 : 350.78739 : 1"
       id="perspective3206" />
  </defs>
  <sodipodi:namedview
     id="namedview3727"
     pagecolor="#ffffff"
     bordercolor="#666666"
     borderopacity="1.0"
     gridtolerance="10000"
     guidetolerance="10"
     objecttolerance="10"
     inkscape:pageopacity="0.0"
     inkscape:pageshadow="2"
     inkscape:zoom="22.744227"
     inkscape:cx="7.2039096"
     inkscape:cy="10.243096"
     inkscape:document-units="px"
     inkscape:current-layer=""
     showgrid="true"
     inkscape:window-width="1260"
     inkscape:window-height="928"
     inkscape:window-x="20"
     inkscape:window-y="20"
     inkscape:window-maximized="0">
    <inkscape:grid
       type="xygrid"
       id="grid3208"
       visible="true"
       enabled="true" />
  </sodipodi:namedview>
  <metadata
     id="metadata3203">
    <rdf:RDF>
      <cc:Work
         rdf:about="">
        <dc:format>image/svg+xml</dc:format>
        <dc:type
           rdf:resource="http://purl.org/dc/dcmitype/StillImage" />
        <dc:title></dc:title>
      </cc:Work>
    </rdf:RDF>
  </metadata>
  <g
     inkscape:label="Layer 1"
     inkscape:groupmode="layer"
     id="">
    <rect
       style="fill:#000000;fill-opacity:1;stroke:none"
       id="base"
       width="15"
       height="13"
       x="8"
       y="11" />
    <rect
       style="fill:#ffffff;fill-opacity:1;stroke:none"
       id="fill"
       width="6"
       height="9"
       x="10"
       y="13"
       ry="0" />
    <path
       style="fill:#000000;fill-opacity:1;stroke:none"
       d="M 8,9 8,8 C 8,8 8,9 8,8 8,7 7,7 7,7 L 3,7 C 3,7 4,7 3,7 2,7 2,8 2,8 L 2,11 0,11 0,8 C 0,8 0,11 0,8 0,5 3,5 3,5 l 4,0 c 0,0 -3,0 0,0 3,0 3,3 3,3 l 0,1 -2,0 z"
       id="index"
       sodipodi:nodetypes="ccsccsccccsccsccc" />
    <path
       style="fill:#000000;fill-opacity:1;stroke:none"
       d="M 2,4 0,4 C 0,4 0,8 0,4 0,0 4,0 4,0 l 6,0 c 0,0 -4,0 0,0 4,0 4,4 4,4 l 0,5 -2,0 0,-5 c 0,0 0,2 0,0 C 12,2 10,2 10,2 L 4,2 C 4,2 6,2 4,2 2,2 2.0531822,3.9949235 2,4 z"
       id="middle"
       sodipodi:nodetypes="ccsccsccccsccsc" />
    <path
       style="fill:#000000;fill-opacity:1;stroke:none"
       d="m 7,24 -4,0 c 0,0 3,0 0,0 -3,0 -3,-3 -3,-3 l 0,-3 2,0 0,3 c 0,0 0,-1 0,0 0,1 1,1 1,1 l 4,0 0,2 z"
       id="thumb"
       sodipodi:nodetypes="ccsccccsccc" />
  </g>
</svg>
