<?xml version="1.0" encoding="UTF-8" standalone="no"?>
<svg
   xmlns:dc="http://purl.org/dc/elements/1.1/"
   xmlns:cc="http://creativecommons.org/ns#"
   xmlns:rdf="http://www.w3.org/1999/02/22-rdf-syntax-ns#"
   xmlns:svg="http://www.w3.org/2000/svg"
   xmlns="http://www.w3.org/2000/svg"
   xmlns:sodipodi="http://sodipodi.sourceforge.net/DTD/sodipodi-0.dtd"
   xmlns:inkscape="http://www.inkscape.org/namespaces/inkscape"
   version="1.0"
   width="28"
   height="25"
   id="svg2"
   inkscape:version="0.47 r22583"
   sodipodi:docname="02-08-012-01-02-07.svg">
  <defs
     id="defs16">
    <inkscape:perspective
       sodipodi:type="inkscape:persp3d"
       inkscape:vp_x="0 : 23 : 1"
       inkscape:vp_y="0 : 1000 : 0"
       inkscape:vp_z="36 : 23 : 1"
       inkscape:persp3d-origin="18 : 15.333333 : 1"
       id="perspective18" />
  </defs>
  <sodipodi:namedview
     pagecolor="#ffffff"
     bordercolor="#666666"
     borderopacity="1"
     objecttolerance="10"
     gridtolerance="10"
     guidetolerance="10"
     inkscape:pageopacity="0"
     inkscape:pageshadow="2"
     inkscape:window-width="964"
     inkscape:window-height="721"
     id="namedview14"
     showgrid="true"
     inkscape:zoom="16.47"
     inkscape:cx="14"
     inkscape:cy="12.5"
     inkscape:window-x="365"
     inkscape:window-y="0"
     inkscape:window-maximized="0"
     inkscape:current-layer="svg2"
     showborder="true">
    <inkscape:grid
       type="xygrid"
       id="grid2824"
       empspacing="5"
       visible="true"
       enabled="true"
       snapvisiblegridlinesonly="true" />
  </sodipodi:namedview>
  <metadata
     id="metadata4">
Valerie Sutton's pixel definition of the
ISWA 2010 symbol ID 04-01-003-01-01-01
transformed by Stephen E Slevinski Jr
using line and fill polygon tracing
<rdf:RDF>
  <cc:Work
     rdf:about="">
    <dc:format>image/svg+xml</dc:format>
    <dc:type
       rdf:resource="http://purl.org/dc/dcmitype/StillImage" />
    <dc:title></dc:title>
  </cc:Work>
</rdf:RDF>
</metadata>
  <path
     style="fill:#000000;fill-opacity:1;stroke:none"
     d="M 11,9 1.1005048,9 11,18.899495 11,9 z m -0.994369,0.9943687 -0.0221,6.4744473 -6.4523492,-6.45235 6.4744462,-0.0221 z"
     id="path2839" />
  <path
     style="fill:#000000;fill-opacity:1;stroke:none"
     d="M 25.849243,6.8786796 12.414214,20.313709 c -1.171573,1.171572 -3.0710682,1.171572 -4.2426412,0 -1.171573,-1.171573 -1.171573,-3.071068 0,-4.242641 l -4.242641,-4.242641 c -1.952621,1.952622 -1.636038,5.43503 0.707107,7.778175 l 2.121321,2.12132 c 1.952621,1.952622 5.1184462,1.952622 7.0710672,0 L 27.263456,8.2928932 25.849243,6.8786796 z"
     id="path3173" />
  <path
     style="fill:#000000;fill-opacity:1;stroke:none"
     d="m 1.1005048,0.5147186 -0.707106,0.7071068 6.363961,6.363961 0.707106,-0.7071068 -6.363961,-6.363961 z M 13.121321,12.535534 12.414214,13.242641 23.727922,24.556349 24.435029,23.849243 13.121321,12.535534 z"
     id="rect2835" />
  <path
     style="fill:#ffffff;fill-opacity:1;stroke:none"
     d="m 10.005631,9.9943687 -6.4744462,0.0221 6.4523492,6.45235 0.0221,-6.4744485 z"
     id="path2924" />
</svg>
