<?xml version="1.0" encoding="UTF-8" standalone="no"?>
<svg
   xmlns:dc="http://purl.org/dc/elements/1.1/"
   xmlns:cc="http://creativecommons.org/ns#"
   xmlns:rdf="http://www.w3.org/1999/02/22-rdf-syntax-ns#"
   xmlns:svg="http://www.w3.org/2000/svg"
   xmlns="http://www.w3.org/2000/svg"
   xmlns:sodipodi="http://sodipodi.sourceforge.net/DTD/sodipodi-0.dtd"
   xmlns:inkscape="http://www.inkscape.org/namespaces/inkscape"
   version="1.0"
   width="47"
   height="35"
   id="svg2"
   inkscape:version="0.47 r22583"
   sodipodi:docname="04-03-004-04-01-01.svg">
  <defs
     id="defs14">
    <inkscape:perspective
       sodipodi:type="inkscape:persp3d"
       inkscape:vp_x="0 : 17.5 : 1"
       inkscape:vp_y="0 : 1000 : 0"
       inkscape:vp_z="36 : 17.5 : 1"
       inkscape:persp3d-origin="18 : 11.666667 : 1"
       id="perspective16" />
  </defs>
  <sodipodi:namedview
     pagecolor="#ffffff"
     bordercolor="#666666"
     borderopacity="1"
     objecttolerance="10"
     gridtolerance="10"
     guidetolerance="10"
     inkscape:pageopacity="0"
     inkscape:pageshadow="2"
     inkscape:window-width="993"
     inkscape:window-height="789"
     id="namedview12"
     showgrid="true"
     inkscape:zoom="15.487095"
     inkscape:cx="23.148502"
     inkscape:cy="17.483386"
     inkscape:window-x="209"
     inkscape:window-y="0"
     inkscape:window-maximized="0"
     inkscape:current-layer="svg2"
     showguides="true"
     inkscape:guide-bbox="true">
    <inkscape:grid
       type="xygrid"
       id="grid2822" />
  </sodipodi:namedview>
  <metadata
     id="metadata4">
Valerie Sutton's pixel definition of the
ISWA 2010 symbol ID 04-03-001-01-01-01
transformed by Stephen E Slevinski Jr
using line and fill polygon tracing
<rdf:RDF>
  <cc:Work
     rdf:about="">
    <dc:format>image/svg+xml</dc:format>
    <dc:type
       rdf:resource="http://purl.org/dc/dcmitype/StillImage" />
    <dc:title></dc:title>
  </cc:Work>
</rdf:RDF>
</metadata>
  <path
     style="fill:#000000;fill-opacity:1;stroke:none"
     d="M 23.5 0 C 14.375669 0 6.9035451 6.9929396 6.09375 15.90625 L 8.09375 16.09375 C 8.8019523 8.1899144 15.411885 2 23.5 2 C 31.588115 2 38.198048 8.1899144 38.90625 16.09375 L 40.90625 15.90625 C 40.096455 6.9929396 32.624331 0 23.5 0 z M 14.5 30.09375 L 13.34375 31.71875 C 16.210274 33.769618 19.706587 35 23.5 35 C 27.293413 35 30.789726 33.769618 33.65625 31.71875 L 32.5 30.09375 C 29.960312 31.912052 26.861727 33 23.5 33 C 20.138273 33 17.039688 31.912052 14.5 30.09375 z "
     id="path2824" />
  <path
     style="fill:#000000;fill-opacity:1;stroke:none"
     d="M 0 23 L 0 25 L 17 25 L 17 23 L 0 23 z "
     id="rect2816" />
  <path
     style="fill:#000000;fill-opacity:1;stroke:none"
     d="M 17 26 L 0 30.5625 L 0.5 32.5 L 17.53125 27.9375 L 17 26 z "
     id="rect2818" />
  <path
     style="fill:#000000;fill-opacity:1;stroke:none"
     d="M 0.5 15.5 L 0 17.4375 L 17 22 L 17.53125 20.0625 L 0.5 15.5 z "
     id="rect2820" />
  <path
     id="path2864"
     d="m 47,23 0,2 -17,0 0,-2 17,0 z"
     style="fill:#000000;fill-opacity:1;stroke:none" />
  <path
     id="path2866"
     d="M 30,26 47,30.5625 46.5,32.5 29.46875,27.9375 30,26 z"
     style="fill:#000000;fill-opacity:1;stroke:none" />
  <path
     id="path2868"
     d="M 46.5,15.5 47,17.4375 30,22 29.46875,20.0625 46.5,15.5 z"
     style="fill:#000000;fill-opacity:1;stroke:none" />
</svg>
