<?xml version="1.0" encoding="UTF-8" standalone="no"?>
<!-- Created with Inkscape (http://www.inkscape.org/) -->

<svg
   xmlns:dc="http://purl.org/dc/elements/1.1/"
   xmlns:cc="http://creativecommons.org/ns#"
   xmlns:rdf="http://www.w3.org/1999/02/22-rdf-syntax-ns#"
   xmlns:svg="http://www.w3.org/2000/svg"
   xmlns="http://www.w3.org/2000/svg"
   xmlns:sodipodi="http://sodipodi.sourceforge.net/DTD/sodipodi-0.dtd"
   xmlns:inkscape="http://www.inkscape.org/namespaces/inkscape"
   width="21"
   height="17"
   id="svg3198"
   sodipodi:version="0.32"
   inkscape:version="0.47 r22583"
   version="1.0"
   sodipodi:docname="01-05-042-01-05.svg"
   inkscape:output_extension="org.inkscape.output.svg.inkscape">
  <defs
     id="defs3200">
    <inkscape:perspective
       sodipodi:type="inkscape:persp3d"
       inkscape:vp_x="0 : 526.18109 : 1"
       inkscape:vp_y="0 : 1000 : 0"
       inkscape:vp_z="744.09448 : 526.18109 : 1"
       inkscape:persp3d-origin="372.04724 : 350.78739 : 1"
       id="perspective3206" />
  </defs>
  <sodipodi:namedview
     id="namedview3727"
     pagecolor="#ffffff"
     bordercolor="#666666"
     borderopacity="1.0"
     gridtolerance="10000"
     guidetolerance="10"
     objecttolerance="10"
     inkscape:pageopacity="0.0"
     inkscape:pageshadow="2"
     inkscape:zoom="34.270352"
     inkscape:cx="10.471003"
     inkscape:cy="8.335397"
     inkscape:document-units="px"
     inkscape:current-layer=""
     showgrid="true"
     inkscape:window-width="1261"
     inkscape:window-height="918"
     inkscape:window-x="63"
     inkscape:window-y="19"
     inkscape:window-maximized="0">
    <inkscape:grid
       type="xygrid"
       id="grid3208"
       visible="true"
       enabled="true" />
  </sodipodi:namedview>
  <metadata
     id="metadata3203">
    <rdf:RDF>
      <cc:Work
         rdf:about="">
        <dc:format>image/svg+xml</dc:format>
        <dc:type
           rdf:resource="http://purl.org/dc/dcmitype/StillImage" />
        <dc:title></dc:title>
      </cc:Work>
    </rdf:RDF>
  </metadata>
  <g
     inkscape:label="Layer 1"
     inkscape:groupmode="layer"
     id="">
    <path
       style="fill:#000000;fill-opacity:1;stroke:none"
       d="M 13 0 C 6.875 0 6.0957031 4.6015625 6 5.75 L 6 6 C 6 12 12 12 12 12 L 15 12 L 17.9375 12 C 16.305684 14.496599 13.274133 14.931312 12.3125 15 L 12 15 C 10.901637 15 9.9055023 14.901502 9 14.71875 L 8.5 16.5 C 10.508764 16.986454 12 17 12 17 C 21 17 21 8 21 8 C 21 -1.7777778e-07 13 0 13 0 z M 1.90625 9.71875 L 0 10.8125 C 1.7181835 13.556692 4.281536 15.087662 6.59375 15.9375 L 7.0625 14.15625 C 4.5622175 13.184617 2.9477073 11.492411 1.90625 9.71875 z "
       id="base" />
  </g>
</svg>
