<?xml version="1.0" encoding="UTF-8" standalone="no"?>
<!-- Created with Inkscape (http://www.inkscape.org/) -->

<svg
   xmlns:dc="http://purl.org/dc/elements/1.1/"
   xmlns:cc="http://creativecommons.org/ns#"
   xmlns:rdf="http://www.w3.org/1999/02/22-rdf-syntax-ns#"
   xmlns:svg="http://www.w3.org/2000/svg"
   xmlns="http://www.w3.org/2000/svg"
   xmlns:sodipodi="http://sodipodi.sourceforge.net/DTD/sodipodi-0.dtd"
   xmlns:inkscape="http://www.inkscape.org/namespaces/inkscape"
   width="21"
   height="17"
   id="svg3198"
   sodipodi:version="0.32"
   inkscape:version="0.47 r22583"
   version="1.0"
   sodipodi:docname="01-05-043-01-01.svg"
   inkscape:output_extension="org.inkscape.output.svg.inkscape">
  <defs
     id="defs3200">
    <inkscape:perspective
       sodipodi:type="inkscape:persp3d"
       inkscape:vp_x="0 : 526.18109 : 1"
       inkscape:vp_y="0 : 1000 : 0"
       inkscape:vp_z="744.09448 : 526.18109 : 1"
       inkscape:persp3d-origin="372.04724 : 350.78739 : 1"
       id="perspective3206" />
  </defs>
  <sodipodi:namedview
     id="namedview3727"
     pagecolor="#ffffff"
     bordercolor="#666666"
     borderopacity="1.0"
     gridtolerance="10000"
     guidetolerance="10"
     objecttolerance="10"
     inkscape:pageopacity="0.0"
     inkscape:pageshadow="2"
     inkscape:zoom="31.975041"
     inkscape:cx="9.8339951"
     inkscape:cy="8.5420955"
     inkscape:document-units="px"
     inkscape:current-layer=""
     showgrid="true"
     inkscape:window-width="1261"
     inkscape:window-height="918"
     inkscape:window-x="63"
     inkscape:window-y="19"
     inkscape:window-maximized="0">
    <inkscape:grid
       type="xygrid"
       id="grid3208"
       visible="true"
       enabled="true" />
  </sodipodi:namedview>
  <metadata
     id="metadata3203">
    <rdf:RDF>
      <cc:Work
         rdf:about="">
        <dc:format>image/svg+xml</dc:format>
        <dc:type
           rdf:resource="http://purl.org/dc/dcmitype/StillImage" />
        <dc:title></dc:title>
      </cc:Work>
    </rdf:RDF>
  </metadata>
  <g
     inkscape:label="Layer 1"
     inkscape:groupmode="layer"
     id="">
    <path
       style="fill:#000000;fill-opacity:1;stroke:none"
       d="M 13,0 C 6.875,0 6.0957031,4.6015625 6,5.75 6,6.0123457 6,5.6666667 6,6 c 0,6 6,6 6,6 l 3,0 0,-2 c -1.634844,0 -1.161422,0 -3,0 C 8,10 8,6 8,6 8,1.9999998 13,2 13,2 c 6,0 6,6 6,6 0,6.125 -5.347656,6.904297 -6.6875,7 C 12.285072,15 12,15 12,15 6.4811321,15 3.5161142,12.46044 1.90625,9.71875 L 0,10.8125 C 3.8719628,16.996595 12,17 12,17 21,17 21,8 21,8 21,-1.7777778e-7 13,0 13,0 z"
       id="path2817"
       sodipodi:nodetypes="ccscccccccscccccc" />
    <path
       style="fill:#ffffff;fill-opacity:1;stroke:none"
       d="m 13,2 c 0,0 -5,0 -5,4 0,0 0,4 4,4 l 3,0 0,2 2.9375,0 C 18.584878,11.022122 19,9.7292174 19,8 19,8 19,2 13,2 z"
       id="path2822"
       sodipodi:nodetypes="cccccccc" />
  </g>
</svg>
