<?xml version="1.0" encoding="UTF-8" standalone="no"?>
<svg
   xmlns:dc="http://purl.org/dc/elements/1.1/"
   xmlns:cc="http://creativecommons.org/ns#"
   xmlns:rdf="http://www.w3.org/1999/02/22-rdf-syntax-ns#"
   xmlns:svg="http://www.w3.org/2000/svg"
   xmlns="http://www.w3.org/2000/svg"
   xmlns:sodipodi="http://sodipodi.sourceforge.net/DTD/sodipodi-0.dtd"
   xmlns:inkscape="http://www.inkscape.org/namespaces/inkscape"
   version="1.0"
   width="24"
   height="11"
   id="svg2"
   inkscape:version="0.47 r22583"
   sodipodi:docname="04-02-007-02-03-02.svg">
  <defs
     id="defs14">
    <inkscape:perspective
       sodipodi:type="inkscape:persp3d"
       inkscape:vp_x="0 : 3.5 : 1"
       inkscape:vp_y="0 : 1000 : 0"
       inkscape:vp_z="7 : 3.5 : 1"
       inkscape:persp3d-origin="3.5 : 2.3333333 : 1"
       id="perspective16" />
  </defs>
  <sodipodi:namedview
     pagecolor="#ffffff"
     bordercolor="#666666"
     borderopacity="1"
     objecttolerance="10"
     gridtolerance="10"
     guidetolerance="10"
     inkscape:pageopacity="0"
     inkscape:pageshadow="2"
     inkscape:window-width="928"
     inkscape:window-height="791"
     id="namedview12"
     showgrid="true"
     inkscape:zoom="33.709536"
     inkscape:cx="11.861049"
     inkscape:cy="5.4993689"
     inkscape:window-x="273"
     inkscape:window-y="0"
     inkscape:window-maximized="0"
     inkscape:current-layer="svg2">
    <inkscape:grid
       type="xygrid"
       id="grid2822" />
  </sodipodi:namedview>
  <metadata
     id="metadata4">
Valerie Sutton's pixel definition of the
ISWA 2010 symbol ID 04-02-007-01-04-01
transformed by Stephen E Slevinski Jr
using line and fill polygon tracing
<rdf:RDF>
  <cc:Work
     rdf:about="">
    <dc:format>image/svg+xml</dc:format>
    <dc:type
       rdf:resource="http://purl.org/dc/dcmitype/StillImage" />
    <dc:title></dc:title>
  </cc:Work>
</rdf:RDF>
</metadata>
  <path
     style="fill:#000000;fill-opacity:1;stroke:none"
     d="M 1.0606602,7.424621 3.8890873,10.253048 4.5961941,9.5459414 1.767767,6.7175142 1.0606602,7.424621 z"
     id="rect2849" />
  <path
     style="fill:#000000;fill-opacity:1;stroke:none"
     d="M 2.4748738,6.0104075 5.3033009,8.8388346 6.0104077,8.1317278 3.1819805,5.3033007 2.4748738,6.0104075 z"
     id="rect2851" />
  <path
     id="path2817"
     d="M 5.3033009,3.1819803 8.1317281,6.0104075 8.8388351,5.3033007 6.0104077,2.4748736 5.3033009,3.1819803 z"
     style="fill:#000000;fill-opacity:1;stroke:none" />
  <path
     id="path2819"
     d="M 6.7175144,1.7677668 9.5459415,4.5961939 10.253049,3.8890871 7.4246212,1.06066 6.7175144,1.7677668 z"
     style="fill:#000000;fill-opacity:1;stroke:none" />
  <path
     style="fill:#000000;fill-opacity:1;stroke:none"
     d="M 0,4.2426405 0,9.192388 0.9943689,9.170291 1.0164659,5.2591066 5.2370095,5.2370096 5.2591065,1.016466 9.1702909,0.99436893 9.1923909,0 4.2426435,0 l 0,4.2426407 -4.2426407,0 z"
     id="rect2826" />
  <path
     id="path2901"
     d="M 14.06066,7.424621 16.889087,10.253048 17.596194,9.5459414 14.767767,6.7175142 14.06066,7.424621 z"
     style="fill:#000000;fill-opacity:1;stroke:none" />
  <path
     id="path2903"
     d="M 15.474874,6.0104075 18.303301,8.8388346 19.010408,8.1317278 16.181981,5.3033007 15.474874,6.0104075 z"
     style="fill:#000000;fill-opacity:1;stroke:none" />
  <path
     style="fill:#000000;fill-opacity:1;stroke:none"
     d="M 18.303301,3.1819803 21.131728,6.0104075 21.838835,5.3033007 19.010408,2.4748736 18.303301,3.1819803 z"
     id="path2905" />
  <path
     style="fill:#000000;fill-opacity:1;stroke:none"
     d="M 19.717514,1.7677668 22.545942,4.5961939 23.253049,3.8890871 20.424621,1.06066 19.717514,1.7677668 z"
     id="path2907" />
  <path
     id="path2909"
     d="m 13,4.2426405 0,4.9497475 0.994369,-0.022097 0.0221,-3.9111844 4.220543,-0.022097 0.0221,-4.2205436 L 22.170296,0.9943689 22.192391,0 l -4.949747,0 0,4.2426407 -4.242641,0 z"
     style="fill:#000000;fill-opacity:1;stroke:none" />
</svg>
