<?xml version="1.0" encoding="UTF-8" standalone="no"?>
<svg
   xmlns:dc="http://purl.org/dc/elements/1.1/"
   xmlns:cc="http://creativecommons.org/ns#"
   xmlns:rdf="http://www.w3.org/1999/02/22-rdf-syntax-ns#"
   xmlns:svg="http://www.w3.org/2000/svg"
   xmlns="http://www.w3.org/2000/svg"
   xmlns:sodipodi="http://sodipodi.sourceforge.net/DTD/sodipodi-0.dtd"
   xmlns:inkscape="http://www.inkscape.org/namespaces/inkscape"
   version="1.0"
   width="35"
   height="35"
   id="svg2"
   inkscape:version="0.47 r22583"
   sodipodi:docname="04-02-007-02-02-02.svg">
  <defs
     id="defs14">
    <inkscape:perspective
       sodipodi:type="inkscape:persp3d"
       inkscape:vp_x="0 : 3.5 : 1"
       inkscape:vp_y="0 : 1000 : 0"
       inkscape:vp_z="7 : 3.5 : 1"
       inkscape:persp3d-origin="3.5 : 2.3333333 : 1"
       id="perspective16" />
  </defs>
  <sodipodi:namedview
     pagecolor="#ffffff"
     bordercolor="#666666"
     borderopacity="1"
     objecttolerance="10"
     gridtolerance="10"
     guidetolerance="10"
     inkscape:pageopacity="0"
     inkscape:pageshadow="2"
     inkscape:window-width="928"
     inkscape:window-height="791"
     id="namedview12"
     showgrid="true"
     inkscape:zoom="15.722143"
     inkscape:cx="17.5"
     inkscape:cy="17.392295"
     inkscape:window-x="273"
     inkscape:window-y="0"
     inkscape:window-maximized="0"
     inkscape:current-layer="svg2">
    <inkscape:grid
       type="xygrid"
       id="grid2822" />
  </sodipodi:namedview>
  <metadata
     id="metadata4">
Valerie Sutton's pixel definition of the
ISWA 2010 symbol ID 04-02-007-01-04-01
transformed by Stephen E Slevinski Jr
using line and fill polygon tracing
<rdf:RDF>
  <cc:Work
     rdf:about="">
    <dc:format>image/svg+xml</dc:format>
    <dc:type
       rdf:resource="http://purl.org/dc/dcmitype/StillImage" />
    <dc:title></dc:title>
  </cc:Work>
</rdf:RDF>
</metadata>
  <path
     style="fill:#000000;fill-opacity:1;stroke:none"
     d="M 7.0606602,14.424573 9.8890873,17.253 10.596194,16.545893 7.767767,13.717466 7.0606602,14.424573 z"
     id="rect2849" />
  <path
     style="fill:#000000;fill-opacity:1;stroke:none"
     d="M 8.4748738,13.010359 11.303301,15.838787 12.010408,15.13168 9.1819805,12.303253 8.4748738,13.010359 z"
     id="rect2851" />
  <path
     id="path2817"
     d="m 11.303301,10.181932 2.828427,2.828427 0.707107,-0.707106 -2.828427,-2.828427 -0.707107,0.707106 z"
     style="fill:#000000;fill-opacity:1;stroke:none" />
  <path
     id="path2819"
     d="m 12.717514,8.7677188 2.828428,2.8284272 0.707107,-0.707107 -2.828428,-2.828427 -0.707107,0.7071068 z"
     style="fill:#000000;fill-opacity:1;stroke:none" />
  <path
     style="fill:#000000;fill-opacity:1;stroke:none"
     d="m 6,11.242593 0,4.949747 0.9943689,-0.0221 0.022097,-3.911184 4.2205431,-0.0221 0.0221,-4.220544 3.911184,-0.022094 0.0221,-0.994366 -4.949747,0 0,4.242641 -4.2426412,0 z"
     id="rect2826" />
  <path
     id="path2901"
     d="M 20.06066,14.424573 22.889087,17.253 23.596194,16.545893 20.767767,13.717466 20.06066,14.424573 z"
     style="fill:#000000;fill-opacity:1;stroke:none" />
  <path
     id="path2903"
     d="m 21.474874,13.010359 2.828427,2.828428 0.707107,-0.707107 -2.828427,-2.828427 -0.707107,0.707106 z"
     style="fill:#000000;fill-opacity:1;stroke:none" />
  <path
     style="fill:#000000;fill-opacity:1;stroke:none"
     d="m 24.303301,10.181932 2.828427,2.828427 0.707107,-0.707106 -2.828427,-2.828427 -0.707107,0.707106 z"
     id="path2905" />
  <path
     style="fill:#000000;fill-opacity:1;stroke:none"
     d="m 25.717514,8.7677188 2.828428,2.8284272 0.707107,-0.707107 -2.828428,-2.828427 -0.707107,0.7071068 z"
     id="path2907" />
  <path
     id="path2909"
     d="m 19,11.242593 0,4.949747 0.994369,-0.0221 0.0221,-3.911184 4.220543,-0.0221 0.0221,-4.220544 3.911184,-0.022094 0.0221,-0.994366 -4.949747,0 0,4.242641 -4.242641,0 z"
     style="fill:#000000;fill-opacity:1;stroke:none" />
  <path
     style="fill:#000000;fill-opacity:1;stroke:none"
     d="M 17.5 0 C 7.8350169 4.7369516e-15 1.087327e-16 7.8350169 0 17.5 C 0 27.164983 7.8350169 35 17.5 35 C 27.164983 35 35 27.164983 35 17.5 C 35 7.8350169 27.164983 -3.443981e-15 17.5 0 z M 17.5 2 C 26.060414 2 33 8.9395864 33 17.5 C 33 26.060414 26.060414 33 17.5 33 C 8.9395864 33 2 26.060414 2 17.5 C 2 8.9395864 8.9395864 2 17.5 2 z "
     id="path2885" />
</svg>
