<?xml version="1.0" encoding="UTF-8" standalone="no"?>
<svg
   xmlns:dc="http://purl.org/dc/elements/1.1/"
   xmlns:cc="http://creativecommons.org/ns#"
   xmlns:rdf="http://www.w3.org/1999/02/22-rdf-syntax-ns#"
   xmlns:svg="http://www.w3.org/2000/svg"
   xmlns="http://www.w3.org/2000/svg"
   xmlns:sodipodi="http://sodipodi.sourceforge.net/DTD/sodipodi-0.dtd"
   xmlns:inkscape="http://www.inkscape.org/namespaces/inkscape"
   version="1.0"
   width="24"
   height="11"
   id="svg2"
   inkscape:version="0.47 r22583"
   sodipodi:docname="04-02-007-02-02-02.svg">
  <defs
     id="defs14">
    <inkscape:perspective
       sodipodi:type="inkscape:persp3d"
       inkscape:vp_x="0 : 3.5 : 1"
       inkscape:vp_y="0 : 1000 : 0"
       inkscape:vp_z="7 : 3.5 : 1"
       inkscape:persp3d-origin="3.5 : 2.3333333 : 1"
       id="perspective16" />
  </defs>
  <sodipodi:namedview
     pagecolor="#ffffff"
     bordercolor="#666666"
     borderopacity="1"
     objecttolerance="10"
     gridtolerance="10"
     guidetolerance="10"
     inkscape:pageopacity="0"
     inkscape:pageshadow="2"
     inkscape:window-width="928"
     inkscape:window-height="791"
     id="namedview12"
     showgrid="true"
     inkscape:zoom="33.709536"
     inkscape:cx="11.861049"
     inkscape:cy="5.4993689"
     inkscape:window-x="273"
     inkscape:window-y="0"
     inkscape:window-maximized="0"
     inkscape:current-layer="svg2">
    <inkscape:grid
       type="xygrid"
       id="grid2822" />
  </sodipodi:namedview>
  <metadata
     id="metadata4">
Valerie Sutton's pixel definition of the
ISWA 2010 symbol ID 04-02-007-01-04-01
transformed by Stephen E Slevinski Jr
using line and fill polygon tracing
<rdf:RDF>
  <cc:Work
     rdf:about="">
    <dc:format>image/svg+xml</dc:format>
    <dc:type
       rdf:resource="http://purl.org/dc/dcmitype/StillImage" />
    <dc:title></dc:title>
  </cc:Work>
</rdf:RDF>
</metadata>
  <path
     style="fill:#000000;fill-opacity:1;stroke:none"
     d="M 1.0606602,3.5753791 3.8890873,0.7469521 4.5961941,1.4540587 1.767767,4.2824859 1.0606602,3.5753791 z"
     id="rect2849" />
  <path
     style="fill:#000000;fill-opacity:1;stroke:none"
     d="M 2.4748738,4.9895926 5.3033009,2.1611655 6.0104077,2.8682723 3.1819805,5.6966994 2.4748738,4.9895926 z"
     id="rect2851" />
  <path
     id="path2817"
     d="M 5.3033009,7.8180198 8.1317281,4.9895926 8.8388351,5.6966994 6.0104077,8.5251265 5.3033009,7.8180198 z"
     style="fill:#000000;fill-opacity:1;stroke:none" />
  <path
     id="path2819"
     d="M 6.7175144,9.2322333 9.5459415,6.4038062 10.253049,7.110913 7.4246212,9.9393401 6.7175144,9.2322333 z"
     style="fill:#000000;fill-opacity:1;stroke:none" />
  <path
     style="fill:#000000;fill-opacity:1;stroke:none"
     d="m 0,6.7573596 0,-4.9497475 0.9943689,0.022097 0.022097,3.9111844 4.2205436,0.022097 0.022097,4.2205436 3.9111844,0.022097 0.0221,0.994369 -4.9497474,0 0,-4.2426407 -4.2426407,0 z"
     id="rect2826" />
  <path
     id="path2901"
     d="M 14.06066,3.5753791 16.889087,0.7469521 17.596194,1.4540587 14.767767,4.2824859 14.06066,3.5753791 z"
     style="fill:#000000;fill-opacity:1;stroke:none" />
  <path
     id="path2903"
     d="M 15.474874,4.9895926 18.303301,2.1611655 19.010408,2.8682723 16.181981,5.6966994 15.474874,4.9895926 z"
     style="fill:#000000;fill-opacity:1;stroke:none" />
  <path
     style="fill:#000000;fill-opacity:1;stroke:none"
     d="M 18.303301,7.8180198 21.131728,4.9895926 21.838835,5.6966994 19.010408,8.5251265 18.303301,7.8180198 z"
     id="path2905" />
  <path
     style="fill:#000000;fill-opacity:1;stroke:none"
     d="M 19.717514,9.2322333 22.545942,6.4038062 23.253049,7.110913 20.424621,9.9393401 19.717514,9.2322333 z"
     id="path2907" />
  <path
     id="path2909"
     d="m 13,6.7573596 0,-4.9497475 0.994369,0.022097 0.0221,3.9111844 4.220543,0.022097 0.0221,4.2205436 3.911184,0.022097 0.0221,0.994369 -4.949747,0 0,-4.2426407 -4.242641,0 z"
     style="fill:#000000;fill-opacity:1;stroke:none" />
</svg>
