<?xml version="1.0" encoding="UTF-8" standalone="no"?>
<svg
   xmlns:dc="http://purl.org/dc/elements/1.1/"
   xmlns:cc="http://creativecommons.org/ns#"
   xmlns:rdf="http://www.w3.org/1999/02/22-rdf-syntax-ns#"
   xmlns:svg="http://www.w3.org/2000/svg"
   xmlns="http://www.w3.org/2000/svg"
   xmlns:sodipodi="http://sodipodi.sourceforge.net/DTD/sodipodi-0.dtd"
   xmlns:inkscape="http://www.inkscape.org/namespaces/inkscape"
   version="1.0"
   width="19"
   height="33"
   id="svg2"
   inkscape:version="0.47 r22583"
   sodipodi:docname="02-06-011-01-05-01.svg">
  <defs
     id="defs16">
    <inkscape:perspective
       sodipodi:type="inkscape:persp3d"
       inkscape:vp_x="0 : 23 : 1"
       inkscape:vp_y="0 : 1000 : 0"
       inkscape:vp_z="36 : 23 : 1"
       inkscape:persp3d-origin="18 : 15.333333 : 1"
       id="perspective18" />
  </defs>
  <sodipodi:namedview
     pagecolor="#ffffff"
     bordercolor="#666666"
     borderopacity="1"
     objecttolerance="10"
     gridtolerance="10"
     guidetolerance="10"
     inkscape:pageopacity="0"
     inkscape:pageshadow="2"
     inkscape:window-width="964"
     inkscape:window-height="721"
     id="namedview14"
     showgrid="true"
     inkscape:zoom="14.333333"
     inkscape:cx="9.5"
     inkscape:cy="16.5"
     inkscape:window-x="365"
     inkscape:window-y="0"
     inkscape:window-maximized="0"
     inkscape:current-layer="svg2"
     showborder="true">
    <inkscape:grid
       type="xygrid"
       id="grid2824"
       empspacing="5"
       visible="true"
       enabled="true"
       snapvisiblegridlinesonly="true" />
  </sodipodi:namedview>
  <metadata
     id="metadata4">
Valerie Sutton's pixel definition of the
ISWA 2010 symbol ID 04-01-003-01-01-01
transformed by Stephen E Slevinski Jr
using line and fill polygon tracing
<rdf:RDF>
  <cc:Work
     rdf:about="">
    <dc:format>image/svg+xml</dc:format>
    <dc:type
       rdf:resource="http://purl.org/dc/dcmitype/StillImage" />
    <dc:title></dc:title>
  </cc:Work>
</rdf:RDF>
</metadata>
  <path
     style="fill:#000000;fill-opacity:1;stroke:none"
     d="M 9.5,8 C 7.014719,8 4.753679,8.99632 3.125,10.625 L 0,13.78125 0.6875,14.5 3.84375,11.34375 C 5.291465,9.896035 7.290862,9 9.5,9 c 2.209139,0 4.208535,0.896035 5.65625,2.34375 L 18.3125,14.5 19,13.78125 15.875,10.625 C 14.24632,8.99632 11.985281,8 9.5,8 z"
     id="path2904" />
  <path
     id="path2845"
     d="M 9.5,14 C 7.014719,14 4.753679,14.99632 3.125,16.625 L 0,19.78125 0.6875,20.5 3.84375,17.34375 C 5.291465,15.896035 7.290862,15 9.5,15 c 2.209139,0 4.208535,0.896035 5.65625,2.34375 L 18.3125,20.5 19,19.78125 15.875,16.625 C 14.24632,14.99632 11.985281,14 9.5,14 z"
     style="fill:#000000;fill-opacity:1;stroke:none" />
  <path
     style="fill:#000000;fill-opacity:1;stroke:none"
     d="M 9.5,20 C 7.014719,20 4.753679,20.99632 3.125,22.625 L 0,25.78125 0.6875,26.5 3.84375,23.34375 C 5.291465,21.896035 7.290862,21 9.5,21 c 2.209139,0 4.208535,0.896035 5.65625,2.34375 L 18.3125,26.5 19,25.78125 15.875,22.625 C 14.24632,20.99632 11.985281,20 9.5,20 z"
     id="path2847" />
  <rect
     style="fill:#000000;fill-opacity:1;stroke:none"
     id="rect2870"
     width="1"
     height="33"
     x="9"
     y="0" />
</svg>
