<?xml version="1.0" encoding="UTF-8" standalone="no"?>
<svg
   xmlns:dc="http://purl.org/dc/elements/1.1/"
   xmlns:cc="http://creativecommons.org/ns#"
   xmlns:rdf="http://www.w3.org/1999/02/22-rdf-syntax-ns#"
   xmlns:svg="http://www.w3.org/2000/svg"
   xmlns="http://www.w3.org/2000/svg"
   xmlns:sodipodi="http://sodipodi.sourceforge.net/DTD/sodipodi-0.dtd"
   xmlns:inkscape="http://www.inkscape.org/namespaces/inkscape"
   version="1.0"
   width="21"
   height="33"
   id="svg2"
   inkscape:version="0.47 r22583"
   sodipodi:docname="02-06-011-01-04-01.svg">
  <defs
     id="defs16">
    <inkscape:perspective
       sodipodi:type="inkscape:persp3d"
       inkscape:vp_x="0 : 23 : 1"
       inkscape:vp_y="0 : 1000 : 0"
       inkscape:vp_z="36 : 23 : 1"
       inkscape:persp3d-origin="18 : 15.333333 : 1"
       id="perspective18" />
  </defs>
  <sodipodi:namedview
     pagecolor="#ffffff"
     bordercolor="#666666"
     borderopacity="1"
     objecttolerance="10"
     gridtolerance="10"
     guidetolerance="10"
     inkscape:pageopacity="0"
     inkscape:pageshadow="2"
     inkscape:window-width="964"
     inkscape:window-height="721"
     id="namedview14"
     showgrid="true"
     inkscape:zoom="14.333333"
     inkscape:cx="10.5"
     inkscape:cy="16.5"
     inkscape:window-x="365"
     inkscape:window-y="0"
     inkscape:window-maximized="0"
     inkscape:current-layer="svg2"
     showborder="true">
    <inkscape:grid
       type="xygrid"
       id="grid2824"
       empspacing="5"
       visible="true"
       enabled="true"
       snapvisiblegridlinesonly="true" />
  </sodipodi:namedview>
  <metadata
     id="metadata4">
Valerie Sutton's pixel definition of the
ISWA 2010 symbol ID 04-01-003-01-01-01
transformed by Stephen E Slevinski Jr
using line and fill polygon tracing
<rdf:RDF>
  <cc:Work
     rdf:about="">
    <dc:format>image/svg+xml</dc:format>
    <dc:type
       rdf:resource="http://purl.org/dc/dcmitype/StillImage" />
    <dc:title></dc:title>
  </cc:Work>
</rdf:RDF>
</metadata>
  <path
     style="fill:#000000;fill-opacity:1;stroke:none"
     d="M 11.5,8 C 9.014719,8 6.753679,8.99632 5.125,10.625 L 2,13.78125 2.6875,14.5 5.84375,11.34375 C 7.291465,9.896035 9.290862,9 11.5,9 c 2.209139,0 4.208535,0.896035 5.65625,2.34375 L 20.3125,14.5 21,13.78125 17.875,10.625 C 16.24632,8.99632 13.985281,8 11.5,8 z"
     id="path2904" />
  <path
     id="path2845"
     d="M 11.5,14 C 9.014719,14 6.753679,14.99632 5.125,16.625 L 2,19.78125 2.6875,20.5 5.84375,17.34375 C 7.291465,15.896035 9.290862,15 11.5,15 c 2.209139,0 4.208535,0.896035 5.65625,2.34375 L 20.3125,20.5 21,19.78125 17.875,16.625 C 16.24632,14.99632 13.985281,14 11.5,14 z"
     style="fill:#000000;fill-opacity:1;stroke:none" />
  <path
     style="fill:#000000;fill-opacity:1;stroke:none"
     d="M 11.5 20 C 9.014719 20 6.753679 20.99632 5.125 22.625 L 2.875 24.875 L 3.59375 25.59375 L 5.84375 23.34375 C 7.291465 21.896035 9.290862 21 11.5 21 C 13.709139 21 15.708535 21.896035 17.15625 23.34375 L 20.3125 26.5 L 21 25.78125 L 17.875 22.625 C 16.24632 20.99632 13.985281 20 11.5 20 z "
     id="path2847" />
  <rect
     style="fill:#000000;fill-opacity:1;stroke:none"
     id="rect2870"
     width="1"
     height="33"
     x="11"
     y="0" />
  <path
     style="fill:#000000;fill-opacity:1;stroke:none"
     d="m 7,29 -7,0 0,-7 7,7 z"
     id="path2893" />
</svg>
