<?xml version="1.0" encoding="UTF-8" standalone="no"?>
<svg
   xmlns:dc="http://purl.org/dc/elements/1.1/"
   xmlns:cc="http://creativecommons.org/ns#"
   xmlns:rdf="http://www.w3.org/1999/02/22-rdf-syntax-ns#"
   xmlns:svg="http://www.w3.org/2000/svg"
   xmlns="http://www.w3.org/2000/svg"
   xmlns:sodipodi="http://sodipodi.sourceforge.net/DTD/sodipodi-0.dtd"
   xmlns:inkscape="http://www.inkscape.org/namespaces/inkscape"
   version="1.0"
   width="35"
   height="45"
   id="svg2"
   inkscape:version="0.47 r22583"
   sodipodi:docname="04-01-004-01-04-02.svg">
  <defs
     id="defs20">
    <inkscape:perspective
       sodipodi:type="inkscape:persp3d"
       inkscape:vp_x="0 : 22.5 : 1"
       inkscape:vp_y="0 : 1000 : 0"
       inkscape:vp_z="36 : 22.5 : 1"
       inkscape:persp3d-origin="18 : 15 : 1"
       id="perspective22" />
  </defs>
  <sodipodi:namedview
     pagecolor="#ffffff"
     bordercolor="#666666"
     borderopacity="1"
     objecttolerance="10"
     gridtolerance="10"
     guidetolerance="10"
     inkscape:pageopacity="0"
     inkscape:pageshadow="2"
     inkscape:window-width="1112"
     inkscape:window-height="792"
     id="namedview18"
     showgrid="true"
     inkscape:zoom="12.046734"
     inkscape:cx="18.401406"
     inkscape:cy="22.638386"
     inkscape:window-x="0"
     inkscape:window-y="0"
     inkscape:window-maximized="0"
     inkscape:current-layer="svg2">
    <inkscape:grid
       type="xygrid"
       id="grid2828" />
  </sodipodi:namedview>
  <metadata
     id="metadata4">
Valerie Sutton's pixel definition of the
ISWA 2010 symbol ID 04-01-004-01-01-01
transformed by Stephen E Slevinski Jr
using line and fill polygon tracing
<rdf:RDF>
  <cc:Work
     rdf:about="">
    <dc:format>image/svg+xml</dc:format>
    <dc:type
       rdf:resource="http://purl.org/dc/dcmitype/StillImage" />
    <dc:title />
  </cc:Work>
</rdf:RDF>
</metadata>
  <path
     style="fill:#000000;fill-opacity:1;stroke:none"
     d="M 17.5,10 C 7.8350169,10 0,17.835017 0,27.5 0,37.164983 7.8350169,45 17.5,45 27.164983,45 35,37.164983 35,27.5 35,17.835017 27.164983,10 17.5,10 z m 0,1.5 c 8.836556,0 16,7.163444 16,16 0,8.836556 -7.163444,16 -16,16 -8.836556,0 -16,-7.163444 -16,-16 0,-8.836556 7.163444,-16 16,-16 z"
     id="path2830" />
  <path
     style="fill:#000000;fill-opacity:1;stroke:none"
     d="M 30.1875,0 24,6.1875 24.71875,6.875 30.875,0.6875 30.1875,0 z"
     id="path2912" />
  <path
     style="fill:#ffffff;fill-opacity:1;stroke:none"
     d="M 30.875,0.6875 24.71875,6.875 26.125,8.3125 32.3125,2.125 30.875,0.6875 z"
     id="path2914" />
  <path
     style="fill:#000000;fill-opacity:1;stroke:none"
     d="M 32.3125,2.125 26.125,8.3125 26.8125,9 33,2.8125 32.3125,2.125 z"
     id="path2916" />
  <path
     style="fill:#000000;fill-opacity:1;stroke:none"
     d="M 4.8125,0 4.125,0.6875 10.28125,6.875 11,6.1875 4.8125,0 z"
     id="path3000" />
  <path
     style="fill:#ffffff;fill-opacity:1;stroke:none"
     d="M 4.125,0.6875 2.6875,2.125 8.875,8.3125 10.28125,6.875 4.125,0.6875 z"
     id="path3002" />
  <path
     style="fill:#000000;fill-opacity:1;stroke:none"
     d="M 2.6875,2.125 2,2.8125 8.1875,9 8.875,8.3125 2.6875,2.125 z"
     id="path3004" />
  <path
     style="fill:#000000;fill-opacity:1;stroke:none"
     d="M 15.53125,1 16.25,1.71875 14.4375,3.53125 16.25,5.34375 15.53125,6.03125 13,3.53125 15.53125,1 z"
     id="path3159" />
  <rect
     style="fill:#000000;fill-opacity:1;stroke:none"
     id="rect3112"
     width="7"
     height="1"
     x="15"
     y="3" />
</svg>
