<?xml version="1.0" encoding="UTF-8" standalone="no"?>
<svg
   xmlns:dc="http://purl.org/dc/elements/1.1/"
   xmlns:cc="http://creativecommons.org/ns#"
   xmlns:rdf="http://www.w3.org/1999/02/22-rdf-syntax-ns#"
   xmlns:svg="http://www.w3.org/2000/svg"
   xmlns="http://www.w3.org/2000/svg"
   xmlns:sodipodi="http://sodipodi.sourceforge.net/DTD/sodipodi-0.dtd"
   xmlns:inkscape="http://www.inkscape.org/namespaces/inkscape"
   version="1.0"
   width="35"
   height="45"
   id="svg2"
   inkscape:version="0.47 r22583"
   sodipodi:docname="04-01-004-01-03-02.svg">
  <defs
     id="defs20">
    <inkscape:perspective
       sodipodi:type="inkscape:persp3d"
       inkscape:vp_x="0 : 22.5 : 1"
       inkscape:vp_y="0 : 1000 : 0"
       inkscape:vp_z="36 : 22.5 : 1"
       inkscape:persp3d-origin="18 : 15 : 1"
       id="perspective22" />
  </defs>
  <sodipodi:namedview
     pagecolor="#ffffff"
     bordercolor="#666666"
     borderopacity="1"
     objecttolerance="10"
     gridtolerance="10"
     guidetolerance="10"
     inkscape:pageopacity="0"
     inkscape:pageshadow="2"
     inkscape:window-width="1112"
     inkscape:window-height="792"
     id="namedview18"
     showgrid="true"
     inkscape:zoom="12.05"
     inkscape:cx="17.476396"
     inkscape:cy="22.3616"
     inkscape:window-x="0"
     inkscape:window-y="0"
     inkscape:window-maximized="0"
     inkscape:current-layer="svg2">
    <inkscape:grid
       type="xygrid"
       id="grid2828" />
  </sodipodi:namedview>
  <metadata
     id="metadata4">
Valerie Sutton's pixel definition of the
ISWA 2010 symbol ID 04-01-004-01-01-01
transformed by Stephen E Slevinski Jr
using line and fill polygon tracing
<rdf:RDF>
  <cc:Work
     rdf:about="">
    <dc:format>image/svg+xml</dc:format>
    <dc:type
       rdf:resource="http://purl.org/dc/dcmitype/StillImage" />
    <dc:title />
  </cc:Work>
</rdf:RDF>
</metadata>
  <path
     style="fill:#000000;fill-opacity:1;stroke:none"
     d="M 17.5,10 C 7.8350169,10 0,17.835017 0,27.5 0,37.164983 7.8350169,45 17.5,45 27.164983,45 35,37.164983 35,27.5 35,17.835017 27.164983,10 17.5,10 z m 0,1.5 c 8.836556,0 16,7.163444 16,16 0,8.836556 -7.163444,16 -16,16 -8.836556,0 -16,-7.163444 -16,-16 0,-8.836556 7.163444,-16 16,-16 z"
     id="path2830" />
  <path
     style="fill:#000000;fill-opacity:1;stroke:none"
     d="M 19.1875,0 13,6.1875 13.71875,6.875 19.875,0.6875 19.1875,0 z"
     id="rect2837" />
  <path
     style="fill:#ffffff;fill-opacity:1;stroke:none"
     d="M 19.875,0.6875 13.71875,6.875 15.125,8.3125 21.3125,2.125 19.875,0.6875 z"
     id="rect2839" />
  <path
     style="fill:#000000;fill-opacity:1;stroke:none"
     d="M 21.3125,2.125 15.125,8.3125 15.8125,9 22,2.8125 21.3125,2.125 z"
     id="rect2841" />
  <path
     id="path3032"
     d="M 8.1875,0 2,6.1875 2.71875,6.875 8.875,0.6875 8.1875,0 z"
     style="fill:#000000;fill-opacity:1;stroke:none" />
  <path
     id="path3034"
     d="M 8.875,0.6875 2.71875,6.875 4.125,8.3125 10.3125,2.125 8.875,0.6875 z"
     style="fill:#ffffff;fill-opacity:1;stroke:none" />
  <path
     id="path3036"
     d="M 10.3125,2.125 4.125,8.3125 4.8125,9 11,2.8125 10.3125,2.125 z"
     style="fill:#000000;fill-opacity:1;stroke:none" />
  <path
     style="fill:#000000;fill-opacity:1;stroke:none"
     d="M 30.1875,0 24,6.1875 24.71875,6.875 30.875,0.6875 30.1875,0 z"
     id="path3038" />
  <path
     style="fill:#ffffff;fill-opacity:1;stroke:none"
     d="M 30.875,0.6875 24.71875,6.875 26.125,8.3125 32.3125,2.125 30.875,0.6875 z"
     id="path3040" />
  <path
     style="fill:#000000;fill-opacity:1;stroke:none"
     d="M 32.3125,2.125 26.125,8.3125 26.8125,9 33,2.8125 32.3125,2.125 z"
     id="path3042" />
</svg>
