<?xml version="1.0" encoding="UTF-8" standalone="no"?>
<svg
   xmlns:dc="http://purl.org/dc/elements/1.1/"
   xmlns:cc="http://creativecommons.org/ns#"
   xmlns:rdf="http://www.w3.org/1999/02/22-rdf-syntax-ns#"
   xmlns:svg="http://www.w3.org/2000/svg"
   xmlns="http://www.w3.org/2000/svg"
   xmlns:sodipodi="http://sodipodi.sourceforge.net/DTD/sodipodi-0.dtd"
   xmlns:inkscape="http://www.inkscape.org/namespaces/inkscape"
   version="1.0"
   width="35"
   height="45"
   id="svg2"
   inkscape:version="0.47 r22583"
   sodipodi:docname="04-01-004-01-05-01.svg">
  <defs
     id="defs20">
    <inkscape:perspective
       sodipodi:type="inkscape:persp3d"
       inkscape:vp_x="0 : 22.5 : 1"
       inkscape:vp_y="0 : 1000 : 0"
       inkscape:vp_z="36 : 22.5 : 1"
       inkscape:persp3d-origin="18 : 15 : 1"
       id="perspective22" />
  </defs>
  <sodipodi:namedview
     pagecolor="#ffffff"
     bordercolor="#666666"
     borderopacity="1"
     objecttolerance="10"
     gridtolerance="10"
     guidetolerance="10"
     inkscape:pageopacity="0"
     inkscape:pageshadow="2"
     inkscape:window-width="1112"
     inkscape:window-height="792"
     id="namedview18"
     showgrid="true"
     inkscape:zoom="12.046734"
     inkscape:cx="19.35415"
     inkscape:cy="22.410377"
     inkscape:window-x="0"
     inkscape:window-y="0"
     inkscape:window-maximized="0"
     inkscape:current-layer="svg2">
    <inkscape:grid
       type="xygrid"
       id="grid2828" />
  </sodipodi:namedview>
  <metadata
     id="metadata4">
Valerie Sutton's pixel definition of the
ISWA 2010 symbol ID 04-01-004-01-01-01
transformed by Stephen E Slevinski Jr
using line and fill polygon tracing
<rdf:RDF>
  <cc:Work
     rdf:about="">
    <dc:format>image/svg+xml</dc:format>
    <dc:type
       rdf:resource="http://purl.org/dc/dcmitype/StillImage" />
    <dc:title />
  </cc:Work>
</rdf:RDF>
</metadata>
  <path
     style="fill:#000000;fill-opacity:1;stroke:none"
     d="m 19.5,0 -0.71875,0.71875 1.8125,1.8125 -1.8125,1.8125 0.71875,0.6875 2.53125,-2.5 L 19.5,0 z"
     id="path3159" />
  <path
     style="fill:#000000;fill-opacity:1;stroke:none"
     d="M 30.1875,0 24,6.1875 24.71875,6.875 30.875,0.6875 30.1875,0 z"
     id="path2912" />
  <path
     style="fill:#ffffff;fill-opacity:1;stroke:none"
     d="M 30.875,0.6875 24.71875,6.875 26.125,8.3125 32.3125,2.125 30.875,0.6875 z"
     id="path2914" />
  <path
     style="fill:#000000;fill-opacity:1;stroke:none"
     d="M 32.3125,2.125 26.125,8.3125 26.8125,9 33,2.8125 32.3125,2.125 z"
     id="path2916" />
  <path
     style="fill:#000000;fill-opacity:1;stroke:none"
     d="M 4.8125,0 4.125,0.6875 10.28125,6.875 11,6.1875 4.8125,0 z"
     id="path3000" />
  <path
     style="fill:#ffffff;fill-opacity:1;stroke:none"
     d="M 4.125,0.6875 2.6875,2.125 8.875,8.3125 10.28125,6.875 4.125,0.6875 z"
     id="path3002" />
  <path
     style="fill:#000000;fill-opacity:1;stroke:none"
     d="M 2.6875,2.125 2,2.8125 8.1875,9 8.875,8.3125 2.6875,2.125 z"
     id="path3004" />
  <rect
     style="fill:#000000;fill-opacity:1;stroke:none"
     id="rect3112"
     width="7"
     height="1"
     x="13"
     y="2" />
  <path
     id="path3215"
     d="M 15.53125,3.99975 16.25,4.7185 14.4375,6.531 16.25,8.3435 15.53125,9.031 13,6.531 15.53125,3.99975 z"
     style="fill:#000000;fill-opacity:1;stroke:none" />
  <rect
     y="6"
     x="15"
     height="1"
     width="7"
     id="rect3217"
     style="fill:#000000;fill-opacity:1;stroke:none" />
  <path
     style="fill:#000000;fill-opacity:1;stroke:none"
     d="M 17.5 10 C 7.8350169 10 1.087327e-16 17.835017 0 27.5 C 0 37.164983 7.8350169 45 17.5 45 C 27.164983 45 35 37.164983 35 27.5 C 35 17.835017 27.164983 10 17.5 10 z M 17.5 11.5 C 26.336556 11.5 33.5 18.663444 33.5 27.5 C 33.5 36.336556 26.336556 43.5 17.5 43.5 C 8.663444 43.5 1.5 36.336556 1.5 27.5 C 1.5 18.663444 8.663444 11.5 17.5 11.5 z "
     id="path2846" />
</svg>
