<?xml version="1.0" encoding="UTF-8" standalone="no"?>
<svg
   xmlns:dc="http://purl.org/dc/elements/1.1/"
   xmlns:cc="http://creativecommons.org/ns#"
   xmlns:rdf="http://www.w3.org/1999/02/22-rdf-syntax-ns#"
   xmlns:svg="http://www.w3.org/2000/svg"
   xmlns="http://www.w3.org/2000/svg"
   xmlns:sodipodi="http://sodipodi.sourceforge.net/DTD/sodipodi-0.dtd"
   xmlns:inkscape="http://www.inkscape.org/namespaces/inkscape"
   version="1.0"
   width="35"
   height="45"
   id="svg2"
   inkscape:version="0.47 r22583"
   sodipodi:docname="04-01-004-01-02-01.svg">
  <defs
     id="defs20">
    <inkscape:perspective
       sodipodi:type="inkscape:persp3d"
       inkscape:vp_x="0 : 22.5 : 1"
       inkscape:vp_y="0 : 1000 : 0"
       inkscape:vp_z="36 : 22.5 : 1"
       inkscape:persp3d-origin="18 : 15 : 1"
       id="perspective22" />
  </defs>
  <sodipodi:namedview
     pagecolor="#ffffff"
     bordercolor="#666666"
     borderopacity="1"
     objecttolerance="10"
     gridtolerance="10"
     guidetolerance="10"
     inkscape:pageopacity="0"
     inkscape:pageshadow="2"
     inkscape:window-width="1112"
     inkscape:window-height="792"
     id="namedview18"
     showgrid="true"
     inkscape:zoom="12.05"
     inkscape:cx="16.115388"
     inkscape:cy="22.926098"
     inkscape:window-x="0"
     inkscape:window-y="0"
     inkscape:window-maximized="0"
     inkscape:current-layer="svg2">
    <inkscape:grid
       type="xygrid"
       id="grid2828" />
  </sodipodi:namedview>
  <metadata
     id="metadata4">
Valerie Sutton's pixel definition of the
ISWA 2010 symbol ID 04-01-004-01-01-01
transformed by Stephen E Slevinski Jr
using line and fill polygon tracing
<rdf:RDF>
  <cc:Work
     rdf:about="">
    <dc:format>image/svg+xml</dc:format>
    <dc:type
       rdf:resource="http://purl.org/dc/dcmitype/StillImage" />
    <dc:title />
  </cc:Work>
</rdf:RDF>
</metadata>
  <path
     style="fill:#000000;fill-opacity:1;stroke:none"
     d="M 17.5,10 C 7.8350169,10 0,17.835017 0,27.5 0,37.164983 7.8350169,45 17.5,45 27.164983,45 35,37.164983 35,27.5 35,17.835017 27.164983,10 17.5,10 z m 0,1.5 c 8.836556,0 16,7.163444 16,16 0,8.836556 -7.163444,16 -16,16 -8.836556,0 -16,-7.163444 -16,-16 0,-8.836556 7.163444,-16 16,-16 z"
     id="path2830" />
  <path
     style="fill:#000000;fill-opacity:1;stroke:none"
     d="M 20.8125,0 20.125,0.6875 26.28125,6.875 27,6.1875 20.8125,0 z"
     id="rect2837" />
  <path
     style="fill:#ffffff;fill-opacity:1;stroke:none"
     d="M 20.125,0.6875 18.6875,2.125 24.875,8.3125 26.28125,6.875 20.125,0.6875 z"
     id="rect2839" />
  <path
     style="fill:#000000;fill-opacity:1;stroke:none"
     d="M 18.6875,2.125 18,2.8125 24.1875,9 24.875,8.3125 18.6875,2.125 z"
     id="rect2841" />
  <path
     id="path2816"
     d="M 10.8125,0 10.125,0.6875 16.28125,6.875 17,6.1875 10.8125,0 z"
     style="fill:#000000;fill-opacity:1;stroke:none" />
  <path
     id="path2818"
     d="M 10.125,0.6875 8.6875,2.125 14.875,8.3125 16.28125,6.875 10.125,0.6875 z"
     style="fill:#ffffff;fill-opacity:1;stroke:none" />
  <path
     id="path2820"
     d="M 8.6875,2.125 8,2.8125 14.1875,9 14.875,8.3125 8.6875,2.125 z"
     style="fill:#000000;fill-opacity:1;stroke:none" />
</svg>
