<?xml version="1.0" encoding="UTF-8" standalone="no"?>
<svg
   xmlns:dc="http://purl.org/dc/elements/1.1/"
   xmlns:cc="http://creativecommons.org/ns#"
   xmlns:rdf="http://www.w3.org/1999/02/22-rdf-syntax-ns#"
   xmlns:svg="http://www.w3.org/2000/svg"
   xmlns="http://www.w3.org/2000/svg"
   xmlns:sodipodi="http://sodipodi.sourceforge.net/DTD/sodipodi-0.dtd"
   xmlns:inkscape="http://www.inkscape.org/namespaces/inkscape"
   version="1.0"
   width="40"
   height="25"
   id="svg2"
   inkscape:version="0.47 r22583"
   sodipodi:docname="02-07-015-01-03-02.svg">
  <defs
     id="defs16">
    <inkscape:perspective
       sodipodi:type="inkscape:persp3d"
       inkscape:vp_x="0 : 23 : 1"
       inkscape:vp_y="0 : 1000 : 0"
       inkscape:vp_z="36 : 23 : 1"
       inkscape:persp3d-origin="18 : 15.333333 : 1"
       id="perspective18" />
  </defs>
  <sodipodi:namedview
     pagecolor="#ffffff"
     bordercolor="#666666"
     borderopacity="1"
     objecttolerance="10"
     gridtolerance="10"
     guidetolerance="10"
     inkscape:pageopacity="0"
     inkscape:pageshadow="2"
     inkscape:window-width="964"
     inkscape:window-height="721"
     id="namedview14"
     showgrid="true"
     inkscape:zoom="16.47"
     inkscape:cx="20"
     inkscape:cy="12.5"
     inkscape:window-x="365"
     inkscape:window-y="0"
     inkscape:window-maximized="0"
     inkscape:current-layer="svg2"
     showborder="true">
    <inkscape:grid
       type="xygrid"
       id="grid2824"
       empspacing="5"
       visible="true"
       enabled="true"
       snapvisiblegridlinesonly="true" />
  </sodipodi:namedview>
  <metadata
     id="metadata4">
Valerie Sutton's pixel definition of the
ISWA 2010 symbol ID 04-01-003-01-01-01
transformed by Stephen E Slevinski Jr
using line and fill polygon tracing
<rdf:RDF>
  <cc:Work
     rdf:about="">
    <dc:format>image/svg+xml</dc:format>
    <dc:type
       rdf:resource="http://purl.org/dc/dcmitype/StillImage" />
    <dc:title></dc:title>
  </cc:Work>
</rdf:RDF>
</metadata>
  <path
     style="fill:#000000;fill-opacity:1;stroke:none"
     d="m 40,13 -40,0 0,-1 40,0 0,1 z"
     id="path2831" />
  <path
     style="fill:#000000;fill-opacity:1;stroke:none"
     d="m 15,25 -10,0 0,-10 1.5,1.5 0,7 7,0 1.5,1.5 z"
     id="path2964" />
  <path
     style="fill:#000000;fill-opacity:1;stroke:none"
     d="m 17,12.5 c 0,2.623352 -1.062088,4.999589 -2.78125,6.71875 l -2.5,2.5 L 11,21 13.5,18.5 c 1.538198,-1.538198 2.5,-3.65279 2.5,-6 0,-2.34721 -0.961802,-4.461802 -2.5,-6 L 9.71875,2.6875 10.40625,2 14.21875,5.78125 C 15.937912,7.500411 17,9.876648 17,12.5 z"
     id="path2817" />
  <path
     style="fill:#ffffff;fill-opacity:1;stroke:none"
     d="m 16,12.5 c 0,2.34721 -0.961802,4.461802 -2.5,6 L 11,21 8.875,18.875 l 2.5,-2.5 C 12.370305,15.379696 13,14.018783 13,12.5 13,10.981217 12.370305,9.620304 11.375,8.625 L 7.59375,4.8125 9.71875,2.6875 13.5,6.5 c 1.538198,1.538198 2.499999,3.652789 2.5,6 z"
     id="path2819" />
  <path
     style="fill:#000000;fill-opacity:1;stroke:none"
     d="m 13,12.5 c 0,1.518783 -0.629695,2.879696 -1.625,3.875 l -2.5,2.5 -0.6875,-0.6875 2.5,-2.5 C 11.50184,14.87316 12,13.742641 12,12.5 12,11.257359 11.501841,10.126841 10.6875,9.3125 L 6.875,5.53125 7.59375,4.8125 11.375,8.625 C 12.370305,9.620304 13,10.981217 13,12.5 z"
     id="path2824" />
  <path
     style="fill:#000000;fill-opacity:1;stroke:none"
     d="m 14,16.5 c -2.209139,0 -4,-1.790861 -4,-4 0,-2.209139 1.790861,-4 4,-4 2.209139,0 4,1.790861 4,4 0,2.209139 -1.790861,4 -4,4 z"
     id="rect2840" />
  <path
     id="path2843"
     d="m 29,0 -10,0 0,10 1.5,-1.5 0,-7 7,0 L 29,0 z"
     style="fill:#000000;fill-opacity:1;stroke:none" />
  <path
     id="path2845"
     d="M 31,12.5 C 31,9.876648 29.937912,7.500411 28.21875,5.78125 l -2.5,-2.5 L 25,4 27.5,6.5 c 1.538198,1.538198 2.5,3.65279 2.5,6 0,2.34721 -0.961802,4.461802 -2.5,6 l -3.78125,3.8125 0.6875,0.6875 3.8125,-3.78125 C 29.937912,17.499589 31,15.123352 31,12.5 z"
     style="fill:#000000;fill-opacity:1;stroke:none" />
  <path
     id="path2847"
     d="m 30,12.5 c 0,-2.34721 -0.961802,-4.461802 -2.5,-6 L 25,4 l -2.125,2.125 2.5,2.5 C 26.370305,9.620304 27,10.981217 27,12.5 c 0,1.518783 -0.629695,2.879696 -1.625,3.875 l -3.78125,3.8125 2.125,2.125 L 27.5,18.5 c 1.538198,-1.538198 2.499999,-3.652789 2.5,-6 z"
     style="fill:#ffffff;fill-opacity:1;stroke:none" />
  <path
     id="path2849"
     d="M 27,12.5 C 27,10.981217 26.370305,9.620304 25.375,8.625 l -2.5,-2.5 -0.6875,0.6875 2.5,2.5 C 25.50184,10.12684 26,11.257359 26,12.5 c 0,1.242641 -0.498159,2.373159 -1.3125,3.1875 L 20.875,19.46875 21.59375,20.1875 25.375,16.375 C 26.370305,15.379696 27,14.018783 27,12.5 z"
     style="fill:#000000;fill-opacity:1;stroke:none" />
  <path
     id="path2851"
     d="m 28,16.5 c -2.209139,0 -4,-1.790861 -4,-4 0,-2.209139 1.790861,-4 4,-4 2.209139,0 4,1.790861 4,4 0,2.209139 -1.790861,4 -4,4 z"
     style="fill:#000000;fill-opacity:1;stroke:none" />
</svg>
