<?xml version="1.0" encoding="UTF-8" standalone="no"?>
<svg
   xmlns:dc="http://purl.org/dc/elements/1.1/"
   xmlns:cc="http://creativecommons.org/ns#"
   xmlns:rdf="http://www.w3.org/1999/02/22-rdf-syntax-ns#"
   xmlns:svg="http://www.w3.org/2000/svg"
   xmlns="http://www.w3.org/2000/svg"
   xmlns:sodipodi="http://sodipodi.sourceforge.net/DTD/sodipodi-0.dtd"
   xmlns:inkscape="http://www.inkscape.org/namespaces/inkscape"
   version="1.0"
   width="19"
   height="32"
   id="svg2"
   inkscape:version="0.47 r22583"
   sodipodi:docname="02-06-007-01-02-01.svg">
  <defs
     id="defs16">
    <inkscape:perspective
       sodipodi:type="inkscape:persp3d"
       inkscape:vp_x="0 : 23 : 1"
       inkscape:vp_y="0 : 1000 : 0"
       inkscape:vp_z="36 : 23 : 1"
       inkscape:persp3d-origin="18 : 15.333333 : 1"
       id="perspective18" />
  </defs>
  <sodipodi:namedview
     pagecolor="#ffffff"
     bordercolor="#666666"
     borderopacity="1"
     objecttolerance="10"
     gridtolerance="10"
     guidetolerance="10"
     inkscape:pageopacity="0"
     inkscape:pageshadow="2"
     inkscape:window-width="964"
     inkscape:window-height="721"
     id="namedview14"
     showgrid="true"
     inkscape:zoom="14.78125"
     inkscape:cx="9.5"
     inkscape:cy="16"
     inkscape:window-x="365"
     inkscape:window-y="0"
     inkscape:window-maximized="0"
     inkscape:current-layer="svg2"
     showborder="true">
    <inkscape:grid
       type="xygrid"
       id="grid2824"
       empspacing="5"
       visible="true"
       enabled="true"
       snapvisiblegridlinesonly="true" />
  </sodipodi:namedview>
  <metadata
     id="metadata4">
Valerie Sutton's pixel definition of the
ISWA 2010 symbol ID 04-01-003-01-01-01
transformed by Stephen E Slevinski Jr
using line and fill polygon tracing
<rdf:RDF>
  <cc:Work
     rdf:about="">
    <dc:format>image/svg+xml</dc:format>
    <dc:type
       rdf:resource="http://purl.org/dc/dcmitype/StillImage" />
    <dc:title></dc:title>
  </cc:Work>
</rdf:RDF>
</metadata>
  <path
     style="fill:#000000;fill-opacity:1;stroke:none"
     d="M 9 0 L 2 7 L 4 7 L 9 2 L 14 7 L 16 7 L 9 0 z "
     id="path2816" />
  <path
     style="fill:#000000;fill-opacity:1;stroke:none"
     d="m 10.5,7 0,2.1875 c 0,1.518783 0.629696,2.879696 1.625,3.875 L 15,16 c 1.538197,1.538197 2.5,3.65279 2.5,6 0,4.69442 -3.80558,8.5 -8.5,8.5 C 6.6527898,30.5 4.5381975,29.538198 3,28 L 1.03125,26.0625 0,27.09375 1.9375,29.0625 C 3.7471441,30.872144 6.2385762,32 9,32 14.522847,32 19,27.522847 19,22 19,19.238577 17.872144,16.747144 16.0625,14.9375 L 13.15625,12.03125 C 12.432392,11.307392 12,10.29207 12,9.1875 L 12,7 10.5,7 z"
     id="path2818" />
  <path
     style="fill:#ffffff;fill-opacity:1;stroke:none"
     d="m 7.5,7 0,2.1875 c 0,2.34721 0.961802,4.461803 2.5,6 l 2.875,2.9375 c 0.995304,0.995304 1.625,2.356217 1.625,3.875 0,3.037566 -2.462434,5.5 -5.5,5.5 -1.5187831,0 -2.8796958,-0.629696 -3.875,-1.625 L 3.15625,23.9375 1.03125,26.0625 3,28 c 1.5381975,1.538197 3.6527898,2.5 6,2.5 4.69442,0 8.5,-3.80558 8.5,-8.5 0,-2.34721 -0.961803,-4.461803 -2.5,-6 L 12.125,13.0625 C 11.129696,12.067196 10.5,10.706283 10.5,9.1875 L 10.5,7 7.5,7 z"
     id="path2820" />
  <path
     style="fill:#000000;fill-opacity:1;stroke:none"
     d="m 6,7 0,2.1875 c 0,2.761423 1.127856,5.252856 2.9375,7.0625 l 2.90625,2.90625 C 12.567608,19.880108 13,20.89543 13,22 13,24.209139 11.209139,26 9,26 7.8954305,26 6.8801076,25.567608 6.15625,24.84375 L 4.21875,22.875 3.15625,23.9375 5.125,25.875 C 6.1203042,26.870304 7.4812169,27.5 9,27.5 c 3.037566,0 5.5,-2.462434 5.5,-5.5 0,-1.518783 -0.629696,-2.879696 -1.625,-3.875 L 10,15.1875 c -1.538197,-1.538197 -2.5,-3.65279 -2.5,-6 L 7.5,7 6,7 z"
     id="path2825" />
</svg>
