<?xml version="1.0" encoding="UTF-8" standalone="no"?>
<svg
   xmlns:dc="http://purl.org/dc/elements/1.1/"
   xmlns:cc="http://creativecommons.org/ns#"
   xmlns:rdf="http://www.w3.org/1999/02/22-rdf-syntax-ns#"
   xmlns:svg="http://www.w3.org/2000/svg"
   xmlns="http://www.w3.org/2000/svg"
   xmlns:sodipodi="http://sodipodi.sourceforge.net/DTD/sodipodi-0.dtd"
   xmlns:inkscape="http://www.inkscape.org/namespaces/inkscape"
   version="1.0"
   width="19"
   height="41"
   id="svg2"
   inkscape:version="0.47 r22583"
   sodipodi:docname="02-06-001-04-02-01.svg">
  <defs
     id="defs16">
    <inkscape:perspective
       sodipodi:type="inkscape:persp3d"
       inkscape:vp_x="0 : 23 : 1"
       inkscape:vp_y="0 : 1000 : 0"
       inkscape:vp_z="36 : 23 : 1"
       inkscape:persp3d-origin="18 : 15.333333 : 1"
       id="perspective18" />
  </defs>
  <sodipodi:namedview
     pagecolor="#ffffff"
     bordercolor="#666666"
     borderopacity="1"
     objecttolerance="10"
     gridtolerance="10"
     guidetolerance="10"
     inkscape:pageopacity="0"
     inkscape:pageshadow="2"
     inkscape:window-width="964"
     inkscape:window-height="721"
     id="namedview14"
     showgrid="true"
     inkscape:zoom="11.536585"
     inkscape:cx="9.5"
     inkscape:cy="20.5"
     inkscape:window-x="365"
     inkscape:window-y="0"
     inkscape:window-maximized="0"
     inkscape:current-layer="svg2"
     showborder="true">
    <inkscape:grid
       type="xygrid"
       id="grid2824"
       empspacing="5"
       visible="true"
       enabled="true"
       snapvisiblegridlinesonly="true" />
  </sodipodi:namedview>
  <metadata
     id="metadata4">
Valerie Sutton's pixel definition of the
ISWA 2010 symbol ID 04-01-003-01-01-01
transformed by Stephen E Slevinski Jr
using line and fill polygon tracing
<rdf:RDF>
  <cc:Work
     rdf:about="">
    <dc:format>image/svg+xml</dc:format>
    <dc:type
       rdf:resource="http://purl.org/dc/dcmitype/StillImage" />
    <dc:title></dc:title>
  </cc:Work>
</rdf:RDF>
</metadata>
  <path
     style="fill:#000000;fill-opacity:1;stroke:none"
     d="m 7.46875,0.53125 -1.0625,1.0625 6,6 C 15.541409,10.597187 17.5,14.815532 17.5,19.5 c 0,4.684468 -1.958591,8.902813 -5.09375,11.90625 L 3.875,39.9375 4.9375,41 13.46875,32.46875 C 16.874078,29.193789 19,24.597679 19,19.5 19,14.402321 16.874078,9.806211 13.46875,6.53125 l -6,-6 z"
     id="path4056" />
  <path
     style="fill:#000000;fill-opacity:1;stroke:none"
     d="m 3.59375,4.40625 -1.0625,1.0625 6,6 C 10.669607,13.475506 12,16.336088 12,19.5 c 0,3.163912 -1.330393,6.024494 -3.46875,8.03125 L 0,36.0625 1.0625,37.125 9.59375,28.59375 C 12.001929,26.315255 13.5,23.076926 13.5,19.5 c 0,-3.576926 -1.498071,-6.815255 -3.90625,-9.09375 l -6,-6 z"
     id="rect3991" />
  <path
     style="fill:#ffffff;fill-opacity:1;stroke:none"
     d="m 6.40625,1.59375 -2.8125,2.8125 6,6 C 12.001929,12.684745 13.5,15.923074 13.5,19.5 c 0,3.576926 -1.498071,6.815255 -3.90625,9.09375 L 1.0625,37.125 3.875,39.9375 12.40625,31.40625 C 15.541409,28.402813 17.5,24.184468 17.5,19.5 17.5,14.815532 15.541409,10.597187 12.40625,7.59375 l -6,-6 z"
     id="path4003" />
</svg>
