<?xml version="1.0" encoding="UTF-8" standalone="no"?>
<svg
   xmlns:dc="http://purl.org/dc/elements/1.1/"
   xmlns:cc="http://creativecommons.org/ns#"
   xmlns:rdf="http://www.w3.org/1999/02/22-rdf-syntax-ns#"
   xmlns:svg="http://www.w3.org/2000/svg"
   xmlns="http://www.w3.org/2000/svg"
   xmlns:sodipodi="http://sodipodi.sourceforge.net/DTD/sodipodi-0.dtd"
   xmlns:inkscape="http://www.inkscape.org/namespaces/inkscape"
   version="1.0"
   width="47"
   height="45"
   id="svg2"
   inkscape:version="0.47 r22583"
   sodipodi:docname="04-01-003-01-04-06.svg">
  <defs
     id="defs16">
    <inkscape:perspective
       sodipodi:type="inkscape:persp3d"
       inkscape:vp_x="0 : 23 : 1"
       inkscape:vp_y="0 : 1000 : 0"
       inkscape:vp_z="36 : 23 : 1"
       inkscape:persp3d-origin="18 : 15.333333 : 1"
       id="perspective18" />
  </defs>
  <sodipodi:namedview
     pagecolor="#ffffff"
     bordercolor="#666666"
     borderopacity="1"
     objecttolerance="10"
     gridtolerance="10"
     guidetolerance="10"
     inkscape:pageopacity="0"
     inkscape:pageshadow="2"
     inkscape:window-width="964"
     inkscape:window-height="721"
     id="namedview14"
     showgrid="true"
     inkscape:zoom="9.5822488"
     inkscape:cx="23.815795"
     inkscape:cy="23.824129"
     inkscape:window-x="365"
     inkscape:window-y="0"
     inkscape:window-maximized="0"
     inkscape:current-layer="svg2">
    <inkscape:grid
       type="xygrid"
       id="grid2824" />
  </sodipodi:namedview>
  <metadata
     id="metadata4">
Valerie Sutton's pixel definition of the
ISWA 2010 symbol ID 04-01-003-01-01-01
transformed by Stephen E Slevinski Jr
using line and fill polygon tracing
<rdf:RDF>
  <cc:Work
     rdf:about="">
    <dc:format>image/svg+xml</dc:format>
    <dc:type
       rdf:resource="http://purl.org/dc/dcmitype/StillImage" />
    <dc:title></dc:title>
  </cc:Work>
</rdf:RDF>
</metadata>
  <path
     d="m 29.50034,10 c -9.664983,0 -17.5,7.835017 -17.5,17.5 0,9.664983 7.835017,17.5 17.5,17.5 9.664983,0 17.5,-7.835017 17.5,-17.5 0,-9.664983 -7.835017,-17.5 -17.5,-17.5 z m 0,2 c 8.560414,0 15.5,6.939586 15.5,15.5 0,8.560414 -6.939586,15.5 -15.5,15.5 -8.560414,0 -15.5,-6.939586 -15.5,-15.5 0,-8.560414 6.939586,-15.5 15.5,-15.5 z"
     id="path12"
     style="fill:#000000" />
  <path
     d="m 7.48562,23.042 0,-7.071068 -1.016465,0 0,6.054602 -6.054601,0 0,1.016466 7.071066,0 z"
     id="path10"
     style="fill:#000000" />
  <path
     style="fill:#000000;fill-opacity:1;stroke:none"
     d="M 5.010748,19.860019 4.303641,20.567126 0.061,16.324485 l 0.707107,-0.707106 4.242641,4.24264 z"
     id="path2831" />
  <path
     style="fill:#000000"
     id="path3049"
     d="m 15.263796,15.263825 0,-7.071068 -1.016467,0 0,6.054602 -6.054601,0 0,1.016466 7.071068,0 z" />
  <path
     id="path3051"
     d="M 12.788921,12.081844 12.081815,12.788951 7.8391745,8.5463105 8.5462815,7.8392035 12.788921,12.081844 z"
     style="fill:#000000;fill-opacity:1;stroke:none" />
  <path
     d="m 23.04197,7.48565 0,-7.071067 -1.016466,0 0,6.054601 -6.054601,0 0,1.016466 7.071067,0 z"
     id="path3081"
     style="fill:#000000" />
  <path
     style="fill:#000000;fill-opacity:1;stroke:none"
     d="m 20.567096,4.3036705 -0.707106,0.707106 -4.242642,-4.24264 0.707107,-0.707107 4.242641,4.242641 z"
     id="path3083" />
</svg>
