<?xml version="1.0" encoding="UTF-8" standalone="no"?>
<svg
   xmlns:dc="http://purl.org/dc/elements/1.1/"
   xmlns:cc="http://creativecommons.org/ns#"
   xmlns:rdf="http://www.w3.org/1999/02/22-rdf-syntax-ns#"
   xmlns:svg="http://www.w3.org/2000/svg"
   xmlns="http://www.w3.org/2000/svg"
   xmlns:sodipodi="http://sodipodi.sourceforge.net/DTD/sodipodi-0.dtd"
   xmlns:inkscape="http://www.inkscape.org/namespaces/inkscape"
   version="1.0"
   width="44"
   height="41"
   id="svg2"
   inkscape:version="0.47 r22583"
   sodipodi:docname="04-01-003-01-03-08.svg">
  <defs
     id="defs16">
    <inkscape:perspective
       sodipodi:type="inkscape:persp3d"
       inkscape:vp_x="0 : 23 : 1"
       inkscape:vp_y="0 : 1000 : 0"
       inkscape:vp_z="36 : 23 : 1"
       inkscape:persp3d-origin="18 : 15.333333 : 1"
       id="perspective18" />
  </defs>
  <sodipodi:namedview
     pagecolor="#ffffff"
     bordercolor="#666666"
     borderopacity="1"
     objecttolerance="10"
     gridtolerance="10"
     guidetolerance="10"
     inkscape:pageopacity="0"
     inkscape:pageshadow="2"
     inkscape:window-width="964"
     inkscape:window-height="721"
     id="namedview14"
     showgrid="true"
     inkscape:zoom="9.5816548"
     inkscape:cx="20.895133"
     inkscape:cy="20.69477"
     inkscape:window-x="365"
     inkscape:window-y="0"
     inkscape:window-maximized="0"
     inkscape:current-layer="svg2">
    <inkscape:grid
       type="xygrid"
       id="grid2824" />
  </sodipodi:namedview>
  <metadata
     id="metadata4">
Valerie Sutton's pixel definition of the
ISWA 2010 symbol ID 04-01-003-01-01-01
transformed by Stephen E Slevinski Jr
using line and fill polygon tracing
<rdf:RDF>
  <cc:Work
     rdf:about="">
    <dc:format>image/svg+xml</dc:format>
    <dc:type
       rdf:resource="http://purl.org/dc/dcmitype/StillImage" />
    <dc:title></dc:title>
  </cc:Work>
</rdf:RDF>
</metadata>
  <path
     d="M 17.5,6 C 27.164983,6 35,13.835017 35,23.5 35,33.164983 27.164983,41 17.5,41 7.835017,41 0,33.164983 0,23.5 0,13.835017 7.835017,6 17.5,6 z m 0,2 C 8.939586,8 2,14.939586 2,23.5 2,32.060414 8.939586,39 17.5,39 26.060414,39 33,32.060414 33,23.5 33,14.939586 26.060414,8 17.5,8 z"
     id="path12"
     style="fill:#000000" />
  <path
     d="m 29.150758,7.4852814 7.071068,0 0,-1.016466 -6.054602,0 0,-6.0546018 -1.016466,0 0,7.0710678 z"
     id="path10"
     style="fill:#000000" />
  <path
     style="fill:#000000;fill-opacity:1;stroke:none"
     d="M 32.332737,5.0104076 31.625631,4.3033009 35.868271,0.0606602 36.575378,0.767767 32.332737,5.0104076 z"
     id="path2831" />
  <path
     style="fill:#000000"
     id="path3049"
     d="m 44,8.1923882 0,7.0710678 -1.016466,0 0,-6.054602 -6.054602,0 0,-1.0164658 7.071068,0 z" />
  <path
     id="path3051"
     d="m 41.525127,11.374369 -0.707107,-0.707107 -4.242641,4.242641 0.707107,0.707107 4.242641,-4.242641 z"
     style="fill:#000000;fill-opacity:1;stroke:none" />
</svg>
