<?xml version="1.0" encoding="UTF-8" standalone="no"?>
<svg
   xmlns:dc="http://purl.org/dc/elements/1.1/"
   xmlns:cc="http://creativecommons.org/ns#"
   xmlns:rdf="http://www.w3.org/1999/02/22-rdf-syntax-ns#"
   xmlns:svg="http://www.w3.org/2000/svg"
   xmlns="http://www.w3.org/2000/svg"
   xmlns:sodipodi="http://sodipodi.sourceforge.net/DTD/sodipodi-0.dtd"
   xmlns:inkscape="http://www.inkscape.org/namespaces/inkscape"
   version="1.0"
   width="45"
   height="45"
   id="svg2"
   inkscape:version="0.47 r22583"
   sodipodi:docname="04-01-003-01-05-04.svg">
  <defs
     id="defs16">
    <inkscape:perspective
       sodipodi:type="inkscape:persp3d"
       inkscape:vp_x="0 : 23 : 1"
       inkscape:vp_y="0 : 1000 : 0"
       inkscape:vp_z="36 : 23 : 1"
       inkscape:persp3d-origin="18 : 15.333333 : 1"
       id="perspective18" />
  </defs>
  <sodipodi:namedview
     pagecolor="#ffffff"
     bordercolor="#666666"
     borderopacity="1"
     objecttolerance="10"
     gridtolerance="10"
     guidetolerance="10"
     inkscape:pageopacity="0"
     inkscape:pageshadow="2"
     inkscape:window-width="964"
     inkscape:window-height="721"
     id="namedview14"
     showgrid="true"
     inkscape:zoom="9.5822488"
     inkscape:cx="23.557524"
     inkscape:cy="23.824129"
     inkscape:window-x="365"
     inkscape:window-y="0"
     inkscape:window-maximized="0"
     inkscape:current-layer="svg2">
    <inkscape:grid
       type="xygrid"
       id="grid2824" />
  </sodipodi:namedview>
  <metadata
     id="metadata4">
Valerie Sutton's pixel definition of the
ISWA 2010 symbol ID 04-01-003-01-01-01
transformed by Stephen E Slevinski Jr
using line and fill polygon tracing
<rdf:RDF>
  <cc:Work
     rdf:about="">
    <dc:format>image/svg+xml</dc:format>
    <dc:type
       rdf:resource="http://purl.org/dc/dcmitype/StillImage" />
    <dc:title></dc:title>
  </cc:Work>
</rdf:RDF>
</metadata>
  <path
     d="M 17.5,10 C 27.164983,10 35,17.835017 35,27.5 35,37.164983 27.164983,45 17.5,45 7.835017,45 0,37.164983 0,27.5 0,17.835017 7.835017,10 17.5,10 z m 0,2 C 8.939586,12 2,18.939586 2,27.5 2,36.060414 8.939586,43 17.5,43 26.060414,43 33,36.060414 33,27.5 33,18.939586 26.060414,12 17.5,12 z"
     id="path12"
     style="fill:#000000" />
  <path
     d="m 21.958369,7.7781745 7.071068,7e-7 0,-1.016466 -6.054602,0 0,-6.0546019 -1.016466,-7e-7 0,7.0710679 z"
     id="path10"
     style="fill:#000000" />
  <path
     style="fill:#000000;fill-opacity:1;stroke:none"
     d="m 25.140349,5.3033013 -0.707106,-0.7071068 4.242641,-4.242641 0.707107,0.7071066 -4.242642,4.2426412 z"
     id="path2831" />
  <path
     style="fill:#000000"
     id="path3049"
     d="m 38.221826,7.071068 -7.071068,0 0,1.016466 6.054602,0 0,6.054602 1.016466,0 0,-7.071068 z" />
  <path
     id="path3051"
     d="m 35.039845,9.545942 0.707107,0.707106 -4.242641,4.242641 -0.707107,-0.707108 4.242641,-4.242639 z"
     style="fill:#000000;fill-opacity:1;stroke:none" />
  <path
     d="m 37.514719,23.334523 7.071067,0 0,-1.016464 -6.054601,0 0,-6.054603 -1.016466,0 0,7.071067 z"
     id="path3081"
     style="fill:#000000" />
  <path
     style="fill:#000000;fill-opacity:1;stroke:none"
     d="m 40.696699,20.85965 -0.707107,-0.707107 4.242641,-4.242641 0.707107,0.707107 -4.242641,4.242641 z"
     id="path3083" />
</svg>
