<?xml version="1.0" encoding="UTF-8" standalone="no"?>
<svg
   xmlns:dc="http://purl.org/dc/elements/1.1/"
   xmlns:cc="http://creativecommons.org/ns#"
   xmlns:rdf="http://www.w3.org/1999/02/22-rdf-syntax-ns#"
   xmlns:svg="http://www.w3.org/2000/svg"
   xmlns="http://www.w3.org/2000/svg"
   xmlns:sodipodi="http://sodipodi.sourceforge.net/DTD/sodipodi-0.dtd"
   xmlns:inkscape="http://www.inkscape.org/namespaces/inkscape"
   version="1.0"
   width="46"
   height="46"
   id="svg2"
   inkscape:version="0.47 r22583"
   sodipodi:docname="04-01-003-01-05-02.svg">
  <defs
     id="defs16">
    <inkscape:perspective
       sodipodi:type="inkscape:persp3d"
       inkscape:vp_x="0 : 23 : 1"
       inkscape:vp_y="0 : 1000 : 0"
       inkscape:vp_z="36 : 23 : 1"
       inkscape:persp3d-origin="18 : 15.333333 : 1"
       id="perspective18" />
  </defs>
  <sodipodi:namedview
     pagecolor="#ffffff"
     bordercolor="#666666"
     borderopacity="1"
     objecttolerance="10"
     gridtolerance="10"
     guidetolerance="10"
     inkscape:pageopacity="0"
     inkscape:pageshadow="2"
     inkscape:window-width="964"
     inkscape:window-height="721"
     id="namedview14"
     showgrid="true"
     inkscape:zoom="9.5822488"
     inkscape:cx="22.822729"
     inkscape:cy="23.824129"
     inkscape:window-x="365"
     inkscape:window-y="0"
     inkscape:window-maximized="0"
     inkscape:current-layer="svg2">
    <inkscape:grid
       type="xygrid"
       id="grid2824" />
  </sodipodi:namedview>
  <metadata
     id="metadata4">
Valerie Sutton's pixel definition of the
ISWA 2010 symbol ID 04-01-003-01-01-01
transformed by Stephen E Slevinski Jr
using line and fill polygon tracing
<rdf:RDF>
  <cc:Work
     rdf:about="">
    <dc:format>image/svg+xml</dc:format>
    <dc:type
       rdf:resource="http://purl.org/dc/dcmitype/StillImage" />
    <dc:title></dc:title>
  </cc:Work>
</rdf:RDF>
</metadata>
  <path
     d="M 28.5,11 C 38.164983,11 46,18.835017 46,28.5 46,38.164983 38.164983,46 28.5,46 18.835017,46 11,38.164983 11,28.5 11,18.835017 18.835017,11 28.5,11 z m 0,2 C 19.939586,13 13,19.939586 13,28.5 13,37.060414 19.939586,44 28.5,44 37.060414,44 44,37.060414 44,28.5 44,19.939586 37.060414,13 28.5,13 z"
     id="path12"
     style="fill:#000000" />
  <path
     d="m 0,15.556719 7.071067,0 0,1.016466 -6.054602,0 0,6.054601 -1.016465,0 0,-7.071067 z"
     id="path10"
     style="fill:#000000" />
  <path
     style="fill:#000000;fill-opacity:1;stroke:none"
     d="M 3.18198,18.031592 2.474873,18.738699 6.717514,22.98134 7.424621,22.274233 3.18198,18.031592 z"
     id="path2831" />
  <path
     style="fill:#000000"
     id="path3049"
     d="m 14.849242,14.849612 0,-7.0710676 -1.016466,0 0,6.0546016 -6.054602,0 0,1.016466 7.071068,0 z" />
  <path
     id="path3051"
     d="M 12.374368,11.667631 11.667262,12.374738 7.424621,8.1320981 8.131728,7.4249913 12.374368,11.667631 z"
     style="fill:#000000;fill-opacity:1;stroke:none" />
  <path
     d="m 15.556349,3.698e-4 7.071068,0 0,1.016466 -6.054602,0 0,6.0546018 -1.016466,0 0,-7.0710678 z"
     id="path3081"
     style="fill:#000000" />
  <path
     style="fill:#000000;fill-opacity:1;stroke:none"
     d="M 18.738328,2.4752436 18.031222,3.1823503 22.273862,7.424991 22.980969,6.7178842 18.738328,2.4752436 z"
     id="path3083" />
</svg>
