<?xml version="1.0" encoding="UTF-8" standalone="no"?>
<svg
   xmlns:dc="http://purl.org/dc/elements/1.1/"
   xmlns:cc="http://creativecommons.org/ns#"
   xmlns:rdf="http://www.w3.org/1999/02/22-rdf-syntax-ns#"
   xmlns:svg="http://www.w3.org/2000/svg"
   xmlns="http://www.w3.org/2000/svg"
   xmlns:sodipodi="http://sodipodi.sourceforge.net/DTD/sodipodi-0.dtd"
   xmlns:inkscape="http://www.inkscape.org/namespaces/inkscape"
   version="1.0"
   width="46"
   height="46"
   id="svg2"
   inkscape:version="0.47 r22583"
   sodipodi:docname="04-01-003-01-05-08.svg">
  <defs
     id="defs16">
    <inkscape:perspective
       sodipodi:type="inkscape:persp3d"
       inkscape:vp_x="0 : 23 : 1"
       inkscape:vp_y="0 : 1000 : 0"
       inkscape:vp_z="36 : 23 : 1"
       inkscape:persp3d-origin="18 : 15.333333 : 1"
       id="perspective18" />
  </defs>
  <sodipodi:namedview
     pagecolor="#ffffff"
     bordercolor="#666666"
     borderopacity="1"
     objecttolerance="10"
     gridtolerance="10"
     guidetolerance="10"
     inkscape:pageopacity="0"
     inkscape:pageshadow="2"
     inkscape:window-width="964"
     inkscape:window-height="721"
     id="namedview14"
     showgrid="true"
     inkscape:zoom="9.5822488"
     inkscape:cx="30.358355"
     inkscape:cy="23.824129"
     inkscape:window-x="365"
     inkscape:window-y="0"
     inkscape:window-maximized="0"
     inkscape:current-layer="svg2">
    <inkscape:grid
       type="xygrid"
       id="grid2824" />
  </sodipodi:namedview>
  <metadata
     id="metadata4">
Valerie Sutton's pixel definition of the
ISWA 2010 symbol ID 04-01-003-01-01-01
transformed by Stephen E Slevinski Jr
using line and fill polygon tracing
<rdf:RDF>
  <cc:Work
     rdf:about="">
    <dc:format>image/svg+xml</dc:format>
    <dc:type
       rdf:resource="http://purl.org/dc/dcmitype/StillImage" />
    <dc:title></dc:title>
  </cc:Work>
</rdf:RDF>
</metadata>
  <path
     d="M 17.5,11 C 7.8350169,11 0,18.835017 0,28.5 0,38.164983 7.8350169,46 17.5,46 27.164983,46 35,38.164983 35,28.5 35,18.835017 27.164983,11 17.5,11 z m 0,2 C 26.060414,13 33,19.939586 33,28.5 33,37.060414 26.060414,44 17.5,44 8.9395864,44 2,37.060414 2,28.5 2,19.939586 8.9395864,13 17.5,13 z"
     id="path12"
     style="fill:#000000" />
  <path
     d="m 46,15.556719 -7.071067,0 0,1.016466 6.054602,0 0,6.054601 1.016465,0 0,-7.071067 z"
     id="path10"
     style="fill:#000000" />
  <path
     style="fill:#000000;fill-opacity:1;stroke:none"
     d="m 42.81802,18.031592 0.707107,0.707107 -4.242641,4.242641 -0.707107,-0.707107 4.242641,-4.242641 z"
     id="path2831" />
  <path
     style="fill:#000000"
     id="path3049"
     d="m 31.150758,14.849612 0,-7.0710676 1.016466,0 0,6.0546016 6.054602,0 0,1.016466 -7.071068,0 z" />
  <path
     id="path3051"
     d="m 33.625632,11.667631 0.707106,0.707107 4.242641,-4.2426399 -0.707107,-0.7071068 -4.24264,4.2426397 z"
     style="fill:#000000;fill-opacity:1;stroke:none" />
  <path
     d="m 30.443651,3.698e-4 -7.071068,0 0,1.016466 6.054602,0 0,6.0546018 1.016466,0 0,-7.0710678 z"
     id="path3081"
     style="fill:#000000" />
  <path
     style="fill:#000000;fill-opacity:1;stroke:none"
     d="M 27.261672,2.4752436 27.968778,3.1823503 23.726137,7.424991 23.01903,6.7178842 27.261672,2.4752436 z"
     id="path3083" />
</svg>
