<?xml version="1.0" encoding="UTF-8" standalone="no"?>
<!-- Created with Inkscape (http://www.inkscape.org/) -->

<svg
   xmlns:dc="http://purl.org/dc/elements/1.1/"
   xmlns:cc="http://creativecommons.org/ns#"
   xmlns:rdf="http://www.w3.org/1999/02/22-rdf-syntax-ns#"
   xmlns:svg="http://www.w3.org/2000/svg"
   xmlns="http://www.w3.org/2000/svg"
   xmlns:sodipodi="http://sodipodi.sourceforge.net/DTD/sodipodi-0.dtd"
   xmlns:inkscape="http://www.inkscape.org/namespaces/inkscape"
   width="25"
   height="31"
   id="svg3198"
   sodipodi:version="0.32"
   inkscape:version="0.47 r22583"
   version="1.0"
   sodipodi:docname="01-05-001-01-01.svg"
   inkscape:output_extension="org.inkscape.output.svg.inkscape">
  <defs
     id="defs3200">
    <inkscape:perspective
       sodipodi:type="inkscape:persp3d"
       inkscape:vp_x="0 : 526.18109 : 1"
       inkscape:vp_y="0 : 1000 : 0"
       inkscape:vp_z="744.09448 : 526.18109 : 1"
       inkscape:persp3d-origin="372.04724 : 350.78739 : 1"
       id="perspective3206" />
  </defs>
  <sodipodi:namedview
     id="namedview3727"
     pagecolor="#ffffff"
     bordercolor="#666666"
     borderopacity="1.0"
     gridtolerance="10000"
     guidetolerance="10"
     objecttolerance="10"
     inkscape:pageopacity="0.0"
     inkscape:pageshadow="2"
     inkscape:zoom="19.69"
     inkscape:cx="15.452011"
     inkscape:cy="14.509517"
     inkscape:document-units="px"
     inkscape:current-layer="svg3198"
     showgrid="true"
     inkscape:window-width="1261"
     inkscape:window-height="918"
     inkscape:window-x="63"
     inkscape:window-y="19"
     inkscape:window-maximized="0">
    <inkscape:grid
       type="xygrid"
       id="grid3208"
       visible="true"
       enabled="true" />
  </sodipodi:namedview>
  <metadata
     id="metadata3203">
    <rdf:RDF>
      <cc:Work
         rdf:about="">
        <dc:format>image/svg+xml</dc:format>
        <dc:type
           rdf:resource="http://purl.org/dc/dcmitype/StillImage" />
        <dc:title></dc:title>
      </cc:Work>
    </rdf:RDF>
  </metadata>
  <g
     inkscape:label="Layer 1"
     inkscape:groupmode="layer"
     id="" />
  <path
     style="fill:#000000;fill-opacity:1;stroke:none"
     d="m 8,31 0,-17 5,-5 5,5 0,17 -10,0 z"
     id="base" />
  <path
     style="fill:#ffffff;fill-opacity:1;stroke:none"
     d="m 13,11.8125 -3,3 0,14.1875 6,0 0,-14.1875 -3,-3 z"
     id="fill" />
  <path
     style="fill:#000000;fill-opacity:1;stroke:none"
     d="M 19.15625,2.5 C 17.638312,2.5978964 16.8125,4.0625 16.8125,4.0625 l -1,1.75 1.71875,1 c 0.344417,-0.5769902 0.667844,-1.166169 1,-1.75 0.375,-0.6495191 0.951743,-0.5062801 1.21875,-0.40625 0.05231,0.030202 -0.02854,-0.044188 0.15625,0.0625 0.866025,0.5 0.375,1.34375 0.375,1.34375 l -3.75,6.46875 L 18,14 C 19.33437,11.688099 20.659623,9.3709271 22,7.0625 23.5,4.4644238 20.90625,2.96875 20.90625,2.96875 20.256731,2.59375 19.662229,2.4673679 19.15625,2.5 z"
     id="index" />
  <path
     style="fill:#000000;fill-opacity:1;stroke:none"
     d="M 11 0 C 8 0 8 3 8 3 L 8 6 L 10 6 L 10 3.375 L 10 3 C 10 2.25 10.5625 2.046875 10.84375 2 L 11 2 C 12 2 12 3 12 3 L 12 4 L 12 10 L 13 9 L 14 10 L 14 4.125 L 14 4 L 14 3 C 14 0 11 0 11 0 z "
     id="middle" />
  <path
     style="fill:#000000;fill-opacity:1;stroke:none"
     d="M 3.125 4.5625 C 2.2879809 4.612741 1.625 4.96875 1.625 4.96875 C -0.9730762 6.46875 0.53125 9.0625 0.53125 9.0625 L 1.53125 10.8125 L 3.28125 9.8125 C 2.9368335 9.2355098 2.6134056 8.646331 2.28125 8.0625 C 1.78125 7.1964746 2.625 6.71875 2.625 6.71875 C 3.4910254 6.21875 4 7.0625 4 7.0625 L 8 14 L 9.46875 12.53125 C 8.2238821 10.37204 6.9702557 8.2178709 5.71875 6.0625 C 4.96875 4.7634619 3.9620191 4.5122595 3.125 4.5625 z "
     id="ring" />
  <path
     style="fill:#000000;fill-opacity:1;stroke:none"
     d="M 3.125 13.5625 C 2.2879809 13.61274 1.625 13.96875 1.625 13.96875 C -0.9730762 15.46875 0.53125 18.0625 0.53125 18.0625 L 1.53125 19.8125 L 3.28125 18.8125 C 2.9368335 18.23551 2.6134056 17.646331 2.28125 17.0625 C 1.78125 16.196475 2.625 15.71875 2.625 15.71875 C 3.4910254 15.21875 4 16.0625 4 16.0625 L 8 23 L 8 19.03125 C 7.2391522 17.70858 6.4849538 16.382073 5.71875 15.0625 C 4.96875 13.763462 3.9620191 13.512259 3.125 13.5625 z "
     id="baby" />
  <path
     style="fill:#000000;fill-opacity:1;stroke:none"
     d="m 25,22 -7,0 0,2 7,0 0,-2 z"
     id="thumb" />
</svg>
