<?xml version="1.0" encoding="UTF-8" standalone="no"?>
<svg
   xmlns:dc="http://purl.org/dc/elements/1.1/"
   xmlns:cc="http://creativecommons.org/ns#"
   xmlns:rdf="http://www.w3.org/1999/02/22-rdf-syntax-ns#"
   xmlns:svg="http://www.w3.org/2000/svg"
   xmlns="http://www.w3.org/2000/svg"
   xmlns:sodipodi="http://sodipodi.sourceforge.net/DTD/sodipodi-0.dtd"
   xmlns:inkscape="http://www.inkscape.org/namespaces/inkscape"
   version="1.0"
   width="29"
   height="36"
   id="svg2"
   inkscape:version="0.47 r22583"
   sodipodi:docname="02-06-002-03-01-01.svg">
  <defs
     id="defs16">
    <inkscape:perspective
       sodipodi:type="inkscape:persp3d"
       inkscape:vp_x="0 : 23 : 1"
       inkscape:vp_y="0 : 1000 : 0"
       inkscape:vp_z="36 : 23 : 1"
       inkscape:persp3d-origin="18 : 15.333333 : 1"
       id="perspective18" />
  </defs>
  <sodipodi:namedview
     pagecolor="#ffffff"
     bordercolor="#666666"
     borderopacity="1"
     objecttolerance="10"
     gridtolerance="10"
     guidetolerance="10"
     inkscape:pageopacity="0"
     inkscape:pageshadow="2"
     inkscape:window-width="964"
     inkscape:window-height="721"
     id="namedview14"
     showgrid="true"
     inkscape:zoom="13.138889"
     inkscape:cx="14.5"
     inkscape:cy="18"
     inkscape:window-x="365"
     inkscape:window-y="0"
     inkscape:window-maximized="0"
     inkscape:current-layer="svg2"
     showborder="true">
    <inkscape:grid
       type="xygrid"
       id="grid2824"
       empspacing="5"
       visible="true"
       enabled="true"
       snapvisiblegridlinesonly="true" />
  </sodipodi:namedview>
  <metadata
     id="metadata4">
Valerie Sutton's pixel definition of the
ISWA 2010 symbol ID 04-01-003-01-01-01
transformed by Stephen E Slevinski Jr
using line and fill polygon tracing
<rdf:RDF>
  <cc:Work
     rdf:about="">
    <dc:format>image/svg+xml</dc:format>
    <dc:type
       rdf:resource="http://purl.org/dc/dcmitype/StillImage" />
    <dc:title></dc:title>
  </cc:Work>
</rdf:RDF>
</metadata>
  <path
     style="fill:#000000;fill-opacity:1;stroke:none"
     d="M 8 0 L 0.5 7.5 L 8 15 L 8 12.1875 L 3.3125 7.5 L 8 2.8125 L 8 0 z "
     id="path3232" />
  <path
     style="fill:#000000;fill-opacity:1;stroke:none"
     d="M 8 4 L 8 5.5 L 13 5.5 C 21.008129 5.5 27.5 11.991871 27.5 20 C 27.5 28.008129 21.008129 34.5 13 34.5 L 3 34.5 L 3 36 L 13 36 C 21.836556 36 29 28.836556 29 20 C 29 11.163444 21.836556 4 13 4 L 8 4 z "
     id="path3237" />
  <path
     style="fill:#ffffff;fill-opacity:1;stroke:none"
     d="M 8 5.5 L 8 9.5 L 13 9.5 C 18.79899 9.5 23.5 14.20101 23.5 20 C 23.5 25.79899 18.79899 30.5 13 30.5 L 3 30.5 L 3 34.5 L 13 34.5 C 21.008129 34.5 27.5 28.008129 27.5 20 C 27.5 11.991871 21.008129 5.5 13 5.5 L 8 5.5 z "
     id="path3239" />
  <path
     style="fill:#000000;fill-opacity:1;stroke:none"
     d="M 8 9.5 L 8 11 L 13 11 C 17.970563 11 22 15.029437 22 20 C 22 24.970563 17.970563 29 13 29 L 3 29 L 3 30.5 L 13 30.5 C 18.79899 30.5 23.5 25.79899 23.5 20 C 23.5 14.20101 18.79899 9.5 13 9.5 L 8 9.5 z "
     id="path3244" />
</svg>
