<?xml version="1.0" encoding="UTF-8" standalone="no"?>
<svg
   xmlns:dc="http://purl.org/dc/elements/1.1/"
   xmlns:cc="http://creativecommons.org/ns#"
   xmlns:rdf="http://www.w3.org/1999/02/22-rdf-syntax-ns#"
   xmlns:svg="http://www.w3.org/2000/svg"
   xmlns="http://www.w3.org/2000/svg"
   xmlns:sodipodi="http://sodipodi.sourceforge.net/DTD/sodipodi-0.dtd"
   xmlns:inkscape="http://www.inkscape.org/namespaces/inkscape"
   version="1.0"
   width="26"
   height="32"
   id="svg2"
   inkscape:version="0.47 r22583"
   sodipodi:docname="02-06-002-03-02-01.svg">
  <defs
     id="defs16">
    <inkscape:perspective
       sodipodi:type="inkscape:persp3d"
       inkscape:vp_x="0 : 23 : 1"
       inkscape:vp_y="0 : 1000 : 0"
       inkscape:vp_z="36 : 23 : 1"
       inkscape:persp3d-origin="18 : 15.333333 : 1"
       id="perspective18" />
  </defs>
  <sodipodi:namedview
     pagecolor="#ffffff"
     bordercolor="#666666"
     borderopacity="1"
     objecttolerance="10"
     gridtolerance="10"
     guidetolerance="10"
     inkscape:pageopacity="0"
     inkscape:pageshadow="2"
     inkscape:window-width="964"
     inkscape:window-height="721"
     id="namedview14"
     showgrid="true"
     inkscape:zoom="14.78125"
     inkscape:cx="13"
     inkscape:cy="16"
     inkscape:window-x="365"
     inkscape:window-y="0"
     inkscape:window-maximized="0"
     inkscape:current-layer="svg2"
     showborder="true">
    <inkscape:grid
       type="xygrid"
       id="grid2824"
       empspacing="5"
       visible="true"
       enabled="true"
       snapvisiblegridlinesonly="true" />
  </sodipodi:namedview>
  <metadata
     id="metadata4">
Valerie Sutton's pixel definition of the
ISWA 2010 symbol ID 04-01-003-01-01-01
transformed by Stephen E Slevinski Jr
using line and fill polygon tracing
<rdf:RDF>
  <cc:Work
     rdf:about="">
    <dc:format>image/svg+xml</dc:format>
    <dc:type
       rdf:resource="http://purl.org/dc/dcmitype/StillImage" />
    <dc:title></dc:title>
  </cc:Work>
</rdf:RDF>
</metadata>
  <path
     style="fill:#000000;fill-opacity:1;stroke:none"
     d="m 5,0 0,1.5 5,0 c 8.008129,0 14.5,6.491871 14.5,14.5 0,8.008129 -6.491871,14.5 -14.5,14.5 l -10,0 0,1.5 10,0 C 18.836556,32 26,24.836556 26,16 26,7.163444 18.836556,0 10,0 L 5,0 z"
     id="path3237" />
  <path
     style="fill:#ffffff;fill-opacity:1;stroke:none"
     d="m 5,1.5 0,4 5,0 c 5.79899,0 10.5,4.70101 10.5,10.5 0,5.79899 -4.70101,10.5 -10.5,10.5 l -10,0 0,4 10,0 C 18.008129,30.5 24.5,24.008129 24.5,16 24.5,7.991871 18.008129,1.5 10,1.5 l -5,0 z"
     id="path3239" />
  <path
     style="fill:#000000;fill-opacity:1;stroke:none"
     d="M 5,5.5 5,7 10,7 c 4.970563,0 9,4.029437 9,9 0,4.970563 -4.029437,9 -9,9 l -10,0 0,1.5 10,0 C 15.79899,26.5 20.5,21.79899 20.5,16 20.5,10.20101 15.79899,5.5 10,5.5 l -5,0 z"
     id="path3244" />
</svg>
