<?xml version="1.0" encoding="UTF-8" standalone="no"?>
<svg
   xmlns:dc="http://purl.org/dc/elements/1.1/"
   xmlns:cc="http://creativecommons.org/ns#"
   xmlns:rdf="http://www.w3.org/1999/02/22-rdf-syntax-ns#"
   xmlns:svg="http://www.w3.org/2000/svg"
   xmlns="http://www.w3.org/2000/svg"
   xmlns:sodipodi="http://sodipodi.sourceforge.net/DTD/sodipodi-0.dtd"
   xmlns:inkscape="http://www.inkscape.org/namespaces/inkscape"
   version="1.0"
   width="74"
   height="10"
   id="svg2"
   inkscape:version="0.47 r22583"
   sodipodi:docname="07-01-001-01-02-05.svg">
  <defs
     id="defs14">
    <inkscape:perspective
       sodipodi:type="inkscape:persp3d"
       inkscape:vp_x="0 : 5.5 : 1"
       inkscape:vp_y="0 : 1000 : 0"
       inkscape:vp_z="10 : 5.5 : 1"
       inkscape:persp3d-origin="5 : 3.6666667 : 1"
       id="perspective16" />
  </defs>
  <sodipodi:namedview
     pagecolor="#ffffff"
     bordercolor="#666666"
     borderopacity="1"
     objecttolerance="10"
     gridtolerance="10"
     guidetolerance="10"
     inkscape:pageopacity="0"
     inkscape:pageshadow="2"
     inkscape:window-width="917"
     inkscape:window-height="792"
     id="namedview12"
     showgrid="true"
     inkscape:zoom="11.027027"
     inkscape:cx="37"
     inkscape:cy="5"
     inkscape:window-x="313"
     inkscape:window-y="0"
     inkscape:window-maximized="0"
     inkscape:current-layer="svg2"
     showborder="true"
     inkscape:showpageshadow="true">
    <inkscape:grid
       type="xygrid"
       id="grid2822"
       empspacing="5"
       visible="true"
       enabled="true"
       snapvisiblegridlinesonly="true" />
  </sodipodi:namedview>
  <metadata
     id="metadata4">
Valerie Sutton's pixel definition of the
ISWA 2010 symbol ID 02-01-001-01-01-01
transformed by Stephen E Slevinski Jr
using line and fill polygon tracing
<rdf:RDF>
  <cc:Work
     rdf:about="">
    <dc:format>image/svg+xml</dc:format>
    <dc:type
       rdf:resource="http://purl.org/dc/dcmitype/StillImage" />
    <dc:title></dc:title>
  </cc:Work>
</rdf:RDF>
</metadata>
  <path
     style="fill:#000000;fill-opacity:1;stroke:none"
     d="M 27,4 0,4 0,2 27,2 27,4 z"
     id="path3024" />
  <path
     style="fill:#000000;fill-opacity:1;stroke:none"
     d="M 48,2 74,2 74,4 48,4 48,2 z"
     id="path3022" />
  <path
     style="fill:#000000;fill-opacity:1;stroke:none"
     d="M 74,8 0,8 0,10 74,10 74,8 z"
     id="rect2815" />
  <path
     style="fill:#ffffff;fill-opacity:1;stroke:none"
     d="M 27,2 27,4 0,4 0,8 74,8 74,4 48,4 48,2 27,2 z"
     id="rect2840" />
  <path
     style="fill:#000000;fill-opacity:1;stroke:none"
     d="M 37.5,0 C 33.833702,0 30.776221,2.5684093 30,6 l 1.15625,0 C 32.068445,3.3838151 34.572822,1.5 37.5,1.5 c 2.927178,0 5.431554,1.8838151 6.34375,4.5 L 45,6 C 44.223779,2.5684093 41.166298,0 37.5,0 z"
     id="path3017" />
</svg>
