<?xml version="1.0" encoding="UTF-8" standalone="no"?>
<svg
   xmlns:dc="http://purl.org/dc/elements/1.1/"
   xmlns:cc="http://creativecommons.org/ns#"
   xmlns:rdf="http://www.w3.org/1999/02/22-rdf-syntax-ns#"
   xmlns:svg="http://www.w3.org/2000/svg"
   xmlns="http://www.w3.org/2000/svg"
   xmlns:sodipodi="http://sodipodi.sourceforge.net/DTD/sodipodi-0.dtd"
   xmlns:inkscape="http://www.inkscape.org/namespaces/inkscape"
   version="1.0"
   width="58"
   height="58"
   id="svg2"
   inkscape:version="0.47 r22583"
   sodipodi:docname="07-01-001-01-03-08.svg">
  <defs
     id="defs14">
    <inkscape:perspective
       sodipodi:type="inkscape:persp3d"
       inkscape:vp_x="0 : 5.5 : 1"
       inkscape:vp_y="0 : 1000 : 0"
       inkscape:vp_z="10 : 5.5 : 1"
       inkscape:persp3d-origin="5 : 3.6666667 : 1"
       id="perspective16" />
  </defs>
  <sodipodi:namedview
     pagecolor="#ffffff"
     bordercolor="#666666"
     borderopacity="1"
     objecttolerance="10"
     gridtolerance="10"
     guidetolerance="10"
     inkscape:pageopacity="0"
     inkscape:pageshadow="2"
     inkscape:window-width="917"
     inkscape:window-height="792"
     id="namedview12"
     showgrid="true"
     inkscape:zoom="9.3793103"
     inkscape:cx="29"
     inkscape:cy="29"
     inkscape:window-x="313"
     inkscape:window-y="0"
     inkscape:window-maximized="0"
     inkscape:current-layer="svg2"
     showborder="true"
     inkscape:showpageshadow="true">
    <inkscape:grid
       type="xygrid"
       id="grid2822"
       empspacing="5"
       visible="true"
       enabled="true"
       snapvisiblegridlinesonly="true" />
  </sodipodi:namedview>
  <metadata
     id="metadata4">
Valerie Sutton's pixel definition of the
ISWA 2010 symbol ID 02-01-001-01-01-01
transformed by Stephen E Slevinski Jr
using line and fill polygon tracing
<rdf:RDF>
  <cc:Work
     rdf:about="">
    <dc:format>image/svg+xml</dc:format>
    <dc:type
       rdf:resource="http://purl.org/dc/dcmitype/StillImage" />
    <dc:title></dc:title>
  </cc:Work>
</rdf:RDF>
</metadata>
  <path
     style="fill:#000000;fill-opacity:1;stroke:none"
     d="M 26.34375,32 29.1875,32 53.75,56.5625 52.34375,58 l -26,-26 z"
     id="path2972" />
  <path
     style="fill:#ffffff;fill-opacity:1;stroke:none"
     d="M 4.25 1.4375 L 1.4375 4.25 L 21.1875 24 L 18.34375 24 L 26.34375 32 L 29.1875 32 L 53.75 56.5625 L 56.5625 53.75 L 33.8125 31 L 36.65625 31 L 26.65625 21 L 23.8125 21 L 4.25 1.4375 z "
     id="path2970" />
  <path
     style="fill:#000000;fill-opacity:1;stroke:none"
     d="M 1.4375 4.25 L 0 5.65625 L 18.34375 24 L 21.1875 24 L 1.4375 4.25 z "
     id="rect2813" />
  <path
     style="fill:#000000;fill-opacity:1;stroke:none"
     d="M 33.8125,31 36.65625,31 58,52.34375 56.5625,53.75 33.8125,31 z"
     id="path2965" />
  <path
     style="fill:#000000;fill-opacity:1;stroke:none"
     d="M 5.65625 0 L 4.25 1.4375 L 23.8125 21 L 26.65625 21 L 5.65625 0 z "
     id="rect2815" />
  <path
     style="fill:#000000;fill-opacity:1;stroke:none"
     d="M 25.5,25 C 22,25 22,29 22,29 l 2,0 c 0,0 0,-2 1.5,-2 1.5,0 1.5,2 4,2 3.5,0 3.5,-4 3.5,-4 l -2,0 c 0,0 0,2 -1.5,2 -1.5,0 -1.5,-2 -4,-2 z"
     id="path2958" />
</svg>
