<?xml version="1.0" encoding="UTF-8" standalone="no"?>
<svg
   xmlns:dc="http://purl.org/dc/elements/1.1/"
   xmlns:cc="http://creativecommons.org/ns#"
   xmlns:rdf="http://www.w3.org/1999/02/22-rdf-syntax-ns#"
   xmlns:svg="http://www.w3.org/2000/svg"
   xmlns="http://www.w3.org/2000/svg"
   xmlns:sodipodi="http://sodipodi.sourceforge.net/DTD/sodipodi-0.dtd"
   xmlns:inkscape="http://www.inkscape.org/namespaces/inkscape"
   version="1.0"
   width="35"
   height="31"
   id="svg2"
   inkscape:version="0.47 r22583"
   sodipodi:docname="02-08-007-01-01-03.svg">
  <defs
     id="defs16">
    <inkscape:perspective
       sodipodi:type="inkscape:persp3d"
       inkscape:vp_x="0 : 23 : 1"
       inkscape:vp_y="0 : 1000 : 0"
       inkscape:vp_z="36 : 23 : 1"
       inkscape:persp3d-origin="18 : 15.333333 : 1"
       id="perspective18" />
  </defs>
  <sodipodi:namedview
     pagecolor="#ffffff"
     bordercolor="#666666"
     borderopacity="1"
     objecttolerance="10"
     gridtolerance="10"
     guidetolerance="10"
     inkscape:pageopacity="0"
     inkscape:pageshadow="2"
     inkscape:window-width="964"
     inkscape:window-height="721"
     id="namedview14"
     showgrid="true"
     inkscape:zoom="15.258065"
     inkscape:cx="17.5"
     inkscape:cy="15.5"
     inkscape:window-x="365"
     inkscape:window-y="0"
     inkscape:window-maximized="0"
     inkscape:current-layer="svg2"
     showborder="true">
    <inkscape:grid
       type="xygrid"
       id="grid2824"
       empspacing="5"
       visible="true"
       enabled="true"
       snapvisiblegridlinesonly="true" />
  </sodipodi:namedview>
  <metadata
     id="metadata4">
Valerie Sutton's pixel definition of the
ISWA 2010 symbol ID 04-01-003-01-01-01
transformed by Stephen E Slevinski Jr
using line and fill polygon tracing
<rdf:RDF>
  <cc:Work
     rdf:about="">
    <dc:format>image/svg+xml</dc:format>
    <dc:type
       rdf:resource="http://purl.org/dc/dcmitype/StillImage" />
    <dc:title></dc:title>
  </cc:Work>
</rdf:RDF>
</metadata>
  <path
     style="fill:#000000;fill-opacity:1;stroke:none"
     d="m 31.949748,14.100505 c 1.562097,1.562097 1.562097,4.094757 0,5.656854 l -0.707107,0.707107 -0.707107,-0.707107 0.707107,-0.707106 c 1.171573,-1.171573 1.171573,-3.071068 0,-4.242641 l -0.707107,-0.707107 c -1.171572,-1.171572 -3.38765,-0.85499 -4.949747,0.707107 l -6.363962,6.363961 c -2.321397,2.321398 -3.535533,9.192388 -3.535533,9.192388 L 8.615224,23.292893 c 0,0 6.870989,-1.214135 9.192387,-3.535534 l 6.363961,-6.363961 c 1.952623,-1.952621 5.118447,-1.952621 7.071069,0 l 0.707107,0.707107 z"
     id="path2825" />
  <path
     style="fill:#000000;fill-opacity:1;stroke:none"
     d="M 34.778175,24 27,24 27,16.221826 34.778175,24 z"
     id="path2839" />
  <path
     style="fill:#000000;fill-opacity:1;stroke:none"
     d="M 29.121321,29.656854 28.414214,30.363961 0.12994201,2.0796899 0.83705001,1.3725832 29.121321,29.656854 z"
     id="rect3138" />
  <path
     id="path3124"
     d="m 20.091882,2.1507579 c -1.562096,-1.5620971 -4.094756,-1.5620971 -5.656855,0 l -4.24264,4.2426407 C 8.397332,8.1884535 3.121319,9.2218258 3.121319,9.2218258 L 8.778174,14.87868 c 0,0 1.033372,-5.2760129 2.828427,-7.0710678 l 4.242641,-4.2426407 c 0.781049,-0.7810486 2.047379,-0.7810482 2.828427,0 0.781047,0.7810482 0.781048,2.0473785 0,2.8284271 l -2.828427,2.8284272 1.414214,1.4142132 2.828426,-2.8284268 c 1.562097,-1.5620972 1.562097,-4.0947571 0,-5.6568543 z"
     style="fill:#000000;fill-opacity:1;stroke:none" />
  <path
     id="path3126"
     d="M 1,7.1005054 10.899495,17 1,17 1,7.1005054 z"
     style="fill:#000000;fill-opacity:1;stroke:none" />
</svg>
