<?xml version="1.0" encoding="UTF-8" standalone="no"?>
<svg
   xmlns:dc="http://purl.org/dc/elements/1.1/"
   xmlns:cc="http://creativecommons.org/ns#"
   xmlns:rdf="http://www.w3.org/1999/02/22-rdf-syntax-ns#"
   xmlns:svg="http://www.w3.org/2000/svg"
   xmlns="http://www.w3.org/2000/svg"
   xmlns:sodipodi="http://sodipodi.sourceforge.net/DTD/sodipodi-0.dtd"
   xmlns:inkscape="http://www.inkscape.org/namespaces/inkscape"
   version="1.0"
   width="26"
   height="24"
   id="svg2"
   inkscape:version="0.47 r22583"
   sodipodi:docname="02-08-007-01-04-02.svg">
  <defs
     id="defs16">
    <inkscape:perspective
       sodipodi:type="inkscape:persp3d"
       inkscape:vp_x="0 : 23 : 1"
       inkscape:vp_y="0 : 1000 : 0"
       inkscape:vp_z="36 : 23 : 1"
       inkscape:persp3d-origin="18 : 15.333333 : 1"
       id="perspective18" />
  </defs>
  <sodipodi:namedview
     pagecolor="#ffffff"
     bordercolor="#666666"
     borderopacity="1"
     objecttolerance="10"
     gridtolerance="10"
     guidetolerance="10"
     inkscape:pageopacity="0"
     inkscape:pageshadow="2"
     inkscape:window-width="964"
     inkscape:window-height="721"
     id="namedview14"
     showgrid="true"
     inkscape:zoom="16.010846"
     inkscape:cx="13.004285"
     inkscape:cy="12.003955"
     inkscape:window-x="365"
     inkscape:window-y="0"
     inkscape:window-maximized="0"
     inkscape:current-layer="svg2"
     showborder="true">
    <inkscape:grid
       type="xygrid"
       id="grid2824"
       empspacing="5"
       visible="true"
       enabled="true"
       snapvisiblegridlinesonly="true" />
  </sodipodi:namedview>
  <metadata
     id="metadata4">
Valerie Sutton's pixel definition of the
ISWA 2010 symbol ID 04-01-003-01-01-01
transformed by Stephen E Slevinski Jr
using line and fill polygon tracing
<rdf:RDF>
  <cc:Work
     rdf:about="">
    <dc:format>image/svg+xml</dc:format>
    <dc:type
       rdf:resource="http://purl.org/dc/dcmitype/StillImage" />
    <dc:title></dc:title>
  </cc:Work>
</rdf:RDF>
</metadata>
  <path
     style="fill:#000000;fill-opacity:1;stroke:none"
     d="M 25.949748,15 21,15 21,10.050253 25.949748,15 z"
     id="path2839" />
  <path
     style="fill:#000000;fill-opacity:1;stroke:none"
     d="m 23.474874,8.282486 c 1.248231,1.2482309 1.363061,3.202952 0.331456,4.574097 L 23.077126,12.127379 C 23.71783,11.157 23.622039,9.8438648 22.767767,8.9895928 c -0.976311,-0.9763108 -2.559223,-0.9763108 -3.535534,0 l -6.717514,6.7175142 c -2.013841,2.013841 -3.5355342,7.778175 -3.5355342,7.778175 L 4.0294373,18.535534 c 0,0 5.7643338,-1.521693 7.7781747,-3.535534 l 6.717514,-6.717514 c 1.366835,-1.366835 3.582913,-1.3668353 4.949748,0 z"
     id="path2830" />
  <path
     id="path3122"
     d="M 0,8.6360394 0,15 6.3639611,15 0,8.6360394 z"
     style="fill:#000000;fill-opacity:1;stroke:none" />
  <path
     id="path3124"
     d="m 16.970562,1.5649716 c -1.171572,-1.1715727 -3.071067,-1.1715729 -4.24264,0 L 5.6568543,8.6360394 C 4.6027617,9.690132 1.4142136,10.050253 1.4142136,10.050253 l 3.5355339,3.535534 c 0,0 0.360121,-3.188548 1.4142136,-4.2426408 L 13.435028,2.2720784 c 0.781049,-0.7810486 2.047379,-0.781049 2.828428,0 0.781048,0.7810482 0.781048,2.0473785 0,2.8284271 l -2.828428,2.8284271 0.707107,0.7071068 2.828427,-2.8284271 c 1.171573,-1.1715729 1.171573,-3.071068 0,-4.2426407 z"
     style="fill:#000000;fill-opacity:1;stroke:none" />
</svg>
