<?xml version="1.0" encoding="UTF-8" standalone="no"?>
<svg
   xmlns:dc="http://purl.org/dc/elements/1.1/"
   xmlns:cc="http://creativecommons.org/ns#"
   xmlns:rdf="http://www.w3.org/1999/02/22-rdf-syntax-ns#"
   xmlns:svg="http://www.w3.org/2000/svg"
   xmlns="http://www.w3.org/2000/svg"
   xmlns:sodipodi="http://sodipodi.sourceforge.net/DTD/sodipodi-0.dtd"
   xmlns:inkscape="http://www.inkscape.org/namespaces/inkscape"
   version="1.0"
   width="28"
   height="22"
   id="svg2"
   inkscape:version="0.47 r22583"
   sodipodi:docname="02-08-007-01-06-06.svg">
  <defs
     id="defs16">
    <inkscape:perspective
       sodipodi:type="inkscape:persp3d"
       inkscape:vp_x="0 : 23 : 1"
       inkscape:vp_y="0 : 1000 : 0"
       inkscape:vp_z="36 : 23 : 1"
       inkscape:persp3d-origin="18 : 15.333333 : 1"
       id="perspective18" />
  </defs>
  <sodipodi:namedview
     pagecolor="#ffffff"
     bordercolor="#666666"
     borderopacity="1"
     objecttolerance="10"
     gridtolerance="10"
     guidetolerance="10"
     inkscape:pageopacity="0"
     inkscape:pageshadow="2"
     inkscape:window-width="964"
     inkscape:window-height="721"
     id="namedview14"
     showgrid="true"
     inkscape:zoom="16.300086"
     inkscape:cx="14"
     inkscape:cy="11"
     inkscape:window-x="365"
     inkscape:window-y="0"
     inkscape:window-maximized="0"
     inkscape:current-layer="svg2"
     showborder="true">
    <inkscape:grid
       type="xygrid"
       id="grid2824"
       empspacing="5"
       visible="true"
       enabled="true"
       snapvisiblegridlinesonly="true" />
  </sodipodi:namedview>
  <metadata
     id="metadata4">
Valerie Sutton's pixel definition of the
ISWA 2010 symbol ID 04-01-003-01-01-01
transformed by Stephen E Slevinski Jr
using line and fill polygon tracing
<rdf:RDF>
  <cc:Work
     rdf:about="">
    <dc:format>image/svg+xml</dc:format>
    <dc:type
       rdf:resource="http://purl.org/dc/dcmitype/StillImage" />
    <dc:title></dc:title>
  </cc:Work>
</rdf:RDF>
</metadata>
  <path
     style="fill:#000000;fill-opacity:1;stroke:none"
     d="M 6.0502525,8 11,8 l 0,-4.9497475 -0.707107,0.7071068 0,3.5355339 -3.5355337,0 L 6.0502525,8 z"
     id="path2839" />
  <path
     style="fill:#000000;fill-opacity:1;stroke:none"
     d="M 8.5251262,1.2824856 C 7.2768954,2.5307164 7.1620646,4.4854373 8.1936699,5.8565826 L 8.9228738,5.1273787 C 8.2821701,4.1569992 8.3779611,2.8438643 9.232233,1.9895923 c 0.976311,-0.9763108 2.559223,-0.9763107 3.535534,0 l 6.717514,6.7175145 c 2.013841,2.0138402 3.535534,7.7781742 3.535534,7.7781742 l 4.949747,-4.949747 c 0,0 -5.764333,-1.521693 -7.778174,-3.535534 L 13.474874,1.2824856 c -1.366835,-1.36683504 -3.5829125,-1.36683532 -4.9497478,0 z"
     id="path2830" />
  <path
     style="fill:#000000;fill-opacity:1;stroke:none"
     d="M 11.63604,22 18,22 l 0,-6.363961 -0.707106,0.707107 0,4.949748 -4.949747,0 L 11.63604,22 z"
     id="path3122" />
  <path
     id="path3124"
     d="m 1.029438,8.5649718 c 1.1715727,-1.1715727 3.0710679,-1.1715729 4.2426407,0 l 7.0710673,7.0710672 c 1.054093,1.054093 4.242641,1.414214 4.242641,1.414214 l -3.535534,3.535534 c 0,0 -0.360121,-3.188548 -1.414213,-4.242641 L 4.5649719,9.2720786 c -0.7810485,-0.7810486 -2.0473781,-0.781049 -2.8284271,0 -0.7810482,0.7810484 -0.7810486,2.0473784 0,2.8284264 L 4.5649719,14.928933 3.8578652,15.636039 1.029438,12.807612 c -1.1715728,-1.171573 -1.1715727,-3.0710675 0,-4.2426402 z"
     style="fill:#000000;fill-opacity:1;stroke:none" />
</svg>
