<?xml version="1.0" encoding="UTF-8" standalone="no"?>
<svg
   xmlns:dc="http://purl.org/dc/elements/1.1/"
   xmlns:cc="http://creativecommons.org/ns#"
   xmlns:rdf="http://www.w3.org/1999/02/22-rdf-syntax-ns#"
   xmlns:svg="http://www.w3.org/2000/svg"
   xmlns="http://www.w3.org/2000/svg"
   xmlns:sodipodi="http://sodipodi.sourceforge.net/DTD/sodipodi-0.dtd"
   xmlns:inkscape="http://www.inkscape.org/namespaces/inkscape"
   version="1.0"
   width="43"
   height="24"
   id="svg2"
   inkscape:version="0.47 r22583"
   sodipodi:docname="02-08-007-01-01-07.svg">
  <defs
     id="defs16">
    <inkscape:perspective
       sodipodi:type="inkscape:persp3d"
       inkscape:vp_x="0 : 23 : 1"
       inkscape:vp_y="0 : 1000 : 0"
       inkscape:vp_z="36 : 23 : 1"
       inkscape:persp3d-origin="18 : 15.333333 : 1"
       id="perspective18" />
  </defs>
  <sodipodi:namedview
     pagecolor="#ffffff"
     bordercolor="#666666"
     borderopacity="1"
     objecttolerance="10"
     gridtolerance="10"
     guidetolerance="10"
     inkscape:pageopacity="0"
     inkscape:pageshadow="2"
     inkscape:window-width="964"
     inkscape:window-height="721"
     id="namedview14"
     showgrid="true"
     inkscape:zoom="16.010846"
     inkscape:cx="21.507086"
     inkscape:cy="12.003955"
     inkscape:window-x="365"
     inkscape:window-y="0"
     inkscape:window-maximized="0"
     inkscape:current-layer="svg2"
     showborder="true">
    <inkscape:grid
       type="xygrid"
       id="grid2824"
       empspacing="5"
       visible="true"
       enabled="true"
       snapvisiblegridlinesonly="true" />
  </sodipodi:namedview>
  <metadata
     id="metadata4">
Valerie Sutton's pixel definition of the
ISWA 2010 symbol ID 04-01-003-01-01-01
transformed by Stephen E Slevinski Jr
using line and fill polygon tracing
<rdf:RDF>
  <cc:Work
     rdf:about="">
    <dc:format>image/svg+xml</dc:format>
    <dc:type
       rdf:resource="http://purl.org/dc/dcmitype/StillImage" />
    <dc:title></dc:title>
  </cc:Work>
</rdf:RDF>
</metadata>
  <path
     style="fill:#000000;fill-opacity:1;stroke:none"
     d="m 16,0 c 2.209139,0 4,1.790861 4,4 l 0,1 -1,0 0,-1 C 19,2.3431458 17.656854,1 16,1 l -1,0 c -1.656854,0 -3,1.790861 -3,4 l 0,9 c 0,3.282953 4,9 4,9 L 6,23 c 0,0 4,-5.717047 4,-9 l 0,-9 c 0,-2.7614237 2.238576,-5 5,-5 l 1,0 z"
     id="path2825" />
  <path
     style="fill:#000000;fill-opacity:1;stroke:none"
     d="M 14 5 L 19.5 10.5 L 25 5 L 23 5 L 19.5 8.5 L 16 5 L 14 5 z "
     id="path2839" />
  <path
     style="fill:#000000;fill-opacity:1;stroke:none"
     d="M 0 13 L 0 14 L 9 14 L 9 13 L 0 13 z M 13 13 L 13 14 L 26 14 L 26 13 L 13 13 z M 32 13 L 32 14 L 43 14 L 43 13 L 32 13 z "
     id="rect3138" />
  <path
     id="path3124"
     d="m 32,0 c -2.209139,0 -4,1.790861 -4,4 l 0,6 c 0,2.538591 -3,7 -3,7 l 8,0 c 0,0 -3,-4.461409 -3,-7 l 0,-6 c 0,-1.1045695 0.895431,-2 2,-2 1.104569,0 2,0.8954305 2,2 l 0,4 2,0 0,-4 C 36,1.790861 34.209139,0 32,0 z"
     style="fill:#000000;fill-opacity:1;stroke:none" />
  <path
     style="fill:#000000;fill-opacity:1;stroke:none"
     d="M 22 17 L 29 24 L 36 17 L 34 17 L 29 22 L 24 17 L 22 17 z "
     id="path3126" />
</svg>
