<?xml version="1.0" encoding="UTF-8" standalone="no"?>
<svg
   xmlns:dc="http://purl.org/dc/elements/1.1/"
   xmlns:cc="http://creativecommons.org/ns#"
   xmlns:rdf="http://www.w3.org/1999/02/22-rdf-syntax-ns#"
   xmlns:svg="http://www.w3.org/2000/svg"
   xmlns="http://www.w3.org/2000/svg"
   xmlns:sodipodi="http://sodipodi.sourceforge.net/DTD/sodipodi-0.dtd"
   xmlns:inkscape="http://www.inkscape.org/namespaces/inkscape"
   version="1.0"
   width="26"
   height="24"
   id="svg2"
   inkscape:version="0.47 r22583"
   sodipodi:docname="02-08-007-01-04-08.svg">
  <defs
     id="defs16">
    <inkscape:perspective
       sodipodi:type="inkscape:persp3d"
       inkscape:vp_x="0 : 23 : 1"
       inkscape:vp_y="0 : 1000 : 0"
       inkscape:vp_z="36 : 23 : 1"
       inkscape:persp3d-origin="18 : 15.333333 : 1"
       id="perspective18" />
  </defs>
  <sodipodi:namedview
     pagecolor="#ffffff"
     bordercolor="#666666"
     borderopacity="1"
     objecttolerance="10"
     gridtolerance="10"
     guidetolerance="10"
     inkscape:pageopacity="0"
     inkscape:pageshadow="2"
     inkscape:window-width="964"
     inkscape:window-height="721"
     id="namedview14"
     showgrid="true"
     inkscape:zoom="16.010846"
     inkscape:cx="13.004285"
     inkscape:cy="12.003955"
     inkscape:window-x="365"
     inkscape:window-y="0"
     inkscape:window-maximized="0"
     inkscape:current-layer="svg2"
     showborder="true">
    <inkscape:grid
       type="xygrid"
       id="grid2824"
       empspacing="5"
       visible="true"
       enabled="true"
       snapvisiblegridlinesonly="true" />
  </sodipodi:namedview>
  <metadata
     id="metadata4">
Valerie Sutton's pixel definition of the
ISWA 2010 symbol ID 04-01-003-01-01-01
transformed by Stephen E Slevinski Jr
using line and fill polygon tracing
<rdf:RDF>
  <cc:Work
     rdf:about="">
    <dc:format>image/svg+xml</dc:format>
    <dc:type
       rdf:resource="http://purl.org/dc/dcmitype/StillImage" />
    <dc:title></dc:title>
  </cc:Work>
</rdf:RDF>
</metadata>
  <path
     style="fill:#000000;fill-opacity:1;stroke:none"
     d="M 0.050252,15 5,15 5,10.050253 0.050252,15 z"
     id="path2839" />
  <path
     style="fill:#000000;fill-opacity:1;stroke:none"
     d="M 2.525126,8.282486 C 1.276895,9.5307169 1.162065,11.485438 2.19367,12.856583 L 2.922874,12.127379 C 2.28217,11.157 2.377961,9.8438648 3.232233,8.9895928 c 0.976311,-0.9763108 2.559223,-0.9763108 3.535534,0 l 6.717514,6.7175142 c 2.013841,2.013841 3.535534,7.778175 3.535534,7.778175 l 4.949748,-4.949748 c 0,0 -5.764334,-1.521693 -7.778175,-3.535534 L 7.474874,8.282486 c -1.366835,-1.366835 -3.582913,-1.3668353 -4.949748,0 z"
     id="path2830" />
  <path
     id="path3122"
     d="M 26,8.6360394 26,15 19.636039,15 26,8.6360394 z"
     style="fill:#000000;fill-opacity:1;stroke:none" />
  <path
     id="path3124"
     d="m 9.029438,1.5649716 c 1.171572,-1.1715727 3.071067,-1.1715729 4.24264,0 l 7.071068,7.0710678 c 1.054092,1.0540926 4.24264,1.4142136 4.24264,1.4142136 l -3.535534,3.535534 c 0,0 -0.360121,-3.188548 -1.414213,-4.2426408 L 12.564972,2.2720784 c -0.781049,-0.7810486 -2.047379,-0.781049 -2.828428,0 -0.781048,0.7810482 -0.781048,2.0473785 0,2.8284271 L 12.564972,7.9289326 11.857865,8.6360394 9.029438,5.8076123 c -1.171573,-1.1715729 -1.171573,-3.071068 0,-4.2426407 z"
     style="fill:#000000;fill-opacity:1;stroke:none" />
</svg>
