<?xml version="1.0" encoding="UTF-8" standalone="no"?>
<svg
   xmlns:dc="http://purl.org/dc/elements/1.1/"
   xmlns:cc="http://creativecommons.org/ns#"
   xmlns:rdf="http://www.w3.org/1999/02/22-rdf-syntax-ns#"
   xmlns:svg="http://www.w3.org/2000/svg"
   xmlns="http://www.w3.org/2000/svg"
   xmlns:sodipodi="http://sodipodi.sourceforge.net/DTD/sodipodi-0.dtd"
   xmlns:inkscape="http://www.inkscape.org/namespaces/inkscape"
   version="1.0"
   width="35"
   height="31"
   id="svg2"
   inkscape:version="0.47 r22583"
   sodipodi:docname="02-08-007-01-03-02.svg">
  <defs
     id="defs16">
    <inkscape:perspective
       sodipodi:type="inkscape:persp3d"
       inkscape:vp_x="0 : 23 : 1"
       inkscape:vp_y="0 : 1000 : 0"
       inkscape:vp_z="36 : 23 : 1"
       inkscape:persp3d-origin="18 : 15.333333 : 1"
       id="perspective18" />
  </defs>
  <sodipodi:namedview
     pagecolor="#ffffff"
     bordercolor="#666666"
     borderopacity="1"
     objecttolerance="10"
     gridtolerance="10"
     guidetolerance="10"
     inkscape:pageopacity="0"
     inkscape:pageshadow="2"
     inkscape:window-width="964"
     inkscape:window-height="721"
     id="namedview14"
     showgrid="true"
     inkscape:zoom="15.258065"
     inkscape:cx="17.5"
     inkscape:cy="15.5"
     inkscape:window-x="365"
     inkscape:window-y="0"
     inkscape:window-maximized="0"
     inkscape:current-layer="svg2"
     showborder="true">
    <inkscape:grid
       type="xygrid"
       id="grid2824"
       empspacing="5"
       visible="true"
       enabled="true"
       snapvisiblegridlinesonly="true" />
  </sodipodi:namedview>
  <metadata
     id="metadata4">
Valerie Sutton's pixel definition of the
ISWA 2010 symbol ID 04-01-003-01-01-01
transformed by Stephen E Slevinski Jr
using line and fill polygon tracing
<rdf:RDF>
  <cc:Work
     rdf:about="">
    <dc:format>image/svg+xml</dc:format>
    <dc:type
       rdf:resource="http://purl.org/dc/dcmitype/StillImage" />
    <dc:title></dc:title>
  </cc:Work>
</rdf:RDF>
</metadata>
  <path
     style="fill:#000000;fill-opacity:1;stroke:none"
     d="m 3.0502525,14.100505 c -1.5620971,1.562097 -1.5620971,4.094757 0,5.656854 l 0.7071068,0.707107 0.7071068,-0.707107 -0.7071068,-0.707106 c -1.1715728,-1.171573 -1.1715727,-3.071068 0,-4.242641 l 0.7071068,-0.707107 c 1.1715727,-1.171572 3.3876503,-0.85499 4.9497474,0.707107 l 6.3639615,6.363961 c 2.321397,2.321398 3.535533,9.192388 3.535533,9.192388 l 7.071068,-7.071068 c 0,0 -6.870989,-1.214135 -9.192387,-3.535534 l -6.363961,-6.363961 c -1.9526223,-1.952621 -5.118447,-1.952621 -7.0710687,0 l -0.7071068,0.707107 z"
     id="path2825" />
  <path
     style="fill:#000000;fill-opacity:1;stroke:none"
     d="M 0.22182541,24 8,24 l 0,-7.778174 -1.4142136,1.414213 0,4.949748 -4.9497474,0 L 0.22182541,24 z"
     id="path2839" />
  <path
     style="fill:#000000;fill-opacity:1;stroke:none"
     d="M 5.8786797,29.656854 6.5857864,30.363961 34.870058,2.0796899 34.16295,1.3725832 5.8786797,29.656854 z"
     id="rect3138" />
  <path
     id="path3124"
     d="m 14.908118,2.1507579 c 1.562096,-1.5620971 4.094756,-1.5620971 5.656855,0 l 4.24264,4.2426407 c 1.795055,1.7950549 7.071068,2.8284272 7.071068,2.8284272 L 26.221826,14.87868 c 0,0 -1.033372,-5.2760129 -2.828427,-7.0710678 L 19.150758,3.5649715 c -0.781049,-0.7810486 -2.047379,-0.7810482 -2.828427,0 -0.781047,0.7810482 -0.781048,2.0473785 0,2.8284271 l 2.828427,2.8284272 -1.414214,1.4142132 -2.828426,-2.8284268 c -1.562097,-1.5620972 -1.562097,-4.0947571 0,-5.6568543 z"
     style="fill:#000000;fill-opacity:1;stroke:none" />
  <path
     style="fill:#000000;fill-opacity:1;stroke:none"
     d="M 24.100505,17 34,17 34,7.1005054 32.585788,8.514719 l 0,7.071068 -7.071069,0 L 24.100505,17 z"
     id="path3126" />
</svg>
