<?xml version="1.0" encoding="UTF-8" standalone="no"?>
<svg
   xmlns:dc="http://purl.org/dc/elements/1.1/"
   xmlns:cc="http://creativecommons.org/ns#"
   xmlns:rdf="http://www.w3.org/1999/02/22-rdf-syntax-ns#"
   xmlns:svg="http://www.w3.org/2000/svg"
   xmlns="http://www.w3.org/2000/svg"
   xmlns:sodipodi="http://sodipodi.sourceforge.net/DTD/sodipodi-0.dtd"
   xmlns:inkscape="http://www.inkscape.org/namespaces/inkscape"
   version="1.0"
   width="20"
   height="22"
   id="svg2"
   inkscape:version="0.47 r22583"
   sodipodi:docname="02-08-007-01-05-05.svg">
  <defs
     id="defs16">
    <inkscape:perspective
       sodipodi:type="inkscape:persp3d"
       inkscape:vp_x="0 : 23 : 1"
       inkscape:vp_y="0 : 1000 : 0"
       inkscape:vp_z="36 : 23 : 1"
       inkscape:persp3d-origin="18 : 15.333333 : 1"
       id="perspective18" />
  </defs>
  <sodipodi:namedview
     pagecolor="#ffffff"
     bordercolor="#666666"
     borderopacity="1"
     objecttolerance="10"
     gridtolerance="10"
     guidetolerance="10"
     inkscape:pageopacity="0"
     inkscape:pageshadow="2"
     inkscape:window-width="964"
     inkscape:window-height="721"
     id="namedview14"
     showgrid="true"
     inkscape:zoom="16.300086"
     inkscape:cx="10"
     inkscape:cy="11"
     inkscape:window-x="365"
     inkscape:window-y="0"
     inkscape:window-maximized="0"
     inkscape:current-layer="svg2"
     showborder="true">
    <inkscape:grid
       type="xygrid"
       id="grid2824"
       empspacing="5"
       visible="true"
       enabled="true"
       snapvisiblegridlinesonly="true" />
  </sodipodi:namedview>
  <metadata
     id="metadata4">
Valerie Sutton's pixel definition of the
ISWA 2010 symbol ID 04-01-003-01-01-01
transformed by Stephen E Slevinski Jr
using line and fill polygon tracing
<rdf:RDF>
  <cc:Work
     rdf:about="">
    <dc:format>image/svg+xml</dc:format>
    <dc:type
       rdf:resource="http://purl.org/dc/dcmitype/StillImage" />
    <dc:title></dc:title>
  </cc:Work>
</rdf:RDF>
</metadata>
  <path
     style="fill:#000000;fill-opacity:1;stroke:none"
     d="M 7,3 10.5,6.5 14,3 7,3 z m 1.6875,0.6875 3.625,0 L 10.5,5.5 8.6875,3.6875 z"
     id="path2839" />
  <path
     style="fill:#000000;fill-opacity:1;stroke:none"
     d="M 13.5,0 C 11.734735,0 10.271341,1.3009988 10.03125,3 L 11.0625,3 C 11.295616,1.8607922 12.291877,1 13.5,1 14.880712,1 16,2.1192881 16,3.5 l 0,9.5 c 0,2.848001 -3,8 -3,8 l 7,0 c 0,0 -3,-5.151999 -3,-8 L 17,3.5 C 17,1.5670034 15.432997,0 13.5,0 z"
     id="path2830" />
  <path
     style="fill:#000000;fill-opacity:1;stroke:none"
     d="M 1,17 5.5,21.5 10,17 1,17 z m 1.6875,0.6875 5.625,0 L 5.5,20.5 2.6875,17.6875 z"
     id="path3122" />
  <path
     id="path3124"
     d="m 3,0 c 1.656854,0 3,1.3431458 3,3 l 0,10 c 0,1.490712 2,4 2,4 l -5,0 c 0,0 2,-2.509288 2,-4 L 5,3 C 5,1.8954305 4.10457,1 3,1 1.895431,1 1,1.8954305 1,3 L 1,7 0,7 0,3 C 0,1.3431458 1.343146,0 3,0 z"
     style="fill:#000000;fill-opacity:1;stroke:none" />
  <path
     style="fill:#ffffff;fill-opacity:1;stroke:none"
     d="M 8.6875,3.6875 10.5,5.5 l 1.8125,-1.8125 -3.625,0 z"
     id="path2994" />
  <path
     style="fill:#ffffff;fill-opacity:1;stroke:none"
     d="M 2.6875,17.6875 5.5,20.5 l 2.8125,-2.8125 -5.625,0 z"
     id="path2996" />
</svg>
