<?xml version="1.0" encoding="UTF-8" standalone="no"?>
<svg
   xmlns:dc="http://purl.org/dc/elements/1.1/"
   xmlns:cc="http://creativecommons.org/ns#"
   xmlns:rdf="http://www.w3.org/1999/02/22-rdf-syntax-ns#"
   xmlns:svg="http://www.w3.org/2000/svg"
   xmlns="http://www.w3.org/2000/svg"
   xmlns:sodipodi="http://sodipodi.sourceforge.net/DTD/sodipodi-0.dtd"
   xmlns:inkscape="http://www.inkscape.org/namespaces/inkscape"
   version="1.0"
   width="37"
   height="33"
   id="svg2"
   inkscape:version="0.47 r22583"
   sodipodi:docname="02-08-007-01-02-06.svg">
  <defs
     id="defs16">
    <inkscape:perspective
       sodipodi:type="inkscape:persp3d"
       inkscape:vp_x="0 : 23 : 1"
       inkscape:vp_y="0 : 1000 : 0"
       inkscape:vp_z="36 : 23 : 1"
       inkscape:persp3d-origin="18 : 15.333333 : 1"
       id="perspective18" />
  </defs>
  <sodipodi:namedview
     pagecolor="#ffffff"
     bordercolor="#666666"
     borderopacity="1"
     objecttolerance="10"
     gridtolerance="10"
     guidetolerance="10"
     inkscape:pageopacity="0"
     inkscape:pageshadow="2"
     inkscape:window-width="964"
     inkscape:window-height="721"
     id="namedview14"
     showgrid="true"
     inkscape:zoom="14.333333"
     inkscape:cx="18.5"
     inkscape:cy="16.5"
     inkscape:window-x="365"
     inkscape:window-y="0"
     inkscape:window-maximized="0"
     inkscape:current-layer="svg2"
     showborder="true">
    <inkscape:grid
       type="xygrid"
       id="grid2824"
       empspacing="5"
       visible="true"
       enabled="true"
       snapvisiblegridlinesonly="true" />
  </sodipodi:namedview>
  <metadata
     id="metadata4">
Valerie Sutton's pixel definition of the
ISWA 2010 symbol ID 04-01-003-01-01-01
transformed by Stephen E Slevinski Jr
using line and fill polygon tracing
<rdf:RDF>
  <cc:Work
     rdf:about="">
    <dc:format>image/svg+xml</dc:format>
    <dc:type
       rdf:resource="http://purl.org/dc/dcmitype/StillImage" />
    <dc:title></dc:title>
  </cc:Work>
</rdf:RDF>
</metadata>
  <path
     style="fill:#000000;fill-opacity:1;stroke:none"
     d="m 23.949747,3.100505 c 1.562097,1.5620972 1.562097,4.0947571 0,5.6568543 L 23.24264,9.4644661 22.535534,8.7573593 23.24264,8.0502525 c 1.171573,-1.1715728 1.171573,-3.071068 0,-4.2426407 L 22.535534,3.100505 C 21.363961,1.9289323 19.147883,2.2455146 17.585786,3.8076118 L 11.221825,10.171573 C 8.900427,12.492971 7.6862911,19.363961 7.6862911,19.363961 L 0.6152233,12.292893 c 0,0 6.8709898,-1.214135 9.1923877,-3.5355337 l 6.363961,-6.3639611 c 1.952622,-1.9526214 5.118447,-1.9526216 7.071068,0 l 0.707107,0.7071068 z"
     id="path2825" />
  <path
     style="fill:#000000;fill-opacity:1;stroke:none"
     d="M 19,5.2218254 19,13 26.778174,13 19,5.2218254 z m 1.016466,2.4306795 4.331029,4.3310291 -4.331029,0 0,-4.3310291 z"
     id="path2839" />
  <path
     style="fill:#000000;fill-opacity:1;stroke:none"
     d="M 3.4436504,0.9791847 2.7365436,1.6862915 33.142135,32.091883 33.849242,31.384777 3.4436504,0.9791847 z"
     id="rect3138" />
  <path
     id="path3124"
     d="m 35.091884,14.150758 c -1.562098,-1.562098 -4.094758,-1.562098 -5.656855,0 l -4.24264,4.242641 c -1.795055,1.795054 -7.071068,2.828427 -7.071068,2.828427 l 5.656854,5.656854 c 0,0 1.033372,-5.276013 2.828427,-7.071068 l 4.242641,-4.242641 c 0.781048,-0.781048 2.047379,-0.781048 2.828427,0 0.781048,0.781049 0.781049,2.047379 0,2.828428 l -2.828427,2.828427 1.414213,1.414213 2.828428,-2.828427 c 1.562097,-1.562097 1.562097,-4.094757 0,-5.656854 z"
     style="fill:#000000;fill-opacity:1;stroke:none" />
  <path
     style="fill:#000000;fill-opacity:1;stroke:none"
     d="M 16,19.100505 16,29 25.899495,29 16,19.100505 z m 1.016466,2.43068 6.45235,6.452349 -6.474447,0.0221 0.0221,-6.474446 z"
     id="path3126" />
  <path
     style="fill:#ffffff;fill-opacity:1;stroke:none"
     d="m 20.016466,7.6525049 0,4.3310291 4.331029,0 -4.331029,-4.3310291 z"
     id="path3241" />
  <path
     style="fill:#ffffff;fill-opacity:1;stroke:none"
     d="m 17.016466,21.531185 -0.0221,6.474446 6.474447,-0.0221 -6.45235,-6.452349 z"
     id="path3243" />
</svg>
