<?xml version="1.0" encoding="UTF-8" standalone="no"?>
<svg
   xmlns:dc="http://purl.org/dc/elements/1.1/"
   xmlns:cc="http://creativecommons.org/ns#"
   xmlns:rdf="http://www.w3.org/1999/02/22-rdf-syntax-ns#"
   xmlns:svg="http://www.w3.org/2000/svg"
   xmlns="http://www.w3.org/2000/svg"
   xmlns:sodipodi="http://sodipodi.sourceforge.net/DTD/sodipodi-0.dtd"
   xmlns:inkscape="http://www.inkscape.org/namespaces/inkscape"
   version="1.0"
   width="40"
   height="24"
   id="svg2"
   inkscape:version="0.47 r22583"
   sodipodi:docname="02-08-007-01-02-01.svg">
  <defs
     id="defs16">
    <inkscape:perspective
       sodipodi:type="inkscape:persp3d"
       inkscape:vp_x="0 : 23 : 1"
       inkscape:vp_y="0 : 1000 : 0"
       inkscape:vp_z="36 : 23 : 1"
       inkscape:persp3d-origin="18 : 15.333333 : 1"
       id="perspective18" />
  </defs>
  <sodipodi:namedview
     pagecolor="#ffffff"
     bordercolor="#666666"
     borderopacity="1"
     objecttolerance="10"
     gridtolerance="10"
     guidetolerance="10"
     inkscape:pageopacity="0"
     inkscape:pageshadow="2"
     inkscape:window-width="964"
     inkscape:window-height="721"
     id="namedview14"
     showgrid="true"
     inkscape:zoom="16.010846"
     inkscape:cx="20.006592"
     inkscape:cy="12.003955"
     inkscape:window-x="365"
     inkscape:window-y="0"
     inkscape:window-maximized="0"
     inkscape:current-layer="svg2"
     showborder="true">
    <inkscape:grid
       type="xygrid"
       id="grid2824"
       empspacing="5"
       visible="true"
       enabled="true"
       snapvisiblegridlinesonly="true" />
  </sodipodi:namedview>
  <metadata
     id="metadata4">
Valerie Sutton's pixel definition of the
ISWA 2010 symbol ID 04-01-003-01-01-01
transformed by Stephen E Slevinski Jr
using line and fill polygon tracing
<rdf:RDF>
  <cc:Work
     rdf:about="">
    <dc:format>image/svg+xml</dc:format>
    <dc:type
       rdf:resource="http://purl.org/dc/dcmitype/StillImage" />
    <dc:title></dc:title>
  </cc:Work>
</rdf:RDF>
</metadata>
  <path
     style="fill:#000000;fill-opacity:1;stroke:none"
     d="m 31,0 c 2.209139,0 4,1.790861 4,4 l 0,1 -1,0 0,-1 C 34,2.3431458 32.656854,1 31,1 l -1,0 c -1.656854,0 -3,1.790861 -3,4 l 0,9 c 0,3.282953 4,9 4,9 l -10,0 c 0,0 4,-5.717047 4,-9 l 0,-9 c 0,-2.7614237 2.238576,-5 5,-5 l 1,0 z"
     id="path2825" />
  <path
     style="fill:#000000;fill-opacity:1;stroke:none"
     d="M 40,5 34.5,10.5 29,5 40,5 z M 37.5625,6 31.4375,6 34.5,9.0625 37.5625,6 z"
     id="path2839" />
  <path
     style="fill:#000000;fill-opacity:1;stroke:none"
     d="m 40,13 0,1 -12,0 0,-1 12,0 z m -16,0 0,1 -10,0 0,-1 10,0 z m -16,0 0,1 -8,0 0,-1 8,0 z"
     id="rect3138" />
  <path
     id="path3124"
     d="m 14,0 c -2.209139,0 -4,1.790861 -4,4 l 0,6 c 0,2.538591 -3,7 -3,7 l 8,0 c 0,0 -3,-4.461409 -3,-7 l 0,-6 c 0,-1.1045695 0.895431,-2 2,-2 1.104569,0 2,0.8954305 2,2 l 0,4 2,0 0,-4 C 18,1.790861 16.209139,0 14,0 z"
     style="fill:#000000;fill-opacity:1;stroke:none" />
  <path
     style="fill:#000000;fill-opacity:1;stroke:none"
     d="m 18,17 -7,7 -7,-7 14,0 z M 15.5625,18 6.4375,18 11,22.5625 15.5625,18 z"
     id="path3126" />
  <path
     style="fill:#ffffff;fill-opacity:1;stroke:none"
     d="M 37.5625,6 34.5,9.0625 31.4375,6 l 6.125,0 z"
     id="path2918" />
  <path
     style="fill:#ffffff;fill-opacity:1;stroke:none"
     d="M 15.5625,18 11,22.5625 6.4375,18 l 9.125,0 z"
     id="path2920" />
</svg>
