<?xml version="1.0" encoding="UTF-8" standalone="no"?>
<svg
   xmlns:dc="http://purl.org/dc/elements/1.1/"
   xmlns:cc="http://creativecommons.org/ns#"
   xmlns:rdf="http://www.w3.org/1999/02/22-rdf-syntax-ns#"
   xmlns:svg="http://www.w3.org/2000/svg"
   xmlns="http://www.w3.org/2000/svg"
   xmlns:sodipodi="http://sodipodi.sourceforge.net/DTD/sodipodi-0.dtd"
   xmlns:inkscape="http://www.inkscape.org/namespaces/inkscape"
   version="1.0"
   width="28"
   height="22"
   id="svg2"
   inkscape:version="0.47 r22583"
   sodipodi:docname="02-08-007-01-04-07.svg">
  <defs
     id="defs16">
    <inkscape:perspective
       sodipodi:type="inkscape:persp3d"
       inkscape:vp_x="0 : 23 : 1"
       inkscape:vp_y="0 : 1000 : 0"
       inkscape:vp_z="36 : 23 : 1"
       inkscape:persp3d-origin="18 : 15.333333 : 1"
       id="perspective18" />
  </defs>
  <sodipodi:namedview
     pagecolor="#ffffff"
     bordercolor="#666666"
     borderopacity="1"
     objecttolerance="10"
     gridtolerance="10"
     guidetolerance="10"
     inkscape:pageopacity="0"
     inkscape:pageshadow="2"
     inkscape:window-width="964"
     inkscape:window-height="721"
     id="namedview14"
     showgrid="true"
     inkscape:zoom="16.300086"
     inkscape:cx="14"
     inkscape:cy="11"
     inkscape:window-x="365"
     inkscape:window-y="0"
     inkscape:window-maximized="0"
     inkscape:current-layer="svg2"
     showborder="true">
    <inkscape:grid
       type="xygrid"
       id="grid2824"
       empspacing="5"
       visible="true"
       enabled="true"
       snapvisiblegridlinesonly="true" />
  </sodipodi:namedview>
  <metadata
     id="metadata4">
Valerie Sutton's pixel definition of the
ISWA 2010 symbol ID 04-01-003-01-01-01
transformed by Stephen E Slevinski Jr
using line and fill polygon tracing
<rdf:RDF>
  <cc:Work
     rdf:about="">
    <dc:format>image/svg+xml</dc:format>
    <dc:type
       rdf:resource="http://purl.org/dc/dcmitype/StillImage" />
    <dc:title></dc:title>
  </cc:Work>
</rdf:RDF>
</metadata>
  <path
     style="fill:#000000;fill-opacity:1;stroke:none"
     d="M 21.949748,8 17,8 17,3.0502525 21.949748,8 z"
     id="path2839" />
  <path
     style="fill:#000000;fill-opacity:1;stroke:none"
     d="m 19.474874,1.2824856 c 1.248231,1.2482308 1.363062,3.2029517 0.331457,4.574097 L 19.077127,5.1273787 c 0.640703,-0.9703795 0.544912,-2.2835144 -0.30936,-3.1377864 -0.976311,-0.9763108 -2.559223,-0.9763107 -3.535534,0 L 8.5147194,8.7071068 C 6.5008784,10.720947 4.9791854,16.485281 4.9791854,16.485281 L 0.02943844,11.535534 c 0,0 5.76433296,-1.521693 7.77817396,-3.535534 L 14.525126,1.2824856 c 1.366835,-1.36683504 3.582913,-1.36683532 4.949748,0 z"
     id="path2830" />
  <path
     id="path3122"
     d="M 10,15.636039 10,22 16.36396,22 10,15.636039 z"
     style="fill:#000000;fill-opacity:1;stroke:none" />
  <path
     id="path3124"
     d="m 26.970562,8.5649718 c -1.171572,-1.1715727 -3.071067,-1.1715729 -4.24264,0 l -7.071068,7.0710672 c -1.054093,1.054093 -4.242641,1.414214 -4.242641,1.414214 l 3.535534,3.535534 c 0,0 0.360121,-3.188548 1.414213,-4.242641 l 7.071069,-7.0710674 c 0.781048,-0.7810486 2.047378,-0.781049 2.828427,0 0.781048,0.7810484 0.781048,2.0473784 0,2.8284264 l -2.828427,2.828428 0.707106,0.707106 2.828427,-2.828427 c 1.171573,-1.171573 1.171573,-3.0710675 0,-4.2426402 z"
     style="fill:#000000;fill-opacity:1;stroke:none" />
</svg>
