<?xml version="1.0" encoding="UTF-8" standalone="no"?>
<svg
   xmlns:dc="http://purl.org/dc/elements/1.1/"
   xmlns:cc="http://creativecommons.org/ns#"
   xmlns:rdf="http://www.w3.org/1999/02/22-rdf-syntax-ns#"
   xmlns:svg="http://www.w3.org/2000/svg"
   xmlns="http://www.w3.org/2000/svg"
   xmlns:sodipodi="http://sodipodi.sourceforge.net/DTD/sodipodi-0.dtd"
   xmlns:inkscape="http://www.inkscape.org/namespaces/inkscape"
   version="1.0"
   width="30"
   height="28"
   id="svg2"
   inkscape:version="0.47 r22583"
   sodipodi:docname="02-03-017-01-04-01.svg">
  <defs
     id="defs16">
    <inkscape:perspective
       sodipodi:type="inkscape:persp3d"
       inkscape:vp_x="0 : 23 : 1"
       inkscape:vp_y="0 : 1000 : 0"
       inkscape:vp_z="36 : 23 : 1"
       inkscape:persp3d-origin="18 : 15.333333 : 1"
       id="perspective18" />
  </defs>
  <sodipodi:namedview
     pagecolor="#ffffff"
     bordercolor="#666666"
     borderopacity="1"
     objecttolerance="10"
     gridtolerance="10"
     guidetolerance="10"
     inkscape:pageopacity="0"
     inkscape:pageshadow="2"
     inkscape:window-width="964"
     inkscape:window-height="721"
     id="namedview14"
     showgrid="true"
     inkscape:zoom="12.64"
     inkscape:cx="13.94064"
     inkscape:cy="14.676979"
     inkscape:window-x="365"
     inkscape:window-y="0"
     inkscape:window-maximized="0"
     inkscape:current-layer="svg2"
     showborder="true">
    <inkscape:grid
       type="xygrid"
       id="grid2824"
       empspacing="5"
       visible="true"
       enabled="true"
       snapvisiblegridlinesonly="true" />
  </sodipodi:namedview>
  <metadata
     id="metadata4">
Valerie Sutton's pixel definition of the
ISWA 2010 symbol ID 04-01-003-01-01-01
transformed by Stephen E Slevinski Jr
using line and fill polygon tracing
<rdf:RDF>
  <cc:Work
     rdf:about="">
    <dc:format>image/svg+xml</dc:format>
    <dc:type
       rdf:resource="http://purl.org/dc/dcmitype/StillImage" />
    <dc:title></dc:title>
  </cc:Work>
</rdf:RDF>
</metadata>
  <path
     style="fill:#000000;fill-opacity:1;stroke:none"
     d="M 22.928932,2.8284271 2.4228357,23.334524 3.1299425,24.041631 23.636039,3.5355339 22.928932,2.8284271 z"
     id="path2831" />
  <path
     style="fill:#000000;fill-opacity:1;stroke:none"
     d="M 18.993049,5.987844 13.493048,0.4878446 7.993049,5.987844 l 11,0 z"
     id="path2964" />
  <path
     style="fill:#000000;fill-opacity:1;stroke:none"
     d="M 30,9.899495 20.100505,0 30,0 30,9.899495 z"
     id="path2966" />
  <path
     style="fill:#000000;fill-opacity:1;stroke:none"
     d="M 26.464466,6.363961 5.9583696,26.870058 6.6654764,27.577164 27.171573,7.071068 26.464466,6.363961 z"
     id="path2833" />
  <path
     style="fill:#ffffff;fill-opacity:1;stroke:none"
     d="M 23.636039,3.5355339 3.1299425,24.041631 5.9583696,26.870058 26.464466,6.363961 23.636039,3.5355339 z"
     id="rect2821" />
  <path
     style="fill:#000000;fill-opacity:1;stroke:none"
     d="m 26,16 -2.010835,-0.0221 c -2.267977,-0.2377 -4.545462,-1.80542 -6.363961,-3.62392 -1.8185,-1.818499 -3.38622,-4.095984 -3.623923,-6.363961 l -1.016466,0 c 0,2.815146 1.078292,5.630291 3.226175,7.778175 2.147884,2.147883 4.963028,3.226175 7.778175,3.226175 l 1.988738,0 L 26.000003,16 z"
     id="path2850" />
  <path
     id="path3166"
     d="m 11.015147,13.993476 -5.5000012,-5.5 -5.4999994,5.5 11.0000006,0 z"
     style="fill:#000000;fill-opacity:1;stroke:none" />
  <path
     id="path3168"
     d="m 18.022097,24.005631 -2.010835,-0.0221 C 13.743285,23.745832 11.465801,22.178112 9.6473011,20.359612 7.8288015,18.541112 6.2610809,16.263628 6.0233788,13.995651 l -1.016466,0 c -3e-7,2.815146 1.0782911,5.630291 3.2261747,7.778174 C 10.380971,23.921709 13.196116,25 16.011262,25 L 18,25 18.0221,24.005631 z"
     style="fill:#000000;fill-opacity:1;stroke:none" />
</svg>
