<?xml version="1.0" encoding="UTF-8" standalone="no"?>
<svg
   xmlns:dc="http://purl.org/dc/elements/1.1/"
   xmlns:cc="http://creativecommons.org/ns#"
   xmlns:rdf="http://www.w3.org/1999/02/22-rdf-syntax-ns#"
   xmlns:svg="http://www.w3.org/2000/svg"
   xmlns="http://www.w3.org/2000/svg"
   xmlns:sodipodi="http://sodipodi.sourceforge.net/DTD/sodipodi-0.dtd"
   xmlns:inkscape="http://www.inkscape.org/namespaces/inkscape"
   version="1.0"
   width="30"
   height="28"
   id="svg2"
   inkscape:version="0.47 r22583"
   sodipodi:docname="02-03-017-01-04-06.svg">
  <defs
     id="defs16">
    <inkscape:perspective
       sodipodi:type="inkscape:persp3d"
       inkscape:vp_x="0 : 23 : 1"
       inkscape:vp_y="0 : 1000 : 0"
       inkscape:vp_z="36 : 23 : 1"
       inkscape:persp3d-origin="18 : 15.333333 : 1"
       id="perspective18" />
  </defs>
  <sodipodi:namedview
     pagecolor="#ffffff"
     bordercolor="#666666"
     borderopacity="1"
     objecttolerance="10"
     gridtolerance="10"
     guidetolerance="10"
     inkscape:pageopacity="0"
     inkscape:pageshadow="2"
     inkscape:window-width="964"
     inkscape:window-height="721"
     id="namedview14"
     showgrid="true"
     inkscape:zoom="12.64"
     inkscape:cx="13.94064"
     inkscape:cy="14.676979"
     inkscape:window-x="365"
     inkscape:window-y="0"
     inkscape:window-maximized="0"
     inkscape:current-layer="svg2"
     showborder="true">
    <inkscape:grid
       type="xygrid"
       id="grid2824"
       empspacing="5"
       visible="true"
       enabled="true"
       snapvisiblegridlinesonly="true" />
  </sodipodi:namedview>
  <metadata
     id="metadata4">
Valerie Sutton's pixel definition of the
ISWA 2010 symbol ID 04-01-003-01-01-01
transformed by Stephen E Slevinski Jr
using line and fill polygon tracing
<rdf:RDF>
  <cc:Work
     rdf:about="">
    <dc:format>image/svg+xml</dc:format>
    <dc:type
       rdf:resource="http://purl.org/dc/dcmitype/StillImage" />
    <dc:title></dc:title>
  </cc:Work>
</rdf:RDF>
</metadata>
  <path
     style="fill:#000000;fill-opacity:1;stroke:none"
     d="M 10.999999,22.000001 16.5,27.5 22,22.000001 l -11.000001,0 z"
     id="path2964" />
  <path
     style="fill:#000000;fill-opacity:1;stroke:none"
     d="M 9.899495,28 0,18.100505 0,28 9.899495,28 z"
     id="path2966" />
  <path
     style="fill:#000000;fill-opacity:1;stroke:none"
     d="M 2.828428,20.928932 23.334524,0.422836 24.041631,1.1299428 3.535534,21.636039 2.828428,20.928932 z"
     id="path2831" />
  <path
     style="fill:#000000;fill-opacity:1;stroke:none"
     d="m 6,11.000001 c 6.075133,-10e-7 11.000001,4.924867 11,11 L 16,22 C 16,16.477153 11.522847,12.000001 6,12 l -2,0 0,-1 2,10e-7 z"
     id="path2850" />
  <path
     style="fill:#000000;fill-opacity:1;stroke:none"
     d="M 6.363961,24.464466 26.870058,3.9583699 27.577165,4.6654767 7.071068,25.171573 6.363961,24.464466 z"
     id="path2833" />
  <path
     id="path3078"
     d="M 18.999999,14 24.5,19.5 30,14 18.999999,14 z"
     style="fill:#000000;fill-opacity:1;stroke:none" />
  <path
     id="path3080"
     d="M 14,3.0000008 C 20.075132,3.0000001 25,7.924868 25,14 l -1,-10e-7 c -1e-6,-5.522846 -4.477153,-9.9999986 -10,-9.9999993 l -2,7e-7 0,-1.0000003 2,7e-7 z"
     style="fill:#000000;fill-opacity:1;stroke:none" />
  <path
     style="fill:#ffffff;fill-opacity:1;stroke:none"
     d="M 3.535534,21.636039 24.041631,1.1299428 26.870058,3.9583699 6.363961,24.464466 3.535534,21.636039 z"
     id="rect2821" />
</svg>
