<?xml version="1.0" encoding="UTF-8" standalone="no"?>
<svg
   xmlns:dc="http://purl.org/dc/elements/1.1/"
   xmlns:cc="http://creativecommons.org/ns#"
   xmlns:rdf="http://www.w3.org/1999/02/22-rdf-syntax-ns#"
   xmlns:svg="http://www.w3.org/2000/svg"
   xmlns="http://www.w3.org/2000/svg"
   xmlns:sodipodi="http://sodipodi.sourceforge.net/DTD/sodipodi-0.dtd"
   xmlns:inkscape="http://www.inkscape.org/namespaces/inkscape"
   version="1.0"
   width="30"
   height="28"
   id="svg2"
   inkscape:version="0.47 r22583"
   sodipodi:docname="02-03-017-01-05-01.svg">
  <defs
     id="defs16">
    <inkscape:perspective
       sodipodi:type="inkscape:persp3d"
       inkscape:vp_x="0 : 23 : 1"
       inkscape:vp_y="0 : 1000 : 0"
       inkscape:vp_z="36 : 23 : 1"
       inkscape:persp3d-origin="18 : 15.333333 : 1"
       id="perspective18" />
  </defs>
  <sodipodi:namedview
     pagecolor="#ffffff"
     bordercolor="#666666"
     borderopacity="1"
     objecttolerance="10"
     gridtolerance="10"
     guidetolerance="10"
     inkscape:pageopacity="0"
     inkscape:pageshadow="2"
     inkscape:window-width="964"
     inkscape:window-height="721"
     id="namedview14"
     showgrid="true"
     inkscape:zoom="12.64"
     inkscape:cx="14.104638"
     inkscape:cy="14.642031"
     inkscape:window-x="365"
     inkscape:window-y="0"
     inkscape:window-maximized="0"
     inkscape:current-layer="svg2"
     showborder="true">
    <inkscape:grid
       type="xygrid"
       id="grid2824"
       empspacing="5"
       visible="true"
       enabled="true"
       snapvisiblegridlinesonly="true" />
  </sodipodi:namedview>
  <metadata
     id="metadata4">
Valerie Sutton's pixel definition of the
ISWA 2010 symbol ID 04-01-003-01-01-01
transformed by Stephen E Slevinski Jr
using line and fill polygon tracing
<rdf:RDF>
  <cc:Work
     rdf:about="">
    <dc:format>image/svg+xml</dc:format>
    <dc:type
       rdf:resource="http://purl.org/dc/dcmitype/StillImage" />
    <dc:title></dc:title>
  </cc:Work>
</rdf:RDF>
</metadata>
  <path
     style="fill:#000000;fill-opacity:1;stroke:none"
     d="M 26.464466,6.363961 5.9583696,26.870058 6.6654764,27.577164 27.171573,7.071068 26.464466,6.363961 z"
     id="path2831" />
  <path
     style="fill:#000000;fill-opacity:1;stroke:none"
     d="M 22.928932,2.8284271 2.4228357,23.334524 3.1299425,24.041631 23.636039,3.5355339 22.928932,2.8284271 z"
     id="path2833" />
  <path
     style="fill:#ffffff;fill-opacity:1;stroke:none"
     d="M 23.636039,3.5355339 3.1299425,24.041631 5.9583696,26.870058 26.464466,6.363961 23.636039,3.5355339 z"
     id="rect2821" />
  <path
     style="fill:#000000;fill-opacity:1;stroke:none"
     d="M 25.999997,16 23.989162,15.9779 C 21.721185,15.7402 19.4437,14.17248 17.625201,12.35398 15.806701,10.535481 14.238981,8.257996 14.001278,5.990019 l -1.016466,0 c 0,2.815146 1.078292,5.630291 3.226175,7.778175 2.147884,2.147883 4.963028,3.226175 7.778175,3.226175 l 1.988738,0 L 26,16 z"
     id="path2910" />
  <path
     style="fill:#000000;fill-opacity:1;stroke:none"
     d="m 18.99522,5.990019 -11.0043492,0 L 13.493045,0.4878446 18.99522,5.990019 z M 16.586638,4.99565 13.493045,1.9020581 10.42155,4.973553 l 6.165088,0.0221 z"
     id="path2964" />
  <path
     style="fill:#000000;fill-opacity:1;stroke:none"
     d="M 20.100505,0 30,0 30,9.899495 20.100505,0 z m 2.43068,1.016466 6.452349,6.452349 0,-6.452349 -6.452349,0 z"
     id="path2997" />
  <path
     style="fill:#ffffff;fill-opacity:1;stroke:none"
     d="m 22.531185,1.016466 6.452349,0 0,6.452349 -6.452349,-6.452349 z"
     id="path2966" />
  <path
     style="fill:#ffffff;fill-opacity:1;stroke:none"
     d="M 16.586638,4.99565 10.42155,4.973553 13.493045,1.9020581 16.586638,4.99565 z"
     id="path2863" />
  <path
     id="path3406"
     d="M 18,24 15.989165,23.9779 C 13.721188,23.740201 11.443704,22.172481 9.6252041,20.353981 7.8067045,18.535481 6.2389839,16.257997 6.0012818,13.99002 l -1.016466,0 c -3e-7,2.815146 1.0782911,5.630291 3.2261747,7.778174 2.1478835,2.147884 4.9630285,3.226175 7.7781745,3.226175 l 1.988738,0 L 18.000003,24 z"
     style="fill:#000000;fill-opacity:1;stroke:none" />
  <path
     id="path3408"
     d="m 10.995223,13.99002 -11.0043488,0 5.5021746,-5.502175 5.5021742,5.502175 z M 8.586641,12.995651 5.4930488,9.902059 l -3.0714951,3.071495 6.1650873,0.0221 z"
     style="fill:#000000;fill-opacity:1;stroke:none" />
  <path
     id="path3410"
     d="M 8.586641,12.995651 2.4215537,12.973551 5.4930488,9.902056 8.586641,12.995648 z"
     style="fill:#ffffff;fill-opacity:1;stroke:none" />
</svg>
