<?xml version="1.0" encoding="UTF-8" standalone="no"?>
<svg
   xmlns:dc="http://purl.org/dc/elements/1.1/"
   xmlns:cc="http://creativecommons.org/ns#"
   xmlns:rdf="http://www.w3.org/1999/02/22-rdf-syntax-ns#"
   xmlns:svg="http://www.w3.org/2000/svg"
   xmlns="http://www.w3.org/2000/svg"
   xmlns:sodipodi="http://sodipodi.sourceforge.net/DTD/sodipodi-0.dtd"
   xmlns:inkscape="http://www.inkscape.org/namespaces/inkscape"
   version="1.0"
   width="28"
   height="30"
   id="svg2"
   inkscape:version="0.47 r22583"
   sodipodi:docname="02-03-017-01-05-05.svg">
  <defs
     id="defs16">
    <inkscape:perspective
       sodipodi:type="inkscape:persp3d"
       inkscape:vp_x="0 : 23 : 1"
       inkscape:vp_y="0 : 1000 : 0"
       inkscape:vp_z="36 : 23 : 1"
       inkscape:persp3d-origin="18 : 15.333333 : 1"
       id="perspective18" />
  </defs>
  <sodipodi:namedview
     pagecolor="#ffffff"
     bordercolor="#666666"
     borderopacity="1"
     objecttolerance="10"
     gridtolerance="10"
     guidetolerance="10"
     inkscape:pageopacity="0"
     inkscape:pageshadow="2"
     inkscape:window-width="964"
     inkscape:window-height="721"
     id="namedview14"
     showgrid="true"
     inkscape:zoom="12.64"
     inkscape:cx="10.940081"
     inkscape:cy="17.806588"
     inkscape:window-x="365"
     inkscape:window-y="0"
     inkscape:window-maximized="0"
     inkscape:current-layer="svg2"
     showborder="true">
    <inkscape:grid
       type="xygrid"
       id="grid2824"
       empspacing="5"
       visible="true"
       enabled="true"
       snapvisiblegridlinesonly="true" />
  </sodipodi:namedview>
  <metadata
     id="metadata4">
Valerie Sutton's pixel definition of the
ISWA 2010 symbol ID 04-01-003-01-01-01
transformed by Stephen E Slevinski Jr
using line and fill polygon tracing
<rdf:RDF>
  <cc:Work
     rdf:about="">
    <dc:format>image/svg+xml</dc:format>
    <dc:type
       rdf:resource="http://purl.org/dc/dcmitype/StillImage" />
    <dc:title></dc:title>
  </cc:Work>
</rdf:RDF>
</metadata>
  <path
     style="fill:#000000;fill-opacity:1;stroke:none"
     d="M 24.464466,23.636039 3.9583695,3.1299418 4.6654763,2.4228351 25.171573,22.928932 24.464466,23.636039 z"
     id="path2831" />
  <path
     style="fill:#000000;fill-opacity:1;stroke:none"
     d="m 11.000001,24 c -10e-7,-6.075133 4.924867,-11.000001 11,-11 L 22,14 c -5.522847,0 -10,4.477153 -10,10 l 0,2 -1,0 10e-7,-2 z"
     id="path2910" />
  <path
     style="fill:#000000;fill-opacity:1;stroke:none"
     d="M 20.928932,27.171572 0.4228356,6.6654758 1.1299424,5.958369 21.636039,26.464466 20.928932,27.171572 z"
     id="path2833" />
  <path
     style="fill:#000000;fill-opacity:1;stroke:none"
     d="m 21.997826,19.002174 0,-11.0043491 L 27.5,13.5 21.997826,19.002174 z M 22.992195,16.593592 26.085787,13.5 l -3.071495,-3.071496 -0.0221,6.165088 z"
     id="path2964" />
  <path
     style="fill:#000000;fill-opacity:1;stroke:none"
     d="M 18.100505,30 28,30 28,20.100505 18.100505,30 z m 2.43068,-1.016466 6.452349,-6.45235 0,6.45235 -6.452349,0 z"
     id="path2997" />
  <path
     style="fill:#ffffff;fill-opacity:1;stroke:none"
     d="m 20.531185,28.983534 6.452349,0 0,-6.45235 -6.452349,6.45235 z"
     id="path2966" />
  <path
     style="fill:#ffffff;fill-opacity:1;stroke:none"
     d="m 22.992195,16.593592 0.0221,-6.165088 L 26.08579,13.5 22.992198,16.593592 z"
     id="path2863" />
  <path
     id="path3337"
     d="M 3.0000007,16 C 3,9.924868 7.9248679,4.9999998 14,5.0000005 l -10e-7,0.9999996 C 8.4771529,6.0000008 4.0000003,10.477153 3.9999996,16 l 7e-7,2 L 3,18 l 7e-7,-2 z"
     style="fill:#000000;fill-opacity:1;stroke:none" />
  <path
     style="fill:#ffffff;fill-opacity:1;stroke:none"
     d="M 21.636039,26.464466 1.1299424,5.958369 3.9583695,3.1299418 24.464466,23.636039 21.636039,26.464466 z"
     id="rect2821" />
  <path
     id="path3339"
     d="m 13.997825,11.002175 0,-11.0043497 L 19.5,5.5 13.997825,11.002175 z M 14.992194,8.593592 18.085786,5.5 15.014291,2.4285049 14.992194,8.593592 z"
     style="fill:#000000;fill-opacity:1;stroke:none" />
  <path
     id="path3341"
     d="M 14.992194,8.593592 15.014294,2.4285049 18.085789,5.5 14.992197,8.593592 z"
     style="fill:#ffffff;fill-opacity:1;stroke:none" />
</svg>
