<?xml version="1.0" encoding="UTF-8" standalone="no"?>
<svg
   xmlns:dc="http://purl.org/dc/elements/1.1/"
   xmlns:cc="http://creativecommons.org/ns#"
   xmlns:rdf="http://www.w3.org/1999/02/22-rdf-syntax-ns#"
   xmlns:svg="http://www.w3.org/2000/svg"
   xmlns="http://www.w3.org/2000/svg"
   xmlns:sodipodi="http://sodipodi.sourceforge.net/DTD/sodipodi-0.dtd"
   xmlns:inkscape="http://www.inkscape.org/namespaces/inkscape"
   version="1.0"
   width="21"
   height="36"
   id="svg2"
   inkscape:version="0.47 r22583"
   sodipodi:docname="02-03-016-01-05-09.svg">
  <defs
     id="defs16">
    <inkscape:perspective
       sodipodi:type="inkscape:persp3d"
       inkscape:vp_x="0 : 23 : 1"
       inkscape:vp_y="0 : 1000 : 0"
       inkscape:vp_z="36 : 23 : 1"
       inkscape:persp3d-origin="18 : 15.333333 : 1"
       id="perspective18" />
  </defs>
  <sodipodi:namedview
     pagecolor="#ffffff"
     bordercolor="#666666"
     borderopacity="1"
     objecttolerance="10"
     gridtolerance="10"
     guidetolerance="10"
     inkscape:pageopacity="0"
     inkscape:pageshadow="2"
     inkscape:window-width="964"
     inkscape:window-height="721"
     id="namedview14"
     showgrid="true"
     inkscape:zoom="12.64"
     inkscape:cx="10.940081"
     inkscape:cy="17.806588"
     inkscape:window-x="365"
     inkscape:window-y="0"
     inkscape:window-maximized="0"
     inkscape:current-layer="svg2"
     showborder="true">
    <inkscape:grid
       type="xygrid"
       id="grid2824"
       empspacing="5"
       visible="true"
       enabled="true"
       snapvisiblegridlinesonly="true" />
  </sodipodi:namedview>
  <metadata
     id="metadata4">
Valerie Sutton's pixel definition of the
ISWA 2010 symbol ID 04-01-003-01-01-01
transformed by Stephen E Slevinski Jr
using line and fill polygon tracing
<rdf:RDF>
  <cc:Work
     rdf:about="">
    <dc:format>image/svg+xml</dc:format>
    <dc:type
       rdf:resource="http://purl.org/dc/dcmitype/StillImage" />
    <dc:title></dc:title>
  </cc:Work>
</rdf:RDF>
</metadata>
  <path
     style="fill:#000000;fill-opacity:1;stroke:none"
     d="m 12,7 0,29 1,0 0,-29 -1,0 z"
     id="path2831" />
  <path
     style="fill:#000000;fill-opacity:1;stroke:none"
     d="M 7,7 7,36 8,36 8,7 7,7 z"
     id="path2833" />
  <path
     style="fill:#ffffff;fill-opacity:1;stroke:none"
     d="M 8,7 8,36 12,36 12,7 8,7 z"
     id="rect2821" />
  <path
     style="fill:#000000;fill-opacity:1;stroke:none"
     d="m 1.1875,15.125 1.4375,1.40625 c 1.771783,1.435621 4.490753,1.9375 7.0625,1.9375 2.571747,0 5.290718,-0.501879 7.0625,-1.9375 L 17.46875,17.25 c -1.990608,1.990609 -4.743684,3.21875 -7.78125,3.21875 -3.037566,0 -5.790641,-1.228141 -7.78125,-3.21875 L 0.5,15.84375 1.1875,15.125 z"
     id="path2910" />
  <path
     style="fill:#000000;fill-opacity:1;stroke:none"
     d="M 13.21875,13 21,20.78125 21,13 13.21875,13 z M 15.625,14 20,14 20,18.34375 15.625,14 z"
     id="path2964" />
  <path
     style="fill:#000000;fill-opacity:1;stroke:none"
     d="M 3,7 10,0 17,7 3,7 z M 5.4375,6 14.5625,6 10,1.4375 5.4375,6 z"
     id="path2997" />
  <path
     style="fill:#ffffff;fill-opacity:1;stroke:none"
     d="M 5.4375,6 10,1.4375 14.5625,6 5.4375,6 z"
     id="path2966" />
  <path
     style="fill:#ffffff;fill-opacity:1;stroke:none"
     d="M 15.625,14 20,18.34375 20,14 15.625,14 z"
     id="path2863" />
  <path
     id="path3268"
     d="m 1.1875,26.125 1.4375,1.40625 c 1.771783,1.435621 4.490753,1.9375 7.0625,1.9375 2.571747,0 5.290718,-0.501879 7.0625,-1.9375 L 17.46875,28.25 c -1.990608,1.990609 -4.743684,3.21875 -7.78125,3.21875 -3.037566,0 -5.790641,-1.228141 -7.78125,-3.21875 L 0.5,26.84375 1.1875,26.125 z"
     style="fill:#000000;fill-opacity:1;stroke:none" />
  <path
     id="path3270"
     d="M 13.21875,24 21,31.78125 21,24 13.21875,24 z M 15.625,25 20,25 20,29.34375 15.625,25 z"
     style="fill:#000000;fill-opacity:1;stroke:none" />
  <path
     id="path3272"
     d="M 15.625,25 20,29.34375 20,25 15.625,25 z"
     style="fill:#ffffff;fill-opacity:1;stroke:none" />
</svg>
