<?xml version="1.0" encoding="UTF-8" standalone="no"?>
<svg
   xmlns:dc="http://purl.org/dc/elements/1.1/"
   xmlns:cc="http://creativecommons.org/ns#"
   xmlns:rdf="http://www.w3.org/1999/02/22-rdf-syntax-ns#"
   xmlns:svg="http://www.w3.org/2000/svg"
   xmlns="http://www.w3.org/2000/svg"
   xmlns:sodipodi="http://sodipodi.sourceforge.net/DTD/sodipodi-0.dtd"
   xmlns:inkscape="http://www.inkscape.org/namespaces/inkscape"
   version="1.0"
   width="28"
   height="30"
   id="svg2"
   inkscape:version="0.47 r22583"
   sodipodi:docname="02-03-017-01-06-05.svg">
  <defs
     id="defs16">
    <inkscape:perspective
       sodipodi:type="inkscape:persp3d"
       inkscape:vp_x="0 : 23 : 1"
       inkscape:vp_y="0 : 1000 : 0"
       inkscape:vp_z="36 : 23 : 1"
       inkscape:persp3d-origin="18 : 15.333333 : 1"
       id="perspective18" />
  </defs>
  <sodipodi:namedview
     pagecolor="#ffffff"
     bordercolor="#666666"
     borderopacity="1"
     objecttolerance="10"
     gridtolerance="10"
     guidetolerance="10"
     inkscape:pageopacity="0"
     inkscape:pageshadow="2"
     inkscape:window-width="964"
     inkscape:window-height="721"
     id="namedview14"
     showgrid="true"
     inkscape:zoom="12.64"
     inkscape:cx="13.499108"
     inkscape:cy="14.653698"
     inkscape:window-x="365"
     inkscape:window-y="0"
     inkscape:window-maximized="0"
     inkscape:current-layer="svg2"
     showborder="true">
    <inkscape:grid
       type="xygrid"
       id="grid2824"
       empspacing="5"
       visible="true"
       enabled="true"
       snapvisiblegridlinesonly="true" />
  </sodipodi:namedview>
  <metadata
     id="metadata4">
Valerie Sutton's pixel definition of the
ISWA 2010 symbol ID 04-01-003-01-01-01
transformed by Stephen E Slevinski Jr
using line and fill polygon tracing
<rdf:RDF>
  <cc:Work
     rdf:about="">
    <dc:format>image/svg+xml</dc:format>
    <dc:type
       rdf:resource="http://purl.org/dc/dcmitype/StillImage" />
    <dc:title></dc:title>
  </cc:Work>
</rdf:RDF>
</metadata>
  <path
     style="fill:#000000;fill-opacity:1;stroke:none"
     d="M 24.464466,23.636039 3.9583695,3.1299418 4.6654763,2.4228351 25.171573,22.928932 24.464466,23.636039 z"
     id="path2831" />
  <path
     style="fill:#000000;fill-opacity:1;stroke:none"
     d="M 18.100505,30 28,30 l 0,-9.899495 -2.010835,2.010835 0,5.877825 -5.877825,0 L 18.100505,30 z"
     id="path2966" />
  <path
     style="fill:#000000;fill-opacity:1;stroke:none"
     d="M 21.997826,7.9978249 27.5,13.5 l -5.502174,5.502174 0,-1.414213 L 26.085787,13.5 21.997826,9.412038 l 0,-1.4142131 z"
     id="path3018" />
  <path
     style="fill:#000000;fill-opacity:1;stroke:none"
     d="m 11.000001,24 c -10e-7,-6.075133 4.924867,-11.000001 11,-11 L 22,14 c -5.522847,0 -10,4.477153 -10,10 l 0,2 -1,0 10e-7,-2 z"
     id="path3020" />
  <path
     style="fill:#000000;fill-opacity:1;stroke:none"
     d="M 20.928932,27.171572 0.4228356,6.6654758 1.1299424,5.958369 21.636039,26.464466 20.928932,27.171572 z"
     id="path2833" />
  <path
     id="path3065"
     d="M 13.997825,-0.0021747 19.5,5.5 l -5.502175,5.502175 0,-1.414214 L 18.085786,5.5 13.997825,1.4120389 l 0,-1.4142136 z"
     style="fill:#000000;fill-opacity:1;stroke:none" />
  <path
     id="path3067"
     d="M 3.0000007,16 C 3,9.924868 7.9248679,4.9999998 14,5.0000005 l -10e-7,0.9999996 C 8.4771529,6.0000008 4.0000003,10.477153 3.9999996,16 l 7e-7,2 L 3,18 l 7e-7,-2 z"
     style="fill:#000000;fill-opacity:1;stroke:none" />
  <path
     style="fill:#ffffff;fill-opacity:1;stroke:none"
     d="M 21.636039,26.464466 1.1299424,5.958369 3.9583695,3.1299418 24.464466,23.636039 21.636039,26.464466 z"
     id="rect2821" />
</svg>
