<?xml version="1.0" encoding="UTF-8" standalone="no"?>
<svg
   xmlns:dc="http://purl.org/dc/elements/1.1/"
   xmlns:cc="http://creativecommons.org/ns#"
   xmlns:rdf="http://www.w3.org/1999/02/22-rdf-syntax-ns#"
   xmlns:svg="http://www.w3.org/2000/svg"
   xmlns="http://www.w3.org/2000/svg"
   xmlns:sodipodi="http://sodipodi.sourceforge.net/DTD/sodipodi-0.dtd"
   xmlns:inkscape="http://www.inkscape.org/namespaces/inkscape"
   version="1.0"
   width="30"
   height="28"
   id="svg2"
   inkscape:version="0.47 r22583"
   sodipodi:docname="02-03-017-01-02-01.svg">
  <defs
     id="defs16">
    <inkscape:perspective
       sodipodi:type="inkscape:persp3d"
       inkscape:vp_x="0 : 23 : 1"
       inkscape:vp_y="0 : 1000 : 0"
       inkscape:vp_z="36 : 23 : 1"
       inkscape:persp3d-origin="18 : 15.333333 : 1"
       id="perspective18" />
  </defs>
  <sodipodi:namedview
     pagecolor="#ffffff"
     bordercolor="#666666"
     borderopacity="1"
     objecttolerance="10"
     gridtolerance="10"
     guidetolerance="10"
     inkscape:pageopacity="0"
     inkscape:pageshadow="2"
     inkscape:window-width="964"
     inkscape:window-height="721"
     id="namedview14"
     showgrid="true"
     inkscape:zoom="12.64"
     inkscape:cx="17.269195"
     inkscape:cy="11.477474"
     inkscape:window-x="365"
     inkscape:window-y="0"
     inkscape:window-maximized="0"
     inkscape:current-layer="svg2"
     showborder="true">
    <inkscape:grid
       type="xygrid"
       id="grid2824"
       empspacing="5"
       visible="true"
       enabled="true"
       snapvisiblegridlinesonly="true" />
  </sodipodi:namedview>
  <metadata
     id="metadata4">
Valerie Sutton's pixel definition of the
ISWA 2010 symbol ID 04-01-003-01-01-01
transformed by Stephen E Slevinski Jr
using line and fill polygon tracing
<rdf:RDF>
  <cc:Work
     rdf:about="">
    <dc:format>image/svg+xml</dc:format>
    <dc:type
       rdf:resource="http://purl.org/dc/dcmitype/StillImage" />
    <dc:title></dc:title>
  </cc:Work>
</rdf:RDF>
</metadata>
  <path
     style="fill:#000000;fill-opacity:1;stroke:none"
     d="M 16.999999,24 C 17,17.924867 12.075132,12.999999 5.9999996,13 l 7e-7,0.999999 C 11.522847,14 16,18.477153 16.000001,24 l -1e-6,2 1,0 -1e-6,-2 z"
     id="path2910" />
  <path
     style="fill:#000000;fill-opacity:1;stroke:none"
     d="M 26.464466,6.3639606 5.9583695,26.870058 6.6654762,27.577165 27.171573,7.0710676 26.464466,6.3639606 z"
     id="path2831" />
  <path
     style="fill:#000000;fill-opacity:1;stroke:none"
     d="m 6.0021746,19.002174 0,-11.0043494 L 0.5,13.499999 6.0021746,19.002174 z m -0.9943689,-2.408583 -3.0935921,-3.093592 3.071495,-3.071495 0.022097,6.165087 z"
     id="path2964" />
  <path
     style="fill:#000000;fill-opacity:1;stroke:none"
     d="M 20.100505,0 30,0 30,9.8994946 20.100505,0 z m 2.43068,1.016466 6.452349,6.4523496 0,-6.4523496 -6.452349,0 z"
     id="path2997" />
  <path
     style="fill:#000000;fill-opacity:1;stroke:none"
     d="M 22.928932,2.8284271 2.4228356,23.334524 3.1299423,24.041631 23.636039,3.5355339 22.928932,2.8284271 z"
     id="path2833" />
  <path
     style="fill:#ffffff;fill-opacity:1;stroke:none"
     d="m 22.531185,1.016466 6.452349,0 0,6.4523496 -6.452349,-6.4523496 z"
     id="path2966" />
  <path
     style="fill:#ffffff;fill-opacity:1;stroke:none"
     d="m 5.0078057,16.593591 -0.022097,-6.165087 -3.071495,3.071495 3.0935921,3.093592 z"
     id="path2863" />
  <path
     id="path3075"
     d="M 25,16 C 25.000001,9.924867 20.075133,4.9999996 14,4.9999996 l 10e-7,1 C 19.522848,6.0000006 24,10.477153 24.000001,16 L 24,18 25.000001,18 25,16 z"
     style="fill:#000000;fill-opacity:1;stroke:none" />
  <path
     style="fill:#ffffff;fill-opacity:1;stroke:none"
     d="M 23.636039,3.5355339 3.1299423,24.041631 5.9583695,26.870058 26.464466,6.3639606 23.636039,3.5355339 z"
     id="rect2821" />
  <path
     id="path3077"
     d="m 14.002175,11.002174 0,-11.0043494 -5.5021744,5.502175 5.5021744,5.5021744 z m -0.994369,-2.4085824 -3.093592,-3.093592 3.071495,-3.0714954 0.0221,6.1650874 z"
     style="fill:#000000;fill-opacity:1;stroke:none" />
  <path
     id="path3079"
     d="m 13.007806,8.5935916 -0.0221,-6.1650874 -3.071495,3.0714954 3.093592,3.093592 z"
     style="fill:#ffffff;fill-opacity:1;stroke:none" />
</svg>
