<?xml version="1.0" encoding="UTF-8" standalone="no"?>
<svg
   xmlns:dc="http://purl.org/dc/elements/1.1/"
   xmlns:cc="http://creativecommons.org/ns#"
   xmlns:rdf="http://www.w3.org/1999/02/22-rdf-syntax-ns#"
   xmlns:svg="http://www.w3.org/2000/svg"
   xmlns="http://www.w3.org/2000/svg"
   xmlns:sodipodi="http://sodipodi.sourceforge.net/DTD/sodipodi-0.dtd"
   xmlns:inkscape="http://www.inkscape.org/namespaces/inkscape"
   version="1.0"
   width="30"
   height="28"
   id="svg2"
   inkscape:version="0.47 r22583"
   sodipodi:docname="02-03-017-01-05-13.svg">
  <defs
     id="defs16">
    <inkscape:perspective
       sodipodi:type="inkscape:persp3d"
       inkscape:vp_x="0 : 23 : 1"
       inkscape:vp_y="0 : 1000 : 0"
       inkscape:vp_z="36 : 23 : 1"
       inkscape:persp3d-origin="18 : 15.333333 : 1"
       id="perspective18" />
  </defs>
  <sodipodi:namedview
     pagecolor="#ffffff"
     bordercolor="#666666"
     borderopacity="1"
     objecttolerance="10"
     gridtolerance="10"
     guidetolerance="10"
     inkscape:pageopacity="0"
     inkscape:pageshadow="2"
     inkscape:window-width="964"
     inkscape:window-height="721"
     id="namedview14"
     showgrid="true"
     inkscape:zoom="12.64"
     inkscape:cx="14.104638"
     inkscape:cy="14.642031"
     inkscape:window-x="365"
     inkscape:window-y="0"
     inkscape:window-maximized="0"
     inkscape:current-layer="svg2"
     showborder="true">
    <inkscape:grid
       type="xygrid"
       id="grid2824"
       empspacing="5"
       visible="true"
       enabled="true"
       snapvisiblegridlinesonly="true" />
  </sodipodi:namedview>
  <metadata
     id="metadata4">
Valerie Sutton's pixel definition of the
ISWA 2010 symbol ID 04-01-003-01-01-01
transformed by Stephen E Slevinski Jr
using line and fill polygon tracing
<rdf:RDF>
  <cc:Work
     rdf:about="">
    <dc:format>image/svg+xml</dc:format>
    <dc:type
       rdf:resource="http://purl.org/dc/dcmitype/StillImage" />
    <dc:title></dc:title>
  </cc:Work>
</rdf:RDF>
</metadata>
  <path
     style="fill:#000000;fill-opacity:1;stroke:none"
     d="M 26.464466,21.636039 5.9583695,1.1299419 6.6654762,0.4228351 27.171573,20.928932 26.464466,21.636039 z"
     id="path2831" />
  <path
     style="fill:#000000;fill-opacity:1;stroke:none"
     d="M 24,11 C 17.924868,11 13,15.924868 13.000001,22 L 14,22 c 10e-7,-5.522847 4.477154,-10 10,-10.000001 l 2,10e-7 0,-1 -2,0 z"
     id="path2910" />
  <path
     style="fill:#000000;fill-opacity:1;stroke:none"
     d="M 22.928932,25.171572 2.4228356,4.6654758 3.1299423,3.958369 23.636039,24.464466 22.928932,25.171572 z"
     id="path2833" />
  <path
     style="fill:#000000;fill-opacity:1;stroke:none"
     d="m 19.002175,21.997825 -11.0043496,0 L 13.5,27.5 19.002175,21.997825 z M 16.593592,22.992194 13.5,26.085786 l -3.071495,-3.071495 6.165087,-0.0221 z"
     id="path2964" />
  <path
     style="fill:#000000;fill-opacity:1;stroke:none"
     d="M 20.100505,28 30,28 30,18.100505 20.100505,28 z m 2.43068,-1.016466 6.452349,-6.45235 0,6.45235 -6.452349,0 z"
     id="path2997" />
  <path
     style="fill:#ffffff;fill-opacity:1;stroke:none"
     d="m 22.531185,26.983534 6.452349,0 0,-6.45235 -6.452349,6.45235 z"
     id="path2966" />
  <path
     style="fill:#ffffff;fill-opacity:1;stroke:none"
     d="m 16.593592,22.992194 -6.165087,0.0221 3.071495,3.071495 3.093592,-3.093592 z"
     id="path2863" />
  <path
     id="path3199"
     d="M 16,3.0000007 C 9.924867,3 4.9999993,7.9248679 5,14.000001 L 5.9999996,14 C 6.0000003,8.4771529 10.477153,4.0000003 16,3.9999996 l 2,7e-7 L 18,3 l -2,7e-7 z"
     style="fill:#000000;fill-opacity:1;stroke:none" />
  <path
     style="fill:#ffffff;fill-opacity:1;stroke:none"
     d="M 23.636039,24.464466 3.1299423,3.958369 5.9583695,1.1299419 26.464466,21.636039 23.636039,24.464466 z"
     id="rect2821" />
  <path
     id="path3201"
     d="m 11.002174,13.997826 -11.0043492,0 L 5.4999995,19.5 11.002174,13.997826 z m -2.4085824,0.994368 -3.0935921,3.093593 -3.0714951,-3.071495 6.1650872,-0.0221 z"
     style="fill:#000000;fill-opacity:1;stroke:none" />
  <path
     id="path3203"
     d="m 8.5935916,14.992194 -6.1650872,0.0221 3.0714951,3.071495 3.0935921,-3.093593 z"
     style="fill:#ffffff;fill-opacity:1;stroke:none" />
</svg>
