<?xml version="1.0" encoding="UTF-8" standalone="no"?>
<svg
   xmlns:dc="http://purl.org/dc/elements/1.1/"
   xmlns:cc="http://creativecommons.org/ns#"
   xmlns:rdf="http://www.w3.org/1999/02/22-rdf-syntax-ns#"
   xmlns:svg="http://www.w3.org/2000/svg"
   xmlns="http://www.w3.org/2000/svg"
   xmlns:sodipodi="http://sodipodi.sourceforge.net/DTD/sodipodi-0.dtd"
   xmlns:inkscape="http://www.inkscape.org/namespaces/inkscape"
   version="1.0"
   width="28"
   height="30"
   id="svg2"
   inkscape:version="0.47 r22583"
   sodipodi:docname="02-03-017-01-01-04.svg">
  <defs
     id="defs16">
    <inkscape:perspective
       sodipodi:type="inkscape:persp3d"
       inkscape:vp_x="0 : 23 : 1"
       inkscape:vp_y="0 : 1000 : 0"
       inkscape:vp_z="36 : 23 : 1"
       inkscape:persp3d-origin="18 : 15.333333 : 1"
       id="perspective18" />
  </defs>
  <sodipodi:namedview
     pagecolor="#ffffff"
     bordercolor="#666666"
     borderopacity="1"
     objecttolerance="10"
     gridtolerance="10"
     guidetolerance="10"
     inkscape:pageopacity="0"
     inkscape:pageshadow="2"
     inkscape:window-width="964"
     inkscape:window-height="721"
     id="namedview14"
     showgrid="true"
     inkscape:zoom="12.64"
     inkscape:cx="13.94064"
     inkscape:cy="14.676979"
     inkscape:window-x="365"
     inkscape:window-y="0"
     inkscape:window-maximized="0"
     inkscape:current-layer="svg2"
     showborder="true">
    <inkscape:grid
       type="xygrid"
       id="grid2824"
       empspacing="5"
       visible="true"
       enabled="true"
       snapvisiblegridlinesonly="true" />
  </sodipodi:namedview>
  <metadata
     id="metadata4">
Valerie Sutton's pixel definition of the
ISWA 2010 symbol ID 04-01-003-01-01-01
transformed by Stephen E Slevinski Jr
using line and fill polygon tracing
<rdf:RDF>
  <cc:Work
     rdf:about="">
    <dc:format>image/svg+xml</dc:format>
    <dc:type
       rdf:resource="http://purl.org/dc/dcmitype/StillImage" />
    <dc:title></dc:title>
  </cc:Work>
</rdf:RDF>
</metadata>
  <path
     style="fill:#000000;fill-opacity:1;stroke:none"
     d="M 20.928932,27.171573 0.42283525,6.6654763 1.1299421,5.9583702 21.636039,26.464466 20.928932,27.171573 z"
     id="path2831" />
  <path
     style="fill:#000000;fill-opacity:1;stroke:none"
     d="m 9.0069498,5.9878453 5.5000012,-5.50000005 5.5,5.50000005 -11.0000012,0 z"
     id="path2964" />
  <path
     style="fill:#000000;fill-opacity:1;stroke:none"
     d="M 28,20.100505 18.100505,30 28,30 28,20.100505 z"
     id="path2966" />
  <path
     style="fill:#000000;fill-opacity:1;stroke:none"
     d="M 24.464466,23.636039 3.9583692,3.1299423 4.665476,2.4228363 25.171573,22.928932 24.464466,23.636039 z"
     id="path2833" />
  <path
     style="fill:#ffffff;fill-opacity:1;stroke:none"
     d="M 21.636039,26.464466 1.1299421,5.9583702 3.9583692,3.1299423 24.464466,23.636039 21.636039,26.464466 z"
     id="rect2821" />
  <path
     style="fill:#000000;fill-opacity:1;stroke:none"
     d="m 1.9999997,16 2.0108348,-0.0221 c 2.2679772,-0.237702 4.5454613,-1.805422 6.3639615,-3.623922 1.8185,-1.8185 3.38622,-4.0959847 3.623922,-6.3639607 l 1.016466,0 c 1e-6,2.815145 -1.078291,5.6302907 -3.226175,7.7781737 -2.147883,2.147887 -4.9630282,3.226178 -7.7781745,3.226178 l -1.9887378,0 L 1.9999997,16 z"
     id="path2850" />
  <path
     id="path2988"
     d="m 17.00695,13.987844 5.500001,-5.4999987 5.499999,5.4999987 -11,0 z"
     style="fill:#000000;fill-opacity:1;stroke:none" />
  <path
     id="path2990"
     d="m 10,24 2.010834,-0.0221 c 2.267978,-0.237702 4.545462,-1.805422 6.363961,-3.623922 1.8185,-1.8185 3.386221,-4.095985 3.623923,-6.363962 l 1.016466,0 c 0,2.815146 -1.078291,5.630291 -3.226175,7.778176 -2.147883,2.147883 -4.963028,3.226174 -7.778175,3.226174 l -1.988737,0 -0.0221,-0.994369 z"
     style="fill:#000000;fill-opacity:1;stroke:none" />
</svg>
