<?xml version="1.0" encoding="UTF-8" standalone="no"?>
<svg
   xmlns:dc="http://purl.org/dc/elements/1.1/"
   xmlns:cc="http://creativecommons.org/ns#"
   xmlns:rdf="http://www.w3.org/1999/02/22-rdf-syntax-ns#"
   xmlns:svg="http://www.w3.org/2000/svg"
   xmlns="http://www.w3.org/2000/svg"
   xmlns:sodipodi="http://sodipodi.sourceforge.net/DTD/sodipodi-0.dtd"
   xmlns:inkscape="http://www.inkscape.org/namespaces/inkscape"
   version="1.0"
   width="30"
   height="28"
   id="svg2"
   inkscape:version="0.47 r22583"
   sodipodi:docname="02-03-017-01-03-06.svg">
  <defs
     id="defs16">
    <inkscape:perspective
       sodipodi:type="inkscape:persp3d"
       inkscape:vp_x="0 : 23 : 1"
       inkscape:vp_y="0 : 1000 : 0"
       inkscape:vp_z="36 : 23 : 1"
       inkscape:persp3d-origin="18 : 15.333333 : 1"
       id="perspective18" />
  </defs>
  <sodipodi:namedview
     pagecolor="#ffffff"
     bordercolor="#666666"
     borderopacity="1"
     objecttolerance="10"
     gridtolerance="10"
     guidetolerance="10"
     inkscape:pageopacity="0"
     inkscape:pageshadow="2"
     inkscape:window-width="964"
     inkscape:window-height="721"
     id="namedview14"
     showgrid="true"
     inkscape:zoom="12.64"
     inkscape:cx="16.663665"
     inkscape:cy="14.653698"
     inkscape:window-x="365"
     inkscape:window-y="0"
     inkscape:window-maximized="0"
     inkscape:current-layer="svg2"
     showborder="true">
    <inkscape:grid
       type="xygrid"
       id="grid2824"
       empspacing="5"
       visible="true"
       enabled="true"
       snapvisiblegridlinesonly="true" />
  </sodipodi:namedview>
  <metadata
     id="metadata4">
Valerie Sutton's pixel definition of the
ISWA 2010 symbol ID 04-01-003-01-01-01
transformed by Stephen E Slevinski Jr
using line and fill polygon tracing
<rdf:RDF>
  <cc:Work
     rdf:about="">
    <dc:format>image/svg+xml</dc:format>
    <dc:type
       rdf:resource="http://purl.org/dc/dcmitype/StillImage" />
    <dc:title></dc:title>
  </cc:Work>
</rdf:RDF>
</metadata>
  <path
     style="fill:#000000;fill-opacity:1;stroke:none"
     d="M 6.363961,24.464466 26.870057,3.9583697 27.577164,4.6654765 7.071068,25.171573 6.363961,24.464466 z"
     id="path2831" />
  <path
     style="fill:#000000;fill-opacity:1;stroke:none"
     d="M 0,18.100505 0,28 9.899495,28 7.88866,25.989165 l -5.877825,0 0,-5.877825 L 0,18.100505 z"
     id="path2966" />
  <path
     style="fill:#000000;fill-opacity:1;stroke:none"
     d="M 2.828427,20.928932 23.334523,0.4228358 24.04163,1.1299426 3.535534,21.636039 2.828427,20.928932 z"
     id="path2833" />
  <path
     style="fill:#000000;fill-opacity:1;stroke:none"
     d="m 24.004349,20.009126 5.502175,-5.502175 -5.502175,-5.502174 0,1.414213 4.087961,4.087961 -4.087961,4.087961 0,1.414214 z"
     id="path3018" />
  <path
     style="fill:#ffffff;fill-opacity:1;stroke:none"
     d="M 3.535534,21.636039 24.04163,1.1299426 26.870057,3.9583697 6.363961,24.464466 3.535534,21.636039 z"
     id="rect2821" />
  <path
     style="fill:#000000;fill-opacity:1;stroke:none"
     d="m 13.994369,2.0000002 0.0221,2.0108349 c 0.237699,2.2679772 1.805419,4.5454613 3.623919,6.3639609 1.8185,1.8185 4.095985,3.38622 6.363961,3.623922 l 0,1.016466 c -2.815145,1e-6 -5.630291,-1.078291 -7.778174,-3.226175 C 14.078291,9.641126 13,6.8259814 13,4.0108351 l 0,-1.9887378 0.994369,-0.022097 z"
     id="path3020" />
  <path
     id="path3371"
     d="m 16.004347,28.009126 5.502174,-5.502175 -5.502174,-5.502175 0,1.414214 4.087961,4.087961 -4.087961,4.087961 0,1.414214 z"
     style="fill:#000000;fill-opacity:1;stroke:none" />
  <path
     id="path3373"
     d="m 5.994366,10 0.0221,2.010835 c 0.237703,2.267977 1.805423,4.545462 3.623923,6.36396 1.818499,1.8185 4.095984,3.386221 6.363961,3.623924 l 0,1.016466 c -2.815146,0 -5.630291,-1.078291 -7.778175,-3.226176 C 6.078292,17.641126 5,14.825981 5,12.010835 l 0,-1.988738 0.994369,-0.0221 z"
     style="fill:#000000;fill-opacity:1;stroke:none" />
</svg>
