<?xml version="1.0" encoding="UTF-8" standalone="no"?>
<svg
   xmlns:dc="http://purl.org/dc/elements/1.1/"
   xmlns:cc="http://creativecommons.org/ns#"
   xmlns:rdf="http://www.w3.org/1999/02/22-rdf-syntax-ns#"
   xmlns:svg="http://www.w3.org/2000/svg"
   xmlns="http://www.w3.org/2000/svg"
   xmlns:sodipodi="http://sodipodi.sourceforge.net/DTD/sodipodi-0.dtd"
   xmlns:inkscape="http://www.inkscape.org/namespaces/inkscape"
   version="1.0"
   width="28"
   height="30"
   id="svg2"
   inkscape:version="0.47 r22583"
   sodipodi:docname="02-03-017-01-05-08.svg">
  <defs
     id="defs16">
    <inkscape:perspective
       sodipodi:type="inkscape:persp3d"
       inkscape:vp_x="0 : 23 : 1"
       inkscape:vp_y="0 : 1000 : 0"
       inkscape:vp_z="36 : 23 : 1"
       inkscape:persp3d-origin="18 : 15.333333 : 1"
       id="perspective18" />
  </defs>
  <sodipodi:namedview
     pagecolor="#ffffff"
     bordercolor="#666666"
     borderopacity="1"
     objecttolerance="10"
     gridtolerance="10"
     guidetolerance="10"
     inkscape:pageopacity="0"
     inkscape:pageshadow="2"
     inkscape:window-width="964"
     inkscape:window-height="721"
     id="namedview14"
     showgrid="true"
     inkscape:zoom="12.64"
     inkscape:cx="14.104638"
     inkscape:cy="14.642031"
     inkscape:window-x="365"
     inkscape:window-y="0"
     inkscape:window-maximized="0"
     inkscape:current-layer="svg2"
     showborder="true">
    <inkscape:grid
       type="xygrid"
       id="grid2824"
       empspacing="5"
       visible="true"
       enabled="true"
       snapvisiblegridlinesonly="true" />
  </sodipodi:namedview>
  <metadata
     id="metadata4">
Valerie Sutton's pixel definition of the
ISWA 2010 symbol ID 04-01-003-01-01-01
transformed by Stephen E Slevinski Jr
using line and fill polygon tracing
<rdf:RDF>
  <cc:Work
     rdf:about="">
    <dc:format>image/svg+xml</dc:format>
    <dc:type
       rdf:resource="http://purl.org/dc/dcmitype/StillImage" />
    <dc:title></dc:title>
  </cc:Work>
</rdf:RDF>
</metadata>
  <path
     style="fill:#000000;fill-opacity:1;stroke:none"
     d="M 6.363961,3.535534 26.870058,24.04163 27.577164,23.334524 7.071068,2.828427 6.363961,3.535534 z"
     id="path2831" />
  <path
     style="fill:#000000;fill-opacity:1;stroke:none"
     d="M 2.8284271,7.071068 23.334524,27.577164 24.041631,26.870058 3.5355339,6.363961 2.8284271,7.071068 z"
     id="path2833" />
  <path
     style="fill:#ffffff;fill-opacity:1;stroke:none"
     d="M 3.5355339,6.363961 24.041631,26.870058 26.870058,24.04163 6.363961,3.535534 3.5355339,6.363961 z"
     id="rect2821" />
  <path
     style="fill:#000000;fill-opacity:1;stroke:none"
     d="m 16,4.000003 -0.0221,2.010835 c -0.2377,2.267977 -1.80542,4.545462 -3.62392,6.363961 -1.818499,1.8185 -4.095984,3.38622 -6.363961,3.623923 l 0,1.016466 c 2.8151459,0 5.630291,-1.078292 7.778175,-3.226175 2.147883,-2.147884 3.226175,-4.963028 3.226175,-7.778175 l 0,-1.988738 L 16,4 z"
     id="path2910" />
  <path
     style="fill:#000000;fill-opacity:1;stroke:none"
     d="m 5.990019,11.00478 0,11.004349 L 0.4878446,16.506955 5.990019,11.00478 z m -0.994369,2.408582 -3.0935919,3.093593 3.0714949,3.071495 0.0221,-6.165088 z"
     id="path2964" />
  <path
     style="fill:#000000;fill-opacity:1;stroke:none"
     d="M 0,9.899495 0,0 9.8994949,0 0,9.899495 z m 1.016466,-2.43068 6.452349,-6.452349 -6.452349,0 0,6.452349 z"
     id="path2997" />
  <path
     style="fill:#ffffff;fill-opacity:1;stroke:none"
     d="m 1.016466,7.468815 0,-6.452349 6.452349,0 -6.452349,6.452349 z"
     id="path2966" />
  <path
     style="fill:#ffffff;fill-opacity:1;stroke:none"
     d="M 4.99565,13.413362 4.973553,19.57845 1.9020581,16.506955 4.99565,13.413362 z"
     id="path2863" />
  <path
     id="path3406"
     d="m 24,12 -0.0221,2.010835 c -0.237699,2.267977 -1.805419,4.545461 -3.623919,6.363961 -1.8185,1.8185 -4.095984,3.38622 -6.363961,3.623922 l 0,1.016466 c 2.815146,10e-7 5.630291,-1.078291 7.778174,-3.226174 2.147884,-2.147884 3.226175,-4.963029 3.226175,-7.778175 l 0,-1.988738 L 24,11.999997 z"
     style="fill:#000000;fill-opacity:1;stroke:none" />
  <path
     id="path3408"
     d="m 13.99002,19.004777 0,11.004349 -5.502175,-5.502175 5.502175,-5.502174 z m -0.994369,2.408582 -3.0935921,3.093592 3.0714951,3.071495 0.0221,-6.165087 z"
     style="fill:#000000;fill-opacity:1;stroke:none" />
  <path
     id="path3410"
     d="m 12.995651,21.413359 -0.0221,6.165087 -3.0714951,-3.071495 3.0935921,-3.093592 z"
     style="fill:#ffffff;fill-opacity:1;stroke:none" />
</svg>
