<?xml version="1.0" encoding="UTF-8" standalone="no"?>
<svg
   xmlns:dc="http://purl.org/dc/elements/1.1/"
   xmlns:cc="http://creativecommons.org/ns#"
   xmlns:rdf="http://www.w3.org/1999/02/22-rdf-syntax-ns#"
   xmlns:svg="http://www.w3.org/2000/svg"
   xmlns="http://www.w3.org/2000/svg"
   xmlns:sodipodi="http://sodipodi.sourceforge.net/DTD/sodipodi-0.dtd"
   xmlns:inkscape="http://www.inkscape.org/namespaces/inkscape"
   version="1.0"
   width="28"
   height="30"
   id="svg2"
   inkscape:version="0.47 r22583"
   sodipodi:docname="02-03-017-01-05-12.svg">
  <defs
     id="defs16">
    <inkscape:perspective
       sodipodi:type="inkscape:persp3d"
       inkscape:vp_x="0 : 23 : 1"
       inkscape:vp_y="0 : 1000 : 0"
       inkscape:vp_z="36 : 23 : 1"
       inkscape:persp3d-origin="18 : 15.333333 : 1"
       id="perspective18" />
  </defs>
  <sodipodi:namedview
     pagecolor="#ffffff"
     bordercolor="#666666"
     borderopacity="1"
     objecttolerance="10"
     gridtolerance="10"
     guidetolerance="10"
     inkscape:pageopacity="0"
     inkscape:pageshadow="2"
     inkscape:window-width="964"
     inkscape:window-height="721"
     id="namedview14"
     showgrid="true"
     inkscape:zoom="12.64"
     inkscape:cx="14.104638"
     inkscape:cy="14.642031"
     inkscape:window-x="365"
     inkscape:window-y="0"
     inkscape:window-maximized="0"
     inkscape:current-layer="svg2"
     showborder="true">
    <inkscape:grid
       type="xygrid"
       id="grid2824"
       empspacing="5"
       visible="true"
       enabled="true"
       snapvisiblegridlinesonly="true" />
  </sodipodi:namedview>
  <metadata
     id="metadata4">
Valerie Sutton's pixel definition of the
ISWA 2010 symbol ID 04-01-003-01-01-01
transformed by Stephen E Slevinski Jr
using line and fill polygon tracing
<rdf:RDF>
  <cc:Work
     rdf:about="">
    <dc:format>image/svg+xml</dc:format>
    <dc:type
       rdf:resource="http://purl.org/dc/dcmitype/StillImage" />
    <dc:title></dc:title>
  </cc:Work>
</rdf:RDF>
</metadata>
  <path
     style="fill:#000000;fill-opacity:1;stroke:none"
     d="M 6.3639609,26.464466 26.870058,5.9583696 27.577165,6.6654763 7.0710679,27.171573 6.3639609,26.464466 z"
     id="path2831" />
  <path
     style="fill:#000000;fill-opacity:1;stroke:none"
     d="M 17,24 C 17,17.924868 12.075132,13 5.9999999,13.000001 l 0,0.999999 C 11.522847,14.000001 16,18.477154 16.000001,24 l -1e-6,2 1,0 0,-2 z"
     id="path2910" />
  <path
     style="fill:#000000;fill-opacity:1;stroke:none"
     d="M 2.8284279,22.928932 23.334524,2.4228357 24.041631,3.1299424 3.5355339,23.636039 2.8284279,22.928932 z"
     id="path2833" />
  <path
     style="fill:#000000;fill-opacity:1;stroke:none"
     d="m 6.0021749,19.002175 0,-11.0043494 L 0.4999999,13.5 6.0021749,19.002175 z M 5.0078059,16.593592 1.9142139,13.5 l 3.071495,-3.071495 0.0221,6.165087 z"
     id="path2964" />
  <path
     style="fill:#000000;fill-opacity:1;stroke:none"
     d="M -1e-7,20.100505 0,30 9.899495,30 -9.9999999e-8,20.100505 z m 1.016466,2.43068 6.45235,6.452349 -6.45235,0 0,-6.452349 z"
     id="path2997" />
  <path
     style="fill:#ffffff;fill-opacity:1;stroke:none"
     d="m 1.0164659,22.531185 0,6.452349 6.45235,0 -6.45235,-6.452349 z"
     id="path2966" />
  <path
     style="fill:#ffffff;fill-opacity:1;stroke:none"
     d="M 5.0078059,16.593592 4.9857059,10.428505 1.914211,13.5 5.007803,16.593592 z"
     id="path2863" />
  <path
     id="path3199"
     d="M 24.999999,16 C 25,9.9248671 20.075132,4.9999994 13.999999,5.0000001 L 14,5.9999997 C 19.522847,6.0000004 24,10.477153 24,16 l 0,2 1,0 -1e-6,-2 z"
     style="fill:#000000;fill-opacity:1;stroke:none" />
  <path
     style="fill:#ffffff;fill-opacity:1;stroke:none"
     d="M 3.5355339,23.636039 24.041631,3.1299424 26.870058,5.9583696 6.3639609,26.464466 3.5355339,23.636039 z"
     id="rect2821" />
  <path
     id="path3201"
     d="m 14.002174,11.002174 0,-11.00434905 L 8.4999999,5.4999996 14.002174,11.002174 z M 13.007806,8.5935917 9.914213,5.4999996 l 3.071495,-3.0714951 0.0221,6.1650872 z"
     style="fill:#000000;fill-opacity:1;stroke:none" />
  <path
     id="path3203"
     d="m 13.007806,8.5935917 -0.0221,-6.1650872 -3.071495,3.0714951 3.093593,3.0935921 z"
     style="fill:#ffffff;fill-opacity:1;stroke:none" />
</svg>
