<?xml version="1.0" encoding="UTF-8" standalone="no"?>
<svg
   xmlns:dc="http://purl.org/dc/elements/1.1/"
   xmlns:cc="http://creativecommons.org/ns#"
   xmlns:rdf="http://www.w3.org/1999/02/22-rdf-syntax-ns#"
   xmlns:svg="http://www.w3.org/2000/svg"
   xmlns="http://www.w3.org/2000/svg"
   xmlns:sodipodi="http://sodipodi.sourceforge.net/DTD/sodipodi-0.dtd"
   xmlns:inkscape="http://www.inkscape.org/namespaces/inkscape"
   version="1.0"
   width="28"
   height="30"
   id="svg2"
   inkscape:version="0.47 r22583"
   sodipodi:docname="02-03-017-01-02-05.svg">
  <defs
     id="defs16">
    <inkscape:perspective
       sodipodi:type="inkscape:persp3d"
       inkscape:vp_x="0 : 23 : 1"
       inkscape:vp_y="0 : 1000 : 0"
       inkscape:vp_z="36 : 23 : 1"
       inkscape:persp3d-origin="18 : 15.333333 : 1"
       id="perspective18" />
  </defs>
  <sodipodi:namedview
     pagecolor="#ffffff"
     bordercolor="#666666"
     borderopacity="1"
     objecttolerance="10"
     gridtolerance="10"
     guidetolerance="10"
     inkscape:pageopacity="0"
     inkscape:pageshadow="2"
     inkscape:window-width="964"
     inkscape:window-height="721"
     id="namedview14"
     showgrid="true"
     inkscape:zoom="12.64"
     inkscape:cx="14.104638"
     inkscape:cy="14.642031"
     inkscape:window-x="365"
     inkscape:window-y="0"
     inkscape:window-maximized="0"
     inkscape:current-layer="svg2"
     showborder="true">
    <inkscape:grid
       type="xygrid"
       id="grid2824"
       empspacing="5"
       visible="true"
       enabled="true"
       snapvisiblegridlinesonly="true" />
  </sodipodi:namedview>
  <metadata
     id="metadata4">
Valerie Sutton's pixel definition of the
ISWA 2010 symbol ID 04-01-003-01-01-01
transformed by Stephen E Slevinski Jr
using line and fill polygon tracing
<rdf:RDF>
  <cc:Work
     rdf:about="">
    <dc:format>image/svg+xml</dc:format>
    <dc:type
       rdf:resource="http://purl.org/dc/dcmitype/StillImage" />
    <dc:title></dc:title>
  </cc:Work>
</rdf:RDF>
</metadata>
  <path
     style="fill:#000000;fill-opacity:1;stroke:none"
     d="M 24.464466,23.636039 3.9583694,3.1299425 4.6654762,2.4228357 25.171573,22.928932 24.464466,23.636039 z"
     id="path2831" />
  <path
     style="fill:#000000;fill-opacity:1;stroke:none"
     d="M 20.928932,27.171573 0.4228355,6.6654764 1.1299423,5.9583696 21.636039,26.464466 20.928932,27.171573 z"
     id="path2833" />
  <path
     style="fill:#ffffff;fill-opacity:1;stroke:none"
     d="M 21.636039,26.464466 1.1299423,5.9583696 3.9583694,3.1299425 24.464466,23.636039 21.636039,26.464466 z"
     id="rect2821" />
  <path
     style="fill:#000000;fill-opacity:1;stroke:none"
     d="m 1.9999999,16 2.0108349,-0.0221 c 2.2679772,-0.237699 4.5454613,-1.805419 6.3639612,-3.623919 1.8185,-1.8185 3.38622,-4.095985 3.623922,-6.3639612 l 1.016466,0 c 1e-6,2.8151452 -1.078291,5.6302912 -3.226175,7.7781742 -2.1478831,2.147884 -4.9630279,3.226175 -7.7781742,3.226175 l -1.9887378,0 L 2,16 z"
     id="path2910" />
  <path
     style="fill:#000000;fill-opacity:1;stroke:none"
     d="m 9.0047765,5.9900198 11.0043495,0 -5.502175,-5.5021747 -5.5021745,5.5021747 z m 2.4085825,-0.994369 3.093592,-3.0935921 3.071495,3.0714951 -6.165087,0.022097 z"
     id="path2964" />
  <path
     style="fill:#000000;fill-opacity:1;stroke:none"
     d="M 18.100505,30 28,30 28,20.100505 18.100505,30 z m 2.43068,-1.016466 6.452349,-6.452349 0,6.452349 -6.452349,0 z"
     id="path2997" />
  <path
     style="fill:#ffffff;fill-opacity:1;stroke:none"
     d="m 20.531185,28.983534 6.452349,0 0,-6.452349 -6.452349,6.452349 z"
     id="path2966" />
  <path
     style="fill:#ffffff;fill-opacity:1;stroke:none"
     d="M 11.413359,4.9956508 17.578446,4.9735538 14.506951,1.9020587 11.413359,4.9956508 z"
     id="path2863" />
  <path
     id="path3006"
     d="m 9.9999999,24.000003 2.0108341,-0.0221 c 2.267978,-0.237703 4.545462,-1.805423 6.363961,-3.623923 1.8185,-1.818499 3.386221,-4.095984 3.623923,-6.363961 l 1.016466,0 c 0,2.815146 -1.078291,5.630291 -3.226175,7.778175 -2.147883,2.147883 -4.963028,3.226175 -7.778175,3.226175 l -1.988737,0 L 10,24 z"
     style="fill:#000000;fill-opacity:1;stroke:none" />
  <path
     id="path3008"
     d="m 17.004776,13.990022 11.004349,0 -5.502174,-5.502174 -5.502175,5.502174 z m 2.408583,-0.994369 3.093592,-3.093592 3.071495,3.071495 -6.165087,0.0221 z"
     style="fill:#000000;fill-opacity:1;stroke:none" />
  <path
     id="path3010"
     d="m 19.413359,12.995653 6.165087,-0.0221 -3.071495,-3.071495 -3.093592,3.093592 z"
     style="fill:#ffffff;fill-opacity:1;stroke:none" />
</svg>
