<?xml version="1.0" encoding="UTF-8" standalone="no"?>
<svg
   xmlns:dc="http://purl.org/dc/elements/1.1/"
   xmlns:cc="http://creativecommons.org/ns#"
   xmlns:rdf="http://www.w3.org/1999/02/22-rdf-syntax-ns#"
   xmlns:svg="http://www.w3.org/2000/svg"
   xmlns="http://www.w3.org/2000/svg"
   xmlns:sodipodi="http://sodipodi.sourceforge.net/DTD/sodipodi-0.dtd"
   xmlns:inkscape="http://www.inkscape.org/namespaces/inkscape"
   version="1.0"
   width="30"
   height="28"
   id="svg2"
   inkscape:version="0.47 r22583"
   sodipodi:docname="02-03-017-01-03-08.svg">
  <defs
     id="defs16">
    <inkscape:perspective
       sodipodi:type="inkscape:persp3d"
       inkscape:vp_x="0 : 23 : 1"
       inkscape:vp_y="0 : 1000 : 0"
       inkscape:vp_z="36 : 23 : 1"
       inkscape:persp3d-origin="18 : 15.333333 : 1"
       id="perspective18" />
  </defs>
  <sodipodi:namedview
     pagecolor="#ffffff"
     bordercolor="#666666"
     borderopacity="1"
     objecttolerance="10"
     gridtolerance="10"
     guidetolerance="10"
     inkscape:pageopacity="0"
     inkscape:pageshadow="2"
     inkscape:window-width="964"
     inkscape:window-height="721"
     id="namedview14"
     showgrid="true"
     inkscape:zoom="12.64"
     inkscape:cx="16.663665"
     inkscape:cy="11.489141"
     inkscape:window-x="365"
     inkscape:window-y="0"
     inkscape:window-maximized="0"
     inkscape:current-layer="svg2"
     showborder="true">
    <inkscape:grid
       type="xygrid"
       id="grid2824"
       empspacing="5"
       visible="true"
       enabled="true"
       snapvisiblegridlinesonly="true" />
  </sodipodi:namedview>
  <metadata
     id="metadata4">
Valerie Sutton's pixel definition of the
ISWA 2010 symbol ID 04-01-003-01-01-01
transformed by Stephen E Slevinski Jr
using line and fill polygon tracing
<rdf:RDF>
  <cc:Work
     rdf:about="">
    <dc:format>image/svg+xml</dc:format>
    <dc:type
       rdf:resource="http://purl.org/dc/dcmitype/StillImage" />
    <dc:title></dc:title>
  </cc:Work>
</rdf:RDF>
</metadata>
  <path
     style="fill:#000000;fill-opacity:1;stroke:none"
     d="M 20.100506,0 30,0 l 0,9.8994952 -2.010834,-2.010835 0,-5.8778252 -5.877826,0 L 20.100506,0 z"
     id="path2966" />
  <path
     style="fill:#000000;fill-opacity:1;stroke:none"
     d="M 26.464467,6.3639612 5.9583699,26.870058 6.6654767,27.577164 27.171573,7.0710682 26.464467,6.3639612 z"
     id="path2831" />
  <path
     style="fill:#000000;fill-opacity:1;stroke:none"
     d="m 14.002175,-0.0021748 -5.5021744,5.502175 5.5021744,5.5021738 0,-1.4142128 -4.087961,-4.087961 4.087961,-4.0879614 0,-1.4142136 z"
     id="path3018" />
  <path
     style="fill:#000000;fill-opacity:1;stroke:none"
     d="M 25,16 C 25.000001,9.9248672 20.075133,5.0000002 14,5.0000002 l 10e-7,1 C 19.522848,6.0000012 24,10.477153 24.000001,16 L 24,18 25.000001,18 25,16 z"
     id="path3020" />
  <path
     style="fill:#000000;fill-opacity:1;stroke:none"
     d="M 22.928933,2.8284272 2.422836,23.334524 3.1299428,24.04163 23.636039,3.535534 22.928933,2.8284272 z"
     id="path2833" />
  <path
     id="path3480"
     d="M 6.0021746,7.9978252 0.5,13.499999 l 5.5021746,5.502175 0,-1.414214 -4.087961,-4.087961 4.087961,-4.0879608 0,-1.414213 z"
     style="fill:#000000;fill-opacity:1;stroke:none" />
  <path
     id="path3482"
     d="M 16.999999,24 C 17,17.924867 12.075132,12.999999 5.9999996,13 l 7e-7,0.999999 C 11.522847,14 16,18.477153 16.000001,24 l -1e-6,2 1,0 -1e-6,-2 z"
     style="fill:#000000;fill-opacity:1;stroke:none" />
  <path
     style="fill:#ffffff;fill-opacity:1;stroke:none"
     d="M 23.636039,3.535534 3.1299428,24.04163 5.9583699,26.870058 26.464467,6.3639612 23.636039,3.535534 z"
     id="rect2821" />
</svg>
