<?xml version="1.0" encoding="UTF-8" standalone="no"?>
<svg
   xmlns:dc="http://purl.org/dc/elements/1.1/"
   xmlns:cc="http://creativecommons.org/ns#"
   xmlns:rdf="http://www.w3.org/1999/02/22-rdf-syntax-ns#"
   xmlns:svg="http://www.w3.org/2000/svg"
   xmlns="http://www.w3.org/2000/svg"
   xmlns:sodipodi="http://sodipodi.sourceforge.net/DTD/sodipodi-0.dtd"
   xmlns:inkscape="http://www.inkscape.org/namespaces/inkscape"
   version="1.0"
   width="30"
   height="28"
   id="svg2"
   inkscape:version="0.47 r22583"
   sodipodi:docname="02-03-017-01-02-10.svg">
  <defs
     id="defs16">
    <inkscape:perspective
       sodipodi:type="inkscape:persp3d"
       inkscape:vp_x="0 : 23 : 1"
       inkscape:vp_y="0 : 1000 : 0"
       inkscape:vp_z="36 : 23 : 1"
       inkscape:persp3d-origin="18 : 15.333333 : 1"
       id="perspective18" />
  </defs>
  <sodipodi:namedview
     pagecolor="#ffffff"
     bordercolor="#666666"
     borderopacity="1"
     objecttolerance="10"
     gridtolerance="10"
     guidetolerance="10"
     inkscape:pageopacity="0"
     inkscape:pageshadow="2"
     inkscape:window-width="964"
     inkscape:window-height="721"
     id="namedview14"
     showgrid="true"
     inkscape:zoom="12.64"
     inkscape:cx="14.104638"
     inkscape:cy="14.642031"
     inkscape:window-x="365"
     inkscape:window-y="0"
     inkscape:window-maximized="0"
     inkscape:current-layer="svg2"
     showborder="true">
    <inkscape:grid
       type="xygrid"
       id="grid2824"
       empspacing="5"
       visible="true"
       enabled="true"
       snapvisiblegridlinesonly="true" />
  </sodipodi:namedview>
  <metadata
     id="metadata4">
Valerie Sutton's pixel definition of the
ISWA 2010 symbol ID 04-01-003-01-01-01
transformed by Stephen E Slevinski Jr
using line and fill polygon tracing
<rdf:RDF>
  <cc:Work
     rdf:about="">
    <dc:format>image/svg+xml</dc:format>
    <dc:type
       rdf:resource="http://purl.org/dc/dcmitype/StillImage" />
    <dc:title></dc:title>
  </cc:Work>
</rdf:RDF>
</metadata>
  <path
     style="fill:#000000;fill-opacity:1;stroke:none"
     d="M 5.0000005,16.000001 C 4.9999997,9.9248682 9.924868,5 16,5.000001 L 16,6 c -5.522846,1e-6 -10,4.477154 -10.000001,10.000001 L 6,18 l -1.0000003,0 8e-7,-1.999999 z"
     id="path2910" />
  <path
     style="fill:#000000;fill-opacity:1;stroke:none"
     d="M 6.3639605,3.535534 26.870057,24.04163 27.577164,23.334524 7.0710675,2.828427 6.3639605,3.535534 z"
     id="path2831" />
  <path
     style="fill:#000000;fill-opacity:1;stroke:none"
     d="m 15.997825,11.002175 0,-11.004349 L 21.5,5.5 15.997825,11.002175 z M 16.992194,8.593592 20.085786,5.5 17.014291,2.428505 l -0.0221,6.165087 z"
     id="path2964" />
  <path
     style="fill:#000000;fill-opacity:1;stroke:none"
     d="M 0,9.8994952 0,0 9.8994945,0 0,9.8994952 z M 1.016466,7.468815 7.4688155,1.016466 l -6.4523495,0 0,6.452349 z"
     id="path2997" />
  <path
     style="fill:#000000;fill-opacity:1;stroke:none"
     d="M 2.8284271,7.071068 23.334523,27.577164 24.04163,26.870057 3.5355339,6.363961 2.8284271,7.071068 z"
     id="path2833" />
  <path
     style="fill:#ffffff;fill-opacity:1;stroke:none"
     d="m 1.016466,7.468815 0,-6.452349 6.4523495,0 -6.4523495,6.452349 z"
     id="path2966" />
  <path
     style="fill:#ffffff;fill-opacity:1;stroke:none"
     d="M 16.992194,8.593592 17.014294,2.428505 20.085788,5.5 16.992196,8.593592 z"
     id="path2863" />
  <path
     id="path2937"
     d="m 13,24 c -2e-6,-6.075132 4.924866,-11 10.999999,-11 l -10e-7,1 c -5.522847,10e-7 -9.999999,4.477153 -10,10 L 14,26 12.999998,26 13,24 z"
     style="fill:#000000;fill-opacity:1;stroke:none" />
  <path
     style="fill:#ffffff;fill-opacity:1;stroke:none"
     d="M 3.5355339,6.363961 24.04163,26.870057 26.870057,24.04163 6.3639605,3.535534 3.5355339,6.363961 z"
     id="rect2821" />
  <path
     id="path2939"
     d="m 23.997824,19.002174 0,-11.004349 L 29.499998,13.5 23.997824,19.002174 z M 24.992193,16.593592 28.085785,13.5 25.01429,10.428505 l -0.0221,6.165087 z"
     style="fill:#000000;fill-opacity:1;stroke:none" />
  <path
     id="path2941"
     d="m 24.992193,16.593592 0.0221,-6.165087 3.071495,3.071495 -3.093592,3.093592 z"
     style="fill:#ffffff;fill-opacity:1;stroke:none" />
</svg>
