<?xml version="1.0" encoding="UTF-8" standalone="no"?>
<svg
   xmlns:dc="http://purl.org/dc/elements/1.1/"
   xmlns:cc="http://creativecommons.org/ns#"
   xmlns:rdf="http://www.w3.org/1999/02/22-rdf-syntax-ns#"
   xmlns:svg="http://www.w3.org/2000/svg"
   xmlns="http://www.w3.org/2000/svg"
   xmlns:sodipodi="http://sodipodi.sourceforge.net/DTD/sodipodi-0.dtd"
   xmlns:inkscape="http://www.inkscape.org/namespaces/inkscape"
   version="1.0"
   width="28"
   height="30"
   id="svg2"
   inkscape:version="0.47 r22583"
   sodipodi:docname="02-03-017-01-02-08.svg">
  <defs
     id="defs16">
    <inkscape:perspective
       sodipodi:type="inkscape:persp3d"
       inkscape:vp_x="0 : 23 : 1"
       inkscape:vp_y="0 : 1000 : 0"
       inkscape:vp_z="36 : 23 : 1"
       inkscape:persp3d-origin="18 : 15.333333 : 1"
       id="perspective18" />
  </defs>
  <sodipodi:namedview
     pagecolor="#ffffff"
     bordercolor="#666666"
     borderopacity="1"
     objecttolerance="10"
     gridtolerance="10"
     guidetolerance="10"
     inkscape:pageopacity="0"
     inkscape:pageshadow="2"
     inkscape:window-width="964"
     inkscape:window-height="721"
     id="namedview14"
     showgrid="true"
     inkscape:zoom="12.64"
     inkscape:cx="14.104638"
     inkscape:cy="14.642031"
     inkscape:window-x="365"
     inkscape:window-y="0"
     inkscape:window-maximized="0"
     inkscape:current-layer="svg2"
     showborder="true">
    <inkscape:grid
       type="xygrid"
       id="grid2824"
       empspacing="5"
       visible="true"
       enabled="true"
       snapvisiblegridlinesonly="true" />
  </sodipodi:namedview>
  <metadata
     id="metadata4">
Valerie Sutton's pixel definition of the
ISWA 2010 symbol ID 04-01-003-01-01-01
transformed by Stephen E Slevinski Jr
using line and fill polygon tracing
<rdf:RDF>
  <cc:Work
     rdf:about="">
    <dc:format>image/svg+xml</dc:format>
    <dc:type
       rdf:resource="http://purl.org/dc/dcmitype/StillImage" />
    <dc:title></dc:title>
  </cc:Work>
</rdf:RDF>
</metadata>
  <path
     style="fill:#000000;fill-opacity:1;stroke:none"
     d="M 24.002175,13.000001 C 17.927042,13 13.002174,17.924868 13.002175,24 l 0.999999,-1e-6 c 10e-7,-5.522846 4.477154,-9.999999 10.000001,-10 l 2,10e-7 0,-1 -2,10e-7 z"
     id="path2910" />
  <path
     style="fill:#000000;fill-opacity:1;stroke:none"
     d="M 6.366136,3.535534 26.872233,24.04163 27.57934,23.334524 7.073243,2.828427 6.366136,3.535534 z"
     id="path2831" />
  <path
     style="fill:#000000;fill-opacity:1;stroke:none"
     d="M 19.004349,23.997825 8,23.997825 13.502174,29.5 19.004349,23.997825 z m -2.408583,0.994369 -3.093592,3.093592 -3.071495,-3.071495 6.165087,-0.0221 z"
     id="path2964" />
  <path
     style="fill:#000000;fill-opacity:1;stroke:none"
     d="M 0.0021754,9.899495 0.0021754,0 9.9016702,0 0.0021754,9.899495 z m 1.016466,-2.43068 6.4523496,-6.452349 -6.4523496,0 0,6.452349 z"
     id="path2997" />
  <path
     style="fill:#000000;fill-opacity:1;stroke:none"
     d="M 2.8306025,7.071068 23.336699,27.577164 24.043806,26.870057 3.5377093,6.363961 2.8306025,7.071068 z"
     id="path2833" />
  <path
     style="fill:#ffffff;fill-opacity:1;stroke:none"
     d="m 1.0186414,7.468815 0,-6.452349 6.4523496,0 -6.4523496,6.452349 z"
     id="path2966" />
  <path
     style="fill:#ffffff;fill-opacity:1;stroke:none"
     d="m 16.595766,24.992194 -6.165087,0.0221 3.071495,3.071495 3.093592,-3.093592 z"
     id="path2863" />
  <path
     id="path3075"
     d="m 16.002175,5 c -6.0751328,-1e-6 -11,4.924867 -11,11 l 1,-10e-7 c 1e-6,-5.522847 4.477153,-9.999999 10,-10 l 2,1e-6 0,-1.000001 -2,1e-6 z"
     style="fill:#000000;fill-opacity:1;stroke:none" />
  <path
     style="fill:#ffffff;fill-opacity:1;stroke:none"
     d="M 3.5377093,6.363961 24.043806,26.870057 26.872233,24.04163 6.366136,3.535534 3.5377093,6.363961 z"
     id="rect2821" />
  <path
     id="path3077"
     d="m 11.004349,15.997825 -11.004349,0 5.502175,5.502174 5.502174,-5.502174 z m -2.4085818,0.994369 -3.0935922,3.093592 -3.0714954,-3.071495 6.1650876,-0.0221 z"
     style="fill:#000000;fill-opacity:1;stroke:none" />
  <path
     id="path3079"
     d="m 8.5957672,16.992194 -6.1650876,0.0221 3.0714954,3.071495 3.0935922,-3.093592 z"
     style="fill:#ffffff;fill-opacity:1;stroke:none" />
</svg>
