<?xml version="1.0" encoding="UTF-8" standalone="no"?>
<svg
   xmlns:dc="http://purl.org/dc/elements/1.1/"
   xmlns:cc="http://creativecommons.org/ns#"
   xmlns:rdf="http://www.w3.org/1999/02/22-rdf-syntax-ns#"
   xmlns:svg="http://www.w3.org/2000/svg"
   xmlns="http://www.w3.org/2000/svg"
   xmlns:sodipodi="http://sodipodi.sourceforge.net/DTD/sodipodi-0.dtd"
   xmlns:inkscape="http://www.inkscape.org/namespaces/inkscape"
   version="1.0"
   width="35"
   height="35"
   id="svg2"
   inkscape:version="0.47 r22583"
   sodipodi:docname="04-01-002-01-02-01.svg">
  <defs
     id="defs14">
    <inkscape:perspective
       sodipodi:type="inkscape:persp3d"
       inkscape:vp_x="0 : 17.5 : 1"
       inkscape:vp_y="0 : 1000 : 0"
       inkscape:vp_z="36 : 17.5 : 1"
       inkscape:persp3d-origin="18 : 11.666667 : 1"
       id="perspective16" />
  </defs>
  <sodipodi:namedview
     pagecolor="#ffffff"
     bordercolor="#666666"
     borderopacity="1"
     objecttolerance="10"
     gridtolerance="10"
     guidetolerance="10"
     inkscape:pageopacity="0"
     inkscape:pageshadow="2"
     inkscape:window-width="946"
     inkscape:window-height="791"
     id="namedview12"
     showgrid="true"
     inkscape:zoom="13.49"
     inkscape:cx="19.289521"
     inkscape:cy="17.935591"
     inkscape:window-x="0"
     inkscape:window-y="0"
     inkscape:window-maximized="0"
     inkscape:current-layer="svg2">
    <inkscape:grid
       type="xygrid"
       id="grid2822" />
  </sodipodi:namedview>
  <metadata
     id="metadata4">
Valerie Sutton's pixel definition of the
ISWA 2010 symbol ID 04-01-002-01-01-01
transformed by Stephen E Slevinski Jr
using line and fill polygon tracing
<rdf:RDF>
  <cc:Work
     rdf:about="">
    <dc:format>image/svg+xml</dc:format>
    <dc:type
       rdf:resource="http://purl.org/dc/dcmitype/StillImage" />
    <dc:title />
  </cc:Work>
</rdf:RDF>
</metadata>
  <path
     style="fill:#000000;fill-opacity:1;stroke:none"
     d="M 17.5,0 C 7.8350169,0 0,7.8350169 0,17.5 0,27.164983 7.8350169,35 17.5,35 27.164983,35 35,27.164983 35,17.5 35,7.8350169 27.164983,0 17.5,0 z m 0,1.5 c 8.836556,0 16,7.163444 16,16 0,8.836556 -7.163444,16 -16,16 -8.836556,0 -16,-7.163444 -16,-16 0,-8.836556 7.163444,-16 16,-16 z"
     id="path2824" />
  <path
     style="fill:#000000;fill-opacity:1;stroke:none"
     d="M 11.224427,1.1923499 C 11.12371,1.2310249 11.0152,1.2401331 10.915068,1.2807382 10.554834,1.4268193 10.228316,1.6621044 9.876505,1.8331654 11.195824,4.1263644 10.97485,7.0545875 9.0147186,9.0147186 7.0545875,10.97485 4.1263644,11.195824 1.8331654,9.876505 c -0.171061,0.351811 -0.4063461,0.678329 -0.5524272,1.038563 -0.040605,0.100132 -0.049713,0.208642 -0.088388,0.309359 2.8505051,1.573445 6.4654407,1.26854 8.8830291,-1.149048 2.417588,-2.4175884 2.722493,-6.032524 1.149048,-8.8830291 z"
     id="path2862" />
</svg>
