<?xml version="1.0" encoding="UTF-8" standalone="no"?>
<svg
   xmlns:dc="http://purl.org/dc/elements/1.1/"
   xmlns:cc="http://creativecommons.org/ns#"
   xmlns:rdf="http://www.w3.org/1999/02/22-rdf-syntax-ns#"
   xmlns:svg="http://www.w3.org/2000/svg"
   xmlns="http://www.w3.org/2000/svg"
   xmlns:sodipodi="http://sodipodi.sourceforge.net/DTD/sodipodi-0.dtd"
   xmlns:inkscape="http://www.inkscape.org/namespaces/inkscape"
   version="1.0"
   width="35"
   height="35"
   id="svg2"
   inkscape:version="0.47 r22583"
   sodipodi:docname="04-01-002-01-01-01.svg">
  <defs
     id="defs14">
    <inkscape:perspective
       sodipodi:type="inkscape:persp3d"
       inkscape:vp_x="0 : 17.5 : 1"
       inkscape:vp_y="0 : 1000 : 0"
       inkscape:vp_z="36 : 17.5 : 1"
       inkscape:persp3d-origin="18 : 11.666667 : 1"
       id="perspective16" />
  </defs>
  <sodipodi:namedview
     pagecolor="#ffffff"
     objecttolerance="10"
     inkscape:pageopacity="0"
     inkscape:window-width="946"
     inkscape:window-height="791"
     showgrid="true"
     inkscape:window-maximized="0"
     inkscape:window-x="0"
     inkscape:window-y="0"
     inkscape:zoom="13.49"
     inkscape:pageshadow="2"
     inkscape:cx="19.289521"
     inkscape:cy="17.282205"
     inkscape:current-layer="svg2"
     id="namedview12"
     guidetolerance="10"
     gridtolerance="10"
     borderopacity="1"
     bordercolor="#666666"
     inkscape:showpageshadow="true"
     showborder="true">
    <inkscape:grid
       type="xygrid"
       id="grid2822"
       empspacing="5"
       visible="true"
       enabled="true"
       snapvisiblegridlinesonly="true" />
  </sodipodi:namedview>
  <metadata
     id="metadata4">
Valerie Sutton's pixel definition of the
ISWA 2010 symbol ID 04-01-002-01-01-01
transformed by Stephen E Slevinski Jr
using line and fill polygon tracing
<rdf:RDF>
  <cc:Work
     rdf:about="">
    <dc:format>image/svg+xml</dc:format>
    <dc:type
       rdf:resource="http://purl.org/dc/dcmitype/StillImage" />
    <dc:title />
  </cc:Work>
</rdf:RDF>
</metadata>
  <path
     style="fill:#000000;fill-opacity:1;stroke:none"
     d="M 17.5 0 C 7.8350169 4.7369516e-15 0 7.8350169 0 17.5 C 0 27.164983 7.8350169 35 17.5 35 C 27.164983 35 35 27.164983 35 17.5 C 35 7.8350169 27.164983 -2.3684758e-15 17.5 0 z M 17.5 1.5 C 26.336556 1.5 33.5 8.663444 33.5 17.5 C 33.5 26.336556 26.336556 33.5 17.5 33.5 C 8.663444 33.5 1.5 26.336556 1.5 17.5 C 1.5 8.663444 8.663444 1.5 17.5 1.5 z "
     id="path2824" />
  <path
     style="fill:#000000;fill-opacity:1;stroke:none"
     d="M 24.59375 1.53125 C 24.495185 1.4873797 24.412016 1.4170917 24.3125 1.375 C 23.954481 1.2235708 23.557226 1.1590592 23.1875 1.03125 C 22.498863 3.5856862 20.272044 5.5 17.5 5.5 C 14.727956 5.5 12.501137 3.5856862 11.8125 1.03125 C 11.442774 1.1590592 11.045519 1.2235708 10.6875 1.375 C 10.587984 1.4170917 10.504815 1.4873797 10.40625 1.53125 C 11.309268 4.659455 14.081014 7 17.5 7 C 20.918986 7 23.690732 4.659455 24.59375 1.53125 z "
     id="path2891" />
  <path
     id="path2878"
     d="M 17.5 0 C 7.8350169 4.7369516e-15 0 7.8350169 0 17.5 C 0 27.164983 7.8350169 35 17.5 35 C 27.164983 35 35 27.164983 35 17.5 C 35 7.8350169 27.164983 -2.3684758e-15 17.5 0 z M 17.5 1.5 C 26.336556 1.5 33.5 8.663444 33.5 17.5 C 33.5 26.336556 26.336556 33.5 17.5 33.5 C 8.663444 33.5 1.5 26.336556 1.5 17.5 C 1.5 8.663444 8.663444 1.5 17.5 1.5 z "
     style="fill:#000000;fill-opacity:1;stroke:none" />
</svg>
