<?xml version="1.0" encoding="UTF-8" standalone="no"?>
<svg
   xmlns:dc="http://purl.org/dc/elements/1.1/"
   xmlns:cc="http://creativecommons.org/ns#"
   xmlns:rdf="http://www.w3.org/1999/02/22-rdf-syntax-ns#"
   xmlns:svg="http://www.w3.org/2000/svg"
   xmlns="http://www.w3.org/2000/svg"
   xmlns:sodipodi="http://sodipodi.sourceforge.net/DTD/sodipodi-0.dtd"
   xmlns:inkscape="http://www.inkscape.org/namespaces/inkscape"
   version="1.0"
   width="28"
   height="33"
   id="svg2"
   inkscape:version="0.47 r22583"
   sodipodi:docname="02-06-003-01-04-01.svg">
  <defs
     id="defs16">
    <inkscape:perspective
       sodipodi:type="inkscape:persp3d"
       inkscape:vp_x="0 : 23 : 1"
       inkscape:vp_y="0 : 1000 : 0"
       inkscape:vp_z="36 : 23 : 1"
       inkscape:persp3d-origin="18 : 15.333333 : 1"
       id="perspective18" />
  </defs>
  <sodipodi:namedview
     pagecolor="#ffffff"
     bordercolor="#666666"
     borderopacity="1"
     objecttolerance="10"
     gridtolerance="10"
     guidetolerance="10"
     inkscape:pageopacity="0"
     inkscape:pageshadow="2"
     inkscape:window-width="964"
     inkscape:window-height="721"
     id="namedview14"
     showgrid="true"
     inkscape:zoom="14.333333"
     inkscape:cx="14"
     inkscape:cy="16.5"
     inkscape:window-x="365"
     inkscape:window-y="0"
     inkscape:window-maximized="0"
     inkscape:current-layer="svg2"
     showborder="true">
    <inkscape:grid
       type="xygrid"
       id="grid2824"
       empspacing="5"
       visible="true"
       enabled="true"
       snapvisiblegridlinesonly="true" />
  </sodipodi:namedview>
  <metadata
     id="metadata4">
Valerie Sutton's pixel definition of the
ISWA 2010 symbol ID 04-01-003-01-01-01
transformed by Stephen E Slevinski Jr
using line and fill polygon tracing
<rdf:RDF>
  <cc:Work
     rdf:about="">
    <dc:format>image/svg+xml</dc:format>
    <dc:type
       rdf:resource="http://purl.org/dc/dcmitype/StillImage" />
    <dc:title></dc:title>
  </cc:Work>
</rdf:RDF>
</metadata>
  <path
     style="fill:#000000;fill-opacity:1;stroke:none"
     d="M 13 0 L 5.5 7.5 L 13 15 L 13 0 z "
     id="path2994" />
  <path
     style="fill:#000000;fill-opacity:1;stroke:none"
     d="M 13 4 L 13 5.5 L 14 5.5 C 20.903559 5.5 26.5 11.096441 26.5 18 L 26.5 19 C 26.5 25.903559 20.903559 31.5 14 31.5 C 7.0964406 31.5 1.5 25.903559 1.5 19 L 1.5 18 L 0 18 L 0 19 C 0 26.731986 6.2680135 33 14 33 C 21.731986 33 28 26.731986 28 19 L 28 18 C 28 10.268014 21.731986 4 14 4 L 13 4 z "
     id="path3033" />
  <path
     style="fill:#ffffff;fill-opacity:1;stroke:none"
     d="M 13 5.5 L 13 9.5 L 14 9.5 C 18.69442 9.5 22.5 13.30558 22.5 18 L 22.5 19 C 22.5 23.69442 18.69442 27.5 14 27.5 C 9.3055796 27.5 5.5 23.69442 5.5 19 L 5.5 18 L 1.5 18 L 1.5 19 C 1.5 25.903559 7.0964406 31.5 14 31.5 C 20.903559 31.5 26.5 25.903559 26.5 19 L 26.5 18 C 26.5 11.096441 20.903559 5.5 14 5.5 L 13 5.5 z "
     id="path3030" />
  <path
     style="fill:#000000;fill-opacity:1;stroke:none"
     d="M 13 9.5 L 13 11 L 14 11 C 17.865993 11 21 14.134007 21 18 L 21 19 C 21 22.865993 17.865993 26 14 26 C 10.134007 26 7 22.865993 7 19 L 7 18 L 5.5 18 L 5.5 19 C 5.5 23.69442 9.3055796 27.5 14 27.5 C 18.69442 27.5 22.5 23.69442 22.5 19 L 22.5 18 C 22.5 13.30558 18.69442 9.5 14 9.5 L 13 9.5 z "
     id="path3036" />
</svg>
