<?xml version="1.0" encoding="UTF-8" standalone="no"?>
<svg
   xmlns:dc="http://purl.org/dc/elements/1.1/"
   xmlns:cc="http://creativecommons.org/ns#"
   xmlns:rdf="http://www.w3.org/1999/02/22-rdf-syntax-ns#"
   xmlns:svg="http://www.w3.org/2000/svg"
   xmlns="http://www.w3.org/2000/svg"
   xmlns:sodipodi="http://sodipodi.sourceforge.net/DTD/sodipodi-0.dtd"
   xmlns:inkscape="http://www.inkscape.org/namespaces/inkscape"
   version="1.0"
   width="28"
   height="29"
   id="svg2"
   inkscape:version="0.47 r22583"
   sodipodi:docname="02-06-003-02-02-01.svg">
  <defs
     id="defs16">
    <inkscape:perspective
       sodipodi:type="inkscape:persp3d"
       inkscape:vp_x="0 : 23 : 1"
       inkscape:vp_y="0 : 1000 : 0"
       inkscape:vp_z="36 : 23 : 1"
       inkscape:persp3d-origin="18 : 15.333333 : 1"
       id="perspective18" />
  </defs>
  <sodipodi:namedview
     pagecolor="#ffffff"
     bordercolor="#666666"
     borderopacity="1"
     objecttolerance="10"
     gridtolerance="10"
     guidetolerance="10"
     inkscape:pageopacity="0"
     inkscape:pageshadow="2"
     inkscape:window-width="964"
     inkscape:window-height="721"
     id="namedview14"
     showgrid="true"
     inkscape:zoom="16.310345"
     inkscape:cx="14"
     inkscape:cy="14.5"
     inkscape:window-x="365"
     inkscape:window-y="0"
     inkscape:window-maximized="0"
     inkscape:current-layer="svg2"
     showborder="true">
    <inkscape:grid
       type="xygrid"
       id="grid2824"
       empspacing="5"
       visible="true"
       enabled="true"
       snapvisiblegridlinesonly="true" />
  </sodipodi:namedview>
  <metadata
     id="metadata4">
Valerie Sutton's pixel definition of the
ISWA 2010 symbol ID 04-01-003-01-01-01
transformed by Stephen E Slevinski Jr
using line and fill polygon tracing
<rdf:RDF>
  <cc:Work
     rdf:about="">
    <dc:format>image/svg+xml</dc:format>
    <dc:type
       rdf:resource="http://purl.org/dc/dcmitype/StillImage" />
    <dc:title></dc:title>
  </cc:Work>
</rdf:RDF>
</metadata>
  <path
     style="fill:#000000;fill-opacity:1;stroke:none"
     d="m 13,0 0,1.5 1,0 c 6.903559,0 12.5,5.596441 12.5,12.5 l 0,1 C 26.5,21.903559 20.903559,27.5 14,27.5 7.0964406,27.5 1.5,21.903559 1.5,15 l 0,-1 -1.5,0 0,1 c 0,7.731986 6.2680135,14 14,14 7.731986,0 14,-6.268014 14,-14 l 0,-1 C 28,6.268014 21.731986,0 14,0 l -1,0 z"
     id="path3033" />
  <path
     style="fill:#ffffff;fill-opacity:1;stroke:none"
     d="m 13,1.5 0,4 1,0 c 4.69442,0 8.5,3.80558 8.5,8.5 l 0,1 c 0,4.69442 -3.80558,8.5 -8.5,8.5 -4.6944204,0 -8.5,-3.80558 -8.5,-8.5 l 0,-1 -4,0 0,1 c 0,6.903559 5.5964406,12.5 12.5,12.5 6.903559,0 12.5,-5.596441 12.5,-12.5 l 0,-1 C 26.5,7.096441 20.903559,1.5 14,1.5 l -1,0 z"
     id="path3030" />
  <path
     style="fill:#000000;fill-opacity:1;stroke:none"
     d="m 13,5.5 0,1.5 1,0 c 3.865993,0 7,3.134007 7,7 l 0,1 c 0,3.865993 -3.134007,7 -7,7 -3.865993,0 -7,-3.134007 -7,-7 l 0,-1 -1.5,0 0,1 c 0,4.69442 3.8055796,8.5 8.5,8.5 4.69442,0 8.5,-3.80558 8.5,-8.5 l 0,-1 C 22.5,9.30558 18.69442,5.5 14,5.5 l -1,0 z"
     id="path3036" />
</svg>
