<?xml version="1.0" encoding="UTF-8" standalone="no"?>
<svg
   xmlns:dc="http://purl.org/dc/elements/1.1/"
   xmlns:cc="http://creativecommons.org/ns#"
   xmlns:rdf="http://www.w3.org/1999/02/22-rdf-syntax-ns#"
   xmlns:svg="http://www.w3.org/2000/svg"
   xmlns="http://www.w3.org/2000/svg"
   xmlns:sodipodi="http://sodipodi.sourceforge.net/DTD/sodipodi-0.dtd"
   xmlns:inkscape="http://www.inkscape.org/namespaces/inkscape"
   version="1.0"
   width="62"
   height="16"
   id="svg2"
   inkscape:version="0.47 r22583"
   sodipodi:docname="05-01-003-01-03-07.svg">
  <defs
     id="defs14">
    <inkscape:perspective
       sodipodi:type="inkscape:persp3d"
       inkscape:vp_x="0 : 5.5 : 1"
       inkscape:vp_y="0 : 1000 : 0"
       inkscape:vp_z="10 : 5.5 : 1"
       inkscape:persp3d-origin="5 : 3.6666667 : 1"
       id="perspective16" />
  </defs>
  <sodipodi:namedview
     pagecolor="#ffffff"
     bordercolor="#666666"
     borderopacity="1"
     objecttolerance="10"
     gridtolerance="10"
     guidetolerance="10"
     inkscape:pageopacity="0"
     inkscape:pageshadow="2"
     inkscape:window-width="917"
     inkscape:window-height="792"
     id="namedview12"
     showgrid="true"
     inkscape:zoom="13.16129"
     inkscape:cx="31"
     inkscape:cy="8"
     inkscape:window-x="313"
     inkscape:window-y="0"
     inkscape:window-maximized="0"
     inkscape:current-layer="svg2"
     showborder="true"
     inkscape:showpageshadow="true">
    <inkscape:grid
       type="xygrid"
       id="grid2822"
       empspacing="5"
       visible="true"
       enabled="true"
       snapvisiblegridlinesonly="true" />
  </sodipodi:namedview>
  <metadata
     id="metadata4">
Valerie Sutton's pixel definition of the
ISWA 2010 symbol ID 02-01-001-01-01-01
transformed by Stephen E Slevinski Jr
using line and fill polygon tracing
<rdf:RDF>
  <cc:Work
     rdf:about="">
    <dc:format>image/svg+xml</dc:format>
    <dc:type
       rdf:resource="http://purl.org/dc/dcmitype/StillImage" />
    <dc:title></dc:title>
  </cc:Work>
</rdf:RDF>
</metadata>
  <path
     style="fill:#000000;fill-opacity:1;stroke:none"
     d="m 62,6 -42,0 0,4 42,0 0,-4 z"
     id="rect2813" />
  <path
     style="fill:#000000;fill-opacity:1;stroke:none"
     d="M 0,11 5,16 5.71875,15.28125 1.4375,11 5.71875,6.71875 5,6 0,11 z"
     id="path2813" />
  <path
     style="fill:#000000;fill-opacity:1;stroke:none"
     d="m 4,13 0,-1 6,0 0,1 -6,0 z"
     id="rect2815" />
  <path
     style="fill:#000000;fill-opacity:1;stroke:none"
     d="m 4,10 0,-1 6,0 0,1 -6,0 z"
     id="rect2817" />
  <path
     id="path3262"
     d="M 18,5 13,10 12.28125,9.28125 16.5625,5 12.28125,0.71875 13,0 18,5 z"
     style="fill:#000000;fill-opacity:1;stroke:none" />
  <path
     id="path3264"
     d="M 14,7 14,6 8,6 8,7 14,7 z"
     style="fill:#000000;fill-opacity:1;stroke:none" />
  <path
     id="path3266"
     d="M 14,4 14,3 8,3 8,4 14,4 z"
     style="fill:#000000;fill-opacity:1;stroke:none" />
</svg>
