<?xml version="1.0" encoding="UTF-8" standalone="no"?>
<svg
   xmlns:dc="http://purl.org/dc/elements/1.1/"
   xmlns:cc="http://creativecommons.org/ns#"
   xmlns:rdf="http://www.w3.org/1999/02/22-rdf-syntax-ns#"
   xmlns:svg="http://www.w3.org/2000/svg"
   xmlns="http://www.w3.org/2000/svg"
   xmlns:sodipodi="http://sodipodi.sourceforge.net/DTD/sodipodi-0.dtd"
   xmlns:inkscape="http://www.inkscape.org/namespaces/inkscape"
   version="1.0"
   width="58"
   height="23"
   id="svg2"
   inkscape:version="0.47 r22583"
   sodipodi:docname="05-01-003-01-04-06.svg">
  <defs
     id="defs14">
    <inkscape:perspective
       sodipodi:type="inkscape:persp3d"
       inkscape:vp_x="0 : 5.5 : 1"
       inkscape:vp_y="0 : 1000 : 0"
       inkscape:vp_z="10 : 5.5 : 1"
       inkscape:persp3d-origin="5 : 3.6666667 : 1"
       id="perspective16" />
  </defs>
  <sodipodi:namedview
     pagecolor="#ffffff"
     bordercolor="#666666"
     borderopacity="1"
     objecttolerance="10"
     gridtolerance="10"
     guidetolerance="10"
     inkscape:pageopacity="0"
     inkscape:pageshadow="2"
     inkscape:window-width="917"
     inkscape:window-height="792"
     id="namedview12"
     showgrid="true"
     inkscape:zoom="14.068966"
     inkscape:cx="29"
     inkscape:cy="11.5"
     inkscape:window-x="313"
     inkscape:window-y="0"
     inkscape:window-maximized="0"
     inkscape:current-layer="svg2"
     showborder="true"
     inkscape:showpageshadow="true"
     inkscape:snap-center="false"
     inkscape:snap-object-midpoints="false">
    <inkscape:grid
       type="xygrid"
       id="grid2822"
       empspacing="5"
       visible="true"
       enabled="true"
       snapvisiblegridlinesonly="true" />
  </sodipodi:namedview>
  <metadata
     id="metadata4">
Valerie Sutton's pixel definition of the
ISWA 2010 symbol ID 02-01-001-01-01-01
transformed by Stephen E Slevinski Jr
using line and fill polygon tracing
<rdf:RDF>
  <cc:Work
     rdf:about="">
    <dc:format>image/svg+xml</dc:format>
    <dc:type
       rdf:resource="http://purl.org/dc/dcmitype/StillImage" />
    <dc:title></dc:title>
  </cc:Work>
</rdf:RDF>
</metadata>
  <path
     style="fill:#000000;fill-opacity:1;stroke:none"
     d="m 42,19 -42,0 0,-4 42,0 0,4 z"
     id="rect2813" />
  <path
     style="fill:#000000;fill-opacity:1;stroke:none"
     d="m 58,14 0,7.071068 -1.016466,0 0,-6.054602 -6.054602,0 0,-1.016466 L 58,14 z"
     id="path2813" />
  <path
     style="fill:#000000;fill-opacity:1;stroke:none"
     d="m 56.585786,18.242641 -0.707106,-0.707107 -4.242641,4.242641 0.707107,0.707106 4.24264,-4.24264 z"
     id="rect2815" />
  <path
     style="fill:#000000;fill-opacity:1;stroke:none"
     d="m 54.464466,16.12132 -0.707107,-0.707106 -4.24264,4.24264 0.707106,0.707107 4.242641,-4.242641 z"
     id="rect2817" />
  <path
     id="path2836"
     d="m 51,7 0,7.071068 -1.016466,0 0,-6.054602 -6.054602,0 L 43.928932,7 51,7 z"
     style="fill:#000000;fill-opacity:1;stroke:none" />
  <path
     id="path2838"
     d="m 49.585786,11.242641 -0.707106,-0.707107 -4.242641,4.242641 0.707107,0.707106 4.24264,-4.24264 z"
     style="fill:#000000;fill-opacity:1;stroke:none" />
  <path
     id="path2840"
     d="m 47.464466,9.12132 -0.707107,-0.707106 -4.24264,4.24264 0.707106,0.707107 4.242641,-4.242641 z"
     style="fill:#000000;fill-opacity:1;stroke:none" />
  <path
     style="fill:#000000;fill-opacity:1;stroke:none"
     d="M 44,-0.071068 44,7 l -1.016466,0 0,-6.054602 -6.054602,0 0,-1.016466 7.071068,0 z"
     id="path3220" />
  <path
     style="fill:#000000;fill-opacity:1;stroke:none"
     d="m 42.585786,4.171573 -0.707106,-0.707107 -4.242641,4.242641 0.707107,0.707106 4.24264,-4.24264 z"
     id="path3222" />
  <path
     style="fill:#000000;fill-opacity:1;stroke:none"
     d="m 40.464466,2.050252 -0.707107,-0.707106 -4.24264,4.24264 0.707106,0.707107 4.242641,-4.242641 z"
     id="path3224" />
</svg>
