<?xml version="1.0" encoding="UTF-8" standalone="no"?>
<svg
   xmlns:dc="http://purl.org/dc/elements/1.1/"
   xmlns:cc="http://creativecommons.org/ns#"
   xmlns:rdf="http://www.w3.org/1999/02/22-rdf-syntax-ns#"
   xmlns:svg="http://www.w3.org/2000/svg"
   xmlns="http://www.w3.org/2000/svg"
   xmlns:sodipodi="http://sodipodi.sourceforge.net/DTD/sodipodi-0.dtd"
   xmlns:inkscape="http://www.inkscape.org/namespaces/inkscape"
   version="1.0"
   width="14"
   height="6"
   id="svg2"
   inkscape:version="0.47 r22583"
   sodipodi:docname="02-02-005-02-01-03.svg">
  <defs
     id="defs14">
    <inkscape:perspective
       sodipodi:type="inkscape:persp3d"
       inkscape:vp_x="0 : 5.5 : 1"
       inkscape:vp_y="0 : 1000 : 0"
       inkscape:vp_z="10 : 5.5 : 1"
       inkscape:persp3d-origin="5 : 3.6666667 : 1"
       id="perspective16" />
  </defs>
  <sodipodi:namedview
     pagecolor="#ffffff"
     bordercolor="#666666"
     borderopacity="1"
     objecttolerance="10"
     gridtolerance="10"
     guidetolerance="10"
     inkscape:pageopacity="0"
     inkscape:pageshadow="2"
     inkscape:window-width="917"
     inkscape:window-height="792"
     id="namedview12"
     showgrid="true"
     inkscape:zoom="18.681011"
     inkscape:cx="7.2638487"
     inkscape:cy="0.39828389"
     inkscape:window-x="313"
     inkscape:window-y="0"
     inkscape:window-maximized="0"
     inkscape:current-layer="svg2">
    <inkscape:grid
       type="xygrid"
       id="grid2822" />
  </sodipodi:namedview>
  <metadata
     id="metadata4">
Valerie Sutton's pixel definition of the
ISWA 2010 symbol ID 02-01-001-01-01-01
transformed by Stephen E Slevinski Jr
using line and fill polygon tracing
<rdf:RDF>
  <cc:Work
     rdf:about="">
    <dc:format>image/svg+xml</dc:format>
    <dc:type
       rdf:resource="http://purl.org/dc/dcmitype/StillImage" />
    <dc:title></dc:title>
  </cc:Work>
</rdf:RDF>
</metadata>
  <path
     style="fill:#000000;fill-opacity:1;stroke:none"
     d="M 3,0 C 1.3431458,0 0,1.343146 0,3 0,4.656854 1.3431458,6 3,6 4.6568543,6 6,4.656854 6,3 6,1.343146 4.6568543,0 3,0 z M 3,1 C 4.1045695,1 5,1.8954305 5,3 5,4.104569 4.1045695,5 3,5 1.8954305,5 1,4.104569 1,3 1,1.8954305 1.8954305,1 3,1 z"
     id="path3529" />
  <path
     style="fill:#000000;fill-opacity:1;stroke:none"
     d="M 11,0 C 9.3431458,0 8,1.343146 8,3 8,4.656854 9.3431458,6 11,6 12.656854,6 14,4.656854 14,3 14,1.343146 12.656854,0 11,0 z m 0,1 c 1.104569,0 2,0.8954305 2,2 0,1.10457 -0.895431,2 -2,2 C 9.8954305,5 9,4.10457 9,3 9,1.8954305 9.8954305,1 11,1 z"
     id="path3578" />
  <path
     style="fill:#ffffff;fill-opacity:1;stroke:none"
     d="M 3,1 C 1.8954305,1 1,1.8954305 1,3 1,4.104569 1.8954305,5 3,5 4.1045695,5 5,4.104569 5,3 5,1.8954305 4.1045695,1 3,1 z"
     id="path3988" />
  <path
     style="fill:#ffffff;fill-opacity:1;stroke:none"
     d="M 11,1 C 9.8954305,1 9,1.8954305 9,3 9,4.10457 9.8954305,5 11,5 12.104569,5 13,4.10457 13,3 13,1.8954305 12.104569,1 11,1 z"
     id="path3990" />
</svg>
