<?xml version="1.0" encoding="UTF-8" standalone="no"?>
<svg
   xmlns:dc="http://purl.org/dc/elements/1.1/"
   xmlns:cc="http://creativecommons.org/ns#"
   xmlns:rdf="http://www.w3.org/1999/02/22-rdf-syntax-ns#"
   xmlns:svg="http://www.w3.org/2000/svg"
   xmlns="http://www.w3.org/2000/svg"
   xmlns:sodipodi="http://sodipodi.sourceforge.net/DTD/sodipodi-0.dtd"
   xmlns:inkscape="http://www.inkscape.org/namespaces/inkscape"
   version="1.0"
   width="43"
   height="42"
   id="svg2"
   inkscape:version="0.47 r22583"
   sodipodi:docname="02-07-016-02-02-09.svg">
  <defs
     id="defs16">
    <inkscape:perspective
       sodipodi:type="inkscape:persp3d"
       inkscape:vp_x="0 : 23 : 1"
       inkscape:vp_y="0 : 1000 : 0"
       inkscape:vp_z="36 : 23 : 1"
       inkscape:persp3d-origin="18 : 15.333333 : 1"
       id="perspective18" />
  </defs>
  <sodipodi:namedview
     pagecolor="#ffffff"
     bordercolor="#666666"
     borderopacity="1"
     objecttolerance="10"
     gridtolerance="10"
     guidetolerance="10"
     inkscape:pageopacity="0"
     inkscape:pageshadow="2"
     inkscape:window-width="964"
     inkscape:window-height="721"
     id="namedview14"
     showgrid="true"
     inkscape:zoom="11.261905"
     inkscape:cx="21.5"
     inkscape:cy="21"
     inkscape:window-x="365"
     inkscape:window-y="0"
     inkscape:window-maximized="0"
     inkscape:current-layer="svg2"
     showborder="true">
    <inkscape:grid
       type="xygrid"
       id="grid2824"
       empspacing="5"
       visible="true"
       enabled="true"
       snapvisiblegridlinesonly="true" />
  </sodipodi:namedview>
  <metadata
     id="metadata4">
Valerie Sutton's pixel definition of the
ISWA 2010 symbol ID 04-01-003-01-01-01
transformed by Stephen E Slevinski Jr
using line and fill polygon tracing
<rdf:RDF>
  <cc:Work
     rdf:about="">
    <dc:format>image/svg+xml</dc:format>
    <dc:type
       rdf:resource="http://purl.org/dc/dcmitype/StillImage" />
    <dc:title></dc:title>
  </cc:Work>
</rdf:RDF>
</metadata>
  <path
     style="fill:#000000;fill-opacity:1;stroke:none"
     d="M 43,3.100505 43,13 33.100505,13 43,3.100505 z m -0.994369,2.408583 -6.496543,6.496543 6.474446,-0.0221 0.0221,-6.474446 z"
     id="path3182" />
  <path
     style="fill:#000000;fill-opacity:1;stroke:none"
     d="m 39.464466,6.636039 -0.707107,0.707107 -4.24264,-4.242641 c -2.73367,-2.7336697 -7.165825,-2.7336698 -9.899495,0 L 23.20101,4.514719 c -2.73367,2.73367 -2.73367,7.165825 0,9.899495 l 2.828427,2.828427 c 1.952622,1.952621 1.952622,5.118446 0,7.071068 l -1.414213,1.414213 c -1.952622,1.952622 -5.118446,1.952622 -7.071068,0 l -2.828427,-2.828427 c -2.73367,-2.73367 -7.1658253,-2.73367 -9.8994951,0 l -1.4142136,1.414214 c -2.7336699,2.73367 -2.7336699,7.165825 0,9.899495 L 10.473088,41.284271 9.7659813,41.991378 2.6949135,34.92031 c -3.1241943,-3.124194 -3.1241943,-8.189514 0,-11.313708 l 1.4142136,-1.414214 c 3.1241943,-3.124194 8.1895139,-3.124194 11.3137089,0 l 2.828427,2.828427 c 1.562097,1.562098 4.094757,1.562098 5.656854,0 l 1.414214,-1.414213 c 1.562097,-1.562097 1.562097,-4.094757 0,-5.656854 L 22.493903,15.12132 c -3.124194,-3.124194 -3.124194,-8.189514 0,-11.313708 l 1.414214,-1.4142136 c 3.124194,-3.1241943 8.189514,-3.1241943 11.313708,0 l 4.242641,4.2426406 z"
     id="path3217" />
  <path
     style="fill:#ffffff;fill-opacity:1;stroke:none"
     d="m 38.757359,7.343146 -1.414213,1.414213 -4.242641,-4.24264 c -1.952622,-1.9526219 -5.118446,-1.9526219 -7.071068,0 l -1.414213,1.414213 c -1.952622,1.952622 -1.952622,5.118447 0,7.071068 l 2.828427,2.828427 c 2.73367,2.73367 2.73367,7.165825 0,9.899495 l -1.414214,1.414214 c -2.73367,2.73367 -7.165825,2.73367 -9.899495,0 l -2.828427,-2.828427 c -1.952621,-1.952622 -5.1184459,-1.952622 -7.0710676,0 l -1.4142135,1.414213 c -1.9526217,1.952622 -1.9526217,5.118446 0,7.071068 l 7.0710681,7.071068 -1.414214,1.414213 -7.0710677,-7.071067 c -2.7336699,-2.73367 -2.7336699,-7.165825 0,-9.899495 l 1.4142136,-1.414214 c 2.7336698,-2.73367 7.1658251,-2.73367 9.8994951,0 l 2.828427,2.828427 c 1.952622,1.952622 5.118446,1.952622 7.071068,0 l 1.414213,-1.414213 c 1.952622,-1.952622 1.952622,-5.118447 0,-7.071068 L 23.20101,14.414214 c -2.73367,-2.73367 -2.73367,-7.165825 0,-9.899495 l 1.414214,-1.414214 c 2.73367,-2.7336698 7.165825,-2.7336697 9.899495,0 l 4.24264,4.242641 z"
     id="path3220" />
  <path
     style="fill:#000000;fill-opacity:1;stroke:none"
     d="m 37.343146,8.757359 -0.707107,0.707107 -4.242641,-4.24264 c -1.562097,-1.562098 -4.094757,-1.562098 -5.656854,0 l -1.414213,1.414213 c -1.562098,1.562097 -1.562098,4.094757 0,5.656854 l 2.828427,2.828427 c 3.124194,3.124195 3.124194,8.189515 0,11.313709 l -1.414214,1.414214 c -3.124194,3.124194 -8.189514,3.124194 -11.313708,0 l -2.828428,-2.828428 c -1.562097,-1.562097 -4.0947566,-1.562097 -5.6568538,0 l -1.4142136,1.414214 c -1.5620971,1.562097 -1.5620971,4.094757 0,5.656854 l 7.0710674,7.071068 -0.707106,0.707107 -7.0710681,-7.071068 c -1.9526217,-1.952622 -1.9526217,-5.118446 0,-7.071068 l 1.4142135,-1.414213 c 1.9526217,-1.952622 5.1184466,-1.952622 7.0710676,0 l 2.828427,2.828427 c 2.73367,2.73367 7.165825,2.73367 9.899495,0 l 1.414214,-1.414214 c 2.73367,-2.73367 2.73367,-7.165825 0,-9.899495 L 24.615224,13 c -1.952622,-1.952621 -1.952622,-5.118446 0,-7.071068 l 1.414213,-1.414213 c 1.952622,-1.9526219 5.118446,-1.9526219 7.071068,0 l 4.242641,4.24264 z"
     id="path3223" />
  <path
     style="fill:#ffffff;fill-opacity:1;stroke:none"
     d="m 42.005631,5.509088 -0.0221,6.474446 -6.474446,0.0221 6.496543,-6.496543 z"
     id="path3360" />
  <path
     style="fill:#000000;fill-opacity:1;stroke:none"
     d="m 30.272078,28.556349 -1.414214,1.414214 -7.071067,-7.071068 1.414213,-1.414213 7.071068,7.071067 z"
     id="rect3466" />
  <path
     id="path3492"
     d="M 28.857864,7.343146 27.443651,8.757359 20.372583,1.6862916 21.786797,0.2720781 28.857864,7.343146 z"
     style="fill:#000000;fill-opacity:1;stroke:none" />
  <path
     style="fill:#000000;fill-opacity:1;stroke:none"
     d="M 9.0588745,27.142136 7.644661,28.556349 0.5735932,21.485282 1.9878067,20.071068 9.0588745,27.142136 z"
     id="path3494" />
</svg>
