<?xml version="1.0" encoding="UTF-8" standalone="no"?>
<svg
   xmlns:dc="http://purl.org/dc/elements/1.1/"
   xmlns:cc="http://creativecommons.org/ns#"
   xmlns:rdf="http://www.w3.org/1999/02/22-rdf-syntax-ns#"
   xmlns:svg="http://www.w3.org/2000/svg"
   xmlns="http://www.w3.org/2000/svg"
   xmlns:sodipodi="http://sodipodi.sourceforge.net/DTD/sodipodi-0.dtd"
   xmlns:inkscape="http://www.inkscape.org/namespaces/inkscape"
   version="1.0"
   width="43"
   height="42"
   id="svg2"
   inkscape:version="0.47 r22583"
   sodipodi:docname="02-07-016-02-01-10.svg">
  <defs
     id="defs16">
    <inkscape:perspective
       sodipodi:type="inkscape:persp3d"
       inkscape:vp_x="0 : 23 : 1"
       inkscape:vp_y="0 : 1000 : 0"
       inkscape:vp_z="36 : 23 : 1"
       inkscape:persp3d-origin="18 : 15.333333 : 1"
       id="perspective18" />
  </defs>
  <sodipodi:namedview
     pagecolor="#ffffff"
     bordercolor="#666666"
     borderopacity="1"
     objecttolerance="10"
     gridtolerance="10"
     guidetolerance="10"
     inkscape:pageopacity="0"
     inkscape:pageshadow="2"
     inkscape:window-width="964"
     inkscape:window-height="721"
     id="namedview14"
     showgrid="true"
     inkscape:zoom="11.261905"
     inkscape:cx="21.5"
     inkscape:cy="21"
     inkscape:window-x="365"
     inkscape:window-y="0"
     inkscape:window-maximized="0"
     inkscape:current-layer="svg2"
     showborder="true">
    <inkscape:grid
       type="xygrid"
       id="grid2824"
       empspacing="5"
       visible="true"
       enabled="true"
       snapvisiblegridlinesonly="true" />
  </sodipodi:namedview>
  <metadata
     id="metadata4">
Valerie Sutton's pixel definition of the
ISWA 2010 symbol ID 04-01-003-01-01-01
transformed by Stephen E Slevinski Jr
using line and fill polygon tracing
<rdf:RDF>
  <cc:Work
     rdf:about="">
    <dc:format>image/svg+xml</dc:format>
    <dc:type
       rdf:resource="http://purl.org/dc/dcmitype/StillImage" />
    <dc:title></dc:title>
  </cc:Work>
</rdf:RDF>
</metadata>
  <path
     style="fill:#000000;fill-opacity:1;stroke:none"
     d="M 0,3.100505 9.8994952,13 0,13 0,3.100505 z"
     id="path3182" />
  <path
     style="fill:#000000;fill-opacity:1;stroke:none"
     d="m 3.535534,6.636039 0.707107,0.707107 4.24264,-4.242641 c 2.73367,-2.7336697 7.165825,-2.7336698 9.899495,0 l 1.414214,1.414214 c 2.73367,2.73367 2.73367,7.165825 0,9.899495 l -2.828427,2.828427 c -1.952622,1.952621 -1.952622,5.118446 0,7.071068 l 1.414213,1.414213 c 1.952622,1.952622 5.118446,1.952622 7.071068,0 l 2.828427,-2.828427 c 2.73367,-2.73367 7.165825,-2.73367 9.899495,0 l 1.414213,1.414214 c 2.73367,2.73367 2.73367,7.165825 0,9.899495 l -7.071067,7.071067 0.707106,0.707107 7.071068,-7.071068 c 3.124195,-3.124194 3.124195,-8.189514 0,-11.313708 l -1.414213,-1.414214 c -3.124195,-3.124194 -8.189514,-3.124194 -11.313709,0 l -2.828427,2.828427 c -1.562097,1.562098 -4.094757,1.562098 -5.656854,0 l -1.414214,-1.414213 c -1.562097,-1.562097 -1.562097,-4.094757 0,-5.656854 l 2.828428,-2.828428 c 3.124194,-3.124194 3.124194,-8.189514 0,-11.313708 L 19.091883,2.3933984 c -3.124194,-3.1241943 -8.189514,-3.1241943 -11.313708,0 L 3.535534,6.636039 z"
     id="path3217" />
  <path
     style="fill:#ffffff;fill-opacity:1;stroke:none"
     d="m 4.242641,7.343146 1.414213,1.414213 4.2426412,-4.24264 c 1.9526218,-1.9526219 5.1184458,-1.9526219 7.0710678,0 l 1.414213,1.414213 c 1.952622,1.952622 1.952622,5.118447 0,7.071068 l -2.828427,2.828427 c -2.73367,2.73367 -2.73367,7.165825 0,9.899495 l 1.414214,1.414214 c 2.73367,2.73367 7.165825,2.73367 9.899495,0 l 2.828427,-2.828427 c 1.952621,-1.952622 5.118446,-1.952622 7.071067,0 l 1.414214,1.414213 c 1.952622,1.952622 1.952622,5.118446 0,7.071068 l -7.071068,7.071068 1.414214,1.414213 7.071067,-7.071067 c 2.73367,-2.73367 2.73367,-7.165825 0,-9.899495 l -1.414213,-1.414214 c -2.73367,-2.73367 -7.165825,-2.73367 -9.899495,0 l -2.828427,2.828427 c -1.952622,1.952622 -5.118446,1.952622 -7.071068,0 l -1.414213,-1.414213 c -1.952622,-1.952622 -1.952622,-5.118447 0,-7.071068 l 2.828427,-2.828427 c 2.73367,-2.73367 2.73367,-7.165825 0,-9.899495 L 18.384776,3.100505 c -2.73367,-2.7336698 -7.165825,-2.7336697 -9.899495,0 l -4.24264,4.242641 z"
     id="path3220" />
  <path
     style="fill:#000000;fill-opacity:1;stroke:none"
     d="m 5.656854,8.757359 0.707107,0.707107 4.242641,-4.24264 c 1.562097,-1.562098 4.094757,-1.562098 5.656854,0 l 1.414213,1.414213 c 1.562098,1.562097 1.562098,4.094757 0,5.656854 l -2.828427,2.828427 c -3.124194,3.124195 -3.124194,8.189515 0,11.313709 l 1.414214,1.414214 c 3.124194,3.124194 8.189514,3.124194 11.313708,0 l 2.828428,-2.828428 c 1.562097,-1.562097 4.094756,-1.562097 5.656854,0 l 1.414213,1.414214 c 1.562097,1.562097 1.562097,4.094757 0,5.656854 l -7.071067,7.071068 0.707106,0.707107 7.071068,-7.071068 c 1.952622,-1.952622 1.952622,-5.118446 0,-7.071068 l -1.414214,-1.414213 c -1.952621,-1.952622 -5.118446,-1.952622 -7.071067,0 l -2.828427,2.828427 c -2.73367,2.73367 -7.165825,2.73367 -9.899495,0 l -1.414214,-1.414214 c -2.73367,-2.73367 -2.73367,-7.165825 0,-9.899495 L 18.384776,13 c 1.952622,-1.952621 1.952622,-5.118446 0,-7.071068 L 16.970563,4.514719 c -1.952622,-1.9526219 -5.118446,-1.9526219 -7.0710678,0 L 5.656854,8.757359 z"
     id="path3223" />
  <path
     style="fill:#000000;fill-opacity:1;stroke:none"
     d="m 12.727922,28.556349 1.414214,1.414214 7.071067,-7.071068 -1.414213,-1.414213 -7.071068,7.071067 z"
     id="rect3635" />
  <path
     id="path3640"
     d="M 14.142136,7.343146 15.556349,8.757359 22.627417,1.6862916 21.213203,0.2720781 14.142136,7.343146 z"
     style="fill:#000000;fill-opacity:1;stroke:none" />
  <path
     style="fill:#000000;fill-opacity:1;stroke:none"
     d="m 33.941125,27.142136 1.414214,1.414213 7.071068,-7.071067 -1.414214,-1.414214 -7.071068,7.071068 z"
     id="path3642" />
</svg>
