<?xml version="1.0" encoding="UTF-8" standalone="no"?>
<svg
   xmlns:dc="http://purl.org/dc/elements/1.1/"
   xmlns:cc="http://creativecommons.org/ns#"
   xmlns:rdf="http://www.w3.org/1999/02/22-rdf-syntax-ns#"
   xmlns:svg="http://www.w3.org/2000/svg"
   xmlns="http://www.w3.org/2000/svg"
   xmlns:sodipodi="http://sodipodi.sourceforge.net/DTD/sodipodi-0.dtd"
   xmlns:inkscape="http://www.inkscape.org/namespaces/inkscape"
   version="1.0"
   width="24"
   height="51"
   id="svg2"
   inkscape:version="0.47 r22583"
   sodipodi:docname="02-07-016-02-03-13.svg">
  <defs
     id="defs16">
    <inkscape:perspective
       sodipodi:type="inkscape:persp3d"
       inkscape:vp_x="0 : 23 : 1"
       inkscape:vp_y="0 : 1000 : 0"
       inkscape:vp_z="36 : 23 : 1"
       inkscape:persp3d-origin="18 : 15.333333 : 1"
       id="perspective18" />
  </defs>
  <sodipodi:namedview
     pagecolor="#ffffff"
     bordercolor="#666666"
     borderopacity="1"
     objecttolerance="10"
     gridtolerance="10"
     guidetolerance="10"
     inkscape:pageopacity="0"
     inkscape:pageshadow="2"
     inkscape:window-width="964"
     inkscape:window-height="721"
     id="namedview14"
     showgrid="true"
     inkscape:zoom="9.2745098"
     inkscape:cx="10.5"
     inkscape:cy="25.5"
     inkscape:window-x="365"
     inkscape:window-y="0"
     inkscape:window-maximized="0"
     inkscape:current-layer="svg2"
     showborder="true">
    <inkscape:grid
       type="xygrid"
       id="grid2824"
       empspacing="5"
       visible="true"
       enabled="true"
       snapvisiblegridlinesonly="true" />
  </sodipodi:namedview>
  <metadata
     id="metadata4">
Valerie Sutton's pixel definition of the
ISWA 2010 symbol ID 04-01-003-01-01-01
transformed by Stephen E Slevinski Jr
using line and fill polygon tracing
<rdf:RDF>
  <cc:Work
     rdf:about="">
    <dc:format>image/svg+xml</dc:format>
    <dc:type
       rdf:resource="http://purl.org/dc/dcmitype/StillImage" />
    <dc:title></dc:title>
  </cc:Work>
</rdf:RDF>
</metadata>
  <path
     style="fill:#000000;fill-opacity:1;stroke:none"
     d="m 16,51 7,-7 -7,-7 0,2 5,5 -5,5 0,2 z"
     id="path3182" />
  <path
     style="fill:#000000;fill-opacity:1;stroke:none"
     d="m 16,46 0,-1 -6,0 C 6.134007,45 3,41.865993 3,38 l 0,-2 c 0,-3.865993 3.134007,-7 7,-7 l 4,0 c 2.761424,0 5,-2.238576 5,-5 l 0,-2 c 0,-2.761424 -2.238576,-5 -5,-5 l -4,0 C 6.134007,17 3,13.865993 3,10 L 3,8 C 3,4.134007 6.134007,1 10,1 L 20,1 20,0 10,0 C 5.581722,0 2,3.581722 2,8 l 0,2 c 0,4.418278 3.581722,8 8,8 l 4,0 c 2.209139,0 4,1.790861 4,4 l 0,2 c 0,2.209139 -1.790861,4 -4,4 l -4,0 c -4.418278,0 -8,3.581722 -8,8 l 0,2 c 0,4.418278 3.581722,8 8,8 l 6,0 z"
     id="path3217" />
  <path
     style="fill:#ffffff;fill-opacity:1;stroke:none"
     d="m 16,45 0,-2 -6,0 C 7.238576,43 5,40.761424 5,38 l 0,-2 c 0,-2.761424 2.238576,-5 5,-5 l 4,0 c 3.865993,0 7,-3.134007 7,-7 l 0,-2 c 0,-3.865993 -3.134007,-7 -7,-7 l -4,0 C 7.238576,15 5,12.761424 5,10 L 5,8 C 5,5.238576 7.238576,3 10,3 L 20,3 20,1 10,1 C 6.134007,1 3,4.134007 3,8 l 0,2 c 0,3.865993 3.134007,7 7,7 l 4,0 c 2.761424,0 5,2.238576 5,5 l 0,2 c 0,2.761424 -2.238576,5 -5,5 l -4,0 c -3.865993,0 -7,3.134007 -7,7 l 0,2 c 0,3.865993 3.134007,7 7,7 l 6,0 z"
     id="path3220" />
  <path
     style="fill:#000000;fill-opacity:1;stroke:none"
     d="m 16,43 0,-1 -6,0 C 7.790861,42 6,40.209139 6,38 l 0,-2 c 0,-2.209139 1.790861,-4 4,-4 l 4,0 c 4.418278,0 8,-3.581722 8,-8 l 0,-2 c 0,-4.418278 -3.581722,-8 -8,-8 l -4,0 C 7.790861,14 6,12.209139 6,10 L 6,8 C 6,5.790861 7.790861,4 10,4 L 20,4 20,3 10,3 C 7.238576,3 5,5.238576 5,8 l 0,2 c 0,2.761424 2.238576,5 5,5 l 4,0 c 3.865993,0 7,3.134007 7,7 l 0,2 c 0,3.865993 -3.134007,7 -7,7 l -4,0 c -2.761424,0 -5,2.238576 -5,5 l 0,2 c 0,2.761424 2.238576,5 5,5 l 6,0 z"
     id="path3223" />
  <path
     style="fill:#000000;fill-opacity:1;stroke:none"
     d="m 20,19 c 2.209139,0 4,1.790861 4,4 0,2.209139 -1.790861,4 -4,4 -2.209139,0 -4,-1.790861 -4,-4 0,-2.209139 1.790861,-4 4,-4 z"
     id="path3362" />
  <path
     id="path3364"
     d="m 4,33 c 2.209139,0 4,1.790861 4,4 0,2.209139 -1.790861,4 -4,4 -2.209139,0 -4,-1.790861 -4,-4 0,-2.209139 1.790861,-4 4,-4 z"
     style="fill:#000000;fill-opacity:1;stroke:none" />
  <path
     style="fill:#000000;fill-opacity:1;stroke:none"
     d="M 4,5 C 6.209139,5 8,6.790861 8,9 8,11.209139 6.209139,13 4,13 1.790861,13 0,11.209139 0,9 0,6.790861 1.790861,5 4,5 z"
     id="path3366" />
</svg>
