<?xml version="1.0" encoding="UTF-8" standalone="no"?>
<svg
   xmlns:dc="http://purl.org/dc/elements/1.1/"
   xmlns:cc="http://creativecommons.org/ns#"
   xmlns:rdf="http://www.w3.org/1999/02/22-rdf-syntax-ns#"
   xmlns:svg="http://www.w3.org/2000/svg"
   xmlns="http://www.w3.org/2000/svg"
   xmlns:sodipodi="http://sodipodi.sourceforge.net/DTD/sodipodi-0.dtd"
   xmlns:inkscape="http://www.inkscape.org/namespaces/inkscape"
   version="1.0"
   width="26"
   height="51"
   id="svg2"
   inkscape:version="0.47 r22583"
   sodipodi:docname="02-07-016-02-03-01.svg">
  <defs
     id="defs16">
    <inkscape:perspective
       sodipodi:type="inkscape:persp3d"
       inkscape:vp_x="0 : 23 : 1"
       inkscape:vp_y="0 : 1000 : 0"
       inkscape:vp_z="36 : 23 : 1"
       inkscape:persp3d-origin="18 : 15.333333 : 1"
       id="perspective18" />
  </defs>
  <sodipodi:namedview
     pagecolor="#ffffff"
     bordercolor="#666666"
     borderopacity="1"
     objecttolerance="10"
     gridtolerance="10"
     guidetolerance="10"
     inkscape:pageopacity="0"
     inkscape:pageshadow="2"
     inkscape:window-width="964"
     inkscape:window-height="721"
     id="namedview14"
     showgrid="true"
     inkscape:zoom="9.2745098"
     inkscape:cx="13"
     inkscape:cy="25.5"
     inkscape:window-x="365"
     inkscape:window-y="0"
     inkscape:window-maximized="0"
     inkscape:current-layer="svg2"
     showborder="true">
    <inkscape:grid
       type="xygrid"
       id="grid2824"
       empspacing="5"
       visible="true"
       enabled="true"
       snapvisiblegridlinesonly="true" />
  </sodipodi:namedview>
  <metadata
     id="metadata4">
Valerie Sutton's pixel definition of the
ISWA 2010 symbol ID 04-01-003-01-01-01
transformed by Stephen E Slevinski Jr
using line and fill polygon tracing
<rdf:RDF>
  <cc:Work
     rdf:about="">
    <dc:format>image/svg+xml</dc:format>
    <dc:type
       rdf:resource="http://purl.org/dc/dcmitype/StillImage" />
    <dc:title></dc:title>
  </cc:Work>
</rdf:RDF>
</metadata>
  <path
     style="fill:#000000;fill-opacity:1;stroke:none"
     d="m 17,0 7,7 -7,7 0,-2 5,-5 -5,-5 0,-2 z"
     id="path3182" />
  <path
     style="fill:#000000;fill-opacity:1;stroke:none"
     d="m 17,5 0,1 -6,0 C 7.134007,6 4,9.1340068 4,13 l 0,2 c 0,3.865993 3.134007,7 7,7 l 4,0 c 2.761424,0 5,2.238576 5,5 l 0,2 c 0,2.761424 -2.238576,5 -5,5 l -4,0 c -3.865993,0 -7,3.134007 -7,7 l 0,2 c 0,3.865993 3.134007,7 7,7 l 10,0 0,1 -10,0 C 6.581722,51 3,47.418278 3,43 l 0,-2 c 0,-4.418278 3.581722,-8 8,-8 l 4,0 c 2.209139,0 4,-1.790861 4,-4 l 0,-2 c 0,-2.209139 -1.790861,-4 -4,-4 l -4,0 C 6.581722,23 3,19.418278 3,15 L 3,13 C 3,8.581722 6.581722,5 11,5 l 6,0 z"
     id="path3217" />
  <path
     style="fill:#ffffff;fill-opacity:1;stroke:none"
     d="m 17,6 0,2 -6,0 C 8.238576,8 6,10.238576 6,13 l 0,2 c 0,2.761424 2.238576,5 5,5 l 4,0 c 3.865993,0 7,3.134007 7,7 l 0,2 c 0,3.865993 -3.134007,7 -7,7 l -4,0 c -2.761424,0 -5,2.238576 -5,5 l 0,2 c 0,2.761424 2.238576,5 5,5 l 10,0 0,2 -10,0 C 7.134007,50 4,46.865993 4,43 l 0,-2 c 0,-3.865993 3.134007,-7 7,-7 l 4,0 c 2.761424,0 5,-2.238576 5,-5 l 0,-2 c 0,-2.761424 -2.238576,-5 -5,-5 l -4,0 C 7.134007,22 4,18.865993 4,15 L 4,13 C 4,9.1340068 7.134007,6 11,6 l 6,0 z"
     id="path3220" />
  <path
     style="fill:#000000;fill-opacity:1;stroke:none"
     d="m 17,8 0,1 -6,0 C 8.790861,9 7,10.790861 7,13 l 0,2 c 0,2.209139 1.790861,4 4,4 l 4,0 c 4.418278,0 8,3.581722 8,8 l 0,2 c 0,4.418278 -3.581722,8 -8,8 l -4,0 c -2.209139,0 -4,1.790861 -4,4 l 0,2 c 0,2.209139 1.790861,4 4,4 l 10,0 0,1 -10,0 C 8.238576,48 6,45.761424 6,43 l 0,-2 c 0,-2.761424 2.238576,-5 5,-5 l 4,0 c 3.865993,0 7,-3.134007 7,-7 l 0,-2 c 0,-3.865993 -3.134007,-7 -7,-7 l -4,0 C 8.238576,20 6,17.761424 6,15 L 6,13 C 6,10.238576 8.238576,8 11,8 l 6,0 z"
     id="path3223" />
  <path
     style="fill:#000000;fill-opacity:1;stroke:none"
     d="m 26,27 0,2 -10,0 0,-2 10,0 z"
     id="rect3331" />
  <path
     id="path3336"
     d="m 10,41 0,2 -10,0 0,-2 10,0 z"
     style="fill:#000000;fill-opacity:1;stroke:none" />
  <path
     style="fill:#000000;fill-opacity:1;stroke:none"
     d="m 10,13 0,2 -10,0 0,-2 10,0 z"
     id="path3338" />
</svg>
