<?xml version="1.0" encoding="UTF-8" standalone="no"?>
<svg
   xmlns:dc="http://purl.org/dc/elements/1.1/"
   xmlns:cc="http://creativecommons.org/ns#"
   xmlns:rdf="http://www.w3.org/1999/02/22-rdf-syntax-ns#"
   xmlns:svg="http://www.w3.org/2000/svg"
   xmlns="http://www.w3.org/2000/svg"
   xmlns:sodipodi="http://sodipodi.sourceforge.net/DTD/sodipodi-0.dtd"
   xmlns:inkscape="http://www.inkscape.org/namespaces/inkscape"
   version="1.0"
   width="42"
   height="43"
   id="svg2"
   inkscape:version="0.47 r22583"
   sodipodi:docname="02-07-016-02-03-05.svg">
  <defs
     id="defs16">
    <inkscape:perspective
       sodipodi:type="inkscape:persp3d"
       inkscape:vp_x="0 : 23 : 1"
       inkscape:vp_y="0 : 1000 : 0"
       inkscape:vp_z="36 : 23 : 1"
       inkscape:persp3d-origin="18 : 15.333333 : 1"
       id="perspective18" />
  </defs>
  <sodipodi:namedview
     pagecolor="#ffffff"
     bordercolor="#666666"
     borderopacity="1"
     objecttolerance="10"
     gridtolerance="10"
     guidetolerance="10"
     inkscape:pageopacity="0"
     inkscape:pageshadow="2"
     inkscape:window-width="964"
     inkscape:window-height="721"
     id="namedview14"
     showgrid="true"
     inkscape:zoom="11"
     inkscape:cx="21"
     inkscape:cy="21.5"
     inkscape:window-x="365"
     inkscape:window-y="0"
     inkscape:window-maximized="0"
     inkscape:current-layer="svg2"
     showborder="true">
    <inkscape:grid
       type="xygrid"
       id="grid2824"
       empspacing="5"
       visible="true"
       enabled="true"
       snapvisiblegridlinesonly="true" />
  </sodipodi:namedview>
  <metadata
     id="metadata4">
Valerie Sutton's pixel definition of the
ISWA 2010 symbol ID 04-01-003-01-01-01
transformed by Stephen E Slevinski Jr
using line and fill polygon tracing
<rdf:RDF>
  <cc:Work
     rdf:about="">
    <dc:format>image/svg+xml</dc:format>
    <dc:type
       rdf:resource="http://purl.org/dc/dcmitype/StillImage" />
    <dc:title></dc:title>
  </cc:Work>
</rdf:RDF>
</metadata>
  <path
     style="fill:#000000;fill-opacity:1;stroke:none"
     d="M 3.1005051,43 13,43 l 0,-9.899495 -1.414213,1.414214 0,7.071067 -7.0710683,0 L 3.1005051,43 z"
     id="path3182" />
  <path
     style="fill:#000000;fill-opacity:1;stroke:none"
     d="m 6.636039,39.464466 0.7071068,-0.707107 -4.2426407,-4.24264 c -2.7336699,-2.73367 -2.7336699,-7.165825 0,-9.899495 L 4.5147187,23.20101 c 2.7336698,-2.73367 7.1658253,-2.73367 9.8994953,0 l 2.828427,2.828427 c 1.952621,1.952622 5.118446,1.952622 7.071068,0 l 1.414213,-1.414213 c 1.952622,-1.952622 1.952622,-5.118446 0,-7.071068 l -2.828427,-2.828427 c -2.73367,-2.73367 -2.73367,-7.165825 0,-9.8994951 l 1.414214,-1.4142136 c 2.73367,-2.7336699 7.165825,-2.7336699 9.899495,0 L 41.284271,10.473088 41.991378,9.765981 34.92031,2.6949135 c -3.124194,-3.1241943 -8.189514,-3.1241943 -11.313708,0 l -1.414214,1.4142136 c -3.124194,3.1241939 -3.124194,8.1895139 0,11.3137089 l 2.828427,2.828427 c 1.562098,1.562097 1.562098,4.094757 0,5.656854 l -1.414213,1.414214 c -1.562097,1.562097 -4.094757,1.562097 -5.656854,0 L 15.12132,22.493903 c -3.124194,-3.124194 -8.1895138,-3.124194 -11.3137081,0 l -1.4142136,1.414214 c -3.1241943,3.124194 -3.1241943,8.189514 0,11.313708 l 4.2426407,4.242641 z"
     id="path3217" />
  <path
     style="fill:#ffffff;fill-opacity:1;stroke:none"
     d="M 7.3431458,38.757359 8.7573594,37.343146 4.5147187,33.100505 c -1.9526217,-1.952622 -1.9526217,-5.118446 0,-7.071068 l 1.4142135,-1.414213 c 1.9526217,-1.952622 5.1184458,-1.952622 7.0710678,0 l 2.828427,2.828427 c 2.73367,2.73367 7.165825,2.73367 9.899495,0 l 1.414214,-1.414214 c 2.73367,-2.73367 2.73367,-7.165825 0,-9.899495 l -2.828427,-2.828427 c -1.952622,-1.952621 -1.952622,-5.118446 0,-7.0710676 l 1.414213,-1.4142135 c 1.952622,-1.9526217 5.118446,-1.9526217 7.071068,0 l 7.071068,7.0710681 1.414213,-1.414214 -7.071067,-7.0710677 c -2.73367,-2.7336699 -7.165825,-2.7336699 -9.899495,0 l -1.414214,1.4142136 c -2.73367,2.7336701 -2.73367,7.1658251 0,9.8994951 l 2.828427,2.828427 c 1.952622,1.952622 1.952622,5.118446 0,7.071068 l -1.414213,1.414213 c -1.952622,1.952622 -5.118447,1.952622 -7.071068,0 L 14.414214,23.20101 c -2.73367,-2.73367 -7.1658255,-2.73367 -9.8994953,0 l -1.4142136,1.414214 c -2.7336699,2.73367 -2.7336699,7.165825 0,9.899495 l 4.2426407,4.24264 z"
     id="path3220" />
  <path
     style="fill:#000000;fill-opacity:1;stroke:none"
     d="M 8.7573594,37.343146 9.4644661,36.636039 5.2218254,32.393398 c -1.5620971,-1.562097 -1.5620971,-4.094757 0,-5.656854 L 6.636039,25.322331 c 1.5620972,-1.562098 4.094757,-1.562098 5.656854,0 l 2.828427,2.828427 c 3.124195,3.124194 8.189515,3.124194 11.313709,0 l 1.414214,-1.414214 c 3.124194,-3.124194 3.124194,-8.189514 0,-11.313708 l -2.828428,-2.828428 c -1.562097,-1.562097 -1.562097,-4.094757 0,-5.656854 l 1.414214,-1.4142134 c 1.562097,-1.5620971 4.094757,-1.5620971 5.656854,0 l 7.071068,7.0710674 0.707107,-0.707106 -7.071068,-7.0710681 c -1.952622,-1.9526217 -5.118446,-1.9526217 -7.071068,0 l -1.414213,1.4142135 c -1.952622,1.9526216 -1.952622,5.1184466 0,7.0710676 l 2.828427,2.828427 c 2.73367,2.73367 2.73367,7.165825 0,9.899495 l -1.414214,1.414214 c -2.73367,2.73367 -7.165825,2.73367 -9.899495,0 L 13,24.615224 c -1.952622,-1.952622 -5.1184461,-1.952622 -7.0710678,0 l -1.4142135,1.414213 c -1.9526217,1.952622 -1.9526217,5.118446 0,7.071068 l 4.2426407,4.242641 z"
     id="path3223" />
  <path
     style="fill:#000000;fill-opacity:1;stroke:none"
     d="m 28.556349,23.20101 c 1.562097,1.562097 1.562097,4.094757 0,5.656854 -1.562097,1.562098 -4.094757,1.562098 -5.656854,0 -1.562097,-1.562097 -1.562097,-4.094757 0,-5.656854 1.562097,-1.562097 4.094757,-1.562097 5.656854,0 z"
     id="path3362" />
  <path
     id="path3364"
     d="m 7.3431458,21.786797 c 1.5620972,1.562097 1.5620972,4.094757 0,5.656854 -1.5620972,1.562097 -4.0947571,1.562097 -5.6568543,0 -1.5620971,-1.562097 -1.5620971,-4.094757 0,-5.656854 1.5620972,-1.562098 4.0947571,-1.562098 5.6568543,0 z"
     style="fill:#000000;fill-opacity:1;stroke:none" />
  <path
     style="fill:#000000;fill-opacity:1;stroke:none"
     d="m 27.142136,1.9878067 c 1.562097,1.5620972 1.562097,4.0947571 0,5.6568543 -1.562097,1.562097 -4.094757,1.562097 -5.656854,0 -1.562098,-1.5620972 -1.562098,-4.0947571 0,-5.6568543 1.562097,-1.5620971 4.094757,-1.5620971 5.656854,0 z"
     id="path3366" />
</svg>
