<?xml version="1.0" encoding="UTF-8" standalone="no"?>
<svg
   xmlns:dc="http://purl.org/dc/elements/1.1/"
   xmlns:cc="http://creativecommons.org/ns#"
   xmlns:rdf="http://www.w3.org/1999/02/22-rdf-syntax-ns#"
   xmlns:svg="http://www.w3.org/2000/svg"
   xmlns="http://www.w3.org/2000/svg"
   xmlns:sodipodi="http://sodipodi.sourceforge.net/DTD/sodipodi-0.dtd"
   xmlns:inkscape="http://www.inkscape.org/namespaces/inkscape"
   version="1.0"
   width="42"
   height="43"
   id="svg2"
   inkscape:version="0.47 r22583"
   sodipodi:docname="02-07-016-02-01-14.svg">
  <defs
     id="defs16">
    <inkscape:perspective
       sodipodi:type="inkscape:persp3d"
       inkscape:vp_x="0 : 23 : 1"
       inkscape:vp_y="0 : 1000 : 0"
       inkscape:vp_z="36 : 23 : 1"
       inkscape:persp3d-origin="18 : 15.333333 : 1"
       id="perspective18" />
  </defs>
  <sodipodi:namedview
     pagecolor="#ffffff"
     bordercolor="#666666"
     borderopacity="1"
     objecttolerance="10"
     gridtolerance="10"
     guidetolerance="10"
     inkscape:pageopacity="0"
     inkscape:pageshadow="2"
     inkscape:window-width="964"
     inkscape:window-height="721"
     id="namedview14"
     showgrid="true"
     inkscape:zoom="11"
     inkscape:cx="21"
     inkscape:cy="21.5"
     inkscape:window-x="365"
     inkscape:window-y="0"
     inkscape:window-maximized="0"
     inkscape:current-layer="svg2"
     showborder="true">
    <inkscape:grid
       type="xygrid"
       id="grid2824"
       empspacing="5"
       visible="true"
       enabled="true"
       snapvisiblegridlinesonly="true" />
  </sodipodi:namedview>
  <metadata
     id="metadata4">
Valerie Sutton's pixel definition of the
ISWA 2010 symbol ID 04-01-003-01-01-01
transformed by Stephen E Slevinski Jr
using line and fill polygon tracing
<rdf:RDF>
  <cc:Work
     rdf:about="">
    <dc:format>image/svg+xml</dc:format>
    <dc:type
       rdf:resource="http://purl.org/dc/dcmitype/StillImage" />
    <dc:title></dc:title>
  </cc:Work>
</rdf:RDF>
</metadata>
  <path
     style="fill:#000000;fill-opacity:1;stroke:none"
     d="M 38.899495,43 29,33.100504 29,43 l 9.899495,0 z"
     id="path3182" />
  <path
     style="fill:#000000;fill-opacity:1;stroke:none"
     d="m 35.363961,39.464466 -0.707107,-0.707107 4.242641,-4.24264 c 2.73367,-2.73367 2.73367,-7.165825 0,-9.899495 L 37.485281,23.20101 c -2.73367,-2.73367 -7.165825,-2.73367 -9.899495,0 l -2.828427,2.828427 c -1.952621,1.952622 -5.118446,1.952622 -7.071068,0 l -1.414213,-1.414213 c -1.952622,-1.952622 -1.952622,-5.118446 0,-7.071068 l 2.828427,-2.828427 c 2.73367,-2.73367 2.73367,-7.1658252 0,-9.8994952 l -1.414214,-1.414213 c -2.73367,-2.73367002 -7.165825,-2.73367002 -9.8994941,0 L 0.7157291,10.473088 0.00862228,9.7659818 7.0796901,2.6949138 c 3.1241939,-3.124195 8.1895139,-3.124195 11.3137079,0 l 1.414214,1.414213 c 3.124194,3.124195 3.124194,8.1895142 0,11.3137092 l -2.828427,2.828427 c -1.562098,1.562097 -1.562098,4.094757 0,5.656854 l 1.414213,1.414214 c 1.562097,1.562097 4.094757,1.562097 5.656854,0 l 2.828428,-2.828428 c 3.124194,-3.124194 8.189514,-3.124194 11.313708,0 l 1.414214,1.414214 c 3.124194,3.124194 3.124194,8.189514 0,11.313708 l -4.242641,4.242641 z"
     id="path3217" />
  <path
     style="fill:#ffffff;fill-opacity:1;stroke:none"
     d="m 34.656854,38.757359 -1.414213,-1.414213 4.24264,-4.242642 c 1.952622,-1.952621 1.952622,-5.118445 0,-7.071067 l -1.414213,-1.414213 c -1.952622,-1.952622 -5.118447,-1.952622 -7.071068,0 l -2.828427,2.828427 c -2.73367,2.73367 -7.165825,2.73367 -9.899495,0 l -1.414214,-1.414214 c -2.73367,-2.73367 -2.73367,-7.165825 0,-9.899495 l 2.828427,-2.828427 c 1.952622,-1.952621 1.952622,-5.1184462 0,-7.0710672 l -1.414213,-1.414214 c -1.952622,-1.952621 -5.118446,-1.952621 -7.0710675,0 L 2.1299427,11.887302 0.7157291,10.473088 7.7867969,3.4020208 c 2.7336691,-2.73367002 7.1658241,-2.73367002 9.8994941,0 l 1.414214,1.414213 c 2.73367,2.73367 2.73367,7.1658252 0,9.8994952 l -2.828427,2.828427 c -1.952622,1.952622 -1.952622,5.118446 0,7.071068 l 1.414213,1.414213 c 1.952622,1.952622 5.118447,1.952622 7.071068,0 l 2.828427,-2.828427 c 2.73367,-2.73367 7.165825,-2.73367 9.899495,0 l 1.414214,1.414214 c 2.73367,2.73367 2.73367,7.165825 0,9.899495 l -4.242641,4.24264 z"
     id="path3220" />
  <path
     style="fill:#000000;fill-opacity:1;stroke:none"
     d="m 33.242641,37.343146 -0.707107,-0.707107 4.24264,-4.242641 c 1.562098,-1.562097 1.562098,-4.094757 0,-5.656854 l -1.414213,-1.414213 c -1.562097,-1.562098 -4.094757,-1.562098 -5.656854,0 l -2.828427,2.828427 c -3.124195,3.124194 -8.189515,3.124194 -11.313709,0 l -1.414214,-1.414214 c -3.124194,-3.124194 -3.124194,-8.189514 0,-11.313708 l 2.828428,-2.828427 c 1.562097,-1.562098 1.562097,-4.0947572 0,-5.6568542 l -1.414214,-1.414214 c -1.562097,-1.562097 -4.094757,-1.562097 -5.656854,0 L 2.8370495,12.594408 2.1299427,11.887302 9.2010105,4.8162338 c 1.9526215,-1.952621 5.1184455,-1.952621 7.0710675,0 l 1.414213,1.414214 c 1.952622,1.952621 1.952622,5.1184462 0,7.0710672 l -2.828427,2.828427 c -2.73367,2.73367 -2.73367,7.165825 0,9.899495 l 1.414214,1.414214 c 2.73367,2.73367 7.165825,2.73367 9.899495,0 L 29,24.615224 c 1.952621,-1.952622 5.118446,-1.952622 7.071068,0 l 1.414213,1.414213 c 1.952622,1.952622 1.952622,5.118446 0,7.071067 l -4.24264,4.242642 z"
     id="path3223" />
  <path
     style="fill:#000000;fill-opacity:1;stroke:none"
     d="m 13.443651,23.20101 c -1.562097,1.562097 -1.562097,4.094757 0,5.656854 1.562097,1.562098 4.094757,1.562098 5.656854,0 1.562097,-1.562097 1.562097,-4.094757 0,-5.656854 -1.562097,-1.562097 -4.094757,-1.562097 -5.656854,0 z"
     id="path3760" />
  <path
     id="path3762"
     d="m 14.857864,1.9878068 c -1.562097,1.562097 -1.562097,4.094757 0,5.656854 1.562097,1.562097 4.094757,1.562097 5.656854,0 1.562098,-1.562097 1.562098,-4.094757 0,-5.656854 -1.562097,-1.56209703 -4.094757,-1.56209703 -5.656854,0 z"
     style="fill:#000000;fill-opacity:1;stroke:none" />
  <path
     style="fill:#000000;fill-opacity:1;stroke:none"
     d="m 34.656854,21.786797 c -1.562097,1.562097 -1.562097,4.094757 0,5.656854 1.562097,1.562097 4.094757,1.562097 5.656854,0 1.562098,-1.562097 1.562098,-4.094757 0,-5.656854 -1.562097,-1.562098 -4.094757,-1.562098 -5.656854,0 z"
     id="path3764" />
</svg>
