<?xml version="1.0" encoding="UTF-8" standalone="no"?>
<svg
   xmlns:dc="http://purl.org/dc/elements/1.1/"
   xmlns:cc="http://creativecommons.org/ns#"
   xmlns:rdf="http://www.w3.org/1999/02/22-rdf-syntax-ns#"
   xmlns:svg="http://www.w3.org/2000/svg"
   xmlns="http://www.w3.org/2000/svg"
   xmlns:sodipodi="http://sodipodi.sourceforge.net/DTD/sodipodi-0.dtd"
   xmlns:inkscape="http://www.inkscape.org/namespaces/inkscape"
   version="1.0"
   width="35"
   height="35"
   id="svg2"
   inkscape:version="0.47 r22583"
   sodipodi:docname="04-02-009-01-01-16.svg">
  <defs
     id="defs14">
    <inkscape:perspective
       sodipodi:type="inkscape:persp3d"
       inkscape:vp_x="0 : 3.5 : 1"
       inkscape:vp_y="0 : 1000 : 0"
       inkscape:vp_z="7 : 3.5 : 1"
       inkscape:persp3d-origin="3.5 : 2.3333333 : 1"
       id="perspective16" />
  </defs>
  <sodipodi:namedview
     pagecolor="#ffffff"
     bordercolor="#666666"
     borderopacity="1"
     objecttolerance="10"
     gridtolerance="10"
     guidetolerance="10"
     inkscape:pageopacity="0"
     inkscape:pageshadow="2"
     inkscape:window-width="928"
     inkscape:window-height="791"
     id="namedview12"
     showgrid="true"
     inkscape:zoom="15.003171"
     inkscape:cx="17.430564"
     inkscape:cy="17.715927"
     inkscape:window-x="273"
     inkscape:window-y="0"
     inkscape:window-maximized="0"
     inkscape:current-layer="svg2"
     inkscape:snap-grids="true">
    <inkscape:grid
       type="xygrid"
       id="grid2822" />
  </sodipodi:namedview>
  <metadata
     id="metadata4">
Valerie Sutton's pixel definition of the
ISWA 2010 symbol ID 04-02-007-01-04-01
transformed by Stephen E Slevinski Jr
using line and fill polygon tracing
<rdf:RDF>
  <cc:Work
     rdf:about="">
    <dc:format>image/svg+xml</dc:format>
    <dc:type
       rdf:resource="http://purl.org/dc/dcmitype/StillImage" />
    <dc:title></dc:title>
  </cc:Work>
</rdf:RDF>
</metadata>
  <path
     style="fill:#000000;fill-opacity:1;stroke:none"
     d="M 5.658387,10.503633 9.193921,6.968099 9.901027,7.6752061 7.0726,10.503633 9.901027,13.33206 9.193921,14.039167 5.658387,10.503633 z"
     id="path2841" />
  <path
     style="fill:#000000;fill-opacity:1;stroke:none"
     d="M 12.81802,12.182835 C 12.094162,11.458978 11.094162,10.989593 9.989592,10.989593 l 0,1.016466 c 1.656855,0 3.005204,1.348349 3.005204,3.005203 l 0,1.988738 0.994369,0.0221 0.0221,-2.010835 c 0,-1.104569 -0.469385,-2.104569 -1.193242,-2.828427 z"
     id="path2844" />
  <path
     style="fill:#000000;fill-opacity:1;stroke:none"
     d="M 14.232233,10.768622 C 13.146447,9.6828352 11.646447,9.0008548 9.989592,9.0008547 l 0,1.0164663 c 2.761424,-1e-6 4.993942,2.232517 4.993942,4.993941 L 14.983534,17 16,17 16,15.011262 c 0,-1.656854 -0.68198,-3.156854 -1.767767,-4.24264 z"
     id="rect2867" />
  <path
     style="fill:#ffffff;fill-opacity:1;stroke:none"
     d="M 15,15 C 15,12.238576 12.761424,9.9999999 10,9.9999999 L 10,11 c 2.209139,0 4,1.790861 4,4 l 0,2 1,0 0,-2 z"
     id="path3015" />
  <path
     id="path2846"
     d="m 18.658387,10.503633 3.535534,-3.535534 0.707106,0.7071071 -2.828427,2.8284269 2.828427,2.828427 -0.707106,0.707107 -3.535534,-3.535534 z"
     style="fill:#000000;fill-opacity:1;stroke:none" />
  <path
     id="path2848"
     d="m 25.818019,12.182835 c -0.723857,-0.723857 -1.723857,-1.193242 -2.828427,-1.193242 l 0,1.016466 c 1.656855,0 3.005204,1.348349 3.005204,3.005203 l 0,1.988738 0.994369,0.0221 0.0221,-2.010835 c 0,-1.104569 -0.469385,-2.104569 -1.193242,-2.828427 z"
     style="fill:#000000;fill-opacity:1;stroke:none" />
  <path
     id="path2850"
     d="M 27.232233,10.768622 C 26.146447,9.6828352 24.646447,9.0008548 22.989592,9.0008547 l 0,1.0164663 c 2.761424,-1e-6 4.993942,2.232517 4.993942,4.993941 L 27.983534,17 29,17 29,15.011262 c 0,-1.656854 -0.68198,-3.156854 -1.767767,-4.24264 z"
     style="fill:#000000;fill-opacity:1;stroke:none" />
  <path
     id="path2852"
     d="M 28,15 C 28,12.238576 25.761424,9.9999999 23,9.9999999 L 23,11 c 2.209139,0 4,1.790861 4,4 l 0,2 1,0 0,-2 z"
     style="fill:#ffffff;fill-opacity:1;stroke:none" />
  <path
     style="fill:#000000;fill-opacity:1;stroke:none"
     d="M 17.5 0 C 7.8350169 4.7369516e-15 1.087327e-16 7.8350169 0 17.5 C 0 27.164983 7.8350169 35 17.5 35 C 27.164983 35 35 27.164983 35 17.5 C 35 7.8350169 27.164983 -3.443981e-15 17.5 0 z M 17.5 2 C 26.060414 2 33 8.9395864 33 17.5 C 33 26.060414 26.060414 33 17.5 33 C 8.9395864 33 2 26.060414 2 17.5 C 2 8.9395864 8.9395864 2 17.5 2 z "
     id="path2938" />
</svg>
