<?xml version="1.0" encoding="UTF-8" standalone="no"?>
<svg
   xmlns:dc="http://purl.org/dc/elements/1.1/"
   xmlns:cc="http://creativecommons.org/ns#"
   xmlns:rdf="http://www.w3.org/1999/02/22-rdf-syntax-ns#"
   xmlns:svg="http://www.w3.org/2000/svg"
   xmlns="http://www.w3.org/2000/svg"
   xmlns:sodipodi="http://sodipodi.sourceforge.net/DTD/sodipodi-0.dtd"
   xmlns:inkscape="http://www.inkscape.org/namespaces/inkscape"
   version="1.0"
   width="11"
   height="11"
   id="svg2"
   inkscape:version="0.47 r22583"
   sodipodi:docname="04-02-009-01-03-16.svg">
  <defs
     id="defs14">
    <inkscape:perspective
       sodipodi:type="inkscape:persp3d"
       inkscape:vp_x="0 : 3.5 : 1"
       inkscape:vp_y="0 : 1000 : 0"
       inkscape:vp_z="7 : 3.5 : 1"
       inkscape:persp3d-origin="3.5 : 2.3333333 : 1"
       id="perspective16" />
  </defs>
  <sodipodi:namedview
     pagecolor="#ffffff"
     bordercolor="#666666"
     borderopacity="1"
     objecttolerance="10"
     gridtolerance="10"
     guidetolerance="10"
     inkscape:pageopacity="0"
     inkscape:pageshadow="2"
     inkscape:window-width="928"
     inkscape:window-height="791"
     id="namedview12"
     showgrid="true"
     inkscape:zoom="19.79896"
     inkscape:cx="5.9992141"
     inkscape:cy="6.0991984"
     inkscape:window-x="273"
     inkscape:window-y="0"
     inkscape:window-maximized="0"
     inkscape:current-layer="svg2"
     inkscape:snap-grids="true">
    <inkscape:grid
       type="xygrid"
       id="grid2822" />
  </sodipodi:namedview>
  <metadata
     id="metadata4">
Valerie Sutton's pixel definition of the
ISWA 2010 symbol ID 04-02-007-01-04-01
transformed by Stephen E Slevinski Jr
using line and fill polygon tracing
<rdf:RDF>
  <cc:Work
     rdf:about="">
    <dc:format>image/svg+xml</dc:format>
    <dc:type
       rdf:resource="http://purl.org/dc/dcmitype/StillImage" />
    <dc:title></dc:title>
  </cc:Work>
</rdf:RDF>
</metadata>
  <path
     style="fill:#000000;fill-opacity:1;stroke:none"
     d="M 10.341613,4.4815333 6.8060791,0.94599899 6.0989723,1.6531061 8.9273994,4.4815333 6.0989723,7.3099603 6.8060791,8.0170671 10.341613,4.4815333 z"
     id="path2841" />
  <path
     style="fill:#000000;fill-opacity:1;stroke:none"
     d="M 3.1819802,6.1607353 C 3.9058378,5.4368776 4.9058377,4.9674925 6.0104073,4.9674926 l 0,1.016466 c -1.6568543,0 -3.0052036,1.3483496 -3.0052035,3.0052031 L 3.0052032,10.9779 2.0108345,11 1.9887375,8.9891647 c -2e-7,-1.104569 0.4693848,-2.1045688 1.1932424,-2.8284265 z"
     id="path2844" />
  <path
     style="fill:#000000;fill-opacity:1;stroke:none"
     d="M 1.7677666,4.7465216 C 2.853553,3.6607352 4.3535529,2.9787548 6.0104073,2.9787547 l 0,1.016466 C 3.248984,3.9952205 1.016466,6.2277382 1.016466,8.9891617 L 1.0164655,10.9779 0,10.9779 0,8.9891615 C 0,7.3323084 0.68198,5.8323082 1.7677666,4.7465216 z"
     id="rect2867" />
  <path
     style="fill:#ffffff;fill-opacity:1;stroke:none"
     d="M 1,8.9778998 C 1,6.2164763 3.2385759,3.9778999 5.9999996,3.9778999 l 0,1 c -2.209139,0 -4,1.790861 -3.9999996,3.9999997 L 1.9999999,10.9779 1,10.9779 1,8.9778998 z"
     id="path3015" />
</svg>
