<?xml version="1.0" encoding="UTF-8" standalone="no"?>
<svg
   xmlns:dc="http://purl.org/dc/elements/1.1/"
   xmlns:cc="http://creativecommons.org/ns#"
   xmlns:rdf="http://www.w3.org/1999/02/22-rdf-syntax-ns#"
   xmlns:svg="http://www.w3.org/2000/svg"
   xmlns="http://www.w3.org/2000/svg"
   xmlns:sodipodi="http://sodipodi.sourceforge.net/DTD/sodipodi-0.dtd"
   xmlns:inkscape="http://www.inkscape.org/namespaces/inkscape"
   version="1.0"
   width="25"
   height="6"
   id="svg2"
   inkscape:version="0.47 r22583"
   sodipodi:docname="04-02-009-01-02-09.svg">
  <defs
     id="defs14">
    <inkscape:perspective
       sodipodi:type="inkscape:persp3d"
       inkscape:vp_x="0 : 3.5 : 1"
       inkscape:vp_y="0 : 1000 : 0"
       inkscape:vp_z="7 : 3.5 : 1"
       inkscape:persp3d-origin="3.5 : 2.3333333 : 1"
       id="perspective16" />
  </defs>
  <sodipodi:namedview
     pagecolor="#ffffff"
     bordercolor="#666666"
     borderopacity="1"
     objecttolerance="10"
     gridtolerance="10"
     guidetolerance="10"
     inkscape:pageopacity="0"
     inkscape:pageshadow="2"
     inkscape:window-width="928"
     inkscape:window-height="791"
     id="namedview12"
     showgrid="true"
     inkscape:zoom="19.79896"
     inkscape:cx="12.060139"
     inkscape:cy="1.6768149"
     inkscape:window-x="273"
     inkscape:window-y="0"
     inkscape:window-maximized="0"
     inkscape:current-layer="svg2"
     inkscape:snap-grids="true">
    <inkscape:grid
       type="xygrid"
       id="grid2822" />
  </sodipodi:namedview>
  <metadata
     id="metadata4">
Valerie Sutton's pixel definition of the
ISWA 2010 symbol ID 04-02-007-01-04-01
transformed by Stephen E Slevinski Jr
using line and fill polygon tracing
<rdf:RDF>
  <cc:Work
     rdf:about="">
    <dc:format>image/svg+xml</dc:format>
    <dc:type
       rdf:resource="http://purl.org/dc/dcmitype/StillImage" />
    <dc:title></dc:title>
  </cc:Work>
</rdf:RDF>
</metadata>
  <path
     style="fill:#000000;fill-opacity:1;stroke:none"
     d="m 25,0 0,5 -1,0 0,-4 -4,0 0,-1 5,0 z"
     id="path2841" />
  <path
     style="fill:#000000;fill-opacity:1;stroke:none"
     d="m 18.75,3.8752498 c 1.023689,10e-8 2.062701,-0.3752013 2.84375,-1.15625 L 20.875,2.0002498 c -1.171573,1.1715729 -3.078427,1.1715727 -4.249999,3e-7 L 15.21875,0.594 l -0.718752,0.6874979 1.406251,1.4375 c 0.781048,0.7810484 1.82006,1.1562497 2.843749,1.1562497 z"
     id="path2844" />
  <path
     style="fill:#000000;fill-opacity:1;stroke:none"
     d="m 18.75,5.8752499 c 1.535534,0 3.078427,-0.5784272 4.25,-1.75 l -0.71875,-0.71875 c -1.952621,1.9526212 -5.109878,1.9526215 -7.062499,2e-7 L 13.8125,2.00025 13.09375,2.719 14.500001,4.1252501 C 15.671573,5.2968225 17.214466,5.8752498 18.75,5.8752499 z"
     id="rect2867" />
  <path
     style="fill:#ffffff;fill-opacity:1;stroke:none"
     d="m 15.215071,3.4261068 c 1.952621,1.9526214 5.118446,1.9526214 7.071067,0 L 21.579031,2.719 c -1.562097,1.5620972 -4.094757,1.5620972 -5.656853,0 l -1.414214,-1.4142136 -0.707107,0.7071068 1.414214,1.4142136 z"
     id="path3015" />
  <path
     id="path3581"
     d="M 12,0 12,5 11,5 11,1 7,1 7,0 12,0 z"
     style="fill:#000000;fill-opacity:1;stroke:none" />
  <path
     id="path3583"
     d="m 5.75,3.8752498 c 1.023689,10e-8 2.062701,-0.3752013 2.84375,-1.15625 L 7.875,2.0002498 c -1.171573,1.1715729 -3.078427,1.1715727 -4.249999,3e-7 L 2.21875,0.594 1.499998,1.2814979 l 1.406251,1.4375 c 0.781048,0.7810484 1.82006,1.1562497 2.843749,1.1562497 z"
     style="fill:#000000;fill-opacity:1;stroke:none" />
  <path
     id="path3585"
     d="m 5.75,5.8752499 c 1.535534,0 3.078427,-0.5784272 4.25,-1.75 l -0.71875,-0.71875 c -1.952621,1.9526212 -5.109878,1.9526215 -7.062499,2e-7 L 0.8125,2.00025 0.09375,2.719 1.500001,4.1252501 C 2.671573,5.2968225 4.214466,5.8752498 5.75,5.8752499 z"
     style="fill:#000000;fill-opacity:1;stroke:none" />
  <path
     id="path3587"
     d="m 2.215071,3.4261068 c 1.952621,1.9526214 5.118446,1.9526214 7.071067,0 L 8.579031,2.719 c -1.562097,1.5620972 -4.094757,1.5620972 -5.656853,0 L 1.507964,1.3047864 0.800857,2.0118932 2.215071,3.4261068 z"
     style="fill:#ffffff;fill-opacity:1;stroke:none" />
</svg>
