<?xml version="1.0" encoding="UTF-8" standalone="no"?>
<svg
   xmlns:dc="http://purl.org/dc/elements/1.1/"
   xmlns:cc="http://creativecommons.org/ns#"
   xmlns:rdf="http://www.w3.org/1999/02/22-rdf-syntax-ns#"
   xmlns:svg="http://www.w3.org/2000/svg"
   xmlns="http://www.w3.org/2000/svg"
   xmlns:sodipodi="http://sodipodi.sourceforge.net/DTD/sodipodi-0.dtd"
   xmlns:inkscape="http://www.inkscape.org/namespaces/inkscape"
   version="1.0"
   width="24"
   height="11"
   id="svg2"
   inkscape:version="0.47 r22583"
   sodipodi:docname="04-02-009-01-02-12.svg">
  <defs
     id="defs14">
    <inkscape:perspective
       sodipodi:type="inkscape:persp3d"
       inkscape:vp_x="0 : 3.5 : 1"
       inkscape:vp_y="0 : 1000 : 0"
       inkscape:vp_z="7 : 3.5 : 1"
       inkscape:persp3d-origin="3.5 : 2.3333333 : 1"
       id="perspective16" />
  </defs>
  <sodipodi:namedview
     pagecolor="#ffffff"
     bordercolor="#666666"
     borderopacity="1"
     objecttolerance="10"
     gridtolerance="10"
     guidetolerance="10"
     inkscape:pageopacity="0"
     inkscape:pageshadow="2"
     inkscape:window-width="928"
     inkscape:window-height="791"
     id="namedview12"
     showgrid="true"
     inkscape:zoom="19.79896"
     inkscape:cx="10.03983"
     inkscape:cy="6.0991984"
     inkscape:window-x="273"
     inkscape:window-y="0"
     inkscape:window-maximized="0"
     inkscape:current-layer="svg2"
     inkscape:snap-grids="true">
    <inkscape:grid
       type="xygrid"
       id="grid2822" />
  </sodipodi:namedview>
  <metadata
     id="metadata4">
Valerie Sutton's pixel definition of the
ISWA 2010 symbol ID 04-02-007-01-04-01
transformed by Stephen E Slevinski Jr
using line and fill polygon tracing
<rdf:RDF>
  <cc:Work
     rdf:about="">
    <dc:format>image/svg+xml</dc:format>
    <dc:type
       rdf:resource="http://purl.org/dc/dcmitype/StillImage" />
    <dc:title></dc:title>
  </cc:Work>
</rdf:RDF>
</metadata>
  <path
     style="fill:#000000;fill-opacity:1;stroke:none"
     d="M 0.6583873,4.5036333 4.1939209,0.96809899 4.9010277,1.6752061 2.0726006,4.5036333 4.9010277,7.3320603 4.1939209,8.0391671 0.6583873,4.5036333 z"
     id="path2841" />
  <path
     style="fill:#000000;fill-opacity:1;stroke:none"
     d="M 7.8180198,6.1828353 C 7.0941622,5.4589776 6.0941623,4.9895925 4.9895927,4.9895926 l 0,1.016466 c 1.6568543,0 3.0052036,1.3483496 3.0052035,3.0052031 L 7.9947968,11 8.9891655,11.0221 9.0112625,9.0112647 c 2e-7,-1.104569 -0.4693848,-2.1045688 -1.1932424,-2.8284265 z"
     id="path2844" />
  <path
     style="fill:#000000;fill-opacity:1;stroke:none"
     d="M 9.2322334,4.7686216 C 8.146447,3.6828352 6.6464471,3.0008548 4.9895927,3.0008547 l 0,1.016466 c 2.7614233,-2e-7 4.9939413,2.2325175 4.9939413,4.993941 L 9.9835345,11 11,11 11,9.0112615 C 11,7.3544084 10.31802,5.8544082 9.2322334,4.7686216 z"
     id="rect2867" />
  <path
     style="fill:#ffffff;fill-opacity:1;stroke:none"
     d="M 10,8.9999998 C 10,6.2385763 7.7614241,3.9999999 5.0000004,3.9999999 l 0,1 c 2.209139,0 4,1.790861 3.9999996,3.9999997 L 9.0000001,11 10,11 10,8.9999998 z"
     id="path3015" />
  <path
     id="path2846"
     d="M 13.658387,4.5036333 17.193921,0.96809899 17.901027,1.6752061 15.0726,4.5036333 17.901027,7.3320603 17.193921,8.0391671 13.658387,4.5036333 z"
     style="fill:#000000;fill-opacity:1;stroke:none" />
  <path
     id="path2848"
     d="M 20.818019,6.1828353 C 20.094162,5.4589776 19.094162,4.9895925 17.989592,4.9895926 l 0,1.016466 c 1.656855,0 3.005204,1.3483496 3.005204,3.0052031 l 0,1.9887383 0.994369,0.0221 0.0221,-2.0108353 c 0,-1.104569 -0.469385,-2.1045688 -1.193242,-2.8284265 z"
     style="fill:#000000;fill-opacity:1;stroke:none" />
  <path
     id="path2850"
     d="M 22.232233,4.7686216 C 21.146447,3.6828352 19.646447,3.0008548 17.989592,3.0008547 l 0,1.016466 c 2.761424,-2e-7 4.993942,2.2325175 4.993942,4.993941 L 22.983534,11 24,11 24,9.0112615 C 24,7.3544084 23.31802,5.8544082 22.232233,4.7686216 z"
     style="fill:#000000;fill-opacity:1;stroke:none" />
  <path
     id="path2852"
     d="M 23,8.9999998 C 23,6.2385763 20.761424,3.9999999 18,3.9999999 l 0,1 c 2.209139,0 4,1.790861 4,3.9999997 L 22,11 l 1,0 0,-2.0000003 z"
     style="fill:#ffffff;fill-opacity:1;stroke:none" />
</svg>
