<?xml version="1.0" encoding="UTF-8" standalone="no"?>
<svg
   xmlns:dc="http://purl.org/dc/elements/1.1/"
   xmlns:cc="http://creativecommons.org/ns#"
   xmlns:rdf="http://www.w3.org/1999/02/22-rdf-syntax-ns#"
   xmlns:svg="http://www.w3.org/2000/svg"
   xmlns="http://www.w3.org/2000/svg"
   xmlns:sodipodi="http://sodipodi.sourceforge.net/DTD/sodipodi-0.dtd"
   xmlns:inkscape="http://www.inkscape.org/namespaces/inkscape"
   version="1.0"
   width="40"
   height="12"
   id="svg2"
   inkscape:version="0.47 r22583"
   sodipodi:docname="02-09-003-01-01-05.svg">
  <defs
     id="defs16">
    <inkscape:perspective
       sodipodi:type="inkscape:persp3d"
       inkscape:vp_x="0 : 23 : 1"
       inkscape:vp_y="0 : 1000 : 0"
       inkscape:vp_z="36 : 23 : 1"
       inkscape:persp3d-origin="18 : 15.333333 : 1"
       id="perspective18" />
  </defs>
  <sodipodi:namedview
     pagecolor="#ffffff"
     bordercolor="#666666"
     borderopacity="1"
     objecttolerance="10"
     gridtolerance="10"
     guidetolerance="10"
     inkscape:pageopacity="0"
     inkscape:pageshadow="2"
     inkscape:window-width="964"
     inkscape:window-height="721"
     id="namedview14"
     showgrid="true"
     inkscape:zoom="16.356068"
     inkscape:cx="19.997266"
     inkscape:cy="5.9991798"
     inkscape:window-x="365"
     inkscape:window-y="0"
     inkscape:window-maximized="0"
     inkscape:current-layer="svg2"
     showborder="true">
    <inkscape:grid
       type="xygrid"
       id="grid2824"
       empspacing="5"
       visible="true"
       enabled="true"
       snapvisiblegridlinesonly="true" />
  </sodipodi:namedview>
  <metadata
     id="metadata4">
Valerie Sutton's pixel definition of the
ISWA 2010 symbol ID 04-01-003-01-01-01
transformed by Stephen E Slevinski Jr
using line and fill polygon tracing
<rdf:RDF>
  <cc:Work
     rdf:about="">
    <dc:format>image/svg+xml</dc:format>
    <dc:type
       rdf:resource="http://purl.org/dc/dcmitype/StillImage" />
    <dc:title></dc:title>
  </cc:Work>
</rdf:RDF>
</metadata>
  <path
     style="fill:#000000;fill-opacity:1;stroke:none"
     d="M 0,11 10,1 0,1 0,11 z"
     id="path2814" />
  <path
     style="fill:#000000;fill-opacity:1;stroke:none"
     d="m 22,0 c 1.656854,0 3,1.3431457 3,3 0,0.8284271 -0.332107,1.5821068 -0.875,2.125 L 23.34375,5.9375 25.5625,7.125 C 26.88044,7.749798 28.610648,8 30.5,8 34.642136,8 38,6.865993 38,3 l 2,0 c 0,4.970563 -4.253295,9 -9.5,9 -2.16388,0 -4.316254,-0.440629 -5.71875,-1.875 L 22.03125,7.3125 19.625,9.84375 C 18.133702,11.412518 15.846805,12 13.5,12 10.836486,12 8.443746,10.954087 6.71875,9.28125 L 4,7 5.78125,5.21875 8.75,7.25 C 10.041245,7.8064934 11.704233,8 13.5,8 15.571068,8 17.455267,7.7042508 18.8125,6.9375 l 1.84375,-1 L 19.875,5.125 C 19.332107,4.5821068 19,3.8284271 19,3 19,1.3431458 20.343146,0 22,0 z m 0,1 c -1.104569,0 -2,0.8954305 -2,2 0,0.5522848 0.231821,1.0443212 0.59375,1.40625 L 22,5.1875 23.40625,4.40625 C 23.768179,4.0443212 24,3.5522848 24,3 24,1.8954305 23.104569,1 22,1 z"
     id="rect2841" />
</svg>
