<?xml version="1.0" encoding="UTF-8" standalone="no"?>
<svg
   xmlns:dc="http://purl.org/dc/elements/1.1/"
   xmlns:cc="http://creativecommons.org/ns#"
   xmlns:rdf="http://www.w3.org/1999/02/22-rdf-syntax-ns#"
   xmlns:svg="http://www.w3.org/2000/svg"
   xmlns="http://www.w3.org/2000/svg"
   xmlns:sodipodi="http://sodipodi.sourceforge.net/DTD/sodipodi-0.dtd"
   xmlns:inkscape="http://www.inkscape.org/namespaces/inkscape"
   version="1.0"
   width="20"
   height="30"
   id="svg2"
   inkscape:version="0.47 r22583"
   sodipodi:docname="02-09-003-01-01-11.svg">
  <defs
     id="defs16">
    <inkscape:perspective
       sodipodi:type="inkscape:persp3d"
       inkscape:vp_x="0 : 23 : 1"
       inkscape:vp_y="0 : 1000 : 0"
       inkscape:vp_z="36 : 23 : 1"
       inkscape:persp3d-origin="18 : 15.333333 : 1"
       id="perspective18" />
  </defs>
  <sodipodi:namedview
     pagecolor="#ffffff"
     bordercolor="#666666"
     borderopacity="1"
     objecttolerance="10"
     gridtolerance="10"
     guidetolerance="10"
     inkscape:pageopacity="0"
     inkscape:pageshadow="2"
     inkscape:window-width="964"
     inkscape:window-height="721"
     id="namedview14"
     showgrid="true"
     inkscape:zoom="15.766667"
     inkscape:cx="10"
     inkscape:cy="15"
     inkscape:window-x="365"
     inkscape:window-y="0"
     inkscape:window-maximized="0"
     inkscape:current-layer="svg2"
     showborder="true">
    <inkscape:grid
       type="xygrid"
       id="grid2824"
       empspacing="5"
       visible="true"
       enabled="true"
       snapvisiblegridlinesonly="true" />
  </sodipodi:namedview>
  <metadata
     id="metadata4">
Valerie Sutton's pixel definition of the
ISWA 2010 symbol ID 04-01-003-01-01-01
transformed by Stephen E Slevinski Jr
using line and fill polygon tracing
<rdf:RDF>
  <cc:Work
     rdf:about="">
    <dc:format>image/svg+xml</dc:format>
    <dc:type
       rdf:resource="http://purl.org/dc/dcmitype/StillImage" />
    <dc:title></dc:title>
  </cc:Work>
</rdf:RDF>
</metadata>
  <path
     style="fill:#000000;fill-opacity:1;stroke:none"
     d="M 7 16 L 0 23 L 7 30 L 7 28 L 2 23 L 7 18 L 7 16 z "
     id="path3322" />
  <path
     style="fill:#000000;fill-opacity:1;stroke:none"
     d="m 14,0 c 3.313708,0 6,2.6862915 6,6 0,1.2691129 -0.48808,2.7072505 -1.34375,3.6875 l -2.125,2.28125 2.03125,2.15625 C 19.443793,15.171818 20,16.523475 20,18 c 0,3.865993 -3.134007,7 -7,7 l -6,0 0,-4 8,0 c 1.656854,0 3,-1.343146 3,-3 0,-0.926444 -0.315067,-1.790666 -0.84375,-2.46875 l -1.875,-2.25 -1.4375,1.5625 C 13.119892,15.567608 12.10457,16 11,16 8.790861,16 7,14.209139 7,12 7,9.790861 8.790861,8 11,8 c 1.10457,0 2.119892,0.4323924 2.84375,1.15625 L 15.3125,10.6875 17.03125,8.625 C 17.641834,7.9273966 18,7.0037876 18,6 18,3.790861 16.209139,2 14,2 L 6,2 6,0 14,0 z m -3,9.5 c -1.380712,0 -2.5,1.119288 -2.5,2.5 0,1.380712 1.119288,2.5 2.5,2.5 0.689877,0 1.3007,-0.296812 1.75,-0.75 L 14.21875,12 12.75,10.25 C 12.299641,9.797148 11.689697,9.5 11,9.5 z"
     id="rect3727" />
</svg>
