<?xml version="1.0" encoding="UTF-8" standalone="no"?>
<svg
   xmlns:dc="http://purl.org/dc/elements/1.1/"
   xmlns:cc="http://creativecommons.org/ns#"
   xmlns:rdf="http://www.w3.org/1999/02/22-rdf-syntax-ns#"
   xmlns:svg="http://www.w3.org/2000/svg"
   xmlns="http://www.w3.org/2000/svg"
   xmlns:sodipodi="http://sodipodi.sourceforge.net/DTD/sodipodi-0.dtd"
   xmlns:inkscape="http://www.inkscape.org/namespaces/inkscape"
   version="1.0"
   width="40"
   height="12"
   id="svg2"
   inkscape:version="0.47 r22583"
   sodipodi:docname="02-09-003-01-03-05.svg">
  <defs
     id="defs16">
    <inkscape:perspective
       sodipodi:type="inkscape:persp3d"
       inkscape:vp_x="0 : 23 : 1"
       inkscape:vp_y="0 : 1000 : 0"
       inkscape:vp_z="36 : 23 : 1"
       inkscape:persp3d-origin="18 : 15.333333 : 1"
       id="perspective18" />
  </defs>
  <sodipodi:namedview
     pagecolor="#ffffff"
     bordercolor="#666666"
     borderopacity="1"
     objecttolerance="10"
     gridtolerance="10"
     guidetolerance="10"
     inkscape:pageopacity="0"
     inkscape:pageshadow="2"
     inkscape:window-width="964"
     inkscape:window-height="721"
     id="namedview14"
     showgrid="true"
     inkscape:zoom="16.356068"
     inkscape:cx="19.997266"
     inkscape:cy="5.9991798"
     inkscape:window-x="365"
     inkscape:window-y="0"
     inkscape:window-maximized="0"
     inkscape:current-layer="svg2"
     showborder="true">
    <inkscape:grid
       type="xygrid"
       id="grid2824"
       empspacing="5"
       visible="true"
       enabled="true"
       snapvisiblegridlinesonly="true" />
  </sodipodi:namedview>
  <metadata
     id="metadata4">
Valerie Sutton's pixel definition of the
ISWA 2010 symbol ID 04-01-003-01-01-01
transformed by Stephen E Slevinski Jr
using line and fill polygon tracing
<rdf:RDF>
  <cc:Work
     rdf:about="">
    <dc:format>image/svg+xml</dc:format>
    <dc:type
       rdf:resource="http://purl.org/dc/dcmitype/StillImage" />
    <dc:title></dc:title>
  </cc:Work>
</rdf:RDF>
</metadata>
  <path
     style="fill:#000000;fill-opacity:1;stroke:none"
     d="M 30 1 L 40 11 L 40 1 L 30 1 z M 32.4375 2 L 39 2 L 39 8.59375 L 32.4375 2 z "
     id="path2814" />
  <path
     style="fill:#000000;fill-opacity:1;stroke:none"
     d="M 18 0 C 16.343146 0 15 1.3431457 15 3 C 15 3.8284271 15.332107 4.5821068 15.875 5.125 L 16.65625 5.9375 L 14.4375 7.125 C 13.11956 7.749798 11.389352 8 9.5 8 C 5.357864 8 2 6.865993 2 3 L 0 3 C 0 7.970563 4.253295 12 9.5 12 C 11.66388 12 13.816254 11.559371 15.21875 10.125 L 17.96875 7.3125 L 20.375 9.84375 C 21.866298 11.412518 24.153195 12 26.5 12 C 29.163514 12 31.556254 10.954087 33.28125 9.28125 L 36 7 L 34.21875 5.21875 L 31.25 7.25 C 29.958755 7.8064934 28.295767 8 26.5 8 C 24.428932 8 22.544733 7.7042508 21.1875 6.9375 L 19.34375 5.9375 L 20.125 5.125 C 20.667893 4.5821068 21 3.8284271 21 3 C 21 1.3431458 19.656854 0 18 0 z M 18 1 C 19.104569 1 20 1.8954305 20 3 C 20 3.5522848 19.768179 4.0443212 19.40625 4.40625 L 18 5.1875 L 16.59375 4.40625 C 16.231821 4.0443212 16 3.5522848 16 3 C 16 1.8954305 16.895431 1 18 1 z "
     id="rect2841" />
  <path
     style="fill:#ffffff;fill-opacity:1;stroke:none"
     d="M 32.4375 2 L 39 8.59375 L 39 2 L 32.4375 2 z "
     id="path2957" />
</svg>
