<?xml version="1.0" encoding="UTF-8" standalone="no"?>
<svg
   xmlns:dc="http://purl.org/dc/elements/1.1/"
   xmlns:cc="http://creativecommons.org/ns#"
   xmlns:rdf="http://www.w3.org/1999/02/22-rdf-syntax-ns#"
   xmlns:svg="http://www.w3.org/2000/svg"
   xmlns="http://www.w3.org/2000/svg"
   xmlns:sodipodi="http://sodipodi.sourceforge.net/DTD/sodipodi-0.dtd"
   xmlns:inkscape="http://www.inkscape.org/namespaces/inkscape"
   version="1.0"
   width="36"
   height="12"
   id="svg2"
   inkscape:version="0.47 r22583"
   sodipodi:docname="02-09-003-01-02-13.svg">
  <defs
     id="defs16">
    <inkscape:perspective
       sodipodi:type="inkscape:persp3d"
       inkscape:vp_x="0 : 23 : 1"
       inkscape:vp_y="0 : 1000 : 0"
       inkscape:vp_z="36 : 23 : 1"
       inkscape:persp3d-origin="18 : 15.333333 : 1"
       id="perspective18" />
  </defs>
  <sodipodi:namedview
     pagecolor="#ffffff"
     bordercolor="#666666"
     borderopacity="1"
     objecttolerance="10"
     gridtolerance="10"
     guidetolerance="10"
     inkscape:pageopacity="0"
     inkscape:pageshadow="2"
     inkscape:window-width="964"
     inkscape:window-height="721"
     id="namedview14"
     showgrid="true"
     inkscape:zoom="16.953209"
     inkscape:cx="17.993304"
     inkscape:cy="5.9977679"
     inkscape:window-x="365"
     inkscape:window-y="0"
     inkscape:window-maximized="0"
     inkscape:current-layer="svg2"
     showborder="true">
    <inkscape:grid
       type="xygrid"
       id="grid2824"
       empspacing="5"
       visible="true"
       enabled="true"
       snapvisiblegridlinesonly="true" />
  </sodipodi:namedview>
  <metadata
     id="metadata4">
Valerie Sutton's pixel definition of the
ISWA 2010 symbol ID 04-01-003-01-01-01
transformed by Stephen E Slevinski Jr
using line and fill polygon tracing
<rdf:RDF>
  <cc:Work
     rdf:about="">
    <dc:format>image/svg+xml</dc:format>
    <dc:type
       rdf:resource="http://purl.org/dc/dcmitype/StillImage" />
    <dc:title></dc:title>
  </cc:Work>
</rdf:RDF>
</metadata>
  <path
     style="fill:#000000;fill-opacity:1;stroke:none"
     d="m 18,0 c 1.656854,0 3,1.3431457 3,3 0,0.8284271 -0.332107,1.5821068 -0.875,2.125 L 19.34375,5.9375 21.5625,7.125 C 22.88044,7.749798 24.610648,8 26.5,8 30.642136,8 34,6.865993 34,3 l 2,0 c 0,4.970563 -4.253295,9 -9.5,9 -2.16388,0 -4.316254,-0.440629 -5.71875,-1.875 L 18.03125,7.3125 15.625,9.84375 C 14.133702,11.412518 11.846805,12 9.5,12 6.836486,12 4.443746,10.954087 2.71875,9.28125 L 0,7 1.78125,5.21875 4.75,7.25 C 6.041245,7.8064934 7.704233,8 9.5,8 11.571068,8 13.455267,7.7042508 14.8125,6.9375 l 1.84375,-1 L 15.875,5.125 C 15.332107,4.5821068 15,3.8284271 15,3 15,1.3431458 16.343146,0 18,0 z m 0,1 c -1.104569,0 -2,0.8954305 -2,2 0,0.5522848 0.231821,1.0443212 0.59375,1.40625 L 18,5.1875 19.40625,4.40625 C 19.768179,4.0443212 20,3.5522848 20,3 20,1.8954305 19.104569,1 18,1 z"
     id="rect2841" />
</svg>
