<?xml version="1.0" encoding="UTF-8" standalone="no"?>
<svg
   xmlns:dc="http://purl.org/dc/elements/1.1/"
   xmlns:cc="http://creativecommons.org/ns#"
   xmlns:rdf="http://www.w3.org/1999/02/22-rdf-syntax-ns#"
   xmlns:svg="http://www.w3.org/2000/svg"
   xmlns="http://www.w3.org/2000/svg"
   xmlns:sodipodi="http://sodipodi.sourceforge.net/DTD/sodipodi-0.dtd"
   xmlns:inkscape="http://www.inkscape.org/namespaces/inkscape"
   version="1.0"
   width="36"
   height="12"
   id="svg2"
   inkscape:version="0.47 r22583"
   sodipodi:docname="02-09-003-01-04-13.svg">
  <defs
     id="defs16">
    <inkscape:perspective
       sodipodi:type="inkscape:persp3d"
       inkscape:vp_x="0 : 23 : 1"
       inkscape:vp_y="0 : 1000 : 0"
       inkscape:vp_z="36 : 23 : 1"
       inkscape:persp3d-origin="18 : 15.333333 : 1"
       id="perspective18" />
  </defs>
  <sodipodi:namedview
     pagecolor="#ffffff"
     bordercolor="#666666"
     borderopacity="1"
     objecttolerance="10"
     gridtolerance="10"
     guidetolerance="10"
     inkscape:pageopacity="0"
     inkscape:pageshadow="2"
     inkscape:window-width="964"
     inkscape:window-height="721"
     id="namedview14"
     showgrid="true"
     inkscape:zoom="16.953209"
     inkscape:cx="17.993304"
     inkscape:cy="5.9977679"
     inkscape:window-x="365"
     inkscape:window-y="0"
     inkscape:window-maximized="0"
     inkscape:current-layer="svg2"
     showborder="true">
    <inkscape:grid
       type="xygrid"
       id="grid2824"
       empspacing="5"
       visible="true"
       enabled="true"
       snapvisiblegridlinesonly="true" />
  </sodipodi:namedview>
  <metadata
     id="metadata4">
Valerie Sutton's pixel definition of the
ISWA 2010 symbol ID 04-01-003-01-01-01
transformed by Stephen E Slevinski Jr
using line and fill polygon tracing
<rdf:RDF>
  <cc:Work
     rdf:about="">
    <dc:format>image/svg+xml</dc:format>
    <dc:type
       rdf:resource="http://purl.org/dc/dcmitype/StillImage" />
    <dc:title></dc:title>
  </cc:Work>
</rdf:RDF>
</metadata>
  <path
     style="fill:#000000;fill-opacity:1;stroke:none"
     d="m 18,0 c -1.656854,0 -3,1.3431457 -3,3 0,0.8284271 0.332107,1.5821068 0.875,2.125 L 16.65625,5.9375 14.4375,7.125 C 13.11956,7.749798 11.389352,8 9.5,8 5.357864,8 2,6.865993 2,3 L 0,3 c 0,4.970563 4.253295,9 9.5,9 2.16388,0 4.316254,-0.440629 5.71875,-1.875 l 2.75,-2.8125 2.40625,2.53125 C 21.866298,11.412518 24.153195,12 26.5,12 c 2.663514,0 5.056254,-1.045913 6.78125,-2.71875 L 36,7 34.21875,5.21875 31.25,7.25 C 29.958755,7.8064934 28.295767,8 26.5,8 24.428932,8 22.544733,7.7042508 21.1875,6.9375 l -1.84375,-1 L 20.125,5.125 C 20.667893,4.5821068 21,3.8284271 21,3 21,1.3431458 19.656854,0 18,0 z m 0,1 c 1.104569,0 2,0.8954305 2,2 0,0.5522848 -0.231821,1.0443212 -0.59375,1.40625 L 18,5.1875 16.59375,4.40625 C 16.231821,4.0443212 16,3.5522848 16,3 16,1.8954305 16.895431,1 18,1 z"
     id="rect2841" />
</svg>
