<?xml version="1.0" encoding="UTF-8" standalone="no"?>
<svg
   xmlns:dc="http://purl.org/dc/elements/1.1/"
   xmlns:cc="http://creativecommons.org/ns#"
   xmlns:rdf="http://www.w3.org/1999/02/22-rdf-syntax-ns#"
   xmlns:svg="http://www.w3.org/2000/svg"
   xmlns="http://www.w3.org/2000/svg"
   xmlns:sodipodi="http://sodipodi.sourceforge.net/DTD/sodipodi-0.dtd"
   xmlns:inkscape="http://www.inkscape.org/namespaces/inkscape"
   version="1.0"
   width="40"
   height="12"
   id="svg2"
   inkscape:version="0.47 r22583"
   sodipodi:docname="02-09-002-01-01-01.svg">
  <defs
     id="defs16">
    <inkscape:perspective
       sodipodi:type="inkscape:persp3d"
       inkscape:vp_x="0 : 23 : 1"
       inkscape:vp_y="0 : 1000 : 0"
       inkscape:vp_z="36 : 23 : 1"
       inkscape:persp3d-origin="18 : 15.333333 : 1"
       id="perspective18" />
  </defs>
  <sodipodi:namedview
     pagecolor="#ffffff"
     bordercolor="#666666"
     borderopacity="1"
     objecttolerance="10"
     gridtolerance="10"
     guidetolerance="10"
     inkscape:pageopacity="0"
     inkscape:pageshadow="2"
     inkscape:window-width="964"
     inkscape:window-height="721"
     id="namedview14"
     showgrid="true"
     inkscape:zoom="16.356068"
     inkscape:cx="19.997266"
     inkscape:cy="5.9991798"
     inkscape:window-x="365"
     inkscape:window-y="0"
     inkscape:window-maximized="0"
     inkscape:current-layer="svg2"
     showborder="true">
    <inkscape:grid
       type="xygrid"
       id="grid2824"
       empspacing="5"
       visible="true"
       enabled="true"
       snapvisiblegridlinesonly="true" />
  </sodipodi:namedview>
  <metadata
     id="metadata4">
Valerie Sutton's pixel definition of the
ISWA 2010 symbol ID 04-01-003-01-01-01
transformed by Stephen E Slevinski Jr
using line and fill polygon tracing
<rdf:RDF>
  <cc:Work
     rdf:about="">
    <dc:format>image/svg+xml</dc:format>
    <dc:type
       rdf:resource="http://purl.org/dc/dcmitype/StillImage" />
    <dc:title></dc:title>
  </cc:Work>
</rdf:RDF>
</metadata>
  <path
     style="fill:#000000;fill-opacity:1;stroke:none"
     d="M 0,1 10,11 0,11 0,1 z"
     id="path2814" />
  <path
     style="fill:#000000;fill-opacity:1;stroke:none"
     d="M 13.5,0 C 10.836486,0 8.4437457,1.0459135 6.71875,2.71875 L 4.25,5.25 5.65625,6.65625 8.125,4.125 C 9.4870627,2.8220947 11.395563,2 13.5,2 c 1.692965,0 3.104095,0.6843257 4.5,1.40625 1.128846,0.5838085 3.03125,2.3125 3.03125,2.3125 L 19.875,6.875 C 19.332107,7.4178932 19,8.1715729 19,9 c 0,1.656854 1.343146,3 3,3 1.656854,0 3,-1.343146 3,-3 C 25,8.1715729 24.667893,7.4178932 24.125,6.875 L 22.96875,5.71875 C 23.996181,4.9703652 24.871154,3.9900585 26,3.40625 27.395905,2.6843257 28.807035,2 30.5,2 34.642136,2 38,5.134007 38,9 l 2,0 C 40,4.029437 35.746705,0 30.5,0 28.508303,0 26.752813,0.64187563 25.15625,1.59375 23.878275,2.3556813 22,4.75 22,4.75 22,4.75 20.104586,2.3295248 18.8125,1.5625 17.225266,0.62026534 15.477301,0 13.5,0 z m 8.5,6.40625 1.40625,1.1875 C 23.768179,7.9556788 24,8.4477152 24,9 c 0,1.104569 -0.895431,2 -2,2 -1.104569,0 -2,-0.895431 -2,-2 0,-0.5522848 0.231821,-1.0443212 0.59375,-1.40625 L 22,6.40625 z"
     id="rect2841" />
</svg>
