<?xml version="1.0" encoding="UTF-8" standalone="no"?>
<svg
   xmlns:dc="http://purl.org/dc/elements/1.1/"
   xmlns:cc="http://creativecommons.org/ns#"
   xmlns:rdf="http://www.w3.org/1999/02/22-rdf-syntax-ns#"
   xmlns:svg="http://www.w3.org/2000/svg"
   xmlns="http://www.w3.org/2000/svg"
   xmlns:sodipodi="http://sodipodi.sourceforge.net/DTD/sodipodi-0.dtd"
   xmlns:inkscape="http://www.inkscape.org/namespaces/inkscape"
   version="1.0"
   width="16"
   height="30"
   id="svg2"
   inkscape:version="0.47 r22583"
   sodipodi:docname="02-09-002-01-01-07.svg">
  <defs
     id="defs16">
    <inkscape:perspective
       sodipodi:type="inkscape:persp3d"
       inkscape:vp_x="0 : 23 : 1"
       inkscape:vp_y="0 : 1000 : 0"
       inkscape:vp_z="36 : 23 : 1"
       inkscape:persp3d-origin="18 : 15.333333 : 1"
       id="perspective18" />
  </defs>
  <sodipodi:namedview
     pagecolor="#ffffff"
     bordercolor="#666666"
     borderopacity="1"
     objecttolerance="10"
     gridtolerance="10"
     guidetolerance="10"
     inkscape:pageopacity="0"
     inkscape:pageshadow="2"
     inkscape:window-width="964"
     inkscape:window-height="721"
     id="namedview14"
     showgrid="true"
     inkscape:zoom="15.766667"
     inkscape:cx="8.0000002"
     inkscape:cy="15"
     inkscape:window-x="365"
     inkscape:window-y="0"
     inkscape:window-maximized="0"
     inkscape:current-layer="svg2"
     showborder="true">
    <inkscape:grid
       type="xygrid"
       id="grid2824"
       empspacing="5"
       visible="true"
       enabled="true"
       snapvisiblegridlinesonly="true" />
  </sodipodi:namedview>
  <metadata
     id="metadata4">
Valerie Sutton's pixel definition of the
ISWA 2010 symbol ID 04-01-003-01-01-01
transformed by Stephen E Slevinski Jr
using line and fill polygon tracing
<rdf:RDF>
  <cc:Work
     rdf:about="">
    <dc:format>image/svg+xml</dc:format>
    <dc:type
       rdf:resource="http://purl.org/dc/dcmitype/StillImage" />
    <dc:title></dc:title>
  </cc:Work>
</rdf:RDF>
</metadata>
  <path
     style="fill:#000000;fill-opacity:1;stroke:none"
     d="M 7,14 7,0 0,7 7,14 z"
     id="path3322" />
  <path
     style="fill:#000000;fill-opacity:1;stroke:none"
     d="M 7 6 L 7 8 L 10 8 C 12.209139 8 14 9.790861 14 12 C 14 13.10457 13.567608 14.119892 12.84375 14.84375 L 11.1875 16.6875 L 10.125 15.875 C 9.5821068 15.332107 8.8284271 15 8 15 C 6.3431458 15 5 16.343146 5 18 C 5 19.656854 6.3431458 21 8 21 C 8.8284271 21 9.5821068 20.667893 10.125 20.125 L 11.25 19.0625 L 13.125 20.875 C 13.667893 21.417893 14 22.171573 14 23 C 14 24.656854 12.656854 26 11 26 L 3 26 L 3 30 L 9 30 C 12.865993 30 16 26.865993 16 23 C 16 21.59699 15.549015 20.525233 14.6875 19.71875 L 12.625 17.78125 L 14.25 16.25 C 15.336581 15.164141 16 13.659312 16 12 C 16 8.6862915 13.313708 6 10 6 L 7 6 z M 8 16.5 C 8.4142135 16.5 8.7910534 16.666053 9.0625 16.9375 L 10.09375 17.9375 L 9.0625 19.0625 C 8.7910534 19.333947 8.4142136 19.5 8 19.5 C 7.1715729 19.5 6.5 18.828427 6.5 18 C 6.5 17.171573 7.1715729 16.5 8 16.5 z "
     id="rect3727" />
</svg>
