<?xml version="1.0" encoding="UTF-8" standalone="no"?>
<svg
   xmlns:dc="http://purl.org/dc/elements/1.1/"
   xmlns:cc="http://creativecommons.org/ns#"
   xmlns:rdf="http://www.w3.org/1999/02/22-rdf-syntax-ns#"
   xmlns:svg="http://www.w3.org/2000/svg"
   xmlns="http://www.w3.org/2000/svg"
   xmlns:sodipodi="http://sodipodi.sourceforge.net/DTD/sodipodi-0.dtd"
   xmlns:inkscape="http://www.inkscape.org/namespaces/inkscape"
   version="1.0"
   width="13"
   height="24"
   id="svg2"
   inkscape:version="0.47 r22583"
   sodipodi:docname="02-09-003-01-04-15.svg">
  <defs
     id="defs16">
    <inkscape:perspective
       sodipodi:type="inkscape:persp3d"
       inkscape:vp_x="0 : 23 : 1"
       inkscape:vp_y="0 : 1000 : 0"
       inkscape:vp_z="36 : 23 : 1"
       inkscape:persp3d-origin="18 : 15.333333 : 1"
       id="perspective18" />
  </defs>
  <sodipodi:namedview
     pagecolor="#ffffff"
     bordercolor="#666666"
     borderopacity="1"
     objecttolerance="10"
     gridtolerance="10"
     guidetolerance="10"
     inkscape:pageopacity="0"
     inkscape:pageshadow="2"
     inkscape:window-width="964"
     inkscape:window-height="721"
     id="namedview14"
     showgrid="true"
     inkscape:zoom="16.010846"
     inkscape:cx="6.5021423"
     inkscape:cy="12.003955"
     inkscape:window-x="365"
     inkscape:window-y="0"
     inkscape:window-maximized="0"
     inkscape:current-layer="svg2"
     showborder="true">
    <inkscape:grid
       type="xygrid"
       id="grid2824"
       empspacing="5"
       visible="true"
       enabled="true"
       snapvisiblegridlinesonly="true" />
  </sodipodi:namedview>
  <metadata
     id="metadata4">
Valerie Sutton's pixel definition of the
ISWA 2010 symbol ID 04-01-003-01-01-01
transformed by Stephen E Slevinski Jr
using line and fill polygon tracing
<rdf:RDF>
  <cc:Work
     rdf:about="">
    <dc:format>image/svg+xml</dc:format>
    <dc:type
       rdf:resource="http://purl.org/dc/dcmitype/StillImage" />
    <dc:title></dc:title>
  </cc:Work>
</rdf:RDF>
</metadata>
  <path
     style="fill:#000000;fill-opacity:1;stroke:none"
     d="m 4,0 0,2 3,0 c 2.209139,0 4,1.790861 4,4 0,1.10457 -0.432392,2.119892 -1.15625,2.84375 L 8.1875,10.6875 7.125,9.875 C 6.5821068,9.332107 5.8284271,9 5,9 3.3431458,9 2,10.343146 2,12 c 0,1.656854 1.3431458,3 3,3 0.8284271,0 1.5821068,-0.332107 2.125,-0.875 L 8.25,13.0625 10.125,14.875 C 10.667893,15.417893 11,16.171573 11,17 c 0,1.656854 -1.343146,3 -3,3 l -8,0 0,4 6,0 c 3.865993,0 7,-3.134007 7,-7 0,-1.40301 -0.450985,-2.474767 -1.3125,-3.28125 L 9.625,11.78125 11.25,10.25 C 12.336581,9.164141 13,7.659312 13,6 13,2.6862915 10.313708,0 7,0 L 4,0 z m 1,10.5 c 0.4142135,0 0.7910534,0.166053 1.0625,0.4375 l 1.03125,1 -1.03125,1.125 C 5.7910534,13.333947 5.4142136,13.5 5,13.5 4.1715729,13.5 3.5,12.828427 3.5,12 3.5,11.171573 4.1715729,10.5 5,10.5 z"
     id="rect3727" />
</svg>
