<?xml version="1.0" encoding="UTF-8" standalone="no"?>
<svg
   xmlns:dc="http://purl.org/dc/elements/1.1/"
   xmlns:cc="http://creativecommons.org/ns#"
   xmlns:rdf="http://www.w3.org/1999/02/22-rdf-syntax-ns#"
   xmlns:svg="http://www.w3.org/2000/svg"
   xmlns="http://www.w3.org/2000/svg"
   xmlns:sodipodi="http://sodipodi.sourceforge.net/DTD/sodipodi-0.dtd"
   xmlns:inkscape="http://www.inkscape.org/namespaces/inkscape"
   version="1.0"
   width="16"
   height="30"
   id="svg2"
   inkscape:version="0.47 r22583"
   sodipodi:docname="02-09-003-01-03-15.svg">
  <defs
     id="defs16">
    <inkscape:perspective
       sodipodi:type="inkscape:persp3d"
       inkscape:vp_x="0 : 23 : 1"
       inkscape:vp_y="0 : 1000 : 0"
       inkscape:vp_z="36 : 23 : 1"
       inkscape:persp3d-origin="18 : 15.333333 : 1"
       id="perspective18" />
  </defs>
  <sodipodi:namedview
     pagecolor="#ffffff"
     bordercolor="#666666"
     borderopacity="1"
     objecttolerance="10"
     gridtolerance="10"
     guidetolerance="10"
     inkscape:pageopacity="0"
     inkscape:pageshadow="2"
     inkscape:window-width="964"
     inkscape:window-height="721"
     id="namedview14"
     showgrid="true"
     inkscape:zoom="15.766667"
     inkscape:cx="8.0000002"
     inkscape:cy="15"
     inkscape:window-x="365"
     inkscape:window-y="0"
     inkscape:window-maximized="0"
     inkscape:current-layer="svg2"
     showborder="true">
    <inkscape:grid
       type="xygrid"
       id="grid2824"
       empspacing="5"
       visible="true"
       enabled="true"
       snapvisiblegridlinesonly="true" />
  </sodipodi:namedview>
  <metadata
     id="metadata4">
Valerie Sutton's pixel definition of the
ISWA 2010 symbol ID 04-01-003-01-01-01
transformed by Stephen E Slevinski Jr
using line and fill polygon tracing
<rdf:RDF>
  <cc:Work
     rdf:about="">
    <dc:format>image/svg+xml</dc:format>
    <dc:type
       rdf:resource="http://purl.org/dc/dcmitype/StillImage" />
    <dc:title></dc:title>
  </cc:Work>
</rdf:RDF>
</metadata>
  <path
     style="fill:#000000;fill-opacity:1;stroke:none"
     d="M 7,0 7,2 2,7 7,12 7,14 0,7 7,0 z"
     id="path3322" />
  <path
     style="fill:#000000;fill-opacity:1;stroke:none"
     d="m 7,6 0,2 3,0 c 2.209139,0 4,1.790861 4,4 0,1.10457 -0.432392,2.119892 -1.15625,2.84375 L 11.1875,16.6875 10.125,15.875 C 9.5821068,15.332107 8.8284271,15 8,15 c -1.6568542,0 -3,1.343146 -3,3 0,1.656854 1.3431458,3 3,3 0.8284271,0 1.5821068,-0.332107 2.125,-0.875 l 1.125,-1.0625 1.875,1.8125 C 13.667893,21.417893 14,22.171573 14,23 c 0,1.656854 -1.343146,3 -3,3 l -8,0 0,4 6,0 c 3.865993,0 7,-3.134007 7,-7 0,-1.40301 -0.450985,-2.474767 -1.3125,-3.28125 L 12.625,17.78125 14.25,16.25 C 15.336581,15.164141 16,13.659312 16,12 16,8.6862915 13.313708,6 10,6 L 7,6 z m 1,10.5 c 0.4142135,0 0.7910534,0.166053 1.0625,0.4375 l 1.03125,1 -1.03125,1.125 C 8.7910534,19.333947 8.4142136,19.5 8,19.5 7.1715729,19.5 6.5,18.828427 6.5,18 6.5,17.171573 7.1715729,16.5 8,16.5 z"
     id="rect3727" />
</svg>
