<?xml version="1.0" encoding="UTF-8" standalone="no"?>
<svg
   xmlns:dc="http://purl.org/dc/elements/1.1/"
   xmlns:cc="http://creativecommons.org/ns#"
   xmlns:rdf="http://www.w3.org/1999/02/22-rdf-syntax-ns#"
   xmlns:svg="http://www.w3.org/2000/svg"
   xmlns="http://www.w3.org/2000/svg"
   xmlns:sodipodi="http://sodipodi.sourceforge.net/DTD/sodipodi-0.dtd"
   xmlns:inkscape="http://www.inkscape.org/namespaces/inkscape"
   version="1.0"
   width="40"
   height="12"
   id="svg2"
   inkscape:version="0.47 r22583"
   sodipodi:docname="02-09-003-01-01-01.svg">
  <defs
     id="defs16">
    <inkscape:perspective
       sodipodi:type="inkscape:persp3d"
       inkscape:vp_x="0 : 23 : 1"
       inkscape:vp_y="0 : 1000 : 0"
       inkscape:vp_z="36 : 23 : 1"
       inkscape:persp3d-origin="18 : 15.333333 : 1"
       id="perspective18" />
  </defs>
  <sodipodi:namedview
     pagecolor="#ffffff"
     bordercolor="#666666"
     borderopacity="1"
     objecttolerance="10"
     gridtolerance="10"
     guidetolerance="10"
     inkscape:pageopacity="0"
     inkscape:pageshadow="2"
     inkscape:window-width="964"
     inkscape:window-height="721"
     id="namedview14"
     showgrid="true"
     inkscape:zoom="16.356068"
     inkscape:cx="19.997266"
     inkscape:cy="5.9991798"
     inkscape:window-x="365"
     inkscape:window-y="0"
     inkscape:window-maximized="0"
     inkscape:current-layer="svg2"
     showborder="true">
    <inkscape:grid
       type="xygrid"
       id="grid2824"
       empspacing="5"
       visible="true"
       enabled="true"
       snapvisiblegridlinesonly="true" />
  </sodipodi:namedview>
  <metadata
     id="metadata4">
Valerie Sutton's pixel definition of the
ISWA 2010 symbol ID 04-01-003-01-01-01
transformed by Stephen E Slevinski Jr
using line and fill polygon tracing
<rdf:RDF>
  <cc:Work
     rdf:about="">
    <dc:format>image/svg+xml</dc:format>
    <dc:type
       rdf:resource="http://purl.org/dc/dcmitype/StillImage" />
    <dc:title></dc:title>
  </cc:Work>
</rdf:RDF>
</metadata>
  <path
     style="fill:#000000;fill-opacity:1;stroke:none"
     d="M 40,1 30,11 40,11 40,1 z"
     id="path2814" />
  <path
     style="fill:#000000;fill-opacity:1;stroke:none"
     d="m 26.5,0 c 2.663514,0 5.056254,1.0459135 6.78125,2.71875 L 35.75,5.25 34.34375,6.65625 31.875,4.125 C 30.512937,2.8220947 28.604437,2 26.5,2 24.807035,2 23.395905,2.6843257 22,3.40625 20.871154,3.9900585 18.96875,5.71875 18.96875,5.71875 L 20.125,6.875 C 20.667893,7.4178932 21,8.1715729 21,9 c 0,1.656854 -1.343146,3 -3,3 -1.656854,0 -3,-1.343146 -3,-3 0,-0.8284271 0.332107,-1.5821068 0.875,-2.125 L 17.03125,5.71875 C 16.003819,4.9703652 15.128846,3.9900585 14,3.40625 12.604095,2.6843257 11.192965,2 9.5,2 5.357864,2 2,5.134007 2,9 L 0,9 C 0,4.029437 4.253295,0 9.5,0 11.491697,0 13.247187,0.64187563 14.84375,1.59375 16.121725,2.3556813 18,4.75 18,4.75 18,4.75 19.895414,2.3295248 21.1875,1.5625 22.774734,0.62026534 24.522699,0 26.5,0 z M 18,6.40625 16.59375,7.59375 C 16.231821,7.9556788 16,8.4477152 16,9 c 0,1.104569 0.895431,2 2,2 1.104569,0 2,-0.895431 2,-2 C 20,8.4477152 19.768179,7.9556788 19.40625,7.59375 L 18,6.40625 z"
     id="rect2841" />
</svg>
