<?xml version="1.0" encoding="UTF-8" standalone="no"?>
<svg
   xmlns:dc="http://purl.org/dc/elements/1.1/"
   xmlns:cc="http://creativecommons.org/ns#"
   xmlns:rdf="http://www.w3.org/1999/02/22-rdf-syntax-ns#"
   xmlns:svg="http://www.w3.org/2000/svg"
   xmlns="http://www.w3.org/2000/svg"
   xmlns:sodipodi="http://sodipodi.sourceforge.net/DTD/sodipodi-0.dtd"
   xmlns:inkscape="http://www.inkscape.org/namespaces/inkscape"
   version="1.0"
   width="13"
   height="24"
   id="svg2"
   inkscape:version="0.47 r22583"
   sodipodi:docname="02-09-003-01-02-15.svg">
  <defs
     id="defs16">
    <inkscape:perspective
       sodipodi:type="inkscape:persp3d"
       inkscape:vp_x="0 : 23 : 1"
       inkscape:vp_y="0 : 1000 : 0"
       inkscape:vp_z="36 : 23 : 1"
       inkscape:persp3d-origin="18 : 15.333333 : 1"
       id="perspective18" />
  </defs>
  <sodipodi:namedview
     pagecolor="#ffffff"
     bordercolor="#666666"
     borderopacity="1"
     objecttolerance="10"
     gridtolerance="10"
     guidetolerance="10"
     inkscape:pageopacity="0"
     inkscape:pageshadow="2"
     inkscape:window-width="964"
     inkscape:window-height="721"
     id="namedview14"
     showgrid="true"
     inkscape:zoom="16.010846"
     inkscape:cx="6.5021423"
     inkscape:cy="12.003955"
     inkscape:window-x="365"
     inkscape:window-y="0"
     inkscape:window-maximized="0"
     inkscape:current-layer="svg2"
     showborder="true">
    <inkscape:grid
       type="xygrid"
       id="grid2824"
       empspacing="5"
       visible="true"
       enabled="true"
       snapvisiblegridlinesonly="true" />
  </sodipodi:namedview>
  <metadata
     id="metadata4">
Valerie Sutton's pixel definition of the
ISWA 2010 symbol ID 04-01-003-01-01-01
transformed by Stephen E Slevinski Jr
using line and fill polygon tracing
<rdf:RDF>
  <cc:Work
     rdf:about="">
    <dc:format>image/svg+xml</dc:format>
    <dc:type
       rdf:resource="http://purl.org/dc/dcmitype/StillImage" />
    <dc:title></dc:title>
  </cc:Work>
</rdf:RDF>
</metadata>
  <path
     style="fill:#000000;fill-opacity:1;stroke:none"
     d="M 9,0 9,2 6,2 C 3.790861,2 2,3.790861 2,6 2,7.10457 2.432392,8.119892 3.15625,8.84375 L 4.8125,10.6875 5.875,9.875 C 6.4178932,9.332107 7.1715729,9 8,9 c 1.6568542,0 3,1.343146 3,3 0,1.656854 -1.3431458,3 -3,3 C 7.1715729,15 6.4178932,14.667893 5.875,14.125 L 4.75,13.0625 2.875,14.875 C 2.332107,15.417893 2,16.171573 2,17 c 0,1.656854 1.343146,3 3,3 l 8,0 0,4 -6,0 C 3.134007,24 0,20.865993 0,17 0,15.59699 0.450985,14.525233 1.3125,13.71875 L 3.375,11.78125 1.75,10.25 C 0.663419,9.164141 0,7.659312 0,6 0,2.6862915 2.686292,0 6,0 L 9,0 z M 8,10.5 c -0.4142135,0 -0.7910534,0.166053 -1.0625,0.4375 l -1.03125,1 1.03125,1.125 C 7.2089466,13.333947 7.5857864,13.5 8,13.5 8.8284271,13.5 9.5,12.828427 9.5,12 9.5,11.171573 8.8284271,10.5 8,10.5 z"
     id="rect3727" />
</svg>
