<?xml version="1.0" encoding="UTF-8" standalone="no"?>
<svg
   xmlns:dc="http://purl.org/dc/elements/1.1/"
   xmlns:cc="http://creativecommons.org/ns#"
   xmlns:rdf="http://www.w3.org/1999/02/22-rdf-syntax-ns#"
   xmlns:svg="http://www.w3.org/2000/svg"
   xmlns="http://www.w3.org/2000/svg"
   xmlns:sodipodi="http://sodipodi.sourceforge.net/DTD/sodipodi-0.dtd"
   xmlns:inkscape="http://www.inkscape.org/namespaces/inkscape"
   version="1.0"
   width="35"
   height="44"
   id="svg2"
   inkscape:version="0.47 r22583"
   sodipodi:docname="04-01-009-01-05-02.svg">
  <defs
     id="defs14">
    <inkscape:perspective
       sodipodi:type="inkscape:persp3d"
       inkscape:vp_x="0 : 4 : 1"
       inkscape:vp_y="0 : 1000 : 0"
       inkscape:vp_z="18 : 4 : 1"
       inkscape:persp3d-origin="9 : 2.6666667 : 1"
       id="perspective16" />
  </defs>
  <sodipodi:namedview
     pagecolor="#ffffff"
     bordercolor="#666666"
     borderopacity="1"
     objecttolerance="10"
     gridtolerance="10"
     guidetolerance="10"
     inkscape:pageopacity="0"
     inkscape:pageshadow="2"
     inkscape:window-width="1006"
     inkscape:window-height="791"
     id="namedview12"
     showgrid="true"
     inkscape:zoom="11.980144"
     inkscape:cx="16.596266"
     inkscape:cy="22.406614"
     inkscape:window-x="249"
     inkscape:window-y="0"
     inkscape:window-maximized="0"
     inkscape:current-layer="svg2">
    <inkscape:grid
       type="xygrid"
       id="grid2822" />
  </sodipodi:namedview>
  <metadata
     id="metadata4">
Valerie Sutton's pixel definition of the
ISWA 2010 symbol ID 04-01-009-01-05-01
transformed by Stephen E Slevinski Jr
using line and fill polygon tracing
<rdf:RDF>
  <cc:Work
     rdf:about="">
    <dc:format>image/svg+xml</dc:format>
    <dc:type
       rdf:resource="http://purl.org/dc/dcmitype/StillImage" />
    <dc:title></dc:title>
  </cc:Work>
</rdf:RDF>
</metadata>
  <rect
     style="fill:#000000;fill-opacity:1;stroke:none"
     id="rect2824"
     width="18"
     height="2"
     x="8.5"
     y="3" />
  <path
     style="fill:#000000;fill-opacity:1;stroke:none"
     d="M 20.796875,0 21.515625,0.71875 14.203125,8 13.484375,7.3125 20.796875,0 z"
     id="rect2826" />
  <path
     style="fill:#000000;fill-opacity:1;stroke:none"
     d="M 17.5 9 C 7.8350169 9 1.087327e-16 16.835017 0 26.5 C 0 36.164983 7.8350169 44 17.5 44 C 27.164983 44 35 36.164983 35 26.5 C 35 16.835017 27.164983 9 17.5 9 z M 17.5 11 C 26.060414 11 33 17.939586 33 26.5 C 33 35.060414 26.060414 42 17.5 42 C 8.9395864 42 2 35.060414 2 26.5 C 2 17.939586 8.9395864 11 17.5 11 z "
     id="path2886" />
</svg>
