<?xml version="1.0" encoding="UTF-8" standalone="no"?>
<!-- Created with Inkscape (http://www.inkscape.org/) -->

<svg
   xmlns:dc="http://purl.org/dc/elements/1.1/"
   xmlns:cc="http://creativecommons.org/ns#"
   xmlns:rdf="http://www.w3.org/1999/02/22-rdf-syntax-ns#"
   xmlns:svg="http://www.w3.org/2000/svg"
   xmlns="http://www.w3.org/2000/svg"
   xmlns:sodipodi="http://sodipodi.sourceforge.net/DTD/sodipodi-0.dtd"
   xmlns:inkscape="http://www.inkscape.org/namespaces/inkscape"
   width="22"
   height="21"
   id="svg3198"
   sodipodi:version="0.32"
   inkscape:version="0.47 r22583"
   version="1.0"
   sodipodi:docname="01-06-020-01-03.svg"
   inkscape:output_extension="org.inkscape.output.svg.inkscape">
  <defs
     id="defs3200">
    <inkscape:perspective
       sodipodi:type="inkscape:persp3d"
       inkscape:vp_x="0 : 526.18109 : 1"
       inkscape:vp_y="0 : 1000 : 0"
       inkscape:vp_z="744.09448 : 526.18109 : 1"
       inkscape:persp3d-origin="372.04724 : 350.78739 : 1"
       id="perspective3206" />
  </defs>
  <sodipodi:namedview
     id="namedview3727"
     pagecolor="#ffffff"
     bordercolor="#666666"
     borderopacity="1.0"
     gridtolerance="10000"
     guidetolerance="10"
     objecttolerance="10"
     inkscape:pageopacity="0.0"
     inkscape:pageshadow="2"
     inkscape:zoom="24.265857"
     inkscape:cx="9.5481609"
     inkscape:cy="10.066317"
     inkscape:document-units="px"
     inkscape:current-layer=""
     showgrid="true"
     inkscape:window-width="1099"
     inkscape:window-height="780"
     inkscape:window-x="4"
     inkscape:window-y="0"
     showborder="false"
     inkscape:window-maximized="0">
    <inkscape:grid
       type="xygrid"
       id="grid3208"
       visible="true"
       enabled="true"
       empspacing="5"
       snapvisiblegridlinesonly="true" />
  </sodipodi:namedview>
  <metadata
     id="metadata3203">
    <rdf:RDF>
      <cc:Work
         rdf:about="">
        <dc:format>image/svg+xml</dc:format>
        <dc:type
           rdf:resource="http://purl.org/dc/dcmitype/StillImage" />
        <dc:title></dc:title>
      </cc:Work>
    </rdf:RDF>
  </metadata>
  <g
     inkscape:label="Layer 1"
     inkscape:groupmode="layer"
     id="">
    <rect
       style="fill:#000000;fill-opacity:1;stroke:none"
       id="base"
       width="15"
       height="15"
       x="3"
       y="6" />
    <path
       style="fill:#ffffff;fill-opacity:1;stroke:none"
       d="M 8.09375 6 L 10.28125 8 L 5 8 L 5 10 L 3 10 L 3 13 L 5 13 L 5 19 L 16 19 L 16 13.25 L 18 15.09375 L 18 10.21875 L 18 10 L 17.78125 10 L 16 8.34375 L 16 8 L 15.625 8 L 13.46875 6 L 8.09375 6 z "
       id="fill" />
    <path
       style="fill:#000000;fill-opacity:1;stroke:none"
       d="M 14.528248,8.003239 7.375,1.375 7,1 C 6,0 5,0 5,0 L 3,0 3,0 C 0,0 0,3 0,3 l 0,3 c 0,2 2.8557188,4.043364 3,4 L 3,6 4,6 C 3,6 3,5 3,5 L 3,4 C 3,3 4,3 4,3 l 1,0 c 1,0 2,1 2,1 l 4.369811,4.0056604"
       id="baby" />
    <path
       style="fill:#000000;fill-opacity:1;stroke:none"
       d="M 11.369811,8.0056604 19,15 c 2,2 0,2 0,2 l -1,0 0,2 2,0 c 2,0 2,-2 2,-2 l 0,-1 c 0,-1 -1,-2 -1,-2 L 14.528248,8.003239"
       id="thumb" />
  </g>
</svg>
