<?xml version="1.0" encoding="UTF-8" standalone="no"?>
<svg
   xmlns:dc="http://purl.org/dc/elements/1.1/"
   xmlns:cc="http://creativecommons.org/ns#"
   xmlns:rdf="http://www.w3.org/1999/02/22-rdf-syntax-ns#"
   xmlns:svg="http://www.w3.org/2000/svg"
   xmlns="http://www.w3.org/2000/svg"
   xmlns:sodipodi="http://sodipodi.sourceforge.net/DTD/sodipodi-0.dtd"
   xmlns:inkscape="http://www.inkscape.org/namespaces/inkscape"
   version="1.0"
   width="40"
   height="38"
   id="svg2"
   inkscape:version="0.47 r22583"
   sodipodi:docname="04-05-010-01-01-04.svg">
  <defs
     id="defs14">
    <inkscape:perspective
       sodipodi:type="inkscape:persp3d"
       inkscape:vp_x="0 : 17.5 : 1"
       inkscape:vp_y="0 : 1000 : 0"
       inkscape:vp_z="36 : 17.5 : 1"
       inkscape:persp3d-origin="18 : 11.666667 : 1"
       id="perspective16" />
  </defs>
  <sodipodi:namedview
     pagecolor="#ffffff"
     bordercolor="#666666"
     borderopacity="1"
     objecttolerance="10"
     gridtolerance="10"
     guidetolerance="10"
     inkscape:pageopacity="0"
     inkscape:pageshadow="2"
     inkscape:window-width="993"
     inkscape:window-height="789"
     id="namedview12"
     showgrid="true"
     inkscape:zoom="14.452681"
     inkscape:cx="18"
     inkscape:cy="19"
     inkscape:window-x="209"
     inkscape:window-y="0"
     inkscape:window-maximized="0"
     inkscape:current-layer="svg2">
    <inkscape:grid
       type="xygrid"
       id="grid2822" />
  </sodipodi:namedview>
  <metadata
     id="metadata4">
Valerie Sutton's pixel definition of the
ISWA 2010 symbol ID 04-03-001-01-01-01
transformed by Stephen E Slevinski Jr
using line and fill polygon tracing
<rdf:RDF>
  <cc:Work
     rdf:about="">
    <dc:format>image/svg+xml</dc:format>
    <dc:type
       rdf:resource="http://purl.org/dc/dcmitype/StillImage" />
    <dc:title />
  </cc:Work>
</rdf:RDF>
</metadata>
  <path
     style="fill:#000000;fill-opacity:1;stroke:none"
     d="M 20.5,0 C 10.835017,0 3,7.8350169 3,17.5 3,27.164983 10.835017,35 20.5,35 30.164983,35 38,27.164983 38,17.5 38,7.8350169 30.164983,0 20.5,0 z m 0,1.5 c 8.836556,0 16,7.163444 16,16 0,8.836556 -7.163444,16 -16,16 -8.836556,0 -16,-7.163444 -16,-16 0,-8.836556 7.163444,-16 16,-16 z"
     id="path2824" />
  <path
     style="fill:#000000;fill-opacity:1;stroke:none"
     d="m 13.406,33.46875 c 0.09857,0.04387 0.181734,0.114158 0.28125,0.15625 0.358019,0.151429 0.755274,0.215941 1.125,0.34375 0.688637,-2.554436 2.915456,-4.46875 5.6875,-4.46875 2.772044,0 4.998863,1.914314 5.6875,4.46875 0.369726,-0.127809 0.766981,-0.192321 1.125,-0.34375 0.09952,-0.04209 0.182685,-0.11238 0.28125,-0.15625 C 26.690482,30.340545 23.918736,28 20.49975,28 17.080764,28 14.309018,30.340545 13.406,33.46875 z"
     id="path2823" />
  <path
     style="fill:#000000;fill-opacity:1;stroke:none"
     d="M 6,31.28125 2.46875,34.8125 3.1875,35.53125 6.71875,32 6,31.28125 z"
     id="path2922" />
  <path
     style="fill:#000000;fill-opacity:1;stroke:none"
     d="m 1e-7,37.999997 5.6568542,0 0,-1.016466 -4.66248528,0.0221 L 1.016466,32.343145 0,32.343145 0,38 z"
     id="path2914" />
  <path
     style="fill:#000000;fill-opacity:1;stroke:none"
     d="M 39,31.28125 35.46875,34.8125 36.1875,35.53125 39.71875,32 39,31.28125 z"
     id="path2934" />
  <path
     id="path2936"
     d="m 32.999997,37.999997 5.656855,0 0,-1.016466 -4.662486,0.0221 0.0221,-4.662486 -1.016466,0 L 33,38 z"
     style="fill:#000000;fill-opacity:1;stroke:none" />
</svg>
