<?xml version="1.0" encoding="UTF-8" standalone="no"?>
<svg
   xmlns:dc="http://purl.org/dc/elements/1.1/"
   xmlns:cc="http://creativecommons.org/ns#"
   xmlns:rdf="http://www.w3.org/1999/02/22-rdf-syntax-ns#"
   xmlns:svg="http://www.w3.org/2000/svg"
   xmlns="http://www.w3.org/2000/svg"
   xmlns:sodipodi="http://sodipodi.sourceforge.net/DTD/sodipodi-0.dtd"
   xmlns:inkscape="http://www.inkscape.org/namespaces/inkscape"
   version="1.0"
   width="13"
   height="34"
   id="svg2"
   inkscape:version="0.47 r22583"
   sodipodi:docname="02-06-004-01-03-01.svg">
  <defs
     id="defs16">
    <inkscape:perspective
       sodipodi:type="inkscape:persp3d"
       inkscape:vp_x="0 : 23 : 1"
       inkscape:vp_y="0 : 1000 : 0"
       inkscape:vp_z="36 : 23 : 1"
       inkscape:persp3d-origin="18 : 15.333333 : 1"
       id="perspective18" />
  </defs>
  <sodipodi:namedview
     pagecolor="#ffffff"
     bordercolor="#666666"
     borderopacity="1"
     objecttolerance="10"
     gridtolerance="10"
     guidetolerance="10"
     inkscape:pageopacity="0"
     inkscape:pageshadow="2"
     inkscape:window-width="964"
     inkscape:window-height="721"
     id="namedview14"
     showgrid="true"
     inkscape:zoom="13.911765"
     inkscape:cx="6.5"
     inkscape:cy="17"
     inkscape:window-x="365"
     inkscape:window-y="0"
     inkscape:window-maximized="0"
     inkscape:current-layer="svg2"
     showborder="true">
    <inkscape:grid
       type="xygrid"
       id="grid2824"
       empspacing="5"
       visible="true"
       enabled="true"
       snapvisiblegridlinesonly="true" />
  </sodipodi:namedview>
  <metadata
     id="metadata4">
Valerie Sutton's pixel definition of the
ISWA 2010 symbol ID 04-01-003-01-01-01
transformed by Stephen E Slevinski Jr
using line and fill polygon tracing
<rdf:RDF>
  <cc:Work
     rdf:about="">
    <dc:format>image/svg+xml</dc:format>
    <dc:type
       rdf:resource="http://purl.org/dc/dcmitype/StillImage" />
    <dc:title></dc:title>
  </cc:Work>
</rdf:RDF>
</metadata>
  <path
     style="fill:#000000;fill-opacity:1;stroke:none"
     d="M 0 0 L 0 10 L 10 0 L 0 0 z M 1 1 L 7.59375 1 L 1 7.5625 L 1 1 z "
     id="path2820" />
  <path
     style="fill:#000000;fill-opacity:1;stroke:none"
     d="M 7.125 2.875 L 6.0625 3.9375 L 9.75 7.625 C 12.093145 9.9681444 12.093145 13.750605 9.75 16.09375 L 7.625 18.21875 L 9.75 20.34375 C 12.093145 22.686896 12.093146 26.500603 9.75 28.84375 L 5.625 32.9375 L 6.6875 34 L 10.8125 29.90625 C 13.741432 26.977317 13.741432 22.210182 10.8125 19.28125 L 9.75 18.21875 L 10.8125 17.15625 C 13.741432 14.227317 13.741432 9.4914325 10.8125 6.5625 L 7.125 2.875 z "
     id="rect2825" />
  <path
     style="fill:#000000;fill-opacity:1;stroke:none"
     d="M 3.9375 6.0625 L 2.875 7.125 L 6.5625 10.8125 C 7.148287 11.398286 7.148287 12.351714 6.5625 12.9375 L 1.25 18.21875 L 2.3125 19.28125 L 6.5625 23.53125 C 7.148287 24.117036 7.148287 25.070464 6.5625 25.65625 L 2.4375 29.75 L 3.5 30.8125 L 7.625 26.71875 C 8.796573 25.547177 8.796573 23.640323 7.625 22.46875 L 3.375 18.21875 L 7.625 14 C 8.796573 12.828427 8.796573 10.921572 7.625 9.75 L 3.9375 6.0625 z "
     id="rect2849" />
  <path
     style="fill:#ffffff;fill-opacity:1;stroke:none"
     d="M 6.0625 3.9375 L 3.9375 6.0625 L 7.625 9.75 C 8.796573 10.921572 8.796573 12.828427 7.625 14 L 3.375 18.21875 L 7.625 22.46875 C 8.796573 23.640323 8.796573 25.547177 7.625 26.71875 L 3.5 30.8125 L 5.625 32.9375 L 9.75 28.84375 C 12.093146 26.500603 12.093145 22.686896 9.75 20.34375 L 7.625 18.21875 L 9.75 16.09375 C 12.093145 13.750605 12.093145 9.9681444 9.75 7.625 L 6.0625 3.9375 z "
     id="rect2997" />
  <path
     style="fill:#ffffff;fill-opacity:1;stroke:none"
     d="M 1 1 L 1 7.5625 L 7.59375 1 L 1 1 z "
     id="path3078" />
</svg>
