<?xml version="1.0" encoding="UTF-8" standalone="no"?>
<svg
   xmlns:dc="http://purl.org/dc/elements/1.1/"
   xmlns:cc="http://creativecommons.org/ns#"
   xmlns:rdf="http://www.w3.org/1999/02/22-rdf-syntax-ns#"
   xmlns:svg="http://www.w3.org/2000/svg"
   xmlns="http://www.w3.org/2000/svg"
   xmlns:sodipodi="http://sodipodi.sourceforge.net/DTD/sodipodi-0.dtd"
   xmlns:inkscape="http://www.inkscape.org/namespaces/inkscape"
   version="1.0"
   width="12"
   height="32"
   id="svg2"
   inkscape:version="0.47 r22583"
   sodipodi:docname="02-06-004-01-02-01.svg">
  <defs
     id="defs16">
    <inkscape:perspective
       sodipodi:type="inkscape:persp3d"
       inkscape:vp_x="0 : 23 : 1"
       inkscape:vp_y="0 : 1000 : 0"
       inkscape:vp_z="36 : 23 : 1"
       inkscape:persp3d-origin="18 : 15.333333 : 1"
       id="perspective18" />
  </defs>
  <sodipodi:namedview
     pagecolor="#ffffff"
     bordercolor="#666666"
     borderopacity="1"
     objecttolerance="10"
     gridtolerance="10"
     guidetolerance="10"
     inkscape:pageopacity="0"
     inkscape:pageshadow="2"
     inkscape:window-width="964"
     inkscape:window-height="721"
     id="namedview14"
     showgrid="true"
     inkscape:zoom="14.78125"
     inkscape:cx="6"
     inkscape:cy="16"
     inkscape:window-x="365"
     inkscape:window-y="0"
     inkscape:window-maximized="0"
     inkscape:current-layer="svg2"
     showborder="true">
    <inkscape:grid
       type="xygrid"
       id="grid2824"
       empspacing="5"
       visible="true"
       enabled="true"
       snapvisiblegridlinesonly="true" />
  </sodipodi:namedview>
  <metadata
     id="metadata4">
Valerie Sutton's pixel definition of the
ISWA 2010 symbol ID 04-01-003-01-01-01
transformed by Stephen E Slevinski Jr
using line and fill polygon tracing
<rdf:RDF>
  <cc:Work
     rdf:about="">
    <dc:format>image/svg+xml</dc:format>
    <dc:type
       rdf:resource="http://purl.org/dc/dcmitype/StillImage" />
    <dc:title></dc:title>
  </cc:Work>
</rdf:RDF>
</metadata>
  <path
     style="fill:#000000;fill-opacity:1;stroke:none"
     d="M 6.125,0.875 5.0625,1.9375 8.75,5.625 c 2.343145,2.3431444 2.343145,6.125605 0,8.46875 l -2.125,2.125 2.125,2.125 c 2.343145,2.343146 2.343146,6.156853 0,8.5 L 4.625,30.9375 5.6875,32 9.8125,27.90625 c 2.928932,-2.928933 2.928932,-7.696068 0,-10.625 L 8.75,16.21875 9.8125,15.15625 c 2.928932,-2.928933 2.928932,-7.6648175 0,-10.59375 L 6.125,0.875 z"
     id="rect2825" />
  <path
     style="fill:#000000;fill-opacity:1;stroke:none"
     d="M 2.9375,4.0625 1.875,5.125 5.5625,8.8125 c 0.585787,0.585786 0.585787,1.539214 0,2.125 l -5.3125,5.28125 1.0625,1.0625 4.25,4.25 c 0.585787,0.585786 0.585787,1.539214 0,2.125 L 1.4375,27.75 2.5,28.8125 6.625,24.71875 c 1.171573,-1.171573 1.171573,-3.078427 0,-4.25 l -4.25,-4.25 L 6.625,12 c 1.171573,-1.171573 1.171573,-3.078428 0,-4.25 L 2.9375,4.0625 z"
     id="rect2849" />
  <path
     style="fill:#ffffff;fill-opacity:1;stroke:none"
     d="M 5.0625,1.9375 2.9375,4.0625 6.625,7.75 c 1.171573,1.171572 1.171573,3.078427 0,4.25 l -4.25,4.21875 4.25,4.25 c 1.171573,1.171573 1.171573,3.078427 0,4.25 L 2.5,28.8125 4.625,30.9375 8.75,26.84375 c 2.343146,-2.343147 2.343145,-6.156854 0,-8.5 l -2.125,-2.125 2.125,-2.125 c 2.343145,-2.343145 2.343145,-6.1256056 0,-8.46875 L 5.0625,1.9375 z"
     id="rect2997" />
</svg>
