<?xml version="1.0" encoding="UTF-8" standalone="no"?>
<svg
   xmlns:dc="http://purl.org/dc/elements/1.1/"
   xmlns:cc="http://creativecommons.org/ns#"
   xmlns:rdf="http://www.w3.org/1999/02/22-rdf-syntax-ns#"
   xmlns:svg="http://www.w3.org/2000/svg"
   xmlns="http://www.w3.org/2000/svg"
   xmlns:sodipodi="http://sodipodi.sourceforge.net/DTD/sodipodi-0.dtd"
   xmlns:inkscape="http://www.inkscape.org/namespaces/inkscape"
   version="1.0"
   width="21"
   height="9"
   id="svg2"
   inkscape:version="0.47 r22583"
   sodipodi:docname="04-02-010-01-01-02.svg">
  <defs
     id="defs14">
    <inkscape:perspective
       sodipodi:type="inkscape:persp3d"
       inkscape:vp_x="0 : 3.5 : 1"
       inkscape:vp_y="0 : 1000 : 0"
       inkscape:vp_z="7 : 3.5 : 1"
       inkscape:persp3d-origin="3.5 : 2.3333333 : 1"
       id="perspective16" />
  </defs>
  <sodipodi:namedview
     pagecolor="#ffffff"
     bordercolor="#666666"
     borderopacity="1"
     objecttolerance="10"
     gridtolerance="10"
     guidetolerance="10"
     inkscape:pageopacity="0"
     inkscape:pageshadow="2"
     inkscape:window-width="928"
     inkscape:window-height="791"
     id="namedview12"
     showgrid="true"
     inkscape:zoom="18.520245"
     inkscape:cx="9.2037059"
     inkscape:cy="4.444466"
     inkscape:window-x="273"
     inkscape:window-y="0"
     inkscape:window-maximized="0"
     inkscape:current-layer="svg2">
    <inkscape:grid
       type="xygrid"
       id="grid2822" />
  </sodipodi:namedview>
  <metadata
     id="metadata4">
Valerie Sutton's pixel definition of the
ISWA 2010 symbol ID 04-02-007-01-04-01
transformed by Stephen E Slevinski Jr
using line and fill polygon tracing
<rdf:RDF>
  <cc:Work
     rdf:about="">
    <dc:format>image/svg+xml</dc:format>
    <dc:type
       rdf:resource="http://purl.org/dc/dcmitype/StillImage" />
    <dc:title></dc:title>
  </cc:Work>
</rdf:RDF>
</metadata>
  <path
     style="fill:#000000;fill-opacity:1;stroke:none"
     d="M 5,4 4,4 4,8 0,8 0,9 5,9 5,4 z"
     id="path2841"
     sodipodi:nodetypes="ccccccc" />
  <path
     style="fill:#000000;fill-opacity:1;stroke:none"
     d="M 3.5,0 C 1.5670034,0 0,1.5670034 0,3.5 0,4.7843529 0.37730306,5.977927 1,7 L 3,7 3,5 C 1.8954305,5 1,4.3284271 1,3.5 1,2.1192881 2.1192881,1 3.5,1 L 7,1 7,0 3.5,0 z"
     id="path3011" />
  <path
     sodipodi:nodetypes="ccccccc"
     id="path3155"
     d="m 19,4 -1,0 0,4 -4,0 0,1 5,0 0,-5 z"
     style="fill:#000000;fill-opacity:1;stroke:none" />
  <path
     id="path3157"
     d="M 17.5,0 C 15.567003,0 14,1.5670034 14,3.5 14,4.7843529 14.377303,5.977927 15,7 l 2,0 0,-2 C 15.895431,5 15,4.3284271 15,3.5 15,2.1192881 16.119288,1 17.5,1 L 21,1 21,0 17.5,0 z"
     style="fill:#000000;fill-opacity:1;stroke:none" />
</svg>
