<?xml version="1.0" encoding="UTF-8" standalone="no"?>
<svg
   xmlns:dc="http://purl.org/dc/elements/1.1/"
   xmlns:cc="http://creativecommons.org/ns#"
   xmlns:rdf="http://www.w3.org/1999/02/22-rdf-syntax-ns#"
   xmlns:svg="http://www.w3.org/2000/svg"
   xmlns="http://www.w3.org/2000/svg"
   xmlns:sodipodi="http://sodipodi.sourceforge.net/DTD/sodipodi-0.dtd"
   xmlns:inkscape="http://www.inkscape.org/namespaces/inkscape"
   version="1.0"
   width="22"
   height="10"
   id="svg2"
   inkscape:version="0.47 r22583"
   sodipodi:docname="04-02-010-01-03-08.svg">
  <defs
     id="defs14">
    <inkscape:perspective
       sodipodi:type="inkscape:persp3d"
       inkscape:vp_x="0 : 3.5 : 1"
       inkscape:vp_y="0 : 1000 : 0"
       inkscape:vp_z="7 : 3.5 : 1"
       inkscape:persp3d-origin="3.5 : 2.3333333 : 1"
       id="perspective16" />
  </defs>
  <sodipodi:namedview
     pagecolor="#ffffff"
     bordercolor="#666666"
     borderopacity="1"
     objecttolerance="10"
     gridtolerance="10"
     guidetolerance="10"
     inkscape:pageopacity="0"
     inkscape:pageshadow="2"
     inkscape:window-width="928"
     inkscape:window-height="791"
     id="namedview12"
     showgrid="true"
     inkscape:zoom="17.280429"
     inkscape:cx="12.052965"
     inkscape:cy="4.3530483"
     inkscape:window-x="273"
     inkscape:window-y="0"
     inkscape:window-maximized="0"
     inkscape:current-layer="svg2">
    <inkscape:grid
       type="xygrid"
       id="grid2822" />
  </sodipodi:namedview>
  <metadata
     id="metadata4">
Valerie Sutton's pixel definition of the
ISWA 2010 symbol ID 04-02-007-01-04-01
transformed by Stephen E Slevinski Jr
using line and fill polygon tracing
<rdf:RDF>
  <cc:Work
     rdf:about="">
    <dc:format>image/svg+xml</dc:format>
    <dc:type
       rdf:resource="http://purl.org/dc/dcmitype/StillImage" />
    <dc:title></dc:title>
  </cc:Work>
</rdf:RDF>
</metadata>
  <path
     style="fill:#000000;fill-opacity:1;stroke:none"
     d="M 6.49975,-2.5e-6 5.781,0.7187475 8.5935,3.4999976 5.812252,6.3125 6.4997522,7 9.999752,3.4999998 6.4997521,-3e-7 z"
     id="path2841" />
  <path
     style="fill:#000000;fill-opacity:1;stroke:none"
     d="M 3.5,3 C 1.5670034,3 0,4.5670034 0,6.5 0,7.7843529 0.37730306,8.977927 1,10 L 3,10 3,8 C 1.8954305,8 1,7.3284271 1,6.5 1,5.1192881 2.1192881,4 3.5,4 L 6,4 6,3 3.5,3 z"
     id="path3011" />
  <path
     id="path2854"
     d="M 18.49975,-2.5e-6 17.781,0.7187475 20.5935,3.4999976 17.812252,6.3125 18.499752,7 l 3.5,-3.5000002 -3.5,-3.5000001 z"
     style="fill:#000000;fill-opacity:1;stroke:none" />
  <path
     id="path2856"
     d="M 15.5,3 C 13.567003,3 12,4.5670034 12,6.5 c 0,1.2843529 0.377303,2.477927 1,3.5 l 2,0 0,-2 C 13.895431,8 13,7.3284271 13,6.5 13,5.1192881 14.119288,4 15.5,4 L 18,4 18,3 15.5,3 z"
     style="fill:#000000;fill-opacity:1;stroke:none" />
</svg>
