<?xml version="1.0" encoding="UTF-8" standalone="no"?>
<svg
   xmlns:dc="http://purl.org/dc/elements/1.1/"
   xmlns:cc="http://creativecommons.org/ns#"
   xmlns:rdf="http://www.w3.org/1999/02/22-rdf-syntax-ns#"
   xmlns:svg="http://www.w3.org/2000/svg"
   xmlns="http://www.w3.org/2000/svg"
   xmlns:sodipodi="http://sodipodi.sourceforge.net/DTD/sodipodi-0.dtd"
   xmlns:inkscape="http://www.inkscape.org/namespaces/inkscape"
   version="1.0"
   width="14"
   height="26"
   id="svg2"
   inkscape:version="0.47 r22583"
   sodipodi:docname="02-06-001-02-02-01.svg">
  <defs
     id="defs16">
    <inkscape:perspective
       sodipodi:type="inkscape:persp3d"
       inkscape:vp_x="0 : 23 : 1"
       inkscape:vp_y="0 : 1000 : 0"
       inkscape:vp_z="36 : 23 : 1"
       inkscape:persp3d-origin="18 : 15.333333 : 1"
       id="perspective18" />
  </defs>
  <sodipodi:namedview
     pagecolor="#ffffff"
     bordercolor="#666666"
     borderopacity="1"
     objecttolerance="10"
     gridtolerance="10"
     guidetolerance="10"
     inkscape:pageopacity="0"
     inkscape:pageshadow="2"
     inkscape:window-width="964"
     inkscape:window-height="721"
     id="namedview14"
     showgrid="true"
     inkscape:zoom="16.966174"
     inkscape:cx="7"
     inkscape:cy="13"
     inkscape:window-x="365"
     inkscape:window-y="0"
     inkscape:window-maximized="0"
     inkscape:current-layer="svg2"
     showborder="true">
    <inkscape:grid
       type="xygrid"
       id="grid2824"
       empspacing="5"
       visible="true"
       enabled="true"
       snapvisiblegridlinesonly="true" />
  </sodipodi:namedview>
  <metadata
     id="metadata4">
Valerie Sutton's pixel definition of the
ISWA 2010 symbol ID 04-01-003-01-01-01
transformed by Stephen E Slevinski Jr
using line and fill polygon tracing
<rdf:RDF>
  <cc:Work
     rdf:about="">
    <dc:format>image/svg+xml</dc:format>
    <dc:type
       rdf:resource="http://purl.org/dc/dcmitype/StillImage" />
    <dc:title></dc:title>
  </cc:Work>
</rdf:RDF>
</metadata>
  <path
     style="fill:#000000;fill-opacity:1;stroke:none"
     d="M 7.46875,0.53125 6.40625,1.59375 9.4375,4.5625 C 11.337626,6.4626263 12.5,9.100505 12.5,12 c 0,2.899495 -1.162374,5.537374 -3.0625,7.4375 L 3.875,24.9375 4.9375,26 10.5,20.5 C 12.671573,18.328427 14,15.313709 14,12 14,8.686292 12.671573,5.6715729 10.5,3.5 L 7.46875,0.53125 z"
     id="path3554" />
  <path
     style="fill:#000000;fill-opacity:1;stroke:none"
     d="m 3.59375,4.40625 -1.0625,1.0625 3,3 C 6.436072,9.373572 7,10.619288 7,12 7,13.380712 6.436072,14.626428 5.53125,15.53125 L 0,21.0625 1.0625,22.125 6.59375,16.59375 C 7.7700186,15.417481 8.5,13.794926 8.5,12 8.5,10.205075 7.7700186,8.582519 6.59375,7.40625 l -3,-3 z"
     id="path3548" />
  <path
     style="fill:#ffffff;fill-opacity:1;stroke:none"
     d="m 6.40625,1.59375 -2.8125,2.8125 3,3 C 7.7700186,8.582519 8.5,10.205075 8.5,12 c 0,1.794925 -0.7299814,3.417481 -1.90625,4.59375 L 1.0625,22.125 l 2.8125,2.8125 5.5625,-5.5 C 11.337626,17.537374 12.5,14.899495 12.5,12 12.5,9.100505 11.337626,6.4626263 9.4375,4.5625 L 6.40625,1.59375 z"
     id="path3551" />
</svg>
