<?xml version="1.0" encoding="UTF-8" standalone="no"?>
<svg
   xmlns:dc="http://purl.org/dc/elements/1.1/"
   xmlns:cc="http://creativecommons.org/ns#"
   xmlns:rdf="http://www.w3.org/1999/02/22-rdf-syntax-ns#"
   xmlns:svg="http://www.w3.org/2000/svg"
   xmlns="http://www.w3.org/2000/svg"
   xmlns:sodipodi="http://sodipodi.sourceforge.net/DTD/sodipodi-0.dtd"
   xmlns:inkscape="http://www.inkscape.org/namespaces/inkscape"
   version="1.0"
   width="42"
   height="42"
   id="svg2"
   inkscape:version="0.47 r22583"
   sodipodi:docname="04-01-005-01-02-02.svg">
  <defs
     id="defs16">
    <inkscape:perspective
       sodipodi:type="inkscape:persp3d"
       inkscape:vp_x="0 : 23 : 1"
       inkscape:vp_y="0 : 1000 : 0"
       inkscape:vp_z="36 : 23 : 1"
       inkscape:persp3d-origin="18 : 15.333333 : 1"
       id="perspective18" />
  </defs>
  <sodipodi:namedview
     pagecolor="#ffffff"
     bordercolor="#666666"
     borderopacity="1"
     objecttolerance="10"
     gridtolerance="10"
     guidetolerance="10"
     inkscape:pageopacity="0"
     inkscape:pageshadow="2"
     inkscape:window-width="964"
     inkscape:window-height="721"
     id="namedview14"
     showgrid="true"
     inkscape:zoom="11.261905"
     inkscape:cx="21"
     inkscape:cy="21"
     inkscape:window-x="365"
     inkscape:window-y="0"
     inkscape:window-maximized="0"
     inkscape:current-layer="svg2">
    <inkscape:grid
       type="xygrid"
       id="grid2824" />
  </sodipodi:namedview>
  <metadata
     id="metadata4">
Valerie Sutton's pixel definition of the
ISWA 2010 symbol ID 04-01-003-01-01-01
transformed by Stephen E Slevinski Jr
using line and fill polygon tracing
<rdf:RDF>
  <cc:Work
     rdf:about="">
    <dc:format>image/svg+xml</dc:format>
    <dc:type
       rdf:resource="http://purl.org/dc/dcmitype/StillImage" />
    <dc:title />
  </cc:Work>
</rdf:RDF>
</metadata>
  <path
     style="fill:#000000"
     d="M 24.5,7 C 14.835017,7 7,14.835017 7,24.5 7,34.164983 14.835017,42 24.5,42 34.164983,42 42,34.164983 42,24.5 42,14.835017 34.164983,7 24.5,7 z m 0,1.5 c 8.836556,0 16,7.163444 16,16 0,8.836556 -7.163444,16 -16,16 -8.836556,0 -16,-7.163444 -16,-16 0,-8.836556 7.163444,-16 16,-16 z"
     id="path12" />
  <path
     d="m 8,0 0,7.0710678 1.016466,0 0,-6.0546018 6.054602,0 L 15.071068,0 8,0 z"
     id="path10"
     style="fill:#000000" />
  <path
     style="fill:#000000;fill-opacity:1;stroke:none"
     d="m 10.474875,3.1819806 0.707107,-0.7071068 4.24264,4.2426407 -0.707106,0.7071068 -4.242641,-4.2426407 z"
     id="path2831" />
  <path
     style="fill:#000000"
     id="path3049"
     d="m 0,8 0,7.071068 1.016466,0 0,-6.054602 6.054602,0 L 7.071068,8 0,8 z" />
  <path
     id="path3051"
     d="M 2.474873,11.181981 3.18198,10.474874 7.424621,14.717515 6.717514,15.424621 2.474873,11.181981 z"
     style="fill:#000000;fill-opacity:1;stroke:none" />
</svg>
