<?xml version="1.0" encoding="UTF-8" standalone="no"?>
<svg
   xmlns:dc="http://purl.org/dc/elements/1.1/"
   xmlns:cc="http://creativecommons.org/ns#"
   xmlns:rdf="http://www.w3.org/1999/02/22-rdf-syntax-ns#"
   xmlns:svg="http://www.w3.org/2000/svg"
   xmlns="http://www.w3.org/2000/svg"
   xmlns:sodipodi="http://sodipodi.sourceforge.net/DTD/sodipodi-0.dtd"
   xmlns:inkscape="http://www.inkscape.org/namespaces/inkscape"
   version="1.0"
   width="35"
   height="46"
   id="svg2"
   inkscape:version="0.47 r22583"
   sodipodi:docname="04-01-005-01-05-01.svg">
  <defs
     id="defs16">
    <inkscape:perspective
       sodipodi:type="inkscape:persp3d"
       inkscape:vp_x="0 : 23 : 1"
       inkscape:vp_y="0 : 1000 : 0"
       inkscape:vp_z="36 : 23 : 1"
       inkscape:persp3d-origin="18 : 15.333333 : 1"
       id="perspective18" />
  </defs>
  <sodipodi:namedview
     pagecolor="#ffffff"
     bordercolor="#666666"
     borderopacity="1"
     objecttolerance="10"
     gridtolerance="10"
     guidetolerance="10"
     inkscape:pageopacity="0"
     inkscape:pageshadow="2"
     inkscape:window-width="964"
     inkscape:window-height="721"
     id="namedview14"
     showgrid="true"
     inkscape:zoom="9.5822488"
     inkscape:cx="15.506544"
     inkscape:cy="23.824129"
     inkscape:window-x="365"
     inkscape:window-y="0"
     inkscape:window-maximized="0"
     inkscape:current-layer="svg2">
    <inkscape:grid
       type="xygrid"
       id="grid2824" />
  </sodipodi:namedview>
  <metadata
     id="metadata4">
Valerie Sutton's pixel definition of the
ISWA 2010 symbol ID 04-01-003-01-01-01
transformed by Stephen E Slevinski Jr
using line and fill polygon tracing
<rdf:RDF>
  <cc:Work
     rdf:about="">
    <dc:format>image/svg+xml</dc:format>
    <dc:type
       rdf:resource="http://purl.org/dc/dcmitype/StillImage" />
    <dc:title />
  </cc:Work>
</rdf:RDF>
</metadata>
  <path
     style="fill:#000000"
     d="M 17.5 11 C 7.8350169 11 0 18.835017 0 28.5 C 0 38.164983 7.8350169 46 17.5 46 C 27.164983 46 35 38.164983 35 28.5 C 35 18.835017 27.164983 11 17.5 11 z M 17.5 12.5 C 26.336556 12.5 33.5 19.663444 33.5 28.5 C 33.5 37.336556 26.336556 44.5 17.5 44.5 C 8.663444 44.5 1.5 37.336556 1.5 28.5 C 1.5 19.663444 8.663444 12.5 17.5 12.5 z "
     id="path12" />
  <path
     d="m 28.5,0 -5,5 0.71875,0.71875 L 28.5,1.4375 32.78125,5.71875 33.5,5 28.5,0 z"
     id="path10"
     style="fill:#000000" />
  <path
     style="fill:#000000;fill-opacity:1;stroke:none"
     d="m 28,4 1,0 0,6 -1,0 0,-6 z"
     id="path2831" />
  <path
     style="fill:#000000"
     id="path3049"
     d="M 17.5,10 12.5,5 13.21875,4.28125 17.5,8.5625 21.78125,4.28125 22.5,5 l -5,5 z" />
  <path
     id="path3051"
     d="m 17,6 1,0 0,-6 -1,0 0,6 z"
     style="fill:#000000;fill-opacity:1;stroke:none" />
  <path
     d="M 6.5,0 1.5,5 2.21875,5.71875 6.5,1.4375 10.78125,5.71875 11.5,5 6.5,0 z"
     id="path3081"
     style="fill:#000000" />
  <path
     style="fill:#000000;fill-opacity:1;stroke:none"
     d="M 6,4 7,4 7,10 6,10 6,4 z"
     id="path3083" />
</svg>
