<?xml version="1.0" encoding="UTF-8" standalone="no"?>
<svg
   xmlns:dc="http://purl.org/dc/elements/1.1/"
   xmlns:cc="http://creativecommons.org/ns#"
   xmlns:rdf="http://www.w3.org/1999/02/22-rdf-syntax-ns#"
   xmlns:svg="http://www.w3.org/2000/svg"
   xmlns="http://www.w3.org/2000/svg"
   xmlns:sodipodi="http://sodipodi.sourceforge.net/DTD/sodipodi-0.dtd"
   xmlns:inkscape="http://www.inkscape.org/namespaces/inkscape"
   version="1.0"
   width="47"
   height="45"
   id="svg2"
   inkscape:version="0.47 r22583"
   sodipodi:docname="04-01-005-01-04-06.svg">
  <defs
     id="defs16">
    <inkscape:perspective
       sodipodi:type="inkscape:persp3d"
       inkscape:vp_x="0 : 23 : 1"
       inkscape:vp_y="0 : 1000 : 0"
       inkscape:vp_z="36 : 23 : 1"
       inkscape:persp3d-origin="18 : 15.333333 : 1"
       id="perspective18" />
  </defs>
  <sodipodi:namedview
     pagecolor="#ffffff"
     bordercolor="#666666"
     borderopacity="1"
     objecttolerance="10"
     gridtolerance="10"
     guidetolerance="10"
     inkscape:pageopacity="0"
     inkscape:pageshadow="2"
     inkscape:window-width="964"
     inkscape:window-height="721"
     id="namedview14"
     showgrid="true"
     inkscape:zoom="9.5822488"
     inkscape:cx="23.815795"
     inkscape:cy="23.824129"
     inkscape:window-x="365"
     inkscape:window-y="0"
     inkscape:window-maximized="0"
     inkscape:current-layer="svg2">
    <inkscape:grid
       type="xygrid"
       id="grid2824" />
  </sodipodi:namedview>
  <metadata
     id="metadata4">
Valerie Sutton's pixel definition of the
ISWA 2010 symbol ID 04-01-003-01-01-01
transformed by Stephen E Slevinski Jr
using line and fill polygon tracing
<rdf:RDF>
  <cc:Work
     rdf:about="">
    <dc:format>image/svg+xml</dc:format>
    <dc:type
       rdf:resource="http://purl.org/dc/dcmitype/StillImage" />
    <dc:title />
  </cc:Work>
</rdf:RDF>
</metadata>
  <path
     style="fill:#000000"
     d="M 29.5 10 C 19.835017 10 12 17.835017 12 27.5 C 12 37.164983 19.835017 45 29.5 45 C 39.164983 45 47 37.164983 47 27.5 C 47 17.835017 39.164983 10 29.5 10 z M 29.5 11.5 C 38.336556 11.5 45.5 18.663444 45.5 27.5 C 45.5 36.336556 38.336556 43.5 29.5 43.5 C 20.663444 43.5 13.5 36.336556 13.5 27.5 C 13.5 18.663444 20.663444 11.5 29.5 11.5 z "
     id="path12" />
  <path
     d="m 7.48562,23.042 0,-7.071068 -1.016465,0 0,6.054602 -6.054601,0 0,1.016466 7.071066,0 z"
     id="path10"
     style="fill:#000000" />
  <path
     style="fill:#000000;fill-opacity:1;stroke:none"
     d="M 5.010748,19.860019 4.303641,20.567126 0.061,16.324485 l 0.707107,-0.707106 4.242641,4.24264 z"
     id="path2831" />
  <path
     style="fill:#000000"
     id="path3049"
     d="m 15.263796,15.263825 0,-7.071068 -1.016467,0 0,6.054602 -6.054601,0 0,1.016466 7.071068,0 z" />
  <path
     id="path3051"
     d="M 12.788921,12.081844 12.081815,12.788951 7.8391745,8.5463105 8.5462815,7.8392035 12.788921,12.081844 z"
     style="fill:#000000;fill-opacity:1;stroke:none" />
  <path
     d="m 23.04197,7.48565 0,-7.071067 -1.016466,0 0,6.054601 -6.054601,0 0,1.016466 7.071067,0 z"
     id="path3081"
     style="fill:#000000" />
  <path
     style="fill:#000000;fill-opacity:1;stroke:none"
     d="m 20.567096,4.3036705 -0.707106,0.707106 -4.242642,-4.24264 0.707107,-0.707107 4.242641,4.242641 z"
     id="path3083" />
</svg>
