<?xml version="1.0" encoding="UTF-8" standalone="no"?>
<svg
   xmlns:dc="http://purl.org/dc/elements/1.1/"
   xmlns:cc="http://creativecommons.org/ns#"
   xmlns:rdf="http://www.w3.org/1999/02/22-rdf-syntax-ns#"
   xmlns:svg="http://www.w3.org/2000/svg"
   xmlns="http://www.w3.org/2000/svg"
   xmlns:sodipodi="http://sodipodi.sourceforge.net/DTD/sodipodi-0.dtd"
   xmlns:inkscape="http://www.inkscape.org/namespaces/inkscape"
   version="1.0"
   width="45"
   height="45"
   id="svg2"
   inkscape:version="0.47 r22583"
   sodipodi:docname="04-01-005-01-05-06.svg">
  <defs
     id="defs16">
    <inkscape:perspective
       sodipodi:type="inkscape:persp3d"
       inkscape:vp_x="0 : 23 : 1"
       inkscape:vp_y="0 : 1000 : 0"
       inkscape:vp_z="36 : 23 : 1"
       inkscape:persp3d-origin="18 : 15.333333 : 1"
       id="perspective18" />
  </defs>
  <sodipodi:namedview
     pagecolor="#ffffff"
     bordercolor="#666666"
     borderopacity="1"
     objecttolerance="10"
     gridtolerance="10"
     guidetolerance="10"
     inkscape:pageopacity="0"
     inkscape:pageshadow="2"
     inkscape:window-width="964"
     inkscape:window-height="721"
     id="namedview14"
     showgrid="true"
     inkscape:zoom="9.5822488"
     inkscape:cx="23"
     inkscape:cy="23.824129"
     inkscape:window-x="365"
     inkscape:window-y="0"
     inkscape:window-maximized="0"
     inkscape:current-layer="svg2">
    <inkscape:grid
       type="xygrid"
       id="grid2824" />
  </sodipodi:namedview>
  <metadata
     id="metadata4">
Valerie Sutton's pixel definition of the
ISWA 2010 symbol ID 04-01-003-01-01-01
transformed by Stephen E Slevinski Jr
using line and fill polygon tracing
<rdf:RDF>
  <cc:Work
     rdf:about="">
    <dc:format>image/svg+xml</dc:format>
    <dc:type
       rdf:resource="http://purl.org/dc/dcmitype/StillImage" />
    <dc:title />
  </cc:Work>
</rdf:RDF>
</metadata>
  <path
     style="fill:#000000"
     d="M 27.5 10 C 17.835017 10 10 17.835017 10 27.5 C 10 37.164983 17.835017 45 27.5 45 C 37.164984 45 45 37.164983 45 27.5 C 45 17.835017 37.164984 10 27.5 10 z M 27.5 11.5 C 36.336556 11.5 43.5 18.663444 43.5 27.5 C 43.5 36.336556 36.336556 43.5 27.5 43.5 C 18.663444 43.5 11.5 36.336556 11.5 27.5 C 11.5 18.663444 18.663444 11.5 27.5 11.5 z "
     id="path12" />
  <path
     d="m 23.04197,7.7781745 -7.071068,7e-7 0,-1.016466 6.054602,0 0,-6.0546019 1.016466,-7e-7 0,7.0710679 z"
     id="path10"
     style="fill:#000000" />
  <path
     style="fill:#000000;fill-opacity:1;stroke:none"
     d="M 19.85999,5.3033013 20.567096,4.5961945 16.324455,0.3535535 15.617349,1.0606601 19.85999,5.3033013 z"
     id="path2831" />
  <path
     style="fill:#000000"
     id="path3049"
     d="m 6.7785134,7.071068 7.0710686,0 0,1.016466 -6.0546026,0 0,6.054602 -1.016466,0 0,-7.071068 z" />
  <path
     id="path3051"
     d="m 9.9604945,9.545942 -0.707107,0.707106 4.2426415,4.242641 0.707107,-0.707108 -4.2426415,-4.242639 z"
     style="fill:#000000;fill-opacity:1;stroke:none" />
  <path
     d="m 7.4856207,23.334523 -7.0710676,0 2e-7,-1.016464 6.0546016,0 -6e-7,-6.054603 1.016466,0 4e-7,7.071067 z"
     id="path3081"
     style="fill:#000000" />
  <path
     style="fill:#000000;fill-opacity:1;stroke:none"
     d="M 4.3036404,20.85965 5.0107473,20.152543 0.7681068,15.909902 0.061,16.617009 4.3036404,20.85965 z"
     id="path3083" />
</svg>
