<?xml version="1.0" encoding="UTF-8" standalone="no"?>
<svg
   xmlns:dc="http://purl.org/dc/elements/1.1/"
   xmlns:cc="http://creativecommons.org/ns#"
   xmlns:rdf="http://www.w3.org/1999/02/22-rdf-syntax-ns#"
   xmlns:svg="http://www.w3.org/2000/svg"
   xmlns="http://www.w3.org/2000/svg"
   xmlns:sodipodi="http://sodipodi.sourceforge.net/DTD/sodipodi-0.dtd"
   xmlns:inkscape="http://www.inkscape.org/namespaces/inkscape"
   version="1.0"
   width="39"
   height="44"
   id="svg2"
   inkscape:version="0.47 r22583"
   sodipodi:docname="04-01-005-01-02-06.svg">
  <defs
     id="defs16">
    <inkscape:perspective
       sodipodi:type="inkscape:persp3d"
       inkscape:vp_x="0 : 23 : 1"
       inkscape:vp_y="0 : 1000 : 0"
       inkscape:vp_z="36 : 23 : 1"
       inkscape:persp3d-origin="18 : 15.333333 : 1"
       id="perspective18" />
  </defs>
  <sodipodi:namedview
     pagecolor="#ffffff"
     bordercolor="#666666"
     borderopacity="1"
     objecttolerance="10"
     gridtolerance="10"
     guidetolerance="10"
     inkscape:pageopacity="0"
     inkscape:pageshadow="2"
     inkscape:window-width="964"
     inkscape:window-height="721"
     id="namedview14"
     showgrid="true"
     inkscape:zoom="9.5737298"
     inkscape:cx="20"
     inkscape:cy="23.827565"
     inkscape:window-x="365"
     inkscape:window-y="0"
     inkscape:window-maximized="0"
     inkscape:current-layer="svg2">
    <inkscape:grid
       type="xygrid"
       id="grid2824" />
  </sodipodi:namedview>
  <metadata
     id="metadata4">
Valerie Sutton's pixel definition of the
ISWA 2010 symbol ID 04-01-003-01-01-01
transformed by Stephen E Slevinski Jr
using line and fill polygon tracing
<rdf:RDF>
  <cc:Work
     rdf:about="">
    <dc:format>image/svg+xml</dc:format>
    <dc:type
       rdf:resource="http://purl.org/dc/dcmitype/StillImage" />
    <dc:title />
  </cc:Work>
</rdf:RDF>
</metadata>
  <path
     style="fill:#000000"
     d="M 21.5 9 C 11.835018 9 4 16.835017 4 26.5 C 4 36.164983 11.835018 44 21.5 44 C 31.164983 44 39 36.164983 39 26.5 C 39 16.835017 31.164983 9 21.5 9 z M 21.5 10.5 C 30.336556 10.5 37.5 17.663444 37.5 26.5 C 37.5 35.336556 30.336556 42.5 21.5 42.5 C 12.663444 42.5 5.5 35.336556 5.5 26.5 C 5.5 17.663444 12.663444 10.5 21.5 10.5 z "
     id="path12" />
  <path
     d="m 15.263796,7.485282 -7.0710685,0 0,-1.016466 6.0546025,0 0,-6.054602 1.016466,0 0,7.071068 z"
     id="path10"
     style="fill:#000000" />
  <path
     style="fill:#000000;fill-opacity:1;stroke:none"
     d="m 12.081815,5.0104075 0.707107,-0.707107 -4.2426415,-4.24264 -0.707106,0.707106 4.2426405,4.242641 z"
     id="path2831" />
  <path
     style="fill:#000000"
     id="path3049"
     d="m 7.4856205,15.263456 -7.071068,0 0,-1.016466 6.054602,0 0,-6.054602 1.016466,0 0,7.071068 z" />
  <path
     id="path3051"
     d="M 4.30364,12.788583 5.010747,12.081476 0.768106,7.838835 0.061,8.545942 4.30364,12.788583 z"
     style="fill:#000000;fill-opacity:1;stroke:none" />
</svg>
