<?xml version="1.0" encoding="UTF-8" standalone="no"?>
<svg
   xmlns:dc="http://purl.org/dc/elements/1.1/"
   xmlns:cc="http://creativecommons.org/ns#"
   xmlns:rdf="http://www.w3.org/1999/02/22-rdf-syntax-ns#"
   xmlns:svg="http://www.w3.org/2000/svg"
   xmlns="http://www.w3.org/2000/svg"
   xmlns:sodipodi="http://sodipodi.sourceforge.net/DTD/sodipodi-0.dtd"
   xmlns:inkscape="http://www.inkscape.org/namespaces/inkscape"
   version="1.0"
   width="44"
   height="41"
   id="svg2"
   inkscape:version="0.47 r22583"
   sodipodi:docname="04-01-005-01-03-02.svg">
  <defs
     id="defs16">
    <inkscape:perspective
       sodipodi:type="inkscape:persp3d"
       inkscape:vp_x="0 : 23 : 1"
       inkscape:vp_y="0 : 1000 : 0"
       inkscape:vp_z="36 : 23 : 1"
       inkscape:persp3d-origin="18 : 15.333333 : 1"
       id="perspective18" />
  </defs>
  <sodipodi:namedview
     pagecolor="#ffffff"
     bordercolor="#666666"
     borderopacity="1"
     objecttolerance="10"
     gridtolerance="10"
     guidetolerance="10"
     inkscape:pageopacity="0"
     inkscape:pageshadow="2"
     inkscape:window-width="964"
     inkscape:window-height="721"
     id="namedview14"
     showgrid="true"
     inkscape:zoom="10.26759"
     inkscape:cx="21.493055"
     inkscape:cy="21.30523"
     inkscape:window-x="365"
     inkscape:window-y="0"
     inkscape:window-maximized="0"
     inkscape:current-layer="svg2">
    <inkscape:grid
       type="xygrid"
       id="grid2824" />
  </sodipodi:namedview>
  <metadata
     id="metadata4">
Valerie Sutton's pixel definition of the
ISWA 2010 symbol ID 04-01-003-01-01-01
transformed by Stephen E Slevinski Jr
using line and fill polygon tracing
<rdf:RDF>
  <cc:Work
     rdf:about="">
    <dc:format>image/svg+xml</dc:format>
    <dc:type
       rdf:resource="http://purl.org/dc/dcmitype/StillImage" />
    <dc:title />
  </cc:Work>
</rdf:RDF>
</metadata>
  <path
     style="fill:#000000"
     d="M 26.5 6 C 16.835017 6 9 13.835017 9 23.5 C 9 33.164983 16.835017 41 26.5 41 C 36.164983 41 44 33.164983 44 23.5 C 44 13.835017 36.164983 6 26.5 6 z M 26.5 7.5 C 35.336556 7.5 42.5 14.663444 42.5 23.5 C 42.5 32.336556 35.336556 39.5 26.5 39.5 C 17.663444 39.5 10.5 32.336556 10.5 23.5 C 10.5 14.663444 17.663444 7.5 26.5 7.5 z "
     id="path12" />
  <path
     d="m 14.849242,7.4852814 -7.071068,0 0,-1.016466 6.054602,0 0,-6.0546018 1.016466,0 0,7.0710678 z"
     id="path10"
     style="fill:#000000" />
  <path
     style="fill:#000000;fill-opacity:1;stroke:none"
     d="M 11.667263,5.0104076 12.374368,4.3033009 8.1317285,0.0606602 7.4246215,0.767767 11.667263,5.0104076 z"
     id="path2831" />
  <path
     style="fill:#000000"
     id="path3049"
     d="m 0,8.1923882 0,7.0710678 1.016466,0 0,-6.054602 6.054602,0 0,-1.0164658 -7.071068,0 z" />
  <path
     id="path3051"
     d="M 2.474873,11.374369 3.18198,10.667262 7.424621,14.909903 6.717514,15.61701 2.474873,11.374369 z"
     style="fill:#000000;fill-opacity:1;stroke:none" />
</svg>
