<?xml version="1.0" encoding="UTF-8" standalone="no"?>
<svg
   xmlns:dc="http://purl.org/dc/elements/1.1/"
   xmlns:cc="http://creativecommons.org/ns#"
   xmlns:rdf="http://www.w3.org/1999/02/22-rdf-syntax-ns#"
   xmlns:svg="http://www.w3.org/2000/svg"
   xmlns="http://www.w3.org/2000/svg"
   xmlns:sodipodi="http://sodipodi.sourceforge.net/DTD/sodipodi-0.dtd"
   xmlns:inkscape="http://www.inkscape.org/namespaces/inkscape"
   version="1.0"
   width="35"
   height="48"
   id="svg2"
   inkscape:version="0.47 r22583"
   sodipodi:docname="04-01-005-01-02-03.svg">
  <defs
     id="defs16">
    <inkscape:perspective
       sodipodi:type="inkscape:persp3d"
       inkscape:vp_x="0 : 23 : 1"
       inkscape:vp_y="0 : 1000 : 0"
       inkscape:vp_z="36 : 23 : 1"
       inkscape:persp3d-origin="18 : 15.333333 : 1"
       id="perspective18" />
  </defs>
  <sodipodi:namedview
     pagecolor="#ffffff"
     bordercolor="#666666"
     borderopacity="1"
     objecttolerance="10"
     gridtolerance="10"
     guidetolerance="10"
     inkscape:pageopacity="0"
     inkscape:pageshadow="2"
     inkscape:window-width="964"
     inkscape:window-height="721"
     id="namedview14"
     showgrid="true"
     inkscape:zoom="9.5816548"
     inkscape:cx="16.737462"
     inkscape:cy="24.517458"
     inkscape:window-x="365"
     inkscape:window-y="0"
     inkscape:window-maximized="0"
     inkscape:current-layer="svg2">
    <inkscape:grid
       type="xygrid"
       id="grid2824" />
  </sodipodi:namedview>
  <metadata
     id="metadata4">
Valerie Sutton's pixel definition of the
ISWA 2010 symbol ID 04-01-003-01-01-01
transformed by Stephen E Slevinski Jr
using line and fill polygon tracing
<rdf:RDF>
  <cc:Work
     rdf:about="">
    <dc:format>image/svg+xml</dc:format>
    <dc:type
       rdf:resource="http://purl.org/dc/dcmitype/StillImage" />
    <dc:title />
  </cc:Work>
</rdf:RDF>
</metadata>
  <path
     style="fill:#000000"
     d="M 9.53125 14.9375 C 3.8750419 17.837462 0 23.706794 0 30.5 C 0 40.164983 7.8350169 48 17.5 48 C 27.164983 48 35 40.164983 35 30.5 C 35 23.706794 31.124958 17.837462 25.46875 14.9375 L 24.78125 16.28125 C 29.949075 18.933833 33.5 24.291694 33.5 30.5 C 33.5 39.336556 26.336556 46.5 17.5 46.5 C 8.663444 46.5 1.5 39.336556 1.5 30.5 C 1.5 24.291694 5.0509252 18.933833 10.21875 16.28125 L 9.53125 14.9375 z "
     id="path12" />
  <path
     d="m 12.5,16 5,-5 0.71875,0.71875 L 13.9375,16 18.21875,20.28125 17.5,21 l -5,-5 z"
     id="path10"
     style="fill:#000000" />
  <path
     style="fill:#000000;fill-opacity:1;stroke:none"
     d="m 16.5,15.5 0,1 6,0 0,-1 -6,0 z"
     id="path2831" />
  <path
     style="fill:#000000"
     id="path3049"
     d="m 12.5,5 5,-5 0.71875,0.71875 L 13.9375,5 18.21875,9.28125 17.5,10 12.5,5 z" />
  <path
     id="path3051"
     d="m 16.5,4.5 0,1 6,0 0,-1 -6,0 z"
     style="fill:#000000;fill-opacity:1;stroke:none" />
</svg>
