<?xml version="1.0" encoding="UTF-8" standalone="no"?>
<svg
   xmlns:dc="http://purl.org/dc/elements/1.1/"
   xmlns:cc="http://creativecommons.org/ns#"
   xmlns:rdf="http://www.w3.org/1999/02/22-rdf-syntax-ns#"
   xmlns:svg="http://www.w3.org/2000/svg"
   xmlns="http://www.w3.org/2000/svg"
   xmlns:sodipodi="http://sodipodi.sourceforge.net/DTD/sodipodi-0.dtd"
   xmlns:inkscape="http://www.inkscape.org/namespaces/inkscape"
   version="1.0"
   width="43"
   height="42"
   id="svg2"
   inkscape:version="0.47 r22583"
   sodipodi:docname="04-01-005-01-03-06.svg">
  <defs
     id="defs16">
    <inkscape:perspective
       sodipodi:type="inkscape:persp3d"
       inkscape:vp_x="0 : 23 : 1"
       inkscape:vp_y="0 : 1000 : 0"
       inkscape:vp_z="36 : 23 : 1"
       inkscape:persp3d-origin="18 : 15.333333 : 1"
       id="perspective18" />
  </defs>
  <sodipodi:namedview
     pagecolor="#ffffff"
     bordercolor="#666666"
     borderopacity="1"
     objecttolerance="10"
     gridtolerance="10"
     guidetolerance="10"
     inkscape:pageopacity="0"
     inkscape:pageshadow="2"
     inkscape:window-width="964"
     inkscape:window-height="721"
     id="namedview14"
     showgrid="true"
     inkscape:zoom="11.009789"
     inkscape:cx="22.252353"
     inkscape:cy="20.546347"
     inkscape:window-x="365"
     inkscape:window-y="0"
     inkscape:window-maximized="0"
     inkscape:current-layer="svg2">
    <inkscape:grid
       type="xygrid"
       id="grid2824" />
  </sodipodi:namedview>
  <metadata
     id="metadata4">
Valerie Sutton's pixel definition of the
ISWA 2010 symbol ID 04-01-003-01-01-01
transformed by Stephen E Slevinski Jr
using line and fill polygon tracing
<rdf:RDF>
  <cc:Work
     rdf:about="">
    <dc:format>image/svg+xml</dc:format>
    <dc:type
       rdf:resource="http://purl.org/dc/dcmitype/StillImage" />
    <dc:title />
  </cc:Work>
</rdf:RDF>
</metadata>
  <path
     style="fill:#000000"
     d="M 25.5 7 C 15.835017 7 8 14.835017 8 24.5 C 8 34.164983 15.835017 42 25.5 42 C 35.164983 42 43 34.164983 43 24.5 C 43 14.835017 35.164983 7 25.5 7 z M 25.5 8.5 C 34.336556 8.5 41.5 15.663444 41.5 24.5 C 41.5 33.336556 34.336556 40.5 25.5 40.5 C 16.663444 40.5 9.5 33.336556 9.5 24.5 C 9.5 15.663444 16.663444 8.5 25.5 8.5 z "
     id="path12" />
  <path
     d="m 8.192729,-2.421e-4 0,7.0710679 1.016466,2e-7 0,-6.0546019 6.054601,-4e-7 0,-1.016466 -7.071067,2e-7 z"
     id="path10"
     style="fill:#000000" />
  <path
     style="fill:#000000;fill-opacity:1;stroke:none"
     d="M 10.667602,3.1817378 11.374709,2.4746314 15.61735,6.7172711 14.910243,7.4243785 10.667602,3.1817378 z"
     id="path2831" />
  <path
     style="fill:#000000"
     id="path3049"
     d="m 7.485622,14.849 -7.071068,0 0,-1.016466 6.054602,0 0,-6.0546024 1.016466,6e-7 0,7.0710678 z" />
  <path
     id="path3051"
     d="M 4.303641,12.374127 5.010748,11.66702 0.768107,7.4243788 0.061,8.1314858 4.303641,12.374127 z"
     style="fill:#000000;fill-opacity:1;stroke:none" />
</svg>
