<?xml version="1.0" encoding="UTF-8" standalone="no"?>
<svg
   xmlns:dc="http://purl.org/dc/elements/1.1/"
   xmlns:cc="http://creativecommons.org/ns#"
   xmlns:rdf="http://www.w3.org/1999/02/22-rdf-syntax-ns#"
   xmlns:svg="http://www.w3.org/2000/svg"
   xmlns="http://www.w3.org/2000/svg"
   xmlns:sodipodi="http://sodipodi.sourceforge.net/DTD/sodipodi-0.dtd"
   xmlns:inkscape="http://www.inkscape.org/namespaces/inkscape"
   version="1.0"
   width="26"
   height="36"
   id="svg2"
   inkscape:version="0.47 r22583"
   sodipodi:docname="06-01-007-01-01-15.svg">
  <defs
     id="defs14">
    <inkscape:perspective
       sodipodi:type="inkscape:persp3d"
       inkscape:vp_x="0 : 5.5 : 1"
       inkscape:vp_y="0 : 1000 : 0"
       inkscape:vp_z="10 : 5.5 : 1"
       inkscape:persp3d-origin="5 : 3.6666667 : 1"
       id="perspective16" />
  </defs>
  <sodipodi:namedview
     pagecolor="#ffffff"
     bordercolor="#666666"
     borderopacity="1"
     objecttolerance="10"
     gridtolerance="10"
     guidetolerance="10"
     inkscape:pageopacity="0"
     inkscape:pageshadow="2"
     inkscape:window-width="917"
     inkscape:window-height="792"
     id="namedview12"
     showgrid="true"
     inkscape:zoom="15.111111"
     inkscape:cx="13"
     inkscape:cy="18"
     inkscape:window-x="313"
     inkscape:window-y="0"
     inkscape:window-maximized="0"
     inkscape:current-layer="svg2"
     showborder="true"
     inkscape:showpageshadow="true"
     inkscape:snap-center="false">
    <inkscape:grid
       type="xygrid"
       id="grid2822"
       empspacing="5"
       visible="true"
       enabled="true"
       snapvisiblegridlinesonly="true" />
  </sodipodi:namedview>
  <metadata
     id="metadata4">
Valerie Sutton's pixel definition of the
ISWA 2010 symbol ID 02-01-001-01-01-01
transformed by Stephen E Slevinski Jr
using line and fill polygon tracing
<rdf:RDF>
  <cc:Work
     rdf:about="">
    <dc:format>image/svg+xml</dc:format>
    <dc:type
       rdf:resource="http://purl.org/dc/dcmitype/StillImage" />
    <dc:title></dc:title>
  </cc:Work>
</rdf:RDF>
</metadata>
  <path
     style="fill:#ffffff;fill-opacity:1;stroke:none"
     d="M 3,0 3,1.125 C 1.7702762,1.4018017 0.72217809,2.1823749 0,3.25 L 0,6.5 C 0,4.0147186 1.790861,2 4,2 L 4,0 3,0 z M 0,6.5 0,9.75 c 0.72217809,1.067625 1.7702762,1.848199 3,2.125 L 3,14.34375 1.46875,17 l 8.75,15.15625 C 9.5178815,31.613496 8.8247021,31 8,31 l -1,0 c -1.490712,0 -2.509288,2 -4,2 l -2,0 0,1 2,0 c 1.490712,0 2.509288,-2 4,-2 l 1,0 c 1.490712,0 2.509288,2 4,2 L 12,33 2.65625,17 9,6 9,3 26,3 26,2 8,2 8,5.71875 6,9.1875 6,0 5,0 5,10.90625 4,12.625 4,11 C 1.790861,11 0,8.9852814 0,6.5 z m 4,-3 c -1.3807119,0 -2.5,1.3431458 -2.5,3 0,1.6568542 1.1192881,3 2.5,3 l 0,-6 z M 11.3125,6 4.9375,17 14,32.6875 14,36 15,36 15,32.40625 6.125,17 11.90625,7 26,7 26,6 11.3125,6 z M 7,34 c -1.490712,0 -2.509288,2 -4,2 l 2,0 c 0.627322,-0.5 1.254644,-1 2,-1 l 1,0 c 0.745356,0 1.372678,0.5 2,1 l 2,0 C 10.509288,36 9.490712,34 8,34 l -1,0 z"
     id="path2832" />
  <path
     style="fill:#000000;fill-opacity:1;stroke:none"
     d="M 9,3 9,6 2.65625,17 12,33.21875 12,34 C 10.509288,34 9.490712,32 8,32 l -1,0 c -1.490712,0 -2.509288,2 -4,2 l -2,0 0,2 2,0 c 1.490712,0 2.509288,-2 4,-2 l 1,0 c 1.490712,0 2.509288,2 4,2 l 2,0 0,-3.3125 L 4.9375,17 11.3125,6 26,6 26,3 9,3 z"
     id="path2822" />
  <path
     style="fill:#000000;fill-opacity:1;stroke:none"
     d="M 4 0 L 4 2 C 1.790861 2 0 4.0147186 0 6.5 C 0 8.9852814 1.790861 11 4 11 L 4 13 L 5 13 L 5 0 L 4 0 z M 4 3.5 L 4 9.5 C 2.6192881 9.5 1.5 8.1568542 1.5 6.5 C 1.5 4.8431458 2.6192881 3.5 4 3.5 z "
     id="rect3054" />
</svg>
