<?xml version="1.0" encoding="UTF-8" standalone="no"?>
<svg
   xmlns:dc="http://purl.org/dc/elements/1.1/"
   xmlns:cc="http://creativecommons.org/ns#"
   xmlns:rdf="http://www.w3.org/1999/02/22-rdf-syntax-ns#"
   xmlns:svg="http://www.w3.org/2000/svg"
   xmlns="http://www.w3.org/2000/svg"
   xmlns:sodipodi="http://sodipodi.sourceforge.net/DTD/sodipodi-0.dtd"
   xmlns:inkscape="http://www.inkscape.org/namespaces/inkscape"
   version="1.0"
   width="25"
   height="33"
   id="svg2"
   inkscape:version="0.47 r22583"
   sodipodi:docname="06-01-007-01-01-13.svg">
  <defs
     id="defs14">
    <inkscape:perspective
       sodipodi:type="inkscape:persp3d"
       inkscape:vp_x="0 : 5.5 : 1"
       inkscape:vp_y="0 : 1000 : 0"
       inkscape:vp_z="10 : 5.5 : 1"
       inkscape:persp3d-origin="5 : 3.6666667 : 1"
       id="perspective16" />
  </defs>
  <sodipodi:namedview
     pagecolor="#ffffff"
     bordercolor="#666666"
     borderopacity="1"
     objecttolerance="10"
     gridtolerance="10"
     guidetolerance="10"
     inkscape:pageopacity="0"
     inkscape:pageshadow="2"
     inkscape:window-width="917"
     inkscape:window-height="792"
     id="namedview12"
     showgrid="true"
     inkscape:zoom="16.484848"
     inkscape:cx="12.5"
     inkscape:cy="16.5"
     inkscape:window-x="313"
     inkscape:window-y="0"
     inkscape:window-maximized="0"
     inkscape:current-layer="svg2"
     showborder="true"
     inkscape:showpageshadow="true"
     inkscape:snap-center="false">
    <inkscape:grid
       type="xygrid"
       id="grid2822"
       empspacing="5"
       visible="true"
       enabled="true"
       snapvisiblegridlinesonly="true" />
  </sodipodi:namedview>
  <metadata
     id="metadata4">
Valerie Sutton's pixel definition of the
ISWA 2010 symbol ID 02-01-001-01-01-01
transformed by Stephen E Slevinski Jr
using line and fill polygon tracing
<rdf:RDF>
  <cc:Work
     rdf:about="">
    <dc:format>image/svg+xml</dc:format>
    <dc:type
       rdf:resource="http://purl.org/dc/dcmitype/StillImage" />
    <dc:title></dc:title>
  </cc:Work>
</rdf:RDF>
</metadata>
  <path
     style="fill:#ffffff;fill-opacity:1;stroke:none"
     d="M 6.5 3 C 3.4624339 3 1 5.4624339 1 8.5 C 1 11.537566 3.4624339 14 6.5 14 C 9.5375661 14 12 11.537566 12 8.5 C 12 5.4624339 9.5375661 3 6.5 3 z M 6.5 4 C 8.9852814 4 11 6.0147186 11 8.5 C 11 10.985281 8.9852814 13 6.5 13 C 4.0147186 13 2 10.985281 2 8.5 C 2 6.0147186 4.0147186 4 6.5 4 z "
     id="path2945" />
  <path
     style="fill:#ffffff;fill-opacity:1;stroke:none"
     d="M 7 0 L 7 2.71875 L 0.46875 14 L 9.21875 29.15625 C 8.5178815 28.613496 7.8247021 28 7 28 L 6 28 C 4.509288 28 3.490712 30 2 30 L 0 30 L 0 31 L 2 31 C 3.490712 31 4.509288 29 6 29 L 7 29 C 8.490712 29 9.509288 31 11 31 L 11 30 L 1.65625 14 L 8 3 L 8 0 L 7 0 z M 10.3125 3 L 3.9375 14 L 13 29.6875 L 13 33 L 14 33 L 14 29.40625 L 5.125 14 L 10.90625 4 L 25 4 L 25 3 L 10.3125 3 z M 6 31 C 4.509288 31 3.490712 33 2 33 L 4 33 C 4.627322 32.5 5.254644 32 6 32 L 7 32 C 7.745356 32 8.372678 32.5 9 33 L 11 33 C 9.509288 33 8.490712 31 7 31 L 6 31 z "
     id="path2832" />
  <path
     style="fill:#000000;fill-opacity:1;stroke:none"
     d="M 8 0 L 8 3 L 1.65625 14 L 11 30.21875 L 11 31 C 9.509288 31 8.490712 29 7 29 L 6 29 C 4.509288 29 3.490712 31 2 31 L 0 31 L 0 33 L 2 33 C 3.490712 33 4.509288 31 6 31 L 7 31 C 8.490712 31 9.509288 33 11 33 L 13 33 L 13 29.6875 L 3.9375 14 L 10.3125 3 L 25 3 L 25 0 L 8 0 z "
     id="path2822" />
  <path
     style="fill:#000000;fill-opacity:1;stroke:none"
     d="M 6.5 4 C 4.0147186 4 2 6.0147186 2 8.5 C 2 10.985281 4.0147186 13 6.5 13 C 8.9852814 13 11 10.985281 11 8.5 C 11 6.0147186 8.9852814 4 6.5 4 z "
     id="path3007" />
</svg>
