<?xml version="1.0" encoding="UTF-8" standalone="no"?>
<svg
   xmlns:dc="http://purl.org/dc/elements/1.1/"
   xmlns:cc="http://creativecommons.org/ns#"
   xmlns:rdf="http://www.w3.org/1999/02/22-rdf-syntax-ns#"
   xmlns:svg="http://www.w3.org/2000/svg"
   xmlns="http://www.w3.org/2000/svg"
   xmlns:sodipodi="http://sodipodi.sourceforge.net/DTD/sodipodi-0.dtd"
   xmlns:inkscape="http://www.inkscape.org/namespaces/inkscape"
   version="1.0"
   width="31"
   height="35"
   id="svg2"
   inkscape:version="0.47 r22583"
   sodipodi:docname="06-01-007-01-02-06.svg">
  <defs
     id="defs14">
    <inkscape:perspective
       sodipodi:type="inkscape:persp3d"
       inkscape:vp_x="0 : 5.5 : 1"
       inkscape:vp_y="0 : 1000 : 0"
       inkscape:vp_z="10 : 5.5 : 1"
       inkscape:persp3d-origin="5 : 3.6666667 : 1"
       id="perspective16" />
  </defs>
  <sodipodi:namedview
     pagecolor="#ffffff"
     bordercolor="#666666"
     borderopacity="1"
     objecttolerance="10"
     gridtolerance="10"
     guidetolerance="10"
     inkscape:pageopacity="0"
     inkscape:pageshadow="2"
     inkscape:window-width="917"
     inkscape:window-height="792"
     id="namedview12"
     showgrid="true"
     inkscape:zoom="15.542857"
     inkscape:cx="15.5"
     inkscape:cy="17.5"
     inkscape:window-x="313"
     inkscape:window-y="0"
     inkscape:window-maximized="0"
     inkscape:current-layer="svg2"
     showborder="true"
     inkscape:showpageshadow="true"
     inkscape:snap-center="false">
    <inkscape:grid
       type="xygrid"
       id="grid2822"
       empspacing="5"
       visible="true"
       enabled="true"
       snapvisiblegridlinesonly="true" />
  </sodipodi:namedview>
  <metadata
     id="metadata4">
Valerie Sutton's pixel definition of the
ISWA 2010 symbol ID 02-01-001-01-01-01
transformed by Stephen E Slevinski Jr
using line and fill polygon tracing
<rdf:RDF>
  <cc:Work
     rdf:about="">
    <dc:format>image/svg+xml</dc:format>
    <dc:type
       rdf:resource="http://purl.org/dc/dcmitype/StillImage" />
    <dc:title></dc:title>
  </cc:Work>
</rdf:RDF>
</metadata>
  <path
     style="fill:#000000;fill-opacity:1;stroke:none"
     d="M 7,0 7,29 23.25,12.75 21.84375,11.3125 9,24.1875 9,5 31,5 31,0 7,0 z"
     id="rect2814" />
  <path
     style="fill:#ffffff;fill-opacity:1;stroke:none"
     d="M 6 0 L 6 29 L 0 29 L 0 30 L 13 30 L 13 31 L 11 31 C 11 33.209139 8.985281 35 6.5 35 L 9.75 35 C 10.817625 34.277822 11.598199 33.229724 11.875 32 L 14 32 L 14 29 L 8.4375 29 L 24.6875 12.75 L 21.84375 9.90625 L 10 21.75 L 10 6 L 31 6 L 31 5 L 9 5 L 9 24.15625 L 21.84375 11.3125 L 23.25 12.75 L 7 29 L 7 0 L 6 0 z M 6.5 35 C 4.014719 35 2 33.209139 2 31 L 0 31 L 0 32 L 1.125 32 C 1.4018014 33.229724 2.1823748 34.277822 3.25 35 L 6.5 35 z M 3.5 31 C 3.5 32.380712 4.843146 33.5 6.5 33.5 C 8.156854 33.5 9.5 32.380712 9.5 31 L 3.5 31 z "
     id="rect2831" />
  <path
     style="fill:#000000;fill-opacity:1;stroke:none"
     d="m 0,31 2,0 c 0,2.209139 2.014719,4 4.5,4 2.485281,0 4.5,-1.790861 4.5,-4 l 2,0 0,-1 -13,0 0,1 z m 3.5,0 6,0 c 0,1.380712 -1.343146,2.5 -3,2.5 -1.656854,0 -3,-1.119288 -3,-2.5 z"
     id="rect2953" />
</svg>
