<?xml version="1.0" encoding="UTF-8" standalone="no"?>
<svg
   xmlns:dc="http://purl.org/dc/elements/1.1/"
   xmlns:cc="http://creativecommons.org/ns#"
   xmlns:rdf="http://www.w3.org/1999/02/22-rdf-syntax-ns#"
   xmlns:svg="http://www.w3.org/2000/svg"
   xmlns="http://www.w3.org/2000/svg"
   xmlns:sodipodi="http://sodipodi.sourceforge.net/DTD/sodipodi-0.dtd"
   xmlns:inkscape="http://www.inkscape.org/namespaces/inkscape"
   version="1.0"
   width="17"
   height="37"
   id="svg2"
   inkscape:version="0.47 r22583"
   sodipodi:docname="06-01-007-01-01-02.svg">
  <defs
     id="defs14">
    <inkscape:perspective
       sodipodi:type="inkscape:persp3d"
       inkscape:vp_x="0 : 5.5 : 1"
       inkscape:vp_y="0 : 1000 : 0"
       inkscape:vp_z="10 : 5.5 : 1"
       inkscape:persp3d-origin="5 : 3.6666667 : 1"
       id="perspective16" />
  </defs>
  <sodipodi:namedview
     pagecolor="#ffffff"
     bordercolor="#666666"
     borderopacity="1"
     objecttolerance="10"
     gridtolerance="10"
     guidetolerance="10"
     inkscape:pageopacity="0"
     inkscape:pageshadow="2"
     inkscape:window-width="917"
     inkscape:window-height="792"
     id="namedview12"
     showgrid="true"
     inkscape:zoom="14.702703"
     inkscape:cx="8.5"
     inkscape:cy="18.5"
     inkscape:window-x="313"
     inkscape:window-y="0"
     inkscape:window-maximized="0"
     inkscape:current-layer="svg2"
     showborder="true"
     inkscape:showpageshadow="true"
     inkscape:snap-center="false">
    <inkscape:grid
       type="xygrid"
       id="grid2822"
       empspacing="5"
       visible="true"
       enabled="true"
       snapvisiblegridlinesonly="true" />
  </sodipodi:namedview>
  <metadata
     id="metadata4">
Valerie Sutton's pixel definition of the
ISWA 2010 symbol ID 02-01-001-01-01-01
transformed by Stephen E Slevinski Jr
using line and fill polygon tracing
<rdf:RDF>
  <cc:Work
     rdf:about="">
    <dc:format>image/svg+xml</dc:format>
    <dc:type
       rdf:resource="http://purl.org/dc/dcmitype/StillImage" />
    <dc:title></dc:title>
  </cc:Work>
</rdf:RDF>
</metadata>
  <path
     style="fill:#000000;fill-opacity:1;stroke:none"
     d="M 0 0 L 0 18 L 15 33 L 16.40625 31.59375 L 2 17.1875 L 2 0 L 0 0 z "
     id="rect2814" />
  <path
     style="fill:#ffffff;fill-opacity:1;stroke:none"
     d="M 2 0 L 2 17.1875 L 16.40625 31.59375 L 15 33 L 0 18 L 0 19.4375 L 6 25.4375 L 3.875 27.5625 L 5.375 29.0625 C 4.12656 31.036226 4.4643521 33.808102 6.34375 35.6875 C 6.9437754 36.287525 7.6474789 36.71521 8.375 37 L 12.34375 37 C 12.565656 36.904182 12.762436 36.78675 12.96875 36.65625 L 13.3125 37 L 15.625 37 L 16.59375 36.03125 L 15 34.4375 L 17 32.4375 L 17 30.75 L 3 16.75 L 3 0 L 2 0 z M 6 26.84375 L 15.1875 36.03125 L 14.5 36.75 L 13.0625 35.34375 C 11.500403 36.905848 8.819859 36.726109 7.0625 34.96875 C 5.3051409 33.211391 5.1566528 30.530847 6.71875 28.96875 L 5.28125 27.5625 L 6 26.84375 z M 7.78125 30.03125 C 6.8049393 31.007561 6.9534273 32.765927 8.125 33.9375 C 9.2965727 35.109072 11.023689 35.257561 12 34.28125 L 7.78125 30.03125 z "
     id="path2959" />
  <path
     style="fill:#000000;fill-opacity:1;stroke:none"
     d="m 5.2928932,27.559399 1.4142136,1.414213 c -1.5620972,1.562097 -1.4038057,4.253049 0.3535534,6.010408 1.757359,1.757359 4.4483108,1.915651 6.0104078,0.353553 L 14.485281,36.751787 15.192388,36.04468 6,26.852292 5.2928932,27.559399 z m 2.4748737,2.474873 4.2426411,4.242641 C 11.034097,35.253224 9.292893,35.094932 8.1213203,33.92336 6.9497476,32.751787 6.7914562,31.010583 7.7677669,30.034272 z"
     id="rect3000" />
</svg>
