<?xml version="1.0" encoding="UTF-8" standalone="no"?>
<svg
   xmlns:dc="http://purl.org/dc/elements/1.1/"
   xmlns:cc="http://creativecommons.org/ns#"
   xmlns:rdf="http://www.w3.org/1999/02/22-rdf-syntax-ns#"
   xmlns:svg="http://www.w3.org/2000/svg"
   xmlns="http://www.w3.org/2000/svg"
   xmlns:sodipodi="http://sodipodi.sourceforge.net/DTD/sodipodi-0.dtd"
   xmlns:inkscape="http://www.inkscape.org/namespaces/inkscape"
   version="1.0"
   width="24"
   height="37"
   id="svg2"
   inkscape:version="0.47 r22583"
   sodipodi:docname="06-01-007-01-04-01.svg">
  <defs
     id="defs14">
    <inkscape:perspective
       sodipodi:type="inkscape:persp3d"
       inkscape:vp_x="0 : 5.5 : 1"
       inkscape:vp_y="0 : 1000 : 0"
       inkscape:vp_z="10 : 5.5 : 1"
       inkscape:persp3d-origin="5 : 3.6666667 : 1"
       id="perspective16" />
  </defs>
  <sodipodi:namedview
     pagecolor="#ffffff"
     bordercolor="#666666"
     borderopacity="1"
     objecttolerance="10"
     gridtolerance="10"
     guidetolerance="10"
     inkscape:pageopacity="0"
     inkscape:pageshadow="2"
     inkscape:window-width="917"
     inkscape:window-height="792"
     id="namedview12"
     showgrid="true"
     inkscape:zoom="14.702703"
     inkscape:cx="12"
     inkscape:cy="18.5"
     inkscape:window-x="313"
     inkscape:window-y="0"
     inkscape:window-maximized="0"
     inkscape:current-layer="svg2"
     showborder="true"
     inkscape:showpageshadow="true"
     inkscape:snap-center="false">
    <inkscape:grid
       type="xygrid"
       id="grid2822"
       empspacing="5"
       visible="true"
       enabled="true"
       snapvisiblegridlinesonly="true" />
  </sodipodi:namedview>
  <metadata
     id="metadata4">
Valerie Sutton's pixel definition of the
ISWA 2010 symbol ID 02-01-001-01-01-01
transformed by Stephen E Slevinski Jr
using line and fill polygon tracing
<rdf:RDF>
  <cc:Work
     rdf:about="">
    <dc:format>image/svg+xml</dc:format>
    <dc:type
       rdf:resource="http://purl.org/dc/dcmitype/StillImage" />
    <dc:title></dc:title>
  </cc:Work>
</rdf:RDF>
</metadata>
  <path
     style="fill:#ffffff;fill-opacity:1;stroke:none"
     d="M 13.5,26 C 16.537566,26 19,28.462434 19,31.5 19,34.537566 16.537566,37 13.5,37 10.462434,37 8,34.537566 8,31.5 8,28.462434 10.462434,26 13.5,26 z m 1.5,5 -2,0 0,1 2,0 0,-1 z"
     id="path3033" />
  <path
     style="fill:#000000;fill-opacity:1;stroke:none"
     d="M 24,0 24,22 9,37 7.59375,35.59375 22,21.1875 22,5 0,5 0,0 24,0 z"
     id="rect2814" />
  <path
     style="fill:#ffffff;fill-opacity:1;stroke:none"
     d="M 22,5 22,21.1875 7.59375,35.59375 9,37 7.5625,37 6.15625,35.59375 21,20.75 21,6 0,6 0,5 22,5 z M 9,37 24,22 24,23.4375 10.40625,37 9,37 z"
     id="rect2850" />
  <path
     style="fill:#ffffff;fill-opacity:1;stroke:none"
     d="m 13.5,28 c -0.483249,0 -0.956266,0.10414 -1.375,0.28125 -0.418734,0.17711 -0.777062,0.433312 -1.09375,0.75 -0.316688,0.316688 -0.57289,0.675016 -0.75,1.09375 C 10.10414,30.543734 10,31.016751 10,31.5 c 0,0.483249 0.10414,0.956266 0.28125,1.375 0.17711,0.418734 0.433312,0.777062 0.75,1.09375 0.316688,0.316688 0.675016,0.57289 1.09375,0.75 C 12.543734,34.89586 13.016751,35 13.5,35 c 0.483249,0 0.956266,-0.10414 1.375,-0.28125 0.418734,-0.17711 0.777062,-0.433312 1.09375,-0.75 0.316688,-0.316688 0.57289,-0.675016 0.75,-1.09375 C 16.89586,32.456266 17,31.983249 17,31.5 c 0,-0.483249 -0.10414,-0.956266 -0.28125,-1.375 -0.17711,-0.418734 -0.433312,-0.777062 -0.75,-1.09375 -0.316688,-0.316688 -0.675016,-0.57289 -1.09375,-0.75 C 14.456266,28.10414 13.983249,28 13.5,28 z"
     id="path2903" />
  <path
     style="fill:#000000;fill-opacity:1;stroke:none"
     d="M 13.5,27 C 15.985281,27 18,29.014719 18,31.5 18,33.985281 15.985281,36 13.5,36 11.014719,36 9,33.985281 9,31.5 9,29.014719 11.014719,27 13.5,27 z m 0,1.5 c -1.656854,0 -3,1.343146 -3,3 0,1.656854 1.343146,3 3,3 1.656854,0 3,-1.343146 3,-3 0,-1.656854 -1.343146,-3 -3,-3 z"
     id="path2878" />
</svg>
