<?xml version="1.0" encoding="UTF-8" standalone="no"?>
<svg
   xmlns:dc="http://purl.org/dc/elements/1.1/"
   xmlns:cc="http://creativecommons.org/ns#"
   xmlns:rdf="http://www.w3.org/1999/02/22-rdf-syntax-ns#"
   xmlns:svg="http://www.w3.org/2000/svg"
   xmlns="http://www.w3.org/2000/svg"
   xmlns:sodipodi="http://sodipodi.sourceforge.net/DTD/sodipodi-0.dtd"
   xmlns:inkscape="http://www.inkscape.org/namespaces/inkscape"
   version="1.0"
   width="25"
   height="35"
   id="svg2"
   inkscape:version="0.47 r22583"
   sodipodi:docname="06-01-007-01-03-12.svg">
  <defs
     id="defs14">
    <inkscape:perspective
       sodipodi:type="inkscape:persp3d"
       inkscape:vp_x="0 : 5.5 : 1"
       inkscape:vp_y="0 : 1000 : 0"
       inkscape:vp_z="10 : 5.5 : 1"
       inkscape:persp3d-origin="5 : 3.6666667 : 1"
       id="perspective16" />
  </defs>
  <sodipodi:namedview
     pagecolor="#ffffff"
     bordercolor="#666666"
     borderopacity="1"
     objecttolerance="10"
     gridtolerance="10"
     guidetolerance="10"
     inkscape:pageopacity="0"
     inkscape:pageshadow="2"
     inkscape:window-width="917"
     inkscape:window-height="792"
     id="namedview12"
     showgrid="true"
     inkscape:zoom="15.542857"
     inkscape:cx="12.5"
     inkscape:cy="17.5"
     inkscape:window-x="313"
     inkscape:window-y="0"
     inkscape:window-maximized="0"
     inkscape:current-layer="svg2"
     showborder="true"
     inkscape:showpageshadow="true"
     inkscape:snap-center="false">
    <inkscape:grid
       type="xygrid"
       id="grid2822"
       empspacing="5"
       visible="true"
       enabled="true"
       snapvisiblegridlinesonly="true" />
  </sodipodi:namedview>
  <metadata
     id="metadata4">
Valerie Sutton's pixel definition of the
ISWA 2010 symbol ID 02-01-001-01-01-01
transformed by Stephen E Slevinski Jr
using line and fill polygon tracing
<rdf:RDF>
  <cc:Work
     rdf:about="">
    <dc:format>image/svg+xml</dc:format>
    <dc:type
       rdf:resource="http://purl.org/dc/dcmitype/StillImage" />
    <dc:title></dc:title>
  </cc:Work>
</rdf:RDF>
</metadata>
  <path
     style="fill:#ffffff;fill-opacity:1;stroke:none"
     d="M 7 0 L 7 2.71875 L 0.46875 14 L 9.21875 29.15625 C 8.517882 28.613496 7.824702 28 7 28 L 6 28 C 4.509288 28 3.490712 30 2 30 L 0 30 L 0 31 L 2 31 C 3.490712 31 4.509288 29 6 29 L 7 29 C 8.490712 29 9.509288 31 11 31 L 11 30 L 1.65625 14 L 8 3 L 8 0 L 7 0 z M 10.3125 3 L 3.9375 14 L 13 29.71875 L 13 33 L 11 33 C 9.509288 33 8.490712 31 7 31 L 6 31 C 4.509288 31 3.490712 33 2 33 L 0 33 L 0 34 L 2 34 C 3.490712 34 4.509288 32 6 32 L 7 32 C 8.490712 32 9.509288 34 11 34 L 14 34 L 14 33 L 14 31.4375 L 16.0625 35 L 18.34375 35 L 19.21875 34.5 L 18.15625 32.65625 C 19.87299 31.072897 20.266435 28.301783 18.9375 26 C 17.608565 23.698217 15.010844 22.648688 12.78125 23.34375 L 11.71875 21.5 L 10 22.5 L 5.125 14 L 10.90625 4 L 25 4 L 25 3 L 10.3125 3 z M 11.34375 22.875 L 12.34375 24.59375 C 14.256921 23.48918 16.819859 24.347684 18.0625 26.5 C 19.305139 28.652316 18.756919 31.301681 16.84375 32.40625 L 17.84375 34.125 L 17 34.625 L 10.53125 23.375 L 11.34375 22.875 z M 14.0625 25.625 C 13.727571 25.64308 13.392683 25.733661 13.09375 25.90625 L 16.09375 31.09375 C 17.289482 30.403394 17.609676 28.684878 16.78125 27.25 C 16.15993 26.173841 15.067286 25.570766 14.0625 25.625 z "
     id="path2855" />
  <path
     style="fill:#000000;fill-opacity:1;stroke:none"
     d="M 8,0 8,3 1.65625,14 11,30.21875 11,31 C 9.509288,31 8.490712,29 7,29 l -1,0 c -1.490712,0 -2.509288,2 -4,2 l -2,0 0,2 2,0 c 1.490712,0 2.509288,-2 4,-2 l 1,0 c 1.490712,0 2.509288,2 4,2 l 2,0 0,-3.3125 L 3.9375,14 10.3125,3 25,3 25,0 8,0 z"
     id="path2822" />
  <path
     style="fill:#000000;fill-opacity:1;stroke:none"
     d="m 10.491025,23.366026 6.5,11.25833 0.866025,-0.5 -0.999999,-1.732051 c 1.91317,-1.104569 2.456741,-3.744798 1.214102,-5.897114 -1.242641,-2.152316 -3.800932,-3.001684 -5.714103,-1.897114 l -0.999999,-1.732051 -0.866026,0.5 z m 2.616026,2.531089 c 1.195732,-0.690356 2.836636,-0.0868 3.665063,1.348076 0.828426,1.434878 0.530669,3.15772 -0.665063,3.848076 l -3,-5.196152 z"
     id="rect3054" />
</svg>
