<?xml version="1.0" encoding="UTF-8" standalone="no"?>
<svg
   xmlns:dc="http://purl.org/dc/elements/1.1/"
   xmlns:cc="http://creativecommons.org/ns#"
   xmlns:rdf="http://www.w3.org/1999/02/22-rdf-syntax-ns#"
   xmlns:svg="http://www.w3.org/2000/svg"
   xmlns="http://www.w3.org/2000/svg"
   xmlns:sodipodi="http://sodipodi.sourceforge.net/DTD/sodipodi-0.dtd"
   xmlns:inkscape="http://www.inkscape.org/namespaces/inkscape"
   version="1.0"
   width="29"
   height="33"
   id="svg2"
   inkscape:version="0.47 r22583"
   sodipodi:docname="06-01-007-01-02-16.svg">
  <defs
     id="defs14">
    <inkscape:perspective
       sodipodi:type="inkscape:persp3d"
       inkscape:vp_x="0 : 5.5 : 1"
       inkscape:vp_y="0 : 1000 : 0"
       inkscape:vp_z="10 : 5.5 : 1"
       inkscape:persp3d-origin="5 : 3.6666667 : 1"
       id="perspective16" />
  </defs>
  <sodipodi:namedview
     pagecolor="#ffffff"
     bordercolor="#666666"
     borderopacity="1"
     objecttolerance="10"
     gridtolerance="10"
     guidetolerance="10"
     inkscape:pageopacity="0"
     inkscape:pageshadow="2"
     inkscape:window-width="917"
     inkscape:window-height="792"
     id="namedview12"
     showgrid="true"
     inkscape:zoom="16.484848"
     inkscape:cx="14.5"
     inkscape:cy="16.5"
     inkscape:window-x="313"
     inkscape:window-y="0"
     inkscape:window-maximized="0"
     inkscape:current-layer="svg2"
     showborder="true"
     inkscape:showpageshadow="true"
     inkscape:snap-center="false">
    <inkscape:grid
       type="xygrid"
       id="grid2822"
       empspacing="5"
       visible="true"
       enabled="true"
       snapvisiblegridlinesonly="true" />
  </sodipodi:namedview>
  <metadata
     id="metadata4">
Valerie Sutton's pixel definition of the
ISWA 2010 symbol ID 02-01-001-01-01-01
transformed by Stephen E Slevinski Jr
using line and fill polygon tracing
<rdf:RDF>
  <cc:Work
     rdf:about="">
    <dc:format>image/svg+xml</dc:format>
    <dc:type
       rdf:resource="http://purl.org/dc/dcmitype/StillImage" />
    <dc:title></dc:title>
  </cc:Work>
</rdf:RDF>
</metadata>
  <path
     style="fill:#ffffff;fill-opacity:1;stroke:none"
     d="M 11 0 L 11 2.71875 L 6 11.34375 L 6 7 L 3 7 L 3 9.125 C 1.770276 9.4018017 0.72217803 10.182375 0 11.25 L 0 14.5 C 0 12.014719 1.790861 10 4 10 L 4 8 L 5 8 L 5 21 L 4 21 L 4 19 C 1.790861 19 0 16.985281 0 14.5 L 0 17.75 C 0.72217803 18.817625 1.770276 19.598199 3 19.875 L 3 22 L 6 22 L 6 16.65625 L 13.21875 29.15625 C 12.517882 28.613496 11.824702 28 11 28 L 10 28 C 8.509288 28 7.490712 30 6 30 L 3 30 L 3 33 L 4 33 L 4 31 L 6 31 C 7.490712 31 8.509288 29 10 29 L 11 29 C 12.490712 29 13.509288 31 15 31 L 15 30 L 5.65625 14 L 12 3 L 12 0 L 11 0 z M 14.3125 3 L 7.9375 14 L 17 29.6875 L 17 33 L 18 33 L 18 29.40625 L 9.125 14 L 14.90625 4 L 29 4 L 29 3 L 14.3125 3 z M 4 11.5 C 2.619288 11.5 1.5 12.843146 1.5 14.5 C 1.5 16.156854 2.619288 17.5 4 17.5 L 4 11.5 z M 10 31 C 8.509288 31 7.490712 33 6 33 L 8 33 C 8.627322 32.5 9.254644 32 10 32 L 11 32 C 11.745356 32 12.372678 32.5 13 33 L 15 33 C 13.509288 33 12.490712 31 11 31 L 10 31 z "
     id="path2832" />
  <path
     style="fill:#000000;fill-opacity:1;stroke:none"
     d="M 12,0 12,3 5.65625,14 15,30.21875 15,31 c -1.490712,0 -2.509288,-2 -4,-2 l -1,0 c -1.490712,0 -2.509288,2 -4,2 l -2,0 0,2 2,0 c 1.490712,0 2.509288,-2 4,-2 l 1,0 c 1.490712,0 2.509288,2 4,2 l 2,0 0,-3.3125 L 7.9375,14 14.3125,3 29,3 29,0 12,0 z"
     id="path2822" />
  <path
     style="fill:#000000;fill-opacity:1;stroke:none"
     d="M 5,8 5,21 4,21 4,19 C 1.790861,19 0,16.985281 0,14.5 0,12.014719 1.790861,10 4,10 L 4,8 5,8 z m -1,3.5 c -1.380712,0 -2.5,1.343146 -2.5,3 0,1.656854 1.119288,3 2.5,3 l 0,-6 z"
     id="rect3054" />
</svg>
