<?xml version="1.0" encoding="UTF-8" standalone="no"?>
<svg
   xmlns:dc="http://purl.org/dc/elements/1.1/"
   xmlns:cc="http://creativecommons.org/ns#"
   xmlns:rdf="http://www.w3.org/1999/02/22-rdf-syntax-ns#"
   xmlns:svg="http://www.w3.org/2000/svg"
   xmlns="http://www.w3.org/2000/svg"
   xmlns:sodipodi="http://sodipodi.sourceforge.net/DTD/sodipodi-0.dtd"
   xmlns:inkscape="http://www.inkscape.org/namespaces/inkscape"
   version="1.0"
   width="27"
   height="37"
   id="svg2"
   inkscape:version="0.47 r22583"
   sodipodi:docname="06-01-007-01-01-05.svg">
  <defs
     id="defs14">
    <inkscape:perspective
       sodipodi:type="inkscape:persp3d"
       inkscape:vp_x="0 : 5.5 : 1"
       inkscape:vp_y="0 : 1000 : 0"
       inkscape:vp_z="10 : 5.5 : 1"
       inkscape:persp3d-origin="5 : 3.6666667 : 1"
       id="perspective16" />
  </defs>
  <sodipodi:namedview
     pagecolor="#ffffff"
     bordercolor="#666666"
     borderopacity="1"
     objecttolerance="10"
     gridtolerance="10"
     guidetolerance="10"
     inkscape:pageopacity="0"
     inkscape:pageshadow="2"
     inkscape:window-width="917"
     inkscape:window-height="792"
     id="namedview12"
     showgrid="true"
     inkscape:zoom="14.702703"
     inkscape:cx="13.5"
     inkscape:cy="18.5"
     inkscape:window-x="313"
     inkscape:window-y="0"
     inkscape:window-maximized="0"
     inkscape:current-layer="svg2"
     showborder="true"
     inkscape:showpageshadow="true"
     inkscape:snap-center="false">
    <inkscape:grid
       type="xygrid"
       id="grid2822"
       empspacing="5"
       visible="true"
       enabled="true"
       snapvisiblegridlinesonly="true" />
  </sodipodi:namedview>
  <metadata
     id="metadata4">
Valerie Sutton's pixel definition of the
ISWA 2010 symbol ID 02-01-001-01-01-01
transformed by Stephen E Slevinski Jr
using line and fill polygon tracing
<rdf:RDF>
  <cc:Work
     rdf:about="">
    <dc:format>image/svg+xml</dc:format>
    <dc:type
       rdf:resource="http://purl.org/dc/dcmitype/StillImage" />
    <dc:title />
  </cc:Work>
</rdf:RDF>
</metadata>
  <path
     style="fill:#ffffff;fill-opacity:1;stroke:none"
     d="m 22.5,7 c 1.858713,0 3.504398,0.9321358 4.5,2.34375 l 0,6.3125 C 26.004398,17.067864 24.358713,18 22.5,18 19.462434,18 17,15.537566 17,12.5 17,9.4624339 19.462434,7 22.5,7 z"
     id="path2876" />
  <path
     style="fill:#000000;fill-opacity:1;stroke:none"
     d="M 24,0 24,22 9,37 7.59375,35.59375 22,21.1875 22,5 0,5 0,0 24,0 z"
     id="rect2814" />
  <path
     style="fill:#ffffff;fill-opacity:1;stroke:none"
     d="M 25,0 25,22.4375 10.40625,37 9,37 24,22 24,0 25,0 z M 9,37 7.5625,37 6.15625,35.59375 21,20.75 21,6 0,6 0,5 22,5 22,21.1875 7.59375,35.59375 9,37 z"
     id="rect2850" />
  <path
     style="fill:#ffffff;fill-opacity:1;stroke:none"
     d="m 22.5,9 c -0.483249,0 -0.956266,0.1041404 -1.375,0.28125 -0.418734,0.1771096 -0.777062,0.4333123 -1.09375,0.75 -0.316688,0.316688 -0.57289,0.675016 -0.75,1.09375 C 19.10414,11.543734 19,12.016751 19,12.5 c 0,0.483249 0.10414,0.956266 0.28125,1.375 0.17711,0.418734 0.433312,0.777062 0.75,1.09375 0.316688,0.316688 0.675016,0.57289 1.09375,0.75 C 21.543734,15.89586 22.016751,16 22.5,16 c 0.483249,0 0.956266,-0.10414 1.375,-0.28125 0.418734,-0.17711 0.777062,-0.433312 1.09375,-0.75 0.316688,-0.316688 0.57289,-0.675016 0.75,-1.09375 C 25.89586,13.456266 26,12.983249 26,12.5 26,12.016751 25.89586,11.543734 25.71875,11.125 25.54164,10.706266 25.285438,10.347938 24.96875,10.03125 24.652062,9.7145623 24.293734,9.4583596 23.875,9.28125 23.456266,9.1041404 22.983249,9 22.5,9 z"
     id="path2903" />
  <path
     style="fill:#000000;fill-opacity:1;stroke:none"
     d="M 22.5,8 C 24.985281,8 27,10.014719 27,12.5 27,14.985281 24.985281,17 22.5,17 20.014719,17 18,14.985281 18,12.5 18,10.014719 20.014719,8 22.5,8 z m 0,1.5 c -1.656854,0 -3,1.343146 -3,3 0,1.656854 1.343146,3 3,3 1.656854,0 3,-1.343146 3,-3 0,-1.656854 -1.343146,-3 -3,-3 z"
     id="path2878" />
</svg>
