<?xml version="1.0" encoding="UTF-8" standalone="no"?>
<svg
   xmlns:dc="http://purl.org/dc/elements/1.1/"
   xmlns:cc="http://creativecommons.org/ns#"
   xmlns:rdf="http://www.w3.org/1999/02/22-rdf-syntax-ns#"
   xmlns:svg="http://www.w3.org/2000/svg"
   xmlns="http://www.w3.org/2000/svg"
   xmlns:sodipodi="http://sodipodi.sourceforge.net/DTD/sodipodi-0.dtd"
   xmlns:inkscape="http://www.inkscape.org/namespaces/inkscape"
   version="1.0"
   width="17"
   height="37"
   id="svg2"
   inkscape:version="0.47 r22583"
   sodipodi:docname="06-01-007-01-04-02.svg">
  <defs
     id="defs14">
    <inkscape:perspective
       sodipodi:type="inkscape:persp3d"
       inkscape:vp_x="0 : 5.5 : 1"
       inkscape:vp_y="0 : 1000 : 0"
       inkscape:vp_z="10 : 5.5 : 1"
       inkscape:persp3d-origin="5 : 3.6666667 : 1"
       id="perspective16" />
  </defs>
  <sodipodi:namedview
     pagecolor="#ffffff"
     bordercolor="#666666"
     borderopacity="1"
     objecttolerance="10"
     gridtolerance="10"
     guidetolerance="10"
     inkscape:pageopacity="0"
     inkscape:pageshadow="2"
     inkscape:window-width="917"
     inkscape:window-height="792"
     id="namedview12"
     showgrid="true"
     inkscape:zoom="14.702703"
     inkscape:cx="8.5"
     inkscape:cy="18.5"
     inkscape:window-x="313"
     inkscape:window-y="0"
     inkscape:window-maximized="0"
     inkscape:current-layer="svg2"
     showborder="true"
     inkscape:showpageshadow="true"
     inkscape:snap-center="false">
    <inkscape:grid
       type="xygrid"
       id="grid2822"
       empspacing="5"
       visible="true"
       enabled="true"
       snapvisiblegridlinesonly="true" />
  </sodipodi:namedview>
  <metadata
     id="metadata4">
Valerie Sutton's pixel definition of the
ISWA 2010 symbol ID 02-01-001-01-01-01
transformed by Stephen E Slevinski Jr
using line and fill polygon tracing
<rdf:RDF>
  <cc:Work
     rdf:about="">
    <dc:format>image/svg+xml</dc:format>
    <dc:type
       rdf:resource="http://purl.org/dc/dcmitype/StillImage" />
    <dc:title></dc:title>
  </cc:Work>
</rdf:RDF>
</metadata>
  <path
     style="fill:#000000;fill-opacity:1;stroke:none"
     d="M 17,0 17,18 2,33 0.59375,31.59375 15,17.1875 15,0 17,0 z"
     id="rect2814" />
  <path
     style="fill:#ffffff;fill-opacity:1;stroke:none"
     d="M 15,0 15,17.1875 0.59375,31.59375 2,33 17,18 l 0,1.4375 -6,6 2.125,2.125 -1.5,1.5 c 1.24844,1.973726 0.910648,4.745602 -0.96875,6.625 C 10.056225,36.287525 9.3525211,36.71521 8.625,37 L 4.65625,37 C 4.434344,36.904182 4.237564,36.78675 4.03125,36.65625 L 3.6875,37 1.375,37 0.40625,36.03125 2,34.4375 0,32.4375 0,30.75 14,16.75 14,0 15,0 z M 11,26.84375 1.8125,36.03125 2.5,36.75 3.9375,35.34375 c 1.562097,1.562098 4.242641,1.382359 6,-0.375 1.757359,-1.757359 1.905847,-4.437903 0.34375,-6 L 11.71875,27.5625 11,26.84375 z m -1.78125,3.1875 C 10.195061,31.007561 10.046573,32.765927 8.875,33.9375 7.7034273,35.109072 5.976311,35.257561 5,34.28125 l 4.21875,-4.25 z"
     id="path2959" />
  <path
     style="fill:#000000;fill-opacity:1;stroke:none"
     d="m 11.707107,27.559399 -1.414214,1.414213 c 1.562097,1.562097 1.403806,4.253049 -0.3535532,6.010408 -1.757359,1.757359 -4.4483108,1.915651 -6.0104078,0.353553 L 2.514719,36.751787 1.807612,36.04468 11,26.852292 11.707107,27.559399 z M 9.2322331,30.034272 4.989592,34.276913 c 0.976311,0.976311 2.717515,0.818019 3.8890877,-0.353553 1.1715723,-1.171573 1.3298643,-2.912777 0.3535534,-3.889088 z"
     id="rect3000" />
</svg>
