<?xml version="1.0" encoding="UTF-8" standalone="no"?>
<svg
   xmlns:dc="http://purl.org/dc/elements/1.1/"
   xmlns:cc="http://creativecommons.org/ns#"
   xmlns:rdf="http://www.w3.org/1999/02/22-rdf-syntax-ns#"
   xmlns:svg="http://www.w3.org/2000/svg"
   xmlns="http://www.w3.org/2000/svg"
   xmlns:sodipodi="http://sodipodi.sourceforge.net/DTD/sodipodi-0.dtd"
   xmlns:inkscape="http://www.inkscape.org/namespaces/inkscape"
   version="1.0"
   width="24"
   height="37"
   id="svg2"
   inkscape:version="0.47 r22583"
   sodipodi:docname="06-01-007-01-03-04.svg">
  <defs
     id="defs14">
    <inkscape:perspective
       sodipodi:type="inkscape:persp3d"
       inkscape:vp_x="0 : 5.5 : 1"
       inkscape:vp_y="0 : 1000 : 0"
       inkscape:vp_z="10 : 5.5 : 1"
       inkscape:persp3d-origin="5 : 3.6666667 : 1"
       id="perspective16" />
  </defs>
  <sodipodi:namedview
     pagecolor="#ffffff"
     bordercolor="#666666"
     borderopacity="1"
     objecttolerance="10"
     gridtolerance="10"
     guidetolerance="10"
     inkscape:pageopacity="0"
     inkscape:pageshadow="2"
     inkscape:window-width="917"
     inkscape:window-height="792"
     id="namedview12"
     showgrid="true"
     inkscape:zoom="14.702703"
     inkscape:cx="12"
     inkscape:cy="18.5"
     inkscape:window-x="313"
     inkscape:window-y="0"
     inkscape:window-maximized="0"
     inkscape:current-layer="svg2"
     showborder="true"
     inkscape:showpageshadow="true"
     inkscape:snap-center="false">
    <inkscape:grid
       type="xygrid"
       id="grid2822"
       empspacing="5"
       visible="true"
       enabled="true"
       snapvisiblegridlinesonly="true" />
  </sodipodi:namedview>
  <metadata
     id="metadata4">
Valerie Sutton's pixel definition of the
ISWA 2010 symbol ID 02-01-001-01-01-01
transformed by Stephen E Slevinski Jr
using line and fill polygon tracing
<rdf:RDF>
  <cc:Work
     rdf:about="">
    <dc:format>image/svg+xml</dc:format>
    <dc:type
       rdf:resource="http://purl.org/dc/dcmitype/StillImage" />
    <dc:title />
  </cc:Work>
</rdf:RDF>
</metadata>
  <path
     style="fill:#000000;fill-opacity:1;stroke:none"
     d="M 0,0 0,22 15,37 16.40625,35.59375 2,21.1875 2,5 24,5 24,0 0,0 z"
     id="rect2814" />
  <path
     style="fill:#ffffff;fill-opacity:1;stroke:none"
     d="M 2 5 L 2 21.1875 L 16.40625 35.59375 L 15 37 L 16.4375 37 L 17.84375 35.59375 L 13.59375 31.34375 L 15.71875 29.25 L 14.21875 27.71875 C 15.467191 25.745025 15.129399 22.973148 13.25 21.09375 C 11.370602 19.214352 8.598726 18.87656 6.625 20.125 L 5.125 18.625 L 3 20.75 L 3 6 L 24 6 L 24 5 L 2 5 z M 5.125 20.03125 L 6.53125 21.46875 C 8.0933472 19.906652 10.773891 20.055141 12.53125 21.8125 C 14.288609 23.569859 14.468348 26.250403 12.90625 27.8125 L 14.3125 29.25 L 13.59375 29.9375 L 4.40625 20.75 L 5.125 20.03125 z M 9.46875 21.875 C 8.7649636 21.811019 8.0819053 22.043095 7.59375 22.53125 L 11.84375 26.75 C 12.820061 25.773689 12.671573 24.046573 11.5 22.875 C 10.914214 22.289214 10.172536 21.938981 9.46875 21.875 z "
     id="path2851" />
  <path
     style="fill:#ffffff;fill-opacity:1;stroke:none"
     d="M 15 37 L 0 22 L 0 23.4375 L 13.59375 37 L 15 37 z "
     id="path2849" />
  <path
     style="fill:#000000;fill-opacity:1;stroke:none"
     d="m 4.4142136,20.750398 9.1923884,9.192388 0.707107,-0.707107 -1.414214,-1.414213 C 14.461593,26.259369 14.303301,23.568417 12.545942,21.811058 10.788583,20.053699 8.0976311,19.895407 6.5355339,21.457505 L 5.1213203,20.043291 4.4142136,20.750398 z m 3.1819805,1.767767 c 0.9763107,-0.976311 2.7175149,-0.818019 3.8890869,0.353553 1.171573,1.171573 1.329865,2.912777 0.353554,3.889088 L 7.5961941,22.518165 z"
     id="rect3000" />
</svg>
