<?xml version="1.0" encoding="UTF-8" standalone="no"?>
<svg
   xmlns:dc="http://purl.org/dc/elements/1.1/"
   xmlns:cc="http://creativecommons.org/ns#"
   xmlns:rdf="http://www.w3.org/1999/02/22-rdf-syntax-ns#"
   xmlns:svg="http://www.w3.org/2000/svg"
   xmlns="http://www.w3.org/2000/svg"
   xmlns:sodipodi="http://sodipodi.sourceforge.net/DTD/sodipodi-0.dtd"
   xmlns:inkscape="http://www.inkscape.org/namespaces/inkscape"
   version="1.0"
   width="27"
   height="30"
   id="svg2"
   inkscape:version="0.47 r22583"
   sodipodi:docname="06-01-007-01-02-05.svg">
  <defs
     id="defs14">
    <inkscape:perspective
       sodipodi:type="inkscape:persp3d"
       inkscape:vp_x="0 : 5.5 : 1"
       inkscape:vp_y="0 : 1000 : 0"
       inkscape:vp_z="10 : 5.5 : 1"
       inkscape:persp3d-origin="5 : 3.6666667 : 1"
       id="perspective16" />
  </defs>
  <sodipodi:namedview
     pagecolor="#ffffff"
     bordercolor="#666666"
     borderopacity="1"
     objecttolerance="10"
     gridtolerance="10"
     guidetolerance="10"
     inkscape:pageopacity="0"
     inkscape:pageshadow="2"
     inkscape:window-width="917"
     inkscape:window-height="792"
     id="namedview12"
     showgrid="true"
     inkscape:zoom="16.915888"
     inkscape:cx="13.5"
     inkscape:cy="15"
     inkscape:window-x="313"
     inkscape:window-y="0"
     inkscape:window-maximized="0"
     inkscape:current-layer="svg2"
     showborder="true"
     inkscape:showpageshadow="true"
     inkscape:snap-center="false">
    <inkscape:grid
       type="xygrid"
       id="grid2822"
       empspacing="5"
       visible="true"
       enabled="true"
       snapvisiblegridlinesonly="true" />
  </sodipodi:namedview>
  <metadata
     id="metadata4">
Valerie Sutton's pixel definition of the
ISWA 2010 symbol ID 02-01-001-01-01-01
transformed by Stephen E Slevinski Jr
using line and fill polygon tracing
<rdf:RDF>
  <cc:Work
     rdf:about="">
    <dc:format>image/svg+xml</dc:format>
    <dc:type
       rdf:resource="http://purl.org/dc/dcmitype/StillImage" />
    <dc:title></dc:title>
  </cc:Work>
</rdf:RDF>
</metadata>
  <path
     style="fill:#ffffff;fill-opacity:1;stroke:none"
     d="M 4.5 20 C 2.6412866 20 0.99560152 20.932136 0 22.34375 L 0 28.65625 C 0.36485867 29.173565 0.82578864 29.633752 1.34375 30 L 7.65625 30 C 9.0678642 29.004398 10 27.358713 10 25.5 C 10 22.462434 7.5375661 20 4.5 20 z "
     id="path2876" />
  <path
     style="fill:#000000;fill-opacity:1;stroke:none"
     d="M 3 0 L 3 29 L 19.25 12.75 L 17.84375 11.3125 L 5 24.1875 L 5 5 L 27 5 L 27 0 L 3 0 z "
     id="rect2814" />
  <path
     style="fill:#ffffff;fill-opacity:1;stroke:none"
     d="M 2 0 L 2 30 L 3.4375 30 L 20.6875 12.75 L 17.84375 9.90625 L 6 21.75 L 6 6 L 27 6 L 27 5 L 5 5 L 5 24.15625 L 17.84375 11.3125 L 19.25 12.75 L 3 29 L 3 0 L 2 0 z "
     id="rect2831" />
  <path
     style="fill:#000000;fill-opacity:1;stroke:none"
     d="M 4.5 21 C 2.0147186 21 5.5919675e-17 23.014719 0 25.5 C 0 27.985281 2.0147186 30 4.5 30 C 6.9852814 30 9 27.985281 9 25.5 C 9 23.014719 6.9852814 21 4.5 21 z "
     id="path2906" />
</svg>
