<?xml version="1.0" encoding="UTF-8" standalone="no"?>
<svg
   xmlns:dc="http://purl.org/dc/elements/1.1/"
   xmlns:cc="http://creativecommons.org/ns#"
   xmlns:rdf="http://www.w3.org/1999/02/22-rdf-syntax-ns#"
   xmlns:svg="http://www.w3.org/2000/svg"
   xmlns="http://www.w3.org/2000/svg"
   xmlns:sodipodi="http://sodipodi.sourceforge.net/DTD/sodipodi-0.dtd"
   xmlns:inkscape="http://www.inkscape.org/namespaces/inkscape"
   version="1.0"
   width="31"
   height="35"
   id="svg2"
   inkscape:version="0.47 r22583"
   sodipodi:docname="06-01-007-01-02-08.svg">
  <defs
     id="defs14">
    <inkscape:perspective
       sodipodi:type="inkscape:persp3d"
       inkscape:vp_x="0 : 5.5 : 1"
       inkscape:vp_y="0 : 1000 : 0"
       inkscape:vp_z="10 : 5.5 : 1"
       inkscape:persp3d-origin="5 : 3.6666667 : 1"
       id="perspective16" />
  </defs>
  <sodipodi:namedview
     pagecolor="#ffffff"
     bordercolor="#666666"
     borderopacity="1"
     objecttolerance="10"
     gridtolerance="10"
     guidetolerance="10"
     inkscape:pageopacity="0"
     inkscape:pageshadow="2"
     inkscape:window-width="917"
     inkscape:window-height="792"
     id="namedview12"
     showgrid="true"
     inkscape:zoom="15.542857"
     inkscape:cx="15.5"
     inkscape:cy="17.5"
     inkscape:window-x="313"
     inkscape:window-y="0"
     inkscape:window-maximized="0"
     inkscape:current-layer="svg2"
     showborder="true"
     inkscape:showpageshadow="true"
     inkscape:snap-center="false">
    <inkscape:grid
       type="xygrid"
       id="grid2822"
       empspacing="5"
       visible="true"
       enabled="true"
       snapvisiblegridlinesonly="true" />
  </sodipodi:namedview>
  <metadata
     id="metadata4">
Valerie Sutton's pixel definition of the
ISWA 2010 symbol ID 02-01-001-01-01-01
transformed by Stephen E Slevinski Jr
using line and fill polygon tracing
<rdf:RDF>
  <cc:Work
     rdf:about="">
    <dc:format>image/svg+xml</dc:format>
    <dc:type
       rdf:resource="http://purl.org/dc/dcmitype/StillImage" />
    <dc:title />
  </cc:Work>
</rdf:RDF>
</metadata>
  <path
     style="fill:#000000;fill-opacity:1;stroke:none"
     d="M 24,0 24,29 7.75,12.75 9.15625,11.3125 22,24.1875 22,5 0,5 0,0 24,0 z"
     id="rect2814" />
  <path
     style="fill:#ffffff;fill-opacity:1;stroke:none"
     d="m 25,0 0,29 6,0 0,1 -13,0 0,1 2,0 c 0,2.209139 2.014719,4 4.5,4 l -3.25,0 C 20.182375,34.277822 19.401801,33.229724 19.125,32 L 17,32 17,29 22.5625,29 6.3125,12.75 9.15625,9.90625 21,21.75 21,6 0,6 0,5 22,5 22,24.15625 9.15625,11.3125 7.75,12.75 24,29 24,0 25,0 z m -0.5,35 c 2.485281,0 4.5,-1.790861 4.5,-4 l 2,0 0,1 -1.125,0 c -0.276801,1.229724 -1.057375,2.277822 -2.125,3 l -3.25,0 z m 3,-4 c 0,1.380712 -1.343146,2.5 -3,2.5 -1.656854,0 -3,-1.119288 -3,-2.5 l 6,0 z"
     id="rect2831" />
  <path
     style="fill:#000000;fill-opacity:1;stroke:none"
     d="m 31,31 -2,0 c 0,2.209139 -2.014719,4 -4.5,4 C 22.014719,35 20,33.209139 20,31 l -2,0 0,-1 13,0 0,1 z m -3.5,0 -6,0 c 0,1.380712 1.343146,2.5 3,2.5 1.656854,0 3,-1.119288 3,-2.5 z"
     id="rect2953" />
</svg>
