<?xml version="1.0" encoding="UTF-8" standalone="no"?>
<svg
   xmlns:dc="http://purl.org/dc/elements/1.1/"
   xmlns:cc="http://creativecommons.org/ns#"
   xmlns:rdf="http://www.w3.org/1999/02/22-rdf-syntax-ns#"
   xmlns:svg="http://www.w3.org/2000/svg"
   xmlns="http://www.w3.org/2000/svg"
   xmlns:sodipodi="http://sodipodi.sourceforge.net/DTD/sodipodi-0.dtd"
   xmlns:inkscape="http://www.inkscape.org/namespaces/inkscape"
   version="1.0"
   width="24"
   height="37"
   id="svg2"
   inkscape:version="0.47 r22583"
   sodipodi:docname="06-01-007-01-04-04.svg">
  <defs
     id="defs14">
    <inkscape:perspective
       sodipodi:type="inkscape:persp3d"
       inkscape:vp_x="0 : 5.5 : 1"
       inkscape:vp_y="0 : 1000 : 0"
       inkscape:vp_z="10 : 5.5 : 1"
       inkscape:persp3d-origin="5 : 3.6666667 : 1"
       id="perspective16" />
  </defs>
  <sodipodi:namedview
     pagecolor="#ffffff"
     bordercolor="#666666"
     borderopacity="1"
     objecttolerance="10"
     gridtolerance="10"
     guidetolerance="10"
     inkscape:pageopacity="0"
     inkscape:pageshadow="2"
     inkscape:window-width="917"
     inkscape:window-height="792"
     id="namedview12"
     showgrid="true"
     inkscape:zoom="14.702703"
     inkscape:cx="12"
     inkscape:cy="18.5"
     inkscape:window-x="313"
     inkscape:window-y="0"
     inkscape:window-maximized="0"
     inkscape:current-layer="svg2"
     showborder="true"
     inkscape:showpageshadow="true"
     inkscape:snap-center="false">
    <inkscape:grid
       type="xygrid"
       id="grid2822"
       empspacing="5"
       visible="true"
       enabled="true"
       snapvisiblegridlinesonly="true" />
  </sodipodi:namedview>
  <metadata
     id="metadata4">
Valerie Sutton's pixel definition of the
ISWA 2010 symbol ID 02-01-001-01-01-01
transformed by Stephen E Slevinski Jr
using line and fill polygon tracing
<rdf:RDF>
  <cc:Work
     rdf:about="">
    <dc:format>image/svg+xml</dc:format>
    <dc:type
       rdf:resource="http://purl.org/dc/dcmitype/StillImage" />
    <dc:title></dc:title>
  </cc:Work>
</rdf:RDF>
</metadata>
  <path
     style="fill:#000000;fill-opacity:1;stroke:none"
     d="M 24,0 24,22 9,37 7.59375,35.59375 22,21.1875 22,5 0,5 0,0 24,0 z"
     id="rect2814" />
  <path
     style="fill:#ffffff;fill-opacity:1;stroke:none"
     d="M 22,5 22,21.1875 7.59375,35.59375 9,37 7.5625,37 6.15625,35.59375 4.75,37 l -2.71875,0 -0.75,-0.75 1.5,-1.53125 C 1.53281,32.745025 1.870602,29.973148 3.75,28.09375 5.629398,26.214352 8.401273,25.87656 10.375,27.125 l 1.5,-1.5 2.125,2.125 7,-7 L 21,6 0,6 0,5 22,5 z M 9,37 24,22 24,23.4375 10.40625,37 9,37 z m 2.875,-9.96875 -1.40625,1.4375 c -1.562097,-1.562098 -4.242641,-1.413609 -6,0.34375 -1.757359,1.757359 -1.937098,4.437903 -0.375,6 L 2.6875,36.25 3.40625,36.9375 12.59375,27.75 11.875,27.03125 z M 8.0625,28.875 c 0.511902,0.06116 0.977634,0.290133 1.34375,0.65625 L 5.15625,33.75 C 4.179939,32.773689 4.328427,31.046573 5.5,29.875 c 0.585786,-0.585786 1.327464,-0.936019 2.03125,-1 0.175946,-0.016 0.360616,-0.02039 0.53125,0 z"
     id="path2852" />
  <path
     style="fill:#000000;fill-opacity:1;stroke:none"
     d="M 12.585786,27.750398 3.393398,36.942786 2.686291,36.235679 4.100505,34.821466 c -1.562098,-1.562097 -1.403806,-4.253049 0.353553,-6.010408 1.757359,-1.757359 4.448311,-1.91565 6.010408,-0.353553 l 1.414214,-1.414214 0.707106,0.707107 z m -3.18198,1.767767 C 8.427495,28.541854 6.686291,28.700146 5.514718,29.871718 4.343145,31.043291 4.184854,32.784495 5.161165,33.760806 l 4.242641,-4.242641 z"
     id="rect3000" />
</svg>
