<?xml version="1.0" encoding="UTF-8" standalone="no"?>
<svg
   xmlns:dc="http://purl.org/dc/elements/1.1/"
   xmlns:cc="http://creativecommons.org/ns#"
   xmlns:rdf="http://www.w3.org/1999/02/22-rdf-syntax-ns#"
   xmlns:svg="http://www.w3.org/2000/svg"
   xmlns="http://www.w3.org/2000/svg"
   xmlns:sodipodi="http://sodipodi.sourceforge.net/DTD/sodipodi-0.dtd"
   xmlns:inkscape="http://www.inkscape.org/namespaces/inkscape"
   version="1.0"
   width="31"
   height="37"
   id="svg2"
   inkscape:version="0.47 r22583"
   sodipodi:docname="06-01-007-01-01-02.svg">
  <defs
     id="defs14">
    <inkscape:perspective
       sodipodi:type="inkscape:persp3d"
       inkscape:vp_x="0 : 5.5 : 1"
       inkscape:vp_y="0 : 1000 : 0"
       inkscape:vp_z="10 : 5.5 : 1"
       inkscape:persp3d-origin="5 : 3.6666667 : 1"
       id="perspective16" />
  </defs>
  <sodipodi:namedview
     pagecolor="#ffffff"
     bordercolor="#666666"
     borderopacity="1"
     objecttolerance="10"
     gridtolerance="10"
     guidetolerance="10"
     inkscape:pageopacity="0"
     inkscape:pageshadow="2"
     inkscape:window-width="917"
     inkscape:window-height="792"
     id="namedview12"
     showgrid="true"
     inkscape:zoom="14.702703"
     inkscape:cx="15.5"
     inkscape:cy="18.5"
     inkscape:window-x="313"
     inkscape:window-y="0"
     inkscape:window-maximized="0"
     inkscape:current-layer="svg2"
     showborder="true"
     inkscape:showpageshadow="true"
     inkscape:snap-center="false">
    <inkscape:grid
       type="xygrid"
       id="grid2822"
       empspacing="5"
       visible="true"
       enabled="true"
       snapvisiblegridlinesonly="true" />
  </sodipodi:namedview>
  <metadata
     id="metadata4">
Valerie Sutton's pixel definition of the
ISWA 2010 symbol ID 02-01-001-01-01-01
transformed by Stephen E Slevinski Jr
using line and fill polygon tracing
<rdf:RDF>
  <cc:Work
     rdf:about="">
    <dc:format>image/svg+xml</dc:format>
    <dc:type
       rdf:resource="http://purl.org/dc/dcmitype/StillImage" />
    <dc:title></dc:title>
  </cc:Work>
</rdf:RDF>
</metadata>
  <path
     style="fill:#000000;fill-opacity:1;stroke:none"
     d="M 24,0 24,22 9,37 7.59375,35.59375 22,21.1875 22,5 0,5 0,0 24,0 z"
     id="rect2814" />
  <path
     style="fill:#ffffff;fill-opacity:1;stroke:none"
     d="m 25,0 0,4 3,0 0,2.125 c 1.229724,0.2768017 2.277822,1.0573749 3,2.125 l 0,3.25 C 31,9.0147186 29.209139,7 27,7 l 0,-2 -1,0 0,13 1,0 0,-2 c 2.209139,0 4,-2.014719 4,-4.5 l 0,3.25 c -0.722178,1.067625 -1.770276,1.848199 -3,2.125 L 28,19 25,19 25,22.4375 10.40625,37 9,37 24,22 24,0 25,0 z M 9,37 7.5625,37 6.15625,35.59375 21,20.75 21,6 0,6 0,5 22,5 22,21.1875 7.59375,35.59375 9,37 z M 27,8.5 c 1.380712,0 2.5,1.3431458 2.5,3 0,1.656854 -1.119288,3 -2.5,3 l 0,-6 z"
     id="rect2850" />
  <path
     style="fill:#000000;fill-opacity:1;stroke:none"
     d="m 27,5 0,2 c 2.209139,0 4,2.0147186 4,4.5 0,2.485281 -1.790861,4.5 -4,4.5 l 0,2 -1,0 0,-13 1,0 z m 0,3.5 0,6 c 1.380712,0 2.5,-1.343146 2.5,-3 0,-1.6568542 -1.119288,-3 -2.5,-3 z"
     id="rect3000" />
</svg>
