<?xml version="1.0" encoding="UTF-8" standalone="no"?>
<svg
   xmlns:dc="http://purl.org/dc/elements/1.1/"
   xmlns:cc="http://creativecommons.org/ns#"
   xmlns:rdf="http://www.w3.org/1999/02/22-rdf-syntax-ns#"
   xmlns:svg="http://www.w3.org/2000/svg"
   xmlns="http://www.w3.org/2000/svg"
   xmlns:sodipodi="http://sodipodi.sourceforge.net/DTD/sodipodi-0.dtd"
   xmlns:inkscape="http://www.inkscape.org/namespaces/inkscape"
   version="1.0"
   width="25"
   height="33"
   id="svg2"
   inkscape:version="0.47 r22583"
   sodipodi:docname="06-01-007-01-01-16.svg">
  <defs
     id="defs14">
    <inkscape:perspective
       sodipodi:type="inkscape:persp3d"
       inkscape:vp_x="0 : 5.5 : 1"
       inkscape:vp_y="0 : 1000 : 0"
       inkscape:vp_z="10 : 5.5 : 1"
       inkscape:persp3d-origin="5 : 3.6666667 : 1"
       id="perspective16" />
  </defs>
  <sodipodi:namedview
     pagecolor="#ffffff"
     bordercolor="#666666"
     borderopacity="1"
     objecttolerance="10"
     gridtolerance="10"
     guidetolerance="10"
     inkscape:pageopacity="0"
     inkscape:pageshadow="2"
     inkscape:window-width="917"
     inkscape:window-height="792"
     id="namedview12"
     showgrid="true"
     inkscape:zoom="16.484848"
     inkscape:cx="12.5"
     inkscape:cy="16.5"
     inkscape:window-x="313"
     inkscape:window-y="0"
     inkscape:window-maximized="0"
     inkscape:current-layer="svg2"
     showborder="true"
     inkscape:showpageshadow="true"
     inkscape:snap-center="false">
    <inkscape:grid
       type="xygrid"
       id="grid2822"
       empspacing="5"
       visible="true"
       enabled="true"
       snapvisiblegridlinesonly="true" />
  </sodipodi:namedview>
  <metadata
     id="metadata4">
Valerie Sutton's pixel definition of the
ISWA 2010 symbol ID 02-01-001-01-01-01
transformed by Stephen E Slevinski Jr
using line and fill polygon tracing
<rdf:RDF>
  <cc:Work
     rdf:about="">
    <dc:format>image/svg+xml</dc:format>
    <dc:type
       rdf:resource="http://purl.org/dc/dcmitype/StillImage" />
    <dc:title></dc:title>
  </cc:Work>
</rdf:RDF>
</metadata>
  <path
     style="fill:#ffffff;fill-opacity:1;stroke:none"
     d="M 18,0 18,2.71875 24.53125,14 l -8.75,15.15625 C 16.482118,28.613496 17.175298,28 18,28 l 1,0 c 1.490712,0 2.509288,2 4,2 l 2,0 0,1 -2,0 c -1.490712,0 -2.509288,-2 -4,-2 l -1,0 c -1.490712,0 -2.509288,2 -4,2 L 14,30 23.34375,14 17,3 17,0 18,0 z M 14.6875,3 21.0625,14 12,29.6875 12,33 11,33 11,29.40625 19.875,14 15,5.5625 15,18 12,18 12,15.875 C 9.721584,15.362146 8,13.15787 8,10.5 8,7.8421297 9.721584,5.6378545 12,5.125 L 12,4 0,4 0,3 14.6875,3 z M 14,4 13,4 13,6 c -2.209139,0 -4,2.014719 -4,4.5 0,2.485281 1.790861,4.5 4,4.5 l 0,2 1,0 0,-13 z m -1,3.5 0,6 c -1.380712,0 -2.5,-1.343146 -2.5,-3 0,-1.656854 1.119288,-3 2.5,-3 z M 19,31 c 1.490712,0 2.509288,2 4,2 l -2,0 c -0.627322,-0.5 -1.254644,-1 -2,-1 l -1,0 c -0.745356,0 -1.372678,0.5 -2,1 l -2,0 c 1.490712,0 2.509288,-2 4,-2 l 1,0 z"
     id="path2832" />
  <path
     style="fill:#000000;fill-opacity:1;stroke:none"
     d="M 17,0 17,3 23.34375,14 14,30.21875 14,31 c 1.490712,0 2.509288,-2 4,-2 l 1,0 c 1.490712,0 2.509288,2 4,2 l 2,0 0,2 -2,0 c -1.490712,0 -2.509288,-2 -4,-2 l -1,0 c -1.490712,0 -2.509288,2 -4,2 L 12,33 12,29.6875 21.0625,14 14.6875,3 0,3 0,0 17,0 z"
     id="path2822" />
  <path
     style="fill:#000000;fill-opacity:1;stroke:none"
     d="m 14,4 0,13 -1,0 0,-2 C 10.790861,15 9,12.985281 9,10.5 9,8.014719 10.790861,6 13,6 l 0,-2 1,0 z m -1,3.5 c -1.380712,0 -2.5,1.343146 -2.5,3 0,1.656854 1.119288,3 2.5,3 l 0,-6 z"
     id="rect3054" />
</svg>
