<?xml version="1.0" encoding="UTF-8" standalone="no"?>
<svg
   xmlns:dc="http://purl.org/dc/elements/1.1/"
   xmlns:cc="http://creativecommons.org/ns#"
   xmlns:rdf="http://www.w3.org/1999/02/22-rdf-syntax-ns#"
   xmlns:svg="http://www.w3.org/2000/svg"
   xmlns="http://www.w3.org/2000/svg"
   xmlns:sodipodi="http://sodipodi.sourceforge.net/DTD/sodipodi-0.dtd"
   xmlns:inkscape="http://www.inkscape.org/namespaces/inkscape"
   version="1.0"
   width="26"
   height="33"
   id="svg2"
   inkscape:version="0.47 r22583"
   sodipodi:docname="06-01-007-01-03-10.svg">
  <defs
     id="defs14">
    <inkscape:perspective
       sodipodi:type="inkscape:persp3d"
       inkscape:vp_x="0 : 5.5 : 1"
       inkscape:vp_y="0 : 1000 : 0"
       inkscape:vp_z="10 : 5.5 : 1"
       inkscape:persp3d-origin="5 : 3.6666667 : 1"
       id="perspective16" />
  </defs>
  <sodipodi:namedview
     pagecolor="#ffffff"
     bordercolor="#666666"
     borderopacity="1"
     objecttolerance="10"
     gridtolerance="10"
     guidetolerance="10"
     inkscape:pageopacity="0"
     inkscape:pageshadow="2"
     inkscape:window-width="917"
     inkscape:window-height="792"
     id="namedview12"
     showgrid="true"
     inkscape:zoom="16.484848"
     inkscape:cx="13"
     inkscape:cy="16.5"
     inkscape:window-x="313"
     inkscape:window-y="0"
     inkscape:window-maximized="0"
     inkscape:current-layer="svg2"
     showborder="true"
     inkscape:showpageshadow="true"
     inkscape:snap-center="false">
    <inkscape:grid
       type="xygrid"
       id="grid2822"
       empspacing="5"
       visible="true"
       enabled="true"
       snapvisiblegridlinesonly="true" />
  </sodipodi:namedview>
  <metadata
     id="metadata4">
Valerie Sutton's pixel definition of the
ISWA 2010 symbol ID 02-01-001-01-01-01
transformed by Stephen E Slevinski Jr
using line and fill polygon tracing
<rdf:RDF>
  <cc:Work
     rdf:about="">
    <dc:format>image/svg+xml</dc:format>
    <dc:type
       rdf:resource="http://purl.org/dc/dcmitype/StillImage" />
    <dc:title></dc:title>
  </cc:Work>
</rdf:RDF>
</metadata>
  <path
     style="fill:#ffffff;fill-opacity:1;stroke:none"
     d="M 18,0 18,2.71875 24.53125,14 l -0.6875,1.1875 2.15625,1.25 0,1 -0.625,1.09375 C 25.607352,18.745549 25.817118,18.996294 26,19.25 l 0,6.15625 c -1.365267,2.140715 -3.846213,3.108931 -6,2.4375 l -0.21875,0.375 C 20.872955,28.715895 21.790935,30 23,30 l 3,0 0,3 -1,0 0,-2 -2,0 c -1.380659,0 -2.366639,-1.68419 -3.6875,-1.9375 l -1.5,-0.03125 C 16.425451,29.192248 15.425056,31 14,31 L 14,30.21875 23.34375,14 17,3 17,0 18,0 z M 14.6875,3 21.0625,14 12,29.6875 12,33 11,33 11,29.40625 19.875,14 14.09375,4 0,4 0,3 14.6875,3 z m 9.53125,13.5625 -6.5,11.25 L 18,28 l 0.03125,0 0.71875,0 0.8125,-1.40625 c 1.91317,1.10457 4.476109,0.246066 5.71875,-1.90625 1.24264,-2.152316 0.694421,-4.801681 -1.21875,-5.90625 l 1,-1.71875 -0.84375,-0.5 z m -0.90625,3.53125 c 1.195732,0.690356 1.515927,2.408872 0.6875,3.84375 -0.828427,1.434878 -2.491768,2.034106 -3.6875,1.34375 l 3,-5.1875 z m -6.96875,8.09375 -0.5625,0.96875 C 16.101335,28.908376 16.419862,28.649707 16.75,28.4375 l -0.40625,-0.25 z M 19,31 c 1.490712,0 2.509288,2 4,2 l -2,0 c -0.627322,-0.5 -1.254644,-1 -2,-1 l -1,0 c -0.745356,0 -1.372678,0.5 -2,1 l -2,0 c 1.490712,0 2.509288,-2 4,-2 l 1,0 z"
     id="path2952" />
  <path
     style="fill:#000000;fill-opacity:1;stroke:none"
     d="M 17,0 17,3 23.34375,14 14,30.21875 14,31 c 1.490712,0 2.509288,-2 4,-2 l 1,0 c 1.490712,0 2.509288,2 4,2 l 2,0 0,2 -2,0 c -1.490712,0 -2.509288,-2 -4,-2 l -1,0 c -1.490712,0 -2.509288,2 -4,2 L 12,33 12,29.6875 21.0625,14 14.6875,3 0,3 0,0 17,0 z"
     id="path2822" />
  <path
     style="fill:#000000;fill-opacity:1;stroke:none"
     d="m 25.075576,17.053644 -1.000001,1.732051 c 1.913171,1.104569 2.456742,3.744798 1.214102,5.897114 -1.242641,2.152316 -3.800931,3.001684 -5.714102,1.897114 l -1,1.732051 -0.866025,-0.5 6.5,-11.25833 0.866026,0.5 z m -1.750001,3.031089 -3,5.196152 c 1.195732,0.690356 2.836637,0.0868 3.665064,-1.348076 0.828427,-1.434878 0.530668,-3.15772 -0.665064,-3.848076 z"
     id="rect3054" />
</svg>
