<?xml version="1.0" encoding="UTF-8" standalone="no"?>
<svg
   xmlns:dc="http://purl.org/dc/elements/1.1/"
   xmlns:cc="http://creativecommons.org/ns#"
   xmlns:rdf="http://www.w3.org/1999/02/22-rdf-syntax-ns#"
   xmlns:svg="http://www.w3.org/2000/svg"
   xmlns="http://www.w3.org/2000/svg"
   xmlns:sodipodi="http://sodipodi.sourceforge.net/DTD/sodipodi-0.dtd"
   xmlns:inkscape="http://www.inkscape.org/namespaces/inkscape"
   version="1.0"
   width="27"
   height="37"
   id="svg2"
   inkscape:version="0.47 r22583"
   sodipodi:docname="06-01-007-01-01-01.svg">
  <defs
     id="defs14">
    <inkscape:perspective
       sodipodi:type="inkscape:persp3d"
       inkscape:vp_x="0 : 5.5 : 1"
       inkscape:vp_y="0 : 1000 : 0"
       inkscape:vp_z="10 : 5.5 : 1"
       inkscape:persp3d-origin="5 : 3.6666667 : 1"
       id="perspective16" />
  </defs>
  <sodipodi:namedview
     pagecolor="#ffffff"
     bordercolor="#666666"
     borderopacity="1"
     objecttolerance="10"
     gridtolerance="10"
     guidetolerance="10"
     inkscape:pageopacity="0"
     inkscape:pageshadow="2"
     inkscape:window-width="917"
     inkscape:window-height="792"
     id="namedview12"
     showgrid="true"
     inkscape:zoom="14.702703"
     inkscape:cx="13.5"
     inkscape:cy="18.5"
     inkscape:window-x="313"
     inkscape:window-y="0"
     inkscape:window-maximized="0"
     inkscape:current-layer="svg2"
     showborder="true"
     inkscape:showpageshadow="true"
     inkscape:snap-center="false">
    <inkscape:grid
       type="xygrid"
       id="grid2822"
       empspacing="5"
       visible="true"
       enabled="true"
       snapvisiblegridlinesonly="true" />
  </sodipodi:namedview>
  <metadata
     id="metadata4">
Valerie Sutton's pixel definition of the
ISWA 2010 symbol ID 02-01-001-01-01-01
transformed by Stephen E Slevinski Jr
using line and fill polygon tracing
<rdf:RDF>
  <cc:Work
     rdf:about="">
    <dc:format>image/svg+xml</dc:format>
    <dc:type
       rdf:resource="http://purl.org/dc/dcmitype/StillImage" />
    <dc:title />
  </cc:Work>
</rdf:RDF>
</metadata>
  <path
     style="fill:#ffffff;fill-opacity:1;stroke:none"
     d="M 4.5,7 C 2.641287,7 0.995601,7.9321358 0,9.34375 l 0,6.3125 C 0.995601,17.067864 2.641287,18 4.5,18 7.5375661,18 10,15.537566 10,12.5 10,9.4624339 7.5375661,7 4.5,7 z"
     id="path2876" />
  <path
     style="fill:#000000;fill-opacity:1;stroke:none"
     d="M 3 0 L 3 22 L 18 37 L 19.40625 35.59375 L 5 21.1875 L 5 5 L 27 5 L 27 0 L 3 0 z "
     id="rect2814" />
  <path
     style="fill:#ffffff;fill-opacity:1;stroke:none"
     d="M 2 0 L 2 22.4375 L 16.59375 37 L 18 37 L 3 22 L 3 0 L 2 0 z M 18 37 L 19.4375 37 L 20.84375 35.59375 L 6 20.75 L 6 6 L 27 6 L 27 5 L 5 5 L 5 21.1875 L 19.40625 35.59375 L 18 37 z "
     id="rect2850" />
  <path
     style="fill:#ffffff;fill-opacity:1;stroke:none"
     d="m 4.5,9 c 0.4832492,0 0.9562658,0.1041404 1.375,0.28125 0.4187342,0.1771096 0.7770623,0.4333123 1.09375,0.75 0.3166877,0.316688 0.5728904,0.675016 0.75,1.09375 C 7.8958596,11.543734 8,12.016751 8,12.5 c 0,0.483249 -0.1041404,0.956266 -0.28125,1.375 -0.1771096,0.418734 -0.4333123,0.777062 -0.75,1.09375 -0.3166877,0.316688 -0.6750158,0.57289 -1.09375,0.75 C 5.4562658,15.89586 4.9832492,16 4.5,16 4.0167508,16 3.543734,15.89586 3.125,15.71875 2.706266,15.54164 2.347938,15.285438 2.03125,14.96875 1.714562,14.652062 1.45836,14.293734 1.28125,13.875 1.10414,13.456266 1,12.983249 1,12.5 1,12.016751 1.10414,11.543734 1.28125,11.125 1.45836,10.706266 1.714562,10.347938 2.03125,10.03125 2.347938,9.7145623 2.706266,9.4583596 3.125,9.28125 3.543734,9.1041404 4.0167508,9 4.5,9 z"
     id="path2903" />
  <path
     style="fill:#000000;fill-opacity:1;stroke:none"
     d="M 4.5,8 C 2.014719,8 0,10.014719 0,12.5 0,14.985281 2.014719,17 4.5,17 6.9852814,17 9,14.985281 9,12.5 9,10.014719 6.9852814,8 4.5,8 z m 0,1.5 c 1.6568542,0 3,1.343146 3,3 0,1.656854 -1.3431458,3 -3,3 -1.656854,0 -3,-1.343146 -3,-3 0,-1.656854 1.343146,-3 3,-3 z"
     id="path2878" />
</svg>
