<?xml version="1.0" encoding="UTF-8" standalone="no"?>
<svg
   xmlns:dc="http://purl.org/dc/elements/1.1/"
   xmlns:cc="http://creativecommons.org/ns#"
   xmlns:rdf="http://www.w3.org/1999/02/22-rdf-syntax-ns#"
   xmlns:svg="http://www.w3.org/2000/svg"
   xmlns="http://www.w3.org/2000/svg"
   xmlns:sodipodi="http://sodipodi.sourceforge.net/DTD/sodipodi-0.dtd"
   xmlns:inkscape="http://www.inkscape.org/namespaces/inkscape"
   version="1.0"
   width="25"
   height="33"
   id="svg2"
   inkscape:version="0.47 r22583"
   sodipodi:docname="06-01-007-01-01-12.svg">
  <defs
     id="defs14">
    <inkscape:perspective
       sodipodi:type="inkscape:persp3d"
       inkscape:vp_x="0 : 5.5 : 1"
       inkscape:vp_y="0 : 1000 : 0"
       inkscape:vp_z="10 : 5.5 : 1"
       inkscape:persp3d-origin="5 : 3.6666667 : 1"
       id="perspective16" />
  </defs>
  <sodipodi:namedview
     pagecolor="#ffffff"
     bordercolor="#666666"
     borderopacity="1"
     objecttolerance="10"
     gridtolerance="10"
     guidetolerance="10"
     inkscape:pageopacity="0"
     inkscape:pageshadow="2"
     inkscape:window-width="917"
     inkscape:window-height="792"
     id="namedview12"
     showgrid="true"
     inkscape:zoom="16.484848"
     inkscape:cx="12.5"
     inkscape:cy="16.5"
     inkscape:window-x="313"
     inkscape:window-y="0"
     inkscape:window-maximized="0"
     inkscape:current-layer="svg2"
     showborder="true"
     inkscape:showpageshadow="true"
     inkscape:snap-center="false">
    <inkscape:grid
       type="xygrid"
       id="grid2822"
       empspacing="5"
       visible="true"
       enabled="true"
       snapvisiblegridlinesonly="true" />
  </sodipodi:namedview>
  <metadata
     id="metadata4">
Valerie Sutton's pixel definition of the
ISWA 2010 symbol ID 02-01-001-01-01-01
transformed by Stephen E Slevinski Jr
using line and fill polygon tracing
<rdf:RDF>
  <cc:Work
     rdf:about="">
    <dc:format>image/svg+xml</dc:format>
    <dc:type
       rdf:resource="http://purl.org/dc/dcmitype/StillImage" />
    <dc:title></dc:title>
  </cc:Work>
</rdf:RDF>
</metadata>
  <path
     style="fill:#ffffff;fill-opacity:1;stroke:none"
     d="M 7 0 L 7 2.71875 L 0.46875 14 L 9.21875 29.15625 C 8.5178815 28.613496 7.8247021 28 7 28 L 6 28 C 4.509288 28 3.490712 30 2 30 L 0 30 L 0 31 L 2 31 C 3.490712 31 4.509288 29 6 29 L 7 29 C 8.490712 29 9.509288 31 11 31 L 11 30 L 1.65625 14 L 8 3 L 8 0 L 7 0 z M 10.3125 3 L 3.9375 14 L 8 21 L 8 8 L 9 8 L 9 10 C 11.209139 10 13 12.014719 13 14.5 C 13 16.985281 11.209139 19 9 19 L 9 21 L 8 21 L 13 29.6875 L 13 33 L 14 33 L 14 29.40625 L 9.71875 22 L 10 22 L 10 19.875 C 12.278416 19.362146 14 17.15787 14 14.5 C 14 11.84213 12.278416 9.6378545 10 9.125 L 10 7 L 9.1875 7 L 10.90625 4 L 25 4 L 25 3 L 10.3125 3 z M 7 10.75 L 7 17.25 L 5.125 14 L 7 10.75 z M 9 11.5 L 9 17.5 C 10.380712 17.5 11.5 16.156854 11.5 14.5 C 11.5 12.843146 10.380712 11.5 9 11.5 z M 6 31 C 4.509288 31 3.490712 33 2 33 L 4 33 C 4.627322 32.5 5.254644 32 6 32 L 7 32 C 7.745356 32 8.372678 32.5 9 33 L 11 33 C 9.509288 33 8.490712 31 7 31 L 6 31 z "
     id="path2832" />
  <path
     style="fill:#000000;fill-opacity:1;stroke:none"
     d="M 8,0 8,3 1.65625,14 11,30.21875 11,31 C 9.509288,31 8.490712,29 7,29 l -1,0 c -1.490712,0 -2.509288,2 -4,2 l -2,0 0,2 2,0 c 1.490712,0 2.509288,-2 4,-2 l 1,0 c 1.490712,0 2.509288,2 4,2 l 2,0 0,-3.3125 L 3.9375,14 10.3125,3 25,3 25,0 8,0 z"
     id="path2822" />
  <path
     style="fill:#000000;fill-opacity:1;stroke:none"
     d="m 8,8 0,13 1,0 0,-2 c 2.209139,0 4,-2.014719 4,-4.5 C 13,12.014719 11.209139,10 9,10 L 9,8 8,8 z m 1,3.5 c 1.380712,0 2.5,1.343146 2.5,3 0,1.656854 -1.119288,3 -2.5,3 l 0,-6 z"
     id="rect3054" />
</svg>
