<?xml version="1.0" encoding="UTF-8" standalone="no"?>
<svg
   xmlns:dc="http://purl.org/dc/elements/1.1/"
   xmlns:cc="http://creativecommons.org/ns#"
   xmlns:rdf="http://www.w3.org/1999/02/22-rdf-syntax-ns#"
   xmlns:svg="http://www.w3.org/2000/svg"
   xmlns="http://www.w3.org/2000/svg"
   xmlns:sodipodi="http://sodipodi.sourceforge.net/DTD/sodipodi-0.dtd"
   xmlns:inkscape="http://www.inkscape.org/namespaces/inkscape"
   version="1.0"
   width="26"
   height="36"
   id="svg2"
   inkscape:version="0.47 r22583"
   sodipodi:docname="06-01-007-01-01-10.svg">
  <defs
     id="defs14">
    <inkscape:perspective
       sodipodi:type="inkscape:persp3d"
       inkscape:vp_x="0 : 5.5 : 1"
       inkscape:vp_y="0 : 1000 : 0"
       inkscape:vp_z="10 : 5.5 : 1"
       inkscape:persp3d-origin="5 : 3.6666667 : 1"
       id="perspective16" />
  </defs>
  <sodipodi:namedview
     pagecolor="#ffffff"
     bordercolor="#666666"
     borderopacity="1"
     objecttolerance="10"
     gridtolerance="10"
     guidetolerance="10"
     inkscape:pageopacity="0"
     inkscape:pageshadow="2"
     inkscape:window-width="917"
     inkscape:window-height="792"
     id="namedview12"
     showgrid="true"
     inkscape:zoom="15.111111"
     inkscape:cx="13"
     inkscape:cy="18"
     inkscape:window-x="313"
     inkscape:window-y="0"
     inkscape:window-maximized="0"
     inkscape:current-layer="svg2"
     showborder="true"
     inkscape:showpageshadow="true"
     inkscape:snap-center="false">
    <inkscape:grid
       type="xygrid"
       id="grid2822"
       empspacing="5"
       visible="true"
       enabled="true"
       snapvisiblegridlinesonly="true" />
  </sodipodi:namedview>
  <metadata
     id="metadata4">
Valerie Sutton's pixel definition of the
ISWA 2010 symbol ID 02-01-001-01-01-01
transformed by Stephen E Slevinski Jr
using line and fill polygon tracing
<rdf:RDF>
  <cc:Work
     rdf:about="">
    <dc:format>image/svg+xml</dc:format>
    <dc:type
       rdf:resource="http://purl.org/dc/dcmitype/StillImage" />
    <dc:title></dc:title>
  </cc:Work>
</rdf:RDF>
</metadata>
  <path
     style="fill:#ffffff;fill-opacity:1;stroke:none"
     d="m 23,0 0,1.125 c 1.229724,0.2768017 2.277822,1.0573749 3,2.125 L 26,6.5 C 26,4.0147186 24.209139,2 22,2 l 0,-2 1,0 z m 3,6.5 0,3.25 c -0.722178,1.067625 -1.770276,1.848199 -3,2.125 l 0,2.46875 1.53125,2.65625 -8.75,15.15625 C 16.482118,31.613496 17.175298,31 18,31 l 1,0 c 1.490712,0 2.509288,2 4,2 l 2,0 0,1 -2,0 c -1.490712,0 -2.509288,-2 -4,-2 l -1,0 c -1.490712,0 -2.509288,2 -4,2 L 14,33 23.34375,17 17,6 17,3 0,3 0,2 18,2 18,5.71875 20,9.1875 20,0 21,0 21,10.90625 22,12.625 22,11 c 2.209139,0 4,-2.0147186 4,-4.5 z m -4,-3 c 1.380712,0 2.5,1.3431458 2.5,3 0,1.6568542 -1.119288,3 -2.5,3 l 0,-6 z M 14.6875,6 21.0625,17 12,32.6875 12,36 11,36 11,32.40625 19.875,17 14.09375,7 0,7 0,6 14.6875,6 z M 19,34 c 1.490712,0 2.509288,2 4,2 l -2,0 c -0.627322,-0.5 -1.254644,-1 -2,-1 l -1,0 c -0.745356,0 -1.372678,0.5 -2,1 l -2,0 c 1.490712,0 2.509288,-2 4,-2 l 1,0 z"
     id="path2832" />
  <path
     style="fill:#000000;fill-opacity:1;stroke:none"
     d="M 17,3 17,6 23.34375,17 14,33.21875 14,34 c 1.490712,0 2.509288,-2 4,-2 l 1,0 c 1.490712,0 2.509288,2 4,2 l 2,0 0,2 -2,0 c -1.490712,0 -2.509288,-2 -4,-2 l -1,0 c -1.490712,0 -2.509288,2 -4,2 L 12,36 12,32.6875 21.0625,17 14.6875,6 0,6 0,3 17,3 z"
     id="path2822" />
  <path
     style="fill:#000000;fill-opacity:1;stroke:none"
     d="m 22,0 0,2 c 2.209139,0 4,2.0147186 4,4.5 0,2.4852814 -1.790861,4.5 -4,4.5 l 0,2 -1,0 0,-13 1,0 z m 0,3.5 0,6 c 1.380712,0 2.5,-1.3431458 2.5,-3 0,-1.6568542 -1.119288,-3 -2.5,-3 z"
     id="rect3054" />
</svg>
