<?xml version="1.0" encoding="UTF-8" standalone="no"?>
<svg
   xmlns:dc="http://purl.org/dc/elements/1.1/"
   xmlns:cc="http://creativecommons.org/ns#"
   xmlns:rdf="http://www.w3.org/1999/02/22-rdf-syntax-ns#"
   xmlns:svg="http://www.w3.org/2000/svg"
   xmlns="http://www.w3.org/2000/svg"
   xmlns:sodipodi="http://sodipodi.sourceforge.net/DTD/sodipodi-0.dtd"
   xmlns:inkscape="http://www.inkscape.org/namespaces/inkscape"
   version="1.0"
   width="24"
   height="37"
   id="svg2"
   inkscape:version="0.47 r22583"
   sodipodi:docname="06-01-007-01-01-04.svg">
  <defs
     id="defs14">
    <inkscape:perspective
       sodipodi:type="inkscape:persp3d"
       inkscape:vp_x="0 : 5.5 : 1"
       inkscape:vp_y="0 : 1000 : 0"
       inkscape:vp_z="10 : 5.5 : 1"
       inkscape:persp3d-origin="5 : 3.6666667 : 1"
       id="perspective16" />
  </defs>
  <sodipodi:namedview
     pagecolor="#ffffff"
     bordercolor="#666666"
     borderopacity="1"
     objecttolerance="10"
     gridtolerance="10"
     guidetolerance="10"
     inkscape:pageopacity="0"
     inkscape:pageshadow="2"
     inkscape:window-width="917"
     inkscape:window-height="792"
     id="namedview12"
     showgrid="true"
     inkscape:zoom="14.702703"
     inkscape:cx="12"
     inkscape:cy="18.5"
     inkscape:window-x="313"
     inkscape:window-y="0"
     inkscape:window-maximized="0"
     inkscape:current-layer="svg2"
     showborder="true"
     inkscape:showpageshadow="true"
     inkscape:snap-center="false">
    <inkscape:grid
       type="xygrid"
       id="grid2822"
       empspacing="5"
       visible="true"
       enabled="true"
       snapvisiblegridlinesonly="true" />
  </sodipodi:namedview>
  <metadata
     id="metadata4">
Valerie Sutton's pixel definition of the
ISWA 2010 symbol ID 02-01-001-01-01-01
transformed by Stephen E Slevinski Jr
using line and fill polygon tracing
<rdf:RDF>
  <cc:Work
     rdf:about="">
    <dc:format>image/svg+xml</dc:format>
    <dc:type
       rdf:resource="http://purl.org/dc/dcmitype/StillImage" />
    <dc:title />
  </cc:Work>
</rdf:RDF>
</metadata>
  <path
     style="fill:#000000;fill-opacity:1;stroke:none"
     d="M 0,0 0,22 15,37 16.40625,35.59375 2,21.1875 2,5 24,5 24,0 0,0 z"
     id="rect2814" />
  <path
     style="fill:#ffffff;fill-opacity:1;stroke:none"
     d="M 2 5 L 2 21.1875 L 16.40625 35.59375 L 15 37 L 16.4375 37 L 17.84375 35.59375 L 3.25 21 L 6 21 L 6 18.875 C 8.2784156 18.362146 10 16.15787 10 13.5 C 10 10.84213 8.2784156 8.6378545 6 8.125 L 6 6 L 24 6 L 24 5 L 2 5 z M 15 37 L 0 22 L 0 23.4375 L 13.59375 37 L 15 37 z M 4 7 L 5 7 L 5 9 C 7.209139 9 9 11.014719 9 13.5 C 9 15.985281 7.209139 18 5 18 L 5 20 L 4 20 L 4 7 z M 5 10.5 L 5 16.5 C 6.3807119 16.5 7.5 15.156854 7.5 13.5 C 7.5 11.843146 6.3807119 10.5 5 10.5 z "
     id="rect2850" />
  <path
     style="fill:#000000;fill-opacity:1;stroke:none"
     d="M 4 7 L 4 20 L 5 20 L 5 18 C 7.209139 18 9 15.985281 9 13.5 C 9 11.014719 7.209139 9 5 9 L 5 7 L 4 7 z M 5 10.5 C 6.3807119 10.5 7.5 11.843146 7.5 13.5 C 7.5 15.156854 6.3807119 16.5 5 16.5 L 5 10.5 z "
     id="rect3000" />
</svg>
