<?xml version="1.0" encoding="UTF-8" standalone="no"?>
<svg
   xmlns:dc="http://purl.org/dc/elements/1.1/"
   xmlns:cc="http://creativecommons.org/ns#"
   xmlns:rdf="http://www.w3.org/1999/02/22-rdf-syntax-ns#"
   xmlns:svg="http://www.w3.org/2000/svg"
   xmlns="http://www.w3.org/2000/svg"
   xmlns:sodipodi="http://sodipodi.sourceforge.net/DTD/sodipodi-0.dtd"
   xmlns:inkscape="http://www.inkscape.org/namespaces/inkscape"
   version="1.0"
   width="24"
   height="37"
   id="svg2"
   inkscape:version="0.47 r22583"
   sodipodi:docname="06-01-007-01-03-01.svg">
  <defs
     id="defs14">
    <inkscape:perspective
       sodipodi:type="inkscape:persp3d"
       inkscape:vp_x="0 : 5.5 : 1"
       inkscape:vp_y="0 : 1000 : 0"
       inkscape:vp_z="10 : 5.5 : 1"
       inkscape:persp3d-origin="5 : 3.6666667 : 1"
       id="perspective16" />
  </defs>
  <sodipodi:namedview
     pagecolor="#ffffff"
     bordercolor="#666666"
     borderopacity="1"
     objecttolerance="10"
     gridtolerance="10"
     guidetolerance="10"
     inkscape:pageopacity="0"
     inkscape:pageshadow="2"
     inkscape:window-width="917"
     inkscape:window-height="792"
     id="namedview12"
     showgrid="true"
     inkscape:zoom="14.702703"
     inkscape:cx="12"
     inkscape:cy="18.5"
     inkscape:window-x="313"
     inkscape:window-y="0"
     inkscape:window-maximized="0"
     inkscape:current-layer="svg2"
     showborder="true"
     inkscape:showpageshadow="true"
     inkscape:snap-center="false">
    <inkscape:grid
       type="xygrid"
       id="grid2822"
       empspacing="5"
       visible="true"
       enabled="true"
       snapvisiblegridlinesonly="true" />
  </sodipodi:namedview>
  <metadata
     id="metadata4">
Valerie Sutton's pixel definition of the
ISWA 2010 symbol ID 02-01-001-01-01-01
transformed by Stephen E Slevinski Jr
using line and fill polygon tracing
<rdf:RDF>
  <cc:Work
     rdf:about="">
    <dc:format>image/svg+xml</dc:format>
    <dc:type
       rdf:resource="http://purl.org/dc/dcmitype/StillImage" />
    <dc:title></dc:title>
  </cc:Work>
</rdf:RDF>
</metadata>
  <path
     style="fill:#ffffff;fill-opacity:1;stroke:none"
     d="M 15.5,23 C 18.537566,23 21,25.462434 21,28.5 21,31.537566 18.537566,34 15.5,34 12.462434,34 10,31.537566 10,28.5 10,25.462434 12.462434,23 15.5,23 z"
     id="path3044" />
  <path
     style="fill:#000000;fill-opacity:1;stroke:none"
     d="M 24,0 24,22 9,37 7.59375,35.59375 22,21.1875 22,5 0,5 0,0 24,0 z"
     id="rect2814" />
  <path
     style="fill:#ffffff;fill-opacity:1;stroke:none"
     d="M 22,5 22,21.1875 7.59375,35.59375 9,37 7.5625,37 6.15625,35.59375 21,20.75 21,6 0,6 0,5 22,5 z M 9,37 24,22 24,23.4375 10.40625,37 9,37 z"
     id="rect2850" />
  <path
     style="fill:#ffffff;fill-opacity:1;stroke:none"
     d="m 15.5,25 c -0.483249,0 -0.956266,0.10414 -1.375,0.28125 -0.418734,0.17711 -0.777062,0.433312 -1.09375,0.75 -0.316688,0.316688 -0.57289,0.675016 -0.75,1.09375 C 12.10414,27.543734 12,28.016751 12,28.5 c 0,0.483249 0.10414,0.956266 0.28125,1.375 0.17711,0.418734 0.433312,0.777062 0.75,1.09375 0.316688,0.316688 0.675016,0.57289 1.09375,0.75 C 14.543734,31.89586 15.016751,32 15.5,32 c 0.483249,0 0.956266,-0.10414 1.375,-0.28125 0.418734,-0.17711 0.777062,-0.433312 1.09375,-0.75 0.316688,-0.316688 0.57289,-0.675016 0.75,-1.09375 C 18.89586,29.456266 19,28.983249 19,28.5 c 0,-0.483249 -0.10414,-0.956266 -0.28125,-1.375 -0.17711,-0.418734 -0.433312,-0.777062 -0.75,-1.09375 -0.316688,-0.316688 -0.675016,-0.57289 -1.09375,-0.75 C 16.456266,25.10414 15.983249,25 15.5,25 z"
     id="path2903" />
  <path
     style="fill:#000000;fill-opacity:1;stroke:none"
     d="M 15.5,24 C 17.985281,24 20,26.014719 20,28.5 20,30.985281 17.985281,33 15.5,33 13.014719,33 11,30.985281 11,28.5 11,26.014719 13.014719,24 15.5,24 z m 0,1.5 c -1.656854,0 -3,1.343146 -3,3 0,1.656854 1.343146,3 3,3 1.656854,0 3,-1.343146 3,-3 0,-1.656854 -1.343146,-3 -3,-3 z"
     id="path2878" />
</svg>
