<?xml version="1.0" encoding="UTF-8" standalone="no"?>
<svg
   xmlns:dc="http://purl.org/dc/elements/1.1/"
   xmlns:cc="http://creativecommons.org/ns#"
   xmlns:rdf="http://www.w3.org/1999/02/22-rdf-syntax-ns#"
   xmlns:svg="http://www.w3.org/2000/svg"
   xmlns="http://www.w3.org/2000/svg"
   xmlns:sodipodi="http://sodipodi.sourceforge.net/DTD/sodipodi-0.dtd"
   xmlns:inkscape="http://www.inkscape.org/namespaces/inkscape"
   version="1.0"
   width="31"
   height="37"
   id="svg2"
   inkscape:version="0.47 r22583"
   sodipodi:docname="06-01-007-01-01-02.svg">
  <defs
     id="defs14">
    <inkscape:perspective
       sodipodi:type="inkscape:persp3d"
       inkscape:vp_x="0 : 5.5 : 1"
       inkscape:vp_y="0 : 1000 : 0"
       inkscape:vp_z="10 : 5.5 : 1"
       inkscape:persp3d-origin="5 : 3.6666667 : 1"
       id="perspective16" />
  </defs>
  <sodipodi:namedview
     pagecolor="#ffffff"
     bordercolor="#666666"
     borderopacity="1"
     objecttolerance="10"
     gridtolerance="10"
     guidetolerance="10"
     inkscape:pageopacity="0"
     inkscape:pageshadow="2"
     inkscape:window-width="917"
     inkscape:window-height="792"
     id="namedview12"
     showgrid="true"
     inkscape:zoom="14.702703"
     inkscape:cx="15.5"
     inkscape:cy="18.5"
     inkscape:window-x="313"
     inkscape:window-y="0"
     inkscape:window-maximized="0"
     inkscape:current-layer="svg2"
     showborder="true"
     inkscape:showpageshadow="true"
     inkscape:snap-center="false">
    <inkscape:grid
       type="xygrid"
       id="grid2822"
       empspacing="5"
       visible="true"
       enabled="true"
       snapvisiblegridlinesonly="true" />
  </sodipodi:namedview>
  <metadata
     id="metadata4">
Valerie Sutton's pixel definition of the
ISWA 2010 symbol ID 02-01-001-01-01-01
transformed by Stephen E Slevinski Jr
using line and fill polygon tracing
<rdf:RDF>
  <cc:Work
     rdf:about="">
    <dc:format>image/svg+xml</dc:format>
    <dc:type
       rdf:resource="http://purl.org/dc/dcmitype/StillImage" />
    <dc:title />
  </cc:Work>
</rdf:RDF>
</metadata>
  <path
     style="fill:#000000;fill-opacity:1;stroke:none"
     d="M 7,0 7,22 22,37 23.40625,35.59375 9,21.1875 9,5 31,5 31,0 7,0 z"
     id="rect2814" />
  <path
     style="fill:#ffffff;fill-opacity:1;stroke:none"
     d="M 6 0 L 6 4 L 3 4 L 3 6.125 C 1.7702762 6.4018017 0.72217809 7.1823749 0 8.25 L 0 11.5 C 0 9.0147186 1.790861 7 4 7 L 4 5 L 5 5 L 5 18 L 4 18 L 4 16 C 1.790861 16 0 13.985281 0 11.5 L 0 14.75 C 0.72217809 15.817625 1.7702762 16.598199 3 16.875 L 3 19 L 6 19 L 6 22.4375 L 20.59375 37 L 22 37 L 7 22 L 7 0 L 6 0 z M 22 37 L 23.4375 37 L 24.84375 35.59375 L 10 20.75 L 10 6 L 31 6 L 31 5 L 9 5 L 9 21.1875 L 23.40625 35.59375 L 22 37 z M 4 8.5 C 2.6192881 8.5 1.5 9.8431458 1.5 11.5 C 1.5 13.156854 2.6192881 14.5 4 14.5 L 4 8.5 z "
     id="rect2850" />
  <path
     style="fill:#000000;fill-opacity:1;stroke:none"
     d="M 4 5 L 4 7 C 1.790861 7 0 9.0147186 0 11.5 C 0 13.985281 1.790861 16 4 16 L 4 18 L 5 18 L 5 5 L 4 5 z M 4 8.5 L 4 14.5 C 2.6192881 14.5 1.5 13.156854 1.5 11.5 C 1.5 9.8431458 2.6192881 8.5 4 8.5 z "
     id="rect3000" />
</svg>
