<?xml version="1.0" encoding="UTF-8" standalone="no"?>
<svg
   xmlns:dc="http://purl.org/dc/elements/1.1/"
   xmlns:cc="http://creativecommons.org/ns#"
   xmlns:rdf="http://www.w3.org/1999/02/22-rdf-syntax-ns#"
   xmlns:svg="http://www.w3.org/2000/svg"
   xmlns="http://www.w3.org/2000/svg"
   xmlns:sodipodi="http://sodipodi.sourceforge.net/DTD/sodipodi-0.dtd"
   xmlns:inkscape="http://www.inkscape.org/namespaces/inkscape"
   version="1.0"
   width="24"
   height="37"
   id="svg2"
   inkscape:version="0.47 r22583"
   sodipodi:docname="06-01-007-01-01-01.svg">
  <defs
     id="defs14">
    <inkscape:perspective
       sodipodi:type="inkscape:persp3d"
       inkscape:vp_x="0 : 5.5 : 1"
       inkscape:vp_y="0 : 1000 : 0"
       inkscape:vp_z="10 : 5.5 : 1"
       inkscape:persp3d-origin="5 : 3.6666667 : 1"
       id="perspective16" />
  </defs>
  <sodipodi:namedview
     pagecolor="#ffffff"
     bordercolor="#666666"
     borderopacity="1"
     objecttolerance="10"
     gridtolerance="10"
     guidetolerance="10"
     inkscape:pageopacity="0"
     inkscape:pageshadow="2"
     inkscape:window-width="917"
     inkscape:window-height="792"
     id="namedview12"
     showgrid="true"
     inkscape:zoom="14.702703"
     inkscape:cx="12"
     inkscape:cy="18.5"
     inkscape:window-x="313"
     inkscape:window-y="0"
     inkscape:window-maximized="0"
     inkscape:current-layer="svg2"
     showborder="true"
     inkscape:showpageshadow="true"
     inkscape:snap-center="false">
    <inkscape:grid
       type="xygrid"
       id="grid2822"
       empspacing="5"
       visible="true"
       enabled="true"
       snapvisiblegridlinesonly="true" />
  </sodipodi:namedview>
  <metadata
     id="metadata4">
Valerie Sutton's pixel definition of the
ISWA 2010 symbol ID 02-01-001-01-01-01
transformed by Stephen E Slevinski Jr
using line and fill polygon tracing
<rdf:RDF>
  <cc:Work
     rdf:about="">
    <dc:format>image/svg+xml</dc:format>
    <dc:type
       rdf:resource="http://purl.org/dc/dcmitype/StillImage" />
    <dc:title></dc:title>
  </cc:Work>
</rdf:RDF>
</metadata>
  <path
     style="fill:#ffffff;fill-opacity:1;stroke:none"
     d="M 8.5,23 C 5.4624339,23 3,25.462434 3,28.5 3,31.537566 5.4624339,34 8.5,34 11.537566,34 14,31.537566 14,28.5 14,25.462434 11.537566,23 8.5,23 z"
     id="path3044" />
  <path
     style="fill:#000000;fill-opacity:1;stroke:none"
     d="M 0,0 0,22 15,37 16.40625,35.59375 2,21.1875 2,5 24,5 24,0 0,0 z"
     id="rect2814" />
  <path
     style="fill:#ffffff;fill-opacity:1;stroke:none"
     d="M 2 5 L 2 21.1875 L 16.40625 35.59375 L 15 37 L 16.4375 37 L 17.84375 35.59375 L 3 20.75 L 3 6 L 24 6 L 24 5 L 2 5 z M 15 37 L 0 22 L 0 23.4375 L 13.59375 37 L 15 37 z "
     id="rect2850" />
  <path
     style="fill:#ffffff;fill-opacity:1;stroke:none"
     d="m 8.5,25 c 0.483249,0 0.956266,0.10414 1.375,0.28125 0.418734,0.17711 0.777062,0.433312 1.09375,0.75 0.316688,0.316688 0.57289,0.675016 0.75,1.09375 C 11.89586,27.543734 12,28.016751 12,28.5 c 0,0.483249 -0.10414,0.956266 -0.28125,1.375 -0.17711,0.418734 -0.433312,0.777062 -0.75,1.09375 -0.316688,0.316688 -0.675016,0.57289 -1.09375,0.75 C 9.456266,31.89586 8.983249,32 8.5,32 8.016751,32 7.543734,31.89586 7.125,31.71875 6.706266,31.54164 6.347938,31.285438 6.03125,30.96875 5.714562,30.652062 5.45836,30.293734 5.28125,29.875 5.10414,29.456266 5,28.983249 5,28.5 5,28.016751 5.10414,27.543734 5.28125,27.125 5.45836,26.706266 5.714562,26.347938 6.03125,26.03125 6.347938,25.714562 6.706266,25.45836 7.125,25.28125 7.543734,25.10414 8.016751,25 8.5,25 z"
     id="path2903" />
  <path
     style="fill:#000000;fill-opacity:1;stroke:none"
     d="M 8.5,24 C 6.014719,24 4,26.014719 4,28.5 4,30.985281 6.014719,33 8.5,33 10.985281,33 13,30.985281 13,28.5 13,26.014719 10.985281,24 8.5,24 z m 0,1.5 c 1.656854,0 3,1.343146 3,3 0,1.656854 -1.343146,3 -3,3 -1.656854,0 -3,-1.343146 -3,-3 0,-1.656854 1.343146,-3 3,-3 z"
     id="path2878" />
</svg>
