<?xml version="1.0" encoding="UTF-8" standalone="no"?>
<svg
   xmlns:dc="http://purl.org/dc/elements/1.1/"
   xmlns:cc="http://creativecommons.org/ns#"
   xmlns:rdf="http://www.w3.org/1999/02/22-rdf-syntax-ns#"
   xmlns:svg="http://www.w3.org/2000/svg"
   xmlns="http://www.w3.org/2000/svg"
   xmlns:sodipodi="http://sodipodi.sourceforge.net/DTD/sodipodi-0.dtd"
   xmlns:inkscape="http://www.inkscape.org/namespaces/inkscape"
   version="1.0"
   width="25"
   height="37"
   id="svg2"
   inkscape:version="0.47 r22583"
   sodipodi:docname="06-01-007-01-03-02.svg">
  <defs
     id="defs14">
    <inkscape:perspective
       sodipodi:type="inkscape:persp3d"
       inkscape:vp_x="0 : 5.5 : 1"
       inkscape:vp_y="0 : 1000 : 0"
       inkscape:vp_z="10 : 5.5 : 1"
       inkscape:persp3d-origin="5 : 3.6666667 : 1"
       id="perspective16" />
  </defs>
  <sodipodi:namedview
     pagecolor="#ffffff"
     bordercolor="#666666"
     borderopacity="1"
     objecttolerance="10"
     gridtolerance="10"
     guidetolerance="10"
     inkscape:pageopacity="0"
     inkscape:pageshadow="2"
     inkscape:window-width="917"
     inkscape:window-height="792"
     id="namedview12"
     showgrid="true"
     inkscape:zoom="14.702703"
     inkscape:cx="12.5"
     inkscape:cy="18.5"
     inkscape:window-x="313"
     inkscape:window-y="0"
     inkscape:window-maximized="0"
     inkscape:current-layer="svg2"
     showborder="true"
     inkscape:showpageshadow="true"
     inkscape:snap-center="false">
    <inkscape:grid
       type="xygrid"
       id="grid2822"
       empspacing="5"
       visible="true"
       enabled="true"
       snapvisiblegridlinesonly="true" />
  </sodipodi:namedview>
  <metadata
     id="metadata4">
Valerie Sutton's pixel definition of the
ISWA 2010 symbol ID 02-01-001-01-01-01
transformed by Stephen E Slevinski Jr
using line and fill polygon tracing
<rdf:RDF>
  <cc:Work
     rdf:about="">
    <dc:format>image/svg+xml</dc:format>
    <dc:type
       rdf:resource="http://purl.org/dc/dcmitype/StillImage" />
    <dc:title></dc:title>
  </cc:Work>
</rdf:RDF>
</metadata>
  <path
     style="fill:#000000;fill-opacity:1;stroke:none"
     d="M 24,0 24,22 9,37 7.59375,35.59375 22,21.1875 22,5 0,5 0,0 24,0 z"
     id="rect2814" />
  <path
     style="fill:#ffffff;fill-opacity:1;stroke:none"
     d="m 25,0 0,22.4375 -2,2 2,2 0,0.25 -1.375,1.375 c 1.24844,1.973726 0.910648,4.745602 -0.96875,6.625 -1.879398,1.879398 -4.651274,2.21719 -6.625,0.96875 L 14.65625,37 14.34375,37 12.40625,35.03125 10.40625,37 9,37 24,22 24,0 25,0 z M 9,37 7.5625,37 6.15625,35.59375 21,20.75 21,6 0,6 0,5 22,5 22,21.1875 7.59375,35.59375 9,37 z M 23,25.84375 13.8125,35.03125 14.5,35.75 15.9375,34.34375 c 1.562097,1.562098 4.242641,1.382359 6,-0.375 1.757359,-1.757359 1.905847,-4.437903 0.34375,-6 L 23.71875,26.5625 23,25.84375 z m -1.78125,3.1875 c 0.976311,0.976311 0.827823,2.734677 -0.34375,3.90625 -1.171573,1.171572 -2.898689,1.320061 -3.875,0.34375 l 4.21875,-4.25 z"
     id="path2980" />
  <path
     style="fill:#000000;fill-opacity:1;stroke:none"
     d="m 23.707107,26.559399 -1.414214,1.414213 c 1.562097,1.562097 1.403806,4.253049 -0.353553,6.010408 -1.757359,1.757359 -4.448311,1.915651 -6.010408,0.353553 L 14.514719,35.751787 13.807612,35.04468 23,25.852292 l 0.707107,0.707107 z m -2.474874,2.474873 -4.242641,4.242641 c 0.976311,0.976311 2.717515,0.818019 3.889088,-0.353553 1.171572,-1.171573 1.329864,-2.912777 0.353553,-3.889088 z"
     id="rect3000" />
</svg>
