<?xml version="1.0" encoding="UTF-8" standalone="no"?>
<svg
   xmlns:dc="http://purl.org/dc/elements/1.1/"
   xmlns:cc="http://creativecommons.org/ns#"
   xmlns:rdf="http://www.w3.org/1999/02/22-rdf-syntax-ns#"
   xmlns:svg="http://www.w3.org/2000/svg"
   xmlns="http://www.w3.org/2000/svg"
   xmlns:sodipodi="http://sodipodi.sourceforge.net/DTD/sodipodi-0.dtd"
   xmlns:inkscape="http://www.inkscape.org/namespaces/inkscape"
   version="1.0"
   width="27"
   height="37"
   id="svg2"
   inkscape:version="0.47 r22583"
   sodipodi:docname="06-01-007-01-01-03.svg">
  <defs
     id="defs14">
    <inkscape:perspective
       sodipodi:type="inkscape:persp3d"
       inkscape:vp_x="0 : 5.5 : 1"
       inkscape:vp_y="0 : 1000 : 0"
       inkscape:vp_z="10 : 5.5 : 1"
       inkscape:persp3d-origin="5 : 3.6666667 : 1"
       id="perspective16" />
  </defs>
  <sodipodi:namedview
     pagecolor="#ffffff"
     bordercolor="#666666"
     borderopacity="1"
     objecttolerance="10"
     gridtolerance="10"
     guidetolerance="10"
     inkscape:pageopacity="0"
     inkscape:pageshadow="2"
     inkscape:window-width="917"
     inkscape:window-height="792"
     id="namedview12"
     showgrid="true"
     inkscape:zoom="14.702703"
     inkscape:cx="13.5"
     inkscape:cy="18.5"
     inkscape:window-x="313"
     inkscape:window-y="0"
     inkscape:window-maximized="0"
     inkscape:current-layer="svg2"
     showborder="true"
     inkscape:showpageshadow="true"
     inkscape:snap-center="false">
    <inkscape:grid
       type="xygrid"
       id="grid2822"
       empspacing="5"
       visible="true"
       enabled="true"
       snapvisiblegridlinesonly="true" />
  </sodipodi:namedview>
  <metadata
     id="metadata4">
Valerie Sutton's pixel definition of the
ISWA 2010 symbol ID 02-01-001-01-01-01
transformed by Stephen E Slevinski Jr
using line and fill polygon tracing
<rdf:RDF>
  <cc:Work
     rdf:about="">
    <dc:format>image/svg+xml</dc:format>
    <dc:type
       rdf:resource="http://purl.org/dc/dcmitype/StillImage" />
    <dc:title />
  </cc:Work>
</rdf:RDF>
</metadata>
  <path
     style="fill:#ffffff;fill-opacity:1;stroke:none"
     d="M 4.5 7 C 2.6412866 7 0.99560152 7.9321358 0 9.34375 L 0 12.5 C 0 10.014719 2.0147186 8 4.5 8 C 6.9852814 8 9 10.014719 9 12.5 C 9 14.985281 6.9852814 17 4.5 17 C 2.0147186 17 0 14.985281 0 12.5 L 0 15.65625 C 0.99560152 17.067864 2.6412866 18 4.5 18 C 7.5375661 18 10 15.537566 10 12.5 C 10 9.4624339 7.5375661 7 4.5 7 z "
     id="path2901" />
  <path
     style="fill:#000000;fill-opacity:1;stroke:none"
     d="M 3 0 L 3 22 L 18 37 L 19.40625 35.59375 L 5 21.1875 L 5 5 L 27 5 L 27 0 L 3 0 z "
     id="rect2814" />
  <path
     style="fill:#ffffff;fill-opacity:1;stroke:none"
     d="M 2 0 L 2 22.4375 L 16.59375 37 L 18 37 L 3 22 L 3 0 L 2 0 z M 18 37 L 19.4375 37 L 20.84375 35.59375 L 6 20.75 L 6 6 L 27 6 L 27 5 L 5 5 L 5 21.1875 L 19.40625 35.59375 L 18 37 z "
     id="rect2850" />
  <path
     style="fill:#000000;fill-opacity:1;stroke:none"
     d="M 4.5 8 C 2.0147186 8 5.5919675e-17 10.014719 0 12.5 C 0 14.985281 2.0147186 17 4.5 17 C 6.9852814 17 9 14.985281 9 12.5 C 9 10.014719 6.9852814 8 4.5 8 z "
     id="path2878" />
</svg>
