<?xml version="1.0" encoding="UTF-8" standalone="no"?>
<svg
   xmlns:dc="http://purl.org/dc/elements/1.1/"
   xmlns:cc="http://creativecommons.org/ns#"
   xmlns:rdf="http://www.w3.org/1999/02/22-rdf-syntax-ns#"
   xmlns:svg="http://www.w3.org/2000/svg"
   xmlns="http://www.w3.org/2000/svg"
   xmlns:sodipodi="http://sodipodi.sourceforge.net/DTD/sodipodi-0.dtd"
   xmlns:inkscape="http://www.inkscape.org/namespaces/inkscape"
   version="1.0"
   width="25"
   height="33"
   id="svg2"
   inkscape:version="0.47 r22583"
   sodipodi:docname="06-01-007-01-01-16.svg">
  <defs
     id="defs14">
    <inkscape:perspective
       sodipodi:type="inkscape:persp3d"
       inkscape:vp_x="0 : 5.5 : 1"
       inkscape:vp_y="0 : 1000 : 0"
       inkscape:vp_z="10 : 5.5 : 1"
       inkscape:persp3d-origin="5 : 3.6666667 : 1"
       id="perspective16" />
  </defs>
  <sodipodi:namedview
     pagecolor="#ffffff"
     bordercolor="#666666"
     borderopacity="1"
     objecttolerance="10"
     gridtolerance="10"
     guidetolerance="10"
     inkscape:pageopacity="0"
     inkscape:pageshadow="2"
     inkscape:window-width="917"
     inkscape:window-height="792"
     id="namedview12"
     showgrid="true"
     inkscape:zoom="16.484848"
     inkscape:cx="12.5"
     inkscape:cy="16.5"
     inkscape:window-x="313"
     inkscape:window-y="0"
     inkscape:window-maximized="0"
     inkscape:current-layer="svg2"
     showborder="true"
     inkscape:showpageshadow="true"
     inkscape:snap-center="false">
    <inkscape:grid
       type="xygrid"
       id="grid2822"
       empspacing="5"
       visible="true"
       enabled="true"
       snapvisiblegridlinesonly="true" />
  </sodipodi:namedview>
  <metadata
     id="metadata4">
Valerie Sutton's pixel definition of the
ISWA 2010 symbol ID 02-01-001-01-01-01
transformed by Stephen E Slevinski Jr
using line and fill polygon tracing
<rdf:RDF>
  <cc:Work
     rdf:about="">
    <dc:format>image/svg+xml</dc:format>
    <dc:type
       rdf:resource="http://purl.org/dc/dcmitype/StillImage" />
    <dc:title></dc:title>
  </cc:Work>
</rdf:RDF>
</metadata>
  <path
     style="fill:#ffffff;fill-opacity:1;stroke:none"
     d="M 7,0 7,2.71875 0.46875,14 l 8.75,15.15625 C 8.517882,28.613496 7.824702,28 7,28 l -1,0 c -1.490712,0 -2.509288,2 -4,2 l -2,0 0,1 2,0 c 1.490712,0 2.509288,-2 4,-2 l 1,0 c 1.490712,0 2.509288,2 4,2 L 11,30 1.65625,14 8,3 8,0 7,0 z M 10.3125,3 3.9375,14 13,29.6875 13,33 14,33 14,29.40625 5.125,14 10,5.5625 10,18 l 3,0 0,-2.125 C 15.278416,15.362146 17,13.15787 17,10.5 17,7.8421297 15.278416,5.6378545 13,5.125 L 13,4 25,4 25,3 10.3125,3 z M 11,4 l 1,0 0,2 c 2.209139,0 4,2.014719 4,4.5 0,2.485281 -1.790861,4.5 -4,4.5 l 0,2 -1,0 0,-13 z m 1,3.5 0,6 c 1.380712,0 2.5,-1.343146 2.5,-3 0,-1.656854 -1.119288,-3 -2.5,-3 z M 6,31 c -1.490712,0 -2.509288,2 -4,2 l 2,0 c 0.627322,-0.5 1.254644,-1 2,-1 l 1,0 c 0.745356,0 1.372678,0.5 2,1 l 2,0 C 9.509288,33 8.490712,31 7,31 l -1,0 z"
     id="path2832" />
  <path
     style="fill:#000000;fill-opacity:1;stroke:none"
     d="M 8,0 8,3 1.65625,14 11,30.21875 11,31 C 9.509288,31 8.490712,29 7,29 l -1,0 c -1.490712,0 -2.509288,2 -4,2 l -2,0 0,2 2,0 c 1.490712,0 2.509288,-2 4,-2 l 1,0 c 1.490712,0 2.509288,2 4,2 l 2,0 0,-3.3125 L 3.9375,14 10.3125,3 25,3 25,0 8,0 z"
     id="path2822" />
  <path
     style="fill:#000000;fill-opacity:1;stroke:none"
     d="m 11,4 0,13 1,0 0,-2 c 2.209139,0 4,-2.014719 4,-4.5 C 16,8.014719 14.209139,6 12,6 l 0,-2 -1,0 z m 1,3.5 c 1.380712,0 2.5,1.343146 2.5,3 0,1.656854 -1.119288,3 -2.5,3 l 0,-6 z"
     id="rect3054" />
</svg>
