<?xml version="1.0" encoding="UTF-8" standalone="no"?>
<svg
   xmlns:dc="http://purl.org/dc/elements/1.1/"
   xmlns:cc="http://creativecommons.org/ns#"
   xmlns:rdf="http://www.w3.org/1999/02/22-rdf-syntax-ns#"
   xmlns:svg="http://www.w3.org/2000/svg"
   xmlns="http://www.w3.org/2000/svg"
   xmlns:sodipodi="http://sodipodi.sourceforge.net/DTD/sodipodi-0.dtd"
   xmlns:inkscape="http://www.inkscape.org/namespaces/inkscape"
   version="1.0"
   width="25"
   height="33"
   id="svg2"
   inkscape:version="0.47 r22583"
   sodipodi:docname="06-01-007-01-01-12.svg">
  <defs
     id="defs14">
    <inkscape:perspective
       sodipodi:type="inkscape:persp3d"
       inkscape:vp_x="0 : 5.5 : 1"
       inkscape:vp_y="0 : 1000 : 0"
       inkscape:vp_z="10 : 5.5 : 1"
       inkscape:persp3d-origin="5 : 3.6666667 : 1"
       id="perspective16" />
  </defs>
  <sodipodi:namedview
     pagecolor="#ffffff"
     bordercolor="#666666"
     borderopacity="1"
     objecttolerance="10"
     gridtolerance="10"
     guidetolerance="10"
     inkscape:pageopacity="0"
     inkscape:pageshadow="2"
     inkscape:window-width="917"
     inkscape:window-height="792"
     id="namedview12"
     showgrid="true"
     inkscape:zoom="16.484848"
     inkscape:cx="12.5"
     inkscape:cy="16.5"
     inkscape:window-x="313"
     inkscape:window-y="0"
     inkscape:window-maximized="0"
     inkscape:current-layer="svg2"
     showborder="true"
     inkscape:showpageshadow="true"
     inkscape:snap-center="false">
    <inkscape:grid
       type="xygrid"
       id="grid2822"
       empspacing="5"
       visible="true"
       enabled="true"
       snapvisiblegridlinesonly="true" />
  </sodipodi:namedview>
  <metadata
     id="metadata4">
Valerie Sutton's pixel definition of the
ISWA 2010 symbol ID 02-01-001-01-01-01
transformed by Stephen E Slevinski Jr
using line and fill polygon tracing
<rdf:RDF>
  <cc:Work
     rdf:about="">
    <dc:format>image/svg+xml</dc:format>
    <dc:type
       rdf:resource="http://purl.org/dc/dcmitype/StillImage" />
    <dc:title></dc:title>
  </cc:Work>
</rdf:RDF>
</metadata>
  <path
     style="fill:#ffffff;fill-opacity:1;stroke:none"
     d="M 7 0 L 7 2.71875 L 0.46875 14 L 9.21875 29.15625 C 8.517882 28.613496 7.824702 28 7 28 L 6 28 C 4.509288 28 3.490712 30 2 30 L 0 30 L 0 31 L 2 31 C 3.490712 31 4.509288 29 6 29 L 7 29 C 8.490712 29 9.509288 31 11 31 L 11 30 L 1.65625 14 L 8 3 L 8 0 L 7 0 z M 10.3125 3 L 3.9375 14 L 13 29.6875 L 13 33 L 14 33 L 14 29.40625 L 12.625 27 L 15.21875 25.5 L 14.15625 23.65625 C 15.87299 22.072897 16.266435 19.301783 14.9375 17 C 13.608565 14.698217 11.010844 13.648688 8.78125 14.34375 L 7.71875 12.5 L 5.125 14 L 10.90625 4 L 25 4 L 25 3 L 10.3125 3 z M 7.34375 13.875 L 8.34375 15.59375 C 10.256921 14.48918 12.819859 15.347684 14.0625 17.5 C 15.305139 19.652316 14.756919 22.301681 12.84375 23.40625 L 13.84375 25.125 L 13 25.625 L 6.5 14.375 L 7.34375 13.875 z M 10.0625 16.625 C 9.7275713 16.64308 9.3926829 16.733661 9.09375 16.90625 L 12.09375 22.09375 C 13.289482 21.403394 13.609676 19.684878 12.78125 18.25 C 12.15993 17.173841 11.067286 16.570766 10.0625 16.625 z M 6 31 C 4.509288 31 3.490712 33 2 33 L 4 33 C 4.627322 32.5 5.254644 32 6 32 L 7 32 C 7.745356 32 8.372678 32.5 9 33 L 11 33 C 9.509288 33 8.490712 31 7 31 L 6 31 z "
     id="path2852" />
  <path
     style="fill:#000000;fill-opacity:1;stroke:none"
     d="M 8,0 8,3 1.65625,14 11,30.21875 11,31 C 9.509288,31 8.490712,29 7,29 l -1,0 c -1.490712,0 -2.509288,2 -4,2 l -2,0 0,2 2,0 c 1.490712,0 2.509288,-2 4,-2 l 1,0 c 1.490712,0 2.509288,2 4,2 l 2,0 0,-3.3125 L 3.9375,14 10.3125,3 25,3 25,0 8,0 z"
     id="path2822" />
  <path
     style="fill:#000000;fill-opacity:1;stroke:none"
     d="m 6.4910254,14.366026 6.4999996,11.25833 0.866025,-0.5 -0.999999,-1.732051 c 1.91317,-1.104569 2.456741,-3.744798 1.214102,-5.897114 -1.242641,-2.152316 -3.800932,-3.001684 -5.7141026,-1.897114 l -0.9999996,-1.732051 -0.8660254,0.5 z m 2.616026,2.531089 c 1.1957316,-0.690356 2.8366356,-0.0868 3.6650626,1.348076 0.828426,1.434878 0.530669,3.15772 -0.665063,3.848076 L 9.1070514,16.897115 z"
     id="rect3054" />
</svg>
