<?xml version="1.0" encoding="UTF-8" standalone="no"?>
<svg
   xmlns:dc="http://purl.org/dc/elements/1.1/"
   xmlns:cc="http://creativecommons.org/ns#"
   xmlns:rdf="http://www.w3.org/1999/02/22-rdf-syntax-ns#"
   xmlns:svg="http://www.w3.org/2000/svg"
   xmlns="http://www.w3.org/2000/svg"
   xmlns:sodipodi="http://sodipodi.sourceforge.net/DTD/sodipodi-0.dtd"
   xmlns:inkscape="http://www.inkscape.org/namespaces/inkscape"
   version="1.0"
   width="25"
   height="34"
   id="svg2"
   inkscape:version="0.47 r22583"
   sodipodi:docname="06-01-007-01-02-11.svg">
  <defs
     id="defs14">
    <inkscape:perspective
       sodipodi:type="inkscape:persp3d"
       inkscape:vp_x="0 : 5.5 : 1"
       inkscape:vp_y="0 : 1000 : 0"
       inkscape:vp_z="10 : 5.5 : 1"
       inkscape:persp3d-origin="5 : 3.6666667 : 1"
       id="perspective16" />
  </defs>
  <sodipodi:namedview
     pagecolor="#ffffff"
     bordercolor="#666666"
     borderopacity="1"
     objecttolerance="10"
     gridtolerance="10"
     guidetolerance="10"
     inkscape:pageopacity="0"
     inkscape:pageshadow="2"
     inkscape:window-width="917"
     inkscape:window-height="792"
     id="namedview12"
     showgrid="true"
     inkscape:zoom="16"
     inkscape:cx="12.5"
     inkscape:cy="17"
     inkscape:window-x="313"
     inkscape:window-y="0"
     inkscape:window-maximized="0"
     inkscape:current-layer="svg2"
     showborder="true"
     inkscape:showpageshadow="true"
     inkscape:snap-center="false">
    <inkscape:grid
       type="xygrid"
       id="grid2822"
       empspacing="5"
       visible="true"
       enabled="true"
       snapvisiblegridlinesonly="true" />
  </sodipodi:namedview>
  <metadata
     id="metadata4">
Valerie Sutton's pixel definition of the
ISWA 2010 symbol ID 02-01-001-01-01-01
transformed by Stephen E Slevinski Jr
using line and fill polygon tracing
<rdf:RDF>
  <cc:Work
     rdf:about="">
    <dc:format>image/svg+xml</dc:format>
    <dc:type
       rdf:resource="http://purl.org/dc/dcmitype/StillImage" />
    <dc:title></dc:title>
  </cc:Work>
</rdf:RDF>
</metadata>
  <path
     style="fill:#ffffff;fill-opacity:1;stroke:none"
     d="M 11.5,24 C 8.462434,24 6,26.462434 6,29.5 6,31.358713 6.932136,33.004398 8.34375,34 l 6.3125,0 C 16.067864,33.004398 17,31.358713 17,29.5 17,26.462434 14.537566,24 11.5,24 z"
     id="path2923" />
  <path
     style="fill:#ffffff;fill-opacity:1;stroke:none"
     d="M 7,0 7,2.71875 0.46875,14 l 8.75,15.15625 C 8.5178815,28.613496 7.8247021,28 7,28 l -1,0 c -1.490712,0 -2.509288,2 -4,2 l -2,0 0,1 2,0 c 1.490712,0 2.509288,-2 4,-2 l 1,0 c 1.490712,0 2.509288,2 4,2 L 11,30 1.65625,14 8,3 8,0 7,0 z M 10.3125,3 3.9375,14 13,29.6875 13,33 11,33 C 9.509288,33 8.490712,31 7,31 l -1,0 c -1.490712,0 -2.509288,2 -4,2 l -2,0 0,1 2,0 c 1.490712,0 2.509288,-2 4,-2 l 1,0 c 1.490712,0 2.509288,2 4,2 l 3,0 0,-4.59375 L 5.125,14 10.90625,4 25,4 25,3 10.3125,3 z"
     id="path2832"
     sodipodi:nodetypes="ccccccccccccccccccccccssssccssssccccccc" />
  <path
     style="fill:#000000;fill-opacity:1;stroke:none"
     d="M 8,0 8,3 1.65625,14 11,30.21875 11,31 C 9.509288,31 8.490712,29 7,29 l -1,0 c -1.490712,0 -2.509288,2 -4,2 l -2,0 0,2 2,0 c 1.490712,0 2.509288,-2 4,-2 l 1,0 c 1.490712,0 2.509288,2 4,2 l 2,0 0,-3.3125 L 3.9375,14 10.3125,3 25,3 25,0 8,0 z"
     id="path2822" />
  <path
     style="fill:#000000;fill-opacity:1;stroke:none"
     d="M 11.5,25 C 9.014719,25 7,27.014719 7,29.5 7,31.985281 9.014719,34 11.5,34 13.985281,34 16,31.985281 16,29.5 16,27.014719 13.985281,25 11.5,25 z"
     id="path3007" />
</svg>
