<?xml version="1.0" encoding="UTF-8" standalone="no"?>
<svg
   xmlns:dc="http://purl.org/dc/elements/1.1/"
   xmlns:cc="http://creativecommons.org/ns#"
   xmlns:rdf="http://www.w3.org/1999/02/22-rdf-syntax-ns#"
   xmlns:svg="http://www.w3.org/2000/svg"
   xmlns="http://www.w3.org/2000/svg"
   xmlns:sodipodi="http://sodipodi.sourceforge.net/DTD/sodipodi-0.dtd"
   xmlns:inkscape="http://www.inkscape.org/namespaces/inkscape"
   version="1.0"
   width="27"
   height="30"
   id="svg2"
   inkscape:version="0.47 r22583"
   sodipodi:docname="06-01-007-01-01-01.svg">
  <defs
     id="defs14">
    <inkscape:perspective
       sodipodi:type="inkscape:persp3d"
       inkscape:vp_x="0 : 5.5 : 1"
       inkscape:vp_y="0 : 1000 : 0"
       inkscape:vp_z="10 : 5.5 : 1"
       inkscape:persp3d-origin="5 : 3.6666667 : 1"
       id="perspective16" />
  </defs>
  <sodipodi:namedview
     pagecolor="#ffffff"
     bordercolor="#666666"
     borderopacity="1"
     objecttolerance="10"
     gridtolerance="10"
     guidetolerance="10"
     inkscape:pageopacity="0"
     inkscape:pageshadow="2"
     inkscape:window-width="917"
     inkscape:window-height="792"
     id="namedview12"
     showgrid="true"
     inkscape:zoom="16.915888"
     inkscape:cx="13.5"
     inkscape:cy="15"
     inkscape:window-x="313"
     inkscape:window-y="0"
     inkscape:window-maximized="0"
     inkscape:current-layer="svg2"
     showborder="true"
     inkscape:showpageshadow="true"
     inkscape:snap-center="false">
    <inkscape:grid
       type="xygrid"
       id="grid2822"
       empspacing="5"
       visible="true"
       enabled="true"
       snapvisiblegridlinesonly="true" />
  </sodipodi:namedview>
  <metadata
     id="metadata4">
Valerie Sutton's pixel definition of the
ISWA 2010 symbol ID 02-01-001-01-01-01
transformed by Stephen E Slevinski Jr
using line and fill polygon tracing
<rdf:RDF>
  <cc:Work
     rdf:about="">
    <dc:format>image/svg+xml</dc:format>
    <dc:type
       rdf:resource="http://purl.org/dc/dcmitype/StillImage" />
    <dc:title></dc:title>
  </cc:Work>
</rdf:RDF>
</metadata>
  <path
     style="fill:#ffffff;fill-opacity:1;stroke:none"
     d="M 4.5 20 C 2.6412866 20 0.99560152 20.932136 0 22.34375 L 0 28.65625 C 0.36485867 29.173565 0.82578864 29.633752 1.34375 30 L 7.65625 30 C 9.0678642 29.004398 10 27.358713 10 25.5 C 10 22.462434 7.5375661 20 4.5 20 z "
     id="path2876" />
  <path
     style="fill:#000000;fill-opacity:1;stroke:none"
     d="M 3 0 L 3 29 L 19.25 12.75 L 17.84375 11.3125 L 5 24.1875 L 5 5 L 27 5 L 27 0 L 3 0 z "
     id="rect2814" />
  <path
     style="fill:#ffffff;fill-opacity:1;stroke:none"
     d="m 4.5,22 c 0.4832492,0 0.9562658,0.10414 1.375,0.28125 0.4187342,0.17711 0.7770623,0.433312 1.09375,0.75 0.3166877,0.316688 0.5728904,0.675016 0.75,1.09375 C 7.8958596,24.543734 8,25.016751 8,25.5 c 0,0.483249 -0.1041404,0.956266 -0.28125,1.375 -0.1771096,0.418734 -0.4333123,0.777062 -0.75,1.09375 -0.3166877,0.316688 -0.6750158,0.57289 -1.09375,0.75 C 5.4562658,28.89586 4.9832492,29 4.5,29 4.0167508,29 3.5437342,28.89586 3.125,28.71875 2.7062658,28.54164 2.3479377,28.285438 2.03125,27.96875 1.7145623,27.652062 1.4583596,27.293734 1.28125,26.875 1.1041404,26.456266 1,25.983249 1,25.5 1,25.016751 1.1041404,24.543734 1.28125,24.125 1.4583596,23.706266 1.7145623,23.347938 2.03125,23.03125 2.3479377,22.714562 2.7062658,22.45836 3.125,22.28125 3.5437342,22.10414 4.0167508,22 4.5,22 z"
     id="path2903" />
  <path
     style="fill:#ffffff;fill-opacity:1;stroke:none"
     d="M 2 0 L 2 30 L 3.4375 30 L 20.6875 12.75 L 17.84375 9.90625 L 6 21.75 L 6 6 L 27 6 L 27 5 L 5 5 L 5 24.15625 L 17.84375 11.3125 L 19.25 12.75 L 3 29 L 3 0 L 2 0 z "
     id="rect2831" />
  <path
     style="fill:#000000;fill-opacity:1;stroke:none"
     d="M 4.5,21 C 2.0147186,21 0,23.014719 0,25.5 0,27.985281 2.0147186,30 4.5,30 6.9852814,30 9,27.985281 9,25.5 9,23.014719 6.9852814,21 4.5,21 z m 0,1.5 c 1.6568542,0 3,1.343146 3,3 0,1.656854 -1.3431458,3 -3,3 -1.6568542,0 -3,-1.343146 -3,-3 0,-1.656854 1.3431458,-3 3,-3 z"
     id="path2878" />
</svg>
