<?xml version="1.0" encoding="UTF-8" standalone="no"?>
<svg
   xmlns:dc="http://purl.org/dc/elements/1.1/"
   xmlns:cc="http://creativecommons.org/ns#"
   xmlns:rdf="http://www.w3.org/1999/02/22-rdf-syntax-ns#"
   xmlns:svg="http://www.w3.org/2000/svg"
   xmlns="http://www.w3.org/2000/svg"
   xmlns:sodipodi="http://sodipodi.sourceforge.net/DTD/sodipodi-0.dtd"
   xmlns:inkscape="http://www.inkscape.org/namespaces/inkscape"
   version="1.0"
   width="16"
   height="30"
   id="svg2"
   inkscape:version="0.47 r22583"
   sodipodi:docname="02-02-009-01-01-01.svg">
  <defs
     id="defs14">
    <inkscape:perspective
       sodipodi:type="inkscape:persp3d"
       inkscape:vp_x="0 : 5.5 : 1"
       inkscape:vp_y="0 : 1000 : 0"
       inkscape:vp_z="10 : 5.5 : 1"
       inkscape:persp3d-origin="5 : 3.6666667 : 1"
       id="perspective16" />
  </defs>
  <sodipodi:namedview
     pagecolor="#ffffff"
     bordercolor="#666666"
     borderopacity="1"
     objecttolerance="10"
     gridtolerance="10"
     guidetolerance="10"
     inkscape:pageopacity="0"
     inkscape:pageshadow="2"
     inkscape:window-width="917"
     inkscape:window-height="792"
     id="namedview12"
     showgrid="true"
     inkscape:zoom="13.230408"
     inkscape:cx="9.0547867"
     inkscape:cy="15.218555"
     inkscape:window-x="313"
     inkscape:window-y="0"
     inkscape:window-maximized="0"
     inkscape:current-layer="svg2">
    <inkscape:grid
       type="xygrid"
       id="grid2822" />
  </sodipodi:namedview>
  <metadata
     id="metadata4">
Valerie Sutton's pixel definition of the
ISWA 2010 symbol ID 02-01-001-01-01-01
transformed by Stephen E Slevinski Jr
using line and fill polygon tracing
<rdf:RDF>
  <cc:Work
     rdf:about="">
    <dc:format>image/svg+xml</dc:format>
    <dc:type
       rdf:resource="http://purl.org/dc/dcmitype/StillImage" />
    <dc:title></dc:title>
  </cc:Work>
</rdf:RDF>
</metadata>
  <path
     style="fill:#000000;fill-opacity:1;stroke:none"
     d="m 15.585,20.550717 -5.656854,-5.656854 -1.414214,1.414213 4.24264,4.242641 -4.24264,4.24264 1.414213,1.414214 5.656855,-5.656854 z"
     id="rect3641" />
  <path
     style="fill:#000000;fill-opacity:1;stroke:none"
     d="m 1.272681,0.9522828 -0.75,0.71875 c 1.243014,0.678244 2.440939,1.4666031 3.625,2.34375 l 1.65625,0 C 4.346764,2.8477239 2.827666,1.8186443 1.272681,0.9522828 z m 9.65625,8.40625 0.03125,1.8750002 c 0.943774,1.668587 1.570054,3.418473 1.96875,5.25 l 1.21875,1.21875 c -0.421602,-2.936947 -1.497443,-5.793118 -3.21875,-8.3437502 z m 3.25,14.0312502 -1.25,1.21875 c -0.36484,1.674545 -0.934561,3.325529 -1.75,4.875 l 0.875,0.5 c 1.100086,-2.08464 1.801795,-4.315645 2.125,-6.59375 z"
     id="rect3691" />
  <path
     style="fill:#000000;fill-opacity:1;stroke:none"
     d="m 10,5 -10e-7,7.999999 -1.999999,0 0,-5.9999991 -6.000001,-4e-7 L 2,5.0000002 10,5 z"
     id="path3808" />
</svg>
