<?xml version="1.0" encoding="UTF-8" standalone="no"?>
<svg
   xmlns:dc="http://purl.org/dc/elements/1.1/"
   xmlns:cc="http://creativecommons.org/ns#"
   xmlns:rdf="http://www.w3.org/1999/02/22-rdf-syntax-ns#"
   xmlns:svg="http://www.w3.org/2000/svg"
   xmlns="http://www.w3.org/2000/svg"
   xmlns:sodipodi="http://sodipodi.sourceforge.net/DTD/sodipodi-0.dtd"
   xmlns:inkscape="http://www.inkscape.org/namespaces/inkscape"
   version="1.0"
   width="19"
   height="42"
   id="svg2"
   inkscape:version="0.47 r22583"
   sodipodi:docname="02-02-009-01-03-01.svg">
  <defs
     id="defs14">
    <inkscape:perspective
       sodipodi:type="inkscape:persp3d"
       inkscape:vp_x="0 : 5.5 : 1"
       inkscape:vp_y="0 : 1000 : 0"
       inkscape:vp_z="10 : 5.5 : 1"
       inkscape:persp3d-origin="5 : 3.6666667 : 1"
       id="perspective16" />
  </defs>
  <sodipodi:namedview
     pagecolor="#ffffff"
     bordercolor="#666666"
     borderopacity="1"
     objecttolerance="10"
     gridtolerance="10"
     guidetolerance="10"
     inkscape:pageopacity="0"
     inkscape:pageshadow="2"
     inkscape:window-width="917"
     inkscape:window-height="792"
     id="namedview12"
     showgrid="true"
     inkscape:zoom="12.34"
     inkscape:cx="9.057643"
     inkscape:cy="19.346333"
     inkscape:window-x="313"
     inkscape:window-y="0"
     inkscape:window-maximized="0"
     inkscape:current-layer="svg2">
    <inkscape:grid
       type="xygrid"
       id="grid2822" />
  </sodipodi:namedview>
  <metadata
     id="metadata4">
Valerie Sutton's pixel definition of the
ISWA 2010 symbol ID 02-01-001-01-01-01
transformed by Stephen E Slevinski Jr
using line and fill polygon tracing
<rdf:RDF>
  <cc:Work
     rdf:about="">
    <dc:format>image/svg+xml</dc:format>
    <dc:type
       rdf:resource="http://purl.org/dc/dcmitype/StillImage" />
    <dc:title></dc:title>
  </cc:Work>
</rdf:RDF>
</metadata>
  <path
     style="fill:#000000;fill-opacity:1;stroke:none"
     d="m 13.071069,38.016466 -10e-7,-8.000005 -2,-1e-6 0,6 -5.999999,0 -10e-7,2 8.000001,6e-6 z"
     id="rect2814" />
  <path
     style="fill:#000000;fill-opacity:1;stroke:none"
     d="M 7.071069,1.0164672 7.071068,3e-7 0,0 l 0,7.0710678 1.016466,3e-7 0,-6.0546021 6.054603,1.2e-6 z"
     id="path3820" />
  <path
     style="fill:#000000;fill-opacity:1;stroke:none"
     d="m 18.656069,22.567184 -5.656854,-5.656854 -1.414214,1.414213 4.24264,4.242641 -4.24264,4.24264 1.414213,1.414214 5.656855,-5.656854 z"
     id="rect3641" />
  <path
     style="fill:#000000;fill-opacity:1;stroke:none"
     d="m 4.34375,2.96875 -0.75,0.71875 c 1.243014,0.678244 2.440939,1.4666031 3.625,2.34375 l 1.65625,0 C 7.417833,4.8641911 5.898735,3.8351115 4.34375,2.96875 z M 14,11.375 14.03125,13.25 C 14.975024,14.918587 15.601304,16.668473 16,18.5 l 1.21875,1.21875 C 16.797148,16.781803 15.721307,13.925632 14,11.375 z M 17.25,25.40625 16,26.625 c -0.398708,1.829991 -1.024019,3.642503 -1.96875,5.3125 l 0,1.90625 c 1.747763,-2.567102 2.798661,-5.476513 3.21875,-8.4375 z M 6.78125,39.125 C 5.2429792,39.995213 3.6157091,40.626348 1.9375,41.03125 L 2.1875,42 c 2.2790786,-0.55434 4.4922757,-1.508077 6.5,-2.875 l -1.90625,0 z"
     id="rect3691" />
  <path
     style="fill:#000000;fill-opacity:1;stroke:none"
     d="m 13.071069,7.0164672 -10e-7,7.9999988 -1.999999,0 0,-5.9999989 -6.000001,-4e-7 10e-7,-1.9999993 8,-2e-7 z"
     id="path3808" />
</svg>
