<?xml version="1.0" encoding="UTF-8" standalone="no"?>
<svg
   xmlns:dc="http://purl.org/dc/elements/1.1/"
   xmlns:cc="http://creativecommons.org/ns#"
   xmlns:rdf="http://www.w3.org/1999/02/22-rdf-syntax-ns#"
   xmlns:svg="http://www.w3.org/2000/svg"
   xmlns="http://www.w3.org/2000/svg"
   xmlns:sodipodi="http://sodipodi.sourceforge.net/DTD/sodipodi-0.dtd"
   xmlns:inkscape="http://www.inkscape.org/namespaces/inkscape"
   version="1.0"
   width="36"
   height="42"
   id="svg2"
   inkscape:version="0.47 r22583"
   sodipodi:docname="02-02-009-01-04-01.svg">
  <defs
     id="defs14">
    <inkscape:perspective
       sodipodi:type="inkscape:persp3d"
       inkscape:vp_x="0 : 5.5 : 1"
       inkscape:vp_y="0 : 1000 : 0"
       inkscape:vp_z="10 : 5.5 : 1"
       inkscape:persp3d-origin="5 : 3.6666667 : 1"
       id="perspective16" />
  </defs>
  <sodipodi:namedview
     pagecolor="#ffffff"
     bordercolor="#666666"
     borderopacity="1"
     objecttolerance="10"
     gridtolerance="10"
     guidetolerance="10"
     inkscape:pageopacity="0"
     inkscape:pageshadow="2"
     inkscape:window-width="917"
     inkscape:window-height="792"
     id="namedview12"
     showgrid="true"
     inkscape:zoom="11.51"
     inkscape:cx="18.782116"
     inkscape:cy="19.346333"
     inkscape:window-x="313"
     inkscape:window-y="0"
     inkscape:window-maximized="0"
     inkscape:current-layer="svg2">
    <inkscape:grid
       type="xygrid"
       id="grid2822" />
  </sodipodi:namedview>
  <metadata
     id="metadata4">
Valerie Sutton's pixel definition of the
ISWA 2010 symbol ID 02-01-001-01-01-01
transformed by Stephen E Slevinski Jr
using line and fill polygon tracing
<rdf:RDF>
  <cc:Work
     rdf:about="">
    <dc:format>image/svg+xml</dc:format>
    <dc:type
       rdf:resource="http://purl.org/dc/dcmitype/StillImage" />
    <dc:title></dc:title>
  </cc:Work>
</rdf:RDF>
</metadata>
  <path
     style="fill:#000000;fill-opacity:1;stroke:none"
     d="m 35.975101,22.873483 -5.656858,-5.656857 -1.414214,1.414213 4.24264,4.242641 -4.24264,4.24264 1.414213,1.414214 5.656859,-5.656851 z"
     id="rect2814" />
  <path
     style="fill:#000000;fill-opacity:1;stroke:none"
     d="M 5.7187514,0.7187502 5,4e-7 0,5 5,10 5.7187504,9.28125 1.4375,5 5.7187514,0.7187502 z"
     id="path3820" />
  <path
     style="fill:#000000;fill-opacity:1;stroke:none"
     d="m 29,8 -7.999999,2e-7 L 21,10 l 6,0 0,6 2,0 0,-8 z"
     id="rect3641" />
  <path
     style="fill:#000000;fill-opacity:1;stroke:none"
     d="M 29,30.000001 26.999999,30 l 0,6 L 21,35.999999 21,38.000001 28.999998,38 29,30.000001 z"
     id="rect3679" />
  <path
     style="fill:#000000;fill-opacity:1;stroke:none"
     d="M 10.375,3.21875 C 8.519392,3.4238874 6.7434004,3.7630698 5.03125,4.25 L 5,5.28125 C 6.3585344,4.8818975 7.761256,4.5920209 9.21875,4.375 L 10.375,3.21875 z M 17.78125,3.375 19.125,4.6875 C 20.972218,5.2000202 22.672994,5.9868358 24.25,7 l 1.71875,0 C 23.593899,5.2213799 20.801967,3.9614214 17.78125,3.375 z M 30,11 l 0,1.75 c 1.01207,1.575929 1.830909,3.307358 2.34375,5.15625 L 33.6875,19.25 C 33.10814,16.19893 31.796687,13.390782 30,11 z m 3.65625,15.75 -1.34375,1.34375 C 31.799661,29.942641 31.012071,31.67407 30,33.25 L 30,35 c 1.796686,-2.390783 3.076892,-5.198931 3.65625,-8.25 z M 25.96875,38.96875 24.25,39 c -1.333996,0.857039 -2.779754,1.526358 -4.3125,2.03125 L 20.1875,42 c 2.096983,-0.694161 4.051498,-1.735769 5.78125,-3.03125 z"
     id="rect3691" />
  <path
     style="fill:#000000;fill-opacity:1;stroke:none"
     d="M 14.054792,0.9531736 19.711645,6.6100278 18.297432,8.0242411 14.054792,3.7816007 9.81215,8.024242 8.397938,6.610028 14.054792,0.9531736 z"
     id="path3808" />
</svg>
