<?xml version="1.0" encoding="UTF-8" standalone="no"?>
<!-- Created with Inkscape (http://www.inkscape.org/) -->

<svg
   xmlns:dc="http://purl.org/dc/elements/1.1/"
   xmlns:cc="http://creativecommons.org/ns#"
   xmlns:rdf="http://www.w3.org/1999/02/22-rdf-syntax-ns#"
   xmlns:svg="http://www.w3.org/2000/svg"
   xmlns="http://www.w3.org/2000/svg"
   xmlns:sodipodi="http://sodipodi.sourceforge.net/DTD/sodipodi-0.dtd"
   xmlns:inkscape="http://www.inkscape.org/namespaces/inkscape"
   width="20"
   height="30"
   id="svg3198"
   sodipodi:version="0.32"
   inkscape:version="0.47 r22583"
   version="1.0"
   sodipodi:docname="01-07-002-01-04.svg"
   inkscape:output_extension="org.inkscape.output.svg.inkscape">
  <defs
     id="defs3200">
    <inkscape:perspective
       sodipodi:type="inkscape:persp3d"
       inkscape:vp_x="0 : 15 : 1"
       inkscape:vp_y="0 : 1000 : 0"
       inkscape:vp_z="20 : 15 : 1"
       inkscape:persp3d-origin="10 : 10 : 1"
       id="perspective13" />
  </defs>
  <sodipodi:namedview
     id="namedview3727"
     gridtolerance="10000"
     guidetolerance="10"
     objecttolerance="10"
     inkscape:document-units="px"
     showgrid="true"
     inkscape:zoom="17.233119"
     inkscape:cx="7.2046664"
     inkscape:cy="14.792871"
     inkscape:window-width="1440"
     inkscape:window-height="793"
     inkscape:window-x="0"
     inkscape:window-y="0"
     inkscape:window-maximized="1"
     inkscape:current-layer="">
    <inkscape:grid
       type="xygrid"
       id="grid3208"
       visible="true"
       enabled="true"
       empspacing="5"
       snapvisiblegridlinesonly="true" />
  </sodipodi:namedview>
  <metadata
     id="metadata3203">
    <rdf:RDF>
      <cc:Work
         rdf:about="">
        <dc:format>image/svg+xml</dc:format>
        <dc:type
           rdf:resource="http://purl.org/dc/dcmitype/StillImage" />
        <dc:title></dc:title>
      </cc:Work>
    </rdf:RDF>
  </metadata>
  <g
     inkscape:label="Layer 1"
     inkscape:groupmode="layer"
     id="">
    <path
       style="fill:#000000;fill-opacity:1;stroke:none"
       d="M 12 14 C 7.581722 14 4 17.581722 4 22 C 4 26.418278 7.581722 30 12 30 C 16.418278 30 20 26.418278 20 22 C 20 17.581722 16.418278 14 12 14 z "
       id="base" />
    <path
       style="fill:#ffffff;fill-opacity:1;stroke:none"
       d="M 12 16 C 8.6862915 16 6 18.686292 6 22 C 6 25.313708 8.6862915 28 12 28 L 12 16 z "
       id="fill" />
    <path
       style="fill:#000000;fill-opacity:1;stroke:none"
       d="M 18 0 L 18 14 L 20 14 L 20 0 L 18 0 z "
       id="index" />
    <path
       style="fill:#000000;fill-opacity:1;stroke:none"
       d="M 8.6875 4.6875 L 7.28125 6.09375 L 15.1875 14 L 18 14 L 8.6875 4.6875 z "
       id="middle" />
    <path
       style="fill:#000000;fill-opacity:1;stroke:none"
       d="M 1.40625 10.59375 L 0 12 L 4 16 C 4.4066541 15.457667 4.8686302 14.980303 5.375 14.53125 L 1.40625 10.59375 z "
       id="baby" />
  </g>
</svg>
