<?xml version="1.0" encoding="UTF-8" standalone="no"?>
<svg
   xmlns:dc="http://purl.org/dc/elements/1.1/"
   xmlns:cc="http://creativecommons.org/ns#"
   xmlns:rdf="http://www.w3.org/1999/02/22-rdf-syntax-ns#"
   xmlns:svg="http://www.w3.org/2000/svg"
   xmlns="http://www.w3.org/2000/svg"
   xmlns:sodipodi="http://sodipodi.sourceforge.net/DTD/sodipodi-0.dtd"
   xmlns:inkscape="http://www.inkscape.org/namespaces/inkscape"
   version="1.0"
   width="18"
   height="43"
   id="svg2"
   inkscape:version="0.47 r22583"
   sodipodi:docname="02-06-006-03-01-01.svg">
  <defs
     id="defs16">
    <inkscape:perspective
       sodipodi:type="inkscape:persp3d"
       inkscape:vp_x="0 : 23 : 1"
       inkscape:vp_y="0 : 1000 : 0"
       inkscape:vp_z="36 : 23 : 1"
       inkscape:persp3d-origin="18 : 15.333333 : 1"
       id="perspective18" />
  </defs>
  <sodipodi:namedview
     pagecolor="#ffffff"
     bordercolor="#666666"
     borderopacity="1"
     objecttolerance="10"
     gridtolerance="10"
     guidetolerance="10"
     inkscape:pageopacity="0"
     inkscape:pageshadow="2"
     inkscape:window-width="964"
     inkscape:window-height="721"
     id="namedview14"
     showgrid="true"
     inkscape:zoom="11"
     inkscape:cx="9"
     inkscape:cy="21.5"
     inkscape:window-x="365"
     inkscape:window-y="0"
     inkscape:window-maximized="0"
     inkscape:current-layer="svg2"
     showborder="true">
    <inkscape:grid
       type="xygrid"
       id="grid2824"
       empspacing="5"
       visible="true"
       enabled="true"
       snapvisiblegridlinesonly="true" />
  </sodipodi:namedview>
  <metadata
     id="metadata4">
Valerie Sutton's pixel definition of the
ISWA 2010 symbol ID 04-01-003-01-01-01
transformed by Stephen E Slevinski Jr
using line and fill polygon tracing
<rdf:RDF>
  <cc:Work
     rdf:about="">
    <dc:format>image/svg+xml</dc:format>
    <dc:type
       rdf:resource="http://purl.org/dc/dcmitype/StillImage" />
    <dc:title></dc:title>
  </cc:Work>
</rdf:RDF>
</metadata>
  <path
     style="fill:#000000;fill-opacity:1;stroke:none"
     d="M 0 0 L 0 12 L 2 10 L 2 2 L 10 2 L 12 0 L 0 0 z "
     id="path3051" />
  <path
     style="fill:#000000;fill-opacity:1;stroke:none"
     d="M 4.59375 7.40625 L 3.1875 8.8125 L 9.40625 15.0625 C 9.7681788 15.424429 10 15.916466 10 16.46875 C 10 17.021034 9.7681788 17.513071 9.40625 17.875 L 3.9375 23.34375 C 2.127856 25.153394 1 27.644826 1 30.40625 C 1 33.167673 2.127856 35.659106 3.9375 37.46875 L 9.46875 43 L 10.875 41.59375 L 5.34375 36.0625 C 3.896035 34.614785 3 32.615389 3 30.40625 C 3 28.197111 3.896035 26.197715 5.34375 24.75 L 10.84375 19.3125 C 11.567608 18.588642 12 17.57332 12 16.46875 C 12 15.36418 11.567608 14.348858 10.84375 13.625 L 4.59375 7.40625 z "
     id="path2853" />
  <path
     style="fill:#ffffff;fill-opacity:1;stroke:none"
     d="M 7.4375 4.5625 L 4.59375 7.40625 L 10.84375 13.625 C 11.567608 14.348858 12 15.36418 12 16.46875 C 12 17.57332 11.567608 18.588642 10.84375 19.3125 L 5.34375 24.75 C 3.896035 26.197715 3 28.197111 3 30.40625 C 3 32.615389 3.896035 34.614785 5.34375 36.0625 L 10.875 41.59375 L 13.71875 38.75 L 8.15625 33.25 C 7.432392 32.526142 7 31.51082 7 30.40625 C 7 29.30168 7.432392 28.286358 8.15625 27.5625 L 13.65625 22.125 C 15.103965 20.677285 16 18.677889 16 16.46875 C 16 14.259611 15.103965 12.260215 13.65625 10.8125 L 7.4375 4.5625 z "
     id="path2851" />
  <path
     style="fill:#000000;fill-opacity:1;stroke:none"
     d="M 8.8125 3.1875 L 7.4375 4.5625 L 13.65625 10.8125 C 15.103965 12.260215 16 14.259611 16 16.46875 C 16 18.677889 15.103965 20.677285 13.65625 22.125 L 8.15625 27.5625 C 7.432392 28.286358 7 29.30168 7 30.40625 C 7 31.51082 7.432392 32.526142 8.15625 33.25 L 13.71875 38.75 L 15.125 37.34375 L 9.59375 31.8125 C 9.231821 31.450571 9 30.958534 9 30.40625 C 9 29.853966 9.231821 29.361929 9.59375 29 L 15.0625 23.53125 C 16.872144 21.721606 18 19.230173 18 16.46875 C 18 13.707326 16.872144 11.215894 15.0625 9.40625 L 8.8125 3.1875 z "
     id="rect2816" />
</svg>
