<?xml version="1.0" encoding="UTF-8" standalone="no"?>
<!-- Created with Inkscape (http://www.inkscape.org/) -->

<svg
   xmlns:dc="http://purl.org/dc/elements/1.1/"
   xmlns:cc="http://creativecommons.org/ns#"
   xmlns:rdf="http://www.w3.org/1999/02/22-rdf-syntax-ns#"
   xmlns:svg="http://www.w3.org/2000/svg"
   xmlns="http://www.w3.org/2000/svg"
   xmlns:sodipodi="http://sodipodi.sourceforge.net/DTD/sodipodi-0.dtd"
   xmlns:inkscape="http://www.inkscape.org/namespaces/inkscape"
   width="22"
   height="30"
   id="svg3198"
   sodipodi:version="0.32"
   inkscape:version="0.47 r22583"
   version="1.0"
   sodipodi:docname="01-09-003-01-01.svg"
   inkscape:output_extension="org.inkscape.output.svg.inkscape">
  <defs
     id="defs3200">
    <inkscape:perspective
       sodipodi:type="inkscape:persp3d"
       inkscape:vp_x="0 : 526.18109 : 1"
       inkscape:vp_y="0 : 1000 : 0"
       inkscape:vp_z="744.09448 : 526.18109 : 1"
       inkscape:persp3d-origin="372.04724 : 350.78739 : 1"
       id="perspective3206" />
  </defs>
  <sodipodi:namedview
     id="namedview3727"
     pagecolor="#ffffff"
     bordercolor="#666666"
     borderopacity="1.0"
     gridtolerance="10000"
     guidetolerance="10"
     objecttolerance="10"
     inkscape:pageopacity="0.0"
     inkscape:pageshadow="2"
     inkscape:zoom="17.233119"
     inkscape:cx="10.293878"
     inkscape:cy="14.712488"
     inkscape:document-units="px"
     inkscape:current-layer=""
     showgrid="true"
     inkscape:window-width="1091"
     inkscape:window-height="774"
     inkscape:window-x="1"
     inkscape:window-y="25"
     inkscape:window-maximized="0">
    <inkscape:grid
       type="xygrid"
       id="grid3208"
       visible="true"
       enabled="true" />
  </sodipodi:namedview>
  <metadata
     id="metadata3203">
    <rdf:RDF>
      <cc:Work
         rdf:about="">
        <dc:format>image/svg+xml</dc:format>
        <dc:type
           rdf:resource="http://purl.org/dc/dcmitype/StillImage" />
        <dc:title></dc:title>
      </cc:Work>
    </rdf:RDF>
  </metadata>
  <g
     inkscape:label="Layer 1"
     inkscape:groupmode="layer"
     id="">
    <path
       style="fill:#000000;fill-opacity:1;stroke:none"
       d="m 14,13 c -7,0 -7,6 -7,6 0,6 6,6 6,6 l 3,0 0,-2 -3,0 c -4,0 -4,-4 -4,-4 0,-4 5,-4 5,-4 6,0 6,6 6,6 0,7 -7,7 -7,7 C 7.4811321,28 4.5161142,25.46044 2.90625,22.71875 L 1,23.8125 C 4.8719628,29.996595 13,30 13,30 c 9,0 9,-9 9,-9 0,-8 -8,-8 -8,-8 z"
       id="base" />
    <path
       style="fill:#ffffff;fill-opacity:1;stroke:none"
       d="m 14,15 c 0,0 -5,0 -5,4 0,0 0,4 4,4 l 3,0 0,2 2.9375,0 C 19.584878,24.022122 20,22.729217 20,21 c 0,0 0,-6 -6,-6 z"
       id="fill" />
    <path
       style="fill:#000000;fill-opacity:1;stroke:none"
       d="M 13 0 L 13 11.0625 C 13.21809 11.038182 13.47623 11.009446 13.625 11 C 14.02875 11 13.5 11 14 11 C 14.346799 11 14.677049 11.007753 15 11.03125 L 15 0 L 13 0 z "
       id="middle" />
    <path
       style="fill:#000000;fill-opacity:1;stroke:none"
       d="M 6 3 L 4.21875 3.90625 L 8.59375 12.46875 C 9.1860924 12.123931 9.8138826 11.857318 10.40625 11.65625 L 6 3 z "
       id="ring" />
    <path
       style="fill:#000000;fill-opacity:1;stroke:none"
       d="M 2 10 L 0.59375 11.40625 L 5.4375 16.25 C 5.6774789 15.550648 6.0159873 14.930945 6.40625 14.40625 L 6.40625 14.375 L 2 10 z "
       id="baby" />
  </g>
</svg>
