<?xml version="1.0" encoding="UTF-8" standalone="no"?>
<!-- Created with Inkscape (http://www.inkscape.org/) -->

<svg
   xmlns:dc="http://purl.org/dc/elements/1.1/"
   xmlns:cc="http://creativecommons.org/ns#"
   xmlns:rdf="http://www.w3.org/1999/02/22-rdf-syntax-ns#"
   xmlns:svg="http://www.w3.org/2000/svg"
   xmlns="http://www.w3.org/2000/svg"
   xmlns:sodipodi="http://sodipodi.sourceforge.net/DTD/sodipodi-0.dtd"
   xmlns:inkscape="http://www.inkscape.org/namespaces/inkscape"
   width="28"
   height="30"
   id="svg3198"
   sodipodi:version="0.32"
   inkscape:version="0.47 r22583"
   version="1.0"
   sodipodi:docname="01-09-003-01-03.svg"
   inkscape:output_extension="org.inkscape.output.svg.inkscape">
  <defs
     id="defs3200">
    <inkscape:perspective
       sodipodi:type="inkscape:persp3d"
       inkscape:vp_x="0 : 526.18109 : 1"
       inkscape:vp_y="0 : 1000 : 0"
       inkscape:vp_z="744.09448 : 526.18109 : 1"
       inkscape:persp3d-origin="372.04724 : 350.78739 : 1"
       id="perspective3206" />
  </defs>
  <sodipodi:namedview
     id="namedview3727"
     pagecolor="#ffffff"
     bordercolor="#666666"
     borderopacity="1.0"
     gridtolerance="10000"
     guidetolerance="10"
     objecttolerance="10"
     inkscape:pageopacity="0.0"
     inkscape:pageshadow="2"
     inkscape:zoom="17.233119"
     inkscape:cx="11.54154"
     inkscape:cy="14.712488"
     inkscape:document-units="px"
     inkscape:current-layer=""
     showgrid="true"
     inkscape:window-width="1091"
     inkscape:window-height="774"
     inkscape:window-x="1"
     inkscape:window-y="25"
     inkscape:window-maximized="0">
    <inkscape:grid
       type="xygrid"
       id="grid3208"
       visible="true"
       enabled="true" />
  </sodipodi:namedview>
  <metadata
     id="metadata3203">
    <rdf:RDF>
      <cc:Work
         rdf:about="">
        <dc:format>image/svg+xml</dc:format>
        <dc:type
           rdf:resource="http://purl.org/dc/dcmitype/StillImage" />
        <dc:title></dc:title>
      </cc:Work>
    </rdf:RDF>
  </metadata>
  <g
     inkscape:label="Layer 1"
     inkscape:groupmode="layer"
     id="">
    <path
       style="fill:#000000;fill-opacity:1;stroke:none"
       d="m 13,13 c -7,0 -7,6 -7,6 0,6 6,6 6,6 l 5.9375,0 C 15.981561,28.009357 12,28 12,28 6.4811321,28 3.5161142,25.46044 1.90625,22.71875 L 0,23.8125 C 3.8719628,29.996595 12,30 12,30 c 9,0 9,-9 9,-9 0,-8 -8,-8 -8,-8 z"
       id="base" />
    <path
       style="fill:#000000;fill-opacity:1;stroke:none"
       d="M 13 0 L 13 11 C 13.720737 11 14.379411 11.059846 15 11.15625 L 15 0 L 13 0 z "
       id="middle" />
    <path
       style="fill:#000000;fill-opacity:1;stroke:none"
       d="M 22 3 L 17.46875 11.875 C 18.116622 12.159111 18.682855 12.48996 19.1875 12.875 L 23.78125 3.90625 L 22 3 z "
       id="ring" />
    <path
       style="fill:#000000;fill-opacity:1;stroke:none"
       d="M 26 10 L 21.09375 14.90625 C 21.499717 15.509663 21.812358 16.139292 22.0625 16.75 L 27.40625 11.40625 L 26 10 z "
       id="baby" />
  </g>
</svg>
