<?xml version="1.0" encoding="UTF-8" standalone="no"?>
<svg
   xmlns:dc="http://purl.org/dc/elements/1.1/"
   xmlns:cc="http://creativecommons.org/ns#"
   xmlns:rdf="http://www.w3.org/1999/02/22-rdf-syntax-ns#"
   xmlns:svg="http://www.w3.org/2000/svg"
   xmlns="http://www.w3.org/2000/svg"
   xmlns:sodipodi="http://sodipodi.sourceforge.net/DTD/sodipodi-0.dtd"
   xmlns:inkscape="http://www.inkscape.org/namespaces/inkscape"
   version="1.0"
   width="28"
   height="32"
   id="svg2"
   inkscape:version="0.47 r22583"
   sodipodi:docname="02-05-017-01-03-10.svg">
  <defs
     id="defs16">
    <inkscape:perspective
       sodipodi:type="inkscape:persp3d"
       inkscape:vp_x="0 : 23 : 1"
       inkscape:vp_y="0 : 1000 : 0"
       inkscape:vp_z="36 : 23 : 1"
       inkscape:persp3d-origin="18 : 15.333333 : 1"
       id="perspective18" />
  </defs>
  <sodipodi:namedview
     pagecolor="#ffffff"
     bordercolor="#666666"
     borderopacity="1"
     objecttolerance="10"
     gridtolerance="10"
     guidetolerance="10"
     inkscape:pageopacity="0"
     inkscape:pageshadow="2"
     inkscape:window-width="964"
     inkscape:window-height="721"
     id="namedview14"
     showgrid="true"
     inkscape:zoom="14.78125"
     inkscape:cx="14"
     inkscape:cy="16"
     inkscape:window-x="365"
     inkscape:window-y="0"
     inkscape:window-maximized="0"
     inkscape:current-layer="svg2"
     showborder="true">
    <inkscape:grid
       type="xygrid"
       id="grid2824"
       empspacing="5"
       visible="true"
       enabled="true"
       snapvisiblegridlinesonly="true" />
  </sodipodi:namedview>
  <metadata
     id="metadata4">
Valerie Sutton's pixel definition of the
ISWA 2010 symbol ID 04-01-003-01-01-01
transformed by Stephen E Slevinski Jr
using line and fill polygon tracing
<rdf:RDF>
  <cc:Work
     rdf:about="">
    <dc:format>image/svg+xml</dc:format>
    <dc:type
       rdf:resource="http://purl.org/dc/dcmitype/StillImage" />
    <dc:title></dc:title>
  </cc:Work>
</rdf:RDF>
</metadata>
  <path
     style="fill:#000000;fill-opacity:1;stroke:none"
     d="M 28,22.100505 28,32 l -9.899495,0 2.010835,-2.010835 5.877825,0 0,-5.877825 L 28,22.100505 z"
     id="path2966" />
  <path
     style="fill:#000000;fill-opacity:1;stroke:none"
     d="M 27,15 21.5,9.5 16,15 17.413655,15 21.5,10.913654 25.586345,15 27,15 z"
     id="path3018" />
  <path
     style="fill:#000000;fill-opacity:1;stroke:none"
     d="m 11,28 c 7.179702,0 13,-5.820298 13,-13.000001 l -1,0 c 0,6.627418 -5.372583,12.000001 -12,12 L 9,27 l 0,1 2,0 z"
     id="path3020" />
  <path
     style="fill:#ffffff;fill-opacity:1;stroke:none"
     d="m 11,26.999999 c 6.627417,1e-6 12,-5.372582 12,-12 L 19.999999,15 c 0,4.970564 -4.029436,9 -8.999999,9 l -2,0 0,3 2,-1e-6 z"
     id="path3025" />
  <path
     style="fill:#000000;fill-opacity:1;stroke:none"
     d="m 11,24 c 4.970563,0 8.999999,-4.029436 8.999999,-9 L 19,14.999999 c 0,4.418279 -3.581722,8.000001 -8,8 L 9,23 8.999999,24.000001 11,24 z"
     id="path3069" />
  <path
     id="path3182"
     d="M 18,6 12.5,0.5 7,6 8.413654,6 12.5,1.913654 16.586345,6 18,6 z"
     style="fill:#000000;fill-opacity:1;stroke:none" />
  <path
     id="path3184"
     d="m 2,18.999999 c 7.179702,0 12.999999,-5.820298 12.999999,-13 l -1,0 c 10e-7,6.627417 -5.372582,12 -11.999999,12 l -2,0 L 0,19 l 2,-1e-6 z"
     style="fill:#000000;fill-opacity:1;stroke:none" />
  <path
     id="path3186"
     d="m 2,17.999999 c 6.627417,0 12,-5.372583 11.999999,-12 l -3,1e-6 c 0,4.970563 -4.029436,8.999999 -8.999999,8.999999 L 0,15 l 0,2.999999 2,0 z"
     style="fill:#ffffff;fill-opacity:1;stroke:none" />
  <path
     id="path3188"
     d="M 2.000501,14.999999 C 6.971064,14.999999 11.0005,10.970563 11.0005,6 l -1,-1e-6 c 0,4.418279 -3.581721,8 -7.999999,8 l -2,0 L 5e-4,15 l 2.000001,-10e-7 z"
     style="fill:#000000;fill-opacity:1;stroke:none" />
  <path
     style="fill:#000000;fill-opacity:1;stroke:none"
     d="M 24.041631,26.627417 1.414214,4 0,5.414213 22.627417,28.04163 24.041631,26.627417 z"
     id="path2833" />
</svg>
