<?xml version="1.0" encoding="UTF-8" standalone="no"?>
<svg
   xmlns:dc="http://purl.org/dc/elements/1.1/"
   xmlns:cc="http://creativecommons.org/ns#"
   xmlns:rdf="http://www.w3.org/1999/02/22-rdf-syntax-ns#"
   xmlns:svg="http://www.w3.org/2000/svg"
   xmlns="http://www.w3.org/2000/svg"
   xmlns:sodipodi="http://sodipodi.sourceforge.net/DTD/sodipodi-0.dtd"
   xmlns:inkscape="http://www.inkscape.org/namespaces/inkscape"
   version="1.0"
   width="32"
   height="28"
   id="svg2"
   inkscape:version="0.47 r22583"
   sodipodi:docname="02-05-017-01-01-09.svg">
  <defs
     id="defs16">
    <inkscape:perspective
       sodipodi:type="inkscape:persp3d"
       inkscape:vp_x="0 : 23 : 1"
       inkscape:vp_y="0 : 1000 : 0"
       inkscape:vp_z="36 : 23 : 1"
       inkscape:persp3d-origin="18 : 15.333333 : 1"
       id="perspective18" />
  </defs>
  <sodipodi:namedview
     pagecolor="#ffffff"
     bordercolor="#666666"
     borderopacity="1"
     objecttolerance="10"
     gridtolerance="10"
     guidetolerance="10"
     inkscape:pageopacity="0"
     inkscape:pageshadow="2"
     inkscape:window-width="964"
     inkscape:window-height="721"
     id="namedview14"
     showgrid="true"
     inkscape:zoom="16.892857"
     inkscape:cx="16"
     inkscape:cy="14"
     inkscape:window-x="365"
     inkscape:window-y="0"
     inkscape:window-maximized="0"
     inkscape:current-layer="svg2"
     showborder="true">
    <inkscape:grid
       type="xygrid"
       id="grid2824"
       empspacing="5"
       visible="true"
       enabled="true"
       snapvisiblegridlinesonly="true" />
  </sodipodi:namedview>
  <metadata
     id="metadata4">
Valerie Sutton's pixel definition of the
ISWA 2010 symbol ID 04-01-003-01-01-01
transformed by Stephen E Slevinski Jr
using line and fill polygon tracing
<rdf:RDF>
  <cc:Work
     rdf:about="">
    <dc:format>image/svg+xml</dc:format>
    <dc:type
       rdf:resource="http://purl.org/dc/dcmitype/StillImage" />
    <dc:title></dc:title>
  </cc:Work>
</rdf:RDF>
</metadata>
  <path
     style="fill:#000000;fill-opacity:1;stroke:none"
     d="m 4.0000007,17 c 0,-7.179702 5.8202978,-13.0000004 13.0000003,-13.0000004 l 0,1 c -6.627418,0 -12.0000007,5.3725834 -12,12.0000004 l -7e-7,2 L 4,19 l 7e-7,-2 z"
     id="path2910" />
  <path
     style="fill:#000000;fill-opacity:1;stroke:none"
     d="M 5.3725832,3.9583687 28,26.585786 26.585787,28 3.9583697,5.3725826 5.3725832,3.9583687 z"
     id="path2831" />
  <path
     style="fill:#ffffff;fill-opacity:1;stroke:none"
     d="m 5.000001,17 c -7e-7,-6.627417 5.372582,-12.0000004 12,-12.0000004 L 17,8.0000006 C 12.029436,8.0000006 8.0000006,12.029437 8.0000006,17 l -7e-7,2 -2.9999996,0 7e-7,-2 z"
     id="path2918" />
  <path
     style="fill:#000000;fill-opacity:1;stroke:none"
     d="M 8.0000006,17 C 8.0000006,12.029437 12.029436,8.0000006 17,8.0000006 l 1e-6,0.999999 C 12.581722,8.9999996 9.0000002,12.581722 9.0000009,17 l -7e-7,2 -1.0000011,1e-6 L 8.0000006,17 z"
     id="path2923" />
  <path
     style="fill:#000000;fill-opacity:1;stroke:none"
     d="M 17.000001,12.000001 22.5,6.4999996 17.000001,1.0000003 l 0,11.0000007 z"
     id="path2964" />
  <path
     style="fill:#000000;fill-opacity:1;stroke:none"
     d="M 0,9.8994946 9.8994949,0 0,0 0,9.8994946 z"
     id="path2966" />
  <path
     id="path3368"
     d="m 13,26 c 0,-7.179702 5.820298,-12.999999 13,-12.999999 l 0,1 C 19.372583,14 14,19.372583 14,26 l 0,2 -1.000001,0 L 13,26 z"
     style="fill:#000000;fill-opacity:1;stroke:none" />
  <path
     id="path3370"
     d="m 14,26 c 0,-6.627417 5.372583,-12 12,-11.999999 l -1e-6,3 C 21.029436,17.000001 17,21.029437 17,26 l -1e-6,2 L 14,28 14,26 z"
     style="fill:#ffffff;fill-opacity:1;stroke:none" />
  <path
     id="path3372"
     d="m 17,26 c 0,-4.970563 4.029436,-8.999999 8.999999,-8.999999 l 1e-6,1 c -4.418279,0 -8,3.581721 -8,7.999999 l 0,2 -1.000001,1e-6 L 17,26 z"
     style="fill:#000000;fill-opacity:1;stroke:none" />
  <path
     id="path3374"
     d="M 26,21.000002 31.499999,15.500001 26,10.000001 26,21.000002 z"
     style="fill:#000000;fill-opacity:1;stroke:none" />
</svg>
