<?xml version="1.0" encoding="UTF-8" standalone="no"?>
<svg
   xmlns:dc="http://purl.org/dc/elements/1.1/"
   xmlns:cc="http://creativecommons.org/ns#"
   xmlns:rdf="http://www.w3.org/1999/02/22-rdf-syntax-ns#"
   xmlns:svg="http://www.w3.org/2000/svg"
   xmlns="http://www.w3.org/2000/svg"
   xmlns:sodipodi="http://sodipodi.sourceforge.net/DTD/sodipodi-0.dtd"
   xmlns:inkscape="http://www.inkscape.org/namespaces/inkscape"
   version="1.0"
   width="29"
   height="30"
   id="svg2"
   inkscape:version="0.47 r22583"
   sodipodi:docname="02-05-017-01-06-02.svg">
  <defs
     id="defs16">
    <inkscape:perspective
       sodipodi:type="inkscape:persp3d"
       inkscape:vp_x="0 : 23 : 1"
       inkscape:vp_y="0 : 1000 : 0"
       inkscape:vp_z="36 : 23 : 1"
       inkscape:persp3d-origin="18 : 15.333333 : 1"
       id="perspective18" />
  </defs>
  <sodipodi:namedview
     pagecolor="#ffffff"
     bordercolor="#666666"
     borderopacity="1"
     objecttolerance="10"
     gridtolerance="10"
     guidetolerance="10"
     inkscape:pageopacity="0"
     inkscape:pageshadow="2"
     inkscape:window-width="964"
     inkscape:window-height="721"
     id="namedview14"
     showgrid="true"
     inkscape:zoom="15.766667"
     inkscape:cx="14.5"
     inkscape:cy="15"
     inkscape:window-x="365"
     inkscape:window-y="0"
     inkscape:window-maximized="0"
     inkscape:current-layer="svg2"
     showborder="true">
    <inkscape:grid
       type="xygrid"
       id="grid2824"
       empspacing="5"
       visible="true"
       enabled="true"
       snapvisiblegridlinesonly="true" />
  </sodipodi:namedview>
  <metadata
     id="metadata4">
Valerie Sutton's pixel definition of the
ISWA 2010 symbol ID 04-01-003-01-01-01
transformed by Stephen E Slevinski Jr
using line and fill polygon tracing
<rdf:RDF>
  <cc:Work
     rdf:about="">
    <dc:format>image/svg+xml</dc:format>
    <dc:type
       rdf:resource="http://purl.org/dc/dcmitype/StillImage" />
    <dc:title></dc:title>
  </cc:Work>
</rdf:RDF>
</metadata>
  <path
     style="fill:#000000;fill-opacity:1;stroke:none"
     d="M 28,9.899495 28,0 l -9.899495,0 2.010835,2.010835 5.877825,0 0,5.877825 L 28,9.899495 z"
     id="path2966" />
  <path
     style="fill:#000000;fill-opacity:1;stroke:none"
     d="M 23,21 28.5,15.5 23,10 23,11.413655 27.086345,15.5 23,19.586345 23,21 z"
     id="path3018" />
  <path
     style="fill:#000000;fill-opacity:1;stroke:none"
     d="m 10.000001,5 c 0,7.179702 5.820298,12.999999 13,12.999999 l 0,-1 C 16.372584,17 11.000001,11.627417 11.000002,5 l -1e-6,-2 L 10,3 l 10e-7,2 z"
     id="path3020" />
  <path
     style="fill:#ffffff;fill-opacity:1;stroke:none"
     d="m 11.000002,5 c -1e-6,6.627417 5.372582,12 11.999999,11.999999 l -1e-6,-3 C 18.029437,13.999999 14.000001,9.970563 14.000001,5 L 14,3 l -2.999999,0 1e-6,2 z"
     id="path3025" />
  <path
     style="fill:#000000;fill-opacity:1;stroke:none"
     d="m 14.000001,5 c 0,4.970563 4.029436,8.999999 8.999999,8.999999 l 1e-6,-1 c -4.418279,0 -8,-3.581721 -8,-7.999999 l 0,-2 L 14,2.999999 14.000001,5 z"
     id="path3069" />
  <path
     id="path2882"
     d="M 14,30 19.5,24.5 14,19 14,20.413655 18.086345,24.5 14,28.586346 14,30 z"
     style="fill:#000000;fill-opacity:1;stroke:none" />
  <path
     id="path2884"
     d="m 1.000001,14 c 0,7.179702 5.820298,13 13,13 l 0,-1.000001 C 7.372584,26 2,20.627417 2.000001,14 L 2,12 l -1,0 10e-7,2 z"
     style="fill:#000000;fill-opacity:1;stroke:none" />
  <path
     id="path2886"
     d="m 2.000001,14 c -1e-6,6.627417 5.372583,12 12,11.999999 l -10e-7,-3 C 9.029437,22.999999 5.000001,18.970563 5.000001,14 L 5,12 l -3,0 1e-6,2 z"
     style="fill:#ffffff;fill-opacity:1;stroke:none" />
  <path
     style="fill:#000000;fill-opacity:1;stroke:none"
     d="M 24.041631,5.372583 1.414214,28 0,26.585787 22.627417,3.95837 24.041631,5.372583 z"
     id="path2833" />
  <path
     id="path2888"
     d="m 5.000001,14 c 0,4.970563 4.029436,8.999999 8.999999,8.999999 L 14.000001,22 C 9.581722,22 6,18.418278 6.000001,14 L 6,12 4.999999,11.999999 5.000001,14 z"
     style="fill:#000000;fill-opacity:1;stroke:none" />
</svg>
