<?xml version="1.0" encoding="UTF-8" standalone="no"?>
<svg
   xmlns:dc="http://purl.org/dc/elements/1.1/"
   xmlns:cc="http://creativecommons.org/ns#"
   xmlns:rdf="http://www.w3.org/1999/02/22-rdf-syntax-ns#"
   xmlns:svg="http://www.w3.org/2000/svg"
   xmlns="http://www.w3.org/2000/svg"
   xmlns:sodipodi="http://sodipodi.sourceforge.net/DTD/sodipodi-0.dtd"
   xmlns:inkscape="http://www.inkscape.org/namespaces/inkscape"
   version="1.0"
   width="38"
   height="19"
   id="svg2"
   inkscape:version="0.47 r22583"
   sodipodi:docname="02-05-017-01-06-07.svg">
  <defs
     id="defs16">
    <inkscape:perspective
       sodipodi:type="inkscape:persp3d"
       inkscape:vp_x="0 : 23 : 1"
       inkscape:vp_y="0 : 1000 : 0"
       inkscape:vp_z="36 : 23 : 1"
       inkscape:persp3d-origin="18 : 15.333333 : 1"
       id="perspective18" />
  </defs>
  <sodipodi:namedview
     pagecolor="#ffffff"
     bordercolor="#666666"
     borderopacity="1"
     objecttolerance="10"
     gridtolerance="10"
     guidetolerance="10"
     inkscape:pageopacity="0"
     inkscape:pageshadow="2"
     inkscape:window-width="964"
     inkscape:window-height="721"
     id="namedview14"
     showgrid="true"
     inkscape:zoom="16.057498"
     inkscape:cx="18.997212"
     inkscape:cy="9.4986062"
     inkscape:window-x="365"
     inkscape:window-y="0"
     inkscape:window-maximized="0"
     inkscape:current-layer="svg2"
     showborder="true">
    <inkscape:grid
       type="xygrid"
       id="grid2824"
       empspacing="5"
       visible="true"
       enabled="true"
       snapvisiblegridlinesonly="true" />
  </sodipodi:namedview>
  <metadata
     id="metadata4">
Valerie Sutton's pixel definition of the
ISWA 2010 symbol ID 04-01-003-01-01-01
transformed by Stephen E Slevinski Jr
using line and fill polygon tracing
<rdf:RDF>
  <cc:Work
     rdf:about="">
    <dc:format>image/svg+xml</dc:format>
    <dc:type
       rdf:resource="http://purl.org/dc/dcmitype/StillImage" />
    <dc:title />
  </cc:Work>
</rdf:RDF>
</metadata>
  <path
     style="fill:#000000;fill-opacity:1;stroke:none"
     d="M 0,9 0,11 31,11 31,9 0,9 z"
     id="path2833" />
  <path
     style="fill:#000000;fill-opacity:1;stroke:none"
     d="M 31,17 38,10 31,3 31,5.84375 35.15625,10 31,14.15625 31,17 z"
     id="path2966" />
  <path
     style="fill:#000000;fill-opacity:1;stroke:none"
     d="M 14,3 18.5,7.5 23,3 21.59375,3 18.5,6.09375 15.40625,3 14,3 z"
     id="path3018" />
  <path
     style="fill:#000000;fill-opacity:1;stroke:none"
     d="M 21.5,0 C 23.432997,0 25,1.3431458 25,3 l 0,8 c 0,4.418278 1.790861,8 4,8 l -4,0 -1,0 -4,0 c 2.209139,0 4,-3.581722 4,-8 L 24,3 C 24,1.8954305 22.880712,1 21.5,1 20.119288,1 19,1.8954305 19,3 l -1,0 c 0,-1.6568542 1.567003,-3 3.5,-3 z"
     id="path3195" />
  <path
     id="path2937"
     d="M 2,3 6.5,7.5 11,3 9.59375,3 6.5,6.09375 3.40625,3 2,3 z"
     style="fill:#000000;fill-opacity:1;stroke:none" />
  <path
     id="path2939"
     d="M 9.5,0 C 11.432997,0 13,1.3431458 13,3 l 0,8 c 0,4.418278 1.790861,8 4,8 l -4,0 -1,0 -4,0 c 2.209139,0 4,-3.581722 4,-8 L 12,3 C 12,1.8954305 10.880712,1 9.5,1 8.119288,1 7,1.8954305 7,3 L 6,3 C 6,1.3431458 7.567003,0 9.5,0 z"
     style="fill:#000000;fill-opacity:1;stroke:none" />
</svg>
