<?xml version="1.0" encoding="UTF-8" standalone="no"?>
<svg
   xmlns:dc="http://purl.org/dc/elements/1.1/"
   xmlns:cc="http://creativecommons.org/ns#"
   xmlns:rdf="http://www.w3.org/1999/02/22-rdf-syntax-ns#"
   xmlns:svg="http://www.w3.org/2000/svg"
   xmlns="http://www.w3.org/2000/svg"
   xmlns:sodipodi="http://sodipodi.sourceforge.net/DTD/sodipodi-0.dtd"
   xmlns:inkscape="http://www.inkscape.org/namespaces/inkscape"
   version="1.0"
   width="32"
   height="28"
   id="svg2"
   inkscape:version="0.47 r22583"
   sodipodi:docname="02-05-017-01-03-16.svg">
  <defs
     id="defs16">
    <inkscape:perspective
       sodipodi:type="inkscape:persp3d"
       inkscape:vp_x="0 : 23 : 1"
       inkscape:vp_y="0 : 1000 : 0"
       inkscape:vp_z="36 : 23 : 1"
       inkscape:persp3d-origin="18 : 15.333333 : 1"
       id="perspective18" />
  </defs>
  <sodipodi:namedview
     pagecolor="#ffffff"
     bordercolor="#666666"
     borderopacity="1"
     objecttolerance="10"
     gridtolerance="10"
     guidetolerance="10"
     inkscape:pageopacity="0"
     inkscape:pageshadow="2"
     inkscape:window-width="964"
     inkscape:window-height="721"
     id="namedview14"
     showgrid="true"
     inkscape:zoom="16.892857"
     inkscape:cx="16"
     inkscape:cy="14"
     inkscape:window-x="365"
     inkscape:window-y="0"
     inkscape:window-maximized="0"
     inkscape:current-layer="svg2"
     showborder="true">
    <inkscape:grid
       type="xygrid"
       id="grid2824"
       empspacing="5"
       visible="true"
       enabled="true"
       snapvisiblegridlinesonly="true" />
  </sodipodi:namedview>
  <metadata
     id="metadata4">
Valerie Sutton's pixel definition of the
ISWA 2010 symbol ID 04-01-003-01-01-01
transformed by Stephen E Slevinski Jr
using line and fill polygon tracing
<rdf:RDF>
  <cc:Work
     rdf:about="">
    <dc:format>image/svg+xml</dc:format>
    <dc:type
       rdf:resource="http://purl.org/dc/dcmitype/StillImage" />
    <dc:title></dc:title>
  </cc:Work>
</rdf:RDF>
</metadata>
  <path
     style="fill:#000000;fill-opacity:1;stroke:none"
     d="M 22.100505,0 32,0 l 0,9.8994946 -2.010835,-2.010835 0,-5.8778247 -5.877825,0 L 22.100505,0 z"
     id="path2966" />
  <path
     style="fill:#000000;fill-opacity:1;stroke:none"
     d="M 15,1 9.5,6.4999995 15,12 15,10.586345 10.913654,6.4999995 15,2.4136546 15,1 z"
     id="path3018" />
  <path
     style="fill:#000000;fill-opacity:1;stroke:none"
     d="M 28,17 C 28,9.820298 22.179702,3.9999996 14.999999,3.9999996 l 0,1 c 6.627418,0 12.000001,5.3725834 12,12.0000004 l 1e-6,2 1,0 0,-2 z"
     id="path3020" />
  <path
     style="fill:#000000;fill-opacity:1;stroke:none"
     d="M 26.627417,3.9583687 4,26.585786 5.414213,28 28.04163,5.3725826 26.627417,3.9583687 z"
     id="path2833" />
  <path
     style="fill:#ffffff;fill-opacity:1;stroke:none"
     d="M 26.999999,17 C 27,10.372583 21.627417,4.9999996 14.999999,4.9999996 L 15,8.0000006 c 4.970564,0 9,4.0294364 9,8.9999994 l 0,2 3,0 -1e-6,-2 z"
     id="path3025" />
  <path
     style="fill:#000000;fill-opacity:1;stroke:none"
     d="M 24,17 C 24,12.029437 19.970564,8.0000006 15,8.0000006 l -10e-7,0.999999 c 4.418279,0 8.000001,3.5817224 8,8.0000004 l 1e-6,2 1.000001,1e-6 L 24,17 z"
     id="path3069" />
  <path
     id="path3182"
     d="M 6,10 0.5,15.5 6,21 6,19.586346 1.913654,15.5 6,11.413655 6,10 z"
     style="fill:#000000;fill-opacity:1;stroke:none" />
  <path
     id="path3184"
     d="m 18.999999,26 c 0,-7.179702 -5.820298,-12.999999 -13,-12.999999 l 0,1 c 6.627417,-10e-7 12,5.372582 12,11.999999 l 0,2 L 19,28 l -1e-6,-2 z"
     style="fill:#000000;fill-opacity:1;stroke:none" />
  <path
     id="path3186"
     d="m 17.999999,26 c 0,-6.627417 -5.372583,-12 -12,-11.999999 l 1e-6,3 c 4.970563,0 8.999999,4.029436 8.999999,8.999999 l 10e-7,2 2.999999,0 0,-2 z"
     style="fill:#ffffff;fill-opacity:1;stroke:none" />
  <path
     id="path3188"
     d="M 14.999999,25.999499 C 14.999999,21.028936 10.970563,16.9995 6,16.9995 l -1e-6,1 c 4.418279,0 8,3.581721 8,7.999999 l 0,2 1.000001,1e-6 -10e-7,-2.000001 z"
     style="fill:#000000;fill-opacity:1;stroke:none" />
</svg>
