<?xml version="1.0" encoding="UTF-8" standalone="no"?>
<svg
   xmlns:dc="http://purl.org/dc/elements/1.1/"
   xmlns:cc="http://creativecommons.org/ns#"
   xmlns:rdf="http://www.w3.org/1999/02/22-rdf-syntax-ns#"
   xmlns:svg="http://www.w3.org/2000/svg"
   xmlns="http://www.w3.org/2000/svg"
   xmlns:sodipodi="http://sodipodi.sourceforge.net/DTD/sodipodi-0.dtd"
   xmlns:inkscape="http://www.inkscape.org/namespaces/inkscape"
   version="1.0"
   width="32"
   height="28"
   id="svg2"
   inkscape:version="0.47 r22583"
   sodipodi:docname="02-05-017-01-02-04.svg">
  <defs
     id="defs16">
    <inkscape:perspective
       sodipodi:type="inkscape:persp3d"
       inkscape:vp_x="0 : 23 : 1"
       inkscape:vp_y="0 : 1000 : 0"
       inkscape:vp_z="36 : 23 : 1"
       inkscape:persp3d-origin="18 : 15.333333 : 1"
       id="perspective18" />
  </defs>
  <sodipodi:namedview
     pagecolor="#ffffff"
     bordercolor="#666666"
     borderopacity="1"
     objecttolerance="10"
     gridtolerance="10"
     guidetolerance="10"
     inkscape:pageopacity="0"
     inkscape:pageshadow="2"
     inkscape:window-width="964"
     inkscape:window-height="721"
     id="namedview14"
     showgrid="true"
     inkscape:zoom="16.892857"
     inkscape:cx="16"
     inkscape:cy="14"
     inkscape:window-x="365"
     inkscape:window-y="0"
     inkscape:window-maximized="0"
     inkscape:current-layer="svg2"
     showborder="true">
    <inkscape:grid
       type="xygrid"
       id="grid2824"
       empspacing="5"
       visible="true"
       enabled="true"
       snapvisiblegridlinesonly="true" />
  </sodipodi:namedview>
  <metadata
     id="metadata4">
Valerie Sutton's pixel definition of the
ISWA 2010 symbol ID 04-01-003-01-01-01
transformed by Stephen E Slevinski Jr
using line and fill polygon tracing
<rdf:RDF>
  <cc:Work
     rdf:about="">
    <dc:format>image/svg+xml</dc:format>
    <dc:type
       rdf:resource="http://purl.org/dc/dcmitype/StillImage" />
    <dc:title></dc:title>
  </cc:Work>
</rdf:RDF>
</metadata>
  <path
     style="fill:#000000;fill-opacity:1;stroke:none"
     d="m 27.999999,11 c 0,7.179702 -5.820298,13 -13,13 l 0,-1 c 6.627418,0 12.000001,-5.372583 12,-12 L 27,9 l 1,0 -1e-6,2 z"
     id="path2910" />
  <path
     style="fill:#ffffff;fill-opacity:1;stroke:none"
     d="m 26.999999,11 c 1e-6,6.627417 -5.372582,12 -12,12 L 15,19.999999 c 4.970564,0 8.999999,-4.029436 8.999999,-8.999999 L 24,9 l 3,0 -1e-6,2 z"
     id="path2918" />
  <path
     style="fill:#000000;fill-opacity:1;stroke:none"
     d="m 23.999999,11 c 0,4.970563 -4.029435,8.999999 -8.999999,8.999999 L 14.999999,19 c 4.418279,0 8.000001,-3.581722 8,-8 L 23,9 24.000001,8.999999 23.999999,11 z"
     id="path2923" />
  <path
     style="fill:#000000;fill-opacity:1;stroke:none"
     d="M 15,16 15,27 9.5,21.5 15,16 z m -0.993976,2.407631 -3.09237,3.092369 3.070282,3.070281 0.02209,-6.16265 z"
     id="path2964" />
  <path
     style="fill:#000000;fill-opacity:1;stroke:none"
     d="M 22.100505,28 32,28 32,18.100505 22.100505,28 z m 2.43068,-1.016466 6.452349,-6.45235 0,6.45235 -6.452349,0 z"
     id="path2997" />
  <path
     style="fill:#ffffff;fill-opacity:1;stroke:none"
     d="m 24.531185,26.983534 6.452349,0 0,-6.45235 -6.452349,6.45235 z"
     id="path2966" />
  <path
     style="fill:#ffffff;fill-opacity:1;stroke:none"
     d="m 14.006024,18.407631 -0.02209,6.16265 L 10.913652,21.5 l 3.09237,-3.092369 z"
     id="path2863" />
  <path
     id="path3274"
     d="M 19,2 C 19,9.179702 13.179702,14.999999 6,14.999999 l 0,-1 C 12.627417,14 18,8.627417 18,2 L 18,0 19.000001,0 19,2 z"
     style="fill:#000000;fill-opacity:1;stroke:none" />
  <path
     id="path3276"
     d="M 18,2 C 18,8.627417 12.627417,14 6,13.999999 l 1e-6,-3 C 10.970564,10.999999 15,6.970563 15,2 l 10e-7,-2 L 18,0 18,2 z"
     style="fill:#ffffff;fill-opacity:1;stroke:none" />
  <path
     style="fill:#000000;fill-opacity:1;stroke:none"
     d="M 26.627417,24.041631 4,1.414214 5.414213,0 28.04163,22.627417 26.627417,24.041631 z"
     id="path2833" />
  <path
     id="path3278"
     d="M 15,2.000501 C 15,6.971064 10.970564,11.0005 6.000001,11.0005 l -1e-6,-1 c 4.418279,0 8,-3.581721 8,-7.999999 l 0,-2 L 15.000001,5e-4 15,2.000501 z"
     style="fill:#000000;fill-opacity:1;stroke:none" />
  <path
     id="path3280"
     d="M 6,7 6,18 0.5,12.5 6,7 z M 5.006024,9.40763 1.913654,12.5 4.983936,15.570281 5.006026,9.40763 z"
     style="fill:#000000;fill-opacity:1;stroke:none" />
  <path
     id="path3282"
     d="M 5.006024,9.40763 4.983934,15.570281 1.913652,12.5 5.006022,9.40763 z"
     style="fill:#ffffff;fill-opacity:1;stroke:none" />
</svg>
