<?xml version="1.0" encoding="UTF-8" standalone="no"?>
<svg
   xmlns:dc="http://purl.org/dc/elements/1.1/"
   xmlns:cc="http://creativecommons.org/ns#"
   xmlns:rdf="http://www.w3.org/1999/02/22-rdf-syntax-ns#"
   xmlns:svg="http://www.w3.org/2000/svg"
   xmlns="http://www.w3.org/2000/svg"
   xmlns:sodipodi="http://sodipodi.sourceforge.net/DTD/sodipodi-0.dtd"
   xmlns:inkscape="http://www.inkscape.org/namespaces/inkscape"
   version="1.0"
   width="29"
   height="30"
   id="svg2"
   inkscape:version="0.47 r22583"
   sodipodi:docname="02-05-017-01-05-06.svg">
  <defs
     id="defs16">
    <inkscape:perspective
       sodipodi:type="inkscape:persp3d"
       inkscape:vp_x="0 : 23 : 1"
       inkscape:vp_y="0 : 1000 : 0"
       inkscape:vp_z="36 : 23 : 1"
       inkscape:persp3d-origin="18 : 15.333333 : 1"
       id="perspective18" />
  </defs>
  <sodipodi:namedview
     pagecolor="#ffffff"
     bordercolor="#666666"
     borderopacity="1"
     objecttolerance="10"
     gridtolerance="10"
     guidetolerance="10"
     inkscape:pageopacity="0"
     inkscape:pageshadow="2"
     inkscape:window-width="964"
     inkscape:window-height="721"
     id="namedview14"
     showgrid="true"
     inkscape:zoom="15.766667"
     inkscape:cx="14.5"
     inkscape:cy="15"
     inkscape:window-x="365"
     inkscape:window-y="0"
     inkscape:window-maximized="0"
     inkscape:current-layer="svg2"
     showborder="true">
    <inkscape:grid
       type="xygrid"
       id="grid2824"
       empspacing="5"
       visible="true"
       enabled="true"
       snapvisiblegridlinesonly="true" />
  </sodipodi:namedview>
  <metadata
     id="metadata4">
Valerie Sutton's pixel definition of the
ISWA 2010 symbol ID 04-01-003-01-01-01
transformed by Stephen E Slevinski Jr
using line and fill polygon tracing
<rdf:RDF>
  <cc:Work
     rdf:about="">
    <dc:format>image/svg+xml</dc:format>
    <dc:type
       rdf:resource="http://purl.org/dc/dcmitype/StillImage" />
    <dc:title></dc:title>
  </cc:Work>
</rdf:RDF>
</metadata>
  <path
     style="fill:#000000;fill-opacity:1;stroke:none"
     d="M 19,25 C 19,17.820298 13.179702,12.000001 6,12.000001 l 0,1 C 12.627417,13 18,18.372583 17.999999,25 L 18,27 19.000001,27 19,25 z"
     id="path2910" />
  <path
     style="fill:#000000;fill-opacity:1;stroke:none"
     d="M 4.958369,24.627417 27.585786,2 29,3.414213 6.372583,26.04163 4.958369,24.627417 z"
     id="path2833" />
  <path
     style="fill:#ffffff;fill-opacity:1;stroke:none"
     d="M 17.999999,25 C 18,18.372583 12.627417,13 6,13.000001 l 1e-6,3 C 10.970564,16.000001 15,20.029437 15,25 l 10e-7,2 L 18,27 l -1e-6,-2 z"
     id="path2918" />
  <path
     style="fill:#000000;fill-opacity:1;stroke:none"
     d="m 15,25 c 0,-4.970563 -4.029436,-8.999999 -8.999999,-8.999999 l -1e-6,1 c 4.418279,0 8,3.581721 8,7.999999 l 0,2 1.000001,1e-6 L 15,25 z"
     id="path2923" />
  <path
     style="fill:#000000;fill-opacity:1;stroke:none"
     d="M 6,20 6,9 0.5,14.5 6,20 z M 5.006024,17.59237 1.913655,14.5 4.983936,11.429719 5.006026,17.59237 z"
     id="path2964" />
  <path
     style="fill:#000000;fill-opacity:1;stroke:none"
     d="M 1,20.100505 1,30 10.899495,30 1,20.100505 z m 1.016466,2.43068 6.45235,6.452349 -6.45235,0 0,-6.452349 z"
     id="path2997" />
  <path
     style="fill:#ffffff;fill-opacity:1;stroke:none"
     d="m 2.016466,22.531185 0,6.452349 6.45235,0 -6.45235,-6.452349 z"
     id="path2966" />
  <path
     style="fill:#ffffff;fill-opacity:1;stroke:none"
     d="M 5.006024,17.59237 4.983934,11.429719 1.913652,14.5 5.006021,17.59237 z"
     id="path2863" />
  <path
     id="path2995"
     d="m 27.999999,16 c 0,-7.179702 -5.820298,-13 -13,-13 l 0,1.000001 C 21.627416,4 27,9.372583 26.999999,16 l 1e-6,2 1,0 -1e-6,-2 z"
     style="fill:#000000;fill-opacity:1;stroke:none" />
  <path
     id="path2998"
     d="M 26.999999,16 C 27,9.372583 21.627416,4 14.999999,4.000001 l 10e-7,3 c 4.970563,0 8.999999,4.029436 8.999999,8.999999 l 1e-6,2 3,0 -1e-6,-2 z"
     style="fill:#ffffff;fill-opacity:1;stroke:none" />
  <path
     id="path3000"
     d="M 23.999999,16 C 23.999999,11.029437 19.970563,7.000001 15,7.000001 L 14.999999,8 c 4.418279,0 8.000001,3.581722 8,8 l 1e-6,2 1.000001,1e-6 L 23.999999,16 z"
     style="fill:#000000;fill-opacity:1;stroke:none" />
  <path
     id="path3002"
     d="M 15,11 15,0 9.5,5.5 15,11 z M 14.006025,8.59237 10.913655,5.5 13.983936,2.429718 14.006026,8.59237 z"
     style="fill:#000000;fill-opacity:1;stroke:none" />
  <path
     id="path3004"
     d="M 14.006025,8.59237 13.983935,2.429718 10.913654,5.5 l 3.09237,3.09237 z"
     style="fill:#ffffff;fill-opacity:1;stroke:none" />
</svg>
