<?xml version="1.0" encoding="UTF-8" standalone="no"?>
<svg
   xmlns:dc="http://purl.org/dc/elements/1.1/"
   xmlns:cc="http://creativecommons.org/ns#"
   xmlns:rdf="http://www.w3.org/1999/02/22-rdf-syntax-ns#"
   xmlns:svg="http://www.w3.org/2000/svg"
   xmlns="http://www.w3.org/2000/svg"
   xmlns:sodipodi="http://sodipodi.sourceforge.net/DTD/sodipodi-0.dtd"
   xmlns:inkscape="http://www.inkscape.org/namespaces/inkscape"
   version="1.0"
   width="28"
   height="32"
   id="svg2"
   inkscape:version="0.47 r22583"
   sodipodi:docname="02-05-017-01-01-14.svg">
  <defs
     id="defs16">
    <inkscape:perspective
       sodipodi:type="inkscape:persp3d"
       inkscape:vp_x="0 : 23 : 1"
       inkscape:vp_y="0 : 1000 : 0"
       inkscape:vp_z="36 : 23 : 1"
       inkscape:persp3d-origin="18 : 15.333333 : 1"
       id="perspective18" />
  </defs>
  <sodipodi:namedview
     pagecolor="#ffffff"
     bordercolor="#666666"
     borderopacity="1"
     objecttolerance="10"
     gridtolerance="10"
     guidetolerance="10"
     inkscape:pageopacity="0"
     inkscape:pageshadow="2"
     inkscape:window-width="964"
     inkscape:window-height="721"
     id="namedview14"
     showgrid="true"
     inkscape:zoom="14.78125"
     inkscape:cx="14"
     inkscape:cy="16"
     inkscape:window-x="365"
     inkscape:window-y="0"
     inkscape:window-maximized="0"
     inkscape:current-layer="svg2"
     showborder="true">
    <inkscape:grid
       type="xygrid"
       id="grid2824"
       empspacing="5"
       visible="true"
       enabled="true"
       snapvisiblegridlinesonly="true" />
  </sodipodi:namedview>
  <metadata
     id="metadata4">
Valerie Sutton's pixel definition of the
ISWA 2010 symbol ID 04-01-003-01-01-01
transformed by Stephen E Slevinski Jr
using line and fill polygon tracing
<rdf:RDF>
  <cc:Work
     rdf:about="">
    <dc:format>image/svg+xml</dc:format>
    <dc:type
       rdf:resource="http://purl.org/dc/dcmitype/StillImage" />
    <dc:title></dc:title>
  </cc:Work>
</rdf:RDF>
</metadata>
  <path
     style="fill:#000000;fill-opacity:1;stroke:none"
     d="m 11,27.999998 c 7.179702,10e-7 12.999999,-5.820297 13,-13 l -1,0 c -1e-6,6.627419 -5.372583,12.000001 -12,12 l -2,10e-7 0,1 2,-10e-7 z"
     id="path2910" />
  <path
     style="fill:#ffffff;fill-opacity:1;stroke:none"
     d="m 11,26.999998 c 6.627417,10e-7 11.999999,-5.372581 12,-12 L 19.999999,15 C 19.999998,19.970564 15.970562,23.999998 11,23.999999 l -2,0 0,3 2,-10e-7 z"
     id="path2918" />
  <path
     style="fill:#000000;fill-opacity:1;stroke:none"
     d="M 11,23.999999 C 15.970562,23.999998 19.999998,19.970564 19.999999,15 L 19,14.999998 c -1e-6,4.41828 -3.581722,8.000001 -8,8 l -2,10e-7 -2e-6,1.000002 2.000002,-2e-6 z"
     id="path2923" />
  <path
     style="fill:#000000;fill-opacity:1;stroke:none"
     d="M 15.999998,14.999999 21.499999,9.5 27,14.999998 l -11.000002,1e-6 z"
     id="path2964" />
  <path
     style="fill:#000000;fill-opacity:1;stroke:none"
     d="M 18.100504,32 28,22.100505 27.999999,32 18.100504,32 z"
     id="path2966" />
  <path
     id="path3368"
     d="m 1.999999,19 c 7.179702,0 13,-5.820298 12.999999,-13 l -1,0 c 1e-6,6.627417 -5.372581,11.999999 -11.999999,12 l -2,-1e-6 0,1.000002 2,-1e-6 z"
     style="fill:#000000;fill-opacity:1;stroke:none" />
  <path
     id="path3370"
     d="m 1.999999,18 c 6.627418,-1e-6 12,-5.372583 11.999999,-12 l -3,1e-6 C 10.999998,10.970564 6.970562,15 1.999999,15 l -2,10e-7 0,2.999998 2,1e-6 z"
     style="fill:#ffffff;fill-opacity:1;stroke:none" />
  <path
     style="fill:#000000;fill-opacity:1;stroke:none"
     d="M 24.04163,26.627416 1.414213,4 -1e-6,5.414213 22.627417,28.04163 24.04163,26.627416 z"
     id="path2831" />
  <path
     id="path3372"
     d="m 2.0005,14.999999 c 4.970564,0 9,-4.029436 9,-8.999999 l -1,-1e-6 C 10.000499,10.418279 6.418778,14 2.0005,14 l -2,0 -1e-6,1 2.000001,-10e-7 z"
     style="fill:#000000;fill-opacity:1;stroke:none" />
  <path
     id="path3374"
     d="m 6.999997,6 5.500002,-5.5 5.5,5.499999 L 6.999997,6 z"
     style="fill:#000000;fill-opacity:1;stroke:none" />
</svg>
