<?xml version="1.0" encoding="UTF-8" standalone="no"?>
<svg
   xmlns:dc="http://purl.org/dc/elements/1.1/"
   xmlns:cc="http://creativecommons.org/ns#"
   xmlns:rdf="http://www.w3.org/1999/02/22-rdf-syntax-ns#"
   xmlns:svg="http://www.w3.org/2000/svg"
   xmlns="http://www.w3.org/2000/svg"
   xmlns:sodipodi="http://sodipodi.sourceforge.net/DTD/sodipodi-0.dtd"
   xmlns:inkscape="http://www.inkscape.org/namespaces/inkscape"
   version="1.0"
   width="30"
   height="29"
   id="svg2"
   inkscape:version="0.47 r22583"
   sodipodi:docname="02-05-017-01-05-08.svg">
  <defs
     id="defs16">
    <inkscape:perspective
       sodipodi:type="inkscape:persp3d"
       inkscape:vp_x="0 : 23 : 1"
       inkscape:vp_y="0 : 1000 : 0"
       inkscape:vp_z="36 : 23 : 1"
       inkscape:persp3d-origin="18 : 15.333333 : 1"
       id="perspective18" />
  </defs>
  <sodipodi:namedview
     pagecolor="#ffffff"
     bordercolor="#666666"
     borderopacity="1"
     objecttolerance="10"
     gridtolerance="10"
     guidetolerance="10"
     inkscape:pageopacity="0"
     inkscape:pageshadow="2"
     inkscape:window-width="964"
     inkscape:window-height="721"
     id="namedview14"
     showgrid="true"
     inkscape:zoom="16.310345"
     inkscape:cx="15"
     inkscape:cy="14.5"
     inkscape:window-x="365"
     inkscape:window-y="0"
     inkscape:window-maximized="0"
     inkscape:current-layer="svg2"
     showborder="true">
    <inkscape:grid
       type="xygrid"
       id="grid2824"
       empspacing="5"
       visible="true"
       enabled="true"
       snapvisiblegridlinesonly="true" />
  </sodipodi:namedview>
  <metadata
     id="metadata4">
Valerie Sutton's pixel definition of the
ISWA 2010 symbol ID 04-01-003-01-01-01
transformed by Stephen E Slevinski Jr
using line and fill polygon tracing
<rdf:RDF>
  <cc:Work
     rdf:about="">
    <dc:format>image/svg+xml</dc:format>
    <dc:type
       rdf:resource="http://purl.org/dc/dcmitype/StillImage" />
    <dc:title></dc:title>
  </cc:Work>
</rdf:RDF>
</metadata>
  <path
     style="fill:#000000;fill-opacity:1;stroke:none"
     d="m 25,10 c -7.179702,0 -12.999999,5.820298 -12.999999,13 l 1,0 C 13,16.372583 18.372583,11 25,11.000001 L 27,11 27,9.999999 25,10 z"
     id="path2910" />
  <path
     style="fill:#000000;fill-opacity:1;stroke:none"
     d="M 24.627417,24.041631 2,1.414214 3.414213,0 26.04163,22.627417 24.627417,24.041631 z"
     id="path2833" />
  <path
     style="fill:#ffffff;fill-opacity:1;stroke:none"
     d="M 25,11.000001 C 18.372583,11 13,16.372583 13.000001,23 l 3,-1e-6 C 16.000001,18.029436 20.029437,14 25,14 l 2,-10e-7 L 27,11 l -2,10e-7 z"
     id="path2918" />
  <path
     style="fill:#000000;fill-opacity:1;stroke:none"
     d="m 25,14 c -4.970563,0 -8.999999,4.029436 -8.999999,8.999999 l 1,1e-6 c 0,-4.418279 3.581721,-8 7.999999,-8 l 2,0 1e-6,-1.000001 L 25,14 z"
     id="path2923" />
  <path
     style="fill:#000000;fill-opacity:1;stroke:none"
     d="M 20,23 9,23 14.5,28.5 20,23 z M 17.59237,23.993976 14.5,27.086345 11.429719,24.016064 17.59237,23.993973 z"
     id="path2964" />
  <path
     style="fill:#000000;fill-opacity:1;stroke:none"
     d="M 20.100505,28 30,28 30,18.100505 20.100505,28 z m 2.43068,-1.016466 6.452349,-6.45235 0,6.45235 -6.452349,0 z"
     id="path2997" />
  <path
     style="fill:#ffffff;fill-opacity:1;stroke:none"
     d="m 22.531185,26.983534 6.452349,0 0,-6.45235 -6.452349,6.45235 z"
     id="path2966" />
  <path
     style="fill:#ffffff;fill-opacity:1;stroke:none"
     d="M 17.59237,23.993976 11.429719,24.016067 14.5,27.086348 17.59237,23.993979 z"
     id="path2863" />
  <path
     id="path2995"
     d="m 16,1.000001 c -7.179702,0 -13,5.820298 -13,13 l 1.000001,0 C 4,7.372584 9.372583,2 16,2.000001 L 18,2 l 0,-1 -2,10e-7 z"
     style="fill:#000000;fill-opacity:1;stroke:none" />
  <path
     id="path2998"
     d="M 16,2.000001 C 9.372583,2 4,7.372584 4.000001,14.000001 l 3,-10e-7 C 7.000001,9.029437 11.029437,5.000001 16,5.000001 L 18,5 l 0,-3 -2,1e-6 z"
     style="fill:#ffffff;fill-opacity:1;stroke:none" />
  <path
     id="path3000"
     d="M 16,5.000001 C 11.029437,5.000001 7.000001,9.029437 7.000001,14 L 8,14.000001 C 8,9.581722 11.581722,6 16,6.000001 L 18,6 18.000001,4.999999 16,5.000001 z"
     style="fill:#000000;fill-opacity:1;stroke:none" />
  <path
     id="path3002"
     d="M 11,14 0,14 5.5,19.5 11,14 z M 8.59237,14.993975 5.5,18.086345 2.429718,15.016064 8.59237,14.993974 z"
     style="fill:#000000;fill-opacity:1;stroke:none" />
  <path
     id="path3004"
     d="M 8.59237,14.993975 2.429718,15.016065 5.5,18.086346 8.59237,14.993976 z"
     style="fill:#ffffff;fill-opacity:1;stroke:none" />
</svg>
