<?xml version="1.0" encoding="UTF-8" standalone="no"?>
<svg
   xmlns:dc="http://purl.org/dc/elements/1.1/"
   xmlns:cc="http://creativecommons.org/ns#"
   xmlns:rdf="http://www.w3.org/1999/02/22-rdf-syntax-ns#"
   xmlns:svg="http://www.w3.org/2000/svg"
   xmlns="http://www.w3.org/2000/svg"
   xmlns:sodipodi="http://sodipodi.sourceforge.net/DTD/sodipodi-0.dtd"
   xmlns:inkscape="http://www.inkscape.org/namespaces/inkscape"
   version="1.0"
   width="30"
   height="29"
   id="svg2"
   inkscape:version="0.47 r22583"
   sodipodi:docname="02-05-017-01-04-12.svg">
  <defs
     id="defs16">
    <inkscape:perspective
       sodipodi:type="inkscape:persp3d"
       inkscape:vp_x="0 : 23 : 1"
       inkscape:vp_y="0 : 1000 : 0"
       inkscape:vp_z="36 : 23 : 1"
       inkscape:persp3d-origin="18 : 15.333333 : 1"
       id="perspective18" />
  </defs>
  <sodipodi:namedview
     pagecolor="#ffffff"
     bordercolor="#666666"
     borderopacity="1"
     objecttolerance="10"
     gridtolerance="10"
     guidetolerance="10"
     inkscape:pageopacity="0"
     inkscape:pageshadow="2"
     inkscape:window-width="964"
     inkscape:window-height="721"
     id="namedview14"
     showgrid="true"
     inkscape:zoom="16.310345"
     inkscape:cx="15"
     inkscape:cy="14.5"
     inkscape:window-x="365"
     inkscape:window-y="0"
     inkscape:window-maximized="0"
     inkscape:current-layer="svg2"
     showborder="true">
    <inkscape:grid
       type="xygrid"
       id="grid2824"
       empspacing="5"
       visible="true"
       enabled="true"
       snapvisiblegridlinesonly="true" />
  </sodipodi:namedview>
  <metadata
     id="metadata4">
Valerie Sutton's pixel definition of the
ISWA 2010 symbol ID 04-01-003-01-01-01
transformed by Stephen E Slevinski Jr
using line and fill polygon tracing
<rdf:RDF>
  <cc:Work
     rdf:about="">
    <dc:format>image/svg+xml</dc:format>
    <dc:type
       rdf:resource="http://purl.org/dc/dcmitype/StillImage" />
    <dc:title></dc:title>
  </cc:Work>
</rdf:RDF>
</metadata>
  <path
     style="fill:#000000;fill-opacity:1;stroke:none"
     d="M 5.000001,10 C 12.179703,10 18,15.820298 18,23 l -1,0 c 1e-6,-6.627417 -5.372583,-12 -11.999999,-11.999999 l -2,-10e-7 0,-1.000001 2,10e-7 z"
     id="path2910" />
  <path
     style="fill:#000000;fill-opacity:1;stroke:none"
     d="M 5.372584,24.041631 28.000001,1.414214 26.585788,0 3.958371,22.627417 5.372584,24.041631 z"
     id="path2831" />
  <path
     style="fill:#ffffff;fill-opacity:1;stroke:none"
     d="M 5.000001,11.000001 C 11.627418,11 17.000001,16.372583 17,23 l -3,-1e-6 C 14,18.029436 9.970564,14 5.000001,14 l -2,-10e-7 0,-2.999999 2,10e-7 z"
     id="path2918" />
  <path
     style="fill:#000000;fill-opacity:1;stroke:none"
     d="M 5.000001,14 C 9.970564,14 14,18.029436 14,22.999999 L 13,23 C 13,18.581721 9.418279,15 5.000001,15 l -2,0 L 3,13.999999 5.000001,14 z"
     id="path2923" />
  <path
     style="fill:#000000;fill-opacity:1;stroke:none"
     d="M 9.999999,23 15.5,28.5 21,23 9.999999,23 z"
     id="path2964" />
  <path
     style="fill:#000000;fill-opacity:1;stroke:none"
     d="M 1e-6,18.100505 9.899496,28 1e-6,28 l 0,-9.899495 z"
     id="path2966" />
  <path
     id="path3090"
     d="m 14.000001,1.000001 c 7.179702,0 13,5.820298 13,13 l -1.000001,0 C 26.000001,7.372584 20.627418,2 14.000001,2.000001 l -2,-1e-6 0,-1 2,10e-7 z"
     style="fill:#000000;fill-opacity:1;stroke:none" />
  <path
     id="path3092"
     d="m 14.000001,2.000001 c 6.627417,-1e-6 12,5.372583 11.999999,12 L 23,14 C 23,9.029437 18.970564,5.000001 14.000001,5.000001 l -2,-1e-6 0,-3 2,1e-6 z"
     style="fill:#ffffff;fill-opacity:1;stroke:none" />
  <path
     id="path3094"
     d="M 14.000001,5.000001 C 18.970564,5.000001 23,9.029437 23,14 l -0.999999,10e-7 c 0,-4.418279 -3.581722,-8.000001 -8,-8 l -2,-1e-6 L 12,4.999999 l 2.000001,2e-6 z"
     style="fill:#000000;fill-opacity:1;stroke:none" />
  <path
     id="path3096"
     d="M 19,14.000001 24.500001,19.5 30,14.000001 l -11,0 z"
     style="fill:#000000;fill-opacity:1;stroke:none" />
</svg>
