<?xml version="1.0" encoding="UTF-8" standalone="no"?>
<svg
   xmlns:dc="http://purl.org/dc/elements/1.1/"
   xmlns:cc="http://creativecommons.org/ns#"
   xmlns:rdf="http://www.w3.org/1999/02/22-rdf-syntax-ns#"
   xmlns:svg="http://www.w3.org/2000/svg"
   xmlns="http://www.w3.org/2000/svg"
   xmlns:sodipodi="http://sodipodi.sourceforge.net/DTD/sodipodi-0.dtd"
   xmlns:inkscape="http://www.inkscape.org/namespaces/inkscape"
   version="1.0"
   width="32"
   height="28"
   id="svg2"
   inkscape:version="0.47 r22583"
   sodipodi:docname="02-05-017-01-02-16.svg">
  <defs
     id="defs16">
    <inkscape:perspective
       sodipodi:type="inkscape:persp3d"
       inkscape:vp_x="0 : 23 : 1"
       inkscape:vp_y="0 : 1000 : 0"
       inkscape:vp_z="36 : 23 : 1"
       inkscape:persp3d-origin="18 : 15.333333 : 1"
       id="perspective18" />
  </defs>
  <sodipodi:namedview
     pagecolor="#ffffff"
     bordercolor="#666666"
     borderopacity="1"
     objecttolerance="10"
     gridtolerance="10"
     guidetolerance="10"
     inkscape:pageopacity="0"
     inkscape:pageshadow="2"
     inkscape:window-width="964"
     inkscape:window-height="721"
     id="namedview14"
     showgrid="true"
     inkscape:zoom="16.892857"
     inkscape:cx="16"
     inkscape:cy="14"
     inkscape:window-x="365"
     inkscape:window-y="0"
     inkscape:window-maximized="0"
     inkscape:current-layer="svg2"
     showborder="true">
    <inkscape:grid
       type="xygrid"
       id="grid2824"
       empspacing="5"
       visible="true"
       enabled="true"
       snapvisiblegridlinesonly="true" />
  </sodipodi:namedview>
  <metadata
     id="metadata4">
Valerie Sutton's pixel definition of the
ISWA 2010 symbol ID 04-01-003-01-01-01
transformed by Stephen E Slevinski Jr
using line and fill polygon tracing
<rdf:RDF>
  <cc:Work
     rdf:about="">
    <dc:format>image/svg+xml</dc:format>
    <dc:type
       rdf:resource="http://purl.org/dc/dcmitype/StillImage" />
    <dc:title></dc:title>
  </cc:Work>
</rdf:RDF>
</metadata>
  <path
     style="fill:#000000;fill-opacity:1;stroke:none"
     d="m 4.0000007,11 c 0,7.179702 5.8202978,13 13.0000003,13 l 0,-1 c -6.627418,0 -12.0000007,-5.372583 -12,-12 l -7e-7,-2 L 4,9 l 7e-7,2 z"
     id="path2910" />
  <path
     style="fill:#ffffff;fill-opacity:1;stroke:none"
     d="m 5.000001,11 c -7e-7,6.627417 5.372582,12 12,12 L 17,19.999999 C 12.029436,19.999999 8.0000006,15.970563 8.0000006,11 l -7e-7,-2 -2.9999996,0 7e-7,2 z"
     id="path2918" />
  <path
     style="fill:#000000;fill-opacity:1;stroke:none"
     d="m 8.0000006,11 c 0,4.970563 4.0294354,8.999999 8.9999994,8.999999 L 17.000001,19 C 12.581722,19 9.0000002,15.418278 9.0000009,11 l -7e-7,-2 -1.0000011,-10e-7 L 8.0000006,11 z"
     id="path2923" />
  <path
     style="fill:#000000;fill-opacity:1;stroke:none"
     d="M 17,16 17,27 22.5,21.5 17,16 z m 0.993976,2.407631 3.09237,3.092369 -3.070282,3.070281 -0.02209,-6.16265 z"
     id="path2964" />
  <path
     style="fill:#000000;fill-opacity:1;stroke:none"
     d="M 9.8994949,28 0,28 0,18.100505 9.8994949,28 z m -2.4306795,-1.016466 -6.4523494,-6.45235 0,6.45235 6.4523494,0 z"
     id="path2997" />
  <path
     style="fill:#ffffff;fill-opacity:1;stroke:none"
     d="m 7.4688154,26.983534 -6.4523494,0 0,-6.45235 6.4523494,6.45235 z"
     id="path2966" />
  <path
     style="fill:#ffffff;fill-opacity:1;stroke:none"
     d="m 17.993976,18.407631 0.02209,6.16265 L 21.086348,21.5 17.993978,18.407631 z"
     id="path2863" />
  <path
     id="path3274"
     d="m 13,2 c 0,7.179702 5.820298,12.999999 13,12.999999 l 0,-1 C 19.372583,14 14,8.627417 14,2 L 14,0 12.999999,0 13,2 z"
     style="fill:#000000;fill-opacity:1;stroke:none" />
  <path
     id="path3276"
     d="m 14,2 c 0,6.627417 5.372583,12 12,11.999999 l -1e-6,-3 C 21.029436,10.999999 17,6.970563 17,2 l -1e-6,-2 L 14,0 14,2 z"
     style="fill:#ffffff;fill-opacity:1;stroke:none" />
  <path
     style="fill:#000000;fill-opacity:1;stroke:none"
     d="M 5.3725832,24.041631 28,1.414214 26.585787,0 3.9583697,22.627417 5.3725832,24.041631 z"
     id="path2833" />
  <path
     id="path3278"
     d="m 17,2.000501 c 0,4.970563 4.029436,8.999999 8.999999,8.999999 l 1e-6,-1 c -4.418279,0 -8,-3.581721 -8,-7.999999 l 0,-2 L 16.999999,5e-4 17,2.000501 z"
     style="fill:#000000;fill-opacity:1;stroke:none" />
  <path
     id="path3280"
     d="M 26,7 26,18 31.5,12.5 26,7 z m 0.993976,2.40763 3.09237,3.09237 -3.070282,3.070281 -0.02209,-6.162651 z"
     style="fill:#000000;fill-opacity:1;stroke:none" />
  <path
     id="path3282"
     d="m 26.993976,9.40763 0.02209,6.162651 L 30.086348,12.5 26.993978,9.40763 z"
     style="fill:#ffffff;fill-opacity:1;stroke:none" />
</svg>
