<?xml version="1.0" encoding="UTF-8" standalone="no"?>
<svg
   xmlns:dc="http://purl.org/dc/elements/1.1/"
   xmlns:cc="http://creativecommons.org/ns#"
   xmlns:rdf="http://www.w3.org/1999/02/22-rdf-syntax-ns#"
   xmlns:svg="http://www.w3.org/2000/svg"
   xmlns="http://www.w3.org/2000/svg"
   xmlns:sodipodi="http://sodipodi.sourceforge.net/DTD/sodipodi-0.dtd"
   xmlns:inkscape="http://www.inkscape.org/namespaces/inkscape"
   version="1.0"
   width="28"
   height="32"
   id="svg2"
   inkscape:version="0.47 r22583"
   sodipodi:docname="02-05-017-01-03-06.svg">
  <defs
     id="defs16">
    <inkscape:perspective
       sodipodi:type="inkscape:persp3d"
       inkscape:vp_x="0 : 23 : 1"
       inkscape:vp_y="0 : 1000 : 0"
       inkscape:vp_z="36 : 23 : 1"
       inkscape:persp3d-origin="18 : 15.333333 : 1"
       id="perspective18" />
  </defs>
  <sodipodi:namedview
     pagecolor="#ffffff"
     bordercolor="#666666"
     borderopacity="1"
     objecttolerance="10"
     gridtolerance="10"
     guidetolerance="10"
     inkscape:pageopacity="0"
     inkscape:pageshadow="2"
     inkscape:window-width="964"
     inkscape:window-height="721"
     id="namedview14"
     showgrid="true"
     inkscape:zoom="14.78125"
     inkscape:cx="14"
     inkscape:cy="16"
     inkscape:window-x="365"
     inkscape:window-y="0"
     inkscape:window-maximized="0"
     inkscape:current-layer="svg2"
     showborder="true">
    <inkscape:grid
       type="xygrid"
       id="grid2824"
       empspacing="5"
       visible="true"
       enabled="true"
       snapvisiblegridlinesonly="true" />
  </sodipodi:namedview>
  <metadata
     id="metadata4">
Valerie Sutton's pixel definition of the
ISWA 2010 symbol ID 04-01-003-01-01-01
transformed by Stephen E Slevinski Jr
using line and fill polygon tracing
<rdf:RDF>
  <cc:Work
     rdf:about="">
    <dc:format>image/svg+xml</dc:format>
    <dc:type
       rdf:resource="http://purl.org/dc/dcmitype/StillImage" />
    <dc:title></dc:title>
  </cc:Work>
</rdf:RDF>
</metadata>
  <path
     style="fill:#000000;fill-opacity:1;stroke:none"
     d="M 0,22.100505 0,32 9.899495,32 7.88866,29.989165 l -5.877825,0 0,-5.877825 L 0,22.100505 z"
     id="path2966" />
  <path
     style="fill:#000000;fill-opacity:1;stroke:none"
     d="M 1,15 6.5,9.5 12,15 10.586345,15 6.5,10.913654 2.413655,15 1,15 z"
     id="path3018" />
  <path
     style="fill:#000000;fill-opacity:1;stroke:none"
     d="M 17,28 C 9.820298,28 4,22.179702 4,14.999999 l 1,0 c 0,6.627418 5.372583,12.000001 12,12 l 2,1e-6 0,1 -2,0 z"
     id="path3020" />
  <path
     style="fill:#ffffff;fill-opacity:1;stroke:none"
     d="M 17,26.999999 C 10.372583,27 5,21.627417 5,14.999999 L 8.000001,15 c 0,4.970564 4.029436,9 8.999999,9 l 2,0 0,3 -2,-1e-6 z"
     id="path3025" />
  <path
     style="fill:#000000;fill-opacity:1;stroke:none"
     d="M 17,24 C 12.029437,24 8.000001,19.970564 8.000001,15 L 9,14.999999 c 0,4.418279 3.581722,8.000001 8,8 l 2,1e-6 1e-6,1.000001 L 17,24 z"
     id="path3069" />
  <path
     id="path3182"
     d="M 10,6 15.5,0.5 21,6 19.586346,6 15.5,1.913654 11.413655,6 10,6 z"
     style="fill:#000000;fill-opacity:1;stroke:none" />
  <path
     id="path3184"
     d="m 26,18.999999 c -7.179702,0 -12.999999,-5.820298 -12.999999,-13 l 1,0 c -10e-7,6.627417 5.372582,12 11.999999,12 l 2,0 L 28,19 l -2,-1e-6 z"
     style="fill:#000000;fill-opacity:1;stroke:none" />
  <path
     id="path3186"
     d="m 26,17.999999 c -6.627417,0 -12,-5.372583 -11.999999,-12 l 3,1e-6 c 0,4.970563 4.029436,8.999999 8.999999,8.999999 l 2,10e-7 0,2.999999 -2,0 z"
     style="fill:#ffffff;fill-opacity:1;stroke:none" />
  <path
     id="path3188"
     d="M 25.999499,14.999999 C 21.028936,14.999999 16.9995,10.970563 16.9995,6 l 1,-1e-6 c 0,4.418279 3.581721,8 7.999999,8 l 2,0 1e-6,1.000001 -2.000001,-10e-7 z"
     style="fill:#000000;fill-opacity:1;stroke:none" />
  <path
     style="fill:#000000;fill-opacity:1;stroke:none"
     d="M 3.958369,26.627417 26.585786,4 28,5.414213 5.372583,28.04163 3.958369,26.627417 z"
     id="path2833" />
</svg>
