<?xml version="1.0" encoding="UTF-8" standalone="no"?>
<svg
   xmlns:dc="http://purl.org/dc/elements/1.1/"
   xmlns:cc="http://creativecommons.org/ns#"
   xmlns:rdf="http://www.w3.org/1999/02/22-rdf-syntax-ns#"
   xmlns:svg="http://www.w3.org/2000/svg"
   xmlns="http://www.w3.org/2000/svg"
   xmlns:sodipodi="http://sodipodi.sourceforge.net/DTD/sodipodi-0.dtd"
   xmlns:inkscape="http://www.inkscape.org/namespaces/inkscape"
   version="1.0"
   width="32"
   height="28"
   id="svg2"
   inkscape:version="0.47 r22583"
   sodipodi:docname="02-05-017-01-03-12.svg">
  <defs
     id="defs16">
    <inkscape:perspective
       sodipodi:type="inkscape:persp3d"
       inkscape:vp_x="0 : 23 : 1"
       inkscape:vp_y="0 : 1000 : 0"
       inkscape:vp_z="36 : 23 : 1"
       inkscape:persp3d-origin="18 : 15.333333 : 1"
       id="perspective18" />
  </defs>
  <sodipodi:namedview
     pagecolor="#ffffff"
     bordercolor="#666666"
     borderopacity="1"
     objecttolerance="10"
     gridtolerance="10"
     guidetolerance="10"
     inkscape:pageopacity="0"
     inkscape:pageshadow="2"
     inkscape:window-width="964"
     inkscape:window-height="721"
     id="namedview14"
     showgrid="true"
     inkscape:zoom="16.892857"
     inkscape:cx="16"
     inkscape:cy="14"
     inkscape:window-x="365"
     inkscape:window-y="0"
     inkscape:window-maximized="0"
     inkscape:current-layer="svg2"
     showborder="true">
    <inkscape:grid
       type="xygrid"
       id="grid2824"
       empspacing="5"
       visible="true"
       enabled="true"
       snapvisiblegridlinesonly="true" />
  </sodipodi:namedview>
  <metadata
     id="metadata4">
Valerie Sutton's pixel definition of the
ISWA 2010 symbol ID 04-01-003-01-01-01
transformed by Stephen E Slevinski Jr
using line and fill polygon tracing
<rdf:RDF>
  <cc:Work
     rdf:about="">
    <dc:format>image/svg+xml</dc:format>
    <dc:type
       rdf:resource="http://purl.org/dc/dcmitype/StillImage" />
    <dc:title></dc:title>
  </cc:Work>
</rdf:RDF>
</metadata>
  <path
     style="fill:#000000;fill-opacity:1;stroke:none"
     d="M 9.899495,28 0,28 l 0,-9.899495 2.010835,2.010835 0,5.877825 5.877825,0 L 9.899495,28 z"
     id="path2966" />
  <path
     style="fill:#000000;fill-opacity:1;stroke:none"
     d="M 17,27 22.5,21.5 17,16 17,17.413655 21.086346,21.5 17,25.586345 17,27 z"
     id="path3018" />
  <path
     style="fill:#000000;fill-opacity:1;stroke:none"
     d="m 4,11 c 0,7.179702 5.820298,13 13.000001,13 l 0,-1 C 10.372583,23 5,17.627417 5.000001,11 L 5,9 4,9 4,11 z"
     id="path3020" />
  <path
     style="fill:#ffffff;fill-opacity:1;stroke:none"
     d="m 5.000001,11 c -1e-6,6.627417 5.372582,12 12,12 L 17,19.999999 C 12.029436,19.999999 8,15.970563 8,11 l 0,-2 -3,0 1e-6,2 z"
     id="path3025" />
  <path
     style="fill:#000000;fill-opacity:1;stroke:none"
     d="m 8,11 c 0,4.970563 4.029436,8.999999 9,8.999999 L 17.000001,19 C 12.581722,19 9,15.418278 9.000001,11 L 9,9 7.999999,8.999999 8,11 z"
     id="path3069" />
  <path
     id="path3182"
     d="M 26,18 31.5,12.5 26,7 26,8.413654 30.086346,12.5 26,16.586345 26,18 z"
     style="fill:#000000;fill-opacity:1;stroke:none" />
  <path
     id="path3184"
     d="m 13.000001,2 c 0,7.179702 5.820298,12.999999 13,12.999999 l 0,-1 C 19.372584,14 14.000001,8.627417 14.000001,2 l 0,-2 L 13,0 l 10e-7,2 z"
     style="fill:#000000;fill-opacity:1;stroke:none" />
  <path
     id="path3186"
     d="m 14.000001,2 c 0,6.627417 5.372583,12 12,11.999999 l -1e-6,-3 C 21.029437,10.999999 17.000001,6.970563 17.000001,2 L 17,0 l -2.999999,0 0,2 z"
     style="fill:#ffffff;fill-opacity:1;stroke:none" />
  <path
     style="fill:#000000;fill-opacity:1;stroke:none"
     d="M 5.372583,24.041631 28,1.414214 26.585787,0 3.95837,22.627417 5.372583,24.041631 z"
     id="path2833" />
  <path
     id="path3188"
     d="m 17.000001,2.000501 c 0,4.970563 4.029436,8.999999 8.999999,8.999999 l 1e-6,-1 c -4.418279,0 -8,-3.581721 -8,-7.999999 l 0,-2 L 17,5e-4 l 1e-6,2.000001 z"
     style="fill:#000000;fill-opacity:1;stroke:none" />
</svg>
