<?xml version="1.0" encoding="UTF-8" standalone="no"?>
<svg
   xmlns:dc="http://purl.org/dc/elements/1.1/"
   xmlns:cc="http://creativecommons.org/ns#"
   xmlns:rdf="http://www.w3.org/1999/02/22-rdf-syntax-ns#"
   xmlns:svg="http://www.w3.org/2000/svg"
   xmlns="http://www.w3.org/2000/svg"
   xmlns:sodipodi="http://sodipodi.sourceforge.net/DTD/sodipodi-0.dtd"
   xmlns:inkscape="http://www.inkscape.org/namespaces/inkscape"
   version="1.0"
   width="29"
   height="30"
   id="svg2"
   inkscape:version="0.47 r22583"
   sodipodi:docname="02-05-017-01-04-10.svg">
  <defs
     id="defs16">
    <inkscape:perspective
       sodipodi:type="inkscape:persp3d"
       inkscape:vp_x="0 : 23 : 1"
       inkscape:vp_y="0 : 1000 : 0"
       inkscape:vp_z="36 : 23 : 1"
       inkscape:persp3d-origin="18 : 15.333333 : 1"
       id="perspective18" />
  </defs>
  <sodipodi:namedview
     pagecolor="#ffffff"
     bordercolor="#666666"
     borderopacity="1"
     objecttolerance="10"
     gridtolerance="10"
     guidetolerance="10"
     inkscape:pageopacity="0"
     inkscape:pageshadow="2"
     inkscape:window-width="964"
     inkscape:window-height="721"
     id="namedview14"
     showgrid="true"
     inkscape:zoom="15.766667"
     inkscape:cx="14.5"
     inkscape:cy="15"
     inkscape:window-x="365"
     inkscape:window-y="0"
     inkscape:window-maximized="0"
     inkscape:current-layer="svg2"
     showborder="true">
    <inkscape:grid
       type="xygrid"
       id="grid2824"
       empspacing="5"
       visible="true"
       enabled="true"
       snapvisiblegridlinesonly="true" />
  </sodipodi:namedview>
  <metadata
     id="metadata4">
Valerie Sutton's pixel definition of the
ISWA 2010 symbol ID 04-01-003-01-01-01
transformed by Stephen E Slevinski Jr
using line and fill polygon tracing
<rdf:RDF>
  <cc:Work
     rdf:about="">
    <dc:format>image/svg+xml</dc:format>
    <dc:type
       rdf:resource="http://purl.org/dc/dcmitype/StillImage" />
    <dc:title></dc:title>
  </cc:Work>
</rdf:RDF>
</metadata>
  <path
     style="fill:#000000;fill-opacity:1;stroke:none"
     d="m 10,25 c 0,-7.179703 5.820297,-13 13,-13 l 0,1 c -6.627418,-10e-7 -12,5.372583 -12,12 L 11,27 9.999999,27 10,25 z"
     id="path2910" />
  <path
     style="fill:#000000;fill-opacity:1;stroke:none"
     d="M 24.041631,24.627417 1.414215,1.999999 0,3.414212 22.627417,26.04163 24.041631,24.627417 z"
     id="path2831" />
  <path
     style="fill:#ffffff;fill-opacity:1;stroke:none"
     d="m 11,25 c 0,-6.627418 5.372582,-12.000001 12,-12 l -1e-6,3 C 18.029436,16 14,20.029437 14,25 l -10e-7,2 L 11,27 11,25 z"
     id="path2918" />
  <path
     style="fill:#000000;fill-opacity:1;stroke:none"
     d="m 14,25 c 0,-4.970563 4.029436,-9 8.999999,-9 L 23,17 c -4.418279,0 -8,3.581722 -8,8 l 0,2 -1.000001,1e-6 L 14,25 z"
     id="path2923" />
  <path
     style="fill:#000000;fill-opacity:1;stroke:none"
     d="M 23,20.000002 28.5,14.5 23,9 23,20.000002 z"
     id="path2964" />
  <path
     style="fill:#000000;fill-opacity:1;stroke:none"
     d="M 18.100504,30 28,20.100505 28,30 18.100504,30 z"
     id="path2966" />
  <path
     id="path3090"
     d="M 1,15.999999 C 1,8.820299 6.820299,3 14,3 l 0,1.000002 C 7.372583,4 2,9.372584 2,15.999999 l 0,2 -1,0 0,-2 z"
     style="fill:#000000;fill-opacity:1;stroke:none" />
  <path
     id="path3092"
     d="M 2,15.999999 C 2,9.372583 7.372583,4 14,4 l -10e-7,3 C 9.029438,7 5,11.029438 5,15.999999 l 0,2 -3,0 0,-2 z"
     style="fill:#ffffff;fill-opacity:1;stroke:none" />
  <path
     id="path3094"
     d="M 5,15.999999 C 5,11.029438 9.029438,7 13.999999,7 L 14,7.999999 c -4.418278,0 -8,3.581722 -8,8 l 0,2 L 4.999999,18 5,15.999999 z"
     style="fill:#000000;fill-opacity:1;stroke:none" />
  <path
     id="path3096"
     d="M 14,11 19.5,5.499999 14,0 14,11 z"
     style="fill:#000000;fill-opacity:1;stroke:none" />
</svg>
