<?xml version="1.0" encoding="UTF-8" standalone="no"?>
<svg
   xmlns:dc="http://purl.org/dc/elements/1.1/"
   xmlns:cc="http://creativecommons.org/ns#"
   xmlns:rdf="http://www.w3.org/1999/02/22-rdf-syntax-ns#"
   xmlns:svg="http://www.w3.org/2000/svg"
   xmlns="http://www.w3.org/2000/svg"
   xmlns:sodipodi="http://sodipodi.sourceforge.net/DTD/sodipodi-0.dtd"
   xmlns:inkscape="http://www.inkscape.org/namespaces/inkscape"
   version="1.0"
   width="32"
   height="28"
   id="svg2"
   inkscape:version="0.47 r22583"
   sodipodi:docname="02-05-017-01-02-12.svg">
  <defs
     id="defs16">
    <inkscape:perspective
       sodipodi:type="inkscape:persp3d"
       inkscape:vp_x="0 : 23 : 1"
       inkscape:vp_y="0 : 1000 : 0"
       inkscape:vp_z="36 : 23 : 1"
       inkscape:persp3d-origin="18 : 15.333333 : 1"
       id="perspective18" />
  </defs>
  <sodipodi:namedview
     pagecolor="#ffffff"
     bordercolor="#666666"
     borderopacity="1"
     objecttolerance="10"
     gridtolerance="10"
     guidetolerance="10"
     inkscape:pageopacity="0"
     inkscape:pageshadow="2"
     inkscape:window-width="964"
     inkscape:window-height="721"
     id="namedview14"
     showgrid="true"
     inkscape:zoom="16.892857"
     inkscape:cx="16"
     inkscape:cy="14"
     inkscape:window-x="365"
     inkscape:window-y="0"
     inkscape:window-maximized="0"
     inkscape:current-layer="svg2"
     showborder="true">
    <inkscape:grid
       type="xygrid"
       id="grid2824"
       empspacing="5"
       visible="true"
       enabled="true"
       snapvisiblegridlinesonly="true" />
  </sodipodi:namedview>
  <metadata
     id="metadata4">
Valerie Sutton's pixel definition of the
ISWA 2010 symbol ID 04-01-003-01-01-01
transformed by Stephen E Slevinski Jr
using line and fill polygon tracing
<rdf:RDF>
  <cc:Work
     rdf:about="">
    <dc:format>image/svg+xml</dc:format>
    <dc:type
       rdf:resource="http://purl.org/dc/dcmitype/StillImage" />
    <dc:title></dc:title>
  </cc:Work>
</rdf:RDF>
</metadata>
  <path
     style="fill:#000000;fill-opacity:1;stroke:none"
     d="m 27.999999,17 c 0,-7.179702 -5.820298,-13 -13,-13 l 0,1 c 6.627418,0 12.000001,5.372583 12,12 l 1e-6,2 1,0 -1e-6,-2 z"
     id="path2910" />
  <path
     style="fill:#000000;fill-opacity:1;stroke:none"
     d="M 26.627417,3.958369 4,26.585786 5.414213,28 28.04163,5.372583 26.627417,3.958369 z"
     id="path2833" />
  <path
     style="fill:#ffffff;fill-opacity:1;stroke:none"
     d="M 26.999999,17 C 27,10.372583 21.627417,5 14.999999,5 L 15,8.000001 c 4.970564,0 8.999999,4.029436 8.999999,8.999999 l 1e-6,2 3,0 -1e-6,-2 z"
     id="path2918" />
  <path
     style="fill:#000000;fill-opacity:1;stroke:none"
     d="M 23.999999,17 C 23.999999,12.029437 19.970564,8.000001 15,8.000001 L 14.999999,9 c 4.418279,0 8.000001,3.581722 8,8 l 1e-6,2 1.000001,1e-6 L 23.999999,17 z"
     id="path2923" />
  <path
     style="fill:#000000;fill-opacity:1;stroke:none"
     d="M 15,12 15,1 9.5,6.5 15,12 z M 14.006024,9.592369 10.913654,6.5 l 3.070282,-3.070281 0.02209,6.16265 z"
     id="path2964" />
  <path
     style="fill:#000000;fill-opacity:1;stroke:none"
     d="M 22.100505,0 32,0 32,9.899495 22.100505,0 z m 2.43068,1.016466 6.452349,6.45235 0,-6.45235 -6.452349,0 z"
     id="path2997" />
  <path
     style="fill:#ffffff;fill-opacity:1;stroke:none"
     d="m 24.531185,1.016466 6.452349,0 0,6.45235 -6.452349,-6.45235 z"
     id="path2966" />
  <path
     style="fill:#ffffff;fill-opacity:1;stroke:none"
     d="M 14.006024,9.592369 13.983934,3.429719 10.913652,6.5 l 3.09237,3.092369 z"
     id="path2863" />
  <path
     id="path3274"
     d="M 19,26 C 19,18.820298 13.179702,13.000001 6,13.000001 l 0,1 C 12.627417,14 18,19.372583 18,26 l 0,2 1.000001,0 L 19,26 z"
     style="fill:#000000;fill-opacity:1;stroke:none" />
  <path
     id="path3276"
     d="M 18,26 C 18,19.372583 12.627417,14 6,14.000001 l 1e-6,3 C 10.970564,17.000001 15,21.029437 15,26 l 10e-7,2 L 18,28 18,26 z"
     style="fill:#ffffff;fill-opacity:1;stroke:none" />
  <path
     id="path3278"
     d="M 15,25.999499 C 15,21.028936 10.970564,16.9995 6.000001,16.9995 l -1e-6,1 c 4.418279,0 8,3.581721 8,7.999999 l 0,2 1.000001,1e-6 L 15,25.999499 z"
     style="fill:#000000;fill-opacity:1;stroke:none" />
  <path
     id="path3280"
     d="M 6,21 6,10 0.5,15.5 6,21 z M 5.006024,18.59237 1.913654,15.5 4.983936,12.429719 5.006026,18.59237 z"
     style="fill:#000000;fill-opacity:1;stroke:none" />
  <path
     id="path3282"
     d="M 5.006024,18.59237 4.983934,12.429719 1.913652,15.5 l 3.09237,3.09237 z"
     style="fill:#ffffff;fill-opacity:1;stroke:none" />
</svg>
