<?xml version="1.0" encoding="UTF-8" standalone="no"?>
<svg
   xmlns:dc="http://purl.org/dc/elements/1.1/"
   xmlns:cc="http://creativecommons.org/ns#"
   xmlns:rdf="http://www.w3.org/1999/02/22-rdf-syntax-ns#"
   xmlns:svg="http://www.w3.org/2000/svg"
   xmlns="http://www.w3.org/2000/svg"
   xmlns:sodipodi="http://sodipodi.sourceforge.net/DTD/sodipodi-0.dtd"
   xmlns:inkscape="http://www.inkscape.org/namespaces/inkscape"
   version="1.0"
   width="38"
   height="20"
   id="svg2"
   inkscape:version="0.47 r22583"
   sodipodi:docname="02-05-017-01-02-03.svg">
  <defs
     id="defs16">
    <inkscape:perspective
       sodipodi:type="inkscape:persp3d"
       inkscape:vp_x="0 : 23 : 1"
       inkscape:vp_y="0 : 1000 : 0"
       inkscape:vp_z="36 : 23 : 1"
       inkscape:persp3d-origin="18 : 15.333333 : 1"
       id="perspective18" />
  </defs>
  <sodipodi:namedview
     pagecolor="#ffffff"
     bordercolor="#666666"
     borderopacity="1"
     objecttolerance="10"
     gridtolerance="10"
     guidetolerance="10"
     inkscape:pageopacity="0"
     inkscape:pageshadow="2"
     inkscape:window-width="964"
     inkscape:window-height="721"
     id="namedview14"
     showgrid="true"
     inkscape:zoom="16.057498"
     inkscape:cx="18.997212"
     inkscape:cy="9.9985329"
     inkscape:window-x="365"
     inkscape:window-y="0"
     inkscape:window-maximized="0"
     inkscape:current-layer="svg2"
     showborder="true">
    <inkscape:grid
       type="xygrid"
       id="grid2824"
       empspacing="5"
       visible="true"
       enabled="true"
       snapvisiblegridlinesonly="true" />
  </sodipodi:namedview>
  <metadata
     id="metadata4">
Valerie Sutton's pixel definition of the
ISWA 2010 symbol ID 04-01-003-01-01-01
transformed by Stephen E Slevinski Jr
using line and fill polygon tracing
<rdf:RDF>
  <cc:Work
     rdf:about="">
    <dc:format>image/svg+xml</dc:format>
    <dc:type
       rdf:resource="http://purl.org/dc/dcmitype/StillImage" />
    <dc:title></dc:title>
  </cc:Work>
</rdf:RDF>
</metadata>
  <path
     style="fill:#000000;fill-opacity:1;stroke:none"
     d="M 31,9 31,11 0,11 0,9 31,9 z"
     id="path2833" />
  <path
     style="fill:#000000;fill-opacity:1;stroke:none"
     d="M 18,14 29,14 23.5,19.5 18,14 z m 2.407631,0.993976 3.092369,3.092369 3.070281,-3.070281 -6.16265,-0.02209 z"
     id="path2964" />
  <path
     style="fill:#000000;fill-opacity:1;stroke:none"
     d="m 31,17 7,-7 -7,-7 0,14 z M 32,14.5625 32,5.4375 36.5625,10 32,14.5625 z"
     id="path2997" />
  <path
     style="fill:#ffffff;fill-opacity:1;stroke:none"
     d="M 32,14.5625 36.5625,10 32,5.4375 l 0,9.125 z"
     id="path2966" />
  <path
     style="fill:#ffffff;fill-opacity:1;stroke:none"
     d="m 20.407631,14.993976 6.16265,0.02209 L 23.5,18.086347 20.407631,14.993978 z"
     id="path2863" />
  <path
     style="fill:#000000;fill-opacity:1;stroke:none"
     d="m 21,0 c 1.656854,0 3,1.3431458 3,3 l 0,8 c 0,2.209139 1.790861,4 4,4 l -9,0 c 2.209139,0 4,-1.790861 4,-4 L 23,3 C 23,1.8954305 22.104569,1 21,1 19.895431,1 19,1.8954305 19,3 l 0,4 -1,0 0,-4 c 0,-1.6568542 1.343146,-3 3,-3 z"
     id="path2928" />
  <path
     id="path3382"
     d="M 6,14 17,14 11.5,19.5 6,14 z m 2.407631,0.993976 3.092369,3.092369 3.070281,-3.070281 -6.16265,-0.02209 z"
     style="fill:#000000;fill-opacity:1;stroke:none" />
  <path
     id="path3384"
     d="m 8.407631,14.993976 6.16265,0.02209 L 11.5,18.086347 8.407631,14.993978 z"
     style="fill:#ffffff;fill-opacity:1;stroke:none" />
  <path
     id="path3386"
     d="m 9,0 c 1.656854,0 3,1.3431458 3,3 l 0,8 c 0,2.209139 1.790861,4 4,4 l -9,0 c 2.209139,0 4,-1.790861 4,-4 L 11,3 C 11,1.8954305 10.104569,1 9,1 7.895431,1 7,1.8954305 7,3 L 7,7 6,7 6,3 C 6,1.3431458 7.343146,0 9,0 z"
     style="fill:#000000;fill-opacity:1;stroke:none" />
</svg>
