<?xml version="1.0" encoding="UTF-8" standalone="no"?>
<svg
   xmlns:dc="http://purl.org/dc/elements/1.1/"
   xmlns:cc="http://creativecommons.org/ns#"
   xmlns:rdf="http://www.w3.org/1999/02/22-rdf-syntax-ns#"
   xmlns:svg="http://www.w3.org/2000/svg"
   xmlns="http://www.w3.org/2000/svg"
   xmlns:sodipodi="http://sodipodi.sourceforge.net/DTD/sodipodi-0.dtd"
   xmlns:inkscape="http://www.inkscape.org/namespaces/inkscape"
   version="1.0"
   width="28"
   height="32"
   id="svg2"
   inkscape:version="0.47 r22583"
   sodipodi:docname="02-05-017-01-03-04.svg">
  <defs
     id="defs16">
    <inkscape:perspective
       sodipodi:type="inkscape:persp3d"
       inkscape:vp_x="0 : 23 : 1"
       inkscape:vp_y="0 : 1000 : 0"
       inkscape:vp_z="36 : 23 : 1"
       inkscape:persp3d-origin="18 : 15.333333 : 1"
       id="perspective18" />
  </defs>
  <sodipodi:namedview
     pagecolor="#ffffff"
     bordercolor="#666666"
     borderopacity="1"
     objecttolerance="10"
     gridtolerance="10"
     guidetolerance="10"
     inkscape:pageopacity="0"
     inkscape:pageshadow="2"
     inkscape:window-width="964"
     inkscape:window-height="721"
     id="namedview14"
     showgrid="true"
     inkscape:zoom="14.78125"
     inkscape:cx="14"
     inkscape:cy="16"
     inkscape:window-x="365"
     inkscape:window-y="0"
     inkscape:window-maximized="0"
     inkscape:current-layer="svg2"
     showborder="true">
    <inkscape:grid
       type="xygrid"
       id="grid2824"
       empspacing="5"
       visible="true"
       enabled="true"
       snapvisiblegridlinesonly="true" />
  </sodipodi:namedview>
  <metadata
     id="metadata4">
Valerie Sutton's pixel definition of the
ISWA 2010 symbol ID 04-01-003-01-01-01
transformed by Stephen E Slevinski Jr
using line and fill polygon tracing
<rdf:RDF>
  <cc:Work
     rdf:about="">
    <dc:format>image/svg+xml</dc:format>
    <dc:type
       rdf:resource="http://purl.org/dc/dcmitype/StillImage" />
    <dc:title></dc:title>
  </cc:Work>
</rdf:RDF>
</metadata>
  <path
     style="fill:#000000;fill-opacity:1;stroke:none"
     d="M 0,9.899495 0,0 9.899495,0 7.88866,2.010835 l -5.877825,0 0,5.877825 L 0,9.899495 z"
     id="path2966" />
  <path
     style="fill:#000000;fill-opacity:1;stroke:none"
     d="M 1,17 6.5,22.5 12,17 10.586345,17 6.5,21.086346 2.413655,17 1,17 z"
     id="path3018" />
  <path
     style="fill:#000000;fill-opacity:1;stroke:none"
     d="M 17,4 C 9.820298,4 4,9.820298 4,17.000001 l 1,0 C 5,10.372583 10.372583,5 17,5.000001 L 19,5 19,4 17,4 z"
     id="path3020" />
  <path
     style="fill:#000000;fill-opacity:1;stroke:none"
     d="M 3.958369,5.372583 26.585786,28 28,26.585787 5.372583,3.95837 3.958369,5.372583 z"
     id="path2833" />
  <path
     style="fill:#ffffff;fill-opacity:1;stroke:none"
     d="M 17,5.000001 C 10.372583,5 5,10.372583 5,17.000001 L 8.000001,17 c 0,-4.970564 4.029436,-9 8.999999,-9 l 2,0 0,-3 -2,1e-6 z"
     id="path3025" />
  <path
     style="fill:#000000;fill-opacity:1;stroke:none"
     d="M 17,8 C 12.029437,8 8.000001,12.029436 8.000001,17 L 9,17.000001 C 9,12.581722 12.581722,9 17,9.000001 L 19,9 19.000001,7.999999 17,8 z"
     id="path3069" />
  <path
     id="path3182"
     d="M 10,26 15.5,31.5 21,26 19.586346,26 15.5,30.086346 11.413655,26 10,26 z"
     style="fill:#000000;fill-opacity:1;stroke:none" />
  <path
     id="path3184"
     d="m 26,13.000001 c -7.179702,0 -12.999999,5.820298 -12.999999,13 l 1,0 c -10e-7,-6.627417 5.372582,-12 11.999999,-12 l 2,0 L 28,13 l -2,10e-7 z"
     style="fill:#000000;fill-opacity:1;stroke:none" />
  <path
     id="path3186"
     d="m 26,14.000001 c -6.627417,0 -12,5.372583 -11.999999,12 l 3,-1e-6 c 0,-4.970563 4.029436,-8.999999 8.999999,-8.999999 l 2,-1e-6 0,-2.999999 -2,0 z"
     style="fill:#ffffff;fill-opacity:1;stroke:none" />
  <path
     id="path3188"
     d="M 25.999499,17.000001 C 21.028936,17.000001 16.9995,21.029437 16.9995,26 l 1,1e-6 c 0,-4.418279 3.581721,-8 7.999999,-8 l 2,0 1e-6,-1.000001 -2.000001,1e-6 z"
     style="fill:#000000;fill-opacity:1;stroke:none" />
</svg>
