<?xml version="1.0" encoding="UTF-8" standalone="no"?>
<svg
   xmlns:dc="http://purl.org/dc/elements/1.1/"
   xmlns:cc="http://creativecommons.org/ns#"
   xmlns:rdf="http://www.w3.org/1999/02/22-rdf-syntax-ns#"
   xmlns:svg="http://www.w3.org/2000/svg"
   xmlns="http://www.w3.org/2000/svg"
   xmlns:sodipodi="http://sodipodi.sourceforge.net/DTD/sodipodi-0.dtd"
   xmlns:inkscape="http://www.inkscape.org/namespaces/inkscape"
   version="1.0"
   width="28"
   height="32"
   id="svg2"
   inkscape:version="0.47 r22583"
   sodipodi:docname="02-05-017-01-02-02.svg">
  <defs
     id="defs16">
    <inkscape:perspective
       sodipodi:type="inkscape:persp3d"
       inkscape:vp_x="0 : 23 : 1"
       inkscape:vp_y="0 : 1000 : 0"
       inkscape:vp_z="36 : 23 : 1"
       inkscape:persp3d-origin="18 : 15.333333 : 1"
       id="perspective18" />
  </defs>
  <sodipodi:namedview
     pagecolor="#ffffff"
     bordercolor="#666666"
     borderopacity="1"
     objecttolerance="10"
     gridtolerance="10"
     guidetolerance="10"
     inkscape:pageopacity="0"
     inkscape:pageshadow="2"
     inkscape:window-width="964"
     inkscape:window-height="721"
     id="namedview14"
     showgrid="true"
     inkscape:zoom="14.78125"
     inkscape:cx="14"
     inkscape:cy="16"
     inkscape:window-x="365"
     inkscape:window-y="0"
     inkscape:window-maximized="0"
     inkscape:current-layer="svg2"
     showborder="true">
    <inkscape:grid
       type="xygrid"
       id="grid2824"
       empspacing="5"
       visible="true"
       enabled="true"
       snapvisiblegridlinesonly="true" />
  </sodipodi:namedview>
  <metadata
     id="metadata4">
Valerie Sutton's pixel definition of the
ISWA 2010 symbol ID 04-01-003-01-01-01
transformed by Stephen E Slevinski Jr
using line and fill polygon tracing
<rdf:RDF>
  <cc:Work
     rdf:about="">
    <dc:format>image/svg+xml</dc:format>
    <dc:type
       rdf:resource="http://purl.org/dc/dcmitype/StillImage" />
    <dc:title></dc:title>
  </cc:Work>
</rdf:RDF>
</metadata>
  <path
     style="fill:#000000;fill-opacity:1;stroke:none"
     d="m 11,4.000001 c 7.179702,0 13,5.820298 13,13 l -1,0 C 23,10.372583 17.627417,5 11,5.000001 L 9,5 9,4 l 2,1e-6 z"
     id="path2910" />
  <path
     style="fill:#000000;fill-opacity:1;stroke:none"
     d="M 24.041631,5.372583 1.414214,28 0,26.585787 22.627417,3.95837 24.041631,5.372583 z"
     id="path2833" />
  <path
     style="fill:#ffffff;fill-opacity:1;stroke:none"
     d="m 11,5.000001 c 6.627417,-1e-6 12,5.372582 12,12 L 19.999999,17 C 19.999999,12.029436 15.970563,8.000001 11,8.000001 L 9,8 9,5 l 2,1e-6 z"
     id="path2918" />
  <path
     style="fill:#000000;fill-opacity:1;stroke:none"
     d="m 11,8.000001 c 4.970563,0 8.999999,4.029435 8.999999,8.999999 L 19,17.000001 C 19,12.581722 15.418278,9 11,9.000001 L 9,9 8.999999,7.999999 11,8.000001 z"
     id="path2923" />
  <path
     style="fill:#000000;fill-opacity:1;stroke:none"
     d="M 16,17 27,17 21.5,22.5 16,17 z m 2.407631,0.993976 3.092369,3.09237 3.070281,-3.070282 -6.16265,-0.02209 z"
     id="path2964" />
  <path
     style="fill:#000000;fill-opacity:1;stroke:none"
     d="M 28,9.899495 28,0 18.100505,0 28,9.899495 z m -1.016466,-2.43068 -6.45235,-6.452349 6.45235,0 0,6.452349 z"
     id="path2997" />
  <path
     style="fill:#ffffff;fill-opacity:1;stroke:none"
     d="m 26.983534,7.468815 0,-6.452349 -6.45235,0 6.45235,6.452349 z"
     id="path2966" />
  <path
     style="fill:#ffffff;fill-opacity:1;stroke:none"
     d="m 18.407631,17.993976 6.16265,0.02209 L 21.5,21.086348 18.407631,17.993978 z"
     id="path2863" />
  <path
     id="path3274"
     d="m 2,13 c 7.179702,0 12.999999,5.820298 12.999999,13 l -1,0 C 14,19.372583 8.627417,14 2,14 L 0,14 0,12.999999 2,13 z"
     style="fill:#000000;fill-opacity:1;stroke:none" />
  <path
     id="path3276"
     d="m 2,14 c 6.627417,0 12,5.372583 11.999999,12 l -3,-1e-6 C 10.999999,21.029436 6.970563,17 2,17 l -2,-1e-6 L 0,14 2,14 z"
     style="fill:#ffffff;fill-opacity:1;stroke:none" />
  <path
     id="path3278"
     d="m 2.000501,17 c 4.970563,0 8.999999,4.029436 8.999999,8.999999 l -1,1e-6 c 0,-4.418279 -3.581721,-8 -7.999999,-8 l -2,0 L 5e-4,16.999999 2.000501,17 z"
     style="fill:#000000;fill-opacity:1;stroke:none" />
  <path
     id="path3280"
     d="M 7,26 18,26 12.5,31.5 7,26 z m 2.40763,0.993976 3.09237,3.09237 3.070281,-3.070282 -6.162651,-0.02209 z"
     style="fill:#000000;fill-opacity:1;stroke:none" />
  <path
     id="path3282"
     d="m 9.40763,26.993976 6.162651,0.02209 L 12.5,30.086348 9.40763,26.993978 z"
     style="fill:#ffffff;fill-opacity:1;stroke:none" />
</svg>
