<?xml version="1.0" encoding="UTF-8" standalone="no"?>
<svg
   xmlns:dc="http://purl.org/dc/elements/1.1/"
   xmlns:cc="http://creativecommons.org/ns#"
   xmlns:rdf="http://www.w3.org/1999/02/22-rdf-syntax-ns#"
   xmlns:svg="http://www.w3.org/2000/svg"
   xmlns="http://www.w3.org/2000/svg"
   xmlns:sodipodi="http://sodipodi.sourceforge.net/DTD/sodipodi-0.dtd"
   xmlns:inkscape="http://www.inkscape.org/namespaces/inkscape"
   version="1.0"
   width="30"
   height="29"
   id="svg2"
   inkscape:version="0.47 r22583"
   sodipodi:docname="02-05-017-01-06-16.svg">
  <defs
     id="defs16">
    <inkscape:perspective
       sodipodi:type="inkscape:persp3d"
       inkscape:vp_x="0 : 23 : 1"
       inkscape:vp_y="0 : 1000 : 0"
       inkscape:vp_z="36 : 23 : 1"
       inkscape:persp3d-origin="18 : 15.333333 : 1"
       id="perspective18" />
  </defs>
  <sodipodi:namedview
     pagecolor="#ffffff"
     bordercolor="#666666"
     borderopacity="1"
     objecttolerance="10"
     gridtolerance="10"
     guidetolerance="10"
     inkscape:pageopacity="0"
     inkscape:pageshadow="2"
     inkscape:window-width="964"
     inkscape:window-height="721"
     id="namedview14"
     showgrid="true"
     inkscape:zoom="16.310345"
     inkscape:cx="15"
     inkscape:cy="14.5"
     inkscape:window-x="365"
     inkscape:window-y="0"
     inkscape:window-maximized="0"
     inkscape:current-layer="svg2"
     showborder="true">
    <inkscape:grid
       type="xygrid"
       id="grid2824"
       empspacing="5"
       visible="true"
       enabled="true"
       snapvisiblegridlinesonly="true" />
  </sodipodi:namedview>
  <metadata
     id="metadata4">
Valerie Sutton's pixel definition of the
ISWA 2010 symbol ID 04-01-003-01-01-01
transformed by Stephen E Slevinski Jr
using line and fill polygon tracing
<rdf:RDF>
  <cc:Work
     rdf:about="">
    <dc:format>image/svg+xml</dc:format>
    <dc:type
       rdf:resource="http://purl.org/dc/dcmitype/StillImage" />
    <dc:title></dc:title>
  </cc:Work>
</rdf:RDF>
</metadata>
  <path
     style="fill:#000000;fill-opacity:1;stroke:none"
     d="M 20.100505,1 30,1 l 0,9.899495 -2.010835,-2.0108354 0,-5.8778247 -5.877825,0 L 20.100505,1 z"
     id="path2966" />
  <path
     style="fill:#000000;fill-opacity:1;stroke:none"
     d="M 9,6 14.5,0.5 20,6 18.586345,6 14.5,1.9136547 10.413655,6 9,6 z"
     id="path3018" />
  <path
     style="fill:#000000;fill-opacity:1;stroke:none"
     d="m 25,18.999999 c -7.179702,0 -12.999999,-5.820298 -12.999999,-13.0000004 l 1,0 C 13,12.627416 18.372583,17.999999 25,17.999998 l 2,10e-7 L 27,19 l -2,-1e-6 z"
     id="path3020" />
  <path
     style="fill:#ffffff;fill-opacity:1;stroke:none"
     d="m 25,17.999998 c -6.627417,10e-7 -12,-5.372582 -11.999999,-11.9999994 l 3,1e-6 c 0,4.9705634 4.029436,8.9999994 8.999999,8.9999994 l 2,10e-7 0,2.999999 -2,-10e-7 z"
     id="path3025" />
  <path
     style="fill:#000000;fill-opacity:1;stroke:none"
     d="m 25,14.999999 c -4.970563,0 -8.999999,-4.029436 -8.999999,-8.9999994 l 1,-1e-6 c 0,4.4182794 3.581721,8.0000004 7.999999,8.0000004 l 2,0 L 27.000001,15 25,14.999999 z"
     id="path3069" />
  <path
     id="path2882"
     d="M 0,15 5.5,9.5 11,15 9.586345,15 5.5,10.913655 1.413654,15 0,15 z"
     style="fill:#000000;fill-opacity:1;stroke:none" />
  <path
     id="path2884"
     d="m 16,27.999999 c -7.179702,0 -13,-5.820298 -13,-13 l 1.000001,0 C 4,21.627416 9.372583,27 16,26.999999 l 2,1e-6 0,1 -2,-1e-6 z"
     style="fill:#000000;fill-opacity:1;stroke:none" />
  <path
     id="path2886"
     d="M 16,26.999999 C 9.372583,27 4,21.627416 4.000001,14.999999 l 3,10e-7 c 0,4.970563 4.029436,8.999999 8.999999,8.999999 l 2,1e-6 0,3 -2,-1e-6 z"
     style="fill:#ffffff;fill-opacity:1;stroke:none" />
  <path
     style="fill:#000000;fill-opacity:1;stroke:none"
     d="M 24.627417,4.9583687 2,27.585786 3.414213,29 26.04163,6.3725826 24.627417,4.9583687 z"
     id="path2833" />
  <path
     id="path2888"
     d="M 16,23.999999 C 11.029437,23.999999 7.000001,19.970563 7.000001,15 L 8,14.999999 c 0,4.418279 3.581722,8.000001 8,8 l 2,1e-6 1e-6,1.000001 L 16,23.999999 z"
     style="fill:#000000;fill-opacity:1;stroke:none" />
</svg>
