<?xml version="1.0" encoding="UTF-8" standalone="no"?>
<svg
   xmlns:dc="http://purl.org/dc/elements/1.1/"
   xmlns:cc="http://creativecommons.org/ns#"
   xmlns:rdf="http://www.w3.org/1999/02/22-rdf-syntax-ns#"
   xmlns:svg="http://www.w3.org/2000/svg"
   xmlns="http://www.w3.org/2000/svg"
   xmlns:sodipodi="http://sodipodi.sourceforge.net/DTD/sodipodi-0.dtd"
   xmlns:inkscape="http://www.inkscape.org/namespaces/inkscape"
   version="1.0"
   width="28"
   height="32"
   id="svg2"
   inkscape:version="0.47 r22583"
   sodipodi:docname="02-05-017-01-01-02.svg">
  <defs
     id="defs16">
    <inkscape:perspective
       sodipodi:type="inkscape:persp3d"
       inkscape:vp_x="0 : 23 : 1"
       inkscape:vp_y="0 : 1000 : 0"
       inkscape:vp_z="36 : 23 : 1"
       inkscape:persp3d-origin="18 : 15.333333 : 1"
       id="perspective18" />
  </defs>
  <sodipodi:namedview
     pagecolor="#ffffff"
     bordercolor="#666666"
     borderopacity="1"
     objecttolerance="10"
     gridtolerance="10"
     guidetolerance="10"
     inkscape:pageopacity="0"
     inkscape:pageshadow="2"
     inkscape:window-width="964"
     inkscape:window-height="721"
     id="namedview14"
     showgrid="true"
     inkscape:zoom="14.78125"
     inkscape:cx="14"
     inkscape:cy="16"
     inkscape:window-x="365"
     inkscape:window-y="0"
     inkscape:window-maximized="0"
     inkscape:current-layer="svg2"
     showborder="true">
    <inkscape:grid
       type="xygrid"
       id="grid2824"
       empspacing="5"
       visible="true"
       enabled="true"
       snapvisiblegridlinesonly="true" />
  </sodipodi:namedview>
  <metadata
     id="metadata4">
Valerie Sutton's pixel definition of the
ISWA 2010 symbol ID 04-01-003-01-01-01
transformed by Stephen E Slevinski Jr
using line and fill polygon tracing
<rdf:RDF>
  <cc:Work
     rdf:about="">
    <dc:format>image/svg+xml</dc:format>
    <dc:type
       rdf:resource="http://purl.org/dc/dcmitype/StillImage" />
    <dc:title></dc:title>
  </cc:Work>
</rdf:RDF>
</metadata>
  <path
     style="fill:#000000;fill-opacity:1;stroke:none"
     d="m 16.999999,27.999998 c -7.179702,10e-7 -12.999999,-5.820297 -13,-13 l 1,0 c 1e-6,6.627419 5.372583,12.000001 12,12 l 2,10e-7 0,1 -2,-10e-7 z"
     id="path2910" />
  <path
     style="fill:#ffffff;fill-opacity:1;stroke:none"
     d="m 16.999999,26.999998 c -6.627417,10e-7 -11.999999,-5.372581 -12,-12 L 8,15 c 10e-7,4.970564 4.029437,8.999998 8.999999,8.999999 l 2,0 0,3 -2,-10e-7 z"
     id="path2918" />
  <path
     style="fill:#000000;fill-opacity:1;stroke:none"
     d="M 16.999999,23.999999 C 12.029437,23.999998 8.000001,19.970564 8,15 l 0.999999,-2e-6 c 10e-7,4.41828 3.581722,8.000001 8,8 l 2,10e-7 2e-6,1.000002 -2.000002,-2e-6 z"
     id="path2923" />
  <path
     style="fill:#000000;fill-opacity:1;stroke:none"
     d="M 12.000001,14.999999 6.5,9.5 l -5.500001,5.499998 11.000002,1e-6 z"
     id="path2964" />
  <path
     style="fill:#000000;fill-opacity:1;stroke:none"
     d="M 9.899495,32 -1e-6,22.100505 0,32 9.899495,32 z"
     id="path2966" />
  <path
     id="path3368"
     d="M 26,19 C 18.820298,19 13,13.179702 13.000001,6 l 1,0 C 14,12.627417 19.372582,17.999999 26,18 l 2,-1e-6 0,1.000002 L 26,19 z"
     style="fill:#000000;fill-opacity:1;stroke:none" />
  <path
     id="path3370"
     d="m 26,18 c -6.627418,-1e-6 -12,-5.372583 -11.999999,-12 l 3,1e-6 C 17.000001,10.970564 21.029437,15 26,15 l 2,10e-7 0,2.999998 -2,1e-6 z"
     style="fill:#ffffff;fill-opacity:1;stroke:none" />
  <path
     style="fill:#000000;fill-opacity:1;stroke:none"
     d="M 3.958369,26.627416 26.585786,4 28,5.414213 5.372582,28.04163 3.958369,26.627416 z"
     id="path2831" />
  <path
     id="path3372"
     d="m 25.999499,14.999999 c -4.970564,0 -9,-4.029436 -9,-8.999999 l 1,-1e-6 c 1e-6,4.41828 3.581722,8.000001 8,8.000001 l 2,0 1e-6,1 -2.000001,-10e-7 z"
     style="fill:#000000;fill-opacity:1;stroke:none" />
  <path
     id="path3374"
     d="M 21.000002,6 15.5,0.5 9.9999996,5.999999 21.000002,6 z"
     style="fill:#000000;fill-opacity:1;stroke:none" />
</svg>
