<?xml version="1.0" encoding="UTF-8" standalone="no"?>
<svg
   xmlns:dc="http://purl.org/dc/elements/1.1/"
   xmlns:cc="http://creativecommons.org/ns#"
   xmlns:rdf="http://www.w3.org/1999/02/22-rdf-syntax-ns#"
   xmlns:svg="http://www.w3.org/2000/svg"
   xmlns="http://www.w3.org/2000/svg"
   xmlns:sodipodi="http://sodipodi.sourceforge.net/DTD/sodipodi-0.dtd"
   xmlns:inkscape="http://www.inkscape.org/namespaces/inkscape"
   version="1.0"
   width="29"
   height="30"
   id="svg2"
   inkscape:version="0.47 r22583"
   sodipodi:docname="02-05-017-01-04-06.svg">
  <defs
     id="defs16">
    <inkscape:perspective
       sodipodi:type="inkscape:persp3d"
       inkscape:vp_x="0 : 23 : 1"
       inkscape:vp_y="0 : 1000 : 0"
       inkscape:vp_z="36 : 23 : 1"
       inkscape:persp3d-origin="18 : 15.333333 : 1"
       id="perspective18" />
  </defs>
  <sodipodi:namedview
     pagecolor="#ffffff"
     bordercolor="#666666"
     borderopacity="1"
     objecttolerance="10"
     gridtolerance="10"
     guidetolerance="10"
     inkscape:pageopacity="0"
     inkscape:pageshadow="2"
     inkscape:window-width="964"
     inkscape:window-height="721"
     id="namedview14"
     showgrid="true"
     inkscape:zoom="15.766667"
     inkscape:cx="14.5"
     inkscape:cy="15"
     inkscape:window-x="365"
     inkscape:window-y="0"
     inkscape:window-maximized="0"
     inkscape:current-layer="svg2"
     showborder="true">
    <inkscape:grid
       type="xygrid"
       id="grid2824"
       empspacing="5"
       visible="true"
       enabled="true"
       snapvisiblegridlinesonly="true" />
  </sodipodi:namedview>
  <metadata
     id="metadata4">
Valerie Sutton's pixel definition of the
ISWA 2010 symbol ID 04-01-003-01-01-01
transformed by Stephen E Slevinski Jr
using line and fill polygon tracing
<rdf:RDF>
  <cc:Work
     rdf:about="">
    <dc:format>image/svg+xml</dc:format>
    <dc:type
       rdf:resource="http://purl.org/dc/dcmitype/StillImage" />
    <dc:title></dc:title>
  </cc:Work>
</rdf:RDF>
</metadata>
  <path
     style="fill:#000000;fill-opacity:1;stroke:none"
     d="M 19,25 C 19,17.820297 13.179703,12 6,12 l 0,1 c 6.627418,-10e-7 12,5.372583 12,12 l 0,2 1.000001,0 L 19,25 z"
     id="path2910" />
  <path
     style="fill:#000000;fill-opacity:1;stroke:none"
     d="M 4.958369,24.627417 27.585785,1.999999 29,3.414212 6.372583,26.04163 4.958369,24.627417 z"
     id="path2831" />
  <path
     style="fill:#ffffff;fill-opacity:1;stroke:none"
     d="M 18,25 C 18,18.372582 12.627418,12.999999 6,13 l 1e-6,3 C 10.970564,16 15,20.029437 15,25 l 10e-7,2 L 18,27 18,25 z"
     id="path2918" />
  <path
     style="fill:#000000;fill-opacity:1;stroke:none"
     d="M 15,25 C 15,20.029437 10.970564,16 6.000001,16 L 6,17 c 4.418279,0 8,3.581722 8,8 l 0,2 1.000001,1e-6 L 15,25 z"
     id="path2923" />
  <path
     style="fill:#000000;fill-opacity:1;stroke:none"
     d="M 6,20.000002 0.5,14.5 6,9 6,20.000002 z"
     id="path2964" />
  <path
     style="fill:#000000;fill-opacity:1;stroke:none"
     d="M 10.899496,30 1,20.100505 1,30 l 9.899496,0 z"
     id="path2966" />
  <path
     id="path3090"
     d="M 28,15.999999 C 28,8.820299 22.179701,3 15,3 l 0,1.000002 C 21.627417,4 27,9.372584 27,15.999999 l 0,2 1,0 0,-2 z"
     style="fill:#000000;fill-opacity:1;stroke:none" />
  <path
     id="path3092"
     d="M 27,15.999999 C 27,9.372583 21.627417,4 15,4 l 10e-7,3 C 19.970562,7 24,11.029438 24,15.999999 l 0,2 3,0 0,-2 z"
     style="fill:#ffffff;fill-opacity:1;stroke:none" />
  <path
     id="path3094"
     d="M 24,15.999999 C 24,11.029438 19.970562,7 15.000001,7 L 15,7.999999 c 4.418278,0 8,3.581722 8,8 l 0,2 L 24.000001,18 24,15.999999 z"
     style="fill:#000000;fill-opacity:1;stroke:none" />
  <path
     id="path3096"
     d="M 15,11 9.5,5.499999 15,0 15,11 z"
     style="fill:#000000;fill-opacity:1;stroke:none" />
</svg>
