<?xml version="1.0" encoding="UTF-8" standalone="no"?>
<svg
   xmlns:dc="http://purl.org/dc/elements/1.1/"
   xmlns:cc="http://creativecommons.org/ns#"
   xmlns:rdf="http://www.w3.org/1999/02/22-rdf-syntax-ns#"
   xmlns:svg="http://www.w3.org/2000/svg"
   xmlns="http://www.w3.org/2000/svg"
   xmlns:sodipodi="http://sodipodi.sourceforge.net/DTD/sodipodi-0.dtd"
   xmlns:inkscape="http://www.inkscape.org/namespaces/inkscape"
   version="1.0"
   width="28"
   height="32"
   id="svg2"
   inkscape:version="0.47 r22583"
   sodipodi:docname="02-05-017-01-01-10.svg">
  <defs
     id="defs16">
    <inkscape:perspective
       sodipodi:type="inkscape:persp3d"
       inkscape:vp_x="0 : 23 : 1"
       inkscape:vp_y="0 : 1000 : 0"
       inkscape:vp_z="36 : 23 : 1"
       inkscape:persp3d-origin="18 : 15.333333 : 1"
       id="perspective18" />
  </defs>
  <sodipodi:namedview
     pagecolor="#ffffff"
     bordercolor="#666666"
     borderopacity="1"
     objecttolerance="10"
     gridtolerance="10"
     guidetolerance="10"
     inkscape:pageopacity="0"
     inkscape:pageshadow="2"
     inkscape:window-width="964"
     inkscape:window-height="721"
     id="namedview14"
     showgrid="true"
     inkscape:zoom="14.78125"
     inkscape:cx="14"
     inkscape:cy="16"
     inkscape:window-x="365"
     inkscape:window-y="0"
     inkscape:window-maximized="0"
     inkscape:current-layer="svg2"
     showborder="true">
    <inkscape:grid
       type="xygrid"
       id="grid2824"
       empspacing="5"
       visible="true"
       enabled="true"
       snapvisiblegridlinesonly="true" />
  </sodipodi:namedview>
  <metadata
     id="metadata4">
Valerie Sutton's pixel definition of the
ISWA 2010 symbol ID 04-01-003-01-01-01
transformed by Stephen E Slevinski Jr
using line and fill polygon tracing
<rdf:RDF>
  <cc:Work
     rdf:about="">
    <dc:format>image/svg+xml</dc:format>
    <dc:type
       rdf:resource="http://purl.org/dc/dcmitype/StillImage" />
    <dc:title></dc:title>
  </cc:Work>
</rdf:RDF>
</metadata>
  <path
     style="fill:#000000;fill-opacity:1;stroke:none"
     d="M 17,4.0000015 C 9.8202984,4.0000012 4.0000014,9.8202992 4.0000004,17.000002 l 1,0 C 5.0000014,10.372583 10.372583,5.0000008 17,5.0000018 l 2,-7e-7 0,-1.0000003 -2,7e-7 z"
     id="path2910" />
  <path
     style="fill:#000000;fill-opacity:1;stroke:none"
     d="M 3.9583704,5.3725839 26.585787,28 28.000001,26.585787 5.3725834,3.9583703 3.9583704,5.3725839 z"
     id="path2831" />
  <path
     style="fill:#ffffff;fill-opacity:1;stroke:none"
     d="M 17,5.0000018 C 10.372583,5.0000008 5.0000014,10.372583 5.0000004,17.000002 L 8.0000014,17 C 8.0000024,12.029436 12.029438,8.0000018 17,8.0000013 l 2,-7e-7 0,-2.9999995 -2,7e-7 z"
     id="path2918" />
  <path
     style="fill:#000000;fill-opacity:1;stroke:none"
     d="M 17,8.0000013 C 12.029438,8.0000018 8.0000024,12.029436 8.0000014,17 l 0.999999,2e-6 C 9.0000014,12.581722 12.581722,9.0000007 17,9.0000016 l 2,-7e-7 2e-6,-1.0000017 L 17,8.0000013 z"
     id="path2923" />
  <path
     style="fill:#000000;fill-opacity:1;stroke:none"
     d="M 12.000002,17.000001 6.5000014,22.5 l -5.500001,-5.499998 11.0000016,-10e-7 z"
     id="path2964" />
  <path
     style="fill:#000000;fill-opacity:1;stroke:none"
     d="M 9.8994964,2.1e-7 4e-7,9.8994952 1.4e-6,0 9.8994964,2.1e-7 z"
     id="path2966" />
  <path
     id="path3368"
     d="m 26.000001,13 c -7.179702,0 -13,5.820298 -12.999999,13 l 1,0 c -1e-6,-6.627417 5.372581,-11.999999 11.999999,-12 l 2,10e-7 0,-1.000002 -2,10e-7 z"
     style="fill:#000000;fill-opacity:1;stroke:none" />
  <path
     id="path3370"
     d="m 26.000001,14 c -6.627418,10e-7 -12,5.372583 -11.999999,12 l 3,-1e-6 C 17.000002,21.029436 21.029438,17 26.000001,17 l 2,-1e-6 0,-2.999998 -2,-10e-7 z"
     style="fill:#ffffff;fill-opacity:1;stroke:none" />
  <path
     id="path3372"
     d="m 25.9995,17.000001 c -4.970564,0 -9,4.029436 -9,8.999999 l 1,1e-6 C 17.999501,21.581721 21.581222,18 25.9995,18 l 2,0 10e-7,-1 -2.000001,1e-6 z"
     style="fill:#000000;fill-opacity:1;stroke:none" />
  <path
     id="path3374"
     d="m 21.000003,26 -5.500002,5.5 -5.5,-5.499999 L 21.000003,26 z"
     style="fill:#000000;fill-opacity:1;stroke:none" />
</svg>
