<?xml version="1.0" encoding="UTF-8" standalone="no"?>
<svg
   xmlns:dc="http://purl.org/dc/elements/1.1/"
   xmlns:cc="http://creativecommons.org/ns#"
   xmlns:rdf="http://www.w3.org/1999/02/22-rdf-syntax-ns#"
   xmlns:svg="http://www.w3.org/2000/svg"
   xmlns="http://www.w3.org/2000/svg"
   xmlns:sodipodi="http://sodipodi.sourceforge.net/DTD/sodipodi-0.dtd"
   xmlns:inkscape="http://www.inkscape.org/namespaces/inkscape"
   version="1.0"
   width="29"
   height="30"
   id="svg2"
   inkscape:version="0.47 r22583"
   sodipodi:docname="02-05-017-01-06-02.svg">
  <defs
     id="defs16">
    <inkscape:perspective
       sodipodi:type="inkscape:persp3d"
       inkscape:vp_x="0 : 23 : 1"
       inkscape:vp_y="0 : 1000 : 0"
       inkscape:vp_z="36 : 23 : 1"
       inkscape:persp3d-origin="18 : 15.333333 : 1"
       id="perspective18" />
  </defs>
  <sodipodi:namedview
     pagecolor="#ffffff"
     bordercolor="#666666"
     borderopacity="1"
     objecttolerance="10"
     gridtolerance="10"
     guidetolerance="10"
     inkscape:pageopacity="0"
     inkscape:pageshadow="2"
     inkscape:window-width="964"
     inkscape:window-height="721"
     id="namedview14"
     showgrid="true"
     inkscape:zoom="15.766667"
     inkscape:cx="14.5"
     inkscape:cy="15"
     inkscape:window-x="365"
     inkscape:window-y="0"
     inkscape:window-maximized="0"
     inkscape:current-layer="svg2"
     showborder="true">
    <inkscape:grid
       type="xygrid"
       id="grid2824"
       empspacing="5"
       visible="true"
       enabled="true"
       snapvisiblegridlinesonly="true" />
  </sodipodi:namedview>
  <metadata
     id="metadata4">
Valerie Sutton's pixel definition of the
ISWA 2010 symbol ID 04-01-003-01-01-01
transformed by Stephen E Slevinski Jr
using line and fill polygon tracing
<rdf:RDF>
  <cc:Work
     rdf:about="">
    <dc:format>image/svg+xml</dc:format>
    <dc:type
       rdf:resource="http://purl.org/dc/dcmitype/StillImage" />
    <dc:title></dc:title>
  </cc:Work>
</rdf:RDF>
</metadata>
  <path
     style="fill:#000000;fill-opacity:1;stroke:none"
     d="M 1,9.899495 1,0 10.899495,0 8.88866,2.010835 l -5.877825,0 0,5.877825 L 1,9.899495 z"
     id="path2966" />
  <path
     style="fill:#000000;fill-opacity:1;stroke:none"
     d="M 6,21 0.5,15.5 6,10 6,11.413655 1.913655,15.5 6,19.586345 6,21 z"
     id="path3018" />
  <path
     style="fill:#000000;fill-opacity:1;stroke:none"
     d="m 18.999999,5 c 0,7.179702 -5.820298,12.999999 -13,12.999999 l 0,-1 C 12.627416,17 17.999999,11.627417 17.999998,5 l 10e-7,-2 L 19,3 l -1e-6,2 z"
     id="path3020" />
  <path
     style="fill:#ffffff;fill-opacity:1;stroke:none"
     d="m 17.999998,5 c 10e-7,6.627417 -5.372582,12 -11.999999,11.999999 l 1e-6,-3 c 4.970563,0 8.999999,-4.029436 8.999999,-8.999999 L 15,3 l 2.999999,0 -10e-7,2 z"
     id="path3025" />
  <path
     style="fill:#000000;fill-opacity:1;stroke:none"
     d="m 14.999999,5 c 0,4.970563 -4.029436,8.999999 -8.999999,8.999999 l -1e-6,-1 c 4.418279,0 8,-3.581721 8,-7.999999 l 0,-2 L 15,2.999999 14.999999,5 z"
     id="path3069" />
  <path
     id="path2882"
     d="M 15,30 9.5,24.5 15,19 15,20.413655 10.913655,24.5 15,28.586346 15,30 z"
     style="fill:#000000;fill-opacity:1;stroke:none" />
  <path
     id="path2884"
     d="m 27.999999,14 c 0,7.179702 -5.820298,13 -13,13 l 0,-1.000001 C 21.627416,26 27,20.627417 26.999999,14 l 1e-6,-2 1,0 -1e-6,2 z"
     style="fill:#000000;fill-opacity:1;stroke:none" />
  <path
     id="path2886"
     d="m 26.999999,14 c 1e-6,6.627417 -5.372583,12 -12,11.999999 l 10e-7,-3 c 4.970563,0 8.999999,-4.029436 8.999999,-8.999999 l 1e-6,-2 3,0 -1e-6,2 z"
     style="fill:#ffffff;fill-opacity:1;stroke:none" />
  <path
     style="fill:#000000;fill-opacity:1;stroke:none"
     d="M 4.958369,5.372583 27.585786,28 29,26.585787 6.372583,3.95837 4.958369,5.372583 z"
     id="path2833" />
  <path
     id="path2888"
     d="m 23.999999,14 c 0,4.970563 -4.029436,8.999999 -8.999999,8.999999 L 14.999999,22 c 4.418279,0 8.000001,-3.581722 8,-8 l 1e-6,-2 1.000001,-10e-7 -2e-6,2.000001 z"
     style="fill:#000000;fill-opacity:1;stroke:none" />
</svg>
