<?xml version="1.0" encoding="UTF-8" standalone="no"?>
<svg
   xmlns:dc="http://purl.org/dc/elements/1.1/"
   xmlns:cc="http://creativecommons.org/ns#"
   xmlns:rdf="http://www.w3.org/1999/02/22-rdf-syntax-ns#"
   xmlns:svg="http://www.w3.org/2000/svg"
   xmlns="http://www.w3.org/2000/svg"
   xmlns:sodipodi="http://sodipodi.sourceforge.net/DTD/sodipodi-0.dtd"
   xmlns:inkscape="http://www.inkscape.org/namespaces/inkscape"
   version="1.0"
   width="30"
   height="29"
   id="svg2"
   inkscape:version="0.47 r22583"
   sodipodi:docname="02-05-017-01-04-16.svg">
  <defs
     id="defs16">
    <inkscape:perspective
       sodipodi:type="inkscape:persp3d"
       inkscape:vp_x="0 : 23 : 1"
       inkscape:vp_y="0 : 1000 : 0"
       inkscape:vp_z="36 : 23 : 1"
       inkscape:persp3d-origin="18 : 15.333333 : 1"
       id="perspective18" />
  </defs>
  <sodipodi:namedview
     pagecolor="#ffffff"
     bordercolor="#666666"
     borderopacity="1"
     objecttolerance="10"
     gridtolerance="10"
     guidetolerance="10"
     inkscape:pageopacity="0"
     inkscape:pageshadow="2"
     inkscape:window-width="964"
     inkscape:window-height="721"
     id="namedview14"
     showgrid="true"
     inkscape:zoom="16.310345"
     inkscape:cx="15"
     inkscape:cy="14.5"
     inkscape:window-x="365"
     inkscape:window-y="0"
     inkscape:window-maximized="0"
     inkscape:current-layer="svg2"
     showborder="true">
    <inkscape:grid
       type="xygrid"
       id="grid2824"
       empspacing="5"
       visible="true"
       enabled="true"
       snapvisiblegridlinesonly="true" />
  </sodipodi:namedview>
  <metadata
     id="metadata4">
Valerie Sutton's pixel definition of the
ISWA 2010 symbol ID 04-01-003-01-01-01
transformed by Stephen E Slevinski Jr
using line and fill polygon tracing
<rdf:RDF>
  <cc:Work
     rdf:about="">
    <dc:format>image/svg+xml</dc:format>
    <dc:type
       rdf:resource="http://purl.org/dc/dcmitype/StillImage" />
    <dc:title></dc:title>
  </cc:Work>
</rdf:RDF>
</metadata>
  <path
     style="fill:#000000;fill-opacity:1;stroke:none"
     d="M 24.999999,19 C 17.820297,19 12,13.179702 12,5.9999996 l 1,0 C 12.999999,12.627417 18.372583,18 24.999999,17.999999 l 2,1e-6 0,1.000001 -2,-1e-6 z"
     id="path2910" />
  <path
     style="fill:#ffffff;fill-opacity:1;stroke:none"
     d="M 24.999999,17.999999 C 18.372582,18 12.999999,12.627417 13,5.9999996 l 3,1e-6 C 16,10.970564 20.029436,15 24.999999,15 l 2,10e-7 0,2.999999 -2,-1e-6 z"
     id="path2918" />
  <path
     style="fill:#000000;fill-opacity:1;stroke:none"
     d="M 24.999999,15 C 20.029436,15 16,10.970564 16,6.0000006 l 1,-1e-6 C 17,10.418279 20.581721,14 24.999999,14 l 2,0 L 27,15.000001 24.999999,15 z"
     id="path2923" />
  <path
     style="fill:#000000;fill-opacity:1;stroke:none"
     d="M 20.000001,5.9999996 14.5,0.5 9,5.9999996 l 11.000001,0 z"
     id="path2964" />
  <path
     style="fill:#000000;fill-opacity:1;stroke:none"
     d="M 29.999999,10.899495 20.100504,1 l 9.899495,0 0,9.899495 z"
     id="path2966" />
  <path
     id="path3090"
     d="m 15.999999,27.999999 c -7.179702,0 -13,-5.820298 -13,-13 l 1.000001,0 c -1e-6,6.627417 5.372582,12.000001 11.999999,12 l 2,1e-6 0,1 -2,-1e-6 z"
     style="fill:#000000;fill-opacity:1;stroke:none" />
  <path
     id="path3092"
     d="M 15.999999,26.999999 C 9.372582,27 3.999999,21.627416 4,14.999999 L 7,15 c 0,4.970563 4.029436,8.999999 8.999999,8.999999 l 2,1e-6 0,3 -2,-1e-6 z"
     style="fill:#ffffff;fill-opacity:1;stroke:none" />
  <path
     style="fill:#000000;fill-opacity:1;stroke:none"
     d="M 24.627416,4.9583687 1.999999,27.585786 3.414212,29 26.041629,6.3725826 24.627416,4.9583687 z"
     id="path2831" />
  <path
     id="path3094"
     d="M 15.999999,23.999999 C 11.029436,23.999999 7,19.970563 7,15 l 0.999999,-10e-7 c 0,4.418279 3.581722,8.000001 8,8 l 2,1e-6 1e-6,1.000001 -2.000001,-2e-6 z"
     style="fill:#000000;fill-opacity:1;stroke:none" />
  <path
     id="path3096"
     d="M 11,14.999999 5.499999,9.4999996 0,14.999999 l 11,0 z"
     style="fill:#000000;fill-opacity:1;stroke:none" />
</svg>
