<?xml version="1.0" encoding="UTF-8" standalone="no"?>
<svg
   xmlns:dc="http://purl.org/dc/elements/1.1/"
   xmlns:cc="http://creativecommons.org/ns#"
   xmlns:rdf="http://www.w3.org/1999/02/22-rdf-syntax-ns#"
   xmlns:svg="http://www.w3.org/2000/svg"
   xmlns="http://www.w3.org/2000/svg"
   xmlns:sodipodi="http://sodipodi.sourceforge.net/DTD/sodipodi-0.dtd"
   xmlns:inkscape="http://www.inkscape.org/namespaces/inkscape"
   version="1.0"
   width="30"
   height="29"
   id="svg2"
   inkscape:version="0.47 r22583"
   sodipodi:docname="02-05-017-01-06-12.svg">
  <defs
     id="defs16">
    <inkscape:perspective
       sodipodi:type="inkscape:persp3d"
       inkscape:vp_x="0 : 23 : 1"
       inkscape:vp_y="0 : 1000 : 0"
       inkscape:vp_z="36 : 23 : 1"
       inkscape:persp3d-origin="18 : 15.333333 : 1"
       id="perspective18" />
  </defs>
  <sodipodi:namedview
     pagecolor="#ffffff"
     bordercolor="#666666"
     borderopacity="1"
     objecttolerance="10"
     gridtolerance="10"
     guidetolerance="10"
     inkscape:pageopacity="0"
     inkscape:pageshadow="2"
     inkscape:window-width="964"
     inkscape:window-height="721"
     id="namedview14"
     showgrid="true"
     inkscape:zoom="16.310345"
     inkscape:cx="15"
     inkscape:cy="14.5"
     inkscape:window-x="365"
     inkscape:window-y="0"
     inkscape:window-maximized="0"
     inkscape:current-layer="svg2"
     showborder="true">
    <inkscape:grid
       type="xygrid"
       id="grid2824"
       empspacing="5"
       visible="true"
       enabled="true"
       snapvisiblegridlinesonly="true" />
  </sodipodi:namedview>
  <metadata
     id="metadata4">
Valerie Sutton's pixel definition of the
ISWA 2010 symbol ID 04-01-003-01-01-01
transformed by Stephen E Slevinski Jr
using line and fill polygon tracing
<rdf:RDF>
  <cc:Work
     rdf:about="">
    <dc:format>image/svg+xml</dc:format>
    <dc:type
       rdf:resource="http://purl.org/dc/dcmitype/StillImage" />
    <dc:title></dc:title>
  </cc:Work>
</rdf:RDF>
</metadata>
  <path
     style="fill:#000000;fill-opacity:1;stroke:none"
     d="M 9.899495,28 0,28 l 0,-9.899495 2.010835,2.010835 0,5.877825 5.877825,0 L 9.899495,28 z"
     id="path2966" />
  <path
     style="fill:#000000;fill-opacity:1;stroke:none"
     d="M 21,23 15.5,28.5 10,23 11.413655,23 15.5,27.086345 19.586345,23 21,23 z"
     id="path3018" />
  <path
     style="fill:#000000;fill-opacity:1;stroke:none"
     d="m 5,10.000001 c 7.179702,0 12.999999,5.820298 12.999999,13 l -1,0 C 17,16.372584 11.627417,11.000001 5,11.000002 l -2,-1e-6 L 3,10 l 2,10e-7 z"
     id="path3020" />
  <path
     style="fill:#000000;fill-opacity:1;stroke:none"
     d="M 5.372583,24.041631 28,1.414214 26.585787,0 3.95837,22.627417 5.372583,24.041631 z"
     id="path2833" />
  <path
     style="fill:#ffffff;fill-opacity:1;stroke:none"
     d="m 5,11.000002 c 6.627417,-1e-6 12,5.372582 11.999999,11.999999 l -3,-1e-6 C 13.999999,18.029437 9.970563,14.000001 5,14.000001 L 3,14 l 0,-2.999999 2,1e-6 z"
     id="path3025" />
  <path
     style="fill:#000000;fill-opacity:1;stroke:none"
     d="m 5,14.000001 c 4.970563,0 8.999999,4.029436 8.999999,8.999999 l -1,1e-6 c 0,-4.418279 -3.581721,-8 -7.999999,-8 l -2,0 L 2.999999,14 5,14.000001 z"
     id="path3069" />
  <path
     id="path2882"
     d="M 30,14 24.5,19.5 19,14 20.413655,14 24.5,18.086345 28.586346,14 30,14 z"
     style="fill:#000000;fill-opacity:1;stroke:none" />
  <path
     id="path2884"
     d="m 14,1.000001 c 7.179702,0 13,5.820298 13,13 l -1.000001,0 C 26,7.372584 20.627417,2 14,2.000001 L 12,2 l 0,-1 2,10e-7 z"
     style="fill:#000000;fill-opacity:1;stroke:none" />
  <path
     id="path2886"
     d="m 14,2.000001 c 6.627417,-1e-6 12,5.372583 11.999999,12 l -3,-10e-7 C 22.999999,9.029437 18.970563,5.000001 14,5.000001 L 12,5 l 0,-3 2,1e-6 z"
     style="fill:#ffffff;fill-opacity:1;stroke:none" />
  <path
     id="path2888"
     d="m 14,5.000001 c 4.970563,0 8.999999,4.029436 8.999999,8.999999 L 22,14.000001 C 22,9.581722 18.418278,6 14,6.000001 L 12,6 11.999999,4.999999 14,5.000001 z"
     style="fill:#000000;fill-opacity:1;stroke:none" />
</svg>
