<?xml version="1.0" encoding="UTF-8" standalone="no"?>
<svg
   xmlns:dc="http://purl.org/dc/elements/1.1/"
   xmlns:cc="http://creativecommons.org/ns#"
   xmlns:rdf="http://www.w3.org/1999/02/22-rdf-syntax-ns#"
   xmlns:svg="http://www.w3.org/2000/svg"
   xmlns="http://www.w3.org/2000/svg"
   xmlns:sodipodi="http://sodipodi.sourceforge.net/DTD/sodipodi-0.dtd"
   xmlns:inkscape="http://www.inkscape.org/namespaces/inkscape"
   version="1.0"
   width="38"
   height="19"
   id="svg2"
   inkscape:version="0.47 r22583"
   sodipodi:docname="02-05-017-01-05-15.svg">
  <defs
     id="defs16">
    <inkscape:perspective
       sodipodi:type="inkscape:persp3d"
       inkscape:vp_x="0 : 23 : 1"
       inkscape:vp_y="0 : 1000 : 0"
       inkscape:vp_z="36 : 23 : 1"
       inkscape:persp3d-origin="18 : 15.333333 : 1"
       id="perspective18" />
  </defs>
  <sodipodi:namedview
     pagecolor="#ffffff"
     bordercolor="#666666"
     borderopacity="1"
     objecttolerance="10"
     gridtolerance="10"
     guidetolerance="10"
     inkscape:pageopacity="0"
     inkscape:pageshadow="2"
     inkscape:window-width="964"
     inkscape:window-height="721"
     id="namedview14"
     showgrid="true"
     inkscape:zoom="16.057498"
     inkscape:cx="18.997212"
     inkscape:cy="9.4986062"
     inkscape:window-x="365"
     inkscape:window-y="0"
     inkscape:window-maximized="0"
     inkscape:current-layer="svg2"
     showborder="true">
    <inkscape:grid
       type="xygrid"
       id="grid2824"
       empspacing="5"
       visible="true"
       enabled="true"
       snapvisiblegridlinesonly="true" />
  </sodipodi:namedview>
  <metadata
     id="metadata4">
Valerie Sutton's pixel definition of the
ISWA 2010 symbol ID 04-01-003-01-01-01
transformed by Stephen E Slevinski Jr
using line and fill polygon tracing
<rdf:RDF>
  <cc:Work
     rdf:about="">
    <dc:format>image/svg+xml</dc:format>
    <dc:type
       rdf:resource="http://purl.org/dc/dcmitype/StillImage" />
    <dc:title />
  </cc:Work>
</rdf:RDF>
</metadata>
  <path
     style="fill:#000000;fill-opacity:1;stroke:none"
     d="M 38,9 38,11 7,11 7,9 38,9 z"
     id="path2833" />
  <path
     style="fill:#000000;fill-opacity:1;stroke:none"
     d="M 14,3 25,3 19.5,8.5 14,3 z M 16.40763,3.993976 19.5,7.086345 22.570281,4.016064 16.40763,3.993974 z"
     id="path2964" />
  <path
     style="fill:#000000;fill-opacity:1;stroke:none"
     d="M 7,17 0,10 7,3 7,17 z M 6,14.5625 6,5.4375 1.4375,10 6,14.5625 z"
     id="path2997" />
  <path
     style="fill:#ffffff;fill-opacity:1;stroke:none"
     d="M 6,14.5625 1.4375,10 6,5.4375 l 0,9.125 z"
     id="path2966" />
  <path
     style="fill:#ffffff;fill-opacity:1;stroke:none"
     d="M 16.40763,3.993976 22.570281,4.016066 19.5,7.086345 16.40763,3.993976 z"
     id="path2863" />
  <path
     style="fill:#000000;fill-opacity:1;stroke:none"
     d="M 16.5,0 C 14.567003,0 13,1.3431458 13,3 l 0,8 c 0,4.418278 -1.790861,8 -4,8 l 4,0 1,0 4,0 c -2.209139,0 -4,-3.581722 -4,-8 L 14,3 C 14,1.8954305 15.119288,1 16.5,1 17.880712,1 19,1.8954305 19,3 l 1,0 C 20,1.3431458 18.432997,0 16.5,0 z"
     id="path2928" />
  <path
     id="path3032"
     d="M 26,3 37,3 31.5,8.5 26,3 z M 28.40763,3.993976 31.5,7.086345 34.570281,4.016064 28.40763,3.993974 z"
     style="fill:#000000;fill-opacity:1;stroke:none" />
  <path
     id="path3034"
     d="M 28.40763,3.993976 34.570281,4.016066 31.5,7.086345 28.40763,3.993976 z"
     style="fill:#ffffff;fill-opacity:1;stroke:none" />
  <path
     id="path3036"
     d="M 28.5,0 C 26.567003,0 25,1.3431458 25,3 l 0,8 c 0,4.418278 -1.790861,8 -4,8 l 4,0 1,0 4,0 c -2.209139,0 -4,-3.581722 -4,-8 L 26,3 C 26,1.8954305 27.119288,1 28.5,1 29.880712,1 31,1.8954305 31,3 l 1,0 C 32,1.3431458 30.432997,0 28.5,0 z"
     style="fill:#000000;fill-opacity:1;stroke:none" />
</svg>
