<?xml version="1.0" encoding="UTF-8" standalone="no"?>
<svg
   xmlns:dc="http://purl.org/dc/elements/1.1/"
   xmlns:cc="http://creativecommons.org/ns#"
   xmlns:rdf="http://www.w3.org/1999/02/22-rdf-syntax-ns#"
   xmlns:svg="http://www.w3.org/2000/svg"
   xmlns="http://www.w3.org/2000/svg"
   xmlns:sodipodi="http://sodipodi.sourceforge.net/DTD/sodipodi-0.dtd"
   xmlns:inkscape="http://www.inkscape.org/namespaces/inkscape"
   version="1.0"
   width="22"
   height="39"
   id="svg2"
   inkscape:version="0.47 r22583"
   sodipodi:docname="02-05-017-01-04-13.svg">
  <defs
     id="defs16">
    <inkscape:perspective
       sodipodi:type="inkscape:persp3d"
       inkscape:vp_x="0 : 23 : 1"
       inkscape:vp_y="0 : 1000 : 0"
       inkscape:vp_z="36 : 23 : 1"
       inkscape:persp3d-origin="18 : 15.333333 : 1"
       id="perspective18" />
  </defs>
  <sodipodi:namedview
     pagecolor="#ffffff"
     bordercolor="#666666"
     borderopacity="1"
     objecttolerance="10"
     gridtolerance="10"
     guidetolerance="10"
     inkscape:pageopacity="0"
     inkscape:pageshadow="2"
     inkscape:window-width="964"
     inkscape:window-height="721"
     id="namedview14"
     showgrid="true"
     inkscape:zoom="12.128205"
     inkscape:cx="11"
     inkscape:cy="19.5"
     inkscape:window-x="365"
     inkscape:window-y="0"
     inkscape:window-maximized="0"
     inkscape:current-layer="svg2"
     showborder="true">
    <inkscape:grid
       type="xygrid"
       id="grid2824"
       empspacing="5"
       visible="true"
       enabled="true"
       snapvisiblegridlinesonly="true" />
  </sodipodi:namedview>
  <metadata
     id="metadata4">
Valerie Sutton's pixel definition of the
ISWA 2010 symbol ID 04-01-003-01-01-01
transformed by Stephen E Slevinski Jr
using line and fill polygon tracing
<rdf:RDF>
  <cc:Work
     rdf:about="">
    <dc:format>image/svg+xml</dc:format>
    <dc:type
       rdf:resource="http://purl.org/dc/dcmitype/StillImage" />
    <dc:title></dc:title>
  </cc:Work>
</rdf:RDF>
</metadata>
  <path
     style="fill:#000000;fill-opacity:1;stroke:none"
     d="m 1.493904,22.343146 c 5.076816,-5.076816 13.30796,-5.076816 18.384776,0 l -0.707107,0.707107 c -4.686291,-4.686292 -12.284271,-4.686292 -16.970562,0 L 0.786797,24.464466 0.07969,23.757359 1.493904,22.343146 z"
     id="path2910" />
  <path
     style="fill:#000000;fill-opacity:1;stroke:none"
     d="m 12,32 0,-32 -2,0 0,32 2,0 z"
     id="path2831" />
  <path
     style="fill:#ffffff;fill-opacity:1;stroke:none"
     d="m 2.201011,23.050253 c 4.686291,-4.686292 12.284271,-4.686292 16.970562,0 l -2.121321,2.12132 c -3.514719,-3.514719 -9.213202,-3.514719 -12.727921,0 l -1.414214,1.414213 -2.12132,-2.12132 1.414214,-1.414213 z"
     id="path2918" />
  <path
     style="fill:#000000;fill-opacity:1;stroke:none"
     d="m 4.322331,25.171573 c 3.514719,-3.514719 9.213202,-3.514719 12.727921,0 l -0.707106,0.707107 c -3.124195,-3.124195 -8.189514,-3.124195 -11.313708,0 L 3.615224,27.292893 2.908116,26.585786 4.322331,25.171573 z"
     id="path2923" />
  <path
     style="fill:#000000;fill-opacity:1;stroke:none"
     d="M 14.221825,28.000001 22,28 l 0,-7.778174 -7.778175,7.778175 z"
     id="path2964" />
  <path
     style="fill:#000000;fill-opacity:1;stroke:none"
     d="m 4,32 14,0 -7,7 -7,-7 z"
     id="path2966" />
  <path
     id="path3090"
     d="m 1.493904,10.343146 c 5.076816,-5.076816 13.30796,-5.076816 18.384776,0 l -0.707107,0.707107 c -4.686291,-4.686292 -12.284271,-4.686292 -16.970562,0 L 0.786797,12.464466 0.07969,11.757359 1.493904,10.343146 z"
     style="fill:#000000;fill-opacity:1;stroke:none" />
  <path
     id="path3092"
     d="m 2.201011,11.050253 c 4.686291,-4.686292 12.284271,-4.686292 16.970562,0 l -2.121321,2.12132 c -3.514719,-3.514719 -9.213202,-3.514719 -12.727921,0 l -1.414214,1.414213 -2.12132,-2.12132 1.414214,-1.414213 z"
     style="fill:#ffffff;fill-opacity:1;stroke:none" />
  <path
     id="path3094"
     d="m 4.322331,13.171573 c 3.514719,-3.514719 9.213202,-3.514719 12.727921,0 l -0.707106,0.707107 c -3.124195,-3.124195 -8.189514,-3.124195 -11.313708,0 L 3.615224,15.292893 2.908116,14.585786 4.322331,13.171573 z"
     style="fill:#000000;fill-opacity:1;stroke:none" />
  <path
     id="path3096"
     d="M 14.221825,16.000001 22,16 22,8.221826 14.221825,16.000001 z"
     style="fill:#000000;fill-opacity:1;stroke:none" />
</svg>
