<?xml version="1.0" encoding="UTF-8" standalone="no"?>
<svg
   xmlns:dc="http://purl.org/dc/elements/1.1/"
   xmlns:cc="http://creativecommons.org/ns#"
   xmlns:rdf="http://www.w3.org/1999/02/22-rdf-syntax-ns#"
   xmlns:svg="http://www.w3.org/2000/svg"
   xmlns="http://www.w3.org/2000/svg"
   xmlns:sodipodi="http://sodipodi.sourceforge.net/DTD/sodipodi-0.dtd"
   xmlns:inkscape="http://www.inkscape.org/namespaces/inkscape"
   version="1.0"
   width="29"
   height="30"
   id="svg2"
   inkscape:version="0.47 r22583"
   sodipodi:docname="02-05-017-01-05-10.svg">
  <defs
     id="defs16">
    <inkscape:perspective
       sodipodi:type="inkscape:persp3d"
       inkscape:vp_x="0 : 23 : 1"
       inkscape:vp_y="0 : 1000 : 0"
       inkscape:vp_z="36 : 23 : 1"
       inkscape:persp3d-origin="18 : 15.333333 : 1"
       id="perspective18" />
  </defs>
  <sodipodi:namedview
     pagecolor="#ffffff"
     bordercolor="#666666"
     borderopacity="1"
     objecttolerance="10"
     gridtolerance="10"
     guidetolerance="10"
     inkscape:pageopacity="0"
     inkscape:pageshadow="2"
     inkscape:window-width="964"
     inkscape:window-height="721"
     id="namedview14"
     showgrid="true"
     inkscape:zoom="15.766667"
     inkscape:cx="14.5"
     inkscape:cy="15"
     inkscape:window-x="365"
     inkscape:window-y="0"
     inkscape:window-maximized="0"
     inkscape:current-layer="svg2"
     showborder="true">
    <inkscape:grid
       type="xygrid"
       id="grid2824"
       empspacing="5"
       visible="true"
       enabled="true"
       snapvisiblegridlinesonly="true" />
  </sodipodi:namedview>
  <metadata
     id="metadata4">
Valerie Sutton's pixel definition of the
ISWA 2010 symbol ID 04-01-003-01-01-01
transformed by Stephen E Slevinski Jr
using line and fill polygon tracing
<rdf:RDF>
  <cc:Work
     rdf:about="">
    <dc:format>image/svg+xml</dc:format>
    <dc:type
       rdf:resource="http://purl.org/dc/dcmitype/StillImage" />
    <dc:title></dc:title>
  </cc:Work>
</rdf:RDF>
</metadata>
  <path
     style="fill:#000000;fill-opacity:1;stroke:none"
     d="m 10,25 c 0,-7.179702 5.820298,-12.999999 13,-12.999999 l 0,1 C 16.372583,13 11,18.372583 11.000001,25 L 11,27 9.999999,27 10,25 z"
     id="path2910" />
  <path
     style="fill:#000000;fill-opacity:1;stroke:none"
     d="M 24.041631,24.627417 1.414214,2 0,3.414213 22.627417,26.04163 24.041631,24.627417 z"
     id="path2833" />
  <path
     style="fill:#ffffff;fill-opacity:1;stroke:none"
     d="M 11.000001,25 C 11,18.372583 16.372583,13 23,13.000001 l -1e-6,3 C 18.029436,16.000001 14,20.029437 14,25 l -10e-7,2 L 11,27 l 10e-7,-2 z"
     id="path2918" />
  <path
     style="fill:#000000;fill-opacity:1;stroke:none"
     d="m 14,25 c 0,-4.970563 4.029436,-8.999999 8.999999,-8.999999 l 1e-6,1 c -4.418279,0 -8,3.581721 -8,7.999999 l 0,2 -1.000001,1e-6 L 14,25 z"
     id="path2923" />
  <path
     style="fill:#000000;fill-opacity:1;stroke:none"
     d="M 23,20 23,9 28.5,14.5 23,20 z M 23.993976,17.59237 27.086345,14.5 24.016064,11.429719 23.993974,17.59237 z"
     id="path2964" />
  <path
     style="fill:#000000;fill-opacity:1;stroke:none"
     d="M 28,20.100505 28,30 18.100505,30 28,20.100505 z m -1.016466,2.43068 -6.45235,6.452349 6.45235,0 0,-6.452349 z"
     id="path2997" />
  <path
     style="fill:#ffffff;fill-opacity:1;stroke:none"
     d="m 26.983534,22.531185 0,6.452349 -6.45235,0 6.45235,-6.452349 z"
     id="path2966" />
  <path
     style="fill:#ffffff;fill-opacity:1;stroke:none"
     d="M 23.993976,17.59237 24.016066,11.429719 27.086348,14.5 23.993979,17.59237 z"
     id="path2863" />
  <path
     id="path2995"
     d="m 1.000001,16 c 0,-7.179702 5.820298,-13 13,-13 l 0,1.000001 C 7.372584,4 2,9.372583 2.000001,16 L 2,18 l -1,0 10e-7,-2 z"
     style="fill:#000000;fill-opacity:1;stroke:none" />
  <path
     id="path2998"
     d="M 2.000001,16 C 2,9.372583 7.372584,4 14.000001,4.000001 l -10e-7,3 C 9.029437,7.000001 5.000001,11.029437 5.000001,16 L 5,18 l -3,0 1e-6,-2 z"
     style="fill:#ffffff;fill-opacity:1;stroke:none" />
  <path
     id="path3000"
     d="M 5.000001,16 C 5.000001,11.029437 9.029437,7.000001 14,7.000001 L 14.000001,8 C 9.581722,8 6,11.581722 6.000001,16 L 6,18 4.999999,18.000001 5.000001,16 z"
     style="fill:#000000;fill-opacity:1;stroke:none" />
  <path
     id="path3002"
     d="M 14,11 14,0 19.5,5.5 14,11 z M 14.993975,8.59237 18.086345,5.5 15.016064,2.429718 14.993974,8.59237 z"
     style="fill:#000000;fill-opacity:1;stroke:none" />
  <path
     id="path3004"
     d="M 14.993975,8.59237 15.016065,2.429718 18.086346,5.5 14.993976,8.59237 z"
     style="fill:#ffffff;fill-opacity:1;stroke:none" />
</svg>
