<?xml version="1.0" encoding="UTF-8" standalone="no"?>
<svg
   xmlns:dc="http://purl.org/dc/elements/1.1/"
   xmlns:cc="http://creativecommons.org/ns#"
   xmlns:rdf="http://www.w3.org/1999/02/22-rdf-syntax-ns#"
   xmlns:svg="http://www.w3.org/2000/svg"
   xmlns="http://www.w3.org/2000/svg"
   xmlns:sodipodi="http://sodipodi.sourceforge.net/DTD/sodipodi-0.dtd"
   xmlns:inkscape="http://www.inkscape.org/namespaces/inkscape"
   version="1.0"
   width="41"
   height="41"
   id="svg2"
   inkscape:version="0.47 r22583"
   sodipodi:docname="06-01-001-01-03-01.svg">
  <defs
     id="defs14">
    <inkscape:perspective
       sodipodi:type="inkscape:persp3d"
       inkscape:vp_x="0 : 5.5 : 1"
       inkscape:vp_y="0 : 1000 : 0"
       inkscape:vp_z="10 : 5.5 : 1"
       inkscape:persp3d-origin="5 : 3.6666667 : 1"
       id="perspective16" />
  </defs>
  <sodipodi:namedview
     pagecolor="#ffffff"
     bordercolor="#666666"
     borderopacity="1"
     objecttolerance="10"
     gridtolerance="10"
     guidetolerance="10"
     inkscape:pageopacity="0"
     inkscape:pageshadow="2"
     inkscape:window-width="917"
     inkscape:window-height="792"
     id="namedview12"
     showgrid="true"
     inkscape:zoom="13.268293"
     inkscape:cx="20.5"
     inkscape:cy="20.5"
     inkscape:window-x="313"
     inkscape:window-y="0"
     inkscape:window-maximized="0"
     inkscape:current-layer="svg2"
     showborder="true"
     inkscape:showpageshadow="true"
     inkscape:snap-center="false">
    <inkscape:grid
       type="xygrid"
       id="grid2822"
       empspacing="5"
       visible="true"
       enabled="true"
       snapvisiblegridlinesonly="true" />
  </sodipodi:namedview>
  <metadata
     id="metadata4">
Valerie Sutton's pixel definition of the
ISWA 2010 symbol ID 02-01-001-01-01-01
transformed by Stephen E Slevinski Jr
using line and fill polygon tracing
<rdf:RDF>
  <cc:Work
     rdf:about="">
    <dc:format>image/svg+xml</dc:format>
    <dc:type
       rdf:resource="http://purl.org/dc/dcmitype/StillImage" />
    <dc:title></dc:title>
  </cc:Work>
</rdf:RDF>
</metadata>
  <path
     style="fill:#000000;fill-opacity:1;stroke:none"
     d="M 12 0 L 0 12 L 0 29 L 12 41 L 29 41 L 41 29 L 41 12 L 29 0 L 12 0 z M 12.4375 1 L 28.5625 1 L 40 12.4375 L 40 28.5625 L 28.5625 40 L 12.4375 40 L 1 28.5625 L 1 12.4375 L 12.4375 1 z M 13.25 3 L 3 13.25 L 3 27.75 L 13.25 38 L 27.75 38 L 38 27.75 L 38 13.25 L 27.75 3 L 13.25 3 z M 13.65625 4 L 27.34375 4 L 31.8125 8.46875 L 24 16.28125 L 24 17.71875 L 32.53125 9.1875 L 37 13.65625 L 37 20 L 4 20 L 4 13.65625 L 8.46875 9.1875 L 17 17.71875 L 17 16.28125 L 9.1875 8.46875 L 13.65625 4 z M 4 21 L 19.28125 21 L 8.46875 31.8125 L 4 27.34375 L 4 21 z M 21.71875 21 L 37 21 L 37 27.34375 L 32.53125 31.8125 L 21.71875 21 z M 20 21.71875 L 20 37 L 13.65625 37 L 9.1875 32.53125 L 20 21.71875 z M 21 21.71875 L 31.8125 32.53125 L 27.34375 37 L 21 37 L 21 21.71875 z "
     id="rect2815" />
  <path
     style="fill:#000000;fill-opacity:1;stroke:none"
     d="M 17 4 L 17 20 L 18 20 L 18 12 L 23 12 L 23 20 L 24 20 L 24 4 L 17 4 z "
     id="rect2884" />
</svg>
