<?xml version="1.0" encoding="UTF-8" standalone="no"?>
<svg
   xmlns:dc="http://purl.org/dc/elements/1.1/"
   xmlns:cc="http://creativecommons.org/ns#"
   xmlns:rdf="http://www.w3.org/1999/02/22-rdf-syntax-ns#"
   xmlns:svg="http://www.w3.org/2000/svg"
   xmlns="http://www.w3.org/2000/svg"
   xmlns:sodipodi="http://sodipodi.sourceforge.net/DTD/sodipodi-0.dtd"
   xmlns:inkscape="http://www.inkscape.org/namespaces/inkscape"
   version="1.0"
   width="35"
   height="35"
   id="svg2"
   inkscape:version="0.47 r22583"
   sodipodi:docname="04-04-011-02-01-01.svg">
  <defs
     id="defs14">
    <inkscape:perspective
       sodipodi:type="inkscape:persp3d"
       inkscape:vp_x="0 : 17.5 : 1"
       inkscape:vp_y="0 : 1000 : 0"
       inkscape:vp_z="36 : 17.5 : 1"
       inkscape:persp3d-origin="18 : 11.666667 : 1"
       id="perspective16" />
  </defs>
  <sodipodi:namedview
     pagecolor="#ffffff"
     bordercolor="#666666"
     borderopacity="1"
     objecttolerance="10"
     gridtolerance="10"
     guidetolerance="10"
     inkscape:pageopacity="0"
     inkscape:pageshadow="2"
     inkscape:window-width="993"
     inkscape:window-height="789"
     id="namedview12"
     showgrid="true"
     inkscape:zoom="15.487127"
     inkscape:cx="18"
     inkscape:cy="17.5"
     inkscape:window-x="209"
     inkscape:window-y="0"
     inkscape:window-maximized="0"
     inkscape:current-layer="svg2"
     showguides="true"
     inkscape:guide-bbox="true">
    <inkscape:grid
       type="xygrid"
       id="grid2822" />
  </sodipodi:namedview>
  <metadata
     id="metadata4">
Valerie Sutton's pixel definition of the
ISWA 2010 symbol ID 04-03-001-01-01-01
transformed by Stephen E Slevinski Jr
using line and fill polygon tracing
<rdf:RDF>
  <cc:Work
     rdf:about="">
    <dc:format>image/svg+xml</dc:format>
    <dc:type
       rdf:resource="http://purl.org/dc/dcmitype/StillImage" />
    <dc:title />
  </cc:Work>
</rdf:RDF>
</metadata>
  <path
     style="fill:#000000;fill-opacity:1;stroke:none"
     d="M 17.5 0 C 7.8350169 4.7369516e-15 1.087327e-16 7.8350169 0 17.5 C 0 27.164983 7.8350169 35 17.5 35 C 27.164983 35 35 27.164983 35 17.5 C 35 7.8350169 27.164983 -3.443981e-15 17.5 0 z M 17.5 2 C 26.060414 2 33 8.9395864 33 17.5 C 33 26.060414 26.060414 33 17.5 33 C 8.9395864 33 2 26.060414 2 17.5 C 2 8.9395864 8.9395864 2 17.5 2 z "
     id="path2824" />
  <path
     style="fill:#000000;fill-opacity:1;stroke:none"
     d="M 10 21 C 7.790861 21 6 22.790861 6 25 C 6 27.209139 7.790861 29 10 29 L 10 28 C 8.8954305 28 8 26.656854 8 25 C 8 23.343146 8.8954305 22 10 22 L 10 21 z "
     id="path2871" />
  <path
     style="fill:#000000;fill-opacity:1;stroke:none"
     d="m 25,21 0,1 c 1.104569,0 2,1.343146 2,3 0,1.656854 -0.895431,3 -2,3 l 0,1 c 2.209139,0 4,-1.790861 4,-4 0,-2.209139 -1.790861,-4 -4,-4 z"
     id="path2863" />
  <path
     id="path2873"
     d="m 14,21 c -2.209139,0 -4,1.790861 -4,4 0,2.209139 1.790861,4 4,4 l 0,-1 c -1.104569,0 -2,-1.343146 -2,-3 0,-1.656854 0.895431,-3 2,-3 l 0,-1 z"
     style="fill:#000000;fill-opacity:1;stroke:none" />
  <path
     id="path2875"
     d="m 21,21 0,1 c 1.104569,0 2,1.343146 2,3 0,1.656854 -0.895431,3 -2,3 l 0,1 c 2.209139,0 4,-1.790861 4,-4 0,-2.209139 -1.790861,-4 -4,-4 z"
     style="fill:#000000;fill-opacity:1;stroke:none" />
</svg>
