<?xml version="1.0" encoding="UTF-8" standalone="no"?>
<svg
   xmlns:dc="http://purl.org/dc/elements/1.1/"
   xmlns:cc="http://creativecommons.org/ns#"
   xmlns:rdf="http://www.w3.org/1999/02/22-rdf-syntax-ns#"
   xmlns:svg="http://www.w3.org/2000/svg"
   xmlns="http://www.w3.org/2000/svg"
   xmlns:sodipodi="http://sodipodi.sourceforge.net/DTD/sodipodi-0.dtd"
   xmlns:inkscape="http://www.inkscape.org/namespaces/inkscape"
   version="1.0"
   width="18"
   height="35"
   id="svg2"
   inkscape:version="0.47 r22583"
   sodipodi:docname="02-07-002-01-01-02.svg">
  <defs
     id="defs16">
    <inkscape:perspective
       sodipodi:type="inkscape:persp3d"
       inkscape:vp_x="0 : 23 : 1"
       inkscape:vp_y="0 : 1000 : 0"
       inkscape:vp_z="36 : 23 : 1"
       inkscape:persp3d-origin="18 : 15.333333 : 1"
       id="perspective18" />
  </defs>
  <sodipodi:namedview
     pagecolor="#ffffff"
     bordercolor="#666666"
     borderopacity="1"
     objecttolerance="10"
     gridtolerance="10"
     guidetolerance="10"
     inkscape:pageopacity="0"
     inkscape:pageshadow="2"
     inkscape:window-width="964"
     inkscape:window-height="721"
     id="namedview14"
     showgrid="true"
     inkscape:zoom="13.514286"
     inkscape:cx="9"
     inkscape:cy="17.5"
     inkscape:window-x="365"
     inkscape:window-y="0"
     inkscape:window-maximized="0"
     inkscape:current-layer="svg2"
     showborder="true">
    <inkscape:grid
       type="xygrid"
       id="grid2824"
       empspacing="5"
       visible="true"
       enabled="true"
       snapvisiblegridlinesonly="true" />
  </sodipodi:namedview>
  <metadata
     id="metadata4">
Valerie Sutton's pixel definition of the
ISWA 2010 symbol ID 04-01-003-01-01-01
transformed by Stephen E Slevinski Jr
using line and fill polygon tracing
<rdf:RDF>
  <cc:Work
     rdf:about="">
    <dc:format>image/svg+xml</dc:format>
    <dc:type
       rdf:resource="http://purl.org/dc/dcmitype/StillImage" />
    <dc:title></dc:title>
  </cc:Work>
</rdf:RDF>
</metadata>
  <path
     style="fill:#000000;fill-opacity:1;stroke:none"
     d="M 6,35 16,35 16,25 6,35 z"
     id="path2820" />
  <path
     style="fill:#000000;fill-opacity:1;stroke:none"
     d="M 8.875,32.125 9.9375,31.0625 6.25,27.375 c -2.343145,-2.343144 -2.343145,-6.125605 0,-8.46875 l 2.125,-2.125 -2.125,-2.125 c -2.343145,-2.343146 -2.343146,-6.156853 0,-8.5 L 11.375,1.0625 10.3125,0 5.1875,5.09375 c -2.928932,2.928933 -2.928932,7.696068 0,10.625 l 1.0625,1.0625 -1.0625,1.0625 c -2.928932,2.928933 -2.928932,7.664817 0,10.59375 L 8.875,32.125 z"
     id="rect2825" />
  <path
     style="fill:#000000;fill-opacity:1;stroke:none"
     d="M 12.0625,28.9375 13.125,27.875 9.4375,24.1875 c -0.585787,-0.585786 -0.585787,-1.539214 0,-2.125 l 5.3125,-5.28125 -1.0625,-1.0625 -4.25,-4.25 c -0.585787,-0.585786 -0.585787,-1.539214 0,-2.125 L 14.5625,4.25 13.5,3.1875 8.375,8.28125 c -1.171573,1.171573 -1.171573,3.078427 0,4.25 l 4.25,4.25 L 8.375,21 c -1.171573,1.171573 -1.171573,3.078428 0,4.25 l 3.6875,3.6875 z"
     id="rect2849" />
  <path
     style="fill:#ffffff;fill-opacity:1;stroke:none"
     d="m 9.9375,31.0625 2.125,-2.125 L 8.375,25.25 C 7.203427,24.078428 7.203427,22.171573 8.375,21 l 4.25,-4.21875 -4.25,-4.25 c -1.171573,-1.171573 -1.171573,-3.078427 0,-4.25 L 13.5,3.1875 11.375,1.0625 6.25,6.15625 c -2.343146,2.343147 -2.343145,6.156854 0,8.5 l 2.125,2.125 -2.125,2.125 c -2.343145,2.343145 -2.343145,6.125606 0,8.46875 l 3.6875,3.6875 z"
     id="rect2997" />
  <path
     style="fill:#000000;fill-opacity:1;stroke:none"
     d="m 18,24 0,-2 -18,0 0,2 18,0 z"
     id="rect3041" />
  <path
     id="path3055"
     d="M 18,11 18,9 0,9 0,11 18,11 z"
     style="fill:#000000;fill-opacity:1;stroke:none" />
</svg>
