<?xml version="1.0" encoding="UTF-8" standalone="no"?>
<svg
   xmlns:dc="http://purl.org/dc/elements/1.1/"
   xmlns:cc="http://creativecommons.org/ns#"
   xmlns:rdf="http://www.w3.org/1999/02/22-rdf-syntax-ns#"
   xmlns:svg="http://www.w3.org/2000/svg"
   xmlns="http://www.w3.org/2000/svg"
   xmlns:sodipodi="http://sodipodi.sourceforge.net/DTD/sodipodi-0.dtd"
   xmlns:inkscape="http://www.inkscape.org/namespaces/inkscape"
   version="1.0"
   width="18"
   height="35"
   id="svg2"
   inkscape:version="0.47 r22583"
   sodipodi:docname="02-06-004-01-01-01.svg">
  <defs
     id="defs16">
    <inkscape:perspective
       sodipodi:type="inkscape:persp3d"
       inkscape:vp_x="0 : 23 : 1"
       inkscape:vp_y="0 : 1000 : 0"
       inkscape:vp_z="36 : 23 : 1"
       inkscape:persp3d-origin="18 : 15.333333 : 1"
       id="perspective18" />
  </defs>
  <sodipodi:namedview
     pagecolor="#ffffff"
     bordercolor="#666666"
     borderopacity="1"
     objecttolerance="10"
     gridtolerance="10"
     guidetolerance="10"
     inkscape:pageopacity="0"
     inkscape:pageshadow="2"
     inkscape:window-width="964"
     inkscape:window-height="721"
     id="namedview14"
     showgrid="true"
     inkscape:zoom="13.514286"
     inkscape:cx="9"
     inkscape:cy="17.5"
     inkscape:window-x="365"
     inkscape:window-y="0"
     inkscape:window-maximized="0"
     inkscape:current-layer="svg2"
     showborder="true">
    <inkscape:grid
       type="xygrid"
       id="grid2824"
       empspacing="5"
       visible="true"
       enabled="true"
       snapvisiblegridlinesonly="true" />
  </sodipodi:namedview>
  <metadata
     id="metadata4">
Valerie Sutton's pixel definition of the
ISWA 2010 symbol ID 04-01-003-01-01-01
transformed by Stephen E Slevinski Jr
using line and fill polygon tracing
<rdf:RDF>
  <cc:Work
     rdf:about="">
    <dc:format>image/svg+xml</dc:format>
    <dc:type
       rdf:resource="http://purl.org/dc/dcmitype/StillImage" />
    <dc:title></dc:title>
  </cc:Work>
</rdf:RDF>
</metadata>
  <path
     style="fill:#000000;fill-opacity:1;stroke:none"
     d="M 12,0 2.0000003,0 2,10 12,0 z"
     id="path2820" />
  <path
     style="fill:#000000;fill-opacity:1;stroke:none"
     d="M 9.125 2.875 L 8.0625 3.9375 L 11.75 7.625 C 14.093145 9.9681444 14.093145 13.750605 11.75 16.09375 L 9.625 18.21875 L 11.75 20.34375 C 14.093145 22.686896 14.093146 26.500603 11.75 28.84375 L 6.625 33.9375 L 7.6875 35 L 12.8125 29.90625 C 15.741432 26.977317 15.741432 22.210182 12.8125 19.28125 L 11.75 18.21875 L 12.8125 17.15625 C 15.741432 14.227317 15.741432 9.4914325 12.8125 6.5625 L 9.125 2.875 z "
     id="rect2825" />
  <path
     style="fill:#000000;fill-opacity:1;stroke:none"
     d="M 5.9375 6.0625 L 4.875 7.125 L 8.5625 10.8125 C 9.148287 11.398286 9.148287 12.351714 8.5625 12.9375 L 3.25 18.21875 L 4.3125 19.28125 L 8.5625 23.53125 C 9.148287 24.117036 9.148287 25.070464 8.5625 25.65625 L 3.4375 30.75 L 4.5 31.8125 L 9.625 26.71875 C 10.796573 25.547177 10.796573 23.640323 9.625 22.46875 L 5.375 18.21875 L 9.625 14 C 10.796573 12.828427 10.796573 10.921572 9.625 9.75 L 5.9375 6.0625 z "
     id="rect2849" />
  <path
     style="fill:#ffffff;fill-opacity:1;stroke:none"
     d="M 8.0625 3.9375 L 5.9375 6.0625 L 9.625 9.75 C 10.796573 10.921572 10.796573 12.828427 9.625 14 L 5.375 18.21875 L 9.625 22.46875 C 10.796573 23.640323 10.796573 25.547177 9.625 26.71875 L 4.5 31.8125 L 6.625 33.9375 L 11.75 28.84375 C 14.093146 26.500603 14.093145 22.686896 11.75 20.34375 L 9.625 18.21875 L 11.75 16.09375 C 14.093145 13.750605 14.093145 9.9681444 11.75 7.625 L 8.0625 3.9375 z "
     id="rect2997" />
  <path
     style="fill:#000000;fill-opacity:1;stroke:none"
     d="m 0,11 0,2 18,0 0,-2 -18,0 z"
     id="rect3041" />
  <path
     id="path3055"
     d="m 0,24 0,2 18,0 0,-2 -18,0 z"
     style="fill:#000000;fill-opacity:1;stroke:none" />
</svg>
