<?xml version="1.0" encoding="UTF-8" standalone="no"?>
<svg
   xmlns:dc="http://purl.org/dc/elements/1.1/"
   xmlns:cc="http://creativecommons.org/ns#"
   xmlns:rdf="http://www.w3.org/1999/02/22-rdf-syntax-ns#"
   xmlns:svg="http://www.w3.org/2000/svg"
   xmlns="http://www.w3.org/2000/svg"
   xmlns:sodipodi="http://sodipodi.sourceforge.net/DTD/sodipodi-0.dtd"
   xmlns:inkscape="http://www.inkscape.org/namespaces/inkscape"
   version="1.0"
   width="32"
   height="32"
   id="svg2"
   inkscape:version="0.47 r22583"
   sodipodi:docname="02-07-016-01-02-02.svg">
  <defs
     id="defs16">
    <inkscape:perspective
       sodipodi:type="inkscape:persp3d"
       inkscape:vp_x="0 : 23 : 1"
       inkscape:vp_y="0 : 1000 : 0"
       inkscape:vp_z="36 : 23 : 1"
       inkscape:persp3d-origin="18 : 15.333333 : 1"
       id="perspective18" />
  </defs>
  <sodipodi:namedview
     pagecolor="#ffffff"
     bordercolor="#666666"
     borderopacity="1"
     objecttolerance="10"
     gridtolerance="10"
     guidetolerance="10"
     inkscape:pageopacity="0"
     inkscape:pageshadow="2"
     inkscape:window-width="964"
     inkscape:window-height="721"
     id="namedview14"
     showgrid="true"
     inkscape:zoom="14.78125"
     inkscape:cx="16"
     inkscape:cy="16"
     inkscape:window-x="365"
     inkscape:window-y="0"
     inkscape:window-maximized="0"
     inkscape:current-layer="svg2"
     showborder="true">
    <inkscape:grid
       type="xygrid"
       id="grid2824"
       empspacing="5"
       visible="true"
       enabled="true"
       snapvisiblegridlinesonly="true" />
  </sodipodi:namedview>
  <metadata
     id="metadata4">
Valerie Sutton's pixel definition of the
ISWA 2010 symbol ID 04-01-003-01-01-01
transformed by Stephen E Slevinski Jr
using line and fill polygon tracing
<rdf:RDF>
  <cc:Work
     rdf:about="">
    <dc:format>image/svg+xml</dc:format>
    <dc:type
       rdf:resource="http://purl.org/dc/dcmitype/StillImage" />
    <dc:title></dc:title>
  </cc:Work>
</rdf:RDF>
</metadata>
  <path
     style="fill:#000000;fill-opacity:1;stroke:none"
     d="M 28.485281,0 20,0 20,8.485282 28.485281,0 z m -2.408582,0.994369 -5.08233,5.08233 0.0221,-5.060233 5.060233,-0.0221 z"
     id="path2816" />
  <path
     style="fill:#000000;fill-opacity:1;stroke:none"
     d="m 25.656854,2.828427 -0.707107,0.707107 3.535534,3.535534 c 1.952622,1.952622 1.952622,5.118446 0,7.071068 l -1.414213,1.414213 c -1.952622,1.952622 -5.118447,1.952622 -7.071068,0 L 17.171573,12.727922 C 16,11.55635 14.100505,11.55635 12.928932,12.727922 l -0.707107,0.707107 c -1.171573,1.171573 -1.171573,3.071068 0,4.242641 l 2.828427,2.828427 c 1.952622,1.952621 1.952622,5.118446 0,7.071067 l -1.414213,1.414214 c -1.952622,1.952621 -5.1184456,1.952621 -7.0710676,0 l -5.656854,-5.656854 -0.707107,0.707106 5.656854,5.656855 c 2.343146,2.343146 6.1421346,2.343146 8.4852806,0 l 1.414214,-1.414214 c 2.343146,-2.343146 2.343146,-6.142135 0,-8.485281 l -2.828427,-2.828427 c -0.781048,-0.781048 -0.781048,-2.047379 0,-2.828427 l 0.707107,-0.707107 c 0.781048,-0.781048 2.047379,-0.781048 2.828427,0 l 2.828427,2.828427 c 2.343146,2.343146 6.142135,2.343146 8.485282,0 l 1.414213,-1.414213 c 2.343146,-2.343146 2.343146,-6.142136 0,-8.485282 L 25.656854,2.828427 z"
     id="path2986" />
  <path
     style="fill:#ffffff;fill-opacity:1;stroke:none"
     d="m 24.949747,3.535534 -1.414213,1.414214 3.535534,3.535534 c 1.171573,1.171572 1.171573,3.071067 0,4.24264 l -1.414214,1.414214 c -1.171573,1.171573 -3.071068,1.171573 -4.242641,0 l -2.828427,-2.828427 c -1.952621,-1.952622 -5.118446,-1.952622 -7.071068,0 l -0.707106,0.707106 c -1.9526216,1.952622 -1.9526216,5.118447 0,7.071068 l 2.828427,2.828427 c 1.171572,1.171573 1.171572,3.071068 0,4.242641 l -1.414214,1.414213 c -1.171573,1.171573 -3.0710676,1.171573 -4.2426406,0 l -5.656854,-5.656854 -1.414213,1.414214 5.656854,5.656854 c 1.952622,1.952622 5.1184456,1.952622 7.0710676,0 l 1.414213,-1.414214 c 1.952622,-1.952621 1.952622,-5.118446 0,-7.071067 L 12.221825,17.67767 c -1.171573,-1.171573 -1.171573,-3.071068 0,-4.242641 l 0.707107,-0.707107 c 1.171573,-1.171572 3.071068,-1.171572 4.242641,0 L 20,15.556349 c 1.952621,1.952622 5.118446,1.952622 7.071068,0 l 1.414213,-1.414213 c 1.952622,-1.952622 1.952622,-5.118446 0,-7.071068 L 24.949747,3.535534 z"
     id="path2983" />
  <path
     style="fill:#000000;fill-opacity:1;stroke:none"
     d="m 23.535534,4.949748 -0.707107,0.707106 3.535534,3.535534 c 0.781048,0.7810496 0.781049,2.047379 0,2.828427 l -1.414214,1.414214 c -0.781048,0.781048 -2.047379,0.781048 -2.828427,0 l -2.828427,-2.828427 c -2.343146,-2.343146 -6.142135,-2.343146 -8.485281,0 l -0.707107,0.707107 c -2.3431456,2.343146 -2.3431456,6.142135 0,8.485281 l 2.828427,2.828427 c 0.781048,0.781048 0.781048,2.047379 0,2.828427 l -1.414214,1.414213 c -0.781048,0.781049 -2.0473786,0.781049 -2.8284266,0 l -5.656854,-5.656853 -0.707107,0.707106 5.656854,5.656854 c 1.171573,1.171573 3.0710676,1.171573 4.2426406,0 l 1.414214,-1.414213 c 1.171572,-1.171573 1.171572,-3.071068 0,-4.242641 l -2.828427,-2.828427 c -1.9526216,-1.952621 -1.9526216,-5.118446 0,-7.071068 l 0.707106,-0.707106 c 1.952622,-1.952622 5.118447,-1.952622 7.071068,0 l 2.828427,2.828427 c 1.171573,1.171573 3.071068,1.171573 4.242641,0 l 1.414214,-1.414214 c 1.171573,-1.171573 1.171573,-3.071068 0,-4.24264 L 23.535534,4.949748 z"
     id="path2980" />
  <path
     style="fill:#ffffff;fill-opacity:1;stroke:none"
     d="m 26.076699,0.994369 -5.060233,0.0221 -0.0221,5.060233 5.08233,-5.08233 z"
     id="path3123" />
  <path
     style="fill:#000000;fill-opacity:1;stroke:none"
     d="M 8.6862914,8.485282 7.2720784,9.8994956 14.343145,16.970563 15.757359,15.556349 8.6862914,8.485282 z"
     id="rect4008" />
  <path
     id="path4013"
     d="m 10.807612,23.334524 -1.4142136,1.414213 7.0710676,7.071068 1.414213,-1.414214 -7.071067,-7.071067 z"
     style="fill:#000000;fill-opacity:1;stroke:none" />
  <path
     style="fill:#000000;fill-opacity:1;stroke:none"
     d="m 24.24264,9.8994956 -1.414213,1.4142134 7.071068,7.071067 1.414214,-1.414213 -7.071069,-7.0710674 z"
     id="path4015" />
</svg>
