<?xml version="1.0" encoding="UTF-8" standalone="no"?>
<svg
   xmlns:dc="http://purl.org/dc/elements/1.1/"
   xmlns:cc="http://creativecommons.org/ns#"
   xmlns:rdf="http://www.w3.org/1999/02/22-rdf-syntax-ns#"
   xmlns:svg="http://www.w3.org/2000/svg"
   xmlns="http://www.w3.org/2000/svg"
   xmlns:sodipodi="http://sodipodi.sourceforge.net/DTD/sodipodi-0.dtd"
   xmlns:inkscape="http://www.inkscape.org/namespaces/inkscape"
   version="1.0"
   width="20"
   height="37"
   id="svg2"
   inkscape:version="0.47 r22583"
   sodipodi:docname="02-07-016-01-01-13.svg">
  <defs
     id="defs16">
    <inkscape:perspective
       sodipodi:type="inkscape:persp3d"
       inkscape:vp_x="0 : 23 : 1"
       inkscape:vp_y="0 : 1000 : 0"
       inkscape:vp_z="36 : 23 : 1"
       inkscape:persp3d-origin="18 : 15.333333 : 1"
       id="perspective18" />
  </defs>
  <sodipodi:namedview
     pagecolor="#ffffff"
     bordercolor="#666666"
     borderopacity="1"
     objecttolerance="10"
     gridtolerance="10"
     guidetolerance="10"
     inkscape:pageopacity="0"
     inkscape:pageshadow="2"
     inkscape:window-width="964"
     inkscape:window-height="721"
     id="namedview14"
     showgrid="true"
     inkscape:zoom="12.783784"
     inkscape:cx="10"
     inkscape:cy="18.5"
     inkscape:window-x="365"
     inkscape:window-y="0"
     inkscape:window-maximized="0"
     inkscape:current-layer="svg2"
     showborder="true">
    <inkscape:grid
       type="xygrid"
       id="grid2824"
       empspacing="5"
       visible="true"
       enabled="true"
       snapvisiblegridlinesonly="true" />
  </sodipodi:namedview>
  <metadata
     id="metadata4">
Valerie Sutton's pixel definition of the
ISWA 2010 symbol ID 04-01-003-01-01-01
transformed by Stephen E Slevinski Jr
using line and fill polygon tracing
<rdf:RDF>
  <cc:Work
     rdf:about="">
    <dc:format>image/svg+xml</dc:format>
    <dc:type
       rdf:resource="http://purl.org/dc/dcmitype/StillImage" />
    <dc:title></dc:title>
  </cc:Work>
</rdf:RDF>
</metadata>
  <path
     style="fill:#000000;fill-opacity:1;stroke:none"
     d="M 7,37 7,25 1,31 7,37 z"
     id="path2816" />
  <path
     style="fill:#000000;fill-opacity:1;stroke:none"
     d="m 7,33 0,-1 5,0 c 2.761424,0 5,-2.238576 5,-5 l 0,-2 c 0,-2.761424 -2.238576,-5 -5,-5 L 8,20 C 6.343146,20 5,18.656854 5,17 l 0,-1 c 0,-1.656854 1.343146,-3 3,-3 l 4,0 c 2.761424,0 5,-2.238576 5,-5 L 17,6 C 17,3.238576 14.761424,1 12,1 L 4,1 4,0 12,0 c 3.313709,0 6,2.686291 6,6 l 0,2 c 0,3.313709 -2.686291,6 -6,6 l -4,0 c -1.104569,0 -2,0.895431 -2,2 l 0,1 c 0,1.104569 0.895431,2 2,2 l 4,0 c 3.313709,0 6,2.686291 6,6 l 0,2 c 0,3.313708 -2.686291,6 -6,6 l -5,0 z"
     id="path2986" />
  <path
     style="fill:#ffffff;fill-opacity:1;stroke:none"
     d="m 7,32 0,-2 5,0 c 1.656854,0 3,-1.343146 3,-3 l 0,-2 c 0,-1.656854 -1.343146,-3 -3,-3 L 8,22 C 5.238576,22 3,19.761424 3,17 l 0,-1 c 0,-2.761424 2.238576,-5 5,-5 l 4,0 c 1.656854,0 3,-1.343146 3,-3 L 15,6 C 15,4.343146 13.656854,3 12,3 L 4,3 4,1 12,1 c 2.761424,0 5,2.238576 5,5 l 0,2 c 0,2.761424 -2.238576,5 -5,5 l -4,0 c -1.656854,0 -3,1.343146 -3,3 l 0,1 c 0,1.656854 1.343146,3 3,3 l 4,0 c 2.761424,0 5,2.238576 5,5 l 0,2 c 0,2.761424 -2.238576,5 -5,5 l -5,0 z"
     id="path2983" />
  <path
     style="fill:#000000;fill-opacity:1;stroke:none"
     d="m 7,30 0,-1 5,0 c 1.104569,0 2,-0.895431 2,-2 l 0,-2 c 0,-1.104569 -0.895431,-2 -2,-2 L 8,23 C 4.686291,23 2,20.313709 2,17 l 0,-1 c 0,-3.313709 2.686291,-6 6,-6 l 4,0 c 1.104569,0 2,-0.895431 2,-2 L 14,6 C 14,4.895431 13.104569,4 12,4 L 4,4 4,3 12,3 c 1.656854,0 3,1.343146 3,3 l 0,2 c 0,1.656854 -1.343146,3 -3,3 l -4,0 c -2.761424,0 -5,2.238576 -5,5 l 0,1 c 0,2.761424 2.238576,5 5,5 l 4,0 c 1.656854,0 3,1.343146 3,3 l 0,2 c 0,1.656854 -1.343146,3 -3,3 l -5,0 z"
     id="path2980" />
  <path
     style="fill:#000000;fill-opacity:1;stroke:none"
     d="m 16,3 c -2.209139,0 -4,1.790861 -4,4 0,2.209139 1.790861,4 4,4 2.209139,0 4,-1.790861 4,-4 0,-2.209139 -1.790861,-4 -4,-4 z"
     id="path4217" />
  <path
     id="path4219"
     d="m 16,22 c -2.209139,0 -4,1.790861 -4,4 0,2.209139 1.790861,4 4,4 2.209139,0 4,-1.790861 4,-4 0,-2.209139 -1.790861,-4 -4,-4 z"
     style="fill:#000000;fill-opacity:1;stroke:none" />
  <path
     style="fill:#000000;fill-opacity:1;stroke:none"
     d="m 4,12.5 c -2.209139,0 -4,1.790861 -4,4 0,2.209139 1.790861,4 4,4 2.209139,0 4,-1.790861 4,-4 0,-2.209139 -1.790861,-4 -4,-4 z"
     id="path4221" />
</svg>
