<?xml version="1.0" encoding="UTF-8" standalone="no"?>
<svg
   xmlns:dc="http://purl.org/dc/elements/1.1/"
   xmlns:cc="http://creativecommons.org/ns#"
   xmlns:rdf="http://www.w3.org/1999/02/22-rdf-syntax-ns#"
   xmlns:svg="http://www.w3.org/2000/svg"
   xmlns="http://www.w3.org/2000/svg"
   xmlns:sodipodi="http://sodipodi.sourceforge.net/DTD/sodipodi-0.dtd"
   xmlns:inkscape="http://www.inkscape.org/namespaces/inkscape"
   version="1.0"
   width="32"
   height="32"
   id="svg2"
   inkscape:version="0.47 r22583"
   sodipodi:docname="02-07-016-01-02-09.svg">
  <defs
     id="defs16">
    <inkscape:perspective
       sodipodi:type="inkscape:persp3d"
       inkscape:vp_x="0 : 23 : 1"
       inkscape:vp_y="0 : 1000 : 0"
       inkscape:vp_z="36 : 23 : 1"
       inkscape:persp3d-origin="18 : 15.333333 : 1"
       id="perspective18" />
  </defs>
  <sodipodi:namedview
     pagecolor="#ffffff"
     bordercolor="#666666"
     borderopacity="1"
     objecttolerance="10"
     gridtolerance="10"
     guidetolerance="10"
     inkscape:pageopacity="0"
     inkscape:pageshadow="2"
     inkscape:window-width="964"
     inkscape:window-height="721"
     id="namedview14"
     showgrid="true"
     inkscape:zoom="14.78125"
     inkscape:cx="16"
     inkscape:cy="16"
     inkscape:window-x="365"
     inkscape:window-y="0"
     inkscape:window-maximized="0"
     inkscape:current-layer="svg2"
     showborder="true">
    <inkscape:grid
       type="xygrid"
       id="grid2824"
       empspacing="5"
       visible="true"
       enabled="true"
       snapvisiblegridlinesonly="true" />
  </sodipodi:namedview>
  <metadata
     id="metadata4">
Valerie Sutton's pixel definition of the
ISWA 2010 symbol ID 04-01-003-01-01-01
transformed by Stephen E Slevinski Jr
using line and fill polygon tracing
<rdf:RDF>
  <cc:Work
     rdf:about="">
    <dc:format>image/svg+xml</dc:format>
    <dc:type
       rdf:resource="http://purl.org/dc/dcmitype/StillImage" />
    <dc:title></dc:title>
  </cc:Work>
</rdf:RDF>
</metadata>
  <path
     style="fill:#000000;fill-opacity:1;stroke:none"
     d="M 32,3.5147189 32,12 23.514718,12 32,3.5147189 z m -0.994369,2.4085825 -5.08233,5.0823296 5.060233,-0.0221 0.0221,-5.0602326 z"
     id="path2816" />
  <path
     style="fill:#000000;fill-opacity:1;stroke:none"
     d="M 29.171573,6.343146 28.464466,7.050253 24.928932,3.5147189 c -1.952622,-1.9526216 -5.118446,-1.9526214 -7.071068,0 l -1.414213,1.4142136 c -1.952622,1.9526215 -1.952622,5.1184465 0,7.0710675 l 2.828427,2.828427 c 1.171572,1.171573 1.171572,3.071068 0,4.242641 l -0.707107,0.707107 c -1.171573,1.171573 -3.071068,1.171573 -4.242641,0 l -2.828427,-2.828427 c -1.9526215,-1.952622 -5.118446,-1.952622 -7.0710677,0 l -1.4142135,1.414213 c -1.9526217,1.952622 -1.9526217,5.118446 0,7.071068 L 8.665476,31.091883 7.9583692,31.79899 2.301515,26.142136 c -2.3431461,-2.343146 -2.3431461,-6.142135 0,-8.485281 l 1.4142135,-1.414214 c 2.3431462,-2.343146 6.1421353,-2.343146 8.4852815,0 l 2.828427,2.828427 c 0.781048,0.781048 2.047379,0.781048 2.828427,0 l 0.707107,-0.707107 c 0.781048,-0.781048 0.781048,-2.047379 0,-2.828427 l -2.828427,-2.828427 c -2.343146,-2.343146 -2.343146,-6.142135 0,-8.4852813 l 1.414213,-1.4142136 c 2.343146,-2.3431457 6.142136,-2.3431461 8.485282,0 l 3.535534,3.5355339 z"
     id="path2986" />
  <path
     style="fill:#ffffff;fill-opacity:1;stroke:none"
     d="M 28.464466,7.050253 27.050252,8.464466 23.514718,4.9289325 c -1.171572,-1.1715727 -3.071067,-1.1715729 -4.24264,0 L 17.857864,6.343146 c -1.171573,1.171573 -1.171573,3.071068 0,4.242641 l 2.828427,2.828427 c 1.952622,1.952621 1.952622,5.118446 0,7.071068 l -0.707106,0.707106 c -1.952622,1.952622 -5.118447,1.952622 -7.071068,0 L 10.07969,18.363961 c -1.1715731,-1.171572 -3.0710684,-1.171572 -4.2426411,0 l -1.4142136,1.414214 c -1.1715727,1.171573 -1.1715727,3.071068 0,4.242641 L 10.07969,29.67767 8.665476,31.091883 3.0086218,25.435029 c -1.9526217,-1.952622 -1.9526217,-5.118446 0,-7.071068 l 1.4142135,-1.414213 c 1.9526217,-1.952622 5.1184462,-1.952622 7.0710677,0 l 2.828427,2.828427 c 1.171573,1.171573 3.071068,1.171573 4.242641,0 l 0.707107,-0.707107 c 1.171572,-1.171573 1.171572,-3.071068 0,-4.242641 L 16.443651,12 c -1.952622,-1.952621 -1.952622,-5.118446 0,-7.0710675 l 1.414213,-1.4142136 c 1.952622,-1.9526214 5.118446,-1.9526216 7.071068,0 l 3.535534,3.5355341 z"
     id="path2983" />
  <path
     style="fill:#000000;fill-opacity:1;stroke:none"
     d="M 27.050252,8.464466 26.343146,9.171573 22.807612,5.6360392 c -0.781049,-0.7810482 -2.047379,-0.7810485 -2.828427,0 L 18.564971,7.050253 c -0.781048,0.781048 -0.781048,2.047379 0,2.828427 l 2.828427,2.828427 c 2.343146,2.343146 2.343146,6.142135 0,8.485281 l -0.707107,0.707107 c -2.343146,2.343146 -6.142135,2.343146 -8.485281,0 L 9.3725828,19.071068 c -0.7810482,-0.781048 -2.0473789,-0.781048 -2.8284271,0 l -1.4142136,1.414214 c -0.7810482,0.781048 -0.7810482,2.047379 0,2.828427 L 10.786796,28.970563 10.07969,29.67767 4.4228353,24.020816 c -1.1715727,-1.171573 -1.1715727,-3.071068 0,-4.242641 l 1.4142136,-1.414214 c 1.1715727,-1.171572 3.071068,-1.171572 4.2426411,0 l 2.828427,2.828427 c 1.952621,1.952622 5.118446,1.952622 7.071068,0 l 0.707106,-0.707106 c 1.952622,-1.952622 1.952622,-5.118447 0,-7.071068 l -2.828427,-2.828427 c -1.171573,-1.171573 -1.171573,-3.071068 0,-4.242641 l 1.414214,-1.4142135 c 1.171573,-1.1715729 3.071068,-1.1715727 4.24264,0 l 3.535534,3.5355335 z"
     id="path2980" />
  <path
     style="fill:#ffffff;fill-opacity:1;stroke:none"
     d="m 31.005631,5.9233014 -0.0221,5.0602326 -5.060233,0.0221 5.08233,-5.0823296 z"
     id="path3123" />
  <path
     style="fill:#000000;fill-opacity:1;stroke:none"
     d="m 23.514718,23.313709 -1.414213,1.414213 -7.071068,-7.071067 1.414214,-1.414214 7.071067,7.071068 z"
     id="rect4008" />
  <path
     id="path4013"
     d="M 8.665476,21.192388 7.2512625,22.606602 0.1801946,15.535534 1.5944082,14.121321 8.665476,21.192388 z"
     style="fill:#000000;fill-opacity:1;stroke:none" />
  <path
     style="fill:#000000;fill-opacity:1;stroke:none"
     d="M 22.100505,7.75736 20.686291,9.171573 13.615224,2.1005053 15.029437,0.6862918 22.100505,7.75736 z"
     id="path4015" />
</svg>
