<?xml version="1.0" encoding="UTF-8" standalone="no"?>
<svg
   xmlns:dc="http://purl.org/dc/elements/1.1/"
   xmlns:cc="http://creativecommons.org/ns#"
   xmlns:rdf="http://www.w3.org/1999/02/22-rdf-syntax-ns#"
   xmlns:svg="http://www.w3.org/2000/svg"
   xmlns="http://www.w3.org/2000/svg"
   xmlns:sodipodi="http://sodipodi.sourceforge.net/DTD/sodipodi-0.dtd"
   xmlns:inkscape="http://www.inkscape.org/namespaces/inkscape"
   version="1.0"
   width="32"
   height="32"
   id="svg2"
   inkscape:version="0.47 r22583"
   sodipodi:docname="02-07-016-01-03-05.svg">
  <defs
     id="defs16">
    <inkscape:perspective
       sodipodi:type="inkscape:persp3d"
       inkscape:vp_x="0 : 23 : 1"
       inkscape:vp_y="0 : 1000 : 0"
       inkscape:vp_z="36 : 23 : 1"
       inkscape:persp3d-origin="18 : 15.333333 : 1"
       id="perspective18" />
  </defs>
  <sodipodi:namedview
     pagecolor="#ffffff"
     bordercolor="#666666"
     borderopacity="1"
     objecttolerance="10"
     gridtolerance="10"
     guidetolerance="10"
     inkscape:pageopacity="0"
     inkscape:pageshadow="2"
     inkscape:window-width="964"
     inkscape:window-height="721"
     id="namedview14"
     showgrid="true"
     inkscape:zoom="14.78125"
     inkscape:cx="16"
     inkscape:cy="16"
     inkscape:window-x="365"
     inkscape:window-y="0"
     inkscape:window-maximized="0"
     inkscape:current-layer="svg2"
     showborder="true">
    <inkscape:grid
       type="xygrid"
       id="grid2824"
       empspacing="5"
       visible="true"
       enabled="true"
       snapvisiblegridlinesonly="true" />
  </sodipodi:namedview>
  <metadata
     id="metadata4">
Valerie Sutton's pixel definition of the
ISWA 2010 symbol ID 04-01-003-01-01-01
transformed by Stephen E Slevinski Jr
using line and fill polygon tracing
<rdf:RDF>
  <cc:Work
     rdf:about="">
    <dc:format>image/svg+xml</dc:format>
    <dc:type
       rdf:resource="http://purl.org/dc/dcmitype/StillImage" />
    <dc:title></dc:title>
  </cc:Work>
</rdf:RDF>
</metadata>
  <path
     style="fill:#000000;fill-opacity:1;stroke:none"
     d="M 32,28.485281 32,20 l -8.485282,0 1.414214,1.414213 5.656854,0 0,5.656855 L 32,28.485281 z"
     id="path2816" />
  <path
     style="fill:#000000;fill-opacity:1;stroke:none"
     d="m 29.171573,25.656854 -0.707107,-0.707107 -3.535534,3.535534 c -1.952622,1.952622 -5.118446,1.952622 -7.071068,0 l -1.414213,-1.414213 c -1.952622,-1.952622 -1.952622,-5.118447 0,-7.071068 l 2.828427,-2.828427 c 1.171572,-1.171573 1.171572,-3.071068 0,-4.242641 l -0.707107,-0.707107 c -1.171573,-1.171573 -3.071068,-1.171573 -4.242641,0 l -2.828427,2.828427 c -1.9526215,1.952622 -5.118446,1.952622 -7.0710677,0 L 3.0086218,13.636039 c -1.9526217,-1.952622 -1.9526217,-5.1184465 0,-7.0710681 L 8.665476,0.9081166 7.9583692,0.2010099 2.301515,5.8578641 c -2.3431461,2.3431461 -2.3431461,6.1421349 0,8.4852809 l 1.4142135,1.414214 c 2.3431462,2.343146 6.1421353,2.343146 8.4852815,0 l 2.828427,-2.828427 c 0.781048,-0.781048 2.047379,-0.781048 2.828427,0 l 0.707107,0.707107 c 0.781048,0.781048 0.781048,2.047379 0,2.828427 l -2.828427,2.828427 c -2.343146,2.343146 -2.343146,6.142135 0,8.485281 l 1.414213,1.414214 c 2.343146,2.343145 6.142136,2.343146 8.485282,0 l 3.535534,-3.535534 z"
     id="path2986" />
  <path
     style="fill:#ffffff;fill-opacity:1;stroke:none"
     d="m 28.464466,24.949747 -1.414214,-1.414213 -3.535534,3.535534 c -1.171572,1.171572 -3.071068,1.171572 -4.24264,0 l -1.414214,-1.414214 c -1.171572,-1.171573 -1.171572,-3.071068 0,-4.242641 l 2.828427,-2.828427 c 1.952622,-1.952621 1.952622,-5.118446 0,-7.071068 l -0.707106,-0.707106 c -1.952622,-1.9526221 -5.118447,-1.9526221 -7.071068,0 l -2.828427,2.828427 c -1.1715731,1.171572 -3.0710684,1.171572 -4.2426411,0 L 4.4228353,12.221825 c -1.1715727,-1.171573 -1.1715727,-3.071068 0,-4.2426405 L 10.07969,2.3223302 8.665476,0.9081166 3.0086218,6.5649709 c -1.9526217,1.9526216 -1.9526217,5.1184461 0,7.0710681 l 1.4142135,1.414213 c 1.9526217,1.952622 5.1184462,1.952622 7.0710677,0 l 2.828427,-2.828427 c 1.171573,-1.171573 3.071068,-1.171573 4.242641,0 l 0.707107,0.707107 c 1.171572,1.171573 1.171572,3.071068 0,4.242641 L 16.443651,20 c -1.952622,1.952621 -1.952622,5.118446 0,7.071068 l 1.414213,1.414213 c 1.952622,1.952622 5.118446,1.952622 7.071068,0 l 3.535534,-3.535534 z"
     id="path2983" />
  <path
     style="fill:#000000;fill-opacity:1;stroke:none"
     d="m 27.050252,23.535534 -0.707106,-0.707107 -3.535534,3.535534 c -0.781049,0.781048 -2.047379,0.781048 -2.828427,0 l -1.414214,-1.414214 c -0.781048,-0.781048 -0.781048,-2.047379 0,-2.828427 l 2.828427,-2.828427 c 2.343146,-2.343146 2.343146,-6.142135 0,-8.485281 l -0.707107,-0.707107 c -2.343146,-2.3431463 -6.142135,-2.3431463 -8.485281,0 l -2.8284272,2.828427 c -0.7810482,0.781048 -2.0473789,0.781048 -2.8284271,0 L 5.1299421,11.514718 c -0.7810482,-0.781048 -0.7810482,-2.047379 0,-2.8284268 L 10.786796,3.029437 10.07969,2.3223302 4.4228353,7.9791845 c -1.1715727,1.1715725 -1.1715727,3.0710675 0,4.2426405 l 1.4142136,1.414214 c 1.1715727,1.171572 3.071068,1.171572 4.2426411,0 l 2.828427,-2.828427 c 1.952621,-1.9526221 5.118446,-1.9526221 7.071068,0 l 0.707106,0.707106 c 1.952622,1.952622 1.952622,5.118447 0,7.071068 l -2.828427,2.828427 c -1.171572,1.171573 -1.171572,3.071068 0,4.242641 l 1.414214,1.414214 c 1.171572,1.171572 3.071068,1.171572 4.24264,0 l 3.535534,-3.535534 z"
     id="path2980" />
  <path
     style="fill:#000000;fill-opacity:1;stroke:none"
     d="m 16.797204,9.039845 c 1.562097,-1.5620975 4.094757,-1.5620975 5.656854,0 1.562097,1.562097 1.562097,4.094757 0,5.656854 -1.562097,1.562097 -4.094757,1.562097 -5.656854,0 -1.562097,-1.562097 -1.562097,-4.094757 0,-5.656854 z"
     id="path3905" />
  <path
     id="path3907"
     d="m 1.5944082,10.807612 c 1.5620972,-1.562098 4.0947571,-1.562098 5.6568543,0 1.5620971,1.562097 1.5620971,4.094757 0,5.656854 -1.5620972,1.562097 -4.0947571,1.562097 -5.6568543,0 -1.5620972,-1.562097 -1.5620972,-4.094757 0,-5.656854 z"
     style="fill:#000000;fill-opacity:1;stroke:none" />
  <path
     style="fill:#000000;fill-opacity:1;stroke:none"
     d="m 15.029437,24.24264 c 1.562097,-1.562097 4.094757,-1.562097 5.656854,0 1.562097,1.562098 1.562097,4.094758 0,5.656855 -1.562097,1.562097 -4.094757,1.562097 -5.656854,0 -1.562097,-1.562097 -1.562097,-4.094757 0,-5.656855 z"
     id="path3909" />
</svg>
