<?xml version="1.0" encoding="UTF-8" standalone="no"?>
<svg
   xmlns:dc="http://purl.org/dc/elements/1.1/"
   xmlns:cc="http://creativecommons.org/ns#"
   xmlns:rdf="http://www.w3.org/1999/02/22-rdf-syntax-ns#"
   xmlns:svg="http://www.w3.org/2000/svg"
   xmlns="http://www.w3.org/2000/svg"
   xmlns:sodipodi="http://sodipodi.sourceforge.net/DTD/sodipodi-0.dtd"
   xmlns:inkscape="http://www.inkscape.org/namespaces/inkscape"
   version="1.0"
   width="32"
   height="32"
   id="svg2"
   inkscape:version="0.47 r22583"
   sodipodi:docname="02-07-016-01-02-14.svg">
  <defs
     id="defs16">
    <inkscape:perspective
       sodipodi:type="inkscape:persp3d"
       inkscape:vp_x="0 : 23 : 1"
       inkscape:vp_y="0 : 1000 : 0"
       inkscape:vp_z="36 : 23 : 1"
       inkscape:persp3d-origin="18 : 15.333333 : 1"
       id="perspective18" />
  </defs>
  <sodipodi:namedview
     pagecolor="#ffffff"
     bordercolor="#666666"
     borderopacity="1"
     objecttolerance="10"
     gridtolerance="10"
     guidetolerance="10"
     inkscape:pageopacity="0"
     inkscape:pageshadow="2"
     inkscape:window-width="964"
     inkscape:window-height="721"
     id="namedview14"
     showgrid="true"
     inkscape:zoom="14.78125"
     inkscape:cx="16"
     inkscape:cy="16"
     inkscape:window-x="365"
     inkscape:window-y="0"
     inkscape:window-maximized="0"
     inkscape:current-layer="svg2"
     showborder="true">
    <inkscape:grid
       type="xygrid"
       id="grid2824"
       empspacing="5"
       visible="true"
       enabled="true"
       snapvisiblegridlinesonly="true" />
  </sodipodi:namedview>
  <metadata
     id="metadata4">
Valerie Sutton's pixel definition of the
ISWA 2010 symbol ID 04-01-003-01-01-01
transformed by Stephen E Slevinski Jr
using line and fill polygon tracing
<rdf:RDF>
  <cc:Work
     rdf:about="">
    <dc:format>image/svg+xml</dc:format>
    <dc:type
       rdf:resource="http://purl.org/dc/dcmitype/StillImage" />
    <dc:title></dc:title>
  </cc:Work>
</rdf:RDF>
</metadata>
  <path
     style="fill:#000000;fill-opacity:1;stroke:none"
     d="M 28.485281,32 20,32 20,23.514718 28.485281,32 z m -2.408582,-0.994369 -5.08233,-5.08233 0.0221,5.060233 5.060233,0.0221 z"
     id="path2816" />
  <path
     style="fill:#000000;fill-opacity:1;stroke:none"
     d="m 25.656854,29.171573 -0.707107,-0.707107 3.535534,-3.535534 c 1.952622,-1.952622 1.952622,-5.118446 0,-7.071068 l -1.414213,-1.414213 c -1.952622,-1.952622 -5.118447,-1.952622 -7.071068,0 l -2.828427,2.828427 c -1.171573,1.171572 -3.071068,1.171572 -4.242641,0 l -0.707107,-0.707107 c -1.171573,-1.171573 -1.171573,-3.071068 0,-4.242641 l 2.828427,-2.828427 c 1.952622,-1.9526218 1.952622,-5.1184458 0,-7.0710678 l -1.414213,-1.414214 c -1.952622,-1.952621 -5.1184469,-1.952621 -7.0710685,0 L 0.9081162,8.6654762 0.20100945,7.9583692 5.8578637,2.3015152 c 2.3431461,-2.343146 6.1421353,-2.343146 8.4852813,0 l 1.414214,1.414213 c 2.343146,2.343146 2.343146,6.142135 0,8.4852818 l -2.828427,2.828427 c -0.781048,0.781048 -0.781048,2.047379 0,2.828427 l 0.707107,0.707107 c 0.781048,0.781048 2.047379,0.781048 2.828427,0 l 2.828427,-2.828427 c 2.343146,-2.343146 6.142135,-2.343146 8.485281,0 l 1.414214,1.414213 c 2.343145,2.343146 2.343146,6.142136 0,8.485282 l -3.535534,3.535534 z"
     id="path2986" />
  <path
     style="fill:#ffffff;fill-opacity:1;stroke:none"
     d="m 24.949747,28.464466 -1.414213,-1.414214 3.535534,-3.535534 c 1.171572,-1.171571 1.171572,-3.071068 0,-4.24264 l -1.414214,-1.414214 c -1.171573,-1.171572 -3.071068,-1.171572 -4.242641,0 l -2.828427,2.828427 c -1.952621,1.952622 -5.118446,1.952622 -7.071068,0 l -0.707106,-0.707106 c -1.9526225,-1.952622 -1.9526225,-5.118447 0,-7.071068 l 2.828427,-2.828427 c 1.171572,-1.1715728 1.171572,-3.0710688 0,-4.2426408 l -1.414214,-1.414214 c -1.171573,-1.171573 -3.0710684,-1.171573 -4.2426409,0 L 2.3223298,10.07969 0.9081162,8.6654762 6.5649705,3.0086212 c 1.9526216,-1.952621 5.1184465,-1.952621 7.0710685,0 l 1.414213,1.414214 c 1.952622,1.952622 1.952622,5.118446 0,7.0710678 l -2.828427,2.828427 c -1.171573,1.171573 -1.171573,3.071068 0,4.242641 l 0.707107,0.707107 c 1.171573,1.171572 3.071068,1.171572 4.242641,0 L 20,16.443651 c 1.952621,-1.952622 5.118446,-1.952622 7.071068,0 l 1.414213,1.414213 c 1.952622,1.952622 1.952622,5.118446 0,7.071068 l -3.535534,3.535534 z"
     id="path2983" />
  <path
     style="fill:#000000;fill-opacity:1;stroke:none"
     d="m 23.535534,27.050252 -0.707107,-0.707106 3.535534,-3.535534 c 0.781048,-0.781048 0.781048,-2.047379 0,-2.828427 l -1.414214,-1.414214 c -0.781048,-0.781048 -2.047379,-0.781048 -2.828427,0 l -2.828427,2.828427 c -2.343146,2.343146 -6.142135,2.343146 -8.485281,0 l -0.707107,-0.707107 c -2.3431468,-2.343146 -2.3431468,-6.142135 0,-8.485281 l 2.828427,-2.8284278 c 0.781048,-0.781048 0.781048,-2.047378 0,-2.828427 l -1.414214,-1.414213 c -0.781048,-0.781048 -2.0473795,-0.781048 -2.8284273,0 L 3.0294366,10.786796 2.3223298,10.07969 7.9791841,4.4228352 c 1.1715725,-1.171573 3.0710679,-1.171573 4.2426409,0 l 1.414214,1.414214 c 1.171572,1.171572 1.171572,3.071068 0,4.2426408 l -2.828427,2.828427 c -1.9526225,1.952621 -1.9526225,5.118446 0,7.071068 l 0.707106,0.707106 c 1.952622,1.952622 5.118447,1.952622 7.071068,0 l 2.828427,-2.828427 c 1.171573,-1.171572 3.071068,-1.171572 4.242641,0 l 1.414214,1.414214 c 1.171572,1.171572 1.171572,3.071069 0,4.24264 l -3.535534,3.535534 z"
     id="path2980" />
  <path
     style="fill:#ffffff;fill-opacity:1;stroke:none"
     d="m 26.076699,31.005631 -5.060233,-0.0221 -0.0221,-5.060233 5.08233,5.08233 z"
     id="path3123" />
  <path
     style="fill:#000000;fill-opacity:1;stroke:none"
     d="m 10.807612,1.5944082 c -1.5620984,1.562097 -1.5620984,4.094757 0,5.656854 1.562097,1.562097 4.094757,1.562097 5.656854,0 1.562097,-1.562097 1.562097,-4.094757 0,-5.656854 -1.562097,-1.562097 -4.094757,-1.562097 -5.656854,0 z"
     id="path4071" />
  <path
     id="path4073"
     d="m 24.24264,15.029437 c -1.562097,1.562097 -1.562097,4.094757 0,5.656854 1.562098,1.562098 4.094758,1.562098 5.656855,0 1.562097,-1.562097 1.562097,-4.094757 0,-5.656854 -1.562097,-1.562097 -4.094757,-1.562097 -5.656855,0 z"
     style="fill:#000000;fill-opacity:1;stroke:none" />
  <path
     style="fill:#000000;fill-opacity:1;stroke:none"
     d="m 9.0398446,16.797204 c -1.5620975,1.562097 -1.5620975,4.094757 0,5.656854 1.5620974,1.562097 4.0947574,1.562097 5.6568544,0 1.562097,-1.562097 1.562097,-4.094757 0,-5.656854 -1.562097,-1.562097 -4.094757,-1.562097 -5.6568544,0 z"
     id="path4075" />
</svg>
