<?xml version="1.0" encoding="UTF-8" standalone="no"?>
<svg
   xmlns:dc="http://purl.org/dc/elements/1.1/"
   xmlns:cc="http://creativecommons.org/ns#"
   xmlns:rdf="http://www.w3.org/1999/02/22-rdf-syntax-ns#"
   xmlns:svg="http://www.w3.org/2000/svg"
   xmlns="http://www.w3.org/2000/svg"
   xmlns:sodipodi="http://sodipodi.sourceforge.net/DTD/sodipodi-0.dtd"
   xmlns:inkscape="http://www.inkscape.org/namespaces/inkscape"
   version="1.0"
   width="20"
   height="37"
   id="svg2"
   inkscape:version="0.47 r22583"
   sodipodi:docname="02-07-016-01-02-13.svg">
  <defs
     id="defs16">
    <inkscape:perspective
       sodipodi:type="inkscape:persp3d"
       inkscape:vp_x="0 : 23 : 1"
       inkscape:vp_y="0 : 1000 : 0"
       inkscape:vp_z="36 : 23 : 1"
       inkscape:persp3d-origin="18 : 15.333333 : 1"
       id="perspective18" />
  </defs>
  <sodipodi:namedview
     pagecolor="#ffffff"
     bordercolor="#666666"
     borderopacity="1"
     objecttolerance="10"
     gridtolerance="10"
     guidetolerance="10"
     inkscape:pageopacity="0"
     inkscape:pageshadow="2"
     inkscape:window-width="964"
     inkscape:window-height="721"
     id="namedview14"
     showgrid="true"
     inkscape:zoom="12.783784"
     inkscape:cx="10"
     inkscape:cy="18.5"
     inkscape:window-x="365"
     inkscape:window-y="0"
     inkscape:window-maximized="0"
     inkscape:current-layer="svg2"
     showborder="true">
    <inkscape:grid
       type="xygrid"
       id="grid2824"
       empspacing="5"
       visible="true"
       enabled="true"
       snapvisiblegridlinesonly="true" />
  </sodipodi:namedview>
  <metadata
     id="metadata4">
Valerie Sutton's pixel definition of the
ISWA 2010 symbol ID 04-01-003-01-01-01
transformed by Stephen E Slevinski Jr
using line and fill polygon tracing
<rdf:RDF>
  <cc:Work
     rdf:about="">
    <dc:format>image/svg+xml</dc:format>
    <dc:type
       rdf:resource="http://purl.org/dc/dcmitype/StillImage" />
    <dc:title></dc:title>
  </cc:Work>
</rdf:RDF>
</metadata>
  <path
     style="fill:#000000;fill-opacity:1;stroke:none"
     d="m 13,37 6,-6 -6,-6 0,12 z m 1,-2.40625 0,-7.1875 L 17.5625,31 14,34.59375 z"
     id="path2816" />
  <path
     style="fill:#000000;fill-opacity:1;stroke:none"
     d="m 13,33 0,-1 -5,0 C 5.238576,32 3,29.761424 3,27 l 0,-2 c 0,-2.761424 2.238576,-5 5,-5 l 4,0 c 1.656854,0 3,-1.343146 3,-3 l 0,-1 c 0,-1.656854 -1.343146,-3 -3,-3 L 8,13 C 5.238576,13 3,10.761424 3,8 L 3,6 C 3,3.238576 5.238576,1 8,1 L 16,1 16,0 8,0 C 4.686291,0 2,2.686291 2,6 l 0,2 c 0,3.313709 2.686291,6 6,6 l 4,0 c 1.104569,0 2,0.895431 2,2 l 0,1 c 0,1.104569 -0.895431,2 -2,2 l -4,0 c -3.313709,0 -6,2.686291 -6,6 l 0,2 c 0,3.313708 2.686291,6 6,6 l 5,0 z"
     id="path2986" />
  <path
     style="fill:#ffffff;fill-opacity:1;stroke:none"
     d="m 13,32 0,-2 -5,0 C 6.343146,30 5,28.656854 5,27 l 0,-2 c 0,-1.656854 1.343146,-3 3,-3 l 4,0 c 2.761424,0 5,-2.238576 5,-5 l 0,-1 c 0,-2.761424 -2.238576,-5 -5,-5 L 8,11 C 6.343146,11 5,9.656854 5,8 L 5,6 C 5,4.343146 6.343146,3 8,3 L 16,3 16,1 8,1 C 5.238576,1 3,3.238576 3,6 l 0,2 c 0,2.761424 2.238576,5 5,5 l 4,0 c 1.656854,0 3,1.343146 3,3 l 0,1 c 0,1.656854 -1.343146,3 -3,3 l -4,0 c -2.761424,0 -5,2.238576 -5,5 l 0,2 c 0,2.761424 2.238576,5 5,5 l 5,0 z"
     id="path2983" />
  <path
     style="fill:#000000;fill-opacity:1;stroke:none"
     d="m 13,30 0,-1 -5,0 C 6.895431,29 6,28.104569 6,27 l 0,-2 c 0,-1.104569 0.895431,-2 2,-2 l 4,0 c 3.313709,0 6,-2.686291 6,-6 l 0,-1 c 0,-3.313709 -2.686291,-6 -6,-6 L 8,10 C 6.895431,10 6,9.104569 6,8 L 6,6 C 6,4.895431 6.895431,4 8,4 L 16,4 16,3 8,3 C 6.343146,3 5,4.343146 5,6 l 0,2 c 0,1.656854 1.343146,3 3,3 l 4,0 c 2.761424,0 5,2.238576 5,5 l 0,1 c 0,2.761424 -2.238576,5 -5,5 l -4,0 c -1.656854,0 -3,1.343146 -3,3 l 0,2 c 0,1.656854 1.343146,3 3,3 l 5,0 z"
     id="path2980" />
  <path
     style="fill:#ffffff;fill-opacity:1;stroke:none"
     d="M 14,34.59375 17.5625,31 14,27.40625 l 0,7.1875 z"
     id="path3123" />
  <path
     style="fill:#000000;fill-opacity:1;stroke:none"
     d="M 4,3 C 6.209139,3 8,4.790861 8,7 8,9.209139 6.209139,11 4,11 1.790861,11 0,9.209139 0,7 0,4.790861 1.790861,3 4,3 z"
     id="path4071" />
  <path
     id="path4073"
     d="m 4,22 c 2.209139,0 4,1.790861 4,4 0,2.209139 -1.790861,4 -4,4 -2.209139,0 -4,-1.790861 -4,-4 0,-2.209139 1.790861,-4 4,-4 z"
     style="fill:#000000;fill-opacity:1;stroke:none" />
  <path
     style="fill:#000000;fill-opacity:1;stroke:none"
     d="m 16,12.5 c 2.209139,0 4,1.790861 4,4 0,2.209139 -1.790861,4 -4,4 -2.209139,0 -4,-1.790861 -4,-4 0,-2.209139 1.790861,-4 4,-4 z"
     id="path4075" />
</svg>
