<?xml version="1.0" encoding="UTF-8" standalone="no"?>
<svg
   xmlns:dc="http://purl.org/dc/elements/1.1/"
   xmlns:cc="http://creativecommons.org/ns#"
   xmlns:rdf="http://www.w3.org/1999/02/22-rdf-syntax-ns#"
   xmlns:svg="http://www.w3.org/2000/svg"
   xmlns="http://www.w3.org/2000/svg"
   xmlns:sodipodi="http://sodipodi.sourceforge.net/DTD/sodipodi-0.dtd"
   xmlns:inkscape="http://www.inkscape.org/namespaces/inkscape"
   version="1.0"
   width="22"
   height="37"
   id="svg2"
   inkscape:version="0.47 r22583"
   sodipodi:docname="02-07-016-01-03-01.svg">
  <defs
     id="defs16">
    <inkscape:perspective
       sodipodi:type="inkscape:persp3d"
       inkscape:vp_x="0 : 23 : 1"
       inkscape:vp_y="0 : 1000 : 0"
       inkscape:vp_z="36 : 23 : 1"
       inkscape:persp3d-origin="18 : 15.333333 : 1"
       id="perspective18" />
  </defs>
  <sodipodi:namedview
     pagecolor="#ffffff"
     bordercolor="#666666"
     borderopacity="1"
     objecttolerance="10"
     gridtolerance="10"
     guidetolerance="10"
     inkscape:pageopacity="0"
     inkscape:pageshadow="2"
     inkscape:window-width="964"
     inkscape:window-height="721"
     id="namedview14"
     showgrid="true"
     inkscape:zoom="12.783784"
     inkscape:cx="11"
     inkscape:cy="18.5"
     inkscape:window-x="365"
     inkscape:window-y="0"
     inkscape:window-maximized="0"
     inkscape:current-layer="svg2"
     showborder="true">
    <inkscape:grid
       type="xygrid"
       id="grid2824"
       empspacing="5"
       visible="true"
       enabled="true"
       snapvisiblegridlinesonly="true" />
  </sodipodi:namedview>
  <metadata
     id="metadata4">
Valerie Sutton's pixel definition of the
ISWA 2010 symbol ID 04-01-003-01-01-01
transformed by Stephen E Slevinski Jr
using line and fill polygon tracing
<rdf:RDF>
  <cc:Work
     rdf:about="">
    <dc:format>image/svg+xml</dc:format>
    <dc:type
       rdf:resource="http://purl.org/dc/dcmitype/StillImage" />
    <dc:title></dc:title>
  </cc:Work>
</rdf:RDF>
</metadata>
  <path
     style="fill:#000000;fill-opacity:1;stroke:none"
     d="M 8,0 2,6 8,12 8,10 4,6 8,2 8,0 z"
     id="path2816" />
  <path
     style="fill:#000000;fill-opacity:1;stroke:none"
     d="m 8,4 0,1 5,0 c 2.761424,0 5,2.2385763 5,5 l 0,2 c 0,2.761424 -2.238576,5 -5,5 l -4,0 c -1.656854,0 -3,1.343146 -3,3 l 0,1 c 0,1.656854 1.343146,3 3,3 l 4,0 c 2.761424,0 5,2.238576 5,5 l 0,2 c 0,2.761424 -2.238576,5 -5,5 l -8,0 0,1 8,0 c 3.313709,0 6,-2.686291 6,-6 l 0,-2 c 0,-3.313709 -2.686291,-6 -6,-6 L 9,23 C 7.895431,23 7,22.104569 7,21 l 0,-1 c 0,-1.104569 0.895431,-2 2,-2 l 4,0 c 3.313709,0 6,-2.686291 6,-6 l 0,-2 C 19,6.6862915 16.313709,4 13,4 L 8,4 z"
     id="path2986" />
  <path
     style="fill:#ffffff;fill-opacity:1;stroke:none"
     d="m 8,5 0,2 5,0 c 1.656854,0 3,1.3431458 3,3 l 0,2 c 0,1.656854 -1.343146,3 -3,3 l -4,0 c -2.761424,0 -5,2.238576 -5,5 l 0,1 c 0,2.761424 2.238576,5 5,5 l 4,0 c 1.656854,0 3,1.343146 3,3 l 0,2 c 0,1.656854 -1.343146,3 -3,3 l -8,0 0,2 8,0 c 2.761424,0 5,-2.238576 5,-5 l 0,-2 c 0,-2.761424 -2.238576,-5 -5,-5 L 9,24 C 7.343146,24 6,22.656854 6,21 l 0,-1 c 0,-1.656854 1.343146,-3 3,-3 l 4,0 c 2.761424,0 5,-2.238576 5,-5 l 0,-2 C 18,7.2385763 15.761424,5 13,5 L 8,5 z"
     id="path2983" />
  <path
     style="fill:#000000;fill-opacity:1;stroke:none"
     d="m 8,7 0,1 5,0 c 1.104569,0 2,0.8954305 2,2 l 0,2 c 0,1.104569 -0.895431,2 -2,2 l -4,0 c -3.313709,0 -6,2.686291 -6,6 l 0,1 c 0,3.313709 2.686291,6 6,6 l 4,0 c 1.104569,0 2,0.895431 2,2 l 0,2 c 0,1.104569 -0.895431,2 -2,2 l -8,0 0,1 8,0 c 1.656854,0 3,-1.343146 3,-3 l 0,-2 c 0,-1.656854 -1.343146,-3 -3,-3 L 9,26 C 6.238576,26 4,23.761424 4,21 l 0,-1 c 0,-2.761424 2.238576,-5 5,-5 l 4,0 c 1.656854,0 3,-1.343146 3,-3 l 0,-2 C 16,8.3431458 14.656854,7 13,7 L 8,7 z"
     id="path2980" />
  <path
     style="fill:#000000;fill-opacity:1;stroke:none"
     d="m 12,29 0,2 10,0 0,-2 -10,0 z"
     id="rect3805" />
  <path
     id="path3810"
     d="m 12,10 0,2 10,0 0,-2 -10,0 z"
     style="fill:#000000;fill-opacity:1;stroke:none" />
  <path
     style="fill:#000000;fill-opacity:1;stroke:none"
     d="m 0,20 0,2 10,0 0,-2 -10,0 z"
     id="path3812" />
</svg>
