<?xml version="1.0" encoding="UTF-8" standalone="no"?>
<svg
   xmlns:dc="http://purl.org/dc/elements/1.1/"
   xmlns:cc="http://creativecommons.org/ns#"
   xmlns:rdf="http://www.w3.org/1999/02/22-rdf-syntax-ns#"
   xmlns:svg="http://www.w3.org/2000/svg"
   xmlns="http://www.w3.org/2000/svg"
   xmlns:sodipodi="http://sodipodi.sourceforge.net/DTD/sodipodi-0.dtd"
   xmlns:inkscape="http://www.inkscape.org/namespaces/inkscape"
   version="1.0"
   width="45"
   height="17"
   id="svg2"
   inkscape:version="0.47 r22583"
   sodipodi:docname="02-08-002-04-03-04.svg">
  <defs
     id="defs16">
    <inkscape:perspective
       sodipodi:type="inkscape:persp3d"
       inkscape:vp_x="0 : 23 : 1"
       inkscape:vp_y="0 : 1000 : 0"
       inkscape:vp_z="36 : 23 : 1"
       inkscape:persp3d-origin="18 : 15.333333 : 1"
       id="perspective18" />
  </defs>
  <sodipodi:namedview
     pagecolor="#ffffff"
     bordercolor="#666666"
     borderopacity="1"
     objecttolerance="10"
     gridtolerance="10"
     guidetolerance="10"
     inkscape:pageopacity="0"
     inkscape:pageshadow="2"
     inkscape:window-width="964"
     inkscape:window-height="721"
     id="namedview14"
     showgrid="true"
     inkscape:zoom="16.701291"
     inkscape:cx="22.5"
     inkscape:cy="8.5"
     inkscape:window-x="365"
     inkscape:window-y="0"
     inkscape:window-maximized="0"
     inkscape:current-layer="svg2"
     showborder="true">
    <inkscape:grid
       type="xygrid"
       id="grid2824"
       empspacing="5"
       visible="true"
       enabled="true"
       snapvisiblegridlinesonly="true" />
  </sodipodi:namedview>
  <metadata
     id="metadata4">
Valerie Sutton's pixel definition of the
ISWA 2010 symbol ID 04-01-003-01-01-01
transformed by Stephen E Slevinski Jr
using line and fill polygon tracing
<rdf:RDF>
  <cc:Work
     rdf:about="">
    <dc:format>image/svg+xml</dc:format>
    <dc:type
       rdf:resource="http://purl.org/dc/dcmitype/StillImage" />
    <dc:title></dc:title>
  </cc:Work>
</rdf:RDF>
</metadata>
  <path
     style="fill:#000000;fill-opacity:1;stroke:none"
     d="M 43.376154,1.908117 C 41.423533,-0.044505 37.941125,0.272078 35.59798,2.615223 L 31.178562,7.034641 C 31.130905,5.90112 30.741756,4.830068 29.941125,4.029437 27.988504,2.076815 24.506096,2.393398 22.162951,4.736544 L 17.743534,9.155961 C 17.695876,8.022441 17.306728,6.951388 16.506097,6.150757 14.553475,4.198136 11.071068,4.514719 8.7279221,6.857864 l -7.7781746,7.778175 1.4142135,1.414213 7.778175,-7.778174 c 1.562097,-1.562098 3.778174,-1.87868 4.949747,-0.707107 1.171573,1.171573 0.85499,3.38765 -0.707107,4.949747 l -2.828427,2.828427 1.414214,1.414214 10.606601,-10.606602 c 1.562098,-1.562097 3.778175,-1.878679 4.949748,-0.707106 1.171573,1.171572 0.85499,3.38765 -0.707107,4.949747 l -2.828427,2.828427 1.414214,1.414214 10.606601,-10.606602 c 1.562097,-1.562097 3.778175,-1.87868 4.949748,-0.707107 1.171572,1.171573 0.85499,3.38765 -0.707107,4.949748 l -2.828427,2.828427 1.414213,1.414213 2.828428,-2.828427 c 2.343145,-2.343145 2.659728,-5.825553 0.707106,-7.778174 z"
     id="path3205" />
</svg>
