<?xml version="1.0" encoding="UTF-8" standalone="no"?>
<svg
   xmlns:dc="http://purl.org/dc/elements/1.1/"
   xmlns:cc="http://creativecommons.org/ns#"
   xmlns:rdf="http://www.w3.org/1999/02/22-rdf-syntax-ns#"
   xmlns:svg="http://www.w3.org/2000/svg"
   xmlns="http://www.w3.org/2000/svg"
   xmlns:sodipodi="http://sodipodi.sourceforge.net/DTD/sodipodi-0.dtd"
   xmlns:inkscape="http://www.inkscape.org/namespaces/inkscape"
   version="1.0"
   width="49"
   height="21"
   id="svg2"
   inkscape:version="0.47 r22583"
   sodipodi:docname="02-08-002-04-02-06.svg">
  <defs
     id="defs16">
    <inkscape:perspective
       sodipodi:type="inkscape:persp3d"
       inkscape:vp_x="0 : 23 : 1"
       inkscape:vp_y="0 : 1000 : 0"
       inkscape:vp_z="36 : 23 : 1"
       inkscape:persp3d-origin="18 : 15.333333 : 1"
       id="perspective18" />
  </defs>
  <sodipodi:namedview
     pagecolor="#ffffff"
     bordercolor="#666666"
     borderopacity="1"
     objecttolerance="10"
     gridtolerance="10"
     guidetolerance="10"
     inkscape:pageopacity="0"
     inkscape:pageshadow="2"
     inkscape:window-width="964"
     inkscape:window-height="721"
     id="namedview14"
     showgrid="true"
     inkscape:zoom="16.430711"
     inkscape:cx="24.5"
     inkscape:cy="10.5"
     inkscape:window-x="365"
     inkscape:window-y="0"
     inkscape:window-maximized="0"
     inkscape:current-layer="svg2"
     showborder="true">
    <inkscape:grid
       type="xygrid"
       id="grid2824"
       empspacing="5"
       visible="true"
       enabled="true"
       snapvisiblegridlinesonly="true" />
  </sodipodi:namedview>
  <metadata
     id="metadata4">
Valerie Sutton's pixel definition of the
ISWA 2010 symbol ID 04-01-003-01-01-01
transformed by Stephen E Slevinski Jr
using line and fill polygon tracing
<rdf:RDF>
  <cc:Work
     rdf:about="">
    <dc:format>image/svg+xml</dc:format>
    <dc:type
       rdf:resource="http://purl.org/dc/dcmitype/StillImage" />
    <dc:title></dc:title>
  </cc:Work>
</rdf:RDF>
</metadata>
  <path
     style="fill:#000000;fill-opacity:1;stroke:none"
     d="M 49,9.686291 49,21 37.686291,21 49,9.686291 z m -1.016466,2.43068 -7.866563,7.866563 7.88866,0.0221 -0.0221,-7.88866 z"
     id="path3203" />
  <path
     style="fill:#000000;fill-opacity:1;stroke:none"
     d="M 1.6238457,1.908117 C 3.5764673,-0.044505 7.0588749,0.272078 9.4020203,2.615223 l 4.4194177,4.419418 c 0.04766,-1.133521 0.436806,-2.204573 1.237436,-3.005204 1.952622,-1.952622 5.43503,-1.636039 7.778175,0.707107 l 4.419417,4.419417 c 0.04766,-1.13352 0.436806,-2.204573 1.237437,-3.005204 1.952622,-1.952621 5.43503,-1.636038 7.778175,0.707107 l 2.12132,2.12132 c 2.108185,2.108186 8.485282,2.828428 8.485282,2.828428 l -7.071068,7.071067 c 0,0 -0.720242,-6.377096 -2.828427,-8.485281 L 34.857864,8.272078 C 33.295767,6.70998 31.07969,6.393398 29.908117,7.564971 c -1.171573,1.171573 -0.85499,3.38765 0.707107,4.949747 l 2.828427,2.828427 -1.414214,1.414214 L 21.422836,6.150757 C 19.860738,4.58866 17.644661,4.272078 16.473088,5.443651 c -1.171573,1.171572 -0.85499,3.38765 0.707107,4.949747 l 2.828427,2.828427 -1.414214,1.414214 L 7.9878067,4.029437 C 6.4257095,2.46734 4.2096319,2.150757 3.0380592,3.32233 1.8664865,4.493903 2.1830688,6.70998 3.745166,8.272078 L 6.5735931,11.100505 5.1593796,12.514718 2.3309524,9.686291 C -0.012193,7.343146 -0.328776,3.860738 1.6238457,1.908117 z"
     id="path3205" />
  <path
     style="fill:#ffffff;fill-opacity:1;stroke:none"
     d="m 47.983534,12.116971 0.0221,7.88866 -7.88866,-0.0221 7.866563,-7.866563 z"
     id="path2909" />
</svg>
