<?xml version="1.0" encoding="UTF-8" standalone="no"?>
<svg
   xmlns:dc="http://purl.org/dc/elements/1.1/"
   xmlns:cc="http://creativecommons.org/ns#"
   xmlns:rdf="http://www.w3.org/1999/02/22-rdf-syntax-ns#"
   xmlns:svg="http://www.w3.org/2000/svg"
   xmlns="http://www.w3.org/2000/svg"
   xmlns:sodipodi="http://sodipodi.sourceforge.net/DTD/sodipodi-0.dtd"
   xmlns:inkscape="http://www.inkscape.org/namespaces/inkscape"
   version="1.0"
   width="51"
   height="21"
   id="svg2"
   inkscape:version="0.47 r22583"
   sodipodi:docname="02-08-002-04-04-08.svg">
  <defs
     id="defs16">
    <inkscape:perspective
       sodipodi:type="inkscape:persp3d"
       inkscape:vp_x="0 : 23 : 1"
       inkscape:vp_y="0 : 1000 : 0"
       inkscape:vp_z="36 : 23 : 1"
       inkscape:persp3d-origin="18 : 15.333333 : 1"
       id="perspective18" />
  </defs>
  <sodipodi:namedview
     pagecolor="#ffffff"
     bordercolor="#666666"
     borderopacity="1"
     objecttolerance="10"
     gridtolerance="10"
     guidetolerance="10"
     inkscape:pageopacity="0"
     inkscape:pageshadow="2"
     inkscape:window-width="964"
     inkscape:window-height="721"
     id="namedview14"
     showgrid="true"
     inkscape:zoom="16.921569"
     inkscape:cx="25.5"
     inkscape:cy="10.5"
     inkscape:window-x="365"
     inkscape:window-y="0"
     inkscape:window-maximized="0"
     inkscape:current-layer="svg2"
     showborder="true">
    <inkscape:grid
       type="xygrid"
       id="grid2824"
       empspacing="5"
       visible="true"
       enabled="true"
       snapvisiblegridlinesonly="true" />
  </sodipodi:namedview>
  <metadata
     id="metadata4">
Valerie Sutton's pixel definition of the
ISWA 2010 symbol ID 04-01-003-01-01-01
transformed by Stephen E Slevinski Jr
using line and fill polygon tracing
<rdf:RDF>
  <cc:Work
     rdf:about="">
    <dc:format>image/svg+xml</dc:format>
    <dc:type
       rdf:resource="http://purl.org/dc/dcmitype/StillImage" />
    <dc:title></dc:title>
  </cc:Work>
</rdf:RDF>
</metadata>
  <path
     style="fill:#000000;fill-opacity:1;stroke:none"
     d="M 0.1005051,16 10,16 10,6.100505 8.5857871,7.514719 l 0,7.071068 -7.071068,0 L 0.1005051,16 z"
     id="path2839" />
  <path
     style="fill:#000000;fill-opacity:1;stroke:none"
     d="m 2.2218261,2.564971 c -1.952622,1.952622 -1.952622,5.118446 0,7.071068 l 2.12132,2.12132 1.414214,-1.414213 -2.121321,-2.121321 c -1.171572,-1.171572 -1.171572,-3.071068 0,-4.24264 1.562097,-1.562097 4.094757,-1.562097 5.656855,0 l 8.4852809,8.485281 1.414213,-1.414213 -2.12132,-2.121321 c -1.171573,-1.171572 -1.171573,-3.071068 0,-4.24264 1.171573,-1.171573 3.071068,-1.171573 4.242641,0 l 9.192388,9.192388 1.414214,-1.414214 -2.121321,-2.12132 c -1.171572,-1.171573 -1.171572,-3.071068 0,-4.242641 1.171573,-1.171573 3.071068,-1.171573 4.242641,0 l 3.535534,3.535534 c 2.848001,2.848001 4.242641,11.313709 4.242641,11.313709 l 8.485281,-8.485282 c 0,0 -8.465707,-1.394639 -11.313709,-4.242641 L 35.455845,4.686292 c -1.952622,-1.952622 -5.118447,-1.952622 -7.071068,0 -0.794552,0.794551 -1.27246,1.792218 -1.414214,2.828427 L 22.727922,3.272078 c -1.952621,-1.952622 -5.118446,-1.952622 -7.071067,0 -0.794552,0.794552 -1.27246,1.792219 -1.414214,2.828427 L 10.707107,2.564971 c -2.3431459,-2.3431455 -6.1421359,-2.3431452 -8.4852809,0 z"
     id="path3213" />
</svg>
