<?xml version="1.0" encoding="UTF-8" standalone="no"?>
<svg
   xmlns:dc="http://purl.org/dc/elements/1.1/"
   xmlns:cc="http://creativecommons.org/ns#"
   xmlns:rdf="http://www.w3.org/1999/02/22-rdf-syntax-ns#"
   xmlns:svg="http://www.w3.org/2000/svg"
   xmlns="http://www.w3.org/2000/svg"
   xmlns:sodipodi="http://sodipodi.sourceforge.net/DTD/sodipodi-0.dtd"
   xmlns:inkscape="http://www.inkscape.org/namespaces/inkscape"
   version="1.0"
   width="33"
   height="47"
   id="svg2"
   inkscape:version="0.47 r22583"
   sodipodi:docname="02-08-002-04-03-05.svg">
  <defs
     id="defs16">
    <inkscape:perspective
       sodipodi:type="inkscape:persp3d"
       inkscape:vp_x="0 : 23 : 1"
       inkscape:vp_y="0 : 1000 : 0"
       inkscape:vp_z="36 : 23 : 1"
       inkscape:persp3d-origin="18 : 15.333333 : 1"
       id="perspective18" />
  </defs>
  <sodipodi:namedview
     pagecolor="#ffffff"
     bordercolor="#666666"
     borderopacity="1"
     objecttolerance="10"
     gridtolerance="10"
     guidetolerance="10"
     inkscape:pageopacity="0"
     inkscape:pageshadow="2"
     inkscape:window-width="964"
     inkscape:window-height="721"
     id="namedview14"
     showgrid="true"
     inkscape:zoom="10.06383"
     inkscape:cx="16.5"
     inkscape:cy="23.5"
     inkscape:window-x="365"
     inkscape:window-y="0"
     inkscape:window-maximized="0"
     inkscape:current-layer="svg2"
     showborder="true">
    <inkscape:grid
       type="xygrid"
       id="grid2824"
       empspacing="5"
       visible="true"
       enabled="true"
       snapvisiblegridlinesonly="true" />
  </sodipodi:namedview>
  <metadata
     id="metadata4">
Valerie Sutton's pixel definition of the
ISWA 2010 symbol ID 04-01-003-01-01-01
transformed by Stephen E Slevinski Jr
using line and fill polygon tracing
<rdf:RDF>
  <cc:Work
     rdf:about="">
    <dc:format>image/svg+xml</dc:format>
    <dc:type
       rdf:resource="http://purl.org/dc/dcmitype/StillImage" />
    <dc:title></dc:title>
  </cc:Work>
</rdf:RDF>
</metadata>
  <path
     style="fill:#000000;fill-opacity:1;stroke:none"
     d="m 33,39 -8,8 -8,-8 2,0 6,6 6,-6 2,0 z"
     id="path3203" />
  <path
     style="fill:#000000;fill-opacity:1;stroke:none"
     d="m 5,0 c 2.761424,0 5,2.686292 5,6 l 0,6.25 C 10.835219,11.482179 11.867737,11 13,11 c 2.761424,0 5,2.686292 5,6 l 0,6.25 C 18.835219,22.482179 19.867737,22 21,22 c 2.761424,0 5,2.686292 5,6 l 0,3 c 0,2.015945 1.815544,4.927523 3,6.625 L 29,39 21,39 21,37.625 C 22.184456,35.927523 24,33.015945 24,31 l 0,-3 c 0,-2.209139 -1.343146,-4 -3,-4 -1.656854,0 -3,1.790861 -3,4 l 0,4 -2,0 0,-15 c 0,-2.209139 -1.343146,-4 -3,-4 -1.656854,0 -3,1.790861 -3,4 L 10,21 8,21 8,6 C 8,3.790861 6.656854,2 5,2 3.343146,2 2,3.790861 2,6 L 2,10 0,10 0,6 C 0,2.686292 2.238576,0 5,0 z"
     id="path3205" />
</svg>
