<?xml version="1.0" encoding="UTF-8" standalone="no"?>
<svg
   xmlns:dc="http://purl.org/dc/elements/1.1/"
   xmlns:cc="http://creativecommons.org/ns#"
   xmlns:rdf="http://www.w3.org/1999/02/22-rdf-syntax-ns#"
   xmlns:svg="http://www.w3.org/2000/svg"
   xmlns="http://www.w3.org/2000/svg"
   xmlns:sodipodi="http://sodipodi.sourceforge.net/DTD/sodipodi-0.dtd"
   xmlns:inkscape="http://www.inkscape.org/namespaces/inkscape"
   version="1.0"
   width="47"
   height="18"
   id="svg2"
   inkscape:version="0.47 r22583"
   sodipodi:docname="02-08-002-04-04-03.svg">
  <defs
     id="defs16">
    <inkscape:perspective
       sodipodi:type="inkscape:persp3d"
       inkscape:vp_x="0 : 23 : 1"
       inkscape:vp_y="0 : 1000 : 0"
       inkscape:vp_z="36 : 23 : 1"
       inkscape:persp3d-origin="18 : 15.333333 : 1"
       id="perspective18" />
  </defs>
  <sodipodi:namedview
     pagecolor="#ffffff"
     bordercolor="#666666"
     borderopacity="1"
     objecttolerance="10"
     gridtolerance="10"
     guidetolerance="10"
     inkscape:pageopacity="0"
     inkscape:pageshadow="2"
     inkscape:window-width="964"
     inkscape:window-height="721"
     id="namedview14"
     showgrid="true"
     inkscape:zoom="17.12694"
     inkscape:cx="23.495643"
     inkscape:cy="8.9983315"
     inkscape:window-x="365"
     inkscape:window-y="0"
     inkscape:window-maximized="0"
     inkscape:current-layer="svg2"
     showborder="true">
    <inkscape:grid
       type="xygrid"
       id="grid2824"
       empspacing="5"
       visible="true"
       enabled="true"
       snapvisiblegridlinesonly="true" />
  </sodipodi:namedview>
  <metadata
     id="metadata4">
Valerie Sutton's pixel definition of the
ISWA 2010 symbol ID 04-01-003-01-01-01
transformed by Stephen E Slevinski Jr
using line and fill polygon tracing
<rdf:RDF>
  <cc:Work
     rdf:about="">
    <dc:format>image/svg+xml</dc:format>
    <dc:type
       rdf:resource="http://purl.org/dc/dcmitype/StillImage" />
    <dc:title></dc:title>
  </cc:Work>
</rdf:RDF>
</metadata>
  <path
     style="fill:#000000;fill-opacity:1;stroke:none"
     d="m 44.778175,2.5649713 c 1.952621,1.9526217 1.952621,5.1184457 0,7.0710677 l -2.121321,2.12132 -1.414213,-1.414213 2.12132,-2.12132 c 1.171573,-1.171573 1.171573,-3.071068 0,-4.242641 -1.562097,-1.5620973 -4.094757,-1.5620973 -5.656854,0 l -8.485282,8.485281 -1.414213,-1.414213 2.12132,-2.121321 c 1.171573,-1.171572 1.171573,-3.071068 0,-4.24264 -1.171573,-1.171573 -3.071068,-1.171573 -4.242641,0 l -9.192388,9.192388 -1.414213,-1.414214 2.12132,-2.12132 c 1.171573,-1.171573 1.171573,-3.071068 0,-4.242641 -1.171573,-1.171573 -3.071068,-1.171573 -4.242641,0 L 1.644661,17.414214 0.230447,16 11.544156,4.686292 c 1.952621,-1.952622 5.118446,-1.952622 7.071067,0 0.794552,0.794551 1.27246,1.792218 1.414214,2.828427 l 4.242641,-4.242641 c 1.952621,-1.9526216 5.118446,-1.9526216 7.071067,0 0.794552,0.794552 1.27246,1.792219 1.414214,2.828427 l 3.535534,-3.5355337 c 2.343146,-2.3431458 6.142136,-2.3431454 8.485282,0 z"
     id="path3213" />
</svg>
