<?xml version="1.0" encoding="UTF-8" standalone="no"?>
<svg
   xmlns:dc="http://purl.org/dc/elements/1.1/"
   xmlns:cc="http://creativecommons.org/ns#"
   xmlns:rdf="http://www.w3.org/1999/02/22-rdf-syntax-ns#"
   xmlns:svg="http://www.w3.org/2000/svg"
   xmlns="http://www.w3.org/2000/svg"
   xmlns:sodipodi="http://sodipodi.sourceforge.net/DTD/sodipodi-0.dtd"
   xmlns:inkscape="http://www.inkscape.org/namespaces/inkscape"
   version="1.0"
   width="38"
   height="41"
   id="svg2"
   inkscape:version="0.47 r22583"
   sodipodi:docname="02-08-002-04-04-03.svg">
  <defs
     id="defs16">
    <inkscape:perspective
       sodipodi:type="inkscape:persp3d"
       inkscape:vp_x="0 : 23 : 1"
       inkscape:vp_y="0 : 1000 : 0"
       inkscape:vp_z="36 : 23 : 1"
       inkscape:persp3d-origin="18 : 15.333333 : 1"
       id="perspective18" />
  </defs>
  <sodipodi:namedview
     pagecolor="#ffffff"
     bordercolor="#666666"
     borderopacity="1"
     objecttolerance="10"
     gridtolerance="10"
     guidetolerance="10"
     inkscape:pageopacity="0"
     inkscape:pageshadow="2"
     inkscape:window-width="964"
     inkscape:window-height="721"
     id="namedview14"
     showgrid="true"
     inkscape:zoom="11.536585"
     inkscape:cx="19"
     inkscape:cy="20.5"
     inkscape:window-x="365"
     inkscape:window-y="0"
     inkscape:window-maximized="0"
     inkscape:current-layer="svg2"
     showborder="true">
    <inkscape:grid
       type="xygrid"
       id="grid2824"
       empspacing="5"
       visible="true"
       enabled="true"
       snapvisiblegridlinesonly="true" />
  </sodipodi:namedview>
  <metadata
     id="metadata4">
Valerie Sutton's pixel definition of the
ISWA 2010 symbol ID 04-01-003-01-01-01
transformed by Stephen E Slevinski Jr
using line and fill polygon tracing
<rdf:RDF>
  <cc:Work
     rdf:about="">
    <dc:format>image/svg+xml</dc:format>
    <dc:type
       rdf:resource="http://purl.org/dc/dcmitype/StillImage" />
    <dc:title></dc:title>
  </cc:Work>
</rdf:RDF>
</metadata>
  <path
     style="fill:#000000;fill-opacity:1;stroke:none"
     d="M 0 8 L 7 15 L 14 8 L 0 8 z M 2.4375 9 L 11.5625 9 L 7 13.5625 L 2.4375 9 z "
     id="path2839" />
  <path
     style="fill:#000000;fill-opacity:1;stroke:none"
     d="M 11 0 C 8.238576 0 6 2.238576 6 5 L 6 8 L 8 8 L 8 5 C 8 3.343146 9.343146 2 11 2 C 13.209139 2 15 3.790861 15 6 L 15 18 L 17 18 L 17 15 C 17 13.343146 18.343146 12 20 12 C 21.656854 12 23 13.343146 23 15 L 23 28 L 25 28 L 25 25 C 25 23.343146 26.343146 22 28 22 C 29.656854 22 31 23.343146 31 25 L 31 30 C 31 34.027682 26 41 26 41 L 38 41 C 38 41 33 34.027682 33 30 L 33 25 C 33 22.238576 30.761424 20 28 20 C 26.876334 20 25.832945 20.367525 25 21 L 25 15 C 25 12.238576 22.761424 10 20 10 C 18.876334 10 17.832945 10.367525 17 11 L 17 6 C 17 2.6862915 14.313708 0 11 0 z "
     id="path3213" />
  <path
     style="fill:#ffffff;fill-opacity:1;stroke:none"
     d="M 2.4375 9 L 7 13.5625 L 11.5625 9 L 2.4375 9 z "
     id="path3300" />
</svg>
