<?xml version="1.0" encoding="UTF-8" standalone="no"?>
<svg
   xmlns:dc="http://purl.org/dc/elements/1.1/"
   xmlns:cc="http://creativecommons.org/ns#"
   xmlns:rdf="http://www.w3.org/1999/02/22-rdf-syntax-ns#"
   xmlns:svg="http://www.w3.org/2000/svg"
   xmlns="http://www.w3.org/2000/svg"
   xmlns:sodipodi="http://sodipodi.sourceforge.net/DTD/sodipodi-0.dtd"
   xmlns:inkscape="http://www.inkscape.org/namespaces/inkscape"
   version="1.0"
   width="33"
   height="47"
   id="svg2"
   inkscape:version="0.47 r22583"
   sodipodi:docname="02-08-002-04-01-04.svg">
  <defs
     id="defs16">
    <inkscape:perspective
       sodipodi:type="inkscape:persp3d"
       inkscape:vp_x="0 : 23 : 1"
       inkscape:vp_y="0 : 1000 : 0"
       inkscape:vp_z="36 : 23 : 1"
       inkscape:persp3d-origin="18 : 15.333333 : 1"
       id="perspective18" />
  </defs>
  <sodipodi:namedview
     pagecolor="#ffffff"
     bordercolor="#666666"
     borderopacity="1"
     objecttolerance="10"
     gridtolerance="10"
     guidetolerance="10"
     inkscape:pageopacity="0"
     inkscape:pageshadow="2"
     inkscape:window-width="964"
     inkscape:window-height="721"
     id="namedview14"
     showgrid="true"
     inkscape:zoom="10.06383"
     inkscape:cx="16.5"
     inkscape:cy="23.5"
     inkscape:window-x="365"
     inkscape:window-y="0"
     inkscape:window-maximized="0"
     inkscape:current-layer="svg2"
     showborder="true">
    <inkscape:grid
       type="xygrid"
       id="grid2824"
       empspacing="5"
       visible="true"
       enabled="true"
       snapvisiblegridlinesonly="true" />
  </sodipodi:namedview>
  <metadata
     id="metadata4">
Valerie Sutton's pixel definition of the
ISWA 2010 symbol ID 04-01-003-01-01-01
transformed by Stephen E Slevinski Jr
using line and fill polygon tracing
<rdf:RDF>
  <cc:Work
     rdf:about="">
    <dc:format>image/svg+xml</dc:format>
    <dc:type
       rdf:resource="http://purl.org/dc/dcmitype/StillImage" />
    <dc:title></dc:title>
  </cc:Work>
</rdf:RDF>
</metadata>
  <path
     style="fill:#000000;fill-opacity:1;stroke:none"
     d="M 0 39 L 8 47 L 16 39 L 0 39 z M 2.4375 40 L 13.5625 40 L 8 45.59375 L 2.4375 40 z "
     id="path3203" />
  <path
     style="fill:#000000;fill-opacity:1;stroke:none"
     d="M 28 0 C 25.238576 0 23 2.686292 23 6 L 23 12.25 C 22.164781 11.482179 21.132263 11 20 11 C 17.238576 11 15 13.686292 15 17 L 15 23.25 C 14.164781 22.482179 13.132263 22 12 22 C 9.2385763 22 7 24.686292 7 28 L 7 31 C 7 33.981424 3 39 3 39 L 13 39 C 13 39 9 33.981424 9 31 L 9 28 C 9 25.790861 10.343146 24 12 24 C 13.656854 24 15 25.790861 15 28 L 15 32 L 17 32 L 17 17 C 17 14.790861 18.343146 13 20 13 C 21.656854 13 23 14.790861 23 17 L 23 21 L 25 21 L 25 6 C 25 3.790861 26.343146 2 28 2 C 29.656854 2 31 3.790861 31 6 L 31 10 L 33 10 L 33 6 C 33 2.686292 30.761424 0 28 0 z "
     id="path3205" />
  <path
     style="fill:#ffffff;fill-opacity:1;stroke:none"
     d="M 2.4375 40 L 8 45.59375 L 13.5625 40 L 2.4375 40 z "
     id="path2909" />
</svg>
