<?xml version="1.0" encoding="UTF-8" standalone="no"?>
<svg
   xmlns:dc="http://purl.org/dc/elements/1.1/"
   xmlns:cc="http://creativecommons.org/ns#"
   xmlns:rdf="http://www.w3.org/1999/02/22-rdf-syntax-ns#"
   xmlns:svg="http://www.w3.org/2000/svg"
   xmlns="http://www.w3.org/2000/svg"
   xmlns:sodipodi="http://sodipodi.sourceforge.net/DTD/sodipodi-0.dtd"
   xmlns:inkscape="http://www.inkscape.org/namespaces/inkscape"
   version="1.0"
   width="28"
   height="34"
   id="svg2"
   inkscape:version="0.47 r22583"
   sodipodi:docname="02-08-009-03-03-04.svg">
  <defs
     id="defs16">
    <inkscape:perspective
       sodipodi:type="inkscape:persp3d"
       inkscape:vp_x="0 : 23 : 1"
       inkscape:vp_y="0 : 1000 : 0"
       inkscape:vp_z="36 : 23 : 1"
       inkscape:persp3d-origin="18 : 15.333333 : 1"
       id="perspective18" />
  </defs>
  <sodipodi:namedview
     pagecolor="#ffffff"
     bordercolor="#666666"
     borderopacity="1"
     objecttolerance="10"
     gridtolerance="10"
     guidetolerance="10"
     inkscape:pageopacity="0"
     inkscape:pageshadow="2"
     inkscape:window-width="964"
     inkscape:window-height="721"
     id="namedview14"
     showgrid="true"
     inkscape:zoom="13.911765"
     inkscape:cx="14"
     inkscape:cy="17"
     inkscape:window-x="365"
     inkscape:window-y="0"
     inkscape:window-maximized="0"
     inkscape:current-layer="svg2"
     showborder="true">
    <inkscape:grid
       type="xygrid"
       id="grid2824"
       empspacing="5"
       visible="true"
       enabled="true"
       snapvisiblegridlinesonly="true" />
  </sodipodi:namedview>
  <metadata
     id="metadata4">
Valerie Sutton's pixel definition of the
ISWA 2010 symbol ID 04-01-003-01-01-01
transformed by Stephen E Slevinski Jr
using line and fill polygon tracing
<rdf:RDF>
  <cc:Work
     rdf:about="">
    <dc:format>image/svg+xml</dc:format>
    <dc:type
       rdf:resource="http://purl.org/dc/dcmitype/StillImage" />
    <dc:title></dc:title>
  </cc:Work>
</rdf:RDF>
</metadata>
  <path
     style="fill:#000000;fill-opacity:1;stroke:none"
     d="M 7 21 L 0 28 L 14 28 L 7 21 z M 7 22.4375 L 11.5625 27 L 2.4375 27 L 7 22.4375 z "
     id="path2839" />
  <path
     style="fill:#000000;fill-opacity:1;stroke:none"
     d="M 26 0 L 26 11 C 26 11.552285 25.552285 12 25 12 C 24.723858 12 24.462214 11.899714 24.28125 11.71875 L 21 8.4375 L 21 11.25 L 21 21 C 21 21.552285 20.552285 22 20 22 C 19.723858 22 19.462214 21.899714 19.28125 21.71875 L 16 18.4375 L 16 21.25 L 16 29 C 16 30.656854 14.656854 32 13 32 C 11.343146 32 10 30.209139 10 28 L 4 28 C 4 31.313708 6.6862915 34 10 34 L 13 34 C 15.761424 34 18 31.761424 18 29 L 18 23.21875 C 18.532177 23.697811 19.227614 24 20 24 C 21.656854 24 23 22.656854 23 21 L 23 13.21875 C 23.532177 13.697811 24.227614 14 25 14 C 26.656854 14 28 12.656854 28 11 L 28 0 L 26 0 z "
     id="path3173" />
  <path
     style="fill:#ffffff;fill-opacity:1;stroke:none"
     d="M 7 22.4375 L 2.4375 27 L 11.5625 27 L 7 22.4375 z "
     id="path2912" />
</svg>
