<?xml version="1.0" encoding="UTF-8" standalone="no"?>
<svg
   xmlns:dc="http://purl.org/dc/elements/1.1/"
   xmlns:cc="http://creativecommons.org/ns#"
   xmlns:rdf="http://www.w3.org/1999/02/22-rdf-syntax-ns#"
   xmlns:svg="http://www.w3.org/2000/svg"
   xmlns="http://www.w3.org/2000/svg"
   xmlns:sodipodi="http://sodipodi.sourceforge.net/DTD/sodipodi-0.dtd"
   xmlns:inkscape="http://www.inkscape.org/namespaces/inkscape"
   version="1.0"
   width="35"
   height="35"
   id="svg2"
   inkscape:version="0.47 r22583"
   sodipodi:docname="04-02-005-06-05-01.svg">
  <defs
     id="defs14">
    <inkscape:perspective
       sodipodi:type="inkscape:persp3d"
       inkscape:vp_x="0 : 2 : 1"
       inkscape:vp_y="0 : 1000 : 0"
       inkscape:vp_z="8 : 2 : 1"
       inkscape:persp3d-origin="4 : 1.3333333 : 1"
       id="perspective16" />
  </defs>
  <sodipodi:namedview
     pagecolor="#ffffff"
     bordercolor="#666666"
     borderopacity="1"
     objecttolerance="10"
     gridtolerance="10"
     guidetolerance="10"
     inkscape:pageopacity="0"
     inkscape:pageshadow="2"
     inkscape:window-width="1035"
     inkscape:window-height="791"
     id="namedview12"
     showgrid="true"
     inkscape:zoom="15.81"
     inkscape:cx="17.50389"
     inkscape:cy="17.5"
     inkscape:window-x="208"
     inkscape:window-y="0"
     inkscape:window-maximized="0"
     inkscape:current-layer="svg2">
    <inkscape:grid
       type="xygrid"
       id="grid2822" />
  </sodipodi:namedview>
  <metadata
     id="metadata4">
Valerie Sutton's pixel definition of the
ISWA 2010 symbol ID 04-02-004-01-05-01
transformed by Stephen E Slevinski Jr
using line and fill polygon tracing
<rdf:RDF>
  <cc:Work
     rdf:about="">
    <dc:format>image/svg+xml</dc:format>
    <dc:type
       rdf:resource="http://purl.org/dc/dcmitype/StillImage" />
    <dc:title></dc:title>
  </cc:Work>
</rdf:RDF>
</metadata>
  <path
     style="fill:#000000;fill-opacity:1;stroke:none"
     d="M 17.5 0 C 7.8350169 4.7369516e-15 1.087327e-16 7.8350169 0 17.5 C 0 27.164983 7.8350169 35 17.5 35 C 27.164983 35 35 27.164983 35 17.5 C 35 7.8350169 27.164983 -3.443981e-15 17.5 0 z M 17.5 2 C 26.060414 2 33 8.9395864 33 17.5 C 33 26.060414 26.060414 33 17.5 33 C 8.9395864 33 2 26.060414 2 17.5 C 2 8.9395864 8.9395864 2 17.5 2 z "
     id="path2905" />
  <path
     style="fill:#000000;fill-opacity:1;stroke:none"
     d="m 24.00025,7 0,4.0625 c -0.412795,0.04123 -0.81623,0.08511 -1.1875,0.21875 L 21.969,8.125 21.00025,8.40625 21.9065,11.75 c -0.210326,0.132041 -0.412174,0.244849 -0.59375,0.40625 -0.0285,0.02534 -0.03477,0.06775 -0.0625,0.09375 L 19.1565,10.15625 18.469,10.875 20.594,13.03125 C 20.225305,13.611472 20.00025,14.286091 20.00025,15 l 1,0 c 0,-0.138071 0.01588,-0.276055 0.0625,-0.40625 C 21.389112,13.682384 22.808878,13 24.50025,13 c 1.932997,0 3.5,0.895431 3.5,2 l 1,0 c 0,-0.276142 -0.03381,-0.55211 -0.09375,-0.8125 -0.09503,-0.412795 -0.273918,-0.80046 -0.5,-1.15625 L 30.5315,10.875 29.844,10.15625 27.75025,12.25 c -0.02773,-0.026 -0.034,-0.06841 -0.0625,-0.09375 C 27.506174,11.994849 27.304326,11.882041 27.094,11.75 L 28.00025,8.40625 27.0315,8.125 26.18775,11.28125 c -0.249998,-0.08999 -0.511279,-0.138394 -0.78125,-0.1875 -0.130961,-0.02382 -0.271414,-0.01778 -0.40625,-0.03125 l 0,-4.0625 -1,0 z"
     id="path2960" />
</svg>
