<?xml version="1.0" encoding="UTF-8" standalone="no"?>
<svg
   xmlns:dc="http://purl.org/dc/elements/1.1/"
   xmlns:cc="http://creativecommons.org/ns#"
   xmlns:rdf="http://www.w3.org/1999/02/22-rdf-syntax-ns#"
   xmlns:svg="http://www.w3.org/2000/svg"
   xmlns="http://www.w3.org/2000/svg"
   xmlns:sodipodi="http://sodipodi.sourceforge.net/DTD/sodipodi-0.dtd"
   xmlns:inkscape="http://www.inkscape.org/namespaces/inkscape"
   version="1.0"
   width="37"
   height="54"
   id="svg2"
   inkscape:version="0.47 r22583"
   sodipodi:docname="02-06-002-04-03-01.svg">
  <defs
     id="defs16">
    <inkscape:perspective
       sodipodi:type="inkscape:persp3d"
       inkscape:vp_x="0 : 23 : 1"
       inkscape:vp_y="0 : 1000 : 0"
       inkscape:vp_z="36 : 23 : 1"
       inkscape:persp3d-origin="18 : 15.333333 : 1"
       id="perspective18" />
  </defs>
  <sodipodi:namedview
     pagecolor="#ffffff"
     bordercolor="#666666"
     borderopacity="1"
     objecttolerance="10"
     gridtolerance="10"
     guidetolerance="10"
     inkscape:pageopacity="0"
     inkscape:pageshadow="2"
     inkscape:window-width="964"
     inkscape:window-height="721"
     id="namedview14"
     showgrid="true"
     inkscape:zoom="8.7592593"
     inkscape:cx="18.5"
     inkscape:cy="27"
     inkscape:window-x="365"
     inkscape:window-y="0"
     inkscape:window-maximized="0"
     inkscape:current-layer="svg2"
     showborder="true">
    <inkscape:grid
       type="xygrid"
       id="grid2824"
       empspacing="5"
       visible="true"
       enabled="true"
       snapvisiblegridlinesonly="true" />
  </sodipodi:namedview>
  <metadata
     id="metadata4">
Valerie Sutton's pixel definition of the
ISWA 2010 symbol ID 04-01-003-01-01-01
transformed by Stephen E Slevinski Jr
using line and fill polygon tracing
<rdf:RDF>
  <cc:Work
     rdf:about="">
    <dc:format>image/svg+xml</dc:format>
    <dc:type
       rdf:resource="http://purl.org/dc/dcmitype/StillImage" />
    <dc:title></dc:title>
  </cc:Work>
</rdf:RDF>
</metadata>
  <path
     style="fill:#000000;fill-opacity:1;stroke:none"
     d="M 8 0 L 0.5 7.5 L 8 15 L 8 0 z M 7 2.4375 L 7 12.5625 L 1.9375 7.5 L 7 2.4375 z "
     id="path3418" />
  <path
     style="fill:#000000;fill-opacity:1;stroke:none"
     d="M 8 4 L 8 5.5 L 12 5.5 C 24.978692 5.5 35.5 16.021308 35.5 29 C 35.5 41.978692 24.978692 52.5 12 52.5 L 4 52.5 L 4 54 L 12 54 C 25.807119 54 37 42.807119 37 29 C 37 15.192881 25.807119 4 12 4 L 8 4 z "
     id="path3423" />
  <path
     style="fill:#ffffff;fill-opacity:1;stroke:none"
     d="M 8 5.5 L 8 9.5 L 12 9.5 C 22.769553 9.5 31.5 18.230447 31.5 29 C 31.5 39.769553 22.769553 48.5 12 48.5 L 4 48.5 L 4 52.5 L 12 52.5 C 24.978692 52.5 35.5 41.978692 35.5 29 C 35.5 16.021308 24.978692 5.5 12 5.5 L 8 5.5 z "
     id="path3425" />
  <path
     style="fill:#000000;fill-opacity:1;stroke:none"
     d="M 8 9.5 L 8 11 L 12 11 C 21.941125 11 30 19.058875 30 29 C 30 38.941125 21.941125 47 12 47 L 4 47 L 4 48.5 L 12 48.5 C 22.769553 48.5 31.5 39.769553 31.5 29 C 31.5 18.230447 22.769553 9.5 12 9.5 L 8 9.5 z "
     id="path3430" />
  <path
     style="fill:#ffffff;fill-opacity:1;stroke:none"
     d="M 7 2.4375 L 1.9375 7.5 L 7 12.5625 L 7 2.4375 z "
     id="path3522" />
</svg>
