<?xml version="1.0" encoding="UTF-8" standalone="no"?>
<svg
   xmlns:dc="http://purl.org/dc/elements/1.1/"
   xmlns:cc="http://creativecommons.org/ns#"
   xmlns:rdf="http://www.w3.org/1999/02/22-rdf-syntax-ns#"
   xmlns:svg="http://www.w3.org/2000/svg"
   xmlns="http://www.w3.org/2000/svg"
   xmlns:sodipodi="http://sodipodi.sourceforge.net/DTD/sodipodi-0.dtd"
   xmlns:inkscape="http://www.inkscape.org/namespaces/inkscape"
   version="1.0"
   width="33"
   height="50"
   id="svg2"
   inkscape:version="0.47 r22583"
   sodipodi:docname="02-06-002-04-02-01.svg">
  <defs
     id="defs16">
    <inkscape:perspective
       sodipodi:type="inkscape:persp3d"
       inkscape:vp_x="0 : 23 : 1"
       inkscape:vp_y="0 : 1000 : 0"
       inkscape:vp_z="36 : 23 : 1"
       inkscape:persp3d-origin="18 : 15.333333 : 1"
       id="perspective18" />
  </defs>
  <sodipodi:namedview
     pagecolor="#ffffff"
     bordercolor="#666666"
     borderopacity="1"
     objecttolerance="10"
     gridtolerance="10"
     guidetolerance="10"
     inkscape:pageopacity="0"
     inkscape:pageshadow="2"
     inkscape:window-width="964"
     inkscape:window-height="721"
     id="namedview14"
     showgrid="true"
     inkscape:zoom="9.46"
     inkscape:cx="16.5"
     inkscape:cy="25"
     inkscape:window-x="365"
     inkscape:window-y="0"
     inkscape:window-maximized="0"
     inkscape:current-layer="svg2"
     showborder="true">
    <inkscape:grid
       type="xygrid"
       id="grid2824"
       empspacing="5"
       visible="true"
       enabled="true"
       snapvisiblegridlinesonly="true" />
  </sodipodi:namedview>
  <metadata
     id="metadata4">
Valerie Sutton's pixel definition of the
ISWA 2010 symbol ID 04-01-003-01-01-01
transformed by Stephen E Slevinski Jr
using line and fill polygon tracing
<rdf:RDF>
  <cc:Work
     rdf:about="">
    <dc:format>image/svg+xml</dc:format>
    <dc:type
       rdf:resource="http://purl.org/dc/dcmitype/StillImage" />
    <dc:title></dc:title>
  </cc:Work>
</rdf:RDF>
</metadata>
  <path
     style="fill:#000000;fill-opacity:1;stroke:none"
     d="m 4,0 0,1.5 4,0 C 20.978692,1.5 31.5,12.021308 31.5,25 31.5,37.978692 20.978692,48.5 8,48.5 l -8,0 0,1.5 8,0 C 21.807119,50 33,38.807119 33,25 33,11.192881 21.807119,0 8,0 L 4,0 z"
     id="path3423" />
  <path
     style="fill:#ffffff;fill-opacity:1;stroke:none"
     d="m 4,1.5 0,4 4,0 c 10.769553,0 19.5,8.730447 19.5,19.5 0,10.769553 -8.730447,19.5 -19.5,19.5 l -8,0 0,4 8,0 C 20.978692,48.5 31.5,37.978692 31.5,25 31.5,12.021308 20.978692,1.5 8,1.5 l -4,0 z"
     id="path3425" />
  <path
     style="fill:#000000;fill-opacity:1;stroke:none"
     d="M 4,5.5 4,7 8,7 c 9.941125,0 18,8.058875 18,18 0,9.941125 -8.058875,18 -18,18 l -8,0 0,1.5 8,0 C 18.769553,44.5 27.5,35.769553 27.5,25 27.5,14.230447 18.769553,5.5 8,5.5 l -4,0 z"
     id="path3430" />
</svg>
