<?xml version="1.0" encoding="UTF-8" standalone="no"?>
<svg
   xmlns:dc="http://purl.org/dc/elements/1.1/"
   xmlns:cc="http://creativecommons.org/ns#"
   xmlns:rdf="http://www.w3.org/1999/02/22-rdf-syntax-ns#"
   xmlns:svg="http://www.w3.org/2000/svg"
   xmlns="http://www.w3.org/2000/svg"
   xmlns:sodipodi="http://sodipodi.sourceforge.net/DTD/sodipodi-0.dtd"
   xmlns:inkscape="http://www.inkscape.org/namespaces/inkscape"
   version="1.0"
   width="35"
   height="35"
   id="svg2"
   inkscape:version="0.47 r22583"
   sodipodi:docname="04-01-001-01-04-03.svg">
  <defs
     id="defs14">
    <inkscape:perspective
       sodipodi:type="inkscape:persp3d"
       inkscape:vp_x="0 : 17.5 : 1"
       inkscape:vp_y="0 : 1000 : 0"
       inkscape:vp_z="42 : 17.5 : 1"
       inkscape:persp3d-origin="21 : 11.666667 : 1"
       id="perspective16" />
  </defs>
  <sodipodi:namedview
     pagecolor="#ffffff"
     bordercolor="#666666"
     borderopacity="1"
     objecttolerance="10"
     gridtolerance="10"
     guidetolerance="10"
     inkscape:pageopacity="0"
     inkscape:pageshadow="2"
     inkscape:window-width="992"
     inkscape:window-height="790"
     id="namedview12"
     showgrid="true"
     inkscape:zoom="13.485714"
     inkscape:cx="20.894918"
     inkscape:cy="18.104819"
     inkscape:window-x="0"
     inkscape:window-y="0"
     inkscape:window-maximized="0"
     inkscape:current-layer="svg2">
    <inkscape:grid
       type="xygrid"
       id="grid2822" />
  </sodipodi:namedview>
  <metadata
     id="metadata4">
Valerie Sutton's pixel definition of the
ISWA 2010 symbol ID 04-01-001-01-04-02
transformed by Stephen E Slevinski Jr
using line and fill polygon tracing
<rdf:RDF>
  <cc:Work
     rdf:about="">
    <dc:format>image/svg+xml</dc:format>
    <dc:type
       rdf:resource="http://purl.org/dc/dcmitype/StillImage" />
    <dc:title></dc:title>
  </cc:Work>
</rdf:RDF>
</metadata>
  <path
     style="fill:#000000;fill-opacity:1;stroke:none"
     d="m 29.874368,5.1256318 c -6.834175,-6.834175 -17.914562,-6.8341751 -24.7487368,0 -6.834175,6.8341752 -6.834175,17.9145622 0,24.7487372 6.8341748,6.834175 17.9145618,6.834175 24.7487368,0 6.834175,-6.834175 6.834175,-17.914562 0,-24.7487371 z m -1.414213,1.4142135 c 6.053127,6.0531267 6.053126,15.8671837 0,21.9203107 -6.053127,6.053127 -15.867184,6.053127 -21.9203097,0 -6.05312725,-6.053127 -6.05312725,-15.867184 0,-21.9203107 6.0531257,-6.05312645 15.8671827,-6.05312675 21.9203097,0 z"
     id="path2824" />
  <path
     style="fill:#000000;fill-opacity:1;stroke:none"
     d="m 15.201903,0.17588435 -15.02601915,0 0,15.02601965 C 0.45676775,13.072037 1.1000281,10.988605 2.1646217,9.0589137 l 0,-6.8942916 6.8942916,0 C 10.988604,1.1000285 13.072036,0.45676835 15.201903,0.17588435 z"
     id="rect2829" />
</svg>
