<?xml version="1.0" encoding="UTF-8" standalone="no"?>
<svg
   xmlns:dc="http://purl.org/dc/elements/1.1/"
   xmlns:cc="http://creativecommons.org/ns#"
   xmlns:rdf="http://www.w3.org/1999/02/22-rdf-syntax-ns#"
   xmlns:svg="http://www.w3.org/2000/svg"
   xmlns="http://www.w3.org/2000/svg"
   xmlns:sodipodi="http://sodipodi.sourceforge.net/DTD/sodipodi-0.dtd"
   xmlns:inkscape="http://www.inkscape.org/namespaces/inkscape"
   version="1.0"
   width="43"
   height="35"
   id="svg2"
   inkscape:version="0.47 r22583"
   sodipodi:docname="04-01-001-01-01-03.svg">
  <defs
     id="defs18">
    <inkscape:perspective
       sodipodi:type="inkscape:persp3d"
       inkscape:vp_x="0 : 17.5 : 1"
       inkscape:vp_y="0 : 1000 : 0"
       inkscape:vp_z="44 : 17.5 : 1"
       inkscape:persp3d-origin="22 : 11.666667 : 1"
       id="perspective20" />
  </defs>
  <sodipodi:namedview
     pagecolor="#ffffff"
     bordercolor="#666666"
     borderopacity="1"
     objecttolerance="10"
     gridtolerance="10"
     guidetolerance="10"
     inkscape:pageopacity="0"
     inkscape:pageshadow="2"
     inkscape:window-width="997"
     inkscape:window-height="792"
     id="namedview16"
     showgrid="true"
     inkscape:zoom="11.737555"
     inkscape:cx="19.70354"
     inkscape:cy="17.927702"
     inkscape:window-x="0"
     inkscape:window-y="0"
     inkscape:window-maximized="0"
     inkscape:current-layer="svg2">
    <inkscape:grid
       type="xygrid"
       id="grid2826" />
  </sodipodi:namedview>
  <metadata
     id="metadata4">
Valerie Sutton's pixel definition of the
ISWA 2010 symbol ID 04-01-001-01-01-03
transformed by Stephen E Slevinski Jr
using line and fill polygon tracing
<rdf:RDF>
  <cc:Work
     rdf:about="">
    <dc:format>image/svg+xml</dc:format>
    <dc:type
       rdf:resource="http://purl.org/dc/dcmitype/StillImage" />
    <dc:title />
  </cc:Work>
</rdf:RDF>
</metadata>
  <path
     style="fill:#000000;fill-opacity:1;stroke:none"
     d="M 21.5 0 C 11.835017 4.7369516e-15 4 7.8350169 4 17.5 C 4 27.164983 11.835017 35 21.5 35 C 31.164983 35 39 27.164983 39 17.5 C 39 7.8350169 31.164983 -3.443981e-15 21.5 0 z M 21.5 2 C 30.060414 2 37 8.9395864 37 17.5 C 37 26.060414 30.060414 33 21.5 33 C 12.939586 33 6 26.060414 6 17.5 C 6 8.9395864 12.939586 2 21.5 2 z "
     id="path2818" />
  <path
     style="fill:#000000;fill-opacity:1;stroke:none"
     d="M 4 5 C 1.480171 8.5218104 0 12.839326 0 17.5 C 0 22.160674 1.480171 26.47819 4 30 L 5.65625 28.8125 C 3.3735497 25.61945 2 21.724356 2 17.5 C 2 13.275644 3.3735497 9.3805497 5.65625 6.1875 L 4 5 z "
     id="path2831" />
  <path
     style="fill:#000000;fill-opacity:1;stroke:none"
     d="M 39 5 L 37.34375 6.1875 C 39.62645 9.3805497 41 13.275644 41 17.5 C 41 21.724356 39.62645 25.61945 37.34375 28.8125 L 39 30 C 41.519829 26.47819 43 22.160674 43 17.5 C 43 12.839326 41.519829 8.5218104 39 5 z "
     id="path2823" />
</svg>
