<?xml version="1.0" encoding="UTF-8" standalone="no"?>
<svg
   xmlns:dc="http://purl.org/dc/elements/1.1/"
   xmlns:cc="http://creativecommons.org/ns#"
   xmlns:rdf="http://www.w3.org/1999/02/22-rdf-syntax-ns#"
   xmlns:svg="http://www.w3.org/2000/svg"
   xmlns="http://www.w3.org/2000/svg"
   xmlns:sodipodi="http://sodipodi.sourceforge.net/DTD/sodipodi-0.dtd"
   xmlns:inkscape="http://www.inkscape.org/namespaces/inkscape"
   version="1.0"
   width="35"
   height="48"
   id="svg2"
   inkscape:version="0.47 r22583"
   sodipodi:docname="04-01-001-01-03-02.svg">
  <defs
     id="defs14">
    <inkscape:perspective
       sodipodi:type="inkscape:persp3d"
       inkscape:vp_x="0 : 17.5 : 1"
       inkscape:vp_y="0 : 1000 : 0"
       inkscape:vp_z="48 : 17.5 : 1"
       inkscape:persp3d-origin="24 : 11.666667 : 1"
       id="perspective16" />
  </defs>
  <sodipodi:namedview
     pagecolor="#ffffff"
     bordercolor="#666666"
     borderopacity="1"
     objecttolerance="10"
     gridtolerance="10"
     guidetolerance="10"
     inkscape:pageopacity="0"
     inkscape:pageshadow="2"
     inkscape:window-width="1008"
     inkscape:window-height="790"
     id="namedview12"
     showgrid="true"
     inkscape:zoom="10.953807"
     inkscape:cx="17.824467"
     inkscape:cy="23.703469"
     inkscape:window-x="0"
     inkscape:window-y="0"
     inkscape:window-maximized="0"
     inkscape:current-layer="svg2">
    <inkscape:grid
       type="xygrid"
       id="grid2822" />
  </sodipodi:namedview>
  <metadata
     id="metadata4">
Valerie Sutton's pixel definition of the
ISWA 2010 symbol ID 04-01-001-01-03-01
transformed by Stephen E Slevinski Jr
using line and fill polygon tracing
<rdf:RDF>
  <cc:Work
     rdf:about="">
    <dc:format>image/svg+xml</dc:format>
    <dc:type
       rdf:resource="http://purl.org/dc/dcmitype/StillImage" />
    <dc:title></dc:title>
  </cc:Work>
</rdf:RDF>
</metadata>
  <path
     style="fill:#000000;fill-opacity:1;stroke:none"
     d="m 35.000001,24 c 0,-9.664983 -7.835017,-17.4999997 -17.5,-17.5 C 7.8350184,6.5 9e-7,14.335018 7e-7,24 c 4e-7,9.664984 7.8350179,17.500001 17.5000003,17.5 9.664984,10e-7 17.500001,-7.835016 17.5,-17.5 z m -2,0 c 0,8.560415 -6.939586,15.500001 -15.5,15.5 -8.560414,0 -15.5,-6.939586 -15.4999997,-15.5 10e-8,-8.560414 6.9395857,-15.4999995 15.4999997,-15.4999996 8.560413,-7e-7 15.5,6.9395856 15.5,15.4999996 z"
     id="path2824" />
  <path
     style="fill:#000000;fill-opacity:1;stroke:none"
     d="m 21.000001,3e-7 -7,0 0,6.84375 c 1.129938,-0.2291551 2.302448,-0.3437501 3.5,-0.3437503 1.197552,0 2.370062,0.1145953 3.5,0.3437503 l 0,-6.84375 z m 0,41.1562497 c -1.129938,0.229155 -2.302448,0.343751 -3.5,0.34375 -1.197552,0 -2.370062,-0.114594 -3.5,-0.34375 l 0,6.84375 L 21,48 l 1e-6,-6.84375 z"
     id="rect2830" />
</svg>
