<?xml version="1.0" encoding="UTF-8" standalone="no"?>
<svg
   xmlns:dc="http://purl.org/dc/elements/1.1/"
   xmlns:cc="http://creativecommons.org/ns#"
   xmlns:rdf="http://www.w3.org/1999/02/22-rdf-syntax-ns#"
   xmlns:svg="http://www.w3.org/2000/svg"
   xmlns="http://www.w3.org/2000/svg"
   xmlns:sodipodi="http://sodipodi.sourceforge.net/DTD/sodipodi-0.dtd"
   xmlns:inkscape="http://www.inkscape.org/namespaces/inkscape"
   version="1.0"
   width="35"
   height="29"
   id="svg2"
   inkscape:version="0.47 r22583"
   sodipodi:docname="04-01-001-01-02-02.svg">
  <defs
     id="defs14">
    <inkscape:perspective
       sodipodi:type="inkscape:persp3d"
       inkscape:vp_x="0 : 14.5 : 1"
       inkscape:vp_y="0 : 1000 : 0"
       inkscape:vp_z="36 : 14.5 : 1"
       inkscape:persp3d-origin="18 : 9.6666667 : 1"
       id="perspective16" />
  </defs>
  <sodipodi:namedview
     pagecolor="#ffffff"
     bordercolor="#666666"
     borderopacity="1"
     objecttolerance="10"
     gridtolerance="10"
     guidetolerance="10"
     inkscape:pageopacity="0"
     inkscape:pageshadow="2"
     inkscape:window-width="893"
     inkscape:window-height="792"
     id="namedview12"
     showgrid="true"
     inkscape:zoom="16"
     inkscape:cx="18.720455"
     inkscape:cy="15.520015"
     inkscape:window-x="0"
     inkscape:window-y="0"
     inkscape:window-maximized="0"
     inkscape:current-layer="svg2">
    <inkscape:grid
       type="xygrid"
       id="grid2822" />
  </sodipodi:namedview>
  <metadata
     id="metadata4">
Valerie Sutton's pixel definition of the
ISWA 2010 symbol ID 04-01-001-01-02-01
transformed by Stephen E Slevinski Jr
using line and fill polygon tracing
<rdf:RDF>
  <cc:Work
     rdf:about="">
    <dc:format>image/svg+xml</dc:format>
    <dc:type
       rdf:resource="http://purl.org/dc/dcmitype/StillImage" />
    <dc:title />
  </cc:Work>
</rdf:RDF>
</metadata>
  <g
     transform="scale(0.07692308,0.07692308)"
     id="g6">
    <g
       transform="matrix(1.3,0,0,-1.3,0,377)"
       id="g8" />
  </g>
  <path
     style="fill:#000000;fill-opacity:1;stroke:none"
     d="M 30.65625,0 C 33.349498,3.0778532 35,7.0888497 35,11.5 35,21.164983 27.164983,29 17.5,29 7.835017,29 0,21.164983 0,11.5 0,7.0888497 1.650502,3.0778532 4.34375,0 l 2.4375,2.125 C 5.052954,4.7298193 4,7.9727187 4,11.5 4,20.060414 10.044156,27 17.5,27 26.060414,27 33,20.060414 33,11.5 33,7.603042 31.561974,4.0359072 29.1875,1.3125 L 30.65625,0 z"
     id="path2829" />
</svg>
