<?xml version="1.0" encoding="UTF-8" standalone="no"?>
<svg
   xmlns:dc="http://purl.org/dc/elements/1.1/"
   xmlns:cc="http://creativecommons.org/ns#"
   xmlns:rdf="http://www.w3.org/1999/02/22-rdf-syntax-ns#"
   xmlns:svg="http://www.w3.org/2000/svg"
   xmlns="http://www.w3.org/2000/svg"
   xmlns:sodipodi="http://sodipodi.sourceforge.net/DTD/sodipodi-0.dtd"
   xmlns:inkscape="http://www.inkscape.org/namespaces/inkscape"
   version="1.0"
   width="35"
   height="38"
   id="svg2"
   inkscape:version="0.47 r22583"
   sodipodi:docname="04-01-008-01-02-04.svg">
  <defs
     id="defs24">
    <inkscape:perspective
       sodipodi:type="inkscape:persp3d"
       inkscape:vp_x="0 : 5 : 1"
       inkscape:vp_y="0 : 1000 : 0"
       inkscape:vp_z="22 : 5 : 1"
       inkscape:persp3d-origin="11 : 3.3333333 : 1"
       id="perspective26" />
  </defs>
  <sodipodi:namedview
     pagecolor="#ffffff"
     bordercolor="#666666"
     borderopacity="1"
     objecttolerance="10"
     gridtolerance="10"
     guidetolerance="10"
     inkscape:pageopacity="0"
     inkscape:pageshadow="2"
     inkscape:window-width="964"
     inkscape:window-height="789"
     id="namedview22"
     showgrid="true"
     inkscape:zoom="13.55"
     inkscape:cx="16.141388"
     inkscape:cy="19"
     inkscape:window-x="282"
     inkscape:window-y="0"
     inkscape:window-maximized="0"
     inkscape:current-layer="svg2">
    <inkscape:grid
       type="xygrid"
       id="grid2832" />
  </sodipodi:namedview>
  <metadata
     id="metadata4">
Valerie Sutton's pixel definition of the
ISWA 2010 symbol ID 04-01-008-01-02-01
transformed by Stephen E Slevinski Jr
using line and fill polygon tracing
<rdf:RDF>
  <cc:Work
     rdf:about="">
    <dc:format>image/svg+xml</dc:format>
    <dc:type
       rdf:resource="http://purl.org/dc/dcmitype/StillImage" />
    <dc:title></dc:title>
  </cc:Work>
</rdf:RDF>
</metadata>
  <path
     style="fill:#000000"
     d="M 16.891,5 17.60975,5.71875 15.8285,7.5 17.60975,9.28125 16.891,10 14.391,7.5 16.891,5 z"
     id="path14" />
  <path
     style="fill:#000000;fill-opacity:1;stroke:none"
     d="m 17,0.03125 c -0.8692,0.01625966 -1.694438,0.09438144 -2.5,0.1875 l 0,0.9375 c 0.796078,-0.077592 1.618923,-0.1112957 2.5,-0.125 l 0,-1 z m 1,0 0,1 c 0.881077,0.013704 1.703922,0.047408 2.5,0.125 l 0,-0.9375 C 19.694438,0.12563144 18.8692,0.04750966 18,0.03125 z m -4.5,0.3125 c -1.100183,0.17551534 -2.103282,0.41780158 -3,0.71875 l 0,0.90625 c 0.815949,-0.2790662 1.826598,-0.5274016 3,-0.6875 l 0,-0.9375 z m 8,0 0,0.9375 c 1.173402,0.1600984 2.184051,0.4084338 3,0.6875 l 0,-0.90625 C 23.603282,0.76155158 22.600183,0.51926534 21.5,0.34375 z M 9.5,1.4375 C 7.6485413,2.2331606 6.5,3.3108427 6.5,4.5 6.5,5.574149 7.4585128,6.5476734 9,7.3125 L 9,4.28125 C 8.6931658,4.0327756 8.5,3.7788142 8.5,3.5 8.5,3.0940311 8.8766358,2.7114428 9.5,2.375 l 0,-0.9375 z m 16,0 0,0.9375 c 0.623364,0.3364428 1,0.7190311 1,1.125 0,0.2788142 -0.193166,0.5327756 -0.5,0.78125 L 26,7.3125 C 27.541487,6.5476734 28.5,5.574149 28.5,4.5 28.5,3.3108427 27.351459,2.2331606 25.5,1.4375 z M 10,4.84375 10,7.75 c 1.01502,0.3854563 2.183212,0.6957776 3.5,0.90625 l 0,-2.9375 C 12.073393,5.5199235 10.876048,5.2082391 10,4.84375 z m 15,0 c -0.876048,0.3644891 -2.073393,0.6761735 -3.5,0.875 l 0,2.9375 C 22.816788,8.4457776 23.98498,8.1354563 25,7.75 l 0,-2.90625 z"
     id="path3037" />
  <path
     id="path2968"
     d="M 19.891,5 20.60975,5.71875 18.8285,7.5 20.60975,9.28125 19.891,10 17.391,7.5 19.891,5 z"
     style="fill:#000000" />
  <path
     style="fill:#000000;fill-opacity:1;stroke:none"
     d="M 5.125 8.125 C 1.9581229 11.291877 0 15.667509 0 20.5 C 0 30.164983 7.8350169 38 17.5 38 C 27.164983 38 35 30.164983 35 20.5 C 35 15.667509 33.041877 11.291877 29.875 8.125 L 28.46875 9.53125 C 31.273698 12.336198 33 16.219793 33 20.5 C 33 29.060414 26.060414 36 17.5 36 C 8.9395864 36 2 29.060414 2 20.5 C 2 16.219793 3.7263017 12.336198 6.53125 9.53125 L 5.125 8.125 z "
     id="path3092" />
</svg>
