<?xml version="1.0" encoding="UTF-8" standalone="no"?>
<svg
   xmlns:dc="http://purl.org/dc/elements/1.1/"
   xmlns:cc="http://creativecommons.org/ns#"
   xmlns:rdf="http://www.w3.org/1999/02/22-rdf-syntax-ns#"
   xmlns:svg="http://www.w3.org/2000/svg"
   xmlns="http://www.w3.org/2000/svg"
   xmlns:sodipodi="http://sodipodi.sourceforge.net/DTD/sodipodi-0.dtd"
   xmlns:inkscape="http://www.inkscape.org/namespaces/inkscape"
   version="1.0"
   width="22"
   height="10"
   id="svg2"
   inkscape:version="0.47 r22583"
   sodipodi:docname="30610.svg">
  <defs
     id="defs24">
    <inkscape:perspective
       sodipodi:type="inkscape:persp3d"
       inkscape:vp_x="0 : 5 : 1"
       inkscape:vp_y="0 : 1000 : 0"
       inkscape:vp_z="22 : 5 : 1"
       inkscape:persp3d-origin="11 : 3.3333333 : 1"
       id="perspective26" />
  </defs>
  <sodipodi:namedview
     pagecolor="#ffffff"
     bordercolor="#666666"
     borderopacity="1"
     objecttolerance="10"
     gridtolerance="10"
     guidetolerance="10"
     inkscape:pageopacity="0"
     inkscape:pageshadow="2"
     inkscape:window-width="964"
     inkscape:window-height="789"
     id="namedview22"
     showgrid="true"
     inkscape:zoom="23.6"
     inkscape:cx="11"
     inkscape:cy="5"
     inkscape:window-x="282"
     inkscape:window-y="0"
     inkscape:window-maximized="0"
     inkscape:current-layer="svg2">
    <inkscape:grid
       type="xygrid"
       id="grid2832" />
  </sodipodi:namedview>
  <metadata
     id="metadata4">
Valerie Sutton's pixel definition of the
ISWA 2010 symbol ID 04-01-008-01-02-01
transformed by Stephen E Slevinski Jr
using line and fill polygon tracing
<rdf:RDF>
  <cc:Work
     rdf:about="">
    <dc:format>image/svg+xml</dc:format>
    <dc:type
       rdf:resource="http://purl.org/dc/dcmitype/StillImage" />
    <dc:title></dc:title>
  </cc:Work>
</rdf:RDF>
</metadata>
  <path
     style="fill:#000000"
     d="M 10.109375,5 9.390625,5.71875 11.171875,7.5 9.390625,9.28125 10.109375,10 l 2.5,-2.5 -2.5,-2.5 z"
     id="path14" />
  <path
     style="fill:#000000;fill-opacity:1;stroke:none"
     d="M 10.5 0.03125 C 9.6383028 0.050910741 8.8032799 0.093352891 8 0.1875 L 8 1.15625 C 8.7901727 1.0771597 9.6283245 1.0162163 10.5 1 L 10.5 0.03125 z M 11.5 0.03125 L 11.5 1.03125 C 12.381077 1.0449543 13.203922 1.078658 14 1.15625 L 14 0.21875 C 13.194438 0.12563144 12.3692 0.047509655 11.5 0.03125 z M 7 0.3125 C 5.9073596 0.48823972 4.8895703 0.73092057 4 1.03125 L 4 1.9375 C 4.8099498 1.6570309 5.8378586 1.4125658 7 1.25 L 7 0.3125 z M 15 0.34375 L 15 1.28125 C 16.173402 1.4413484 17.184051 1.6896838 18 1.96875 L 18 1.0625 C 17.103282 0.76155158 16.100183 0.51926534 15 0.34375 z M 3 1.40625 C 1.1410636 2.2121007 0 3.3045263 0 4.5 C 0 5.8953357 1.5618339 7.1489907 4 7.96875 L 4 5.0625 C 2.7505404 4.633428 2 4.0945255 2 3.5 C 2 3.0946534 2.3835647 2.7135769 3 2.375 L 3 1.40625 z M 19 1.4375 L 19 2.375 C 19.623364 2.7114428 20 3.0940311 20 3.5 C 20 4.0945255 19.24946 4.633428 18 5.0625 L 18 7.96875 C 20.438166 7.1489907 22 5.8953357 22 4.5 C 22 3.3108427 20.851459 2.2331606 19 1.4375 z M 5 5.375 L 5 8.25 C 6.1987724 8.5693559 7.537745 8.7960984 9 8.90625 L 9 5.9375 C 7.4844865 5.8416062 6.1188383 5.6536823 5 5.375 z M 16.96875 5.375 C 15.855595 5.6497348 14.501621 5.8424852 13 5.9375 L 13 8.90625 C 14.462255 8.7960984 15.801228 8.5693559 17 8.25 L 17 5.375 C 16.989744 5.3775546 16.979048 5.3724583 16.96875 5.375 z "
     id="path2834" />
</svg>
