<?xml version="1.0" encoding="UTF-8" standalone="no"?>
<svg
   xmlns:dc="http://purl.org/dc/elements/1.1/"
   xmlns:cc="http://creativecommons.org/ns#"
   xmlns:rdf="http://www.w3.org/1999/02/22-rdf-syntax-ns#"
   xmlns:svg="http://www.w3.org/2000/svg"
   xmlns="http://www.w3.org/2000/svg"
   xmlns:sodipodi="http://sodipodi.sourceforge.net/DTD/sodipodi-0.dtd"
   xmlns:inkscape="http://www.inkscape.org/namespaces/inkscape"
   version="1.0"
   width="36"
   height="38"
   id="svg2"
   inkscape:version="0.47 r22583"
   sodipodi:docname="04-01-008-01-01-02.svg">
  <defs
     id="defs24">
    <inkscape:perspective
       sodipodi:type="inkscape:persp3d"
       inkscape:vp_x="0 : 5 : 1"
       inkscape:vp_y="0 : 1000 : 0"
       inkscape:vp_z="22 : 5 : 1"
       inkscape:persp3d-origin="11 : 3.3333333 : 1"
       id="perspective26" />
  </defs>
  <sodipodi:namedview
     pagecolor="#ffffff"
     bordercolor="#666666"
     borderopacity="1"
     objecttolerance="10"
     gridtolerance="10"
     guidetolerance="10"
     inkscape:pageopacity="0"
     inkscape:pageshadow="2"
     inkscape:window-width="964"
     inkscape:window-height="789"
     id="namedview22"
     showgrid="true"
     inkscape:zoom="13.55"
     inkscape:cx="16.141388"
     inkscape:cy="19"
     inkscape:window-x="282"
     inkscape:window-y="0"
     inkscape:window-maximized="0"
     inkscape:current-layer="svg2">
    <inkscape:grid
       type="xygrid"
       id="grid2832" />
  </sodipodi:namedview>
  <metadata
     id="metadata4">
Valerie Sutton's pixel definition of the
ISWA 2010 symbol ID 04-01-008-01-02-01
transformed by Stephen E Slevinski Jr
using line and fill polygon tracing
<rdf:RDF>
  <cc:Work
     rdf:about="">
    <dc:format>image/svg+xml</dc:format>
    <dc:type
       rdf:resource="http://purl.org/dc/dcmitype/StillImage" />
    <dc:title />
  </cc:Work>
</rdf:RDF>
</metadata>
  <path
     style="fill:#000000"
     d="M 18.890625,5 19.609375,5.71875 17.828125,7.5 19.609375,9.28125 18.890625,10 l -2.5,-2.5 2.5,-2.5 z"
     id="path14" />
  <path
     style="fill:#000000;fill-opacity:1;stroke:none"
     d="M 17.5,0.03125 C 16.6308,0.04750966 15.805562,0.12563144 15,0.21875 l 0,0.9375 c 0.796078,-0.077592 1.618923,-0.1112957 2.5,-0.125 l 0,-1 z m 1,0 L 18.5,1 c 0.871676,0.016216 1.709827,0.07716 2.5,0.15625 L 21,0.1875 C 20.19672,0.09335289 19.361697,0.05091074 18.5,0.03125 z M 22,0.3125 22,1.25 c 1.162141,0.1625658 2.19005,0.4070309 3,0.6875 L 25,1.03125 C 24.11043,0.73092057 23.09264,0.48823972 22,0.3125 z M 14,0.34375 C 12.899817,0.51926534 11.896718,0.76155158 11,1.0625 l 0,0.90625 c 0.815949,-0.2790662 1.826598,-0.5274016 3,-0.6875 l 0,-0.9375 z m 12,1.0625 0,0.96875 c 0.616435,0.3385769 1,0.7196534 1,1.125 0,0.5945255 -0.75054,1.133428 -2,1.5625 l 0,2.90625 C 27.438166,7.1489907 29,5.8953357 29,4.5 29,3.3045263 27.858936,2.2121007 26,1.40625 z M 10,1.4375 C 8.1485413,2.2331606 7,3.3108427 7,4.5 7,5.8953357 8.5618339,7.1489907 11,7.96875 L 11,5.0625 C 9.7505404,4.633428 9,4.0945255 9,3.5 9,3.0940311 9.3766358,2.7114428 10,2.375 l 0,-0.9375 z m 2,3.9375 0,2.875 c 1.198772,0.3193559 2.537745,0.5460984 4,0.65625 L 16,5.9375 C 14.484486,5.8416062 13.118838,5.6536823 12,5.375 z m 11.96875,0 C 22.855595,5.6497348 21.501621,5.8424852 20,5.9375 l 0,2.96875 C 21.462255,8.7960984 22.801228,8.5693559 24,8.25 l 0,-2.875 c -0.01026,0.00255 -0.02095,-0.00254 -0.03125,0 z"
     id="path2834" />
  <path
     style="fill:#000000;fill-opacity:1;stroke:none"
     d="M 5.625,8.125 C 2.4581229,11.291877 0.5,15.667509 0.5,20.5 0.5,30.164983 8.3350169,38 18,38 27.664983,38 35.5,30.164983 35.5,20.5 35.5,15.667509 33.541877,11.291877 30.375,8.125 L 28.96875,9.53125 C 31.773698,12.336198 33.5,16.219793 33.5,20.5 33.5,29.060414 26.560414,36 18,36 9.4395864,36 2.5,29.060414 2.5,20.5 2.5,16.219793 4.2263017,12.336198 7.03125,9.53125 L 5.625,8.125 z"
     id="path3156" />
</svg>
