<?xml version="1.0" encoding="UTF-8" standalone="no"?>
<svg
   xmlns:dc="http://purl.org/dc/elements/1.1/"
   xmlns:cc="http://creativecommons.org/ns#"
   xmlns:rdf="http://www.w3.org/1999/02/22-rdf-syntax-ns#"
   xmlns:svg="http://www.w3.org/2000/svg"
   xmlns="http://www.w3.org/2000/svg"
   xmlns:sodipodi="http://sodipodi.sourceforge.net/DTD/sodipodi-0.dtd"
   xmlns:inkscape="http://www.inkscape.org/namespaces/inkscape"
   version="1.0"
   width="23"
   height="10"
   id="svg2"
   inkscape:version="0.47 r22583"
   sodipodi:docname="04-01-008-01-02-04.svg">
  <defs
     id="defs24">
    <inkscape:perspective
       sodipodi:type="inkscape:persp3d"
       inkscape:vp_x="0 : 5 : 1"
       inkscape:vp_y="0 : 1000 : 0"
       inkscape:vp_z="22 : 5 : 1"
       inkscape:persp3d-origin="11 : 3.3333333 : 1"
       id="perspective26" />
  </defs>
  <sodipodi:namedview
     pagecolor="#ffffff"
     bordercolor="#666666"
     borderopacity="1"
     objecttolerance="10"
     gridtolerance="10"
     guidetolerance="10"
     inkscape:pageopacity="0"
     inkscape:pageshadow="2"
     inkscape:window-width="964"
     inkscape:window-height="789"
     id="namedview22"
     showgrid="true"
     inkscape:zoom="23.6"
     inkscape:cx="11"
     inkscape:cy="5"
     inkscape:window-x="282"
     inkscape:window-y="0"
     inkscape:window-maximized="0"
     inkscape:current-layer="svg2">
    <inkscape:grid
       type="xygrid"
       id="grid2832" />
  </sodipodi:namedview>
  <metadata
     id="metadata4">
Valerie Sutton's pixel definition of the
ISWA 2010 symbol ID 04-01-008-01-02-01
transformed by Stephen E Slevinski Jr
using line and fill polygon tracing
<rdf:RDF>
  <cc:Work
     rdf:about="">
    <dc:format>image/svg+xml</dc:format>
    <dc:type
       rdf:resource="http://purl.org/dc/dcmitype/StillImage" />
    <dc:title></dc:title>
  </cc:Work>
</rdf:RDF>
</metadata>
  <path
     style="fill:#000000"
     d="M 12.109,5 11.39025,5.71875 13.1715,7.5 11.39025,9.28125 12.109,10 14.609,7.5 12.109,5 z"
     id="path14" />
  <path
     style="fill:#000000;fill-opacity:1;stroke:none"
     d="m 12,0.03125 c 0.8692,0.01625966 1.694438,0.09438144 2.5,0.1875 l 0,0.9375 C 13.703922,1.078658 12.881077,1.0449543 12,1.03125 l 0,-1 z m -1,0 0,1 c -0.881077,0.013704 -1.703922,0.047408 -2.5,0.125 l 0,-0.9375 C 9.305562,0.12563144 10.1308,0.04750966 11,0.03125 z m 4.5,0.3125 c 1.100183,0.17551534 2.103282,0.41780158 3,0.71875 l 0,0.90625 c -0.815949,-0.2790662 -1.826598,-0.5274016 -3,-0.6875 l 0,-0.9375 z m -8,0 0,0.9375 C 6.326598,1.4413484 5.315949,1.6896838 4.5,1.96875 L 4.5,1.0625 C 5.396718,0.76155158 6.399817,0.51926534 7.5,0.34375 z m 12,1.09375 c 1.851459,0.7956606 3,1.8733427 3,3.0625 0,1.074149 -0.958513,2.0476734 -2.5,2.8125 L 20,4.28125 C 20.306834,4.0327756 20.5,3.7788142 20.5,3.5 c 0,-0.4059689 -0.376636,-0.7885572 -1,-1.125 l 0,-0.9375 z m -16,0 0,0.9375 C 2.876636,2.7114428 2.5,3.0940311 2.5,3.5 2.5,3.7788142 2.693166,4.0327756 3,4.28125 L 3,7.3125 C 1.458513,6.5476734 0.5,5.574149 0.5,4.5 0.5,3.3108427 1.648541,2.2331606 3.5,1.4375 z M 19,4.84375 19,7.75 c -1.01502,0.3854563 -2.183212,0.6957776 -3.5,0.90625 l 0,-2.9375 c 1.426607,-0.1988265 2.623952,-0.5105109 3.5,-0.875 z m -15,0 c 0.876048,0.3644891 2.073393,0.6761735 3.5,0.875 l 0,2.9375 C 6.183212,8.4457776 5.01502,8.1354563 4,7.75 L 4,4.84375 z"
     id="path3037" />
  <path
     id="path2968"
     d="M 9.109,5 8.39025,5.71875 10.1715,7.5 8.39025,9.28125 9.109,10 11.609,7.5 9.109,5 z"
     style="fill:#000000" />
</svg>
