<?xml version="1.0" encoding="UTF-8" standalone="no"?>
<svg
   xmlns:dc="http://purl.org/dc/elements/1.1/"
   xmlns:cc="http://creativecommons.org/ns#"
   xmlns:rdf="http://www.w3.org/1999/02/22-rdf-syntax-ns#"
   xmlns:svg="http://www.w3.org/2000/svg"
   xmlns="http://www.w3.org/2000/svg"
   xmlns:sodipodi="http://sodipodi.sourceforge.net/DTD/sodipodi-0.dtd"
   xmlns:inkscape="http://www.inkscape.org/namespaces/inkscape"
   version="1.0"
   width="23"
   height="10"
   id="svg2"
   inkscape:version="0.47 r22583"
   sodipodi:docname="04-01-008-01-02-04.svg">
  <defs
     id="defs24">
    <inkscape:perspective
       sodipodi:type="inkscape:persp3d"
       inkscape:vp_x="0 : 5 : 1"
       inkscape:vp_y="0 : 1000 : 0"
       inkscape:vp_z="22 : 5 : 1"
       inkscape:persp3d-origin="11 : 3.3333333 : 1"
       id="perspective26" />
  </defs>
  <sodipodi:namedview
     pagecolor="#ffffff"
     bordercolor="#666666"
     borderopacity="1"
     objecttolerance="10"
     gridtolerance="10"
     guidetolerance="10"
     inkscape:pageopacity="0"
     inkscape:pageshadow="2"
     inkscape:window-width="964"
     inkscape:window-height="789"
     id="namedview22"
     showgrid="true"
     inkscape:zoom="23.6"
     inkscape:cx="11"
     inkscape:cy="5"
     inkscape:window-x="282"
     inkscape:window-y="0"
     inkscape:window-maximized="0"
     inkscape:current-layer="svg2">
    <inkscape:grid
       type="xygrid"
       id="grid2832" />
  </sodipodi:namedview>
  <metadata
     id="metadata4">
Valerie Sutton's pixel definition of the
ISWA 2010 symbol ID 04-01-008-01-02-01
transformed by Stephen E Slevinski Jr
using line and fill polygon tracing
<rdf:RDF>
  <cc:Work
     rdf:about="">
    <dc:format>image/svg+xml</dc:format>
    <dc:type
       rdf:resource="http://purl.org/dc/dcmitype/StillImage" />
    <dc:title />
  </cc:Work>
</rdf:RDF>
</metadata>
  <path
     style="fill:#000000"
     d="M 10.891,5 11.60975,5.71875 9.8285,7.5 11.60975,9.28125 10.891,10 8.391,7.5 10.891,5 z"
     id="path14" />
  <path
     style="fill:#000000;fill-opacity:1;stroke:none"
     d="M 11,0.03125 C 10.1308,0.04750966 9.3055624,0.12563144 8.5,0.21875 l 0,0.9375 C 9.2960782,1.078658 10.118923,1.0449543 11,1.03125 l 0,-1 z m 1,0 0,1 c 0.881077,0.013704 1.703922,0.047408 2.5,0.125 l 0,-0.9375 C 13.694438,0.12563144 12.8692,0.04750966 12,0.03125 z M 7.5,0.34375 C 6.3998173,0.51926534 5.3967178,0.76155158 4.5,1.0625 l 0,0.90625 c 0.8159489,-0.2790662 1.8265983,-0.5274016 3,-0.6875 l 0,-0.9375 z m 8,0 0,0.9375 c 1.173402,0.1600984 2.184051,0.4084338 3,0.6875 l 0,-0.90625 C 17.603282,0.76155158 16.600183,0.51926534 15.5,0.34375 z M 3.5,1.4375 C 1.6485413,2.2331606 0.5,3.3108427 0.5,4.5 0.5,5.574149 1.4585128,6.5476734 3,7.3125 L 3,4.28125 C 2.6931658,4.0327756 2.5,3.7788142 2.5,3.5 2.5,3.0940311 2.8766358,2.7114428 3.5,2.375 l 0,-0.9375 z m 16,0 0,0.9375 c 0.623364,0.3364428 1,0.7190311 1,1.125 0,0.2788142 -0.193166,0.5327756 -0.5,0.78125 L 20,7.3125 C 21.541487,6.5476734 22.5,5.574149 22.5,4.5 22.5,3.3108427 21.351459,2.2331606 19.5,1.4375 z M 4,4.84375 4,7.75 c 1.0150198,0.3854563 2.1832119,0.6957776 3.5,0.90625 l 0,-2.9375 C 6.0733926,5.5199235 4.8760483,5.2082391 4,4.84375 z m 15,0 c -0.876048,0.3644891 -2.073393,0.6761735 -3.5,0.875 l 0,2.9375 C 16.816788,8.4457776 17.98498,8.1354563 19,7.75 l 0,-2.90625 z"
     id="path3037" />
  <path
     id="path2968"
     d="M 13.891,5 14.60975,5.71875 12.8285,7.5 14.60975,9.28125 13.891,10 11.391,7.5 13.891,5 z"
     style="fill:#000000" />
</svg>
