<?xml version="1.0" encoding="UTF-8" standalone="no"?>
<svg
   xmlns:dc="http://purl.org/dc/elements/1.1/"
   xmlns:cc="http://creativecommons.org/ns#"
   xmlns:rdf="http://www.w3.org/1999/02/22-rdf-syntax-ns#"
   xmlns:svg="http://www.w3.org/2000/svg"
   xmlns="http://www.w3.org/2000/svg"
   xmlns:sodipodi="http://sodipodi.sourceforge.net/DTD/sodipodi-0.dtd"
   xmlns:inkscape="http://www.inkscape.org/namespaces/inkscape"
   version="1.0"
   width="15"
   height="32"
   id="svg2"
   inkscape:version="0.47 r22583"
   sodipodi:docname="02-06-005-02-03-01.svg">
  <defs
     id="defs16">
    <inkscape:perspective
       sodipodi:type="inkscape:persp3d"
       inkscape:vp_x="0 : 23 : 1"
       inkscape:vp_y="0 : 1000 : 0"
       inkscape:vp_z="36 : 23 : 1"
       inkscape:persp3d-origin="18 : 15.333333 : 1"
       id="perspective18" />
  </defs>
  <sodipodi:namedview
     pagecolor="#ffffff"
     bordercolor="#666666"
     borderopacity="1"
     objecttolerance="10"
     gridtolerance="10"
     guidetolerance="10"
     inkscape:pageopacity="0"
     inkscape:pageshadow="2"
     inkscape:window-width="964"
     inkscape:window-height="721"
     id="namedview14"
     showgrid="true"
     inkscape:zoom="14.78125"
     inkscape:cx="7.5"
     inkscape:cy="16"
     inkscape:window-x="365"
     inkscape:window-y="0"
     inkscape:window-maximized="0"
     inkscape:current-layer="svg2"
     showborder="true">
    <inkscape:grid
       type="xygrid"
       id="grid2824"
       empspacing="5"
       visible="true"
       enabled="true"
       snapvisiblegridlinesonly="true" />
  </sodipodi:namedview>
  <metadata
     id="metadata4">
Valerie Sutton's pixel definition of the
ISWA 2010 symbol ID 04-01-003-01-01-01
transformed by Stephen E Slevinski Jr
using line and fill polygon tracing
<rdf:RDF>
  <cc:Work
     rdf:about="">
    <dc:format>image/svg+xml</dc:format>
    <dc:type
       rdf:resource="http://purl.org/dc/dcmitype/StillImage" />
    <dc:title></dc:title>
  </cc:Work>
</rdf:RDF>
</metadata>
  <path
     style="fill:#000000;fill-opacity:1;stroke:none"
     d="m 9.78125,0.21875 -0.6875,0.6875 2.84375,2.8125 C 13.236316,5.2814194 14,7.309458 14,9.5 l 0,2.5 c 0,2.485281 -0.99632,4.74632 -2.625,6.375 l -1,1 C 9.3796958,20.370304 8.018783,21 6.5,21 3.4624339,21 1,18.537566 1,15.5 1,12.462434 3.4624339,10 6.5,10 c 1.3446467,0 2.547005,0.508612 3.5,1.3125 l 0,-1.28125 C 8.9915361,9.3867 7.7856166,9 6.5,9 2.9101491,9 0,11.910149 0,15.5 0,19.089851 2.9101491,22 6.5,22 8.2949255,22 9.9174814,21.270019 11.09375,20.09375 L 12.0625,19.0625 c 0.662541,-0.662541 1.229625,-1.424892 1.6875,-2.25 0.158286,0.676942 0.25,1.370473 0.25,2.09375 l 0,2.5 c 0,2.485281 -0.99632,4.74632 -2.625,6.375 L 7.84375,31.3125 8.53125,32 12.0625,28.46875 C 13.872144,26.659106 15,24.167673 15,21.40625 l 0,-2.5 C 15,17.681403 14.776051,16.519805 14.375,15.4375 14.773878,14.361891 15,13.215299 15,12 L 15,9.5 C 15,7.028597 14.112011,4.7749393 12.625,3.03125 L 9.78125,0.21875 z"
     id="path3266" />
  <path
     style="fill:#ffffff;fill-opacity:1;stroke:none"
     d="M 9.09375,0.90625 6.9375,3.0625 9.78125,5.875 C 10.54102,6.882681 11,8.141066 11,9.5 l 0,2.5 c 0,1.656854 -0.664214,3.164213 -1.75,4.25 L 8.28125,17.28125 C 7.828839,17.733661 7.1903559,18 6.5,18 5.1192881,18 4,16.880712 4,15.5 4,14.119288 5.1192881,13 6.5,13 c 0.6903559,0 1.328839,0.266339 1.78125,0.71875 l 0.9375,0.96875 C 9.7208742,13.909839 10,12.994859 10,12 l 0,-0.6875 C 9.047005,10.508612 7.8446467,10 6.5,10 3.4624339,10 1,12.462434 1,15.5 1,18.537566 3.4624339,21 6.5,21 c 1.518783,0 2.8796958,-0.629696 3.875,-1.625 l 1,-1 C 13.00368,16.74632 14,14.485281 14,12 L 14,9.5 C 14,7.309458 13.236316,5.2814194 11.9375,3.71875 L 9.09375,0.90625 z M 13.75,16.8125 c -0.457875,0.825108 -1.024959,1.587459 -1.6875,2.25 -0.350666,0.378246 -0.707962,0.750561 -1.0625,1.125 l 0,1.21875 c 0,1.656854 -0.664214,3.164213 -1.75,4.25 l -3.53125,3.53125 2.125,2.125 3.53125,-3.53125 C 13.00368,26.15257 14,23.891531 14,21.40625 l 0,-2.5 c 0,-0.719658 -0.08772,-1.4232 -0.25,-2.09375 z"
     id="path3268" />
  <path
     style="fill:#000000;fill-opacity:1;stroke:none"
     d="M 6.9375,3.0625 6.25,3.75 9.0625,6.59375 C 9.6563746,7.414471 10,8.409294 10,9.5 l 0,2.5 c 0,1.000083 -0.3055311,1.907311 -0.8125,2.6875 L 8.28125,13.71875 C 7.828839,13.266339 7.1903559,13 6.5,13 5.1192881,13 4,14.119288 4,15.5 4,16.880712 5.1192881,18 6.5,18 7.1903559,18 7.828839,17.733661 8.28125,17.28125 L 9.25,16.25 C 10.335786,15.164213 11,13.656854 11,12 L 11,9.5 C 11,8.150544 10.531547,6.910368 9.78125,5.90625 L 6.9375,3.0625 z M 6.5,14 c 0.4142135,0 0.7910534,0.166053 1.0625,0.4375 l 1,1.0625 C 8.552389,15.51028 8.541448,15.52105 8.53125,15.53125 L 7.5625,16.5625 C 7.2910534,16.833947 6.9142136,17 6.5,17 5.6715729,17 5,16.328427 5,15.5 5,14.671573 5.6715729,14 6.5,14 z m 4.5,4.75 -0.625,0.625 C 10.260883,19.489117 10.123416,19.583394 10,19.6875 l 0,1.71875 c 0,1.380712 -0.563928,2.626428 -1.46875,3.53125 L 5,28.46875 5.71875,29.1875 9.25,25.65625 c 1.085786,-1.085787 1.75,-2.593146 1.75,-4.25 l 0,-2.5 C 11,18.854 11.0014,18.801919 11,18.75 z"
     id="path3515" />
</svg>
