<?xml version="1.0" encoding="UTF-8" standalone="no"?>
<svg
   xmlns:dc="http://purl.org/dc/elements/1.1/"
   xmlns:cc="http://creativecommons.org/ns#"
   xmlns:rdf="http://www.w3.org/1999/02/22-rdf-syntax-ns#"
   xmlns:svg="http://www.w3.org/2000/svg"
   xmlns="http://www.w3.org/2000/svg"
   xmlns:sodipodi="http://sodipodi.sourceforge.net/DTD/sodipodi-0.dtd"
   xmlns:inkscape="http://www.inkscape.org/namespaces/inkscape"
   version="1.0"
   width="15"
   height="36"
   id="svg2"
   inkscape:version="0.47 r22583"
   sodipodi:docname="02-06-005-02-01-01.svg">
  <defs
     id="defs16">
    <inkscape:perspective
       sodipodi:type="inkscape:persp3d"
       inkscape:vp_x="0 : 23 : 1"
       inkscape:vp_y="0 : 1000 : 0"
       inkscape:vp_z="36 : 23 : 1"
       inkscape:persp3d-origin="18 : 15.333333 : 1"
       id="perspective18" />
  </defs>
  <sodipodi:namedview
     pagecolor="#ffffff"
     bordercolor="#666666"
     borderopacity="1"
     objecttolerance="10"
     gridtolerance="10"
     guidetolerance="10"
     inkscape:pageopacity="0"
     inkscape:pageshadow="2"
     inkscape:window-width="964"
     inkscape:window-height="721"
     id="namedview14"
     showgrid="true"
     inkscape:zoom="13.138889"
     inkscape:cx="7.5"
     inkscape:cy="18"
     inkscape:window-x="365"
     inkscape:window-y="0"
     inkscape:window-maximized="0"
     inkscape:current-layer="svg2"
     showborder="true">
    <inkscape:grid
       type="xygrid"
       id="grid2824"
       empspacing="5"
       visible="true"
       enabled="true"
       snapvisiblegridlinesonly="true" />
  </sodipodi:namedview>
  <metadata
     id="metadata4">
Valerie Sutton's pixel definition of the
ISWA 2010 symbol ID 04-01-003-01-01-01
transformed by Stephen E Slevinski Jr
using line and fill polygon tracing
<rdf:RDF>
  <cc:Work
     rdf:about="">
    <dc:format>image/svg+xml</dc:format>
    <dc:type
       rdf:resource="http://purl.org/dc/dcmitype/StillImage" />
    <dc:title></dc:title>
  </cc:Work>
</rdf:RDF>
</metadata>
  <path
     style="fill:#000000;fill-opacity:1;stroke:none"
     d="M 14,0 2,0 2,12 14,0 z"
     id="path3232" />
  <path
     style="fill:#000000;fill-opacity:1;stroke:none"
     d="M 9.78125 4.21875 L 9.09375 4.90625 L 11.9375 7.71875 C 13.236316 9.2814194 14 11.309458 14 13.5 L 14 16 C 14 18.485281 13.00368 20.74632 11.375 22.375 L 10.375 23.375 C 9.3796958 24.370304 8.018783 25 6.5 25 C 3.4624339 25 1 22.537566 1 19.5 C 1 16.462434 3.4624339 14 6.5 14 C 7.8446467 14 9.047005 14.508612 10 15.3125 L 10 14.03125 C 8.9915361 13.3867 7.7856166 13 6.5 13 C 2.9101491 13 0 15.910149 0 19.5 C 0 23.089851 2.9101491 26 6.5 26 C 8.2949255 26 9.9174814 25.270019 11.09375 24.09375 L 12.0625 23.0625 C 12.725041 22.399959 13.292125 21.637608 13.75 20.8125 C 13.908286 21.489442 14 22.182973 14 22.90625 L 14 25.40625 C 14 27.891531 13.00368 30.15257 11.375 31.78125 L 7.84375 35.3125 L 8.53125 36 L 12.0625 32.46875 C 13.872144 30.659106 15 28.167673 15 25.40625 L 15 22.90625 C 15 21.681403 14.776051 20.519805 14.375 19.4375 C 14.773878 18.361891 15 17.215299 15 16 L 15 13.5 C 15 11.028597 14.112011 8.7749393 12.625 7.03125 L 9.78125 4.21875 z "
     id="path3266" />
  <path
     style="fill:#ffffff;fill-opacity:1;stroke:none"
     d="M 9.09375 4.90625 L 6.9375 7.0625 L 9.78125 9.875 C 10.54102 10.882681 11 12.141066 11 13.5 L 11 16 C 11 17.656854 10.335786 19.164213 9.25 20.25 L 8.28125 21.28125 C 7.828839 21.733661 7.1903559 22 6.5 22 C 5.1192881 22 4 20.880712 4 19.5 C 4 18.119288 5.1192881 17 6.5 17 C 7.1903559 17 7.828839 17.266339 8.28125 17.71875 L 9.21875 18.6875 C 9.7208742 17.909839 10 16.994859 10 16 L 10 15.3125 C 9.047005 14.508612 7.8446467 14 6.5 14 C 3.4624339 14 1 16.462434 1 19.5 C 1 22.537566 3.4624339 25 6.5 25 C 8.018783 25 9.3796958 24.370304 10.375 23.375 L 11.375 22.375 C 13.00368 20.74632 14 18.485281 14 16 L 14 13.5 C 14 11.309458 13.236316 9.2814194 11.9375 7.71875 L 9.09375 4.90625 z M 13.75 20.8125 C 13.292125 21.637608 12.725041 22.399959 12.0625 23.0625 C 11.711834 23.440746 11.354538 23.813061 11 24.1875 L 11 25.40625 C 11 27.063104 10.335786 28.570463 9.25 29.65625 L 5.71875 33.1875 L 7.84375 35.3125 L 11.375 31.78125 C 13.00368 30.15257 14 27.891531 14 25.40625 L 14 22.90625 C 14 22.186592 13.91228 21.48305 13.75 20.8125 z "
     id="path3268" />
  <path
     style="fill:#000000;fill-opacity:1;stroke:none"
     d="M 6.9375 7.0625 L 6.25 7.75 L 9.0625 10.59375 C 9.6563746 11.414471 10 12.409294 10 13.5 L 10 16 C 10 17.000083 9.6944689 17.907311 9.1875 18.6875 L 8.28125 17.71875 C 7.828839 17.266339 7.1903559 17 6.5 17 C 5.1192881 17 4 18.119288 4 19.5 C 4 20.880712 5.1192881 22 6.5 22 C 7.1903559 22 7.828839 21.733661 8.28125 21.28125 L 9.25 20.25 C 10.335786 19.164213 11 17.656854 11 16 L 11 13.5 C 11 12.150544 10.531547 10.910368 9.78125 9.90625 L 6.9375 7.0625 z M 6.5 18 C 6.9142135 18 7.2910534 18.166053 7.5625 18.4375 L 8.5625 19.5 C 8.5523891 19.510284 8.5414478 19.521052 8.53125 19.53125 L 7.5625 20.5625 C 7.2910534 20.833947 6.9142136 21 6.5 21 C 5.6715729 21 5 20.328427 5 19.5 C 5 18.671573 5.6715729 18 6.5 18 z M 11 22.75 L 10.375 23.375 C 10.260883 23.489117 10.123416 23.583394 10 23.6875 L 10 25.40625 C 10 26.786962 9.436072 28.032678 8.53125 28.9375 L 5 32.46875 L 5.71875 33.1875 L 9.25 29.65625 C 10.335786 28.570463 11 27.063104 11 25.40625 L 11 22.90625 C 11 22.853996 11.001394 22.801919 11 22.75 z "
     id="path3515" />
</svg>
