<?xml version="1.0" encoding="UTF-8" standalone="no"?>
<svg
   xmlns:dc="http://purl.org/dc/elements/1.1/"
   xmlns:cc="http://creativecommons.org/ns#"
   xmlns:rdf="http://www.w3.org/1999/02/22-rdf-syntax-ns#"
   xmlns:svg="http://www.w3.org/2000/svg"
   xmlns="http://www.w3.org/2000/svg"
   xmlns:sodipodi="http://sodipodi.sourceforge.net/DTD/sodipodi-0.dtd"
   xmlns:inkscape="http://www.inkscape.org/namespaces/inkscape"
   version="1.0"
   width="36"
   height="23"
   id="svg2"
   inkscape:version="0.47 r22583"
   sodipodi:docname="02-07-005-01-03-01.svg">
  <defs
     id="defs16">
    <inkscape:perspective
       sodipodi:type="inkscape:persp3d"
       inkscape:vp_x="0 : 23 : 1"
       inkscape:vp_y="0 : 1000 : 0"
       inkscape:vp_z="36 : 23 : 1"
       inkscape:persp3d-origin="18 : 15.333333 : 1"
       id="perspective18" />
  </defs>
  <sodipodi:namedview
     pagecolor="#ffffff"
     bordercolor="#666666"
     borderopacity="1"
     objecttolerance="10"
     gridtolerance="10"
     guidetolerance="10"
     inkscape:pageopacity="0"
     inkscape:pageshadow="2"
     inkscape:window-width="964"
     inkscape:window-height="721"
     id="namedview14"
     showgrid="true"
     inkscape:zoom="16.701291"
     inkscape:cx="18"
     inkscape:cy="11.5"
     inkscape:window-x="365"
     inkscape:window-y="0"
     inkscape:window-maximized="0"
     inkscape:current-layer="svg2"
     showborder="true">
    <inkscape:grid
       type="xygrid"
       id="grid2824"
       empspacing="5"
       visible="true"
       enabled="true"
       snapvisiblegridlinesonly="true" />
  </sodipodi:namedview>
  <metadata
     id="metadata4">
Valerie Sutton's pixel definition of the
ISWA 2010 symbol ID 04-01-003-01-01-01
transformed by Stephen E Slevinski Jr
using line and fill polygon tracing
<rdf:RDF>
  <cc:Work
     rdf:about="">
    <dc:format>image/svg+xml</dc:format>
    <dc:type
       rdf:resource="http://purl.org/dc/dcmitype/StillImage" />
    <dc:title></dc:title>
  </cc:Work>
</rdf:RDF>
</metadata>
  <path
     style="fill:#000000;fill-opacity:1;stroke:none"
     d="m 36,12 -36,0 0,1 36,0 0,-1 z"
     id="path2831" />
  <path
     style="fill:#000000;fill-opacity:1;stroke:none"
     d="M 13,0 3,0 3,10 4.5,8.5 l 0,-7 7,0 L 13,0 z"
     id="path2964" />
  <path
     style="fill:#000000;fill-opacity:1;stroke:none"
     d="M 15,12.5 C 15,9.876648 13.937912,7.500411 12.21875,5.78125 l -2.5,-2.5 L 9,4 11.5,6.5 c 1.538198,1.538198 2.5,3.65279 2.5,6 0,2.34721 -0.961802,4.461802 -2.5,6 L 7.71875,22.3125 8.40625,23 12.21875,19.21875 C 13.937912,17.499589 15,15.123352 15,12.5 z"
     id="path2817" />
  <path
     style="fill:#ffffff;fill-opacity:1;stroke:none"
     d="m 14,12.5 c 0,-2.34721 -0.961802,-4.461802 -2.5,-6 L 9,4 6.875,6.125 l 2.5,2.5 C 10.370305,9.620304 11,10.981217 11,12.5 c 0,1.518783 -0.629695,2.879696 -1.625,3.875 l -3.78125,3.8125 2.125,2.125 L 11.5,18.5 c 1.538198,-1.538198 2.499999,-3.652789 2.5,-6 z"
     id="path2819" />
  <path
     style="fill:#000000;fill-opacity:1;stroke:none"
     d="M 11,12.5 C 11,10.981217 10.370305,9.620304 9.375,8.625 l -2.5,-2.5 -0.6875,0.6875 2.5,2.5 C 9.50184,10.12684 10,11.257359 10,12.5 10,13.742641 9.501841,14.873159 8.6875,15.6875 L 4.875,19.46875 5.59375,20.1875 9.375,16.375 C 10.370305,15.379696 11,14.018783 11,12.5 z"
     id="path2824" />
  <path
     style="fill:#000000;fill-opacity:1;stroke:none"
     d="m 7,10.5 0,4 10,0 0,-4 -10,0 z"
     id="rect2840" />
  <path
     id="path2843"
     d="m 27,0 -10,0 0,10 1.5,-1.5 0,-7 7,0 L 27,0 z"
     style="fill:#000000;fill-opacity:1;stroke:none" />
  <path
     id="path2845"
     d="M 29,12.5 C 29,9.876648 27.937912,7.500411 26.21875,5.78125 l -2.5,-2.5 L 23,4 25.5,6.5 c 1.538198,1.538198 2.5,3.65279 2.5,6 0,2.34721 -0.961802,4.461802 -2.5,6 l -3.78125,3.8125 0.6875,0.6875 3.8125,-3.78125 C 27.937912,17.499589 29,15.123352 29,12.5 z"
     style="fill:#000000;fill-opacity:1;stroke:none" />
  <path
     id="path2847"
     d="m 28,12.5 c 0,-2.34721 -0.961802,-4.461802 -2.5,-6 L 23,4 l -2.125,2.125 2.5,2.5 C 24.370305,9.620304 25,10.981217 25,12.5 c 0,1.518783 -0.629695,2.879696 -1.625,3.875 l -3.78125,3.8125 2.125,2.125 L 25.5,18.5 c 1.538198,-1.538198 2.499999,-3.652789 2.5,-6 z"
     style="fill:#ffffff;fill-opacity:1;stroke:none" />
  <path
     id="path2849"
     d="M 25,12.5 C 25,10.981217 24.370305,9.620304 23.375,8.625 l -2.5,-2.5 -0.6875,0.6875 2.5,2.5 C 23.50184,10.12684 24,11.257359 24,12.5 c 0,1.242641 -0.498159,2.373159 -1.3125,3.1875 L 18.875,19.46875 19.59375,20.1875 23.375,16.375 C 24.370305,15.379696 25,14.018783 25,12.5 z"
     style="fill:#000000;fill-opacity:1;stroke:none" />
  <path
     id="path2851"
     d="m 21,10.5 0,4 10,0 0,-4 -10,0 z"
     style="fill:#000000;fill-opacity:1;stroke:none" />
</svg>
