<?xml version="1.0" encoding="UTF-8" standalone="no"?>
<svg
   xmlns:dc="http://purl.org/dc/elements/1.1/"
   xmlns:cc="http://creativecommons.org/ns#"
   xmlns:rdf="http://www.w3.org/1999/02/22-rdf-syntax-ns#"
   xmlns:svg="http://www.w3.org/2000/svg"
   xmlns="http://www.w3.org/2000/svg"
   xmlns:sodipodi="http://sodipodi.sourceforge.net/DTD/sodipodi-0.dtd"
   xmlns:inkscape="http://www.inkscape.org/namespaces/inkscape"
   version="1.0"
   width="36"
   height="23"
   id="svg2"
   inkscape:version="0.47 r22583"
   sodipodi:docname="02-07-006-01-01-01.svg">
  <defs
     id="defs16">
    <inkscape:perspective
       sodipodi:type="inkscape:persp3d"
       inkscape:vp_x="0 : 23 : 1"
       inkscape:vp_y="0 : 1000 : 0"
       inkscape:vp_z="36 : 23 : 1"
       inkscape:persp3d-origin="18 : 15.333333 : 1"
       id="perspective18" />
  </defs>
  <sodipodi:namedview
     pagecolor="#ffffff"
     bordercolor="#666666"
     borderopacity="1"
     objecttolerance="10"
     gridtolerance="10"
     guidetolerance="10"
     inkscape:pageopacity="0"
     inkscape:pageshadow="2"
     inkscape:window-width="964"
     inkscape:window-height="721"
     id="namedview14"
     showgrid="true"
     inkscape:zoom="16.701291"
     inkscape:cx="18"
     inkscape:cy="11.5"
     inkscape:window-x="365"
     inkscape:window-y="0"
     inkscape:window-maximized="0"
     inkscape:current-layer="svg2"
     showborder="true">
    <inkscape:grid
       type="xygrid"
       id="grid2824"
       empspacing="5"
       visible="true"
       enabled="true"
       snapvisiblegridlinesonly="true" />
  </sodipodi:namedview>
  <metadata
     id="metadata4">
Valerie Sutton's pixel definition of the
ISWA 2010 symbol ID 04-01-003-01-01-01
transformed by Stephen E Slevinski Jr
using line and fill polygon tracing
<rdf:RDF>
  <cc:Work
     rdf:about="">
    <dc:format>image/svg+xml</dc:format>
    <dc:type
       rdf:resource="http://purl.org/dc/dcmitype/StillImage" />
    <dc:title></dc:title>
  </cc:Work>
</rdf:RDF>
</metadata>
  <path
     style="fill:#000000;fill-opacity:1;stroke:none"
     d="m 0,12 36,0 0,1 -36,0 0,-1 z"
     id="path2831" />
  <path
     style="fill:#000000;fill-opacity:1;stroke:none"
     d="M 33.000001,10 33,0 23,4e-7 33.000001,10 z"
     id="path2964" />
  <path
     style="fill:#000000;fill-opacity:1;stroke:none"
     d="m 21,12.5 c 0,-2.623352 1.062088,-4.999589 2.78125,-6.71875 l 2.5,-2.5 L 27,4 24.5,6.5 c -1.538198,1.538198 -2.5,3.65279 -2.5,6 0,2.34721 0.961802,4.461802 2.5,6 L 28.28125,22.3125 27.59375,23 23.78125,19.21875 C 22.062088,17.499589 21,15.123352 21,12.5 z"
     id="path2817" />
  <path
     style="fill:#ffffff;fill-opacity:1;stroke:none"
     d="m 22,12.5 c 0,-2.34721 0.961802,-4.461802 2.5,-6 L 27,4 l 2.125,2.125 -2.5,2.5 C 25.629695,9.620304 25,10.981217 25,12.5 c 0,1.518783 0.629695,2.879696 1.625,3.875 l 3.78125,3.8125 -2.125,2.125 L 24.5,18.5 c -1.538198,-1.538198 -2.499999,-3.652789 -2.5,-6 z"
     id="path2819" />
  <path
     style="fill:#000000;fill-opacity:1;stroke:none"
     d="m 25,12.5 c 0,-1.518783 0.629695,-2.879696 1.625,-3.875 l 2.5,-2.5 0.6875,0.6875 -2.5,2.5 C 26.49816,10.12684 26,11.257359 26,12.5 c 0,1.242641 0.498159,2.373159 1.3125,3.1875 L 31.125,19.46875 30.40625,20.1875 26.625,16.375 C 25.629695,15.379696 25,14.018783 25,12.5 z"
     id="path2824" />
  <path
     style="fill:#000000;fill-opacity:1;stroke:none"
     d="m 29,10.5 0,4 -10,0 0,-4 10,0 z"
     id="path3027" />
  <path
     id="path3055"
     d="M 19.000001,10 19,0 9,4e-7 19.000001,10 z"
     style="fill:#000000;fill-opacity:1;stroke:none" />
  <path
     id="path3057"
     d="M 7,12.5 C 7,9.876648 8.062088,7.500411 9.78125,5.78125 l 2.5,-2.5 L 13,4 10.5,6.5 C 8.961802,8.038198 8,10.15279 8,12.5 c 0,2.34721 0.961802,4.461802 2.5,6 L 14.28125,22.3125 13.59375,23 9.78125,19.21875 C 8.062088,17.499589 7,15.123352 7,12.5 z"
     style="fill:#000000;fill-opacity:1;stroke:none" />
  <path
     id="path3059"
     d="m 8,12.5 c 0,-2.34721 0.961802,-4.461802 2.5,-6 L 13,4 l 2.125,2.125 -2.5,2.5 C 11.629695,9.620304 11,10.981217 11,12.5 c 0,1.518783 0.629695,2.879696 1.625,3.875 l 3.78125,3.8125 -2.125,2.125 L 10.5,18.5 C 8.961802,16.961802 8.000001,14.847211 8,12.5 z"
     style="fill:#ffffff;fill-opacity:1;stroke:none" />
  <path
     id="path3061"
     d="m 11,12.5 c 0,-1.518783 0.629695,-2.879696 1.625,-3.875 l 2.5,-2.5 0.6875,0.6875 -2.5,2.5 C 12.49816,10.12684 12,11.257359 12,12.5 c 0,1.242641 0.498159,2.373159 1.3125,3.1875 L 17.125,19.46875 16.40625,20.1875 12.625,16.375 C 11.629695,15.379696 11,14.018783 11,12.5 z"
     style="fill:#000000;fill-opacity:1;stroke:none" />
  <path
     id="path3063"
     d="m 15,10.5 0,4 -10,0 0,-4 10,0 z"
     style="fill:#000000;fill-opacity:1;stroke:none" />
</svg>
