<?xml version="1.0" encoding="UTF-8" standalone="no"?>
<svg
   xmlns:dc="http://purl.org/dc/elements/1.1/"
   xmlns:cc="http://creativecommons.org/ns#"
   xmlns:rdf="http://www.w3.org/1999/02/22-rdf-syntax-ns#"
   xmlns:svg="http://www.w3.org/2000/svg"
   xmlns="http://www.w3.org/2000/svg"
   xmlns:sodipodi="http://sodipodi.sourceforge.net/DTD/sodipodi-0.dtd"
   xmlns:inkscape="http://www.inkscape.org/namespaces/inkscape"
   version="1.0"
   width="36"
   height="23"
   id="svg2"
   inkscape:version="0.47 r22583"
   sodipodi:docname="02-07-006-01-03-02.svg">
  <defs
     id="defs16">
    <inkscape:perspective
       sodipodi:type="inkscape:persp3d"
       inkscape:vp_x="0 : 23 : 1"
       inkscape:vp_y="0 : 1000 : 0"
       inkscape:vp_z="36 : 23 : 1"
       inkscape:persp3d-origin="18 : 15.333333 : 1"
       id="perspective18" />
  </defs>
  <sodipodi:namedview
     pagecolor="#ffffff"
     bordercolor="#666666"
     borderopacity="1"
     objecttolerance="10"
     gridtolerance="10"
     guidetolerance="10"
     inkscape:pageopacity="0"
     inkscape:pageshadow="2"
     inkscape:window-width="964"
     inkscape:window-height="721"
     id="namedview14"
     showgrid="true"
     inkscape:zoom="16.701291"
     inkscape:cx="18"
     inkscape:cy="11.5"
     inkscape:window-x="365"
     inkscape:window-y="0"
     inkscape:window-maximized="0"
     inkscape:current-layer="svg2"
     showborder="true">
    <inkscape:grid
       type="xygrid"
       id="grid2824"
       empspacing="5"
       visible="true"
       enabled="true"
       snapvisiblegridlinesonly="true" />
  </sodipodi:namedview>
  <metadata
     id="metadata4">
Valerie Sutton's pixel definition of the
ISWA 2010 symbol ID 04-01-003-01-01-01
transformed by Stephen E Slevinski Jr
using line and fill polygon tracing
<rdf:RDF>
  <cc:Work
     rdf:about="">
    <dc:format>image/svg+xml</dc:format>
    <dc:type
       rdf:resource="http://purl.org/dc/dcmitype/StillImage" />
    <dc:title></dc:title>
  </cc:Work>
</rdf:RDF>
</metadata>
  <path
     style="fill:#000000;fill-opacity:1;stroke:none"
     d="m 0,11 36,0 0,-1 -36,0 0,1 z"
     id="path2831" />
  <path
     style="fill:#000000;fill-opacity:1;stroke:none"
     d="m 23,23 10,0 0,-10 -1.5,1.5 0,7 -7,0 L 23,23 z"
     id="path2964" />
  <path
     style="fill:#000000;fill-opacity:1;stroke:none"
     d="m 21,10.5 c 0,2.623352 1.062088,4.999589 2.78125,6.71875 l 2.5,2.5 L 27,19 24.5,16.5 C 22.961802,14.961802 22,12.84721 22,10.5 22,8.15279 22.961802,6.038198 24.5,4.5 L 28.28125,0.6875 27.59375,0 23.78125,3.78125 C 22.062088,5.500411 21,7.876648 21,10.5 z"
     id="path2817" />
  <path
     style="fill:#ffffff;fill-opacity:1;stroke:none"
     d="m 22,10.5 c 0,2.34721 0.961802,4.461802 2.5,6 l 2.5,2.5 2.125,-2.125 -2.5,-2.5 C 25.629695,13.379696 25,12.018783 25,10.5 25,8.981217 25.629695,7.620304 26.625,6.625 L 30.40625,2.8125 28.28125,0.6875 24.5,4.5 c -1.538198,1.538198 -2.499999,3.652789 -2.5,6 z"
     id="path2819" />
  <path
     style="fill:#000000;fill-opacity:1;stroke:none"
     d="m 25,10.5 c 0,1.518783 0.629695,2.879696 1.625,3.875 l 2.5,2.5 0.6875,-0.6875 -2.5,-2.5 C 26.49816,12.87316 26,11.742641 26,10.5 26,9.257359 26.498159,8.126841 27.3125,7.3125 L 31.125,3.53125 30.40625,2.8125 26.625,6.625 C 25.629695,7.620304 25,8.981217 25,10.5 z"
     id="path2824" />
  <path
     style="fill:#000000;fill-opacity:1;stroke:none"
     d="m 29,12.5 0,-4 -10,0 0,4 10,0 z"
     id="rect2840" />
  <path
     id="path2843"
     d="m 9,23 10,0 0,-10 -1.5,1.5 0,7 -7,0 L 9,23 z"
     style="fill:#000000;fill-opacity:1;stroke:none" />
  <path
     id="path2845"
     d="m 7,10.5 c 0,2.623352 1.062088,4.999589 2.78125,6.71875 l 2.5,2.5 L 13,19 10.5,16.5 C 8.961802,14.961802 8,12.84721 8,10.5 8,8.15279 8.961802,6.038198 10.5,4.5 L 14.28125,0.6875 13.59375,0 9.78125,3.78125 C 8.062088,5.500411 7,7.876648 7,10.5 z"
     style="fill:#000000;fill-opacity:1;stroke:none" />
  <path
     id="path2847"
     d="m 8,10.5 c 0,2.34721 0.961802,4.461802 2.5,6 l 2.5,2.5 2.125,-2.125 -2.5,-2.5 C 11.629695,13.379696 11,12.018783 11,10.5 11,8.981217 11.629695,7.620304 12.625,6.625 L 16.40625,2.8125 14.28125,0.6875 10.5,4.5 C 8.961802,6.038198 8.000001,8.152789 8,10.5 z"
     style="fill:#ffffff;fill-opacity:1;stroke:none" />
  <path
     id="path2849"
     d="m 11,10.5 c 0,1.518783 0.629695,2.879696 1.625,3.875 l 2.5,2.5 0.6875,-0.6875 -2.5,-2.5 C 12.49816,12.87316 12,11.742641 12,10.5 12,9.257359 12.498159,8.126841 13.3125,7.3125 L 17.125,3.53125 16.40625,2.8125 12.625,6.625 C 11.629695,7.620304 11,8.981217 11,10.5 z"
     style="fill:#000000;fill-opacity:1;stroke:none" />
  <path
     id="path2851"
     d="m 15,12.5 0,-4 -10,0 0,4 10,0 z"
     style="fill:#000000;fill-opacity:1;stroke:none" />
</svg>
