<?xml version="1.0" encoding="UTF-8" standalone="no"?>
<svg
   xmlns:dc="http://purl.org/dc/elements/1.1/"
   xmlns:cc="http://creativecommons.org/ns#"
   xmlns:rdf="http://www.w3.org/1999/02/22-rdf-syntax-ns#"
   xmlns:svg="http://www.w3.org/2000/svg"
   xmlns="http://www.w3.org/2000/svg"
   xmlns:sodipodi="http://sodipodi.sourceforge.net/DTD/sodipodi-0.dtd"
   xmlns:inkscape="http://www.inkscape.org/namespaces/inkscape"
   version="1.0"
   width="35"
   height="35"
   id="svg2"
   inkscape:version="0.47 r22583"
   sodipodi:docname="04-02-005-04-05-01.svg">
  <defs
     id="defs14">
    <inkscape:perspective
       sodipodi:type="inkscape:persp3d"
       inkscape:vp_x="0 : 2 : 1"
       inkscape:vp_y="0 : 1000 : 0"
       inkscape:vp_z="8 : 2 : 1"
       inkscape:persp3d-origin="4 : 1.3333333 : 1"
       id="perspective16" />
  </defs>
  <sodipodi:namedview
     pagecolor="#ffffff"
     bordercolor="#666666"
     borderopacity="1"
     objecttolerance="10"
     gridtolerance="10"
     guidetolerance="10"
     inkscape:pageopacity="0"
     inkscape:pageshadow="2"
     inkscape:window-width="1035"
     inkscape:window-height="791"
     id="namedview12"
     showgrid="true"
     inkscape:zoom="15.81"
     inkscape:cx="17.50389"
     inkscape:cy="17.5"
     inkscape:window-x="208"
     inkscape:window-y="0"
     inkscape:window-maximized="0"
     inkscape:current-layer="svg2">
    <inkscape:grid
       type="xygrid"
       id="grid2822" />
  </sodipodi:namedview>
  <metadata
     id="metadata4">
Valerie Sutton's pixel definition of the
ISWA 2010 symbol ID 04-02-004-01-05-01
transformed by Stephen E Slevinski Jr
using line and fill polygon tracing
<rdf:RDF>
  <cc:Work
     rdf:about="">
    <dc:format>image/svg+xml</dc:format>
    <dc:type
       rdf:resource="http://purl.org/dc/dcmitype/StillImage" />
    <dc:title></dc:title>
  </cc:Work>
</rdf:RDF>
</metadata>
  <path
     style="fill:#000000;fill-opacity:1;stroke:none"
     d="M 17.5 0 C 7.8350169 4.7369516e-15 1.087327e-16 7.8350169 0 17.5 C 0 27.164983 7.8350169 35 17.5 35 C 27.164983 35 35 27.164983 35 17.5 C 35 7.8350169 27.164983 -3.443981e-15 17.5 0 z M 17.5 2 C 26.060414 2 33 8.9395864 33 17.5 C 33 26.060414 26.060414 33 17.5 33 C 8.9395864 33 2 26.060414 2 17.5 C 2 8.9395864 8.9395864 2 17.5 2 z "
     id="path2905" />
  <path
     style="fill:#000000;fill-opacity:1;stroke:none"
     d="M 11.5 10 C 9.0147186 10 7 11.790861 7 14 L 6 14 L 6 15 L 7 15 C 7 17.209139 9.0147186 19 11.5 19 C 13.985281 19 16 17.209139 16 15 L 17 15 L 17 14 L 16 14 C 16 11.790861 13.985281 10 11.5 10 z M 11.5 12 C 13.432997 12 15 12.895431 15 14 L 8 14 C 8 12.895431 9.5670034 12 11.5 12 z M 8 15 L 15 15 C 15 16.104569 13.432997 17 11.5 17 C 9.5670034 17 8 16.104569 8 15 z "
     id="path2857" />
  <path
     style="fill:#000000;fill-opacity:1;stroke:none"
     d="M 23.5 10 C 21.014719 10 19 11.790861 19 14 L 18 14 L 18 15 L 19 15 C 19 17.209139 21.014719 19 23.5 19 C 25.985281 19 28 17.209139 28 15 L 29 15 L 29 14 L 28 14 C 28 11.790861 25.985281 10 23.5 10 z M 23.5 12 C 25.432997 12 27 12.895431 27 14 L 20 14 C 20 12.895431 21.567003 12 23.5 12 z M 20 15 L 27 15 C 27 16.104569 25.432997 17 23.5 17 C 21.567003 17 20 16.104569 20 15 z "
     id="path2960" />
</svg>
