<?xml version="1.0" encoding="UTF-8" standalone="no"?>
<svg
   xmlns:dc="http://purl.org/dc/elements/1.1/"
   xmlns:cc="http://creativecommons.org/ns#"
   xmlns:rdf="http://www.w3.org/1999/02/22-rdf-syntax-ns#"
   xmlns:svg="http://www.w3.org/2000/svg"
   xmlns="http://www.w3.org/2000/svg"
   xmlns:sodipodi="http://sodipodi.sourceforge.net/DTD/sodipodi-0.dtd"
   xmlns:inkscape="http://www.inkscape.org/namespaces/inkscape"
   version="1.0"
   width="35"
   height="35"
   id="svg2"
   inkscape:version="0.47 r22583"
   sodipodi:docname="04-02-008-03-01-05.svg">
  <defs
     id="defs14">
    <inkscape:perspective
       sodipodi:type="inkscape:persp3d"
       inkscape:vp_x="0 : 3.5 : 1"
       inkscape:vp_y="0 : 1000 : 0"
       inkscape:vp_z="7 : 3.5 : 1"
       inkscape:persp3d-origin="3.5 : 2.3333333 : 1"
       id="perspective16" />
  </defs>
  <sodipodi:namedview
     pagecolor="#ffffff"
     bordercolor="#666666"
     borderopacity="1"
     objecttolerance="10"
     gridtolerance="10"
     guidetolerance="10"
     inkscape:pageopacity="0"
     inkscape:pageshadow="2"
     inkscape:window-width="928"
     inkscape:window-height="791"
     id="namedview12"
     showgrid="true"
     inkscape:zoom="15.722143"
     inkscape:cx="17.361523"
     inkscape:cy="17.392295"
     inkscape:window-x="273"
     inkscape:window-y="0"
     inkscape:window-maximized="0"
     inkscape:current-layer="svg2">
    <inkscape:grid
       type="xygrid"
       id="grid2822" />
  </sodipodi:namedview>
  <metadata
     id="metadata4">
Valerie Sutton's pixel definition of the
ISWA 2010 symbol ID 04-02-007-01-04-01
transformed by Stephen E Slevinski Jr
using line and fill polygon tracing
<rdf:RDF>
  <cc:Work
     rdf:about="">
    <dc:format>image/svg+xml</dc:format>
    <dc:type
       rdf:resource="http://purl.org/dc/dcmitype/StillImage" />
    <dc:title />
  </cc:Work>
</rdf:RDF>
</metadata>
  <path
     style="fill:#000000;fill-opacity:1;stroke:none"
     d="M 15,10.5 11.5,7 10.78125,7.71875 13.59375,10.5 10.78125,13.28125 11.5,14 15,10.5 z"
     id="path2841" />
  <path
     style="fill:#000000;fill-opacity:1;stroke:none"
     d="M 7 10 L 7 15 L 8 15 L 8 11 L 12 11 L 12 10 L 7 10 z "
     id="rect2849" />
  <path
     style="fill:#000000;fill-opacity:1;stroke:none"
     d="M 17.5 0 C 7.8350169 4.7369516e-15 1.087327e-16 7.8350169 0 17.5 C 0 27.164983 7.8350169 35 17.5 35 C 27.164983 35 35 27.164983 35 17.5 C 35 7.8350169 27.164983 -3.443981e-15 17.5 0 z M 17.5 2 C 26.060414 2 33 8.9395864 33 17.5 C 33 26.060414 26.060414 33 17.5 33 C 8.9395864 33 2 26.060414 2 17.5 C 2 8.9395864 8.9395864 2 17.5 2 z "
     id="path3127" />
  <path
     id="path2897"
     d="M 28,10.5 24.5,7 23.78125,7.71875 26.59375,10.5 23.78125,13.28125 24.5,14 28,10.5 z"
     style="fill:#000000;fill-opacity:1;stroke:none" />
  <path
     id="path2899"
     d="m 20,10 0,5 1,0 0,-4 4,0 0,-1 -5,0 z"
     style="fill:#000000;fill-opacity:1;stroke:none" />
</svg>
