<?xml version="1.0" encoding="UTF-8" standalone="no"?>
<svg
   xmlns:dc="http://purl.org/dc/elements/1.1/"
   xmlns:cc="http://creativecommons.org/ns#"
   xmlns:rdf="http://www.w3.org/1999/02/22-rdf-syntax-ns#"
   xmlns:svg="http://www.w3.org/2000/svg"
   xmlns="http://www.w3.org/2000/svg"
   xmlns:sodipodi="http://sodipodi.sourceforge.net/DTD/sodipodi-0.dtd"
   xmlns:inkscape="http://www.inkscape.org/namespaces/inkscape"
   version="1.0"
   width="28"
   height="17"
   id="svg2"
   inkscape:version="0.47 r22583"
   sodipodi:docname="02-03-002-01-02-01.svg">
  <defs
     id="defs16">
    <inkscape:perspective
       sodipodi:type="inkscape:persp3d"
       inkscape:vp_x="0 : 23 : 1"
       inkscape:vp_y="0 : 1000 : 0"
       inkscape:vp_z="36 : 23 : 1"
       inkscape:persp3d-origin="18 : 15.333333 : 1"
       id="perspective18" />
  </defs>
  <sodipodi:namedview
     pagecolor="#ffffff"
     bordercolor="#666666"
     borderopacity="1"
     objecttolerance="10"
     gridtolerance="10"
     guidetolerance="10"
     inkscape:pageopacity="0"
     inkscape:pageshadow="2"
     inkscape:window-width="964"
     inkscape:window-height="721"
     id="namedview14"
     showgrid="true"
     inkscape:zoom="16.68"
     inkscape:cx="13.436817"
     inkscape:cy="7.0726894"
     inkscape:window-x="365"
     inkscape:window-y="0"
     inkscape:window-maximized="0"
     inkscape:current-layer="svg2"
     showborder="true">
    <inkscape:grid
       type="xygrid"
       id="grid2824"
       empspacing="5"
       visible="true"
       enabled="true"
       snapvisiblegridlinesonly="true" />
  </sodipodi:namedview>
  <metadata
     id="metadata4">
Valerie Sutton's pixel definition of the
ISWA 2010 symbol ID 04-01-003-01-01-01
transformed by Stephen E Slevinski Jr
using line and fill polygon tracing
<rdf:RDF>
  <cc:Work
     rdf:about="">
    <dc:format>image/svg+xml</dc:format>
    <dc:type
       rdf:resource="http://purl.org/dc/dcmitype/StillImage" />
    <dc:title></dc:title>
  </cc:Work>
</rdf:RDF>
</metadata>
  <path
     style="fill:#000000"
     d="m 7.5,17 -7,-7 14,0 -7,7 z M 7.5,15.5625 12.0625,11 2.9375,11 7.5,15.5625 z"
     id="path2818" />
  <path
     style="fill:#000000;fill-opacity:1;stroke:none"
     d="M 4,10 6,10 6,3 4,3 4,10 z"
     id="path2831" />
  <path
     id="path2833"
     d="m 9,10 2,0 0,-7 -2,0 0,7 z"
     style="fill:#000000;fill-opacity:1;stroke:none" />
  <path
     style="fill:#ffffff;fill-opacity:1;stroke:none"
     d="M 6,10 6,3 9,3 9,10 6,10 z"
     id="rect2821" />
  <path
     style="fill:#ffffff"
     d="M 7.5,15.5625 2.9375,11 12.0625,11 7.5,15.5625 z"
     id="path3008" />
  <path
     id="path2866"
     d="m 20.5,0 -7,7 14,0 -7,-7 z m 0,1.4375 L 25.0625,6 15.9375,6 20.5,1.4375 z"
     style="fill:#000000" />
  <path
     id="path2868"
     d="m 17,7 2,0 0,7 -2,0 0,-7 z"
     style="fill:#000000;fill-opacity:1;stroke:none" />
  <path
     style="fill:#000000;fill-opacity:1;stroke:none"
     d="m 22,7 2,0 0,7 -2,0 0,-7 z"
     id="path2870" />
  <path
     id="path2872"
     d="m 19,7 0,7 3,0 0,-7 -3,0 z"
     style="fill:#ffffff;fill-opacity:1;stroke:none" />
  <path
     id="path2874"
     d="M 20.5,1.4375 15.9375,6 25.0625,6 20.5,1.4375 z"
     style="fill:#ffffff" />
</svg>
