<?xml version="1.0" encoding="UTF-8" standalone="no"?>
<!-- Created with Inkscape (http://www.inkscape.org/) -->

<svg
   xmlns:dc="http://purl.org/dc/elements/1.1/"
   xmlns:cc="http://creativecommons.org/ns#"
   xmlns:rdf="http://www.w3.org/1999/02/22-rdf-syntax-ns#"
   xmlns:svg="http://www.w3.org/2000/svg"
   xmlns="http://www.w3.org/2000/svg"
   xmlns:sodipodi="http://sodipodi.sourceforge.net/DTD/sodipodi-0.dtd"
   xmlns:inkscape="http://www.inkscape.org/namespaces/inkscape"
   width="25"
   height="31"
   id="svg3198"
   sodipodi:version="0.32"
   inkscape:version="0.47 r22583"
   version="1.0"
   sodipodi:docname="01-05-003-01-04.svg"
   inkscape:output_extension="org.inkscape.output.svg.inkscape">
  <defs
     id="defs3200">
    <inkscape:perspective
       sodipodi:type="inkscape:persp3d"
       inkscape:vp_x="0 : 526.18109 : 1"
       inkscape:vp_y="0 : 1000 : 0"
       inkscape:vp_z="744.09448 : 526.18109 : 1"
       inkscape:persp3d-origin="372.04724 : 350.78739 : 1"
       id="perspective3206" />
  </defs>
  <sodipodi:namedview
     id="namedview3727"
     pagecolor="#ffffff"
     bordercolor="#666666"
     borderopacity="1.0"
     gridtolerance="10000"
     guidetolerance="10"
     objecttolerance="10"
     inkscape:pageopacity="0.0"
     inkscape:pageshadow="2"
     inkscape:zoom="15.99325"
     inkscape:cx="13.660582"
     inkscape:cy="14.700564"
     inkscape:document-units="px"
     inkscape:current-layer="svg3198"
     showgrid="true"
     inkscape:window-width="1260"
     inkscape:window-height="779"
     inkscape:window-x="63"
     inkscape:window-y="19"
     inkscape:window-maximized="0">
    <inkscape:grid
       type="xygrid"
       id="grid3208"
       visible="true"
       enabled="true" />
  </sodipodi:namedview>
  <metadata
     id="metadata3203">
    <rdf:RDF>
      <cc:Work
         rdf:about="">
        <dc:format>image/svg+xml</dc:format>
        <dc:type
           rdf:resource="http://purl.org/dc/dcmitype/StillImage" />
        <dc:title></dc:title>
      </cc:Work>
    </rdf:RDF>
  </metadata>
  <g
     inkscape:label="Layer 1"
     inkscape:groupmode="layer"
     id="" />
  <path
     style="fill:#000000;fill-opacity:1;stroke:none"
     d="m 8,31 0,-17 5,-5 5,5 0,17 -10,0 z"
     id="base" />
  <path
     style="fill:#ffffff;fill-opacity:1;stroke:none"
     d="m 13,11.8125 -3,3 0,14.1875 6,0 0,-14.1875 -3,-3 z"
     id="fill" />
  <path
     style="fill:#000000;fill-opacity:1;stroke:none"
     d="M 19.15625 2.5 C 17.638312 2.5978964 16.8125 4.0625 16.8125 4.0625 L 15.8125 5.8125 L 17.53125 6.8125 C 17.875667 6.2355098 18.199094 5.646331 18.53125 5.0625 C 18.90625 4.4129809 19.482993 4.5562199 19.75 4.65625 C 19.80231 4.686452 19.72146 4.612062 19.90625 4.71875 C 20.772275 5.21875 20.28125 6.0625 20.28125 6.0625 L 17.0625 11.625 L 18.53125 13.09375 C 19.688868 11.084121 20.835447 9.0681192 22 7.0625 C 23.5 4.4644238 20.90625 2.96875 20.90625 2.96875 C 20.256731 2.59375 19.662229 2.4673679 19.15625 2.5 z "
     id="index" />
  <path
     style="fill:#000000;fill-opacity:1;stroke:none"
     d="M 11,0 C 8,0 8,3 8,3 l 0,3 2,0 0,-3 C 10,2.25 10.5625,2.046875 10.84375,2 L 11,2 c 1,0 1,1 1,1 l 0,5.59375 1,-1 1,1 L 14,3 C 14,0 11,0 11,0 z"
     id="middle"
     sodipodi:nodetypes="ccccccccccccc" />
  <path
     style="fill:#000000;fill-opacity:1;stroke:none"
     d="M 3.125 4.5625 C 2.2879809 4.612741 1.625 4.96875 1.625 4.96875 C -0.9730762 6.46875 0.53125 9.0625 0.53125 9.0625 L 1.53125 10.8125 L 3.28125 9.8125 C 2.9368335 9.2355098 2.6134056 8.646331 2.28125 8.0625 C 1.78125 7.1964746 2.625 6.71875 2.625 6.71875 C 3.4910254 6.21875 4 7.0625 4 7.0625 L 7.46875 13.09375 L 8.9375 11.625 C 7.8655948 9.7702522 6.7944297 7.9150595 5.71875 6.0625 C 4.96875 4.7634619 3.9620191 4.5122595 3.125 4.5625 z "
     id="ring" />
  <path
     style="fill:#000000;fill-opacity:1;stroke:none"
     d="M 3.125 13.5625 C 2.2879809 13.61274 1.625 13.96875 1.625 13.96875 C -0.9730762 15.46875 0.53125 18.0625 0.53125 18.0625 L 1.53125 19.8125 L 3.28125 18.8125 C 2.9368335 18.23551 2.6134056 17.646331 2.28125 17.0625 C 1.78125 16.196475 2.625 15.71875 2.625 15.71875 C 3.4910254 15.21875 4 16.0625 4 16.0625 L 7 21.25 L 7 17.28125 C 6.5754081 16.540232 6.1475927 15.801062 5.71875 15.0625 C 4.96875 13.763462 3.9620191 13.512259 3.125 13.5625 z "
     id="baby" />
  <path
     style="fill:#000000;fill-opacity:1;stroke:none"
     d="m 23,21 c 0,1 -1,1 -1,1 l -3,0 0,2 3,0 c 0,0 3,0 3,-3 0,-3.108775 -3,-3 -3,-3 l -2,0 0,2 2,0 c 0,0 1,0.08876 1,1 z"
     id="thumb" />
</svg>
