<?xml version="1.0" encoding="UTF-8" standalone="no"?>
<svg
   xmlns:dc="http://purl.org/dc/elements/1.1/"
   xmlns:cc="http://creativecommons.org/ns#"
   xmlns:rdf="http://www.w3.org/1999/02/22-rdf-syntax-ns#"
   xmlns:svg="http://www.w3.org/2000/svg"
   xmlns="http://www.w3.org/2000/svg"
   xmlns:sodipodi="http://sodipodi.sourceforge.net/DTD/sodipodi-0.dtd"
   xmlns:inkscape="http://www.inkscape.org/namespaces/inkscape"
   version="1.0"
   width="41"
   height="38"
   id="svg2"
   inkscape:version="0.47 r22583"
   sodipodi:docname="04-05-009-01-01-02.svg">
  <defs
     id="defs14">
    <inkscape:perspective
       sodipodi:type="inkscape:persp3d"
       inkscape:vp_x="0 : 17.5 : 1"
       inkscape:vp_y="0 : 1000 : 0"
       inkscape:vp_z="36 : 17.5 : 1"
       inkscape:persp3d-origin="18 : 11.666667 : 1"
       id="perspective16" />
  </defs>
  <sodipodi:namedview
     pagecolor="#ffffff"
     bordercolor="#666666"
     borderopacity="1"
     objecttolerance="10"
     gridtolerance="10"
     guidetolerance="10"
     inkscape:pageopacity="0"
     inkscape:pageshadow="2"
     inkscape:window-width="993"
     inkscape:window-height="789"
     id="namedview12"
     showgrid="true"
     inkscape:zoom="14.452681"
     inkscape:cx="18"
     inkscape:cy="18.765251"
     inkscape:window-x="209"
     inkscape:window-y="0"
     inkscape:window-maximized="0"
     inkscape:current-layer="svg2">
    <inkscape:grid
       type="xygrid"
       id="grid2822" />
  </sodipodi:namedview>
  <metadata
     id="metadata4">
Valerie Sutton's pixel definition of the
ISWA 2010 symbol ID 04-03-001-01-01-01
transformed by Stephen E Slevinski Jr
using line and fill polygon tracing
<rdf:RDF>
  <cc:Work
     rdf:about="">
    <dc:format>image/svg+xml</dc:format>
    <dc:type
       rdf:resource="http://purl.org/dc/dcmitype/StillImage" />
    <dc:title></dc:title>
  </cc:Work>
</rdf:RDF>
</metadata>
  <path
     style="fill:#000000;fill-opacity:1;stroke:none"
     d="m 20.5,-3e-6 c -9.664983,0 -17.5,7.8350169 -17.5,17.5 0,9.664983 7.835017,17.5 17.5,17.5 9.664983,0 17.5,-7.835017 17.5,-17.5 0,-9.6649831 -7.835017,-17.5 -17.5,-17.5 z m 0,2 c 8.560414,0 15.5,6.9395864 15.5,15.5 0,8.560414 -6.939586,15.5 -15.5,15.5 -8.560414,0 -15.5,-6.939586 -15.5,-15.5 0,-8.5604136 6.939586,-15.5 15.5,-15.5 z"
     id="path2824" />
  <path
     style="fill:#000000;fill-opacity:1;stroke:none"
     d="m 25.09375,32.312497 c 0.65321,-0.203169 1.293254,-0.465907 1.90625,-0.75 -1.287946,-2.116957 -3.702326,-3.562502 -6.5,-3.5625 -2.797672,0 -5.212054,1.445543 -6.5,3.5625 0.612996,0.284093 1.25304,0.546831 1.90625,0.75 0.978578,-1.37779 2.65673,-2.3125 4.59375,-2.3125 1.93702,0 3.615172,0.93471 4.59375,2.3125 z"
     id="path2823" />
  <path
     style="fill:#000000;fill-opacity:1;stroke:none"
     d="M 3.9999999,33 9,33 l -2e-7,-1 -5,0 1e-7,1 z"
     id="path2922" />
  <path
     style="fill:#000000;fill-opacity:1;stroke:none"
     d="M -5e-7,33.999999 4,38 4.71875,37.28125 1.4062496,33.999999 l 3.312502,-3.281248 -0.71875,-0.71875 -4,4 z"
     id="path2914" />
  <path
     style="fill:#000000;fill-opacity:1;stroke:none"
     d="m 3.9999996,36 5.0000002,0 -2e-7,-1 -5.0000001,-10e-7 1e-7,1.000001 z"
     id="rect2924" />
  <path
     id="path2934"
     d="m 36,33 5,0 0,-1 -5,0 0,1 z"
     style="fill:#000000;fill-opacity:1;stroke:none" />
  <path
     id="path2936"
     d="M 32,33.999999 36,38 36.71875,37.28125 33.406248,34.000002 36.71875,30.718753 36,30.000003 32,34.000004 z"
     style="fill:#000000;fill-opacity:1;stroke:none" />
  <path
     id="path2938"
     d="m 36,35.999999 5,0 0,-1 -5,0 0,1 z"
     style="fill:#000000;fill-opacity:1;stroke:none" />
</svg>
