<?xml version="1.0" encoding="UTF-8" standalone="no"?>
<svg
   xmlns:dc="http://purl.org/dc/elements/1.1/"
   xmlns:cc="http://creativecommons.org/ns#"
   xmlns:rdf="http://www.w3.org/1999/02/22-rdf-syntax-ns#"
   xmlns:svg="http://www.w3.org/2000/svg"
   xmlns="http://www.w3.org/2000/svg"
   xmlns:sodipodi="http://sodipodi.sourceforge.net/DTD/sodipodi-0.dtd"
   xmlns:inkscape="http://www.inkscape.org/namespaces/inkscape"
   version="1.0"
   width="41"
   height="38"
   id="svg2"
   inkscape:version="0.47 r22583"
   sodipodi:docname="04-05-009-01-01-04.svg">
  <defs
     id="defs14">
    <inkscape:perspective
       sodipodi:type="inkscape:persp3d"
       inkscape:vp_x="0 : 17.5 : 1"
       inkscape:vp_y="0 : 1000 : 0"
       inkscape:vp_z="36 : 17.5 : 1"
       inkscape:persp3d-origin="18 : 11.666667 : 1"
       id="perspective16" />
  </defs>
  <sodipodi:namedview
     pagecolor="#ffffff"
     bordercolor="#666666"
     borderopacity="1"
     objecttolerance="10"
     gridtolerance="10"
     guidetolerance="10"
     inkscape:pageopacity="0"
     inkscape:pageshadow="2"
     inkscape:window-width="993"
     inkscape:window-height="789"
     id="namedview12"
     showgrid="true"
     inkscape:zoom="14.452681"
     inkscape:cx="18"
     inkscape:cy="19"
     inkscape:window-x="209"
     inkscape:window-y="0"
     inkscape:window-maximized="0"
     inkscape:current-layer="svg2">
    <inkscape:grid
       type="xygrid"
       id="grid2822" />
  </sodipodi:namedview>
  <metadata
     id="metadata4">
Valerie Sutton's pixel definition of the
ISWA 2010 symbol ID 04-03-001-01-01-01
transformed by Stephen E Slevinski Jr
using line and fill polygon tracing
<rdf:RDF>
  <cc:Work
     rdf:about="">
    <dc:format>image/svg+xml</dc:format>
    <dc:type
       rdf:resource="http://purl.org/dc/dcmitype/StillImage" />
    <dc:title></dc:title>
  </cc:Work>
</rdf:RDF>
</metadata>
  <path
     style="fill:#000000;fill-opacity:1;stroke:none"
     d="M 20.5,0 C 10.835017,0 3,7.8350169 3,17.5 3,27.164983 10.835017,35 20.5,35 30.164983,35 38,27.164983 38,17.5 38,7.8350169 30.164983,0 20.5,0 z m 0,2 C 29.060414,2 36,8.9395864 36,17.5 36,26.060414 29.060414,33 20.5,33 11.939586,33 5,26.060414 5,17.5 5,8.9395864 11.939586,2 20.5,2 z"
     id="path2824" />
  <path
     style="fill:#000000;fill-opacity:1;stroke:none"
     d="M 25.09375,32.3125 C 25.74696,32.109331 26.387004,31.846593 27,31.5625 25.712054,29.445543 23.297674,27.999998 20.5,28 c -2.797672,0 -5.212054,1.445543 -6.5,3.5625 0.612996,0.284093 1.25304,0.546831 1.90625,0.75 C 16.884828,30.93471 18.56298,30 20.5,30 c 1.93702,0 3.615172,0.93471 4.59375,2.3125 z"
     id="path2823" />
  <path
     style="fill:#000000;fill-opacity:1;stroke:none"
     d="M 3.0000001,34 3,29 l -1.0000001,0 0,5 1.0000002,0 z"
     id="path2922" />
  <path
     style="fill:#000000;fill-opacity:1;stroke:none"
     d="m 4.0000002,38 3.9999999,-4 -0.71875,-0.71875 -3.2812479,3.312502 -3.28125051,-3.3125 -0.71875,0.71875 4.00000051,4 z"
     id="path2914" />
  <path
     style="fill:#000000;fill-opacity:1;stroke:none"
     d="m 5.9999999,34 -10e-8,-5 -1.0000002,0 1e-7,5 1.0000002,0 z"
     id="rect2924" />
  <path
     id="path2934"
     d="m 36,34 0,-5 -1,0 0,5 1,0 z"
     style="fill:#000000;fill-opacity:1;stroke:none" />
  <path
     id="path2936"
     d="M 36.999999,38 41,34 40.28125,33.28125 37.000002,36.593752 33.718753,33.28125 33.000003,34 l 4.000001,4 z"
     style="fill:#000000;fill-opacity:1;stroke:none" />
  <path
     id="path2938"
     d="m 38.999999,34 0,-5 -1,0 0,5 1,0 z"
     style="fill:#000000;fill-opacity:1;stroke:none" />
</svg>
