<?xml version="1.0" encoding="UTF-8" standalone="no"?>
<svg
   xmlns:dc="http://purl.org/dc/elements/1.1/"
   xmlns:cc="http://creativecommons.org/ns#"
   xmlns:rdf="http://www.w3.org/1999/02/22-rdf-syntax-ns#"
   xmlns:svg="http://www.w3.org/2000/svg"
   xmlns="http://www.w3.org/2000/svg"
   xmlns:sodipodi="http://sodipodi.sourceforge.net/DTD/sodipodi-0.dtd"
   xmlns:inkscape="http://www.inkscape.org/namespaces/inkscape"
   version="1.0"
   width="8"
   height="20"
   id="svg2"
   inkscape:version="0.47 r22583"
   sodipodi:docname="05-01-007-01-04-01.svg">
  <defs
     id="defs14">
    <inkscape:perspective
       sodipodi:type="inkscape:persp3d"
       inkscape:vp_x="0 : 5.5 : 1"
       inkscape:vp_y="0 : 1000 : 0"
       inkscape:vp_z="10 : 5.5 : 1"
       inkscape:persp3d-origin="5 : 3.6666667 : 1"
       id="perspective16" />
  </defs>
  <sodipodi:namedview
     pagecolor="#ffffff"
     bordercolor="#666666"
     borderopacity="1"
     objecttolerance="10"
     gridtolerance="10"
     guidetolerance="10"
     inkscape:pageopacity="0"
     inkscape:pageshadow="2"
     inkscape:window-width="917"
     inkscape:window-height="792"
     id="namedview12"
     showgrid="true"
     inkscape:zoom="16.738612"
     inkscape:cx="4.0011173"
     inkscape:cy="10.002793"
     inkscape:window-x="313"
     inkscape:window-y="0"
     inkscape:window-maximized="0"
     inkscape:current-layer="svg2"
     showborder="true"
     inkscape:showpageshadow="true">
    <inkscape:grid
       type="xygrid"
       id="grid2822"
       empspacing="5"
       visible="true"
       enabled="true"
       snapvisiblegridlinesonly="true" />
  </sodipodi:namedview>
  <metadata
     id="metadata4">
Valerie Sutton's pixel definition of the
ISWA 2010 symbol ID 02-01-001-01-01-01
transformed by Stephen E Slevinski Jr
using line and fill polygon tracing
<rdf:RDF>
  <cc:Work
     rdf:about="">
    <dc:format>image/svg+xml</dc:format>
    <dc:type
       rdf:resource="http://purl.org/dc/dcmitype/StillImage" />
    <dc:title></dc:title>
  </cc:Work>
</rdf:RDF>
</metadata>
  <path
     style="fill:#000000;fill-opacity:1;stroke:none"
     d="M 2,0 8,0 8,6 7,6 7,1 2,1 2,0 z"
     id="rect2952" />
  <path
     style="fill:#000000;fill-opacity:1;stroke:none"
     d="M 3,10 C 3,7.552049 4.004789,5.33809 5.625,3.75 L 6.34375,4.46875 C 4.90368,5.875934 4,7.8275 4,10 c 0,2.1725 0.90368,4.124066 2.34375,5.53125 L 8,17.15625 7.28125,17.875 5.625,16.25 C 4.004789,14.66191 3,12.447951 3,10 z"
     id="path2970" />
  <path
     style="fill:#ffffff;fill-opacity:1;stroke:none"
     d="M 1,10 C 1,7.015367 2.2234985,4.322811 4.1875,2.375 L 5.625,3.75 C 4.004789,5.33809 3,7.552049 3,10 c 0,2.447951 1.004789,4.66191 2.625,6.25 L 7.28125,17.875 5.875,19.28125 4.1875,17.625 C 2.2234985,15.677189 1,12.984633 1,10 z"
     id="path2968" />
  <path
     style="fill:#000000;fill-opacity:1;stroke:none"
     d="M 0,10 C 0,6.739477 1.3240792,3.784993 3.46875,1.65625 L 4.1875,2.375 C 2.2234985,4.322811 1,7.015367 1,10 c 0,2.984633 1.2234985,5.677189 3.1875,7.625 L 5.875,19.28125 5.15625,20 3.46875,18.34375 C 1.3240792,16.215007 0,13.260523 0,10 z"
     id="rect2963" />
</svg>
