<?xml version="1.0" encoding="UTF-8" standalone="no"?>
<svg
   xmlns:dc="http://purl.org/dc/elements/1.1/"
   xmlns:cc="http://creativecommons.org/ns#"
   xmlns:rdf="http://www.w3.org/1999/02/22-rdf-syntax-ns#"
   xmlns:svg="http://www.w3.org/2000/svg"
   xmlns="http://www.w3.org/2000/svg"
   xmlns:sodipodi="http://sodipodi.sourceforge.net/DTD/sodipodi-0.dtd"
   xmlns:inkscape="http://www.inkscape.org/namespaces/inkscape"
   version="1.0"
   width="42"
   height="14"
   id="svg2"
   inkscape:version="0.47 r22583"
   sodipodi:docname="05-01-007-01-01-01.svg">
  <defs
     id="defs14">
    <inkscape:perspective
       sodipodi:type="inkscape:persp3d"
       inkscape:vp_x="0 : 5.5 : 1"
       inkscape:vp_y="0 : 1000 : 0"
       inkscape:vp_z="10 : 5.5 : 1"
       inkscape:persp3d-origin="5 : 3.6666667 : 1"
       id="perspective16" />
  </defs>
  <sodipodi:namedview
     pagecolor="#ffffff"
     bordercolor="#666666"
     borderopacity="1"
     objecttolerance="10"
     gridtolerance="10"
     guidetolerance="10"
     inkscape:pageopacity="0"
     inkscape:pageshadow="2"
     inkscape:window-width="917"
     inkscape:window-height="792"
     id="namedview12"
     showgrid="true"
     inkscape:zoom="16.923303"
     inkscape:cx="21.003088"
     inkscape:cy="7.0010294"
     inkscape:window-x="313"
     inkscape:window-y="0"
     inkscape:window-maximized="0"
     inkscape:current-layer="svg2"
     showborder="true"
     inkscape:showpageshadow="true">
    <inkscape:grid
       type="xygrid"
       id="grid2822"
       empspacing="5"
       visible="true"
       enabled="true"
       snapvisiblegridlinesonly="true" />
  </sodipodi:namedview>
  <metadata
     id="metadata4">
Valerie Sutton's pixel definition of the
ISWA 2010 symbol ID 02-01-001-01-01-01
transformed by Stephen E Slevinski Jr
using line and fill polygon tracing
<rdf:RDF>
  <cc:Work
     rdf:about="">
    <dc:format>image/svg+xml</dc:format>
    <dc:type
       rdf:resource="http://purl.org/dc/dcmitype/StillImage" />
    <dc:title />
  </cc:Work>
</rdf:RDF>
</metadata>
  <path
     style="fill:#000000;fill-opacity:1;stroke:none"
     d="m 42,10 -42,0 0,4 42,0 0,-4 z"
     id="rect2813" />
  <path
     style="fill:#000000;fill-opacity:1;stroke:none"
     d="M 11 2 L 11 8 L 17 8 L 17 7 L 12 7 L 12 2 L 11 2 z "
     id="rect2952" />
  <path
     style="fill:#000000;fill-opacity:1;stroke:none"
     d="M 21 3 C 18.552049 3 16.33809 4.0047893 14.75 5.625 L 15.46875 6.34375 C 16.875934 4.9036798 18.8275 4 21 4 C 23.1725 4 25.124066 4.9036798 26.53125 6.34375 L 28.15625 8 L 28.875 7.28125 L 27.25 5.625 C 25.66191 4.0047893 23.447951 3 21 3 z "
     id="path2970" />
  <path
     style="fill:#ffffff;fill-opacity:1;stroke:none"
     d="M 21 1 C 18.015367 1 15.322811 2.2234985 13.375 4.1875 L 14.75 5.625 C 16.33809 4.0047893 18.552049 3 21 3 C 23.447951 3 25.66191 4.0047893 27.25 5.625 L 28.875 7.28125 L 30.28125 5.875 L 28.625 4.1875 C 26.677189 2.2234985 23.984633 1 21 1 z "
     id="path2968" />
  <path
     style="fill:#000000;fill-opacity:1;stroke:none"
     d="M 21 0 C 17.739477 0 14.784993 1.3240792 12.65625 3.46875 L 13.375 4.1875 C 15.322811 2.2234985 18.015367 1 21 1 C 23.984633 1 26.677189 2.2234985 28.625 4.1875 L 30.28125 5.875 L 31 5.15625 L 29.34375 3.46875 C 27.215007 1.3240792 24.260523 0 21 0 z "
     id="rect2963" />
</svg>
