<?xml version="1.0" encoding="UTF-8" standalone="no"?>
<svg
   xmlns:dc="http://purl.org/dc/elements/1.1/"
   xmlns:cc="http://creativecommons.org/ns#"
   xmlns:rdf="http://www.w3.org/1999/02/22-rdf-syntax-ns#"
   xmlns:svg="http://www.w3.org/2000/svg"
   xmlns="http://www.w3.org/2000/svg"
   xmlns:sodipodi="http://sodipodi.sourceforge.net/DTD/sodipodi-0.dtd"
   xmlns:inkscape="http://www.inkscape.org/namespaces/inkscape"
   version="1.0"
   width="42"
   height="14"
   id="svg2"
   inkscape:version="0.47 r22583"
   sodipodi:docname="05-01-007-01-02-03.svg">
  <defs
     id="defs14">
    <inkscape:perspective
       sodipodi:type="inkscape:persp3d"
       inkscape:vp_x="0 : 5.5 : 1"
       inkscape:vp_y="0 : 1000 : 0"
       inkscape:vp_z="10 : 5.5 : 1"
       inkscape:persp3d-origin="5 : 3.6666667 : 1"
       id="perspective16" />
  </defs>
  <sodipodi:namedview
     pagecolor="#ffffff"
     bordercolor="#666666"
     borderopacity="1"
     objecttolerance="10"
     gridtolerance="10"
     guidetolerance="10"
     inkscape:pageopacity="0"
     inkscape:pageshadow="2"
     inkscape:window-width="917"
     inkscape:window-height="792"
     id="namedview12"
     showgrid="true"
     inkscape:zoom="16.915888"
     inkscape:cx="21.003088"
     inkscape:cy="4.6363886"
     inkscape:window-x="313"
     inkscape:window-y="0"
     inkscape:window-maximized="0"
     inkscape:current-layer="svg2"
     showborder="true"
     inkscape:showpageshadow="true">
    <inkscape:grid
       type="xygrid"
       id="grid2822"
       empspacing="5"
       visible="true"
       enabled="true"
       snapvisiblegridlinesonly="true" />
  </sodipodi:namedview>
  <metadata
     id="metadata4">
Valerie Sutton's pixel definition of the
ISWA 2010 symbol ID 02-01-001-01-01-01
transformed by Stephen E Slevinski Jr
using line and fill polygon tracing
<rdf:RDF>
  <cc:Work
     rdf:about="">
    <dc:format>image/svg+xml</dc:format>
    <dc:type
       rdf:resource="http://purl.org/dc/dcmitype/StillImage" />
    <dc:title></dc:title>
  </cc:Work>
</rdf:RDF>
</metadata>
  <path
     style="fill:#000000;fill-opacity:1;stroke:none"
     d="m 42,10 -42,0 0,4 42,0 0,-4 z"
     id="rect2813" />
  <path
     style="fill:#000000;fill-opacity:1;stroke:none"
     d="m 11,6 0,-6 6,0 0,1 -5,0 0,5 -1,0 z"
     id="rect2952" />
  <path
     style="fill:#000000;fill-opacity:1;stroke:none"
     d="M 21,5 C 18.552049,5 16.33809,3.9952107 14.75,2.375 L 15.46875,1.65625 C 16.875934,3.0963202 18.8275,4 21,4 23.1725,4 25.124066,3.0963202 26.53125,1.65625 L 28.15625,0 28.875,0.71875 27.25,2.375 C 25.66191,3.9952107 23.447951,5 21,5 z"
     id="path2970" />
  <path
     style="fill:#ffffff;fill-opacity:1;stroke:none"
     d="M 21,7 C 18.015367,7 15.322811,5.7765015 13.375,3.8125 L 14.75,2.375 C 16.33809,3.9952107 18.552049,5 21,5 23.447951,5 25.66191,3.9952107 27.25,2.375 L 28.875,0.71875 30.28125,2.125 28.625,3.8125 C 26.677189,5.7765015 23.984633,7 21,7 z"
     id="path2968" />
  <path
     style="fill:#000000;fill-opacity:1;stroke:none"
     d="M 21,8 C 17.739477,8 14.784993,6.6759208 12.65625,4.53125 L 13.375,3.8125 C 15.322811,5.7765015 18.015367,7 21,7 23.984633,7 26.677189,5.7765015 28.625,3.8125 L 30.28125,2.125 31,2.84375 29.34375,4.53125 C 27.215007,6.6759208 24.260523,8 21,8 z"
     id="rect2963" />
</svg>
