<?xml version="1.0" encoding="UTF-8" standalone="no"?>
<svg
   xmlns:dc="http://purl.org/dc/elements/1.1/"
   xmlns:cc="http://creativecommons.org/ns#"
   xmlns:rdf="http://www.w3.org/1999/02/22-rdf-syntax-ns#"
   xmlns:svg="http://www.w3.org/2000/svg"
   xmlns="http://www.w3.org/2000/svg"
   xmlns:sodipodi="http://sodipodi.sourceforge.net/DTD/sodipodi-0.dtd"
   xmlns:inkscape="http://www.inkscape.org/namespaces/inkscape"
   version="1.0"
   width="8"
   height="20"
   id="svg2"
   inkscape:version="0.47 r22583"
   sodipodi:docname="05-01-007-01-03-04.svg">
  <defs
     id="defs14">
    <inkscape:perspective
       sodipodi:type="inkscape:persp3d"
       inkscape:vp_x="0 : 5.5 : 1"
       inkscape:vp_y="0 : 1000 : 0"
       inkscape:vp_z="10 : 5.5 : 1"
       inkscape:persp3d-origin="5 : 3.6666667 : 1"
       id="perspective16" />
  </defs>
  <sodipodi:namedview
     pagecolor="#ffffff"
     bordercolor="#666666"
     borderopacity="1"
     objecttolerance="10"
     gridtolerance="10"
     guidetolerance="10"
     inkscape:pageopacity="0"
     inkscape:pageshadow="2"
     inkscape:window-width="917"
     inkscape:window-height="792"
     id="namedview12"
     showgrid="true"
     inkscape:zoom="16.738612"
     inkscape:cx="4.0011173"
     inkscape:cy="10.002793"
     inkscape:window-x="313"
     inkscape:window-y="0"
     inkscape:window-maximized="0"
     inkscape:current-layer="svg2"
     showborder="true"
     inkscape:showpageshadow="true">
    <inkscape:grid
       type="xygrid"
       id="grid2822"
       empspacing="5"
       visible="true"
       enabled="true"
       snapvisiblegridlinesonly="true" />
  </sodipodi:namedview>
  <metadata
     id="metadata4">
Valerie Sutton's pixel definition of the
ISWA 2010 symbol ID 02-01-001-01-01-01
transformed by Stephen E Slevinski Jr
using line and fill polygon tracing
<rdf:RDF>
  <cc:Work
     rdf:about="">
    <dc:format>image/svg+xml</dc:format>
    <dc:type
       rdf:resource="http://purl.org/dc/dcmitype/StillImage" />
    <dc:title></dc:title>
  </cc:Work>
</rdf:RDF>
</metadata>
  <path
     style="fill:#000000;fill-opacity:1;stroke:none"
     d="M 6,0 0,0 0,6 1,6 1,1 6,1 6,0 z"
     id="rect2952" />
  <path
     style="fill:#000000;fill-opacity:1;stroke:none"
     d="M 5,10 C 5,7.552049 3.995211,5.33809 2.375,3.75 L 1.65625,4.46875 C 3.09632,5.875934 4,7.8275 4,10 4,12.1725 3.09632,14.124066 1.65625,15.53125 L 0,17.15625 0.71875,17.875 2.375,16.25 C 3.995211,14.66191 5,12.447951 5,10 z"
     id="path2970" />
  <path
     style="fill:#ffffff;fill-opacity:1;stroke:none"
     d="M 7,10 C 7,7.015367 5.7765015,4.322811 3.8125,2.375 L 2.375,3.75 C 3.995211,5.33809 5,7.552049 5,10 5,12.447951 3.995211,14.66191 2.375,16.25 L 0.71875,17.875 2.125,19.28125 3.8125,17.625 C 5.7765015,15.677189 7,12.984633 7,10 z"
     id="path2968" />
  <path
     style="fill:#000000;fill-opacity:1;stroke:none"
     d="M 8,10 C 8,6.739477 6.6759208,3.784993 4.53125,1.65625 L 3.8125,2.375 C 5.7765015,4.322811 7,7.015367 7,10 7,12.984633 5.7765015,15.677189 3.8125,17.625 L 2.125,19.28125 2.84375,20 4.53125,18.34375 C 6.6759208,16.215007 8,13.260523 8,10 z"
     id="rect2963" />
</svg>
