<?xml version="1.0" encoding="UTF-8" standalone="no"?>
<svg
   xmlns:dc="http://purl.org/dc/elements/1.1/"
   xmlns:cc="http://creativecommons.org/ns#"
   xmlns:rdf="http://www.w3.org/1999/02/22-rdf-syntax-ns#"
   xmlns:svg="http://www.w3.org/2000/svg"
   xmlns="http://www.w3.org/2000/svg"
   xmlns:sodipodi="http://sodipodi.sourceforge.net/DTD/sodipodi-0.dtd"
   xmlns:inkscape="http://www.inkscape.org/namespaces/inkscape"
   version="1.0"
   width="43"
   height="35"
   id="svg2"
   inkscape:version="0.47 r22583"
   sodipodi:docname="06-01-005-01-04-02.svg">
  <defs
     id="defs14">
    <inkscape:perspective
       sodipodi:type="inkscape:persp3d"
       inkscape:vp_x="0 : 5.5 : 1"
       inkscape:vp_y="0 : 1000 : 0"
       inkscape:vp_z="10 : 5.5 : 1"
       inkscape:persp3d-origin="5 : 3.6666667 : 1"
       id="perspective16" />
  </defs>
  <sodipodi:namedview
     pagecolor="#ffffff"
     bordercolor="#666666"
     borderopacity="1"
     objecttolerance="10"
     gridtolerance="10"
     guidetolerance="10"
     inkscape:pageopacity="0"
     inkscape:pageshadow="2"
     inkscape:window-width="917"
     inkscape:window-height="792"
     id="namedview12"
     showgrid="true"
     inkscape:zoom="15.542857"
     inkscape:cx="21.5"
     inkscape:cy="17.5"
     inkscape:window-x="313"
     inkscape:window-y="0"
     inkscape:window-maximized="0"
     inkscape:current-layer="svg2"
     showborder="true"
     inkscape:showpageshadow="true"
     inkscape:snap-center="false">
    <inkscape:grid
       type="xygrid"
       id="grid2822"
       empspacing="5"
       visible="true"
       enabled="true"
       snapvisiblegridlinesonly="true" />
  </sodipodi:namedview>
  <metadata
     id="metadata4">
Valerie Sutton's pixel definition of the
ISWA 2010 symbol ID 02-01-001-01-01-01
transformed by Stephen E Slevinski Jr
using line and fill polygon tracing
<rdf:RDF>
  <cc:Work
     rdf:about="">
    <dc:format>image/svg+xml</dc:format>
    <dc:type
       rdf:resource="http://purl.org/dc/dcmitype/StillImage" />
    <dc:title></dc:title>
  </cc:Work>
</rdf:RDF>
</metadata>
  <path
     style="fill:#000000;fill-opacity:1;stroke:none"
     d="M 21.5,0 C 11.835017,0 4,7.835017 4,17.5 4,27.164983 11.835017,35 21.5,35 31.164983,35 39,27.164983 39,17.5 39,7.835017 31.164983,0 21.5,0 z m 0,1.5 c 8.836556,0 16,7.163444 16,16 0,8.836556 -7.163444,16 -16,16 -8.836556,0 -16,-7.163444 -16,-16 0,-8.836556 7.163444,-16 16,-16 z"
     id="path7894" />
  <path
     style="fill:#000000;fill-opacity:1;stroke:none"
     d="M 4,5 C 1.4804714,8.5238112 0,12.838721 0,17.5 0,22.161278 1.4804714,26.476189 4,30 L 5.21875,29.0625 C 2.896147,25.79685 1.5,21.813243 1.5,17.5 1.5,13.186757 2.896147,9.2031505 5.21875,5.9375 L 4,5 z M 39,5 37.78125,5.9375 C 40.103853,9.2031505 41.5,13.186757 41.5,17.5 c 0,4.313243 -1.396147,8.29685 -3.71875,11.5625 L 39,30 C 41.519529,26.476189 43,22.161278 43,17.5 43,12.838721 41.519529,8.5238112 39,5 z"
     id="rect2814" />
  <path
     style="fill:#000000;fill-opacity:1;stroke:none"
     d="m 5.5312491,10.406247 c -0.04387,0.09857 -0.1141596,0.181731 -0.1562473,0.281249 -0.15143,0.35802 -0.2159413,0.755275 -0.3437509,1.125001 2.5544375,0.688639 4.4687516,2.915456 4.4687508,5.6875 3e-7,2.772043 -1.914314,4.998866 -4.4687504,5.6875 0.1278105,0.369727 0.192321,0.766983 0.3437504,1.125003 0.042091,0.09952 0.1123805,0.182681 0.1562473,0.281249 C 8.6594542,23.690731 11,20.918987 11,17.5 11,14.081013 8.6594539,11.309269 5.5312484,10.40625 z"
     id="rect2829"
     inkscape:transform-center-x="13.484376" />
</svg>
