<?xml version="1.0" encoding="UTF-8" standalone="no"?>
<svg
   xmlns:dc="http://purl.org/dc/elements/1.1/"
   xmlns:cc="http://creativecommons.org/ns#"
   xmlns:rdf="http://www.w3.org/1999/02/22-rdf-syntax-ns#"
   xmlns:svg="http://www.w3.org/2000/svg"
   xmlns="http://www.w3.org/2000/svg"
   xmlns:sodipodi="http://sodipodi.sourceforge.net/DTD/sodipodi-0.dtd"
   xmlns:inkscape="http://www.inkscape.org/namespaces/inkscape"
   version="1.0"
   width="35"
   height="41"
   id="svg2"
   inkscape:version="0.47 r22583"
   sodipodi:docname="06-01-005-01-01-01.svg">
  <defs
     id="defs14">
    <inkscape:perspective
       sodipodi:type="inkscape:persp3d"
       inkscape:vp_x="0 : 5.5 : 1"
       inkscape:vp_y="0 : 1000 : 0"
       inkscape:vp_z="10 : 5.5 : 1"
       inkscape:persp3d-origin="5 : 3.6666667 : 1"
       id="perspective16" />
  </defs>
  <sodipodi:namedview
     pagecolor="#ffffff"
     bordercolor="#666666"
     borderopacity="1"
     objecttolerance="10"
     gridtolerance="10"
     guidetolerance="10"
     inkscape:pageopacity="0"
     inkscape:pageshadow="2"
     inkscape:window-width="917"
     inkscape:window-height="792"
     id="namedview12"
     showgrid="true"
     inkscape:zoom="13.268293"
     inkscape:cx="17.5"
     inkscape:cy="20.5"
     inkscape:window-x="313"
     inkscape:window-y="0"
     inkscape:window-maximized="0"
     inkscape:current-layer="svg2"
     showborder="true"
     inkscape:showpageshadow="true">
    <inkscape:grid
       type="xygrid"
       id="grid2822"
       empspacing="5"
       visible="true"
       enabled="true"
       snapvisiblegridlinesonly="true" />
  </sodipodi:namedview>
  <metadata
     id="metadata4">
Valerie Sutton's pixel definition of the
ISWA 2010 symbol ID 02-01-001-01-01-01
transformed by Stephen E Slevinski Jr
using line and fill polygon tracing
<rdf:RDF>
  <cc:Work
     rdf:about="">
    <dc:format>image/svg+xml</dc:format>
    <dc:type
       rdf:resource="http://purl.org/dc/dcmitype/StillImage" />
    <dc:title />
  </cc:Work>
</rdf:RDF>
</metadata>
  <path
     style="fill:#000000;fill-opacity:1;stroke:none"
     d="M 17.5,6 C 7.8350169,6 0,13.835017 0,23.5 0,33.164983 7.8350169,41 17.5,41 27.164983,41 35,33.164983 35,23.5 35,13.835017 27.164983,6 17.5,6 z m 0,1.5 c 8.836556,0 16,7.163444 16,16 0,8.836556 -7.163444,16 -16,16 -8.836556,0 -16,-7.163444 -16,-16 0,-8.836556 7.163444,-16 16,-16 z"
     id="path7894" />
  <path
     style="fill:#000000;fill-opacity:1;stroke:none"
     d="M 12,3 23,3 23,4 12,4 12,3 z"
     id="rect2814" />
  <path
     style="fill:#000000;fill-opacity:1;stroke:none"
     d="M 17 0 C 15.343146 0 14 1.3431458 14 3 L 15 3 C 15 1.8954305 15.895431 1 17 1 L 18 1 C 19.104569 1 20 1.8954305 20 3 L 21 3 C 21 1.3431458 19.656854 0 18 0 L 17 0 z "
     id="rect2829" />
</svg>
