<?xml version="1.0" encoding="UTF-8" standalone="no"?>
<svg
   xmlns:dc="http://purl.org/dc/elements/1.1/"
   xmlns:cc="http://creativecommons.org/ns#"
   xmlns:rdf="http://www.w3.org/1999/02/22-rdf-syntax-ns#"
   xmlns:svg="http://www.w3.org/2000/svg"
   xmlns="http://www.w3.org/2000/svg"
   xmlns:sodipodi="http://sodipodi.sourceforge.net/DTD/sodipodi-0.dtd"
   xmlns:inkscape="http://www.inkscape.org/namespaces/inkscape"
   version="1.0"
   width="48"
   height="35"
   id="svg2"
   inkscape:version="0.47 r22583"
   sodipodi:docname="06-01-005-01-01-02.svg">
  <defs
     id="defs14">
    <inkscape:perspective
       sodipodi:type="inkscape:persp3d"
       inkscape:vp_x="0 : 5.5 : 1"
       inkscape:vp_y="0 : 1000 : 0"
       inkscape:vp_z="10 : 5.5 : 1"
       inkscape:persp3d-origin="5 : 3.6666667 : 1"
       id="perspective16" />
  </defs>
  <sodipodi:namedview
     pagecolor="#ffffff"
     bordercolor="#666666"
     borderopacity="1"
     objecttolerance="10"
     gridtolerance="10"
     guidetolerance="10"
     inkscape:pageopacity="0"
     inkscape:pageshadow="2"
     inkscape:window-width="917"
     inkscape:window-height="792"
     id="namedview12"
     showgrid="true"
     inkscape:zoom="15.542857"
     inkscape:cx="24"
     inkscape:cy="17.5"
     inkscape:window-x="313"
     inkscape:window-y="0"
     inkscape:window-maximized="0"
     inkscape:current-layer="svg2"
     showborder="true"
     inkscape:showpageshadow="true">
    <inkscape:grid
       type="xygrid"
       id="grid2822"
       empspacing="5"
       visible="true"
       enabled="true"
       snapvisiblegridlinesonly="true" />
  </sodipodi:namedview>
  <metadata
     id="metadata4">
Valerie Sutton's pixel definition of the
ISWA 2010 symbol ID 02-01-001-01-01-01
transformed by Stephen E Slevinski Jr
using line and fill polygon tracing
<rdf:RDF>
  <cc:Work
     rdf:about="">
    <dc:format>image/svg+xml</dc:format>
    <dc:type
       rdf:resource="http://purl.org/dc/dcmitype/StillImage" />
    <dc:title></dc:title>
  </cc:Work>
</rdf:RDF>
</metadata>
  <path
     style="fill:#000000;fill-opacity:1;stroke:none"
     d="M 24,0 C 14.335017,0 6.5,7.835017 6.5,17.5 6.5,27.164983 14.335017,35 24,35 33.664983,35 41.5,27.164983 41.5,17.5 41.5,7.835017 33.664983,0 24,0 z m 0,1.5 c 8.836556,0 16,7.163444 16,16 0,8.836556 -7.163444,16 -16,16 -8.836556,0 -16,-7.163444 -16,-16 0,-8.836556 7.163444,-16 16,-16 z"
     id="path7894" />
  <path
     style="fill:#000000;fill-opacity:1;stroke:none"
     d="m 0,14 0,7 6.84375,0 C 6.6145952,19.870062 6.5,18.697552 6.5,17.5 6.5,16.302448 6.6145952,15.129938 6.84375,14 L 0,14 z m 41.15625,0 c 0.229155,1.129938 0.34375,2.302448 0.34375,3.5 0,1.197552 -0.114595,2.370062 -0.34375,3.5 L 48,21 l 0,-7 -6.84375,0 z"
     id="rect2814" />
  <path
     style="fill:#000000;fill-opacity:1;stroke:none"
     d="M 31.09375,1.53125 C 30.995185,1.4873797 30.912016,1.4170917 30.8125,1.375 30.454481,1.2235708 30.057226,1.1590592 29.6875,1.03125 28.998863,3.5856862 26.772044,5.5 24,5.5 21.227956,5.5 19.001137,3.5856862 18.3125,1.03125 17.942774,1.1590592 17.545519,1.2235708 17.1875,1.375 17.087984,1.4170917 17.004815,1.4873797 16.90625,1.53125 17.809268,4.659455 20.581014,7 24,7 27.418986,7 30.190732,4.659455 31.09375,1.53125 z"
     id="rect2829" />
</svg>
