<?xml version="1.0" encoding="UTF-8" standalone="no"?>
<svg
   xmlns:dc="http://purl.org/dc/elements/1.1/"
   xmlns:cc="http://creativecommons.org/ns#"
   xmlns:rdf="http://www.w3.org/1999/02/22-rdf-syntax-ns#"
   xmlns:svg="http://www.w3.org/2000/svg"
   xmlns="http://www.w3.org/2000/svg"
   xmlns:sodipodi="http://sodipodi.sourceforge.net/DTD/sodipodi-0.dtd"
   xmlns:inkscape="http://www.inkscape.org/namespaces/inkscape"
   version="1.0"
   width="36"
   height="36"
   id="svg2"
   inkscape:version="0.47 r22583"
   sodipodi:docname="06-01-005-01-01-08.svg">
  <defs
     id="defs14">
    <inkscape:perspective
       sodipodi:type="inkscape:persp3d"
       inkscape:vp_x="0 : 5.5 : 1"
       inkscape:vp_y="0 : 1000 : 0"
       inkscape:vp_z="10 : 5.5 : 1"
       inkscape:persp3d-origin="5 : 3.6666667 : 1"
       id="perspective16" />
  </defs>
  <sodipodi:namedview
     pagecolor="#ffffff"
     bordercolor="#666666"
     borderopacity="1"
     objecttolerance="10"
     gridtolerance="10"
     guidetolerance="10"
     inkscape:pageopacity="0"
     inkscape:pageshadow="2"
     inkscape:window-width="917"
     inkscape:window-height="792"
     id="namedview12"
     showgrid="true"
     inkscape:zoom="15.111111"
     inkscape:cx="18"
     inkscape:cy="18"
     inkscape:window-x="313"
     inkscape:window-y="0"
     inkscape:window-maximized="0"
     inkscape:current-layer="svg2"
     showborder="true"
     inkscape:showpageshadow="true">
    <inkscape:grid
       type="xygrid"
       id="grid2822"
       empspacing="5"
       visible="true"
       enabled="true"
       snapvisiblegridlinesonly="true" />
  </sodipodi:namedview>
  <metadata
     id="metadata4">
Valerie Sutton's pixel definition of the
ISWA 2010 symbol ID 02-01-001-01-01-01
transformed by Stephen E Slevinski Jr
using line and fill polygon tracing
<rdf:RDF>
  <cc:Work
     rdf:about="">
    <dc:format>image/svg+xml</dc:format>
    <dc:type
       rdf:resource="http://purl.org/dc/dcmitype/StillImage" />
    <dc:title />
  </cc:Work>
</rdf:RDF>
</metadata>
  <path
     style="fill:#000000;fill-opacity:1;stroke:none"
     d="m 17.499999,1.0000002 c 9.664984,0 17.5,7.8350167 17.5,17.5000008 C 34.999999,28.164984 27.164983,36 17.5,36 7.8350174,36 0,28.164984 0,18.5 0,8.8350169 7.8350164,1.0000001 17.499999,1.0000002 z M 17.5,2.5 c -8.8365566,3e-7 -16,7.1634436 -16,16 0,8.836557 7.1634434,16.000001 16,16.000001 8.836556,0 15.999999,-7.163444 15.999999,-16 C 33.499999,9.6634436 26.336556,2.5000003 17.5,2.5 z"
     id="path7894" />
  <path
     style="fill:#000000;fill-opacity:1;stroke:none"
     d="M 28.09375 0.125 L 27.40625 0.8125 L 35.1875 8.59375 L 35.875 7.90625 L 28.09375 0.125 z "
     id="rect2814" />
  <path
     style="fill:#000000;fill-opacity:1;stroke:none"
     d="m 34.470562,2.236544 c 1.171572,1.1715727 1.171572,3.071068 0,4.2426407 L 33.763455,5.7720779 c 0.781048,-0.7810482 0.781048,-2.0473789 0,-2.8284271 L 33.056348,2.236544 c -0.781048,-0.7810483 -2.047379,-0.7810483 -2.828427,0 L 29.520815,1.5294372 c 1.171572,-1.1715727 3.071067,-1.1715727 4.24264,0 l 0.707107,0.7071068 z"
     id="rect2829" />
</svg>
