<?xml version="1.0" encoding="UTF-8" standalone="no"?>
<svg
   xmlns:dc="http://purl.org/dc/elements/1.1/"
   xmlns:cc="http://creativecommons.org/ns#"
   xmlns:rdf="http://www.w3.org/1999/02/22-rdf-syntax-ns#"
   xmlns:svg="http://www.w3.org/2000/svg"
   xmlns="http://www.w3.org/2000/svg"
   xmlns:sodipodi="http://sodipodi.sourceforge.net/DTD/sodipodi-0.dtd"
   xmlns:inkscape="http://www.inkscape.org/namespaces/inkscape"
   version="1.0"
   width="35"
   height="54"
   id="svg2"
   inkscape:version="0.47 r22583"
   sodipodi:docname="06-01-005-01-06-01.svg">
  <defs
     id="defs14">
    <inkscape:perspective
       sodipodi:type="inkscape:persp3d"
       inkscape:vp_x="0 : 5.5 : 1"
       inkscape:vp_y="0 : 1000 : 0"
       inkscape:vp_z="10 : 5.5 : 1"
       inkscape:persp3d-origin="5 : 3.6666667 : 1"
       id="perspective16" />
  </defs>
  <sodipodi:namedview
     pagecolor="#ffffff"
     bordercolor="#666666"
     borderopacity="1"
     objecttolerance="10"
     gridtolerance="10"
     guidetolerance="10"
     inkscape:pageopacity="0"
     inkscape:pageshadow="2"
     inkscape:window-width="917"
     inkscape:window-height="792"
     id="namedview12"
     showgrid="true"
     inkscape:zoom="10.074074"
     inkscape:cx="17.5"
     inkscape:cy="27"
     inkscape:window-x="313"
     inkscape:window-y="0"
     inkscape:window-maximized="0"
     inkscape:current-layer="svg2"
     showborder="true"
     inkscape:showpageshadow="true"
     inkscape:snap-center="false">
    <inkscape:grid
       type="xygrid"
       id="grid2822"
       empspacing="5"
       visible="true"
       enabled="true"
       snapvisiblegridlinesonly="true" />
  </sodipodi:namedview>
  <metadata
     id="metadata4">
Valerie Sutton's pixel definition of the
ISWA 2010 symbol ID 02-01-001-01-01-01
transformed by Stephen E Slevinski Jr
using line and fill polygon tracing
<rdf:RDF>
  <cc:Work
     rdf:about="">
    <dc:format>image/svg+xml</dc:format>
    <dc:type
       rdf:resource="http://purl.org/dc/dcmitype/StillImage" />
    <dc:title />
  </cc:Work>
</rdf:RDF>
</metadata>
  <path
     style="fill:#000000;fill-opacity:1;stroke:none"
     d="M 17.5,0 C 27.164983,0 35,7.835017 35,17.5 35,27.164983 27.164983,35 17.5,35 7.835017,35 0,27.164983 0,17.5 0,7.835017 7.835017,0 17.5,0 z m 0,1.5 c -8.836556,0 -16,7.163444 -16,16 0,8.836556 7.163444,16 16,16 8.836556,0 16,-7.163444 16,-16 0,-8.836556 -7.163444,-16 -16,-16 z"
     id="path7894" />
  <path
     style="fill:#000000;fill-opacity:1;stroke:none"
     d="m 11.75,34 0,7 c 0,0 0.02334,3.83727 -0.5,5.65625 C 10.490025,49.297696 7.5,54 7.5,54 l 1.75,0 c 0,0 2.701567,-4.460501 3.40625,-6.9375 C 13.21192,45.109297 13.25,41 13.25,41 l 0,-7 -1.5,0 z m 10,0 0,7 c 0,0 0.03808,4.109297 0.59375,6.0625 C 23.048433,49.539499 25.75,54 25.75,54 l 1.75,0 c 0,0 -2.990025,-4.702304 -3.75,-7.34375 C 23.226658,44.83727 23.25,41 23.25,41 l 0,-7 -1.5,0 z"
     id="rect2814" />
  <path
     style="fill:#000000;fill-opacity:1;stroke:none"
     d="M 17.5 36 C 15.290861 36 13.5 37.790861 13.5 40 C 13.5 42.209139 15.290861 44 17.5 44 C 19.709139 44 21.5 42.209139 21.5 40 C 21.5 37.790861 19.709139 36 17.5 36 z M 17.5 37.5 C 18.880712 37.5 20 38.619288 20 40 C 20 41.380712 18.880712 42.5 17.5 42.5 C 16.119288 42.5 15 41.380712 15 40 C 15 38.619288 16.119288 37.5 17.5 37.5 z "
     id="path3758" />
  <path
     style="fill:#ffffff;fill-opacity:1;stroke:none"
     d="M 17.5 37.5 C 16.119288 37.5 15 38.619288 15 40 C 15 41.380712 16.119288 42.5 17.5 42.5 C 18.880712 42.5 20 41.380712 20 40 C 20 38.619288 18.880712 37.5 17.5 37.5 z "
     id="path3760" />
</svg>
