<?xml version="1.0" encoding="UTF-8" standalone="no"?>
<svg
   xmlns:dc="http://purl.org/dc/elements/1.1/"
   xmlns:cc="http://creativecommons.org/ns#"
   xmlns:rdf="http://www.w3.org/1999/02/22-rdf-syntax-ns#"
   xmlns:svg="http://www.w3.org/2000/svg"
   xmlns="http://www.w3.org/2000/svg"
   xmlns:sodipodi="http://sodipodi.sourceforge.net/DTD/sodipodi-0.dtd"
   xmlns:inkscape="http://www.inkscape.org/namespaces/inkscape"
   version="1.0"
   width="36"
   height="36"
   id="svg2"
   inkscape:version="0.47 r22583"
   sodipodi:docname="06-01-005-01-01-02.svg">
  <defs
     id="defs14">
    <inkscape:perspective
       sodipodi:type="inkscape:persp3d"
       inkscape:vp_x="0 : 5.5 : 1"
       inkscape:vp_y="0 : 1000 : 0"
       inkscape:vp_z="10 : 5.5 : 1"
       inkscape:persp3d-origin="5 : 3.6666667 : 1"
       id="perspective16" />
  </defs>
  <sodipodi:namedview
     pagecolor="#ffffff"
     bordercolor="#666666"
     borderopacity="1"
     objecttolerance="10"
     gridtolerance="10"
     guidetolerance="10"
     inkscape:pageopacity="0"
     inkscape:pageshadow="2"
     inkscape:window-width="917"
     inkscape:window-height="792"
     id="namedview12"
     showgrid="true"
     inkscape:zoom="15.111111"
     inkscape:cx="18"
     inkscape:cy="18"
     inkscape:window-x="313"
     inkscape:window-y="0"
     inkscape:window-maximized="0"
     inkscape:current-layer="svg2"
     showborder="true"
     inkscape:showpageshadow="true">
    <inkscape:grid
       type="xygrid"
       id="grid2822"
       empspacing="5"
       visible="true"
       enabled="true"
       snapvisiblegridlinesonly="true" />
  </sodipodi:namedview>
  <metadata
     id="metadata4">
Valerie Sutton's pixel definition of the
ISWA 2010 symbol ID 02-01-001-01-01-01
transformed by Stephen E Slevinski Jr
using line and fill polygon tracing
<rdf:RDF>
  <cc:Work
     rdf:about="">
    <dc:format>image/svg+xml</dc:format>
    <dc:type
       rdf:resource="http://purl.org/dc/dcmitype/StillImage" />
    <dc:title />
  </cc:Work>
</rdf:RDF>
</metadata>
  <path
     style="fill:#000000;fill-opacity:1;stroke:none"
     d="M 18.49978,1.0000005 C 8.8347957,1.0000005 0.99977967,8.8350176 0.99977967,18.500002 0.99977967,28.164984 8.8347957,36 18.499779,36 c 9.664982,0 17.5,-7.835016 17.5,-17.499999 0,-9.6649834 -7.835017,-17.5000005 -17.499999,-17.5000005 z m -1e-6,1.5000001 c 8.836556,0 16,7.163443 16,16.0000004 0,8.836556 -7.163444,16 -16,16 -8.8365563,0 -15.9999993,-7.163444 -15.9999993,-15.999999 0,-8.8365584 7.163443,-16.0000014 15.9999993,-16.0000014 z"
     id="path7894" />
  <path
     style="fill:#000000;fill-opacity:1;stroke:none"
     d="M 7.90625 0.125 L 0.125 7.90625 L 0.8125 8.59375 L 8.59375 0.8125 L 7.90625 0.125 z "
     id="rect2814" />
  <path
     style="fill:#000000;fill-opacity:1;stroke:none"
     d="m 1.5292167,2.2365446 c -1.17157203,1.171573 -1.17157203,3.071068 0,4.242641 l 0.707107,-0.707107 c -0.781048,-0.781048 -0.781048,-2.047379 0,-2.828427 l 0.707107,-0.707107 c 0.781048,-0.781048 2.047379,-0.781048 2.828427,0 l 0.707106,-0.707107 c -1.171572,-1.17157305 -3.071067,-1.17157305 -4.24264,0 l -0.707107,0.707107 z"
     id="rect2829" />
</svg>
