<?xml version="1.0" encoding="UTF-8" standalone="no"?>
<svg
   xmlns:dc="http://purl.org/dc/elements/1.1/"
   xmlns:cc="http://creativecommons.org/ns#"
   xmlns:rdf="http://www.w3.org/1999/02/22-rdf-syntax-ns#"
   xmlns:svg="http://www.w3.org/2000/svg"
   xmlns="http://www.w3.org/2000/svg"
   xmlns:sodipodi="http://sodipodi.sourceforge.net/DTD/sodipodi-0.dtd"
   xmlns:inkscape="http://www.inkscape.org/namespaces/inkscape"
   version="1.0"
   width="43"
   height="35"
   id="svg2"
   inkscape:version="0.47 r22583"
   sodipodi:docname="06-01-005-01-04-01.svg">
  <defs
     id="defs14">
    <inkscape:perspective
       sodipodi:type="inkscape:persp3d"
       inkscape:vp_x="0 : 5.5 : 1"
       inkscape:vp_y="0 : 1000 : 0"
       inkscape:vp_z="10 : 5.5 : 1"
       inkscape:persp3d-origin="5 : 3.6666667 : 1"
       id="perspective16" />
  </defs>
  <sodipodi:namedview
     pagecolor="#ffffff"
     bordercolor="#666666"
     borderopacity="1"
     objecttolerance="10"
     gridtolerance="10"
     guidetolerance="10"
     inkscape:pageopacity="0"
     inkscape:pageshadow="2"
     inkscape:window-width="917"
     inkscape:window-height="792"
     id="namedview12"
     showgrid="true"
     inkscape:zoom="15.542857"
     inkscape:cx="21.5"
     inkscape:cy="17.5"
     inkscape:window-x="313"
     inkscape:window-y="0"
     inkscape:window-maximized="0"
     inkscape:current-layer="svg2"
     showborder="true"
     inkscape:showpageshadow="true"
     inkscape:snap-center="false">
    <inkscape:grid
       type="xygrid"
       id="grid2822"
       empspacing="5"
       visible="true"
       enabled="true"
       snapvisiblegridlinesonly="true" />
  </sodipodi:namedview>
  <metadata
     id="metadata4">
Valerie Sutton's pixel definition of the
ISWA 2010 symbol ID 02-01-001-01-01-01
transformed by Stephen E Slevinski Jr
using line and fill polygon tracing
<rdf:RDF>
  <cc:Work
     rdf:about="">
    <dc:format>image/svg+xml</dc:format>
    <dc:type
       rdf:resource="http://purl.org/dc/dcmitype/StillImage" />
    <dc:title></dc:title>
  </cc:Work>
</rdf:RDF>
</metadata>
  <path
     style="fill:#000000;fill-opacity:1;stroke:none"
     d="M 21.5,0 C 11.835017,0 4,7.835017 4,17.5 4,27.164983 11.835017,35 21.5,35 31.164983,35 39,27.164983 39,17.5 39,7.835017 31.164983,0 21.5,0 z m 0,1.5 c 8.836556,0 16,7.163444 16,16 0,8.836556 -7.163444,16 -16,16 -8.836556,0 -16,-7.163444 -16,-16 0,-8.836556 7.163444,-16 16,-16 z"
     id="path7894" />
  <path
     style="fill:#000000;fill-opacity:1;stroke:none"
     d="M 4,5 C 1.4804714,8.5238112 0,12.838721 0,17.5 0,22.161278 1.4804714,26.476189 4,30 L 5.21875,29.0625 C 2.896147,25.79685 1.5,21.813243 1.5,17.5 1.5,13.186757 2.896147,9.2031505 5.21875,5.9375 L 4,5 z M 39,5 37.78125,5.9375 C 40.103853,9.2031505 41.5,13.186757 41.5,17.5 c 0,4.313243 -1.396147,8.29685 -3.71875,11.5625 L 39,30 C 41.519529,26.476189 43,22.161278 43,17.5 43,12.838721 41.519529,8.5238112 39,5 z"
     id="rect2814" />
  <path
     style="fill:#000000;fill-opacity:1;stroke:none"
     d="m 15.224428,1.1923458 c -0.10072,0.038679 -0.209226,0.04778 -0.309357,0.08839 -0.360235,0.1460807 -0.686753,0.3813659 -1.038564,0.5524268 1.319319,2.2932012 1.098346,5.2214231 -0.861786,7.181554 -1.96013,1.9601304 -4.8883562,2.1811074 -7.1815533,0.8617859 -0.1710611,0.3518125 -0.4063476,0.6783305 -0.552429,1.0385655 -0.040609,0.100134 -0.04971,0.20864 -0.08839,0.309357 2.8505052,1.573445 6.4654403,1.268541 8.8830293,-1.149047 2.417589,-2.4175895 2.722492,-6.0325245 1.149047,-8.8830301 z"
     id="rect2829"
     inkscape:transform-center-y="-10.805638"
     inkscape:transform-center-x="10.805639" />
</svg>
