<?xml version="1.0" encoding="UTF-8" standalone="no"?>
<svg
   xmlns:dc="http://purl.org/dc/elements/1.1/"
   xmlns:cc="http://creativecommons.org/ns#"
   xmlns:rdf="http://www.w3.org/1999/02/22-rdf-syntax-ns#"
   xmlns:svg="http://www.w3.org/2000/svg"
   xmlns="http://www.w3.org/2000/svg"
   xmlns:sodipodi="http://sodipodi.sourceforge.net/DTD/sodipodi-0.dtd"
   xmlns:inkscape="http://www.inkscape.org/namespaces/inkscape"
   version="1.0"
   width="48"
   height="35"
   id="svg2"
   inkscape:version="0.47 r22583"
   sodipodi:docname="06-01-005-01-02-04.svg">
  <defs
     id="defs14">
    <inkscape:perspective
       sodipodi:type="inkscape:persp3d"
       inkscape:vp_x="0 : 5.5 : 1"
       inkscape:vp_y="0 : 1000 : 0"
       inkscape:vp_z="10 : 5.5 : 1"
       inkscape:persp3d-origin="5 : 3.6666667 : 1"
       id="perspective16" />
  </defs>
  <sodipodi:namedview
     pagecolor="#ffffff"
     bordercolor="#666666"
     borderopacity="1"
     objecttolerance="10"
     gridtolerance="10"
     guidetolerance="10"
     inkscape:pageopacity="0"
     inkscape:pageshadow="2"
     inkscape:window-width="917"
     inkscape:window-height="792"
     id="namedview12"
     showgrid="true"
     inkscape:zoom="15.542857"
     inkscape:cx="24"
     inkscape:cy="17.5"
     inkscape:window-x="313"
     inkscape:window-y="0"
     inkscape:window-maximized="0"
     inkscape:current-layer="svg2"
     showborder="true"
     inkscape:showpageshadow="true"
     inkscape:snap-center="false">
    <inkscape:grid
       type="xygrid"
       id="grid2822"
       empspacing="5"
       visible="true"
       enabled="true"
       snapvisiblegridlinesonly="true" />
  </sodipodi:namedview>
  <metadata
     id="metadata4">
Valerie Sutton's pixel definition of the
ISWA 2010 symbol ID 02-01-001-01-01-01
transformed by Stephen E Slevinski Jr
using line and fill polygon tracing
<rdf:RDF>
  <cc:Work
     rdf:about="">
    <dc:format>image/svg+xml</dc:format>
    <dc:type
       rdf:resource="http://purl.org/dc/dcmitype/StillImage" />
    <dc:title></dc:title>
  </cc:Work>
</rdf:RDF>
</metadata>
  <path
     style="fill:#000000;fill-opacity:1;stroke:none"
     d="M 24,0 C 14.335017,0 6.5,7.835017 6.5,17.5 6.5,27.164983 14.335017,35 24,35 33.664983,35 41.5,27.164983 41.5,17.5 41.5,7.835017 33.664983,0 24,0 z m 0,1.5 c 8.836556,0 16,7.163444 16,16 0,8.836556 -7.163444,16 -16,16 -8.836556,0 -16,-7.163444 -16,-16 0,-8.836556 7.163444,-16 16,-16 z"
     id="path7894" />
  <path
     style="fill:#000000;fill-opacity:1;stroke:none"
     d="m 0,14 0,7 6.84375,0 C 6.6145952,19.870062 6.5,18.697552 6.5,17.5 6.5,16.302448 6.6145952,15.129938 6.84375,14 L 0,14 z m 41.15625,0 c 0.229155,1.129938 0.34375,2.302448 0.34375,3.5 0,1.197552 -0.114595,2.370062 -0.34375,3.5 L 48,21 l 0,-7 -6.84375,0 z"
     id="rect2814" />
  <path
     style="fill:#000000;fill-opacity:1;stroke:none"
     d="m 16.906251,33.46875 c 0.09857,0.04387 0.181733,0.114157 0.281248,0.15625 0.358019,0.151429 0.755274,0.215941 1.125,0.34375 0.688639,-2.554437 2.915456,-4.468751 5.6875,-4.468751 2.772043,1e-6 4.998864,1.914315 5.6875,4.468751 0.369727,-0.12781 0.766982,-0.192321 1.125001,-0.34375 0.09952,-0.04209 0.182682,-0.112382 0.281251,-0.156248 -0.903018,-3.128205 -3.674763,-5.468751 -7.093749,-5.46875 -3.418987,-10e-7 -6.190732,2.340545 -7.09375,5.46875 z"
     id="rect2829"
     inkscape:transform-center-y="13.484377" />
</svg>
