<?xml version="1.0" encoding="UTF-8" standalone="no"?>
<svg
   xmlns:dc="http://purl.org/dc/elements/1.1/"
   xmlns:cc="http://creativecommons.org/ns#"
   xmlns:rdf="http://www.w3.org/1999/02/22-rdf-syntax-ns#"
   xmlns:svg="http://www.w3.org/2000/svg"
   xmlns="http://www.w3.org/2000/svg"
   xmlns:sodipodi="http://sodipodi.sourceforge.net/DTD/sodipodi-0.dtd"
   xmlns:inkscape="http://www.inkscape.org/namespaces/inkscape"
   version="1.0"
   width="48"
   height="35"
   id="svg2"
   inkscape:version="0.47 r22583"
   sodipodi:docname="06-01-005-01-02-07.svg">
  <defs
     id="defs14">
    <inkscape:perspective
       sodipodi:type="inkscape:persp3d"
       inkscape:vp_x="0 : 5.5 : 1"
       inkscape:vp_y="0 : 1000 : 0"
       inkscape:vp_z="10 : 5.5 : 1"
       inkscape:persp3d-origin="5 : 3.6666667 : 1"
       id="perspective16" />
  </defs>
  <sodipodi:namedview
     pagecolor="#ffffff"
     bordercolor="#666666"
     borderopacity="1"
     objecttolerance="10"
     gridtolerance="10"
     guidetolerance="10"
     inkscape:pageopacity="0"
     inkscape:pageshadow="2"
     inkscape:window-width="917"
     inkscape:window-height="792"
     id="namedview12"
     showgrid="true"
     inkscape:zoom="15.542857"
     inkscape:cx="24"
     inkscape:cy="17.5"
     inkscape:window-x="313"
     inkscape:window-y="0"
     inkscape:window-maximized="0"
     inkscape:current-layer="svg2"
     showborder="true"
     inkscape:showpageshadow="true"
     inkscape:snap-center="false">
    <inkscape:grid
       type="xygrid"
       id="grid2822"
       empspacing="5"
       visible="true"
       enabled="true"
       snapvisiblegridlinesonly="true" />
  </sodipodi:namedview>
  <metadata
     id="metadata4">
Valerie Sutton's pixel definition of the
ISWA 2010 symbol ID 02-01-001-01-01-01
transformed by Stephen E Slevinski Jr
using line and fill polygon tracing
<rdf:RDF>
  <cc:Work
     rdf:about="">
    <dc:format>image/svg+xml</dc:format>
    <dc:type
       rdf:resource="http://purl.org/dc/dcmitype/StillImage" />
    <dc:title></dc:title>
  </cc:Work>
</rdf:RDF>
</metadata>
  <path
     style="fill:#000000;fill-opacity:1;stroke:none"
     d="M 24,0 C 14.335017,0 6.5,7.835017 6.5,17.5 6.5,27.164983 14.335017,35 24,35 33.664983,35 41.5,27.164983 41.5,17.5 41.5,7.835017 33.664983,0 24,0 z m 0,1.5 c 8.836556,0 16,7.163444 16,16 0,8.836556 -7.163444,16 -16,16 -8.836556,0 -16,-7.163444 -16,-16 0,-8.836556 7.163444,-16 16,-16 z"
     id="path7894" />
  <path
     style="fill:#000000;fill-opacity:1;stroke:none"
     d="m 0,14 0,7 6.84375,0 C 6.6145952,19.870062 6.5,18.697552 6.5,17.5 6.5,16.302448 6.6145952,15.129938 6.84375,14 L 0,14 z m 41.15625,0 c 0.229155,1.129938 0.34375,2.302448 0.34375,3.5 0,1.197552 -0.114595,2.370062 -0.34375,3.5 L 48,21 l 0,-7 -6.84375,0 z"
     id="rect2814" />
  <path
     style="fill:#000000;fill-opacity:1;stroke:none"
     d="m 40.307653,11.224425 c -0.03868,-0.10072 -0.04778,-0.209226 -0.08839,-0.309357 C 40.073182,10.554833 39.837897,10.228315 39.666836,9.8765044 37.373635,11.195823 34.445413,10.97485 32.485282,9.0147187 30.525152,7.0545876 30.304175,4.1263623 31.623496,1.8331648 31.271684,1.6621036 30.945166,1.4268174 30.584931,1.2807362 c -0.100133,-0.040609 -0.20864,-0.04971 -0.309357,-0.08839 -1.573445,2.8505052 -1.268541,6.4654401 1.149047,8.8830288 2.417589,2.417589 6.032524,2.722492 8.88303,1.149047 z"
     id="rect2829"
     inkscape:transform-center-x="-10.805638"
     inkscape:transform-center-y="-10.805639" />
</svg>
