<?xml version="1.0" encoding="UTF-8" standalone="no"?>
<svg
   xmlns:dc="http://purl.org/dc/elements/1.1/"
   xmlns:cc="http://creativecommons.org/ns#"
   xmlns:rdf="http://www.w3.org/1999/02/22-rdf-syntax-ns#"
   xmlns:svg="http://www.w3.org/2000/svg"
   xmlns="http://www.w3.org/2000/svg"
   xmlns:sodipodi="http://sodipodi.sourceforge.net/DTD/sodipodi-0.dtd"
   xmlns:inkscape="http://www.inkscape.org/namespaces/inkscape"
   version="1.0"
   width="17"
   height="12"
   id="svg2"
   inkscape:version="0.47 r22583"
   sodipodi:docname="04-04-001-03-02-01.svg">
  <defs
     id="defs16">
    <inkscape:perspective
       sodipodi:type="inkscape:persp3d"
       inkscape:vp_x="0 : 5 : 1"
       inkscape:vp_y="0 : 1000 : 0"
       inkscape:vp_z="10 : 5 : 1"
       inkscape:persp3d-origin="5 : 3.3333333 : 1"
       id="perspective18" />
  </defs>
  <sodipodi:namedview
     pagecolor="#ffffff"
     bordercolor="#666666"
     borderopacity="1"
     objecttolerance="10"
     gridtolerance="10"
     guidetolerance="10"
     inkscape:pageopacity="0"
     inkscape:pageshadow="2"
     inkscape:window-width="1002"
     inkscape:window-height="791"
     id="namedview14"
     showgrid="true"
     inkscape:zoom="15.56"
     inkscape:cx="10.037966"
     inkscape:cy="5.3060115"
     inkscape:window-x="214"
     inkscape:window-y="0"
     inkscape:window-maximized="0"
     inkscape:current-layer="svg2">
    <inkscape:grid
       type="xygrid"
       id="grid2824" />
  </sodipodi:namedview>
  <metadata
     id="metadata4">
Valerie Sutton's pixel definition of the
ISWA 2010 symbol ID 04-02-001-01-05-01
transformed by Stephen E Slevinski Jr
using line and fill polygon tracing
<rdf:RDF>
  <cc:Work
     rdf:about="">
    <dc:format>image/svg+xml</dc:format>
    <dc:type
       rdf:resource="http://purl.org/dc/dcmitype/StillImage" />
    <dc:title />
  </cc:Work>
</rdf:RDF>
</metadata>
  <path
     style="fill:#000000;fill-opacity:1;stroke:none"
     d="M 0,5 0,7 5,7 5,5 0,5 z m 12,0 0,2 5,0 0,-2 -5,0 z"
     id="rect3244" />
  <path
     style="fill:#000000;fill-opacity:1;stroke:none"
     d="M 7.5 0 L 7.5 3.59375 L 4.96875 1.0625 L 3.5625 2.46875 L 7.09375 6 L 3.5625 9.53125 L 4.96875 10.9375 L 7.5 8.40625 L 7.5 12 L 9.5 12 L 9.5 8.40625 L 12.03125 10.9375 L 13.4375 9.53125 L 9.90625 6 L 13.4375 2.46875 L 12.03125 1.0625 L 9.5 3.59375 L 9.5 0 L 7.5 0 z "
     id="rect2823" />
</svg>
