<?xml version="1.0" encoding="UTF-8" standalone="no"?>
<svg
   xmlns:dc="http://purl.org/dc/elements/1.1/"
   xmlns:cc="http://creativecommons.org/ns#"
   xmlns:rdf="http://www.w3.org/1999/02/22-rdf-syntax-ns#"
   xmlns:svg="http://www.w3.org/2000/svg"
   xmlns="http://www.w3.org/2000/svg"
   xmlns:sodipodi="http://sodipodi.sourceforge.net/DTD/sodipodi-0.dtd"
   xmlns:inkscape="http://www.inkscape.org/namespaces/inkscape"
   version="1.0"
   width="12"
   height="22"
   id="svg2"
   inkscape:version="0.47 r22583"
   sodipodi:docname="02-06-001-01-01-01.svg">
  <defs
     id="defs16">
    <inkscape:perspective
       sodipodi:type="inkscape:persp3d"
       inkscape:vp_x="0 : 23 : 1"
       inkscape:vp_y="0 : 1000 : 0"
       inkscape:vp_z="36 : 23 : 1"
       inkscape:persp3d-origin="18 : 15.333333 : 1"
       id="perspective18" />
  </defs>
  <sodipodi:namedview
     pagecolor="#ffffff"
     bordercolor="#666666"
     borderopacity="1"
     objecttolerance="10"
     gridtolerance="10"
     guidetolerance="10"
     inkscape:pageopacity="0"
     inkscape:pageshadow="2"
     inkscape:window-width="964"
     inkscape:window-height="721"
     id="namedview14"
     showgrid="true"
     inkscape:zoom="16.300086"
     inkscape:cx="6"
     inkscape:cy="11"
     inkscape:window-x="365"
     inkscape:window-y="0"
     inkscape:window-maximized="0"
     inkscape:current-layer="svg2"
     showborder="true">
    <inkscape:grid
       type="xygrid"
       id="grid2824"
       empspacing="5"
       visible="true"
       enabled="true"
       snapvisiblegridlinesonly="true" />
  </sodipodi:namedview>
  <metadata
     id="metadata4">
Valerie Sutton's pixel definition of the
ISWA 2010 symbol ID 04-01-003-01-01-01
transformed by Stephen E Slevinski Jr
using line and fill polygon tracing
<rdf:RDF>
  <cc:Work
     rdf:about="">
    <dc:format>image/svg+xml</dc:format>
    <dc:type
       rdf:resource="http://purl.org/dc/dcmitype/StillImage" />
    <dc:title></dc:title>
  </cc:Work>
</rdf:RDF>
</metadata>
  <path
     style="fill:#000000;fill-opacity:1;stroke:none"
     d="M 0 0 L 0 10 L 2 8 L 2 2 L 8 2 L 10 0 L 0 0 z "
     id="path3273" />
  <path
     style="fill:#000000;fill-opacity:1;stroke:none"
     d="m 7.46875,2.53125 -1.0625,1.0625 1.75,1.75 C 9.6039652,6.7914652 10.5,8.790861 10.5,11 c 0,2.209139 -0.8960348,4.208535 -2.34375,5.65625 L 3.875,20.9375 4.9375,22 9.21875,17.71875 C 10.937912,15.999588 12,13.623352 12,11 12,8.3766475 10.937912,6.0004119 9.21875,4.28125 l -1.75,-1.75 z"
     id="path3340" />
  <path
     style="fill:#000000;fill-opacity:1;stroke:none"
     d="m 3.59375,6.40625 -1.0625,1.0625 1.75,1.75 C 4.733661,9.671161 5,10.309644 5,11 5,11.690356 4.733661,12.328839 4.28125,12.78125 L 0,17.0625 1.0625,18.125 5.34375,13.84375 C 6.0676076,13.119892 6.5,12.10457 6.5,11 6.5,9.8954305 6.0676076,8.8801076 5.34375,8.15625 l -1.75,-1.75 z"
     id="path3338" />
  <path
     style="fill:#ffffff;fill-opacity:1;stroke:none"
     d="m 6.40625,3.59375 -2.8125,2.8125 1.75,1.75 C 6.0676076,8.8801076 6.5,9.8954305 6.5,11 c 0,1.10457 -0.4323924,2.119892 -1.15625,2.84375 L 1.0625,18.125 3.875,20.9375 8.15625,16.65625 C 9.6039652,15.208535 10.5,13.209139 10.5,11 10.5,8.790861 9.6039652,6.7914652 8.15625,5.34375 l -1.75,-1.75 z"
     id="path3292" />
</svg>
