<?xml version="1.0" encoding="UTF-8" standalone="no"?>
<svg
   xmlns:dc="http://purl.org/dc/elements/1.1/"
   xmlns:cc="http://creativecommons.org/ns#"
   xmlns:rdf="http://www.w3.org/1999/02/22-rdf-syntax-ns#"
   xmlns:svg="http://www.w3.org/2000/svg"
   xmlns="http://www.w3.org/2000/svg"
   xmlns:sodipodi="http://sodipodi.sourceforge.net/DTD/sodipodi-0.dtd"
   xmlns:inkscape="http://www.inkscape.org/namespaces/inkscape"
   version="1.0"
   width="33"
   height="32"
   id="svg2"
   inkscape:version="0.47 r22583"
   sodipodi:docname="02-10-003-03-03-16.svg">
  <defs
     id="defs16">
    <inkscape:perspective
       sodipodi:type="inkscape:persp3d"
       inkscape:vp_x="0 : 23 : 1"
       inkscape:vp_y="0 : 1000 : 0"
       inkscape:vp_z="36 : 23 : 1"
       inkscape:persp3d-origin="18 : 15.333333 : 1"
       id="perspective18" />
  </defs>
  <sodipodi:namedview
     pagecolor="#ffffff"
     bordercolor="#666666"
     borderopacity="1"
     objecttolerance="10"
     gridtolerance="10"
     guidetolerance="10"
     inkscape:pageopacity="0"
     inkscape:pageshadow="2"
     inkscape:window-width="964"
     inkscape:window-height="721"
     id="namedview14"
     showgrid="true"
     inkscape:zoom="14.78125"
     inkscape:cx="16.5"
     inkscape:cy="16"
     inkscape:window-x="365"
     inkscape:window-y="0"
     inkscape:window-maximized="0"
     inkscape:current-layer="svg2"
     showborder="true">
    <inkscape:grid
       type="xygrid"
       id="grid2824"
       empspacing="5"
       visible="true"
       enabled="true"
       snapvisiblegridlinesonly="true" />
  </sodipodi:namedview>
  <metadata
     id="metadata4">
Valerie Sutton's pixel definition of the
ISWA 2010 symbol ID 04-01-003-01-01-01
transformed by Stephen E Slevinski Jr
using line and fill polygon tracing
<rdf:RDF>
  <cc:Work
     rdf:about="">
    <dc:format>image/svg+xml</dc:format>
    <dc:type
       rdf:resource="http://purl.org/dc/dcmitype/StillImage" />
    <dc:title></dc:title>
  </cc:Work>
</rdf:RDF>
</metadata>
  <path
     style="fill:#000000;fill-opacity:1;stroke:none"
     d="m 19.78125,17 -1.5,1.5 -4.78125,0 0,4.78125 -1.5,1.5 L 12,17 l 7.78125,0 z"
     id="path3279" />
  <path
     style="fill:#000000;fill-opacity:1;stroke:none"
     d="m 3.1611661,1.090097 c 1.757359,-1.75735902 5.872932,-0.491029 9.1923879,2.828427 L 28.61701,20.18198 c 3.319456,3.319456 4.585786,7.435029 2.828427,9.192388 l -1.414213,1.414214 c -1.757359,1.757359 -6.580039,1.198135 -9.899495,-2.121321 l -5.303301,-5.3033 3.535533,-3.535534 5.303302,5.303301 c 2.928932,2.928932 5.38765,3.804737 6.363961,2.828426 0.97631,-0.97631 0.100505,-3.435028 -2.828428,-6.36396 L 10.93934,5.332738 C 8.0104081,2.403805 5.5516901,1.528 4.5753791,2.504311 3.5990681,3.480621 4.4748741,5.939339 7.4038061,8.868272 L 13.060661,14.525126 9.5251271,18.06066 3.8682731,12.403806 C 0.54881614,9.084349 -0.01040686,4.26167 1.7469521,2.504311 l 1.414214,-1.414214 z"
     id="path3299" />
</svg>
