<?xml version="1.0" encoding="UTF-8" standalone="no"?>
<svg
   xmlns:dc="http://purl.org/dc/elements/1.1/"
   xmlns:cc="http://creativecommons.org/ns#"
   xmlns:rdf="http://www.w3.org/1999/02/22-rdf-syntax-ns#"
   xmlns:svg="http://www.w3.org/2000/svg"
   xmlns="http://www.w3.org/2000/svg"
   xmlns:sodipodi="http://sodipodi.sourceforge.net/DTD/sodipodi-0.dtd"
   xmlns:inkscape="http://www.inkscape.org/namespaces/inkscape"
   version="1.0"
   width="32"
   height="33"
   id="svg2"
   inkscape:version="0.47 r22583"
   sodipodi:docname="02-10-003-03-05-10.svg">
  <defs
     id="defs16">
    <inkscape:perspective
       sodipodi:type="inkscape:persp3d"
       inkscape:vp_x="0 : 23 : 1"
       inkscape:vp_y="0 : 1000 : 0"
       inkscape:vp_z="36 : 23 : 1"
       inkscape:persp3d-origin="18 : 15.333333 : 1"
       id="perspective18" />
  </defs>
  <sodipodi:namedview
     pagecolor="#ffffff"
     bordercolor="#666666"
     borderopacity="1"
     objecttolerance="10"
     gridtolerance="10"
     guidetolerance="10"
     inkscape:pageopacity="0"
     inkscape:pageshadow="2"
     inkscape:window-width="964"
     inkscape:window-height="721"
     id="namedview14"
     showgrid="true"
     inkscape:zoom="14.333333"
     inkscape:cx="16"
     inkscape:cy="16.5"
     inkscape:window-x="365"
     inkscape:window-y="0"
     inkscape:window-maximized="0"
     inkscape:current-layer="svg2"
     showborder="true">
    <inkscape:grid
       type="xygrid"
       id="grid2824"
       empspacing="5"
       visible="true"
       enabled="true"
       snapvisiblegridlinesonly="true" />
  </sodipodi:namedview>
  <metadata
     id="metadata4">
Valerie Sutton's pixel definition of the
ISWA 2010 symbol ID 04-01-003-01-01-01
transformed by Stephen E Slevinski Jr
using line and fill polygon tracing
<rdf:RDF>
  <cc:Work
     rdf:about="">
    <dc:format>image/svg+xml</dc:format>
    <dc:type
       rdf:resource="http://purl.org/dc/dcmitype/StillImage" />
    <dc:title></dc:title>
  </cc:Work>
</rdf:RDF>
</metadata>
  <path
     style="fill:#000000;fill-opacity:1;stroke:none"
     d="M 18,11 25.778175,11 18,18.778174 18,11 z m 1.016466,1.016466 0,4.331029 4.331029,-4.331029 -4.331029,0 z"
     id="path3279" />
  <path
     style="fill:#000000;fill-opacity:1;stroke:none"
     d="m 2.7972054,1.4540582 c 1.757372,-1.7573725 5.872932,-0.4910291 9.1923876,2.8284271 L 17.646447,9.9393395 16.232233,11.353553 10.575379,5.6966988 C 7.6464474,2.7677664 5.1877204,1.8919694 4.2114184,2.8682717 3.2351164,3.8445741 3.4038064,7.0104071 6.3327394,9.9393395 L 22.596194,26.202795 c 2.928933,2.928933 6.094766,3.097623 7.071069,2.121321 0.976302,-0.976302 0.100505,-3.435029 -2.828428,-6.363961 l -5.303301,-5.303301 1.414214,-1.414214 5.303301,5.303301 c 3.319456,3.319456 4.5858,7.435016 2.828427,9.192388 l -1.414213,1.414214 c -1.757373,1.757372 -6.580039,1.198136 -9.899496,-2.12132 L 3.5043114,12.767767 C 0.18485543,9.4483104 -0.37438057,4.6256442 1.3829914,2.8682717 l 1.414214,-1.4142135 z"
     id="path3299" />
  <path
     style="fill:#ffffff;fill-opacity:1;stroke:none"
     d="m 19.016466,12.016466 4.331029,0 -4.331029,4.331029 0,-4.331029 z"
     id="path4692" />
</svg>
