<?xml version="1.0" encoding="UTF-8" standalone="no"?>
<svg
   xmlns:dc="http://purl.org/dc/elements/1.1/"
   xmlns:cc="http://creativecommons.org/ns#"
   xmlns:rdf="http://www.w3.org/1999/02/22-rdf-syntax-ns#"
   xmlns:svg="http://www.w3.org/2000/svg"
   xmlns="http://www.w3.org/2000/svg"
   xmlns:sodipodi="http://sodipodi.sourceforge.net/DTD/sodipodi-0.dtd"
   xmlns:inkscape="http://www.inkscape.org/namespaces/inkscape"
   version="1.0"
   width="32"
   height="33"
   id="svg2"
   inkscape:version="0.47 r22583"
   sodipodi:docname="02-10-003-03-06-10.svg">
  <defs
     id="defs16">
    <inkscape:perspective
       sodipodi:type="inkscape:persp3d"
       inkscape:vp_x="0 : 23 : 1"
       inkscape:vp_y="0 : 1000 : 0"
       inkscape:vp_z="36 : 23 : 1"
       inkscape:persp3d-origin="18 : 15.333333 : 1"
       id="perspective18" />
  </defs>
  <sodipodi:namedview
     pagecolor="#ffffff"
     bordercolor="#666666"
     borderopacity="1"
     objecttolerance="10"
     gridtolerance="10"
     guidetolerance="10"
     inkscape:pageopacity="0"
     inkscape:pageshadow="2"
     inkscape:window-width="964"
     inkscape:window-height="721"
     id="namedview14"
     showgrid="true"
     inkscape:zoom="14.333333"
     inkscape:cx="16"
     inkscape:cy="16.5"
     inkscape:window-x="365"
     inkscape:window-y="0"
     inkscape:window-maximized="0"
     inkscape:current-layer="svg2"
     showborder="true">
    <inkscape:grid
       type="xygrid"
       id="grid2824"
       empspacing="5"
       visible="true"
       enabled="true"
       snapvisiblegridlinesonly="true" />
  </sodipodi:namedview>
  <metadata
     id="metadata4">
Valerie Sutton's pixel definition of the
ISWA 2010 symbol ID 04-01-003-01-01-01
transformed by Stephen E Slevinski Jr
using line and fill polygon tracing
<rdf:RDF>
  <cc:Work
     rdf:about="">
    <dc:format>image/svg+xml</dc:format>
    <dc:type
       rdf:resource="http://purl.org/dc/dcmitype/StillImage" />
    <dc:title></dc:title>
  </cc:Work>
</rdf:RDF>
</metadata>
  <path
     style="fill:#000000;fill-opacity:1;stroke:none"
     d="m 6.2187504,11 1.5,1.5 4.7812496,0 0,4.78125 1.5,1.5 L 14,11 6.2187504,11 z"
     id="path3279" />
  <path
     style="fill:#000000;fill-opacity:1;stroke:none"
     d="m 29.202795,1.4540584 c -1.757372,-1.757373 -5.872932,-0.49102899 -9.192388,2.828427 l -5.656854,5.6568536 1.414214,1.414214 5.656854,-5.6568546 c 2.928932,-2.928932 5.387659,-3.804729 6.363961,-2.828427 0.976302,0.976303 0.807612,4.142136 -2.121321,7.0710676 L 9.4038064,26.202795 c -2.928933,2.928933 -6.094766,3.097623 -7.071069,2.121321 -0.976302,-0.976302 -0.100505,-3.435029 2.828428,-6.363961 L 10.464466,16.656854 9.0502524,15.24264 3.7469514,20.545941 c -3.31945601,3.319456 -4.58580001,7.435016 -2.828427,9.192388 l 1.414213,1.414214 c 1.757373,1.757372 6.580039,1.198136 9.8994956,-2.12132 L 28.495689,12.767767 c 3.319456,-3.3194566 3.878692,-8.1421226 2.12132,-9.8994956 l -1.414214,-1.414213 z"
     id="path3299" />
</svg>
