<?xml version="1.0" encoding="UTF-8" standalone="no"?>
<svg
   xmlns:dc="http://purl.org/dc/elements/1.1/"
   xmlns:cc="http://creativecommons.org/ns#"
   xmlns:rdf="http://www.w3.org/1999/02/22-rdf-syntax-ns#"
   xmlns:svg="http://www.w3.org/2000/svg"
   xmlns="http://www.w3.org/2000/svg"
   xmlns:sodipodi="http://sodipodi.sourceforge.net/DTD/sodipodi-0.dtd"
   xmlns:inkscape="http://www.inkscape.org/namespaces/inkscape"
   version="1.0"
   width="33"
   height="32"
   id="svg2"
   inkscape:version="0.47 r22583"
   sodipodi:docname="02-10-003-03-02-08.svg">
  <defs
     id="defs16">
    <inkscape:perspective
       sodipodi:type="inkscape:persp3d"
       inkscape:vp_x="0 : 23 : 1"
       inkscape:vp_y="0 : 1000 : 0"
       inkscape:vp_z="36 : 23 : 1"
       inkscape:persp3d-origin="18 : 15.333333 : 1"
       id="perspective18" />
  </defs>
  <sodipodi:namedview
     pagecolor="#ffffff"
     bordercolor="#666666"
     borderopacity="1"
     objecttolerance="10"
     gridtolerance="10"
     guidetolerance="10"
     inkscape:pageopacity="0"
     inkscape:pageshadow="2"
     inkscape:window-width="964"
     inkscape:window-height="721"
     id="namedview14"
     showgrid="true"
     inkscape:zoom="14.78125"
     inkscape:cx="16.5"
     inkscape:cy="16"
     inkscape:window-x="365"
     inkscape:window-y="0"
     inkscape:window-maximized="0"
     inkscape:current-layer="svg2"
     showborder="true">
    <inkscape:grid
       type="xygrid"
       id="grid2824"
       empspacing="5"
       visible="true"
       enabled="true"
       snapvisiblegridlinesonly="true" />
  </sodipodi:namedview>
  <metadata
     id="metadata4">
Valerie Sutton's pixel definition of the
ISWA 2010 symbol ID 04-01-003-01-01-01
transformed by Stephen E Slevinski Jr
using line and fill polygon tracing
<rdf:RDF>
  <cc:Work
     rdf:about="">
    <dc:format>image/svg+xml</dc:format>
    <dc:type
       rdf:resource="http://purl.org/dc/dcmitype/StillImage" />
    <dc:title></dc:title>
  </cc:Work>
</rdf:RDF>
</metadata>
  <path
     style="fill:#000000;fill-opacity:1;stroke:none"
     d="M 21,24.778174 21,17 13.221825,17 21,24.778174 z m -1.016466,-2.430679 -4.33103,-4.331029 4.33103,0 0,4.331029 z"
     id="path3279" />
  <path
     style="fill:#000000;fill-opacity:1;stroke:none"
     d="M 29.838834,1.090097 C 28.081475,-0.667262 23.965902,0.5990679 20.646446,3.9185242 L 4.3829902,20.18198 C 1.0635339,23.501436 -0.202796,27.617009 1.554563,29.374368 l 1.4142136,1.414214 c 1.757359,1.757359 6.5800384,1.198136 9.8994954,-2.121321 l 5.3033,-5.3033 -3.535534,-3.535534 -5.3033,5.303301 C 6.4038052,28.06066 3.9450874,28.936466 2.9687766,27.960155 1.9924658,26.983844 2.8682713,24.525126 5.7972037,21.596194 L 22.06066,5.3327377 c 2.928932,-2.9289324 5.38765,-3.8047379 6.363961,-2.8284271 0.976311,0.9763108 0.100505,3.4350286 -2.828427,6.363961 l -5.656855,5.6568544 3.535534,3.535534 5.656854,-5.656854 c 3.319457,-3.3194567 3.87868,-8.1421364 2.121321,-9.8994954 L 29.838834,1.090097 z"
     id="path3299" />
  <path
     style="fill:#ffffff;fill-opacity:1;stroke:none"
     d="m 19.983534,22.347495 0,-4.331029 -4.33103,0 4.33103,4.331029 z"
     id="path3618" />
</svg>
