<?xml version="1.0" encoding="UTF-8" standalone="no"?>
<svg
   xmlns:dc="http://purl.org/dc/elements/1.1/"
   xmlns:cc="http://creativecommons.org/ns#"
   xmlns:rdf="http://www.w3.org/1999/02/22-rdf-syntax-ns#"
   xmlns:svg="http://www.w3.org/2000/svg"
   xmlns="http://www.w3.org/2000/svg"
   xmlns:sodipodi="http://sodipodi.sourceforge.net/DTD/sodipodi-0.dtd"
   xmlns:inkscape="http://www.inkscape.org/namespaces/inkscape"
   version="1.0"
   width="33"
   height="32"
   id="svg2"
   inkscape:version="0.47 r22583"
   sodipodi:docname="02-10-003-03-05-14.svg">
  <defs
     id="defs16">
    <inkscape:perspective
       sodipodi:type="inkscape:persp3d"
       inkscape:vp_x="0 : 23 : 1"
       inkscape:vp_y="0 : 1000 : 0"
       inkscape:vp_z="36 : 23 : 1"
       inkscape:persp3d-origin="18 : 15.333333 : 1"
       id="perspective18" />
  </defs>
  <sodipodi:namedview
     pagecolor="#ffffff"
     bordercolor="#666666"
     borderopacity="1"
     objecttolerance="10"
     gridtolerance="10"
     guidetolerance="10"
     inkscape:pageopacity="0"
     inkscape:pageshadow="2"
     inkscape:window-width="964"
     inkscape:window-height="721"
     id="namedview14"
     showgrid="true"
     inkscape:zoom="14.78125"
     inkscape:cx="16.5"
     inkscape:cy="16"
     inkscape:window-x="365"
     inkscape:window-y="0"
     inkscape:window-maximized="0"
     inkscape:current-layer="svg2"
     showborder="true">
    <inkscape:grid
       type="xygrid"
       id="grid2824"
       empspacing="5"
       visible="true"
       enabled="true"
       snapvisiblegridlinesonly="true" />
  </sodipodi:namedview>
  <metadata
     id="metadata4">
Valerie Sutton's pixel definition of the
ISWA 2010 symbol ID 04-01-003-01-01-01
transformed by Stephen E Slevinski Jr
using line and fill polygon tracing
<rdf:RDF>
  <cc:Work
     rdf:about="">
    <dc:format>image/svg+xml</dc:format>
    <dc:type
       rdf:resource="http://purl.org/dc/dcmitype/StillImage" />
    <dc:title></dc:title>
  </cc:Work>
</rdf:RDF>
</metadata>
  <path
     style="fill:#000000;fill-opacity:1;stroke:none"
     d="M 11,14 11,6.2218254 18.778174,14 11,14 z m 1.016466,-1.016466 4.331029,0 -4.331029,-4.3310286 0,4.3310286 z"
     id="path3279" />
  <path
     style="fill:#000000;fill-opacity:1;stroke:none"
     d="m 1.4540584,29.202795 c -1.75737302,-1.757372 -0.491029,-5.872932 2.828427,-9.192388 l 5.6568536,-5.656854 1.414214,1.414214 -5.6568546,5.656854 c -2.928932,2.928932 -3.804729,5.387659 -2.828427,6.363961 0.976303,0.976302 4.142136,0.807612 7.0710676,-2.121321 L 26.202795,9.4038064 c 2.928933,-2.928933 3.097623,-6.094766 2.121321,-7.071069 -0.976302,-0.976302 -3.435029,-0.100505 -6.363961,2.828428 L 16.656854,10.464466 15.24264,9.0502524 20.545941,3.7469514 c 3.319456,-3.31945599 7.435016,-4.58579999 9.192388,-2.828427 l 1.414214,1.414213 c 1.757372,1.757373 1.198136,6.580039 -2.12132,9.8994956 L 12.767767,28.495689 c -3.3194566,3.319456 -8.1421226,3.878692 -9.8994956,2.12132 l -1.414213,-1.414214 z"
     id="path3299" />
  <path
     style="fill:#ffffff;fill-opacity:1;stroke:none"
     d="m 12.016466,12.983534 0,-4.3310286 4.331029,4.3310286 -4.331029,0 z"
     id="path4692" />
</svg>
