<?xml version="1.0" encoding="UTF-8" standalone="no"?>
<svg
   xmlns:dc="http://purl.org/dc/elements/1.1/"
   xmlns:cc="http://creativecommons.org/ns#"
   xmlns:rdf="http://www.w3.org/1999/02/22-rdf-syntax-ns#"
   xmlns:svg="http://www.w3.org/2000/svg"
   xmlns="http://www.w3.org/2000/svg"
   xmlns:sodipodi="http://sodipodi.sourceforge.net/DTD/sodipodi-0.dtd"
   xmlns:inkscape="http://www.inkscape.org/namespaces/inkscape"
   version="1.0"
   width="40"
   height="45"
   id="svg2"
   inkscape:version="0.47 r22583"
   sodipodi:docname="04-01-003-01-02-04.svg">
  <defs
     id="defs16">
    <inkscape:perspective
       sodipodi:type="inkscape:persp3d"
       inkscape:vp_x="0 : 23 : 1"
       inkscape:vp_y="0 : 1000 : 0"
       inkscape:vp_z="36 : 23 : 1"
       inkscape:persp3d-origin="18 : 15.333333 : 1"
       id="perspective18" />
  </defs>
  <sodipodi:namedview
     pagecolor="#ffffff"
     bordercolor="#666666"
     borderopacity="1"
     objecttolerance="10"
     gridtolerance="10"
     guidetolerance="10"
     inkscape:pageopacity="0"
     inkscape:pageshadow="2"
     inkscape:window-width="964"
     inkscape:window-height="721"
     id="namedview14"
     showgrid="true"
     inkscape:zoom="9.5737298"
     inkscape:cx="15.415942"
     inkscape:cy="23.827565"
     inkscape:window-x="365"
     inkscape:window-y="0"
     inkscape:window-maximized="0"
     inkscape:current-layer="svg2">
    <inkscape:grid
       type="xygrid"
       id="grid2824" />
  </sodipodi:namedview>
  <metadata
     id="metadata4">
Valerie Sutton's pixel definition of the
ISWA 2010 symbol ID 04-01-003-01-01-01
transformed by Stephen E Slevinski Jr
using line and fill polygon tracing
<rdf:RDF>
  <cc:Work
     rdf:about="">
    <dc:format>image/svg+xml</dc:format>
    <dc:type
       rdf:resource="http://purl.org/dc/dcmitype/StillImage" />
    <dc:title />
  </cc:Work>
</rdf:RDF>
</metadata>
  <path
     style="fill:#000000"
     d="M 17.5 10 C 7.8350169 10 0 17.835017 0 27.5 C 0 37.164983 7.8350169 45 17.5 45 C 27.164983 45 35 37.164983 35 27.5 C 35 17.835017 27.164983 10 17.5 10 z M 17.5 11.5 C 26.336556 11.5 33.5 18.663444 33.5 27.5 C 33.5 36.336556 26.336556 43.5 17.5 43.5 C 8.663444 43.5 1.5 36.336556 1.5 27.5 C 1.5 18.663444 8.663444 11.5 17.5 11.5 z "
     id="path12" />
  <path
     d="m 23.737,8.485282 7.071068,0 0,-1.016466 -6.054602,0 0,-6.054602 -1.016466,0 0,7.071068 z"
     id="path10"
     style="fill:#000000" />
  <path
     style="fill:#000000;fill-opacity:1;stroke:none"
     d="m 27.979641,7.071068 -0.707107,-0.707107 4.242641,-4.24264 0.707106,0.707106 -4.24264,4.242641 z"
     id="path2831" />
  <path
     id="path2833"
     d="M 25.85832,4.949748 25.151214,4.242641 29.393854,0 30.100961,0.707107 25.85832,4.949748 z"
     style="fill:#000000;fill-opacity:1;stroke:none" />
  <path
     style="fill:#000000"
     id="path3049"
     d="m 31.515175,16.263456 7.071068,0 0,-1.016466 -6.054602,0 0,-6.054602 -1.016466,0 0,7.071068 z" />
  <path
     id="path3051"
     d="m 35.757816,14.849243 -0.707107,-0.707107 4.242641,-4.242641 0.707106,0.707107 -4.24264,4.242641 z"
     style="fill:#000000;fill-opacity:1;stroke:none" />
  <path
     style="fill:#000000;fill-opacity:1;stroke:none"
     d="m 33.636495,12.727922 -0.707107,-0.707106 4.242642,-4.242641 0.707106,0.707107 -4.242641,4.24264 z"
     id="path3053" />
</svg>
