<?xml version="1.0" encoding="UTF-8" standalone="no"?>
<svg
   xmlns:dc="http://purl.org/dc/elements/1.1/"
   xmlns:cc="http://creativecommons.org/ns#"
   xmlns:rdf="http://www.w3.org/1999/02/22-rdf-syntax-ns#"
   xmlns:svg="http://www.w3.org/2000/svg"
   xmlns="http://www.w3.org/2000/svg"
   xmlns:sodipodi="http://sodipodi.sourceforge.net/DTD/sodipodi-0.dtd"
   xmlns:inkscape="http://www.inkscape.org/namespaces/inkscape"
   version="1.0"
   width="46"
   height="46"
   id="svg2"
   inkscape:version="0.47 r22583"
   sodipodi:docname="04-01-003-01-05-02.svg">
  <defs
     id="defs16">
    <inkscape:perspective
       sodipodi:type="inkscape:persp3d"
       inkscape:vp_x="0 : 23 : 1"
       inkscape:vp_y="0 : 1000 : 0"
       inkscape:vp_z="36 : 23 : 1"
       inkscape:persp3d-origin="18 : 15.333333 : 1"
       id="perspective18" />
  </defs>
  <sodipodi:namedview
     pagecolor="#ffffff"
     bordercolor="#666666"
     borderopacity="1"
     objecttolerance="10"
     gridtolerance="10"
     guidetolerance="10"
     inkscape:pageopacity="0"
     inkscape:pageshadow="2"
     inkscape:window-width="964"
     inkscape:window-height="721"
     id="namedview14"
     showgrid="true"
     inkscape:zoom="9.5822488"
     inkscape:cx="15.506544"
     inkscape:cy="23.824129"
     inkscape:window-x="365"
     inkscape:window-y="0"
     inkscape:window-maximized="0"
     inkscape:current-layer="svg2">
    <inkscape:grid
       type="xygrid"
       id="grid2824" />
  </sodipodi:namedview>
  <metadata
     id="metadata4">
Valerie Sutton's pixel definition of the
ISWA 2010 symbol ID 04-01-003-01-01-01
transformed by Stephen E Slevinski Jr
using line and fill polygon tracing
<rdf:RDF>
  <cc:Work
     rdf:about="">
    <dc:format>image/svg+xml</dc:format>
    <dc:type
       rdf:resource="http://purl.org/dc/dcmitype/StillImage" />
    <dc:title />
  </cc:Work>
</rdf:RDF>
</metadata>
  <path
     style="fill:#000000"
     d="M 28.5 11 C 18.835017 11 11 18.835017 11 28.5 C 11 38.164983 18.835017 46 28.5 46 C 38.164983 46 46 38.164983 46 28.5 C 46 18.835017 38.164983 11 28.5 11 z M 28.5 12.5 C 37.336556 12.5 44.5 19.663444 44.5 28.5 C 44.5 37.336556 37.336556 44.5 28.5 44.5 C 19.663444 44.5 12.5 37.336556 12.5 28.5 C 12.5 19.663444 19.663444 12.5 28.5 12.5 z "
     id="path12" />
  <path
     d="m 0,15.556719 7.071067,0 0,1.016466 -6.054602,0 0,6.054601 -1.016465,0 0,-7.071067 z"
     id="path10"
     style="fill:#000000" />
  <path
     style="fill:#000000;fill-opacity:1;stroke:none"
     d="M 4.24264,16.970932 3.535533,17.678039 7.778174,21.92068 8.485281,21.213573 4.24264,16.970932 z"
     id="path2831" />
  <path
     id="path2833"
     d="M 2.12132,19.092253 1.414213,19.799359 5.656854,24.042 6.363961,23.334893 2.12132,19.092253 z"
     style="fill:#000000;fill-opacity:1;stroke:none" />
  <path
     style="fill:#000000"
     id="path3049"
     d="m 14.849242,14.849612 0,-7.0710676 -1.016466,0 0,6.0546016 -6.054602,0 0,1.016466 7.071068,0 z" />
  <path
     id="path3051"
     d="M 13.435028,10.606971 12.727922,11.314078 8.485281,7.0714376 9.192388,6.3643308 13.435028,10.606971 z"
     style="fill:#000000;fill-opacity:1;stroke:none" />
  <path
     style="fill:#000000;fill-opacity:1;stroke:none"
     d="M 11.313708,12.728292 10.606601,13.435399 6.363961,9.192758 7.071067,8.4856512 11.313708,12.728292 z"
     id="path3053" />
  <path
     d="m 15.556349,3.698e-4 7.071068,0 0,1.016466 -6.054602,0 0,6.0546018 -1.016466,0 0,-7.0710678 z"
     id="path3081"
     style="fill:#000000" />
  <path
     style="fill:#000000;fill-opacity:1;stroke:none"
     d="M 19.798989,1.4145834 19.091883,2.1216901 23.334523,6.3643308 24.04163,5.657224 19.798989,1.4145834 z"
     id="path3083" />
  <path
     id="path3085"
     d="M 17.677669,3.5359037 16.970562,4.2430105 21.213203,8.4856512 21.92031,7.7785444 17.677669,3.5359037 z"
     style="fill:#000000;fill-opacity:1;stroke:none" />
</svg>
