<?xml version="1.0" encoding="UTF-8" standalone="no"?>
<svg
   xmlns:dc="http://purl.org/dc/elements/1.1/"
   xmlns:cc="http://creativecommons.org/ns#"
   xmlns:rdf="http://www.w3.org/1999/02/22-rdf-syntax-ns#"
   xmlns:svg="http://www.w3.org/2000/svg"
   xmlns="http://www.w3.org/2000/svg"
   xmlns:sodipodi="http://sodipodi.sourceforge.net/DTD/sodipodi-0.dtd"
   xmlns:inkscape="http://www.inkscape.org/namespaces/inkscape"
   version="1.0"
   width="48"
   height="46"
   id="svg2"
   inkscape:version="0.47 r22583"
   sodipodi:docname="04-01-003-01-04-04.svg">
  <defs
     id="defs16">
    <inkscape:perspective
       sodipodi:type="inkscape:persp3d"
       inkscape:vp_x="0 : 23 : 1"
       inkscape:vp_y="0 : 1000 : 0"
       inkscape:vp_z="36 : 23 : 1"
       inkscape:persp3d-origin="18 : 15.333333 : 1"
       id="perspective18" />
  </defs>
  <sodipodi:namedview
     pagecolor="#ffffff"
     bordercolor="#666666"
     borderopacity="1"
     objecttolerance="10"
     gridtolerance="10"
     guidetolerance="10"
     inkscape:pageopacity="0"
     inkscape:pageshadow="2"
     inkscape:window-width="964"
     inkscape:window-height="721"
     id="namedview14"
     showgrid="true"
     inkscape:zoom="9.5822488"
     inkscape:cx="15.506544"
     inkscape:cy="23.824129"
     inkscape:window-x="365"
     inkscape:window-y="0"
     inkscape:window-maximized="0"
     inkscape:current-layer="svg2">
    <inkscape:grid
       type="xygrid"
       id="grid2824" />
  </sodipodi:namedview>
  <metadata
     id="metadata4">
Valerie Sutton's pixel definition of the
ISWA 2010 symbol ID 04-01-003-01-01-01
transformed by Stephen E Slevinski Jr
using line and fill polygon tracing
<rdf:RDF>
  <cc:Work
     rdf:about="">
    <dc:format>image/svg+xml</dc:format>
    <dc:type
       rdf:resource="http://purl.org/dc/dcmitype/StillImage" />
    <dc:title />
  </cc:Work>
</rdf:RDF>
</metadata>
  <path
     style="fill:#000000"
     d="M 17.5 11 C 7.835017 11 1.087327e-16 18.835017 0 28.5 C 0 38.164983 7.835017 46 17.5 46 C 27.164983 46 35 38.164983 35 28.5 C 35 18.835017 27.164983 11 17.5 11 z M 17.5 12.5 C 26.336556 12.5 33.5 19.663444 33.5 28.5 C 33.5 37.336556 26.336556 44.5 17.5 44.5 C 8.663444 44.5 1.5 37.336556 1.5 28.5 C 1.5 19.663444 8.663444 12.5 17.5 12.5 z "
     id="path12" />
  <path
     d="m 39.51472,24.042 0,-7.071068 1.016465,0 0,6.054602 6.054601,0 0,1.016466 -7.071066,0 z"
     id="path10"
     style="fill:#000000" />
  <path
     style="fill:#000000;fill-opacity:1;stroke:none"
     d="m 40.928932,19.799359 0.707107,0.707107 4.242641,-4.242641 -0.707107,-0.707106 -4.242641,4.24264 z"
     id="path2831" />
  <path
     id="path2833"
     d="M 43.050254,21.92068 43.757359,22.627786 48,18.385146 47.292893,17.678039 43.050253,21.92068 z"
     style="fill:#000000;fill-opacity:1;stroke:none" />
  <path
     style="fill:#000000"
     id="path3049"
     d="m 31.736544,16.263825 0,-7.071068 1.016467,0 0,6.054602 6.054601,0 0,1.016466 -7.071068,0 z" />
  <path
     id="path3051"
     d="m 33.150759,12.021184 0.707106,0.707107 4.242641,-4.242641 -0.707107,-0.707107 -4.24264,4.242641 z"
     style="fill:#000000;fill-opacity:1;stroke:none" />
  <path
     style="fill:#000000;fill-opacity:1;stroke:none"
     d="m 35.272079,14.142505 0.707107,0.707107 4.242639,-4.242641 -0.707105,-0.707107 -4.242641,4.242641 z"
     id="path3053" />
  <path
     d="m 23.95837,8.48565 0,-7.071067 1.016466,0 0,6.054601 6.054601,0 0,1.016466 -7.071067,0 z"
     id="path3081"
     style="fill:#000000" />
  <path
     style="fill:#000000;fill-opacity:1;stroke:none"
     d="M 25.372584,4.24301 26.07969,4.950116 30.322332,0.707476 29.615225,3.69e-4 25.372584,4.24301 z"
     id="path3083" />
  <path
     id="path3085"
     d="m 27.493904,6.36433 0.707107,0.707107 4.242641,-4.24264 -0.707108,-0.707108 -4.24264,4.242641 z"
     style="fill:#000000;fill-opacity:1;stroke:none" />
</svg>
