<?xml version="1.0" encoding="UTF-8" standalone="no"?>
<svg
   xmlns:dc="http://purl.org/dc/elements/1.1/"
   xmlns:cc="http://creativecommons.org/ns#"
   xmlns:rdf="http://www.w3.org/1999/02/22-rdf-syntax-ns#"
   xmlns:svg="http://www.w3.org/2000/svg"
   xmlns="http://www.w3.org/2000/svg"
   xmlns:sodipodi="http://sodipodi.sourceforge.net/DTD/sodipodi-0.dtd"
   xmlns:inkscape="http://www.inkscape.org/namespaces/inkscape"
   version="1.0"
   width="35"
   height="48"
   id="svg2"
   inkscape:version="0.47 r22583"
   sodipodi:docname="04-01-003-01-02-02.svg">
  <defs
     id="defs16">
    <inkscape:perspective
       sodipodi:type="inkscape:persp3d"
       inkscape:vp_x="0 : 23 : 1"
       inkscape:vp_y="0 : 1000 : 0"
       inkscape:vp_z="36 : 23 : 1"
       inkscape:persp3d-origin="18 : 15.333333 : 1"
       id="perspective18" />
  </defs>
  <sodipodi:namedview
     pagecolor="#ffffff"
     bordercolor="#666666"
     borderopacity="1"
     objecttolerance="10"
     gridtolerance="10"
     guidetolerance="10"
     inkscape:pageopacity="0"
     inkscape:pageshadow="2"
     inkscape:window-width="964"
     inkscape:window-height="721"
     id="namedview14"
     showgrid="true"
     inkscape:zoom="9.5737298"
     inkscape:cx="17.015956"
     inkscape:cy="23.827565"
     inkscape:window-x="365"
     inkscape:window-y="0"
     inkscape:window-maximized="0"
     inkscape:current-layer="svg2">
    <inkscape:grid
       type="xygrid"
       id="grid2824" />
  </sodipodi:namedview>
  <metadata
     id="metadata4">
Valerie Sutton's pixel definition of the
ISWA 2010 symbol ID 04-01-003-01-01-01
transformed by Stephen E Slevinski Jr
using line and fill polygon tracing
<rdf:RDF>
  <cc:Work
     rdf:about="">
    <dc:format>image/svg+xml</dc:format>
    <dc:type
       rdf:resource="http://purl.org/dc/dcmitype/StillImage" />
    <dc:title />
  </cc:Work>
</rdf:RDF>
</metadata>
  <path
     style="fill:#000000"
     d="M 17.5 13 C 7.8350169 13 0 20.835017 0 30.5 C 0 40.164983 7.8350169 48 17.5 48 C 27.164983 48 35 40.164983 35 30.5 C 35 20.835017 27.164983 13 17.5 13 z M 17.5 14.5 C 26.336556 14.5 33.5 21.663444 33.5 30.5 C 33.5 39.336556 26.336556 46.5 17.5 46.5 C 8.663444 46.5 1.5 39.336556 1.5 30.5 C 1.5 21.663444 8.663444 14.5 17.5 14.5 z "
     id="path12" />
  <path
     d="m 8,0 0,7.0710678 1.016466,0 0,-6.0546018 6.054602,0 L 15.071068,0 8,0 z"
     id="path10"
     style="fill:#000000" />
  <path
     style="fill:#000000;fill-opacity:1;stroke:none"
     d="M 9.414214,4.2426407 10.121321,3.5355339 14.363961,7.7781746 13.656855,8.4852814 9.414214,4.2426407 z"
     id="path2831" />
  <path
     id="path2833"
     d="M 11.535534,2.1213203 12.242641,1.4142136 16.485282,5.6568542 15.778175,6.363961 11.535534,2.1213203 z"
     style="fill:#000000;fill-opacity:1;stroke:none" />
  <path
     style="fill:#000000"
     id="path3049"
     d="m 0.221826,7.7781746 0,7.0710684 1.016466,0 0,-6.0546024 6.054602,0 0,-1.016466 -7.071068,0 z" />
  <path
     id="path3051"
     d="M 1.636039,12.020816 2.343146,11.313709 6.585787,15.55635 5.87868,16.263456 1.636039,12.020816 z"
     style="fill:#000000;fill-opacity:1;stroke:none" />
  <path
     style="fill:#000000;fill-opacity:1;stroke:none"
     d="M 3.75736,9.8994946 4.464466,9.1923882 8.707107,13.43503 8,14.142136 3.75736,9.8994946 z"
     id="path3053" />
</svg>
