<?xml version="1.0" encoding="UTF-8" standalone="no"?>
<svg
   xmlns:dc="http://purl.org/dc/elements/1.1/"
   xmlns:cc="http://creativecommons.org/ns#"
   xmlns:rdf="http://www.w3.org/1999/02/22-rdf-syntax-ns#"
   xmlns:svg="http://www.w3.org/2000/svg"
   xmlns="http://www.w3.org/2000/svg"
   xmlns:sodipodi="http://sodipodi.sourceforge.net/DTD/sodipodi-0.dtd"
   xmlns:inkscape="http://www.inkscape.org/namespaces/inkscape"
   version="1.0"
   width="35"
   height="35"
   id="svg2"
   inkscape:version="0.47 r22583"
   sodipodi:docname="04-02-008-03-01-06.svg">
  <defs
     id="defs14">
    <inkscape:perspective
       sodipodi:type="inkscape:persp3d"
       inkscape:vp_x="0 : 3.5 : 1"
       inkscape:vp_y="0 : 1000 : 0"
       inkscape:vp_z="7 : 3.5 : 1"
       inkscape:persp3d-origin="3.5 : 2.3333333 : 1"
       id="perspective16" />
  </defs>
  <sodipodi:namedview
     pagecolor="#ffffff"
     bordercolor="#666666"
     borderopacity="1"
     objecttolerance="10"
     gridtolerance="10"
     guidetolerance="10"
     inkscape:pageopacity="0"
     inkscape:pageshadow="2"
     inkscape:window-width="928"
     inkscape:window-height="791"
     id="namedview12"
     showgrid="true"
     inkscape:zoom="15.722143"
     inkscape:cx="17.478593"
     inkscape:cy="17.40587"
     inkscape:window-x="273"
     inkscape:window-y="0"
     inkscape:window-maximized="0"
     inkscape:current-layer="svg2">
    <inkscape:grid
       type="xygrid"
       id="grid2822" />
  </sodipodi:namedview>
  <metadata
     id="metadata4">
Valerie Sutton's pixel definition of the
ISWA 2010 symbol ID 04-02-007-01-04-01
transformed by Stephen E Slevinski Jr
using line and fill polygon tracing
<rdf:RDF>
  <cc:Work
     rdf:about="">
    <dc:format>image/svg+xml</dc:format>
    <dc:type
       rdf:resource="http://purl.org/dc/dcmitype/StillImage" />
    <dc:title />
  </cc:Work>
</rdf:RDF>
</metadata>
  <path
     style="fill:#000000;fill-opacity:1;stroke:none"
     d="m 4,10 0,5 1.0000561,0 0,-4 4.0002249,0 0,-1 L 4,10 z"
     id="path2841" />
  <path
     style="fill:#000000;fill-opacity:1;stroke:none"
     d="M 6.46875 11.75 L 5.75 12.46875 L 8.59375 15.28125 L 9.28125 14.59375 L 6.46875 11.75 z "
     id="rect2849" />
  <path
     id="path2881"
     d="m 15.000028,13 0,-5 -1.000055,0 0,4 -4.000225,0 0,1 5.00028,0 z"
     style="fill:#000000;fill-opacity:1;stroke:none" />
  <path
     style="fill:#000000;fill-opacity:1;stroke:none"
     d="M 10.40625 7.71875 L 9.71875 8.40625 L 12.53125 11.25 L 13.25 10.53125 L 10.40625 7.71875 z "
     id="path2883" />
  <path
     id="path2842"
     d="m 18.999972,10 0,5 1.000056,0 0,-4 4.000225,0 0,-1 -5.000281,0 z"
     style="fill:#000000;fill-opacity:1;stroke:none" />
  <path
     style="fill:#000000;fill-opacity:1;stroke:none"
     d="M 21.46875 11.75 L 20.75 12.46875 L 23.59375 15.28125 L 24.28125 14.59375 L 21.46875 11.75 z "
     id="path2844" />
  <path
     style="fill:#000000;fill-opacity:1;stroke:none"
     d="m 30,13 0,-5 -1.000056,0 0,4 -4.000225,0 0,1 L 30,13 z"
     id="path2848" />
  <path
     style="fill:#000000;fill-opacity:1;stroke:none"
     d="M 25.40625 7.71875 L 24.71875 8.40625 L 27.53125 11.25 L 28.25 10.53125 L 25.40625 7.71875 z "
     id="path2850" />
  <path
     style="fill:#000000;fill-opacity:1;stroke:none"
     d="M 17.5,0 C 7.8350169,0 0,7.8350169 0,17.5 0,27.164983 7.8350169,35 17.5,35 27.164983,35 35,27.164983 35,17.5 35,7.8350169 27.164983,0 17.5,0 z m 0,1.5 c 8.836556,0 16,7.163444 16,16 0,8.836556 -7.163444,16 -16,16 -8.836556,0 -16,-7.163444 -16,-16 0,-8.836556 7.163444,-16 16,-16 z"
     id="path2896" />
</svg>
