<?xml version="1.0" encoding="UTF-8" standalone="no"?>
<!-- Created with Inkscape (http://www.inkscape.org/) -->

<svg
   xmlns:dc="http://purl.org/dc/elements/1.1/"
   xmlns:cc="http://creativecommons.org/ns#"
   xmlns:rdf="http://www.w3.org/1999/02/22-rdf-syntax-ns#"
   xmlns:svg="http://www.w3.org/2000/svg"
   xmlns="http://www.w3.org/2000/svg"
   xmlns:sodipodi="http://sodipodi.sourceforge.net/DTD/sodipodi-0.dtd"
   xmlns:inkscape="http://www.inkscape.org/namespaces/inkscape"
   width="15"
   height="25"
   id="svg2"
   version="1.1"
   inkscape:version="0.47 r22583"
   sodipodi:docname="01-05-008-01-04.svg">
  <defs
     id="defs4">
    <inkscape:perspective
       sodipodi:type="inkscape:persp3d"
       inkscape:vp_x="0 : 526.18109 : 1"
       inkscape:vp_y="0 : 1000 : 0"
       inkscape:vp_z="744.09448 : 526.18109 : 1"
       inkscape:persp3d-origin="372.04724 : 350.78739 : 1"
       id="perspective10" />
  </defs>
  <sodipodi:namedview
     id="namedview2916"
     pagecolor="#ffffff"
     bordercolor="#666666"
     borderopacity="1.0"
     inkscape:pageopacity="0.0"
     inkscape:pageshadow="2"
     inkscape:zoom="15.839192"
     inkscape:cx="5.7111356"
     inkscape:cy="12.996028"
     inkscape:document-units="px"
     inkscape:current-layer="svg2"
     showgrid="true"
     inkscape:snap-grids="true"
     inkscape:window-width="1103"
     inkscape:window-height="795"
     inkscape:window-x="306"
     inkscape:window-y="0"
     inkscape:window-maximized="0">
    <inkscape:grid
       type="xygrid"
       id="grid2816" />
  </sodipodi:namedview>
  <metadata
     id="metadata7">
    <rdf:RDF>
      <cc:Work
         rdf:about="">
        <dc:format>image/svg+xml</dc:format>
        <dc:type
           rdf:resource="http://purl.org/dc/dcmitype/StillImage" />
        <dc:title />
      </cc:Work>
    </rdf:RDF>
  </metadata>
  <g
     inkscape:label="Layer 1"
     inkscape:groupmode="layer"
     id="layer1" />
  <path
     style="fill:#000000;fill-opacity:1;stroke:none"
     d="M 8,25 8,1 c 0,0 7,0 7,7 l 0,9 c 0,8 -7,8 -7,8 z"
     id="base" />
  <path
     style="fill:#ffffff;fill-opacity:1;stroke:none"
     d="M 9,23 9,3 c 0,0 4,0 4,5 l 0,9 c 0,6 -4,6 -4,6 z"
     id="fill" />
  <path
     style="fill:#000000;fill-opacity:1;stroke:none"
     d="M 4,0 C 0,0 0.12626907,3.7867965 0,4 L 2,4 C 2,2 4,2 4,2 L 6,2 6,0 4,0 z"
     id="index"
     sodipodi:nodetypes="ccccccc" />
  <path
     style="fill:#000000;fill-opacity:1;stroke:none"
     d="M 4,5 C 4,5 0,5 0,9 L 2,9 C 2.0834396,8.9006938 2,7 4,7 L 6,7 6,5 4,5 z"
     id="middle"
     sodipodi:nodetypes="ccccccc" />
  <path
     style="fill:#000000;fill-opacity:1;stroke:none"
     d="m 4,10 c 0,0 -4,0 -4,4 l 2,0 c 0.08344,0.01459 0,-2 2,-2 l 2,0 0,-2 -2,0 z"
     id="ring"
     sodipodi:nodetypes="ccccccc" />
  <path
     style="fill:#000000;fill-opacity:1;stroke:none"
     d="m 4,15 c 0,0 -4,0 -4,4 l 2,0 c -0.042829,0.06535 0,-2 2,-2 l 2,0 0,-2 -2,0 z"
     id="baby"
     sodipodi:nodetypes="ccccccc" />
  <path
     style="fill:#000000;fill-opacity:1;stroke:none"
     d="m 0,21 c 0,4 4,4 4,4 l 2,0 0,-2 -2,0 C 2,23 2.0203051,21.148793 2,21 l -2,0 z"
     id="thumb"
     sodipodi:nodetypes="ccccccc" />
</svg>
