<?xml version="1.0" encoding="UTF-8" standalone="no"?>
<svg
   xmlns:dc="http://purl.org/dc/elements/1.1/"
   xmlns:cc="http://creativecommons.org/ns#"
   xmlns:rdf="http://www.w3.org/1999/02/22-rdf-syntax-ns#"
   xmlns:svg="http://www.w3.org/2000/svg"
   xmlns="http://www.w3.org/2000/svg"
   xmlns:sodipodi="http://sodipodi.sourceforge.net/DTD/sodipodi-0.dtd"
   xmlns:inkscape="http://www.inkscape.org/namespaces/inkscape"
   version="1.0"
   width="26"
   height="25"
   id="svg2"
   inkscape:version="0.47 r22583"
   sodipodi:docname="02-10-003-02-02-07.svg">
  <defs
     id="defs16">
    <inkscape:perspective
       sodipodi:type="inkscape:persp3d"
       inkscape:vp_x="0 : 23 : 1"
       inkscape:vp_y="0 : 1000 : 0"
       inkscape:vp_z="36 : 23 : 1"
       inkscape:persp3d-origin="18 : 15.333333 : 1"
       id="perspective18" />
  </defs>
  <sodipodi:namedview
     pagecolor="#ffffff"
     bordercolor="#666666"
     borderopacity="1"
     objecttolerance="10"
     gridtolerance="10"
     guidetolerance="10"
     inkscape:pageopacity="0"
     inkscape:pageshadow="2"
     inkscape:window-width="964"
     inkscape:window-height="721"
     id="namedview14"
     showgrid="true"
     inkscape:zoom="16.47"
     inkscape:cx="13"
     inkscape:cy="12.5"
     inkscape:window-x="365"
     inkscape:window-y="0"
     inkscape:window-maximized="0"
     inkscape:current-layer="svg2"
     showborder="true">
    <inkscape:grid
       type="xygrid"
       id="grid2824"
       empspacing="5"
       visible="true"
       enabled="true"
       snapvisiblegridlinesonly="true" />
  </sodipodi:namedview>
  <metadata
     id="metadata4">
Valerie Sutton's pixel definition of the
ISWA 2010 symbol ID 04-01-003-01-01-01
transformed by Stephen E Slevinski Jr
using line and fill polygon tracing
<rdf:RDF>
  <cc:Work
     rdf:about="">
    <dc:format>image/svg+xml</dc:format>
    <dc:type
       rdf:resource="http://purl.org/dc/dcmitype/StillImage" />
    <dc:title></dc:title>
  </cc:Work>
</rdf:RDF>
</metadata>
  <path
     style="fill:#000000;fill-opacity:1;stroke:none"
     d="M 13,18 13,10.221826 5.2218256,18 13,18 z m -1.016466,-1.016466 -4.331029,0 4.331029,-4.331029 0,4.331029 z"
     id="path3279" />
  <path
     style="fill:#000000;fill-opacity:1;stroke:none"
     d="M 25.020815,23.656855 C 26.973437,21.704233 24.757359,16.322331 20.071068,11.636039 L 13.707107,5.2720782 C 9.41134,0.9763112 4.5043109,-1.0814749 2.7469518,0.6758842 L 1.3327383,2.0900977 C -0.8151452,4.2379812 1.5592232,10.094757 6.636039,15.171573 l 3.579728,-3.579728 C 5.947582,6.9753387 3.3155909,2.9356723 4.1611654,2.0900977 5.1374762,1.1137869 10.361088,4.754486 15.828427,10.221826 c 5.46734,5.467339 9.108039,10.690951 8.131728,11.667262 -0.775788,0.775788 -4.244132,-1.405577 -8.374796,-5.060233 l -3.646019,3.646019 c 4.629612,4.410465 10.417854,5.845602 13.081475,3.181981 z"
     id="path5562" />
  <path
     style="fill:#ffffff;fill-opacity:1;stroke:none"
     d="m 11.983534,16.983534 0,-4.331029 -4.331029,4.331029 4.331029,0 z"
     id="path6281" />
</svg>
