<?xml version="1.0" encoding="UTF-8" standalone="no"?>
<svg
   xmlns:dc="http://purl.org/dc/elements/1.1/"
   xmlns:cc="http://creativecommons.org/ns#"
   xmlns:rdf="http://www.w3.org/1999/02/22-rdf-syntax-ns#"
   xmlns:svg="http://www.w3.org/2000/svg"
   xmlns="http://www.w3.org/2000/svg"
   xmlns:sodipodi="http://sodipodi.sourceforge.net/DTD/sodipodi-0.dtd"
   xmlns:inkscape="http://www.inkscape.org/namespaces/inkscape"
   version="1.0"
   width="25"
   height="26"
   id="svg2"
   inkscape:version="0.47 r22583"
   sodipodi:docname="02-10-003-02-02-16.svg">
  <defs
     id="defs16">
    <inkscape:perspective
       sodipodi:type="inkscape:persp3d"
       inkscape:vp_x="0 : 23 : 1"
       inkscape:vp_y="0 : 1000 : 0"
       inkscape:vp_z="36 : 23 : 1"
       inkscape:persp3d-origin="18 : 15.333333 : 1"
       id="perspective18" />
  </defs>
  <sodipodi:namedview
     pagecolor="#ffffff"
     bordercolor="#666666"
     borderopacity="1"
     objecttolerance="10"
     gridtolerance="10"
     guidetolerance="10"
     inkscape:pageopacity="0"
     inkscape:pageshadow="2"
     inkscape:window-width="964"
     inkscape:window-height="721"
     id="namedview14"
     showgrid="true"
     inkscape:zoom="16.97187"
     inkscape:cx="12.5"
     inkscape:cy="13"
     inkscape:window-x="365"
     inkscape:window-y="0"
     inkscape:window-maximized="0"
     inkscape:current-layer="svg2"
     showborder="true">
    <inkscape:grid
       type="xygrid"
       id="grid2824"
       empspacing="5"
       visible="true"
       enabled="true"
       snapvisiblegridlinesonly="true" />
  </sodipodi:namedview>
  <metadata
     id="metadata4">
Valerie Sutton's pixel definition of the
ISWA 2010 symbol ID 04-01-003-01-01-01
transformed by Stephen E Slevinski Jr
using line and fill polygon tracing
<rdf:RDF>
  <cc:Work
     rdf:about="">
    <dc:format>image/svg+xml</dc:format>
    <dc:type
       rdf:resource="http://purl.org/dc/dcmitype/StillImage" />
    <dc:title></dc:title>
  </cc:Work>
</rdf:RDF>
</metadata>
  <path
     style="fill:#000000;fill-opacity:1;stroke:none"
     d="M 18,13 10.221826,13 18,20.778175 18,13 z m -1.016466,1.016466 0,4.331029 -4.331029,-4.331029 4.331029,0 z"
     id="path3279" />
  <path
     style="fill:#000000;fill-opacity:1;stroke:none"
     d="M 23.656855,0.97918571 C 21.704233,-0.9734363 16.322331,1.2426417 11.636039,5.9289327 L 5.2720782,12.292893 C 0.97631122,16.58866 -1.0814748,21.49569 0.67588422,23.253049 l 1.41421398,1.414213 c 2.147883,2.147884 8.0046588,-0.226485 13.0814748,-5.303301 L 11.591845,15.784233 C 6.9753392,20.052418 2.9356732,22.68441 2.0900982,21.838835 1.1137872,20.862524 4.7544862,15.638912 10.221826,10.171573 15.689165,4.7042337 20.912777,1.0635347 21.889088,2.0398457 c 0.775788,0.775788 -1.405577,4.244132 -5.060233,8.3747953 l 3.646019,3.646019 C 24.885339,9.4310487 26.320476,3.6428067 23.656855,0.97918571 z"
     id="path5562" />
  <path
     style="fill:#ffffff;fill-opacity:1;stroke:none"
     d="m 16.983534,14.016466 -4.331029,0 4.331029,4.331029 0,-4.331029 z"
     id="path6281" />
</svg>
