<?xml version="1.0" encoding="UTF-8" standalone="no"?>
<svg
   xmlns:dc="http://purl.org/dc/elements/1.1/"
   xmlns:cc="http://creativecommons.org/ns#"
   xmlns:rdf="http://www.w3.org/1999/02/22-rdf-syntax-ns#"
   xmlns:svg="http://www.w3.org/2000/svg"
   xmlns="http://www.w3.org/2000/svg"
   xmlns:sodipodi="http://sodipodi.sourceforge.net/DTD/sodipodi-0.dtd"
   xmlns:inkscape="http://www.inkscape.org/namespaces/inkscape"
   version="1.0"
   width="25"
   height="26"
   id="svg2"
   inkscape:version="0.47 r22583"
   sodipodi:docname="02-10-003-02-01-02.svg">
  <defs
     id="defs16">
    <inkscape:perspective
       sodipodi:type="inkscape:persp3d"
       inkscape:vp_x="0 : 23 : 1"
       inkscape:vp_y="0 : 1000 : 0"
       inkscape:vp_z="36 : 23 : 1"
       inkscape:persp3d-origin="18 : 15.333333 : 1"
       id="perspective18" />
  </defs>
  <sodipodi:namedview
     pagecolor="#ffffff"
     bordercolor="#666666"
     borderopacity="1"
     objecttolerance="10"
     gridtolerance="10"
     guidetolerance="10"
     inkscape:pageopacity="0"
     inkscape:pageshadow="2"
     inkscape:window-width="964"
     inkscape:window-height="721"
     id="namedview14"
     showgrid="true"
     inkscape:zoom="16.966174"
     inkscape:cx="12.5"
     inkscape:cy="13"
     inkscape:window-x="365"
     inkscape:window-y="0"
     inkscape:window-maximized="0"
     inkscape:current-layer="svg2"
     showborder="true">
    <inkscape:grid
       type="xygrid"
       id="grid2824"
       empspacing="5"
       visible="true"
       enabled="true"
       snapvisiblegridlinesonly="true" />
  </sodipodi:namedview>
  <metadata
     id="metadata4">
Valerie Sutton's pixel definition of the
ISWA 2010 symbol ID 04-01-003-01-01-01
transformed by Stephen E Slevinski Jr
using line and fill polygon tracing
<rdf:RDF>
  <cc:Work
     rdf:about="">
    <dc:format>image/svg+xml</dc:format>
    <dc:type
       rdf:resource="http://purl.org/dc/dcmitype/StillImage" />
    <dc:title></dc:title>
  </cc:Work>
</rdf:RDF>
</metadata>
  <path
     style="fill:#000000;fill-opacity:1;stroke:none"
     d="M 7 13 L 7 20.78125 L 8.5 19.28125 L 8.5 14.5 L 13.28125 14.5 L 14.78125 13 L 7 13 z "
     id="path3279" />
  <path
     style="fill:#000000;fill-opacity:1;stroke:none"
     d="M 1.343145,0.97918442 C 3.295767,-0.9734366 8.677669,1.2426404 13.363961,5.9289324 l 6.363961,6.3639606 c 4.295767,4.295767 6.353553,9.202796 4.596194,10.960155 l -1.414213,1.414214 c -2.147884,2.147883 -8.00466,-0.226485 -13.081476,-5.303301 l 3.579728,-3.579728 c 4.616507,4.268185 8.656173,6.900176 9.501748,6.054602 0.97631,-0.976311 -2.664389,-6.199922 -8.131729,-11.667262 C 9.310835,4.7042334 4.087223,1.0635344 3.110912,2.0398444 2.335124,2.8156334 4.516489,6.2839774 8.171145,10.414641 L 4.525126,14.06066 C 0.11466099,9.4310484 -1.320477,3.6428064 1.343145,0.97918442 z"
     id="path5562" />
</svg>
