<?xml version="1.0" encoding="UTF-8" standalone="no"?>
<svg
   xmlns:dc="http://purl.org/dc/elements/1.1/"
   xmlns:cc="http://creativecommons.org/ns#"
   xmlns:rdf="http://www.w3.org/1999/02/22-rdf-syntax-ns#"
   xmlns:svg="http://www.w3.org/2000/svg"
   xmlns="http://www.w3.org/2000/svg"
   xmlns:sodipodi="http://sodipodi.sourceforge.net/DTD/sodipodi-0.dtd"
   xmlns:inkscape="http://www.inkscape.org/namespaces/inkscape"
   version="1.0"
   width="25"
   height="27"
   id="svg2"
   inkscape:version="0.47 r22583"
   sodipodi:docname="02-10-003-02-06-02.svg">
  <defs
     id="defs16">
    <inkscape:perspective
       sodipodi:type="inkscape:persp3d"
       inkscape:vp_x="0 : 23 : 1"
       inkscape:vp_y="0 : 1000 : 0"
       inkscape:vp_z="36 : 23 : 1"
       inkscape:persp3d-origin="18 : 15.333333 : 1"
       id="perspective18" />
  </defs>
  <sodipodi:namedview
     pagecolor="#ffffff"
     bordercolor="#666666"
     borderopacity="1"
     objecttolerance="10"
     gridtolerance="10"
     guidetolerance="10"
     inkscape:pageopacity="0"
     inkscape:pageshadow="2"
     inkscape:window-width="964"
     inkscape:window-height="721"
     id="namedview14"
     showgrid="true"
     inkscape:zoom="16.345356"
     inkscape:cx="12.502114"
     inkscape:cy="13.502283"
     inkscape:window-x="365"
     inkscape:window-y="0"
     inkscape:window-maximized="0"
     inkscape:current-layer="svg2"
     showborder="true">
    <inkscape:grid
       type="xygrid"
       id="grid2824"
       empspacing="5"
       visible="true"
       enabled="true"
       snapvisiblegridlinesonly="true" />
  </sodipodi:namedview>
  <metadata
     id="metadata4">
Valerie Sutton's pixel definition of the
ISWA 2010 symbol ID 04-01-003-01-01-01
transformed by Stephen E Slevinski Jr
using line and fill polygon tracing
<rdf:RDF>
  <cc:Work
     rdf:about="">
    <dc:format>image/svg+xml</dc:format>
    <dc:type
       rdf:resource="http://purl.org/dc/dcmitype/StillImage" />
    <dc:title></dc:title>
  </cc:Work>
</rdf:RDF>
</metadata>
  <path
     style="fill:#000000;fill-opacity:1;stroke:none"
     d="m 3.2187501,8 1.5,1.5 4.78125,0 0,4.78125 L 11,15.78125 11,8 3.2187501,8 z"
     id="path3279" />
  <path
     style="fill:#000000;fill-opacity:1;stroke:none"
     d="M 23.727922,1.636039 C 21.7753,-0.316583 16.393398,1.899494 11.707107,6.585786 l -0.353554,0.353553 0.795496,0.795496 c 4.495488,-4.021175 8.470835,-6.378408 9.457553,-5.39169 1.171572,1.171573 -2.310835,6.553476 -7.778175,12.020816 -5.4673399,5.46734 -10.8492419,8.949747 -12.0208149,7.778175 -0.95884099,-0.958841 1.247612,-4.744009 5.060233,-9.081903 l -0.817592,-0.817592 -0.707107,0.707107 c -4.295767,4.295767 -6.353553,9.202796 -4.59619399,10.960155 L 2.1611651,25.324116 C 4.3090491,27.472 9.4587181,24.390525 14.535534,19.313709 l 4.949747,-4.949748 C 24.171573,9.677669 26.461592,4.369708 23.727922,1.636039 z"
     id="path5562" />
</svg>
