<?xml version="1.0" encoding="UTF-8" standalone="no"?>
<svg
   xmlns:dc="http://purl.org/dc/elements/1.1/"
   xmlns:cc="http://creativecommons.org/ns#"
   xmlns:rdf="http://www.w3.org/1999/02/22-rdf-syntax-ns#"
   xmlns:svg="http://www.w3.org/2000/svg"
   xmlns="http://www.w3.org/2000/svg"
   xmlns:sodipodi="http://sodipodi.sourceforge.net/DTD/sodipodi-0.dtd"
   xmlns:inkscape="http://www.inkscape.org/namespaces/inkscape"
   version="1.0"
   width="74"
   height="9"
   id="svg2"
   inkscape:version="0.47 r22583"
   sodipodi:docname="07-01-001-02-03-05.svg">
  <defs
     id="defs14">
    <inkscape:perspective
       sodipodi:type="inkscape:persp3d"
       inkscape:vp_x="0 : 5.5 : 1"
       inkscape:vp_y="0 : 1000 : 0"
       inkscape:vp_z="10 : 5.5 : 1"
       inkscape:persp3d-origin="5 : 3.6666667 : 1"
       id="perspective16" />
  </defs>
  <sodipodi:namedview
     pagecolor="#ffffff"
     bordercolor="#666666"
     borderopacity="1"
     objecttolerance="10"
     gridtolerance="10"
     guidetolerance="10"
     inkscape:pageopacity="0"
     inkscape:pageshadow="2"
     inkscape:window-width="917"
     inkscape:window-height="792"
     id="namedview12"
     showgrid="true"
     inkscape:zoom="11.027027"
     inkscape:cx="37"
     inkscape:cy="4.5"
     inkscape:window-x="313"
     inkscape:window-y="0"
     inkscape:window-maximized="0"
     inkscape:current-layer="svg2"
     showborder="true"
     inkscape:showpageshadow="true">
    <inkscape:grid
       type="xygrid"
       id="grid2822"
       empspacing="5"
       visible="true"
       enabled="true"
       snapvisiblegridlinesonly="true" />
  </sodipodi:namedview>
  <metadata
     id="metadata4">
Valerie Sutton's pixel definition of the
ISWA 2010 symbol ID 02-01-001-01-01-01
transformed by Stephen E Slevinski Jr
using line and fill polygon tracing
<rdf:RDF>
  <cc:Work
     rdf:about="">
    <dc:format>image/svg+xml</dc:format>
    <dc:type
       rdf:resource="http://purl.org/dc/dcmitype/StillImage" />
    <dc:title></dc:title>
  </cc:Work>
</rdf:RDF>
</metadata>
  <path
     style="fill:#000000;fill-opacity:1;stroke:none"
     d="M 74,1 74,9 0,9 0,1 26,1 26,7 47,7 47,1 74,1 z"
     id="path3003" />
  <path
     style="fill:#ffffff;fill-opacity:1;stroke:none"
     d="M 26,1 26,7 47,7 47,1 26,1 z"
     id="rect2815" />
  <path
     style="fill:#000000;fill-opacity:1;stroke:none"
     d="M 34.5,0 C 31,0 31,4 31,4 l 2,0 C 33,4 33,2 34.5,2 36,2 36,4 38.5,4 42,4 42,0 42,0 L 40,0 C 40,0 40,2 38.5,2 37,2 37,0 34.5,0 z"
     id="path2998" />
</svg>
