<?xml version="1.0" encoding="UTF-8" standalone="no"?>
<svg
   xmlns:dc="http://purl.org/dc/elements/1.1/"
   xmlns:cc="http://creativecommons.org/ns#"
   xmlns:rdf="http://www.w3.org/1999/02/22-rdf-syntax-ns#"
   xmlns:svg="http://www.w3.org/2000/svg"
   xmlns="http://www.w3.org/2000/svg"
   xmlns:sodipodi="http://sodipodi.sourceforge.net/DTD/sodipodi-0.dtd"
   xmlns:inkscape="http://www.inkscape.org/namespaces/inkscape"
   version="1.0"
   width="21"
   height="9"
   id="svg2"
   inkscape:version="0.47 r22583"
   sodipodi:docname="04-02-005-02-04-01.svg">
  <defs
     id="defs14">
    <inkscape:perspective
       sodipodi:type="inkscape:persp3d"
       inkscape:vp_x="0 : 2 : 1"
       inkscape:vp_y="0 : 1000 : 0"
       inkscape:vp_z="8 : 2 : 1"
       inkscape:persp3d-origin="4 : 1.3333333 : 1"
       id="perspective16" />
  </defs>
  <sodipodi:namedview
     pagecolor="#ffffff"
     bordercolor="#666666"
     borderopacity="1"
     objecttolerance="10"
     gridtolerance="10"
     guidetolerance="10"
     inkscape:pageopacity="0"
     inkscape:pageshadow="2"
     inkscape:window-width="1035"
     inkscape:window-height="791"
     id="namedview12"
     showgrid="true"
     inkscape:zoom="15.81"
     inkscape:cx="9.9137569"
     inkscape:cy="2.3197343"
     inkscape:window-x="208"
     inkscape:window-y="0"
     inkscape:window-maximized="0"
     inkscape:current-layer="svg2"
     showguides="true"
     inkscape:guide-bbox="true">
    <inkscape:grid
       type="xygrid"
       id="grid2822" />
  </sodipodi:namedview>
  <metadata
     id="metadata4">
Valerie Sutton's pixel definition of the
ISWA 2010 symbol ID 04-02-004-01-05-01
transformed by Stephen E Slevinski Jr
using line and fill polygon tracing
<rdf:RDF>
  <cc:Work
     rdf:about="">
    <dc:format>image/svg+xml</dc:format>
    <dc:type
       rdf:resource="http://purl.org/dc/dcmitype/StillImage" />
    <dc:title />
  </cc:Work>
</rdf:RDF>
</metadata>
  <path
     style="fill:#000000;fill-opacity:1;stroke:none"
     d="M 4.5 0 C 2.0147186 0 0 2.014719 0 4.5 C 0 6.985281 2.0147186 9 4.5 9 C 6.985281 9 9 6.985281 9 4.5 C 9 2.014719 6.985281 0 4.5 0 z M 4.5 1.5 C 6.1568542 1.5 7.5 2.8431458 7.5 4.5 C 7.5 6.1568542 6.1568542 7.5 4.5 7.5 C 2.8431458 7.5 1.5 6.1568542 1.5 4.5 C 1.5 2.8431458 2.8431458 1.5 4.5 1.5 z "
     id="path4021" />
  <path
     style="fill:#000000;fill-opacity:1;stroke:none"
     d="M 16.5,0 C 14.014719,0 12,2.014719 12,4.5 12,6.985281 14.014719,9 16.5,9 18.985281,9 21,6.985281 21,4.5 21,2.014719 18.985281,0 16.5,0 z m 0,1.5 c 1.656854,0 3,1.3431458 3,3 0,1.6568542 -1.343146,3 -3,3 -1.656854,0 -3,-1.3431458 -3,-3 0,-1.6568542 1.343146,-3 3,-3 z"
     id="path4026" />
</svg>
