<?xml version="1.0" encoding="UTF-8" standalone="no"?>
<svg
   xmlns:dc="http://purl.org/dc/elements/1.1/"
   xmlns:cc="http://creativecommons.org/ns#"
   xmlns:rdf="http://www.w3.org/1999/02/22-rdf-syntax-ns#"
   xmlns:svg="http://www.w3.org/2000/svg"
   xmlns="http://www.w3.org/2000/svg"
   xmlns:sodipodi="http://sodipodi.sourceforge.net/DTD/sodipodi-0.dtd"
   xmlns:inkscape="http://www.inkscape.org/namespaces/inkscape"
   version="1.0"
   width="11"
   height="16"
   id="svg2"
   inkscape:version="0.47 r22583"
   sodipodi:docname="04-03-006-01-02-03.svg">
  <defs
     id="defs14">
    <inkscape:perspective
       sodipodi:type="inkscape:persp3d"
       inkscape:vp_x="0 : 17.5 : 1"
       inkscape:vp_y="0 : 1000 : 0"
       inkscape:vp_z="36 : 17.5 : 1"
       inkscape:persp3d-origin="18 : 11.666667 : 1"
       id="perspective16" />
  </defs>
  <sodipodi:namedview
     pagecolor="#ffffff"
     bordercolor="#666666"
     borderopacity="1"
     objecttolerance="10"
     gridtolerance="10"
     guidetolerance="10"
     inkscape:pageopacity="0"
     inkscape:pageshadow="2"
     inkscape:window-width="993"
     inkscape:window-height="789"
     id="namedview12"
     showgrid="true"
     inkscape:zoom="15.487095"
     inkscape:cx="7.6517287"
     inkscape:cy="6.583407"
     inkscape:window-x="209"
     inkscape:window-y="0"
     inkscape:window-maximized="0"
     inkscape:current-layer="svg2"
     showguides="true"
     inkscape:guide-bbox="true">
    <inkscape:grid
       type="xygrid"
       id="grid2822" />
  </sodipodi:namedview>
  <metadata
     id="metadata4">
Valerie Sutton's pixel definition of the
ISWA 2010 symbol ID 04-03-001-01-01-01
transformed by Stephen E Slevinski Jr
using line and fill polygon tracing
<rdf:RDF>
  <cc:Work
     rdf:about="">
    <dc:format>image/svg+xml</dc:format>
    <dc:type
       rdf:resource="http://purl.org/dc/dcmitype/StillImage" />
    <dc:title></dc:title>
  </cc:Work>
</rdf:RDF>
</metadata>
  <path
     style="fill:#000000;fill-opacity:1;stroke:none"
     d="m 11,7 -2,0 0,1.9999999 2,0 L 11,7 z m -4,-1e-7 -2,0 0,2 2,0 0,-2 z m -4,0 -2,0 0,2 2,0 0,-2 z"
     id="rect3199" />
  <path
     style="fill:#000000;fill-opacity:1;stroke:none"
     d="M 10.628008,13.46319 8.7263419,12.95364 8.2087037,14.885492 10.11037,15.395042 10.628008,13.46319 z M 6.7944901,12.436002 4.8626385,11.918364 4.3450004,13.850216 6.276852,14.367854 6.7944901,12.436002 z M 2.930787,11.400726 0.96875,10.875 0.451112,12.806852 2.413149,13.332578 2.930787,11.400726 z"
     id="rect3201" />
  <path
     style="fill:#000000;fill-opacity:1;stroke:none"
     d="M 10.11037,0.6049579 8.2087037,1.1145079 8.7263419,3.0463594 10.628008,2.5368094 10.11037,0.6049579 z M 6.276852,1.6321459 4.3450004,2.149784 4.8626385,4.0816356 6.7944901,3.5639976 6.276852,1.6321459 z M 2.413149,2.6674221 0.451112,3.1931482 0.96875,5.125 2.930787,4.5992737 2.413149,2.6674221 z"
     id="rect3203" />
</svg>
