<?xml version="1.0" encoding="UTF-8" standalone="no"?>
<svg
   xmlns:dc="http://purl.org/dc/elements/1.1/"
   xmlns:cc="http://creativecommons.org/ns#"
   xmlns:rdf="http://www.w3.org/1999/02/22-rdf-syntax-ns#"
   xmlns:svg="http://www.w3.org/2000/svg"
   xmlns="http://www.w3.org/2000/svg"
   xmlns:sodipodi="http://sodipodi.sourceforge.net/DTD/sodipodi-0.dtd"
   xmlns:inkscape="http://www.inkscape.org/namespaces/inkscape"
   version="1.0"
   width="19"
   height="19"
   id="svg2"
   inkscape:version="0.47 r22583"
   sodipodi:docname="04-03-006-01-06-01.svg">
  <defs
     id="defs14">
    <inkscape:perspective
       sodipodi:type="inkscape:persp3d"
       inkscape:vp_x="0 : 17.5 : 1"
       inkscape:vp_y="0 : 1000 : 0"
       inkscape:vp_z="36 : 17.5 : 1"
       inkscape:persp3d-origin="18 : 11.666667 : 1"
       id="perspective16" />
  </defs>
  <sodipodi:namedview
     pagecolor="#ffffff"
     bordercolor="#666666"
     borderopacity="1"
     objecttolerance="10"
     gridtolerance="10"
     guidetolerance="10"
     inkscape:pageopacity="0"
     inkscape:pageshadow="2"
     inkscape:window-width="993"
     inkscape:window-height="789"
     id="namedview12"
     showgrid="true"
     inkscape:zoom="15.487095"
     inkscape:cx="7.6517287"
     inkscape:cy="6.583407"
     inkscape:window-x="209"
     inkscape:window-y="0"
     inkscape:window-maximized="0"
     inkscape:current-layer="svg2"
     showguides="true"
     inkscape:guide-bbox="true">
    <inkscape:grid
       type="xygrid"
       id="grid2822" />
  </sodipodi:namedview>
  <metadata
     id="metadata4">
Valerie Sutton's pixel definition of the
ISWA 2010 symbol ID 04-03-001-01-01-01
transformed by Stephen E Slevinski Jr
using line and fill polygon tracing
<rdf:RDF>
  <cc:Work
     rdf:about="">
    <dc:format>image/svg+xml</dc:format>
    <dc:type
       rdf:resource="http://purl.org/dc/dcmitype/StillImage" />
    <dc:title></dc:title>
  </cc:Work>
</rdf:RDF>
</metadata>
  <path
     style="fill:#000000;fill-opacity:1;stroke:none"
     d="m 14.439544,3.146265 1.414213,1.414213 -2.12132,2.121321 -1.414214,-1.414214 2.121321,-2.12132 z m -3.535534,3.535534 1.414213,1.414213 -2.12132,2.12132 -1.414213,-1.414213 2.12132,-2.12132 z m -3.535534,3.535533 1.414214,1.414214 -2.121321,2.12132 -1.414213,-1.414213 2.12132,-2.121321 z"
     id="rect2815" />
  <path
     style="fill:#000000;fill-opacity:1;stroke:none"
     d="m 12.02533,0 1,1.732051 L 10.427254,3.232052 9.427254,1.5 12.02533,0 z M 7.695203,2.5 8.695204,4.232051 6.097127,5.732052 5.097127,4 7.695203,2.5 z M 3.365076,5 4.365077,6.732051 1.767,8.232052 0.767,6.500001 3.365076,5 z"
     id="rect2817" />
  <path
     style="fill:#000000;fill-opacity:1;stroke:none"
     d="m 17.267971,5.974692 1.732051,1 -1.5,2.5980763 L 15.76797,8.572768 17.267971,5.974692 z m -2.5,4.330126 1.732051,1.000001 -1.5,2.598076 -1.732051,-1 1.5,-2.598077 z m -2.5,4.330127 1.732051,1.000001 -1.500001,2.598076 -1.73205,-1 1.5,-2.598077 z"
     id="rect2819" />
</svg>
