<?xml version="1.0" encoding="UTF-8" standalone="no"?>
<svg
   xmlns:dc="http://purl.org/dc/elements/1.1/"
   xmlns:cc="http://creativecommons.org/ns#"
   xmlns:rdf="http://www.w3.org/1999/02/22-rdf-syntax-ns#"
   xmlns:svg="http://www.w3.org/2000/svg"
   xmlns="http://www.w3.org/2000/svg"
   xmlns:sodipodi="http://sodipodi.sourceforge.net/DTD/sodipodi-0.dtd"
   xmlns:inkscape="http://www.inkscape.org/namespaces/inkscape"
   version="1.0"
   width="17"
   height="36"
   id="svg2"
   inkscape:version="0.47 r22583"
   sodipodi:docname="02-06-001-03-03-01.svg">
  <defs
     id="defs16">
    <inkscape:perspective
       sodipodi:type="inkscape:persp3d"
       inkscape:vp_x="0 : 23 : 1"
       inkscape:vp_y="0 : 1000 : 0"
       inkscape:vp_z="36 : 23 : 1"
       inkscape:persp3d-origin="18 : 15.333333 : 1"
       id="perspective18" />
  </defs>
  <sodipodi:namedview
     pagecolor="#ffffff"
     bordercolor="#666666"
     borderopacity="1"
     objecttolerance="10"
     gridtolerance="10"
     guidetolerance="10"
     inkscape:pageopacity="0"
     inkscape:pageshadow="2"
     inkscape:window-width="964"
     inkscape:window-height="721"
     id="namedview14"
     showgrid="true"
     inkscape:zoom="13.138889"
     inkscape:cx="8.5"
     inkscape:cy="18"
     inkscape:window-x="365"
     inkscape:window-y="0"
     inkscape:window-maximized="0"
     inkscape:current-layer="svg2"
     showborder="true">
    <inkscape:grid
       type="xygrid"
       id="grid2824"
       empspacing="5"
       visible="true"
       enabled="true"
       snapvisiblegridlinesonly="true" />
  </sodipodi:namedview>
  <metadata
     id="metadata4">
Valerie Sutton's pixel definition of the
ISWA 2010 symbol ID 04-01-003-01-01-01
transformed by Stephen E Slevinski Jr
using line and fill polygon tracing
<rdf:RDF>
  <cc:Work
     rdf:about="">
    <dc:format>image/svg+xml</dc:format>
    <dc:type
       rdf:resource="http://purl.org/dc/dcmitype/StillImage" />
    <dc:title></dc:title>
  </cc:Work>
</rdf:RDF>
</metadata>
  <path
     style="fill:#000000;fill-opacity:1;stroke:none"
     d="M 8.46875 3.53125 L 7.40625 4.59375 L 11.40625 8.59375 C 13.939752 11.127252 15.5 14.634007 15.5 18.5 C 15.5 22.365993 13.939752 25.872748 11.40625 28.40625 L 4.875 34.9375 L 5.9375 36 L 12.46875 29.46875 C 15.273698 26.663802 17 22.780207 17 18.5 C 17 14.219793 15.273698 10.336198 12.46875 7.53125 L 8.46875 3.53125 z "
     id="path3863" />
  <path
     style="fill:#000000;fill-opacity:1;stroke:none"
     d="M 4.59375 7.40625 L 3.53125 8.46875 L 7.5 12.5 C 9.0381975 14.038198 10 16.15279 10 18.5 C 10 20.84721 9.0381975 22.961803 7.5 24.5 L 1 31.0625 L 2.0625 32.125 L 8.5625 25.5625 C 10.372144 23.752856 11.5 21.261423 11.5 18.5 C 11.5 15.738576 10.372144 13.247144 8.5625 11.4375 L 4.59375 7.40625 z "
     id="rect3749" />
  <path
     style="fill:#000000;fill-opacity:1;stroke:none"
     d="M 0 0 L 0 12 L 12 0 L 0 0 z M 1 1 L 9.59375 1 L 1 9.5625 L 1 1 z "
     id="path3757" />
  <path
     style="fill:#ffffff;fill-opacity:1;stroke:none"
     d="M 7.40625 4.59375 L 4.59375 7.40625 L 8.5625 11.4375 C 10.372144 13.247144 11.5 15.738576 11.5 18.5 C 11.5 21.261423 10.372144 23.752856 8.5625 25.5625 L 2.0625 32.125 L 4.875 34.9375 L 11.40625 28.40625 C 13.939752 25.872748 15.5 22.365993 15.5 18.5 C 15.5 14.634007 13.939752 11.127252 11.40625 8.59375 L 7.40625 4.59375 z "
     id="path3815" />
  <path
     style="fill:#ffffff;fill-opacity:1;stroke:none"
     d="M 1 1 L 1 9.5625 L 9.59375 1 L 1 1 z "
     id="path3933" />
</svg>
