<?xml version="1.0" encoding="UTF-8" standalone="no"?>
<svg
   xmlns:dc="http://purl.org/dc/elements/1.1/"
   xmlns:cc="http://creativecommons.org/ns#"
   xmlns:rdf="http://www.w3.org/1999/02/22-rdf-syntax-ns#"
   xmlns:svg="http://www.w3.org/2000/svg"
   xmlns="http://www.w3.org/2000/svg"
   xmlns:sodipodi="http://sodipodi.sourceforge.net/DTD/sodipodi-0.dtd"
   xmlns:inkscape="http://www.inkscape.org/namespaces/inkscape"
   version="1.0"
   width="16"
   height="33"
   id="svg2"
   inkscape:version="0.47 r22583"
   sodipodi:docname="02-06-001-03-03-01.svg">
  <defs
     id="defs16">
    <inkscape:perspective
       sodipodi:type="inkscape:persp3d"
       inkscape:vp_x="0 : 23 : 1"
       inkscape:vp_y="0 : 1000 : 0"
       inkscape:vp_z="36 : 23 : 1"
       inkscape:persp3d-origin="18 : 15.333333 : 1"
       id="perspective18" />
  </defs>
  <sodipodi:namedview
     pagecolor="#ffffff"
     bordercolor="#666666"
     borderopacity="1"
     objecttolerance="10"
     gridtolerance="10"
     guidetolerance="10"
     inkscape:pageopacity="0"
     inkscape:pageshadow="2"
     inkscape:window-width="964"
     inkscape:window-height="721"
     id="namedview14"
     showgrid="true"
     inkscape:zoom="14.333333"
     inkscape:cx="8"
     inkscape:cy="16.5"
     inkscape:window-x="365"
     inkscape:window-y="0"
     inkscape:window-maximized="0"
     inkscape:current-layer="svg2"
     showborder="true">
    <inkscape:grid
       type="xygrid"
       id="grid2824"
       empspacing="5"
       visible="true"
       enabled="true"
       snapvisiblegridlinesonly="true" />
  </sodipodi:namedview>
  <metadata
     id="metadata4">
Valerie Sutton's pixel definition of the
ISWA 2010 symbol ID 04-01-003-01-01-01
transformed by Stephen E Slevinski Jr
using line and fill polygon tracing
<rdf:RDF>
  <cc:Work
     rdf:about="">
    <dc:format>image/svg+xml</dc:format>
    <dc:type
       rdf:resource="http://purl.org/dc/dcmitype/StillImage" />
    <dc:title></dc:title>
  </cc:Work>
</rdf:RDF>
</metadata>
  <path
     style="fill:#000000;fill-opacity:1;stroke:none"
     d="m 7.46875,0.53125 -1.0625,1.0625 4,4 C 12.939752,8.127252 14.5,11.634007 14.5,15.5 c 0,3.865993 -1.560248,7.372748 -4.09375,9.90625 L 3.875,31.9375 4.9375,33 11.46875,26.46875 C 14.273698,23.663802 16,19.780207 16,15.5 16,11.219793 14.273698,7.336198 11.46875,4.53125 l -4,-4 z"
     id="path3863" />
  <path
     style="fill:#000000;fill-opacity:1;stroke:none"
     d="M 3.59375,4.40625 2.53125,5.46875 6.5,9.5 c 1.5381975,1.538198 2.5,3.65279 2.5,6 0,2.34721 -0.9618025,4.461803 -2.5,6 l -6.5,6.5625 1.0625,1.0625 6.5,-6.5625 C 9.372144,20.752856 10.5,18.261423 10.5,15.5 10.5,12.738576 9.372144,10.247144 7.5625,8.4375 L 3.59375,4.40625 z"
     id="rect3749" />
  <path
     style="fill:#ffffff;fill-opacity:1;stroke:none"
     d="M 6.40625,1.59375 3.59375,4.40625 7.5625,8.4375 C 9.372144,10.247144 10.5,12.738576 10.5,15.5 c 0,2.761423 -1.127856,5.252856 -2.9375,7.0625 l -6.5,6.5625 2.8125,2.8125 6.53125,-6.53125 C 12.939752,22.872748 14.5,19.365993 14.5,15.5 14.5,11.634007 12.939752,8.127252 10.40625,5.59375 l -4,-4 z"
     id="path3815" />
</svg>
