<?xml version="1.0" encoding="UTF-8" standalone="no"?>
<svg
   xmlns:dc="http://purl.org/dc/elements/1.1/"
   xmlns:cc="http://creativecommons.org/ns#"
   xmlns:rdf="http://www.w3.org/1999/02/22-rdf-syntax-ns#"
   xmlns:svg="http://www.w3.org/2000/svg"
   xmlns="http://www.w3.org/2000/svg"
   xmlns:sodipodi="http://sodipodi.sourceforge.net/DTD/sodipodi-0.dtd"
   xmlns:inkscape="http://www.inkscape.org/namespaces/inkscape"
   version="1.0"
   width="17"
   height="36"
   id="svg2"
   inkscape:version="0.47 r22583"
   sodipodi:docname="02-06-001-03-01-01.svg">
  <defs
     id="defs16">
    <inkscape:perspective
       sodipodi:type="inkscape:persp3d"
       inkscape:vp_x="0 : 23 : 1"
       inkscape:vp_y="0 : 1000 : 0"
       inkscape:vp_z="36 : 23 : 1"
       inkscape:persp3d-origin="18 : 15.333333 : 1"
       id="perspective18" />
  </defs>
  <sodipodi:namedview
     pagecolor="#ffffff"
     bordercolor="#666666"
     borderopacity="1"
     objecttolerance="10"
     gridtolerance="10"
     guidetolerance="10"
     inkscape:pageopacity="0"
     inkscape:pageshadow="2"
     inkscape:window-width="964"
     inkscape:window-height="721"
     id="namedview14"
     showgrid="true"
     inkscape:zoom="13.138889"
     inkscape:cx="8.5"
     inkscape:cy="18"
     inkscape:window-x="365"
     inkscape:window-y="0"
     inkscape:window-maximized="0"
     inkscape:current-layer="svg2"
     showborder="true">
    <inkscape:grid
       type="xygrid"
       id="grid2824"
       empspacing="5"
       visible="true"
       enabled="true"
       snapvisiblegridlinesonly="true" />
  </sodipodi:namedview>
  <metadata
     id="metadata4">
Valerie Sutton's pixel definition of the
ISWA 2010 symbol ID 04-01-003-01-01-01
transformed by Stephen E Slevinski Jr
using line and fill polygon tracing
<rdf:RDF>
  <cc:Work
     rdf:about="">
    <dc:format>image/svg+xml</dc:format>
    <dc:type
       rdf:resource="http://purl.org/dc/dcmitype/StillImage" />
    <dc:title />
  </cc:Work>
</rdf:RDF>
</metadata>
  <path
     style="fill:#000000;fill-opacity:1;stroke:none"
     d="m 8.46875,3.53125 -1.0625,1.0625 4,4 C 13.939752,11.127252 15.5,14.634007 15.5,18.5 c 0,3.865993 -1.560248,7.372748 -4.09375,9.90625 L 4.875,34.9375 5.9375,36 12.46875,29.46875 C 15.273698,26.663802 17,22.780207 17,18.5 17,14.219793 15.273698,10.336198 12.46875,7.53125 l -4,-4 z"
     id="path3863" />
  <path
     style="fill:#000000;fill-opacity:1;stroke:none"
     d="M 4.59375,7.40625 3.53125,8.46875 7.5,12.5 c 1.5381975,1.538198 2.5,3.65279 2.5,6 0,2.34721 -0.9618025,4.461803 -2.5,6 l -6.5,6.5625 1.0625,1.0625 6.5,-6.5625 C 10.372144,23.752856 11.5,21.261423 11.5,18.5 11.5,15.738576 10.372144,13.247144 8.5625,11.4375 L 4.59375,7.40625 z"
     id="rect3749" />
  <path
     style="fill:#000000;fill-opacity:1;stroke:none"
     d="M 0,0 0,12 12,0 0,0 z"
     id="path3757" />
  <path
     style="fill:#ffffff;fill-opacity:1;stroke:none"
     d="M 7.40625,4.59375 4.59375,7.40625 8.5625,11.4375 C 10.372144,13.247144 11.5,15.738576 11.5,18.5 c 0,2.761423 -1.127856,5.252856 -2.9375,7.0625 l -6.5,6.5625 2.8125,2.8125 6.53125,-6.53125 C 13.939752,25.872748 15.5,22.365993 15.5,18.5 c 0,-3.865993 -1.560248,-7.372748 -4.09375,-9.90625 l -4,-4 z"
     id="path3815" />
</svg>
