<?xml version="1.0" encoding="UTF-8" standalone="no"?>
<svg
   xmlns:dc="http://purl.org/dc/elements/1.1/"
   xmlns:cc="http://creativecommons.org/ns#"
   xmlns:rdf="http://www.w3.org/1999/02/22-rdf-syntax-ns#"
   xmlns:svg="http://www.w3.org/2000/svg"
   xmlns="http://www.w3.org/2000/svg"
   xmlns:sodipodi="http://sodipodi.sourceforge.net/DTD/sodipodi-0.dtd"
   xmlns:inkscape="http://www.inkscape.org/namespaces/inkscape"
   version="1.0"
   width="21"
   height="22"
   id="svg2"
   inkscape:version="0.47 r22583"
   sodipodi:docname="02-10-005-01-02-01.svg">
  <defs
     id="defs16">
    <inkscape:perspective
       sodipodi:type="inkscape:persp3d"
       inkscape:vp_x="0 : 23 : 1"
       inkscape:vp_y="0 : 1000 : 0"
       inkscape:vp_z="36 : 23 : 1"
       inkscape:persp3d-origin="18 : 15.333333 : 1"
       id="perspective18" />
  </defs>
  <sodipodi:namedview
     pagecolor="#ffffff"
     bordercolor="#666666"
     borderopacity="1"
     objecttolerance="10"
     gridtolerance="10"
     guidetolerance="10"
     inkscape:pageopacity="0"
     inkscape:pageshadow="2"
     inkscape:window-width="964"
     inkscape:window-height="721"
     id="namedview14"
     showgrid="true"
     inkscape:zoom="16.300086"
     inkscape:cx="10.5"
     inkscape:cy="11"
     inkscape:window-x="365"
     inkscape:window-y="0"
     inkscape:window-maximized="0"
     inkscape:current-layer="svg2"
     showborder="true">
    <inkscape:grid
       type="xygrid"
       id="grid2824"
       empspacing="5"
       visible="true"
       enabled="true"
       snapvisiblegridlinesonly="true" />
  </sodipodi:namedview>
  <metadata
     id="metadata4">
Valerie Sutton's pixel definition of the
ISWA 2010 symbol ID 04-01-003-01-01-01
transformed by Stephen E Slevinski Jr
using line and fill polygon tracing
<rdf:RDF>
  <cc:Work
     rdf:about="">
    <dc:format>image/svg+xml</dc:format>
    <dc:type
       rdf:resource="http://purl.org/dc/dcmitype/StillImage" />
    <dc:title></dc:title>
  </cc:Work>
</rdf:RDF>
</metadata>
  <path
     style="fill:#000000;fill-opacity:1;stroke:none"
     d="M 11,0 5.5,5.5 11,11 11,0 z M 10,2.4375 10,8.5625 6.9375,5.5 10,2.4375 z"
     id="path2816" />
  <path
     style="fill:#000000;fill-opacity:1;stroke:none"
     d="m 10,10 c -3.3137085,0 -6,2.686292 -6,6 0,3.313708 2.6862915,6 6,6 3.313709,0 6,-2.686292 6,-6 0,-3.313708 -2.686291,-6 -6,-6 z m 0,1.5 c 2.485281,0 4.5,2.014719 4.5,4.5 0,2.485281 -2.014719,4.5 -4.5,4.5 -2.4852814,0 -4.5,-2.014719 -4.5,-4.5 0,-2.485281 2.0147186,-4.5 4.5,-4.5 z"
     id="path2821" />
  <path
     sodipodi:type="arc"
     style="fill:#ffffff;fill-opacity:1;stroke:none"
     id="path2826"
     sodipodi:cx="5.5"
     sodipodi:cy="17.5"
     sodipodi:rx="4.5"
     sodipodi:ry="4.5"
     d="m 10,17.5 a 4.5,4.5 0 1 1 -9,0 4.5,4.5 0 1 1 9,0 z"
     transform="translate(4.5,-1.5)" />
  <path
     style="fill:#000000;fill-opacity:1;stroke:none"
     d="m 11,3.7499999 0,1 1,0 c 4.418278,3e-7 8,3.5817222 8,8.0000001 l 0,3.25 1,0 0,-3.25 c 0,-4.9705627 -4.029437,-9 -9,-9 l -1,-10e-8 z"
     id="path3108"
     inkscape:transform-center-x="-6"
     inkscape:transform-center-y="-6.1250001" />
  <path
     style="fill:#ffffff;fill-opacity:1;stroke:none"
     d="M 11,4.7499999 11,6.25 l 1,-1e-7 0,0.03125 C 15.46723,6.5261081 18.223892,9.282769 18.46875,12.75 l 0.03125,0 1e-6,3.25 L 20,16 20,12.75 C 20,8.3317226 16.418278,4.7500002 12,4.7499999 l -1,0 z"
     id="path3113"
     inkscape:transform-center-x="-5.4999999"
     inkscape:transform-center-y="-5.6250001" />
  <path
     style="fill:#000000;fill-opacity:1;stroke:none"
     d="m 11,6.25 0,1 0.5,0 c 3.313708,-1e-7 6,2.686291 6,6 l 0,2.75 1.000001,0 -1e-6,-2.75 c 0,-3.865994 -3.134007,-6.9999999 -7,-7 l -0.5,0 z"
     id="path3115"
     inkscape:transform-center-x="-4.7500004"
     inkscape:transform-center-y="-4.875" />
  <path
     style="fill:#ffffff;fill-opacity:1;stroke:none"
     d="M 10,2.4375 6.9375,5.5 10,8.5625 10,2.4375 z"
     id="path2818" />
  <path
     id="path2819"
     d="M 6,0 0.5,5.5 6,11 6,0 z M 5,2.4375 5,8.5625 1.9375,5.5 5,2.4375 z"
     style="fill:#000000;fill-opacity:1;stroke:none" />
  <path
     id="path2822"
     d="M 5,2.4375 1.9375,5.5 5,8.5625 5,2.4375 z"
     style="fill:#ffffff;fill-opacity:1;stroke:none" />
</svg>
