<?xml version="1.0" encoding="UTF-8" standalone="no"?>
<svg
   xmlns:dc="http://purl.org/dc/elements/1.1/"
   xmlns:cc="http://creativecommons.org/ns#"
   xmlns:rdf="http://www.w3.org/1999/02/22-rdf-syntax-ns#"
   xmlns:svg="http://www.w3.org/2000/svg"
   xmlns="http://www.w3.org/2000/svg"
   xmlns:sodipodi="http://sodipodi.sourceforge.net/DTD/sodipodi-0.dtd"
   xmlns:inkscape="http://www.inkscape.org/namespaces/inkscape"
   version="1.0"
   width="19"
   height="47"
   id="svg2"
   inkscape:version="0.47 r22583"
   sodipodi:docname="02-07-011-01-03-04.svg">
  <defs
     id="defs16">
    <inkscape:perspective
       sodipodi:type="inkscape:persp3d"
       inkscape:vp_x="0 : 23 : 1"
       inkscape:vp_y="0 : 1000 : 0"
       inkscape:vp_z="36 : 23 : 1"
       inkscape:persp3d-origin="18 : 15.333333 : 1"
       id="perspective18" />
  </defs>
  <sodipodi:namedview
     pagecolor="#ffffff"
     bordercolor="#666666"
     borderopacity="1"
     objecttolerance="10"
     gridtolerance="10"
     guidetolerance="10"
     inkscape:pageopacity="0"
     inkscape:pageshadow="2"
     inkscape:window-width="964"
     inkscape:window-height="721"
     id="namedview14"
     showgrid="true"
     inkscape:zoom="10.06383"
     inkscape:cx="9.5"
     inkscape:cy="23.5"
     inkscape:window-x="365"
     inkscape:window-y="0"
     inkscape:window-maximized="0"
     inkscape:current-layer="svg2"
     showborder="true">
    <inkscape:grid
       type="xygrid"
       id="grid2824"
       empspacing="5"
       visible="true"
       enabled="true"
       snapvisiblegridlinesonly="true" />
  </sodipodi:namedview>
  <metadata
     id="metadata4">
Valerie Sutton's pixel definition of the
ISWA 2010 symbol ID 04-01-003-01-01-01
transformed by Stephen E Slevinski Jr
using line and fill polygon tracing
<rdf:RDF>
  <cc:Work
     rdf:about="">
    <dc:format>image/svg+xml</dc:format>
    <dc:type
       rdf:resource="http://purl.org/dc/dcmitype/StillImage" />
    <dc:title></dc:title>
  </cc:Work>
</rdf:RDF>
</metadata>
  <path
     style="fill:#000000;fill-opacity:1;stroke:none"
     d="m 2,47 0,-12 2,2 0,8 8,0 2,2 -12,0 z"
     id="path3690" />
  <path
     style="fill:#000000;fill-opacity:1;stroke:none"
     d="m 10.46875,43.46875 -1.0625,-1.0625 4.59375,-4.5 c 2.171573,-2.171573 3.5,-5.186291 3.5,-8.5 l 0,-1.84375 c 0,-3.313709 -1.328427,-6.328427 -3.5,-8.5 l -0.5625,-0.5 C 12.170749,17.295749 10.432997,16.5 8.5,16.5 c -3.865993,0 -7,3.134007 -7,7 0,3.865993 3.134007,7 7,7 1.2731752,0 2.475023,-0.339862 3.5,-0.9375 -0.01488,0.616179 -0.105976,1.219394 -0.28125,1.78125 C 10.725091,31.754894 9.6412094,32 8.5,32 3.80558,32 0,28.19442 0,23.5 0,18.80558 3.80558,15 8.5,15 c 2.34721,0 4.461802,0.961802 6,2.5 l 0.53125,0.53125 c 0.916132,0.916132 1.717691,1.948617 2.34375,3.09375 0.07802,-0.556089 0.125,-1.110399 0.125,-1.6875 l 0,-1.84375 c 0,-3.31371 -1.328427,-6.32843 -3.5,-8.5 L 5.875,1.0625 6.9375,0 15.03125,8.0625 C 17.47427,10.50552 19,13.86583 19,17.59375 l 0,1.84375 C 19,20.859859 18.754171,22.215201 18.34375,23.5 18.754171,24.784799 19,26.14014 19,27.5625 l 0,1.84375 c 0,3.727922 -1.52573,7.08823 -3.96875,9.53125 l -4.5625,4.53125 z"
     id="path4274" />
  <path
     style="fill:#ffffff;fill-opacity:1;stroke:none"
     d="m 9.40625,42.40625 -2.8125,-2.8125 4.5625,-4.53125 C 12.603965,33.614785 13.5,31.615389 13.5,29.40625 l 0,-1.84375 c 0,-2.209139 -0.896035,-4.208535 -2.34375,-5.65625 L 10.625,21.375 C 10.082107,20.832107 9.328427,20.5 8.5,20.5 c -1.656854,0 -3,1.343146 -3,3 0,1.656854 1.343146,3 3,3 0.828427,0 1.582107,-0.332107 2.125,-0.875 l 0.53125,-0.53125 c 0.08944,-0.08944 0.165615,-0.187261 0.25,-0.28125 C 11.796951,25.646604 12,26.580277 12,27.5625 l 0,1.84375 c 0,0.0533 0.0013,0.103262 0,0.15625 C 10.975023,30.160138 9.7731759,30.5 8.5,30.5 c -3.865993,0 -7,-3.134007 -7,-7 0,-3.865993 3.134007,-7 7,-7 1.932996,0 3.670749,0.795749 4.9375,2.0625 l 0.5625,0.5 c 2.171573,2.171573 3.5,5.186291 3.5,8.5 l 0,1.84375 c 0,3.313709 -1.328427,6.328427 -3.5,8.5 l -4.59375,4.5 z M 17.375,21.125 C 16.748941,19.979867 15.947382,18.947382 15.03125,18.03125 L 14.5,17.5 C 14.169149,17.169149 13.818263,16.867434 13.4375,16.59375 13.211045,14.786078 12.381159,13.162413 11.15625,11.9375 L 3.0625,3.875 5.875,1.0625 14,9.09375 c 2.171573,2.17157 3.5,5.18629 3.5,8.5 l 0,1.84375 c 0,0.577101 -0.04698,1.131411 -0.125,1.6875 z"
     id="path4277" />
  <path
     style="fill:#000000;fill-opacity:1;stroke:none"
     d="M 6.59375,39.59375 5.53125,38.53125 10.09375,34 C 11.270019,32.823731 12,31.201175 12,29.40625 l 0,-1.84375 c 0,-0.982223 -0.203049,-1.915896 -0.59375,-2.75 -0.08438,0.09399 -0.160557,0.191806 -0.25,0.28125 L 10.625,25.625 C 10.082107,26.167893 9.328427,26.5 8.5,26.5 c -1.656854,0 -3,-1.343146 -3,-3 0,-1.656854 1.343146,-3 3,-3 0.828427,0 1.582107,0.332107 2.125,0.875 l 0.53125,0.53125 C 12.603965,23.353965 13.5,25.353361 13.5,27.5625 l 0,1.84375 c 0,2.209139 -0.896035,4.208535 -2.34375,5.65625 l -4.5625,4.53125 z M 8.5,25 c 0.414214,0 0.791053,-0.166053 1.0625,-0.4375 l 0.53125,-0.53125 C 10.259451,23.865549 10.414821,23.683008 10.5625,23.5 10.413827,23.315049 10.261368,23.136368 10.09375,22.96875 L 9.5625,22.4375 C 9.291053,22.166053 8.914214,22 8.5,22 7.671573,22 7,22.671573 7,23.5 7,24.328427 7.671573,25 8.5,25 z m 4.9375,-8.40625 C 12.907196,16.212579 12.329992,15.908731 11.71875,15.65625 11.401505,14.639295 10.828918,13.735169 10.09375,13 L 2,4.9375 3.0625,3.875 l 8.09375,8.0625 c 1.224909,1.224913 2.054795,2.848578 2.28125,4.65625 z"
     id="path4280" />
  <path
     style="fill:#000000;fill-opacity:1;stroke:none"
     d="M 14.5,38.5 C 12.014719,38.5 10,36.485281 10,34 c 0,-2.485281 2.014719,-4.5 4.5,-4.5 2.485281,0 4.5,2.014719 4.5,4.5 0,2.485281 -2.014719,4.5 -4.5,4.5 z"
     id="rect2837" />
  <path
     id="path2842"
     d="M 14.5,17.5 C 12.014719,17.5 10,15.485281 10,13 c 0,-2.485281 2.014719,-4.5 4.5,-4.5 2.485281,0 4.5,2.014719 4.5,4.5 0,2.485281 -2.014719,4.5 -4.5,4.5 z"
     style="fill:#000000;fill-opacity:1;stroke:none"
     sodipodi:nodetypes="csssc" />
</svg>
