<?xml version="1.0" encoding="UTF-8" standalone="no"?>
<svg
   xmlns:dc="http://purl.org/dc/elements/1.1/"
   xmlns:cc="http://creativecommons.org/ns#"
   xmlns:rdf="http://www.w3.org/1999/02/22-rdf-syntax-ns#"
   xmlns:svg="http://www.w3.org/2000/svg"
   xmlns="http://www.w3.org/2000/svg"
   xmlns:sodipodi="http://sodipodi.sourceforge.net/DTD/sodipodi-0.dtd"
   xmlns:inkscape="http://www.inkscape.org/namespaces/inkscape"
   version="1.0"
   width="19"
   height="47"
   id="svg2"
   inkscape:version="0.47 r22583"
   sodipodi:docname="02-07-003-01-02-01.svg">
  <defs
     id="defs16">
    <inkscape:perspective
       sodipodi:type="inkscape:persp3d"
       inkscape:vp_x="0 : 23 : 1"
       inkscape:vp_y="0 : 1000 : 0"
       inkscape:vp_z="36 : 23 : 1"
       inkscape:persp3d-origin="18 : 15.333333 : 1"
       id="perspective18" />
  </defs>
  <sodipodi:namedview
     pagecolor="#ffffff"
     bordercolor="#666666"
     borderopacity="1"
     objecttolerance="10"
     gridtolerance="10"
     guidetolerance="10"
     inkscape:pageopacity="0"
     inkscape:pageshadow="2"
     inkscape:window-width="964"
     inkscape:window-height="721"
     id="namedview14"
     showgrid="true"
     inkscape:zoom="10.06383"
     inkscape:cx="9.5"
     inkscape:cy="23.5"
     inkscape:window-x="365"
     inkscape:window-y="0"
     inkscape:window-maximized="0"
     inkscape:current-layer="svg2"
     showborder="true">
    <inkscape:grid
       type="xygrid"
       id="grid2824"
       empspacing="5"
       visible="true"
       enabled="true"
       snapvisiblegridlinesonly="true" />
  </sodipodi:namedview>
  <metadata
     id="metadata4">
Valerie Sutton's pixel definition of the
ISWA 2010 symbol ID 04-01-003-01-01-01
transformed by Stephen E Slevinski Jr
using line and fill polygon tracing
<rdf:RDF>
  <cc:Work
     rdf:about="">
    <dc:format>image/svg+xml</dc:format>
    <dc:type
       rdf:resource="http://purl.org/dc/dcmitype/StillImage" />
    <dc:title></dc:title>
  </cc:Work>
</rdf:RDF>
</metadata>
  <path
     style="fill:#000000;fill-opacity:1;stroke:none"
     d="M 2,0 2,12 14,0 2,0 z M 3,1 11.5625,1 3,9.59375 3,1 z"
     id="path3690" />
  <path
     style="fill:#000000;fill-opacity:1;stroke:none"
     d="m 10.46875,3.53125 -1.0625,1.0625 4.59375,4.5 c 2.171573,2.171573 3.5,5.186291 3.5,8.5 l 0,1.84375 c 0,3.313709 -1.328427,6.328427 -3.5,8.5 l -0.5625,0.5 C 12.170749,29.704251 10.432997,30.5 8.5,30.5 c -3.8659932,0 -7,-3.134007 -7,-7 0,-3.865993 3.1340068,-7 7,-7 1.2731752,0 2.475023,0.339862 3.5,0.9375 C 11.98512,16.821321 11.894024,16.218106 11.71875,15.65625 10.725091,15.245106 9.6412094,15 8.5,15 3.8055796,15 0,18.80558 0,23.5 0,28.19442 3.8055796,32 8.5,32 c 2.34721,0 4.461802,-0.961802 6,-2.5 l 0.53125,-0.53125 c 0.916132,-0.916132 1.717691,-1.948617 2.34375,-3.09375 0.07802,0.556089 0.125,1.110399 0.125,1.6875 l 0,1.84375 c 0,3.31371 -1.328427,6.32843 -3.5,8.5 L 5.875,45.9375 6.9375,47 15.03125,38.9375 C 17.47427,36.49448 19,33.13417 19,29.40625 L 19,27.5625 C 19,26.140141 18.754171,24.784799 18.34375,23.5 18.754171,22.215201 19,20.85986 19,19.4375 l 0,-1.84375 C 19,13.865828 17.47427,10.50552 15.03125,8.0625 l -4.5625,-4.53125 z"
     id="path4274" />
  <path
     style="fill:#ffffff;fill-opacity:1;stroke:none"
     d="m 9.40625,4.59375 -2.8125,2.8125 4.5625,4.53125 C 12.603965,13.385215 13.5,15.384611 13.5,17.59375 l 0,1.84375 c 0,2.209139 -0.896035,4.208535 -2.34375,5.65625 L 10.625,25.625 C 10.082107,26.167893 9.328427,26.5 8.5,26.5 c -1.6568542,0 -3,-1.343146 -3,-3 0,-1.656854 1.3431458,-3 3,-3 0.828427,0 1.582107,0.332107 2.125,0.875 l 0.53125,0.53125 c 0.08944,0.08944 0.165615,0.187261 0.25,0.28125 C 11.796951,21.353396 12,20.419723 12,19.4375 l 0,-1.84375 c 0,-0.0533 0.0013,-0.103262 0,-0.15625 C 10.975023,16.839862 9.7731759,16.5 8.5,16.5 c -3.8659932,0 -7,3.134007 -7,7 0,3.865993 3.1340068,7 7,7 1.932996,0 3.670749,-0.795749 4.9375,-2.0625 L 14,27.9375 c 2.171573,-2.171573 3.5,-5.186291 3.5,-8.5 l 0,-1.84375 c 0,-3.313709 -1.328427,-6.328427 -3.5,-8.5 l -4.59375,-4.5 z M 17.375,25.875 c -0.626059,1.145133 -1.427618,2.177618 -2.34375,3.09375 L 14.5,29.5 c -0.330851,0.330851 -0.681737,0.632566 -1.0625,0.90625 -0.226455,1.807672 -1.056341,3.431337 -2.28125,4.65625 L 3.0625,43.125 5.875,45.9375 14,37.90625 c 2.171573,-2.17157 3.5,-5.18629 3.5,-8.5 l 0,-1.84375 c 0,-0.577101 -0.04698,-1.131411 -0.125,-1.6875 z"
     id="path4277" />
  <path
     style="fill:#000000;fill-opacity:1;stroke:none"
     d="M 6.59375,7.40625 5.53125,8.46875 10.09375,13 C 11.270019,14.176269 12,15.798825 12,17.59375 l 0,1.84375 c 0,0.982223 -0.203049,1.915896 -0.59375,2.75 -0.08438,-0.09399 -0.160557,-0.191806 -0.25,-0.28125 L 10.625,21.375 C 10.082107,20.832107 9.328427,20.5 8.5,20.5 c -1.6568542,0 -3,1.343146 -3,3 0,1.656854 1.3431458,3 3,3 0.828427,0 1.582107,-0.332107 2.125,-0.875 l 0.53125,-0.53125 C 12.603965,23.646035 13.5,21.646639 13.5,19.4375 l 0,-1.84375 c 0,-2.209139 -0.896035,-4.208535 -2.34375,-5.65625 L 6.59375,7.40625 z M 8.5,22 c 0.414214,0 0.791053,0.166053 1.0625,0.4375 l 0.53125,0.53125 c 0.165701,0.165701 0.321071,0.348242 0.46875,0.53125 -0.148673,0.184951 -0.301132,0.363632 -0.46875,0.53125 L 9.5625,24.5625 C 9.291053,24.833947 8.914214,25 8.5,25 7.6715729,25 7,24.328427 7,23.5 7,22.671573 7.6715729,22 8.5,22 z m 4.9375,8.40625 c -0.530304,0.381171 -1.107508,0.685019 -1.71875,0.9375 -0.317245,1.016955 -0.889832,1.921081 -1.625,2.65625 L 2,42.0625 3.0625,43.125 11.15625,35.0625 c 1.224909,-1.224913 2.054795,-2.848578 2.28125,-4.65625 z"
     id="path4280" />
  <path
     style="fill:#ffffff;fill-opacity:1;stroke:none"
     d="M 3,1 3,9.59375 11.5625,1 3,1 z"
     id="path4373" />
  <path
     style="fill:#000000;fill-opacity:1;stroke:none"
     d="m 14.5,8.5 c -2.485281,0 -4.5,2.014719 -4.5,4.5 0,2.485281 2.014719,4.5 4.5,4.5 2.485281,0 4.5,-2.014719 4.5,-4.5 0,-2.485281 -2.014719,-4.5 -4.5,-4.5 z"
     id="path2928" />
  <path
     id="path2930"
     d="m 14.5,29.5 c -2.485281,0 -4.5,2.014719 -4.5,4.5 0,2.485281 2.014719,4.5 4.5,4.5 2.485281,0 4.5,-2.014719 4.5,-4.5 0,-2.485281 -2.014719,-4.5 -4.5,-4.5 z"
     style="fill:#000000;fill-opacity:1;stroke:none" />
</svg>
