<?xml version="1.0" encoding="UTF-8" standalone="no"?>
<svg
   xmlns:dc="http://purl.org/dc/elements/1.1/"
   xmlns:cc="http://creativecommons.org/ns#"
   xmlns:rdf="http://www.w3.org/1999/02/22-rdf-syntax-ns#"
   xmlns:svg="http://www.w3.org/2000/svg"
   xmlns="http://www.w3.org/2000/svg"
   xmlns:sodipodi="http://sodipodi.sourceforge.net/DTD/sodipodi-0.dtd"
   xmlns:inkscape="http://www.inkscape.org/namespaces/inkscape"
   version="1.0"
   width="19"
   height="47"
   id="svg2"
   inkscape:version="0.47 r22583"
   sodipodi:docname="02-07-011-01-02-02.svg">
  <defs
     id="defs16">
    <inkscape:perspective
       sodipodi:type="inkscape:persp3d"
       inkscape:vp_x="0 : 23 : 1"
       inkscape:vp_y="0 : 1000 : 0"
       inkscape:vp_z="36 : 23 : 1"
       inkscape:persp3d-origin="18 : 15.333333 : 1"
       id="perspective18" />
  </defs>
  <sodipodi:namedview
     pagecolor="#ffffff"
     bordercolor="#666666"
     borderopacity="1"
     objecttolerance="10"
     gridtolerance="10"
     guidetolerance="10"
     inkscape:pageopacity="0"
     inkscape:pageshadow="2"
     inkscape:window-width="964"
     inkscape:window-height="721"
     id="namedview14"
     showgrid="true"
     inkscape:zoom="10.06383"
     inkscape:cx="9.5"
     inkscape:cy="23.5"
     inkscape:window-x="365"
     inkscape:window-y="0"
     inkscape:window-maximized="0"
     inkscape:current-layer="svg2"
     showborder="true">
    <inkscape:grid
       type="xygrid"
       id="grid2824"
       empspacing="5"
       visible="true"
       enabled="true"
       snapvisiblegridlinesonly="true" />
  </sodipodi:namedview>
  <metadata
     id="metadata4">
Valerie Sutton's pixel definition of the
ISWA 2010 symbol ID 04-01-003-01-01-01
transformed by Stephen E Slevinski Jr
using line and fill polygon tracing
<rdf:RDF>
  <cc:Work
     rdf:about="">
    <dc:format>image/svg+xml</dc:format>
    <dc:type
       rdf:resource="http://purl.org/dc/dcmitype/StillImage" />
    <dc:title></dc:title>
  </cc:Work>
</rdf:RDF>
</metadata>
  <path
     style="fill:#000000;fill-opacity:1;stroke:none"
     d="M 17,47 17,35 5,47 17,47 z M 16,46 7.4375,46 16,37.40625 16,46 z"
     id="path3690" />
  <path
     style="fill:#000000;fill-opacity:1;stroke:none"
     d="M 8.53125,43.46875 9.59375,42.40625 5,37.90625 c -2.171573,-2.171573 -3.5,-5.186291 -3.5,-8.5 l 0,-1.84375 c 0,-3.313709 1.328427,-6.328427 3.5,-8.5 l 0.5625,-0.5 C 6.829251,17.295749 8.567003,16.5 10.5,16.5 c 3.865993,0 7,3.134007 7,7 0,3.865993 -3.134007,7 -7,7 -1.2731752,0 -2.475023,-0.339862 -3.5,-0.9375 0.01488,0.616179 0.105976,1.219394 0.28125,1.78125 C 8.274909,31.754894 9.3587906,32 10.5,32 15.19442,32 19,28.19442 19,23.5 19,18.80558 15.19442,15 10.5,15 8.15279,15 6.038198,15.961802 4.5,17.5 L 3.96875,18.03125 C 3.052618,18.947382 2.251059,19.979867 1.625,21.125 1.54698,20.568911 1.5,20.014601 1.5,19.4375 l 0,-1.84375 c 0,-3.31371 1.328427,-6.32843 3.5,-8.5 L 13.125,1.0625 12.0625,0 3.96875,8.0625 C 1.52573,10.50552 0,13.86583 0,17.59375 L 0,19.4375 C 0,20.859859 0.245829,22.215201 0.65625,23.5 0.245829,24.784799 0,26.14014 0,27.5625 l 0,1.84375 c 0,3.727922 1.52573,7.08823 3.96875,9.53125 l 4.5625,4.53125 z"
     id="path4274" />
  <path
     style="fill:#ffffff;fill-opacity:1;stroke:none"
     d="m 9.59375,42.40625 2.8125,-2.8125 -4.5625,-4.53125 C 6.396035,33.614785 5.5,31.615389 5.5,29.40625 l 0,-1.84375 c 0,-2.209139 0.896035,-4.208535 2.34375,-5.65625 L 8.375,21.375 C 8.917893,20.832107 9.671573,20.5 10.5,20.5 c 1.656854,0 3,1.343146 3,3 0,1.656854 -1.343146,3 -3,3 -0.828427,0 -1.582107,-0.332107 -2.125,-0.875 L 7.84375,25.09375 C 7.75431,25.00431 7.678135,24.906489 7.59375,24.8125 7.203049,25.646604 7,26.580277 7,27.5625 l 0,1.84375 c 0,0.0533 -0.0013,0.103262 0,0.15625 1.024977,0.597638 2.2268241,0.9375 3.5,0.9375 3.865993,0 7,-3.134007 7,-7 0,-3.865993 -3.134007,-7 -7,-7 -1.932996,0 -3.670749,0.795749 -4.9375,2.0625 L 5,19.0625 c -2.171573,2.171573 -3.5,5.186291 -3.5,8.5 l 0,1.84375 c 0,3.313709 1.328427,6.328427 3.5,8.5 l 4.59375,4.5 z M 1.625,21.125 C 2.251059,19.979867 3.052618,18.947382 3.96875,18.03125 L 4.5,17.5 C 4.830851,17.169149 5.181737,16.867434 5.5625,16.59375 5.788955,14.786078 6.618841,13.162413 7.84375,11.9375 L 15.9375,3.875 13.125,1.0625 5,9.09375 c -2.171573,2.17157 -3.5,5.18629 -3.5,8.5 l 0,1.84375 c 0,0.577101 0.04698,1.131411 0.125,1.6875 z"
     id="path4277" />
  <path
     style="fill:#000000;fill-opacity:1;stroke:none"
     d="m 12.40625,39.59375 1.0625,-1.0625 L 8.90625,34 C 7.729981,32.823731 7,31.201175 7,29.40625 L 7,27.5625 c 0,-0.982223 0.203049,-1.915896 0.59375,-2.75 0.08438,0.09399 0.160557,0.191806 0.25,0.28125 L 8.375,25.625 c 0.542893,0.542893 1.296573,0.875 2.125,0.875 1.656854,0 3,-1.343146 3,-3 0,-1.656854 -1.343146,-3 -3,-3 -0.828427,0 -1.582107,0.332107 -2.125,0.875 L 7.84375,21.90625 C 6.396035,23.353965 5.5,25.353361 5.5,27.5625 l 0,1.84375 c 0,2.209139 0.896035,4.208535 2.34375,5.65625 l 4.5625,4.53125 z M 10.5,25 C 10.085786,25 9.708947,24.833947 9.4375,24.5625 L 8.90625,24.03125 C 8.740549,23.865549 8.585179,23.683008 8.4375,23.5 8.586173,23.315049 8.738632,23.136368 8.90625,22.96875 L 9.4375,22.4375 C 9.708947,22.166053 10.085786,22 10.5,22 11.328427,22 12,22.671573 12,23.5 12,24.328427 11.328427,25 10.5,25 z M 5.5625,16.59375 C 6.092804,16.212579 6.670008,15.908731 7.28125,15.65625 7.598495,14.639295 8.171082,13.735169 8.90625,13 L 17,4.9375 15.9375,3.875 7.84375,11.9375 C 6.618841,13.162413 5.788955,14.786078 5.5625,16.59375 z"
     id="path4280" />
  <path
     style="fill:#ffffff;fill-opacity:1;stroke:none"
     d="M 16,46 16,37.40625 7.4375,46 16,46 z"
     id="path4373" />
  <path
     style="fill:#000000;fill-opacity:1;stroke:none"
     d="M 4.5,38.5 C 6.985281,38.5 9,36.485281 9,34 9,31.514719 6.985281,29.5 4.5,29.5 2.014719,29.5 0,31.514719 0,34 c 0,2.485281 2.014719,4.5 4.5,4.5 z"
     id="path2928" />
  <path
     id="path2930"
     d="M 4.5,17.5 C 6.985281,17.5 9,15.485281 9,13 9,10.514719 6.985281,8.5 4.5,8.5 2.014719,8.5 0,10.514719 0,13 c 0,2.485281 2.014719,4.5 4.5,4.5 z"
     style="fill:#000000;fill-opacity:1;stroke:none" />
</svg>
