<?xml version="1.0" encoding="UTF-8" standalone="no"?>
<svg
   xmlns:dc="http://purl.org/dc/elements/1.1/"
   xmlns:cc="http://creativecommons.org/ns#"
   xmlns:rdf="http://www.w3.org/1999/02/22-rdf-syntax-ns#"
   xmlns:svg="http://www.w3.org/2000/svg"
   xmlns="http://www.w3.org/2000/svg"
   xmlns:sodipodi="http://sodipodi.sourceforge.net/DTD/sodipodi-0.dtd"
   xmlns:inkscape="http://www.inkscape.org/namespaces/inkscape"
   version="1.0"
   width="19"
   height="47"
   id="svg2"
   inkscape:version="0.47 r22583"
   sodipodi:docname="02-07-011-01-02-01.svg">
  <defs
     id="defs16">
    <inkscape:perspective
       sodipodi:type="inkscape:persp3d"
       inkscape:vp_x="0 : 23 : 1"
       inkscape:vp_y="0 : 1000 : 0"
       inkscape:vp_z="36 : 23 : 1"
       inkscape:persp3d-origin="18 : 15.333333 : 1"
       id="perspective18" />
  </defs>
  <sodipodi:namedview
     pagecolor="#ffffff"
     bordercolor="#666666"
     borderopacity="1"
     objecttolerance="10"
     gridtolerance="10"
     guidetolerance="10"
     inkscape:pageopacity="0"
     inkscape:pageshadow="2"
     inkscape:window-width="964"
     inkscape:window-height="721"
     id="namedview14"
     showgrid="true"
     inkscape:zoom="10.06383"
     inkscape:cx="9.5"
     inkscape:cy="23.5"
     inkscape:window-x="365"
     inkscape:window-y="0"
     inkscape:window-maximized="0"
     inkscape:current-layer="svg2"
     showborder="true">
    <inkscape:grid
       type="xygrid"
       id="grid2824"
       empspacing="5"
       visible="true"
       enabled="true"
       snapvisiblegridlinesonly="true" />
  </sodipodi:namedview>
  <metadata
     id="metadata4">
Valerie Sutton's pixel definition of the
ISWA 2010 symbol ID 04-01-003-01-01-01
transformed by Stephen E Slevinski Jr
using line and fill polygon tracing
<rdf:RDF>
  <cc:Work
     rdf:about="">
    <dc:format>image/svg+xml</dc:format>
    <dc:type
       rdf:resource="http://purl.org/dc/dcmitype/StillImage" />
    <dc:title></dc:title>
  </cc:Work>
</rdf:RDF>
</metadata>
  <path
     style="fill:#000000;fill-opacity:1;stroke:none"
     d="M 17,0 17,12 5,0 17,0 z M 16,1 7.4375,1 16,9.59375 16,1 z"
     id="path3690" />
  <path
     style="fill:#000000;fill-opacity:1;stroke:none"
     d="M 8.53125,3.53125 9.59375,4.59375 5,9.09375 c -2.171573,2.171573 -3.5,5.186291 -3.5,8.5 l 0,1.84375 c 0,3.313709 1.328427,6.328427 3.5,8.5 l 0.5625,0.5 C 6.829251,29.704251 8.567003,30.5 10.5,30.5 c 3.865993,0 7,-3.134007 7,-7 0,-3.865993 -3.134007,-7 -7,-7 C 9.2268248,16.5 8.024977,16.839862 7,17.4375 7.01488,16.821321 7.105976,16.218106 7.28125,15.65625 8.274909,15.245106 9.3587906,15 10.5,15 15.19442,15 19,18.80558 19,23.5 19,28.19442 15.19442,32 10.5,32 8.15279,32 6.038198,31.038198 4.5,29.5 L 3.96875,28.96875 C 3.052618,28.052618 2.251059,27.020133 1.625,25.875 1.54698,26.431089 1.5,26.985399 1.5,27.5625 l 0,1.84375 c 0,3.31371 1.328427,6.32843 3.5,8.5 L 13.125,45.9375 12.0625,47 3.96875,38.9375 C 1.52573,36.49448 0,33.13417 0,29.40625 L 0,27.5625 C 0,26.140141 0.245829,24.784799 0.65625,23.5 0.245829,22.215201 0,20.85986 0,19.4375 L 0,17.59375 C 0,13.865828 1.52573,10.50552 3.96875,8.0625 l 4.5625,-4.53125 z"
     id="path4274" />
  <path
     style="fill:#ffffff;fill-opacity:1;stroke:none"
     d="m 9.59375,4.59375 2.8125,2.8125 -4.5625,4.53125 C 6.396035,13.385215 5.5,15.384611 5.5,17.59375 l 0,1.84375 c 0,2.209139 0.896035,4.208535 2.34375,5.65625 L 8.375,25.625 c 0.542893,0.542893 1.296573,0.875 2.125,0.875 1.656854,0 3,-1.343146 3,-3 0,-1.656854 -1.343146,-3 -3,-3 -0.828427,0 -1.582107,0.332107 -2.125,0.875 L 7.84375,21.90625 C 7.75431,21.99569 7.678135,22.093511 7.59375,22.1875 7.203049,21.353396 7,20.419723 7,19.4375 L 7,17.59375 C 7,17.54045 6.9987,17.490488 7,17.4375 8.024977,16.839862 9.2268241,16.5 10.5,16.5 c 3.865993,0 7,3.134007 7,7 0,3.865993 -3.134007,7 -7,7 -1.932996,0 -3.670749,-0.795749 -4.9375,-2.0625 L 5,27.9375 c -2.171573,-2.171573 -3.5,-5.186291 -3.5,-8.5 l 0,-1.84375 c 0,-3.313709 1.328427,-6.328427 3.5,-8.5 l 4.59375,-4.5 z M 1.625,25.875 c 0.626059,1.145133 1.427618,2.177618 2.34375,3.09375 L 4.5,29.5 c 0.330851,0.330851 0.681737,0.632566 1.0625,0.90625 0.226455,1.807672 1.056341,3.431337 2.28125,4.65625 L 15.9375,43.125 13.125,45.9375 5,37.90625 c -2.171573,-2.17157 -3.5,-5.18629 -3.5,-8.5 l 0,-1.84375 c 0,-0.577101 0.04698,-1.131411 0.125,-1.6875 z"
     id="path4277" />
  <path
     style="fill:#000000;fill-opacity:1;stroke:none"
     d="m 12.40625,7.40625 1.0625,1.0625 L 8.90625,13 C 7.729981,14.176269 7,15.798825 7,17.59375 l 0,1.84375 c 0,0.982223 0.203049,1.915896 0.59375,2.75 0.08438,-0.09399 0.160557,-0.191806 0.25,-0.28125 L 8.375,21.375 C 8.917893,20.832107 9.671573,20.5 10.5,20.5 c 1.656854,0 3,1.343146 3,3 0,1.656854 -1.343146,3 -3,3 -0.828427,0 -1.582107,-0.332107 -2.125,-0.875 L 7.84375,25.09375 C 6.396035,23.646035 5.5,21.646639 5.5,19.4375 l 0,-1.84375 c 0,-2.209139 0.896035,-4.208535 2.34375,-5.65625 l 4.5625,-4.53125 z M 10.5,22 c -0.414214,0 -0.791053,0.166053 -1.0625,0.4375 L 8.90625,22.96875 C 8.740549,23.134451 8.585179,23.316992 8.4375,23.5 c 0.148673,0.184951 0.301132,0.363632 0.46875,0.53125 L 9.4375,24.5625 C 9.708947,24.833947 10.085786,25 10.5,25 11.328427,25 12,24.328427 12,23.5 12,22.671573 11.328427,22 10.5,22 z m -4.9375,8.40625 c 0.530304,0.381171 1.107508,0.685019 1.71875,0.9375 0.317245,1.016955 0.889832,1.921081 1.625,2.65625 L 17,42.0625 15.9375,43.125 7.84375,35.0625 C 6.618841,33.837587 5.788955,32.213922 5.5625,30.40625 z"
     id="path4280" />
  <path
     style="fill:#ffffff;fill-opacity:1;stroke:none"
     d="M 16,1 16,9.59375 7.4375,1 16,1 z"
     id="path4373" />
  <path
     style="fill:#000000;fill-opacity:1;stroke:none"
     d="M 4.5,8.5 C 6.985281,8.5 9,10.514719 9,13 9,15.485281 6.985281,17.5 4.5,17.5 2.014719,17.5 0,15.485281 0,13 0,10.514719 2.014719,8.5 4.5,8.5 z"
     id="path2928" />
  <path
     id="path2930"
     d="M 4.5,29.5 C 6.985281,29.5 9,31.514719 9,34 9,36.485281 6.985281,38.5 4.5,38.5 2.014719,38.5 0,36.485281 0,34 0,31.514719 2.014719,29.5 4.5,29.5 z"
     style="fill:#000000;fill-opacity:1;stroke:none" />
</svg>
