<?xml version="1.0" encoding="UTF-8" standalone="no"?>
<svg
   xmlns:dc="http://purl.org/dc/elements/1.1/"
   xmlns:cc="http://creativecommons.org/ns#"
   xmlns:rdf="http://www.w3.org/1999/02/22-rdf-syntax-ns#"
   xmlns:svg="http://www.w3.org/2000/svg"
   xmlns="http://www.w3.org/2000/svg"
   xmlns:sodipodi="http://sodipodi.sourceforge.net/DTD/sodipodi-0.dtd"
   xmlns:inkscape="http://www.inkscape.org/namespaces/inkscape"
   version="1.0"
   width="21"
   height="28"
   id="svg2"
   inkscape:version="0.47 r22583"
   sodipodi:docname="02-06-002-01-01-01.svg">
  <defs
     id="defs16">
    <inkscape:perspective
       sodipodi:type="inkscape:persp3d"
       inkscape:vp_x="0 : 23 : 1"
       inkscape:vp_y="0 : 1000 : 0"
       inkscape:vp_z="36 : 23 : 1"
       inkscape:persp3d-origin="18 : 15.333333 : 1"
       id="perspective18" />
  </defs>
  <sodipodi:namedview
     pagecolor="#ffffff"
     bordercolor="#666666"
     borderopacity="1"
     objecttolerance="10"
     gridtolerance="10"
     guidetolerance="10"
     inkscape:pageopacity="0"
     inkscape:pageshadow="2"
     inkscape:window-width="964"
     inkscape:window-height="721"
     id="namedview14"
     showgrid="true"
     inkscape:zoom="16.892857"
     inkscape:cx="10.5"
     inkscape:cy="14"
     inkscape:window-x="365"
     inkscape:window-y="0"
     inkscape:window-maximized="0"
     inkscape:current-layer="svg2"
     showborder="true">
    <inkscape:grid
       type="xygrid"
       id="grid2824"
       empspacing="5"
       visible="true"
       enabled="true"
       snapvisiblegridlinesonly="true" />
  </sodipodi:namedview>
  <metadata
     id="metadata4">
Valerie Sutton's pixel definition of the
ISWA 2010 symbol ID 04-01-003-01-01-01
transformed by Stephen E Slevinski Jr
using line and fill polygon tracing
<rdf:RDF>
  <cc:Work
     rdf:about="">
    <dc:format>image/svg+xml</dc:format>
    <dc:type
       rdf:resource="http://purl.org/dc/dcmitype/StillImage" />
    <dc:title></dc:title>
  </cc:Work>
</rdf:RDF>
</metadata>
  <path
     style="fill:#000000;fill-opacity:1;stroke:none"
     d="M 7 0 L 0.5 6.5 L 7 13 L 7 10.1875 L 3.3125 6.5 L 7 2.8125 L 7 0 z "
     id="path3273" />
  <path
     style="fill:#000000;fill-opacity:1;stroke:none"
     d="M 7 3 L 7 4.5 L 8.5 4.5 C 14.575132 4.5 19.5 9.4248678 19.5 15.5 C 19.5 21.575132 14.575132 26.5 8.5 26.5 L 4 26.5 L 4 28 L 8.5 28 C 15.403559 28 21 22.403559 21 15.5 C 21 8.5964406 15.403559 3 8.5 3 L 7 3 z "
     id="path2871" />
  <path
     style="fill:#ffffff;fill-opacity:1;stroke:none"
     d="M 7 4.5 L 7 8.5 L 8.5 8.5 C 12.365993 8.5 15.5 11.634007 15.5 15.5 C 15.5 19.365993 12.365993 22.5 8.5 22.5 L 4 22.5 L 4 26.5 L 8.5 26.5 C 14.575132 26.5 19.5 21.575132 19.5 15.5 C 19.5 9.4248678 14.575132 4.5 8.5 4.5 L 7 4.5 z "
     id="path2873" />
  <path
     style="fill:#000000;fill-opacity:1;stroke:none"
     d="M 7 8.5 L 7 10 L 8.5 10 C 11.537566 10 14 12.462434 14 15.5 C 14 18.537566 11.537566 21 8.5 21 L 4 21 L 4 22.5 L 8.5 22.5 C 12.365993 22.5 15.5 19.365993 15.5 15.5 C 15.5 11.634007 12.365993 8.5 8.5 8.5 L 7 8.5 z "
     id="path2878" />
</svg>
