<?xml version="1.0" encoding="UTF-8" standalone="no"?>
<svg
   xmlns:dc="http://purl.org/dc/elements/1.1/"
   xmlns:cc="http://creativecommons.org/ns#"
   xmlns:rdf="http://www.w3.org/1999/02/22-rdf-syntax-ns#"
   xmlns:svg="http://www.w3.org/2000/svg"
   xmlns="http://www.w3.org/2000/svg"
   xmlns:sodipodi="http://sodipodi.sourceforge.net/DTD/sodipodi-0.dtd"
   xmlns:inkscape="http://www.inkscape.org/namespaces/inkscape"
   version="1.0"
   width="21"
   height="10"
   id="svg2"
   inkscape:version="0.47 r22583"
   sodipodi:docname="04-04-004-01-02-01.svg">
  <defs
     id="defs14">
    <inkscape:perspective
       sodipodi:type="inkscape:persp3d"
       inkscape:vp_x="0 : 17.5 : 1"
       inkscape:vp_y="0 : 1000 : 0"
       inkscape:vp_z="36 : 17.5 : 1"
       inkscape:persp3d-origin="18 : 11.666667 : 1"
       id="perspective16" />
  </defs>
  <sodipodi:namedview
     pagecolor="#ffffff"
     bordercolor="#666666"
     borderopacity="1"
     objecttolerance="10"
     gridtolerance="10"
     guidetolerance="10"
     inkscape:pageopacity="0"
     inkscape:pageshadow="2"
     inkscape:window-width="993"
     inkscape:window-height="789"
     id="namedview12"
     showgrid="true"
     inkscape:zoom="15.487127"
     inkscape:cx="7.6688392"
     inkscape:cy="2.0032587"
     inkscape:window-x="209"
     inkscape:window-y="0"
     inkscape:window-maximized="0"
     inkscape:current-layer="svg2"
     showguides="true"
     inkscape:guide-bbox="true">
    <inkscape:grid
       type="xygrid"
       id="grid2822" />
  </sodipodi:namedview>
  <metadata
     id="metadata4">
Valerie Sutton's pixel definition of the
ISWA 2010 symbol ID 04-03-001-01-01-01
transformed by Stephen E Slevinski Jr
using line and fill polygon tracing
<rdf:RDF>
  <cc:Work
     rdf:about="">
    <dc:format>image/svg+xml</dc:format>
    <dc:type
       rdf:resource="http://purl.org/dc/dcmitype/StillImage" />
    <dc:title></dc:title>
  </cc:Work>
</rdf:RDF>
</metadata>
  <path
     style="fill:#000000;fill-opacity:1;stroke:none"
     d="M 2,5 2,9 3,9 3,5 2,5 z"
     id="path2870" />
  <path
     style="fill:#000000;fill-opacity:1;stroke:none"
     d="M 18.5,0 15.90625,4.46875 16.78125,5 18.5,2.03125 20.21875,5 21.09375,4.46875 18.5,0 z"
     id="path2868" />
  <path
     style="fill:#000000;fill-opacity:1;stroke:none"
     d="M 2.5,0 -0.09375,4.46875 0.78125,5 2.5,2.03125 4.21875,5 5.09375,4.46875 2.5,0 z"
     id="path2866" />
  <path
     style="fill:#000000;fill-opacity:1;stroke:none"
     d="m 18,5 0,4 1,0 0,-4 -1,0 z"
     id="path2875" />
  <path
     style="fill:#000000;fill-opacity:1;stroke:none"
     d="m 6,6 c 0,2.209139 2.014719,4 4.5,4 C 12.985281,10 15,8.209139 15,6 15,3.790861 12.985281,2 10.5,2 8.014719,2 6,3.790861 6,6 z M 10.5,4 C 11.880712,4 13,4.895431 13,6 13,7.104569 11.880712,8 10.5,8 9.119288,8 8,7.104569 8,6 8,4.895431 9.119288,4 10.5,4 z"
     id="path2935" />
</svg>
