<?xml version="1.0" encoding="UTF-8" standalone="no"?>
<svg
   xmlns:dc="http://purl.org/dc/elements/1.1/"
   xmlns:cc="http://creativecommons.org/ns#"
   xmlns:rdf="http://www.w3.org/1999/02/22-rdf-syntax-ns#"
   xmlns:svg="http://www.w3.org/2000/svg"
   xmlns="http://www.w3.org/2000/svg"
   xmlns:sodipodi="http://sodipodi.sourceforge.net/DTD/sodipodi-0.dtd"
   xmlns:inkscape="http://www.inkscape.org/namespaces/inkscape"
   version="1.0"
   width="28"
   height="40"
   id="svg2"
   inkscape:version="0.47 r22583"
   sodipodi:docname="02-02-003-01-04-01.svg">
  <defs
     id="defs14">
    <inkscape:perspective
       sodipodi:type="inkscape:persp3d"
       inkscape:vp_x="0 : 5.5 : 1"
       inkscape:vp_y="0 : 1000 : 0"
       inkscape:vp_z="10 : 5.5 : 1"
       inkscape:persp3d-origin="5 : 3.6666667 : 1"
       id="perspective16" />
  </defs>
  <sodipodi:namedview
     pagecolor="#ffffff"
     bordercolor="#666666"
     borderopacity="1"
     objecttolerance="10"
     gridtolerance="10"
     guidetolerance="10"
     inkscape:pageopacity="0"
     inkscape:pageshadow="2"
     inkscape:window-width="917"
     inkscape:window-height="792"
     id="namedview12"
     showgrid="true"
     inkscape:zoom="13.230408"
     inkscape:cx="9.5919948"
     inkscape:cy="20.497478"
     inkscape:window-x="313"
     inkscape:window-y="0"
     inkscape:window-maximized="0"
     inkscape:current-layer="svg2">
    <inkscape:grid
       type="xygrid"
       id="grid2822" />
  </sodipodi:namedview>
  <metadata
     id="metadata4">
Valerie Sutton's pixel definition of the
ISWA 2010 symbol ID 02-01-001-01-01-01
transformed by Stephen E Slevinski Jr
using line and fill polygon tracing
<rdf:RDF>
  <cc:Work
     rdf:about="">
    <dc:format>image/svg+xml</dc:format>
    <dc:type
       rdf:resource="http://purl.org/dc/dcmitype/StillImage" />
    <dc:title />
  </cc:Work>
</rdf:RDF>
</metadata>
  <path
     style="fill:#000000;fill-opacity:1;stroke:none"
     d="M 0.24912627,5.491767 5.1988738,10.441514 5.9059806,9.7344077 1.6633399,5.491767 5.9059806,1.2491263 5.1988738,0.5420196 0.24912627,5.491767 z"
     id="rect4602" />
  <path
     style="fill:#000000;fill-opacity:1;stroke:none"
     d="M 5,4.983534 5,6 9.2205436,5.977903 c 8.5604134,-7e-7 15.5121584,6.95174 15.5121554,15.512155 -1e-6,8.560414 -6.951759,15.512137 -15.5121554,15.512155 L 5,36.980113 l 0,1.016466 4.2205436,-0.0221 c 9.1126984,0 16.4844104,-7.371745 16.4844274,-16.484427 1e-6,-9.112693 -7.37173,-16.4844195 -16.4844274,-16.4844209 L 5,4.983534 z"
     id="path4657" />
  <path
     style="fill:#000000;fill-opacity:1;stroke:none"
     d="m 11.562835,4.0940194 c -1.171573,1.1715727 -1.171573,3.0710679 0,4.2426407 1.171573,1.1715728 3.071068,1.1715728 4.242641,0 1.171572,-1.1715727 1.171572,-3.071068 0,-4.2426407 -1.171574,-1.1715728 -3.071068,-1.1715727 -4.242641,0 z"
     id="path4615" />
  <path
     style="fill:#000000;fill-opacity:1;stroke:none"
     d="m 20.755223,11.872194 c -1.171573,1.171573 -1.171573,3.071068 0,4.242641 1.171572,1.171573 3.071068,1.171573 4.24264,0 1.171573,-1.171573 1.171573,-3.071068 0,-4.242641 -1.171572,-1.171573 -3.071068,-1.171573 -4.24264,0 z"
     id="path4613" />
  <path
     id="path4705"
     d="m 22.876544,22.46233 c -1.171573,1.171573 -1.171573,3.071068 0,4.242641 1.171572,1.171572 3.071068,1.171572 4.24264,0 1.171573,-1.171573 1.171573,-3.071068 0,-4.242641 -1.171572,-1.171573 -3.071068,-1.171573 -4.24264,0 z"
     style="fill:#000000;fill-opacity:1;stroke:none" />
  <path
     style="fill:#000000;fill-opacity:1;stroke:none"
     d="m 16.512583,31.654718 c -1.171573,1.171573 -1.171573,3.071068 0,4.242641 1.171572,1.171573 3.071067,1.171573 4.24264,0 1.171573,-1.171573 1.171573,-3.071068 0,-4.242641 -1.171573,-1.171572 -3.071068,-1.171572 -4.24264,0 z"
     id="path4734" />
  <path
     id="path4762"
     d="m 2.512583,34.654679 c -1.171573,1.171573 -1.171573,3.071068 0,4.242641 1.171572,1.171573 3.071067,1.171573 4.24264,0 1.171573,-1.171573 1.171573,-3.071068 0,-4.242641 -1.171573,-1.171572 -3.071068,-1.171572 -4.24264,0 z"
     style="fill:#000000;fill-opacity:1;stroke:none" />
</svg>
