<?xml version="1.0" encoding="UTF-8" standalone="no"?>
<svg
   xmlns:dc="http://purl.org/dc/elements/1.1/"
   xmlns:cc="http://creativecommons.org/ns#"
   xmlns:rdf="http://www.w3.org/1999/02/22-rdf-syntax-ns#"
   xmlns:svg="http://www.w3.org/2000/svg"
   xmlns="http://www.w3.org/2000/svg"
   xmlns:sodipodi="http://sodipodi.sourceforge.net/DTD/sodipodi-0.dtd"
   xmlns:inkscape="http://www.inkscape.org/namespaces/inkscape"
   version="1.0"
   width="13"
   height="34"
   id="svg2"
   inkscape:version="0.47 r22583"
   sodipodi:docname="02-02-003-01-02-01.svg">
  <defs
     id="defs14">
    <inkscape:perspective
       sodipodi:type="inkscape:persp3d"
       inkscape:vp_x="0 : 5.5 : 1"
       inkscape:vp_y="0 : 1000 : 0"
       inkscape:vp_z="10 : 5.5 : 1"
       inkscape:persp3d-origin="5 : 3.6666667 : 1"
       id="perspective16" />
  </defs>
  <sodipodi:namedview
     pagecolor="#ffffff"
     bordercolor="#666666"
     borderopacity="1"
     objecttolerance="10"
     gridtolerance="10"
     guidetolerance="10"
     inkscape:pageopacity="0"
     inkscape:pageshadow="2"
     inkscape:window-width="917"
     inkscape:window-height="792"
     id="namedview12"
     showgrid="true"
     inkscape:zoom="14.18"
     inkscape:cx="3.9502458"
     inkscape:cy="14.653265"
     inkscape:window-x="313"
     inkscape:window-y="0"
     inkscape:window-maximized="0"
     inkscape:current-layer="svg2">
    <inkscape:grid
       type="xygrid"
       id="grid2822" />
  </sodipodi:namedview>
  <metadata
     id="metadata4">
Valerie Sutton's pixel definition of the
ISWA 2010 symbol ID 02-01-001-01-01-01
transformed by Stephen E Slevinski Jr
using line and fill polygon tracing
<rdf:RDF>
  <cc:Work
     rdf:about="">
    <dc:format>image/svg+xml</dc:format>
    <dc:type
       rdf:resource="http://purl.org/dc/dcmitype/StillImage" />
    <dc:title />
  </cc:Work>
</rdf:RDF>
</metadata>
  <path
     style="fill:#000000;fill-opacity:1;stroke:none"
     d="M 0,0 0,7 1,7 1,1 7,1 7,0 0,0 z"
     id="rect4602" />
  <path
     style="fill:#000000;fill-opacity:1;stroke:none"
     d="M 3.71875,3 3,3.71875 6,6.6875 c 6.053127,6.053126 6.05313,15.884374 0,21.9375 -1.7442294,1.744229 -3.809149,2.979735 -6,3.71875 L 0,33.375 C 2.4425548,32.602878 4.7488756,31.251117 6.6875,29.3125 13.131152,22.86885 13.131149,12.443651 6.6875,6 L 3.71875,3 z"
     id="path4657" />
  <path
     style="fill:#000000;fill-opacity:1;stroke:none"
     d="m 9,7 c -1.6568542,0 -3,1.3431458 -3,3 0,1.656854 1.3431458,3 3,3 1.656854,0 3,-1.343146 3,-3 C 12,8.3431458 10.656854,7 9,7 z"
     id="path4615" />
  <path
     style="fill:#000000;fill-opacity:1;stroke:none"
     d="m 10,19 c -1.6568542,0 -3,1.343146 -3,3 0,1.656854 1.3431458,3 3,3 1.656854,0 3,-1.343146 3,-3 0,-1.656854 -1.343146,-3 -3,-3 z"
     id="path4613" />
  <path
     id="path4705"
     d="m 4,28 c -1.6568542,0 -3,1.343146 -3,3 0,1.656854 1.3431458,3 3,3 1.656854,0 3,-1.343146 3,-3 0,-1.656854 -1.343146,-3 -3,-3 z"
     style="fill:#000000;fill-opacity:1;stroke:none" />
</svg>
