<?xml version="1.0" encoding="UTF-8" standalone="no"?>
<svg
   xmlns:dc="http://purl.org/dc/elements/1.1/"
   xmlns:cc="http://creativecommons.org/ns#"
   xmlns:rdf="http://www.w3.org/1999/02/22-rdf-syntax-ns#"
   xmlns:svg="http://www.w3.org/2000/svg"
   xmlns="http://www.w3.org/2000/svg"
   xmlns:sodipodi="http://sodipodi.sourceforge.net/DTD/sodipodi-0.dtd"
   xmlns:inkscape="http://www.inkscape.org/namespaces/inkscape"
   version="1.0"
   width="23"
   height="7"
   id="svg2"
   inkscape:version="0.47 r22583"
   sodipodi:docname="02-10-007-03-02-05.svg">
  <defs
     id="defs24">
    <inkscape:perspective
       sodipodi:type="inkscape:persp3d"
       inkscape:vp_x="0 : 5 : 1"
       inkscape:vp_y="0 : 1000 : 0"
       inkscape:vp_z="22 : 5 : 1"
       inkscape:persp3d-origin="11 : 3.3333333 : 1"
       id="perspective26" />
  </defs>
  <sodipodi:namedview
     pagecolor="#ffffff"
     bordercolor="#666666"
     borderopacity="1"
     objecttolerance="10"
     gridtolerance="10"
     guidetolerance="10"
     inkscape:pageopacity="0"
     inkscape:pageshadow="2"
     inkscape:window-width="964"
     inkscape:window-height="789"
     id="namedview22"
     showgrid="true"
     inkscape:zoom="16.328077"
     inkscape:cx="11.498934"
     inkscape:cy="3.4996756"
     inkscape:window-x="282"
     inkscape:window-y="0"
     inkscape:window-maximized="0"
     inkscape:current-layer="svg2">
    <inkscape:grid
       type="xygrid"
       id="grid2832" />
  </sodipodi:namedview>
  <metadata
     id="metadata4">
Valerie Sutton's pixel definition of the
ISWA 2010 symbol ID 04-01-008-01-02-01
transformed by Stephen E Slevinski Jr
using line and fill polygon tracing
<rdf:RDF>
  <cc:Work
     rdf:about="">
    <dc:format>image/svg+xml</dc:format>
    <dc:type
       rdf:resource="http://purl.org/dc/dcmitype/StillImage" />
    <dc:title></dc:title>
  </cc:Work>
</rdf:RDF>
</metadata>
  <path
     style="fill:#000000"
     d="M 12.890625,2 13.609375,2.71875 11.828125,4.5 13.609375,6.28125 12.890625,7 l -2.5,-2.5 2.5,-2.5 z"
     id="path14" />
  <path
     style="fill:#000000;fill-opacity:1;stroke:none"
     d="M 22.34375,0 C 22.763994,0.46623189 23,0.97741999 23,1.5 23,2.6649757 21.85618,3.7321078 20,4.53125 l 0,-2.9375 C 20.618383,1.2619508 21,0.8944891 21,0.5 21,0.33360863 20.933875,0.15809361 20.8125,0 l 1.53125,0 z M 2.1875,0 C 2.066125,0.15809361 2,0.33360863 2,0.5 2,0.8944891 2.381617,1.2619508 3,1.59375 l 0,2.9375 C 1.14382,3.7321078 0,2.6649757 0,1.5 0,0.97741999 0.236006,0.46623189 0.65625,0 L 2.1875,0 z M 19,2.03125 l 0,2.875 C 17.591332,5.38188 15.880254,5.710968 14,5.875 l 0,-2.96875 c 2.015652,-0.1458598 3.758254,-0.4509203 5,-0.875 z m -15,0 c 1.241746,0.4240797 2.984348,0.7291402 5,0.875 L 9,5.875 C 7.119746,5.710968 5.408668,5.38188 4,4.90625 l 0,-2.875 z"
     id="path2834" />
</svg>
