<?xml version="1.0" encoding="UTF-8" standalone="no"?>
<svg
   xmlns:dc="http://purl.org/dc/elements/1.1/"
   xmlns:cc="http://creativecommons.org/ns#"
   xmlns:rdf="http://www.w3.org/1999/02/22-rdf-syntax-ns#"
   xmlns:svg="http://www.w3.org/2000/svg"
   xmlns="http://www.w3.org/2000/svg"
   xmlns:sodipodi="http://sodipodi.sourceforge.net/DTD/sodipodi-0.dtd"
   xmlns:inkscape="http://www.inkscape.org/namespaces/inkscape"
   version="1.0"
   width="19"
   height="10"
   id="svg2"
   inkscape:version="0.47 r22583"
   sodipodi:docname="02-10-007-03-01-08.svg">
  <defs
     id="defs24">
    <inkscape:perspective
       sodipodi:type="inkscape:persp3d"
       inkscape:vp_x="0 : 5 : 1"
       inkscape:vp_y="0 : 1000 : 0"
       inkscape:vp_z="22 : 5 : 1"
       inkscape:persp3d-origin="11 : 3.3333333 : 1"
       id="perspective26" />
  </defs>
  <sodipodi:namedview
     pagecolor="#ffffff"
     bordercolor="#666666"
     borderopacity="1"
     objecttolerance="10"
     gridtolerance="10"
     guidetolerance="10"
     inkscape:pageopacity="0"
     inkscape:pageshadow="2"
     inkscape:window-width="964"
     inkscape:window-height="789"
     id="namedview22"
     showgrid="true"
     inkscape:zoom="16.337408"
     inkscape:cx="11.497689"
     inkscape:cy="4.9989952"
     inkscape:window-x="282"
     inkscape:window-y="0"
     inkscape:window-maximized="0"
     inkscape:current-layer="svg2">
    <inkscape:grid
       type="xygrid"
       id="grid2832" />
  </sodipodi:namedview>
  <metadata
     id="metadata4">
Valerie Sutton's pixel definition of the
ISWA 2010 symbol ID 04-01-008-01-02-01
transformed by Stephen E Slevinski Jr
using line and fill polygon tracing
<rdf:RDF>
  <cc:Work
     rdf:about="">
    <dc:format>image/svg+xml</dc:format>
    <dc:type
       rdf:resource="http://purl.org/dc/dcmitype/StillImage" />
    <dc:title></dc:title>
  </cc:Work>
</rdf:RDF>
</metadata>
  <path
     style="fill:#000000"
     d="M 8.890625,0 9.609375,0.71875 7.828125,2.5 9.609375,4.28125 8.890625,5 l -2.5,-2.5 2.5,-2.5 z"
     id="path14" />
  <path
     style="fill:#000000;fill-opacity:1;stroke:none"
     d="m 10,2.125 c 0.690207,0.053526 1.362727,0.09296 2,0.1875 L 12,3.25 C 11.371607,3.178134 10.703917,3.1032504 10,3.0625 L 10,2.125 z m -5,0 0,0.9375 C 4.296083,3.10325 3.628393,3.1781339 3,3.25 L 3,2.3125 C 3.637273,2.21796 4.309793,2.1785262 5,2.125 z M 13,2.5 c 0.717985,0.137108 1.385694,0.2834817 2,0.46875 l 0,0.8125 C 14.427054,3.6246906 13.764995,3.4899056 13,3.375 L 13,2.5 z M 2,2.5 2,3.375 C 1.235005,3.4899056 0.572946,3.6246906 0,3.78125 L 0,2.96875 C 0.614306,2.7834817 1.282015,2.637108 2,2.5 z M 16,3.3125 C 17.85618,4.0228486 19,4.9644661 19,6 19,7.0355339 17.85618,7.9771514 16,8.6875 L 16,5.875 C 16.617502,5.6097121 17,5.3153515 17,5 17,4.6846485 16.617502,4.3902879 16,4.125 l 0,-0.8125 z m -1,2.90625 0,2.8125 c -1.154925,0.3483133 -2.510919,0.5831501 -4,0.75 l 0,-2.9375 c 1.59604,-0.1340439 2.967155,-0.3427717 4,-0.625 z"
     id="path2972"
     sodipodi:nodetypes="cccccccccccccccccccccsccsccccccc" />
</svg>
