<?xml version="1.0" encoding="UTF-8" standalone="no"?>
<svg
   xmlns:dc="http://purl.org/dc/elements/1.1/"
   xmlns:cc="http://creativecommons.org/ns#"
   xmlns:rdf="http://www.w3.org/1999/02/22-rdf-syntax-ns#"
   xmlns:svg="http://www.w3.org/2000/svg"
   xmlns="http://www.w3.org/2000/svg"
   xmlns:sodipodi="http://sodipodi.sourceforge.net/DTD/sodipodi-0.dtd"
   xmlns:inkscape="http://www.inkscape.org/namespaces/inkscape"
   version="1.0"
   width="23"
   height="10"
   id="svg2"
   inkscape:version="0.47 r22583"
   sodipodi:docname="04-01-008-01-02-01.svg">
  <defs
     id="defs24">
    <inkscape:perspective
       sodipodi:type="inkscape:persp3d"
       inkscape:vp_x="0 : 5 : 1"
       inkscape:vp_y="0 : 1000 : 0"
       inkscape:vp_z="22 : 5 : 1"
       inkscape:persp3d-origin="11 : 3.3333333 : 1"
       id="perspective26" />
  </defs>
  <sodipodi:namedview
     pagecolor="#ffffff"
     bordercolor="#666666"
     borderopacity="1"
     objecttolerance="10"
     gridtolerance="10"
     guidetolerance="10"
     inkscape:pageopacity="0"
     inkscape:pageshadow="2"
     inkscape:window-width="964"
     inkscape:window-height="789"
     id="namedview22"
     showgrid="true"
     inkscape:zoom="23.6"
     inkscape:cx="11"
     inkscape:cy="5"
     inkscape:window-x="282"
     inkscape:window-y="0"
     inkscape:window-maximized="0"
     inkscape:current-layer="svg2">
    <inkscape:grid
       type="xygrid"
       id="grid2832" />
  </sodipodi:namedview>
  <metadata
     id="metadata4">
Valerie Sutton's pixel definition of the
ISWA 2010 symbol ID 04-01-008-01-02-01
transformed by Stephen E Slevinski Jr
using line and fill polygon tracing
<rdf:RDF>
  <cc:Work
     rdf:about="">
    <dc:format>image/svg+xml</dc:format>
    <dc:type
       rdf:resource="http://purl.org/dc/dcmitype/StillImage" />
    <dc:title></dc:title>
  </cc:Work>
</rdf:RDF>
</metadata>
  <path
     style="fill:#000000"
     d="M 10.109375,5 9.390625,5.71875 11.171875,7.5 9.390625,9.28125 10.109375,10 l 2.5,-2.5 -2.5,-2.5 z"
     id="path14" />
  <path
     style="fill:#000000;fill-opacity:1;stroke:none"
     d="M 11,0.03125 C 10.315861,0.042995 9.648001,0.068469 9,0.125 l 0,0.96875 c 0.645593,-0.046717 1.307202,-0.052794 2,-0.0625 l 0,-1 z m 1,0 0,1 c 0.692798,0.00971 1.354407,0.015783 2,0.0625 L 14,0.125 C 13.351999,0.0684687 12.684139,0.0429951 12,0.03125 z M 8,0.21875 C 6.933121,0.3531547 5.905449,0.5693749 5,0.8125 l 0,0.875 C 5.86279,1.4734002 6.879926,1.3050872 8,1.1875 L 8,0.21875 z m 7,0 0,0.96875 c 1.120074,0.1175872 2.13721,0.2859002 3,0.5 l 0,-0.875 C 17.094551,0.5693749 16.066879,0.3531547 15,0.21875 z M 4,1.09375 C 1.5560065,1.9189523 0,3.1377326 0,4.5 0,5.6649757 1.1438202,6.7321078 3,7.53125 L 3,4.59375 C 2.3816168,4.2619508 2,3.8944891 2,3.5 2,2.9261102 2.7644634,2.390709 4,1.96875 l 0,-0.875 z m 15,0 0,0.875 c 1.235537,0.421959 2,0.9573602 2,1.53125 0,0.3944891 -0.381617,0.7619508 -1,1.09375 l 0,2.9375 C 21.85618,6.7321078 23,5.6649757 23,4.5 23,3.1377326 21.443993,1.9189523 19,1.09375 z m -15,3.9375 0,2.875 C 5.408668,8.38188 7.119746,8.710968 9,8.875 L 9,5.90625 C 6.984348,5.7603902 5.241746,5.4553297 4,5.03125 z m 15,0 c -1.241746,0.4240797 -2.984348,0.7291402 -5,0.875 L 14,8.875 c 1.880254,-0.164032 3.591332,-0.49312 5,-0.96875 l 0,-2.875 z"
     id="path2834" />
</svg>
