<?xml version="1.0" encoding="UTF-8" standalone="no"?>
<svg
   xmlns:dc="http://purl.org/dc/elements/1.1/"
   xmlns:cc="http://creativecommons.org/ns#"
   xmlns:rdf="http://www.w3.org/1999/02/22-rdf-syntax-ns#"
   xmlns:svg="http://www.w3.org/2000/svg"
   xmlns="http://www.w3.org/2000/svg"
   xmlns:sodipodi="http://sodipodi.sourceforge.net/DTD/sodipodi-0.dtd"
   xmlns:inkscape="http://www.inkscape.org/namespaces/inkscape"
   version="1.0"
   width="19"
   height="10"
   id="svg2"
   inkscape:version="0.47 r22583"
   sodipodi:docname="02-10-007-03-02-08.svg">
  <defs
     id="defs24">
    <inkscape:perspective
       sodipodi:type="inkscape:persp3d"
       inkscape:vp_x="0 : 5 : 1"
       inkscape:vp_y="0 : 1000 : 0"
       inkscape:vp_z="22 : 5 : 1"
       inkscape:persp3d-origin="11 : 3.3333333 : 1"
       id="perspective26" />
  </defs>
  <sodipodi:namedview
     pagecolor="#ffffff"
     bordercolor="#666666"
     borderopacity="1"
     objecttolerance="10"
     gridtolerance="10"
     guidetolerance="10"
     inkscape:pageopacity="0"
     inkscape:pageshadow="2"
     inkscape:window-width="964"
     inkscape:window-height="789"
     id="namedview22"
     showgrid="true"
     inkscape:zoom="16.057498"
     inkscape:cx="9.4995332"
     inkscape:cy="4.9997543"
     inkscape:window-x="282"
     inkscape:window-y="0"
     inkscape:window-maximized="0"
     inkscape:current-layer="svg2">
    <inkscape:grid
       type="xygrid"
       id="grid2832" />
  </sodipodi:namedview>
  <metadata
     id="metadata4">
Valerie Sutton's pixel definition of the
ISWA 2010 symbol ID 04-01-008-01-02-01
transformed by Stephen E Slevinski Jr
using line and fill polygon tracing
<rdf:RDF>
  <cc:Work
     rdf:about="">
    <dc:format>image/svg+xml</dc:format>
    <dc:type
       rdf:resource="http://purl.org/dc/dcmitype/StillImage" />
    <dc:title></dc:title>
  </cc:Work>
</rdf:RDF>
</metadata>
  <path
     style="fill:#000000"
     d="M 10.109375,0 9.390625,0.71875 11.171875,2.5 9.390625,4.28125 10.109375,5 l 2.5,-2.5 -2.5,-2.5 z"
     id="path14" />
  <path
     style="fill:#000000;fill-opacity:1;stroke:none"
     d="M 9,2.125 C 8.309793,2.178526 7.637273,2.21796 7,2.3125 L 7,3.25 C 7.628393,3.178134 8.296083,3.1032504 9,3.0625 L 9,2.125 z m 5,0 0,0.9375 c 0.703917,0.04075 1.371607,0.1156339 2,0.1875 L 16,2.3125 C 15.362727,2.21796 14.690207,2.1785262 14,2.125 z M 6,2.5 C 5.282015,2.637108 4.614306,2.7834817 4,2.96875 l 0,0.8125 C 4.572946,3.6246906 5.235005,3.4899056 6,3.375 L 6,2.5 z m 11,0 0,0.875 c 0.764995,0.1149056 1.427054,0.2496906 2,0.40625 l 0,-0.8125 C 18.385694,2.7834817 17.717985,2.637108 17,2.5 z M 3,3.3125 C 1.14382,4.0228486 0,4.9644661 0,6 0,7.0355339 1.14382,7.9771514 3,8.6875 L 3,5.875 C 2.382498,5.6097121 2,5.3153515 2,5 2,4.6846485 2.382498,4.3902879 3,4.125 L 3,3.3125 z m 1,2.90625 0,2.8125 c 1.154925,0.3483133 2.510919,0.5831501 4,0.75 L 8,6.84375 C 6.40396,6.7097061 5.032845,6.5009783 4,6.21875 z"
     id="path2972"
     sodipodi:nodetypes="cccccccccccccccccccccsccsccccccc" />
</svg>
