<?xml version="1.0" encoding="UTF-8" standalone="no"?>
<svg
   xmlns:dc="http://purl.org/dc/elements/1.1/"
   xmlns:cc="http://creativecommons.org/ns#"
   xmlns:rdf="http://www.w3.org/1999/02/22-rdf-syntax-ns#"
   xmlns:svg="http://www.w3.org/2000/svg"
   xmlns="http://www.w3.org/2000/svg"
   xmlns:sodipodi="http://sodipodi.sourceforge.net/DTD/sodipodi-0.dtd"
   xmlns:inkscape="http://www.inkscape.org/namespaces/inkscape"
   version="1.0"
   width="10"
   height="23"
   id="svg2"
   inkscape:version="0.47 r22583"
   sodipodi:docname="02-10-007-03-01-06.svg">
  <defs
     id="defs24">
    <inkscape:perspective
       sodipodi:type="inkscape:persp3d"
       inkscape:vp_x="0 : 5 : 1"
       inkscape:vp_y="0 : 1000 : 0"
       inkscape:vp_z="22 : 5 : 1"
       inkscape:persp3d-origin="11 : 3.3333333 : 1"
       id="perspective26" />
  </defs>
  <sodipodi:namedview
     pagecolor="#ffffff"
     bordercolor="#666666"
     borderopacity="1"
     objecttolerance="10"
     gridtolerance="10"
     guidetolerance="10"
     inkscape:pageopacity="0"
     inkscape:pageshadow="2"
     inkscape:window-width="964"
     inkscape:window-height="789"
     id="namedview22"
     showgrid="true"
     inkscape:zoom="16.644642"
     inkscape:cx="5.000966"
     inkscape:cy="11.502222"
     inkscape:window-x="282"
     inkscape:window-y="0"
     inkscape:window-maximized="0"
     inkscape:current-layer="svg2">
    <inkscape:grid
       type="xygrid"
       id="grid2832" />
  </sodipodi:namedview>
  <metadata
     id="metadata4">
Valerie Sutton's pixel definition of the
ISWA 2010 symbol ID 04-01-008-01-02-01
transformed by Stephen E Slevinski Jr
using line and fill polygon tracing
<rdf:RDF>
  <cc:Work
     rdf:about="">
    <dc:format>image/svg+xml</dc:format>
    <dc:type
       rdf:resource="http://purl.org/dc/dcmitype/StillImage" />
    <dc:title></dc:title>
  </cc:Work>
</rdf:RDF>
</metadata>
  <path
     style="fill:#000000"
     d="M 5,10.109375 5.71875,9.390625 7.5,11.171875 9.28125,9.390625 10,10.109375 l -2.5,2.5 -2.5,-2.5 z"
     id="path14" />
  <path
     style="fill:#000000;fill-opacity:1;stroke:none"
     d="M 0.03125,11 C 0.042995,10.315861 0.068469,9.648001 0.125,9 l 0.96875,0 c -0.046717,0.645593 -0.052794,1.307202 -0.0625,2 l -1,0 z m 0,1 1,0 c 0.00971,0.692798 0.015783,1.354407 0.0625,2 L 0.125,14 C 0.068469,13.351999 0.042995,12.684139 0.03125,12 z M 0.21875,8 C 0.3531547,6.933121 0.5693749,5.905449 0.8125,5 l 0.875,0 C 1.4734002,5.86279 1.3050872,6.879926 1.1875,8 L 0.21875,8 z m 0,7 0.96875,0 c 0.1175872,1.120074 0.2859002,2.13721 0.5,3 l -0.875,0 C 0.5693749,17.094551 0.3531547,16.066879 0.21875,15 z M 1.09375,4 C 1.9189523,1.556007 3.1377326,0 4.5,0 5.664976,0 6.732108,1.14382 7.53125,3 L 4.59375,3 C 4.261951,2.381617 3.894489,2 3.5,2 2.9261102,2 2.390709,2.764463 1.96875,4 l -0.875,0 z m 0,15 0.875,0 c 0.421959,1.235537 0.9573602,2 1.53125,2 0.394489,0 0.761951,-0.381617 1.09375,-1 l 2.9375,0 C 6.732108,21.85618 5.664976,23 4.5,23 3.1377326,23 1.9189523,21.443993 1.09375,19 z m 3.9375,-15 2.875,0 C 8.38188,5.408668 8.710968,7.119746 8.875,9 L 5.90625,9 C 5.76039,6.984348 5.45533,5.241746 5.03125,4 z m 0,15 c 0.42408,-1.241746 0.72914,-2.984348 0.875,-5 L 8.875,14 c -0.164032,1.880254 -0.49312,3.591332 -0.96875,5 l -2.875,0 z"
     id="path2834" />
</svg>
