<?xml version="1.0" encoding="UTF-8" standalone="no"?>
<svg
   xmlns:dc="http://purl.org/dc/elements/1.1/"
   xmlns:cc="http://creativecommons.org/ns#"
   xmlns:rdf="http://www.w3.org/1999/02/22-rdf-syntax-ns#"
   xmlns:svg="http://www.w3.org/2000/svg"
   xmlns="http://www.w3.org/2000/svg"
   xmlns:sodipodi="http://sodipodi.sourceforge.net/DTD/sodipodi-0.dtd"
   xmlns:inkscape="http://www.inkscape.org/namespaces/inkscape"
   version="1.0"
   width="23"
   height="10"
   id="svg2"
   inkscape:version="0.47 r22583"
   sodipodi:docname="02-10-007-03-01-04.svg">
  <defs
     id="defs24">
    <inkscape:perspective
       sodipodi:type="inkscape:persp3d"
       inkscape:vp_x="0 : 5 : 1"
       inkscape:vp_y="0 : 1000 : 0"
       inkscape:vp_z="22 : 5 : 1"
       inkscape:persp3d-origin="11 : 3.3333333 : 1"
       id="perspective26" />
  </defs>
  <sodipodi:namedview
     pagecolor="#ffffff"
     bordercolor="#666666"
     borderopacity="1"
     objecttolerance="10"
     gridtolerance="10"
     guidetolerance="10"
     inkscape:pageopacity="0"
     inkscape:pageshadow="2"
     inkscape:window-width="964"
     inkscape:window-height="789"
     id="namedview22"
     showgrid="true"
     inkscape:zoom="16.337408"
     inkscape:cx="11.497689"
     inkscape:cy="4.9989952"
     inkscape:window-x="282"
     inkscape:window-y="0"
     inkscape:window-maximized="0"
     inkscape:current-layer="svg2">
    <inkscape:grid
       type="xygrid"
       id="grid2832" />
  </sodipodi:namedview>
  <metadata
     id="metadata4">
Valerie Sutton's pixel definition of the
ISWA 2010 symbol ID 04-01-008-01-02-01
transformed by Stephen E Slevinski Jr
using line and fill polygon tracing
<rdf:RDF>
  <cc:Work
     rdf:about="">
    <dc:format>image/svg+xml</dc:format>
    <dc:type
       rdf:resource="http://purl.org/dc/dcmitype/StillImage" />
    <dc:title></dc:title>
  </cc:Work>
</rdf:RDF>
</metadata>
  <path
     style="fill:#000000"
     d="M 10.109375,0 9.390625,0.71875 11.171875,2.5 9.390625,4.28125 10.109375,5 l 2.5,-2.5 -2.5,-2.5 z"
     id="path14" />
  <path
     style="fill:#000000;fill-opacity:1;stroke:none"
     d="M 9,2.125 C 8.309793,2.178526 7.6372728,2.21796 7,2.3125 L 7,3.25 C 7.6283934,3.178134 8.2960826,3.1032504 9,3.0625 L 9,2.125 z m 5,0 0,0.9375 c 0.703917,0.04075 1.371607,0.1156339 2,0.1875 L 16,2.3125 C 15.362727,2.21796 14.690207,2.1785262 14,2.125 z M 6,2.5 C 5.2820148,2.637108 4.614306,2.7834817 4,2.96875 l 0,0.8125 C 4.572946,3.6246906 5.2350049,3.4899056 6,3.375 L 6,2.5 z m 11,0 0,0.875 c 0.764995,0.1149056 1.427054,0.2496906 2,0.40625 l 0,-0.8125 C 18.385694,2.7834817 17.717985,2.637108 17,2.5 z M 3,3.3125 C 1.1438202,4.0228486 0,4.9644661 0,6 0,7.0355339 1.1438202,7.9771514 3,8.6875 L 3,5.875 C 2.3824983,5.6097121 2,5.3153515 2,5 2,4.6846485 2.3824983,4.3902879 3,4.125 L 3,3.3125 z m 17,0 L 20,4 20,4.125 c 0.617502,0.2652879 1,0.5596485 1,0.875 0,0.3153515 -0.382498,0.6097121 -1,0.875 l 0,2.8125 C 21.85618,7.9771514 23,7.0355339 23,6 23,4.9644661 21.85618,4.0228486 20,3.3125 z M 4,6.21875 4,9.03125 c 1.1549247,0.3483133 2.5109188,0.5831501 4,0.75 L 8,6.84375 C 6.4039598,6.7097061 5.0328446,6.5009783 4,6.21875 z m 15,0 c -1.032845,0.2822283 -2.40396,0.4909561 -4,0.625 l 0,2.9375 c 1.489081,-0.1668499 2.845075,-0.4016867 4,-0.75 l 0,-2.8125 z M 9,6.9375 9,9.875 C 9.8090376,9.9377417 10.636603,10 11.5,10 12.363397,10 13.190962,9.9377417 14,9.875 L 14,6.9375 C 13.196051,6.9840413 12.374183,7 11.5,7 10.625817,7 9.8039492,6.9840413 9,6.9375 z"
     id="path2972" />
</svg>
