<?xml version="1.0" encoding="UTF-8" standalone="no"?>
<svg
   xmlns:dc="http://purl.org/dc/elements/1.1/"
   xmlns:cc="http://creativecommons.org/ns#"
   xmlns:rdf="http://www.w3.org/1999/02/22-rdf-syntax-ns#"
   xmlns:svg="http://www.w3.org/2000/svg"
   xmlns="http://www.w3.org/2000/svg"
   xmlns:sodipodi="http://sodipodi.sourceforge.net/DTD/sodipodi-0.dtd"
   xmlns:inkscape="http://www.inkscape.org/namespaces/inkscape"
   version="1.0"
   width="10"
   height="23"
   id="svg2"
   inkscape:version="0.47 r22583"
   sodipodi:docname="02-10-007-03-01-01.svg">
  <defs
     id="defs24">
    <inkscape:perspective
       sodipodi:type="inkscape:persp3d"
       inkscape:vp_x="0 : 5 : 1"
       inkscape:vp_y="0 : 1000 : 0"
       inkscape:vp_z="22 : 5 : 1"
       inkscape:persp3d-origin="11 : 3.3333333 : 1"
       id="perspective26" />
  </defs>
  <sodipodi:namedview
     pagecolor="#ffffff"
     bordercolor="#666666"
     borderopacity="1"
     objecttolerance="10"
     gridtolerance="10"
     guidetolerance="10"
     inkscape:pageopacity="0"
     inkscape:pageshadow="2"
     inkscape:window-width="964"
     inkscape:window-height="789"
     id="namedview22"
     showgrid="true"
     inkscape:zoom="16.644642"
     inkscape:cx="5.000966"
     inkscape:cy="11.502222"
     inkscape:window-x="282"
     inkscape:window-y="0"
     inkscape:window-maximized="0"
     inkscape:current-layer="svg2">
    <inkscape:grid
       type="xygrid"
       id="grid2832" />
  </sodipodi:namedview>
  <metadata
     id="metadata4">
Valerie Sutton's pixel definition of the
ISWA 2010 symbol ID 04-01-008-01-02-01
transformed by Stephen E Slevinski Jr
using line and fill polygon tracing
<rdf:RDF>
  <cc:Work
     rdf:about="">
    <dc:format>image/svg+xml</dc:format>
    <dc:type
       rdf:resource="http://purl.org/dc/dcmitype/StillImage" />
    <dc:title></dc:title>
  </cc:Work>
</rdf:RDF>
</metadata>
  <path
     style="fill:#000000"
     d="M 5,12.890625 4.28125,13.609375 2.5,11.828125 0.71875,13.609375 0,12.890625 l 2.5,-2.5 2.5,2.5 z"
     id="path14" />
  <path
     style="fill:#000000;fill-opacity:1;stroke:none"
     d="M 9.96875,12 C 9.957005,12.684139 9.931531,13.351999 9.875,14 l -0.96875,0 c 0.046717,-0.645593 0.052794,-1.307202 0.0625,-2 l 1,0 z m 0,-1 -1,0 C 8.95904,10.307202 8.952967,9.645593 8.90625,9 L 9.875,9 c 0.056531,0.648001 0.082005,1.315861 0.09375,2 z m -0.1875,4 C 9.6468453,16.066879 9.4306251,17.094551 9.1875,18 l -0.875,0 c 0.2140998,-0.86279 0.3824128,-1.879926 0.5,-3 l 0.96875,0 z m 0,-7 L 8.8125,8 C 8.6949128,6.879926 8.5265998,5.86279 8.3125,5 l 0.875,0 c 0.2431251,0.905449 0.4593453,1.933121 0.59375,3 z m -0.875,11 C 8.0810477,21.443993 6.8622674,23 5.5,23 4.335024,23 3.267892,21.85618 2.46875,20 l 2.9375,0 c 0.331799,0.618383 0.699261,1 1.09375,1 0.5738898,0 1.109291,-0.764463 1.53125,-2 l 0.875,0 z m 0,-15 -0.875,0 C 7.609291,2.764463 7.0738898,2 6.5,2 6.105511,2 5.738049,2.381617 5.40625,3 L 2.46875,3 C 3.267892,1.14382 4.335024,0 5.5,0 6.8622674,0 8.0810477,1.556007 8.90625,4 z m -3.9375,15 -2.875,0 C 1.61812,17.591332 1.289032,15.880254 1.125,14 l 2.96875,0 c 0.14586,2.015652 0.45092,3.758254 0.875,5 z m 0,-15 C 4.54467,5.241746 4.23961,6.984348 4.09375,9 L 1.125,9 C 1.289032,7.119746 1.61812,5.408668 2.09375,4 l 2.875,0 z"
     id="path2834" />
</svg>
