<?xml version="1.0" encoding="UTF-8" standalone="no"?>
<svg
   xmlns:dc="http://purl.org/dc/elements/1.1/"
   xmlns:cc="http://creativecommons.org/ns#"
   xmlns:rdf="http://www.w3.org/1999/02/22-rdf-syntax-ns#"
   xmlns:svg="http://www.w3.org/2000/svg"
   xmlns="http://www.w3.org/2000/svg"
   xmlns:sodipodi="http://sodipodi.sourceforge.net/DTD/sodipodi-0.dtd"
   xmlns:inkscape="http://www.inkscape.org/namespaces/inkscape"
   version="1.0"
   width="10"
   height="23"
   id="svg2"
   inkscape:version="0.47 r22583"
   sodipodi:docname="02-10-007-03-01-02.svg">
  <defs
     id="defs24">
    <inkscape:perspective
       sodipodi:type="inkscape:persp3d"
       inkscape:vp_x="0 : 5 : 1"
       inkscape:vp_y="0 : 1000 : 0"
       inkscape:vp_z="22 : 5 : 1"
       inkscape:persp3d-origin="11 : 3.3333333 : 1"
       id="perspective26" />
  </defs>
  <sodipodi:namedview
     pagecolor="#ffffff"
     bordercolor="#666666"
     borderopacity="1"
     objecttolerance="10"
     gridtolerance="10"
     guidetolerance="10"
     inkscape:pageopacity="0"
     inkscape:pageshadow="2"
     inkscape:window-width="964"
     inkscape:window-height="789"
     id="namedview22"
     showgrid="true"
     inkscape:zoom="16.644642"
     inkscape:cx="5.000966"
     inkscape:cy="11.502222"
     inkscape:window-x="282"
     inkscape:window-y="0"
     inkscape:window-maximized="0"
     inkscape:current-layer="svg2">
    <inkscape:grid
       type="xygrid"
       id="grid2832" />
  </sodipodi:namedview>
  <metadata
     id="metadata4">
Valerie Sutton's pixel definition of the
ISWA 2010 symbol ID 04-01-008-01-02-01
transformed by Stephen E Slevinski Jr
using line and fill polygon tracing
<rdf:RDF>
  <cc:Work
     rdf:about="">
    <dc:format>image/svg+xml</dc:format>
    <dc:type
       rdf:resource="http://purl.org/dc/dcmitype/StillImage" />
    <dc:title></dc:title>
  </cc:Work>
</rdf:RDF>
</metadata>
  <path
     style="fill:#000000"
     d="M 5,12.890625 5.71875,13.609375 7.5,11.828125 9.28125,13.609375 10,12.890625 l -2.5,-2.5 -2.5,2.5 z"
     id="path14" />
  <path
     style="fill:#000000;fill-opacity:1;stroke:none"
     d="m 0.03125,12 c 0.011745,0.684139 0.037219,1.351999 0.09375,2 l 0.96875,0 C 1.047033,13.354407 1.040956,12.692798 1.03125,12 l -1,0 z m 0,-1 1,0 C 1.04096,10.307202 1.047033,9.645593 1.09375,9 L 0.125,9 C 0.068469,9.648001 0.042995,10.315861 0.03125,11 z m 0.1875,4 c 0.1344047,1.066879 0.3506249,2.094551 0.59375,3 l 0.875,0 c -0.2140998,-0.86279 -0.3824128,-1.879926 -0.5,-3 l -0.96875,0 z m 0,-7 0.96875,0 C 1.3050872,6.879926 1.4734002,5.86279 1.6875,5 L 0.8125,5 C 0.5693749,5.905449 0.3531547,6.933121 0.21875,8 z m 0.875,11 c 0.8252023,2.443993 2.0439826,4 3.40625,4 1.164976,0 2.232108,-1.14382 3.03125,-3 l -2.9375,0 C 4.261951,20.618383 3.894489,21 3.5,21 2.9261102,21 2.390709,20.235537 1.96875,19 l -0.875,0 z m 0,-15 0.875,0 C 2.390709,2.764463 2.9261102,2 3.5,2 3.894489,2 4.261951,2.381617 4.59375,3 l 2.9375,0 C 6.732108,1.14382 5.664976,0 4.5,0 3.1377326,0 1.9189523,1.556007 1.09375,4 z m 3.9375,15 2.875,0 C 8.38188,17.591332 8.710968,15.880254 8.875,14 l -2.96875,0 c -0.14586,2.015652 -0.45092,3.758254 -0.875,5 z m 0,-15 c 0.42408,1.241746 0.72914,2.984348 0.875,5 L 8.875,9 C 8.710968,7.119746 8.38188,5.408668 7.90625,4 l -2.875,0 z"
     id="path2834" />
</svg>
