<?xml version="1.0" encoding="UTF-8" standalone="no"?>
<svg
   xmlns:dc="http://purl.org/dc/elements/1.1/"
   xmlns:cc="http://creativecommons.org/ns#"
   xmlns:rdf="http://www.w3.org/1999/02/22-rdf-syntax-ns#"
   xmlns:svg="http://www.w3.org/2000/svg"
   xmlns="http://www.w3.org/2000/svg"
   xmlns:sodipodi="http://sodipodi.sourceforge.net/DTD/sodipodi-0.dtd"
   xmlns:inkscape="http://www.inkscape.org/namespaces/inkscape"
   version="1.0"
   width="10"
   height="23"
   id="svg2"
   inkscape:version="0.47 r22583"
   sodipodi:docname="02-10-007-03-01-03.svg">
  <defs
     id="defs24">
    <inkscape:perspective
       sodipodi:type="inkscape:persp3d"
       inkscape:vp_x="0 : 5 : 1"
       inkscape:vp_y="0 : 1000 : 0"
       inkscape:vp_z="22 : 5 : 1"
       inkscape:persp3d-origin="11 : 3.3333333 : 1"
       id="perspective26" />
  </defs>
  <sodipodi:namedview
     pagecolor="#ffffff"
     bordercolor="#666666"
     borderopacity="1"
     objecttolerance="10"
     gridtolerance="10"
     guidetolerance="10"
     inkscape:pageopacity="0"
     inkscape:pageshadow="2"
     inkscape:window-width="964"
     inkscape:window-height="789"
     id="namedview22"
     showgrid="true"
     inkscape:zoom="16.644642"
     inkscape:cx="5.000966"
     inkscape:cy="11.502222"
     inkscape:window-x="282"
     inkscape:window-y="0"
     inkscape:window-maximized="0"
     inkscape:current-layer="svg2">
    <inkscape:grid
       type="xygrid"
       id="grid2832" />
  </sodipodi:namedview>
  <metadata
     id="metadata4">
Valerie Sutton's pixel definition of the
ISWA 2010 symbol ID 04-01-008-01-02-01
transformed by Stephen E Slevinski Jr
using line and fill polygon tracing
<rdf:RDF>
  <cc:Work
     rdf:about="">
    <dc:format>image/svg+xml</dc:format>
    <dc:type
       rdf:resource="http://purl.org/dc/dcmitype/StillImage" />
    <dc:title></dc:title>
  </cc:Work>
</rdf:RDF>
</metadata>
  <path
     style="fill:#000000"
     d="M 5,10.109375 4.28125,9.390625 2.5,11.171875 0.71875,9.390625 0,10.109375 l 2.5,2.5 2.5,-2.5 z"
     id="path14" />
  <path
     style="fill:#000000;fill-opacity:1;stroke:none"
     d="M 9.96875,11 C 9.957005,10.315861 9.931531,9.648001 9.875,9 L 8.90625,9 c 0.046717,0.645593 0.052794,1.307202 0.0625,2 l 1,0 z m 0,1 -1,0 c -0.00971,0.692798 -0.015783,1.354407 -0.0625,2 L 9.875,14 C 9.931531,13.351999 9.957005,12.684139 9.96875,12 z M 9.78125,8 C 9.6468453,6.933121 9.4306251,5.905449 9.1875,5 l -0.875,0 c 0.2140998,0.86279 0.3824128,1.879926 0.5,3 l 0.96875,0 z m 0,7 -0.96875,0 c -0.1175872,1.120074 -0.2859002,2.13721 -0.5,3 l 0.875,0 C 9.4306251,17.094551 9.6468453,16.066879 9.78125,15 z M 8.90625,4 C 8.0810477,1.556007 6.8622674,0 5.5,0 4.335024,0 3.267892,1.14382 2.46875,3 l 2.9375,0 C 5.738049,2.381617 6.105511,2 6.5,2 7.0738898,2 7.609291,2.764463 8.03125,4 l 0.875,0 z m 0,15 -0.875,0 C 7.609291,20.235537 7.0738898,21 6.5,21 6.105511,21 5.738049,20.618383 5.40625,20 l -2.9375,0 C 3.267892,21.85618 4.335024,23 5.5,23 6.8622674,23 8.0810477,21.443993 8.90625,19 z M 4.96875,4 2.09375,4 C 1.61812,5.408668 1.289032,7.119746 1.125,9 L 4.09375,9 C 4.23961,6.984348 4.54467,5.241746 4.96875,4 z m 0,15 C 4.54467,17.758254 4.23961,16.015652 4.09375,14 L 1.125,14 c 0.164032,1.880254 0.49312,3.591332 0.96875,5 l 2.875,0 z"
     id="path2834" />
</svg>
