<?xml version="1.0" encoding="UTF-8" standalone="no"?>
<svg
   xmlns:dc="http://purl.org/dc/elements/1.1/"
   xmlns:cc="http://creativecommons.org/ns#"
   xmlns:rdf="http://www.w3.org/1999/02/22-rdf-syntax-ns#"
   xmlns:svg="http://www.w3.org/2000/svg"
   xmlns="http://www.w3.org/2000/svg"
   xmlns:sodipodi="http://sodipodi.sourceforge.net/DTD/sodipodi-0.dtd"
   xmlns:inkscape="http://www.inkscape.org/namespaces/inkscape"
   version="1.0"
   width="21"
   height="26"
   id="svg2"
   inkscape:version="0.47 r22583"
   sodipodi:docname="02-06-007-01-04-01.svg">
  <defs
     id="defs16">
    <inkscape:perspective
       sodipodi:type="inkscape:persp3d"
       inkscape:vp_x="0 : 23 : 1"
       inkscape:vp_y="0 : 1000 : 0"
       inkscape:vp_z="36 : 23 : 1"
       inkscape:persp3d-origin="18 : 15.333333 : 1"
       id="perspective18" />
  </defs>
  <sodipodi:namedview
     pagecolor="#ffffff"
     bordercolor="#666666"
     borderopacity="1"
     objecttolerance="10"
     gridtolerance="10"
     guidetolerance="10"
     inkscape:pageopacity="0"
     inkscape:pageshadow="2"
     inkscape:window-width="964"
     inkscape:window-height="721"
     id="namedview14"
     showgrid="true"
     inkscape:zoom="18.192308"
     inkscape:cx="10.5"
     inkscape:cy="13"
     inkscape:window-x="365"
     inkscape:window-y="0"
     inkscape:window-maximized="0"
     inkscape:current-layer="svg2"
     showborder="true">
    <inkscape:grid
       type="xygrid"
       id="grid2824"
       empspacing="5"
       visible="true"
       enabled="true"
       snapvisiblegridlinesonly="true" />
  </sodipodi:namedview>
  <metadata
     id="metadata4">
Valerie Sutton's pixel definition of the
ISWA 2010 symbol ID 04-01-003-01-01-01
transformed by Stephen E Slevinski Jr
using line and fill polygon tracing
<rdf:RDF>
  <cc:Work
     rdf:about="">
    <dc:format>image/svg+xml</dc:format>
    <dc:type
       rdf:resource="http://purl.org/dc/dcmitype/StillImage" />
    <dc:title></dc:title>
  </cc:Work>
</rdf:RDF>
</metadata>
  <path
     style="fill:#000000;fill-opacity:1;stroke:none"
     d="M 10,0 0,10 0,0 10,0 z"
     id="path3039" />
  <path
     style="fill:#000000;fill-opacity:1;stroke:none"
     d="M 17.46875 0.21875 L 10.78125 6.90625 L 6.78125 3.21875 L 6.0625 3.9375 L 15.9375 13.0625 C 17.204251 14.329251 18 16.067003 18 18 C 18 21.865993 14.865993 25 11 25 C 7.1340068 25 4 21.865993 4 18 C 4 16.067003 4.7957492 14.329251 6.0625 13.0625 L 7.96875 11.15625 L 7.21875 10.46875 L 5.34375 12.34375 C 3.8960348 13.791465 3 15.790861 3 18 C 3 22.418278 6.581722 26 11 26 C 15.418278 26 19 22.418278 19 18 C 19 15.790861 18.103965 13.791465 16.65625 12.34375 L 11.53125 7.59375 L 18.1875 0.9375 L 17.46875 0.21875 z "
     id="path3041" />
  <path
     style="fill:#ffffff;fill-opacity:1;stroke:none"
     d="M 18.1875 0.9375 L 11.53125 7.59375 L 13.6875 9.625 L 20.28125 3.03125 L 18.1875 0.9375 z M 6.0625 3.9375 L 3.9375 6.0625 L 13.84375 15.15625 C 14.567608 15.880108 15 16.89543 15 18 C 15 20.209139 13.209139 22 11 22 C 8.790861 22 7 20.209139 7 18 C 7 16.89543 7.4323924 15.880108 8.15625 15.15625 L 10.15625 13.15625 L 7.96875 11.15625 L 6.0625 13.0625 C 4.7957492 14.329251 4 16.067003 4 18 C 4 21.865993 7.1340068 25 11 25 C 14.865993 25 18 21.865993 18 18 C 18 16.067003 17.204251 14.329251 15.9375 13.0625 L 6.0625 3.9375 z "
     id="path3043" />
  <path
     style="fill:#000000;fill-opacity:1;stroke:none"
     d="M 20.28125 3.03125 L 13.6875 9.625 L 14.4375 10.3125 L 21 3.75 L 20.28125 3.03125 z M 3.9375 6.0625 L 3.21875 6.78125 L 10.15625 13.15625 L 8.15625 15.15625 C 7.4323924 15.880108 7 16.89543 7 18 C 7 20.209139 8.790861 22 11 22 C 13.209139 22 15 20.209139 15 18 C 15 16.89543 14.567608 15.880108 13.84375 15.15625 L 3.9375 6.0625 z M 10.90625 13.84375 L 13.125 15.875 C 13.667893 16.417893 14 17.171573 14 18 C 14 19.656854 12.656854 21 11 21 C 9.3431458 21 8 19.656854 8 18 C 8 17.171573 8.3321068 16.417893 8.875 15.875 L 10.90625 13.84375 z "
     id="path3048" />
</svg>
