<?xml version="1.0" encoding="UTF-8" standalone="no"?>
<svg
   xmlns:dc="http://purl.org/dc/elements/1.1/"
   xmlns:cc="http://creativecommons.org/ns#"
   xmlns:rdf="http://www.w3.org/1999/02/22-rdf-syntax-ns#"
   xmlns:svg="http://www.w3.org/2000/svg"
   xmlns="http://www.w3.org/2000/svg"
   xmlns:sodipodi="http://sodipodi.sourceforge.net/DTD/sodipodi-0.dtd"
   xmlns:inkscape="http://www.inkscape.org/namespaces/inkscape"
   version="1.0"
   width="18"
   height="26"
   id="svg2"
   inkscape:version="0.47 r22583"
   sodipodi:docname="02-06-007-02-02-01.svg">
  <defs
     id="defs16">
    <inkscape:perspective
       sodipodi:type="inkscape:persp3d"
       inkscape:vp_x="0 : 23 : 1"
       inkscape:vp_y="0 : 1000 : 0"
       inkscape:vp_z="36 : 23 : 1"
       inkscape:persp3d-origin="18 : 15.333333 : 1"
       id="perspective18" />
  </defs>
  <sodipodi:namedview
     pagecolor="#ffffff"
     bordercolor="#666666"
     borderopacity="1"
     objecttolerance="10"
     gridtolerance="10"
     guidetolerance="10"
     inkscape:pageopacity="0"
     inkscape:pageshadow="2"
     inkscape:window-width="964"
     inkscape:window-height="721"
     id="namedview14"
     showgrid="true"
     inkscape:zoom="18.192308"
     inkscape:cx="9"
     inkscape:cy="13"
     inkscape:window-x="365"
     inkscape:window-y="0"
     inkscape:window-maximized="0"
     inkscape:current-layer="svg2"
     showborder="true">
    <inkscape:grid
       type="xygrid"
       id="grid2824"
       empspacing="5"
       visible="true"
       enabled="true"
       snapvisiblegridlinesonly="true" />
  </sodipodi:namedview>
  <metadata
     id="metadata4">
Valerie Sutton's pixel definition of the
ISWA 2010 symbol ID 04-01-003-01-01-01
transformed by Stephen E Slevinski Jr
using line and fill polygon tracing
<rdf:RDF>
  <cc:Work
     rdf:about="">
    <dc:format>image/svg+xml</dc:format>
    <dc:type
       rdf:resource="http://purl.org/dc/dcmitype/StillImage" />
    <dc:title></dc:title>
  </cc:Work>
</rdf:RDF>
</metadata>
  <path
     style="fill:#000000;fill-opacity:1;stroke:none"
     d="m 14.46875,0.21875 -6.6875,6.6875 -4,-3.6875 -0.71875,0.71875 9.875,9.125 C 14.204251,14.329251 15,16.067003 15,18 15,21.865993 11.865993,25 8,25 4.1340068,25 1,21.865993 1,18 1,16.067003 1.7957492,14.329251 3.0625,13.0625 l 1.90625,-1.90625 -0.75,-0.6875 -1.875,1.875 C 0.8960348,13.791465 0,15.790861 0,18 c 0,4.418278 3.581722,8 8,8 4.418278,0 8,-3.581722 8,-8 0,-2.209139 -0.896035,-4.208535 -2.34375,-5.65625 l -5.125,-4.75 L 15.1875,0.9375 14.46875,0.21875 z"
     id="path3041" />
  <path
     style="fill:#ffffff;fill-opacity:1;stroke:none"
     d="M 15.1875,0.9375 8.53125,7.59375 10.6875,9.625 17.28125,3.03125 15.1875,0.9375 z m -12.125,3 -2.125,2.125 9.90625,9.09375 C 11.567608,15.880108 12,16.89543 12,18 12,20.209139 10.209139,22 8,22 5.790861,22 4,20.209139 4,18 4,16.89543 4.4323924,15.880108 5.15625,15.15625 l 2,-2 -2.1875,-2 L 3.0625,13.0625 C 1.7957492,14.329251 1,16.067003 1,18 c 0,3.865993 3.1340068,7 7,7 3.865993,0 7,-3.134007 7,-7 0,-1.932997 -0.795749,-3.670749 -2.0625,-4.9375 l -9.875,-9.125 z"
     id="path3043" />
  <path
     style="fill:#000000;fill-opacity:1;stroke:none"
     d="M 17.28125,3.03125 10.6875,9.625 11.4375,10.3125 18,3.75 17.28125,3.03125 z M 0.9375,6.0625 0.21875,6.78125 l 6.9375,6.375 -2,2 C 4.4323924,15.880108 4,16.89543 4,18 c 0,2.209139 1.790861,4 4,4 2.209139,0 4,-1.790861 4,-4 0,-1.10457 -0.432392,-2.119892 -1.15625,-2.84375 L 0.9375,6.0625 z M 7.90625,13.84375 10.125,15.875 C 10.667893,16.417893 11,17.171573 11,18 11,19.656854 9.656854,21 8,21 6.3431458,21 5,19.656854 5,18 5,17.171573 5.3321068,16.417893 5.875,15.875 l 2.03125,-2.03125 z"
     id="path3048" />
</svg>
