<?xml version="1.0" encoding="UTF-8" standalone="no"?>
<!-- Created with Inkscape (http://www.inkscape.org/) -->

<svg
   xmlns:dc="http://purl.org/dc/elements/1.1/"
   xmlns:cc="http://creativecommons.org/ns#"
   xmlns:rdf="http://www.w3.org/1999/02/22-rdf-syntax-ns#"
   xmlns:svg="http://www.w3.org/2000/svg"
   xmlns="http://www.w3.org/2000/svg"
   xmlns:sodipodi="http://sodipodi.sourceforge.net/DTD/sodipodi-0.dtd"
   xmlns:inkscape="http://www.inkscape.org/namespaces/inkscape"
   width="24"
   height="23"
   id="svg3198"
   sodipodi:version="0.32"
   inkscape:version="0.47 r22583"
   version="1.0"
   sodipodi:docname="01-06-012-01-03.svg"
   inkscape:output_extension="org.inkscape.output.svg.inkscape">
  <defs
     id="defs3200">
    <inkscape:perspective
       sodipodi:type="inkscape:persp3d"
       inkscape:vp_x="0 : 526.18109 : 1"
       inkscape:vp_y="0 : 1000 : 0"
       inkscape:vp_z="744.09448 : 526.18109 : 1"
       inkscape:persp3d-origin="372.04724 : 350.78739 : 1"
       id="perspective3206" />
  </defs>
  <sodipodi:namedview
     id="namedview3727"
     pagecolor="#ffffff"
     bordercolor="#666666"
     borderopacity="1.0"
     gridtolerance="10000"
     guidetolerance="10"
     objecttolerance="10"
     inkscape:pageopacity="0.0"
     inkscape:pageshadow="2"
     inkscape:zoom="17.158552"
     inkscape:cx="10.075208"
     inkscape:cy="8.4422359"
     inkscape:document-units="px"
     inkscape:current-layer=""
     showgrid="true"
     inkscape:window-width="1099"
     inkscape:window-height="780"
     inkscape:window-x="4"
     inkscape:window-y="0"
     showborder="false"
     inkscape:window-maximized="0">
    <inkscape:grid
       type="xygrid"
       id="grid3208"
       visible="true"
       enabled="true"
       empspacing="5"
       snapvisiblegridlinesonly="true" />
  </sodipodi:namedview>
  <metadata
     id="metadata3203">
    <rdf:RDF>
      <cc:Work
         rdf:about="">
        <dc:format>image/svg+xml</dc:format>
        <dc:type
           rdf:resource="http://purl.org/dc/dcmitype/StillImage" />
        <dc:title></dc:title>
      </cc:Work>
    </rdf:RDF>
  </metadata>
  <g
     inkscape:label="Layer 1"
     inkscape:groupmode="layer"
     id="">
    <rect
       style="fill:#000000;fill-opacity:1;stroke:none"
       id="base"
       width="15"
       height="13"
       x="9"
       y="10" />
    <rect
       style="fill:#ffffff;fill-opacity:1;stroke:none"
       id="fill"
       width="11"
       height="9"
       x="11"
       y="12" />
    <path
       style="fill:#000000;fill-opacity:1;stroke:none"
       d="M 0 9 L 0 10 C -0.00284 10.06184 0 14 4 14 L 8 14 L 8 12 L 4 12 C 4 12 2 12 2 10 L 2 9 L 0 9 z "
       id="thumb" />
    <path
       style="fill:#000000;fill-opacity:1;stroke:none"
       d="M 4,4 C 0,4 0,8 0,8 L 0,9 2,9 2,8 C 2,6 4,6 4,6 l 3,0 c 2,0 2,2 2,2 l 2,0 C 11,4 7,4 7,4 L 4,4 z"
       id="index" />
    <path
       style="fill:#000000;fill-opacity:1;stroke:none"
       d="M 8,1 C 5.3,1 4.4414375,2.815375 4.15625,4 L 6.25,4 C 6.7759571,3.0194365 8,3 8,3 l 2,0 c 2,0 2,2 2,2 l 0,3 2,0 0,-3 C 14,1 10,1 10,1 L 8,1 z"
       id="middle" />
    <path
       style="fill:#000000;fill-opacity:1;stroke:none"
       d="M 12,0 C 10.702489,0 9.8422689,0.43128301 9.25,1 L 10,1 c 0,0 1.605912,-0.004667 2.78125,1 L 14,2 c 2,0 2,2 2,2 l 0,4 2,0 0,-4 C 18,0 14,0 14,0 l -2,0 z"
       id="ring" />
  </g>
</svg>
