<?xml version="1.0" encoding="UTF-8" standalone="no"?>
<svg
   xmlns:dc="http://purl.org/dc/elements/1.1/"
   xmlns:cc="http://creativecommons.org/ns#"
   xmlns:rdf="http://www.w3.org/1999/02/22-rdf-syntax-ns#"
   xmlns:svg="http://www.w3.org/2000/svg"
   xmlns="http://www.w3.org/2000/svg"
   xmlns:sodipodi="http://sodipodi.sourceforge.net/DTD/sodipodi-0.dtd"
   xmlns:inkscape="http://www.inkscape.org/namespaces/inkscape"
   version="1.0"
   width="23"
   height="23"
   id="svg2"
   inkscape:version="0.47 r22583"
   sodipodi:docname="02-06-003-01-02-01.svg">
  <defs
     id="defs16">
    <inkscape:perspective
       sodipodi:type="inkscape:persp3d"
       inkscape:vp_x="0 : 23 : 1"
       inkscape:vp_y="0 : 1000 : 0"
       inkscape:vp_z="36 : 23 : 1"
       inkscape:persp3d-origin="18 : 15.333333 : 1"
       id="perspective18" />
  </defs>
  <sodipodi:namedview
     pagecolor="#ffffff"
     bordercolor="#666666"
     borderopacity="1"
     objecttolerance="10"
     gridtolerance="10"
     guidetolerance="10"
     inkscape:pageopacity="0"
     inkscape:pageshadow="2"
     inkscape:window-width="964"
     inkscape:window-height="721"
     id="namedview14"
     showgrid="true"
     inkscape:zoom="20.565217"
     inkscape:cx="11.5"
     inkscape:cy="11.5"
     inkscape:window-x="365"
     inkscape:window-y="0"
     inkscape:window-maximized="0"
     inkscape:current-layer="svg2"
     showborder="true">
    <inkscape:grid
       type="xygrid"
       id="grid2824"
       empspacing="5"
       visible="true"
       enabled="true"
       snapvisiblegridlinesonly="true" />
  </sodipodi:namedview>
  <metadata
     id="metadata4">
Valerie Sutton's pixel definition of the
ISWA 2010 symbol ID 04-01-003-01-01-01
transformed by Stephen E Slevinski Jr
using line and fill polygon tracing
<rdf:RDF>
  <cc:Work
     rdf:about="">
    <dc:format>image/svg+xml</dc:format>
    <dc:type
       rdf:resource="http://purl.org/dc/dcmitype/StillImage" />
    <dc:title></dc:title>
  </cc:Work>
</rdf:RDF>
</metadata>
  <path
     style="fill:#000000;fill-opacity:1;stroke:none"
     d="m 12,0.03125 0,1 C 17.562668,1.2966764 22,5.8716054 22,11.5 22,17.29899 17.29899,22 11.5,22 5.7010101,22 1,17.29899 1,11.5 L 1,10 0,10 0,11.5 C 0,17.851275 5.1487254,23 11.5,23 17.851275,23 23,17.851275 23,11.5 23,5.3159508 18.119728,0.2925737 12,0.03125 z"
     id="path2821" />
  <path
     style="fill:#ffffff;fill-opacity:1;stroke:none"
     d="m 12,1.03125 0,3 C 15.912058,4.285396 19,7.523698 19,11.5 19,15.642136 15.642136,19 11.5,19 7.3578644,19 4,15.642136 4,11.5 L 4,10 1,10 1,11.5 C 1,17.29899 5.7010101,22 11.5,22 17.29899,22 22,17.29899 22,11.5 22,5.8716054 17.562668,1.2966764 12,1.03125 z"
     id="path2823" />
  <path
     style="fill:#000000;fill-opacity:1;stroke:none"
     d="m 12,4.03125 0,1 C 15.352269,5.2905629 18,8.081215 18,11.5 18,15.089851 15.089851,18 11.5,18 7.9101491,18 5,15.089851 5,11.5 L 5,10 4,10 4,11.5 C 4,15.642136 7.3578644,19 11.5,19 15.642136,19 19,15.642136 19,11.5 19,7.523698 15.912058,4.285396 12,4.03125 z"
     id="path2830" />
</svg>
