<?xml version="1.0" encoding="UTF-8" standalone="no"?>
<svg
   xmlns:dc="http://purl.org/dc/elements/1.1/"
   xmlns:cc="http://creativecommons.org/ns#"
   xmlns:rdf="http://www.w3.org/1999/02/22-rdf-syntax-ns#"
   xmlns:svg="http://www.w3.org/2000/svg"
   xmlns="http://www.w3.org/2000/svg"
   xmlns:sodipodi="http://sodipodi.sourceforge.net/DTD/sodipodi-0.dtd"
   xmlns:inkscape="http://www.inkscape.org/namespaces/inkscape"
   version="1.0"
   width="24"
   height="34"
   id="svg2"
   inkscape:version="0.47 r22583"
   sodipodi:docname="02-06-007-03-02-01.svg">
  <defs
     id="defs16">
    <inkscape:perspective
       sodipodi:type="inkscape:persp3d"
       inkscape:vp_x="0 : 23 : 1"
       inkscape:vp_y="0 : 1000 : 0"
       inkscape:vp_z="36 : 23 : 1"
       inkscape:persp3d-origin="18 : 15.333333 : 1"
       id="perspective18" />
  </defs>
  <sodipodi:namedview
     pagecolor="#ffffff"
     bordercolor="#666666"
     borderopacity="1"
     objecttolerance="10"
     gridtolerance="10"
     guidetolerance="10"
     inkscape:pageopacity="0"
     inkscape:pageshadow="2"
     inkscape:window-width="964"
     inkscape:window-height="721"
     id="namedview14"
     showgrid="true"
     inkscape:zoom="13.911765"
     inkscape:cx="12"
     inkscape:cy="17"
     inkscape:window-x="365"
     inkscape:window-y="0"
     inkscape:window-maximized="0"
     inkscape:current-layer="svg2"
     showborder="true">
    <inkscape:grid
       type="xygrid"
       id="grid2824"
       empspacing="5"
       visible="true"
       enabled="true"
       snapvisiblegridlinesonly="true" />
  </sodipodi:namedview>
  <metadata
     id="metadata4">
Valerie Sutton's pixel definition of the
ISWA 2010 symbol ID 04-01-003-01-01-01
transformed by Stephen E Slevinski Jr
using line and fill polygon tracing
<rdf:RDF>
  <cc:Work
     rdf:about="">
    <dc:format>image/svg+xml</dc:format>
    <dc:type
       rdf:resource="http://purl.org/dc/dcmitype/StillImage" />
    <dc:title></dc:title>
  </cc:Work>
</rdf:RDF>
</metadata>
  <path
     style="fill:#000000;fill-opacity:1;stroke:none"
     d="M 19.75,0.40625 11.03125,9.09375 5.125,3.875 4.0625,4.9375 17.875,17.125 c 1.62868,1.62868 2.625,3.889719 2.625,6.375 0,4.970563 -4.029437,9 -9,9 -4.9705627,0 -9,-4.029437 -9,-9 0,-2.485281 0.9963203,-4.74632 2.625,-6.375 l 2.78125,-2.78125 -1.125,-1 L 4.0625,16.0625 C 2.1623737,17.962626 1,20.600505 1,23.5 1,29.29899 5.7010101,34 11.5,34 17.29899,34 22,29.29899 22,23.5 22,20.600505 20.837626,17.962626 18.9375,16.0625 L 12.15625,10.09375 20.8125,1.46875 19.75,0.40625 z"
     id="path3244" />
  <path
     style="fill:#ffffff;fill-opacity:1;stroke:none"
     d="m 20.8125,1.46875 -8.65625,8.625 2.28125,2 8.5,-8.5 -2.125,-2.125 z M 4.0625,4.9375 1.9375,7.0625 15.75,19.25 c 1.085787,1.085787 1.75,2.593146 1.75,4.25 0,3.313708 -2.686292,6 -6,6 -3.313708,0 -6,-2.686292 -6,-6 0,-1.656854 0.6642135,-3.164213 1.75,-4.25 l 2.9375,-2.90625 -2.28125,-2 L 5.125,17.125 C 3.4963203,18.75368 2.5,21.014719 2.5,23.5 c 0,4.970563 4.0294373,9 9,9 4.970563,0 9,-4.029437 9,-9 0,-2.485281 -0.99632,-4.74632 -2.625,-6.375 L 4.0625,4.9375 z"
     id="path3246" />
  <path
     style="fill:#000000;fill-opacity:1;stroke:none"
     d="m 22.9375,3.59375 -8.5,8.5 1.125,0.96875 L 24,4.65625 22.9375,3.59375 z M 1.9375,7.0625 0.875,8.125 10.1875,16.34375 7.25,19.25 C 6.1642135,20.335787 5.5,21.843146 5.5,23.5 c 0,3.313708 2.686292,6 6,6 3.313708,0 6,-2.686292 6,-6 0,-1.656854 -0.664213,-3.164213 -1.75,-4.25 L 1.9375,7.0625 z m 9.375,10.25 3.375,3 C 15.50184,21.12684 16,22.257359 16,23.5 16,25.985281 13.985281,28 11.5,28 9.014719,28 7,25.985281 7,23.5 7,22.257359 7.49816,21.12684 8.3125,20.3125 l 3,-3 z"
     id="path3251" />
</svg>
