<?xml version="1.0" encoding="UTF-8" standalone="no"?>
<svg
   xmlns:dc="http://purl.org/dc/elements/1.1/"
   xmlns:cc="http://creativecommons.org/ns#"
   xmlns:rdf="http://www.w3.org/1999/02/22-rdf-syntax-ns#"
   xmlns:svg="http://www.w3.org/2000/svg"
   xmlns="http://www.w3.org/2000/svg"
   xmlns:sodipodi="http://sodipodi.sourceforge.net/DTD/sodipodi-0.dtd"
   xmlns:inkscape="http://www.inkscape.org/namespaces/inkscape"
   version="1.0"
   width="27"
   height="34"
   id="svg2"
   inkscape:version="0.47 r22583"
   sodipodi:docname="02-06-007-02-04-01.svg">
  <defs
     id="defs16">
    <inkscape:perspective
       sodipodi:type="inkscape:persp3d"
       inkscape:vp_x="0 : 23 : 1"
       inkscape:vp_y="0 : 1000 : 0"
       inkscape:vp_z="36 : 23 : 1"
       inkscape:persp3d-origin="18 : 15.333333 : 1"
       id="perspective18" />
  </defs>
  <sodipodi:namedview
     pagecolor="#ffffff"
     bordercolor="#666666"
     borderopacity="1"
     objecttolerance="10"
     gridtolerance="10"
     guidetolerance="10"
     inkscape:pageopacity="0"
     inkscape:pageshadow="2"
     inkscape:window-width="964"
     inkscape:window-height="721"
     id="namedview14"
     showgrid="true"
     inkscape:zoom="13.911765"
     inkscape:cx="13.5"
     inkscape:cy="17"
     inkscape:window-x="365"
     inkscape:window-y="0"
     inkscape:window-maximized="0"
     inkscape:current-layer="svg2"
     showborder="true">
    <inkscape:grid
       type="xygrid"
       id="grid2824"
       empspacing="5"
       visible="true"
       enabled="true"
       snapvisiblegridlinesonly="true" />
  </sodipodi:namedview>
  <metadata
     id="metadata4">
Valerie Sutton's pixel definition of the
ISWA 2010 symbol ID 04-01-003-01-01-01
transformed by Stephen E Slevinski Jr
using line and fill polygon tracing
<rdf:RDF>
  <cc:Work
     rdf:about="">
    <dc:format>image/svg+xml</dc:format>
    <dc:type
       rdf:resource="http://purl.org/dc/dcmitype/StillImage" />
    <dc:title></dc:title>
  </cc:Work>
</rdf:RDF>
</metadata>
  <path
     style="fill:#000000;fill-opacity:1;stroke:none"
     d="M 12,0 0,12 0,0 12,0 z"
     id="path3239" />
  <path
     style="fill:#000000;fill-opacity:1;stroke:none"
     d="M 22.75 0.40625 L 14.03125 9.09375 L 8.125 3.875 L 7.0625 4.9375 L 20.875 17.125 C 22.50368 18.75368 23.5 21.014719 23.5 23.5 C 23.5 28.470563 19.470563 32.5 14.5 32.5 C 9.5294373 32.5 5.5 28.470563 5.5 23.5 C 5.5 21.014719 6.4963203 18.75368 8.125 17.125 L 10.90625 14.34375 L 9.78125 13.34375 L 7.0625 16.0625 C 5.1623737 17.962626 4 20.600505 4 23.5 C 4 29.29899 8.7010101 34 14.5 34 C 20.29899 34 25 29.29899 25 23.5 C 25 20.600505 23.837626 17.962626 21.9375 16.0625 L 15.15625 10.09375 L 23.8125 1.46875 L 22.75 0.40625 z "
     id="path3244" />
  <path
     style="fill:#ffffff;fill-opacity:1;stroke:none"
     d="M 23.8125 1.46875 L 15.15625 10.09375 L 17.4375 12.09375 L 25.9375 3.59375 L 23.8125 1.46875 z M 7.0625 4.9375 L 4.9375 7.0625 L 18.75 19.25 C 19.835787 20.335787 20.5 21.843146 20.5 23.5 C 20.5 26.813708 17.813708 29.5 14.5 29.5 C 11.186292 29.5 8.5 26.813708 8.5 23.5 C 8.5 21.843146 9.1642135 20.335787 10.25 19.25 L 13.1875 16.34375 L 10.90625 14.34375 L 8.125 17.125 C 6.4963203 18.75368 5.5 21.014719 5.5 23.5 C 5.5 28.470563 9.5294373 32.5 14.5 32.5 C 19.470563 32.5 23.5 28.470563 23.5 23.5 C 23.5 21.014719 22.50368 18.75368 20.875 17.125 L 7.0625 4.9375 z "
     id="path3246" />
  <path
     style="fill:#000000;fill-opacity:1;stroke:none"
     d="M 25.9375 3.59375 L 17.4375 12.09375 L 18.5625 13.0625 L 27 4.65625 L 25.9375 3.59375 z M 4.9375 7.0625 L 3.875 8.125 L 13.1875 16.34375 L 10.25 19.25 C 9.1642135 20.335787 8.5 21.843146 8.5 23.5 C 8.5 26.813708 11.186292 29.5 14.5 29.5 C 17.813708 29.5 20.5 26.813708 20.5 23.5 C 20.5 21.843146 19.835787 20.335787 18.75 19.25 L 4.9375 7.0625 z M 14.3125 17.3125 L 17.6875 20.3125 C 18.50184 21.12684 19 22.257359 19 23.5 C 19 25.985281 16.985281 28 14.5 28 C 12.014719 28 10 25.985281 10 23.5 C 10 22.257359 10.49816 21.12684 11.3125 20.3125 L 14.3125 17.3125 z "
     id="path3251" />
</svg>
