<?xml version="1.0" encoding="UTF-8" standalone="no"?>
<svg
   xmlns:dc="http://purl.org/dc/elements/1.1/"
   xmlns:cc="http://creativecommons.org/ns#"
   xmlns:rdf="http://www.w3.org/1999/02/22-rdf-syntax-ns#"
   xmlns:svg="http://www.w3.org/2000/svg"
   xmlns="http://www.w3.org/2000/svg"
   xmlns:sodipodi="http://sodipodi.sourceforge.net/DTD/sodipodi-0.dtd"
   xmlns:inkscape="http://www.inkscape.org/namespaces/inkscape"
   version="1.0"
   width="11"
   height="10"
   id="svg2"
   inkscape:version="0.47 r22583"
   sodipodi:docname="04-05-001-04-02-07.svg">
  <defs
     id="defs14">
    <inkscape:perspective
       sodipodi:type="inkscape:persp3d"
       inkscape:vp_x="0 : 17.5 : 1"
       inkscape:vp_y="0 : 1000 : 0"
       inkscape:vp_z="36 : 17.5 : 1"
       inkscape:persp3d-origin="18 : 11.666667 : 1"
       id="perspective16" />
  </defs>
  <sodipodi:namedview
     pagecolor="#ffffff"
     bordercolor="#666666"
     borderopacity="1"
     objecttolerance="10"
     gridtolerance="10"
     guidetolerance="10"
     inkscape:pageopacity="0"
     inkscape:pageshadow="2"
     inkscape:window-width="993"
     inkscape:window-height="789"
     id="namedview12"
     showgrid="true"
     inkscape:zoom="15.487127"
     inkscape:cx="7.6688392"
     inkscape:cy="4.586049"
     inkscape:window-x="209"
     inkscape:window-y="0"
     inkscape:window-maximized="0"
     inkscape:current-layer="svg2">
    <inkscape:grid
       type="xygrid"
       id="grid2822" />
  </sodipodi:namedview>
  <metadata
     id="metadata4">
Valerie Sutton's pixel definition of the
ISWA 2010 symbol ID 04-03-001-01-01-01
transformed by Stephen E Slevinski Jr
using line and fill polygon tracing
<rdf:RDF>
  <cc:Work
     rdf:about="">
    <dc:format>image/svg+xml</dc:format>
    <dc:type
       rdf:resource="http://purl.org/dc/dcmitype/StillImage" />
    <dc:title />
  </cc:Work>
</rdf:RDF>
</metadata>
  <path
     style="fill:#000000;fill-opacity:1;stroke:none"
     d="M 9.5,5 C 9.5,4.7448203 9.451925,4.4919023 9.40625,4.25 l -3.0625,0 C 5.0397747,4.25 3.53125,1.53125 3.53125,1.53125 2.3174548,2.2180449 1.5,3.5058411 1.5,5 c 0,1.4941589 0.8174548,2.7819551 2.03125,3.46875 0,0 1.5085247,-2.71875 2.8125,-2.71875 l 3.0625,0 C 9.4519247,5.5080977 9.5,5.2551797 9.5,5 z"
     id="path2815" />
  <path
     style="fill:#000000;fill-opacity:1;stroke:none"
     d="M 5.5000002,-1.0178654e-7 C 2.7385766,-1.3007081e-7 0.50000028,2.2385763 0.50000028,4.9999998 0.49999985,7.7614243 2.7385767,9.9999998 5.5000001,10 8.2614235,9.9999997 10.5,7.7614245 10.5,4.9999999 10.5,2.2385763 8.2614241,-8.7644405e-8 5.5000002,-1.0178654e-7 z m 0,1.00000002178654 c 2.2091391,-3e-8 4.0000002,1.79086098 4.0000001,3.99999998 -10e-8,2.2091388 -1.7908611,4 -4.0000002,3.9999999 C 3.2908614,8.9999999 1.5000002,7.2091388 1.5000004,5 1.5000002,2.7908609 3.2908613,0.99999992 5.5000002,0.99999992 z"
     id="path2813" />
</svg>
