<?xml version="1.0" encoding="UTF-8" standalone="no"?>
<svg
   xmlns:dc="http://purl.org/dc/elements/1.1/"
   xmlns:cc="http://creativecommons.org/ns#"
   xmlns:rdf="http://www.w3.org/1999/02/22-rdf-syntax-ns#"
   xmlns:svg="http://www.w3.org/2000/svg"
   xmlns="http://www.w3.org/2000/svg"
   xmlns:sodipodi="http://sodipodi.sourceforge.net/DTD/sodipodi-0.dtd"
   xmlns:inkscape="http://www.inkscape.org/namespaces/inkscape"
   version="1.0"
   width="11"
   height="10"
   id="svg2"
   inkscape:version="0.47 r22583"
   sodipodi:docname="04-05-001-04-02-02.svg">
  <defs
     id="defs14">
    <inkscape:perspective
       sodipodi:type="inkscape:persp3d"
       inkscape:vp_x="0 : 17.5 : 1"
       inkscape:vp_y="0 : 1000 : 0"
       inkscape:vp_z="36 : 17.5 : 1"
       inkscape:persp3d-origin="18 : 11.666667 : 1"
       id="perspective16" />
  </defs>
  <sodipodi:namedview
     pagecolor="#ffffff"
     bordercolor="#666666"
     borderopacity="1"
     objecttolerance="10"
     gridtolerance="10"
     guidetolerance="10"
     inkscape:pageopacity="0"
     inkscape:pageshadow="2"
     inkscape:window-width="993"
     inkscape:window-height="789"
     id="namedview12"
     showgrid="true"
     inkscape:zoom="15.487127"
     inkscape:cx="7.6688392"
     inkscape:cy="4.586049"
     inkscape:window-x="209"
     inkscape:window-y="0"
     inkscape:window-maximized="0"
     inkscape:current-layer="svg2">
    <inkscape:grid
       type="xygrid"
       id="grid2822" />
  </sodipodi:namedview>
  <metadata
     id="metadata4">
Valerie Sutton's pixel definition of the
ISWA 2010 symbol ID 04-03-001-01-01-01
transformed by Stephen E Slevinski Jr
using line and fill polygon tracing
<rdf:RDF>
  <cc:Work
     rdf:about="">
    <dc:format>image/svg+xml</dc:format>
    <dc:type
       rdf:resource="http://purl.org/dc/dcmitype/StillImage" />
    <dc:title />
  </cc:Work>
</rdf:RDF>
</metadata>
  <path
     style="fill:#000000;fill-opacity:1;stroke:none"
     d="M 2.6715729,2.1715729 C 2.4911336,2.3520122 2.3462877,2.5648464 2.2075341,2.7681942 L 4.3730486,4.9337087 C 5.2950983,5.8557585 4.4393398,8.8448931 4.4393398,8.8448931 5.78326,9.2175386 7.2718972,8.884957 8.3284271,7.8284271 9.384957,6.7718972 9.7175386,5.28326 9.3448931,3.9393398 c 0,0 -2.9891346,0.8557585 -3.9111844,-0.066291 L 3.2681942,1.7075341 C 3.0648466,1.8462879 2.8520122,1.9911336 2.6715729,2.1715729 z"
     id="path2815" />
  <path
     style="fill:#000000;fill-opacity:1;stroke:none"
     d="M 5.5000001,-1.8015915e-8 C 2.7385764,-3.9229119e-8 0.50000005,2.2385763 0.50000007,5 0.49999972,7.7614243 2.7385766,9.9999998 5.5000001,10 8.2614235,9.9999998 10.5,7.7614243 10.5,5 10.5,2.2385763 8.2614238,-3.9229118e-8 5.5000001,-1.8015914e-8 z M 5.5000001,1 c 2.2091389,-6e-8 4,1.790861 3.9999999,4 10e-8,2.2091389 -1.790861,4 -3.9999999,3.9999999 C 3.2908611,9 1.5,7.2091389 1.5000001,5 c -1e-7,-2.209139 1.790861,-4.00000006 4,-4 z"
     id="path2813" />
</svg>
