<?xml version="1.0" encoding="UTF-8" standalone="no"?>
<svg
   xmlns:dc="http://purl.org/dc/elements/1.1/"
   xmlns:cc="http://creativecommons.org/ns#"
   xmlns:rdf="http://www.w3.org/1999/02/22-rdf-syntax-ns#"
   xmlns:svg="http://www.w3.org/2000/svg"
   xmlns="http://www.w3.org/2000/svg"
   xmlns:sodipodi="http://sodipodi.sourceforge.net/DTD/sodipodi-0.dtd"
   xmlns:inkscape="http://www.inkscape.org/namespaces/inkscape"
   version="1.0"
   width="11"
   height="10"
   id="svg2"
   inkscape:version="0.47 r22583"
   sodipodi:docname="04-05-001-04-02-06.svg">
  <defs
     id="defs14">
    <inkscape:perspective
       sodipodi:type="inkscape:persp3d"
       inkscape:vp_x="0 : 17.5 : 1"
       inkscape:vp_y="0 : 1000 : 0"
       inkscape:vp_z="36 : 17.5 : 1"
       inkscape:persp3d-origin="18 : 11.666667 : 1"
       id="perspective16" />
  </defs>
  <sodipodi:namedview
     pagecolor="#ffffff"
     bordercolor="#666666"
     borderopacity="1"
     objecttolerance="10"
     gridtolerance="10"
     guidetolerance="10"
     inkscape:pageopacity="0"
     inkscape:pageshadow="2"
     inkscape:window-width="993"
     inkscape:window-height="789"
     id="namedview12"
     showgrid="true"
     inkscape:zoom="15.487127"
     inkscape:cx="7.6688392"
     inkscape:cy="4.586049"
     inkscape:window-x="209"
     inkscape:window-y="0"
     inkscape:window-maximized="0"
     inkscape:current-layer="svg2">
    <inkscape:grid
       type="xygrid"
       id="grid2822" />
  </sodipodi:namedview>
  <metadata
     id="metadata4">
Valerie Sutton's pixel definition of the
ISWA 2010 symbol ID 04-03-001-01-01-01
transformed by Stephen E Slevinski Jr
using line and fill polygon tracing
<rdf:RDF>
  <cc:Work
     rdf:about="">
    <dc:format>image/svg+xml</dc:format>
    <dc:type
       rdf:resource="http://purl.org/dc/dcmitype/StillImage" />
    <dc:title />
  </cc:Work>
</rdf:RDF>
</metadata>
  <path
     style="fill:#000000;fill-opacity:1;stroke:none"
     d="M 8.3284271,7.8284271 C 8.5088664,7.6479878 8.6537123,7.4351536 8.7924659,7.2318058 L 6.6269514,5.0662913 C 5.7049017,4.1442415 6.5606602,1.1551069 6.5606602,1.1551069 5.21674,0.78246139 3.7281028,1.115043 2.6715729,2.1715729 1.615043,3.2281028 1.2824614,4.71674 1.6551069,6.0606602 c 0,0 2.9891346,-0.8557585 3.9111844,0.066291 L 7.7318058,8.2924659 C 7.9351534,8.1537121 8.1479878,8.0088664 8.3284271,7.8284271 z"
     id="path2815" />
  <path
     style="fill:#000000;fill-opacity:1;stroke:none"
     d="M 5.5000002,-9.2505766e-8 C 2.7385766,-1.2786111e-7 0.50000023,2.2385763 0.50000027,4.9999998 0.49999985,7.7614243 2.7385767,9.9999998 5.5000001,10 8.2614235,9.9999997 10.5,7.7614245 10.5,4.9999999 10.5,2.2385763 8.2614241,-6.4221493e-8 5.5000002,-9.2505765e-8 z m 0,1.000000022505766 c 2.209139,-7e-8 4.0000002,1.79086097 4.0000001,3.99999997 -10e-8,2.2091388 -1.7908612,4 -4.0000002,3.9999999 C 3.2908614,8.9999999 1.5000002,7.2091388 1.5000003,5 c -2e-7,-2.2091391 1.790861,-4.00000007 3.9999999,-4.00000007 z"
     id="path2813" />
</svg>
