<?xml version="1.0" encoding="UTF-8" standalone="no"?>
<svg
   xmlns:dc="http://purl.org/dc/elements/1.1/"
   xmlns:cc="http://creativecommons.org/ns#"
   xmlns:rdf="http://www.w3.org/1999/02/22-rdf-syntax-ns#"
   xmlns:svg="http://www.w3.org/2000/svg"
   xmlns="http://www.w3.org/2000/svg"
   xmlns:sodipodi="http://sodipodi.sourceforge.net/DTD/sodipodi-0.dtd"
   xmlns:inkscape="http://www.inkscape.org/namespaces/inkscape"
   version="1.0"
   width="43"
   height="35"
   id="svg2"
   inkscape:version="0.47 r22583"
   sodipodi:docname="04-01-001-01-01-03.svg">
  <defs
     id="defs18">
    <inkscape:perspective
       sodipodi:type="inkscape:persp3d"
       inkscape:vp_x="0 : 17.5 : 1"
       inkscape:vp_y="0 : 1000 : 0"
       inkscape:vp_z="44 : 17.5 : 1"
       inkscape:persp3d-origin="22 : 11.666667 : 1"
       id="perspective20" />
  </defs>
  <sodipodi:namedview
     pagecolor="#ffffff"
     bordercolor="#666666"
     borderopacity="1"
     objecttolerance="10"
     gridtolerance="10"
     guidetolerance="10"
     inkscape:pageopacity="0"
     inkscape:pageshadow="2"
     inkscape:window-width="997"
     inkscape:window-height="792"
     id="namedview16"
     showgrid="true"
     inkscape:zoom="11.737555"
     inkscape:cx="19.70354"
     inkscape:cy="17.927702"
     inkscape:window-x="0"
     inkscape:window-y="0"
     inkscape:window-maximized="0"
     inkscape:current-layer="svg2">
    <inkscape:grid
       type="xygrid"
       id="grid2826" />
  </sodipodi:namedview>
  <metadata
     id="metadata4">
Valerie Sutton's pixel definition of the
ISWA 2010 symbol ID 04-01-001-01-01-03
transformed by Stephen E Slevinski Jr
using line and fill polygon tracing
<rdf:RDF>
  <cc:Work
     rdf:about="">
    <dc:format>image/svg+xml</dc:format>
    <dc:type
       rdf:resource="http://purl.org/dc/dcmitype/StillImage" />
    <dc:title />
  </cc:Work>
</rdf:RDF>
</metadata>
  <path
     style="fill:#000000;fill-opacity:1;stroke:none"
     d="M 21.5,0 C 11.835017,0 4,7.8350169 4,17.5 4,27.164983 11.835017,35 21.5,35 31.164983,35 39,27.164983 39,17.5 39,7.8350169 31.164983,0 21.5,0 z m 0,1.5 c 8.836556,0 16,7.163444 16,16 0,8.836556 -7.163444,16 -16,16 -8.836556,0 -16,-7.163444 -16,-16 0,-8.836556 7.163444,-16 16,-16 z"
     id="path2818" />
  <path
     style="fill:#000000;fill-opacity:1;stroke:none"
     d="M 39 5 L 37.78125 5.9375 C 40.103853 9.2031505 41.5 13.186757 41.5 17.5 C 41.5 21.813243 40.103853 25.79685 37.78125 29.0625 L 39 30 C 41.519529 26.476189 43 22.161278 43 17.5 C 43 12.838721 41.519529 8.5238112 39 5 z "
     id="path2964" />
  <path
     style="fill:#000000;fill-opacity:1;stroke:none"
     d="M 4 5 C 1.4804714 8.5238112 0 12.838721 0 17.5 C 0 22.161278 1.4804714 26.476189 4 30 L 5.21875 29.0625 C 2.896147 25.79685 1.5 21.813243 1.5 17.5 C 1.5 13.186757 2.896147 9.2031505 5.21875 5.9375 L 4 5 z "
     id="path2959" />
</svg>
