<?xml version="1.0" encoding="UTF-8" standalone="no"?>
<svg
   xmlns:dc="http://purl.org/dc/elements/1.1/"
   xmlns:cc="http://creativecommons.org/ns#"
   xmlns:rdf="http://www.w3.org/1999/02/22-rdf-syntax-ns#"
   xmlns:svg="http://www.w3.org/2000/svg"
   xmlns="http://www.w3.org/2000/svg"
   xmlns:sodipodi="http://sodipodi.sourceforge.net/DTD/sodipodi-0.dtd"
   xmlns:inkscape="http://www.inkscape.org/namespaces/inkscape"
   version="1.0"
   width="39"
   height="39"
   id="svg2"
   inkscape:version="0.47 r22583"
   sodipodi:docname="04-01-001-01-03-04.svg">
  <defs
     id="defs14">
    <inkscape:perspective
       sodipodi:type="inkscape:persp3d"
       inkscape:vp_x="0 : 17.5 : 1"
       inkscape:vp_y="0 : 1000 : 0"
       inkscape:vp_z="48 : 17.5 : 1"
       inkscape:persp3d-origin="24 : 11.666667 : 1"
       id="perspective16" />
  </defs>
  <sodipodi:namedview
     pagecolor="#ffffff"
     bordercolor="#666666"
     borderopacity="1"
     objecttolerance="10"
     gridtolerance="10"
     guidetolerance="10"
     inkscape:pageopacity="0"
     inkscape:pageshadow="2"
     inkscape:window-width="1008"
     inkscape:window-height="790"
     id="namedview12"
     showgrid="true"
     inkscape:zoom="12.58262"
     inkscape:cx="24"
     inkscape:cy="17.5"
     inkscape:window-x="0"
     inkscape:window-y="0"
     inkscape:window-maximized="0"
     inkscape:current-layer="svg2">
    <inkscape:grid
       type="xygrid"
       id="grid2822" />
  </sodipodi:namedview>
  <metadata
     id="metadata4">
Valerie Sutton's pixel definition of the
ISWA 2010 symbol ID 04-01-001-01-03-01
transformed by Stephen E Slevinski Jr
using line and fill polygon tracing
<rdf:RDF>
  <cc:Work
     rdf:about="">
    <dc:format>image/svg+xml</dc:format>
    <dc:type
       rdf:resource="http://purl.org/dc/dcmitype/StillImage" />
    <dc:title />
  </cc:Work>
</rdf:RDF>
</metadata>
  <path
     style="fill:#000000;fill-opacity:1;stroke:none"
     d="M 19.5,2 C 9.8350169,2 2,9.8350169 2,19.5 2,29.164983 9.8350169,37 19.5,37 29.164983,37 37,29.164983 37,19.5 37,9.8350169 29.164983,2 19.5,2 z m 0,1.5 c 8.836556,0 16,7.163444 16,16 0,8.836556 -7.163444,16 -16,16 -8.836556,0 -16,-7.163444 -16,-16 0,-8.836556 7.163444,-16 16,-16 z"
     id="path2824" />
  <path
     style="fill:#000000;fill-opacity:1;stroke:none"
     d="M 5.0042475,0.0551275 0.0545,5.004875 4.8937621,9.844137 C 5.5307115,8.8831133 6.2787705,7.9729925 7.1255675,7.1261953 7.9723645,6.2793982 8.8824855,5.5313395 9.8435095,4.8943896 L 5.0042475,0.0551275 z M 34.106111,29.156991 c -0.63695,0.961024 -1.385008,1.871145 -2.231806,2.717942 -0.846797,0.846797 -1.756917,1.594856 -2.717942,2.231805 l 4.839262,4.839262 4.949747,-4.949747 -4.839261,-4.839262 z"
     id="rect2830" />
</svg>
