<?xml version="1.0" encoding="UTF-8" standalone="no"?>
<svg
   xmlns:dc="http://purl.org/dc/elements/1.1/"
   xmlns:cc="http://creativecommons.org/ns#"
   xmlns:rdf="http://www.w3.org/1999/02/22-rdf-syntax-ns#"
   xmlns:svg="http://www.w3.org/2000/svg"
   xmlns="http://www.w3.org/2000/svg"
   xmlns:sodipodi="http://sodipodi.sourceforge.net/DTD/sodipodi-0.dtd"
   xmlns:inkscape="http://www.inkscape.org/namespaces/inkscape"
   version="1.0"
   width="22"
   height="22"
   id="svg2"
   inkscape:version="0.47 r22583"
   sodipodi:docname="02-02-004-02-01-01.svg">
  <defs
     id="defs14">
    <inkscape:perspective
       sodipodi:type="inkscape:persp3d"
       inkscape:vp_x="0 : 5.5 : 1"
       inkscape:vp_y="0 : 1000 : 0"
       inkscape:vp_z="10 : 5.5 : 1"
       inkscape:persp3d-origin="5 : 3.6666667 : 1"
       id="perspective16" />
  </defs>
  <sodipodi:namedview
     pagecolor="#ffffff"
     bordercolor="#666666"
     borderopacity="1"
     objecttolerance="10"
     gridtolerance="10"
     guidetolerance="10"
     inkscape:pageopacity="0"
     inkscape:pageshadow="2"
     inkscape:window-width="917"
     inkscape:window-height="792"
     id="namedview12"
     showgrid="true"
     inkscape:zoom="18.681011"
     inkscape:cx="11.546272"
     inkscape:cy="11.352849"
     inkscape:window-x="313"
     inkscape:window-y="0"
     inkscape:window-maximized="0"
     inkscape:current-layer="svg2">
    <inkscape:grid
       type="xygrid"
       id="grid2822" />
  </sodipodi:namedview>
  <metadata
     id="metadata4">
Valerie Sutton's pixel definition of the
ISWA 2010 symbol ID 02-01-001-01-01-01
transformed by Stephen E Slevinski Jr
using line and fill polygon tracing
<rdf:RDF>
  <cc:Work
     rdf:about="">
    <dc:format>image/svg+xml</dc:format>
    <dc:type
       rdf:resource="http://purl.org/dc/dcmitype/StillImage" />
    <dc:title></dc:title>
  </cc:Work>
</rdf:RDF>
</metadata>
  <path
     style="fill:#000000;fill-opacity:1;stroke:none"
     d="M 4 14 C 1.790861 14 0 15.790861 0 18 C 0 20.209139 1.790861 22 4 22 C 6.209139 22 8 20.209139 8 18 C 8 15.790861 6.209139 14 4 14 z M 4 16 C 5.1045695 16 6 16.895431 6 18 C 6 19.104569 5.1045695 20 4 20 C 2.8954305 20 2 19.104569 2 18 C 2 16.895431 2.8954305 16 4 16 z "
     id="path3529" />
  <path
     style="fill:#000000;fill-opacity:1;stroke:none"
     d="M 11 7 C 8.790861 7 7 8.790861 7 11 C 7 13.209139 8.790861 15 11 15 C 13.209139 15 15 13.209139 15 11 C 15 8.790861 13.209139 7 11 7 z M 11 9 C 12.104569 9 13 9.8954305 13 11 C 13 12.104569 12.104569 13 11 13 C 9.8954305 13 9 12.104569 9 11 C 9 9.8954305 9.8954305 9 11 9 z "
     id="path3578" />
  <path
     style="fill:#000000;fill-opacity:1;stroke:none"
     d="M 18 0 C 15.790861 0 14 1.790861 14 4 C 14 6.209139 15.790861 8 18 8 C 20.209139 8 22 6.209139 22 4 C 22 1.790861 20.209139 0 18 0 z M 18 2 C 19.104569 2 20 2.8954305 20 4 C 20 5.1045695 19.104569 6 18 6 C 16.895431 6 16 5.1045695 16 4 C 16 2.8954305 16.895431 2 18 2 z "
     id="path3720" />
  <path
     style="fill:#ffffff;fill-opacity:1;stroke:none"
     d="M 11 9 C 9.8954305 9 9 9.8954305 9 11 C 9 12.104569 9.8954305 13 11 13 C 12.104569 13 13 12.104569 13 11 C 13 9.8954305 12.104569 9 11 9 z "
     id="path4194" />
  <path
     style="fill:#ffffff;fill-opacity:1;stroke:none"
     d="M 18 2 C 16.895431 2 16 2.8954305 16 4 C 16 5.1045695 16.895431 6 18 6 C 19.104569 6 20 5.1045695 20 4 C 20 2.8954305 19.104569 2 18 2 z "
     id="path4196" />
  <path
     style="fill:#ffffff;fill-opacity:1;stroke:none"
     d="M 4 16 C 2.8954305 16 2 16.895431 2 18 C 2 19.104569 2.8954305 20 4 20 C 5.1045695 20 6 19.104569 6 18 C 6 16.895431 5.1045695 16 4 16 z "
     id="path4198" />
</svg>
