<?xml version="1.0" encoding="UTF-8" standalone="no"?>
<svg
   xmlns:dc="http://purl.org/dc/elements/1.1/"
   xmlns:cc="http://creativecommons.org/ns#"
   xmlns:rdf="http://www.w3.org/1999/02/22-rdf-syntax-ns#"
   xmlns:svg="http://www.w3.org/2000/svg"
   xmlns="http://www.w3.org/2000/svg"
   xmlns:sodipodi="http://sodipodi.sourceforge.net/DTD/sodipodi-0.dtd"
   xmlns:inkscape="http://www.inkscape.org/namespaces/inkscape"
   version="1.0"
   width="29"
   height="33"
   id="svg2"
   inkscape:version="0.47 r22583"
   sodipodi:docname="02-10-001-02-03-01.svg">
  <defs
     id="defs16">
    <inkscape:perspective
       sodipodi:type="inkscape:persp3d"
       inkscape:vp_x="0 : 23 : 1"
       inkscape:vp_y="0 : 1000 : 0"
       inkscape:vp_z="36 : 23 : 1"
       inkscape:persp3d-origin="18 : 15.333333 : 1"
       id="perspective18" />
  </defs>
  <sodipodi:namedview
     pagecolor="#ffffff"
     bordercolor="#666666"
     borderopacity="1"
     objecttolerance="10"
     gridtolerance="10"
     guidetolerance="10"
     inkscape:pageopacity="0"
     inkscape:pageshadow="2"
     inkscape:window-width="964"
     inkscape:window-height="721"
     id="namedview14"
     showgrid="true"
     inkscape:zoom="14.333333"
     inkscape:cx="14.5"
     inkscape:cy="16.5"
     inkscape:window-x="365"
     inkscape:window-y="0"
     inkscape:window-maximized="0"
     inkscape:current-layer="svg2"
     showborder="true">
    <inkscape:grid
       type="xygrid"
       id="grid2824"
       empspacing="5"
       visible="true"
       enabled="true"
       snapvisiblegridlinesonly="true" />
  </sodipodi:namedview>
  <metadata
     id="metadata4">
Valerie Sutton's pixel definition of the
ISWA 2010 symbol ID 04-01-003-01-01-01
transformed by Stephen E Slevinski Jr
using line and fill polygon tracing
<rdf:RDF>
  <cc:Work
     rdf:about="">
    <dc:format>image/svg+xml</dc:format>
    <dc:type
       rdf:resource="http://purl.org/dc/dcmitype/StillImage" />
    <dc:title></dc:title>
  </cc:Work>
</rdf:RDF>
</metadata>
  <path
     style="fill:#000000;fill-opacity:1;stroke:none"
     d="M 15 4.03125 L 15 5.03125 C 22.221163 5.2976012 28 11.213738 28 18.5 C 28 25.955844 21.955844 32 14.5 32 C 7.0441559 32 1 25.955844 1 18.5 C 1 13.745329 3.4416254 9.5613366 7.15625 7.15625 L 6.4375 6.4375 C 2.5603673 9.0400911 0 13.479445 0 18.5 C 0 26.508129 6.4918711 33 14.5 33 C 22.508129 33 29 26.508129 29 18.5 C 29 10.662401 22.77219 4.2996381 15 4.03125 z "
     id="path3083" />
  <path
     style="fill:#ffffff;fill-opacity:1;stroke:none"
     d="M 15 5.03125 L 15 8.03125 C 20.562668 8.2966764 25 12.871605 25 18.5 C 25 24.29899 20.29899 29 14.5 29 C 8.7010101 29 4 24.29899 4 18.5 C 4 14.568954 6.1768806 11.174574 9.375 9.375 L 7.15625 7.15625 C 3.4416254 9.5613366 1 13.745329 1 18.5 C 1 25.955844 7.0441559 32 14.5 32 C 21.955844 32 28 25.955844 28 18.5 C 28 11.213738 22.221163 5.2976012 15 5.03125 z "
     id="path3085" />
  <path
     style="fill:#000000;fill-opacity:1;stroke:none"
     d="M 15 8.03125 L 15 9.03125 C 20.012181 9.2934891 24 13.422522 24 18.5 C 24 23.746705 19.746705 28 14.5 28 C 9.2532949 28 5 23.746705 5 18.5 C 5 14.843958 7.0662326 11.682057 10.09375 10.09375 L 9.375 9.375 C 6.1768806 11.174574 4 14.568954 4 18.5 C 4 24.29899 8.7010101 29 14.5 29 C 20.29899 29 25 24.29899 25 18.5 C 25 12.871605 20.562668 8.2966764 15 8.03125 z "
     id="path3090" />
  <path
     style="fill:#000000;fill-opacity:1;stroke:none"
     d="M 15 0 L 8.5 6.5 L 15 13 L 15 0 z M 14 2.4375 L 14 10.5625 L 9.90625 6.5 L 14 2.4375 z "
     id="path2829" />
  <path
     style="fill:#ffffff;fill-opacity:1;stroke:none"
     d="M 14 2.4375 L 9.90625 6.5 L 14 10.5625 L 14 2.4375 z "
     id="path3128" />
</svg>
