<?xml version="1.0" encoding="UTF-8" standalone="no"?>
<svg
   xmlns:dc="http://purl.org/dc/elements/1.1/"
   xmlns:cc="http://creativecommons.org/ns#"
   xmlns:rdf="http://www.w3.org/1999/02/22-rdf-syntax-ns#"
   xmlns:svg="http://www.w3.org/2000/svg"
   xmlns="http://www.w3.org/2000/svg"
   xmlns:sodipodi="http://sodipodi.sourceforge.net/DTD/sodipodi-0.dtd"
   xmlns:inkscape="http://www.inkscape.org/namespaces/inkscape"
   version="1.0"
   width="22"
   height="22"
   id="svg2"
   inkscape:version="0.47 r22583"
   sodipodi:docname="02-10-004-01-01-07.svg">
  <defs
     id="defs16">
    <inkscape:perspective
       sodipodi:type="inkscape:persp3d"
       inkscape:vp_x="0 : 23 : 1"
       inkscape:vp_y="0 : 1000 : 0"
       inkscape:vp_z="36 : 23 : 1"
       inkscape:persp3d-origin="18 : 15.333333 : 1"
       id="perspective18" />
  </defs>
  <sodipodi:namedview
     pagecolor="#ffffff"
     bordercolor="#666666"
     borderopacity="1"
     objecttolerance="10"
     gridtolerance="10"
     guidetolerance="10"
     inkscape:pageopacity="0"
     inkscape:pageshadow="2"
     inkscape:window-width="964"
     inkscape:window-height="721"
     id="namedview14"
     showgrid="true"
     inkscape:zoom="16.300086"
     inkscape:cx="11"
     inkscape:cy="11"
     inkscape:window-x="365"
     inkscape:window-y="0"
     inkscape:window-maximized="0"
     inkscape:current-layer="svg2"
     showborder="true">
    <inkscape:grid
       type="xygrid"
       id="grid2824"
       empspacing="5"
       visible="true"
       enabled="true"
       snapvisiblegridlinesonly="true" />
  </sodipodi:namedview>
  <metadata
     id="metadata4">
Valerie Sutton's pixel definition of the
ISWA 2010 symbol ID 04-01-003-01-01-01
transformed by Stephen E Slevinski Jr
using line and fill polygon tracing
<rdf:RDF>
  <cc:Work
     rdf:about="">
    <dc:format>image/svg+xml</dc:format>
    <dc:type
       rdf:resource="http://purl.org/dc/dcmitype/StillImage" />
    <dc:title></dc:title>
  </cc:Work>
</rdf:RDF>
</metadata>
  <path
     style="fill:#000000;fill-opacity:1;stroke:none"
     d="M 9.5147189,9 18,17.485281 18,9 9.5147189,9 z"
     id="path3279"
     sodipodi:nodetypes="cccc" />
  <path
     style="fill:#000000;fill-opacity:1;stroke:none"
     d="M 19.06066,1.5753788 C 17.303301,-0.1819803 13.187728,1.0843497 9.868272,4.4038059 L 4.211418,10.06066 c -3.3194562,3.319456 -4.58578616,7.435029 -2.8284271,9.192388 l 1.4142136,1.414214 c 1.4299558,1.429956 4.4166257,0.83579 7.2699415,-1.21534 L 7.2829131,16.667689 C 4.9881741,18.4737 2.8575489,19.313393 2.0900977,18.545942 1.1137869,17.569631 2.6966991,14.403806 5.6256316,11.474874 L 11.282486,5.8180195 c 2.928932,-2.9289325 6.094757,-4.5118447 7.071068,-3.5355339 0.677043,0.6770434 0.102931,2.3996015 -1.281631,4.3752232 l 2.762135,2.7621358 C 21.413794,6.8423641 21.762179,4.2768972 20.474874,2.9895924 L 19.06066,1.5753788 z"
     id="path3299" />
  <path
     sodipodi:nodetypes="cccc"
     id="path2814"
     d="m 5.2720782,13.242641 8.4852818,8.485281 0,-8.485281 -8.4852818,0 z"
     style="fill:#000000;fill-opacity:1;stroke:none" />
</svg>
