<?xml version="1.0" encoding="UTF-8" standalone="no"?>
<svg
   xmlns:dc="http://purl.org/dc/elements/1.1/"
   xmlns:cc="http://creativecommons.org/ns#"
   xmlns:rdf="http://www.w3.org/1999/02/22-rdf-syntax-ns#"
   xmlns:svg="http://www.w3.org/2000/svg"
   xmlns="http://www.w3.org/2000/svg"
   xmlns:sodipodi="http://sodipodi.sourceforge.net/DTD/sodipodi-0.dtd"
   xmlns:inkscape="http://www.inkscape.org/namespaces/inkscape"
   version="1.0"
   width="22"
   height="21"
   id="svg2"
   inkscape:version="0.47 r22583"
   sodipodi:docname="02-10-004-01-06-07.svg">
  <defs
     id="defs16">
    <inkscape:perspective
       sodipodi:type="inkscape:persp3d"
       inkscape:vp_x="0 : 23 : 1"
       inkscape:vp_y="0 : 1000 : 0"
       inkscape:vp_z="36 : 23 : 1"
       inkscape:persp3d-origin="18 : 15.333333 : 1"
       id="perspective18" />
  </defs>
  <sodipodi:namedview
     pagecolor="#ffffff"
     bordercolor="#666666"
     borderopacity="1"
     objecttolerance="10"
     gridtolerance="10"
     guidetolerance="10"
     inkscape:pageopacity="0"
     inkscape:pageshadow="2"
     inkscape:window-width="964"
     inkscape:window-height="721"
     id="namedview14"
     showgrid="true"
     inkscape:zoom="17.062634"
     inkscape:cx="10.998008"
     inkscape:cy="10.498098"
     inkscape:window-x="365"
     inkscape:window-y="0"
     inkscape:window-maximized="0"
     inkscape:current-layer="svg2"
     showborder="true">
    <inkscape:grid
       type="xygrid"
       id="grid2824"
       empspacing="5"
       visible="true"
       enabled="true"
       snapvisiblegridlinesonly="true" />
  </sodipodi:namedview>
  <metadata
     id="metadata4">
Valerie Sutton's pixel definition of the
ISWA 2010 symbol ID 04-01-003-01-01-01
transformed by Stephen E Slevinski Jr
using line and fill polygon tracing
<rdf:RDF>
  <cc:Work
     rdf:about="">
    <dc:format>image/svg+xml</dc:format>
    <dc:type
       rdf:resource="http://purl.org/dc/dcmitype/StillImage" />
    <dc:title></dc:title>
  </cc:Work>
</rdf:RDF>
</metadata>
  <path
     style="fill:#000000;fill-opacity:1;stroke:none"
     d="m 4.2218251,3 1.4142136,1.4142135 4.9497473,0 0,4.9497475 L 12,10.778175 12,3 4.2218251,3 z"
     id="path3279" />
  <path
     style="fill:#000000;fill-opacity:1;stroke:none"
     d="m 19.667262,0.9895924 c -1.357913,-1.357913 -4.112873,-0.86146394 -6.828,0.9501747 l 1.325825,1.3258253 C 16.30563,1.6698822 18.237182,0.9737263 18.960155,1.6966992 19.936466,2.67301 18.353554,5.8388345 15.424621,8.767767 L 9.767767,14.424621 C 6.8388345,17.353554 3.67301,18.936466 2.6966992,17.960155 1.9292479,17.192704 2.7689412,15.062079 4.5749516,12.76734 L 3.2049322,11.39732 c -2.0511301,2.853316 -2.6452957,5.839986 -1.2153398,7.269942 l 1.4142136,1.414213 c 1.757359,1.75736 5.872932,0.49103 9.192388,-2.828427 l 5.656854,-5.656854 C 21.572505,8.2767379 22.838835,4.161165 21.081475,2.403806 L 19.667262,0.9895924 z"
     id="path3299" />
  <path
     id="path2851"
     d="m 0.2218255,7 1.4142135,1.4142136 4.9497475,0 0,4.9497474 L 8,14.778175 8,7 0.2218255,7 z"
     style="fill:#000000;fill-opacity:1;stroke:none" />
</svg>
