<?xml version="1.0" encoding="UTF-8" standalone="no"?>
<svg
   xmlns:dc="http://purl.org/dc/elements/1.1/"
   xmlns:cc="http://creativecommons.org/ns#"
   xmlns:rdf="http://www.w3.org/1999/02/22-rdf-syntax-ns#"
   xmlns:svg="http://www.w3.org/2000/svg"
   xmlns="http://www.w3.org/2000/svg"
   xmlns:sodipodi="http://sodipodi.sourceforge.net/DTD/sodipodi-0.dtd"
   xmlns:inkscape="http://www.inkscape.org/namespaces/inkscape"
   version="1.0"
   width="21"
   height="22"
   id="svg2"
   inkscape:version="0.47 r22583"
   sodipodi:docname="02-10-004-01-06-04.svg">
  <defs
     id="defs16">
    <inkscape:perspective
       sodipodi:type="inkscape:persp3d"
       inkscape:vp_x="0 : 23 : 1"
       inkscape:vp_y="0 : 1000 : 0"
       inkscape:vp_z="36 : 23 : 1"
       inkscape:persp3d-origin="18 : 15.333333 : 1"
       id="perspective18" />
  </defs>
  <sodipodi:namedview
     pagecolor="#ffffff"
     bordercolor="#666666"
     borderopacity="1"
     objecttolerance="10"
     gridtolerance="10"
     guidetolerance="10"
     inkscape:pageopacity="0"
     inkscape:pageshadow="2"
     inkscape:window-width="964"
     inkscape:window-height="721"
     id="namedview14"
     showgrid="true"
     inkscape:zoom="16.300086"
     inkscape:cx="10.5"
     inkscape:cy="11"
     inkscape:window-x="365"
     inkscape:window-y="0"
     inkscape:window-maximized="0"
     inkscape:current-layer="svg2"
     showborder="true">
    <inkscape:grid
       type="xygrid"
       id="grid2824"
       empspacing="5"
       visible="true"
       enabled="true"
       snapvisiblegridlinesonly="true" />
  </sodipodi:namedview>
  <metadata
     id="metadata4">
Valerie Sutton's pixel definition of the
ISWA 2010 symbol ID 04-01-003-01-01-01
transformed by Stephen E Slevinski Jr
using line and fill polygon tracing
<rdf:RDF>
  <cc:Work
     rdf:about="">
    <dc:format>image/svg+xml</dc:format>
    <dc:type
       rdf:resource="http://purl.org/dc/dcmitype/StillImage" />
    <dc:title></dc:title>
  </cc:Work>
</rdf:RDF>
</metadata>
  <path
     style="fill:#000000;fill-opacity:1;stroke:none"
     d="m 3,4.2218245 1.4142135,1.414214 0,4.9497475 4.9497475,0 L 10.778175,12 3,12 3,4.2218245 z"
     id="path3279" />
  <path
     style="fill:#000000;fill-opacity:1;stroke:none"
     d="m 0.9895924,19.667262 c -1.35791296,-1.357913 -0.8614639,-4.112873 0.9501747,-6.828 l 1.3258253,1.325825 C 1.6698822,16.30563 0.9737263,18.237182 1.6966992,18.960155 2.67301,19.936466 5.8388345,18.353554 8.767767,15.424621 l 5.656854,-5.6568545 c 2.928933,-2.928932 4.511845,-6.094757 3.535534,-7.071068 -0.767451,-0.767451 -2.898076,0.07224 -5.192815,1.878253 l -1.37002,-1.37002 c 2.853316,-2.0511299 5.839986,-2.64529495 7.269942,-1.215339 l 1.414213,1.414213 c 1.75736,1.757359 0.49103,5.872932 -2.828427,9.1923885 l -5.656854,5.656854 C 8.2767379,21.572505 4.161165,22.838835 2.403806,21.081475 L 0.9895924,19.667262 z"
     id="path3299" />
  <path
     id="path2851"
     d="m 7,0.22182555 1.4142136,1.41421295 0,4.949748 4.9497474,0 1.414214,1.414213 -7.778175,0 0,-7.77817395 z"
     style="fill:#000000;fill-opacity:1;stroke:none" />
</svg>
