<?xml version="1.0" encoding="UTF-8" standalone="no"?>
<svg
   xmlns:dc="http://purl.org/dc/elements/1.1/"
   xmlns:cc="http://creativecommons.org/ns#"
   xmlns:rdf="http://www.w3.org/1999/02/22-rdf-syntax-ns#"
   xmlns:svg="http://www.w3.org/2000/svg"
   xmlns="http://www.w3.org/2000/svg"
   xmlns:sodipodi="http://sodipodi.sourceforge.net/DTD/sodipodi-0.dtd"
   xmlns:inkscape="http://www.inkscape.org/namespaces/inkscape"
   version="1.0"
   width="22"
   height="22"
   id="svg2"
   inkscape:version="0.47 r22583"
   sodipodi:docname="02-10-004-01-03-12.svg">
  <defs
     id="defs16">
    <inkscape:perspective
       sodipodi:type="inkscape:persp3d"
       inkscape:vp_x="0 : 23 : 1"
       inkscape:vp_y="0 : 1000 : 0"
       inkscape:vp_z="36 : 23 : 1"
       inkscape:persp3d-origin="18 : 15.333333 : 1"
       id="perspective18" />
  </defs>
  <sodipodi:namedview
     pagecolor="#ffffff"
     bordercolor="#666666"
     borderopacity="1"
     objecttolerance="10"
     gridtolerance="10"
     guidetolerance="10"
     inkscape:pageopacity="0"
     inkscape:pageshadow="2"
     inkscape:window-width="964"
     inkscape:window-height="721"
     id="namedview14"
     showgrid="true"
     inkscape:zoom="16.300086"
     inkscape:cx="11"
     inkscape:cy="11"
     inkscape:window-x="365"
     inkscape:window-y="0"
     inkscape:window-maximized="0"
     inkscape:current-layer="svg2"
     showborder="true">
    <inkscape:grid
       type="xygrid"
       id="grid2824"
       empspacing="5"
       visible="true"
       enabled="true"
       snapvisiblegridlinesonly="true" />
  </sodipodi:namedview>
  <metadata
     id="metadata4">
Valerie Sutton's pixel definition of the
ISWA 2010 symbol ID 04-01-003-01-01-01
transformed by Stephen E Slevinski Jr
using line and fill polygon tracing
<rdf:RDF>
  <cc:Work
     rdf:about="">
    <dc:format>image/svg+xml</dc:format>
    <dc:type
       rdf:resource="http://purl.org/dc/dcmitype/StillImage" />
    <dc:title></dc:title>
  </cc:Work>
</rdf:RDF>
</metadata>
  <path
     style="fill:#000000;fill-opacity:1;stroke:none"
     d="M 13,9.5147187 13,18 l -8.485281,0 1.414213,-1.414213 5.656854,0 0,-5.656855 L 13,9.5147187 z"
     id="path3279" />
  <path
     style="fill:#000000;fill-opacity:1;stroke:none"
     d="M 20.424621,19.06066 C 22.18198,17.303301 20.91565,13.187728 17.596194,9.868272 L 11.93934,4.2114187 C 8.619883,0.8919617 4.504311,-0.37436831 2.746952,1.3829907 l -1.414214,1.414214 c -1.42995601,1.429956 -0.83579,4.416626 1.21534,7.2699423 L 5.332311,7.2829137 C 3.5263,4.9881747 2.686607,2.8575487 3.454058,2.0900977 c 0.976311,-0.976311 4.142136,0.606602 7.071068,3.535534 l 5.656854,5.6568553 c 2.928933,2.928931 4.511845,6.094756 3.535534,7.071067 -0.677043,0.677043 -2.399601,0.102931 -4.375223,-1.281631 l -2.762136,2.762135 c 2.577481,1.579736 5.142948,1.928121 6.430253,0.640816 l 1.414213,-1.414214 z"
     id="path3299" />
  <path
     id="path3895"
     d="m 8.757359,5.2720787 0,8.4852813 -8.48528101,0 1.41421301,-1.414214 5.656855,0 0,-5.6568553 1.414213,-1.414212 z"
     style="fill:#000000;fill-opacity:1;stroke:none" />
</svg>
