<?xml version="1.0" encoding="UTF-8" standalone="no"?>
<svg
   xmlns:dc="http://purl.org/dc/elements/1.1/"
   xmlns:cc="http://creativecommons.org/ns#"
   xmlns:rdf="http://www.w3.org/1999/02/22-rdf-syntax-ns#"
   xmlns:svg="http://www.w3.org/2000/svg"
   xmlns="http://www.w3.org/2000/svg"
   xmlns:sodipodi="http://sodipodi.sourceforge.net/DTD/sodipodi-0.dtd"
   xmlns:inkscape="http://www.inkscape.org/namespaces/inkscape"
   version="1.0"
   width="22"
   height="21"
   id="svg2"
   inkscape:version="0.47 r22583"
   sodipodi:docname="02-10-004-01-06-16.svg">
  <defs
     id="defs16">
    <inkscape:perspective
       sodipodi:type="inkscape:persp3d"
       inkscape:vp_x="0 : 23 : 1"
       inkscape:vp_y="0 : 1000 : 0"
       inkscape:vp_z="36 : 23 : 1"
       inkscape:persp3d-origin="18 : 15.333333 : 1"
       id="perspective18" />
  </defs>
  <sodipodi:namedview
     pagecolor="#ffffff"
     bordercolor="#666666"
     borderopacity="1"
     objecttolerance="10"
     gridtolerance="10"
     guidetolerance="10"
     inkscape:pageopacity="0"
     inkscape:pageshadow="2"
     inkscape:window-width="964"
     inkscape:window-height="721"
     id="namedview14"
     showgrid="true"
     inkscape:zoom="17.062634"
     inkscape:cx="10.998008"
     inkscape:cy="10.498098"
     inkscape:window-x="365"
     inkscape:window-y="0"
     inkscape:window-maximized="0"
     inkscape:current-layer="svg2"
     showborder="true">
    <inkscape:grid
       type="xygrid"
       id="grid2824"
       empspacing="5"
       visible="true"
       enabled="true"
       snapvisiblegridlinesonly="true" />
  </sodipodi:namedview>
  <metadata
     id="metadata4">
Valerie Sutton's pixel definition of the
ISWA 2010 symbol ID 04-01-003-01-01-01
transformed by Stephen E Slevinski Jr
using line and fill polygon tracing
<rdf:RDF>
  <cc:Work
     rdf:about="">
    <dc:format>image/svg+xml</dc:format>
    <dc:type
       rdf:resource="http://purl.org/dc/dcmitype/StillImage" />
    <dc:title></dc:title>
  </cc:Work>
</rdf:RDF>
</metadata>
  <path
     style="fill:#000000;fill-opacity:1;stroke:none"
     d="m 17.778175,3 -1.414214,1.4142135 -4.949747,0 0,4.9497475 L 10,10.778175 10,3 17.778175,3 z"
     id="path3279" />
  <path
     style="fill:#000000;fill-opacity:1;stroke:none"
     d="m 2.3327378,0.9895924 c 1.357913,-1.357913 4.112873,-0.86146394 6.828,0.9501747 L 7.8349128,3.2655924 C 5.6943698,1.6698822 3.7628178,0.9737263 3.0398448,1.6966992 2.0635338,2.67301 3.6464458,5.8388345 6.5753788,8.767767 l 5.6568542,5.656854 c 2.928932,2.928933 6.094757,4.511845 7.071068,3.535534 0.767451,-0.767451 -0.07224,-2.898076 -1.878253,-5.192815 l 1.37002,-1.37002 c 2.05113,2.853316 2.645295,5.839986 1.215339,7.269942 l -1.414213,1.414213 c -1.757359,1.75736 -5.872932,0.49103 -9.1923882,-2.828427 L 3.7469518,11.596194 C 0.42749484,8.2767379 -0.83883516,4.161165 0.9185248,2.403806 l 1.414213,-1.4142136 z"
     id="path3299" />
  <path
     id="path2851"
     d="m 21.778174,7 -1.414213,1.4142136 -4.949748,0 0,4.9497474 L 14,14.778175 14,7 21.778174,7 z"
     style="fill:#000000;fill-opacity:1;stroke:none" />
</svg>
