<?xml version="1.0" encoding="UTF-8" standalone="no"?>
<svg
   xmlns:dc="http://purl.org/dc/elements/1.1/"
   xmlns:cc="http://creativecommons.org/ns#"
   xmlns:rdf="http://www.w3.org/1999/02/22-rdf-syntax-ns#"
   xmlns:svg="http://www.w3.org/2000/svg"
   xmlns="http://www.w3.org/2000/svg"
   xmlns:sodipodi="http://sodipodi.sourceforge.net/DTD/sodipodi-0.dtd"
   xmlns:inkscape="http://www.inkscape.org/namespaces/inkscape"
   version="1.0"
   width="21"
   height="22"
   id="svg2"
   inkscape:version="0.47 r22583"
   sodipodi:docname="02-10-004-01-06-12.svg">
  <defs
     id="defs16">
    <inkscape:perspective
       sodipodi:type="inkscape:persp3d"
       inkscape:vp_x="0 : 23 : 1"
       inkscape:vp_y="0 : 1000 : 0"
       inkscape:vp_z="36 : 23 : 1"
       inkscape:persp3d-origin="18 : 15.333333 : 1"
       id="perspective18" />
  </defs>
  <sodipodi:namedview
     pagecolor="#ffffff"
     bordercolor="#666666"
     borderopacity="1"
     objecttolerance="10"
     gridtolerance="10"
     guidetolerance="10"
     inkscape:pageopacity="0"
     inkscape:pageshadow="2"
     inkscape:window-width="964"
     inkscape:window-height="721"
     id="namedview14"
     showgrid="true"
     inkscape:zoom="16.300086"
     inkscape:cx="10.5"
     inkscape:cy="11"
     inkscape:window-x="365"
     inkscape:window-y="0"
     inkscape:window-maximized="0"
     inkscape:current-layer="svg2"
     showborder="true">
    <inkscape:grid
       type="xygrid"
       id="grid2824"
       empspacing="5"
       visible="true"
       enabled="true"
       snapvisiblegridlinesonly="true" />
  </sodipodi:namedview>
  <metadata
     id="metadata4">
Valerie Sutton's pixel definition of the
ISWA 2010 symbol ID 04-01-003-01-01-01
transformed by Stephen E Slevinski Jr
using line and fill polygon tracing
<rdf:RDF>
  <cc:Work
     rdf:about="">
    <dc:format>image/svg+xml</dc:format>
    <dc:type
       rdf:resource="http://purl.org/dc/dcmitype/StillImage" />
    <dc:title></dc:title>
  </cc:Work>
</rdf:RDF>
</metadata>
  <path
     style="fill:#000000;fill-opacity:1;stroke:none"
     d="m 18,4.2218245 -1.414214,1.414214 0,4.9497475 -4.949747,0 L 10.221825,12 18,12 18,4.2218245 z"
     id="path3279" />
  <path
     style="fill:#000000;fill-opacity:1;stroke:none"
     d="m 20.010407,19.667262 c 1.357913,-1.357913 0.861464,-4.112873 -0.950174,-6.828 l -1.325826,1.325825 c 1.59571,2.140543 2.291866,4.072095 1.568893,4.795068 -0.97631,0.976311 -4.142135,-0.606601 -7.071067,-3.535534 L 6.5753786,9.7677665 c -2.928933,-2.928932 -4.511845,-6.094757 -3.535534,-7.071068 0.767451,-0.767451 2.898076,0.07224 5.192815,1.878253 l 1.37002,-1.37002 C 6.7493636,1.1538016 3.7626936,0.55963655 2.3327376,1.9895925 l -1.414213,1.414213 c -1.75735996,1.757359 -0.49102996,5.872932 2.828427,9.1923885 l 5.656854,5.656854 c 3.3194564,3.319457 7.4350294,4.585787 9.1923884,2.828427 l 1.414213,-1.414213 z"
     id="path3299" />
  <path
     id="path2851"
     d="m 14,0.22182555 -1.414214,1.41421295 0,4.949748 -4.9497474,0 -1.414214,1.414213 7.7781754,0 0,-7.77817395 z"
     style="fill:#000000;fill-opacity:1;stroke:none" />
</svg>
