<?xml version="1.0" encoding="UTF-8" standalone="no"?>
<svg
   xmlns:dc="http://purl.org/dc/elements/1.1/"
   xmlns:cc="http://creativecommons.org/ns#"
   xmlns:rdf="http://www.w3.org/1999/02/22-rdf-syntax-ns#"
   xmlns:svg="http://www.w3.org/2000/svg"
   xmlns="http://www.w3.org/2000/svg"
   xmlns:sodipodi="http://sodipodi.sourceforge.net/DTD/sodipodi-0.dtd"
   xmlns:inkscape="http://www.inkscape.org/namespaces/inkscape"
   version="1.0"
   width="15"
   height="25"
   id="svg2"
   inkscape:version="0.47 r22583"
   sodipodi:docname="02-10-004-01-01-13.svg">
  <defs
     id="defs16">
    <inkscape:perspective
       sodipodi:type="inkscape:persp3d"
       inkscape:vp_x="0 : 23 : 1"
       inkscape:vp_y="0 : 1000 : 0"
       inkscape:vp_z="36 : 23 : 1"
       inkscape:persp3d-origin="18 : 15.333333 : 1"
       id="perspective18" />
  </defs>
  <sodipodi:namedview
     pagecolor="#ffffff"
     bordercolor="#666666"
     borderopacity="1"
     objecttolerance="10"
     gridtolerance="10"
     guidetolerance="10"
     inkscape:pageopacity="0"
     inkscape:pageshadow="2"
     inkscape:window-width="964"
     inkscape:window-height="721"
     id="namedview14"
     showgrid="true"
     inkscape:zoom="16.47"
     inkscape:cx="7.5"
     inkscape:cy="12.5"
     inkscape:window-x="365"
     inkscape:window-y="0"
     inkscape:window-maximized="0"
     inkscape:current-layer="svg2"
     showborder="true">
    <inkscape:grid
       type="xygrid"
       id="grid2824"
       empspacing="5"
       visible="true"
       enabled="true"
       snapvisiblegridlinesonly="true" />
  </sodipodi:namedview>
  <metadata
     id="metadata4">
Valerie Sutton's pixel definition of the
ISWA 2010 symbol ID 04-01-003-01-01-01
transformed by Stephen E Slevinski Jr
using line and fill polygon tracing
<rdf:RDF>
  <cc:Work
     rdf:about="">
    <dc:format>image/svg+xml</dc:format>
    <dc:type
       rdf:resource="http://purl.org/dc/dcmitype/StillImage" />
    <dc:title></dc:title>
  </cc:Work>
</rdf:RDF>
</metadata>
  <path
     style="fill:#000000;fill-opacity:1;stroke:none"
     d="M 3,13 15,13 9,19 3,13 z"
     id="path3279"
     sodipodi:nodetypes="cccc" />
  <path
     style="fill:#000000;fill-opacity:1;stroke:none"
     d="M 4.5,25 C 2.014719,25 0,21.19442 0,16.5 l 0,-8 C 0,3.80558 2.014719,0 4.5,0 l 2,0 c 2.0222634,0 3.714019,2.532033 4.28125,6 L 6.84375,6 C 6.4981672,3.100332 5.5853404,1 4.5,1 3.119288,1 2,4.357864 2,8.5 l 0,8 c 0,4.142136 1.119288,7.5 2.5,7.5 0.957484,0 1.7695582,-1.623991 2.1875,-4 l 3.90625,0 C 9.8882378,22.939596 8.3205237,25 6.5,25 l -2,0 z"
     id="path3299" />
  <path
     sodipodi:nodetypes="cccc"
     id="path2814"
     d="M 3,7 15,7 9,13 3,7 z"
     style="fill:#000000;fill-opacity:1;stroke:none" />
</svg>
