<?xml version="1.0" encoding="UTF-8" standalone="no"?>
<svg
   xmlns:dc="http://purl.org/dc/elements/1.1/"
   xmlns:cc="http://creativecommons.org/ns#"
   xmlns:rdf="http://www.w3.org/1999/02/22-rdf-syntax-ns#"
   xmlns:svg="http://www.w3.org/2000/svg"
   xmlns="http://www.w3.org/2000/svg"
   xmlns:sodipodi="http://sodipodi.sourceforge.net/DTD/sodipodi-0.dtd"
   xmlns:inkscape="http://www.inkscape.org/namespaces/inkscape"
   version="1.0"
   width="25"
   height="15"
   id="svg2"
   inkscape:version="0.47 r22583"
   sodipodi:docname="02-10-004-01-01-05.svg">
  <defs
     id="defs16">
    <inkscape:perspective
       sodipodi:type="inkscape:persp3d"
       inkscape:vp_x="0 : 23 : 1"
       inkscape:vp_y="0 : 1000 : 0"
       inkscape:vp_z="36 : 23 : 1"
       inkscape:persp3d-origin="18 : 15.333333 : 1"
       id="perspective18" />
  </defs>
  <sodipodi:namedview
     pagecolor="#ffffff"
     bordercolor="#666666"
     borderopacity="1"
     objecttolerance="10"
     gridtolerance="10"
     guidetolerance="10"
     inkscape:pageopacity="0"
     inkscape:pageshadow="2"
     inkscape:window-width="964"
     inkscape:window-height="721"
     id="namedview14"
     showgrid="true"
     inkscape:zoom="16.896509"
     inkscape:cx="12.501064"
     inkscape:cy="7.5006382"
     inkscape:window-x="365"
     inkscape:window-y="0"
     inkscape:window-maximized="0"
     inkscape:current-layer="svg2"
     showborder="true">
    <inkscape:grid
       type="xygrid"
       id="grid2824"
       empspacing="5"
       visible="true"
       enabled="true"
       snapvisiblegridlinesonly="true" />
  </sodipodi:namedview>
  <metadata
     id="metadata4">
Valerie Sutton's pixel definition of the
ISWA 2010 symbol ID 04-01-003-01-01-01
transformed by Stephen E Slevinski Jr
using line and fill polygon tracing
<rdf:RDF>
  <cc:Work
     rdf:about="">
    <dc:format>image/svg+xml</dc:format>
    <dc:type
       rdf:resource="http://purl.org/dc/dcmitype/StillImage" />
    <dc:title></dc:title>
  </cc:Work>
</rdf:RDF>
</metadata>
  <path
     style="fill:#000000;fill-opacity:1;stroke:none"
     d="M 12,3 12,15 6,9 12,3 z"
     id="path3279"
     sodipodi:nodetypes="cccc" />
  <path
     style="fill:#000000;fill-opacity:1;stroke:none"
     d="M 0,4.5 C 0,2.014719 3.80558,0 8.5,0 l 8,0 C 21.19442,0 25,2.014719 25,4.5 l 0,2 c 0,2.022263 -2.532033,3.714019 -6,4.28125 l 0,-3.9375 C 21.899668,6.498167 24,5.58534 24,4.5 24,3.119288 20.642136,2 16.5,2 l -8,0 C 4.357864,2 1,3.119288 1,4.5 1,5.457484 2.623991,6.269558 5,6.6875 l 0,3.90625 C 2.060404,9.888238 0,8.320524 0,6.5 l 0,-2 z"
     id="path3299" />
  <path
     sodipodi:nodetypes="cccc"
     id="path2814"
     d="M 18,3 18,15 12,9 18,3 z"
     style="fill:#000000;fill-opacity:1;stroke:none" />
</svg>
