<?xml version="1.0" encoding="UTF-8" standalone="no"?>
<svg
   xmlns:dc="http://purl.org/dc/elements/1.1/"
   xmlns:cc="http://creativecommons.org/ns#"
   xmlns:rdf="http://www.w3.org/1999/02/22-rdf-syntax-ns#"
   xmlns:svg="http://www.w3.org/2000/svg"
   xmlns="http://www.w3.org/2000/svg"
   xmlns:sodipodi="http://sodipodi.sourceforge.net/DTD/sodipodi-0.dtd"
   xmlns:inkscape="http://www.inkscape.org/namespaces/inkscape"
   version="1.0"
   width="16"
   height="25"
   id="svg2"
   inkscape:version="0.47 r22583"
   sodipodi:docname="02-10-004-01-06-09.svg">
  <defs
     id="defs16">
    <inkscape:perspective
       sodipodi:type="inkscape:persp3d"
       inkscape:vp_x="0 : 23 : 1"
       inkscape:vp_y="0 : 1000 : 0"
       inkscape:vp_z="36 : 23 : 1"
       inkscape:persp3d-origin="18 : 15.333333 : 1"
       id="perspective18" />
  </defs>
  <sodipodi:namedview
     pagecolor="#ffffff"
     bordercolor="#666666"
     borderopacity="1"
     objecttolerance="10"
     gridtolerance="10"
     guidetolerance="10"
     inkscape:pageopacity="0"
     inkscape:pageshadow="2"
     inkscape:window-width="964"
     inkscape:window-height="721"
     id="namedview14"
     showgrid="true"
     inkscape:zoom="16.47"
     inkscape:cx="8"
     inkscape:cy="12.5"
     inkscape:window-x="365"
     inkscape:window-y="0"
     inkscape:window-maximized="0"
     inkscape:current-layer="svg2"
     showborder="true">
    <inkscape:grid
       type="xygrid"
       id="grid2824"
       empspacing="5"
       visible="true"
       enabled="true"
       snapvisiblegridlinesonly="true" />
  </sodipodi:namedview>
  <metadata
     id="metadata4">
Valerie Sutton's pixel definition of the
ISWA 2010 symbol ID 04-01-003-01-01-01
transformed by Stephen E Slevinski Jr
using line and fill polygon tracing
<rdf:RDF>
  <cc:Work
     rdf:about="">
    <dc:format>image/svg+xml</dc:format>
    <dc:type
       rdf:resource="http://purl.org/dc/dcmitype/StillImage" />
    <dc:title></dc:title>
  </cc:Work>
</rdf:RDF>
</metadata>
  <path
     style="fill:#000000;fill-opacity:1;stroke:none"
     d="M 16,13 14,13 10.5,16.5 7,13 5,13 10.5,18.5 16,13 z"
     id="path3279" />
  <path
     style="fill:#000000;fill-opacity:1;stroke:none"
     d="m 6.5,25 c 1.9203792,0 3.517387,-2.299093 4.15625,-5.5 l -1.875,0 C 8.3959949,22.14193 7.5224385,24 6.5,24 5.119288,24 4,20.642136 4,16.5 l 0,-8 C 4,4.357864 5.119288,1 6.5,1 7.5853404,1 8.4981672,3.100332 8.84375,6 l 1.9375,0 C 10.214019,2.532033 8.5222634,0 6.5,0 l -2,0 C 2.014719,0 0,3.80558 0,8.5 l 0,8 C 0,21.19442 2.014719,25 4.5,25 l 2,0 z"
     id="path3299" />
  <path
     id="path2851"
     d="M 16,7 14,7 10.5,10.5 7,7 5,7 10.5,12.5 16,7 z"
     style="fill:#000000;fill-opacity:1;stroke:none" />
</svg>
