<?xml version="1.0" encoding="UTF-8" standalone="no"?>
<svg
   xmlns:dc="http://purl.org/dc/elements/1.1/"
   xmlns:cc="http://creativecommons.org/ns#"
   xmlns:rdf="http://www.w3.org/1999/02/22-rdf-syntax-ns#"
   xmlns:svg="http://www.w3.org/2000/svg"
   xmlns="http://www.w3.org/2000/svg"
   xmlns:sodipodi="http://sodipodi.sourceforge.net/DTD/sodipodi-0.dtd"
   xmlns:inkscape="http://www.inkscape.org/namespaces/inkscape"
   version="1.0"
   width="35"
   height="35"
   id="svg2"
   inkscape:version="0.47 r22583"
   sodipodi:docname="04-05-004-01-02-01.svg">
  <defs
     id="defs14">
    <inkscape:perspective
       sodipodi:type="inkscape:persp3d"
       inkscape:vp_x="0 : 17.5 : 1"
       inkscape:vp_y="0 : 1000 : 0"
       inkscape:vp_z="36 : 17.5 : 1"
       inkscape:persp3d-origin="18 : 11.666667 : 1"
       id="perspective16" />
  </defs>
  <sodipodi:namedview
     pagecolor="#ffffff"
     bordercolor="#666666"
     borderopacity="1"
     objecttolerance="10"
     gridtolerance="10"
     guidetolerance="10"
     inkscape:pageopacity="0"
     inkscape:pageshadow="2"
     inkscape:window-width="993"
     inkscape:window-height="789"
     id="namedview12"
     showgrid="true"
     inkscape:zoom="15.487127"
     inkscape:cx="18"
     inkscape:cy="17.5"
     inkscape:window-x="209"
     inkscape:window-y="0"
     inkscape:window-maximized="0"
     inkscape:current-layer="svg2">
    <inkscape:grid
       type="xygrid"
       id="grid2822" />
  </sodipodi:namedview>
  <metadata
     id="metadata4">
Valerie Sutton's pixel definition of the
ISWA 2010 symbol ID 04-03-001-01-01-01
transformed by Stephen E Slevinski Jr
using line and fill polygon tracing
<rdf:RDF>
  <cc:Work
     rdf:about="">
    <dc:format>image/svg+xml</dc:format>
    <dc:type
       rdf:resource="http://purl.org/dc/dcmitype/StillImage" />
    <dc:title />
  </cc:Work>
</rdf:RDF>
</metadata>
  <path
     style="fill:#000000;fill-opacity:1;stroke:none"
     d="M 17.5,0 C 7.8350169,0 0,7.8350169 0,17.5 0,27.164983 7.8350169,35 17.5,35 27.164983,35 35,27.164983 35,17.5 35,7.8350169 27.164983,0 17.5,0 z m 0,1.5 c 8.836556,0 16,7.163444 16,16 0,8.836556 -7.163444,16 -16,16 -8.836556,0 -16,-7.163444 -16,-16 0,-8.836556 7.163444,-16 16,-16 z"
     id="path2824" />
  <path
     style="fill:#000000;fill-opacity:1;stroke:none"
     d="m 17.5,20 c -2.761425,0 -5,2.238575 -5,5 0,2.761425 2.238575,5 5,5 2.761425,0 5,-2.238575 5,-5 0,-2.761425 -2.238575,-5 -5,-5 z m 0,1 c 2.209139,0 4,1.790861 4,4 0,2.209139 -1.790861,4 -4,4 -2.209139,0 -4,-1.790861 -4,-4 0,-2.209139 1.790861,-4 4,-4 z"
     id="path2814" />
  <path
     style="fill:#000000;fill-opacity:1;stroke:none"
     d="M 24.71875 20 L 24 20.71875 L 26.125 22.875 L 24 25 L 26.125 27.125 L 24 29.28125 L 24.71875 30 L 27.5625 27.15625 L 25.4375 25 L 27.5625 22.84375 L 24.71875 20 z "
     id="path2878" />
  <path
     id="path2977"
     d="M 10.28125,20 11,20.71875 8.875,22.875 11,25 8.875,27.125 11,29.28125 10.28125,30 7.4375,27.15625 9.5625,25 7.4375,22.84375 10.28125,20 z"
     style="fill:#000000;fill-opacity:1;stroke:none" />
  <path
     sodipodi:type="arc"
     style="fill:#000000;fill-opacity:1;stroke:none"
     id="path2979"
     sodipodi:cx="17"
     sodipodi:cy="25"
     sodipodi:rx="2"
     sodipodi:ry="2"
     d="m 19,25 a 2,2 0 1 1 -4,0 2,2 0 1 1 4,0 z"
     transform="translate(0.5,0)" />
</svg>
